<svg xmlns="http://www.w3.org/2000/svg"
  viewBox="28.800000000016 -601.2857142859183 1139.304477611768 876.2857142859183">
  <rect x="28.800000000016" y="-601.2857142859183" width="1139.304477611768" height="876.2857142859183" fill="white"/>
  <path d="M 868.0 217.0 L 860.666666667 211.0 L 860.333333333 205.666666667 L 867.0 201.0 L 873.666666667 196.333333333 L 882.0 194.0 L 892.0 194.0 L 902.666666667 194.0 L 917.833333333 184.0 L 937.5 164.0 L 957.166666667 144.0 L 970.0 120.0 L 976.0 92.0 L 986.0 43.3333333333 L 960.333333333 3.33333333333 L 899.0 -28.0 L 833.0 -60.6666666667 L 748.333333333 -82.3333333333 L 645.0 -93.0 L 627.666666667 -94.3333333333 L 608.0 -95.0 L 586.0 -95.0 L 564.0 -95.0 L 551.666666667 -95.3333333333 L 549.0 -96.0 L 539.666666667 -99.3333333333 L 536.166666667 -105.0 L 538.5 -113.0 L 540.833333333 -121.0 L 545.666666667 -125.333333333 L 553.0 -126.0 L 560.333333333 -126.666666667 L 578.5 -126.166666667 L 607.5 -124.5 L 636.5 -122.833333333 L 668.0 -119.666666667 L 702.0 -115.0 L 741.333333333 -109.0 L 781.166666667 -101.0 L 821.5 -91.0 L 861.833333333 -81.0 L 899.666666667 -69.3333333333 L 935.0 -56.0 L 974.333333333 -40.6666666667 L 1005.66666667 -25.1666666667 L 1029.0 -9.5 L 1052.33333333 6.16666666667 L 1073.66666667 26.6666666667 L 1093.0 52.0 L 1112.33333333 78.6666666667 L 1120.5 105.0 L 1117.5 131.0 L 1114.5 157.0 L 1103.0 177.333333333 L 1083.0 192.0 L 1065.66666667 205.333333333 L 1045.5 214.166666667 L 1022.5 218.5 L 999.5 222.833333333 L 977.333333333 225.0 L 956.0 225.0 L 934.666666667 225.0 L 920.0 224.833333333 L 912.0 224.5 L 904.0 224.166666667 L 889.333333333 221.666666667 Z M 409.0 -208.0 L 401.666666667 -214.0 L 401.333333333 -219.5 L 408.0 -224.5 L 414.666666667 -229.5 L 423.0 -232.0 L 433.0 -232.0 L 443.666666667 -232.0 L 458.833333333 -241.666666667 L 478.5 -261.0 L 498.166666667 -280.333333333 L 511.0 -304.333333333 L 517.0 -333.0 L 527.0 -381.666666667 L 501.333333333 -421.666666667 L 440.0 -453.0 L 374.666666667 -485.666666667 L 290.0 -507.0 L 186.0 -517.0 L 168.0 -519.0 L 148.333333333 -519.833333333 L 127.0 -519.5 L 105.666666667 -519.166666667 L 93.3333333333 -519.666666667 L 90.0 -521.0 L 80.6666666667 -524.333333333 L 77.1666666667 -530.0 L 79.5 -538.0 L 81.8333333333 -546.0 L 86.6666666667 -550.333333333 L 94.0 -551.0 L 101.333333333 -551.666666667 L 119.333333333 -551.166666667 L 148.0 -549.5 L 176.666666667 -547.833333333 L 208.333333333 -544.666666667 L 243.0 -540.0 L 282.333333333 -534.0 L 322.166666667 -526.0 L 362.5 -516.0 L 402.833333333 -506.0 L 440.666666667 -494.333333333 L 476.0 -481.0 L 515.333333333 -465.666666667 L 546.666666667 -450.166666667 L 570.0 -434.5 L 593.333333333 -418.833333333 L 614.666666667 -398.0 L 634.0 -372.0 L 653.333333333 -345.333333333 L 661.5 -319.166666667 L 658.5 -293.5 L 655.5 -267.833333333 L 644.333333333 -248.0 L 625.0 -234.0 L 607.666666667 -220.666666667 L 587.333333333 -211.666666667 L 564.0 -207.0 L 540.666666667 -202.333333333 L 518.333333333 -200.0 L 497.0 -200.0 L 466.0 -200.0 L 466.0 -200.0 L 453.5 -200.0 L 445.166666667 -200.0 L 430.333333333 -202.666666667 Z" fill="black" fill-opacity="0.25" stroke="black" stroke-width="4.0"/>
  <rect x="536.0" y="-127.0" width="585.0" height="352.0" fill="none" stroke="red" stroke-width="10.0" /><rect x="77.0" y="-552.0" width="584.0000000000001" height="352.00000000000006" fill="none" stroke="red" stroke-width="10.0" />
</svg>
