<svg xmlns="http://www.w3.org/2000/svg"
  viewBox="-151.0 -862.0 507.0 908.2666666666528">
  <rect x="-151.0" y="-862.0" width="507.0" height="908.2666666666528" fill="white"/>
  <path d="M 90.0 -248.0 Z M 106.0 -812.0 L 55.3333333333 -810.0 L 14.8333333333 -801.5 L -15.5 -786.5 L -45.8333333333 -771.5 L -74.3333333333 -746.666666667 L -101.0 -712.0 L -91.0 -703.0 L -51.0 -740.333333333 L -16.0 -762.666666667 L 14.0 -770.0 L 44.0 -777.333333333 L 74.6666666667 -781.666666667 L 106.0 -783.0 L 148.0 -780.333333333 L 182.333333333 -774.0 L 209.0 -764.0 L 235.666666667 -754.0 L 264.666666667 -733.666666667 L 296.0 -703.0 L 306.0 -714.0 L 273.333333333 -753.333333333 L 242.333333333 -778.833333333 L 213.0 -790.5 L 183.666666667 -802.166666667 L 148.0 -809.333333333 Z M 91.0 -693.0 L 91.6666666667 -701.666666667 L 97.0 -705.666666667 L 107.0 -705.0 L 117.0 -704.333333333 L 122.333333333 -700.333333333 L 123.0 -693.0 L 123.0 -30.0 L 123.0 -15.0 L 123.0 -15.0 L 123.0 -15.0 L 119.0 -6.33333333333 L 112.666666667 -2.66666666667 L 104.0 -4.0 L 95.3333333333 -5.33333333333 L 91.0 -9.0 L 91.0 -15.0 L 91.0 -678.0 L 91.0 -693.0 L 91.0 -693.0 Z" fill="black" fill-opacity="0.25" stroke="black" stroke-width="4.0"/>
  <rect x="-101.0" y="-812.0" width="407.0" height="109.0000000000001" fill="none" stroke="red" stroke-width="10.0" /><rect x="91.0" y="-706.0" width="32.0" height="703.0" fill="none" stroke="red" stroke-width="10.0" />
</svg>
