<svg xmlns="http://www.w3.org/2000/svg"
  viewBox="21.734 -870.2 1087.424 1013.2">
  <rect x="21.734" y="-870.2" width="1087.424" height="1013.2" fill="white"/>
  <path d="M 905 -290 L 914 -252 L 914.667 -249.333 L 918.333 -242.833 L 925 -232.5 L 931.667 -222.167 L 935 -215.667 L 935 -213 L 935 -210.333 L 929.5 -208 L 918.5 -206 L 907.5 -204 L 900 -203 L 896 -203 L 835 -203 L 827 -203 L 819.5 -208.667 L 812.5 -220 L 805.5 -231.333 L 801 -242 L 799 -252 L 791 -290 L 713 -290 L 641.5 -293.167 L 576.5 -299.5 L 512.167 -305.833 L 466 -311.333 L 438 -316 L 335.333 -332 L 271.333 -368.667 L 246 -426 L 240 -438.667 L 230 -464 L 216 -502 L 202 -540 L 187.167 -579.333 L 171.5 -620 L 155.833 -660.667 L 141 -697.5 L 127 -730.5 L 113 -763.5 L 103.333 -781.333 L 98 -784 L 70.667 -793.333 L 64.667 -803.667 L 80 -815 L 114 -817.667 L 146.167 -819.333 L 176.5 -820 L 206.833 -820.667 L 238.333 -819.667 L 271 -817 L 287 -816.333 L 300.5 -804.667 L 311.5 -782 L 322.5 -759.333 L 332.167 -732 L 340.5 -700 L 348.833 -668 L 356.333 -634 L 363 -598 L 369.667 -562 L 376.333 -530 L 383 -502 L 397 -446 L 414.333 -407.833 L 435 -387.5 L 455.667 -367.167 L 491 -350.333 L 541 -337 L 591.667 -323.667 L 674 -318 L 788 -320 L 775 -389 L 774.333 -392.333 L 771 -396.667 L 765 -402 L 759 -407.333 L 756 -411.667 L 756 -415 L 756 -419 L 761.5 -421.667 L 772.5 -423 L 783.5 -424.333 L 791 -425 L 795 -425 L 856 -425 L 863.333 -425 L 870.5 -419.833 L 877.5 -409.5 L 884.5 -399.167 L 889.333 -388 L 892 -376 L 902 -321 L 946.667 -321.667 L 977.167 -323.167 L 993.5 -325.5 L 1009.833 -327.833 L 1027 -330.333 L 1045 -333 L 1052.333 -332.333 L 1056.833 -329 L 1058.5 -323 L 1060.167 -317 L 1058.667 -311.333 L 1054 -306 L 1047.333 -300.667 L 1033.667 -296.667 L 1013 -294 L 992.333 -291.333 L 956.333 -290 Z M 592 85 L 585.333 80.333 L 584.833 75.667 L 590.5 71 L 596.167 66.333 L 603.333 64 L 612 64 L 622 64 L 635.833 55.167 L 653.5 37.5 L 671.167 19.833 L 682.667 -2 L 688 -28 L 697.333 -72 L 674.667 -108 L 620 -136 L 599.333 -146 L 572.833 -155 L 540.5 -163 L 508.167 -171 L 476.5 -178 L 445.5 -184 L 414.5 -190 L 387.167 -194.833 L 363.5 -198.5 L 339.833 -202.167 L 326 -205 L 322 -207 L 313.333 -209.667 L 310 -213.833 L 312 -219.5 L 314 -225.167 L 318.333 -228 L 325 -228 L 331.667 -228 L 373 -222.5 L 449 -211.5 L 525 -200.5 L 592.333 -183.333 L 651 -160 L 686.333 -146 L 714.667 -132.167 L 736 -118.5 L 757.333 -104.833 L 776.667 -86.333 L 794 -63 L 811.333 -39.667 L 818.667 -16.167 L 816 7.5 L 813.333 31.167 L 803.333 49.333 L 786 62 L 770 74 L 751.5 82.167 L 730.5 86.5 L 709.5 90.833 L 689.667 93 L 671 93 L 652.333 93 L 639.167 92.833 L 631.5 92.5 L 623.833 92.167 L 610.667 89.667 Z" fill="black" fill-opacity="0.25" stroke="black" stroke-width="4"/>
  <rect x="65" y="-821" width="995" height="618" fill="none" stroke="red" stroke-width="10" /><rect x="310" y="-228" width="509" height="321" fill="none" stroke="red" stroke-width="10" />
</svg>
