<svg xmlns="http://www.w3.org/2000/svg"
  viewBox="28.750000000056247 -1170.4 1202.36363636358 1192.4">
  <rect x="28.750000000056247" y="-1170.4" width="1202.36363636358" height="1192.4" fill="white"/>
  <path d="M 936.0 -591.0 L 944.0 -553.0 L 944.0 -550.333333333 L 947.5 -543.833333333 L 954.5 -533.5 L 961.5 -523.166666667 L 965.0 -516.666666667 L 965.0 -514.0 L 965.0 -511.333333333 L 959.5 -509.0 L 948.5 -507.0 L 937.5 -505.0 L 930.0 -504.0 L 926.0 -504.0 L 865.0 -504.0 L 857.0 -504.0 L 849.5 -509.5 L 842.5 -520.5 L 835.5 -531.5 L 831.0 -542.333333333 L 829.0 -553.0 L 820.0 -591.0 L 742.0 -591.0 L 670.5 -594.166666667 L 605.5 -600.5 L 540.5 -606.833333333 L 494.333333333 -612.0 L 467.0 -616.0 L 416.333333333 -624.0 L 374.5 -638.0 L 341.5 -658.0 L 308.5 -678.0 L 286.666666667 -700.666666667 L 276.0 -726.0 L 270.0 -738.666666667 L 260.0 -764.0 L 246.0 -802.0 L 232.0 -840.0 L 217.166666667 -879.5 L 201.5 -920.5 L 185.833333333 -961.5 L 171.0 -998.5 L 157.0 -1031.5 L 143.0 -1064.5 L 133.333333333 -1082.33333333 L 128.0 -1085.0 L 100.666666667 -1094.33333333 L 94.6666666667 -1104.33333333 L 110.0 -1115.0 L 178.666666667 -1121.0 L 242.0 -1122.0 L 300.0 -1118.0 L 316.0 -1117.33333333 L 329.5 -1105.66666667 L 340.5 -1083.0 L 351.5 -1060.33333333 L 361.333333333 -1033.0 L 370.0 -1001.0 L 378.666666667 -969.0 L 386.333333333 -935.0 L 393.0 -899.0 L 399.666666667 -863.0 L 406.666666667 -831.0 L 414.0 -803.0 L 428.0 -746.333333333 L 445.166666667 -707.833333333 L 465.5 -687.5 L 485.833333333 -667.166666667 L 520.666666667 -650.333333333 L 570.0 -637.0 L 619.333333333 -623.666666667 L 701.666666667 -618.333333333 L 817.0 -621.0 L 805.0 -689.0 L 804.333333333 -692.333333333 L 801.0 -696.833333333 L 795.0 -702.5 L 789.0 -708.166666667 L 786.0 -712.666666667 L 786.0 -716.0 L 786.0 -720.0 L 791.333333333 -722.666666667 L 802.0 -724.0 L 812.666666667 -725.333333333 L 820.333333333 -726.0 L 825.0 -726.0 L 886.0 -726.0 L 893.333333333 -726.0 L 900.5 -720.833333333 L 907.5 -710.5 L 914.5 -700.166666667 L 919.333333333 -689.0 L 922.0 -677.0 L 932.0 -621.0 L 976.666666667 -621.666666667 L 1007.0 -623.333333333 L 1023.0 -626.0 L 1039.0 -628.666666667 L 1056.66666667 -631.0 L 1076.0 -633.0 L 1083.33333333 -632.333333333 L 1087.66666667 -629.166666667 L 1089.0 -623.5 L 1090.33333333 -617.833333333 L 1088.66666667 -612.333333333 L 1084.0 -607.0 L 1077.33333333 -601.0 L 1063.83333333 -596.833333333 L 1043.5 -594.5 L 1023.16666667 -592.166666667 L 987.333333333 -591.0 Z M 375.0 -140.0 L 349.666666667 -130.666666667 L 306.666666667 -131.333333333 L 246.0 -142.0 L 210.666666667 -150.666666667 L 179.5 -162.333333333 L 152.5 -177.0 L 125.5 -191.666666667 L 104.666666667 -217.333333333 L 90.0 -254.0 L 80.0 -289.333333333 L 76.6666666667 -317.5 L 80.0 -338.5 L 83.3333333333 -359.5 L 95.0 -384.0 L 115.0 -412.0 L 134.333333333 -435.333333333 L 156.833333333 -453.0 L 182.5 -465.0 L 208.166666667 -477.0 L 239.666666667 -486.666666667 L 277.0 -494.0 L 314.333333333 -501.333333333 L 344.666666667 -505.0 L 368.0 -505.0 L 391.333333333 -505.0 L 416.666666667 -504.333333333 L 444.0 -503.0 L 470.666666667 -501.666666667 L 495.5 -499.5 L 518.5 -496.5 L 541.5 -493.5 L 569.333333333 -487.0 L 602.0 -477.0 L 656.0 -462.333333333 L 709.333333333 -442.0 L 762.0 -416.0 L 791.333333333 -401.333333333 L 822.5 -385.5 L 855.5 -368.5 L 888.5 -351.5 L 925.333333333 -331.333333333 L 966.0 -308.0 L 984.666666667 -296.666666667 L 1005.16666667 -284.666666667 L 1027.5 -272.0 L 1049.83333333 -259.333333333 L 1073.66666667 -246.333333333 L 1099.0 -233.0 L 1118.33333333 -221.0 L 1137.5 -208.833333333 L 1156.5 -196.5 L 1175.5 -184.166666667 L 1183.5 -171.833333333 L 1180.5 -159.5 L 1177.5 -147.166666667 L 1170.33333333 -141.333333333 L 1159.0 -142.0 L 1147.66666667 -142.666666667 L 1111.83333333 -142.333333333 L 1051.5 -141.0 L 991.166666667 -139.666666667 L 938.666666667 -139.333333333 L 894.0 -140.0 L 876.0 -153.333333333 L 876.166666667 -163.0 L 894.5 -169.0 L 912.833333333 -175.0 L 926.666666667 -182.333333333 L 936.0 -191.0 L 952.666666667 -208.333333333 L 960.0 -222.0 L 958.0 -232.0 L 956.0 -242.0 L 953.166666667 -249.833333333 L 949.5 -255.5 L 945.833333333 -261.166666667 L 940.333333333 -267.166666667 L 933.0 -273.5 L 925.666666667 -279.833333333 L 907.5 -293.0 L 878.5 -313.0 L 849.5 -333.0 L 813.666666667 -354.0 L 771.0 -376.0 L 732.333333333 -392.666666667 L 702.0 -406.333333333 L 680.0 -417.0 L 658.0 -427.666666667 L 622.333333333 -439.666666667 L 573.0 -453.0 L 536.333333333 -460.333333333 L 499.0 -464.833333333 L 461.0 -466.5 L 423.0 -468.166666667 L 384.333333333 -462.666666667 L 345.0 -450.0 L 317.666666667 -438.0 L 298.5 -427.833333333 L 287.5 -419.5 L 276.5 -411.166666667 L 264.0 -396.333333333 L 250.0 -375.0 L 238.0 -355.0 L 231.166666667 -338.0 L 229.5 -324.0 L 227.833333333 -310.0 L 227.666666667 -294.0 L 229.0 -276.0 L 229.666666667 -257.333333333 L 231.833333333 -243.833333333 L 235.5 -235.5 L 239.166666667 -227.166666667 L 243.833333333 -218.833333333 L 249.5 -210.5 L 255.166666667 -202.166666667 L 262.5 -194.5 L 271.5 -187.5 L 280.5 -180.5 L 294.333333333 -175.5 L 313.0 -172.5 L 331.666666667 -169.5 L 350.0 -167.0 L 368.0 -165.0 L 376.0 -163.666666667 L 381.166666667 -160.333333333 L 383.5 -155.0 L 385.833333333 -149.666666667 L 383.0 -144.666666667 Z M 581.0 -35.0 L 574.333333333 -40.3333333333 L 573.833333333 -45.3333333333 L 579.5 -50.0 L 585.166666667 -54.6666666667 L 592.666666667 -57.0 L 602.0 -57.0 L 612.0 -57.0 L 625.666666667 -65.8333333333 L 643.0 -83.5 L 660.333333333 -101.166666667 L 672.0 -123.0 L 678.0 -149.0 L 687.333333333 -193.0 L 664.333333333 -229.333333333 L 609.0 -258.0 L 587.666666667 -268.0 L 561.0 -277.0 L 529.0 -285.0 L 497.0 -293.0 L 465.333333333 -300.0 L 434.0 -306.0 L 402.666666667 -312.0 L 375.0 -316.833333333 L 351.0 -320.5 L 327.0 -324.166666667 L 313.0 -327.0 L 309.0 -329.0 L 300.333333333 -332.333333333 L 297.0 -336.666666667 L 299.0 -342.0 L 301.0 -347.333333333 L 305.333333333 -350.0 L 312.0 -350.0 L 315.333333333 -350.0 L 328.833333333 -348.666666667 L 352.5 -346.0 L 376.166666667 -343.333333333 L 404.5 -339.166666667 L 437.5 -333.5 L 470.5 -327.833333333 L 505.166666667 -320.833333333 L 541.5 -312.5 L 577.833333333 -304.833333333 L 611.0 -295.0 L 641.0 -283.0 L 676.333333333 -269.0 L 704.666666667 -255.0 L 726.0 -241.0 L 747.333333333 -227.0 L 766.666666667 -208.0 L 784.0 -184.0 L 801.333333333 -160.0 L 808.666666667 -136.333333333 L 806.0 -113.0 L 803.333333333 -89.6666666667 L 793.333333333 -71.3333333333 L 776.0 -58.0 L 760.0 -46.0 L 741.333333333 -38.0 L 720.0 -34.0 L 698.666666667 -30.0 L 678.666666667 -28.0 L 660.0 -28.0 L 641.333333333 -28.0 L 628.166666667 -28.1666666667 L 620.5 -28.5 L 612.833333333 -28.8333333333 L 599.666666667 -31.0 Z" fill="black" fill-opacity="0.25" stroke="black" stroke-width="4.0"/>
  <rect x="95.0" y="-1122.0" width="995.0000000000001" height="618.0000000000001" fill="none" stroke="red" stroke-width="10.0" /><rect x="77.0" y="-505.0" width="1106.0" height="374.0" fill="none" stroke="red" stroke-width="10.0" /><rect x="297.0" y="-350.0" width="512.0" height="321.99999999999994" fill="none" stroke="red" stroke-width="10.0" />
</svg>
