<svg xmlns="http://www.w3.org/2000/svg"
  viewBox="21.73437500002302 -870.20000000016 1087.4235197387582 1013.20000000016">
  <rect x="21.73437500002302" y="-870.20000000016" width="1087.4235197387582" height="1013.20000000016" fill="white"/>
  <path d="M 905.0 -290.0 L 914.0 -252.0 L 914.666666667 -249.333333333 L 918.333333333 -242.833333333 L 925.0 -232.5 L 931.666666667 -222.166666667 L 935.0 -215.666666667 L 935.0 -213.0 L 935.0 -210.333333333 L 929.5 -208.0 L 918.5 -206.0 L 907.5 -204.0 L 900.0 -203.0 L 896.0 -203.0 L 835.0 -203.0 L 827.0 -203.0 L 819.5 -208.666666667 L 812.5 -220.0 L 805.5 -231.333333333 L 801.0 -242.0 L 799.0 -252.0 L 791.0 -290.0 L 713.0 -290.0 L 641.5 -293.166666667 L 576.5 -299.5 L 512.166666667 -305.833333333 L 466.0 -311.333333333 L 438.0 -316.0 L 335.333333333 -332.0 L 271.333333333 -368.666666667 L 246.0 -426.0 L 240.0 -438.666666667 L 230.0 -464.0 L 216.0 -502.0 L 202.0 -540.0 L 187.166666667 -579.333333333 L 171.5 -620.0 L 155.833333333 -660.666666667 L 141.0 -697.5 L 127.0 -730.5 L 113.0 -763.5 L 103.333333333 -781.333333333 L 98.0 -784.0 L 70.6666666667 -793.333333333 L 64.6666666667 -803.666666667 L 80.0 -815.0 L 114.0 -817.666666667 L 146.166666667 -819.333333333 L 176.5 -820.0 L 206.833333333 -820.666666667 L 238.333333333 -819.666666667 L 271.0 -817.0 L 287.0 -816.333333333 L 300.5 -804.666666667 L 311.5 -782.0 L 322.5 -759.333333333 L 332.166666667 -732.0 L 340.5 -700.0 L 348.833333333 -668.0 L 356.333333333 -634.0 L 363.0 -598.0 L 369.666666667 -562.0 L 376.333333333 -530.0 L 383.0 -502.0 L 397.0 -446.0 L 414.333333333 -407.833333333 L 435.0 -387.5 L 455.666666667 -367.166666667 L 491.0 -350.333333333 L 541.0 -337.0 L 591.666666667 -323.666666667 L 674.0 -318.0 L 788.0 -320.0 L 775.0 -389.0 L 774.333333333 -392.333333333 L 771.0 -396.666666667 L 765.0 -402.0 L 759.0 -407.333333333 L 756.0 -411.666666667 L 756.0 -415.0 L 756.0 -419.0 L 761.5 -421.666666667 L 772.5 -423.0 L 783.5 -424.333333333 L 791.0 -425.0 L 795.0 -425.0 L 856.0 -425.0 L 863.333333333 -425.0 L 870.5 -419.833333333 L 877.5 -409.5 L 884.5 -399.166666667 L 889.333333333 -388.0 L 892.0 -376.0 L 902.0 -321.0 L 946.666666667 -321.666666667 L 977.166666667 -323.166666667 L 993.5 -325.5 L 1009.83333333 -327.833333333 L 1027.0 -330.333333333 L 1045.0 -333.0 L 1052.33333333 -332.333333333 L 1056.83333333 -329.0 L 1058.5 -323.0 L 1060.16666667 -317.0 L 1058.66666667 -311.333333333 L 1054.0 -306.0 L 1047.33333333 -300.666666667 L 1033.66666667 -296.666666667 L 1013.0 -294.0 L 992.333333333 -291.333333333 L 956.333333333 -290.0 Z M 592.0 85.0 L 585.333333333 80.3333333333 L 584.833333333 75.6666666667 L 590.5 71.0 L 596.166666667 66.3333333333 L 603.333333333 64.0 L 612.0 64.0 L 622.0 64.0 L 635.833333333 55.1666666667 L 653.5 37.5 L 671.166666667 19.8333333333 L 682.666666667 -2.0 L 688.0 -28.0 L 697.333333333 -72.0 L 674.666666667 -108.0 L 620.0 -136.0 L 599.333333333 -146.0 L 572.833333333 -155.0 L 540.5 -163.0 L 508.166666667 -171.0 L 476.5 -178.0 L 445.5 -184.0 L 414.5 -190.0 L 387.166666667 -194.833333333 L 363.5 -198.5 L 339.833333333 -202.166666667 L 326.0 -205.0 L 322.0 -207.0 L 313.333333333 -209.666666667 L 310.0 -213.833333333 L 312.0 -219.5 L 314.0 -225.166666667 L 318.333333333 -228.0 L 325.0 -228.0 L 331.666666667 -228.0 L 373.0 -222.5 L 449.0 -211.5 L 525.0 -200.5 L 592.333333333 -183.333333333 L 651.0 -160.0 L 686.333333333 -146.0 L 714.666666667 -132.166666667 L 736.0 -118.5 L 757.333333333 -104.833333333 L 776.666666667 -86.3333333333 L 794.0 -63.0 L 811.333333333 -39.6666666667 L 818.666666667 -16.1666666667 L 816.0 7.5 L 813.333333333 31.1666666667 L 803.333333333 49.3333333333 L 786.0 62.0 L 770.0 74.0 L 751.5 82.1666666667 L 730.5 86.5 L 709.5 90.8333333333 L 689.666666667 93.0 L 671.0 93.0 L 652.333333333 93.0 L 639.166666667 92.8333333333 L 631.5 92.5 L 623.833333333 92.1666666667 L 610.666666667 89.6666666667 Z" fill="black" fill-opacity="0.25" stroke="black" stroke-width="4.0"/>
  <rect x="65.0" y="-821.0" width="995.0000000000001" height="617.9999999999999" fill="none" stroke="red" stroke-width="10.0" /><rect x="310.0" y="-228.0" width="508.9999999999999" height="321.0" fill="none" stroke="red" stroke-width="10.0" />
</svg>
