<svg xmlns="http://www.w3.org/2000/svg"
  viewBox="-463 -1238 824.765 467.333">
  <rect x="-463" y="-1238" width="824.765" height="467.333" fill="white"/>
  <path d="M -1 -1022 L -1 -1046.667 L -0.667 -1070.667 L 0 -1094 L 0.667 -1117.333 L 1 -1143 L 1 -1171 L 1 -1180.333 L 4.333 -1185.333 L 11 -1186 L 60.333 -1186 L 109.833 -1186.167 L 159.5 -1186.5 L 209.167 -1186.833 L 258.333 -1187.333 L 307 -1188 L 313 -1180 L 313.333 -1168 L 308 -1152 L 298 -1149.333 L 265.167 -1148 L 209.5 -1148 L 126 -1148 L 126 -1148 L 64 -1148 L 64 -1114 L 64.667 -1079.333 L 66 -1044 L 67.333 -1008.667 L 66 -990.667 L 62 -990 L 56.667 -989.333 L 51.5 -988.333 L 46.5 -987 L 41.5 -985.667 L 26 -985.333 L 0 -986 L -26.667 -986 L -57.333 -985.5 L -92 -984.5 L -126.667 -983.5 L -157 -983 L -183 -983 L -183 -949 L -182.5 -914 L -181.5 -878 L -180.5 -842 L -182 -824 L -186 -824 L -196 -824 L -206.833 -823.167 L -218.5 -821.5 L -230.167 -819.833 L -240.333 -820.667 L -249 -824 L -250.333 -824 L -251 -827.333 L -251 -834 L -251 -834 L -251 -834 L -250 -834.5 L -249.333 -834.833 L -249 -835.333 L -249 -836 L -249 -871.333 L -248.5 -899.5 L -247.5 -920.5 L -246.5 -941.5 L -246 -969.667 L -246 -1005 L -246 -1014.333 L -243 -1019.333 L -237 -1020 L -197.667 -1020 L -158.333 -1020.167 L -119 -1020.5 L -79.667 -1020.833 L -40.333 -1021.333 Z M -380 -988 L -337 -988 L -334.333 -988 L -330.333 -987.833 L -325 -987.5 L -319.667 -987.167 L -316.333 -986.333 L -315 -985 L -313 -983 L -313.333 -982 L -316 -982 L -318.667 -982 L -321 -976.667 L -323 -966 L -327 -932 L -328.333 -917.333 L -335.333 -910 L -348 -910 L -390 -910 L -392 -910 L -396.167 -910.167 L -402.5 -910.5 L -408.833 -910.833 L -412.333 -912.333 L -413 -915 L -413 -917.667 L -411.833 -919.5 L -409.5 -920.5 L -407.167 -921.5 L -405.667 -925.333 L -405 -932 L -400 -966 L -398 -980.667 L -391.333 -988 Z" fill="black" fill-opacity="0.25" stroke="black" stroke-width="4"/>
  <rect x="-413" y="-1004.3" width="480" height="183.6" fill="none" stroke="red" stroke-width="10" /><rect x="-246" y="-1188" width="559.3" height="183.7" fill="none" stroke="red" stroke-width="10" />
</svg>
