<svg xmlns="http://www.w3.org/2000/svg"
  viewBox="-300 -1227 814.727 440.667">
  <rect x="-300" y="-1227" width="814.727" height="440.667" fill="white"/>
  <path d="M 0 -1023 L 0 -1046.333 L 0.333 -1068.667 L 1 -1090 L 1.667 -1111.333 L 2 -1135 L 2 -1161 L 2 -1169 L 5.333 -1173.333 L 12 -1174 L 61.333 -1174 L 110.833 -1174.333 L 160.5 -1175 L 210.167 -1175.667 L 259.333 -1176.333 L 308 -1177 L 311.333 -1173 L 312.5 -1167.5 L 311.5 -1160.5 L 310.5 -1153.5 L 309.333 -1147.667 L 308 -1143 L 298 -1141 L 265.333 -1140 L 210 -1140 L 127 -1140 L 127 -1140 L 65 -1140 L 65 -1108 L 65.667 -1075.5 L 67 -1042.5 L 68.333 -1009.5 L 67 -993 L 63 -993 L 57.667 -992.333 L 52.5 -991.333 L 47.5 -990 L 42.5 -988.667 L 27 -988.667 L 1 -990 L -25.667 -989.333 L -56.333 -988.5 L -91 -987.5 L -125.667 -986.5 L -156 -986 L -182 -986 L -182 -954 L -181.5 -921.5 L -180.5 -888.5 L -179.5 -855.5 L -181 -839 L -185 -839 L -195 -839 L -205.833 -838.333 L -217.5 -837 L -229.167 -835.667 L -239.333 -836.333 L -248 -839 L -248.667 -839 L -249.333 -842 L -250 -848 L -250 -848 L -250 -848 L -249 -848.5 L -248.333 -848.833 L -248 -849.333 L -248 -850 L -248 -882.667 L -247.5 -908.833 L -246.5 -928.5 L -245.5 -948.167 L -245 -974.333 L -245 -1007 L -245 -1015 L -242 -1019.667 L -236 -1021 L -196.667 -1021 L -157.333 -1021.167 L -118 -1021.5 L -78.667 -1021.833 L -39.333 -1022.333 Z M 400 -1156 L 442 -1156 L 445 -1156 L 445 -1156 L 453 -1156 L 458.333 -1156 L 462 -1155.333 L 464 -1154 L 465.333 -1152 L 464.833 -1151 L 462.5 -1151 L 460.167 -1151 L 458.333 -1145.333 L 457 -1134 L 453 -1100 L 450.333 -1085.333 L 443.333 -1078 L 432 -1078 L 390 -1078 L 387.333 -1078 L 382.833 -1078.167 L 376.5 -1078.5 L 370.167 -1078.833 L 367 -1080.333 L 367 -1083 L 366.333 -1085.667 L 367.167 -1087.5 L 369.5 -1088.5 L 371.833 -1089.5 L 373.667 -1093.333 L 375 -1100 L 379 -1134 L 381 -1148.667 L 388 -1156 Z" fill="black" fill-opacity="0.25" stroke="black" stroke-width="4"/>
  <rect x="-250" y="-1006.7" width="318.1" height="170.4" fill="none" stroke="red" stroke-width="10" /><rect x="-245" y="-1177" width="710.3" height="170.3" fill="none" stroke="red" stroke-width="10" />
</svg>
