<svg xmlns="http://www.w3.org/2000/svg"
  viewBox="28.75 -555 1202.364 471.533">
  <rect x="28.75" y="-555" width="1202.364" height="471.533" fill="white"/>
  <path d="M 375 -140 L 349.667 -130.667 L 306.667 -131.333 L 246 -142 L 210.667 -150.667 L 179.5 -162.333 L 152.5 -177 L 125.5 -191.667 L 104.667 -217.333 L 90 -254 L 80 -289.333 L 76.667 -317.5 L 80 -338.5 L 83.333 -359.5 L 95 -384 L 115 -412 L 134.333 -435.333 L 156.833 -453 L 182.5 -465 L 208.167 -477 L 239.667 -486.667 L 277 -494 L 314.333 -501.333 L 344.667 -505 L 368 -505 L 391.333 -505 L 416.667 -504.333 L 444 -503 L 470.667 -501.667 L 495.5 -499.5 L 518.5 -496.5 L 541.5 -493.5 L 569.333 -487 L 602 -477 L 656 -462.333 L 709.333 -442 L 762 -416 L 791.333 -401.333 L 822.5 -385.5 L 855.5 -368.5 L 888.5 -351.5 L 925.333 -331.333 L 966 -308 L 984.667 -296.667 L 1005.167 -284.667 L 1027.5 -272 L 1049.833 -259.333 L 1073.667 -246.333 L 1099 -233 L 1118.333 -221 L 1137.5 -208.833 L 1156.5 -196.5 L 1175.5 -184.167 L 1183.5 -171.833 L 1180.5 -159.5 L 1177.5 -147.167 L 1170.333 -141.333 L 1159 -142 L 1147.667 -142.667 L 1111.833 -142.333 L 1051.5 -141 L 991.167 -139.667 L 938.667 -139.333 L 894 -140 L 876 -153.333 L 876.167 -163 L 894.5 -169 L 912.833 -175 L 926.667 -182.333 L 936 -191 L 952.667 -208.333 L 960 -222 L 958 -232 L 956 -242 L 953.167 -249.833 L 949.5 -255.5 L 945.833 -261.167 L 940.333 -267.167 L 933 -273.5 L 925.667 -279.833 L 907.5 -293 L 878.5 -313 L 849.5 -333 L 813.667 -354 L 771 -376 L 732.333 -392.667 L 702 -406.333 L 680 -417 L 658 -427.667 L 622.333 -439.667 L 573 -453 L 536.333 -460.333 L 499 -464.833 L 461 -466.5 L 423 -468.167 L 384.333 -462.667 L 345 -450 L 317.667 -438 L 298.5 -427.833 L 287.5 -419.5 L 276.5 -411.167 L 264 -396.333 L 250 -375 L 238 -355 L 231.167 -338 L 229.5 -324 L 227.833 -310 L 227.667 -294 L 229 -276 L 229.667 -257.333 L 231.833 -243.833 L 235.5 -235.5 L 239.167 -227.167 L 243.833 -218.833 L 249.5 -210.5 L 255.167 -202.167 L 262.5 -194.5 L 271.5 -187.5 L 280.5 -180.5 L 294.333 -175.5 L 313 -172.5 L 331.667 -169.5 L 350 -167 L 368 -165 L 376 -163.667 L 381.167 -160.333 L 383.5 -155 L 385.833 -149.667 L 383 -144.667 Z" fill="black" fill-opacity="0.25" stroke="black" stroke-width="4"/>
  <rect x="77" y="-505" width="1106" height="374" fill="none" stroke="red" stroke-width="10" />
</svg>
