<svg xmlns="http://www.w3.org/2000/svg"
  viewBox="26.982 -664.471 1416.753 940.471">
  <rect x="26.982" y="-664.471" width="1416.753" height="940.471" fill="white"/>
  <path d="M 1144 218 L 1136.667 212 L 1136.167 206.5 L 1142.5 201.5 L 1148.833 196.5 L 1157 194 L 1167 194 L 1177.667 194 L 1192.833 184.167 L 1212.5 164.5 L 1232.167 144.833 L 1245 121 L 1251 93 L 1261 44.333 L 1235.667 4.333 L 1175 -27 L 1109 -59.667 L 1024 -81.333 L 920 -92 L 902.667 -93.333 L 883.167 -94 L 861.5 -94 L 839.833 -94 L 827.667 -94.333 L 825 -95 L 815.667 -98.333 L 812 -104 L 814 -112 L 816 -120 L 821 -124.667 L 829 -126 L 836.333 -126 L 854.333 -125.167 L 883 -123.5 L 911.667 -121.833 L 943.333 -118.667 L 978 -114 L 1017.333 -108 L 1057.167 -100 L 1097.5 -90 L 1137.833 -80 L 1175.333 -68.333 L 1210 -55 L 1249.333 -39.667 L 1280.667 -24.167 L 1304 -8.5 L 1327.333 7.167 L 1349 27.667 L 1369 53 L 1388.333 79.667 L 1396.333 106 L 1393 132 L 1389.667 158 L 1378.333 178 L 1359 192 L 1341.667 205.333 L 1321.333 214.333 L 1298 219 L 1274.667 223.667 L 1252.333 226 L 1231 226 L 1199 226 L 1199 226 L 1187.5 226 L 1179.833 226 L 1165.333 223.333 Z M 103 -443 L 77.667 -489 L 70.833 -528.5 L 82.5 -561.5 L 94.167 -594.5 L 115 -612 L 145 -614 L 164.333 -615.333 L 179.167 -613.833 L 189.5 -609.5 L 199.833 -605.167 L 209 -600.833 L 217 -596.5 L 225 -592.167 L 232.5 -587.5 L 239.5 -582.5 L 246.5 -577.5 L 253 -572.333 L 259 -567 L 265 -561.667 L 269.167 -556.833 L 271.5 -552.5 L 273.833 -548.167 L 274.833 -544.167 L 274.5 -540.5 L 274.167 -536.833 L 272.833 -534.333 L 270.5 -533 L 268.167 -531.667 L 261.167 -528.667 L 249.5 -524 L 237.833 -519.333 L 222.667 -511.833 L 204 -501.5 L 185.333 -491.167 L 176.333 -473.667 L 177 -449 L 177 -423.667 L 203.333 -399.833 L 256 -377.5 L 308.667 -355.167 L 387 -346 L 491 -350 L 938 -369 L 960 -369 L 977.5 -367.5 L 990.5 -364.5 L 1003.5 -361.5 L 1015.333 -357.667 L 1026 -353 L 1036.667 -348.333 L 1045.667 -343.833 L 1053 -339.5 L 1060.333 -335.167 L 1069 -328.5 L 1079 -319.5 L 1089 -310.5 L 1100.5 -299 L 1113.5 -285 L 1126.5 -271 L 1135.167 -260.667 L 1139.5 -254 L 1143.833 -247.333 L 1146 -240.833 L 1146 -234.5 L 1146 -228.167 L 1143.833 -224 L 1139.5 -222 L 1135.167 -220 L 1130.667 -219 L 1126 -219 L 1121.333 -219 L 1116.333 -220 L 1111 -222 L 1105.667 -224 L 1099.167 -226.333 L 1091.5 -229 L 1083.833 -231.667 L 1075.333 -234.333 L 1066 -237 L 1056.667 -239.667 L 1048 -241.667 L 1040 -243 L 1032 -244.333 L 1021 -245.333 L 1007 -246 L 900 -252 L 838.667 -252 L 774.167 -254.5 L 706.5 -259.5 L 638.833 -264.5 L 575 -271 L 515 -279 L 455 -287 L 402.333 -295.667 L 357 -305 L 311.667 -314.333 L 280.667 -322 L 264 -328 L 235.333 -340 L 209.833 -351.833 L 187.5 -363.5 L 165.167 -375.167 L 137 -401.667 Z" fill="black" fill-opacity="0.25" stroke="black" stroke-width="4"/>
  <rect x="812" y="-126" width="584" height="352" fill="none" stroke="red" stroke-width="10" /><rect x="71" y="-615" width="1075" height="396" fill="none" stroke="red" stroke-width="10" />
</svg>
