<svg xmlns="http://www.w3.org/2000/svg"
  viewBox="35.26415094338857 -502.0 714.274310595073 387.1428571435918">
  <rect x="35.26415094338857" y="-502.0" width="714.274310595073" height="387.1428571435918" fill="white"/>
  <path d="M 107.0 -452.0 L 129.666666667 -452.0 L 153.666666667 -451.666666667 L 179.0 -451.0 L 204.333333333 -450.333333333 L 227.0 -448.333333333 L 247.0 -445.0 L 261.0 -445.0 L 276.5 -417.5 L 293.5 -362.5 L 310.5 -307.5 L 330.666666667 -259.333333333 L 354.0 -218.0 L 362.0 -204.0 L 369.333333333 -196.0 L 376.0 -194.0 L 382.0 -192.0 L 386.666666667 -188.5 L 390.0 -183.5 L 393.333333333 -178.5 L 390.0 -174.0 L 380.0 -170.0 L 356.666666667 -166.0 L 333.166666667 -164.333333333 L 309.5 -165.0 L 285.833333333 -165.666666667 L 263.333333333 -167.333333333 L 242.0 -170.0 L 222.0 -178.0 L 205.5 -203.666666667 L 192.5 -247.0 L 179.5 -290.333333333 L 161.333333333 -340.666666667 L 138.0 -398.0 L 136.0 -401.333333333 L 131.833333333 -405.833333333 L 125.5 -411.5 L 119.166666667 -417.166666667 L 112.0 -421.0 L 104.0 -423.0 L 93.3333333333 -425.0 L 87.1666666667 -430.166666667 L 85.5 -438.5 L 83.8333333333 -446.833333333 L 91.0 -451.333333333 Z M 416.0 -452.0 L 438.666666667 -452.0 L 462.5 -451.666666667 L 487.5 -451.0 L 512.5 -450.333333333 L 535.333333333 -448.333333333 L 556.0 -445.0 L 570.0 -445.0 L 585.333333333 -417.5 L 602.0 -362.5 L 618.666666667 -307.5 L 639.0 -259.333333333 L 663.0 -218.0 L 671.0 -204.0 L 678.333333333 -196.0 L 685.0 -194.0 L 691.0 -192.0 L 695.5 -188.5 L 698.5 -183.5 L 701.5 -178.5 L 698.0 -174.0 L 688.0 -170.0 L 664.666666667 -166.0 L 641.333333333 -164.333333333 L 618.0 -165.0 L 594.666666667 -165.666666667 L 572.333333333 -167.333333333 L 551.0 -170.0 L 531.0 -178.0 L 514.333333333 -203.666666667 L 501.0 -247.0 L 487.666666667 -290.333333333 L 469.333333333 -340.666666667 L 446.0 -398.0 L 444.0 -401.333333333 L 440.0 -405.833333333 L 434.0 -411.5 L 428.0 -417.166666667 L 420.666666667 -421.0 L 412.0 -423.0 L 401.333333333 -425.0 L 395.333333333 -430.166666667 L 394.0 -438.5 L 392.666666667 -446.833333333 L 400.0 -451.333333333 Z" fill="black" fill-opacity="0.25" stroke="black" stroke-width="4.0"/>
  <rect x="84.0" y="-452.0" width="309.0" height="288.00000000000006" fill="none" stroke="red" stroke-width="10.0" /><rect x="393.0" y="-452.0" width="308.99999999999994" height="288.00000000000006" fill="none" stroke="red" stroke-width="10.0" />
</svg>
