<svg xmlns="http://www.w3.org/2000/svg"
  viewBox="119.47499999979752 -985.9091437404975 1822.9750000024774 813.4880911093175">
  <rect x="119.47499999979752" y="-985.9091437404975" width="1822.9750000024774" height="813.4880911093175" fill="white"/>
  <path d="M 1609.0 -530.0 L 1618.0 -492.0 L 1618.0 -489.333007812 L 1621.5 -482.833007812 L 1628.5 -472.5 L 1635.5 -462.166992188 L 1639.0 -455.666992188 L 1639.0 -453.0 L 1639.0 -450.333007812 L 1633.5 -448.0 L 1622.5 -446.0 L 1611.5 -444.0 L 1604.0 -443.0 L 1600.0 -443.0 L 1539.0 -443.0 L 1531.0 -443.0 L 1523.5 -448.666992188 L 1516.5 -460.0 L 1509.5 -471.333007812 L 1505.0 -482.0 L 1503.0 -492.0 L 1495.0 -531.0 L 1417.0 -531.0 L 1345.33300781 -534.0 L 1280.0 -540.0 L 1214.66699219 -546.0 L 1168.33300781 -551.333007812 L 1141.0 -556.0 L 1090.33300781 -564.0 L 1048.5 -578.0 L 1015.5 -598.0 L 982.5 -618.0 L 960.666992188 -640.666992188 L 950.0 -666.0 L 944.666992188 -678.666992188 L 935.0 -697.5 L 921.0 -722.5 L 907.0 -747.5 L 892.333007812 -772.666992188 L 877.0 -798.0 L 861.666992188 -823.333007812 L 847.166992188 -846.0 L 833.5 -866.0 L 819.833007812 -886.0 L 810.333007812 -897.333007812 L 805.0 -900.0 L 777.666992188 -909.333007812 L 771.666992188 -919.333007812 L 787.0 -930.0 L 820.333007812 -932.666992188 L 852.333007812 -934.5 L 883.0 -935.5 L 913.666992188 -936.5 L 945.0 -935.666992188 L 977.0 -933.0 L 1009.0 -931.0 L 1031.83300781 -912.666992188 L 1045.5 -878.0 L 1059.16699219 -843.333007812 L 1073.0 -798.0 L 1087.0 -742.0 L 1101.0 -686.0 L 1118.16699219 -647.833007812 L 1138.5 -627.5 L 1158.83300781 -607.166992188 L 1194.0 -590.333007812 L 1244.0 -577.0 L 1272.0 -569.0 L 1306.0 -564.0 L 1346.0 -562.0 L 1386.0 -560.0 L 1434.33300781 -559.333007812 L 1491.0 -560.0 L 1479.0 -629.0 L 1478.33300781 -632.333007812 L 1475.0 -636.833007812 L 1469.0 -642.5 L 1463.0 -648.166992188 L 1460.0 -652.333007812 L 1460.0 -655.0 L 1460.0 -659.0 L 1465.33300781 -661.666992188 L 1476.0 -663.0 L 1486.66699219 -664.333007812 L 1494.33300781 -665.0 L 1499.0 -665.0 L 1560.0 -665.0 L 1567.33300781 -665.0 L 1574.5 -659.833007812 L 1581.5 -649.5 L 1588.5 -639.166992188 L 1593.33300781 -628.0 L 1596.0 -616.0 L 1606.0 -561.0 L 1650.66699219 -561.666992188 L 1681.0 -563.166992188 L 1697.0 -565.5 L 1713.0 -567.833007812 L 1730.66699219 -570.333007812 L 1750.0 -573.0 L 1757.33300781 -572.333007812 L 1761.66699219 -569.0 L 1763.0 -563.0 L 1764.33300781 -557.0 L 1762.66699219 -551.666992188 L 1758.0 -547.0 L 1751.33300781 -541.666992188 L 1737.66699219 -537.5 L 1717.0 -534.5 L 1696.33300781 -531.5 L 1660.33300781 -530.0 Z M 476.0 -761.0 L 496.0 -761.0 L 517.0 -760.666992188 L 539.0 -760.0 L 561.0 -759.333007812 L 580.666992188 -757.333007812 L 598.0 -754.0 L 610.666992188 -754.0 L 625.0 -737.0 L 641.0 -703.0 L 657.0 -669.0 L 674.666992188 -631.666992188 L 694.0 -591.0 L 700.0 -577.0 L 706.333007812 -569.0 L 713.0 -567.0 L 718.333007812 -565.0 L 722.333007812 -561.5 L 725.0 -556.5 L 727.666992188 -551.5 L 725.0 -547.0 L 717.0 -543.0 L 696.333007812 -539.0 L 675.666992188 -537.333007812 L 655.0 -538.0 L 634.333007812 -538.666992188 L 614.333007812 -540.333007812 L 595.0 -543.0 L 577.666992188 -551.0 L 563.0 -566.0 L 551.0 -588.0 L 539.0 -610.0 L 523.0 -649.666992188 L 503.0 -707.0 L 501.0 -710.333007812 L 497.166992188 -715.5 L 491.5 -722.5 L 485.833007812 -729.5 L 479.666992188 -733.666992188 L 473.0 -735.0 L 463.666992188 -736.333007812 L 458.333007812 -741.0 L 457.0 -749.0 L 455.666992188 -757.0 L 462.0 -761.0 Z M 206.0 -761.0 L 226.0 -761.0 L 247.0 -760.666992188 L 269.0 -760.0 L 291.0 -759.333007812 L 310.666992188 -757.333007812 L 328.0 -754.0 L 340.666992188 -754.0 L 355.0 -737.0 L 371.0 -703.0 L 387.0 -669.0 L 404.666992188 -631.666992188 L 424.0 -591.0 L 429.333007812 -577.0 L 435.666992188 -569.0 L 443.0 -567.0 L 447.666992188 -565.0 L 451.5 -561.5 L 454.5 -556.5 L 457.5 -551.5 L 454.666992188 -547.0 L 446.0 -543.0 L 426.0 -539.0 L 405.5 -537.333007812 L 384.5 -538.0 L 363.5 -538.666992188 L 343.666992188 -540.333007812 L 325.0 -543.0 L 307.666992188 -551.0 L 293.0 -566.0 L 281.0 -588.0 L 269.0 -610.0 L 252.666992188 -649.666992188 L 232.0 -707.0 L 230.0 -710.333007812 L 226.333007812 -715.5 L 221.0 -722.5 L 215.666992188 -729.5 L 209.333007812 -733.666992188 L 202.0 -735.0 L 192.666992188 -736.333007812 L 187.5 -741.0 L 186.5 -749.0 L 185.5 -757.0 L 192.0 -761.0 Z M 172.5 -384.0 L 176.166666667 -389.333333333 L 180.0 -392.166666667 L 184.0 -392.5 L 188.0 -392.833333333 L 192.5 -391.666666667 L 197.5 -389.0 L 202.5 -386.333333333 L 208.666666667 -383.166666667 L 216.0 -379.5 L 223.333333333 -375.833333333 L 232.666666667 -372.833333333 L 244.0 -370.5 L 255.333333333 -368.166666667 L 271.333333333 -367.0 L 292.0 -367.0 L 1701.0 -367.0 L 1719.66666667 -367.0 L 1736.66666667 -365.5 L 1752.0 -362.5 L 1767.33333333 -359.5 L 1781.33333333 -354.666666667 L 1794.0 -348.0 L 1806.66666667 -341.333333333 L 1816.5 -335.333333333 L 1823.5 -330.0 L 1830.5 -324.666666667 L 1840.16666667 -315.5 L 1852.5 -302.5 L 1864.83333333 -289.5 L 1875.33333333 -277.0 L 1884.0 -265.0 L 1892.66666667 -253.0 L 1894.66666667 -241.333333333 L 1890.0 -230.0 L 1884.66666667 -222.0 L 1878.5 -220.333333333 L 1871.5 -225.0 L 1864.5 -229.666666667 L 1856.33333333 -233.666666667 L 1847.0 -237.0 L 1837.66666667 -240.333333333 L 1827.33333333 -242.666666667 L 1816.0 -244.0 L 1804.66666667 -245.333333333 L 1787.66666667 -246.0 L 1765.0 -246.0 L 370.0 -246.0 L 354.666666667 -246.0 L 340.666666667 -247.0 L 328.0 -249.0 L 315.333333333 -251.0 L 305.5 -253.166666667 L 298.5 -255.5 L 291.5 -257.833333333 L 284.0 -261.0 L 276.0 -265.0 L 268.0 -269.0 L 259.5 -273.833333333 L 250.5 -279.5 L 241.5 -285.166666667 L 232.0 -293.166666667 L 222.0 -303.5 L 212.0 -313.833333333 L 201.833333333 -325.833333333 L 191.5 -339.5 L 181.166666667 -353.166666667 L 174.5 -362.666666667 L 171.5 -368.0 L 168.5 -373.333333333 L 168.833333333 -378.666666667 Z" fill="black" fill-opacity="0.25" stroke="black" stroke-width="4.0"/>
  <rect x="772.0" y="-936.0" width="992.0" height="493.00000000000006" fill="none" stroke="red" stroke-width="10.0" /><rect x="456.0" y="-761.0" width="271.99999999999994" height="223.99999999999997" fill="none" stroke="red" stroke-width="10.0" /><rect x="185.0" y="-761.0" width="273.0" height="223.99999999999997" fill="none" stroke="red" stroke-width="10.0" /><rect x="169.0" y="-393.0" width="1726.0" height="173.00000000000003" fill="none" stroke="red" stroke-width="10.0" />
</svg>
