<svg xmlns="http://www.w3.org/2000/svg"
  viewBox="32.222 -747 1416.825 574.579">
  <rect x="32.222" y="-747" width="1416.825" height="574.579" fill="white"/>
  <path d="M 792 -697 L 812 -697 L 832.833 -696.667 L 854.5 -696 L 876.167 -695.333 L 896 -693.333 L 914 -690 L 926.667 -690 L 939.833 -668.667 L 953.5 -626 L 967.167 -583.333 L 983.333 -541.667 L 1002 -501 L 1008.667 -487 L 1015 -479 L 1021 -477 L 1026.333 -475 L 1030.5 -471.5 L 1033.5 -466.5 L 1036.5 -461.5 L 1033.667 -457 L 1025 -453 L 1004.333 -449 L 983.833 -447.333 L 963.5 -448 L 943.167 -448.667 L 923.667 -450.333 L 905 -453 L 887 -461 L 873.167 -480.167 L 863.5 -510.5 L 853.833 -540.833 L 838.667 -585 L 818 -643 L 816 -646.333 L 812.333 -651.5 L 807 -658.5 L 801.667 -665.5 L 795.333 -669.667 L 788 -671 L 778 -672.333 L 772.667 -676.833 L 772 -684.5 L 771.333 -692.167 L 778 -696.333 Z M 521 -697 L 541 -697 L 562 -696.667 L 584 -696 L 606 -695.333 L 625.667 -693.333 L 643 -690 L 655.667 -690 L 669 -668.667 L 683 -626 L 697 -583.333 L 713.333 -541.667 L 732 -501 L 738 -487 L 744.333 -479 L 751 -477 L 756.333 -475 L 760.5 -471.5 L 763.5 -466.5 L 766.5 -461.5 L 763.667 -457 L 755 -453 L 735 -449 L 714.5 -447.333 L 693.5 -448 L 672.5 -448.667 L 652.667 -450.333 L 634 -453 L 616.667 -461 L 603 -480.167 L 593 -510.5 L 583 -540.833 L 567.667 -585 L 547 -643 L 545 -646.333 L 541.333 -651.5 L 536 -658.5 L 530.667 -665.5 L 524.667 -669.667 L 518 -671 L 508.667 -672.333 L 503.333 -676.833 L 502 -684.5 L 500.667 -692.167 L 507 -696.333 Z M 85 -384 L 88.333 -389.333 L 92.167 -392.167 L 96.5 -392.5 L 100.833 -392.833 L 105.333 -391.667 L 110 -389 L 114.667 -386.333 L 120.667 -383.167 L 128 -379.5 L 135.333 -375.833 L 144.667 -372.833 L 156 -370.5 L 167.333 -368.167 L 183.333 -367 L 204 -367 L 1208 -367 L 1226.667 -367 L 1243.667 -365.5 L 1259 -362.5 L 1274.333 -359.5 L 1288.333 -354.667 L 1301 -348 L 1313.667 -341.333 L 1323.5 -335.333 L 1330.5 -330 L 1337.5 -324.667 L 1347.167 -315.5 L 1359.5 -302.5 L 1371.833 -289.5 L 1382.333 -277 L 1391 -265 L 1399.667 -253 L 1401.333 -241.333 L 1396 -230 L 1390.667 -222 L 1384.667 -220.333 L 1378 -225 L 1371.333 -229.667 L 1363.167 -233.667 L 1353.5 -237 L 1343.833 -240.333 L 1333.5 -242.667 L 1322.5 -244 L 1311.5 -245.333 L 1294.333 -246 L 1271 -246 L 282 -246 L 266.667 -246 L 252.667 -247 L 240 -249 L 227.333 -251 L 217.5 -253.167 L 210.5 -255.5 L 203.5 -257.833 L 196 -261 L 188 -265 L 180 -269 L 171.5 -273.833 L 162.5 -279.5 L 153.5 -285.167 L 144 -293.167 L 134 -303.5 L 124 -313.833 L 113.833 -325.833 L 103.5 -339.5 L 93.167 -353.167 L 86.667 -362.667 L 84 -368 L 81.333 -373.333 L 81.667 -378.667 Z" fill="black" fill-opacity="0.25" stroke="black" stroke-width="4"/>
  <rect x="771" y="-697" width="265" height="250" fill="none" stroke="red" stroke-width="10" /><rect x="501" y="-697" width="265" height="250" fill="none" stroke="red" stroke-width="10" /><rect x="81" y="-393" width="1320" height="173" fill="none" stroke="red" stroke-width="10" />
</svg>
