<svg xmlns="http://www.w3.org/2000/svg"
  viewBox="27.222 -856 1568.755 683.579">
  <rect x="27.222" y="-856" width="1568.755" height="683.579" fill="white"/>
  <path d="M 1178 -458 L 1170.667 -464 L 1170.333 -469.5 L 1177 -474.5 L 1183.667 -479.5 L 1192 -482 L 1202 -482 L 1212.667 -482 L 1227.667 -491.833 L 1247 -511.5 L 1266.333 -531.167 L 1279.333 -555.333 L 1286 -584 L 1296 -632.667 L 1270.333 -672.333 L 1209 -703 L 1185.667 -714.333 L 1156.333 -724.5 L 1121 -733.5 L 1085.667 -742.5 L 1050.667 -750.333 L 1016 -757 L 981.333 -763.667 L 950.833 -769.167 L 924.5 -773.5 L 898.167 -778.5 L 882.667 -781.667 L 878 -783 L 868.667 -786.333 L 865.167 -791 L 867.5 -797 L 869.833 -803 L 874.667 -806 L 882 -806 L 886 -806 L 901 -804.5 L 927 -801.5 L 953 -798.5 L 984 -794 L 1020 -788 L 1056 -782 L 1094.167 -774.167 L 1134.5 -764.5 L 1174.833 -754.833 L 1211.667 -743.667 L 1245 -731 L 1284.333 -715.667 L 1315.667 -700.333 L 1339 -685 L 1362.333 -669.667 L 1383.667 -649 L 1403 -623 L 1422.333 -597 L 1430.5 -571 L 1427.5 -545 L 1424.5 -519 L 1413.333 -498.667 L 1394 -484 L 1376 -470.667 L 1355.5 -461.667 L 1332.5 -457 L 1309.5 -452.333 L 1287.333 -450 L 1266 -450 L 1234 -450 L 1234 -450 L 1222 -450 L 1214 -450 L 1199.333 -452.667 Z M 414 -710 L 434 -710 L 455 -709.667 L 477 -709 L 499 -708.333 L 518.667 -706.333 L 536 -703 L 548.667 -703 L 563 -686 L 579 -652 L 595 -618 L 612.667 -580.667 L 632 -540 L 637.333 -526 L 643.667 -518 L 651 -516 L 655.667 -514 L 659.5 -510.5 L 662.5 -505.5 L 665.5 -500.5 L 662.667 -496 L 654 -492 L 634 -488 L 613.5 -486.333 L 592.5 -487 L 571.5 -487.667 L 552 -489.333 L 534 -492 L 516.667 -500 L 501.833 -515 L 489.5 -537 L 477.167 -559 L 460.667 -598.667 L 440 -656 L 438 -659.333 L 434.333 -664.5 L 429 -671.5 L 423.667 -678.5 L 417.667 -682.667 L 411 -684 L 401.667 -685.333 L 396.333 -690 L 395 -698 L 393.667 -706 L 400 -710 Z M 144 -710 L 164 -710 L 185 -709.667 L 207 -709 L 229 -708.333 L 248.667 -706.333 L 266 -703 L 278.667 -703 L 293 -686 L 309 -652 L 325 -618 L 342.333 -580.667 L 361 -540 L 367 -526 L 373.333 -518 L 380 -516 L 385.333 -514 L 389.5 -510.5 L 392.5 -505.5 L 395.5 -500.5 L 392.667 -496 L 384 -492 L 363.333 -488 L 342.667 -486.333 L 322 -487 L 301.333 -487.667 L 281.667 -489.333 L 263 -492 L 245.667 -500 L 231 -515 L 219 -537 L 207 -559 L 190.667 -598.667 L 170 -656 L 168 -659.333 L 164.333 -664.5 L 159 -671.5 L 153.667 -678.5 L 147.333 -682.667 L 140 -684 L 130.667 -685.333 L 125.5 -690 L 124.5 -698 L 123.5 -706 L 130 -710 Z M 80 -384 L 83.333 -389.333 L 87.167 -392.167 L 91.5 -392.5 L 95.833 -392.833 L 100.333 -391.667 L 105 -389 L 109.667 -386.333 L 115.667 -383.167 L 123 -379.5 L 130.333 -375.833 L 139.667 -372.833 L 151 -370.5 L 162.333 -368.167 L 178.333 -367 L 199 -367 L 1354 -367 L 1372.667 -367 L 1389.833 -365.5 L 1405.5 -362.5 L 1421.167 -359.5 L 1435.333 -354.667 L 1448 -348 L 1460.667 -341.333 L 1470.5 -335.333 L 1477.5 -330 L 1484.5 -324.667 L 1494 -315.5 L 1506 -302.5 L 1518 -289.5 L 1528.5 -277 L 1537.5 -265 L 1546.5 -253 L 1548.333 -241.333 L 1543 -230 L 1537.667 -222 L 1531.5 -220.333 L 1524.5 -225 L 1517.5 -229.667 L 1509.333 -233.667 L 1500 -237 L 1490.667 -240.333 L 1480.5 -242.667 L 1469.5 -244 L 1458.5 -245.333 L 1441.333 -246 L 1418 -246 L 277 -246 L 261.667 -246 L 247.667 -247 L 235 -249 L 222.333 -251 L 212.5 -253.167 L 205.5 -255.5 L 198.5 -257.833 L 191 -261 L 183 -265 L 175 -269 L 166.667 -273.833 L 158 -279.5 L 149.333 -285.167 L 139.833 -293.167 L 129.5 -303.5 L 119.167 -313.833 L 108.833 -325.833 L 98.5 -339.5 L 88.167 -353.167 L 81.667 -362.667 L 79 -368 L 76.333 -373.333 L 76.667 -378.667 Z" fill="black" fill-opacity="0.25" stroke="black" stroke-width="4"/>
  <rect x="865" y="-806" width="566" height="356" fill="none" stroke="red" stroke-width="10" /><rect x="394" y="-710" width="271" height="224" fill="none" stroke="red" stroke-width="10" /><rect x="123" y="-710" width="273" height="224" fill="none" stroke="red" stroke-width="10" /><rect x="76" y="-393" width="1472" height="173" fill="none" stroke="red" stroke-width="10" />
</svg>
