<svg xmlns="http://www.w3.org/2000/svg"
  viewBox="32.222 -1213 1518 1040.579">
  <rect x="32.222" y="-1213" width="1518" height="1040.579" fill="white"/>
  <path d="M 642 -697 L 662 -697 L 682.833 -696.667 L 704.5 -696 L 726.167 -695.333 L 746 -693.333 L 764 -690 L 776.667 -690 L 789.833 -668.667 L 803.5 -626 L 817.167 -583.333 L 833.667 -541.667 L 853 -501 L 859 -487 L 865.333 -479 L 872 -477 L 877.333 -475 L 881.333 -471.5 L 884 -466.5 L 886.667 -461.5 L 883.667 -457 L 875 -453 L 855 -449 L 834.667 -447.333 L 814 -448 L 793.333 -448.667 L 773.667 -450.333 L 755 -453 L 737.667 -461 L 724 -480.167 L 714 -510.5 L 704 -540.833 L 688.667 -585 L 668 -643 L 666 -646.333 L 662.167 -651.5 L 656.5 -658.5 L 650.833 -665.5 L 644.667 -669.667 L 638 -671 L 628.667 -672.333 L 623.5 -676.833 L 622.5 -684.5 L 621.5 -692.167 L 628 -696.333 Z M 371 -697 L 391 -697 L 412 -696.667 L 434 -696 L 456 -695.333 L 475.667 -693.333 L 493 -690 L 505.667 -690 L 519 -668.667 L 533 -626 L 547 -583.333 L 563.667 -541.667 L 583 -501 L 589 -487 L 595.333 -479 L 602 -477 L 607.333 -475 L 611.333 -471.5 L 614 -466.5 L 616.667 -461.5 L 613.667 -457 L 605 -453 L 585 -449 L 564.5 -447.333 L 543.5 -448 L 522.5 -448.667 L 502.667 -450.333 L 484 -453 L 466.667 -461 L 453 -480.167 L 443 -510.5 L 433 -540.833 L 417.667 -585 L 397 -643 L 395.667 -646.333 L 392.167 -651.5 L 386.5 -658.5 L 380.833 -665.5 L 374.667 -669.667 L 368 -671 L 358.667 -672.333 L 353.333 -676.833 L 352 -684.5 L 350.667 -692.167 L 357 -696.333 Z M 85 -384 L 88.333 -389.333 L 92.167 -392.167 L 96.5 -392.5 L 100.833 -392.833 L 105.333 -391.667 L 110 -389 L 114.667 -386.333 L 120.667 -383.167 L 128 -379.5 L 135.333 -375.833 L 144.667 -372.833 L 156 -370.5 L 167.333 -368.167 L 183.333 -367 L 204 -367 L 1228 -367 L 1246.667 -367 L 1263.667 -365.5 L 1279 -362.5 L 1294.333 -359.5 L 1308.333 -354.667 L 1321 -348 L 1333.667 -341.333 L 1343.5 -335.333 L 1350.5 -330 L 1357.5 -324.667 L 1367 -315.5 L 1379 -302.5 L 1391 -289.5 L 1401.5 -277 L 1410.5 -265 L 1419.5 -253 L 1421.333 -241.333 L 1416 -230 L 1410.667 -222 L 1404.5 -220.333 L 1397.5 -225 L 1390.5 -229.667 L 1382.333 -233.667 L 1373 -237 L 1363.667 -240.333 L 1353.5 -242.667 L 1342.5 -244 L 1331.5 -245.333 L 1314.333 -246 L 1291 -246 L 282 -246 L 266.667 -246 L 252.667 -247 L 240 -249 L 227.333 -251 L 217.5 -253.167 L 210.5 -255.5 L 203.5 -257.833 L 196 -261 L 188 -265 L 180 -269 L 171.5 -273.833 L 162.5 -279.5 L 153.5 -285.167 L 144 -293.167 L 134 -303.5 L 124 -313.833 L 113.833 -325.833 L 103.5 -339.5 L 93.167 -353.167 L 86.667 -362.667 L 84 -368 L 81.333 -373.333 L 81.667 -378.667 Z M 1486 -1163 L 1496.667 -1161 L 1501.333 -1155.5 L 1500 -1146.5 L 1498.667 -1137.5 L 1491.667 -1132.667 L 1479 -1132 L 1465 -1127.333 L 1453.833 -1109.667 L 1445.5 -1079 L 1437.167 -1048.333 L 1428 -1016 L 1418 -982 L 1395.333 -902.667 L 1374.833 -838.333 L 1356.5 -789 L 1338.167 -739.667 L 1320.5 -705.167 L 1303.5 -685.5 L 1286.5 -665.833 L 1266.333 -650.667 L 1243 -640 L 1207 -624.667 L 1171.5 -613.333 L 1136.5 -606 L 1101.5 -598.667 L 1071 -595 L 1045 -595 L 1057.667 -565 L 1079 -544 L 1109 -532 L 1139 -520 L 1147.667 -507.333 L 1135 -494 L 1127.667 -486.667 L 1104.667 -496.333 L 1066 -523 L 1027.333 -549.667 L 1000.667 -576 L 986 -602 L 986 -618.667 L 992.833 -625.667 L 1006.5 -623 L 1020.167 -620.333 L 1034.667 -618.333 L 1050 -617 L 1065.333 -616.333 L 1081.333 -617.333 L 1098 -620 L 1114.667 -622.667 L 1136.667 -631 L 1164 -645 L 1177.333 -651.667 L 1189.833 -666.833 L 1201.5 -690.5 L 1213.167 -714.167 L 1223.833 -740.333 L 1233.5 -769 L 1243.167 -797.667 L 1251.333 -826.167 L 1258 -854.5 L 1264.667 -882.833 L 1273.5 -923.667 L 1284.5 -977 L 1295.5 -1030.333 L 1304.833 -1066 L 1312.5 -1084 L 1320.167 -1102 L 1331.167 -1116.667 L 1345.5 -1128 L 1359.833 -1139.333 L 1373.5 -1146.667 L 1386.5 -1150 L 1399.5 -1153.333 L 1414 -1155.667 L 1430 -1157 L 1446 -1158.333 L 1464.667 -1160.333 Z" fill="black" fill-opacity="0.25" stroke="black" stroke-width="4"/>
  <rect x="622" y="-697" width="265" height="250" fill="none" stroke="red" stroke-width="10" /><rect x="351" y="-697" width="266" height="250" fill="none" stroke="red" stroke-width="10" /><rect x="81" y="-393" width="1340" height="173" fill="none" stroke="red" stroke-width="10" /><rect x="986" y="-715.4" width="339.7" height="223.8" fill="none" stroke="red" stroke-width="10" /><rect x="1213.7" y="-939.2" width="192.1" height="223.8" fill="none" stroke="red" stroke-width="10" /><rect x="1276.7" y="-1163" width="224.6" height="223.8" fill="none" stroke="red" stroke-width="10" />
</svg>
