<svg xmlns="http://www.w3.org/2000/svg"
  viewBox="32.222 -1388 1518 1215.579">
  <rect x="32.222" y="-1388" width="1518" height="1215.579" fill="white"/>
  <path d="M 492 -697 L 512 -697 L 532.833 -696.667 L 554.5 -696 L 576.167 -695.333 L 596 -693.333 L 614 -690 L 626.667 -690 L 639.833 -668.667 L 653.5 -626 L 667.167 -583.333 L 683.667 -541.667 L 703 -501 L 709 -487 L 715.333 -479 L 722 -477 L 727.333 -475 L 731.333 -471.5 L 734 -466.5 L 736.667 -461.5 L 734 -457 L 726 -453 L 705.333 -449 L 684.667 -447.333 L 664 -448 L 643.333 -448.667 L 623.667 -450.333 L 605 -453 L 587 -461 L 573.167 -480.167 L 563.5 -510.5 L 553.833 -540.833 L 538.667 -585 L 518 -643 L 516 -646.333 L 512.333 -651.5 L 507 -658.5 L 501.667 -665.5 L 495.333 -669.667 L 488 -671 L 478.667 -672.333 L 473.5 -676.833 L 472.5 -684.5 L 471.5 -692.167 L 478 -696.333 Z M 85 -384 L 88.333 -389.333 L 92.167 -392.167 L 96.5 -392.5 L 100.833 -392.833 L 105.333 -391.667 L 110 -389 L 114.667 -386.333 L 120.667 -383.167 L 128 -379.5 L 135.333 -375.833 L 144.667 -372.833 L 156 -370.5 L 167.333 -368.167 L 183.333 -367 L 204 -367 L 1228 -367 L 1246.667 -367 L 1263.667 -365.5 L 1279 -362.5 L 1294.333 -359.5 L 1308.333 -354.667 L 1321 -348 L 1333.667 -341.333 L 1343.5 -335.333 L 1350.5 -330 L 1357.5 -324.667 L 1367 -315.5 L 1379 -302.5 L 1391 -289.5 L 1401.5 -277 L 1410.5 -265 L 1419.5 -253 L 1421.333 -241.333 L 1416 -230 L 1410.667 -222 L 1404.5 -220.333 L 1397.5 -225 L 1390.5 -229.667 L 1382.333 -233.667 L 1373 -237 L 1363.667 -240.333 L 1353.5 -242.667 L 1342.5 -244 L 1331.5 -245.333 L 1314.333 -246 L 1291 -246 L 282 -246 L 266.667 -246 L 252.667 -247 L 240 -249 L 227.333 -251 L 217.5 -253.167 L 210.5 -255.5 L 203.5 -257.833 L 196 -261 L 188 -265 L 180 -269 L 171.5 -273.833 L 162.5 -279.5 L 153.5 -285.167 L 144 -293.167 L 134 -303.5 L 124 -313.833 L 113.833 -325.833 L 103.5 -339.5 L 93.167 -353.167 L 86.667 -362.667 L 84 -368 L 81.333 -373.333 L 81.667 -378.667 Z M 1486 -1163 L 1496.667 -1161 L 1501.333 -1155.5 L 1500 -1146.5 L 1498.667 -1137.5 L 1491.667 -1132.667 L 1479 -1132 L 1465 -1127.333 L 1453.833 -1109.667 L 1445.5 -1079 L 1437.167 -1048.333 L 1428 -1016 L 1418 -982 L 1395.333 -902.667 L 1374.833 -838.333 L 1356.5 -789 L 1338.167 -739.667 L 1320.5 -705.167 L 1303.5 -685.5 L 1286.5 -665.833 L 1266.333 -650.667 L 1243 -640 L 1207 -624.667 L 1171.5 -613.333 L 1136.5 -606 L 1101.5 -598.667 L 1071 -595 L 1045 -595 L 1057.667 -565 L 1079 -544 L 1109 -532 L 1139 -520 L 1147.667 -507.333 L 1135 -494 L 1127.667 -486.667 L 1104.667 -496.333 L 1066 -523 L 1027.333 -549.667 L 1000.667 -576 L 986 -602 L 986 -618.667 L 992.833 -625.667 L 1006.5 -623 L 1020.167 -620.333 L 1034.667 -618.333 L 1050 -617 L 1065.333 -616.333 L 1081.333 -617.333 L 1098 -620 L 1114.667 -622.667 L 1136.667 -631 L 1164 -645 L 1177.333 -651.667 L 1189.833 -666.833 L 1201.5 -690.5 L 1213.167 -714.167 L 1223.833 -740.333 L 1233.5 -769 L 1243.167 -797.667 L 1251.333 -826.167 L 1258 -854.5 L 1264.667 -882.833 L 1273.5 -923.667 L 1284.5 -977 L 1295.5 -1030.333 L 1304.833 -1066 L 1312.5 -1084 L 1320.167 -1102 L 1331.167 -1116.667 L 1345.5 -1128 L 1359.833 -1139.333 L 1373.5 -1146.667 L 1386.5 -1150 L 1399.5 -1153.333 L 1414 -1155.667 L 1430 -1157 L 1446 -1158.333 L 1464.667 -1160.333 Z M 897 -1338 L 907 -1336.667 L 911.5 -1332.167 L 910.5 -1324.5 L 909.5 -1316.833 L 903.333 -1312.333 L 892 -1311 L 879.333 -1307 L 869 -1292.167 L 861 -1266.5 L 853 -1240.833 L 844.333 -1213.667 L 835 -1185 L 814.333 -1117.667 L 795.333 -1063.333 L 778 -1022 L 760.667 -980.667 L 744.333 -951.667 L 729 -935 L 713.667 -918.333 L 695 -905.667 L 673 -897 L 639.667 -883.667 L 606.833 -874 L 574.5 -868 L 542.167 -862 L 514 -859 L 490 -859 L 502 -833 L 521.833 -815.167 L 549.5 -805.5 L 577.167 -795.833 L 585 -785.333 L 573 -774 L 566.333 -768 L 545.167 -776.167 L 509.5 -798.5 L 473.833 -820.833 L 449.333 -843 L 436 -865 L 436 -879 L 442.167 -884.833 L 454.5 -882.5 L 466.833 -880.167 L 480.333 -878.667 L 495 -878 L 509.667 -877.333 L 524.5 -878 L 539.5 -880 L 554.5 -882 L 574.667 -889 L 600 -901 L 612.667 -907 L 624.333 -919.833 L 635 -939.5 L 645.667 -959.167 L 655.5 -981.167 L 664.5 -1005.5 L 673.5 -1029.833 L 681 -1054 L 687 -1078 L 693 -1102 L 701 -1136.333 L 711 -1181 L 721 -1225.667 L 729.667 -1255.667 L 737 -1271 L 744.333 -1286.333 L 754.667 -1298.833 L 768 -1308.5 L 781.333 -1318.167 L 794 -1324.333 L 806 -1327 L 818 -1329.667 L 831.333 -1331.667 L 846 -1333 L 860.667 -1334.333 L 877.667 -1336 Z" fill="black" fill-opacity="0.25" stroke="black" stroke-width="4"/>
  <rect x="471" y="-697" width="266" height="250" fill="none" stroke="red" stroke-width="10" /><rect x="81" y="-393" width="1340" height="173" fill="none" stroke="red" stroke-width="10" /><rect x="986" y="-715.4" width="339.7" height="223.8" fill="none" stroke="red" stroke-width="10" /><rect x="1213.7" y="-939.2" width="192.1" height="223.8" fill="none" stroke="red" stroke-width="10" /><rect x="1276.7" y="-1163" width="224.6" height="223.8" fill="none" stroke="red" stroke-width="10" /><rect x="436" y="-960.7" width="313.4" height="188.6" fill="none" stroke="red" stroke-width="10" /><rect x="646.4" y="-1149.4" width="177.7" height="188.7" fill="none" stroke="red" stroke-width="10" /><rect x="703.9" y="-1338" width="207.6" height="188.6" fill="none" stroke="red" stroke-width="10" />
</svg>
