<svg xmlns="http://www.w3.org/2000/svg"
  viewBox="32.222 -442.556 1436.755 270.135">
  <rect x="32.222" y="-442.556" width="1436.755" height="270.135" fill="white"/>
  <path d="M 85 -384 L 88.333 -389.333 L 92.167 -392.167 L 96.5 -392.5 L 100.833 -392.833 L 105.333 -391.667 L 110 -389 L 114.667 -386.333 L 120.667 -383.167 L 128 -379.5 L 135.333 -375.833 L 144.667 -372.833 L 156 -370.5 L 167.333 -368.167 L 183.333 -367 L 204 -367 L 1228 -367 L 1246.667 -367 L 1263.667 -365.5 L 1279 -362.5 L 1294.333 -359.5 L 1308.333 -354.667 L 1321 -348 L 1333.667 -341.333 L 1343.5 -335.333 L 1350.5 -330 L 1357.5 -324.667 L 1367 -315.5 L 1379 -302.5 L 1391 -289.5 L 1401.5 -277 L 1410.5 -265 L 1419.5 -253 L 1421.333 -241.333 L 1416 -230 L 1410.667 -222 L 1404.5 -220.333 L 1397.5 -225 L 1390.5 -229.667 L 1382.333 -233.667 L 1373 -237 L 1363.667 -240.333 L 1353.5 -242.667 L 1342.5 -244 L 1331.5 -245.333 L 1314.333 -246 L 1291 -246 L 282 -246 L 266.667 -246 L 252.667 -247 L 240 -249 L 227.333 -251 L 217.5 -253.167 L 210.5 -255.5 L 203.5 -257.833 L 196 -261 L 188 -265 L 180 -269 L 171.5 -273.833 L 162.5 -279.5 L 153.5 -285.167 L 144 -293.167 L 134 -303.5 L 124 -313.833 L 113.833 -325.833 L 103.5 -339.5 L 93.167 -353.167 L 86.667 -362.667 L 84 -368 L 81.333 -373.333 L 81.667 -378.667 Z" fill="black" fill-opacity="0.25" stroke="black" stroke-width="4"/>
  <rect x="81" y="-393" width="1340" height="173" fill="none" stroke="red" stroke-width="10" />
</svg>
