<svg xmlns="http://www.w3.org/2000/svg"
  viewBox="27.222222222237036 -770.0 1558.8253968248207 597.57894736882">
  <rect x="27.222222222237036" y="-770.0" width="1558.8253968248207" height="597.57894736882" fill="white"/>
  <path d="M 409.0 -711.0 L 429.0 -711.0 L 450.0 -710.666992188 L 472.0 -710.0 L 494.0 -709.333007812 L 513.666992188 -707.333007812 L 531.0 -704.0 L 543.666992188 -704.0 L 558.0 -687.0 L 574.0 -653.0 L 590.0 -619.0 L 607.666992188 -581.666992188 L 627.0 -541.0 L 632.333007812 -527.0 L 638.666992188 -519.0 L 646.0 -517.0 L 650.666992188 -515.0 L 654.5 -511.5 L 657.5 -506.5 L 660.5 -501.5 L 657.666992188 -497.0 L 649.0 -493.0 L 629.0 -489.0 L 608.5 -487.333007812 L 587.5 -488.0 L 566.5 -488.666992188 L 547.0 -490.333007812 L 529.0 -493.0 L 511.666992188 -501.0 L 496.833007812 -516.0 L 484.5 -538.0 L 472.166992188 -560.0 L 455.666992188 -599.666992188 L 435.0 -657.0 L 433.0 -660.333007812 L 429.333007812 -665.5 L 424.0 -672.5 L 418.666992188 -679.5 L 412.666992188 -683.666992188 L 406.0 -685.0 L 396.666992188 -686.333007812 L 391.333007812 -691.0 L 390.0 -699.0 L 388.666992188 -707.0 L 395.0 -711.0 Z M 139.0 -711.0 L 159.0 -711.0 L 180.0 -710.666992188 L 202.0 -710.0 L 224.0 -709.333007812 L 243.666992188 -707.333007812 L 261.0 -704.0 L 273.666992188 -704.0 L 288.0 -687.0 L 304.0 -653.0 L 320.0 -619.0 L 337.333007812 -581.666992188 L 356.0 -541.0 L 362.0 -527.0 L 368.333007812 -519.0 L 375.0 -517.0 L 380.333007812 -515.0 L 384.5 -511.5 L 387.5 -506.5 L 390.5 -501.5 L 387.666992188 -497.0 L 379.0 -493.0 L 358.333007812 -489.0 L 337.666992188 -487.333007812 L 317.0 -488.0 L 296.333007812 -488.666992188 L 276.666992188 -490.333007812 L 258.0 -493.0 L 240.666992188 -501.0 L 226.0 -516.0 L 214.0 -538.0 L 202.0 -560.0 L 185.666992188 -599.666992188 L 165.0 -657.0 L 163.0 -660.333007812 L 159.333007812 -665.5 L 154.0 -672.5 L 148.666992188 -679.5 L 142.333007812 -683.666992188 L 135.0 -685.0 L 125.666992188 -686.333007812 L 120.5 -691.0 L 119.5 -699.0 L 118.5 -707.0 L 125.0 -711.0 Z M 1371.0 -720.0 L 1386.33300781 -719.333007812 L 1393.5 -715.166992188 L 1392.5 -707.5 L 1391.5 -699.833007812 L 1385.33300781 -695.0 L 1374.0 -693.0 L 1365.33300781 -691.666992188 L 1358.0 -688.5 L 1352.0 -683.5 L 1346.0 -678.5 L 1342.33300781 -674.333007812 L 1341.0 -671.0 L 1317.0 -619.0 L 1298.5 -573.666992188 L 1285.5 -535.0 L 1272.5 -496.333007812 L 1256.0 -473.666992188 L 1236.0 -467.0 L 1214.66699219 -465.0 L 1192.0 -463.5 L 1168.0 -462.5 L 1144.0 -461.5 L 1120.66699219 -463.0 L 1098.0 -467.0 L 1088.0 -470.333007812 L 1084.66699219 -474.166992188 L 1088.0 -478.5 L 1091.33300781 -482.833007812 L 1096.0 -486.0 L 1102.0 -488.0 L 1108.66699219 -490.0 L 1116.0 -497.0 L 1124.0 -509.0 L 1147.33300781 -546.333007812 L 1167.33300781 -589.666992188 L 1184.0 -639.0 L 1200.66699219 -688.333007812 L 1216.33300781 -713.0 L 1231.0 -713.0 L 1251.0 -715.666992188 L 1273.5 -717.5 L 1298.5 -718.5 L 1323.5 -719.5 L 1347.66699219 -720.0 Z M 80.0 -384.0 L 83.3333333333 -389.333333333 L 87.1666666667 -392.166666667 L 91.5 -392.5 L 95.8333333333 -392.833333333 L 100.333333333 -391.666666667 L 105.0 -389.0 L 109.666666667 -386.333333333 L 115.666666667 -383.166666667 L 123.0 -379.5 L 130.333333333 -375.833333333 L 139.666666667 -372.833333333 L 151.0 -370.5 L 162.333333333 -368.166666667 L 178.333333333 -367.0 L 199.0 -367.0 L 1345.0 -367.0 L 1363.66666667 -367.0 L 1380.66666667 -365.5 L 1396.0 -362.5 L 1411.33333333 -359.5 L 1425.33333333 -354.666666667 L 1438.0 -348.0 L 1450.66666667 -341.333333333 L 1460.5 -335.333333333 L 1467.5 -330.0 L 1474.5 -324.666666667 L 1484.16666667 -315.5 L 1496.5 -302.5 L 1508.83333333 -289.5 L 1519.33333333 -277.0 L 1528.0 -265.0 L 1536.66666667 -253.0 L 1538.33333333 -241.333333333 L 1533.0 -230.0 L 1527.66666667 -222.0 L 1521.5 -220.333333333 L 1514.5 -225.0 L 1507.5 -229.666666667 L 1499.33333333 -233.666666667 L 1490.0 -237.0 L 1480.66666667 -240.333333333 L 1470.5 -242.666666667 L 1459.5 -244.0 L 1448.5 -245.333333333 L 1431.33333333 -246.0 L 1408.0 -246.0 L 277.0 -246.0 L 261.666666667 -246.0 L 247.666666667 -247.0 L 235.0 -249.0 L 222.333333333 -251.0 L 212.5 -253.166666667 L 205.5 -255.5 L 198.5 -257.833333333 L 191.0 -261.0 L 183.0 -265.0 L 175.0 -269.0 L 166.666666667 -273.833333333 L 158.0 -279.5 L 149.333333333 -285.166666667 L 139.833333333 -293.166666667 L 129.5 -303.5 L 119.166666667 -313.833333333 L 108.833333333 -325.833333333 L 98.5 -339.5 L 88.1666666667 -353.166666667 L 81.6666666667 -362.666666667 L 79.0 -368.0 L 76.3333333333 -373.333333333 L 76.6666666667 -378.666666667 Z" fill="black" fill-opacity="0.25" stroke="black" stroke-width="4.0"/>
  <rect x="389.0" y="-711.0" width="271.0" height="223.99999999999997" fill="none" stroke="red" stroke-width="10.0" /><rect x="118.0" y="-711.0" width="273.0" height="223.99999999999997" fill="none" stroke="red" stroke-width="10.0" /><rect x="1085.0" y="-720.0" width="308.00000000000006" height="257.99999999999994" fill="none" stroke="red" stroke-width="10.0" /><rect x="76.0" y="-393.0" width="1462.0" height="173.00000000000003" fill="none" stroke="red" stroke-width="10.0" />
</svg>
