<svg xmlns="http://www.w3.org/2000/svg"
  viewBox="32.222 -874 1436.755 701.579">
  <rect x="32.222" y="-874" width="1436.755" height="701.579" fill="white"/>
  <path d="M 690 -475 L 682 -481 L 681.333 -486.5 L 688 -491.5 L 694.667 -496.5 L 703 -499 L 713 -499 L 723.667 -499 L 738.833 -508.833 L 758.5 -528.5 L 778.167 -548.167 L 791 -572.333 L 797 -601 L 807 -649.667 L 781.667 -689.667 L 721 -721 L 697.667 -732.333 L 668.333 -742.333 L 633 -751 L 597.667 -759.667 L 562.667 -767.333 L 528 -774 L 493.333 -780.667 L 462.667 -786.167 L 436 -790.5 L 409.333 -794.833 L 394 -798 L 390 -800 L 380.667 -803.333 L 377 -808.167 L 379 -814.5 L 381 -820.833 L 386 -824 L 394 -824 L 398 -824 L 412.833 -822.333 L 438.5 -819 L 464.167 -815.667 L 495.167 -811 L 531.5 -805 L 567.833 -799 L 606.167 -791.333 L 646.5 -782 L 686.833 -772.667 L 723.333 -761.667 L 756 -749 L 795.333 -733.667 L 826.667 -718.167 L 850 -702.5 L 873.333 -686.833 L 895 -666 L 915 -640 L 934.333 -613.333 L 942.5 -587.167 L 939.5 -561.5 L 936.5 -535.833 L 925 -515.667 L 905 -501 L 887 -487.667 L 866.5 -478.833 L 843.5 -474.5 L 820.5 -470.167 L 798.667 -468 L 778 -468 L 746 -468 L 746 -468 L 733.5 -468 L 725.167 -468 L 710.667 -470.333 Z M 85 -384 L 88.333 -389.333 L 92.167 -392.167 L 96.5 -392.5 L 100.833 -392.833 L 105.333 -391.667 L 110 -389 L 114.667 -386.333 L 120.667 -383.167 L 128 -379.5 L 135.333 -375.833 L 144.667 -372.833 L 156 -370.5 L 167.333 -368.167 L 183.333 -367 L 204 -367 L 1228 -367 L 1246.667 -367 L 1263.667 -365.5 L 1279 -362.5 L 1294.333 -359.5 L 1308.333 -354.667 L 1321 -348 L 1333.667 -341.333 L 1343.5 -335.333 L 1350.5 -330 L 1357.5 -324.667 L 1367 -315.5 L 1379 -302.5 L 1391 -289.5 L 1401.5 -277 L 1410.5 -265 L 1419.5 -253 L 1421.333 -241.333 L 1416 -230 L 1410.667 -222 L 1404.5 -220.333 L 1397.5 -225 L 1390.5 -229.667 L 1382.333 -233.667 L 1373 -237 L 1363.667 -240.333 L 1353.5 -242.667 L 1342.5 -244 L 1331.5 -245.333 L 1314.333 -246 L 1291 -246 L 282 -246 L 266.667 -246 L 252.667 -247 L 240 -249 L 227.333 -251 L 217.5 -253.167 L 210.5 -255.5 L 203.5 -257.833 L 196 -261 L 188 -265 L 180 -269 L 171.5 -273.833 L 162.5 -279.5 L 153.5 -285.167 L 144 -293.167 L 134 -303.5 L 124 -313.833 L 113.833 -325.833 L 103.5 -339.5 L 93.167 -353.167 L 86.667 -362.667 L 84 -368 L 81.333 -373.333 L 81.667 -378.667 Z" fill="black" fill-opacity="0.25" stroke="black" stroke-width="4"/>
  <rect x="377" y="-824" width="566" height="356" fill="none" stroke="red" stroke-width="10" /><rect x="81" y="-393" width="1340" height="173" fill="none" stroke="red" stroke-width="10" />
</svg>
