<svg xmlns="http://www.w3.org/2000/svg"
  viewBox="189.826 -841.524 2048.36 669.103">
  <rect x="189.826" y="-841.524" width="2048.36" height="669.103" fill="white"/>
  <path d="M 1974 -472 L 1967.333 -476.667 L 1966.833 -481.333 L 1972.5 -486 L 1978.167 -490.667 L 1985.333 -493 L 1994 -493 L 2003.333 -493 L 2016.333 -501.333 L 2033 -518 L 2049.667 -534.667 L 2060.667 -555.333 L 2066 -580 L 2074.667 -621.333 L 2053 -655.333 L 2001 -682 L 1961.667 -701.333 L 1908.5 -716.333 L 1841.5 -727 L 1774.5 -737.667 L 1737.333 -744.333 L 1730 -747 L 1722.667 -749.667 L 1720 -753.833 L 1722 -759.5 L 1724 -765.167 L 1727.667 -768 L 1733 -768 L 1739 -768 L 1776.167 -763 L 1844.5 -753 L 1912.833 -743 L 1975 -727.333 L 2031 -706 L 2064.333 -692.667 L 2091 -679.5 L 2111 -666.5 L 2131 -653.5 L 2149.667 -635.667 L 2167 -613 L 2183.667 -590.333 L 2190.5 -568 L 2187.5 -546 L 2184.5 -524 L 2174.667 -507 L 2158 -495 L 2142.667 -483.667 L 2125.167 -476 L 2105.5 -472 L 2085.833 -468 L 2067 -466 L 2049 -466 L 2022 -466 L 2022 -466 L 2011.5 -466 L 2004.5 -466 L 1992 -468 Z M 259 -723 L 279 -723 L 300 -722.667 L 322 -722 L 344 -721.333 L 363.667 -719.333 L 381 -716 L 393.667 -716 L 408.167 -699 L 424.5 -665 L 440.833 -631 L 458.333 -593.667 L 477 -553 L 483 -539 L 489.333 -531 L 496 -529 L 500.667 -527 L 504.667 -523.5 L 508 -518.5 L 511.333 -513.5 L 508.333 -509 L 499 -505 L 479 -501 L 458.667 -499.333 L 438 -500 L 417.333 -500.667 L 397.667 -502.333 L 379 -505 L 361.667 -513 L 346.833 -528 L 334.5 -550 L 322.167 -572 L 306 -611.667 L 286 -669 L 284.667 -672.333 L 281 -677.5 L 275 -684.5 L 269 -691.5 L 262.667 -695.667 L 256 -697 L 246.667 -698.333 L 241.333 -703 L 240 -711 L 238.667 -719 L 245 -723 Z M 530 -723 L 550 -723 L 570.833 -722.667 L 592.5 -722 L 614.167 -721.333 L 634 -719.333 L 652 -716 L 664.667 -716 L 679 -699 L 695 -665 L 711 -631 L 728.333 -593.667 L 747 -553 L 753 -539 L 759.333 -531 L 766 -529 L 771.333 -527 L 775.5 -523.5 L 778.5 -518.5 L 781.5 -513.5 L 778.667 -509 L 770 -505 L 749.333 -501 L 728.667 -499.333 L 708 -500 L 687.333 -500.667 L 667.667 -502.333 L 649 -505 L 631 -513 L 616.167 -528 L 604.5 -550 L 592.833 -572 L 576.667 -611.667 L 556 -669 L 554 -672.333 L 550.167 -677.5 L 544.5 -684.5 L 538.833 -691.5 L 532.667 -695.667 L 526 -697 L 516.667 -698.333 L 511.5 -703 L 510.5 -711 L 509.5 -719 L 516 -723 Z M 265.5 -384 L 269.167 -389.333 L 273 -392.167 L 277 -392.5 L 281 -392.833 L 285.5 -391.667 L 290.5 -389 L 295.5 -386.333 L 301.5 -383.167 L 308.5 -379.5 L 315.5 -375.833 L 324.833 -372.833 L 336.5 -370.5 L 348.167 -368.167 L 364 -367 L 384 -367 L 1892 -367 L 1910.667 -367 L 1927.667 -365.5 L 1943 -362.5 L 1958.333 -359.5 L 1972.333 -354.667 L 1985 -348 L 1997.667 -341.333 L 2007.5 -335.333 L 2014.5 -330 L 2021.5 -324.667 L 2031.167 -315.5 L 2043.5 -302.5 L 2055.833 -289.5 L 2066.333 -277 L 2075 -265 L 2083.667 -253 L 2085.333 -241.333 L 2080 -230 L 2074.667 -222 L 2068.5 -220.333 L 2061.5 -225 L 2054.5 -229.667 L 2046.333 -233.667 L 2037 -237 L 2027.667 -240.333 L 2017.5 -242.667 L 2006.5 -244 L 1995.5 -245.333 L 1978.333 -246 L 1955 -246 L 462 -246 L 446.667 -246 L 432.833 -247 L 420.5 -249 L 408.167 -251 L 398.333 -253.167 L 391 -255.5 L 383.667 -257.833 L 376.167 -261 L 368.5 -265 L 360.833 -269 L 352.5 -273.833 L 343.5 -279.5 L 334.5 -285.167 L 325 -293.167 L 315 -303.5 L 305 -313.833 L 294.833 -325.833 L 284.5 -339.5 L 274.167 -353.167 L 267.5 -362.667 L 264.5 -368 L 261.5 -373.333 L 261.833 -378.667 Z M 1132 -465 L 1109.333 -456.333 L 1071 -457 L 1017 -467 L 985.667 -475 L 957.833 -485.5 L 933.5 -498.5 L 909.167 -511.5 L 890.667 -534.333 L 878 -567 L 869.333 -598.333 L 866.333 -623.5 L 869 -642.5 L 871.667 -661.5 L 882 -683.333 L 900 -708 L 917.333 -728.667 L 937.5 -744.333 L 960.5 -755 L 983.5 -765.667 L 1011.667 -774.667 L 1045 -782 L 1078.333 -788.667 L 1105.333 -791.833 L 1126 -791.5 L 1146.667 -791.167 L 1169 -790.333 L 1193 -789 L 1217 -788.333 L 1239.333 -786.667 L 1260 -784 L 1280.667 -781.333 L 1305.667 -775.333 L 1335 -766 L 1383.667 -752.667 L 1431.333 -734.333 L 1478 -711 L 1504.667 -697.667 L 1532.667 -683.5 L 1562 -668.5 L 1591.333 -653.5 L 1624.333 -636 L 1661 -616 L 1677.667 -606 L 1695.833 -595.167 L 1715.5 -583.5 L 1735.167 -571.833 L 1756.333 -560 L 1779 -548 L 1796.333 -537.333 L 1813.5 -526.5 L 1830.5 -515.5 L 1847.5 -504.5 L 1854.667 -493.5 L 1852 -482.5 L 1849.333 -471.5 L 1842.833 -466.333 L 1832.5 -467 L 1822.167 -467.667 L 1790.167 -467.333 L 1736.5 -466 L 1682.833 -464.667 L 1636 -464.333 L 1596 -465 L 1580 -477 L 1580.167 -485.5 L 1596.5 -490.5 L 1612.833 -495.5 L 1625 -502 L 1633 -510 L 1647.667 -525.333 L 1654.167 -537.5 L 1652.5 -546.5 L 1650.833 -555.5 L 1648.5 -562.5 L 1645.5 -567.5 L 1642.5 -572.5 L 1637.667 -578 L 1631 -584 L 1624.333 -590 L 1608.167 -601.833 L 1582.5 -619.5 L 1556.833 -637.167 L 1524.667 -656 L 1486 -676 L 1452 -691.333 L 1425 -703.667 L 1405 -713 L 1385 -722.333 L 1353 -733 L 1309 -745 L 1276.333 -751.667 L 1243 -755.667 L 1209 -757 L 1175 -758.333 L 1140.667 -753.333 L 1106 -742 L 1081.333 -731.333 L 1064 -722.167 L 1054 -714.5 L 1044 -706.833 L 1033 -693.667 L 1021 -675 L 1010.333 -657 L 1004.167 -641.833 L 1002.5 -629.5 L 1000.833 -617.167 L 1000.333 -603 L 1001 -587 L 1001.667 -570.333 L 1003.667 -558.167 L 1007 -550.5 L 1010.333 -542.833 L 1014.667 -535.167 L 1020 -527.5 L 1025.333 -519.833 L 1032 -513 L 1040 -507 L 1048 -501 L 1060.333 -496.667 L 1077 -494 L 1093.667 -491.333 L 1110 -489 L 1126 -487 L 1132.667 -485.667 L 1137 -482.667 L 1139 -478 L 1141 -473.333 L 1138.667 -469 Z" fill="black" fill-opacity="0.25" stroke="black" stroke-width="4"/>
  <rect x="1720" y="-768" width="471" height="302" fill="none" stroke="red" stroke-width="10" /><rect x="239" y="-723" width="272" height="224" fill="none" stroke="red" stroke-width="10" /><rect x="509" y="-723" width="272" height="224" fill="none" stroke="red" stroke-width="10" /><rect x="262" y="-393" width="1823" height="173" fill="none" stroke="red" stroke-width="10" /><rect x="866" y="-792" width="989" height="336" fill="none" stroke="red" stroke-width="10" />
</svg>
