<svg xmlns="http://www.w3.org/2000/svg"
  viewBox="27.222222222237036 -856.0 1568.7545219623426 683.57894736882">
  <rect x="27.222222222237036" y="-856.0" width="1568.7545219623426" height="683.57894736882" fill="white"/>
  <path d="M 1178.0 -458.0 L 1170.66699219 -464.0 L 1170.33300781 -469.5 L 1177.0 -474.5 L 1183.66699219 -479.5 L 1192.0 -482.0 L 1202.0 -482.0 L 1212.66699219 -482.0 L 1227.66699219 -491.833007812 L 1247.0 -511.5 L 1266.33300781 -531.166992188 L 1279.33300781 -555.333007812 L 1286.0 -584.0 L 1296.0 -632.666992188 L 1270.33300781 -672.333007812 L 1209.0 -703.0 L 1185.66699219 -714.333007812 L 1156.33300781 -724.5 L 1121.0 -733.5 L 1085.66699219 -742.5 L 1050.66699219 -750.333007812 L 1016.0 -757.0 L 981.333007812 -763.666992188 L 950.833007812 -769.166992188 L 924.5 -773.5 L 898.166992188 -778.5 L 882.666992188 -781.666992188 L 878.0 -783.0 L 868.666992188 -786.333007812 L 865.166992188 -791.0 L 867.5 -797.0 L 869.833007812 -803.0 L 874.666992188 -806.0 L 882.0 -806.0 L 886.0 -806.0 L 901.0 -804.5 L 927.0 -801.5 L 953.0 -798.5 L 984.0 -794.0 L 1020.0 -788.0 L 1056.0 -782.0 L 1094.16699219 -774.166992188 L 1134.5 -764.5 L 1174.83300781 -754.833007812 L 1211.66699219 -743.666992188 L 1245.0 -731.0 L 1284.33300781 -715.666992188 L 1315.66699219 -700.333007812 L 1339.0 -685.0 L 1362.33300781 -669.666992188 L 1383.66699219 -649.0 L 1403.0 -623.0 L 1422.33300781 -597.0 L 1430.5 -571.0 L 1427.5 -545.0 L 1424.5 -519.0 L 1413.33300781 -498.666992188 L 1394.0 -484.0 L 1376.0 -470.666992188 L 1355.5 -461.666992188 L 1332.5 -457.0 L 1309.5 -452.333007812 L 1287.33300781 -450.0 L 1266.0 -450.0 L 1234.0 -450.0 L 1234.0 -450.0 L 1222.0 -450.0 L 1214.0 -450.0 L 1199.33300781 -452.666992188 Z M 414.0 -710.0 L 434.0 -710.0 L 455.0 -709.666992188 L 477.0 -709.0 L 499.0 -708.333007812 L 518.666992188 -706.333007812 L 536.0 -703.0 L 548.666992188 -703.0 L 563.0 -686.0 L 579.0 -652.0 L 595.0 -618.0 L 612.666992188 -580.666992188 L 632.0 -540.0 L 637.333007812 -526.0 L 643.666992188 -518.0 L 651.0 -516.0 L 655.666992188 -514.0 L 659.5 -510.5 L 662.5 -505.5 L 665.5 -500.5 L 662.666992188 -496.0 L 654.0 -492.0 L 634.0 -488.0 L 613.5 -486.333007812 L 592.5 -487.0 L 571.5 -487.666992188 L 552.0 -489.333007812 L 534.0 -492.0 L 516.666992188 -500.0 L 501.833007812 -515.0 L 489.5 -537.0 L 477.166992188 -559.0 L 460.666992188 -598.666992188 L 440.0 -656.0 L 438.0 -659.333007812 L 434.333007812 -664.5 L 429.0 -671.5 L 423.666992188 -678.5 L 417.666992188 -682.666992188 L 411.0 -684.0 L 401.666992188 -685.333007812 L 396.333007812 -690.0 L 395.0 -698.0 L 393.666992188 -706.0 L 400.0 -710.0 Z M 144.0 -710.0 L 164.0 -710.0 L 185.0 -709.666992188 L 207.0 -709.0 L 229.0 -708.333007812 L 248.666992188 -706.333007812 L 266.0 -703.0 L 278.666992188 -703.0 L 293.0 -686.0 L 309.0 -652.0 L 325.0 -618.0 L 342.333007812 -580.666992188 L 361.0 -540.0 L 367.0 -526.0 L 373.333007812 -518.0 L 380.0 -516.0 L 385.333007812 -514.0 L 389.5 -510.5 L 392.5 -505.5 L 395.5 -500.5 L 392.666992188 -496.0 L 384.0 -492.0 L 363.333007812 -488.0 L 342.666992188 -486.333007812 L 322.0 -487.0 L 301.333007812 -487.666992188 L 281.666992188 -489.333007812 L 263.0 -492.0 L 245.666992188 -500.0 L 231.0 -515.0 L 219.0 -537.0 L 207.0 -559.0 L 190.666992188 -598.666992188 L 170.0 -656.0 L 168.0 -659.333007812 L 164.333007812 -664.5 L 159.0 -671.5 L 153.666992188 -678.5 L 147.333007812 -682.666992188 L 140.0 -684.0 L 130.666992188 -685.333007812 L 125.5 -690.0 L 124.5 -698.0 L 123.5 -706.0 L 130.0 -710.0 Z M 80.0 -384.0 L 83.3333333333 -389.333333333 L 87.1666666667 -392.166666667 L 91.5 -392.5 L 95.8333333333 -392.833333333 L 100.333333333 -391.666666667 L 105.0 -389.0 L 109.666666667 -386.333333333 L 115.666666667 -383.166666667 L 123.0 -379.5 L 130.333333333 -375.833333333 L 139.666666667 -372.833333333 L 151.0 -370.5 L 162.333333333 -368.166666667 L 178.333333333 -367.0 L 199.0 -367.0 L 1354.0 -367.0 L 1372.66666667 -367.0 L 1389.83333333 -365.5 L 1405.5 -362.5 L 1421.16666667 -359.5 L 1435.33333333 -354.666666667 L 1448.0 -348.0 L 1460.66666667 -341.333333333 L 1470.5 -335.333333333 L 1477.5 -330.0 L 1484.5 -324.666666667 L 1494.0 -315.5 L 1506.0 -302.5 L 1518.0 -289.5 L 1528.5 -277.0 L 1537.5 -265.0 L 1546.5 -253.0 L 1548.33333333 -241.333333333 L 1543.0 -230.0 L 1537.66666667 -222.0 L 1531.5 -220.333333333 L 1524.5 -225.0 L 1517.5 -229.666666667 L 1509.33333333 -233.666666667 L 1500.0 -237.0 L 1490.66666667 -240.333333333 L 1480.5 -242.666666667 L 1469.5 -244.0 L 1458.5 -245.333333333 L 1441.33333333 -246.0 L 1418.0 -246.0 L 277.0 -246.0 L 261.666666667 -246.0 L 247.666666667 -247.0 L 235.0 -249.0 L 222.333333333 -251.0 L 212.5 -253.166666667 L 205.5 -255.5 L 198.5 -257.833333333 L 191.0 -261.0 L 183.0 -265.0 L 175.0 -269.0 L 166.666666667 -273.833333333 L 158.0 -279.5 L 149.333333333 -285.166666667 L 139.833333333 -293.166666667 L 129.5 -303.5 L 119.166666667 -313.833333333 L 108.833333333 -325.833333333 L 98.5 -339.5 L 88.1666666667 -353.166666667 L 81.6666666667 -362.666666667 L 79.0 -368.0 L 76.3333333333 -373.333333333 L 76.6666666667 -378.666666667 Z" fill="black" fill-opacity="0.25" stroke="black" stroke-width="4.0"/>
  <rect x="865.0" y="-806.0" width="566.0000000000001" height="356.00000000000006" fill="none" stroke="red" stroke-width="10.0" /><rect x="394.0" y="-710.0" width="271.0" height="223.99999999999997" fill="none" stroke="red" stroke-width="10.0" /><rect x="123.0" y="-710.0" width="273.0" height="223.99999999999997" fill="none" stroke="red" stroke-width="10.0" /><rect x="76.0" y="-393.0" width="1472.0" height="173.00000000000003" fill="none" stroke="red" stroke-width="10.0" />
</svg>
