<svg xmlns="http://www.w3.org/2000/svg"
  viewBox="32.222222222237036 -747.0 1416.8253968248207 574.57894736882">
  <rect x="32.222222222237036" y="-747.0" width="1416.8253968248207" height="574.57894736882" fill="white"/>
  <path d="M 792.0 -697.0 L 812.0 -697.0 L 832.833333333 -696.666666667 L 854.5 -696.0 L 876.166666667 -695.333333333 L 896.0 -693.333333333 L 914.0 -690.0 L 926.666666667 -690.0 L 939.833333333 -668.666666667 L 953.5 -626.0 L 967.166666667 -583.333333333 L 983.333333333 -541.666666667 L 1002.0 -501.0 L 1008.66666667 -487.0 L 1015.0 -479.0 L 1021.0 -477.0 L 1026.33333333 -475.0 L 1030.5 -471.5 L 1033.5 -466.5 L 1036.5 -461.5 L 1033.66666667 -457.0 L 1025.0 -453.0 L 1004.33333333 -449.0 L 983.833333333 -447.333333333 L 963.5 -448.0 L 943.166666667 -448.666666667 L 923.666666667 -450.333333333 L 905.0 -453.0 L 887.0 -461.0 L 873.166666667 -480.166666667 L 863.5 -510.5 L 853.833333333 -540.833333333 L 838.666666667 -585.0 L 818.0 -643.0 L 816.0 -646.333333333 L 812.333333333 -651.5 L 807.0 -658.5 L 801.666666667 -665.5 L 795.333333333 -669.666666667 L 788.0 -671.0 L 778.0 -672.333333333 L 772.666666667 -676.833333333 L 772.0 -684.5 L 771.333333333 -692.166666667 L 778.0 -696.333333333 Z M 521.0 -697.0 L 541.0 -697.0 L 562.0 -696.666666667 L 584.0 -696.0 L 606.0 -695.333333333 L 625.666666667 -693.333333333 L 643.0 -690.0 L 655.666666667 -690.0 L 669.0 -668.666666667 L 683.0 -626.0 L 697.0 -583.333333333 L 713.333333333 -541.666666667 L 732.0 -501.0 L 738.0 -487.0 L 744.333333333 -479.0 L 751.0 -477.0 L 756.333333333 -475.0 L 760.5 -471.5 L 763.5 -466.5 L 766.5 -461.5 L 763.666666667 -457.0 L 755.0 -453.0 L 735.0 -449.0 L 714.5 -447.333333333 L 693.5 -448.0 L 672.5 -448.666666667 L 652.666666667 -450.333333333 L 634.0 -453.0 L 616.666666667 -461.0 L 603.0 -480.166666667 L 593.0 -510.5 L 583.0 -540.833333333 L 567.666666667 -585.0 L 547.0 -643.0 L 545.0 -646.333333333 L 541.333333333 -651.5 L 536.0 -658.5 L 530.666666667 -665.5 L 524.666666667 -669.666666667 L 518.0 -671.0 L 508.666666667 -672.333333333 L 503.333333333 -676.833333333 L 502.0 -684.5 L 500.666666667 -692.166666667 L 507.0 -696.333333333 Z M 85.0 -384.0 L 88.3333333333 -389.333333333 L 92.1666666667 -392.166666667 L 96.5 -392.5 L 100.833333333 -392.833333333 L 105.333333333 -391.666666667 L 110.0 -389.0 L 114.666666667 -386.333333333 L 120.666666667 -383.166666667 L 128.0 -379.5 L 135.333333333 -375.833333333 L 144.666666667 -372.833333333 L 156.0 -370.5 L 167.333333333 -368.166666667 L 183.333333333 -367.0 L 204.0 -367.0 L 1208.0 -367.0 L 1226.66666667 -367.0 L 1243.66666667 -365.5 L 1259.0 -362.5 L 1274.33333333 -359.5 L 1288.33333333 -354.666666667 L 1301.0 -348.0 L 1313.66666667 -341.333333333 L 1323.5 -335.333333333 L 1330.5 -330.0 L 1337.5 -324.666666667 L 1347.16666667 -315.5 L 1359.5 -302.5 L 1371.83333333 -289.5 L 1382.33333333 -277.0 L 1391.0 -265.0 L 1399.66666667 -253.0 L 1401.33333333 -241.333333333 L 1396.0 -230.0 L 1390.66666667 -222.0 L 1384.66666667 -220.333333333 L 1378.0 -225.0 L 1371.33333333 -229.666666667 L 1363.16666667 -233.666666667 L 1353.5 -237.0 L 1343.83333333 -240.333333333 L 1333.5 -242.666666667 L 1322.5 -244.0 L 1311.5 -245.333333333 L 1294.33333333 -246.0 L 1271.0 -246.0 L 282.0 -246.0 L 266.666666667 -246.0 L 252.666666667 -247.0 L 240.0 -249.0 L 227.333333333 -251.0 L 217.5 -253.166666667 L 210.5 -255.5 L 203.5 -257.833333333 L 196.0 -261.0 L 188.0 -265.0 L 180.0 -269.0 L 171.5 -273.833333333 L 162.5 -279.5 L 153.5 -285.166666667 L 144.0 -293.166666667 L 134.0 -303.5 L 124.0 -313.833333333 L 113.833333333 -325.833333333 L 103.5 -339.5 L 93.1666666667 -353.166666667 L 86.6666666667 -362.666666667 L 84.0 -368.0 L 81.3333333333 -373.333333333 L 81.6666666667 -378.666666667 Z" fill="black" fill-opacity="0.25" stroke="black" stroke-width="4.0"/>
  <rect x="771.0" y="-697.0" width="265.0" height="249.99999999999994" fill="none" stroke="red" stroke-width="10.0" /><rect x="501.0" y="-697.0" width="265.0" height="249.99999999999994" fill="none" stroke="red" stroke-width="10.0" /><rect x="81.0" y="-393.0" width="1320.0" height="173.00000000000003" fill="none" stroke="red" stroke-width="10.0" />
</svg>
