<svg xmlns="http://www.w3.org/2000/svg"
  viewBox="32.222 -1213 1436.755 1040.579">
  <rect x="32.222" y="-1213" width="1436.755" height="1040.579" fill="white"/>
  <path d="M 924 -711 L 944 -711 L 965 -710.667 L 987 -710 L 1009 -709.333 L 1028.667 -707.333 L 1046 -704 L 1058.667 -704 L 1071.833 -682.833 L 1085.5 -640.5 L 1099.167 -598.167 L 1115.667 -556.333 L 1135 -515 L 1141 -501 L 1147.333 -493.333 L 1154 -492 L 1159.333 -490 L 1163.5 -486.5 L 1166.5 -481.5 L 1169.5 -476.5 L 1166.667 -472.333 L 1158 -469 L 1138 -465 L 1117.5 -463.167 L 1096.5 -463.5 L 1075.5 -463.833 L 1055.667 -465.667 L 1037 -469 L 1019.667 -477 L 1006 -496 L 996 -526 L 986 -556 L 970.667 -600 L 950 -658 L 948.667 -661.333 L 945.167 -666.333 L 939.5 -673 L 933.833 -679.667 L 927.333 -684 L 920 -686 L 910.667 -688 L 905.5 -692.667 L 904.5 -700 L 903.5 -707.333 L 910 -711 Z M 654 -711 L 674 -711 L 695 -710.667 L 717 -710 L 739 -709.333 L 758.667 -707.333 L 776 -704 L 788.667 -704 L 801.833 -682.833 L 815.5 -640.5 L 829.167 -598.167 L 845.667 -556.333 L 865 -515 L 871.667 -501 L 878 -493.333 L 884 -492 L 889.333 -490 L 893.333 -486.5 L 896 -481.5 L 898.667 -476.5 L 896 -472.333 L 888 -469 L 867.333 -465 L 846.667 -463.167 L 826 -463.5 L 805.333 -463.833 L 785.667 -465.667 L 767 -469 L 749 -477 L 735.167 -496 L 725.5 -526 L 715.833 -556 L 700.667 -600 L 680 -658 L 678 -661.333 L 674.333 -666.333 L 669 -673 L 663.667 -679.667 L 657.333 -684 L 650 -686 L 640 -688 L 634.667 -692.667 L 634 -700 L 633.333 -707.333 L 640 -711 Z M 85 -384 L 88.333 -389.333 L 92.167 -392.167 L 96.5 -392.5 L 100.833 -392.833 L 105.333 -391.667 L 110 -389 L 114.667 -386.333 L 120.667 -383.167 L 128 -379.5 L 135.333 -375.833 L 144.667 -372.833 L 156 -370.5 L 167.333 -368.167 L 183.333 -367 L 204 -367 L 1228 -367 L 1246.667 -367 L 1263.667 -365.5 L 1279 -362.5 L 1294.333 -359.5 L 1308.333 -354.667 L 1321 -348 L 1333.667 -341.333 L 1343.5 -335.333 L 1350.5 -330 L 1357.5 -324.667 L 1367 -315.5 L 1379 -302.5 L 1391 -289.5 L 1401.5 -277 L 1410.5 -265 L 1419.5 -253 L 1421.333 -241.333 L 1416 -230 L 1410.667 -222 L 1404.5 -220.333 L 1397.5 -225 L 1390.5 -229.667 L 1382.333 -233.667 L 1373 -237 L 1363.667 -240.333 L 1353.5 -242.667 L 1342.5 -244 L 1331.5 -245.333 L 1314.333 -246 L 1291 -246 L 282 -246 L 266.667 -246 L 252.667 -247 L 240 -249 L 227.333 -251 L 217.5 -253.167 L 210.5 -255.5 L 203.5 -257.833 L 196 -261 L 188 -265 L 180 -269 L 171.5 -273.833 L 162.5 -279.5 L 153.5 -285.167 L 144 -293.167 L 134 -303.5 L 124 -313.833 L 113.833 -325.833 L 103.5 -339.5 L 93.167 -353.167 L 86.667 -362.667 L 84 -368 L 81.333 -373.333 L 81.667 -378.667 Z M 646 -1163 L 656.667 -1161 L 661.333 -1155.5 L 660 -1146.5 L 658.667 -1137.5 L 652 -1132.667 L 640 -1132 L 626 -1127.333 L 614.667 -1109.667 L 606 -1079 L 597.333 -1048.333 L 588.333 -1016 L 579 -982 L 556.333 -902.667 L 535.667 -838.333 L 517 -789 L 498.333 -739.667 L 480.5 -705.167 L 463.5 -685.5 L 446.5 -665.833 L 426.333 -650.667 L 403 -640 L 367 -624.667 L 331.5 -613.333 L 296.5 -606 L 261.5 -598.667 L 231.333 -595 L 206 -595 L 218.667 -565 L 239.833 -544 L 269.5 -532 L 299.167 -520 L 307.667 -507.333 L 295 -494 L 287.667 -486.667 L 264.667 -496.333 L 226 -523 L 187.333 -549.667 L 160.667 -576 L 146 -602 L 146 -618.667 L 152.833 -625.667 L 166.5 -623 L 180.167 -620.333 L 194.667 -618.333 L 210 -617 L 225.333 -616.333 L 241.333 -617.333 L 258 -620 L 274.667 -622.667 L 296.667 -631 L 324 -645 L 337.333 -651.667 L 349.833 -666.833 L 361.5 -690.5 L 373.167 -714.167 L 383.833 -740.333 L 393.5 -769 L 403.167 -797.667 L 411.333 -826.167 L 418 -854.5 L 424.667 -882.833 L 433.5 -923.667 L 444.5 -977 L 455.5 -1030.333 L 464.833 -1066 L 472.5 -1084 L 480.167 -1102 L 491.167 -1116.667 L 505.5 -1128 L 519.833 -1139.333 L 533.5 -1146.667 L 546.5 -1150 L 559.5 -1153.333 L 574 -1155.667 L 590 -1157 L 606 -1158.333 L 624.667 -1160.333 Z" fill="black" fill-opacity="0.25" stroke="black" stroke-width="4"/>
  <rect x="903" y="-711" width="266" height="248" fill="none" stroke="red" stroke-width="10" /><rect x="633" y="-711" width="266" height="248" fill="none" stroke="red" stroke-width="10" /><rect x="81" y="-393" width="1340" height="173" fill="none" stroke="red" stroke-width="10" /><rect x="146" y="-715.4" width="339.8" height="223.8" fill="none" stroke="red" stroke-width="10" /><rect x="373.7" y="-939.2" width="193.1" height="223.8" fill="none" stroke="red" stroke-width="10" /><rect x="436.7" y="-1163" width="224.6" height="223.8" fill="none" stroke="red" stroke-width="10" />
</svg>
