<svg xmlns="http://www.w3.org/2000/svg"
  viewBox="119.475 -985.909 1822.975 813.488">
  <rect x="119.475" y="-985.909" width="1822.975" height="813.488" fill="white"/>
  <path d="M 1609 -530 L 1618 -492 L 1618 -489.333 L 1621.5 -482.833 L 1628.5 -472.5 L 1635.5 -462.167 L 1639 -455.667 L 1639 -453 L 1639 -450.333 L 1633.5 -448 L 1622.5 -446 L 1611.5 -444 L 1604 -443 L 1600 -443 L 1539 -443 L 1531 -443 L 1523.5 -448.667 L 1516.5 -460 L 1509.5 -471.333 L 1505 -482 L 1503 -492 L 1495 -531 L 1417 -531 L 1345.333 -534 L 1280 -540 L 1214.667 -546 L 1168.333 -551.333 L 1141 -556 L 1090.333 -564 L 1048.5 -578 L 1015.5 -598 L 982.5 -618 L 960.667 -640.667 L 950 -666 L 944.667 -678.667 L 935 -697.5 L 921 -722.5 L 907 -747.5 L 892.333 -772.667 L 877 -798 L 861.667 -823.333 L 847.167 -846 L 833.5 -866 L 819.833 -886 L 810.333 -897.333 L 805 -900 L 777.667 -909.333 L 771.667 -919.333 L 787 -930 L 820.333 -932.667 L 852.333 -934.5 L 883 -935.5 L 913.667 -936.5 L 945 -935.667 L 977 -933 L 1009 -931 L 1031.833 -912.667 L 1045.5 -878 L 1059.167 -843.333 L 1073 -798 L 1087 -742 L 1101 -686 L 1118.167 -647.833 L 1138.5 -627.5 L 1158.833 -607.167 L 1194 -590.333 L 1244 -577 L 1272 -569 L 1306 -564 L 1346 -562 L 1386 -560 L 1434.333 -559.333 L 1491 -560 L 1479 -629 L 1478.333 -632.333 L 1475 -636.833 L 1469 -642.5 L 1463 -648.167 L 1460 -652.333 L 1460 -655 L 1460 -659 L 1465.333 -661.667 L 1476 -663 L 1486.667 -664.333 L 1494.333 -665 L 1499 -665 L 1560 -665 L 1567.333 -665 L 1574.5 -659.833 L 1581.5 -649.5 L 1588.5 -639.167 L 1593.333 -628 L 1596 -616 L 1606 -561 L 1650.667 -561.667 L 1681 -563.167 L 1697 -565.5 L 1713 -567.833 L 1730.667 -570.333 L 1750 -573 L 1757.333 -572.333 L 1761.667 -569 L 1763 -563 L 1764.333 -557 L 1762.667 -551.667 L 1758 -547 L 1751.333 -541.667 L 1737.667 -537.5 L 1717 -534.5 L 1696.333 -531.5 L 1660.333 -530 Z M 476 -761 L 496 -761 L 517 -760.667 L 539 -760 L 561 -759.333 L 580.667 -757.333 L 598 -754 L 610.667 -754 L 625 -737 L 641 -703 L 657 -669 L 674.667 -631.667 L 694 -591 L 700 -577 L 706.333 -569 L 713 -567 L 718.333 -565 L 722.333 -561.5 L 725 -556.5 L 727.667 -551.5 L 725 -547 L 717 -543 L 696.333 -539 L 675.667 -537.333 L 655 -538 L 634.333 -538.667 L 614.333 -540.333 L 595 -543 L 577.667 -551 L 563 -566 L 551 -588 L 539 -610 L 523 -649.667 L 503 -707 L 501 -710.333 L 497.167 -715.5 L 491.5 -722.5 L 485.833 -729.5 L 479.667 -733.667 L 473 -735 L 463.667 -736.333 L 458.333 -741 L 457 -749 L 455.667 -757 L 462 -761 Z M 206 -761 L 226 -761 L 247 -760.667 L 269 -760 L 291 -759.333 L 310.667 -757.333 L 328 -754 L 340.667 -754 L 355 -737 L 371 -703 L 387 -669 L 404.667 -631.667 L 424 -591 L 429.333 -577 L 435.667 -569 L 443 -567 L 447.667 -565 L 451.5 -561.5 L 454.5 -556.5 L 457.5 -551.5 L 454.667 -547 L 446 -543 L 426 -539 L 405.5 -537.333 L 384.5 -538 L 363.5 -538.667 L 343.667 -540.333 L 325 -543 L 307.667 -551 L 293 -566 L 281 -588 L 269 -610 L 252.667 -649.667 L 232 -707 L 230 -710.333 L 226.333 -715.5 L 221 -722.5 L 215.667 -729.5 L 209.333 -733.667 L 202 -735 L 192.667 -736.333 L 187.5 -741 L 186.5 -749 L 185.5 -757 L 192 -761 Z M 172.5 -384 L 176.167 -389.333 L 180 -392.167 L 184 -392.5 L 188 -392.833 L 192.5 -391.667 L 197.5 -389 L 202.5 -386.333 L 208.667 -383.167 L 216 -379.5 L 223.333 -375.833 L 232.667 -372.833 L 244 -370.5 L 255.333 -368.167 L 271.333 -367 L 292 -367 L 1701 -367 L 1719.667 -367 L 1736.667 -365.5 L 1752 -362.5 L 1767.333 -359.5 L 1781.333 -354.667 L 1794 -348 L 1806.667 -341.333 L 1816.5 -335.333 L 1823.5 -330 L 1830.5 -324.667 L 1840.167 -315.5 L 1852.5 -302.5 L 1864.833 -289.5 L 1875.333 -277 L 1884 -265 L 1892.667 -253 L 1894.667 -241.333 L 1890 -230 L 1884.667 -222 L 1878.5 -220.333 L 1871.5 -225 L 1864.5 -229.667 L 1856.333 -233.667 L 1847 -237 L 1837.667 -240.333 L 1827.333 -242.667 L 1816 -244 L 1804.667 -245.333 L 1787.667 -246 L 1765 -246 L 370 -246 L 354.667 -246 L 340.667 -247 L 328 -249 L 315.333 -251 L 305.5 -253.167 L 298.5 -255.5 L 291.5 -257.833 L 284 -261 L 276 -265 L 268 -269 L 259.5 -273.833 L 250.5 -279.5 L 241.5 -285.167 L 232 -293.167 L 222 -303.5 L 212 -313.833 L 201.833 -325.833 L 191.5 -339.5 L 181.167 -353.167 L 174.5 -362.667 L 171.5 -368 L 168.5 -373.333 L 168.833 -378.667 Z" fill="black" fill-opacity="0.25" stroke="black" stroke-width="4"/>
  <rect x="772" y="-936" width="992" height="493" fill="none" stroke="red" stroke-width="10" /><rect x="456" y="-761" width="272" height="224" fill="none" stroke="red" stroke-width="10" /><rect x="185" y="-761" width="273" height="224" fill="none" stroke="red" stroke-width="10" /><rect x="169" y="-393" width="1726" height="173" fill="none" stroke="red" stroke-width="10" />
</svg>
