<svg xmlns="http://www.w3.org/2000/svg"
  viewBox="111.4 -903.522 1909.577 731.101">
  <rect x="111.4" y="-903.522" width="1909.577" height="731.101" fill="white"/>
  <path d="M 451 -717 L 471 -717 L 492 -716.667 L 514 -716 L 536 -715.333 L 555.667 -713.333 L 573 -710 L 585.667 -710 L 600 -693 L 616 -659 L 632 -625 L 649.667 -587.667 L 669 -547 L 675 -533 L 681.333 -525 L 688 -523 L 692.667 -521 L 696.5 -517.5 L 699.5 -512.5 L 702.5 -507.5 L 699.667 -503 L 691 -499 L 671 -495 L 650.5 -493.333 L 629.5 -494 L 608.5 -494.667 L 588.667 -496.333 L 570 -499 L 552.667 -507 L 538 -522 L 526 -544 L 514 -566 L 497.667 -605.667 L 477 -663 L 475.667 -666.333 L 472.167 -671.5 L 466.5 -678.5 L 460.833 -685.5 L 454.667 -689.667 L 448 -691 L 438.667 -692.333 L 433.333 -697 L 432 -705 L 430.667 -713 L 437 -717 Z M 181 -717 L 201 -717 L 222 -716.667 L 244 -716 L 266 -715.333 L 285.667 -713.333 L 303 -710 L 315.667 -710 L 330 -693 L 346 -659 L 362 -625 L 379.333 -587.667 L 398 -547 L 404 -533 L 410.333 -525 L 417 -523 L 422.333 -521 L 426.5 -517.5 L 429.5 -512.5 L 432.5 -507.5 L 429.667 -503 L 421 -499 L 400.333 -495 L 379.667 -493.333 L 359 -494 L 338.333 -494.667 L 318.667 -496.333 L 300 -499 L 282 -507 L 267.167 -522 L 255.5 -544 L 243.833 -566 L 227.667 -605.667 L 207 -663 L 205 -666.333 L 201.333 -671.5 L 196 -678.5 L 190.667 -685.5 L 184.333 -689.667 L 177 -691 L 167.667 -692.333 L 162.5 -697 L 161.5 -705 L 160.5 -713 L 167 -717 Z M 172.5 -384 L 176.167 -389.333 L 180 -392.167 L 184 -392.5 L 188 -392.833 L 192.5 -391.667 L 197.5 -389 L 202.5 -386.333 L 208.667 -383.167 L 216 -379.5 L 223.333 -375.833 L 232.667 -372.833 L 244 -370.5 L 255.333 -368.167 L 271.333 -367 L 292 -367 L 1779 -367 L 1797.667 -367 L 1814.833 -365.5 L 1830.5 -362.5 L 1846.167 -359.5 L 1860.333 -354.667 L 1873 -348 L 1885.667 -341.333 L 1895.5 -335.333 L 1902.5 -330 L 1909.5 -324.667 L 1919 -315.5 L 1931 -302.5 L 1943 -289.5 L 1953.5 -277 L 1962.5 -265 L 1971.5 -253 L 1973.333 -241.333 L 1968 -230 L 1962.667 -222 L 1956.5 -220.333 L 1949.5 -225 L 1942.5 -229.667 L 1934.333 -233.667 L 1925 -237 L 1915.667 -240.333 L 1905.333 -242.667 L 1894 -244 L 1882.667 -245.333 L 1865.667 -246 L 1843 -246 L 370 -246 L 354.667 -246 L 340.667 -247 L 328 -249 L 315.333 -251 L 305.5 -253.167 L 298.5 -255.5 L 291.5 -257.833 L 284 -261 L 276 -265 L 268 -269 L 259.5 -273.833 L 250.5 -279.5 L 241.5 -285.167 L 232 -293.167 L 222 -303.5 L 212 -313.833 L 201.833 -325.833 L 191.5 -339.5 L 181.167 -353.167 L 174.5 -362.667 L 171.5 -368 L 168.5 -373.333 L 168.833 -378.667 Z M 1076 -489 L 1050.667 -479.667 L 1008 -480 L 948 -490 L 912.667 -498.667 L 881.333 -510.333 L 854 -525 L 826.667 -539.667 L 805.667 -565.333 L 791 -602 L 781 -637.333 L 777.667 -665.667 L 781 -687 L 784.333 -708.333 L 796.333 -732.667 L 817 -760 L 836.333 -783.333 L 858.833 -801 L 884.5 -813 L 910.167 -825 L 941.667 -835 L 979 -843 L 1016.333 -850.333 L 1046.667 -853.833 L 1070 -853.5 L 1093.333 -853.167 L 1118.333 -852.333 L 1145 -851 L 1171.667 -849.667 L 1196.5 -847.5 L 1219.5 -844.5 L 1242.5 -841.5 L 1270.333 -835 L 1303 -825 L 1357 -810.333 L 1410.333 -790 L 1463 -764 L 1492.333 -749.333 L 1523.667 -733.5 L 1557 -716.5 L 1590.333 -699.5 L 1627.333 -679.667 L 1668 -657 L 1686.667 -645.667 L 1707 -633.5 L 1729 -620.5 L 1751 -607.5 L 1775 -594.333 L 1801 -581 L 1820.333 -569 L 1839.333 -556.833 L 1858 -544.5 L 1876.667 -532.167 L 1884.5 -519.833 L 1881.5 -507.5 L 1878.5 -495.167 L 1871.333 -489.333 L 1860 -490 L 1848.667 -490.667 L 1813 -490.333 L 1753 -489 L 1693 -487.667 L 1640.667 -487.667 L 1596 -489 L 1578 -502.333 L 1578.167 -511.833 L 1596.5 -517.5 L 1614.833 -523.167 L 1628.333 -530.333 L 1637 -539 L 1653.667 -556.333 L 1661.167 -570 L 1659.5 -580 L 1657.833 -590 L 1655.167 -597.833 L 1651.5 -603.5 L 1647.833 -609.167 L 1642.333 -615.333 L 1635 -622 L 1627.667 -628.667 L 1609.5 -641.833 L 1580.5 -661.5 L 1551.5 -681.167 L 1515.333 -702 L 1472 -724 L 1433.333 -740.667 L 1403 -754.5 L 1381 -765.5 L 1359 -776.5 L 1323.333 -788.667 L 1274 -802 L 1237.333 -809.333 L 1200 -813.667 L 1162 -815 L 1124 -816.333 L 1085.667 -810.667 L 1047 -798 L 1019.667 -786 L 1000.333 -775.833 L 989 -767.5 L 977.667 -759.167 L 965 -744.333 L 951 -723 L 939 -703 L 932.167 -686.167 L 930.5 -672.5 L 928.833 -658.833 L 928.667 -642.667 L 930 -624 L 930.667 -605.333 L 932.833 -592 L 936.5 -584 L 940.167 -576 L 945 -567.667 L 951 -559 L 957 -550.333 L 964.5 -542.5 L 973.5 -535.5 L 982.5 -528.5 L 996.167 -523.5 L 1014.5 -520.5 L 1032.833 -517.5 L 1051.333 -515 L 1070 -513 L 1078 -511.667 L 1083 -508.5 L 1085 -503.5 L 1087 -498.5 L 1084 -493.667 Z" fill="black" fill-opacity="0.25" stroke="black" stroke-width="4"/>
  <rect x="431" y="-717" width="272" height="224" fill="none" stroke="red" stroke-width="10" /><rect x="161" y="-717" width="271" height="224" fill="none" stroke="red" stroke-width="10" /><rect x="169" y="-393" width="1804" height="173" fill="none" stroke="red" stroke-width="10" /><rect x="778" y="-854" width="1107" height="374" fill="none" stroke="red" stroke-width="10" />
</svg>
