<svg xmlns="http://www.w3.org/2000/svg"
  viewBox="111.4 -903.5216985344719 1909.5767441845794 731.1006459032918">
  <rect x="111.4" y="-903.5216985344719" width="1909.5767441845794" height="731.1006459032918" fill="white"/>
  <path d="M 451.0 -717.0 L 471.0 -717.0 L 492.0 -716.666992188 L 514.0 -716.0 L 536.0 -715.333007812 L 555.666992188 -713.333007812 L 573.0 -710.0 L 585.666992188 -710.0 L 600.0 -693.0 L 616.0 -659.0 L 632.0 -625.0 L 649.666992188 -587.666992188 L 669.0 -547.0 L 675.0 -533.0 L 681.333007812 -525.0 L 688.0 -523.0 L 692.666992188 -521.0 L 696.5 -517.5 L 699.5 -512.5 L 702.5 -507.5 L 699.666992188 -503.0 L 691.0 -499.0 L 671.0 -495.0 L 650.5 -493.333007812 L 629.5 -494.0 L 608.5 -494.666992188 L 588.666992188 -496.333007812 L 570.0 -499.0 L 552.666992188 -507.0 L 538.0 -522.0 L 526.0 -544.0 L 514.0 -566.0 L 497.666992188 -605.666992188 L 477.0 -663.0 L 475.666992188 -666.333007812 L 472.166992188 -671.5 L 466.5 -678.5 L 460.833007812 -685.5 L 454.666992188 -689.666992188 L 448.0 -691.0 L 438.666992188 -692.333007812 L 433.333007812 -697.0 L 432.0 -705.0 L 430.666992188 -713.0 L 437.0 -717.0 Z M 181.0 -717.0 L 201.0 -717.0 L 222.0 -716.666992188 L 244.0 -716.0 L 266.0 -715.333007812 L 285.666992188 -713.333007812 L 303.0 -710.0 L 315.666992188 -710.0 L 330.0 -693.0 L 346.0 -659.0 L 362.0 -625.0 L 379.333007812 -587.666992188 L 398.0 -547.0 L 404.0 -533.0 L 410.333007812 -525.0 L 417.0 -523.0 L 422.333007812 -521.0 L 426.5 -517.5 L 429.5 -512.5 L 432.5 -507.5 L 429.666992188 -503.0 L 421.0 -499.0 L 400.333007812 -495.0 L 379.666992188 -493.333007812 L 359.0 -494.0 L 338.333007812 -494.666992188 L 318.666992188 -496.333007812 L 300.0 -499.0 L 282.0 -507.0 L 267.166992188 -522.0 L 255.5 -544.0 L 243.833007812 -566.0 L 227.666992188 -605.666992188 L 207.0 -663.0 L 205.0 -666.333007812 L 201.333007812 -671.5 L 196.0 -678.5 L 190.666992188 -685.5 L 184.333007812 -689.666992188 L 177.0 -691.0 L 167.666992188 -692.333007812 L 162.5 -697.0 L 161.5 -705.0 L 160.5 -713.0 L 167.0 -717.0 Z M 172.5 -384.0 L 176.166666667 -389.333333333 L 180.0 -392.166666667 L 184.0 -392.5 L 188.0 -392.833333333 L 192.5 -391.666666667 L 197.5 -389.0 L 202.5 -386.333333333 L 208.666666667 -383.166666667 L 216.0 -379.5 L 223.333333333 -375.833333333 L 232.666666667 -372.833333333 L 244.0 -370.5 L 255.333333333 -368.166666667 L 271.333333333 -367.0 L 292.0 -367.0 L 1779.0 -367.0 L 1797.66666667 -367.0 L 1814.83333333 -365.5 L 1830.5 -362.5 L 1846.16666667 -359.5 L 1860.33333333 -354.666666667 L 1873.0 -348.0 L 1885.66666667 -341.333333333 L 1895.5 -335.333333333 L 1902.5 -330.0 L 1909.5 -324.666666667 L 1919.0 -315.5 L 1931.0 -302.5 L 1943.0 -289.5 L 1953.5 -277.0 L 1962.5 -265.0 L 1971.5 -253.0 L 1973.33333333 -241.333333333 L 1968.0 -230.0 L 1962.66666667 -222.0 L 1956.5 -220.333333333 L 1949.5 -225.0 L 1942.5 -229.666666667 L 1934.33333333 -233.666666667 L 1925.0 -237.0 L 1915.66666667 -240.333333333 L 1905.33333333 -242.666666667 L 1894.0 -244.0 L 1882.66666667 -245.333333333 L 1865.66666667 -246.0 L 1843.0 -246.0 L 370.0 -246.0 L 354.666666667 -246.0 L 340.666666667 -247.0 L 328.0 -249.0 L 315.333333333 -251.0 L 305.5 -253.166666667 L 298.5 -255.5 L 291.5 -257.833333333 L 284.0 -261.0 L 276.0 -265.0 L 268.0 -269.0 L 259.5 -273.833333333 L 250.5 -279.5 L 241.5 -285.166666667 L 232.0 -293.166666667 L 222.0 -303.5 L 212.0 -313.833333333 L 201.833333333 -325.833333333 L 191.5 -339.5 L 181.166666667 -353.166666667 L 174.5 -362.666666667 L 171.5 -368.0 L 168.5 -373.333333333 L 168.833333333 -378.666666667 Z M 1076.0 -489.0 L 1050.66699219 -479.666992188 L 1008.0 -480.0 L 948.0 -490.0 L 912.666992188 -498.666992188 L 881.333007812 -510.333007812 L 854.0 -525.0 L 826.666992188 -539.666992188 L 805.666992188 -565.333007812 L 791.0 -602.0 L 781.0 -637.333007812 L 777.666992188 -665.666992188 L 781.0 -687.0 L 784.333007812 -708.333007812 L 796.333007812 -732.666992188 L 817.0 -760.0 L 836.333007812 -783.333007812 L 858.833007812 -801.0 L 884.5 -813.0 L 910.166992188 -825.0 L 941.666992188 -835.0 L 979.0 -843.0 L 1016.33300781 -850.333007812 L 1046.66699219 -853.833007812 L 1070.0 -853.5 L 1093.33300781 -853.166992188 L 1118.33300781 -852.333007812 L 1145.0 -851.0 L 1171.66699219 -849.666992188 L 1196.5 -847.5 L 1219.5 -844.5 L 1242.5 -841.5 L 1270.33300781 -835.0 L 1303.0 -825.0 L 1357.0 -810.333007812 L 1410.33300781 -790.0 L 1463.0 -764.0 L 1492.33300781 -749.333007812 L 1523.66699219 -733.5 L 1557.0 -716.5 L 1590.33300781 -699.5 L 1627.33300781 -679.666992188 L 1668.0 -657.0 L 1686.66699219 -645.666992188 L 1707.0 -633.5 L 1729.0 -620.5 L 1751.0 -607.5 L 1775.0 -594.333007812 L 1801.0 -581.0 L 1820.33300781 -569.0 L 1839.33300781 -556.833007812 L 1858.0 -544.5 L 1876.66699219 -532.166992188 L 1884.5 -519.833007812 L 1881.5 -507.5 L 1878.5 -495.166992188 L 1871.33300781 -489.333007812 L 1860.0 -490.0 L 1848.66699219 -490.666992188 L 1813.0 -490.333007812 L 1753.0 -489.0 L 1693.0 -487.666992188 L 1640.66699219 -487.666992188 L 1596.0 -489.0 L 1578.0 -502.333007812 L 1578.16699219 -511.833007812 L 1596.5 -517.5 L 1614.83300781 -523.166992188 L 1628.33300781 -530.333007812 L 1637.0 -539.0 L 1653.66699219 -556.333007812 L 1661.16699219 -570.0 L 1659.5 -580.0 L 1657.83300781 -590.0 L 1655.16699219 -597.833007812 L 1651.5 -603.5 L 1647.83300781 -609.166992188 L 1642.33300781 -615.333007812 L 1635.0 -622.0 L 1627.66699219 -628.666992188 L 1609.5 -641.833007812 L 1580.5 -661.5 L 1551.5 -681.166992188 L 1515.33300781 -702.0 L 1472.0 -724.0 L 1433.33300781 -740.666992188 L 1403.0 -754.5 L 1381.0 -765.5 L 1359.0 -776.5 L 1323.33300781 -788.666992188 L 1274.0 -802.0 L 1237.33300781 -809.333007812 L 1200.0 -813.666992188 L 1162.0 -815.0 L 1124.0 -816.333007812 L 1085.66699219 -810.666992188 L 1047.0 -798.0 L 1019.66699219 -786.0 L 1000.33300781 -775.833007812 L 989.0 -767.5 L 977.666992188 -759.166992188 L 965.0 -744.333007812 L 951.0 -723.0 L 939.0 -703.0 L 932.166992188 -686.166992188 L 930.5 -672.5 L 928.833007812 -658.833007812 L 928.666992188 -642.666992188 L 930.0 -624.0 L 930.666992188 -605.333007812 L 932.833007812 -592.0 L 936.5 -584.0 L 940.166992188 -576.0 L 945.0 -567.666992188 L 951.0 -559.0 L 957.0 -550.333007812 L 964.5 -542.5 L 973.5 -535.5 L 982.5 -528.5 L 996.166992188 -523.5 L 1014.5 -520.5 L 1032.83300781 -517.5 L 1051.33300781 -515.0 L 1070.0 -513.0 L 1078.0 -511.666992188 L 1083.0 -508.5 L 1085.0 -503.5 L 1087.0 -498.5 L 1084.0 -493.666992188 Z" fill="black" fill-opacity="0.25" stroke="black" stroke-width="4.0"/>
  <rect x="431.0" y="-717.0" width="271.99999999999994" height="223.99999999999997" fill="none" stroke="red" stroke-width="10.0" /><rect x="161.0" y="-717.0" width="271.0" height="223.99999999999997" fill="none" stroke="red" stroke-width="10.0" /><rect x="169.0" y="-393.0" width="1804.0" height="173.00000000000003" fill="none" stroke="red" stroke-width="10.0" /><rect x="778.0" y="-854.0" width="1107.0" height="374.0" fill="none" stroke="red" stroke-width="10.0" />
</svg>
