<svg xmlns="http://www.w3.org/2000/svg"
  viewBox="32.222 -916.522 1436.755 744.101">
  <rect x="32.222" y="-916.522" width="1436.755" height="744.101" fill="white"/>
  <path d="M 85 -384 L 88.333 -389.333 L 92.167 -392.167 L 96.5 -392.5 L 100.833 -392.833 L 105.333 -391.667 L 110 -389 L 114.667 -386.333 L 120.667 -383.167 L 128 -379.5 L 135.333 -375.833 L 144.667 -372.833 L 156 -370.5 L 167.333 -368.167 L 183.333 -367 L 204 -367 L 1228 -367 L 1246.667 -367 L 1263.667 -365.5 L 1279 -362.5 L 1294.333 -359.5 L 1308.333 -354.667 L 1321 -348 L 1333.667 -341.333 L 1343.5 -335.333 L 1350.5 -330 L 1357.5 -324.667 L 1367 -315.5 L 1379 -302.5 L 1391 -289.5 L 1401.5 -277 L 1410.5 -265 L 1419.5 -253 L 1421.333 -241.333 L 1416 -230 L 1410.667 -222 L 1404.5 -220.333 L 1397.5 -225 L 1390.5 -229.667 L 1382.333 -233.667 L 1373 -237 L 1363.667 -240.333 L 1353.5 -242.667 L 1342.5 -244 L 1331.5 -245.333 L 1314.333 -246 L 1291 -246 L 282 -246 L 266.667 -246 L 252.667 -247 L 240 -249 L 227.333 -251 L 217.5 -253.167 L 210.5 -255.5 L 203.5 -257.833 L 196 -261 L 188 -265 L 180 -269 L 171.5 -273.833 L 162.5 -279.5 L 153.5 -285.167 L 144 -293.167 L 134 -303.5 L 124 -313.833 L 113.833 -325.833 L 103.5 -339.5 L 93.167 -353.167 L 86.667 -362.667 L 84 -368 L 81.333 -373.333 L 81.667 -378.667 Z M 433 -502 L 407.667 -492.667 L 365 -493 L 305 -503 L 269.667 -511.667 L 238.333 -523.333 L 211 -538 L 183.667 -552.667 L 162.667 -578.667 L 148 -616 L 138 -651.333 L 134.833 -679.5 L 138.5 -700.5 L 142.167 -721.5 L 154 -745.667 L 174 -773 L 193.333 -796.333 L 215.833 -814 L 241.5 -826 L 267.167 -838 L 298.667 -848 L 336 -856 L 373.333 -863.333 L 403.667 -866.833 L 427 -866.5 L 450.333 -866.167 L 475.333 -865.667 L 502 -865 L 528.667 -863.667 L 553.5 -861.333 L 576.5 -858 L 599.5 -854.667 L 627.333 -848 L 660 -838 L 714 -823.333 L 767.333 -803 L 820 -777 L 849.333 -762.333 L 880.667 -746.5 L 914 -729.5 L 947.333 -712.5 L 984.333 -692.667 L 1025 -670 L 1043.667 -658.667 L 1064 -646.5 L 1086 -633.5 L 1108 -620.5 L 1132 -607.333 L 1158 -594 L 1177.333 -582 L 1196.333 -569.833 L 1215 -557.5 L 1233.667 -545.167 L 1241.5 -532.833 L 1238.5 -520.5 L 1235.5 -508.167 L 1228.333 -502.333 L 1217 -503 L 1205.667 -503.667 L 1170 -503.333 L 1110 -502 L 1050 -500.667 L 997.667 -500.667 L 953 -502 L 935 -515.333 L 935.167 -524.833 L 953.5 -530.5 L 971.833 -536.167 L 985.333 -543.333 L 994 -552 L 1010.667 -569.333 L 1018.167 -583 L 1016.5 -593 L 1014.833 -603 L 1012.167 -610.833 L 1008.5 -616.5 L 1004.833 -622.167 L 999.333 -628.333 L 992 -635 L 984.667 -641.667 L 966.5 -654.833 L 937.5 -674.5 L 908.5 -694.167 L 872.667 -715.333 L 830 -738 L 791.333 -754.667 L 761 -768.333 L 739 -779 L 717 -789.667 L 681 -801.667 L 631 -815 L 594.333 -822.333 L 557 -826.667 L 519 -828 L 481 -829.333 L 442.667 -823.667 L 404 -811 L 376.667 -799 L 357.333 -788.833 L 346 -780.5 L 334.667 -772.167 L 322.333 -757.667 L 309 -737 L 297 -717 L 290 -700 L 288 -686 L 286 -672 L 285.667 -655.667 L 287 -637 L 287.667 -618.333 L 289.833 -605 L 293.5 -597 L 297.167 -589 L 302 -580.667 L 308 -572 L 314 -563.333 L 321.5 -555.5 L 330.5 -548.5 L 339.5 -541.5 L 353.167 -536.5 L 371.5 -533.5 L 389.833 -530.5 L 408.333 -528 L 427 -526 L 435 -524.667 L 440 -521.5 L 442 -516.5 L 444 -511.5 L 441 -506.667 Z M 640 -449 L 634 -453.667 L 633.5 -458.333 L 638.5 -463 L 643.5 -467.667 L 650.333 -470 L 659 -470 L 667.667 -470 L 680.167 -478 L 696.5 -494 L 712.833 -510 L 723.667 -529.667 L 729 -553 L 737.667 -593.667 L 716.333 -627 L 665 -653 L 646.333 -662.333 L 622.333 -670.5 L 593 -677.5 L 563.667 -684.5 L 534.667 -690.833 L 506 -696.5 L 477.333 -702.167 L 452 -706.667 L 430 -710 L 408 -713.333 L 395.333 -716 L 392 -718 L 384.667 -720.667 L 381.833 -724.5 L 383.5 -729.5 L 385.167 -734.5 L 389 -737 L 395 -737 L 398.333 -737 L 410.667 -735.667 L 432 -733 L 453.333 -730.333 L 479 -726.667 L 509 -722 L 539 -717.333 L 570.667 -711 L 604 -703 L 637.333 -695 L 667.667 -686 L 695 -676 L 727 -662.667 L 752.667 -649.667 L 772 -637 L 791.333 -624.333 L 809 -607.333 L 825 -586 L 841 -564 L 847.833 -542.333 L 845.5 -521 L 843.167 -499.667 L 833.667 -483 L 817 -471 L 802.333 -459.667 L 785.5 -452.167 L 766.5 -448.5 L 747.5 -444.833 L 729.333 -443 L 712 -443 L 686 -443 L 686 -443 L 676 -443 L 669.333 -443 L 657.333 -445 Z" fill="black" fill-opacity="0.25" stroke="black" stroke-width="4"/>
  <rect x="81" y="-393" width="1340" height="173" fill="none" stroke="red" stroke-width="10" /><rect x="135" y="-867" width="1107" height="374" fill="none" stroke="red" stroke-width="10" /><rect x="382" y="-737" width="466" height="294" fill="none" stroke="red" stroke-width="10" />
</svg>
