<svg xmlns="http://www.w3.org/2000/svg"
  viewBox="32.222 -889.471 1436.755 717.05">
  <rect x="32.222" y="-889.471" width="1436.755" height="717.05" fill="white"/>
  <path d="M 85 -384 L 88.333 -389.333 L 92.167 -392.167 L 96.5 -392.5 L 100.833 -392.833 L 105.333 -391.667 L 110 -389 L 114.667 -386.333 L 120.667 -383.167 L 128 -379.5 L 135.333 -375.833 L 144.667 -372.833 L 156 -370.5 L 167.333 -368.167 L 183.333 -367 L 204 -367 L 1228 -367 L 1246.667 -367 L 1263.667 -365.5 L 1279 -362.5 L 1294.333 -359.5 L 1308.333 -354.667 L 1321 -348 L 1333.667 -341.333 L 1343.5 -335.333 L 1350.5 -330 L 1357.5 -324.667 L 1367 -315.5 L 1379 -302.5 L 1391 -289.5 L 1401.5 -277 L 1410.5 -265 L 1419.5 -253 L 1421.333 -241.333 L 1416 -230 L 1410.667 -222 L 1404.5 -220.333 L 1397.5 -225 L 1390.5 -229.667 L 1382.333 -233.667 L 1373 -237 L 1363.667 -240.333 L 1353.5 -242.667 L 1342.5 -244 L 1331.5 -245.333 L 1314.333 -246 L 1291 -246 L 282 -246 L 266.667 -246 L 252.667 -247 L 240 -249 L 227.333 -251 L 217.5 -253.167 L 210.5 -255.5 L 203.5 -257.833 L 196 -261 L 188 -265 L 180 -269 L 171.5 -273.833 L 162.5 -279.5 L 153.5 -285.167 L 144 -293.167 L 134 -303.5 L 124 -313.833 L 113.833 -325.833 L 103.5 -339.5 L 93.167 -353.167 L 86.667 -362.667 L 84 -368 L 81.333 -373.333 L 81.667 -378.667 Z M 129 -668 L 107 -714 L 101 -753.333 L 111 -786 L 121 -818.667 L 139.333 -836.333 L 166 -839 L 183.333 -840.333 L 196.5 -838.833 L 205.5 -834.5 L 214.5 -830.167 L 222.333 -825.833 L 229 -821.5 L 235.667 -817.167 L 242.167 -812.5 L 248.5 -807.5 L 254.833 -802.5 L 260.667 -797.167 L 266 -791.5 L 271.333 -785.833 L 275 -781 L 277 -777 L 279 -773 L 280 -769.167 L 280 -765.5 L 280 -761.833 L 278.833 -759.167 L 276.5 -757.5 L 274.167 -755.833 L 267.833 -752.667 L 257.5 -748 L 247.167 -743.333 L 233.833 -735.833 L 217.5 -725.5 L 201.167 -715.167 L 193.333 -698 L 194 -674 L 194 -648.667 L 217.167 -624.833 L 263.5 -602.5 L 309.833 -580.167 L 378.667 -571 L 470 -575 L 1115 -594 L 1134.333 -594 L 1149.833 -592.5 L 1161.5 -589.5 L 1173.167 -586.5 L 1183.667 -582.667 L 1193 -578 L 1202.333 -573.333 L 1210.167 -568.667 L 1216.5 -564 L 1222.833 -559.333 L 1230.333 -552.667 L 1239 -544 L 1247.667 -535.333 L 1257.833 -524 L 1269.5 -510 L 1281.167 -496 L 1288.833 -485.667 L 1292.5 -479 L 1296.167 -472.333 L 1298 -465.833 L 1298 -459.5 L 1298 -453.167 L 1296.167 -449 L 1292.5 -447 L 1288.833 -445 L 1284.833 -444 L 1280.5 -444 L 1276.167 -444 L 1271.667 -445 L 1267 -447 L 1262.333 -449 L 1256.667 -451.167 L 1250 -453.5 L 1243.333 -455.833 L 1235.833 -458.5 L 1227.5 -461.5 L 1219.167 -464.5 L 1211.667 -466.667 L 1205 -468 L 1198.333 -469.333 L 1188.667 -470 L 1176 -470 L 829 -476 L 775 -476 L 718.333 -478.5 L 659 -483.5 L 599.667 -488.5 L 543.667 -495 L 491 -503 L 438.333 -511 L 392 -519.833 L 352 -529.5 L 312 -539.167 L 284.667 -547 L 270 -553 L 244.667 -565 L 222.333 -576.833 L 203 -588.5 L 183.667 -600.167 L 159 -626.667 Z" fill="black" fill-opacity="0.25" stroke="black" stroke-width="4"/>
  <rect x="81" y="-393" width="1340" height="173" fill="none" stroke="red" stroke-width="10" /><rect x="101" y="-840" width="1197" height="396" fill="none" stroke="red" stroke-width="10" />
</svg>
