<svg xmlns="http://www.w3.org/2000/svg"
  viewBox="56.4 -883.47 1861.648 711.049">
  <rect x="56.4" y="-883.47" width="1861.648" height="711.049" fill="white"/>
  <path d="M 126 -712 L 146 -712 L 167 -711.667 L 189 -711 L 211 -710.333 L 230.667 -708.333 L 248 -705 L 260.667 -705 L 275 -688 L 291 -654 L 307 -620 L 324.667 -582.667 L 344 -542 L 349.333 -528 L 355.667 -520 L 363 -518 L 367.667 -516 L 371.5 -512.5 L 374.5 -507.5 L 377.5 -502.5 L 374.667 -498 L 366 -494 L 346 -490 L 325.5 -488.333 L 304.5 -489 L 283.5 -489.667 L 263.667 -491.333 L 245 -494 L 227.667 -502 L 213 -517 L 201 -539 L 189 -561 L 172.667 -600.667 L 152 -658 L 150 -661.333 L 146.333 -666.5 L 141 -673.5 L 135.667 -680.5 L 129.333 -684.667 L 122 -686 L 112.667 -687.333 L 107.5 -692 L 106.5 -700 L 105.5 -708 L 112 -712 Z M 396 -712 L 416 -712 L 437 -711.667 L 459 -711 L 481 -710.333 L 500.667 -708.333 L 518 -705 L 530.667 -705 L 545 -688 L 561 -654 L 577 -620 L 594.667 -582.667 L 614 -542 L 620 -528 L 626.333 -520 L 633 -518 L 638.333 -516 L 642.333 -512.5 L 645 -507.5 L 647.667 -502.5 L 645 -498 L 637 -494 L 616.333 -490 L 595.667 -488.333 L 575 -489 L 554.333 -489.667 L 534.333 -491.333 L 515 -494 L 497.667 -502 L 483 -517 L 471 -539 L 459 -561 L 443 -600.667 L 423 -658 L 421 -661.333 L 417.167 -666.5 L 411.5 -673.5 L 405.833 -680.5 L 399.667 -684.667 L 393 -686 L 383.667 -687.333 L 378.333 -692 L 377 -700 L 375.667 -708 L 382 -712 Z M 172.5 -384 L 176.167 -389.333 L 180 -392.167 L 184 -392.5 L 188 -392.833 L 192.5 -391.667 L 197.5 -389 L 202.5 -386.333 L 208.667 -383.167 L 216 -379.5 L 223.333 -375.833 L 232.667 -372.833 L 244 -370.5 L 255.333 -368.167 L 271.333 -367 L 292 -367 L 1677 -367 L 1695.667 -367 L 1712.667 -365.5 L 1728 -362.5 L 1743.333 -359.5 L 1757.333 -354.667 L 1770 -348 L 1782.667 -341.333 L 1792.5 -335.333 L 1799.5 -330 L 1806.5 -324.667 L 1816.167 -315.5 L 1828.5 -302.5 L 1840.833 -289.5 L 1851.333 -277 L 1860 -265 L 1868.667 -253 L 1870.333 -241.333 L 1865 -230 L 1859.667 -222 L 1853.5 -220.333 L 1846.5 -225 L 1839.5 -229.667 L 1831.333 -233.667 L 1822 -237 L 1812.667 -240.333 L 1802.5 -242.667 L 1791.5 -244 L 1780.5 -245.333 L 1763.333 -246 L 1740 -246 L 370 -246 L 354.667 -246 L 340.667 -247 L 328 -249 L 315.333 -251 L 305.5 -253.167 L 298.5 -255.5 L 291.5 -257.833 L 284 -261 L 276 -265 L 268 -269 L 259.5 -273.833 L 250.5 -279.5 L 241.5 -285.167 L 232 -293.167 L 222 -303.5 L 212 -313.833 L 201.833 -325.833 L 191.5 -339.5 L 181.167 -353.167 L 174.5 -362.667 L 171.5 -368 L 168.5 -373.333 L 168.833 -378.667 Z M 779 -662 L 753.667 -708 L 746.833 -747.333 L 758.5 -780 L 770.167 -812.667 L 791 -830.333 L 821 -833 L 840.333 -834.333 L 855.167 -832.833 L 865.5 -828.5 L 875.833 -824.167 L 885 -819.833 L 893 -815.5 L 901 -811.167 L 908.5 -806.5 L 915.5 -801.5 L 922.5 -796.5 L 929 -791.333 L 935 -786 L 941 -780.667 L 945.333 -775.833 L 948 -771.5 L 950.667 -767.167 L 951.833 -763.167 L 951.5 -759.5 L 951.167 -755.833 L 949.667 -753.167 L 947 -751.5 L 944.333 -749.833 L 937.167 -746.833 L 925.5 -742.5 L 913.833 -738.167 L 898.833 -730.667 L 880.5 -720 L 862.167 -709.333 L 853.333 -692 L 854 -668 L 854 -642.667 L 880.333 -618.833 L 933 -596.5 L 985.667 -574.167 L 1064 -565 L 1168 -569 L 1614 -593 L 1636 -593 L 1653.5 -591.5 L 1666.5 -588.5 L 1679.5 -585.5 L 1691.333 -581.667 L 1702 -577 L 1712.667 -572.333 L 1721.667 -567.667 L 1729 -563 L 1736.333 -558.333 L 1745.167 -551.667 L 1755.5 -543 L 1765.833 -534.333 L 1777.5 -523 L 1790.5 -509 L 1803.5 -495 L 1812 -484.667 L 1816 -478 L 1820 -471.333 L 1822 -464.833 L 1822 -458.5 L 1822 -452.167 L 1820 -448 L 1816 -446 L 1812 -444 L 1807.5 -443 L 1802.5 -443 L 1797.5 -443 L 1792.333 -444 L 1787 -446 L 1781.667 -448 L 1775.167 -450.167 L 1767.5 -452.5 L 1759.833 -454.833 L 1751.333 -457.5 L 1742 -460.5 L 1732.667 -463.5 L 1724 -465.667 L 1716 -467 L 1708 -468.333 L 1697.333 -469.333 L 1684 -470 L 1625 -475 L 1531 -471.667 L 1450.167 -472.667 L 1382.5 -478 L 1314.833 -483.333 L 1251.167 -490 L 1191.5 -498 L 1131.833 -506 L 1079.167 -514.667 L 1033.5 -524 L 987.833 -533.333 L 956.667 -541 L 940 -547 L 911.333 -559 L 885.833 -570.833 L 863.5 -582.5 L 841.167 -594.167 L 813 -620.667 Z" fill="black" fill-opacity="0.25" stroke="black" stroke-width="4"/>
  <rect x="105" y="-712" width="273" height="224" fill="none" stroke="red" stroke-width="10" /><rect x="376" y="-712" width="272" height="224" fill="none" stroke="red" stroke-width="10" /><rect x="169" y="-393" width="1701" height="173" fill="none" stroke="red" stroke-width="10" /><rect x="747" y="-834" width="1075" height="391" fill="none" stroke="red" stroke-width="10" />
</svg>
