<svg xmlns="http://www.w3.org/2000/svg"
  viewBox="310.22222222237036 -833.54999999992 1402.8253968246872 515.105555553994">
  <rect x="310.22222222237036" y="-833.54999999992" width="1402.8253968246872" height="515.105555553994" fill="white"/>
  <path d="M 1352.0 -549.0 L 1372.66666667 -549.0 L 1394.16666667 -548.833333333 L 1416.5 -548.5 L 1438.83333333 -548.166666667 L 1459.0 -546.666666667 L 1477.0 -544.0 L 1489.66666667 -544.0 L 1501.66666667 -528.666666667 L 1513.0 -498.0 L 1524.33333333 -467.333333333 L 1540.66666667 -437.0 L 1562.0 -407.0 L 1569.33333333 -396.333333333 L 1575.66666667 -390.333333333 L 1581.0 -389.0 L 1586.33333333 -387.666666667 L 1590.5 -385.166666667 L 1593.5 -381.5 L 1596.5 -377.833333333 L 1593.66666667 -374.666666667 L 1585.0 -372.0 L 1564.33333333 -369.333333333 L 1543.33333333 -368.166666667 L 1522.0 -368.5 L 1500.66666667 -368.833333333 L 1480.33333333 -370.0 L 1461.0 -372.0 L 1443.0 -378.0 L 1430.16666667 -391.833333333 L 1422.5 -413.5 L 1414.83333333 -435.166666667 L 1400.0 -467.333333333 L 1378.0 -510.0 L 1370.66666667 -520.0 L 1360.66666667 -526.0 L 1348.0 -528.0 L 1338.0 -528.666666667 L 1332.66666667 -532.333333333 L 1332.0 -539.0 L 1331.33333333 -545.666666667 L 1338.0 -549.0 Z M 1078.0 -552.0 L 1096.0 -552.0 L 1114.83333333 -551.833333333 L 1134.5 -551.5 L 1154.16666667 -551.166666667 L 1171.66666667 -549.666666667 L 1187.0 -547.0 L 1198.33333333 -547.0 L 1210.33333333 -531.166666667 L 1223.0 -499.5 L 1235.66666667 -467.166666667 L 1250.66666667 -436.333333333 L 1268.0 -407.0 L 1272.66666667 -396.333333333 L 1278.33333333 -390.666666667 L 1285.0 -390.0 L 1289.66666667 -388.666666667 L 1293.16666667 -386.166666667 L 1295.5 -382.5 L 1297.83333333 -378.833333333 L 1295.33333333 -375.333333333 L 1288.0 -372.0 L 1270.0 -369.333333333 L 1251.66666667 -368.166666667 L 1233.0 -368.5 L 1214.33333333 -368.833333333 L 1196.33333333 -370.0 L 1179.0 -372.0 L 1163.0 -378.0 L 1150.66666667 -392.166666667 L 1142.0 -414.5 L 1133.33333333 -436.833333333 L 1119.66666667 -469.333333333 L 1101.0 -512.0 L 1099.66666667 -514.0 L 1096.5 -517.833333333 L 1091.5 -523.5 L 1086.5 -529.166666667 L 1081.0 -532.333333333 L 1075.0 -533.0 L 1066.33333333 -533.666666667 L 1061.5 -537.0 L 1060.5 -543.0 L 1059.5 -549.0 L 1065.33333333 -552.0 Z M 363.0 -775.0 L 366.333333333 -780.333333333 L 370.0 -783.166666667 L 374.0 -783.5 L 378.0 -783.833333333 L 382.5 -782.5 L 387.5 -779.5 L 392.5 -776.5 L 398.5 -773.333333333 L 405.5 -770.0 L 412.5 -766.666666667 L 421.5 -763.833333333 L 432.5 -761.5 L 443.5 -759.166666667 L 459.0 -758.0 L 479.0 -758.0 L 1477.0 -758.0 L 1495.66666667 -758.0 L 1512.33333333 -756.5 L 1527.0 -753.5 L 1541.66666667 -750.5 L 1555.16666667 -745.833333333 L 1567.5 -739.5 L 1579.83333333 -733.166666667 L 1589.33333333 -727.333333333 L 1596.0 -722.0 L 1602.66666667 -716.666666667 L 1612.0 -707.833333333 L 1624.0 -695.5 L 1636.0 -683.166666667 L 1646.33333333 -671.0 L 1655.0 -659.0 L 1663.66666667 -647.0 L 1665.33333333 -635.666666667 L 1660.0 -625.0 L 1655.33333333 -617.0 L 1649.5 -615.166666667 L 1642.5 -619.5 L 1635.5 -623.833333333 L 1627.33333333 -627.833333333 L 1618.0 -631.5 L 1608.66666667 -635.166666667 L 1598.66666667 -637.5 L 1588.0 -638.5 L 1577.33333333 -639.5 L 1561.0 -640.0 L 1539.0 -640.0 L 555.0 -640.0 L 539.666666667 -640.0 L 526.0 -641.166666667 L 514.0 -643.5 L 502.0 -645.833333333 L 492.5 -648.166666667 L 485.5 -650.5 L 478.5 -652.833333333 L 471.166666667 -655.666666667 L 463.5 -659.0 L 455.833333333 -662.333333333 L 447.666666667 -666.833333333 L 439.0 -672.5 L 430.333333333 -678.166666667 L 421.0 -686.166666667 L 411.0 -696.5 L 401.0 -706.833333333 L 391.0 -718.5 L 381.0 -731.5 L 371.0 -744.5 L 364.666666667 -753.666666667 L 362.0 -759.0 L 359.333333333 -764.333333333 L 359.666666667 -769.666666667 Z" fill="black" fill-opacity="0.25" stroke="black" stroke-width="4.0"/>
  <rect x="1331.0" y="-549.0" width="266.0" height="181.00000000000006" fill="none" stroke="red" stroke-width="10.0" /><rect x="1060.0" y="-552.0" width="238.0" height="184.00000000000006" fill="none" stroke="red" stroke-width="10.0" /><rect x="359.0" y="-784.0" width="1306.0" height="169.00000000000003" fill="none" stroke="red" stroke-width="10.0" />
</svg>
