<svg xmlns="http://www.w3.org/2000/svg"
  viewBox="189.82615774406202 -841.5237694651898 2048.3603021919603 669.1027168340098">
  <rect x="189.82615774406202" y="-841.5237694651898" width="2048.3603021919603" height="669.1027168340098" fill="white"/>
  <path d="M 1974.0 -472.0 L 1967.33300781 -476.666992188 L 1966.83300781 -481.333007812 L 1972.5 -486.0 L 1978.16699219 -490.666992188 L 1985.33300781 -493.0 L 1994.0 -493.0 L 2003.33300781 -493.0 L 2016.33300781 -501.333007812 L 2033.0 -518.0 L 2049.66699219 -534.666992188 L 2060.66699219 -555.333007812 L 2066.0 -580.0 L 2074.66699219 -621.333007812 L 2053.0 -655.333007812 L 2001.0 -682.0 L 1961.66699219 -701.333007812 L 1908.5 -716.333007812 L 1841.5 -727.0 L 1774.5 -737.666992188 L 1737.33300781 -744.333007812 L 1730.0 -747.0 L 1722.66699219 -749.666992188 L 1720.0 -753.833007812 L 1722.0 -759.5 L 1724.0 -765.166992188 L 1727.66699219 -768.0 L 1733.0 -768.0 L 1739.0 -768.0 L 1776.16699219 -763.0 L 1844.5 -753.0 L 1912.83300781 -743.0 L 1975.0 -727.333007812 L 2031.0 -706.0 L 2064.33300781 -692.666992188 L 2091.0 -679.5 L 2111.0 -666.5 L 2131.0 -653.5 L 2149.66699219 -635.666992188 L 2167.0 -613.0 L 2183.66699219 -590.333007812 L 2190.5 -568.0 L 2187.5 -546.0 L 2184.5 -524.0 L 2174.66699219 -507.0 L 2158.0 -495.0 L 2142.66699219 -483.666992188 L 2125.16699219 -476.0 L 2105.5 -472.0 L 2085.83300781 -468.0 L 2067.0 -466.0 L 2049.0 -466.0 L 2022.0 -466.0 L 2022.0 -466.0 L 2011.5 -466.0 L 2004.5 -466.0 L 1992.0 -468.0 Z M 259.0 -723.0 L 279.0 -723.0 L 300.0 -722.666992188 L 322.0 -722.0 L 344.0 -721.333007812 L 363.666992188 -719.333007812 L 381.0 -716.0 L 393.666992188 -716.0 L 408.166992188 -699.0 L 424.5 -665.0 L 440.833007812 -631.0 L 458.333007812 -593.666992188 L 477.0 -553.0 L 483.0 -539.0 L 489.333007812 -531.0 L 496.0 -529.0 L 500.666992188 -527.0 L 504.666992188 -523.5 L 508.0 -518.5 L 511.333007812 -513.5 L 508.333007812 -509.0 L 499.0 -505.0 L 479.0 -501.0 L 458.666992188 -499.333007812 L 438.0 -500.0 L 417.333007812 -500.666992188 L 397.666992188 -502.333007812 L 379.0 -505.0 L 361.666992188 -513.0 L 346.833007812 -528.0 L 334.5 -550.0 L 322.166992188 -572.0 L 306.0 -611.666992188 L 286.0 -669.0 L 284.666992188 -672.333007812 L 281.0 -677.5 L 275.0 -684.5 L 269.0 -691.5 L 262.666992188 -695.666992188 L 256.0 -697.0 L 246.666992188 -698.333007812 L 241.333007812 -703.0 L 240.0 -711.0 L 238.666992188 -719.0 L 245.0 -723.0 Z M 530.0 -723.0 L 550.0 -723.0 L 570.833007812 -722.666992188 L 592.5 -722.0 L 614.166992188 -721.333007812 L 634.0 -719.333007812 L 652.0 -716.0 L 664.666992188 -716.0 L 679.0 -699.0 L 695.0 -665.0 L 711.0 -631.0 L 728.333007812 -593.666992188 L 747.0 -553.0 L 753.0 -539.0 L 759.333007812 -531.0 L 766.0 -529.0 L 771.333007812 -527.0 L 775.5 -523.5 L 778.5 -518.5 L 781.5 -513.5 L 778.666992188 -509.0 L 770.0 -505.0 L 749.333007812 -501.0 L 728.666992188 -499.333007812 L 708.0 -500.0 L 687.333007812 -500.666992188 L 667.666992188 -502.333007812 L 649.0 -505.0 L 631.0 -513.0 L 616.166992188 -528.0 L 604.5 -550.0 L 592.833007812 -572.0 L 576.666992188 -611.666992188 L 556.0 -669.0 L 554.0 -672.333007812 L 550.166992188 -677.5 L 544.5 -684.5 L 538.833007812 -691.5 L 532.666992188 -695.666992188 L 526.0 -697.0 L 516.666992188 -698.333007812 L 511.5 -703.0 L 510.5 -711.0 L 509.5 -719.0 L 516.0 -723.0 Z M 265.5 -384.0 L 269.166666667 -389.333333333 L 273.0 -392.166666667 L 277.0 -392.5 L 281.0 -392.833333333 L 285.5 -391.666666667 L 290.5 -389.0 L 295.5 -386.333333333 L 301.5 -383.166666667 L 308.5 -379.5 L 315.5 -375.833333333 L 324.833333333 -372.833333333 L 336.5 -370.5 L 348.166666667 -368.166666667 L 364.0 -367.0 L 384.0 -367.0 L 1892.0 -367.0 L 1910.66666667 -367.0 L 1927.66666667 -365.5 L 1943.0 -362.5 L 1958.33333333 -359.5 L 1972.33333333 -354.666666667 L 1985.0 -348.0 L 1997.66666667 -341.333333333 L 2007.5 -335.333333333 L 2014.5 -330.0 L 2021.5 -324.666666667 L 2031.16666667 -315.5 L 2043.5 -302.5 L 2055.83333333 -289.5 L 2066.33333333 -277.0 L 2075.0 -265.0 L 2083.66666667 -253.0 L 2085.33333333 -241.333333333 L 2080.0 -230.0 L 2074.66666667 -222.0 L 2068.5 -220.333333333 L 2061.5 -225.0 L 2054.5 -229.666666667 L 2046.33333333 -233.666666667 L 2037.0 -237.0 L 2027.66666667 -240.333333333 L 2017.5 -242.666666667 L 2006.5 -244.0 L 1995.5 -245.333333333 L 1978.33333333 -246.0 L 1955.0 -246.0 L 462.0 -246.0 L 446.666666667 -246.0 L 432.833333333 -247.0 L 420.5 -249.0 L 408.166666667 -251.0 L 398.333333333 -253.166666667 L 391.0 -255.5 L 383.666666667 -257.833333333 L 376.166666667 -261.0 L 368.5 -265.0 L 360.833333333 -269.0 L 352.5 -273.833333333 L 343.5 -279.5 L 334.5 -285.166666667 L 325.0 -293.166666667 L 315.0 -303.5 L 305.0 -313.833333333 L 294.833333333 -325.833333333 L 284.5 -339.5 L 274.166666667 -353.166666667 L 267.5 -362.666666667 L 264.5 -368.0 L 261.5 -373.333333333 L 261.833333333 -378.666666667 Z M 1132.0 -465.0 L 1109.33300781 -456.333007812 L 1071.0 -457.0 L 1017.0 -467.0 L 985.666992188 -475.0 L 957.833007812 -485.5 L 933.5 -498.5 L 909.166992188 -511.5 L 890.666992188 -534.333007812 L 878.0 -567.0 L 869.333007812 -598.333007812 L 866.333007812 -623.5 L 869.0 -642.5 L 871.666992188 -661.5 L 882.0 -683.333007812 L 900.0 -708.0 L 917.333007812 -728.666992188 L 937.5 -744.333007812 L 960.5 -755.0 L 983.5 -765.666992188 L 1011.66699219 -774.666992188 L 1045.0 -782.0 L 1078.33300781 -788.666992188 L 1105.33300781 -791.833007812 L 1126.0 -791.5 L 1146.66699219 -791.166992188 L 1169.0 -790.333007812 L 1193.0 -789.0 L 1217.0 -788.333007812 L 1239.33300781 -786.666992188 L 1260.0 -784.0 L 1280.66699219 -781.333007812 L 1305.66699219 -775.333007812 L 1335.0 -766.0 L 1383.66699219 -752.666992188 L 1431.33300781 -734.333007812 L 1478.0 -711.0 L 1504.66699219 -697.666992188 L 1532.66699219 -683.5 L 1562.0 -668.5 L 1591.33300781 -653.5 L 1624.33300781 -636.0 L 1661.0 -616.0 L 1677.66699219 -606.0 L 1695.83300781 -595.166992188 L 1715.5 -583.5 L 1735.16699219 -571.833007812 L 1756.33300781 -560.0 L 1779.0 -548.0 L 1796.33300781 -537.333007812 L 1813.5 -526.5 L 1830.5 -515.5 L 1847.5 -504.5 L 1854.66699219 -493.5 L 1852.0 -482.5 L 1849.33300781 -471.5 L 1842.83300781 -466.333007812 L 1832.5 -467.0 L 1822.16699219 -467.666992188 L 1790.16699219 -467.333007812 L 1736.5 -466.0 L 1682.83300781 -464.666992188 L 1636.0 -464.333007812 L 1596.0 -465.0 L 1580.0 -477.0 L 1580.16699219 -485.5 L 1596.5 -490.5 L 1612.83300781 -495.5 L 1625.0 -502.0 L 1633.0 -510.0 L 1647.66699219 -525.333007812 L 1654.16699219 -537.5 L 1652.5 -546.5 L 1650.83300781 -555.5 L 1648.5 -562.5 L 1645.5 -567.5 L 1642.5 -572.5 L 1637.66699219 -578.0 L 1631.0 -584.0 L 1624.33300781 -590.0 L 1608.16699219 -601.833007812 L 1582.5 -619.5 L 1556.83300781 -637.166992188 L 1524.66699219 -656.0 L 1486.0 -676.0 L 1452.0 -691.333007812 L 1425.0 -703.666992188 L 1405.0 -713.0 L 1385.0 -722.333007812 L 1353.0 -733.0 L 1309.0 -745.0 L 1276.33300781 -751.666992188 L 1243.0 -755.666992188 L 1209.0 -757.0 L 1175.0 -758.333007812 L 1140.66699219 -753.333007812 L 1106.0 -742.0 L 1081.33300781 -731.333007812 L 1064.0 -722.166992188 L 1054.0 -714.5 L 1044.0 -706.833007812 L 1033.0 -693.666992188 L 1021.0 -675.0 L 1010.33300781 -657.0 L 1004.16699219 -641.833007812 L 1002.5 -629.5 L 1000.83300781 -617.166992188 L 1000.33300781 -603.0 L 1001.0 -587.0 L 1001.66699219 -570.333007812 L 1003.66699219 -558.166992188 L 1007.0 -550.5 L 1010.33300781 -542.833007812 L 1014.66699219 -535.166992188 L 1020.0 -527.5 L 1025.33300781 -519.833007812 L 1032.0 -513.0 L 1040.0 -507.0 L 1048.0 -501.0 L 1060.33300781 -496.666992188 L 1077.0 -494.0 L 1093.66699219 -491.333007812 L 1110.0 -489.0 L 1126.0 -487.0 L 1132.66699219 -485.666992188 L 1137.0 -482.666992188 L 1139.0 -478.0 L 1141.0 -473.333007812 L 1138.66699219 -469.0 Z" fill="black" fill-opacity="0.25" stroke="black" stroke-width="4.0"/>
  <rect x="1720.0" y="-768.0" width="470.9999999999999" height="302.0" fill="none" stroke="red" stroke-width="10.0" /><rect x="239.0" y="-723.0" width="272.0" height="223.99999999999997" fill="none" stroke="red" stroke-width="10.0" /><rect x="509.0" y="-723.0" width="272.0" height="223.99999999999997" fill="none" stroke="red" stroke-width="10.0" /><rect x="262.0" y="-393.0" width="1823.0" height="173.00000000000003" fill="none" stroke="red" stroke-width="10.0" /><rect x="866.0" y="-792.0" width="989.0" height="336.0" fill="none" stroke="red" stroke-width="10.0" />
</svg>
