<svg xmlns="http://www.w3.org/2000/svg"
  viewBox="32.222222222237036 -833.0 1436.7545219623426 660.57894736882">
  <rect x="32.222222222237036" y="-833.0" width="1436.7545219623426" height="660.57894736882" fill="white"/>
  <path d="M 593.0 -783.0 L 615.666666667 -783.0 L 639.666666667 -782.833333333 L 665.0 -782.5 L 690.333333333 -782.166666667 L 713.0 -780.333333333 L 733.0 -777.0 L 747.0 -777.0 L 762.5 -749.5 L 779.5 -694.5 L 796.5 -639.5 L 816.666666667 -591.0 L 840.0 -549.0 L 848.0 -535.0 L 855.333333333 -527.333333333 L 862.0 -526.0 L 868.0 -524.0 L 872.5 -520.5 L 875.5 -515.5 L 878.5 -510.5 L 875.333333333 -506.0 L 866.0 -502.0 L 842.666666667 -498.0 L 819.166666667 -496.333333333 L 795.5 -497.0 L 771.833333333 -497.666666667 L 749.333333333 -499.333333333 L 728.0 -502.0 L 708.0 -510.0 L 691.5 -535.5 L 678.5 -578.5 L 665.5 -621.5 L 647.333333333 -672.0 L 624.0 -730.0 L 622.0 -733.333333333 L 617.833333333 -737.833333333 L 611.5 -743.5 L 605.166666667 -749.166666667 L 598.0 -753.0 L 590.0 -755.0 L 579.333333333 -757.0 L 573.166666667 -762.166666667 L 571.5 -770.5 L 569.833333333 -778.833333333 L 577.0 -783.0 Z M 85.0 -384.0 L 88.3333333333 -389.333333333 L 92.1666666667 -392.166666667 L 96.5 -392.5 L 100.833333333 -392.833333333 L 105.333333333 -391.666666667 L 110.0 -389.0 L 114.666666667 -386.333333333 L 120.666666667 -383.166666667 L 128.0 -379.5 L 135.333333333 -375.833333333 L 144.666666667 -372.833333333 L 156.0 -370.5 L 167.333333333 -368.166666667 L 183.333333333 -367.0 L 204.0 -367.0 L 1228.0 -367.0 L 1246.66666667 -367.0 L 1263.66666667 -365.5 L 1279.0 -362.5 L 1294.33333333 -359.5 L 1308.33333333 -354.666666667 L 1321.0 -348.0 L 1333.66666667 -341.333333333 L 1343.5 -335.333333333 L 1350.5 -330.0 L 1357.5 -324.666666667 L 1367.0 -315.5 L 1379.0 -302.5 L 1391.0 -289.5 L 1401.5 -277.0 L 1410.5 -265.0 L 1419.5 -253.0 L 1421.33333333 -241.333333333 L 1416.0 -230.0 L 1410.66666667 -222.0 L 1404.5 -220.333333333 L 1397.5 -225.0 L 1390.5 -229.666666667 L 1382.33333333 -233.666666667 L 1373.0 -237.0 L 1363.66666667 -240.333333333 L 1353.5 -242.666666667 L 1342.5 -244.0 L 1331.5 -245.333333333 L 1314.33333333 -246.0 L 1291.0 -246.0 L 282.0 -246.0 L 266.666666667 -246.0 L 252.666666667 -247.0 L 240.0 -249.0 L 227.333333333 -251.0 L 217.5 -253.166666667 L 210.5 -255.5 L 203.5 -257.833333333 L 196.0 -261.0 L 188.0 -265.0 L 180.0 -269.0 L 171.5 -273.833333333 L 162.5 -279.5 L 153.5 -285.166666667 L 144.0 -293.166666667 L 134.0 -303.5 L 124.0 -313.833333333 L 113.833333333 -325.833333333 L 103.5 -339.5 L 93.1666666667 -353.166666667 L 86.6666666667 -362.666666667 L 84.0 -368.0 L 81.3333333333 -373.333333333 L 81.6666666667 -378.666666667 Z" fill="black" fill-opacity="0.25" stroke="black" stroke-width="4.0"/>
  <rect x="570.0" y="-783.0" width="308.00000000000006" height="287.00000000000006" fill="none" stroke="red" stroke-width="10.0" /><rect x="81.0" y="-393.0" width="1340.0" height="173.00000000000003" fill="none" stroke="red" stroke-width="10.0" />
</svg>
