<svg xmlns="http://www.w3.org/2000/svg"
  viewBox="32.222222222237036 -874.0 1436.7545219623426 701.57894736882">
  <rect x="32.222222222237036" y="-874.0" width="1436.7545219623426" height="701.57894736882" fill="white"/>
  <path d="M 690.0 -475.0 L 682.0 -481.0 L 681.333333333 -486.5 L 688.0 -491.5 L 694.666666667 -496.5 L 703.0 -499.0 L 713.0 -499.0 L 723.666666667 -499.0 L 738.833333333 -508.833333333 L 758.5 -528.5 L 778.166666667 -548.166666667 L 791.0 -572.333333333 L 797.0 -601.0 L 807.0 -649.666666667 L 781.666666667 -689.666666667 L 721.0 -721.0 L 697.666666667 -732.333333333 L 668.333333333 -742.333333333 L 633.0 -751.0 L 597.666666667 -759.666666667 L 562.666666667 -767.333333333 L 528.0 -774.0 L 493.333333333 -780.666666667 L 462.666666667 -786.166666667 L 436.0 -790.5 L 409.333333333 -794.833333333 L 394.0 -798.0 L 390.0 -800.0 L 380.666666667 -803.333333333 L 377.0 -808.166666667 L 379.0 -814.5 L 381.0 -820.833333333 L 386.0 -824.0 L 394.0 -824.0 L 398.0 -824.0 L 412.833333333 -822.333333333 L 438.5 -819.0 L 464.166666667 -815.666666667 L 495.166666667 -811.0 L 531.5 -805.0 L 567.833333333 -799.0 L 606.166666667 -791.333333333 L 646.5 -782.0 L 686.833333333 -772.666666667 L 723.333333333 -761.666666667 L 756.0 -749.0 L 795.333333333 -733.666666667 L 826.666666667 -718.166666667 L 850.0 -702.5 L 873.333333333 -686.833333333 L 895.0 -666.0 L 915.0 -640.0 L 934.333333333 -613.333333333 L 942.5 -587.166666667 L 939.5 -561.5 L 936.5 -535.833333333 L 925.0 -515.666666667 L 905.0 -501.0 L 887.0 -487.666666667 L 866.5 -478.833333333 L 843.5 -474.5 L 820.5 -470.166666667 L 798.666666667 -468.0 L 778.0 -468.0 L 746.0 -468.0 L 746.0 -468.0 L 733.5 -468.0 L 725.166666667 -468.0 L 710.666666667 -470.333333333 Z M 85.0 -384.0 L 88.3333333333 -389.333333333 L 92.1666666667 -392.166666667 L 96.5 -392.5 L 100.833333333 -392.833333333 L 105.333333333 -391.666666667 L 110.0 -389.0 L 114.666666667 -386.333333333 L 120.666666667 -383.166666667 L 128.0 -379.5 L 135.333333333 -375.833333333 L 144.666666667 -372.833333333 L 156.0 -370.5 L 167.333333333 -368.166666667 L 183.333333333 -367.0 L 204.0 -367.0 L 1228.0 -367.0 L 1246.66666667 -367.0 L 1263.66666667 -365.5 L 1279.0 -362.5 L 1294.33333333 -359.5 L 1308.33333333 -354.666666667 L 1321.0 -348.0 L 1333.66666667 -341.333333333 L 1343.5 -335.333333333 L 1350.5 -330.0 L 1357.5 -324.666666667 L 1367.0 -315.5 L 1379.0 -302.5 L 1391.0 -289.5 L 1401.5 -277.0 L 1410.5 -265.0 L 1419.5 -253.0 L 1421.33333333 -241.333333333 L 1416.0 -230.0 L 1410.66666667 -222.0 L 1404.5 -220.333333333 L 1397.5 -225.0 L 1390.5 -229.666666667 L 1382.33333333 -233.666666667 L 1373.0 -237.0 L 1363.66666667 -240.333333333 L 1353.5 -242.666666667 L 1342.5 -244.0 L 1331.5 -245.333333333 L 1314.33333333 -246.0 L 1291.0 -246.0 L 282.0 -246.0 L 266.666666667 -246.0 L 252.666666667 -247.0 L 240.0 -249.0 L 227.333333333 -251.0 L 217.5 -253.166666667 L 210.5 -255.5 L 203.5 -257.833333333 L 196.0 -261.0 L 188.0 -265.0 L 180.0 -269.0 L 171.5 -273.833333333 L 162.5 -279.5 L 153.5 -285.166666667 L 144.0 -293.166666667 L 134.0 -303.5 L 124.0 -313.833333333 L 113.833333333 -325.833333333 L 103.5 -339.5 L 93.1666666667 -353.166666667 L 86.6666666667 -362.666666667 L 84.0 -368.0 L 81.3333333333 -373.333333333 L 81.6666666667 -378.666666667 Z" fill="black" fill-opacity="0.25" stroke="black" stroke-width="4.0"/>
  <rect x="377.0" y="-824.0" width="566.0" height="355.99999999999994" fill="none" stroke="red" stroke-width="10.0" /><rect x="81.0" y="-393.0" width="1340.0" height="173.00000000000003" fill="none" stroke="red" stroke-width="10.0" />
</svg>
