<svg xmlns="http://www.w3.org/2000/svg"
  viewBox="32.222 -1320 1436.755 1147.579">
  <rect x="32.222" y="-1320" width="1436.755" height="1147.579" fill="white"/>
  <path d="M 640 -667 L 660.667 -667 L 682 -666.833 L 704 -666.5 L 726 -666.167 L 746 -664.667 L 764 -662 L 776.667 -662 L 789.5 -640.5 L 802.5 -597.5 L 815.5 -554.5 L 831.667 -516.333 L 851 -483 L 857 -471.667 L 863 -465.667 L 869 -465 L 874.333 -463.667 L 878.333 -460.833 L 881 -456.5 L 883.667 -452.167 L 880.667 -448.667 L 872 -446 L 850.667 -442.667 L 829.5 -441.333 L 808.5 -442 L 787.5 -442.667 L 767.667 -444 L 749 -446 L 731 -452.667 L 717 -472.833 L 707 -506.5 L 697 -540.167 L 682.667 -579.667 L 664 -625 L 658 -635.667 L 648.333 -642.333 L 635 -645 L 625 -646.333 L 619.833 -650.333 L 619.5 -657 L 619.167 -663.667 L 626 -667 Z M 85 -384 L 88.333 -389.333 L 92.167 -392.167 L 96.5 -392.5 L 100.833 -392.833 L 105.333 -391.667 L 110 -389 L 114.667 -386.333 L 120.667 -383.167 L 128 -379.5 L 135.333 -375.833 L 144.667 -372.833 L 156 -370.5 L 167.333 -368.167 L 183.333 -367 L 204 -367 L 1228 -367 L 1246.667 -367 L 1263.667 -365.5 L 1279 -362.5 L 1294.333 -359.5 L 1308.333 -354.667 L 1321 -348 L 1333.667 -341.333 L 1343.5 -335.333 L 1350.5 -330 L 1357.5 -324.667 L 1367 -315.5 L 1379 -302.5 L 1391 -289.5 L 1401.5 -277 L 1410.5 -265 L 1419.5 -253 L 1421.333 -241.333 L 1416 -230 L 1410.667 -222 L 1404.5 -220.333 L 1397.5 -225 L 1390.5 -229.667 L 1382.333 -233.667 L 1373 -237 L 1363.667 -240.333 L 1353.5 -242.667 L 1342.5 -244 L 1331.5 -245.333 L 1314.333 -246 L 1291 -246 L 282 -246 L 266.667 -246 L 252.667 -247 L 240 -249 L 227.333 -251 L 217.5 -253.167 L 210.5 -255.5 L 203.5 -257.833 L 196 -261 L 188 -265 L 180 -269 L 171.5 -273.833 L 162.5 -279.5 L 153.5 -285.167 L 144 -293.167 L 134 -303.5 L 124 -313.833 L 113.833 -325.833 L 103.5 -339.5 L 93.167 -353.167 L 86.667 -362.667 L 84 -368 L 81.333 -373.333 L 81.667 -378.667 Z M 1078 -1270 L 1088 -1268.667 L 1092.333 -1264 L 1091 -1256 L 1089.667 -1248 L 1083.333 -1243.667 L 1072 -1243 L 1059.333 -1239 L 1049 -1224.167 L 1041 -1198.5 L 1033 -1172.833 L 1024.667 -1145.667 L 1016 -1117 L 995.333 -1049.667 L 976.333 -995.167 L 959 -953.5 L 941.667 -911.833 L 925.167 -882.833 L 909.5 -866.5 L 893.833 -850.167 L 875.333 -837.667 L 854 -829 L 820.667 -815.667 L 787.833 -805.833 L 755.5 -799.5 L 723.167 -793.167 L 695 -790 L 671 -790 L 683 -764 L 702.667 -746.167 L 730 -736.5 L 757.333 -726.833 L 765.333 -716.333 L 754 -705 L 747.333 -699 L 726 -707.333 L 690 -730 L 654 -752.667 L 629.333 -775 L 616 -797 L 616 -811 L 622.333 -816.833 L 635 -814.5 L 647.667 -812.167 L 661 -810.333 L 675 -809 L 689.667 -808.333 L 704.5 -809.167 L 719.5 -811.5 L 734.5 -813.833 L 754.667 -820.667 L 780 -832 L 792.667 -838 L 804.5 -851 L 815.5 -871 L 826.5 -891 L 836.333 -913.167 L 845 -937.5 L 853.667 -961.833 L 861.167 -985.833 L 867.5 -1009.5 L 873.833 -1033.167 L 882 -1067.5 L 892 -1112.5 L 902 -1157.5 L 910.667 -1187.667 L 918 -1203 L 925.333 -1218.333 L 935.5 -1230.667 L 948.5 -1240 L 961.5 -1249.333 L 974 -1255.333 L 986 -1258 L 998 -1260.667 L 1011.5 -1262.833 L 1026.5 -1264.5 L 1041.5 -1266.167 L 1058.667 -1268 Z" fill="black" fill-opacity="0.25" stroke="black" stroke-width="4"/>
  <rect x="619" y="-667" width="265" height="226" fill="none" stroke="red" stroke-width="10" /><rect x="81" y="-393" width="1340" height="173" fill="none" stroke="red" stroke-width="10" /><rect x="616" y="-892.1" width="314.4" height="189" fill="none" stroke="red" stroke-width="10" /><rect x="827" y="-1081" width="178" height="188.9" fill="none" stroke="red" stroke-width="10" /><rect x="885" y="-1270" width="207.3" height="189" fill="none" stroke="red" stroke-width="10" />
</svg>
