<svg xmlns="http://www.w3.org/2000/svg"
  viewBox="9 -1388 1541.222 1215.579">
  <rect x="9" y="-1388" width="1541.222" height="1215.579" fill="white"/>
  <path d="M 461 -697 L 481 -697 L 502 -696.667 L 524 -696 L 546 -695.333 L 565.667 -693.333 L 583 -690 L 595.667 -690 L 609.167 -668.667 L 623.5 -626 L 637.833 -583.333 L 654.333 -541.667 L 673 -501 L 678.333 -487 L 684.667 -479 L 692 -477 L 696.667 -475 L 700.5 -471.5 L 703.5 -466.5 L 706.5 -461.5 L 703.667 -457 L 695 -453 L 675 -449 L 654.667 -447.333 L 634 -448 L 613.333 -448.667 L 593.667 -450.333 L 575 -453 L 557.667 -461 L 544 -480.167 L 534 -510.5 L 524 -540.833 L 508.667 -585 L 488 -643 L 486 -646.333 L 482.333 -651.5 L 477 -658.5 L 471.667 -665.5 L 465.333 -669.667 L 458 -671 L 448.667 -672.333 L 443.333 -676.833 L 442 -684.5 L 440.667 -692.167 L 447 -696.333 Z M 731 -697 L 751 -697 L 772.167 -696.667 L 794.5 -696 L 816.833 -695.333 L 836.667 -693.333 L 854 -690 L 866.667 -690 L 880 -668.667 L 894 -626 L 908 -583.333 L 924.333 -541.667 L 943 -501 L 949 -487 L 955.333 -479 L 962 -477 L 967.333 -475 L 971.5 -471.5 L 974.5 -466.5 L 977.5 -461.5 L 974.667 -457 L 966 -453 L 945.333 -449 L 924.667 -447.333 L 904 -448 L 883.333 -448.667 L 863.667 -450.333 L 845 -453 L 827 -461 L 813.167 -480.167 L 803.5 -510.5 L 793.833 -540.833 L 778.667 -585 L 758 -643 L 756.667 -646.333 L 753.167 -651.5 L 747.5 -658.5 L 741.833 -665.5 L 735.667 -669.667 L 729 -671 L 719.667 -672.333 L 714.167 -676.833 L 712.5 -684.5 L 710.833 -692.167 L 717 -696.333 Z M 85 -384 L 88.333 -389.333 L 92.167 -392.167 L 96.5 -392.5 L 100.833 -392.833 L 105.333 -391.667 L 110 -389 L 114.667 -386.333 L 120.667 -383.167 L 128 -379.5 L 135.333 -375.833 L 144.667 -372.833 L 156 -370.5 L 167.333 -368.167 L 183.333 -367 L 204 -367 L 1228 -367 L 1246.667 -367 L 1263.667 -365.5 L 1279 -362.5 L 1294.333 -359.5 L 1308.333 -354.667 L 1321 -348 L 1333.667 -341.333 L 1343.5 -335.333 L 1350.5 -330 L 1357.5 -324.667 L 1367 -315.5 L 1379 -302.5 L 1391 -289.5 L 1401.5 -277 L 1410.5 -265 L 1419.5 -253 L 1421.333 -241.333 L 1416 -230 L 1410.667 -222 L 1404.5 -220.333 L 1397.5 -225 L 1390.5 -229.667 L 1382.333 -233.667 L 1373 -237 L 1363.667 -240.333 L 1353.5 -242.667 L 1342.5 -244 L 1331.5 -245.333 L 1314.333 -246 L 1291 -246 L 282 -246 L 266.667 -246 L 252.667 -247 L 240 -249 L 227.333 -251 L 217.5 -253.167 L 210.5 -255.5 L 203.5 -257.833 L 196 -261 L 188 -265 L 180 -269 L 171.5 -273.833 L 162.5 -279.5 L 153.5 -285.167 L 144 -293.167 L 134 -303.5 L 124 -313.833 L 113.833 -325.833 L 103.5 -339.5 L 93.167 -353.167 L 86.667 -362.667 L 84 -368 L 81.333 -373.333 L 81.667 -378.667 Z M 1486 -1163 L 1496.667 -1161 L 1501.333 -1155.5 L 1500 -1146.5 L 1498.667 -1137.5 L 1491.667 -1132.667 L 1479 -1132 L 1465 -1127.333 L 1453.833 -1109.667 L 1445.5 -1079 L 1437.167 -1048.333 L 1428 -1016 L 1418 -982 L 1395.333 -902.667 L 1374.833 -838.333 L 1356.5 -789 L 1338.167 -739.667 L 1320.5 -705.167 L 1303.5 -685.5 L 1286.5 -665.833 L 1266.333 -650.667 L 1243 -640 L 1207 -624.667 L 1171.5 -613.333 L 1136.5 -606 L 1101.5 -598.667 L 1071 -595 L 1045 -595 L 1057.667 -565 L 1079 -544 L 1109 -532 L 1139 -520 L 1147.667 -507.333 L 1135 -494 L 1127.667 -486.667 L 1104.667 -496.333 L 1066 -523 L 1027.333 -549.667 L 1000.667 -576 L 986 -602 L 986 -618.667 L 992.833 -625.667 L 1006.5 -623 L 1020.167 -620.333 L 1034.667 -618.333 L 1050 -617 L 1065.333 -616.333 L 1081.333 -617.333 L 1098 -620 L 1114.667 -622.667 L 1136.667 -631 L 1164 -645 L 1177.333 -651.667 L 1189.833 -666.833 L 1201.5 -690.5 L 1213.167 -714.167 L 1223.833 -740.333 L 1233.5 -769 L 1243.167 -797.667 L 1251.333 -826.167 L 1258 -854.5 L 1264.667 -882.833 L 1273.5 -923.667 L 1284.5 -977 L 1295.5 -1030.333 L 1304.833 -1066 L 1312.5 -1084 L 1320.167 -1102 L 1331.167 -1116.667 L 1345.5 -1128 L 1359.833 -1139.333 L 1373.5 -1146.667 L 1386.5 -1150 L 1399.5 -1153.333 L 1414 -1155.667 L 1430 -1157 L 1446 -1158.333 L 1464.667 -1160.333 Z M 558 -1163 L 568.667 -1161 L 573.333 -1155.5 L 572 -1146.5 L 570.667 -1137.5 L 564 -1132.667 L 552 -1132 L 538 -1127.333 L 526.667 -1109.667 L 518 -1079 L 509.333 -1048.333 L 500.333 -1016 L 491 -982 L 468.333 -902.667 L 447.667 -838.333 L 429 -789 L 410.333 -739.667 L 392.667 -705.167 L 376 -685.5 L 359.333 -665.833 L 339 -650.667 L 315 -640 L 279 -624.667 L 243.5 -613.333 L 208.5 -606 L 173.5 -598.667 L 143.333 -595 L 118 -595 L 130.667 -565 L 152 -544 L 182 -532 L 212 -520 L 220.667 -507.333 L 208 -494 L 200.667 -486.667 L 177.5 -496.333 L 138.5 -523 L 99.5 -549.667 L 73 -576 L 59 -602 L 59 -618.667 L 65.667 -625.667 L 79 -623 L 92.333 -620.333 L 107 -618.333 L 123 -617 L 138.333 -616.333 L 154.167 -617.333 L 170.5 -620 L 186.833 -622.667 L 208.667 -631 L 236 -645 L 249.333 -651.667 L 262 -666.833 L 274 -690.5 L 286 -714.167 L 296.667 -740.333 L 306 -769 L 315.333 -797.667 L 323.333 -826.167 L 330 -854.5 L 336.667 -882.833 L 345.5 -923.667 L 356.5 -977 L 367.5 -1030.333 L 376.833 -1066 L 384.5 -1084 L 392.167 -1102 L 403.167 -1116.667 L 417.5 -1128 L 431.833 -1139.333 L 445.667 -1146.667 L 459 -1150 L 472.333 -1153.333 L 486.833 -1155.667 L 502.5 -1157 L 518.167 -1158.333 L 536.667 -1160.333 Z M 1000 -1338 L 1010 -1336.667 L 1014.333 -1332.167 L 1013 -1324.5 L 1011.667 -1316.833 L 1005.333 -1312.333 L 994 -1311 L 981.333 -1307 L 971 -1292.167 L 963 -1266.5 L 955 -1240.833 L 946.667 -1213.667 L 938 -1185 L 917.333 -1117.667 L 898.167 -1063.333 L 880.5 -1022 L 862.833 -980.667 L 846.333 -951.667 L 831 -935 L 815.667 -918.333 L 797.333 -905.667 L 776 -897 L 742.667 -883.667 L 709.667 -874 L 677 -868 L 644.333 -862 L 616.333 -859 L 593 -859 L 605 -833 L 624.667 -815.167 L 652 -805.5 L 679.333 -795.833 L 687.333 -785.333 L 676 -774 L 669.333 -768 L 648 -776.167 L 612 -798.5 L 576 -820.833 L 551.333 -843 L 538 -865 L 538 -879 L 544.333 -884.833 L 557 -882.5 L 569.667 -880.167 L 583 -878.667 L 597 -878 L 611.667 -877.333 L 626.5 -878 L 641.5 -880 L 656.5 -882 L 676.667 -889 L 702 -901 L 714.667 -907 L 726.333 -919.833 L 737 -939.5 L 747.667 -959.167 L 757.5 -981.167 L 766.5 -1005.5 L 775.5 -1029.833 L 783.167 -1054 L 789.5 -1078 L 795.833 -1102 L 804 -1136.333 L 814 -1181 L 824 -1225.667 L 832.667 -1255.667 L 840 -1271 L 847.333 -1286.333 L 857.5 -1298.833 L 870.5 -1308.5 L 883.5 -1318.167 L 896 -1324.333 L 908 -1327 L 920 -1329.667 L 933.5 -1331.667 L 948.5 -1333 L 963.5 -1334.333 L 980.667 -1336 Z" fill="black" fill-opacity="0.25" stroke="black" stroke-width="4"/>
  <rect x="441" y="-697" width="266" height="250" fill="none" stroke="red" stroke-width="10" /><rect x="711" y="-697" width="267" height="250" fill="none" stroke="red" stroke-width="10" /><rect x="81" y="-393" width="1340" height="173" fill="none" stroke="red" stroke-width="10" /><rect x="986" y="-715.4" width="339.7" height="223.8" fill="none" stroke="red" stroke-width="10" /><rect x="1213.7" y="-939.2" width="192.1" height="223.8" fill="none" stroke="red" stroke-width="10" /><rect x="1276.7" y="-1163" width="224.6" height="223.8" fill="none" stroke="red" stroke-width="10" /><rect x="59" y="-715.4" width="338.9" height="223.8" fill="none" stroke="red" stroke-width="10" /><rect x="286.5" y="-939.2" width="192.3" height="223.8" fill="none" stroke="red" stroke-width="10" /><rect x="348.7" y="-1163" width="224.6" height="223.8" fill="none" stroke="red" stroke-width="10" /><rect x="538" y="-960.7" width="313.5" height="188.6" fill="none" stroke="red" stroke-width="10" /><rect x="748.4" y="-1149.4" width="178.7" height="188.7" fill="none" stroke="red" stroke-width="10" /><rect x="806.9" y="-1338" width="207.4" height="188.6" fill="none" stroke="red" stroke-width="10" />
</svg>
