<svg xmlns="http://www.w3.org/2000/svg"
  viewBox="109.4 -901.522 1911.577 729.101">
  <rect x="109.4" y="-901.522" width="1911.577" height="729.101" fill="white"/>
  <path d="M 179 -729 L 199 -729 L 220 -728.667 L 242 -728 L 264 -727.333 L 283.667 -725.333 L 301 -722 L 313.667 -722 L 328 -705 L 344 -671 L 360 -637 L 377.333 -599.667 L 396 -559 L 402 -545 L 408.333 -537 L 415 -535 L 420.333 -533 L 424.5 -529.5 L 427.5 -524.5 L 430.5 -519.5 L 427.667 -515 L 419 -511 L 398.333 -507 L 377.667 -505.333 L 357 -506 L 336.333 -506.667 L 316.667 -508.333 L 298 -511 L 280 -519 L 265.167 -534 L 253.5 -556 L 241.833 -578 L 225.667 -617.667 L 205 -675 L 203 -678.333 L 199.333 -683.5 L 194 -690.5 L 188.667 -697.5 L 182.333 -701.667 L 175 -703 L 165.667 -704.333 L 160.5 -709 L 159.5 -717 L 158.5 -725 L 165 -729 Z M 449 -729 L 469 -729 L 490 -728.667 L 512 -728 L 534 -727.333 L 553.667 -725.333 L 571 -722 L 583.667 -722 L 598 -705 L 614 -671 L 630 -637 L 647.667 -599.667 L 667 -559 L 673 -545 L 679.333 -537 L 686 -535 L 690.667 -533 L 694.5 -529.5 L 697.5 -524.5 L 700.5 -519.5 L 697.667 -515 L 689 -511 L 669 -507 L 648.5 -505.333 L 627.5 -506 L 606.5 -506.667 L 586.667 -508.333 L 568 -511 L 550.667 -519 L 536 -534 L 524 -556 L 512 -578 L 495.667 -617.667 L 475 -675 L 473.667 -678.333 L 470.167 -683.5 L 464.5 -690.5 L 458.833 -697.5 L 452.667 -701.667 L 446 -703 L 436.667 -704.333 L 431.333 -709 L 430 -717 L 428.667 -725 L 435 -729 Z M 168 -384 L 171.333 -389.333 L 175.167 -392.167 L 179.5 -392.5 L 183.833 -392.833 L 188.333 -391.667 L 193 -389 L 197.667 -386.333 L 203.667 -383.167 L 211 -379.5 L 218.333 -375.833 L 227.667 -372.833 L 239 -370.5 L 250.333 -368.167 L 266.333 -367 L 287 -367 L 1779 -367 L 1797.667 -367 L 1814.833 -365.5 L 1830.5 -362.5 L 1846.167 -359.5 L 1860.333 -354.667 L 1873 -348 L 1885.667 -341.333 L 1895.5 -335.333 L 1902.5 -330 L 1909.5 -324.667 L 1919 -315.5 L 1931 -302.5 L 1943 -289.5 L 1953.5 -277 L 1962.5 -265 L 1971.5 -253 L 1973.333 -241.333 L 1968 -230 L 1962.667 -222 L 1956.5 -220.333 L 1949.5 -225 L 1942.5 -229.667 L 1934.333 -233.667 L 1925 -237 L 1915.667 -240.333 L 1905.333 -242.667 L 1894 -244 L 1882.667 -245.333 L 1865.667 -246 L 1843 -246 L 365 -246 L 349.667 -246 L 335.667 -247 L 323 -249 L 310.333 -251 L 300.5 -253.167 L 293.5 -255.5 L 286.5 -257.833 L 279 -261 L 271 -265 L 263 -269 L 254.5 -273.833 L 245.5 -279.5 L 236.5 -285.167 L 227 -293.167 L 217 -303.5 L 207 -313.833 L 196.833 -325.833 L 186.5 -339.5 L 176.167 -353.167 L 169.667 -362.667 L 167 -368 L 164.333 -373.333 L 164.667 -378.667 Z M 1075 -487 L 1049.667 -477.667 L 1006.667 -478.333 L 946 -489 L 910.667 -497.667 L 879.5 -509.333 L 852.5 -524 L 825.5 -538.667 L 804.667 -564.333 L 790 -601 L 780 -636.333 L 776.667 -664.5 L 780 -685.5 L 783.333 -706.5 L 795 -731 L 815 -759 L 834.333 -782.333 L 856.833 -799.833 L 882.5 -811.5 L 908.167 -823.167 L 939.667 -833 L 977 -841 L 1014.333 -848.333 L 1044.667 -851.833 L 1068 -851.5 L 1091.333 -851.167 L 1116.667 -850.667 L 1144 -850 L 1170.667 -848.667 L 1195.5 -846.5 L 1218.5 -843.5 L 1241.5 -840.5 L 1269.333 -834 L 1302 -824 L 1356 -809.333 L 1409.333 -788.667 L 1462 -762 L 1491.333 -747.333 L 1522.5 -731.667 L 1555.5 -715 L 1588.5 -698.333 L 1625.333 -678.333 L 1666 -655 L 1684.667 -643.667 L 1705.167 -631.5 L 1727.5 -618.5 L 1749.833 -605.5 L 1773.667 -592.333 L 1799 -579 L 1818.333 -567 L 1837.5 -555 L 1856.5 -543 L 1875.5 -531 L 1883.5 -518.833 L 1880.5 -506.5 L 1877.5 -494.167 L 1870.333 -488.333 L 1859 -489 L 1847.667 -489.667 L 1811.833 -489.333 L 1751.5 -488 L 1691.167 -486.667 L 1638.667 -486.333 L 1594 -487 L 1576 -500.333 L 1576.167 -509.833 L 1594.5 -515.5 L 1612.833 -521.167 L 1626.667 -528.333 L 1636 -537 L 1652.667 -554.333 L 1660 -568.167 L 1658 -578.5 L 1656 -588.833 L 1653.167 -596.833 L 1649.5 -602.5 L 1645.833 -608.167 L 1640.333 -614.167 L 1633 -620.5 L 1625.667 -626.833 L 1607.5 -640 L 1578.5 -660 L 1549.5 -680 L 1513.667 -701 L 1471 -723 L 1432.333 -739.667 L 1402 -753.333 L 1380 -764 L 1358 -774.667 L 1322.333 -786.667 L 1273 -800 L 1236.333 -807.333 L 1199 -811.833 L 1161 -813.5 L 1123 -815.167 L 1084.333 -809.667 L 1045 -797 L 1017.667 -785 L 998.5 -774.667 L 987.5 -766 L 976.5 -757.333 L 964 -742.667 L 950 -722 L 938 -702 L 931.167 -685 L 929.5 -671 L 927.833 -657 L 927.667 -641 L 929 -623 L 929.667 -604.333 L 931.833 -590.833 L 935.5 -582.5 L 939.167 -574.167 L 943.833 -565.667 L 949.5 -557 L 955.167 -548.333 L 962.5 -540.5 L 971.5 -533.5 L 980.5 -526.5 L 994.333 -521.5 L 1013 -518.5 L 1031.667 -515.5 L 1050 -513.333 L 1068 -512 L 1076 -510.667 L 1081.167 -507.333 L 1083.5 -502 L 1085.833 -496.667 L 1083 -491.667 Z M 1281 -426 L 1274.333 -431.333 L 1273.833 -436.333 L 1279.5 -441 L 1285.167 -445.667 L 1292.667 -448 L 1302 -448 L 1312 -448 L 1325.667 -456.667 L 1343 -474 L 1360.333 -491.333 L 1372 -513.333 L 1378 -540 L 1387.333 -584 L 1364.333 -620 L 1309 -648 L 1287.667 -658 L 1261 -667 L 1229 -675 L 1197 -683 L 1165.333 -690.167 L 1134 -696.5 L 1102.667 -702.833 L 1075 -707.833 L 1051 -711.5 L 1027 -715.167 L 1013 -718 L 1009 -720 L 1000.333 -723.333 L 997 -727.667 L 999 -733 L 1001 -738.333 L 1005.333 -741 L 1012 -741 L 1015.333 -741 L 1028.833 -739.667 L 1052.5 -737 L 1076.167 -734.333 L 1104.5 -730.167 L 1137.5 -724.5 L 1170.5 -718.833 L 1205.167 -711.833 L 1241.5 -703.5 L 1277.833 -695.167 L 1311 -685 L 1341 -673 L 1376.333 -659 L 1404.667 -645 L 1426 -631 L 1447.333 -617 L 1466.667 -598.333 L 1484 -575 L 1501.333 -551 L 1508.667 -527.333 L 1506 -504 L 1503.333 -480.667 L 1493.333 -462.333 L 1476 -449 L 1460 -437 L 1441.333 -429 L 1420 -425 L 1398.667 -421 L 1378.667 -419 L 1360 -419 L 1341.333 -419 L 1328.167 -419.167 L 1320.5 -419.5 L 1312.833 -419.833 L 1299.667 -422 Z" fill="black" fill-opacity="0.25" stroke="black" stroke-width="4"/>
  <rect x="159" y="-729" width="271" height="224" fill="none" stroke="red" stroke-width="10" /><rect x="429" y="-729" width="272" height="224" fill="none" stroke="red" stroke-width="10" /><rect x="164" y="-393" width="1809" height="173" fill="none" stroke="red" stroke-width="10" /><rect x="777" y="-852" width="1106" height="374" fill="none" stroke="red" stroke-width="10" /><rect x="997" y="-741" width="512" height="322" fill="none" stroke="red" stroke-width="10" />
</svg>
