<svg xmlns="http://www.w3.org/2000/svg"
  viewBox="56.400000000000006 -883.4704125292188 1861.6476190470576 711.0493598980388">
  <rect x="56.400000000000006" y="-883.4704125292188" width="1861.6476190470576" height="711.0493598980388" fill="white"/>
  <path d="M 126.0 -712.0 L 146.0 -712.0 L 167.0 -711.666992188 L 189.0 -711.0 L 211.0 -710.333007812 L 230.666992188 -708.333007812 L 248.0 -705.0 L 260.666992188 -705.0 L 275.0 -688.0 L 291.0 -654.0 L 307.0 -620.0 L 324.666992188 -582.666992188 L 344.0 -542.0 L 349.333007812 -528.0 L 355.666992188 -520.0 L 363.0 -518.0 L 367.666992188 -516.0 L 371.5 -512.5 L 374.5 -507.5 L 377.5 -502.5 L 374.666992188 -498.0 L 366.0 -494.0 L 346.0 -490.0 L 325.5 -488.333007812 L 304.5 -489.0 L 283.5 -489.666992188 L 263.666992188 -491.333007812 L 245.0 -494.0 L 227.666992188 -502.0 L 213.0 -517.0 L 201.0 -539.0 L 189.0 -561.0 L 172.666992188 -600.666992188 L 152.0 -658.0 L 150.0 -661.333007812 L 146.333007812 -666.5 L 141.0 -673.5 L 135.666992188 -680.5 L 129.333007812 -684.666992188 L 122.0 -686.0 L 112.666992188 -687.333007812 L 107.5 -692.0 L 106.5 -700.0 L 105.5 -708.0 L 112.0 -712.0 Z M 396.0 -712.0 L 416.0 -712.0 L 437.0 -711.666992188 L 459.0 -711.0 L 481.0 -710.333007812 L 500.666992188 -708.333007812 L 518.0 -705.0 L 530.666992188 -705.0 L 545.0 -688.0 L 561.0 -654.0 L 577.0 -620.0 L 594.666992188 -582.666992188 L 614.0 -542.0 L 620.0 -528.0 L 626.333007812 -520.0 L 633.0 -518.0 L 638.333007812 -516.0 L 642.333007812 -512.5 L 645.0 -507.5 L 647.666992188 -502.5 L 645.0 -498.0 L 637.0 -494.0 L 616.333007812 -490.0 L 595.666992188 -488.333007812 L 575.0 -489.0 L 554.333007812 -489.666992188 L 534.333007812 -491.333007812 L 515.0 -494.0 L 497.666992188 -502.0 L 483.0 -517.0 L 471.0 -539.0 L 459.0 -561.0 L 443.0 -600.666992188 L 423.0 -658.0 L 421.0 -661.333007812 L 417.166992188 -666.5 L 411.5 -673.5 L 405.833007812 -680.5 L 399.666992188 -684.666992188 L 393.0 -686.0 L 383.666992188 -687.333007812 L 378.333007812 -692.0 L 377.0 -700.0 L 375.666992188 -708.0 L 382.0 -712.0 Z M 172.5 -384.0 L 176.166666667 -389.333333333 L 180.0 -392.166666667 L 184.0 -392.5 L 188.0 -392.833333333 L 192.5 -391.666666667 L 197.5 -389.0 L 202.5 -386.333333333 L 208.666666667 -383.166666667 L 216.0 -379.5 L 223.333333333 -375.833333333 L 232.666666667 -372.833333333 L 244.0 -370.5 L 255.333333333 -368.166666667 L 271.333333333 -367.0 L 292.0 -367.0 L 1677.0 -367.0 L 1695.66666667 -367.0 L 1712.66666667 -365.5 L 1728.0 -362.5 L 1743.33333333 -359.5 L 1757.33333333 -354.666666667 L 1770.0 -348.0 L 1782.66666667 -341.333333333 L 1792.5 -335.333333333 L 1799.5 -330.0 L 1806.5 -324.666666667 L 1816.16666667 -315.5 L 1828.5 -302.5 L 1840.83333333 -289.5 L 1851.33333333 -277.0 L 1860.0 -265.0 L 1868.66666667 -253.0 L 1870.33333333 -241.333333333 L 1865.0 -230.0 L 1859.66666667 -222.0 L 1853.5 -220.333333333 L 1846.5 -225.0 L 1839.5 -229.666666667 L 1831.33333333 -233.666666667 L 1822.0 -237.0 L 1812.66666667 -240.333333333 L 1802.5 -242.666666667 L 1791.5 -244.0 L 1780.5 -245.333333333 L 1763.33333333 -246.0 L 1740.0 -246.0 L 370.0 -246.0 L 354.666666667 -246.0 L 340.666666667 -247.0 L 328.0 -249.0 L 315.333333333 -251.0 L 305.5 -253.166666667 L 298.5 -255.5 L 291.5 -257.833333333 L 284.0 -261.0 L 276.0 -265.0 L 268.0 -269.0 L 259.5 -273.833333333 L 250.5 -279.5 L 241.5 -285.166666667 L 232.0 -293.166666667 L 222.0 -303.5 L 212.0 -313.833333333 L 201.833333333 -325.833333333 L 191.5 -339.5 L 181.166666667 -353.166666667 L 174.5 -362.666666667 L 171.5 -368.0 L 168.5 -373.333333333 L 168.833333333 -378.666666667 Z M 779.0 -662.0 L 753.666992188 -708.0 L 746.833007812 -747.333007812 L 758.5 -780.0 L 770.166992188 -812.666992188 L 791.0 -830.333007812 L 821.0 -833.0 L 840.333007812 -834.333007812 L 855.166992188 -832.833007812 L 865.5 -828.5 L 875.833007812 -824.166992188 L 885.0 -819.833007812 L 893.0 -815.5 L 901.0 -811.166992188 L 908.5 -806.5 L 915.5 -801.5 L 922.5 -796.5 L 929.0 -791.333007812 L 935.0 -786.0 L 941.0 -780.666992188 L 945.333007812 -775.833007812 L 948.0 -771.5 L 950.666992188 -767.166992188 L 951.833007812 -763.166992188 L 951.5 -759.5 L 951.166992188 -755.833007812 L 949.666992188 -753.166992188 L 947.0 -751.5 L 944.333007812 -749.833007812 L 937.166992188 -746.833007812 L 925.5 -742.5 L 913.833007812 -738.166992188 L 898.833007812 -730.666992188 L 880.5 -720.0 L 862.166992188 -709.333007812 L 853.333007812 -692.0 L 854.0 -668.0 L 854.0 -642.666992188 L 880.333007812 -618.833007812 L 933.0 -596.5 L 985.666992188 -574.166992188 L 1064.0 -565.0 L 1168.0 -569.0 L 1614.0 -593.0 L 1636.0 -593.0 L 1653.5 -591.5 L 1666.5 -588.5 L 1679.5 -585.5 L 1691.33300781 -581.666992188 L 1702.0 -577.0 L 1712.66699219 -572.333007812 L 1721.66699219 -567.666992188 L 1729.0 -563.0 L 1736.33300781 -558.333007812 L 1745.16699219 -551.666992188 L 1755.5 -543.0 L 1765.83300781 -534.333007812 L 1777.5 -523.0 L 1790.5 -509.0 L 1803.5 -495.0 L 1812.0 -484.666992188 L 1816.0 -478.0 L 1820.0 -471.333007812 L 1822.0 -464.833007812 L 1822.0 -458.5 L 1822.0 -452.166992188 L 1820.0 -448.0 L 1816.0 -446.0 L 1812.0 -444.0 L 1807.5 -443.0 L 1802.5 -443.0 L 1797.5 -443.0 L 1792.33300781 -444.0 L 1787.0 -446.0 L 1781.66699219 -448.0 L 1775.16699219 -450.166992188 L 1767.5 -452.5 L 1759.83300781 -454.833007812 L 1751.33300781 -457.5 L 1742.0 -460.5 L 1732.66699219 -463.5 L 1724.0 -465.666992188 L 1716.0 -467.0 L 1708.0 -468.333007812 L 1697.33300781 -469.333007812 L 1684.0 -470.0 L 1625.0 -475.0 L 1531.0 -471.666992188 L 1450.16699219 -472.666992188 L 1382.5 -478.0 L 1314.83300781 -483.333007812 L 1251.16699219 -490.0 L 1191.5 -498.0 L 1131.83300781 -506.0 L 1079.16699219 -514.666992188 L 1033.5 -524.0 L 987.833007812 -533.333007812 L 956.666992188 -541.0 L 940.0 -547.0 L 911.333007812 -559.0 L 885.833007812 -570.833007812 L 863.5 -582.5 L 841.166992188 -594.166992188 L 813.0 -620.666992188 Z" fill="black" fill-opacity="0.25" stroke="black" stroke-width="4.0"/>
  <rect x="105.0" y="-712.0" width="273.0" height="223.99999999999997" fill="none" stroke="red" stroke-width="10.0" /><rect x="376.0" y="-712.0" width="272.0" height="223.99999999999997" fill="none" stroke="red" stroke-width="10.0" /><rect x="169.0" y="-393.0" width="1701.0" height="173.00000000000003" fill="none" stroke="red" stroke-width="10.0" /><rect x="747.0" y="-834.0" width="1075.0000000000002" height="390.99999999999994" fill="none" stroke="red" stroke-width="10.0" />
</svg>
