<svg xmlns="http://www.w3.org/2000/svg"
  viewBox="9 -1213 1541.222 1040.579">
  <rect x="9" y="-1213" width="1541.222" height="1040.579" fill="white"/>
  <path d="M 85 -384 L 88.333 -389.333 L 92.167 -392.167 L 96.5 -392.5 L 100.833 -392.833 L 105.333 -391.667 L 110 -389 L 114.667 -386.333 L 120.667 -383.167 L 128 -379.5 L 135.333 -375.833 L 144.667 -372.833 L 156 -370.5 L 167.333 -368.167 L 183.333 -367 L 204 -367 L 1228 -367 L 1246.667 -367 L 1263.667 -365.5 L 1279 -362.5 L 1294.333 -359.5 L 1308.333 -354.667 L 1321 -348 L 1333.667 -341.333 L 1343.5 -335.333 L 1350.5 -330 L 1357.5 -324.667 L 1367 -315.5 L 1379 -302.5 L 1391 -289.5 L 1401.5 -277 L 1410.5 -265 L 1419.5 -253 L 1421.333 -241.333 L 1416 -230 L 1410.667 -222 L 1404.5 -220.333 L 1397.5 -225 L 1390.5 -229.667 L 1382.333 -233.667 L 1373 -237 L 1363.667 -240.333 L 1353.5 -242.667 L 1342.5 -244 L 1331.5 -245.333 L 1314.333 -246 L 1291 -246 L 282 -246 L 266.667 -246 L 252.667 -247 L 240 -249 L 227.333 -251 L 217.5 -253.167 L 210.5 -255.5 L 203.5 -257.833 L 196 -261 L 188 -265 L 180 -269 L 171.5 -273.833 L 162.5 -279.5 L 153.5 -285.167 L 144 -293.167 L 134 -303.5 L 124 -313.833 L 113.833 -325.833 L 103.5 -339.5 L 93.167 -353.167 L 86.667 -362.667 L 84 -368 L 81.333 -373.333 L 81.667 -378.667 Z M 1486 -1163 L 1496.667 -1161 L 1501.333 -1155.5 L 1500 -1146.5 L 1498.667 -1137.5 L 1491.667 -1132.667 L 1479 -1132 L 1465 -1127.333 L 1453.833 -1109.667 L 1445.5 -1079 L 1437.167 -1048.333 L 1428 -1016 L 1418 -982 L 1395.333 -902.667 L 1374.833 -838.333 L 1356.5 -789 L 1338.167 -739.667 L 1320.5 -705.167 L 1303.5 -685.5 L 1286.5 -665.833 L 1266.333 -650.667 L 1243 -640 L 1207 -624.667 L 1171.5 -613.333 L 1136.5 -606 L 1101.5 -598.667 L 1071 -595 L 1045 -595 L 1057.667 -565 L 1079 -544 L 1109 -532 L 1139 -520 L 1147.667 -507.333 L 1135 -494 L 1127.667 -486.667 L 1104.667 -496.333 L 1066 -523 L 1027.333 -549.667 L 1000.667 -576 L 986 -602 L 986 -618.667 L 992.833 -625.667 L 1006.5 -623 L 1020.167 -620.333 L 1034.667 -618.333 L 1050 -617 L 1065.333 -616.333 L 1081.333 -617.333 L 1098 -620 L 1114.667 -622.667 L 1136.667 -631 L 1164 -645 L 1177.333 -651.667 L 1189.833 -666.833 L 1201.5 -690.5 L 1213.167 -714.167 L 1223.833 -740.333 L 1233.5 -769 L 1243.167 -797.667 L 1251.333 -826.167 L 1258 -854.5 L 1264.667 -882.833 L 1273.5 -923.667 L 1284.5 -977 L 1295.5 -1030.333 L 1304.833 -1066 L 1312.5 -1084 L 1320.167 -1102 L 1331.167 -1116.667 L 1345.5 -1128 L 1359.833 -1139.333 L 1373.5 -1146.667 L 1386.5 -1150 L 1399.5 -1153.333 L 1414 -1155.667 L 1430 -1157 L 1446 -1158.333 L 1464.667 -1160.333 Z M 1022 -1163 L 1032.667 -1161 L 1037.333 -1155.5 L 1036 -1146.5 L 1034.667 -1137.5 L 1028 -1132.667 L 1016 -1132 L 1002 -1127.333 L 990.667 -1109.667 L 982 -1079 L 973.333 -1048.333 L 964.333 -1016 L 955 -982 L 932.333 -902.667 L 911.667 -838.333 L 893 -789 L 874.333 -739.667 L 856.5 -705.167 L 839.5 -685.5 L 822.5 -665.833 L 802.333 -650.667 L 779 -640 L 743 -624.667 L 707.5 -613.333 L 672.5 -606 L 637.5 -598.667 L 607.333 -595 L 582 -595 L 594.667 -565 L 615.833 -544 L 645.5 -532 L 675.167 -520 L 683.667 -507.333 L 671 -494 L 663.667 -486.667 L 640.667 -496.333 L 602 -523 L 563.333 -549.667 L 536.667 -576 L 522 -602 L 522 -618.667 L 528.833 -625.667 L 542.5 -623 L 556.167 -620.333 L 570.667 -618.333 L 586 -617 L 601.333 -616.333 L 617.333 -617.333 L 634 -620 L 650.667 -622.667 L 672.667 -631 L 700 -645 L 713.333 -651.667 L 725.833 -666.833 L 737.5 -690.5 L 749.167 -714.167 L 759.833 -740.333 L 769.5 -769 L 779.167 -797.667 L 787.333 -826.167 L 794 -854.5 L 800.667 -882.833 L 809.5 -923.667 L 820.5 -977 L 831.5 -1030.333 L 840.833 -1066 L 848.5 -1084 L 856.167 -1102 L 867.167 -1116.667 L 881.5 -1128 L 895.833 -1139.333 L 909.5 -1146.667 L 922.5 -1150 L 935.5 -1153.333 L 950 -1155.667 L 966 -1157 L 982 -1158.333 L 1000.667 -1160.333 Z M 558 -1163 L 568.667 -1161 L 573.333 -1155.5 L 572 -1146.5 L 570.667 -1137.5 L 564 -1132.667 L 552 -1132 L 538 -1127.333 L 526.667 -1109.667 L 518 -1079 L 509.333 -1048.333 L 500.333 -1016 L 491 -982 L 468.333 -902.667 L 447.667 -838.333 L 429 -789 L 410.333 -739.667 L 392.667 -705.167 L 376 -685.5 L 359.333 -665.833 L 339 -650.667 L 315 -640 L 279 -624.667 L 243.5 -613.333 L 208.5 -606 L 173.5 -598.667 L 143.333 -595 L 118 -595 L 130.667 -565 L 152 -544 L 182 -532 L 212 -520 L 220.667 -507.333 L 208 -494 L 200.667 -486.667 L 177.5 -496.333 L 138.5 -523 L 99.5 -549.667 L 73 -576 L 59 -602 L 59 -618.667 L 65.667 -625.667 L 79 -623 L 92.333 -620.333 L 107 -618.333 L 123 -617 L 138.333 -616.333 L 154.167 -617.333 L 170.5 -620 L 186.833 -622.667 L 208.667 -631 L 236 -645 L 249.333 -651.667 L 262 -666.833 L 274 -690.5 L 286 -714.167 L 296.667 -740.333 L 306 -769 L 315.333 -797.667 L 323.333 -826.167 L 330 -854.5 L 336.667 -882.833 L 345.5 -923.667 L 356.5 -977 L 367.5 -1030.333 L 376.833 -1066 L 384.5 -1084 L 392.167 -1102 L 403.167 -1116.667 L 417.5 -1128 L 431.833 -1139.333 L 445.667 -1146.667 L 459 -1150 L 472.333 -1153.333 L 486.833 -1155.667 L 502.5 -1157 L 518.167 -1158.333 L 536.667 -1160.333 Z" fill="black" fill-opacity="0.25" stroke="black" stroke-width="4"/>
  <rect x="81" y="-393" width="1340" height="173" fill="none" stroke="red" stroke-width="10" /><rect x="986" y="-715.4" width="339.7" height="223.8" fill="none" stroke="red" stroke-width="10" /><rect x="1213.7" y="-939.2" width="192.1" height="223.8" fill="none" stroke="red" stroke-width="10" /><rect x="1276.7" y="-1163" width="224.6" height="223.8" fill="none" stroke="red" stroke-width="10" /><rect x="522" y="-715.4" width="339.8" height="223.8" fill="none" stroke="red" stroke-width="10" /><rect x="749.7" y="-939.2" width="193.1" height="223.8" fill="none" stroke="red" stroke-width="10" /><rect x="812.7" y="-1163" width="224.6" height="223.8" fill="none" stroke="red" stroke-width="10" /><rect x="59" y="-715.4" width="338.9" height="223.8" fill="none" stroke="red" stroke-width="10" /><rect x="286.5" y="-939.2" width="192.3" height="223.8" fill="none" stroke="red" stroke-width="10" /><rect x="348.7" y="-1163" width="224.6" height="223.8" fill="none" stroke="red" stroke-width="10" />
</svg>
