<svg xmlns="http://www.w3.org/2000/svg"
  viewBox="32.222222222237036 -712.0 1392.8253968248207 539.57894736882">
  <rect x="32.222222222237036" y="-712.0" width="1392.8253968248207" height="539.57894736882" fill="white"/>
  <path d="M 753.0 -660.0 L 775.666666667 -660.0 L 799.5 -659.833333333 L 824.5 -659.5 L 849.5 -659.166666667 L 872.333333333 -657.666666667 L 893.0 -655.0 L 907.0 -655.0 L 920.333333333 -638.0 L 933.0 -604.0 L 945.666666667 -570.0 L 963.333333333 -536.0 L 986.0 -502.0 L 994.0 -490.0 L 1001.33333333 -483.666666667 L 1008.0 -483.0 L 1014.0 -481.666666667 L 1018.66666667 -478.833333333 L 1022.0 -474.5 L 1025.33333333 -470.166666667 L 1022.0 -466.333333333 L 1012.0 -463.0 L 988.666666667 -459.666666667 L 965.333333333 -458.333333333 L 942.0 -459.0 L 918.666666667 -459.666666667 L 896.333333333 -461.0 L 875.0 -463.0 L 854.333333333 -469.666666667 L 839.666666667 -485.166666667 L 831.0 -509.5 L 822.333333333 -533.833333333 L 806.333333333 -569.666666667 L 783.0 -617.0 L 776.333333333 -627.666666667 L 765.0 -634.333333333 L 749.0 -637.0 L 738.333333333 -638.333333333 L 732.333333333 -642.5 L 731.0 -649.5 L 729.666666667 -656.5 L 737.0 -660.0 Z M 504.0 -662.0 L 524.0 -662.0 L 545.0 -661.666666667 L 567.0 -661.0 L 589.0 -660.333333333 L 608.666666667 -658.666666667 L 626.0 -656.0 L 638.666666667 -656.0 L 652.0 -638.5 L 666.0 -603.5 L 680.0 -568.5 L 696.333333333 -534.333333333 L 715.0 -501.0 L 721.666666667 -489.0 L 728.0 -482.333333333 L 734.0 -481.0 L 739.333333333 -479.666666667 L 743.5 -477.0 L 746.5 -473.0 L 749.5 -469.0 L 746.666666667 -465.333333333 L 738.0 -462.0 L 717.333333333 -458.666666667 L 696.833333333 -457.333333333 L 676.5 -458.0 L 656.166666667 -458.666666667 L 636.666666667 -460.0 L 618.0 -462.0 L 600.666666667 -468.666666667 L 587.0 -484.333333333 L 577.0 -509.0 L 567.0 -533.666666667 L 551.666666667 -570.0 L 531.0 -618.0 L 529.0 -620.666666667 L 525.333333333 -624.833333333 L 520.0 -630.5 L 514.666666667 -636.166666667 L 508.333333333 -639.666666667 L 501.0 -641.0 L 491.666666667 -642.333333333 L 486.333333333 -646.0 L 485.0 -652.0 L 483.666666667 -658.0 L 490.0 -661.333333333 Z M 85.0 -384.0 L 88.3333333333 -389.333333333 L 92.1666666667 -392.166666667 L 96.5 -392.5 L 100.833333333 -392.833333333 L 105.333333333 -391.666666667 L 110.0 -389.0 L 114.666666667 -386.333333333 L 120.666666667 -383.166666667 L 128.0 -379.5 L 135.333333333 -375.833333333 L 144.666666667 -372.833333333 L 156.0 -370.5 L 167.333333333 -368.166666667 L 183.333333333 -367.0 L 204.0 -367.0 L 1184.0 -367.0 L 1202.66666667 -367.0 L 1219.66666667 -365.5 L 1235.0 -362.5 L 1250.33333333 -359.5 L 1264.33333333 -354.666666667 L 1277.0 -348.0 L 1289.66666667 -341.333333333 L 1299.5 -335.333333333 L 1306.5 -330.0 L 1313.5 -324.666666667 L 1323.16666667 -315.5 L 1335.5 -302.5 L 1347.83333333 -289.5 L 1358.33333333 -277.0 L 1367.0 -265.0 L 1375.66666667 -253.0 L 1377.33333333 -241.333333333 L 1372.0 -230.0 L 1366.66666667 -222.0 L 1360.5 -220.333333333 L 1353.5 -225.0 L 1346.5 -229.666666667 L 1338.33333333 -233.666666667 L 1329.0 -237.0 L 1319.66666667 -240.333333333 L 1309.5 -242.666666667 L 1298.5 -244.0 L 1287.5 -245.333333333 L 1270.33333333 -246.0 L 1247.0 -246.0 L 282.0 -246.0 L 266.666666667 -246.0 L 252.666666667 -247.0 L 240.0 -249.0 L 227.333333333 -251.0 L 217.5 -253.166666667 L 210.5 -255.5 L 203.5 -257.833333333 L 196.0 -261.0 L 188.0 -265.0 L 180.0 -269.0 L 171.5 -273.833333333 L 162.5 -279.5 L 153.5 -285.166666667 L 144.0 -293.166666667 L 134.0 -303.5 L 124.0 -313.833333333 L 113.833333333 -325.833333333 L 103.5 -339.5 L 93.1666666667 -353.166666667 L 86.6666666667 -362.666666667 L 84.0 -368.0 L 81.3333333333 -373.333333333 L 81.6666666667 -378.666666667 Z" fill="black" fill-opacity="0.25" stroke="black" stroke-width="4.0"/>
  <rect x="730.0" y="-660.0" width="294.99999999999994" height="202.0" fill="none" stroke="red" stroke-width="10.0" /><rect x="484.0" y="-662.0" width="266.0" height="205.00000000000003" fill="none" stroke="red" stroke-width="10.0" /><rect x="81.0" y="-393.0" width="1296.0" height="173.00000000000003" fill="none" stroke="red" stroke-width="10.0" />
</svg>
