<svg xmlns="http://www.w3.org/2000/svg"
  viewBox="32.222 -442.556 1436.755 553.094">
  <rect x="32.222" y="-442.556" width="1436.755" height="553.094" fill="white"/>
  <path d="M 825 -187 L 845 -187 L 866 -186.667 L 888 -186 L 910 -185.333 L 929.667 -183.333 L 947 -180 L 959.667 -180 L 973 -158.833 L 987 -116.5 L 1001 -74.167 L 1017.333 -32.333 L 1036 9 L 1042 23 L 1048.333 30.667 L 1055 32 L 1060.333 34 L 1064.5 37.5 L 1067.5 42.5 L 1070.5 47.5 L 1067.667 51.667 L 1059 55 L 1038.333 59 L 1017.667 60.833 L 997 60.5 L 976.333 60.167 L 956.667 58.333 L 938 55 L 920 47 L 906.167 28 L 896.5 -2 L 886.833 -32 L 872 -76 L 852 -134 L 850 -137.333 L 846.333 -142.333 L 841 -149 L 835.667 -155.667 L 829.333 -160 L 822 -162 L 812 -164 L 806.5 -168.667 L 805.5 -176 L 804.5 -183.333 L 811 -187 Z M 1095 -187 L 1115 -187 L 1136 -186.667 L 1158 -186 L 1180 -185.333 L 1199.667 -183.333 L 1217 -180 L 1229.667 -180 L 1243 -158.833 L 1257 -116.5 L 1271 -74.167 L 1287.667 -32.333 L 1307 9 L 1313 23 L 1319.333 30.667 L 1326 32 L 1331.333 34 L 1335.333 37.5 L 1338 42.5 L 1340.667 47.5 L 1337.667 51.667 L 1329 55 L 1309 59 L 1288.5 60.833 L 1267.5 60.5 L 1246.5 60.167 L 1226.667 58.333 L 1208 55 L 1190.667 47 L 1177 28 L 1167 -2 L 1157 -32 L 1142 -76 L 1122 -134 L 1120 -137.333 L 1116.333 -142.333 L 1111 -149 L 1105.667 -155.667 L 1099.333 -160 L 1092 -162 L 1082.667 -164 L 1077.333 -168.667 L 1076 -176 L 1074.667 -183.333 L 1081 -187 Z M 85 -384 L 88.333 -389.333 L 92.167 -392.167 L 96.5 -392.5 L 100.833 -392.833 L 105.333 -391.667 L 110 -389 L 114.667 -386.333 L 120.667 -383.167 L 128 -379.5 L 135.333 -375.833 L 144.667 -372.833 L 156 -370.5 L 167.333 -368.167 L 183.333 -367 L 204 -367 L 1228 -367 L 1246.667 -367 L 1263.667 -365.5 L 1279 -362.5 L 1294.333 -359.5 L 1308.333 -354.667 L 1321 -348 L 1333.667 -341.333 L 1343.5 -335.333 L 1350.5 -330 L 1357.5 -324.667 L 1367 -315.5 L 1379 -302.5 L 1391 -289.5 L 1401.5 -277 L 1410.5 -265 L 1419.5 -253 L 1421.333 -241.333 L 1416 -230 L 1410.667 -222 L 1404.5 -220.333 L 1397.5 -225 L 1390.5 -229.667 L 1382.333 -233.667 L 1373 -237 L 1363.667 -240.333 L 1353.5 -242.667 L 1342.5 -244 L 1331.5 -245.333 L 1314.333 -246 L 1291 -246 L 282 -246 L 266.667 -246 L 252.667 -247 L 240 -249 L 227.333 -251 L 217.5 -253.167 L 210.5 -255.5 L 203.5 -257.833 L 196 -261 L 188 -265 L 180 -269 L 171.5 -273.833 L 162.5 -279.5 L 153.5 -285.167 L 144 -293.167 L 134 -303.5 L 124 -313.833 L 113.833 -325.833 L 103.5 -339.5 L 93.167 -353.167 L 86.667 -362.667 L 84 -368 L 81.333 -373.333 L 81.667 -378.667 Z" fill="black" fill-opacity="0.25" stroke="black" stroke-width="4"/>
  <rect x="804" y="-187" width="267" height="248" fill="none" stroke="red" stroke-width="10" /><rect x="1075" y="-187" width="266" height="248" fill="none" stroke="red" stroke-width="10" /><rect x="81" y="-393" width="1340" height="173" fill="none" stroke="red" stroke-width="10" />
</svg>
