<svg xmlns="http://www.w3.org/2000/svg"
  viewBox="9.0 -1213.0 1541.222222221454 1040.57894736882">
  <rect x="9.0" y="-1213.0" width="1541.222222221454" height="1040.57894736882" fill="white"/>
  <path d="M 85.0 -384.0 L 88.3333333333 -389.333333333 L 92.1666666667 -392.166666667 L 96.5 -392.5 L 100.833333333 -392.833333333 L 105.333333333 -391.666666667 L 110.0 -389.0 L 114.666666667 -386.333333333 L 120.666666667 -383.166666667 L 128.0 -379.5 L 135.333333333 -375.833333333 L 144.666666667 -372.833333333 L 156.0 -370.5 L 167.333333333 -368.166666667 L 183.333333333 -367.0 L 204.0 -367.0 L 1228.0 -367.0 L 1246.66666667 -367.0 L 1263.66666667 -365.5 L 1279.0 -362.5 L 1294.33333333 -359.5 L 1308.33333333 -354.666666667 L 1321.0 -348.0 L 1333.66666667 -341.333333333 L 1343.5 -335.333333333 L 1350.5 -330.0 L 1357.5 -324.666666667 L 1367.0 -315.5 L 1379.0 -302.5 L 1391.0 -289.5 L 1401.5 -277.0 L 1410.5 -265.0 L 1419.5 -253.0 L 1421.33333333 -241.333333333 L 1416.0 -230.0 L 1410.66666667 -222.0 L 1404.5 -220.333333333 L 1397.5 -225.0 L 1390.5 -229.666666667 L 1382.33333333 -233.666666667 L 1373.0 -237.0 L 1363.66666667 -240.333333333 L 1353.5 -242.666666667 L 1342.5 -244.0 L 1331.5 -245.333333333 L 1314.33333333 -246.0 L 1291.0 -246.0 L 282.0 -246.0 L 266.666666667 -246.0 L 252.666666667 -247.0 L 240.0 -249.0 L 227.333333333 -251.0 L 217.5 -253.166666667 L 210.5 -255.5 L 203.5 -257.833333333 L 196.0 -261.0 L 188.0 -265.0 L 180.0 -269.0 L 171.5 -273.833333333 L 162.5 -279.5 L 153.5 -285.166666667 L 144.0 -293.166666667 L 134.0 -303.5 L 124.0 -313.833333333 L 113.833333333 -325.833333333 L 103.5 -339.5 L 93.1666666667 -353.166666667 L 86.6666666667 -362.666666667 L 84.0 -368.0 L 81.3333333333 -373.333333333 L 81.6666666667 -378.666666667 Z M 1486.0 -1163.0 L 1496.66666667 -1161.0 L 1501.33333333 -1155.5 L 1500.0 -1146.5 L 1498.66666667 -1137.5 L 1491.66666667 -1132.66666667 L 1479.0 -1132.0 L 1465.0 -1127.33333333 L 1453.83333333 -1109.66666667 L 1445.5 -1079.0 L 1437.16666667 -1048.33333333 L 1428.0 -1016.0 L 1418.0 -982.0 L 1395.33333333 -902.666666667 L 1374.83333333 -838.333333333 L 1356.5 -789.0 L 1338.16666667 -739.666666667 L 1320.5 -705.166666667 L 1303.5 -685.5 L 1286.5 -665.833333333 L 1266.33333333 -650.666666667 L 1243.0 -640.0 L 1207.0 -624.666666667 L 1171.5 -613.333333333 L 1136.5 -606.0 L 1101.5 -598.666666667 L 1071.0 -595.0 L 1045.0 -595.0 L 1057.66666667 -565.0 L 1079.0 -544.0 L 1109.0 -532.0 L 1139.0 -520.0 L 1147.66666667 -507.333333333 L 1135.0 -494.0 L 1127.66666667 -486.666666667 L 1104.66666667 -496.333333333 L 1066.0 -523.0 L 1027.33333333 -549.666666667 L 1000.66666667 -576.0 L 986.0 -602.0 L 986.0 -618.666666667 L 992.833333333 -625.666666667 L 1006.5 -623.0 L 1020.16666667 -620.333333333 L 1034.66666667 -618.333333333 L 1050.0 -617.0 L 1065.33333333 -616.333333333 L 1081.33333333 -617.333333333 L 1098.0 -620.0 L 1114.66666667 -622.666666667 L 1136.66666667 -631.0 L 1164.0 -645.0 L 1177.33333333 -651.666666667 L 1189.83333333 -666.833333333 L 1201.5 -690.5 L 1213.16666667 -714.166666667 L 1223.83333333 -740.333333333 L 1233.5 -769.0 L 1243.16666667 -797.666666667 L 1251.33333333 -826.166666667 L 1258.0 -854.5 L 1264.66666667 -882.833333333 L 1273.5 -923.666666667 L 1284.5 -977.0 L 1295.5 -1030.33333333 L 1304.83333333 -1066.0 L 1312.5 -1084.0 L 1320.16666667 -1102.0 L 1331.16666667 -1116.66666667 L 1345.5 -1128.0 L 1359.83333333 -1139.33333333 L 1373.5 -1146.66666667 L 1386.5 -1150.0 L 1399.5 -1153.33333333 L 1414.0 -1155.66666667 L 1430.0 -1157.0 L 1446.0 -1158.33333333 L 1464.66666667 -1160.33333333 Z M 1022.0 -1163.0 L 1032.66666667 -1161.0 L 1037.33333333 -1155.5 L 1036.0 -1146.5 L 1034.66666667 -1137.5 L 1028.0 -1132.66666667 L 1016.0 -1132.0 L 1002.0 -1127.33333333 L 990.666666667 -1109.66666667 L 982.0 -1079.0 L 973.333333333 -1048.33333333 L 964.333333333 -1016.0 L 955.0 -982.0 L 932.333333333 -902.666666667 L 911.666666667 -838.333333333 L 893.0 -789.0 L 874.333333333 -739.666666667 L 856.5 -705.166666667 L 839.5 -685.5 L 822.5 -665.833333333 L 802.333333333 -650.666666667 L 779.0 -640.0 L 743.0 -624.666666667 L 707.5 -613.333333333 L 672.5 -606.0 L 637.5 -598.666666667 L 607.333333333 -595.0 L 582.0 -595.0 L 594.666666667 -565.0 L 615.833333333 -544.0 L 645.5 -532.0 L 675.166666667 -520.0 L 683.666666667 -507.333333333 L 671.0 -494.0 L 663.666666667 -486.666666667 L 640.666666667 -496.333333333 L 602.0 -523.0 L 563.333333333 -549.666666667 L 536.666666667 -576.0 L 522.0 -602.0 L 522.0 -618.666666667 L 528.833333333 -625.666666667 L 542.5 -623.0 L 556.166666667 -620.333333333 L 570.666666667 -618.333333333 L 586.0 -617.0 L 601.333333333 -616.333333333 L 617.333333333 -617.333333333 L 634.0 -620.0 L 650.666666667 -622.666666667 L 672.666666667 -631.0 L 700.0 -645.0 L 713.333333333 -651.666666667 L 725.833333333 -666.833333333 L 737.5 -690.5 L 749.166666667 -714.166666667 L 759.833333333 -740.333333333 L 769.5 -769.0 L 779.166666667 -797.666666667 L 787.333333333 -826.166666667 L 794.0 -854.5 L 800.666666667 -882.833333333 L 809.5 -923.666666667 L 820.5 -977.0 L 831.5 -1030.33333333 L 840.833333333 -1066.0 L 848.5 -1084.0 L 856.166666667 -1102.0 L 867.166666667 -1116.66666667 L 881.5 -1128.0 L 895.833333333 -1139.33333333 L 909.5 -1146.66666667 L 922.5 -1150.0 L 935.5 -1153.33333333 L 950.0 -1155.66666667 L 966.0 -1157.0 L 982.0 -1158.33333333 L 1000.66666667 -1160.33333333 Z M 558.0 -1163.0 L 568.666666667 -1161.0 L 573.333333333 -1155.5 L 572.0 -1146.5 L 570.666666667 -1137.5 L 564.0 -1132.66666667 L 552.0 -1132.0 L 538.0 -1127.33333333 L 526.666666667 -1109.66666667 L 518.0 -1079.0 L 509.333333333 -1048.33333333 L 500.333333333 -1016.0 L 491.0 -982.0 L 468.333333333 -902.666666667 L 447.666666667 -838.333333333 L 429.0 -789.0 L 410.333333333 -739.666666667 L 392.666666667 -705.166666667 L 376.0 -685.5 L 359.333333333 -665.833333333 L 339.0 -650.666666667 L 315.0 -640.0 L 279.0 -624.666666667 L 243.5 -613.333333333 L 208.5 -606.0 L 173.5 -598.666666667 L 143.333333333 -595.0 L 118.0 -595.0 L 130.666666667 -565.0 L 152.0 -544.0 L 182.0 -532.0 L 212.0 -520.0 L 220.666666667 -507.333333333 L 208.0 -494.0 L 200.666666667 -486.666666667 L 177.5 -496.333333333 L 138.5 -523.0 L 99.5 -549.666666667 L 73.0 -576.0 L 59.0 -602.0 L 59.0 -618.666666667 L 65.6666666667 -625.666666667 L 79.0 -623.0 L 92.3333333333 -620.333333333 L 107.0 -618.333333333 L 123.0 -617.0 L 138.333333333 -616.333333333 L 154.166666667 -617.333333333 L 170.5 -620.0 L 186.833333333 -622.666666667 L 208.666666667 -631.0 L 236.0 -645.0 L 249.333333333 -651.666666667 L 262.0 -666.833333333 L 274.0 -690.5 L 286.0 -714.166666667 L 296.666666667 -740.333333333 L 306.0 -769.0 L 315.333333333 -797.666666667 L 323.333333333 -826.166666667 L 330.0 -854.5 L 336.666666667 -882.833333333 L 345.5 -923.666666667 L 356.5 -977.0 L 367.5 -1030.33333333 L 376.833333333 -1066.0 L 384.5 -1084.0 L 392.166666667 -1102.0 L 403.166666667 -1116.66666667 L 417.5 -1128.0 L 431.833333333 -1139.33333333 L 445.666666667 -1146.66666667 L 459.0 -1150.0 L 472.333333333 -1153.33333333 L 486.833333333 -1155.66666667 L 502.5 -1157.0 L 518.166666667 -1158.33333333 L 536.666666667 -1160.33333333 Z" fill="black" fill-opacity="0.25" stroke="black" stroke-width="4.0"/>
  <rect x="81.0" y="-393.0" width="1340.0" height="173.00000000000003" fill="none" stroke="red" stroke-width="10.0" /><rect x="986.0" y="-715.4000000000001" width="339.7000000000001" height="223.80000000000007" fill="none" stroke="red" stroke-width="10.0" /><rect x="1213.7" y="-939.2" width="192.09999999999994" height="223.8" fill="none" stroke="red" stroke-width="10.0" /><rect x="1276.7" y="-1163.0" width="224.60000000000014" height="223.8" fill="none" stroke="red" stroke-width="10.0" /><rect x="522.0" y="-715.4000000000001" width="339.8" height="223.80000000000007" fill="none" stroke="red" stroke-width="10.0" /><rect x="749.7" y="-939.2" width="193.09999999999994" height="223.8" fill="none" stroke="red" stroke-width="10.0" /><rect x="812.6999999999999" y="-1163.0" width="224.60000000000014" height="223.8" fill="none" stroke="red" stroke-width="10.0" /><rect x="59.0" y="-715.4000000000001" width="338.9" height="223.80000000000007" fill="none" stroke="red" stroke-width="10.0" /><rect x="286.5" y="-939.2" width="192.30000000000004" height="223.8" fill="none" stroke="red" stroke-width="10.0" /><rect x="348.7" y="-1163.0" width="224.60000000000002" height="223.8" fill="none" stroke="red" stroke-width="10.0" />
</svg>
