<svg xmlns="http://www.w3.org/2000/svg"
  viewBox="27.222 -770 1558.825 597.579">
  <rect x="27.222" y="-770" width="1558.825" height="597.579" fill="white"/>
  <path d="M 409 -711 L 429 -711 L 450 -710.667 L 472 -710 L 494 -709.333 L 513.667 -707.333 L 531 -704 L 543.667 -704 L 558 -687 L 574 -653 L 590 -619 L 607.667 -581.667 L 627 -541 L 632.333 -527 L 638.667 -519 L 646 -517 L 650.667 -515 L 654.5 -511.5 L 657.5 -506.5 L 660.5 -501.5 L 657.667 -497 L 649 -493 L 629 -489 L 608.5 -487.333 L 587.5 -488 L 566.5 -488.667 L 547 -490.333 L 529 -493 L 511.667 -501 L 496.833 -516 L 484.5 -538 L 472.167 -560 L 455.667 -599.667 L 435 -657 L 433 -660.333 L 429.333 -665.5 L 424 -672.5 L 418.667 -679.5 L 412.667 -683.667 L 406 -685 L 396.667 -686.333 L 391.333 -691 L 390 -699 L 388.667 -707 L 395 -711 Z M 139 -711 L 159 -711 L 180 -710.667 L 202 -710 L 224 -709.333 L 243.667 -707.333 L 261 -704 L 273.667 -704 L 288 -687 L 304 -653 L 320 -619 L 337.333 -581.667 L 356 -541 L 362 -527 L 368.333 -519 L 375 -517 L 380.333 -515 L 384.5 -511.5 L 387.5 -506.5 L 390.5 -501.5 L 387.667 -497 L 379 -493 L 358.333 -489 L 337.667 -487.333 L 317 -488 L 296.333 -488.667 L 276.667 -490.333 L 258 -493 L 240.667 -501 L 226 -516 L 214 -538 L 202 -560 L 185.667 -599.667 L 165 -657 L 163 -660.333 L 159.333 -665.5 L 154 -672.5 L 148.667 -679.5 L 142.333 -683.667 L 135 -685 L 125.667 -686.333 L 120.5 -691 L 119.5 -699 L 118.5 -707 L 125 -711 Z M 1371 -720 L 1386.333 -719.333 L 1393.5 -715.167 L 1392.5 -707.5 L 1391.5 -699.833 L 1385.333 -695 L 1374 -693 L 1365.333 -691.667 L 1358 -688.5 L 1352 -683.5 L 1346 -678.5 L 1342.333 -674.333 L 1341 -671 L 1317 -619 L 1298.5 -573.667 L 1285.5 -535 L 1272.5 -496.333 L 1256 -473.667 L 1236 -467 L 1214.667 -465 L 1192 -463.5 L 1168 -462.5 L 1144 -461.5 L 1120.667 -463 L 1098 -467 L 1088 -470.333 L 1084.667 -474.167 L 1088 -478.5 L 1091.333 -482.833 L 1096 -486 L 1102 -488 L 1108.667 -490 L 1116 -497 L 1124 -509 L 1147.333 -546.333 L 1167.333 -589.667 L 1184 -639 L 1200.667 -688.333 L 1216.333 -713 L 1231 -713 L 1251 -715.667 L 1273.5 -717.5 L 1298.5 -718.5 L 1323.5 -719.5 L 1347.667 -720 Z M 80 -384 L 83.333 -389.333 L 87.167 -392.167 L 91.5 -392.5 L 95.833 -392.833 L 100.333 -391.667 L 105 -389 L 109.667 -386.333 L 115.667 -383.167 L 123 -379.5 L 130.333 -375.833 L 139.667 -372.833 L 151 -370.5 L 162.333 -368.167 L 178.333 -367 L 199 -367 L 1345 -367 L 1363.667 -367 L 1380.667 -365.5 L 1396 -362.5 L 1411.333 -359.5 L 1425.333 -354.667 L 1438 -348 L 1450.667 -341.333 L 1460.5 -335.333 L 1467.5 -330 L 1474.5 -324.667 L 1484.167 -315.5 L 1496.5 -302.5 L 1508.833 -289.5 L 1519.333 -277 L 1528 -265 L 1536.667 -253 L 1538.333 -241.333 L 1533 -230 L 1527.667 -222 L 1521.5 -220.333 L 1514.5 -225 L 1507.5 -229.667 L 1499.333 -233.667 L 1490 -237 L 1480.667 -240.333 L 1470.5 -242.667 L 1459.5 -244 L 1448.5 -245.333 L 1431.333 -246 L 1408 -246 L 277 -246 L 261.667 -246 L 247.667 -247 L 235 -249 L 222.333 -251 L 212.5 -253.167 L 205.5 -255.5 L 198.5 -257.833 L 191 -261 L 183 -265 L 175 -269 L 166.667 -273.833 L 158 -279.5 L 149.333 -285.167 L 139.833 -293.167 L 129.5 -303.5 L 119.167 -313.833 L 108.833 -325.833 L 98.5 -339.5 L 88.167 -353.167 L 81.667 -362.667 L 79 -368 L 76.333 -373.333 L 76.667 -378.667 Z" fill="black" fill-opacity="0.25" stroke="black" stroke-width="4"/>
  <rect x="389" y="-711" width="271" height="224" fill="none" stroke="red" stroke-width="10" /><rect x="118" y="-711" width="273" height="224" fill="none" stroke="red" stroke-width="10" /><rect x="1085" y="-720" width="308" height="258" fill="none" stroke="red" stroke-width="10" /><rect x="76" y="-393" width="1462" height="173" fill="none" stroke="red" stroke-width="10" />
</svg>
