<svg xmlns="http://www.w3.org/2000/svg"
  viewBox="32.222222222237036 -985.9090909091652 1436.7545219623426 813.4880382779852">
  <rect x="32.222222222237036" y="-985.9090909091652" width="1436.7545219623426" height="813.4880382779852" fill="white"/>
  <path d="M 989.0 -530.0 L 998.0 -492.0 L 998.666666667 -489.333333333 L 1002.33333333 -482.833333333 L 1009.0 -472.5 L 1015.66666667 -462.166666667 L 1019.0 -455.666666667 L 1019.0 -453.0 L 1019.0 -450.333333333 L 1013.5 -448.0 L 1002.5 -446.0 L 991.5 -444.0 L 984.0 -443.0 L 980.0 -443.0 L 919.0 -443.0 L 911.0 -443.0 L 903.5 -448.666666667 L 896.5 -460.0 L 889.5 -471.333333333 L 885.0 -482.0 L 883.0 -492.0 L 875.0 -531.0 L 797.0 -531.0 L 725.333333333 -534.0 L 660.0 -540.0 L 594.666666667 -546.0 L 548.333333333 -551.333333333 L 521.0 -556.0 L 470.333333333 -564.0 L 428.5 -578.0 L 395.5 -598.0 L 362.5 -618.0 L 340.666666667 -640.666666667 L 330.0 -666.0 L 324.666666667 -678.666666667 L 315.0 -697.5 L 301.0 -722.5 L 287.0 -747.5 L 272.333333333 -772.666666667 L 257.0 -798.0 L 241.666666667 -823.333333333 L 227.166666667 -846.0 L 213.5 -866.0 L 199.833333333 -886.0 L 190.333333333 -897.333333333 L 185.0 -900.0 L 157.666666667 -909.333333333 L 151.666666667 -919.333333333 L 167.0 -930.0 L 201.0 -932.666666667 L 233.166666667 -934.5 L 263.5 -935.5 L 293.833333333 -936.5 L 325.0 -935.666666667 L 357.0 -933.0 L 389.0 -931.0 L 412.0 -912.666666667 L 426.0 -878.0 L 440.0 -843.333333333 L 453.666666667 -798.0 L 467.0 -742.0 L 481.0 -686.0 L 498.333333333 -647.833333333 L 519.0 -627.5 L 539.666666667 -607.166666667 L 575.0 -590.333333333 L 625.0 -577.0 L 653.0 -569.0 L 686.833333333 -564.0 L 726.5 -562.0 L 766.166666667 -560.0 L 814.666666667 -559.333333333 L 872.0 -560.0 L 859.0 -629.0 L 858.333333333 -632.333333333 L 855.0 -636.833333333 L 849.0 -642.5 L 843.0 -648.166666667 L 840.0 -652.333333333 L 840.0 -655.0 L 840.0 -659.0 L 845.5 -661.666666667 L 856.5 -663.0 L 867.5 -664.333333333 L 875.0 -665.0 L 879.0 -665.0 L 940.0 -665.0 L 947.333333333 -665.0 L 954.5 -659.833333333 L 961.5 -649.5 L 968.5 -639.166666667 L 973.333333333 -628.0 L 976.0 -616.0 L 986.0 -561.0 L 1030.66666667 -561.666666667 L 1061.16666667 -563.166666667 L 1077.5 -565.5 L 1093.83333333 -567.833333333 L 1111.0 -570.333333333 L 1129.0 -573.0 L 1136.33333333 -572.333333333 L 1140.83333333 -569.0 L 1142.5 -563.0 L 1144.16666667 -557.0 L 1142.66666667 -551.666666667 L 1138.0 -547.0 L 1131.33333333 -541.666666667 L 1117.66666667 -537.5 L 1097.0 -534.5 L 1076.33333333 -531.5 L 1040.33333333 -530.0 Z M 85.0 -384.0 L 88.3333333333 -389.333333333 L 92.1666666667 -392.166666667 L 96.5 -392.5 L 100.833333333 -392.833333333 L 105.333333333 -391.666666667 L 110.0 -389.0 L 114.666666667 -386.333333333 L 120.666666667 -383.166666667 L 128.0 -379.5 L 135.333333333 -375.833333333 L 144.666666667 -372.833333333 L 156.0 -370.5 L 167.333333333 -368.166666667 L 183.333333333 -367.0 L 204.0 -367.0 L 1228.0 -367.0 L 1246.66666667 -367.0 L 1263.66666667 -365.5 L 1279.0 -362.5 L 1294.33333333 -359.5 L 1308.33333333 -354.666666667 L 1321.0 -348.0 L 1333.66666667 -341.333333333 L 1343.5 -335.333333333 L 1350.5 -330.0 L 1357.5 -324.666666667 L 1367.0 -315.5 L 1379.0 -302.5 L 1391.0 -289.5 L 1401.5 -277.0 L 1410.5 -265.0 L 1419.5 -253.0 L 1421.33333333 -241.333333333 L 1416.0 -230.0 L 1410.66666667 -222.0 L 1404.5 -220.333333333 L 1397.5 -225.0 L 1390.5 -229.666666667 L 1382.33333333 -233.666666667 L 1373.0 -237.0 L 1363.66666667 -240.333333333 L 1353.5 -242.666666667 L 1342.5 -244.0 L 1331.5 -245.333333333 L 1314.33333333 -246.0 L 1291.0 -246.0 L 282.0 -246.0 L 266.666666667 -246.0 L 252.666666667 -247.0 L 240.0 -249.0 L 227.333333333 -251.0 L 217.5 -253.166666667 L 210.5 -255.5 L 203.5 -257.833333333 L 196.0 -261.0 L 188.0 -265.0 L 180.0 -269.0 L 171.5 -273.833333333 L 162.5 -279.5 L 153.5 -285.166666667 L 144.0 -293.166666667 L 134.0 -303.5 L 124.0 -313.833333333 L 113.833333333 -325.833333333 L 103.5 -339.5 L 93.1666666667 -353.166666667 L 86.6666666667 -362.666666667 L 84.0 -368.0 L 81.3333333333 -373.333333333 L 81.6666666667 -378.666666667 Z" fill="black" fill-opacity="0.25" stroke="black" stroke-width="4.0"/>
  <rect x="152.0" y="-936.0" width="991.9999999999999" height="493.00000000000006" fill="none" stroke="red" stroke-width="10.0" /><rect x="81.0" y="-393.0" width="1340.0" height="173.00000000000003" fill="none" stroke="red" stroke-width="10.0" />
</svg>
