<svg xmlns="http://www.w3.org/2000/svg"
  viewBox="109.4 -901.5216985344719 1911.5767441845794 729.1006459032918">
  <rect x="109.4" y="-901.5216985344719" width="1911.5767441845794" height="729.1006459032918" fill="white"/>
  <path d="M 179.0 -729.0 L 199.0 -729.0 L 220.0 -728.666992188 L 242.0 -728.0 L 264.0 -727.333007812 L 283.666992188 -725.333007812 L 301.0 -722.0 L 313.666992188 -722.0 L 328.0 -705.0 L 344.0 -671.0 L 360.0 -637.0 L 377.333007812 -599.666992188 L 396.0 -559.0 L 402.0 -545.0 L 408.333007812 -537.0 L 415.0 -535.0 L 420.333007812 -533.0 L 424.5 -529.5 L 427.5 -524.5 L 430.5 -519.5 L 427.666992188 -515.0 L 419.0 -511.0 L 398.333007812 -507.0 L 377.666992188 -505.333007812 L 357.0 -506.0 L 336.333007812 -506.666992188 L 316.666992188 -508.333007812 L 298.0 -511.0 L 280.0 -519.0 L 265.166992188 -534.0 L 253.5 -556.0 L 241.833007812 -578.0 L 225.666992188 -617.666992188 L 205.0 -675.0 L 203.0 -678.333007812 L 199.333007812 -683.5 L 194.0 -690.5 L 188.666992188 -697.5 L 182.333007812 -701.666992188 L 175.0 -703.0 L 165.666992188 -704.333007812 L 160.5 -709.0 L 159.5 -717.0 L 158.5 -725.0 L 165.0 -729.0 Z M 449.0 -729.0 L 469.0 -729.0 L 490.0 -728.666992188 L 512.0 -728.0 L 534.0 -727.333007812 L 553.666992188 -725.333007812 L 571.0 -722.0 L 583.666992188 -722.0 L 598.0 -705.0 L 614.0 -671.0 L 630.0 -637.0 L 647.666992188 -599.666992188 L 667.0 -559.0 L 673.0 -545.0 L 679.333007812 -537.0 L 686.0 -535.0 L 690.666992188 -533.0 L 694.5 -529.5 L 697.5 -524.5 L 700.5 -519.5 L 697.666992188 -515.0 L 689.0 -511.0 L 669.0 -507.0 L 648.5 -505.333007812 L 627.5 -506.0 L 606.5 -506.666992188 L 586.666992188 -508.333007812 L 568.0 -511.0 L 550.666992188 -519.0 L 536.0 -534.0 L 524.0 -556.0 L 512.0 -578.0 L 495.666992188 -617.666992188 L 475.0 -675.0 L 473.666992188 -678.333007812 L 470.166992188 -683.5 L 464.5 -690.5 L 458.833007812 -697.5 L 452.666992188 -701.666992188 L 446.0 -703.0 L 436.666992188 -704.333007812 L 431.333007812 -709.0 L 430.0 -717.0 L 428.666992188 -725.0 L 435.0 -729.0 Z M 168.0 -384.0 L 171.333333333 -389.333333333 L 175.166666667 -392.166666667 L 179.5 -392.5 L 183.833333333 -392.833333333 L 188.333333333 -391.666666667 L 193.0 -389.0 L 197.666666667 -386.333333333 L 203.666666667 -383.166666667 L 211.0 -379.5 L 218.333333333 -375.833333333 L 227.666666667 -372.833333333 L 239.0 -370.5 L 250.333333333 -368.166666667 L 266.333333333 -367.0 L 287.0 -367.0 L 1779.0 -367.0 L 1797.66666667 -367.0 L 1814.83333333 -365.5 L 1830.5 -362.5 L 1846.16666667 -359.5 L 1860.33333333 -354.666666667 L 1873.0 -348.0 L 1885.66666667 -341.333333333 L 1895.5 -335.333333333 L 1902.5 -330.0 L 1909.5 -324.666666667 L 1919.0 -315.5 L 1931.0 -302.5 L 1943.0 -289.5 L 1953.5 -277.0 L 1962.5 -265.0 L 1971.5 -253.0 L 1973.33333333 -241.333333333 L 1968.0 -230.0 L 1962.66666667 -222.0 L 1956.5 -220.333333333 L 1949.5 -225.0 L 1942.5 -229.666666667 L 1934.33333333 -233.666666667 L 1925.0 -237.0 L 1915.66666667 -240.333333333 L 1905.33333333 -242.666666667 L 1894.0 -244.0 L 1882.66666667 -245.333333333 L 1865.66666667 -246.0 L 1843.0 -246.0 L 365.0 -246.0 L 349.666666667 -246.0 L 335.666666667 -247.0 L 323.0 -249.0 L 310.333333333 -251.0 L 300.5 -253.166666667 L 293.5 -255.5 L 286.5 -257.833333333 L 279.0 -261.0 L 271.0 -265.0 L 263.0 -269.0 L 254.5 -273.833333333 L 245.5 -279.5 L 236.5 -285.166666667 L 227.0 -293.166666667 L 217.0 -303.5 L 207.0 -313.833333333 L 196.833333333 -325.833333333 L 186.5 -339.5 L 176.166666667 -353.166666667 L 169.666666667 -362.666666667 L 167.0 -368.0 L 164.333333333 -373.333333333 L 164.666666667 -378.666666667 Z M 1075.0 -487.0 L 1049.66699219 -477.666992188 L 1006.66699219 -478.333007812 L 946.0 -489.0 L 910.666992188 -497.666992188 L 879.5 -509.333007812 L 852.5 -524.0 L 825.5 -538.666992188 L 804.666992188 -564.333007812 L 790.0 -601.0 L 780.0 -636.333007812 L 776.666992188 -664.5 L 780.0 -685.5 L 783.333007812 -706.5 L 795.0 -731.0 L 815.0 -759.0 L 834.333007812 -782.333007812 L 856.833007812 -799.833007812 L 882.5 -811.5 L 908.166992188 -823.166992188 L 939.666992188 -833.0 L 977.0 -841.0 L 1014.33300781 -848.333007812 L 1044.66699219 -851.833007812 L 1068.0 -851.5 L 1091.33300781 -851.166992188 L 1116.66699219 -850.666992188 L 1144.0 -850.0 L 1170.66699219 -848.666992188 L 1195.5 -846.5 L 1218.5 -843.5 L 1241.5 -840.5 L 1269.33300781 -834.0 L 1302.0 -824.0 L 1356.0 -809.333007812 L 1409.33300781 -788.666992188 L 1462.0 -762.0 L 1491.33300781 -747.333007812 L 1522.5 -731.666992188 L 1555.5 -715.0 L 1588.5 -698.333007812 L 1625.33300781 -678.333007812 L 1666.0 -655.0 L 1684.66699219 -643.666992188 L 1705.16699219 -631.5 L 1727.5 -618.5 L 1749.83300781 -605.5 L 1773.66699219 -592.333007812 L 1799.0 -579.0 L 1818.33300781 -567.0 L 1837.5 -555.0 L 1856.5 -543.0 L 1875.5 -531.0 L 1883.5 -518.833007812 L 1880.5 -506.5 L 1877.5 -494.166992188 L 1870.33300781 -488.333007812 L 1859.0 -489.0 L 1847.66699219 -489.666992188 L 1811.83300781 -489.333007812 L 1751.5 -488.0 L 1691.16699219 -486.666992188 L 1638.66699219 -486.333007812 L 1594.0 -487.0 L 1576.0 -500.333007812 L 1576.16699219 -509.833007812 L 1594.5 -515.5 L 1612.83300781 -521.166992188 L 1626.66699219 -528.333007812 L 1636.0 -537.0 L 1652.66699219 -554.333007812 L 1660.0 -568.166992188 L 1658.0 -578.5 L 1656.0 -588.833007812 L 1653.16699219 -596.833007812 L 1649.5 -602.5 L 1645.83300781 -608.166992188 L 1640.33300781 -614.166992188 L 1633.0 -620.5 L 1625.66699219 -626.833007812 L 1607.5 -640.0 L 1578.5 -660.0 L 1549.5 -680.0 L 1513.66699219 -701.0 L 1471.0 -723.0 L 1432.33300781 -739.666992188 L 1402.0 -753.333007812 L 1380.0 -764.0 L 1358.0 -774.666992188 L 1322.33300781 -786.666992188 L 1273.0 -800.0 L 1236.33300781 -807.333007812 L 1199.0 -811.833007812 L 1161.0 -813.5 L 1123.0 -815.166992188 L 1084.33300781 -809.666992188 L 1045.0 -797.0 L 1017.66699219 -785.0 L 998.5 -774.666992188 L 987.5 -766.0 L 976.5 -757.333007812 L 964.0 -742.666992188 L 950.0 -722.0 L 938.0 -702.0 L 931.166992188 -685.0 L 929.5 -671.0 L 927.833007812 -657.0 L 927.666992188 -641.0 L 929.0 -623.0 L 929.666992188 -604.333007812 L 931.833007812 -590.833007812 L 935.5 -582.5 L 939.166992188 -574.166992188 L 943.833007812 -565.666992188 L 949.5 -557.0 L 955.166992188 -548.333007812 L 962.5 -540.5 L 971.5 -533.5 L 980.5 -526.5 L 994.333007812 -521.5 L 1013.0 -518.5 L 1031.66699219 -515.5 L 1050.0 -513.333007812 L 1068.0 -512.0 L 1076.0 -510.666992188 L 1081.16699219 -507.333007812 L 1083.5 -502.0 L 1085.83300781 -496.666992188 L 1083.0 -491.666992188 Z M 1281.0 -426.0 L 1274.33300781 -431.333007812 L 1273.83300781 -436.333007812 L 1279.5 -441.0 L 1285.16699219 -445.666992188 L 1292.66699219 -448.0 L 1302.0 -448.0 L 1312.0 -448.0 L 1325.66699219 -456.666992188 L 1343.0 -474.0 L 1360.33300781 -491.333007812 L 1372.0 -513.333007812 L 1378.0 -540.0 L 1387.33300781 -584.0 L 1364.33300781 -620.0 L 1309.0 -648.0 L 1287.66699219 -658.0 L 1261.0 -667.0 L 1229.0 -675.0 L 1197.0 -683.0 L 1165.33300781 -690.166992188 L 1134.0 -696.5 L 1102.66699219 -702.833007812 L 1075.0 -707.833007812 L 1051.0 -711.5 L 1027.0 -715.166992188 L 1013.0 -718.0 L 1009.0 -720.0 L 1000.33300781 -723.333007812 L 997.0 -727.666992188 L 999.0 -733.0 L 1001.0 -738.333007812 L 1005.33300781 -741.0 L 1012.0 -741.0 L 1015.33300781 -741.0 L 1028.83300781 -739.666992188 L 1052.5 -737.0 L 1076.16699219 -734.333007812 L 1104.5 -730.166992188 L 1137.5 -724.5 L 1170.5 -718.833007812 L 1205.16699219 -711.833007812 L 1241.5 -703.5 L 1277.83300781 -695.166992188 L 1311.0 -685.0 L 1341.0 -673.0 L 1376.33300781 -659.0 L 1404.66699219 -645.0 L 1426.0 -631.0 L 1447.33300781 -617.0 L 1466.66699219 -598.333007812 L 1484.0 -575.0 L 1501.33300781 -551.0 L 1508.66699219 -527.333007812 L 1506.0 -504.0 L 1503.33300781 -480.666992188 L 1493.33300781 -462.333007812 L 1476.0 -449.0 L 1460.0 -437.0 L 1441.33300781 -429.0 L 1420.0 -425.0 L 1398.66699219 -421.0 L 1378.66699219 -419.0 L 1360.0 -419.0 L 1341.33300781 -419.0 L 1328.16699219 -419.166992188 L 1320.5 -419.5 L 1312.83300781 -419.833007812 L 1299.66699219 -422.0 Z" fill="black" fill-opacity="0.25" stroke="black" stroke-width="4.0"/>
  <rect x="159.0" y="-729.0" width="271.0" height="223.99999999999997" fill="none" stroke="red" stroke-width="10.0" /><rect x="429.0" y="-729.0" width="271.99999999999994" height="223.99999999999997" fill="none" stroke="red" stroke-width="10.0" /><rect x="164.0" y="-393.0" width="1809.0000000000002" height="173.00000000000003" fill="none" stroke="red" stroke-width="10.0" /><rect x="777.0" y="-852.0" width="1105.9999999999998" height="374.0" fill="none" stroke="red" stroke-width="10.0" /><rect x="997.0" y="-741.0" width="511.9999999999999" height="322.0" fill="none" stroke="red" stroke-width="10.0" />
</svg>
