<svg xmlns="http://www.w3.org/2000/svg"
  viewBox="23.886 -1393 1277.336 1309.522">
  <rect x="23.886" y="-1393" width="1277.336" height="1309.522" fill="white"/>
  <path d="M 456 -707 L 476 -707 L 497 -706.667 L 519 -706 L 541 -705.333 L 560.667 -703.333 L 578 -700 L 590.667 -700 L 604 -678.667 L 618 -636 L 632 -593.333 L 648.333 -552 L 667 -512 L 673 -498 L 679.333 -490 L 686 -488 L 691.333 -486.667 L 695.5 -483.333 L 698.5 -478 L 701.5 -472.667 L 698.667 -468 L 690 -464 L 669.333 -460 L 648.667 -458.333 L 628 -459 L 607.333 -459.667 L 587.667 -461.333 L 569 -464 L 551.667 -472 L 538 -491.167 L 528 -521.5 L 518 -551.833 L 502.667 -596 L 482 -654 L 480.667 -657.333 L 477.167 -662.333 L 471.5 -669 L 465.833 -675.667 L 459.667 -679.667 L 453 -681 L 443.667 -683 L 438.333 -687.833 L 437 -695.5 L 435.667 -703.167 L 442 -707 Z M 880 -498 L 905.333 -507.333 L 948.333 -506.667 L 1009 -496 L 1044.333 -487.333 L 1075.5 -475.667 L 1102.5 -461 L 1129.5 -446.333 L 1150.333 -420.667 L 1165 -384 L 1175 -348.667 L 1178.333 -320.5 L 1175 -299.5 L 1171.667 -278.5 L 1160 -254 L 1140 -226 L 1120.667 -202.667 L 1098.167 -185.167 L 1072.5 -173.5 L 1046.833 -161.833 L 1015.333 -152 L 978 -144 L 940.667 -136.667 L 910.333 -133.167 L 887 -133.5 L 863.667 -133.833 L 838.333 -134.333 L 811 -135 L 784.333 -136.333 L 759.5 -138.5 L 736.5 -141.5 L 713.5 -144.5 L 685.667 -151 L 653 -161 L 599 -175.667 L 545.667 -196 L 493 -222 L 463.667 -236.667 L 432.5 -252.5 L 399.5 -269.5 L 366.5 -286.5 L 329.667 -306.667 L 289 -330 L 270.333 -341.333 L 249.833 -353.5 L 227.5 -366.5 L 205.167 -379.5 L 181.333 -392.667 L 156 -406 L 136.667 -418 L 117.5 -430 L 98.5 -442 L 79.5 -454 L 71.5 -466.167 L 74.5 -478.5 L 77.5 -490.833 L 84.667 -496.667 L 96 -496 L 107.333 -495.333 L 143 -495.667 L 203 -497 L 263 -498.333 L 315.667 -498.667 L 361 -498 L 379 -484.667 L 378.833 -475.167 L 360.5 -469.5 L 342.167 -463.833 L 328.333 -456.667 L 319 -448 L 302.333 -430.667 L 295 -416.833 L 297 -406.5 L 299 -396.167 L 301.833 -388.167 L 305.5 -382.5 L 309.167 -376.833 L 314.667 -370.833 L 322 -364.5 L 329.333 -358.167 L 347.333 -345 L 376 -325 L 404.667 -305 L 440.667 -284 L 484 -262 L 522.667 -245.333 L 553 -231.667 L 575 -221 L 597 -210.333 L 632.667 -198.333 L 682 -185 L 718.667 -177.667 L 756 -173.167 L 794 -171.5 L 832 -169.833 L 870.667 -175.333 L 910 -188 L 937.333 -200 L 956.5 -210.333 L 967.5 -219 L 978.5 -227.667 L 991 -242.333 L 1005 -263 L 1017 -283 L 1023.833 -300 L 1025.5 -314 L 1027.167 -328 L 1027.333 -344 L 1026 -362 L 1025.333 -380.667 L 1023.167 -394.167 L 1019.5 -402.5 L 1015.833 -410.833 L 1011.167 -419.333 L 1005.5 -428 L 999.833 -436.667 L 992.5 -444.5 L 983.5 -451.5 L 974.5 -458.5 L 960.667 -463.333 L 942 -466 L 923.333 -468.667 L 905 -471 L 887 -473 L 879 -474.333 L 873.833 -477.667 L 871.5 -483 L 869.167 -488.333 L 872 -493.333 Z M 1237 -1222 L 1247.667 -1220 L 1252.333 -1214.5 L 1251 -1205.5 L 1249.667 -1196.5 L 1242.667 -1191.333 L 1230 -1190 L 1216 -1185.333 L 1204.833 -1167.833 L 1196.5 -1137.5 L 1188.167 -1107.167 L 1179 -1075 L 1169 -1041 L 1146.333 -961.667 L 1125.833 -897.333 L 1107.5 -848 L 1089.167 -798.667 L 1071.5 -764 L 1054.5 -744 L 1037.5 -724 L 1017.333 -709 L 994 -699 L 958 -683.667 L 922.5 -672.167 L 887.5 -664.5 L 852.5 -656.833 L 822 -653 L 796 -653 L 808.667 -623 L 830 -602.167 L 860 -590.5 L 890 -578.833 L 898.667 -566.333 L 886 -553 L 878.667 -545.667 L 855.667 -555.333 L 817 -582 L 778.333 -608.667 L 751.667 -635 L 737 -661 L 737 -677.667 L 743.833 -684.667 L 757.5 -682 L 771.167 -679.333 L 785.667 -677.333 L 801 -676 L 816.333 -675.333 L 832.333 -676.167 L 849 -678.5 L 865.667 -680.833 L 887.667 -689 L 915 -703 L 928.333 -709.667 L 940.833 -724.833 L 952.5 -748.5 L 964.167 -772.167 L 974.833 -798.5 L 984.5 -827.5 L 994.167 -856.5 L 1002.333 -885.167 L 1009 -913.5 L 1015.667 -941.833 L 1024.5 -982.667 L 1035.5 -1036 L 1046.5 -1089.333 L 1055.833 -1125 L 1063.5 -1143 L 1071.167 -1161 L 1082.167 -1175.5 L 1096.5 -1186.5 L 1110.833 -1197.5 L 1124.5 -1204.667 L 1137.5 -1208 L 1150.5 -1211.333 L 1165 -1213.833 L 1181 -1215.5 L 1197 -1217.167 L 1215.667 -1219.333 Z M 863 -1343 L 873 -1341.667 L 877.5 -1337.167 L 876.5 -1329.5 L 875.5 -1321.833 L 869 -1317.333 L 857 -1316 L 844.333 -1312 L 834 -1297.167 L 826 -1271.5 L 818 -1245.833 L 809.667 -1218.667 L 801 -1190 L 780.333 -1122.667 L 761.333 -1068.333 L 744 -1027 L 726.667 -985.667 L 710.167 -956.667 L 694.5 -940 L 678.833 -923.333 L 660.333 -910.667 L 639 -902 L 605.667 -888.667 L 572.833 -879 L 540.5 -873 L 508.167 -867 L 480 -864 L 456 -864 L 468 -838 L 487.833 -820.167 L 515.5 -810.5 L 543.167 -800.833 L 551 -790.333 L 539 -779 L 532.333 -773 L 511 -781.167 L 475 -803.5 L 439 -825.833 L 414.333 -848 L 401 -870 L 401 -884 L 407.333 -889.833 L 420 -887.5 L 432.667 -885.167 L 446 -883.667 L 460 -883 L 474.667 -882.333 L 489.5 -883 L 504.5 -885 L 519.5 -887 L 539.667 -894 L 565 -906 L 577.667 -912 L 589.5 -924.833 L 600.5 -944.5 L 611.5 -964.167 L 621.5 -986.167 L 630.5 -1010.5 L 639.5 -1034.833 L 647 -1058.833 L 653 -1082.5 L 659 -1106.167 L 667 -1140.5 L 677 -1185.5 L 687 -1230.5 L 695.667 -1260.667 L 703 -1276 L 710.333 -1291.333 L 720.5 -1303.667 L 733.5 -1313 L 746.5 -1322.333 L 759.167 -1328.5 L 771.5 -1331.5 L 783.833 -1334.5 L 797.333 -1336.667 L 812 -1338 L 826.667 -1339.333 L 843.667 -1341 Z" fill="black" fill-opacity="0.25" stroke="black" stroke-width="4"/>
  <rect x="436" y="-707" width="266" height="249" fill="none" stroke="red" stroke-width="10" /><rect x="71" y="-507" width="1107" height="374" fill="none" stroke="red" stroke-width="10" /><rect x="737" y="-774.4" width="339.8" height="223.8" fill="none" stroke="red" stroke-width="10" /><rect x="965.1" y="-998.2" width="191.7" height="223.8" fill="none" stroke="red" stroke-width="10" /><rect x="1027.7" y="-1222" width="224.6" height="223.8" fill="none" stroke="red" stroke-width="10" /><rect x="401" y="-965.7" width="314.3" height="188.6" fill="none" stroke="red" stroke-width="10" /><rect x="612.2" y="-1154.4" width="177.9" height="188.7" fill="none" stroke="red" stroke-width="10" /><rect x="670.1" y="-1343" width="207.4" height="188.6" fill="none" stroke="red" stroke-width="10" />
</svg>
