<svg xmlns="http://www.w3.org/2000/svg"
  viewBox="23.886 -1272 1202.364 1188.522">
  <rect x="23.886" y="-1272" width="1202.364" height="1188.522" fill="white"/>
  <path d="M 880 -498 L 905.333 -507.333 L 948.333 -506.667 L 1009 -496 L 1044.333 -486.667 L 1075.5 -474.833 L 1102.5 -460.5 L 1129.5 -446.167 L 1150.333 -420.667 L 1165 -384 L 1175 -348.667 L 1178.333 -320.333 L 1175 -299 L 1171.667 -277.667 L 1160 -253.333 L 1140 -226 L 1120.667 -202.667 L 1098.167 -185.167 L 1072.5 -173.5 L 1046.833 -161.833 L 1015.333 -152 L 978 -144 L 940.667 -136.667 L 910.333 -133.167 L 887 -133.5 L 863.667 -133.833 L 838.333 -134.333 L 811 -135 L 784.333 -136.333 L 759.5 -138.5 L 736.5 -141.5 L 713.5 -144.5 L 685.667 -151 L 653 -161 L 599 -175.667 L 545.667 -196 L 493 -222 L 463.667 -236.667 L 432.5 -252.5 L 399.5 -269.5 L 366.5 -286.5 L 329.667 -306.667 L 289 -330 L 270.333 -341.333 L 249.833 -353.5 L 227.5 -366.5 L 205.167 -379.5 L 181.333 -392.667 L 156 -406 L 136.667 -418 L 117.5 -430.167 L 98.5 -442.5 L 79.5 -454.833 L 71.5 -467.167 L 74.5 -479.5 L 77.5 -491.833 L 84.667 -497.667 L 96 -497 L 107.333 -496.333 L 143 -496.5 L 203 -497.5 L 263 -498.5 L 315.667 -498.667 L 361 -498 L 379 -484.667 L 378.833 -475.167 L 360.5 -469.5 L 342.167 -463.833 L 328.333 -456.667 L 319 -448 L 302.333 -430.667 L 295 -416.833 L 297 -406.5 L 299 -396.167 L 301.833 -388.167 L 305.5 -382.5 L 309.167 -376.833 L 314.667 -370.833 L 322 -364.5 L 329.333 -358.167 L 347.333 -345 L 376 -325 L 404.667 -305 L 440.667 -284 L 484 -262 L 522.667 -245.333 L 553 -231.667 L 575 -221 L 597 -210.333 L 632.667 -198.333 L 682 -185 L 718.667 -177.667 L 756 -173.167 L 794 -171.5 L 832 -169.833 L 870.667 -175.333 L 910 -188 L 937.333 -200 L 956.5 -210.333 L 967.5 -219 L 978.5 -227.667 L 991 -242.333 L 1005 -263 L 1017 -283 L 1023.833 -300 L 1025.5 -314 L 1027.167 -328 L 1027.333 -344 L 1026 -362 L 1025.333 -380.667 L 1023.167 -394.167 L 1019.5 -402.5 L 1015.833 -410.833 L 1011.167 -419.333 L 1005.5 -428 L 999.833 -436.667 L 992.5 -444.5 L 983.5 -451.5 L 974.5 -458.5 L 960.667 -463.333 L 942 -466 L 923.333 -468.667 L 905 -471 L 887 -473 L 879 -474.333 L 873.833 -477.667 L 871.5 -483 L 869.167 -488.333 L 872 -493.333 Z M 666 -1222 L 676.667 -1220 L 681.333 -1214.5 L 680 -1205.5 L 678.667 -1196.5 L 671.667 -1191.333 L 659 -1190 L 645 -1185.333 L 633.833 -1167.833 L 625.5 -1137.5 L 617.167 -1107.167 L 608 -1075 L 598 -1041 L 575.333 -961.667 L 554.667 -897.333 L 536 -848 L 517.333 -798.667 L 499.667 -764 L 483 -744 L 466.333 -724 L 446.333 -709 L 423 -699 L 387 -683.667 L 351.5 -672.167 L 316.5 -664.5 L 281.5 -656.833 L 251 -653 L 225 -653 L 237.667 -623 L 259 -602.167 L 289 -590.5 L 319 -578.833 L 327.667 -566.333 L 315 -553 L 307.667 -545.667 L 284.667 -555.333 L 246 -582 L 207.333 -608.667 L 180.667 -635 L 166 -661 L 166 -677.667 L 172.833 -684.667 L 186.5 -682 L 200.167 -679.333 L 214.667 -677.333 L 230 -676 L 245.333 -675.333 L 261.167 -676.167 L 277.5 -678.5 L 293.833 -680.833 L 315.667 -689 L 343 -703 L 356.333 -709.667 L 369 -724.833 L 381 -748.5 L 393 -772.167 L 403.833 -798.5 L 413.5 -827.5 L 423.167 -856.5 L 431.333 -885.167 L 438 -913.5 L 444.667 -941.833 L 453.333 -982.667 L 464 -1036 L 474.667 -1089.333 L 484 -1125 L 492 -1143 L 500 -1161 L 511.167 -1175.5 L 525.5 -1186.5 L 539.833 -1197.5 L 553.5 -1204.667 L 566.5 -1208 L 579.5 -1211.333 L 594 -1213.833 L 610 -1215.5 L 626 -1217.167 L 644.667 -1219.333 Z" fill="black" fill-opacity="0.25" stroke="black" stroke-width="4"/>
  <rect x="71" y="-507" width="1107" height="374" fill="none" stroke="red" stroke-width="10" /><rect x="166" y="-774.4" width="339" height="223.8" fill="none" stroke="red" stroke-width="10" /><rect x="393.9" y="-998.2" width="191.9" height="223.8" fill="none" stroke="red" stroke-width="10" /><rect x="456.4" y="-1222" width="224.9" height="223.8" fill="none" stroke="red" stroke-width="10" />
</svg>
