<svg xmlns="http://www.w3.org/2000/svg"
  viewBox="26.981981981909826 -1025.499999999875 1279.2678806883532 942.021698534347">
  <rect x="26.981981981909826" y="-1025.499999999875" width="1279.2678806883532" height="942.021698534347" fill="white"/>
  <path d="M 960.0 -498.0 L 985.333007812 -507.333007812 L 1028.33300781 -506.666992188 L 1089.0 -496.0 L 1124.33300781 -486.666992188 L 1155.5 -474.833007812 L 1182.5 -460.5 L 1209.5 -446.166992188 L 1230.33300781 -420.666992188 L 1245.0 -384.0 L 1255.0 -348.666992188 L 1258.33300781 -320.333007812 L 1255.0 -299.0 L 1251.66699219 -277.666992188 L 1240.0 -253.333007812 L 1220.0 -226.0 L 1200.66699219 -202.666992188 L 1178.16699219 -185.166992188 L 1152.5 -173.5 L 1126.83300781 -161.833007812 L 1095.0 -152.0 L 1057.0 -144.0 L 1019.66699219 -136.666992188 L 989.333007812 -133.166992188 L 966.0 -133.5 L 942.666992188 -133.833007812 L 917.666992188 -134.333007812 L 891.0 -135.0 L 864.333007812 -136.333007812 L 839.5 -138.5 L 816.5 -141.5 L 793.5 -144.5 L 765.666992188 -151.0 L 733.0 -161.0 L 679.0 -175.666992188 L 625.666992188 -196.0 L 573.0 -222.0 L 543.666992188 -236.666992188 L 512.333007812 -252.5 L 479.0 -269.5 L 445.666992188 -286.5 L 408.666992188 -306.666992188 L 368.0 -330.0 L 349.333007812 -341.333007812 L 329.0 -353.5 L 307.0 -366.5 L 285.0 -379.5 L 261.333007812 -392.666992188 L 236.0 -406.0 L 216.666992188 -418.0 L 197.5 -430.166992188 L 178.5 -442.5 L 159.5 -454.833007812 L 151.5 -467.166992188 L 154.5 -479.5 L 157.5 -491.833007812 L 164.666992188 -497.666992188 L 176.0 -497.0 L 187.333007812 -496.333007812 L 223.0 -496.5 L 283.0 -497.5 L 343.0 -498.5 L 395.666992188 -498.666992188 L 441.0 -498.0 L 459.0 -484.666992188 L 458.666992188 -475.166992188 L 440.0 -469.5 L 421.333007812 -463.833007812 L 407.666992188 -456.666992188 L 399.0 -448.0 L 382.333007812 -430.666992188 L 375.0 -416.833007812 L 377.0 -406.5 L 379.0 -396.166992188 L 381.666992188 -388.166992188 L 385.0 -382.5 L 388.333007812 -376.833007812 L 393.666992188 -370.833007812 L 401.0 -364.5 L 408.333007812 -358.166992188 L 426.5 -345.0 L 455.5 -325.0 L 484.5 -305.0 L 520.666992188 -284.0 L 564.0 -262.0 L 602.666992188 -245.333007812 L 633.0 -231.666992188 L 655.0 -221.0 L 677.0 -210.333007812 L 712.666992188 -198.333007812 L 762.0 -185.0 L 798.666992188 -177.666992188 L 836.0 -173.166992188 L 874.0 -171.5 L 912.0 -169.833007812 L 950.666992188 -175.333007812 L 990.0 -188.0 L 1017.33300781 -200.0 L 1036.5 -210.333007812 L 1047.5 -219.0 L 1058.5 -227.666992188 L 1071.0 -242.333007812 L 1085.0 -263.0 L 1097.0 -283.0 L 1103.83300781 -300.0 L 1105.5 -314.0 L 1107.16699219 -328.0 L 1107.33300781 -344.0 L 1106.0 -362.0 L 1105.33300781 -380.666992188 L 1103.16699219 -394.166992188 L 1099.5 -402.5 L 1095.83300781 -410.833007812 L 1091.0 -419.333007812 L 1085.0 -428.0 L 1079.0 -436.666992188 L 1071.66699219 -444.5 L 1063.0 -451.5 L 1054.33300781 -458.5 L 1040.66699219 -463.333007812 L 1022.0 -466.0 L 1003.33300781 -468.666992188 L 985.0 -471.0 L 967.0 -473.0 L 959.0 -474.333007812 L 953.833007812 -477.666992188 L 951.5 -483.0 L 949.166992188 -488.333007812 L 952.0 -493.333007812 Z M 103.0 -804.0 L 77.6666666667 -850.0 L 70.8333333333 -889.5 L 82.5 -922.5 L 94.1666666667 -955.5 L 115.0 -973.0 L 145.0 -975.0 L 164.333333333 -976.333333333 L 179.166666667 -975.0 L 189.5 -971.0 L 199.833333333 -967.0 L 209.0 -962.666666667 L 217.0 -958.0 L 225.0 -953.333333333 L 232.5 -948.5 L 239.5 -943.5 L 246.5 -938.5 L 253.0 -933.333333333 L 259.0 -928.0 L 265.0 -922.666666667 L 269.166666667 -917.833333333 L 271.5 -913.5 L 273.833333333 -909.166666667 L 274.833333333 -905.333333333 L 274.5 -902.0 L 274.166666667 -898.666666667 L 272.833333333 -896.166666667 L 270.5 -894.5 L 268.166666667 -892.833333333 L 261.166666667 -889.666666667 L 249.5 -885.0 L 237.833333333 -880.333333333 L 222.666666667 -872.833333333 L 204.0 -862.5 L 185.333333333 -852.166666667 L 176.333333333 -834.666666667 L 177.0 -810.0 L 177.0 -784.666666667 L 203.333333333 -760.833333333 L 256.0 -738.5 L 308.666666667 -716.166666667 L 387.0 -707.333333333 L 491.0 -712.0 L 1040.0 -730.0 L 1062.0 -730.0 L 1079.5 -728.5 L 1092.5 -725.5 L 1105.5 -722.5 L 1117.33333333 -718.833333333 L 1128.0 -714.5 L 1138.66666667 -710.166666667 L 1147.83333333 -705.666666667 L 1155.5 -701.0 L 1163.16666667 -696.333333333 L 1171.83333333 -689.5 L 1181.5 -680.5 L 1191.16666667 -671.5 L 1202.66666667 -660.0 L 1216.0 -646.0 L 1229.33333333 -632.0 L 1238.0 -621.666666667 L 1242.0 -615.0 L 1246.0 -608.333333333 L 1248.0 -602.0 L 1248.0 -596.0 L 1248.0 -590.0 L 1246.0 -585.833333333 L 1242.0 -583.5 L 1238.0 -581.166666667 L 1233.5 -580.0 L 1228.5 -580.0 L 1223.5 -580.0 L 1218.33333333 -581.166666667 L 1213.0 -583.5 L 1207.66666667 -585.833333333 L 1201.33333333 -588.166666667 L 1194.0 -590.5 L 1186.66666667 -592.833333333 L 1178.16666667 -595.333333333 L 1168.5 -598.0 L 1158.83333333 -600.666666667 L 1150.16666667 -602.666666667 L 1142.5 -604.0 L 1134.83333333 -605.333333333 L 1124.0 -606.333333333 L 1110.0 -607.0 L 900.0 -613.0 L 838.666666667 -613.0 L 774.166666667 -615.5 L 706.5 -620.5 L 638.833333333 -625.5 L 575.0 -632.0 L 515.0 -640.0 L 455.0 -648.0 L 402.333333333 -656.666666667 L 357.0 -666.0 L 311.666666667 -675.333333333 L 280.666666667 -683.333333333 L 264.0 -690.0 L 235.333333333 -702.0 L 209.833333333 -713.666666667 L 187.5 -725.0 L 165.166666667 -736.333333333 L 137.0 -762.666666667 Z" fill="black" fill-opacity="0.25" stroke="black" stroke-width="4.0"/>
  <rect x="151.0" y="-507.0" width="1107.0" height="374.0" fill="none" stroke="red" stroke-width="10.0" /><rect x="71.0" y="-976.0" width="1177.0" height="396.0" fill="none" stroke="red" stroke-width="10.0" />
</svg>
