<svg xmlns="http://www.w3.org/2000/svg"
  viewBox="23.886 -1398 1394.336 1314.522">
  <rect x="23.886" y="-1398" width="1394.336" height="1314.522" fill="white"/>
  <path d="M 606 -707 L 626 -707 L 647 -706.667 L 669 -706 L 691 -705.333 L 710.667 -704 L 728 -702 L 740.667 -702 L 754 -685.667 L 768 -653 L 782 -620.333 L 798.333 -588.333 L 817 -557 L 823 -545.667 L 829.333 -539.667 L 836 -539 L 840.667 -537.667 L 844.667 -535.167 L 848 -531.5 L 851.333 -527.833 L 848.667 -524.333 L 840 -521 L 820 -517.667 L 799.5 -516.333 L 778.5 -517 L 757.5 -517.667 L 737.667 -519 L 719 -521 L 701.667 -527 L 688 -541.667 L 678 -565 L 668 -588.333 L 652.667 -622 L 632 -666 L 630.667 -668 L 627.167 -671.833 L 621.5 -677.5 L 615.833 -683.167 L 609.667 -686.333 L 603 -687 L 593 -688.333 L 587.5 -692 L 586.5 -698 L 585.5 -704 L 592 -707 Z M 336 -707 L 356 -707 L 377 -706.667 L 399 -706 L 421 -705.333 L 440.667 -704 L 458 -702 L 470.667 -702 L 484 -685.667 L 498 -653 L 512 -620.333 L 528.333 -588.333 L 547 -557 L 553 -545.667 L 559.333 -539.667 L 566 -539 L 571.333 -537.667 L 575.5 -535.167 L 578.5 -531.5 L 581.5 -527.833 L 578.667 -524.333 L 570 -521 L 549.333 -517.667 L 528.667 -516.333 L 508 -517 L 487.333 -517.667 L 467.667 -519 L 449 -521 L 431.667 -527 L 418 -541.667 L 408 -565 L 398 -588.333 L 382.667 -622 L 362 -666 L 360 -668 L 356.333 -671.833 L 351 -677.5 L 345.667 -683.167 L 339.667 -686.333 L 333 -687 L 323.667 -688.333 L 318.333 -692 L 317 -698 L 315.667 -704 L 322 -707 Z M 880 -498 L 905.333 -507.333 L 948.333 -506.667 L 1009 -496 L 1044.333 -487.333 L 1075.5 -475.667 L 1102.5 -461 L 1129.5 -446.333 L 1150.333 -420.667 L 1165 -384 L 1175 -348.667 L 1178.333 -320.5 L 1175 -299.5 L 1171.667 -278.5 L 1160 -254 L 1140 -226 L 1120.667 -202.667 L 1098.167 -185.167 L 1072.5 -173.5 L 1046.833 -161.833 L 1015.333 -152 L 978 -144 L 940.667 -136.667 L 910.333 -133.167 L 887 -133.5 L 863.667 -133.833 L 838.333 -134.333 L 811 -135 L 784.333 -136.333 L 759.5 -138.5 L 736.5 -141.5 L 713.5 -144.5 L 685.667 -151 L 653 -161 L 599 -175.667 L 545.667 -196 L 493 -222 L 463.667 -236.667 L 432.5 -252.5 L 399.5 -269.5 L 366.5 -286.5 L 329.667 -306.667 L 289 -330 L 270.333 -341.333 L 249.833 -353.5 L 227.5 -366.5 L 205.167 -379.5 L 181.333 -392.667 L 156 -406 L 136.667 -418 L 117.5 -430 L 98.5 -442 L 79.5 -454 L 71.5 -466.167 L 74.5 -478.5 L 77.5 -490.833 L 84.667 -496.667 L 96 -496 L 107.333 -495.333 L 143 -495.667 L 203 -497 L 263 -498.333 L 315.667 -498.667 L 361 -498 L 379 -484.667 L 378.833 -475.167 L 360.5 -469.5 L 342.167 -463.833 L 328.333 -456.667 L 319 -448 L 302.333 -430.667 L 295 -416.833 L 297 -406.5 L 299 -396.167 L 301.833 -388.167 L 305.5 -382.5 L 309.167 -376.833 L 314.667 -370.833 L 322 -364.5 L 329.333 -358.167 L 347.333 -345 L 376 -325 L 404.667 -305 L 440.667 -284 L 484 -262 L 522.667 -245.333 L 553 -231.667 L 575 -221 L 597 -210.333 L 632.667 -198.333 L 682 -185 L 718.667 -177.667 L 756 -173.167 L 794 -171.5 L 832 -169.833 L 870.667 -175.333 L 910 -188 L 937.333 -200 L 956.5 -210.333 L 967.5 -219 L 978.5 -227.667 L 991 -242.333 L 1005 -263 L 1017 -283 L 1023.833 -300 L 1025.5 -314 L 1027.167 -328 L 1027.333 -344 L 1026 -362 L 1025.333 -380.667 L 1023.167 -394.167 L 1019.5 -402.5 L 1015.833 -410.833 L 1011.167 -419.333 L 1005.5 -428 L 999.833 -436.667 L 992.5 -444.5 L 983.5 -451.5 L 974.5 -458.5 L 960.667 -463.333 L 942 -466 L 923.333 -468.667 L 905 -471 L 887 -473 L 879 -474.333 L 873.833 -477.667 L 871.5 -483 L 869.167 -488.333 L 872 -493.333 Z M 1354 -1222 L 1364.667 -1220 L 1369.333 -1214.5 L 1368 -1205.5 L 1366.667 -1196.5 L 1360 -1191.333 L 1348 -1190 L 1334 -1185.333 L 1322.667 -1167.833 L 1314 -1137.5 L 1305.333 -1107.167 L 1296.333 -1075 L 1287 -1041 L 1264.333 -961.667 L 1243.667 -897.333 L 1225 -848 L 1206.333 -798.667 L 1188.5 -764 L 1171.5 -744 L 1154.5 -724 L 1134.333 -709 L 1111 -699 L 1075 -683.667 L 1039.5 -672.167 L 1004.5 -664.5 L 969.5 -656.833 L 939.333 -653 L 914 -653 L 926.667 -623 L 947.833 -602.167 L 977.5 -590.5 L 1007.167 -578.833 L 1015.667 -566.333 L 1003 -553 L 995.667 -545.667 L 972.667 -555.333 L 934 -582 L 895.333 -608.667 L 868.667 -635 L 854 -661 L 854 -677.667 L 860.833 -684.667 L 874.5 -682 L 888.167 -679.333 L 902.667 -677.333 L 918 -676 L 933.333 -675.333 L 949.333 -676.167 L 966 -678.5 L 982.667 -680.833 L 1004.667 -689 L 1032 -703 L 1045.333 -709.667 L 1057.833 -724.833 L 1069.5 -748.5 L 1081.167 -772.167 L 1091.833 -798.5 L 1101.5 -827.5 L 1111.167 -856.5 L 1119.333 -885.167 L 1126 -913.5 L 1132.667 -941.833 L 1141.5 -982.667 L 1152.5 -1036 L 1163.5 -1089.333 L 1172.833 -1125 L 1180.5 -1143 L 1188.167 -1161 L 1199.167 -1175.5 L 1213.5 -1186.5 L 1227.833 -1197.5 L 1241.5 -1204.667 L 1254.5 -1208 L 1267.5 -1211.333 L 1282 -1213.833 L 1298 -1215.5 L 1314 -1217.167 L 1332.667 -1219.333 Z M 907 -1348 L 917 -1346.667 L 921.333 -1342.167 L 920 -1334.5 L 918.667 -1326.833 L 912.333 -1322.333 L 901 -1321 L 888.333 -1317 L 878 -1302.167 L 870 -1276.5 L 862 -1250.833 L 853.667 -1223.667 L 845 -1195 L 824.333 -1127.667 L 805.333 -1073.333 L 788 -1032 L 770.667 -990.667 L 754.167 -961.667 L 738.5 -945 L 722.833 -928.333 L 704.333 -915.667 L 683 -907 L 649.667 -893.667 L 616.833 -883.833 L 584.5 -877.5 L 552.167 -871.167 L 524 -868 L 500 -868 L 512 -842 L 531.833 -824.333 L 559.5 -815 L 587.167 -805.667 L 595 -795 L 583 -783 L 576.333 -777 L 555 -785.333 L 519 -808 L 483 -830.667 L 458.333 -853 L 445 -875 L 445 -889 L 451.333 -894.833 L 464 -892.5 L 476.667 -890.167 L 490 -888.333 L 504 -887 L 518.667 -886.333 L 533.5 -887.167 L 548.5 -889.5 L 563.5 -891.833 L 583.667 -898.667 L 609 -910 L 621.667 -916 L 633.5 -929 L 644.5 -949 L 655.5 -969 L 665.5 -991.167 L 674.5 -1015.5 L 683.5 -1039.833 L 691 -1063.833 L 697 -1087.5 L 703 -1111.167 L 711 -1145.5 L 721 -1190.5 L 731 -1235.5 L 739.667 -1265.667 L 747 -1281 L 754.333 -1296.333 L 764.5 -1308.667 L 777.5 -1318 L 790.5 -1327.333 L 803 -1333.5 L 815 -1336.5 L 827 -1339.5 L 840.5 -1341.667 L 855.5 -1343 L 870.5 -1344.333 L 887.667 -1346 Z" fill="black" fill-opacity="0.25" stroke="black" stroke-width="4"/>
  <rect x="586" y="-707" width="265" height="191" fill="none" stroke="red" stroke-width="10" /><rect x="316" y="-707" width="266" height="191" fill="none" stroke="red" stroke-width="10" /><rect x="71" y="-507" width="1107" height="374" fill="none" stroke="red" stroke-width="10" /><rect x="854" y="-774.4" width="339.9" height="223.8" fill="none" stroke="red" stroke-width="10" /><rect x="1082.1" y="-998.2" width="192.7" height="223.8" fill="none" stroke="red" stroke-width="10" /><rect x="1144.7" y="-1222" width="224.6" height="223.8" fill="none" stroke="red" stroke-width="10" /><rect x="445" y="-970.1" width="314" height="189" fill="none" stroke="red" stroke-width="10" /><rect x="656" y="-1159" width="178" height="188.9" fill="none" stroke="red" stroke-width="10" /><rect x="714" y="-1348" width="207.3" height="189" fill="none" stroke="red" stroke-width="10" />
</svg>
