<svg xmlns="http://www.w3.org/2000/svg"
  viewBox="23.886 -1275 1288.336 1191.522">
  <rect x="23.886" y="-1275" width="1288.336" height="1191.522" fill="white"/>
  <path d="M 880 -498 L 905.333 -507.333 L 948.333 -506.667 L 1009 -496 L 1044.333 -486.667 L 1075.5 -474.833 L 1102.5 -460.5 L 1129.5 -446.167 L 1150.333 -420.667 L 1165 -384 L 1175 -348.667 L 1178.333 -320.333 L 1175 -299 L 1171.667 -277.667 L 1160 -253.333 L 1140 -226 L 1120.667 -202.667 L 1098.167 -185.167 L 1072.5 -173.5 L 1046.833 -161.833 L 1015.333 -152 L 978 -144 L 940.667 -136.667 L 910.333 -133.167 L 887 -133.5 L 863.667 -133.833 L 838.333 -134.333 L 811 -135 L 784.333 -136.333 L 759.5 -138.5 L 736.5 -141.5 L 713.5 -144.5 L 685.667 -151 L 653 -161 L 599 -175.667 L 545.667 -196 L 493 -222 L 463.667 -236.667 L 432.5 -252.5 L 399.5 -269.5 L 366.5 -286.5 L 329.667 -306.667 L 289 -330 L 270.333 -341.333 L 249.833 -353.5 L 227.5 -366.5 L 205.167 -379.5 L 181.333 -392.667 L 156 -406 L 136.667 -418 L 117.5 -430.167 L 98.5 -442.5 L 79.5 -454.833 L 71.5 -467.167 L 74.5 -479.5 L 77.5 -491.833 L 84.667 -497.667 L 96 -497 L 107.333 -496.333 L 143 -496.5 L 203 -497.5 L 263 -498.5 L 315.667 -498.667 L 361 -498 L 379 -484.667 L 378.833 -475.167 L 360.5 -469.5 L 342.167 -463.833 L 328.333 -456.667 L 319 -448 L 302.333 -430.667 L 295 -416.833 L 297 -406.5 L 299 -396.167 L 301.833 -388.167 L 305.5 -382.5 L 309.167 -376.833 L 314.667 -370.833 L 322 -364.5 L 329.333 -358.167 L 347.333 -345 L 376 -325 L 404.667 -305 L 440.667 -284 L 484 -262 L 522.667 -245.333 L 553 -231.667 L 575 -221 L 597 -210.333 L 632.667 -198.333 L 682 -185 L 718.667 -177.667 L 756 -173.167 L 794 -171.5 L 832 -169.833 L 870.667 -175.333 L 910 -188 L 937.333 -200 L 956.5 -210.333 L 967.5 -219 L 978.5 -227.667 L 991 -242.333 L 1005 -263 L 1017 -283 L 1023.833 -300 L 1025.5 -314 L 1027.167 -328 L 1027.333 -344 L 1026 -362 L 1025.333 -380.667 L 1023.167 -394.167 L 1019.5 -402.5 L 1015.833 -410.833 L 1011.167 -419.333 L 1005.5 -428 L 999.833 -436.667 L 992.5 -444.5 L 983.5 -451.5 L 974.5 -458.5 L 960.667 -463.333 L 942 -466 L 923.333 -468.667 L 905 -471 L 887 -473 L 879 -474.333 L 873.833 -477.667 L 871.5 -483 L 869.167 -488.333 L 872 -493.333 Z M 1248 -1225 L 1258.667 -1223 L 1263.333 -1217.833 L 1262 -1209.5 L 1260.667 -1201.167 L 1254 -1196.333 L 1242 -1195 L 1228.667 -1190.333 L 1218 -1173.5 L 1210 -1144.5 L 1202 -1115.5 L 1193.333 -1085 L 1184 -1053 L 1162.667 -977 L 1143 -915.333 L 1125 -868 L 1107 -820.667 L 1090 -787.667 L 1074 -769 L 1058 -750.333 L 1039 -736 L 1017 -726 L 982.333 -711.333 L 948.333 -700.333 L 915 -693 L 881.667 -685.667 L 852.667 -682 L 828 -682 L 840.667 -653.333 L 861.167 -633.5 L 889.5 -622.5 L 917.833 -611.5 L 926 -599.667 L 914 -587 L 906.667 -579.667 L 884.5 -588.833 L 847.5 -614.5 L 810.5 -640.167 L 785 -665.333 L 771 -690 L 771 -705.333 L 777.5 -711.833 L 790.5 -709.5 L 803.5 -707.167 L 817.667 -705.333 L 833 -704 L 847.667 -703.333 L 862.667 -704.333 L 878 -707 L 893.333 -709.667 L 914 -717.667 L 940 -731 L 953.333 -737.667 L 965.667 -752.167 L 977 -774.5 L 988.333 -796.833 L 998.5 -821.667 L 1007.5 -849 L 1016.5 -876.333 L 1024.333 -903.5 L 1031 -930.5 L 1037.667 -957.5 L 1046 -996.5 L 1056 -1047.5 L 1066 -1098.5 L 1074.833 -1132.667 L 1082.5 -1150 L 1090.167 -1167.333 L 1100.833 -1181.333 L 1114.5 -1192 L 1128.167 -1202.667 L 1141.167 -1209.5 L 1153.5 -1212.5 L 1165.833 -1215.5 L 1179.667 -1217.667 L 1195 -1219 L 1210.333 -1220.333 L 1228 -1222.333 Z" fill="black" fill-opacity="0.25" stroke="black" stroke-width="4"/>
  <rect x="71" y="-507" width="1107" height="374" fill="none" stroke="red" stroke-width="10" /><rect x="771" y="-798" width="324.3" height="213.4" fill="none" stroke="red" stroke-width="10" /><rect x="988.8" y="-1011.5" width="183.6" height="213.5" fill="none" stroke="red" stroke-width="10" /><rect x="1048.9" y="-1225" width="214.4" height="213.5" fill="none" stroke="red" stroke-width="10" />
</svg>
