<svg xmlns="http://www.w3.org/2000/svg"
  viewBox="16.342809173202937 -906.0 1463.2090310891342 829.0">
  <rect x="16.342809173202937" y="-906.0" width="1463.2090310891342" height="829.0" fill="white"/>
  <path d="M 1215.0 -541.0 L 1208.33300781 -545.666992188 L 1208.0 -550.166992188 L 1214.0 -554.5 L 1220.0 -558.833007812 L 1227.0 -561.0 L 1235.0 -561.0 L 1244.33300781 -561.0 L 1257.33300781 -569.5 L 1274.0 -586.5 L 1290.66699219 -603.5 L 1302.0 -624.333007812 L 1308.0 -649.0 L 1316.66699219 -690.333007812 L 1294.66699219 -724.333007812 L 1242.0 -751.0 L 1202.66699219 -770.333007812 L 1149.66699219 -785.166992188 L 1083.0 -795.5 L 1016.33300781 -805.833007812 L 979.333007812 -812.666992188 L 972.0 -816.0 L 964.666992188 -818.666992188 L 961.833007812 -822.666992188 L 963.5 -828.0 L 965.166992188 -833.333007812 L 969.0 -836.0 L 975.0 -836.0 L 981.0 -836.0 L 1018.0 -831.166992188 L 1086.0 -821.5 L 1154.0 -811.833007812 L 1216.0 -796.333007812 L 1272.0 -775.0 L 1305.33300781 -761.666992188 L 1332.16699219 -748.333007812 L 1352.5 -735.0 L 1372.83300781 -721.666992188 L 1391.33300781 -704.0 L 1408.0 -682.0 L 1424.66699219 -659.333007812 L 1431.66699219 -636.833007812 L 1429.0 -614.5 L 1426.33300781 -592.166992188 L 1416.66699219 -575.0 L 1400.0 -563.0 L 1384.66699219 -551.666992188 L 1367.16699219 -544.0 L 1347.5 -540.0 L 1327.83300781 -536.0 L 1309.0 -534.0 L 1291.0 -534.0 L 1273.0 -534.0 L 1260.33300781 -534.166992188 L 1253.0 -534.5 L 1245.66699219 -534.833007812 L 1233.0 -537.0 Z M 821.0 -459.0 L 844.333007812 -467.666992188 L 883.0 -467.0 L 937.0 -457.0 L 969.0 -449.0 L 997.333007812 -438.5 L 1022.0 -425.5 L 1046.66699219 -412.5 L 1065.66699219 -389.0 L 1079.0 -355.0 L 1087.66699219 -323.0 L 1090.66699219 -297.5 L 1088.0 -278.5 L 1085.33300781 -259.5 L 1074.66699219 -237.333007812 L 1056.0 -212.0 L 1038.66699219 -191.333007812 L 1018.33300781 -175.333007812 L 995.0 -164.0 L 971.666992188 -152.666992188 L 943.0 -143.666992188 L 909.0 -137.0 L 875.666992188 -130.333007812 L 848.333007812 -127.0 L 827.0 -127.0 L 805.666992188 -127.0 L 782.666992188 -127.666992188 L 758.0 -129.0 L 734.0 -129.666992188 L 711.5 -131.5 L 690.5 -134.5 L 669.5 -137.5 L 644.0 -143.666992188 L 614.0 -153.0 L 564.666992188 -167.0 L 516.333007812 -185.333007812 L 469.0 -208.0 L 441.666992188 -221.333007812 L 413.0 -235.666992188 L 383.0 -251.0 L 353.0 -266.333007812 L 319.666992188 -284.333007812 L 283.0 -305.0 L 265.666992188 -315.666992188 L 247.0 -326.833007812 L 227.0 -338.5 L 207.0 -350.166992188 L 185.333007812 -362.0 L 162.0 -374.0 L 144.0 -384.666992188 L 126.5 -395.666992188 L 109.5 -407.0 L 92.5 -418.333007812 L 85.3330078125 -429.666992188 L 88.0 -441.0 L 90.6669921875 -452.333007812 L 97.1669921875 -457.666992188 L 107.5 -457.0 L 117.833007812 -456.333007812 L 150.333007812 -456.666992188 L 205.0 -458.0 L 259.666992188 -459.333007812 L 307.333007812 -459.333007812 L 348.0 -458.0 L 364.0 -446.0 L 363.833007812 -437.5 L 347.5 -432.5 L 331.166992188 -427.5 L 318.666992188 -420.666992188 L 310.0 -412.0 L 295.333007812 -396.666992188 L 288.833007812 -384.5 L 290.5 -375.5 L 292.166992188 -366.5 L 294.5 -359.333007812 L 297.5 -354.0 L 300.5 -348.666992188 L 305.5 -343.0 L 312.5 -337.0 L 319.5 -331.0 L 336.166992188 -319.0 L 362.5 -301.0 L 388.833007812 -283.0 L 421.333007812 -264.0 L 460.0 -244.0 L 494.666992188 -228.666992188 L 522.166992188 -216.166992188 L 542.5 -206.5 L 562.833007812 -196.833007812 L 595.333007812 -186.0 L 640.0 -174.0 L 673.333007812 -168.0 L 707.333007812 -164.166992188 L 742.0 -162.5 L 776.666992188 -160.833007812 L 812.0 -165.666992188 L 848.0 -177.0 L 872.666992188 -188.333007812 L 890.0 -197.833007812 L 900.0 -205.5 L 910.0 -213.166992188 L 921.333007812 -226.333007812 L 934.0 -245.0 L 944.666992188 -263.666992188 L 950.833007812 -279.166992188 L 952.5 -291.5 L 954.166992188 -303.833007812 L 954.333007812 -318.333007812 L 953.0 -335.0 L 952.333007812 -351.666992188 L 950.333007812 -363.833007812 L 947.0 -371.5 L 943.666992188 -379.166992188 L 939.333007812 -387.0 L 934.0 -395.0 L 928.666992188 -403.0 L 922.0 -410.166992188 L 914.0 -416.5 L 906.0 -422.833007812 L 893.5 -427.333007812 L 876.5 -430.0 L 859.5 -432.666992188 L 843.0 -434.666992188 L 827.0 -436.0 L 819.666992188 -437.333007812 L 815.0 -440.5 L 813.0 -445.5 L 811.0 -450.5 L 813.666992188 -455.0 Z M 335.0 -525.0 L 311.666992188 -516.333007812 L 272.666992188 -516.666992188 L 218.0 -526.0 L 186.0 -534.0 L 157.666992188 -544.666992188 L 133.0 -558.0 L 108.333007812 -571.333007812 L 89.3330078125 -594.666992188 L 76.0 -628.0 L 67.3330078125 -660.0 L 64.5 -685.666992188 L 67.5 -705.0 L 70.5 -724.333007812 L 81.0 -746.333007812 L 99.0 -771.0 L 116.333007812 -792.333007812 L 136.833007812 -808.5 L 160.5 -819.5 L 184.166992188 -830.5 L 212.666992188 -839.333007812 L 246.0 -846.0 L 280.0 -852.666992188 L 307.666992188 -856.0 L 329.0 -856.0 L 350.333007812 -856.0 L 373.333007812 -855.333007812 L 398.0 -854.0 L 422.666992188 -853.333007812 L 445.333007812 -851.5 L 466.0 -848.5 L 486.666992188 -845.5 L 511.666992188 -839.333007812 L 541.0 -830.0 L 590.333007812 -816.0 L 639.0 -797.666992188 L 687.0 -775.0 L 714.333007812 -761.666992188 L 742.833007812 -747.333007812 L 772.5 -732.0 L 802.166992188 -716.666992188 L 835.666992188 -698.333007812 L 873.0 -677.0 L 890.333007812 -667.0 L 908.833007812 -656.166992188 L 928.5 -644.5 L 948.166992188 -632.833007812 L 969.666992188 -621.0 L 993.0 -609.0 L 1011.0 -597.666992188 L 1028.5 -586.5 L 1045.5 -575.5 L 1062.5 -564.5 L 1069.66699219 -553.333007812 L 1067.0 -542.0 L 1064.33300781 -530.666992188 L 1057.83300781 -525.333007812 L 1047.5 -526.0 L 1037.16699219 -526.666992188 L 1004.66699219 -526.333007812 L 950.0 -525.0 L 895.333007812 -523.666992188 L 847.666992188 -523.666992188 L 807.0 -525.0 L 791.0 -537.0 L 791.333007812 -545.5 L 808.0 -550.5 L 824.666992188 -555.5 L 837.0 -562.0 L 845.0 -570.0 L 859.666992188 -586.0 L 866.333007812 -598.5 L 865.0 -607.5 L 863.666992188 -616.5 L 861.333007812 -623.666992188 L 858.0 -629.0 L 854.666992188 -634.333007812 L 849.666992188 -640.0 L 843.0 -646.0 L 836.333007812 -652.0 L 819.833007812 -664.0 L 793.5 -682.0 L 767.166992188 -700.0 L 734.333007812 -719.0 L 695.0 -739.0 L 660.333007812 -754.333007812 L 632.833007812 -766.833007812 L 612.5 -776.5 L 592.166992188 -786.166992188 L 559.666992188 -797.0 L 515.0 -809.0 L 481.666992188 -815.666992188 L 447.833007812 -819.833007812 L 413.5 -821.5 L 379.166992188 -823.166992188 L 344.0 -818.0 L 308.0 -806.0 L 283.333007812 -795.333007812 L 265.833007812 -786.0 L 255.5 -778.0 L 245.166992188 -770.0 L 234.0 -756.666992188 L 222.0 -738.0 L 211.333007812 -720.0 L 205.166992188 -704.666992188 L 203.5 -692.0 L 201.833007812 -679.333007812 L 201.333007812 -664.666992188 L 202.0 -648.0 L 202.666992188 -631.333007812 L 204.666992188 -619.166992188 L 208.0 -611.5 L 211.333007812 -603.833007812 L 215.666992188 -596.0 L 221.0 -588.0 L 226.333007812 -580.0 L 233.166992188 -572.833007812 L 241.5 -566.5 L 249.833007812 -560.166992188 L 262.333007812 -555.833007812 L 279.0 -553.5 L 295.666992188 -551.166992188 L 312.333007812 -549.0 L 329.0 -547.0 L 336.333007812 -545.666992188 L 341.0 -542.666992188 L 343.0 -538.0 L 345.0 -533.333007812 L 342.333007812 -529.0 Z" fill="black" fill-opacity="0.25" stroke="black" stroke-width="4.0"/>
  <rect x="962.0" y="-836.0" width="470.0" height="301.99999999999994" fill="none" stroke="red" stroke-width="10.0" /><rect x="85.0" y="-468.0" width="1006.0" height="341.0" fill="none" stroke="red" stroke-width="10.0" /><rect x="65.0" y="-856.0" width="1005.0000000000001" height="339.99999999999994" fill="none" stroke="red" stroke-width="10.0" />
</svg>
