<svg xmlns="http://www.w3.org/2000/svg"
  viewBox="26.982 -1025.5 1279.268 942.022">
  <rect x="26.982" y="-1025.5" width="1279.268" height="942.022" fill="white"/>
  <path d="M 960 -498 L 985.333 -507.333 L 1028.333 -506.667 L 1089 -496 L 1124.333 -486.667 L 1155.5 -474.833 L 1182.5 -460.5 L 1209.5 -446.167 L 1230.333 -420.667 L 1245 -384 L 1255 -348.667 L 1258.333 -320.333 L 1255 -299 L 1251.667 -277.667 L 1240 -253.333 L 1220 -226 L 1200.667 -202.667 L 1178.167 -185.167 L 1152.5 -173.5 L 1126.833 -161.833 L 1095 -152 L 1057 -144 L 1019.667 -136.667 L 989.333 -133.167 L 966 -133.5 L 942.667 -133.833 L 917.667 -134.333 L 891 -135 L 864.333 -136.333 L 839.5 -138.5 L 816.5 -141.5 L 793.5 -144.5 L 765.667 -151 L 733 -161 L 679 -175.667 L 625.667 -196 L 573 -222 L 543.667 -236.667 L 512.333 -252.5 L 479 -269.5 L 445.667 -286.5 L 408.667 -306.667 L 368 -330 L 349.333 -341.333 L 329 -353.5 L 307 -366.5 L 285 -379.5 L 261.333 -392.667 L 236 -406 L 216.667 -418 L 197.5 -430.167 L 178.5 -442.5 L 159.5 -454.833 L 151.5 -467.167 L 154.5 -479.5 L 157.5 -491.833 L 164.667 -497.667 L 176 -497 L 187.333 -496.333 L 223 -496.5 L 283 -497.5 L 343 -498.5 L 395.667 -498.667 L 441 -498 L 459 -484.667 L 458.667 -475.167 L 440 -469.5 L 421.333 -463.833 L 407.667 -456.667 L 399 -448 L 382.333 -430.667 L 375 -416.833 L 377 -406.5 L 379 -396.167 L 381.667 -388.167 L 385 -382.5 L 388.333 -376.833 L 393.667 -370.833 L 401 -364.5 L 408.333 -358.167 L 426.5 -345 L 455.5 -325 L 484.5 -305 L 520.667 -284 L 564 -262 L 602.667 -245.333 L 633 -231.667 L 655 -221 L 677 -210.333 L 712.667 -198.333 L 762 -185 L 798.667 -177.667 L 836 -173.167 L 874 -171.5 L 912 -169.833 L 950.667 -175.333 L 990 -188 L 1017.333 -200 L 1036.5 -210.333 L 1047.5 -219 L 1058.5 -227.667 L 1071 -242.333 L 1085 -263 L 1097 -283 L 1103.833 -300 L 1105.5 -314 L 1107.167 -328 L 1107.333 -344 L 1106 -362 L 1105.333 -380.667 L 1103.167 -394.167 L 1099.5 -402.5 L 1095.833 -410.833 L 1091 -419.333 L 1085 -428 L 1079 -436.667 L 1071.667 -444.5 L 1063 -451.5 L 1054.333 -458.5 L 1040.667 -463.333 L 1022 -466 L 1003.333 -468.667 L 985 -471 L 967 -473 L 959 -474.333 L 953.833 -477.667 L 951.5 -483 L 949.167 -488.333 L 952 -493.333 Z M 103 -804 L 77.667 -850 L 70.833 -889.5 L 82.5 -922.5 L 94.167 -955.5 L 115 -973 L 145 -975 L 164.333 -976.333 L 179.167 -975 L 189.5 -971 L 199.833 -967 L 209 -962.667 L 217 -958 L 225 -953.333 L 232.5 -948.5 L 239.5 -943.5 L 246.5 -938.5 L 253 -933.333 L 259 -928 L 265 -922.667 L 269.167 -917.833 L 271.5 -913.5 L 273.833 -909.167 L 274.833 -905.333 L 274.5 -902 L 274.167 -898.667 L 272.833 -896.167 L 270.5 -894.5 L 268.167 -892.833 L 261.167 -889.667 L 249.5 -885 L 237.833 -880.333 L 222.667 -872.833 L 204 -862.5 L 185.333 -852.167 L 176.333 -834.667 L 177 -810 L 177 -784.667 L 203.333 -760.833 L 256 -738.5 L 308.667 -716.167 L 387 -707.333 L 491 -712 L 1040 -730 L 1062 -730 L 1079.5 -728.5 L 1092.5 -725.5 L 1105.5 -722.5 L 1117.333 -718.833 L 1128 -714.5 L 1138.667 -710.167 L 1147.833 -705.667 L 1155.5 -701 L 1163.167 -696.333 L 1171.833 -689.5 L 1181.5 -680.5 L 1191.167 -671.5 L 1202.667 -660 L 1216 -646 L 1229.333 -632 L 1238 -621.667 L 1242 -615 L 1246 -608.333 L 1248 -602 L 1248 -596 L 1248 -590 L 1246 -585.833 L 1242 -583.5 L 1238 -581.167 L 1233.5 -580 L 1228.5 -580 L 1223.5 -580 L 1218.333 -581.167 L 1213 -583.5 L 1207.667 -585.833 L 1201.333 -588.167 L 1194 -590.5 L 1186.667 -592.833 L 1178.167 -595.333 L 1168.5 -598 L 1158.833 -600.667 L 1150.167 -602.667 L 1142.5 -604 L 1134.833 -605.333 L 1124 -606.333 L 1110 -607 L 900 -613 L 838.667 -613 L 774.167 -615.5 L 706.5 -620.5 L 638.833 -625.5 L 575 -632 L 515 -640 L 455 -648 L 402.333 -656.667 L 357 -666 L 311.667 -675.333 L 280.667 -683.333 L 264 -690 L 235.333 -702 L 209.833 -713.667 L 187.5 -725 L 165.167 -736.333 L 137 -762.667 Z" fill="black" fill-opacity="0.25" stroke="black" stroke-width="4"/>
  <rect x="151" y="-507" width="1107" height="374" fill="none" stroke="red" stroke-width="10" /><rect x="71" y="-976" width="1177" height="396" fill="none" stroke="red" stroke-width="10" />
</svg>
