<svg xmlns="http://www.w3.org/2000/svg"
  viewBox="22.222 -824.556 1333.357 741.077">
  <rect x="22.222" y="-824.556" width="1333.357" height="741.077" fill="white"/>
  <path d="M 75 -766.5 L 78.333 -771.5 L 81.833 -774.167 L 85.5 -774.5 L 89.167 -774.833 L 93.333 -773.667 L 98 -771 L 102.667 -768.333 L 108.333 -765.333 L 115 -762 L 121.667 -758.667 L 130.5 -755.833 L 141.5 -753.5 L 152.5 -751.167 L 167.667 -750 L 187 -750 L 1125 -750 L 1143 -750 L 1159.167 -748.5 L 1173.5 -745.5 L 1187.833 -742.5 L 1201 -737.833 L 1213 -731.5 L 1225 -725.167 L 1234.333 -719.5 L 1241 -714.5 L 1247.667 -709.5 L 1256.833 -701.167 L 1268.5 -689.5 L 1280.167 -677.833 L 1290 -666.167 L 1298 -654.5 L 1306 -642.833 L 1307.667 -631.667 L 1303 -621 L 1298.333 -613 L 1292.667 -611.333 L 1286 -616 L 1279.333 -620.667 L 1271.5 -624.667 L 1262.5 -628 L 1253.5 -631.333 L 1243.833 -633.5 L 1233.5 -634.5 L 1223.167 -635.5 L 1207.333 -636 L 1186 -636 L 260 -636 L 245.333 -636 L 232.167 -637 L 220.5 -639 L 208.833 -641 L 199.667 -643.167 L 193 -645.5 L 186.333 -647.833 L 179.333 -650.667 L 172 -654 L 164.667 -657.333 L 156.833 -661.833 L 148.5 -667.5 L 140.167 -673.167 L 131.167 -680.833 L 121.5 -690.5 L 111.833 -700.167 L 102.167 -711.333 L 92.5 -724 L 82.833 -736.667 L 76.667 -745.667 L 74 -751 L 71.333 -756.333 L 71.667 -761.5 Z M 958 -498 L 983.333 -507.333 L 1026.333 -506.667 L 1087 -496 L 1122.333 -486.667 L 1153.5 -474.833 L 1180.5 -460.5 L 1207.5 -446.167 L 1228.333 -420.667 L 1243 -384 L 1253 -348.667 L 1256.333 -320.333 L 1253 -299 L 1249.667 -277.667 L 1238 -253.333 L 1218 -226 L 1198.667 -202.667 L 1176.167 -185.167 L 1150.5 -173.5 L 1124.833 -161.833 L 1093.333 -152 L 1056 -144 L 1018.667 -136.667 L 988.333 -133.167 L 965 -133.5 L 941.667 -133.833 L 916.333 -134.333 L 889 -135 L 862.333 -136.333 L 837.5 -138.5 L 814.5 -141.5 L 791.5 -144.5 L 763.667 -151 L 731 -161 L 677 -175.667 L 623.667 -196 L 571 -222 L 541.667 -236.667 L 510.5 -252.5 L 477.5 -269.5 L 444.5 -286.5 L 407.667 -306.667 L 367 -330 L 348.333 -341.333 L 327.833 -353.5 L 305.5 -366.5 L 283.167 -379.5 L 259.333 -392.667 L 234 -406 L 214.667 -418 L 195.5 -430.167 L 176.5 -442.5 L 157.5 -454.833 L 149.5 -467.167 L 152.5 -479.5 L 155.5 -491.833 L 162.667 -497.667 L 174 -497 L 185.333 -496.333 L 221.167 -496.5 L 281.5 -497.5 L 341.833 -498.5 L 394.333 -498.667 L 439 -498 L 457 -484.667 L 456.833 -475.167 L 438.5 -469.5 L 420.167 -463.833 L 406.333 -456.667 L 397 -448 L 380.333 -430.667 L 373 -416.833 L 375 -406.5 L 377 -396.167 L 379.833 -388.167 L 383.5 -382.5 L 387.167 -376.833 L 392.667 -370.833 L 400 -364.5 L 407.333 -358.167 L 425.5 -345 L 454.5 -325 L 483.5 -305 L 519.333 -284 L 562 -262 L 600.667 -245.333 L 631 -231.667 L 653 -221 L 675 -210.333 L 710.667 -198.333 L 760 -185 L 796.667 -177.667 L 834 -173.167 L 872 -171.5 L 910 -169.833 L 948.667 -175.333 L 988 -188 L 1015.333 -200 L 1034.5 -210.333 L 1045.5 -219 L 1056.5 -227.667 L 1069 -242.333 L 1083 -263 L 1095 -283 L 1101.833 -300 L 1103.5 -314 L 1105.167 -328 L 1105.333 -344 L 1104 -362 L 1103.333 -380.667 L 1101.167 -394.167 L 1097.5 -402.5 L 1093.833 -410.833 L 1089.167 -419.333 L 1083.5 -428 L 1077.833 -436.667 L 1070.5 -444.5 L 1061.5 -451.5 L 1052.5 -458.5 L 1038.667 -463.333 L 1020 -466 L 1001.333 -468.667 L 983 -471 L 965 -473 L 957 -474.333 L 951.833 -477.667 L 949.5 -483 L 947.167 -488.333 L 950 -493.333 Z" fill="black" fill-opacity="0.25" stroke="black" stroke-width="4"/>
  <rect x="71" y="-775" width="1237" height="164" fill="none" stroke="red" stroke-width="10" /><rect x="149" y="-507" width="1107" height="374" fill="none" stroke="red" stroke-width="10" />
</svg>
