<svg xmlns="http://www.w3.org/2000/svg"
  viewBox="-79.0 -1398.0 1497.222222221454 1314.5217391303931">
  <rect x="-79.0" y="-1398.0" width="1497.222222221454" height="1314.5217391303931" fill="white"/>
  <path d="M 486.0 -707.0 L 506.0 -707.0 L 527.0 -706.666666667 L 549.0 -706.0 L 571.0 -705.333333333 L 590.666666667 -703.333333333 L 608.0 -700.0 L 620.666666667 -700.0 L 634.0 -678.666666667 L 648.0 -636.0 L 662.0 -593.333333333 L 678.333333333 -552.0 L 697.0 -512.0 L 702.333333333 -498.0 L 708.666666667 -490.0 L 716.0 -488.0 L 720.666666667 -486.666666667 L 724.666666667 -483.333333333 L 728.0 -478.0 L 731.333333333 -472.666666667 L 728.666666667 -468.0 L 720.0 -464.0 L 700.0 -460.0 L 679.5 -458.333333333 L 658.5 -459.0 L 637.5 -459.666666667 L 617.666666667 -461.333333333 L 599.0 -464.0 L 581.666666667 -472.0 L 568.0 -491.166666667 L 558.0 -521.5 L 548.0 -551.833333333 L 532.666666667 -596.0 L 512.0 -654.0 L 510.0 -657.333333333 L 506.333333333 -662.333333333 L 501.0 -669.0 L 495.666666667 -675.666666667 L 489.333333333 -679.666666667 L 482.0 -681.0 L 472.666666667 -683.0 L 467.5 -687.833333333 L 466.5 -695.5 L 465.5 -703.166666667 L 472.0 -707.0 Z M 880.0 -498.0 L 905.333333333 -507.333333333 L 948.333333333 -506.666666667 L 1009.0 -496.0 L 1044.33333333 -487.333333333 L 1075.5 -475.666666667 L 1102.5 -461.0 L 1129.5 -446.333333333 L 1150.33333333 -420.666666667 L 1165.0 -384.0 L 1175.0 -348.666666667 L 1178.33333333 -320.5 L 1175.0 -299.5 L 1171.66666667 -278.5 L 1160.0 -254.0 L 1140.0 -226.0 L 1120.66666667 -202.666666667 L 1098.16666667 -185.166666667 L 1072.5 -173.5 L 1046.83333333 -161.833333333 L 1015.33333333 -152.0 L 978.0 -144.0 L 940.666666667 -136.666666667 L 910.333333333 -133.166666667 L 887.0 -133.5 L 863.666666667 -133.833333333 L 838.333333333 -134.333333333 L 811.0 -135.0 L 784.333333333 -136.333333333 L 759.5 -138.5 L 736.5 -141.5 L 713.5 -144.5 L 685.666666667 -151.0 L 653.0 -161.0 L 599.0 -175.666666667 L 545.666666667 -196.0 L 493.0 -222.0 L 463.666666667 -236.666666667 L 432.5 -252.5 L 399.5 -269.5 L 366.5 -286.5 L 329.666666667 -306.666666667 L 289.0 -330.0 L 270.333333333 -341.333333333 L 249.833333333 -353.5 L 227.5 -366.5 L 205.166666667 -379.5 L 181.333333333 -392.666666667 L 156.0 -406.0 L 136.666666667 -418.0 L 117.5 -430.0 L 98.5 -442.0 L 79.5 -454.0 L 71.5 -466.166666667 L 74.5 -478.5 L 77.5 -490.833333333 L 84.6666666667 -496.666666667 L 96.0 -496.0 L 107.333333333 -495.333333333 L 143.0 -495.666666667 L 203.0 -497.0 L 263.0 -498.333333333 L 315.666666667 -498.666666667 L 361.0 -498.0 L 379.0 -484.666666667 L 378.833333333 -475.166666667 L 360.5 -469.5 L 342.166666667 -463.833333333 L 328.333333333 -456.666666667 L 319.0 -448.0 L 302.333333333 -430.666666667 L 295.0 -416.833333333 L 297.0 -406.5 L 299.0 -396.166666667 L 301.833333333 -388.166666667 L 305.5 -382.5 L 309.166666667 -376.833333333 L 314.666666667 -370.833333333 L 322.0 -364.5 L 329.333333333 -358.166666667 L 347.333333333 -345.0 L 376.0 -325.0 L 404.666666667 -305.0 L 440.666666667 -284.0 L 484.0 -262.0 L 522.666666667 -245.333333333 L 553.0 -231.666666667 L 575.0 -221.0 L 597.0 -210.333333333 L 632.666666667 -198.333333333 L 682.0 -185.0 L 718.666666667 -177.666666667 L 756.0 -173.166666667 L 794.0 -171.5 L 832.0 -169.833333333 L 870.666666667 -175.333333333 L 910.0 -188.0 L 937.333333333 -200.0 L 956.5 -210.333333333 L 967.5 -219.0 L 978.5 -227.666666667 L 991.0 -242.333333333 L 1005.0 -263.0 L 1017.0 -283.0 L 1023.83333333 -300.0 L 1025.5 -314.0 L 1027.16666667 -328.0 L 1027.33333333 -344.0 L 1026.0 -362.0 L 1025.33333333 -380.666666667 L 1023.16666667 -394.166666667 L 1019.5 -402.5 L 1015.83333333 -410.833333333 L 1011.16666667 -419.333333333 L 1005.5 -428.0 L 999.833333333 -436.666666667 L 992.5 -444.5 L 983.5 -451.5 L 974.5 -458.5 L 960.666666667 -463.333333333 L 942.0 -466.0 L 923.333333333 -468.666666667 L 905.0 -471.0 L 887.0 -473.0 L 879.0 -474.333333333 L 873.833333333 -477.666666667 L 871.5 -483.0 L 869.166666667 -488.333333333 L 872.0 -493.333333333 Z M 1354.0 -1222.0 L 1364.66666667 -1220.0 L 1369.33333333 -1214.5 L 1368.0 -1205.5 L 1366.66666667 -1196.5 L 1360.0 -1191.33333333 L 1348.0 -1190.0 L 1334.0 -1185.33333333 L 1322.66666667 -1167.83333333 L 1314.0 -1137.5 L 1305.33333333 -1107.16666667 L 1296.33333333 -1075.0 L 1287.0 -1041.0 L 1264.33333333 -961.666666667 L 1243.66666667 -897.333333333 L 1225.0 -848.0 L 1206.33333333 -798.666666667 L 1188.5 -764.0 L 1171.5 -744.0 L 1154.5 -724.0 L 1134.33333333 -709.0 L 1111.0 -699.0 L 1075.0 -683.666666667 L 1039.5 -672.166666667 L 1004.5 -664.5 L 969.5 -656.833333333 L 939.333333333 -653.0 L 914.0 -653.0 L 926.666666667 -623.0 L 947.833333333 -602.166666667 L 977.5 -590.5 L 1007.16666667 -578.833333333 L 1015.66666667 -566.333333333 L 1003.0 -553.0 L 995.666666667 -545.666666667 L 972.666666667 -555.333333333 L 934.0 -582.0 L 895.333333333 -608.666666667 L 868.666666667 -635.0 L 854.0 -661.0 L 854.0 -677.666666667 L 860.833333333 -684.666666667 L 874.5 -682.0 L 888.166666667 -679.333333333 L 902.666666667 -677.333333333 L 918.0 -676.0 L 933.333333333 -675.333333333 L 949.333333333 -676.166666667 L 966.0 -678.5 L 982.666666667 -680.833333333 L 1004.66666667 -689.0 L 1032.0 -703.0 L 1045.33333333 -709.666666667 L 1057.83333333 -724.833333333 L 1069.5 -748.5 L 1081.16666667 -772.166666667 L 1091.83333333 -798.5 L 1101.5 -827.5 L 1111.16666667 -856.5 L 1119.33333333 -885.166666667 L 1126.0 -913.5 L 1132.66666667 -941.833333333 L 1141.5 -982.666666667 L 1152.5 -1036.0 L 1163.5 -1089.33333333 L 1172.83333333 -1125.0 L 1180.5 -1143.0 L 1188.16666667 -1161.0 L 1199.16666667 -1175.5 L 1213.5 -1186.5 L 1227.83333333 -1197.5 L 1241.5 -1204.66666667 L 1254.5 -1208.0 L 1267.5 -1211.33333333 L 1282.0 -1213.83333333 L 1298.0 -1215.5 L 1314.0 -1217.16666667 L 1332.66666667 -1219.33333333 Z M 470.0 -1222.0 L 480.666666667 -1220.0 L 485.333333333 -1214.5 L 484.0 -1205.5 L 482.666666667 -1196.5 L 476.0 -1191.33333333 L 464.0 -1190.0 L 450.0 -1185.33333333 L 438.666666667 -1167.83333333 L 430.0 -1137.5 L 421.333333333 -1107.16666667 L 412.333333333 -1075.0 L 403.0 -1041.0 L 380.333333333 -961.666666667 L 359.666666667 -897.333333333 L 341.0 -848.0 L 322.333333333 -798.666666667 L 304.666666667 -764.0 L 288.0 -744.0 L 271.333333333 -724.0 L 251.333333333 -709.0 L 228.0 -699.0 L 192.0 -683.666666667 L 156.333333333 -672.166666667 L 121.0 -664.5 L 85.6666666667 -656.833333333 L 55.3333333333 -653.0 L 30.0 -653.0 L 42.6666666667 -623.0 L 64.0 -602.166666667 L 94.0 -590.5 L 124.0 -578.833333333 L 132.666666667 -566.333333333 L 120.0 -553.0 L 112.666666667 -545.666666667 L 89.5 -555.333333333 L 50.5 -582.0 L 11.5 -608.666666667 L -15.0 -635.0 L -29.0 -661.0 L -29.0 -677.666666667 L -22.3333333333 -684.666666667 L -9.0 -682.0 L 4.33333333333 -679.333333333 L 19.0 -677.333333333 L 35.0 -676.0 L 50.3333333333 -675.333333333 L 66.1666666667 -676.166666667 L 82.5 -678.5 L 98.8333333333 -680.833333333 L 120.666666667 -689.0 L 148.0 -703.0 L 161.333333333 -709.666666667 L 174.0 -724.833333333 L 186.0 -748.5 L 198.0 -772.166666667 L 208.666666667 -798.5 L 218.0 -827.5 L 227.333333333 -856.5 L 235.333333333 -885.166666667 L 242.0 -913.5 L 248.666666667 -941.833333333 L 257.5 -982.666666667 L 268.5 -1036.0 L 279.5 -1089.33333333 L 289.0 -1125.0 L 297.0 -1143.0 L 305.0 -1161.0 L 316.166666667 -1175.5 L 330.5 -1186.5 L 344.833333333 -1197.5 L 358.5 -1204.66666667 L 371.5 -1208.0 L 384.5 -1211.33333333 L 398.833333333 -1213.83333333 L 414.5 -1215.5 L 430.166666667 -1217.16666667 L 448.666666667 -1219.33333333 Z M 966.0 -1348.0 L 976.0 -1346.66666667 L 980.333333333 -1342.16666667 L 979.0 -1334.5 L 977.666666667 -1326.83333333 L 971.333333333 -1322.33333333 L 960.0 -1321.0 L 947.333333333 -1317.0 L 937.0 -1302.16666667 L 929.0 -1276.5 L 921.0 -1250.83333333 L 912.666666667 -1223.66666667 L 904.0 -1195.0 L 883.333333333 -1127.66666667 L 864.166666667 -1073.33333333 L 846.5 -1032.0 L 828.833333333 -990.666666667 L 812.333333333 -961.666666667 L 797.0 -945.0 L 781.666666667 -928.333333333 L 763.333333333 -915.666666667 L 742.0 -907.0 L 708.666666667 -893.666666667 L 675.666666667 -883.833333333 L 643.0 -877.5 L 610.333333333 -871.166666667 L 582.333333333 -868.0 L 559.0 -868.0 L 571.0 -842.0 L 590.666666667 -824.333333333 L 618.0 -815.0 L 645.333333333 -805.666666667 L 653.333333333 -795.0 L 642.0 -783.0 L 635.333333333 -777.0 L 614.0 -785.333333333 L 578.0 -808.0 L 542.0 -830.666666667 L 517.333333333 -853.0 L 504.0 -875.0 L 504.0 -889.0 L 510.333333333 -894.833333333 L 523.0 -892.5 L 535.666666667 -890.166666667 L 549.0 -888.333333333 L 563.0 -887.0 L 577.666666667 -886.333333333 L 592.5 -887.166666667 L 607.5 -889.5 L 622.5 -891.833333333 L 642.666666667 -898.666666667 L 668.0 -910.0 L 680.666666667 -916.0 L 692.333333333 -929.0 L 703.0 -949.0 L 713.666666667 -969.0 L 723.5 -991.166666667 L 732.5 -1015.5 L 741.5 -1039.83333333 L 749.166666667 -1063.83333333 L 755.5 -1087.5 L 761.833333333 -1111.16666667 L 769.833333333 -1145.5 L 779.5 -1190.5 L 789.166666667 -1235.5 L 797.666666667 -1265.66666667 L 805.0 -1281.0 L 812.333333333 -1296.33333333 L 822.666666667 -1308.66666667 L 836.0 -1318.0 L 849.333333333 -1327.33333333 L 862.0 -1333.5 L 874.0 -1336.5 L 886.0 -1339.5 L 899.5 -1341.66666667 L 914.5 -1343.0 L 929.5 -1344.33333333 L 946.666666667 -1346.0 Z" fill="black" fill-opacity="0.25" stroke="black" stroke-width="4.0"/>
  <rect x="466.0" y="-707.0" width="264.99999999999994" height="248.99999999999994" fill="none" stroke="red" stroke-width="10.0" /><rect x="71.0" y="-507.0" width="1107.0" height="374.0" fill="none" stroke="red" stroke-width="10.0" /><rect x="854.0" y="-774.4" width="339.9" height="223.8" fill="none" stroke="red" stroke-width="10.0" /><rect x="1082.1000000000001" y="-998.1999999999999" width="192.69999999999987" height="223.8" fill="none" stroke="red" stroke-width="10.0" /><rect x="1144.7" y="-1222.0" width="224.5999999999999" height="223.8" fill="none" stroke="red" stroke-width="10.0" /><rect x="-29.0" y="-774.4" width="339.0" height="223.8" fill="none" stroke="red" stroke-width="10.0" /><rect x="198.9" y="-998.1999999999999" width="191.89999999999998" height="223.8" fill="none" stroke="red" stroke-width="10.0" /><rect x="260.7" y="-1222.0" width="224.60000000000002" height="223.8" fill="none" stroke="red" stroke-width="10.0" /><rect x="504.0" y="-970.0999999999999" width="313.1" height="188.99999999999994" fill="none" stroke="red" stroke-width="10.0" /><rect x="714.0999999999999" y="-1159.0" width="178.90000000000006" height="188.90000000000006" fill="none" stroke="red" stroke-width="10.0" /><rect x="772.7" y="-1348.0" width="207.5999999999999" height="189.00000000000006" fill="none" stroke="red" stroke-width="10.0" />
</svg>
