<svg xmlns="http://www.w3.org/2000/svg"
  viewBox="23.88636363636364 -1398.0 1394.3358585850904 1314.5217391303931">
  <rect x="23.88636363636364" y="-1398.0" width="1394.3358585850904" height="1314.5217391303931" fill="white"/>
  <path d="M 606.0 -707.0 L 626.0 -707.0 L 647.0 -706.666666667 L 669.0 -706.0 L 691.0 -705.333333333 L 710.666666667 -704.0 L 728.0 -702.0 L 740.666666667 -702.0 L 754.0 -685.666666667 L 768.0 -653.0 L 782.0 -620.333333333 L 798.333333333 -588.333333333 L 817.0 -557.0 L 823.0 -545.666666667 L 829.333333333 -539.666666667 L 836.0 -539.0 L 840.666666667 -537.666666667 L 844.666666667 -535.166666667 L 848.0 -531.5 L 851.333333333 -527.833333333 L 848.666666667 -524.333333333 L 840.0 -521.0 L 820.0 -517.666666667 L 799.5 -516.333333333 L 778.5 -517.0 L 757.5 -517.666666667 L 737.666666667 -519.0 L 719.0 -521.0 L 701.666666667 -527.0 L 688.0 -541.666666667 L 678.0 -565.0 L 668.0 -588.333333333 L 652.666666667 -622.0 L 632.0 -666.0 L 630.666666667 -668.0 L 627.166666667 -671.833333333 L 621.5 -677.5 L 615.833333333 -683.166666667 L 609.666666667 -686.333333333 L 603.0 -687.0 L 593.0 -688.333333333 L 587.5 -692.0 L 586.5 -698.0 L 585.5 -704.0 L 592.0 -707.0 Z M 336.0 -707.0 L 356.0 -707.0 L 377.0 -706.666666667 L 399.0 -706.0 L 421.0 -705.333333333 L 440.666666667 -704.0 L 458.0 -702.0 L 470.666666667 -702.0 L 484.0 -685.666666667 L 498.0 -653.0 L 512.0 -620.333333333 L 528.333333333 -588.333333333 L 547.0 -557.0 L 553.0 -545.666666667 L 559.333333333 -539.666666667 L 566.0 -539.0 L 571.333333333 -537.666666667 L 575.5 -535.166666667 L 578.5 -531.5 L 581.5 -527.833333333 L 578.666666667 -524.333333333 L 570.0 -521.0 L 549.333333333 -517.666666667 L 528.666666667 -516.333333333 L 508.0 -517.0 L 487.333333333 -517.666666667 L 467.666666667 -519.0 L 449.0 -521.0 L 431.666666667 -527.0 L 418.0 -541.666666667 L 408.0 -565.0 L 398.0 -588.333333333 L 382.666666667 -622.0 L 362.0 -666.0 L 360.0 -668.0 L 356.333333333 -671.833333333 L 351.0 -677.5 L 345.666666667 -683.166666667 L 339.666666667 -686.333333333 L 333.0 -687.0 L 323.666666667 -688.333333333 L 318.333333333 -692.0 L 317.0 -698.0 L 315.666666667 -704.0 L 322.0 -707.0 Z M 880.0 -498.0 L 905.333333333 -507.333333333 L 948.333333333 -506.666666667 L 1009.0 -496.0 L 1044.33333333 -487.333333333 L 1075.5 -475.666666667 L 1102.5 -461.0 L 1129.5 -446.333333333 L 1150.33333333 -420.666666667 L 1165.0 -384.0 L 1175.0 -348.666666667 L 1178.33333333 -320.5 L 1175.0 -299.5 L 1171.66666667 -278.5 L 1160.0 -254.0 L 1140.0 -226.0 L 1120.66666667 -202.666666667 L 1098.16666667 -185.166666667 L 1072.5 -173.5 L 1046.83333333 -161.833333333 L 1015.33333333 -152.0 L 978.0 -144.0 L 940.666666667 -136.666666667 L 910.333333333 -133.166666667 L 887.0 -133.5 L 863.666666667 -133.833333333 L 838.333333333 -134.333333333 L 811.0 -135.0 L 784.333333333 -136.333333333 L 759.5 -138.5 L 736.5 -141.5 L 713.5 -144.5 L 685.666666667 -151.0 L 653.0 -161.0 L 599.0 -175.666666667 L 545.666666667 -196.0 L 493.0 -222.0 L 463.666666667 -236.666666667 L 432.5 -252.5 L 399.5 -269.5 L 366.5 -286.5 L 329.666666667 -306.666666667 L 289.0 -330.0 L 270.333333333 -341.333333333 L 249.833333333 -353.5 L 227.5 -366.5 L 205.166666667 -379.5 L 181.333333333 -392.666666667 L 156.0 -406.0 L 136.666666667 -418.0 L 117.5 -430.0 L 98.5 -442.0 L 79.5 -454.0 L 71.5 -466.166666667 L 74.5 -478.5 L 77.5 -490.833333333 L 84.6666666667 -496.666666667 L 96.0 -496.0 L 107.333333333 -495.333333333 L 143.0 -495.666666667 L 203.0 -497.0 L 263.0 -498.333333333 L 315.666666667 -498.666666667 L 361.0 -498.0 L 379.0 -484.666666667 L 378.833333333 -475.166666667 L 360.5 -469.5 L 342.166666667 -463.833333333 L 328.333333333 -456.666666667 L 319.0 -448.0 L 302.333333333 -430.666666667 L 295.0 -416.833333333 L 297.0 -406.5 L 299.0 -396.166666667 L 301.833333333 -388.166666667 L 305.5 -382.5 L 309.166666667 -376.833333333 L 314.666666667 -370.833333333 L 322.0 -364.5 L 329.333333333 -358.166666667 L 347.333333333 -345.0 L 376.0 -325.0 L 404.666666667 -305.0 L 440.666666667 -284.0 L 484.0 -262.0 L 522.666666667 -245.333333333 L 553.0 -231.666666667 L 575.0 -221.0 L 597.0 -210.333333333 L 632.666666667 -198.333333333 L 682.0 -185.0 L 718.666666667 -177.666666667 L 756.0 -173.166666667 L 794.0 -171.5 L 832.0 -169.833333333 L 870.666666667 -175.333333333 L 910.0 -188.0 L 937.333333333 -200.0 L 956.5 -210.333333333 L 967.5 -219.0 L 978.5 -227.666666667 L 991.0 -242.333333333 L 1005.0 -263.0 L 1017.0 -283.0 L 1023.83333333 -300.0 L 1025.5 -314.0 L 1027.16666667 -328.0 L 1027.33333333 -344.0 L 1026.0 -362.0 L 1025.33333333 -380.666666667 L 1023.16666667 -394.166666667 L 1019.5 -402.5 L 1015.83333333 -410.833333333 L 1011.16666667 -419.333333333 L 1005.5 -428.0 L 999.833333333 -436.666666667 L 992.5 -444.5 L 983.5 -451.5 L 974.5 -458.5 L 960.666666667 -463.333333333 L 942.0 -466.0 L 923.333333333 -468.666666667 L 905.0 -471.0 L 887.0 -473.0 L 879.0 -474.333333333 L 873.833333333 -477.666666667 L 871.5 -483.0 L 869.166666667 -488.333333333 L 872.0 -493.333333333 Z M 1354.0 -1222.0 L 1364.66666667 -1220.0 L 1369.33333333 -1214.5 L 1368.0 -1205.5 L 1366.66666667 -1196.5 L 1360.0 -1191.33333333 L 1348.0 -1190.0 L 1334.0 -1185.33333333 L 1322.66666667 -1167.83333333 L 1314.0 -1137.5 L 1305.33333333 -1107.16666667 L 1296.33333333 -1075.0 L 1287.0 -1041.0 L 1264.33333333 -961.666666667 L 1243.66666667 -897.333333333 L 1225.0 -848.0 L 1206.33333333 -798.666666667 L 1188.5 -764.0 L 1171.5 -744.0 L 1154.5 -724.0 L 1134.33333333 -709.0 L 1111.0 -699.0 L 1075.0 -683.666666667 L 1039.5 -672.166666667 L 1004.5 -664.5 L 969.5 -656.833333333 L 939.333333333 -653.0 L 914.0 -653.0 L 926.666666667 -623.0 L 947.833333333 -602.166666667 L 977.5 -590.5 L 1007.16666667 -578.833333333 L 1015.66666667 -566.333333333 L 1003.0 -553.0 L 995.666666667 -545.666666667 L 972.666666667 -555.333333333 L 934.0 -582.0 L 895.333333333 -608.666666667 L 868.666666667 -635.0 L 854.0 -661.0 L 854.0 -677.666666667 L 860.833333333 -684.666666667 L 874.5 -682.0 L 888.166666667 -679.333333333 L 902.666666667 -677.333333333 L 918.0 -676.0 L 933.333333333 -675.333333333 L 949.333333333 -676.166666667 L 966.0 -678.5 L 982.666666667 -680.833333333 L 1004.66666667 -689.0 L 1032.0 -703.0 L 1045.33333333 -709.666666667 L 1057.83333333 -724.833333333 L 1069.5 -748.5 L 1081.16666667 -772.166666667 L 1091.83333333 -798.5 L 1101.5 -827.5 L 1111.16666667 -856.5 L 1119.33333333 -885.166666667 L 1126.0 -913.5 L 1132.66666667 -941.833333333 L 1141.5 -982.666666667 L 1152.5 -1036.0 L 1163.5 -1089.33333333 L 1172.83333333 -1125.0 L 1180.5 -1143.0 L 1188.16666667 -1161.0 L 1199.16666667 -1175.5 L 1213.5 -1186.5 L 1227.83333333 -1197.5 L 1241.5 -1204.66666667 L 1254.5 -1208.0 L 1267.5 -1211.33333333 L 1282.0 -1213.83333333 L 1298.0 -1215.5 L 1314.0 -1217.16666667 L 1332.66666667 -1219.33333333 Z M 907.0 -1348.0 L 917.0 -1346.66666667 L 921.333333333 -1342.16666667 L 920.0 -1334.5 L 918.666666667 -1326.83333333 L 912.333333333 -1322.33333333 L 901.0 -1321.0 L 888.333333333 -1317.0 L 878.0 -1302.16666667 L 870.0 -1276.5 L 862.0 -1250.83333333 L 853.666666667 -1223.66666667 L 845.0 -1195.0 L 824.333333333 -1127.66666667 L 805.333333333 -1073.33333333 L 788.0 -1032.0 L 770.666666667 -990.666666667 L 754.166666667 -961.666666667 L 738.5 -945.0 L 722.833333333 -928.333333333 L 704.333333333 -915.666666667 L 683.0 -907.0 L 649.666666667 -893.666666667 L 616.833333333 -883.833333333 L 584.5 -877.5 L 552.166666667 -871.166666667 L 524.0 -868.0 L 500.0 -868.0 L 512.0 -842.0 L 531.833333333 -824.333333333 L 559.5 -815.0 L 587.166666667 -805.666666667 L 595.0 -795.0 L 583.0 -783.0 L 576.333333333 -777.0 L 555.0 -785.333333333 L 519.0 -808.0 L 483.0 -830.666666667 L 458.333333333 -853.0 L 445.0 -875.0 L 445.0 -889.0 L 451.333333333 -894.833333333 L 464.0 -892.5 L 476.666666667 -890.166666667 L 490.0 -888.333333333 L 504.0 -887.0 L 518.666666667 -886.333333333 L 533.5 -887.166666667 L 548.5 -889.5 L 563.5 -891.833333333 L 583.666666667 -898.666666667 L 609.0 -910.0 L 621.666666667 -916.0 L 633.5 -929.0 L 644.5 -949.0 L 655.5 -969.0 L 665.5 -991.166666667 L 674.5 -1015.5 L 683.5 -1039.83333333 L 691.0 -1063.83333333 L 697.0 -1087.5 L 703.0 -1111.16666667 L 711.0 -1145.5 L 721.0 -1190.5 L 731.0 -1235.5 L 739.666666667 -1265.66666667 L 747.0 -1281.0 L 754.333333333 -1296.33333333 L 764.5 -1308.66666667 L 777.5 -1318.0 L 790.5 -1327.33333333 L 803.0 -1333.5 L 815.0 -1336.5 L 827.0 -1339.5 L 840.5 -1341.66666667 L 855.5 -1343.0 L 870.5 -1344.33333333 L 887.666666667 -1346.0 Z" fill="black" fill-opacity="0.25" stroke="black" stroke-width="4.0"/>
  <rect x="586.0" y="-707.0" width="265.0" height="190.99999999999994" fill="none" stroke="red" stroke-width="10.0" /><rect x="316.0" y="-707.0" width="265.99999999999994" height="190.99999999999994" fill="none" stroke="red" stroke-width="10.0" /><rect x="71.0" y="-507.0" width="1107.0" height="374.0" fill="none" stroke="red" stroke-width="10.0" /><rect x="854.0" y="-1222.0" width="515.0" height="675.9999999999999" fill="none" stroke="red" stroke-width="10.0" /><rect x="445.0" y="-1348.0" width="476.00000000000006" height="571.0000000000001" fill="none" stroke="red" stroke-width="10.0" />
</svg>
