<svg xmlns="http://www.w3.org/2000/svg"
  viewBox="23.886 -1320 1202.364 1236.522">
  <rect x="23.886" y="-1320" width="1202.364" height="1236.522" fill="white"/>
  <path d="M 499 -667 L 521.667 -667 L 545.333 -666.667 L 570 -666 L 594.667 -665.333 L 617.333 -663.667 L 638 -661 L 652 -661 L 667.5 -636 L 684.5 -586 L 701.5 -536 L 721.667 -492 L 745 -454 L 753 -441.333 L 760.333 -434 L 767 -432 L 773 -430 L 777.667 -426.833 L 781 -422.5 L 784.333 -418.167 L 781 -414.333 L 771 -411 L 747.667 -407 L 724.333 -405.333 L 701 -406 L 677.667 -406.667 L 655 -408.333 L 633 -411 L 612.333 -418.333 L 595.667 -441.667 L 583 -481 L 570.333 -520.333 L 552 -566.333 L 528 -619 L 526 -621.667 L 522 -625.5 L 516 -630.5 L 510 -635.5 L 503 -639 L 495 -641 L 484.333 -642.333 L 478.333 -647 L 477 -655 L 475.667 -663 L 483 -667 Z M 880 -498 L 905.333 -507.333 L 948.333 -506.667 L 1009 -496 L 1044.333 -486.667 L 1075.5 -474.833 L 1102.5 -460.5 L 1129.5 -446.167 L 1150.333 -420.667 L 1165 -384 L 1175 -348.667 L 1178.333 -320.333 L 1175 -299 L 1171.667 -277.667 L 1160 -253.333 L 1140 -226 L 1120.667 -202.667 L 1098.167 -185.167 L 1072.5 -173.5 L 1046.833 -161.833 L 1015.333 -152 L 978 -144 L 940.667 -136.667 L 910.333 -133.167 L 887 -133.5 L 863.667 -133.833 L 838.333 -134.333 L 811 -135 L 784.333 -136.333 L 759.5 -138.5 L 736.5 -141.5 L 713.5 -144.5 L 685.667 -151 L 653 -161 L 599 -175.667 L 545.667 -196 L 493 -222 L 463.667 -236.667 L 432.5 -252.5 L 399.5 -269.5 L 366.5 -286.5 L 329.667 -306.667 L 289 -330 L 270.333 -341.333 L 249.833 -353.5 L 227.5 -366.5 L 205.167 -379.5 L 181.333 -392.667 L 156 -406 L 136.667 -418 L 117.5 -430.167 L 98.5 -442.5 L 79.5 -454.833 L 71.5 -467.167 L 74.5 -479.5 L 77.5 -491.833 L 84.667 -497.667 L 96 -497 L 107.333 -496.333 L 143 -496.5 L 203 -497.5 L 263 -498.5 L 315.667 -498.667 L 361 -498 L 379 -484.667 L 378.833 -475.167 L 360.5 -469.5 L 342.167 -463.833 L 328.333 -456.667 L 319 -448 L 302.333 -430.667 L 295 -416.833 L 297 -406.5 L 299 -396.167 L 301.833 -388.167 L 305.5 -382.5 L 309.167 -376.833 L 314.667 -370.833 L 322 -364.5 L 329.333 -358.167 L 347.333 -345 L 376 -325 L 404.667 -305 L 440.667 -284 L 484 -262 L 522.667 -245.333 L 553 -231.667 L 575 -221 L 597 -210.333 L 632.667 -198.333 L 682 -185 L 718.667 -177.667 L 756 -173.167 L 794 -171.5 L 832 -169.833 L 870.667 -175.333 L 910 -188 L 937.333 -200 L 956.5 -210.333 L 967.5 -219 L 978.5 -227.667 L 991 -242.333 L 1005 -263 L 1017 -283 L 1023.833 -300 L 1025.5 -314 L 1027.167 -328 L 1027.333 -344 L 1026 -362 L 1025.333 -380.667 L 1023.167 -394.167 L 1019.5 -402.5 L 1015.833 -410.833 L 1011.167 -419.333 L 1005.5 -428 L 999.833 -436.667 L 992.5 -444.5 L 983.5 -451.5 L 974.5 -458.5 L 960.667 -463.333 L 942 -466 L 923.333 -468.667 L 905 -471 L 887 -473 L 879 -474.333 L 873.833 -477.667 L 871.5 -483 L 869.167 -488.333 L 872 -493.333 Z M 966 -1270 L 976 -1268.667 L 980.333 -1264 L 979 -1256 L 977.667 -1248 L 971.333 -1243.667 L 960 -1243 L 947.333 -1239 L 937 -1224.167 L 929 -1198.5 L 921 -1172.833 L 912.667 -1145.667 L 904 -1117 L 883.333 -1049.667 L 864.167 -995.167 L 846.5 -953.5 L 828.833 -911.833 L 812.333 -882.833 L 797 -866.5 L 781.667 -850.167 L 763.333 -837.667 L 742 -829 L 708.667 -815.667 L 675.667 -805.833 L 643 -799.5 L 610.333 -793.167 L 582.333 -790 L 559 -790 L 571 -764 L 590.667 -746.167 L 618 -736.5 L 645.333 -726.833 L 653.333 -716.333 L 642 -705 L 635.333 -699 L 614 -707.333 L 578 -730 L 542 -752.667 L 517.333 -775 L 504 -797 L 504 -811 L 510.333 -816.833 L 523 -814.5 L 535.667 -812.167 L 549 -810.333 L 563 -809 L 577.667 -808.333 L 592.5 -809.167 L 607.5 -811.5 L 622.5 -813.833 L 642.667 -820.667 L 668 -832 L 680.667 -838 L 692.333 -851 L 703 -871 L 713.667 -891 L 723.5 -913.167 L 732.5 -937.5 L 741.5 -961.833 L 749.167 -985.833 L 755.5 -1009.5 L 761.833 -1033.167 L 769.833 -1067.5 L 779.5 -1112.5 L 789.167 -1157.5 L 797.667 -1187.667 L 805 -1203 L 812.333 -1218.333 L 822.667 -1230.667 L 836 -1240 L 849.333 -1249.333 L 862 -1255.333 L 874 -1258 L 886 -1260.667 L 899.5 -1262.833 L 914.5 -1264.5 L 929.5 -1266.167 L 946.667 -1268 Z" fill="black" fill-opacity="0.25" stroke="black" stroke-width="4"/>
  <rect x="476" y="-667" width="308" height="262" fill="none" stroke="red" stroke-width="10" /><rect x="71" y="-507" width="1107" height="374" fill="none" stroke="red" stroke-width="10" /><rect x="504" y="-892.1" width="313.6" height="189" fill="none" stroke="red" stroke-width="10" /><rect x="714.1" y="-1081" width="178.9" height="188.9" fill="none" stroke="red" stroke-width="10" /><rect x="772.7" y="-1270" width="207.6" height="189" fill="none" stroke="red" stroke-width="10" />
</svg>
