<svg xmlns="http://www.w3.org/2000/svg"
  viewBox="28.750000000056247 -1009.5217391303931 1202.4999999985375 926.0434782607863">
  <rect x="28.750000000056247" y="-1009.5217391303931" width="1202.4999999985375" height="926.0434782607863" fill="white"/>
  <path d="M 375.0 -595.0 L 349.666666667 -585.666666667 L 306.666666667 -586.0 L 246.0 -596.0 L 210.666666667 -604.666666667 L 179.5 -616.333333333 L 152.5 -631.0 L 125.5 -645.666666667 L 104.666666667 -671.333333333 L 90.0 -708.0 L 80.0 -743.333333333 L 76.6666666667 -771.5 L 80.0 -792.5 L 83.3333333333 -813.5 L 95.0 -838.0 L 115.0 -866.0 L 134.333333333 -889.333333333 L 156.833333333 -907.0 L 182.5 -919.0 L 208.166666667 -931.0 L 239.666666667 -941.0 L 277.0 -949.0 L 314.333333333 -956.333333333 L 344.666666667 -959.833333333 L 368.0 -959.5 L 391.333333333 -959.166666667 L 416.666666667 -958.333333333 L 444.0 -957.0 L 470.666666667 -955.666666667 L 495.5 -953.5 L 518.5 -950.5 L 541.5 -947.5 L 569.333333333 -941.0 L 602.0 -931.0 L 656.0 -916.333333333 L 709.333333333 -896.0 L 762.0 -870.0 L 791.333333333 -855.333333333 L 822.5 -839.5 L 855.5 -822.5 L 888.5 -805.5 L 925.333333333 -785.333333333 L 966.0 -762.0 L 984.666666667 -750.666666667 L 1005.16666667 -738.666666667 L 1027.5 -726.0 L 1049.83333333 -713.333333333 L 1073.66666667 -700.333333333 L 1099.0 -687.0 L 1118.33333333 -675.0 L 1137.5 -662.833333333 L 1156.5 -650.5 L 1175.5 -638.166666667 L 1183.5 -625.833333333 L 1180.5 -613.5 L 1177.5 -601.166666667 L 1170.33333333 -595.333333333 L 1159.0 -596.0 L 1147.66666667 -596.666666667 L 1111.83333333 -596.333333333 L 1051.5 -595.0 L 991.166666667 -593.666666667 L 938.666666667 -593.666666667 L 894.0 -595.0 L 876.0 -608.333333333 L 876.166666667 -617.833333333 L 894.5 -623.5 L 912.833333333 -629.166666667 L 926.666666667 -636.333333333 L 936.0 -645.0 L 952.666666667 -662.333333333 L 960.0 -676.0 L 958.0 -686.0 L 956.0 -696.0 L 953.166666667 -703.833333333 L 949.5 -709.5 L 945.833333333 -715.166666667 L 940.333333333 -721.333333333 L 933.0 -728.0 L 925.666666667 -734.666666667 L 907.5 -747.833333333 L 878.5 -767.5 L 849.5 -787.166666667 L 813.666666667 -808.0 L 771.0 -830.0 L 732.333333333 -846.666666667 L 702.0 -860.333333333 L 680.0 -871.0 L 658.0 -881.666666667 L 622.333333333 -893.666666667 L 573.0 -907.0 L 536.333333333 -914.333333333 L 499.0 -918.833333333 L 461.0 -920.5 L 423.0 -922.166666667 L 384.333333333 -916.666666667 L 345.0 -904.0 L 317.666666667 -892.0 L 298.5 -881.833333333 L 287.5 -873.5 L 276.5 -865.166666667 L 264.0 -850.333333333 L 250.0 -829.0 L 238.0 -809.0 L 231.166666667 -792.166666667 L 229.5 -778.5 L 227.833333333 -764.833333333 L 227.666666667 -748.666666667 L 229.0 -730.0 L 229.666666667 -711.333333333 L 231.833333333 -698.0 L 235.5 -690.0 L 239.166666667 -682.0 L 243.833333333 -673.666666667 L 249.5 -665.0 L 255.166666667 -656.333333333 L 262.5 -648.5 L 271.5 -641.5 L 280.5 -634.5 L 294.333333333 -629.5 L 313.0 -626.5 L 331.666666667 -623.5 L 350.0 -621.0 L 368.0 -619.0 L 376.0 -617.666666667 L 381.166666667 -614.5 L 383.5 -609.5 L 385.833333333 -604.5 L 383.0 -599.666666667 Z M 885.0 -498.0 L 910.333333333 -507.333333333 L 953.333333333 -506.666666667 L 1014.0 -496.0 L 1049.33333333 -487.333333333 L 1080.5 -475.666666667 L 1107.5 -461.0 L 1134.5 -446.333333333 L 1155.33333333 -420.666666667 L 1170.0 -384.0 L 1180.0 -348.0 L 1183.33333333 -319.666666667 L 1180.0 -299.0 L 1176.66666667 -278.333333333 L 1165.0 -254.0 L 1145.0 -226.0 L 1125.66666667 -202.666666667 L 1103.16666667 -185.166666667 L 1077.5 -173.5 L 1051.83333333 -161.833333333 L 1020.0 -152.0 L 982.0 -144.0 L 944.666666667 -136.666666667 L 914.333333333 -133.166666667 L 891.0 -133.5 L 867.666666667 -133.833333333 L 842.666666667 -134.333333333 L 816.0 -135.0 L 789.333333333 -136.333333333 L 764.5 -138.5 L 741.5 -141.5 L 718.5 -144.5 L 690.666666667 -151.0 L 658.0 -161.0 L 604.0 -175.666666667 L 550.666666667 -196.0 L 498.0 -222.0 L 468.666666667 -236.666666667 L 437.333333333 -252.5 L 404.0 -269.5 L 370.666666667 -286.5 L 333.666666667 -306.666666667 L 293.0 -330.0 L 274.333333333 -341.333333333 L 254.0 -353.5 L 232.0 -366.5 L 210.0 -379.5 L 186.333333333 -392.666666667 L 161.0 -406.0 L 141.666666667 -418.0 L 122.5 -430.166666667 L 103.5 -442.5 L 84.5 -454.833333333 L 76.5 -467.0 L 79.5 -479.0 L 82.5 -491.0 L 89.6666666667 -496.666666667 L 101.0 -496.0 L 112.333333333 -495.333333333 L 148.0 -495.666666667 L 208.0 -497.0 L 268.0 -498.333333333 L 320.666666667 -498.666666667 L 366.0 -498.0 L 384.0 -484.666666667 L 383.666666667 -475.166666667 L 365.0 -469.5 L 346.333333333 -463.833333333 L 332.666666667 -456.666666667 L 324.0 -448.0 L 307.333333333 -430.666666667 L 300.0 -416.833333333 L 302.0 -406.5 L 304.0 -396.166666667 L 306.666666667 -388.166666667 L 310.0 -382.5 L 313.333333333 -376.833333333 L 318.666666667 -370.833333333 L 326.0 -364.5 L 333.333333333 -358.166666667 L 351.5 -345.0 L 380.5 -325.0 L 409.5 -305.0 L 445.666666667 -284.0 L 489.0 -262.0 L 527.666666667 -245.333333333 L 558.0 -231.666666667 L 580.0 -221.0 L 602.0 -210.333333333 L 637.666666667 -198.333333333 L 687.0 -185.0 L 723.666666667 -177.666666667 L 761.0 -173.166666667 L 799.0 -171.5 L 837.0 -169.833333333 L 875.666666667 -175.333333333 L 915.0 -188.0 L 942.333333333 -200.0 L 961.5 -210.333333333 L 972.5 -219.0 L 983.5 -227.666666667 L 996.0 -242.333333333 L 1010.0 -263.0 L 1022.0 -283.0 L 1028.83333333 -300.0 L 1030.5 -314.0 L 1032.16666667 -328.0 L 1032.33333333 -344.0 L 1031.0 -362.0 L 1030.33333333 -380.666666667 L 1028.16666667 -394.166666667 L 1024.5 -402.5 L 1020.83333333 -410.833333333 L 1016.0 -419.333333333 L 1010.0 -428.0 L 1004.0 -436.666666667 L 996.666666667 -444.5 L 988.0 -451.5 L 979.333333333 -458.5 L 965.666666667 -463.333333333 L 947.0 -466.0 L 928.333333333 -468.666666667 L 910.0 -471.0 L 892.0 -473.0 L 884.0 -474.333333333 L 878.833333333 -477.666666667 L 876.5 -483.0 L 874.166666667 -488.333333333 L 877.0 -493.333333333 Z" fill="black" fill-opacity="0.25" stroke="black" stroke-width="4.0"/>
  <rect x="77.0" y="-960.0" width="1106.0" height="374.0" fill="none" stroke="red" stroke-width="10.0" /><rect x="76.0" y="-507.0" width="1107.0" height="374.0" fill="none" stroke="red" stroke-width="10.0" />
</svg>
