<svg xmlns="http://www.w3.org/2000/svg"
  viewBox="28.75 -1004.522 1202.5 921.043">
  <rect x="28.75" y="-1004.522" width="1202.5" height="921.043" fill="white"/>
  <path d="M 375 -590 L 349.667 -580.667 L 306.667 -581 L 246 -591 L 210.667 -599.667 L 179.5 -611.333 L 152.5 -626 L 125.5 -640.667 L 104.667 -666.333 L 90 -703 L 80 -738.333 L 76.667 -766.667 L 80 -788 L 83.333 -809.333 L 95 -833.667 L 115 -861 L 134.333 -884.333 L 156.833 -902 L 182.5 -914 L 208.167 -926 L 239.667 -936 L 277 -944 L 314.333 -951.333 L 344.667 -954.833 L 368 -954.5 L 391.333 -954.167 L 416.667 -953.333 L 444 -952 L 470.667 -950.667 L 495.5 -948.5 L 518.5 -945.5 L 541.5 -942.5 L 569.333 -936 L 602 -926 L 656 -911.333 L 709.333 -891 L 762 -865 L 791.333 -850.333 L 822.5 -834.5 L 855.5 -817.5 L 888.5 -800.5 L 925.333 -780.667 L 966 -758 L 984.667 -746.667 L 1005.167 -734.5 L 1027.5 -721.5 L 1049.833 -708.5 L 1073.667 -695.333 L 1099 -682 L 1118.333 -670 L 1137.5 -657.833 L 1156.5 -645.5 L 1175.5 -633.167 L 1183.5 -620.833 L 1180.5 -608.5 L 1177.5 -596.167 L 1170.333 -590.333 L 1159 -591 L 1147.667 -591.667 L 1111.833 -591.333 L 1051.5 -590 L 991.167 -588.667 L 938.667 -588.667 L 894 -590 L 876 -603.333 L 876.167 -612.833 L 894.5 -618.5 L 912.833 -624.167 L 926.667 -631.333 L 936 -640 L 952.667 -657.333 L 960 -671 L 958 -681 L 956 -691 L 953.167 -698.833 L 949.5 -704.5 L 945.833 -710.167 L 940.333 -716.333 L 933 -723 L 925.667 -729.667 L 907.5 -742.833 L 878.5 -762.5 L 849.5 -782.167 L 813.667 -803 L 771 -825 L 732.333 -841.667 L 702 -855.5 L 680 -866.5 L 658 -877.5 L 622.333 -889.667 L 573 -903 L 536.333 -910.333 L 499 -914.667 L 461 -916 L 423 -917.333 L 384.333 -911.667 L 345 -899 L 317.667 -887 L 298.5 -876.833 L 287.5 -868.5 L 276.5 -860.167 L 264 -845.333 L 250 -824 L 238 -804 L 231.167 -787.167 L 229.5 -773.5 L 227.833 -759.833 L 227.667 -743.667 L 229 -725 L 229.667 -706.333 L 231.833 -693 L 235.5 -685 L 239.167 -677 L 243.833 -668.667 L 249.5 -660 L 255.167 -651.333 L 262.5 -643.5 L 271.5 -636.5 L 280.5 -629.5 L 294.333 -624.5 L 313 -621.5 L 331.667 -618.5 L 350 -616 L 368 -614 L 376 -612.667 L 381.167 -609.5 L 383.5 -604.5 L 385.833 -599.5 L 383 -594.667 Z M 885 -498 L 910.333 -507.333 L 953.333 -506.667 L 1014 -496 L 1049.333 -486.667 L 1080.5 -474.833 L 1107.5 -460.5 L 1134.5 -446.167 L 1155.333 -420.667 L 1170 -384 L 1180 -348.667 L 1183.333 -320.333 L 1180 -299 L 1176.667 -277.667 L 1165 -253.333 L 1145 -226 L 1125.667 -202.667 L 1103.167 -185.167 L 1077.5 -173.5 L 1051.833 -161.833 L 1020 -152 L 982 -144 L 944.667 -136.667 L 914.333 -133.167 L 891 -133.5 L 867.667 -133.833 L 842.667 -134.333 L 816 -135 L 789.333 -136.333 L 764.5 -138.5 L 741.5 -141.5 L 718.5 -144.5 L 690.667 -151 L 658 -161 L 604 -175.667 L 550.667 -196 L 498 -222 L 468.667 -236.667 L 437.333 -252.5 L 404 -269.5 L 370.667 -286.5 L 333.667 -306.667 L 293 -330 L 274.333 -341.333 L 254 -353.5 L 232 -366.5 L 210 -379.5 L 186.333 -392.667 L 161 -406 L 141.667 -418 L 122.5 -430.167 L 103.5 -442.5 L 84.5 -454.833 L 76.5 -467.167 L 79.5 -479.5 L 82.5 -491.833 L 89.667 -497.667 L 101 -497 L 112.333 -496.333 L 148 -496.5 L 208 -497.5 L 268 -498.5 L 320.667 -498.667 L 366 -498 L 384 -484.667 L 383.667 -475.167 L 365 -469.5 L 346.333 -463.833 L 332.667 -456.667 L 324 -448 L 307.333 -430.667 L 300 -416.833 L 302 -406.5 L 304 -396.167 L 306.667 -388.167 L 310 -382.5 L 313.333 -376.833 L 318.667 -370.833 L 326 -364.5 L 333.333 -358.167 L 351.5 -345 L 380.5 -325 L 409.5 -305 L 445.667 -284 L 489 -262 L 527.667 -245.333 L 558 -231.667 L 580 -221 L 602 -210.333 L 637.667 -198.333 L 687 -185 L 723.667 -177.667 L 761 -173.167 L 799 -171.5 L 837 -169.833 L 875.667 -175.333 L 915 -188 L 942.333 -200 L 961.5 -210.333 L 972.5 -219 L 983.5 -227.667 L 996 -242.333 L 1010 -263 L 1022 -283 L 1028.833 -300 L 1030.5 -314 L 1032.167 -328 L 1032.333 -344 L 1031 -362 L 1030.333 -380.667 L 1028.167 -394.167 L 1024.5 -402.5 L 1020.833 -410.833 L 1016 -419.333 L 1010 -428 L 1004 -436.667 L 996.667 -444.5 L 988 -451.5 L 979.333 -458.5 L 965.667 -463.333 L 947 -466 L 928.333 -468.667 L 910 -471 L 892 -473 L 884 -474.333 L 878.833 -477.667 L 876.5 -483 L 874.167 -488.333 L 877 -493.333 Z M 581 -489 L 574.333 -494.333 L 573.833 -499.333 L 579.5 -504 L 585.167 -508.667 L 592.667 -511 L 602 -511 L 612 -511 L 625.667 -519.833 L 643 -537.5 L 660.333 -555.167 L 672 -577 L 678 -603 L 687.333 -647 L 664.333 -683.333 L 609 -712 L 587.667 -722 L 561 -731 L 529 -739 L 497 -747 L 465.333 -754 L 434 -760 L 402.667 -766 L 375 -770.833 L 351 -774.5 L 327 -778.167 L 313 -781 L 309 -783 L 300.333 -786.333 L 297 -790.667 L 299 -796 L 301 -801.333 L 305.333 -804 L 312 -804 L 315.333 -804 L 328.833 -802.667 L 352.5 -800 L 376.167 -797.333 L 404.5 -793.333 L 437.5 -788 L 470.5 -782.667 L 505.167 -775.667 L 541.5 -767 L 577.833 -758.333 L 611 -748.333 L 641 -737 L 676.333 -723 L 704.667 -709 L 726 -695 L 747.333 -681 L 766.667 -662 L 784 -638 L 801.333 -614 L 808.667 -590.333 L 806 -567 L 803.333 -543.667 L 793.333 -525.333 L 776 -512 L 760 -500 L 741.333 -492 L 720 -488 L 698.667 -484 L 678.667 -482 L 660 -482 L 641.333 -482 L 628.167 -482.167 L 620.5 -482.5 L 612.833 -482.833 L 599.667 -485 Z" fill="black" fill-opacity="0.25" stroke="black" stroke-width="4"/>
  <rect x="77" y="-955" width="1106" height="374" fill="none" stroke="red" stroke-width="10" /><rect x="76" y="-507" width="1107" height="374" fill="none" stroke="red" stroke-width="10" /><rect x="297" y="-804" width="512" height="322" fill="none" stroke="red" stroke-width="10" />
</svg>
