<svg xmlns="http://www.w3.org/2000/svg"
  viewBox="16.343 -906 1463.209 829">
  <rect x="16.343" y="-906" width="1463.209" height="829" fill="white"/>
  <path d="M 1215 -541 L 1208.333 -545.667 L 1208 -550.167 L 1214 -554.5 L 1220 -558.833 L 1227 -561 L 1235 -561 L 1244.333 -561 L 1257.333 -569.5 L 1274 -586.5 L 1290.667 -603.5 L 1302 -624.333 L 1308 -649 L 1316.667 -690.333 L 1294.667 -724.333 L 1242 -751 L 1202.667 -770.333 L 1149.667 -785.167 L 1083 -795.5 L 1016.333 -805.833 L 979.333 -812.667 L 972 -816 L 964.667 -818.667 L 961.833 -822.667 L 963.5 -828 L 965.167 -833.333 L 969 -836 L 975 -836 L 981 -836 L 1018 -831.167 L 1086 -821.5 L 1154 -811.833 L 1216 -796.333 L 1272 -775 L 1305.333 -761.667 L 1332.167 -748.333 L 1352.5 -735 L 1372.833 -721.667 L 1391.333 -704 L 1408 -682 L 1424.667 -659.333 L 1431.667 -636.833 L 1429 -614.5 L 1426.333 -592.167 L 1416.667 -575 L 1400 -563 L 1384.667 -551.667 L 1367.167 -544 L 1347.5 -540 L 1327.833 -536 L 1309 -534 L 1291 -534 L 1273 -534 L 1260.333 -534.167 L 1253 -534.5 L 1245.667 -534.833 L 1233 -537 Z M 821 -459 L 844.333 -467.667 L 883 -467 L 937 -457 L 969 -449 L 997.333 -438.5 L 1022 -425.5 L 1046.667 -412.5 L 1065.667 -389 L 1079 -355 L 1087.667 -323 L 1090.667 -297.5 L 1088 -278.5 L 1085.333 -259.5 L 1074.667 -237.333 L 1056 -212 L 1038.667 -191.333 L 1018.333 -175.333 L 995 -164 L 971.667 -152.667 L 943 -143.667 L 909 -137 L 875.667 -130.333 L 848.333 -127 L 827 -127 L 805.667 -127 L 782.667 -127.667 L 758 -129 L 734 -129.667 L 711.5 -131.5 L 690.5 -134.5 L 669.5 -137.5 L 644 -143.667 L 614 -153 L 564.667 -167 L 516.333 -185.333 L 469 -208 L 441.667 -221.333 L 413 -235.667 L 383 -251 L 353 -266.333 L 319.667 -284.333 L 283 -305 L 265.667 -315.667 L 247 -326.833 L 227 -338.5 L 207 -350.167 L 185.333 -362 L 162 -374 L 144 -384.667 L 126.5 -395.667 L 109.5 -407 L 92.5 -418.333 L 85.333 -429.667 L 88 -441 L 90.667 -452.333 L 97.167 -457.667 L 107.5 -457 L 117.833 -456.333 L 150.333 -456.667 L 205 -458 L 259.667 -459.333 L 307.333 -459.333 L 348 -458 L 364 -446 L 363.833 -437.5 L 347.5 -432.5 L 331.167 -427.5 L 318.667 -420.667 L 310 -412 L 295.333 -396.667 L 288.833 -384.5 L 290.5 -375.5 L 292.167 -366.5 L 294.5 -359.333 L 297.5 -354 L 300.5 -348.667 L 305.5 -343 L 312.5 -337 L 319.5 -331 L 336.167 -319 L 362.5 -301 L 388.833 -283 L 421.333 -264 L 460 -244 L 494.667 -228.667 L 522.167 -216.167 L 542.5 -206.5 L 562.833 -196.833 L 595.333 -186 L 640 -174 L 673.333 -168 L 707.333 -164.167 L 742 -162.5 L 776.667 -160.833 L 812 -165.667 L 848 -177 L 872.667 -188.333 L 890 -197.833 L 900 -205.5 L 910 -213.167 L 921.333 -226.333 L 934 -245 L 944.667 -263.667 L 950.833 -279.167 L 952.5 -291.5 L 954.167 -303.833 L 954.333 -318.333 L 953 -335 L 952.333 -351.667 L 950.333 -363.833 L 947 -371.5 L 943.667 -379.167 L 939.333 -387 L 934 -395 L 928.667 -403 L 922 -410.167 L 914 -416.5 L 906 -422.833 L 893.5 -427.333 L 876.5 -430 L 859.5 -432.667 L 843 -434.667 L 827 -436 L 819.667 -437.333 L 815 -440.5 L 813 -445.5 L 811 -450.5 L 813.667 -455 Z M 335 -525 L 311.667 -516.333 L 272.667 -516.667 L 218 -526 L 186 -534 L 157.667 -544.667 L 133 -558 L 108.333 -571.333 L 89.333 -594.667 L 76 -628 L 67.333 -660 L 64.5 -685.667 L 67.5 -705 L 70.5 -724.333 L 81 -746.333 L 99 -771 L 116.333 -792.333 L 136.833 -808.5 L 160.5 -819.5 L 184.167 -830.5 L 212.667 -839.333 L 246 -846 L 280 -852.667 L 307.667 -856 L 329 -856 L 350.333 -856 L 373.333 -855.333 L 398 -854 L 422.667 -853.333 L 445.333 -851.5 L 466 -848.5 L 486.667 -845.5 L 511.667 -839.333 L 541 -830 L 590.333 -816 L 639 -797.667 L 687 -775 L 714.333 -761.667 L 742.833 -747.333 L 772.5 -732 L 802.167 -716.667 L 835.667 -698.333 L 873 -677 L 890.333 -667 L 908.833 -656.167 L 928.5 -644.5 L 948.167 -632.833 L 969.667 -621 L 993 -609 L 1011 -597.667 L 1028.5 -586.5 L 1045.5 -575.5 L 1062.5 -564.5 L 1069.667 -553.333 L 1067 -542 L 1064.333 -530.667 L 1057.833 -525.333 L 1047.5 -526 L 1037.167 -526.667 L 1004.667 -526.333 L 950 -525 L 895.333 -523.667 L 847.667 -523.667 L 807 -525 L 791 -537 L 791.333 -545.5 L 808 -550.5 L 824.667 -555.5 L 837 -562 L 845 -570 L 859.667 -586 L 866.333 -598.5 L 865 -607.5 L 863.667 -616.5 L 861.333 -623.667 L 858 -629 L 854.667 -634.333 L 849.667 -640 L 843 -646 L 836.333 -652 L 819.833 -664 L 793.5 -682 L 767.167 -700 L 734.333 -719 L 695 -739 L 660.333 -754.333 L 632.833 -766.833 L 612.5 -776.5 L 592.167 -786.167 L 559.667 -797 L 515 -809 L 481.667 -815.667 L 447.833 -819.833 L 413.5 -821.5 L 379.167 -823.167 L 344 -818 L 308 -806 L 283.333 -795.333 L 265.833 -786 L 255.5 -778 L 245.167 -770 L 234 -756.667 L 222 -738 L 211.333 -720 L 205.167 -704.667 L 203.5 -692 L 201.833 -679.333 L 201.333 -664.667 L 202 -648 L 202.667 -631.333 L 204.667 -619.167 L 208 -611.5 L 211.333 -603.833 L 215.667 -596 L 221 -588 L 226.333 -580 L 233.167 -572.833 L 241.5 -566.5 L 249.833 -560.167 L 262.333 -555.833 L 279 -553.5 L 295.667 -551.167 L 312.333 -549 L 329 -547 L 336.333 -545.667 L 341 -542.667 L 343 -538 L 345 -533.333 L 342.333 -529 Z" fill="black" fill-opacity="0.25" stroke="black" stroke-width="4"/>
  <rect x="962" y="-836" width="470" height="302" fill="none" stroke="red" stroke-width="10" /><rect x="85" y="-468" width="1006" height="341" fill="none" stroke="red" stroke-width="10" /><rect x="65" y="-856" width="1005" height="340" fill="none" stroke="red" stroke-width="10" />
</svg>
