<svg xmlns="http://www.w3.org/2000/svg"
  viewBox="-6 -1272 1351.222 1188.522">
  <rect x="-6" y="-1272" width="1351.222" height="1188.522" fill="white"/>
  <path d="M 880 -498 L 905.333 -507.333 L 948.333 -506.667 L 1009 -496 L 1044.333 -487.333 L 1075.5 -475.667 L 1102.5 -461 L 1129.5 -446.333 L 1150.333 -420.667 L 1165 -384 L 1175 -348.667 L 1178.333 -320.5 L 1175 -299.5 L 1171.667 -278.5 L 1160 -254 L 1140 -226 L 1120.667 -202.667 L 1098.167 -185.167 L 1072.5 -173.5 L 1046.833 -161.833 L 1015.333 -152 L 978 -144 L 940.667 -136.667 L 910.333 -133.167 L 887 -133.5 L 863.667 -133.833 L 838.333 -134.333 L 811 -135 L 784.333 -136.333 L 759.5 -138.5 L 736.5 -141.5 L 713.5 -144.5 L 685.667 -151 L 653 -161 L 599 -175.667 L 545.667 -196 L 493 -222 L 463.667 -236.667 L 432.5 -252.5 L 399.5 -269.5 L 366.5 -286.5 L 329.667 -306.667 L 289 -330 L 270.333 -341.333 L 249.833 -353.5 L 227.5 -366.5 L 205.167 -379.5 L 181.333 -392.667 L 156 -406 L 136.667 -418 L 117.5 -430 L 98.5 -442 L 79.5 -454 L 71.5 -466.167 L 74.5 -478.5 L 77.5 -490.833 L 84.667 -496.667 L 96 -496 L 107.333 -495.333 L 143 -495.667 L 203 -497 L 263 -498.333 L 315.667 -498.667 L 361 -498 L 379 -484.667 L 378.833 -475.167 L 360.5 -469.5 L 342.167 -463.833 L 328.333 -456.667 L 319 -448 L 302.333 -430.667 L 295 -416.833 L 297 -406.5 L 299 -396.167 L 301.833 -388.167 L 305.5 -382.5 L 309.167 -376.833 L 314.667 -370.833 L 322 -364.5 L 329.333 -358.167 L 347.333 -345 L 376 -325 L 404.667 -305 L 440.667 -284 L 484 -262 L 522.667 -245.333 L 553 -231.667 L 575 -221 L 597 -210.333 L 632.667 -198.333 L 682 -185 L 718.667 -177.667 L 756 -173.167 L 794 -171.5 L 832 -169.833 L 870.667 -175.333 L 910 -188 L 937.333 -200 L 956.5 -210.333 L 967.5 -219 L 978.5 -227.667 L 991 -242.333 L 1005 -263 L 1017 -283 L 1023.833 -300 L 1025.5 -314 L 1027.167 -328 L 1027.333 -344 L 1026 -362 L 1025.333 -380.667 L 1023.167 -394.167 L 1019.5 -402.5 L 1015.833 -410.833 L 1011.167 -419.333 L 1005.5 -428 L 999.833 -436.667 L 992.5 -444.5 L 983.5 -451.5 L 974.5 -458.5 L 960.667 -463.333 L 942 -466 L 923.333 -468.667 L 905 -471 L 887 -473 L 879 -474.333 L 873.833 -477.667 L 871.5 -483 L 869.167 -488.333 L 872 -493.333 Z M 1281 -1222 L 1291.667 -1220 L 1296.333 -1214.5 L 1295 -1205.5 L 1293.667 -1196.5 L 1286.667 -1191.333 L 1274 -1190 L 1260 -1185.333 L 1248.833 -1167.833 L 1240.5 -1137.5 L 1232.167 -1107.167 L 1223 -1075 L 1213 -1041 L 1190.333 -961.667 L 1169.833 -897.333 L 1151.5 -848 L 1133.167 -798.667 L 1115.5 -764 L 1098.5 -744 L 1081.5 -724 L 1061.333 -709 L 1038 -699 L 1002 -683.667 L 966.5 -672.167 L 931.5 -664.5 L 896.5 -656.833 L 866 -653 L 840 -653 L 852.667 -623 L 874 -602.167 L 904 -590.5 L 934 -578.833 L 942.667 -566.333 L 930 -553 L 922.667 -545.667 L 899.667 -555.333 L 861 -582 L 822.333 -608.667 L 795.667 -635 L 781 -661 L 781 -677.667 L 787.833 -684.667 L 801.5 -682 L 815.167 -679.333 L 829.667 -677.333 L 845 -676 L 860.333 -675.333 L 876.167 -676.167 L 892.5 -678.5 L 908.833 -680.833 L 930.667 -689 L 958 -703 L 971.333 -709.667 L 984 -724.833 L 996 -748.5 L 1008 -772.167 L 1018.833 -798.5 L 1028.5 -827.5 L 1038.167 -856.5 L 1046.333 -885.167 L 1053 -913.5 L 1059.667 -941.833 L 1068.5 -982.667 L 1079.5 -1036 L 1090.5 -1089.333 L 1099.833 -1125 L 1107.5 -1143 L 1115.167 -1161 L 1126.167 -1175.5 L 1140.5 -1186.5 L 1154.833 -1197.5 L 1168.5 -1204.667 L 1181.5 -1208 L 1194.5 -1211.333 L 1209 -1213.833 L 1225 -1215.5 L 1241 -1217.167 L 1259.667 -1219.333 Z M 905 -1222 L 915.667 -1220 L 920.333 -1214.5 L 919 -1205.5 L 917.667 -1196.5 L 910.667 -1191.333 L 898 -1190 L 884 -1185.333 L 872.833 -1167.833 L 864.5 -1137.5 L 856.167 -1107.167 L 847 -1075 L 837 -1041 L 814.333 -961.667 L 793.833 -897.333 L 775.5 -848 L 757.167 -798.667 L 739.5 -764 L 722.5 -744 L 705.5 -724 L 685.333 -709 L 662 -699 L 626 -683.667 L 590.5 -672.167 L 555.5 -664.5 L 520.5 -656.833 L 490 -653 L 464 -653 L 476.667 -623 L 498 -602.167 L 528 -590.5 L 558 -578.833 L 566.667 -566.333 L 554 -553 L 546.667 -545.667 L 523.667 -555.333 L 485 -582 L 446.333 -608.667 L 419.667 -635 L 405 -661 L 405 -677.667 L 411.833 -684.667 L 425.5 -682 L 439.167 -679.333 L 453.667 -677.333 L 469 -676 L 484.333 -675.333 L 500.333 -676.167 L 517 -678.5 L 533.667 -680.833 L 555.667 -689 L 583 -703 L 596.333 -709.667 L 608.833 -724.833 L 620.5 -748.5 L 632.167 -772.167 L 642.833 -798.5 L 652.5 -827.5 L 662.167 -856.5 L 670.333 -885.167 L 677 -913.5 L 683.667 -941.833 L 692.5 -982.667 L 703.5 -1036 L 714.5 -1089.333 L 723.833 -1125 L 731.5 -1143 L 739.167 -1161 L 750.167 -1175.5 L 764.5 -1186.5 L 778.833 -1197.5 L 792.5 -1204.667 L 805.5 -1208 L 818.5 -1211.333 L 833 -1213.833 L 849 -1215.5 L 865 -1217.167 L 883.667 -1219.333 Z M 543 -1222 L 553.667 -1220 L 558.5 -1214.5 L 557.5 -1205.5 L 556.5 -1196.5 L 549.667 -1191.333 L 537 -1190 L 523 -1185.333 L 511.833 -1167.833 L 503.5 -1137.5 L 495.167 -1107.167 L 486 -1075 L 476 -1041 L 453.333 -961.667 L 432.667 -897.333 L 414 -848 L 395.333 -798.667 L 377.667 -764 L 361 -744 L 344.333 -724 L 324.333 -709 L 301 -699 L 265 -683.667 L 229.5 -672.167 L 194.5 -664.5 L 159.5 -656.833 L 129 -653 L 103 -653 L 115.667 -623 L 137 -602.167 L 167 -590.5 L 197 -578.833 L 205.667 -566.333 L 193 -553 L 185.667 -545.667 L 162.5 -555.333 L 123.5 -582 L 84.5 -608.667 L 58 -635 L 44 -661 L 44 -677.667 L 50.667 -684.667 L 64 -682 L 77.333 -679.333 L 92 -677.333 L 108 -676 L 123.333 -675.333 L 139.167 -676.167 L 155.5 -678.5 L 171.833 -680.833 L 193.667 -689 L 221 -703 L 234.333 -709.667 L 247 -724.833 L 259 -748.5 L 271 -772.167 L 281.833 -798.5 L 291.5 -827.5 L 301.167 -856.5 L 309.333 -885.167 L 316 -913.5 L 322.667 -941.833 L 331.333 -982.667 L 342 -1036 L 352.667 -1089.333 L 362 -1125 L 370 -1143 L 378 -1161 L 389.167 -1175.5 L 403.5 -1186.5 L 417.833 -1197.5 L 431.5 -1204.667 L 444.5 -1208 L 457.5 -1211.333 L 471.833 -1213.833 L 487.5 -1215.5 L 503.167 -1217.167 L 521.667 -1219.333 Z" fill="black" fill-opacity="0.25" stroke="black" stroke-width="4"/>
  <rect x="71" y="-507" width="1107" height="374" fill="none" stroke="red" stroke-width="10" /><rect x="781" y="-774.4" width="339.8" height="223.8" fill="none" stroke="red" stroke-width="10" /><rect x="1008.9" y="-998.2" width="191.9" height="223.8" fill="none" stroke="red" stroke-width="10" /><rect x="1071.7" y="-1222" width="224.6" height="223.8" fill="none" stroke="red" stroke-width="10" /><rect x="405" y="-774.4" width="339.8" height="223.8" fill="none" stroke="red" stroke-width="10" /><rect x="633.1" y="-998.2" width="191.7" height="223.8" fill="none" stroke="red" stroke-width="10" /><rect x="695.7" y="-1222" width="224.6" height="223.8" fill="none" stroke="red" stroke-width="10" /><rect x="44" y="-774.4" width="339" height="223.8" fill="none" stroke="red" stroke-width="10" /><rect x="271.9" y="-998.2" width="191.9" height="223.8" fill="none" stroke="red" stroke-width="10" /><rect x="334.4" y="-1222" width="224.1" height="223.8" fill="none" stroke="red" stroke-width="10" />
</svg>
