<svg xmlns="http://www.w3.org/2000/svg"
  viewBox="28.750000000056247 -1004.5217391303931 1202.4999999985375 921.0434782607863">
  <rect x="28.750000000056247" y="-1004.5217391303931" width="1202.4999999985375" height="921.0434782607863" fill="white"/>
  <path d="M 375.0 -590.0 L 349.666666667 -580.666666667 L 306.666666667 -581.0 L 246.0 -591.0 L 210.666666667 -599.666666667 L 179.5 -611.333333333 L 152.5 -626.0 L 125.5 -640.666666667 L 104.666666667 -666.333333333 L 90.0 -703.0 L 80.0 -738.333333333 L 76.6666666667 -766.666666667 L 80.0 -788.0 L 83.3333333333 -809.333333333 L 95.0 -833.666666667 L 115.0 -861.0 L 134.333333333 -884.333333333 L 156.833333333 -902.0 L 182.5 -914.0 L 208.166666667 -926.0 L 239.666666667 -936.0 L 277.0 -944.0 L 314.333333333 -951.333333333 L 344.666666667 -954.833333333 L 368.0 -954.5 L 391.333333333 -954.166666667 L 416.666666667 -953.333333333 L 444.0 -952.0 L 470.666666667 -950.666666667 L 495.5 -948.5 L 518.5 -945.5 L 541.5 -942.5 L 569.333333333 -936.0 L 602.0 -926.0 L 656.0 -911.333333333 L 709.333333333 -891.0 L 762.0 -865.0 L 791.333333333 -850.333333333 L 822.5 -834.5 L 855.5 -817.5 L 888.5 -800.5 L 925.333333333 -780.666666667 L 966.0 -758.0 L 984.666666667 -746.666666667 L 1005.16666667 -734.5 L 1027.5 -721.5 L 1049.83333333 -708.5 L 1073.66666667 -695.333333333 L 1099.0 -682.0 L 1118.33333333 -670.0 L 1137.5 -657.833333333 L 1156.5 -645.5 L 1175.5 -633.166666667 L 1183.5 -620.833333333 L 1180.5 -608.5 L 1177.5 -596.166666667 L 1170.33333333 -590.333333333 L 1159.0 -591.0 L 1147.66666667 -591.666666667 L 1111.83333333 -591.333333333 L 1051.5 -590.0 L 991.166666667 -588.666666667 L 938.666666667 -588.666666667 L 894.0 -590.0 L 876.0 -603.333333333 L 876.166666667 -612.833333333 L 894.5 -618.5 L 912.833333333 -624.166666667 L 926.666666667 -631.333333333 L 936.0 -640.0 L 952.666666667 -657.333333333 L 960.0 -671.0 L 958.0 -681.0 L 956.0 -691.0 L 953.166666667 -698.833333333 L 949.5 -704.5 L 945.833333333 -710.166666667 L 940.333333333 -716.333333333 L 933.0 -723.0 L 925.666666667 -729.666666667 L 907.5 -742.833333333 L 878.5 -762.5 L 849.5 -782.166666667 L 813.666666667 -803.0 L 771.0 -825.0 L 732.333333333 -841.666666667 L 702.0 -855.5 L 680.0 -866.5 L 658.0 -877.5 L 622.333333333 -889.666666667 L 573.0 -903.0 L 536.333333333 -910.333333333 L 499.0 -914.666666667 L 461.0 -916.0 L 423.0 -917.333333333 L 384.333333333 -911.666666667 L 345.0 -899.0 L 317.666666667 -887.0 L 298.5 -876.833333333 L 287.5 -868.5 L 276.5 -860.166666667 L 264.0 -845.333333333 L 250.0 -824.0 L 238.0 -804.0 L 231.166666667 -787.166666667 L 229.5 -773.5 L 227.833333333 -759.833333333 L 227.666666667 -743.666666667 L 229.0 -725.0 L 229.666666667 -706.333333333 L 231.833333333 -693.0 L 235.5 -685.0 L 239.166666667 -677.0 L 243.833333333 -668.666666667 L 249.5 -660.0 L 255.166666667 -651.333333333 L 262.5 -643.5 L 271.5 -636.5 L 280.5 -629.5 L 294.333333333 -624.5 L 313.0 -621.5 L 331.666666667 -618.5 L 350.0 -616.0 L 368.0 -614.0 L 376.0 -612.666666667 L 381.166666667 -609.5 L 383.5 -604.5 L 385.833333333 -599.5 L 383.0 -594.666666667 Z M 885.0 -498.0 L 910.333333333 -507.333333333 L 953.333333333 -506.666666667 L 1014.0 -496.0 L 1049.33333333 -486.666666667 L 1080.5 -474.833333333 L 1107.5 -460.5 L 1134.5 -446.166666667 L 1155.33333333 -420.666666667 L 1170.0 -384.0 L 1180.0 -348.666666667 L 1183.33333333 -320.333333333 L 1180.0 -299.0 L 1176.66666667 -277.666666667 L 1165.0 -253.333333333 L 1145.0 -226.0 L 1125.66666667 -202.666666667 L 1103.16666667 -185.166666667 L 1077.5 -173.5 L 1051.83333333 -161.833333333 L 1020.0 -152.0 L 982.0 -144.0 L 944.666666667 -136.666666667 L 914.333333333 -133.166666667 L 891.0 -133.5 L 867.666666667 -133.833333333 L 842.666666667 -134.333333333 L 816.0 -135.0 L 789.333333333 -136.333333333 L 764.5 -138.5 L 741.5 -141.5 L 718.5 -144.5 L 690.666666667 -151.0 L 658.0 -161.0 L 604.0 -175.666666667 L 550.666666667 -196.0 L 498.0 -222.0 L 468.666666667 -236.666666667 L 437.333333333 -252.5 L 404.0 -269.5 L 370.666666667 -286.5 L 333.666666667 -306.666666667 L 293.0 -330.0 L 274.333333333 -341.333333333 L 254.0 -353.5 L 232.0 -366.5 L 210.0 -379.5 L 186.333333333 -392.666666667 L 161.0 -406.0 L 141.666666667 -418.0 L 122.5 -430.166666667 L 103.5 -442.5 L 84.5 -454.833333333 L 76.5 -467.166666667 L 79.5 -479.5 L 82.5 -491.833333333 L 89.6666666667 -497.666666667 L 101.0 -497.0 L 112.333333333 -496.333333333 L 148.0 -496.5 L 208.0 -497.5 L 268.0 -498.5 L 320.666666667 -498.666666667 L 366.0 -498.0 L 384.0 -484.666666667 L 383.666666667 -475.166666667 L 365.0 -469.5 L 346.333333333 -463.833333333 L 332.666666667 -456.666666667 L 324.0 -448.0 L 307.333333333 -430.666666667 L 300.0 -416.833333333 L 302.0 -406.5 L 304.0 -396.166666667 L 306.666666667 -388.166666667 L 310.0 -382.5 L 313.333333333 -376.833333333 L 318.666666667 -370.833333333 L 326.0 -364.5 L 333.333333333 -358.166666667 L 351.5 -345.0 L 380.5 -325.0 L 409.5 -305.0 L 445.666666667 -284.0 L 489.0 -262.0 L 527.666666667 -245.333333333 L 558.0 -231.666666667 L 580.0 -221.0 L 602.0 -210.333333333 L 637.666666667 -198.333333333 L 687.0 -185.0 L 723.666666667 -177.666666667 L 761.0 -173.166666667 L 799.0 -171.5 L 837.0 -169.833333333 L 875.666666667 -175.333333333 L 915.0 -188.0 L 942.333333333 -200.0 L 961.5 -210.333333333 L 972.5 -219.0 L 983.5 -227.666666667 L 996.0 -242.333333333 L 1010.0 -263.0 L 1022.0 -283.0 L 1028.83333333 -300.0 L 1030.5 -314.0 L 1032.16666667 -328.0 L 1032.33333333 -344.0 L 1031.0 -362.0 L 1030.33333333 -380.666666667 L 1028.16666667 -394.166666667 L 1024.5 -402.5 L 1020.83333333 -410.833333333 L 1016.0 -419.333333333 L 1010.0 -428.0 L 1004.0 -436.666666667 L 996.666666667 -444.5 L 988.0 -451.5 L 979.333333333 -458.5 L 965.666666667 -463.333333333 L 947.0 -466.0 L 928.333333333 -468.666666667 L 910.0 -471.0 L 892.0 -473.0 L 884.0 -474.333333333 L 878.833333333 -477.666666667 L 876.5 -483.0 L 874.166666667 -488.333333333 L 877.0 -493.333333333 Z M 581.0 -489.0 L 574.333333333 -494.333333333 L 573.833333333 -499.333333333 L 579.5 -504.0 L 585.166666667 -508.666666667 L 592.666666667 -511.0 L 602.0 -511.0 L 612.0 -511.0 L 625.666666667 -519.833333333 L 643.0 -537.5 L 660.333333333 -555.166666667 L 672.0 -577.0 L 678.0 -603.0 L 687.333333333 -647.0 L 664.333333333 -683.333333333 L 609.0 -712.0 L 587.666666667 -722.0 L 561.0 -731.0 L 529.0 -739.0 L 497.0 -747.0 L 465.333333333 -754.0 L 434.0 -760.0 L 402.666666667 -766.0 L 375.0 -770.833333333 L 351.0 -774.5 L 327.0 -778.166666667 L 313.0 -781.0 L 309.0 -783.0 L 300.333333333 -786.333333333 L 297.0 -790.666666667 L 299.0 -796.0 L 301.0 -801.333333333 L 305.333333333 -804.0 L 312.0 -804.0 L 315.333333333 -804.0 L 328.833333333 -802.666666667 L 352.5 -800.0 L 376.166666667 -797.333333333 L 404.5 -793.333333333 L 437.5 -788.0 L 470.5 -782.666666667 L 505.166666667 -775.666666667 L 541.5 -767.0 L 577.833333333 -758.333333333 L 611.0 -748.333333333 L 641.0 -737.0 L 676.333333333 -723.0 L 704.666666667 -709.0 L 726.0 -695.0 L 747.333333333 -681.0 L 766.666666667 -662.0 L 784.0 -638.0 L 801.333333333 -614.0 L 808.666666667 -590.333333333 L 806.0 -567.0 L 803.333333333 -543.666666667 L 793.333333333 -525.333333333 L 776.0 -512.0 L 760.0 -500.0 L 741.333333333 -492.0 L 720.0 -488.0 L 698.666666667 -484.0 L 678.666666667 -482.0 L 660.0 -482.0 L 641.333333333 -482.0 L 628.166666667 -482.166666667 L 620.5 -482.5 L 612.833333333 -482.833333333 L 599.666666667 -485.0 Z" fill="black" fill-opacity="0.25" stroke="black" stroke-width="4.0"/>
  <rect x="77.0" y="-955.0" width="1106.0" height="374.0" fill="none" stroke="red" stroke-width="10.0" /><rect x="76.0" y="-507.0" width="1107.0" height="374.0" fill="none" stroke="red" stroke-width="10.0" /><rect x="297.0" y="-804.0" width="512.0" height="322.00000000000006" fill="none" stroke="red" stroke-width="10.0" />
</svg>
