<svg xmlns="http://www.w3.org/2000/svg"
  viewBox="-6 -1393 1232.25 1309.522">
  <rect x="-6" y="-1393" width="1232.25" height="1309.522" fill="white"/>
  <path d="M 531 -707 L 551 -707 L 572 -706.667 L 594 -706 L 616 -705.333 L 635.667 -703.333 L 653 -700 L 665.667 -700 L 679 -678.667 L 693 -636 L 707 -593.333 L 723.333 -552 L 742 -512 L 748 -498 L 754.333 -490 L 761 -488 L 766.333 -486.667 L 770.5 -483.333 L 773.5 -478 L 776.5 -472.667 L 773.667 -468 L 765 -464 L 744.333 -460 L 723.667 -458.333 L 703 -459 L 682.333 -459.667 L 663 -461.333 L 645 -464 L 627 -472 L 613 -491.167 L 603 -521.5 L 593 -551.833 L 578 -596 L 558 -654 L 556 -657.333 L 552.167 -662.333 L 546.5 -669 L 540.833 -675.667 L 534.667 -679.667 L 528 -681 L 518.667 -683 L 513.333 -687.833 L 512 -695.5 L 510.667 -703.167 L 517 -707 Z M 880 -498 L 905.333 -507.333 L 948.333 -506.667 L 1009 -496 L 1044.333 -487.333 L 1075.5 -475.667 L 1102.5 -461 L 1129.5 -446.333 L 1150.333 -420.667 L 1165 -384 L 1175 -348.667 L 1178.333 -320.5 L 1175 -299.5 L 1171.667 -278.5 L 1160 -254 L 1140 -226 L 1120.667 -202.667 L 1098.167 -185.167 L 1072.5 -173.5 L 1046.833 -161.833 L 1015.333 -152 L 978 -144 L 940.667 -136.667 L 910.333 -133.167 L 887 -133.5 L 863.667 -133.833 L 838.333 -134.333 L 811 -135 L 784.333 -136.333 L 759.5 -138.5 L 736.5 -141.5 L 713.5 -144.5 L 685.667 -151 L 653 -161 L 599 -175.667 L 545.667 -196 L 493 -222 L 463.667 -236.667 L 432.5 -252.5 L 399.5 -269.5 L 366.5 -286.5 L 329.667 -306.667 L 289 -330 L 270.333 -341.333 L 249.833 -353.5 L 227.5 -366.5 L 205.167 -379.5 L 181.333 -392.667 L 156 -406 L 136.667 -418 L 117.5 -430 L 98.5 -442 L 79.5 -454 L 71.5 -466.167 L 74.5 -478.5 L 77.5 -490.833 L 84.667 -496.667 L 96 -496 L 107.333 -495.333 L 143 -495.667 L 203 -497 L 263 -498.333 L 315.667 -498.667 L 361 -498 L 379 -484.667 L 378.833 -475.167 L 360.5 -469.5 L 342.167 -463.833 L 328.333 -456.667 L 319 -448 L 302.333 -430.667 L 295 -416.833 L 297 -406.5 L 299 -396.167 L 301.833 -388.167 L 305.5 -382.5 L 309.167 -376.833 L 314.667 -370.833 L 322 -364.5 L 329.333 -358.167 L 347.333 -345 L 376 -325 L 404.667 -305 L 440.667 -284 L 484 -262 L 522.667 -245.333 L 553 -231.667 L 575 -221 L 597 -210.333 L 632.667 -198.333 L 682 -185 L 718.667 -177.667 L 756 -173.167 L 794 -171.5 L 832 -169.833 L 870.667 -175.333 L 910 -188 L 937.333 -200 L 956.5 -210.333 L 967.5 -219 L 978.5 -227.667 L 991 -242.333 L 1005 -263 L 1017 -283 L 1023.833 -300 L 1025.5 -314 L 1027.167 -328 L 1027.333 -344 L 1026 -362 L 1025.333 -380.667 L 1023.167 -394.167 L 1019.5 -402.5 L 1015.833 -410.833 L 1011.167 -419.333 L 1005.5 -428 L 999.833 -436.667 L 992.5 -444.5 L 983.5 -451.5 L 974.5 -458.5 L 960.667 -463.333 L 942 -466 L 923.333 -468.667 L 905 -471 L 887 -473 L 879 -474.333 L 873.833 -477.667 L 871.5 -483 L 869.167 -488.333 L 872 -493.333 Z M 543 -1222 L 553.667 -1220 L 558.5 -1214.5 L 557.5 -1205.5 L 556.5 -1196.5 L 549.667 -1191.333 L 537 -1190 L 523 -1185.333 L 511.833 -1167.833 L 503.5 -1137.5 L 495.167 -1107.167 L 486 -1075 L 476 -1041 L 453.333 -961.667 L 432.667 -897.333 L 414 -848 L 395.333 -798.667 L 377.667 -764 L 361 -744 L 344.333 -724 L 324.333 -709 L 301 -699 L 265 -683.667 L 229.5 -672.167 L 194.5 -664.5 L 159.5 -656.833 L 129 -653 L 103 -653 L 115.667 -623 L 137 -602.167 L 167 -590.5 L 197 -578.833 L 205.667 -566.333 L 193 -553 L 185.667 -545.667 L 162.5 -555.333 L 123.5 -582 L 84.5 -608.667 L 58 -635 L 44 -661 L 44 -677.667 L 50.667 -684.667 L 64 -682 L 77.333 -679.333 L 92 -677.333 L 108 -676 L 123.333 -675.333 L 139.167 -676.167 L 155.5 -678.5 L 171.833 -680.833 L 193.667 -689 L 221 -703 L 234.333 -709.667 L 247 -724.833 L 259 -748.5 L 271 -772.167 L 281.833 -798.5 L 291.5 -827.5 L 301.167 -856.5 L 309.333 -885.167 L 316 -913.5 L 322.667 -941.833 L 331.333 -982.667 L 342 -1036 L 352.667 -1089.333 L 362 -1125 L 370 -1143 L 378 -1161 L 389.167 -1175.5 L 403.5 -1186.5 L 417.833 -1197.5 L 431.5 -1204.667 L 444.5 -1208 L 457.5 -1211.333 L 471.833 -1213.833 L 487.5 -1215.5 L 503.167 -1217.167 L 521.667 -1219.333 Z M 1010 -1343 L 1020 -1341.667 L 1024.333 -1337.167 L 1023 -1329.5 L 1021.667 -1321.833 L 1015.333 -1317.333 L 1004 -1316 L 991.333 -1312 L 981 -1297.167 L 973 -1271.5 L 965 -1245.833 L 956.667 -1218.667 L 948 -1190 L 927.333 -1122.667 L 908.167 -1068.333 L 890.5 -1027 L 872.833 -985.667 L 856.333 -956.667 L 841 -940 L 825.667 -923.333 L 807.333 -910.667 L 786 -902 L 752.667 -888.667 L 719.667 -879 L 687 -873 L 654.333 -867 L 626.333 -864 L 603 -864 L 615 -838 L 634.667 -820.167 L 662 -810.5 L 689.333 -800.833 L 697.333 -790.333 L 686 -779 L 679.333 -773 L 658 -781.167 L 622 -803.5 L 586 -825.833 L 561.333 -848 L 548 -870 L 548 -884 L 554.167 -889.833 L 566.5 -887.5 L 578.833 -885.167 L 592.333 -883.667 L 607 -883 L 621.667 -882.333 L 636.5 -883 L 651.5 -885 L 666.5 -887 L 686.667 -894 L 712 -906 L 724.667 -912 L 736.333 -924.833 L 747 -944.5 L 757.667 -964.167 L 767.5 -986.167 L 776.5 -1010.5 L 785.5 -1034.833 L 793.167 -1058.833 L 799.5 -1082.5 L 805.833 -1106.167 L 813.833 -1140.5 L 823.5 -1185.5 L 833.167 -1230.5 L 841.667 -1260.667 L 849 -1276 L 856.333 -1291.333 L 866.667 -1303.667 L 880 -1313 L 893.333 -1322.333 L 906 -1328.5 L 918 -1331.5 L 930 -1334.5 L 943.5 -1336.667 L 958.5 -1338 L 973.5 -1339.333 L 990.667 -1341 Z" fill="black" fill-opacity="0.25" stroke="black" stroke-width="4"/>
  <rect x="511" y="-707" width="265" height="249" fill="none" stroke="red" stroke-width="10" /><rect x="71" y="-507" width="1107" height="374" fill="none" stroke="red" stroke-width="10" /><rect x="44" y="-774.4" width="339" height="223.8" fill="none" stroke="red" stroke-width="10" /><rect x="271.9" y="-998.2" width="191.9" height="223.8" fill="none" stroke="red" stroke-width="10" /><rect x="334.4" y="-1222" width="224.1" height="223.8" fill="none" stroke="red" stroke-width="10" /><rect x="548" y="-965.7" width="313.5" height="188.6" fill="none" stroke="red" stroke-width="10" /><rect x="758.4" y="-1154.4" width="178.7" height="188.7" fill="none" stroke="red" stroke-width="10" /><rect x="816.8" y="-1343" width="207.5" height="188.6" fill="none" stroke="red" stroke-width="10" />
</svg>
