<svg xmlns="http://www.w3.org/2000/svg"
  viewBox="31.75013732868244 -555.0 1591.3729557248214 471.533317131539">
  <rect x="31.75013732868244" y="-555.0" width="1591.3729557248214" height="471.533317131539" fill="white"/>
  <path d="M 1334.0 -146.0 L 1326.66699219 -151.333007812 L 1326.16699219 -156.5 L 1332.5 -161.5 L 1338.83300781 -166.5 L 1347.0 -169.0 L 1357.0 -169.0 L 1367.66699219 -169.0 L 1382.16699219 -178.5 L 1400.5 -197.5 L 1418.83300781 -216.5 L 1431.0 -239.666992188 L 1437.0 -267.0 L 1446.33300781 -313.0 L 1422.0 -351.0 L 1364.0 -381.0 L 1342.0 -391.666992188 L 1314.66699219 -401.166992188 L 1282.0 -409.5 L 1249.33300781 -417.833007812 L 1217.33300781 -424.833007812 L 1186.0 -430.5 L 1154.66699219 -436.166992188 L 1127.16699219 -441.0 L 1103.5 -445.0 L 1079.83300781 -449.0 L 1066.0 -451.666992188 L 1062.0 -453.0 L 1053.33300781 -456.333007812 L 1050.0 -461.0 L 1052.0 -467.0 L 1054.0 -473.0 L 1058.66699219 -476.0 L 1066.0 -476.0 L 1073.33300781 -476.0 L 1114.83300781 -470.5 L 1190.5 -459.5 L 1266.16699219 -448.5 L 1335.33300781 -431.0 L 1398.0 -407.0 L 1435.33300781 -392.333007812 L 1465.16699219 -377.666992188 L 1487.5 -363.0 L 1509.83300781 -348.333007812 L 1530.33300781 -328.666992188 L 1549.0 -304.0 L 1567.66699219 -279.333007812 L 1575.5 -254.5 L 1572.5 -229.5 L 1569.5 -204.5 L 1558.66699219 -185.0 L 1540.0 -171.0 L 1522.66699219 -158.333007812 L 1503.0 -149.833007812 L 1481.0 -145.5 L 1459.0 -141.166992188 L 1438.0 -139.0 L 1418.0 -139.0 L 1388.0 -139.0 L 1388.0 -139.0 L 1376.0 -139.0 L 1368.0 -139.0 L 1354.0 -141.333007812 Z M 377.0 -140.0 L 351.666992188 -130.666992188 L 309.0 -131.333007812 L 249.0 -142.0 L 213.666992188 -150.666992188 L 182.5 -162.333007812 L 155.5 -177.0 L 128.5 -191.666992188 L 107.666992188 -217.333007812 L 93.0 -254.0 L 83.0 -289.333007812 L 79.6669921875 -317.5 L 83.0 -338.5 L 86.3330078125 -359.5 L 98.0 -384.0 L 118.0 -412.0 L 137.333007812 -435.333007812 L 159.833007812 -453.0 L 185.5 -465.0 L 211.166992188 -477.0 L 242.666992188 -486.666992188 L 280.0 -494.0 L 317.333007812 -501.333007812 L 347.666992188 -505.0 L 371.0 -505.0 L 394.333007812 -505.0 L 419.666992188 -504.333007812 L 447.0 -503.0 L 473.666992188 -501.666992188 L 498.333007812 -499.5 L 521.0 -496.5 L 543.666992188 -493.5 L 571.333007812 -487.0 L 604.0 -477.0 L 658.0 -462.333007812 L 711.333007812 -442.0 L 764.0 -416.0 L 793.333007812 -401.333007812 L 824.666992188 -385.5 L 858.0 -368.5 L 891.333007812 -351.5 L 928.333007812 -331.333007812 L 969.0 -308.0 L 987.666992188 -296.666992188 L 1008.0 -284.666992188 L 1030.0 -272.0 L 1052.0 -259.333007812 L 1076.0 -246.333007812 L 1102.0 -233.0 L 1121.33300781 -221.0 L 1140.33300781 -208.833007812 L 1159.0 -196.5 L 1177.66699219 -184.166992188 L 1185.5 -171.833007812 L 1182.5 -159.5 L 1179.5 -147.166992188 L 1172.33300781 -141.333007812 L 1161.0 -142.0 L 1149.66699219 -142.666992188 L 1114.0 -142.333007812 L 1054.0 -141.0 L 994.0 -139.666992188 L 941.666992188 -139.333007812 L 897.0 -140.0 L 879.0 -153.333007812 L 879.166992188 -163.0 L 897.5 -169.0 L 915.833007812 -175.0 L 929.333007812 -182.333007812 L 938.0 -191.0 L 954.666992188 -208.333007812 L 962.166992188 -222.0 L 960.5 -232.0 L 958.833007812 -242.0 L 956.166992188 -249.833007812 L 952.5 -255.5 L 948.833007812 -261.166992188 L 943.333007812 -267.166992188 L 936.0 -273.5 L 928.666992188 -279.833007812 L 910.5 -293.0 L 881.5 -313.0 L 852.5 -333.0 L 816.666992188 -354.0 L 774.0 -376.0 L 735.333007812 -392.666992188 L 705.0 -406.333007812 L 683.0 -417.0 L 661.0 -427.666992188 L 625.0 -439.666992188 L 575.0 -453.0 L 538.333007812 -460.333007812 L 501.166992188 -464.833007812 L 463.5 -466.5 L 425.833007812 -468.166992188 L 387.333007812 -462.666992188 L 348.0 -450.0 L 320.666992188 -438.0 L 301.333007812 -427.833007812 L 290.0 -419.5 L 278.666992188 -411.166992188 L 266.333007812 -396.333007812 L 253.0 -375.0 L 241.0 -355.0 L 234.0 -338.0 L 232.0 -324.0 L 230.0 -310.0 L 229.666992188 -294.0 L 231.0 -276.0 L 231.666992188 -257.333007812 L 233.833007812 -243.833007812 L 237.5 -235.5 L 241.166992188 -227.166992188 L 246.0 -218.833007812 L 252.0 -210.5 L 258.0 -202.166992188 L 265.5 -194.5 L 274.5 -187.5 L 283.5 -180.5 L 297.333007812 -175.5 L 316.0 -172.5 L 334.666992188 -169.5 L 353.0 -167.0 L 371.0 -165.0 L 379.0 -163.666992188 L 384.0 -160.333007812 L 386.0 -155.0 L 388.0 -149.666992188 L 385.0 -144.666992188 Z" fill="black" fill-opacity="0.25" stroke="black" stroke-width="4.0"/>
  <rect x="1050.0" y="-476.0" width="524.9999999999999" height="336.99999999999994" fill="none" stroke="red" stroke-width="10.0" /><rect x="80.0" y="-505.0" width="1105.0" height="374.0" fill="none" stroke="red" stroke-width="10.0" />
</svg>
