<svg xmlns="http://www.w3.org/2000/svg"
  viewBox="31.75 -555 1591.373 471.533">
  <rect x="31.75" y="-555" width="1591.373" height="471.533" fill="white"/>
  <path d="M 1334 -146 L 1326.667 -151.333 L 1326.167 -156.5 L 1332.5 -161.5 L 1338.833 -166.5 L 1347 -169 L 1357 -169 L 1367.667 -169 L 1382.167 -178.5 L 1400.5 -197.5 L 1418.833 -216.5 L 1431 -239.667 L 1437 -267 L 1446.333 -313 L 1422 -351 L 1364 -381 L 1342 -391.667 L 1314.667 -401.167 L 1282 -409.5 L 1249.333 -417.833 L 1217.333 -424.833 L 1186 -430.5 L 1154.667 -436.167 L 1127.167 -441 L 1103.5 -445 L 1079.833 -449 L 1066 -451.667 L 1062 -453 L 1053.333 -456.333 L 1050 -461 L 1052 -467 L 1054 -473 L 1058.667 -476 L 1066 -476 L 1073.333 -476 L 1114.833 -470.5 L 1190.5 -459.5 L 1266.167 -448.5 L 1335.333 -431 L 1398 -407 L 1435.333 -392.333 L 1465.167 -377.667 L 1487.5 -363 L 1509.833 -348.333 L 1530.333 -328.667 L 1549 -304 L 1567.667 -279.333 L 1575.5 -254.5 L 1572.5 -229.5 L 1569.5 -204.5 L 1558.667 -185 L 1540 -171 L 1522.667 -158.333 L 1503 -149.833 L 1481 -145.5 L 1459 -141.167 L 1438 -139 L 1418 -139 L 1388 -139 L 1388 -139 L 1376 -139 L 1368 -139 L 1354 -141.333 Z M 377 -140 L 351.667 -130.667 L 309 -131.333 L 249 -142 L 213.667 -150.667 L 182.5 -162.333 L 155.5 -177 L 128.5 -191.667 L 107.667 -217.333 L 93 -254 L 83 -289.333 L 79.667 -317.5 L 83 -338.5 L 86.333 -359.5 L 98 -384 L 118 -412 L 137.333 -435.333 L 159.833 -453 L 185.5 -465 L 211.167 -477 L 242.667 -486.667 L 280 -494 L 317.333 -501.333 L 347.667 -505 L 371 -505 L 394.333 -505 L 419.667 -504.333 L 447 -503 L 473.667 -501.667 L 498.333 -499.5 L 521 -496.5 L 543.667 -493.5 L 571.333 -487 L 604 -477 L 658 -462.333 L 711.333 -442 L 764 -416 L 793.333 -401.333 L 824.667 -385.5 L 858 -368.5 L 891.333 -351.5 L 928.333 -331.333 L 969 -308 L 987.667 -296.667 L 1008 -284.667 L 1030 -272 L 1052 -259.333 L 1076 -246.333 L 1102 -233 L 1121.333 -221 L 1140.333 -208.833 L 1159 -196.5 L 1177.667 -184.167 L 1185.5 -171.833 L 1182.5 -159.5 L 1179.5 -147.167 L 1172.333 -141.333 L 1161 -142 L 1149.667 -142.667 L 1114 -142.333 L 1054 -141 L 994 -139.667 L 941.667 -139.333 L 897 -140 L 879 -153.333 L 879.167 -163 L 897.5 -169 L 915.833 -175 L 929.333 -182.333 L 938 -191 L 954.667 -208.333 L 962.167 -222 L 960.5 -232 L 958.833 -242 L 956.167 -249.833 L 952.5 -255.5 L 948.833 -261.167 L 943.333 -267.167 L 936 -273.5 L 928.667 -279.833 L 910.5 -293 L 881.5 -313 L 852.5 -333 L 816.667 -354 L 774 -376 L 735.333 -392.667 L 705 -406.333 L 683 -417 L 661 -427.667 L 625 -439.667 L 575 -453 L 538.333 -460.333 L 501.167 -464.833 L 463.5 -466.5 L 425.833 -468.167 L 387.333 -462.667 L 348 -450 L 320.667 -438 L 301.333 -427.833 L 290 -419.5 L 278.667 -411.167 L 266.333 -396.333 L 253 -375 L 241 -355 L 234 -338 L 232 -324 L 230 -310 L 229.667 -294 L 231 -276 L 231.667 -257.333 L 233.833 -243.833 L 237.5 -235.5 L 241.167 -227.167 L 246 -218.833 L 252 -210.5 L 258 -202.167 L 265.5 -194.5 L 274.5 -187.5 L 283.5 -180.5 L 297.333 -175.5 L 316 -172.5 L 334.667 -169.5 L 353 -167 L 371 -165 L 379 -163.667 L 384 -160.333 L 386 -155 L 388 -149.667 L 385 -144.667 Z" fill="black" fill-opacity="0.25" stroke="black" stroke-width="4"/>
  <rect x="1050" y="-476" width="525" height="337" fill="none" stroke="red" stroke-width="10" /><rect x="80" y="-505" width="1105" height="374" fill="none" stroke="red" stroke-width="10" />
</svg>
