<svg xmlns="http://www.w3.org/2000/svg"
  viewBox="-437 -1251 1060.727 492.333">
  <rect x="-437" y="-1251" width="1060.727" height="492.333" fill="white"/>
  <path d="M -136 -1065 L -136 -1073.667 L -132.667 -1078.667 L -126 -1080 L -86.667 -1080 L -47.333 -1080.167 L -8 -1080.5 L 31.333 -1080.833 L 70.667 -1081.333 L 110 -1082 L 110.667 -1106.667 L 111 -1122.833 L 111 -1130.5 L 111 -1142 L 111 -1142 L 111 -1184 L 111 -1192.667 L 114 -1197.667 L 120 -1199 L 169.333 -1199 L 218.833 -1199.167 L 268.5 -1199.5 L 318.167 -1199.833 L 367.333 -1200.333 L 416 -1201 L 419.333 -1196.333 L 420.667 -1190.333 L 420 -1183 L 419.333 -1175.667 L 418.333 -1169.667 L 417 -1165 L 407 -1162.333 L 374.167 -1161.167 L 318.5 -1161.5 L 262.833 -1161.833 L 214.667 -1162 L 174 -1162 L 174 -1128 L 174.667 -1100.833 L 176 -1080.5 L 177.333 -1060.167 L 176.333 -1049.667 L 173 -1049 L 167.667 -1048.333 L 162.333 -1047.333 L 157 -1046 L 151.667 -1044.667 L 136.333 -1044.667 L 111 -1046 L 84.333 -1045.333 L 53.5 -1044.5 L 18.5 -1043.5 L -16.5 -1042.5 L -47 -1042 L -73 -1042 L -73 -1038 L -73 -1038 L -73 -1035 L -73 -1032 L -73 -1032 L -73 -1029 L -72.333 -963 L -72.667 -930 L -74 -930 L -79.333 -929.333 L -84.5 -928.333 L -89.5 -927 L -94.5 -925.667 L -110 -925.333 L -136 -926 L -162.667 -925.333 L -193.333 -924.667 L -228 -924 L -262.667 -923.333 L -293.333 -923 L -320 -923 L -320 -849 L -320.667 -812 L -322 -812 L -332 -812 L -342.833 -811.167 L -354.5 -809.5 L -366.167 -807.833 L -376.333 -808.667 L -385 -812 L -386.333 -812 L -387 -815.333 L -387 -822 L -387 -822 L -387 -822 L -386 -822.5 L -385.333 -822.833 L -385 -823.333 L -385 -824 L -385 -859.333 L -384.667 -879.5 L -384 -884.5 L -383.333 -889.5 L -383 -909.667 L -383 -945 L -383 -953.667 L -379.667 -958.667 L -373 -960 L -333.667 -960 L -294.333 -960.167 L -255 -960.5 L -215.667 -960.833 L -176.333 -961.333 L -137 -962 L -137 -979.333 L -136.833 -996.5 L -136.5 -1013.5 L -136.167 -1030.5 L -136 -1047.667 Z M 509 -1181 L 551 -1181 L 553 -1181 L 556.667 -1180.833 L 562 -1180.5 L 567.333 -1180.167 L 571 -1179.333 L 573 -1178 L 574.333 -1176 L 573.833 -1175 L 571.5 -1175 L 569.167 -1175 L 567.333 -1169.667 L 566 -1159 L 561 -1125 L 559 -1111 L 552.333 -1103.667 L 541 -1103 L 499 -1103 L 496.333 -1103 L 491.833 -1103.167 L 485.5 -1103.5 L 479.167 -1103.833 L 476 -1105 L 476 -1107 L 476 -1109.667 L 477 -1111.5 L 479 -1112.5 L 481 -1113.5 L 482.667 -1117.667 L 484 -1125 L 488 -1159 L 490 -1173.667 L 497 -1181 Z" fill="black" fill-opacity="0.25" stroke="black" stroke-width="4"/>
  <rect x="-387" y="-939.4" width="314.4" height="130.7" fill="none" stroke="red" stroke-width="10" /><rect x="-383" y="-1070.2" width="560.3" height="130.8" fill="none" stroke="red" stroke-width="10" /><rect x="-136" y="-1201" width="710.3" height="130.8" fill="none" stroke="red" stroke-width="10" />
</svg>
