<svg xmlns="http://www.w3.org/2000/svg"
  viewBox="-596 -1252 1070.167 492.333">
  <rect x="-596" y="-1252" width="1070.167" height="492.333" fill="white"/>
  <path d="M -132 -1066 L -132 -1074.667 L -128.667 -1079.667 L -122 -1081 L -82.667 -1081 L -43.333 -1081.167 L -4 -1081.5 L 35.333 -1081.833 L 74.667 -1082.333 L 114 -1083 L 114.667 -1107.667 L 115 -1123.833 L 115 -1131.5 L 115 -1143 L 115 -1143 L 115 -1185 L 115 -1193.667 L 118 -1198.667 L 124 -1200 L 173.333 -1200 L 222.833 -1200.167 L 272.5 -1200.5 L 322.167 -1200.833 L 371.333 -1201.333 L 420 -1202 L 423.333 -1197.333 L 424.667 -1191.333 L 424 -1184 L 423.333 -1176.667 L 422.333 -1170.667 L 421 -1166 L 411 -1163.333 L 378.167 -1162.167 L 322.5 -1162.5 L 266.833 -1162.833 L 218.667 -1163 L 178 -1163 L 178 -1129 L 178.833 -1101.833 L 180.5 -1081.5 L 182.167 -1061.167 L 181 -1050.667 L 177 -1050 L 171.667 -1049.333 L 166.333 -1048.333 L 161 -1047 L 155.667 -1045.667 L 140.333 -1045.667 L 115 -1047 L 88.333 -1046.333 L 57.667 -1045.5 L 23 -1044.5 L -11.667 -1043.5 L -42.333 -1043 L -69 -1043 L -69 -1039 L -69 -1039 L -69 -1036 L -69 -1033 L -69 -1033 L -69 -1030 L -68.333 -964 L -68.667 -931 L -70 -931 L -75.333 -930.333 L -80.5 -929.333 L -85.5 -928 L -90.5 -926.667 L -105.667 -926.333 L -131 -927 L -157.667 -926.333 L -188.5 -925.667 L -223.5 -925 L -258.5 -924.333 L -289 -924 L -315 -924 L -315 -850 L -316 -813 L -318 -813 L -328 -813 L -338.833 -812.167 L -350.5 -810.5 L -362.167 -808.833 L -372 -809.667 L -380 -813 L -381.333 -813 L -382 -816.333 L -382 -823 L -382 -823 L -382 -823 L -381 -823.5 L -380.333 -823.833 L -380 -824.333 L -380 -825 L -380 -860.333 L -379.667 -880.5 L -379 -885.5 L -378.333 -890.5 L -378 -910.667 L -378 -946 L -378 -954.667 L -375 -959.667 L -369 -961 L -329.667 -961 L -290.167 -961.167 L -250.5 -961.5 L -210.833 -961.833 L -171.667 -962.333 L -133 -963 L -133 -980.333 L -132.833 -997.5 L -132.5 -1014.5 L -132.167 -1031.5 L -132 -1048.667 Z M -513 -938 L -471 -938 L -467 -938 L -467 -938 L -459 -938 L -453.667 -938 L -450.333 -937.333 L -449 -936 L -447 -934 L -447.333 -932.833 L -450 -932.5 L -452.667 -932.167 L -454.667 -926.667 L -456 -916 L -461 -882 L -462.333 -867.333 L -469 -860 L -481 -860 L -523 -860 L -525 -860 L -529.333 -860.167 L -536 -860.5 L -542.667 -860.833 L -546 -862.333 L -546 -865 L -546 -867.667 L -545 -869.5 L -543 -870.5 L -541 -871.5 L -539.667 -875.333 L -539 -882 L -534 -916 L -532 -930.667 L -525 -938 Z" fill="black" fill-opacity="0.25" stroke="black" stroke-width="4"/>
  <rect x="-546" y="-940.4" width="477.4" height="130.7" fill="none" stroke="red" stroke-width="10" /><rect x="-378" y="-1071.2" width="560.2" height="130.8" fill="none" stroke="red" stroke-width="10" /><rect x="-132" y="-1202" width="556.7" height="130.8" fill="none" stroke="red" stroke-width="10" />
</svg>
