<svg xmlns="http://www.w3.org/2000/svg"
  viewBox="7.982 -1279.571 989.528 1179.571">
  <rect x="7.982" y="-1279.571" width="989.528" height="1179.571" fill="white"/>
  <path d="M 805 -883 L 813 -850 L 813.667 -848 L 817 -842.667 L 823 -834 L 829 -825.333 L 832 -820 L 832 -818 L 832 -816 L 827 -813.833 L 817 -811.5 L 807 -809.167 L 800.333 -808 L 797 -808 L 743 -808 L 736.333 -808 L 729.5 -812.833 L 722.5 -822.5 L 715.5 -832.167 L 711.333 -841.333 L 710 -850 L 702 -883 L 632 -883 L 567.667 -885.667 L 509 -891 L 450.333 -896.333 L 408.667 -901 L 384 -905 L 290.667 -919 L 233.333 -950.333 L 212 -999 L 207.333 -1009.667 L 198.667 -1025.667 L 186 -1047 L 173.333 -1068.333 L 160.167 -1089.833 L 146.5 -1111.5 L 132.833 -1133.167 L 119.833 -1152.667 L 107.5 -1170 L 95.167 -1187.333 L 86.667 -1197 L 82 -1199 L 57.333 -1207 L 51.667 -1215.667 L 65 -1225 L 128.333 -1230.333 L 185.333 -1231 L 236 -1227 L 264.667 -1225.667 L 285.333 -1210.167 L 298 -1180.5 L 310.667 -1150.833 L 323.333 -1112 L 336 -1064 L 348 -1016 L 363.333 -983.333 L 382 -966 L 400.667 -948.667 L 432.333 -934.333 L 477 -923 L 521 -911.667 L 595 -906.667 L 699 -908 L 688 -968 L 687.333 -970.667 L 684.333 -974.333 L 679 -979 L 673.667 -983.667 L 671 -987.333 L 671 -990 L 671 -993.333 L 675.833 -995.667 L 685.5 -997 L 695.167 -998.333 L 702 -999 L 706 -999 L 761 -999 L 767.667 -999 L 774.167 -994.5 L 780.5 -985.5 L 786.833 -976.5 L 791 -967 L 793 -957 L 803 -909 L 843 -909.667 L 870.167 -911 L 884.5 -913 L 898.833 -915 L 914.667 -917.333 L 932 -920 L 949.333 -918 L 951.667 -910.333 L 939 -897 L 933 -892.333 L 920.667 -888.833 L 902 -886.5 L 883.333 -884.167 L 851 -883 Z M 805 -553 L 813 -521 L 813.667 -518.333 L 817 -512.667 L 823 -504 L 829 -495.333 L 832 -490 L 832 -488 L 832 -486 L 827 -484 L 817 -482 L 807 -480 L 800.333 -479 L 797 -479 L 743 -479 L 736.333 -479 L 729.5 -483.833 L 722.5 -493.5 L 715.5 -503.167 L 711.333 -512.333 L 710 -521 L 702 -553 L 632 -553 L 567.667 -555.833 L 509 -561.5 L 450.333 -567.167 L 408.667 -571.667 L 384 -575 L 290.667 -589 L 233.333 -620.667 L 212 -670 L 207.333 -680.667 L 198.667 -696.667 L 186 -718 L 173.333 -739.333 L 160.167 -760.833 L 146.5 -782.5 L 132.833 -804.167 L 119.833 -823.5 L 107.5 -840.5 L 95.167 -857.5 L 86.667 -867 L 82 -869 L 57.333 -877 L 51.667 -885.667 L 65 -895 L 128.333 -900.333 L 185.333 -901.333 L 236 -898 L 264.667 -896.667 L 285.333 -881 L 298 -851 L 310.667 -821 L 323.333 -782.333 L 336 -735 L 348 -687 L 363.333 -654.167 L 382 -636.5 L 400.667 -618.833 L 432.333 -604.667 L 477 -594 L 523.667 -582.667 L 597.667 -577.667 L 699 -579 L 688 -638 L 687.333 -640.667 L 684.333 -644.5 L 679 -649.5 L 673.667 -654.5 L 671 -658 L 671 -660 L 671 -663.333 L 675.833 -665.667 L 685.5 -667 L 695.167 -668.333 L 702 -669 L 706 -669 L 761 -669 L 767.667 -669 L 774.167 -664.5 L 780.5 -655.5 L 786.833 -646.5 L 791 -637 L 793 -627 L 803 -579 L 843 -579.667 L 870.167 -581.167 L 884.5 -583.5 L 898.833 -585.833 L 914.667 -588 L 932 -590 L 950 -588 L 952.333 -580.667 L 939 -568 L 933 -563.333 L 920.667 -559.667 L 902 -557 L 883.333 -554.333 L 851 -553 Z M 805 -224 L 813 -192 L 813.667 -189.333 L 817 -183.667 L 823 -175 L 829 -166.333 L 832 -160.667 L 832 -158 L 832 -156 L 827 -154.167 L 817 -152.5 L 807 -150.833 L 800.333 -150 L 797 -150 L 743 -150 L 736.333 -150 L 729.5 -154.667 L 722.5 -164 L 715.5 -173.333 L 711.333 -182.667 L 710 -192 L 702 -224 L 632 -224 L 567.667 -226.833 L 509 -232.5 L 450.333 -238.167 L 408.667 -242.667 L 384 -246 L 290.667 -260 L 233.333 -291.667 L 212 -341 L 207.333 -351.667 L 198.667 -367.5 L 186 -388.5 L 173.333 -409.5 L 160.167 -431 L 146.5 -453 L 132.833 -475 L 119.833 -494.333 L 107.5 -511 L 95.167 -527.667 L 86.667 -537.333 L 82 -540 L 58 -548 L 52.333 -556.667 L 65 -566 L 95 -568 L 123.833 -569.333 L 151.5 -570 L 179.167 -570.667 L 207.333 -570 L 236 -568 L 264.667 -566.667 L 285.333 -551.167 L 298 -521.5 L 310.667 -491.833 L 323.333 -453.333 L 336 -406 L 348 -357.333 L 363.333 -324.333 L 382 -307 L 400.667 -289.667 L 432.333 -275.333 L 477 -264 L 521 -252.667 L 595 -248 L 699 -250 L 688 -309 L 687.333 -311.667 L 684.333 -315.333 L 679 -320 L 673.667 -324.667 L 671 -328.333 L 671 -331 L 671 -334.333 L 675.833 -336.667 L 685.5 -338 L 695.167 -339.333 L 702 -340 L 706 -340 L 761 -340 L 767.667 -340 L 774.167 -335.5 L 780.5 -326.5 L 786.833 -317.5 L 791 -308 L 793 -298 L 803 -250 L 843 -250 L 870.167 -251.333 L 884.5 -254 L 898.833 -256.667 L 914.667 -259 L 932 -261 L 938.667 -260.333 L 942.5 -257.333 L 943.5 -252 L 944.5 -246.667 L 943 -242.333 L 939 -239 L 933 -234.333 L 920.667 -230.667 L 902 -228 L 883.333 -225.333 L 851 -224 Z" fill="black" fill-opacity="0.25" stroke="black" stroke-width="4"/>
  <rect x="52" y="-1231" width="900" height="423" fill="none" stroke="red" stroke-width="10" /><rect x="52" y="-901" width="900" height="422" fill="none" stroke="red" stroke-width="10" /><rect x="52" y="-571" width="893" height="421" fill="none" stroke="red" stroke-width="10" />
</svg>
