<svg xmlns="http://www.w3.org/2000/svg"
  viewBox="7.982456140412374 -1279.5714285703789 989.52818215713 1179.5714285703789">
  <rect x="7.982456140412374" y="-1279.5714285703789" width="989.52818215713" height="1179.5714285703789" fill="white"/>
  <path d="M 805.0 -883.0 L 813.0 -850.0 L 813.666666667 -848.0 L 817.0 -842.666666667 L 823.0 -834.0 L 829.0 -825.333333333 L 832.0 -820.0 L 832.0 -818.0 L 832.0 -816.0 L 827.0 -813.833333333 L 817.0 -811.5 L 807.0 -809.166666667 L 800.333333333 -808.0 L 797.0 -808.0 L 743.0 -808.0 L 736.333333333 -808.0 L 729.5 -812.833333333 L 722.5 -822.5 L 715.5 -832.166666667 L 711.333333333 -841.333333333 L 710.0 -850.0 L 702.0 -883.0 L 632.0 -883.0 L 567.666666667 -885.666666667 L 509.0 -891.0 L 450.333333333 -896.333333333 L 408.666666667 -901.0 L 384.0 -905.0 L 290.666666667 -919.0 L 233.333333333 -950.333333333 L 212.0 -999.0 L 207.333333333 -1009.66666667 L 198.666666667 -1025.66666667 L 186.0 -1047.0 L 173.333333333 -1068.33333333 L 160.166666667 -1089.83333333 L 146.5 -1111.5 L 132.833333333 -1133.16666667 L 119.833333333 -1152.66666667 L 107.5 -1170.0 L 95.1666666667 -1187.33333333 L 86.6666666667 -1197.0 L 82.0 -1199.0 L 57.3333333333 -1207.0 L 51.6666666667 -1215.66666667 L 65.0 -1225.0 L 128.333333333 -1230.33333333 L 185.333333333 -1231.0 L 236.0 -1227.0 L 264.666666667 -1225.66666667 L 285.333333333 -1210.16666667 L 298.0 -1180.5 L 310.666666667 -1150.83333333 L 323.333333333 -1112.0 L 336.0 -1064.0 L 348.0 -1016.0 L 363.333333333 -983.333333333 L 382.0 -966.0 L 400.666666667 -948.666666667 L 432.333333333 -934.333333333 L 477.0 -923.0 L 521.0 -911.666666667 L 595.0 -906.666666667 L 699.0 -908.0 L 688.0 -968.0 L 687.333333333 -970.666666667 L 684.333333333 -974.333333333 L 679.0 -979.0 L 673.666666667 -983.666666667 L 671.0 -987.333333333 L 671.0 -990.0 L 671.0 -993.333333333 L 675.833333333 -995.666666667 L 685.5 -997.0 L 695.166666667 -998.333333333 L 702.0 -999.0 L 706.0 -999.0 L 761.0 -999.0 L 767.666666667 -999.0 L 774.166666667 -994.5 L 780.5 -985.5 L 786.833333333 -976.5 L 791.0 -967.0 L 793.0 -957.0 L 803.0 -909.0 L 843.0 -909.666666667 L 870.166666667 -911.0 L 884.5 -913.0 L 898.833333333 -915.0 L 914.666666667 -917.333333333 L 932.0 -920.0 L 949.333333333 -918.0 L 951.666666667 -910.333333333 L 939.0 -897.0 L 933.0 -892.333333333 L 920.666666667 -888.833333333 L 902.0 -886.5 L 883.333333333 -884.166666667 L 851.0 -883.0 Z M 805.0 -553.0 L 813.0 -521.0 L 813.666666667 -518.333333333 L 817.0 -512.666666667 L 823.0 -504.0 L 829.0 -495.333333333 L 832.0 -490.0 L 832.0 -488.0 L 832.0 -486.0 L 827.0 -484.0 L 817.0 -482.0 L 807.0 -480.0 L 800.333333333 -479.0 L 797.0 -479.0 L 743.0 -479.0 L 736.333333333 -479.0 L 729.5 -483.833333333 L 722.5 -493.5 L 715.5 -503.166666667 L 711.333333333 -512.333333333 L 710.0 -521.0 L 702.0 -553.0 L 632.0 -553.0 L 567.666666667 -555.833333333 L 509.0 -561.5 L 450.333333333 -567.166666667 L 408.666666667 -571.666666667 L 384.0 -575.0 L 290.666666667 -589.0 L 233.333333333 -620.666666667 L 212.0 -670.0 L 207.333333333 -680.666666667 L 198.666666667 -696.666666667 L 186.0 -718.0 L 173.333333333 -739.333333333 L 160.166666667 -760.833333333 L 146.5 -782.5 L 132.833333333 -804.166666667 L 119.833333333 -823.5 L 107.5 -840.5 L 95.1666666667 -857.5 L 86.6666666667 -867.0 L 82.0 -869.0 L 57.3333333333 -877.0 L 51.6666666667 -885.666666667 L 65.0 -895.0 L 128.333333333 -900.333333333 L 185.333333333 -901.333333333 L 236.0 -898.0 L 264.666666667 -896.666666667 L 285.333333333 -881.0 L 298.0 -851.0 L 310.666666667 -821.0 L 323.333333333 -782.333333333 L 336.0 -735.0 L 348.0 -687.0 L 363.333333333 -654.166666667 L 382.0 -636.5 L 400.666666667 -618.833333333 L 432.333333333 -604.666666667 L 477.0 -594.0 L 523.666666667 -582.666666667 L 597.666666667 -577.666666667 L 699.0 -579.0 L 688.0 -638.0 L 687.333333333 -640.666666667 L 684.333333333 -644.5 L 679.0 -649.5 L 673.666666667 -654.5 L 671.0 -658.0 L 671.0 -660.0 L 671.0 -663.333333333 L 675.833333333 -665.666666667 L 685.5 -667.0 L 695.166666667 -668.333333333 L 702.0 -669.0 L 706.0 -669.0 L 761.0 -669.0 L 767.666666667 -669.0 L 774.166666667 -664.5 L 780.5 -655.5 L 786.833333333 -646.5 L 791.0 -637.0 L 793.0 -627.0 L 803.0 -579.0 L 843.0 -579.666666667 L 870.166666667 -581.166666667 L 884.5 -583.5 L 898.833333333 -585.833333333 L 914.666666667 -588.0 L 932.0 -590.0 L 950.0 -588.0 L 952.333333333 -580.666666667 L 939.0 -568.0 L 933.0 -563.333333333 L 920.666666667 -559.666666667 L 902.0 -557.0 L 883.333333333 -554.333333333 L 851.0 -553.0 Z M 805.0 -224.0 L 813.0 -192.0 L 813.666666667 -189.333333333 L 817.0 -183.666666667 L 823.0 -175.0 L 829.0 -166.333333333 L 832.0 -160.666666667 L 832.0 -158.0 L 832.0 -156.0 L 827.0 -154.166666667 L 817.0 -152.5 L 807.0 -150.833333333 L 800.333333333 -150.0 L 797.0 -150.0 L 743.0 -150.0 L 736.333333333 -150.0 L 729.5 -154.666666667 L 722.5 -164.0 L 715.5 -173.333333333 L 711.333333333 -182.666666667 L 710.0 -192.0 L 702.0 -224.0 L 632.0 -224.0 L 567.666666667 -226.833333333 L 509.0 -232.5 L 450.333333333 -238.166666667 L 408.666666667 -242.666666667 L 384.0 -246.0 L 290.666666667 -260.0 L 233.333333333 -291.666666667 L 212.0 -341.0 L 207.333333333 -351.666666667 L 198.666666667 -367.5 L 186.0 -388.5 L 173.333333333 -409.5 L 160.166666667 -431.0 L 146.5 -453.0 L 132.833333333 -475.0 L 119.833333333 -494.333333333 L 107.5 -511.0 L 95.1666666667 -527.666666667 L 86.6666666667 -537.333333333 L 82.0 -540.0 L 58.0 -548.0 L 52.3333333333 -556.666666667 L 65.0 -566.0 L 95.0 -568.0 L 123.833333333 -569.333333333 L 151.5 -570.0 L 179.166666667 -570.666666667 L 207.333333333 -570.0 L 236.0 -568.0 L 264.666666667 -566.666666667 L 285.333333333 -551.166666667 L 298.0 -521.5 L 310.666666667 -491.833333333 L 323.333333333 -453.333333333 L 336.0 -406.0 L 348.0 -357.333333333 L 363.333333333 -324.333333333 L 382.0 -307.0 L 400.666666667 -289.666666667 L 432.333333333 -275.333333333 L 477.0 -264.0 L 521.0 -252.666666667 L 595.0 -248.0 L 699.0 -250.0 L 688.0 -309.0 L 687.333333333 -311.666666667 L 684.333333333 -315.333333333 L 679.0 -320.0 L 673.666666667 -324.666666667 L 671.0 -328.333333333 L 671.0 -331.0 L 671.0 -334.333333333 L 675.833333333 -336.666666667 L 685.5 -338.0 L 695.166666667 -339.333333333 L 702.0 -340.0 L 706.0 -340.0 L 761.0 -340.0 L 767.666666667 -340.0 L 774.166666667 -335.5 L 780.5 -326.5 L 786.833333333 -317.5 L 791.0 -308.0 L 793.0 -298.0 L 803.0 -250.0 L 843.0 -250.0 L 870.166666667 -251.333333333 L 884.5 -254.0 L 898.833333333 -256.666666667 L 914.666666667 -259.0 L 932.0 -261.0 L 938.666666667 -260.333333333 L 942.5 -257.333333333 L 943.5 -252.0 L 944.5 -246.666666667 L 943.0 -242.333333333 L 939.0 -239.0 L 933.0 -234.333333333 L 920.666666667 -230.666666667 L 902.0 -228.0 L 883.333333333 -225.333333333 L 851.0 -224.0 Z" fill="black" fill-opacity="0.25" stroke="black" stroke-width="4.0"/>
  <rect x="52.0" y="-1231.0" width="899.9999999999999" height="423.00000000000006" fill="none" stroke="red" stroke-width="10.0" /><rect x="52.0" y="-901.0" width="899.9999999999999" height="422.00000000000006" fill="none" stroke="red" stroke-width="10.0" /><rect x="52.0" y="-571.0" width="892.9999999999999" height="420.99999999999994" fill="none" stroke="red" stroke-width="10.0" />
</svg>
