<svg xmlns="http://www.w3.org/2000/svg"
  viewBox="-50.0 -471.0 811.0 374.1111111111111">
  <rect x="-50.0" y="-471.0" width="811.0" height="374.1111111111111" fill="white"/>
  <path d="M 58.0 -416.0 L 109.0 -421.0 L 223.0 -421.0 L 259.0 -421.0 L 299.0 -417.0 L 339.0 -413.0 L 383.0 -403.0 L 409.0 -397.0 L 434.0 -390.5 L 459.0 -384.0 L 485.0 -377.0 L 583.0 -352.0 L 647.0 -305.0 L 710.0 -258.0 L 711.0 -205.0 L 711.0 -174.0 L 696.0 -154.0 L 690.0 -146.0 L 661.0 -147.0 L 620.0 -147.0 L 542.0 -162.0 L 529.0 -164.0 L 510.5 -167.0 L 492.0 -170.0 L 469.0 -176.0 L 494.0 -187.0 L 511.0 -213.0 L 528.0 -237.0 L 522.0 -250.0 L 510.0 -278.0 L 464.5 -304.0 L 419.0 -330.0 L 339.0 -345.0 L 255.0 -362.0 L 169.5 -373.0 L 84.0 -384.0 L 0.0 -397.0 Z" fill="black" fill-opacity="0.25" stroke="black" stroke-width="4.0"/>
  <rect x="0.0" y="-421.0" width="711.0" height="275.0" fill="none" stroke="red" stroke-width="10.0" />
</svg>
