<svg xmlns="http://www.w3.org/2000/svg"
  viewBox="-50 -471 811 374.111">
  <rect x="-50" y="-471" width="811" height="374.111" fill="white"/>
  <path d="M 58 -416 L 109 -421 L 223 -421 L 259 -421 L 299 -417 L 339 -413 L 383 -403 L 409 -397 L 434 -390.5 L 459 -384 L 485 -377 L 583 -352 L 647 -305 L 710 -258 L 711 -205 L 711 -174 L 696 -154 L 690 -146 L 661 -147 L 620 -147 L 542 -162 L 529 -164 L 510.5 -167 L 492 -170 L 469 -176 L 494 -187 L 511 -213 L 528 -237 L 522 -250 L 510 -278 L 464.5 -304 L 419 -330 L 339 -345 L 255 -362 L 169.5 -373 L 84 -384 L 0 -397 Z" fill="black" fill-opacity="0.25" stroke="black" stroke-width="4"/>
  <rect x="0" y="-421" width="711" height="275" fill="none" stroke="red" stroke-width="10" />
</svg>
