<svg xmlns="http://www.w3.org/2000/svg"
  viewBox="-50 -511 1528 648">
  <rect x="-50" y="-511" width="1528" height="648" fill="white"/>
  <path d="M 58 -457 L 110 -461 L 223 -461 L 259 -461 L 299 -457.5 L 339 -454 L 383 -444 L 409 -438 L 434.5 -432 L 460 -426 L 485 -418 L 584 -393 L 647 -345 L 710 -298 L 711 -246 L 711 -215 L 696 -196 L 690 -189 L 661 -188 L 620 -188 L 542 -203 L 530 -205 L 511 -208 L 492 -211 L 469 -218 L 494 -229 L 511 -254 L 528 -278 L 522 -291 L 510 -319 L 464.5 -344.5 L 419 -370 L 339 -386 L 255 -403 L 170 -414.5 L 85 -426 L 0 -438 Z M 774 -181 L 826 -186 L 942 -186 L 978 -186 L 1017 -182.5 L 1056 -179 L 1100 -169 L 1126 -163 L 1151 -156.5 L 1176 -150 L 1202 -142 L 1300 -117 L 1364 -71 L 1428 -24 L 1428 30 L 1428 61 L 1412 79 L 1406 87 L 1378 87 L 1338 87 L 1260 72 L 1248 70 L 1229 67 L 1210 64 L 1188 57 L 1212 44 L 1228 22 L 1244 -2 L 1240 -16 L 1228 -44 L 1182 -69.5 L 1136 -95 L 1056 -111 L 972 -128 L 887 -139 L 802 -150 L 718 -163 Z" fill="black" fill-opacity="0.25" stroke="black" stroke-width="4"/>
  <rect x="0" y="-461" width="711" height="273" fill="none" stroke="red" stroke-width="10" /><rect x="718" y="-186" width="710" height="273" fill="none" stroke="red" stroke-width="10" />
</svg>
