<svg xmlns="http://www.w3.org/2000/svg"
  viewBox="-50.0 -511.0 1528.0 648.0">
  <rect x="-50.0" y="-511.0" width="1528.0" height="648.0" fill="white"/>
  <path d="M 58.0 -457.0 L 110.0 -461.0 L 223.0 -461.0 L 259.0 -461.0 L 299.0 -457.5 L 339.0 -454.0 L 383.0 -444.0 L 409.0 -438.0 L 434.5 -432.0 L 460.0 -426.0 L 485.0 -418.0 L 584.0 -393.0 L 647.0 -345.0 L 710.0 -298.0 L 711.0 -246.0 L 711.0 -215.0 L 696.0 -196.0 L 690.0 -189.0 L 661.0 -188.0 L 620.0 -188.0 L 542.0 -203.0 L 530.0 -205.0 L 511.0 -208.0 L 492.0 -211.0 L 469.0 -218.0 L 494.0 -229.0 L 511.0 -254.0 L 528.0 -278.0 L 522.0 -291.0 L 510.0 -319.0 L 464.5 -344.5 L 419.0 -370.0 L 339.0 -386.0 L 255.0 -403.0 L 170.0 -414.5 L 85.0 -426.0 L 0.0 -438.0 Z M 774.0 -181.0 L 826.0 -186.0 L 942.0 -186.0 L 978.0 -186.0 L 1017.0 -182.5 L 1056.0 -179.0 L 1100.0 -169.0 L 1126.0 -163.0 L 1151.0 -156.5 L 1176.0 -150.0 L 1202.0 -142.0 L 1300.0 -117.0 L 1364.0 -71.0 L 1428.0 -24.0 L 1428.0 30.0 L 1428.0 61.0 L 1412.0 79.0 L 1406.0 87.0 L 1378.0 87.0 L 1338.0 87.0 L 1260.0 72.0 L 1248.0 70.0 L 1229.0 67.0 L 1210.0 64.0 L 1188.0 57.0 L 1212.0 44.0 L 1228.0 22.0 L 1244.0 -2.0 L 1240.0 -16.0 L 1228.0 -44.0 L 1182.0 -69.5 L 1136.0 -95.0 L 1056.0 -111.0 L 972.0 -128.0 L 887.0 -139.0 L 802.0 -150.0 L 718.0 -163.0 Z" fill="black" fill-opacity="0.25" stroke="black" stroke-width="4.0"/>
  <rect x="0.0" y="-461.0" width="711.0" height="273.0" fill="none" stroke="red" stroke-width="10.0" /><rect x="718.0" y="-186.0" width="710.0" height="273.0" fill="none" stroke="red" stroke-width="10.0" />
</svg>
