<svg xmlns="http://www.w3.org/2000/svg"
  viewBox="-230.0 -1004.1904761904761 518.0 397.19047619047615">
  <rect x="-230.0" y="-1004.1904761904761" width="518.0" height="397.19047619047615" fill="white"/>
  <path d="M 234.0 -827.0 L 204.0 -852.0 L 173.0 -870.0 L 142.0 -888.0 L 112.0 -899.0 L 82.0 -910.0 L 57.0 -915.5 L 32.0 -921.0 L 10.0 -920.0 L -54.0 -917.0 L -104.0 -874.0 L -174.0 -812.0 L -180.0 -845.0 L -86.0 -920.0 L -34.0 -953.0 L 14.0 -954.0 L 68.0 -956.0 L 118.0 -937.0 L 174.0 -916.0 L 238.0 -857.0 Z M 0.0 -851.0 L 52.0 -857.0 L 50.0 -844.0 L 48.0 -833.5 L 46.0 -823.0 L 46.0 -815.0 L 42.0 -792.0 L 42.0 -772.0 L 42.0 -752.0 L 42.0 -735.0 L 44.0 -696.0 L 54.0 -682.0 L 60.0 -675.0 L 60.0 -668.0 L 62.0 -657.0 L 46.0 -657.0 L 30.0 -657.0 L 26.0 -659.0 L 20.0 -661.0 L 15.0 -662.0 L 10.0 -663.0 L 4.0 -666.0 Z" fill="black" fill-opacity="0.25" stroke="black" stroke-width="4.0"/>
  <rect x="-180.0" y="-956.0" width="418.0" height="143.99999999999991" fill="none" stroke="red" stroke-width="10.0" /><rect x="0.0" y="-857.0" width="62.0" height="199.99999999999994" fill="none" stroke="red" stroke-width="10.0" />
</svg>
