<svg xmlns="http://www.w3.org/2000/svg"
  viewBox="-231.0 -860.0526315789474 517.0 909.0526315789474">
  <rect x="-231.0" y="-860.0526315789474" width="517.0" height="909.0526315789474" fill="white"/>
  <path d="M 233.0 -683.0 L 202.0 -708.0 L 171.5 -726.0 L 141.0 -744.0 L 111.0 -755.0 L 81.0 -766.0 L 56.0 -771.5 L 31.0 -777.0 L 9.0 -776.0 L -55.0 -773.0 L -106.0 -730.0 L -175.0 -668.0 L -181.0 -700.0 L -88.0 -776.0 L -36.0 -809.0 L 12.0 -810.0 L 67.0 -811.0 L 117.0 -793.0 L 173.0 -772.0 L 236.0 -713.0 Z M 0.0 -691.0 L 51.0 -713.0 L 48.0 -668.0 L 46.5 -629.0 L 45.0 -590.0 L 44.0 -562.0 L 41.0 -479.0 L 41.0 -409.5 L 41.0 -340.0 L 41.0 -279.0 L 41.0 -142.0 L 53.0 -90.0 L 58.0 -64.0 L 59.0 -39.0 L 60.0 -1.0 L 46.0 -1.0 L 29.0 -1.0 L 25.0 -7.0 L 19.0 -14.0 L 14.0 -19.0 L 9.0 -24.0 L 3.0 -34.0 Z" fill="black" fill-opacity="0.25" stroke="black" stroke-width="4.0"/>
  <rect x="-181.0" y="-811.0" width="417.0" height="143.00000000000003" fill="none" stroke="red" stroke-width="10.0" /><rect x="0.0" y="-713.0" width="60.0" height="712.0" fill="none" stroke="red" stroke-width="10.0" />
</svg>
