<svg xmlns="http://www.w3.org/2000/svg"
  viewBox="-231 -860.053 517 909.053">
  <rect x="-231" y="-860.053" width="517" height="909.053" fill="white"/>
  <path d="M 233 -683 L 202 -708 L 171.5 -726 L 141 -744 L 111 -755 L 81 -766 L 56 -771.5 L 31 -777 L 9 -776 L -55 -773 L -106 -730 L -175 -668 L -181 -700 L -88 -776 L -36 -809 L 12 -810 L 67 -811 L 117 -793 L 173 -772 L 236 -713 Z M 0 -691 L 51 -713 L 48 -668 L 46.5 -629 L 45 -590 L 44 -562 L 41 -479 L 41 -409.5 L 41 -340 L 41 -279 L 41 -142 L 53 -90 L 58 -64 L 59 -39 L 60 -1 L 46 -1 L 29 -1 L 25 -7 L 19 -14 L 14 -19 L 9 -24 L 3 -34 Z" fill="black" fill-opacity="0.25" stroke="black" stroke-width="4"/>
  <rect x="-181" y="-811" width="417" height="143" fill="none" stroke="red" stroke-width="10" /><rect x="0" y="-713" width="60" height="712" fill="none" stroke="red" stroke-width="10" />
</svg>
