<svg xmlns="http://www.w3.org/2000/svg"
  viewBox="-230 -1004.19 518 397.19">
  <rect x="-230" y="-1004.19" width="518" height="397.19" fill="white"/>
  <path d="M 234 -827 L 204 -852 L 173 -870 L 142 -888 L 112 -899 L 82 -910 L 57 -915.5 L 32 -921 L 10 -920 L -54 -917 L -104 -874 L -174 -812 L -180 -845 L -86 -920 L -34 -953 L 14 -954 L 68 -956 L 118 -937 L 174 -916 L 238 -857 Z M 0 -851 L 52 -857 L 50 -844 L 48 -833.5 L 46 -823 L 46 -815 L 42 -792 L 42 -772 L 42 -752 L 42 -735 L 44 -696 L 54 -682 L 60 -675 L 60 -668 L 62 -657 L 46 -657 L 30 -657 L 26 -659 L 20 -661 L 15 -662 L 10 -663 L 4 -666 Z" fill="black" fill-opacity="0.25" stroke="black" stroke-width="4"/>
  <rect x="-180" y="-956" width="418" height="144" fill="none" stroke="red" stroke-width="10" /><rect x="0" y="-857" width="62" height="200" fill="none" stroke="red" stroke-width="10" />
</svg>
