<svg xmlns="http://www.w3.org/2000/svg"
  viewBox="-50 -1008 1226 975">
  <rect x="-50" y="-1008" width="1226" height="975" fill="white"/>
  <path d="M 0 -344 L 0 -372 L 13.5 -391.5 L 27 -411 L 49.5 -424.5 L 72 -438 L 100 -445 L 128 -452 L 157 -456 L 186 -460 L 213 -461 L 240 -462 L 259 -462 L 377 -459 L 490.5 -436 L 604 -413 L 716 -377 L 836 -338 L 979 -241 L 1122 -143 L 1122 -100 L 1122 -83 L 1086 -83 L 1039 -83 L 988.5 -91 L 938 -99 L 892 -112 L 906 -213 L 731 -301 L 646 -342 L 559.5 -364 L 473 -386 L 379 -386 L 353 -386 L 322 -383 L 291 -380 L 264 -369.5 L 237 -359 L 217.5 -339.5 L 198 -320 L 195 -286 L 193 -253 L 239 -218 L 300 -171 L 303 -171 L 233 -173 L 181.5 -181.5 L 130 -190 L 94 -205 L 49 -225 L 17 -274 L 0 -314 Z M 20 -944 L 36 -946 L 53 -948.5 L 70 -951 L 89 -954 L 102 -956 L 115 -957 L 128 -958 L 142 -958 L 185 -957 L 214 -940 L 222 -935 L 222 -915 L 219 -869 L 219 -856 L 224 -849 L 317 -717 L 526 -676 L 534 -673 L 544.5 -672 L 555 -671 L 567 -669 L 571 -685 L 576.5 -697 L 582 -709 L 587 -721 L 595 -738 L 625 -738 L 686 -732 L 698 -731 L 711.5 -730 L 725 -729 L 737 -729 L 731 -716 L 725 -697 L 719 -678 L 712 -654 L 850 -647 L 1081 -638 L 1126 -593 L 976 -593 L 888 -593 L 819 -593 L 750 -593 L 692 -594 L 674 -557 L 647 -527 L 640 -517 L 625.5 -511 L 611 -505 L 595 -501.5 L 579 -498 L 563 -497 L 547 -496 L 535 -496 L 519 -496 L 511 -499 L 498 -504 L 506 -513 L 519 -531 L 529 -552.5 L 539 -574 L 547 -599 L 534 -599 L 433 -604 L 359.5 -618 L 286 -632 L 236 -657 L 152 -696 L 50 -821 L 42 -835 L 38 -862 L 32 -899 L 27 -919 L 22 -939 Z" fill="black" fill-opacity="0.25" stroke="black" stroke-width="4"/>
  <rect x="0" y="-462" width="1122" height="379" fill="none" stroke="red" stroke-width="10" /><rect x="20" y="-958" width="1106" height="462" fill="none" stroke="red" stroke-width="10" />
</svg>
