<svg xmlns="http://www.w3.org/2000/svg"
  viewBox="-50.0 -1008.0 1226.0 975.0">
  <rect x="-50.0" y="-1008.0" width="1226.0" height="975.0" fill="white"/>
  <path d="M 0.0 -344.0 L 0.0 -372.0 L 13.5 -391.5 L 27.0 -411.0 L 49.5 -424.5 L 72.0 -438.0 L 100.0 -445.0 L 128.0 -452.0 L 157.0 -456.0 L 186.0 -460.0 L 213.0 -461.0 L 240.0 -462.0 L 259.0 -462.0 L 377.0 -459.0 L 490.5 -436.0 L 604.0 -413.0 L 716.0 -377.0 L 836.0 -338.0 L 979.0 -241.0 L 1122.0 -143.0 L 1122.0 -100.0 L 1122.0 -83.0 L 1086.0 -83.0 L 1039.0 -83.0 L 988.5 -91.0 L 938.0 -99.0 L 892.0 -112.0 L 906.0 -213.0 L 731.0 -301.0 L 646.0 -342.0 L 559.5 -364.0 L 473.0 -386.0 L 379.0 -386.0 L 353.0 -386.0 L 322.0 -383.0 L 291.0 -380.0 L 264.0 -369.5 L 237.0 -359.0 L 217.5 -339.5 L 198.0 -320.0 L 195.0 -286.0 L 193.0 -253.0 L 239.0 -218.0 L 300.0 -171.0 L 303.0 -171.0 L 233.0 -173.0 L 181.5 -181.5 L 130.0 -190.0 L 94.0 -205.0 L 49.0 -225.0 L 17.0 -274.0 L 0.0 -314.0 Z M 20.0 -944.0 L 36.0 -946.0 L 53.0 -948.5 L 70.0 -951.0 L 89.0 -954.0 L 102.0 -956.0 L 115.0 -957.0 L 128.0 -958.0 L 142.0 -958.0 L 185.0 -957.0 L 214.0 -940.0 L 222.0 -935.0 L 222.0 -915.0 L 219.0 -869.0 L 219.0 -856.0 L 224.0 -849.0 L 317.0 -717.0 L 526.0 -676.0 L 534.0 -673.0 L 544.5 -672.0 L 555.0 -671.0 L 567.0 -669.0 L 571.0 -685.0 L 576.5 -697.0 L 582.0 -709.0 L 587.0 -721.0 L 595.0 -738.0 L 625.0 -738.0 L 686.0 -732.0 L 698.0 -731.0 L 711.5 -730.0 L 725.0 -729.0 L 737.0 -729.0 L 731.0 -716.0 L 725.0 -697.0 L 719.0 -678.0 L 712.0 -654.0 L 850.0 -647.0 L 1081.0 -638.0 L 1126.0 -593.0 L 976.0 -593.0 L 888.0 -593.0 L 819.0 -593.0 L 750.0 -593.0 L 692.0 -594.0 L 674.0 -557.0 L 647.0 -527.0 L 640.0 -517.0 L 625.5 -511.0 L 611.0 -505.0 L 595.0 -501.5 L 579.0 -498.0 L 563.0 -497.0 L 547.0 -496.0 L 535.0 -496.0 L 519.0 -496.0 L 511.0 -499.0 L 498.0 -504.0 L 506.0 -513.0 L 519.0 -531.0 L 529.0 -552.5 L 539.0 -574.0 L 547.0 -599.0 L 534.0 -599.0 L 433.0 -604.0 L 359.5 -618.0 L 286.0 -632.0 L 236.0 -657.0 L 152.0 -696.0 L 50.0 -821.0 L 42.0 -835.0 L 38.0 -862.0 L 32.0 -899.0 L 27.0 -919.0 L 22.0 -939.0 Z" fill="black" fill-opacity="0.25" stroke="black" stroke-width="4.0"/>
  <rect x="0.0" y="-462.0" width="1122.0" height="379.0" fill="none" stroke="red" stroke-width="10.0" /><rect x="20.0" y="-958.0" width="1105.9999999999998" height="461.99999999999994" fill="none" stroke="red" stroke-width="10.0" />
</svg>
