<svg xmlns="http://www.w3.org/2000/svg"
  viewBox="-50 -724 1206 563">
  <rect x="-50" y="-724" width="1206" height="563" fill="white"/>
  <path d="M 717 -444 L 711 -432 L 705 -413 L 699 -394 L 692 -369 L 829 -363 L 1060 -354 L 1106 -308 L 964 -308 L 857.5 -308 L 751 -308 L 672 -309 L 655 -271 L 626 -242 L 615 -228 L 583 -219 L 566 -214 L 551 -212.5 L 536 -211 L 522 -211 L 500 -211 L 491 -214 L 478 -218 L 486 -228 L 511 -264 L 527 -314 L 514 -314 L 314 -323 L 216 -372 L 132 -411 L 30 -536 L 22 -550 L 17 -577 L 4 -651 L 0 -660 L 31 -664 L 69 -669 L 107 -674 L 122 -674 L 165 -672 L 194 -655 L 202 -650 L 201 -630 L 199 -584 L 199 -570 L 203 -564 L 295 -433 L 506 -391 L 514 -388 L 524 -387 L 534 -386 L 547 -385 L 552 -401 L 557 -413 L 562 -425 L 567 -436 L 576 -453 L 605 -453 L 665 -447 L 678 -445 L 691 -444.5 L 704 -444 Z" fill="black" fill-opacity="0.25" stroke="black" stroke-width="4"/>
  <rect x="0" y="-674" width="1106" height="463" fill="none" stroke="red" stroke-width="10" />
</svg>
