<svg xmlns="http://www.w3.org/2000/svg"
  viewBox="-50.0 -1008.0 1228.0 1042.0">
  <rect x="-50.0" y="-1008.0" width="1228.0" height="1042.0" fill="white"/>
  <path d="M 740.0 -728.0 L 734.0 -716.0 L 727.5 -697.0 L 721.0 -678.0 L 714.0 -653.0 L 852.0 -647.0 L 1083.0 -638.0 L 1128.0 -592.0 L 986.0 -592.0 L 880.0 -592.0 L 774.0 -592.0 L 694.0 -594.0 L 677.0 -556.0 L 649.0 -526.0 L 638.0 -512.0 L 605.0 -503.0 L 588.0 -498.0 L 573.0 -497.0 L 558.0 -496.0 L 544.0 -495.0 L 522.0 -495.0 L 513.0 -499.0 L 500.0 -504.0 L 508.0 -513.0 L 533.0 -549.0 L 549.0 -599.0 L 536.0 -599.0 L 336.0 -608.0 L 238.0 -656.0 L 154.0 -695.0 L 52.0 -820.0 L 44.0 -834.0 L 40.0 -861.0 L 27.0 -935.0 L 22.0 -944.0 L 53.0 -948.0 L 91.0 -953.0 L 129.0 -958.0 L 144.0 -958.0 L 187.0 -957.0 L 216.0 -939.0 L 223.0 -934.0 L 224.0 -914.0 L 221.0 -869.0 L 221.0 -855.0 L 226.0 -849.0 L 318.0 -718.0 L 528.0 -675.0 L 536.0 -672.0 L 546.5 -671.0 L 557.0 -670.0 L 569.0 -669.0 L 573.0 -685.0 L 578.5 -697.5 L 584.0 -710.0 L 589.0 -720.0 L 597.0 -737.0 L 627.0 -737.0 L 688.0 -732.0 L 701.0 -730.0 L 714.0 -729.0 L 727.0 -728.0 Z M 896.0 -128.0 L 906.0 -232.0 L 732.0 -315.0 L 564.0 -396.0 L 393.0 -396.0 L 303.0 -396.0 L 253.0 -370.0 L 198.0 -342.0 L 196.0 -292.0 L 195.0 -261.0 L 241.0 -225.0 L 303.0 -178.0 L 305.0 -178.0 L 166.0 -178.0 L 96.0 -208.0 L 50.0 -227.0 L 18.0 -276.0 L 1.0 -315.0 L 0.0 -345.0 L 0.0 -406.0 L 69.0 -438.0 L 134.0 -468.0 L 257.0 -467.0 L 312.0 -467.0 L 370.5 -461.5 L 429.0 -456.0 L 477.0 -448.0 L 536.0 -439.0 L 595.0 -424.0 L 654.0 -409.0 L 714.0 -392.0 L 831.0 -359.0 L 980.0 -261.0 L 1126.0 -165.0 L 1125.0 -124.0 L 1125.0 -105.0 L 1089.0 -105.0 L 1066.0 -105.0 L 1034.5 -107.0 L 1003.0 -109.0 L 966.0 -116.0 L 953.0 -118.0 L 935.0 -121.0 L 917.0 -124.0 Z M 285.0 -219.0 L 298.0 -222.0 L 308.5 -227.0 L 319.0 -232.0 L 332.0 -234.0 L 354.0 -235.0 L 388.0 -236.0 L 422.0 -237.0 L 469.0 -237.0 L 525.0 -237.0 L 599.0 -224.0 L 620.0 -220.0 L 641.5 -213.5 L 663.0 -207.0 L 683.0 -202.0 L 764.0 -181.0 L 818.0 -144.0 L 871.0 -107.0 L 871.0 -63.0 L 871.0 -41.0 L 857.0 -22.0 L 852.0 -16.0 L 829.0 -16.0 L 812.0 -16.0 L 787.5 -18.5 L 763.0 -21.0 L 730.0 -28.0 L 719.0 -30.0 L 704.0 -33.0 L 689.0 -36.0 L 671.0 -41.0 L 691.0 -50.0 L 705.0 -69.0 L 720.0 -88.0 L 714.0 -100.0 L 704.0 -123.0 L 666.0 -144.0 L 628.0 -165.0 L 563.0 -177.0 L 493.0 -190.0 L 424.0 -199.0 L 355.0 -208.0 Z" fill="black" fill-opacity="0.25" stroke="black" stroke-width="4.0"/>
  <rect x="22.0" y="-958.0" width="1105.9999999999998" height="462.99999999999994" fill="none" stroke="red" stroke-width="10.0" /><rect x="0.0" y="-468.0" width="1126.0" height="363.00000000000006" fill="none" stroke="red" stroke-width="10.0" /><rect x="285.0" y="-237.0" width="586.0000000000001" height="220.99999999999997" fill="none" stroke="red" stroke-width="10.0" />
</svg>
