<svg xmlns="http://www.w3.org/2000/svg"
  viewBox="-50.0 -709.0 1206.0 907.0">
  <rect x="-50.0" y="-709.0" width="1206.0" height="907.0" fill="white"/>
  <path d="M 70.0 -121.0 L 122.0 -126.0 L 235.0 -126.0 L 271.0 -126.0 L 311.0 -122.0 L 351.0 -118.0 L 395.0 -108.0 L 421.0 -102.0 L 446.5 -96.0 L 472.0 -90.0 L 497.0 -82.0 L 595.0 -58.0 L 659.0 -10.0 L 722.0 36.0 L 723.0 90.0 L 723.0 121.0 L 708.0 140.0 L 701.0 148.0 L 673.0 148.0 L 632.0 148.0 L 554.0 132.0 L 542.0 130.0 L 523.0 127.0 L 504.0 124.0 L 481.0 118.0 L 506.0 106.0 L 523.0 82.0 L 540.0 58.0 L 534.0 44.0 L 522.0 15.0 L 476.5 -10.0 L 431.0 -35.0 L 351.0 -51.0 L 267.0 -68.0 L 182.0 -79.0 L 97.0 -90.0 L 12.0 -102.0 Z M 717.0 -429.0 L 711.0 -417.0 L 704.5 -398.0 L 698.0 -379.0 L 692.0 -354.0 L 829.0 -348.0 L 1060.0 -339.0 L 1106.0 -293.0 L 964.0 -293.0 L 857.5 -293.0 L 751.0 -293.0 L 671.0 -294.0 L 654.0 -256.0 L 626.0 -228.0 L 615.0 -214.0 L 583.0 -204.0 L 566.0 -199.0 L 551.0 -198.0 L 536.0 -197.0 L 521.0 -196.0 L 499.0 -196.0 L 490.0 -199.0 L 477.0 -204.0 L 485.0 -213.0 L 510.0 -249.0 L 526.0 -299.0 L 514.0 -299.0 L 314.0 -308.0 L 215.0 -357.0 L 131.0 -396.0 L 29.0 -521.0 L 21.0 -535.0 L 17.0 -561.0 L 4.0 -635.0 L 0.0 -644.0 L 31.0 -648.0 L 68.0 -654.0 L 106.0 -659.0 L 122.0 -659.0 L 165.0 -658.0 L 193.0 -640.0 L 200.0 -636.0 L 201.0 -615.0 L 198.0 -569.0 L 198.0 -555.0 L 203.0 -549.0 L 295.0 -418.0 L 506.0 -376.0 L 514.0 -373.0 L 524.0 -372.0 L 534.0 -371.0 L 546.0 -370.0 L 551.0 -386.0 L 556.0 -398.0 L 561.0 -410.0 L 567.0 -421.0 L 575.0 -438.0 L 604.0 -438.0 L 665.0 -432.0 L 678.0 -431.0 L 691.0 -430.0 L 704.0 -429.0 Z" fill="black" fill-opacity="0.25" stroke="black" stroke-width="4.0"/>
  <rect x="12.0" y="-126.0" width="711.0" height="274.0" fill="none" stroke="red" stroke-width="10.0" /><rect x="0.0" y="-659.0" width="1106.0" height="463.0" fill="none" stroke="red" stroke-width="10.0" />
</svg>
