<svg xmlns="http://www.w3.org/2000/svg"
  viewBox="-50 -1008 1228 1042">
  <rect x="-50" y="-1008" width="1228" height="1042" fill="white"/>
  <path d="M 740 -728 L 734 -716 L 727.5 -697 L 721 -678 L 714 -653 L 852 -647 L 1083 -638 L 1128 -592 L 986 -592 L 880 -592 L 774 -592 L 694 -594 L 677 -556 L 649 -526 L 638 -512 L 605 -503 L 588 -498 L 573 -497 L 558 -496 L 544 -495 L 522 -495 L 513 -499 L 500 -504 L 508 -513 L 533 -549 L 549 -599 L 536 -599 L 336 -608 L 238 -656 L 154 -695 L 52 -820 L 44 -834 L 40 -861 L 27 -935 L 22 -944 L 53 -948 L 91 -953 L 129 -958 L 144 -958 L 187 -957 L 216 -939 L 223 -934 L 224 -914 L 221 -869 L 221 -855 L 226 -849 L 318 -718 L 528 -675 L 536 -672 L 546.5 -671 L 557 -670 L 569 -669 L 573 -685 L 578.5 -697.5 L 584 -710 L 589 -720 L 597 -737 L 627 -737 L 688 -732 L 701 -730 L 714 -729 L 727 -728 Z M 896 -128 L 906 -232 L 732 -315 L 564 -396 L 393 -396 L 303 -396 L 253 -370 L 198 -342 L 196 -292 L 195 -261 L 241 -225 L 303 -178 L 305 -178 L 166 -178 L 96 -208 L 50 -227 L 18 -276 L 1 -315 L 0 -345 L 0 -406 L 69 -438 L 134 -468 L 257 -467 L 312 -467 L 370.5 -461.5 L 429 -456 L 477 -448 L 536 -439 L 595 -424 L 654 -409 L 714 -392 L 831 -359 L 980 -261 L 1126 -165 L 1125 -124 L 1125 -105 L 1089 -105 L 1066 -105 L 1034.5 -107 L 1003 -109 L 966 -116 L 953 -118 L 935 -121 L 917 -124 Z M 285 -219 L 298 -222 L 308.5 -227 L 319 -232 L 332 -234 L 354 -235 L 388 -236 L 422 -237 L 469 -237 L 525 -237 L 599 -224 L 620 -220 L 641.5 -213.5 L 663 -207 L 683 -202 L 764 -181 L 818 -144 L 871 -107 L 871 -63 L 871 -41 L 857 -22 L 852 -16 L 829 -16 L 812 -16 L 787.5 -18.5 L 763 -21 L 730 -28 L 719 -30 L 704 -33 L 689 -36 L 671 -41 L 691 -50 L 705 -69 L 720 -88 L 714 -100 L 704 -123 L 666 -144 L 628 -165 L 563 -177 L 493 -190 L 424 -199 L 355 -208 Z" fill="black" fill-opacity="0.25" stroke="black" stroke-width="4"/>
  <rect x="22" y="-958" width="1106" height="463" fill="none" stroke="red" stroke-width="10" /><rect x="0" y="-468" width="1126" height="363" fill="none" stroke="red" stroke-width="10" /><rect x="285" y="-237" width="586" height="221" fill="none" stroke="red" stroke-width="10" />
</svg>
