<svg xmlns="http://www.w3.org/2000/svg"
  viewBox="-50.0 -724.0 1206.0 563.0">
  <rect x="-50.0" y="-724.0" width="1206.0" height="563.0" fill="white"/>
  <path d="M 717.0 -444.0 L 711.0 -432.0 L 705.0 -413.0 L 699.0 -394.0 L 692.0 -369.0 L 829.0 -363.0 L 1060.0 -354.0 L 1106.0 -308.0 L 964.0 -308.0 L 857.5 -308.0 L 751.0 -308.0 L 672.0 -309.0 L 655.0 -271.0 L 626.0 -242.0 L 615.0 -228.0 L 583.0 -219.0 L 566.0 -214.0 L 551.0 -212.5 L 536.0 -211.0 L 522.0 -211.0 L 500.0 -211.0 L 491.0 -214.0 L 478.0 -218.0 L 486.0 -228.0 L 511.0 -264.0 L 527.0 -314.0 L 514.0 -314.0 L 314.0 -323.0 L 216.0 -372.0 L 132.0 -411.0 L 30.0 -536.0 L 22.0 -550.0 L 17.0 -577.0 L 4.0 -651.0 L 0.0 -660.0 L 31.0 -664.0 L 69.0 -669.0 L 107.0 -674.0 L 122.0 -674.0 L 165.0 -672.0 L 194.0 -655.0 L 202.0 -650.0 L 201.0 -630.0 L 199.0 -584.0 L 199.0 -570.0 L 203.0 -564.0 L 295.0 -433.0 L 506.0 -391.0 L 514.0 -388.0 L 524.0 -387.0 L 534.0 -386.0 L 547.0 -385.0 L 552.0 -401.0 L 557.0 -413.0 L 562.0 -425.0 L 567.0 -436.0 L 576.0 -453.0 L 605.0 -453.0 L 665.0 -447.0 L 678.0 -445.0 L 691.0 -444.5 L 704.0 -444.0 Z" fill="black" fill-opacity="0.25" stroke="black" stroke-width="4.0"/>
  <rect x="0.0" y="-674.0" width="1106.0" height="463.00000000000006" fill="none" stroke="red" stroke-width="10.0" />
</svg>
