<svg xmlns="http://www.w3.org/2000/svg"
  viewBox="-50 -709 1206 907">
  <rect x="-50" y="-709" width="1206" height="907" fill="white"/>
  <path d="M 70 -121 L 122 -126 L 235 -126 L 271 -126 L 311 -122 L 351 -118 L 395 -108 L 421 -102 L 446.5 -96 L 472 -90 L 497 -82 L 595 -58 L 659 -10 L 722 36 L 723 90 L 723 121 L 708 140 L 701 148 L 673 148 L 632 148 L 554 132 L 542 130 L 523 127 L 504 124 L 481 118 L 506 106 L 523 82 L 540 58 L 534 44 L 522 15 L 476.5 -10 L 431 -35 L 351 -51 L 267 -68 L 182 -79 L 97 -90 L 12 -102 Z M 717 -429 L 711 -417 L 704.5 -398 L 698 -379 L 692 -354 L 829 -348 L 1060 -339 L 1106 -293 L 964 -293 L 857.5 -293 L 751 -293 L 671 -294 L 654 -256 L 626 -228 L 615 -214 L 583 -204 L 566 -199 L 551 -198 L 536 -197 L 521 -196 L 499 -196 L 490 -199 L 477 -204 L 485 -213 L 510 -249 L 526 -299 L 514 -299 L 314 -308 L 215 -357 L 131 -396 L 29 -521 L 21 -535 L 17 -561 L 4 -635 L 0 -644 L 31 -648 L 68 -654 L 106 -659 L 122 -659 L 165 -658 L 193 -640 L 200 -636 L 201 -615 L 198 -569 L 198 -555 L 203 -549 L 295 -418 L 506 -376 L 514 -373 L 524 -372 L 534 -371 L 546 -370 L 551 -386 L 556 -398 L 561 -410 L 567 -421 L 575 -438 L 604 -438 L 665 -432 L 678 -431 L 691 -430 L 704 -429 Z" fill="black" fill-opacity="0.25" stroke="black" stroke-width="4"/>
  <rect x="12" y="-126" width="711" height="274" fill="none" stroke="red" stroke-width="10" /><rect x="0" y="-659" width="1106" height="463" fill="none" stroke="red" stroke-width="10" />
</svg>
