<svg xmlns="http://www.w3.org/2000/svg"
  viewBox="-364 -1189 847 349.143">
  <rect x="-364" y="-1189" width="847" height="349.143" fill="white"/>
  <path d="M 359 -1090 L 359 -1106 L 370 -1116.5 L 381 -1127 L 396 -1127 L 412 -1127 L 422.5 -1116.5 L 433 -1106 L 433 -1090 L 433 -1074 L 422 -1064 L 411 -1054 L 396 -1054 L 382 -1054 L 370.5 -1064 L 359 -1074 Z M 33 -1106 L 41 -1094 L 51 -1080 L 56 -1060 L 72 -1021 L 75 -1013 L 76 -1009.5 L 77 -1006 L 77 -1005 L 82 -989 L -184 -992 L -178 -981 L -173 -972 L -170 -964.5 L -167 -957 L -164 -949 L -148 -911 L -144 -897 L -144 -894 L -156 -894 L -164 -894 L -171 -893.5 L -178 -893 L -187 -891 L -206 -887 L -231 -897 L -239 -898 L -251 -908 L -284 -983 L -294 -1000 L -311 -1008 L -314 -1023 L -278 -1022 L -231 -1022.5 L -184 -1023 L -126 -1022 L -39 -1021 L -72 -1096 L -81 -1113 L -100 -1122 L -103 -1139 L 94 -1136 L 222 -1135 L 271 -1135 L 288 -1135 L 300 -1130 L 308 -1124 L 313 -1104 Z" fill="black" fill-opacity="0.25" stroke="black" stroke-width="4"/>
  <rect x="-312.3" y="-1014.4" width="394.3" height="124.5" fill="none" stroke="red" stroke-width="10" /><rect x="-314" y="-1139" width="747" height="124.6" fill="none" stroke="red" stroke-width="10" />
</svg>
