<svg xmlns="http://www.w3.org/2000/svg"
  viewBox="-356 -1193 727 350.067">
  <rect x="-356" y="-1193" width="727" height="350.067" fill="white"/>
  <path d="M -259 -1105 L -259 -1121 L -248 -1132 L -237 -1143 L -223 -1143 L -207 -1143 L -196 -1132 L -185 -1121 L -185 -1105 L -185 -1089 L -196 -1079 L -207 -1069 L -223 -1069 L -237 -1069 L -248 -1079 L -259 -1089 Z M 41 -1110 L 49 -1097 L 59 -1083 L 64 -1063 L 80 -1024 L 83 -1016 L 84 -1013 L 85 -1010 L 85 -1008 L 90 -993 L -176 -996 L -170 -985 L -165 -976 L -162 -968 L -159 -960 L -156 -952 L -140 -915 L -135 -901 L -135 -898 L -148 -898 L -156 -898 L -163 -897 L -170 -896 L -179 -894 L -198 -890 L -223 -901 L -231 -902 L -243 -912 L -276 -986 L -286 -1004 L -303 -1011 L -306 -1027 L -270 -1026 L -223 -1026.5 L -176 -1027 L -118 -1026 L -31 -1024 L -64 -1099 L -73 -1116 L -92 -1126 L -95 -1143 L 102 -1140 L 230 -1138 L 279 -1138 L 296 -1138 L 308 -1133 L 316 -1127 L 321 -1107 Z" fill="black" fill-opacity="0.25" stroke="black" stroke-width="4"/>
  <rect x="-304.3" y="-1018" width="394.3" height="125.1" fill="none" stroke="red" stroke-width="10" /><rect x="-306" y="-1143" width="627" height="125" fill="none" stroke="red" stroke-width="10" />
</svg>
