<svg xmlns="http://www.w3.org/2000/svg"
  viewBox="-364.0 -1189.0 847.0 349.1428571428571">
  <rect x="-364.0" y="-1189.0" width="847.0" height="349.1428571428571" fill="white"/>
  <path d="M 359.0 -1090.0 L 359.0 -1106.0 L 370.0 -1116.5 L 381.0 -1127.0 L 396.0 -1127.0 L 412.0 -1127.0 L 422.5 -1116.5 L 433.0 -1106.0 L 433.0 -1090.0 L 433.0 -1074.0 L 422.0 -1064.0 L 411.0 -1054.0 L 396.0 -1054.0 L 382.0 -1054.0 L 370.5 -1064.0 L 359.0 -1074.0 Z M 33.0 -1106.0 L 41.0 -1094.0 L 51.0 -1080.0 L 56.0 -1060.0 L 72.0 -1021.0 L 75.0 -1013.0 L 76.0 -1009.5 L 77.0 -1006.0 L 77.0 -1005.0 L 82.0 -989.0 L -184.0 -992.0 L -178.0 -981.0 L -173.0 -972.0 L -170.0 -964.5 L -167.0 -957.0 L -164.0 -949.0 L -148.0 -911.0 L -144.0 -897.0 L -144.0 -894.0 L -156.0 -894.0 L -164.0 -894.0 L -171.0 -893.5 L -178.0 -893.0 L -187.0 -891.0 L -206.0 -887.0 L -231.0 -897.0 L -239.0 -898.0 L -251.0 -908.0 L -284.0 -983.0 L -294.0 -1000.0 L -311.0 -1008.0 L -314.0 -1023.0 L -278.0 -1022.0 L -231.0 -1022.5 L -184.0 -1023.0 L -126.0 -1022.0 L -39.0 -1021.0 L -72.0 -1096.0 L -81.0 -1113.0 L -100.0 -1122.0 L -103.0 -1139.0 L 94.0 -1136.0 L 222.0 -1135.0 L 271.0 -1135.0 L 288.0 -1135.0 L 300.0 -1130.0 L 308.0 -1124.0 L 313.0 -1104.0 Z" fill="black" fill-opacity="0.25" stroke="black" stroke-width="4.0"/>
  <rect x="-312.3" y="-1014.4" width="394.3" height="124.49999999999994" fill="none" stroke="red" stroke-width="10.0" /><rect x="-314.0" y="-1139.0" width="747.0" height="124.60000000000005" fill="none" stroke="red" stroke-width="10.0" />
</svg>
