<svg xmlns="http://www.w3.org/2000/svg"
  viewBox="-356.0 -1193.0 727.0 350.0666666666667">
  <rect x="-356.0" y="-1193.0" width="727.0" height="350.0666666666667" fill="white"/>
  <path d="M -259.0 -1105.0 L -259.0 -1121.0 L -248.0 -1132.0 L -237.0 -1143.0 L -223.0 -1143.0 L -207.0 -1143.0 L -196.0 -1132.0 L -185.0 -1121.0 L -185.0 -1105.0 L -185.0 -1089.0 L -196.0 -1079.0 L -207.0 -1069.0 L -223.0 -1069.0 L -237.0 -1069.0 L -248.0 -1079.0 L -259.0 -1089.0 Z M 41.0 -1110.0 L 49.0 -1097.0 L 59.0 -1083.0 L 64.0 -1063.0 L 80.0 -1024.0 L 83.0 -1016.0 L 84.0 -1013.0 L 85.0 -1010.0 L 85.0 -1008.0 L 90.0 -993.0 L -176.0 -996.0 L -170.0 -985.0 L -165.0 -976.0 L -162.0 -968.0 L -159.0 -960.0 L -156.0 -952.0 L -140.0 -915.0 L -135.0 -901.0 L -135.0 -898.0 L -148.0 -898.0 L -156.0 -898.0 L -163.0 -897.0 L -170.0 -896.0 L -179.0 -894.0 L -198.0 -890.0 L -223.0 -901.0 L -231.0 -902.0 L -243.0 -912.0 L -276.0 -986.0 L -286.0 -1004.0 L -303.0 -1011.0 L -306.0 -1027.0 L -270.0 -1026.0 L -223.0 -1026.5 L -176.0 -1027.0 L -118.0 -1026.0 L -31.0 -1024.0 L -64.0 -1099.0 L -73.0 -1116.0 L -92.0 -1126.0 L -95.0 -1143.0 L 102.0 -1140.0 L 230.0 -1138.0 L 279.0 -1138.0 L 296.0 -1138.0 L 308.0 -1133.0 L 316.0 -1127.0 L 321.0 -1107.0 Z" fill="black" fill-opacity="0.25" stroke="black" stroke-width="4.0"/>
  <rect x="-304.3" y="-1018.0" width="394.3" height="125.1" fill="none" stroke="red" stroke-width="10.0" /><rect x="-306.0" y="-1143.0" width="627.0" height="125.0" fill="none" stroke="red" stroke-width="10.0" />
</svg>
