<svg xmlns="http://www.w3.org/2000/svg"
  viewBox="-487.0 -1191.0 847.0 350.0666666666667">
  <rect x="-487.0" y="-1191.0" width="847.0" height="350.0666666666667" fill="white"/>
  <path d="M -437.0 -988.0 L -437.0 -1004.0 L -426.0 -1014.5 L -415.0 -1025.0 L -401.0 -1025.0 L -385.0 -1025.0 L -374.0 -1014.0 L -363.0 -1003.0 L -363.0 -988.0 L -363.0 -972.0 L -374.0 -961.5 L -385.0 -951.0 L -401.0 -951.0 L -415.0 -951.0 L -426.0 -961.5 L -437.0 -972.0 Z M 30.0 -1108.0 L 38.0 -1095.0 L 48.0 -1081.0 L 54.0 -1061.0 L 69.0 -1022.0 L 72.0 -1014.0 L 73.0 -1011.0 L 74.0 -1008.0 L 74.0 -1007.0 L 79.0 -991.0 L -187.0 -994.0 L -181.0 -983.0 L -176.0 -974.0 L -173.0 -966.0 L -170.0 -958.0 L -167.0 -950.0 L -151.0 -913.0 L -146.0 -899.0 L -146.0 -896.0 L -159.0 -896.0 L -167.0 -896.0 L -174.0 -895.0 L -181.0 -894.0 L -190.0 -892.0 L -209.0 -888.0 L -233.0 -899.0 L -241.0 -900.0 L -254.0 -910.0 L -287.0 -985.0 L -296.0 -1002.0 L -314.0 -1010.0 L -316.0 -1025.0 L -280.0 -1024.0 L -233.5 -1024.5 L -187.0 -1025.0 L -129.0 -1024.0 L -42.0 -1022.0 L -74.0 -1097.0 L -84.0 -1114.0 L -103.0 -1124.0 L -106.0 -1141.0 L 91.0 -1138.0 L 220.0 -1136.0 L 268.0 -1136.0 L 285.0 -1136.0 L 298.0 -1132.0 L 306.0 -1125.0 L 310.0 -1105.0 Z" fill="black" fill-opacity="0.25" stroke="black" stroke-width="4.0"/>
  <rect x="-437.0" y="-1016.0" width="516.0" height="125.1" fill="none" stroke="red" stroke-width="10.0" /><rect x="-424.5" y="-1141.0" width="734.4999999999999" height="125.0" fill="none" stroke="red" stroke-width="10.0" />
</svg>
