<svg xmlns="http://www.w3.org/2000/svg"
  viewBox="-353 -1191 726 350.067">
  <rect x="-353" y="-1191" width="726" height="350.067" fill="white"/>
  <path d="M 43 -1108 L 51 -1096 L 61 -1082 L 67 -1061 L 83 -1022 L 86 -1014 L 86.5 -1011 L 87 -1008 L 87 -1007 L 92 -991 L -173 -994 L -167 -983 L -162 -974 L -159 -966 L -156 -958 L -153 -951 L -138 -913 L -133 -899 L -133 -896 L -146 -896 L -154 -896 L -160.5 -895 L -167 -894 L -177 -892 L -196 -888 L -220 -899 L -228 -900 L -241 -910 L -273 -985 L -283 -1002 L -300 -1010 L -303 -1025 L -267 -1024 L -220 -1024.5 L -173 -1025 L -116 -1024 L -28 -1022 L -61 -1097 L -70 -1115 L -89 -1124 L -92 -1141 L 104 -1138 L 233 -1137 L 281 -1137 L 298 -1137 L 311 -1132 L 319 -1125 L 323 -1105 Z" fill="black" fill-opacity="0.25" stroke="black" stroke-width="4"/>
  <rect x="-301.2" y="-1016" width="393.2" height="125.1" fill="none" stroke="red" stroke-width="10" /><rect x="-303" y="-1141" width="626" height="125" fill="none" stroke="red" stroke-width="10" />
</svg>
