<svg xmlns="http://www.w3.org/2000/svg"
  viewBox="-50.0 -1047.0 1273.0 1383.0">
  <rect x="-50.0" y="-1047.0" width="1273.0" height="1383.0" fill="white"/>
  <path d="M 739.0 -426.0 L 733.0 -414.0 L 726.5 -395.0 L 720.0 -376.0 L 713.0 -351.0 L 851.0 -345.0 L 1082.0 -336.0 L 1127.0 -290.0 L 985.0 -290.0 L 879.0 -290.0 L 773.0 -290.0 L 693.0 -292.0 L 676.0 -254.0 L 648.0 -225.0 L 637.0 -211.0 L 604.0 -201.0 L 587.0 -196.0 L 572.0 -195.0 L 557.0 -194.0 L 543.0 -193.0 L 521.0 -193.0 L 512.0 -197.0 L 499.0 -202.0 L 507.0 -211.0 L 532.0 -247.0 L 548.0 -297.0 L 535.0 -297.0 L 335.0 -306.0 L 237.0 -354.0 L 153.0 -393.0 L 51.0 -518.0 L 43.0 -532.0 L 39.0 -559.0 L 26.0 -633.0 L 21.0 -642.0 L 52.0 -646.0 L 90.0 -651.0 L 128.0 -656.0 L 143.0 -656.0 L 186.0 -655.0 L 215.0 -637.0 L 222.0 -632.0 L 223.0 -612.0 L 220.0 -567.0 L 220.0 -553.0 L 225.0 -547.0 L 317.0 -416.0 L 527.0 -373.0 L 535.0 -370.0 L 545.5 -369.5 L 556.0 -369.0 L 568.0 -367.0 L 572.0 -383.0 L 577.5 -395.5 L 583.0 -408.0 L 588.0 -418.0 L 596.0 -435.0 L 626.0 -435.0 L 687.0 -430.0 L 700.0 -428.0 L 713.0 -427.0 L 726.0 -426.0 Z M 784.0 -767.0 L 778.0 -754.0 L 771.5 -735.5 L 765.0 -717.0 L 759.0 -692.0 L 896.0 -685.0 L 1127.0 -676.0 L 1173.0 -631.0 L 1031.0 -631.0 L 924.5 -631.0 L 818.0 -631.0 L 739.0 -633.0 L 721.0 -595.0 L 693.0 -565.0 L 682.0 -551.0 L 649.0 -542.0 L 632.0 -537.0 L 617.5 -536.0 L 603.0 -535.0 L 588.0 -534.0 L 566.0 -534.0 L 557.0 -537.0 L 544.0 -542.0 L 553.0 -551.0 L 578.0 -587.0 L 593.0 -637.0 L 581.0 -637.0 L 381.0 -646.0 L 282.0 -695.0 L 198.0 -734.0 L 96.0 -859.0 L 88.0 -873.0 L 84.0 -900.0 L 71.0 -973.0 L 66.0 -982.0 L 97.0 -987.0 L 135.0 -992.0 L 173.0 -997.0 L 188.0 -997.0 L 232.0 -996.0 L 260.0 -978.0 L 268.0 -973.0 L 268.0 -953.0 L 265.0 -908.0 L 265.0 -894.0 L 270.0 -887.0 L 362.0 -756.0 L 573.0 -714.0 L 581.0 -711.0 L 591.0 -710.0 L 601.0 -709.0 L 614.0 -707.0 L 618.0 -723.0 L 623.0 -735.0 L 628.0 -747.0 L 634.0 -759.0 L 642.0 -776.0 L 671.0 -776.0 L 732.0 -770.0 L 744.0 -769.0 L 758.0 -768.0 L 772.0 -767.0 Z M 895.0 174.0 L 905.0 70.0 L 731.0 -14.0 L 563.0 -95.0 L 392.0 -94.0 L 302.0 -94.0 L 252.0 -68.0 L 197.0 -40.0 L 195.0 10.0 L 194.0 41.0 L 240.0 77.0 L 302.0 124.0 L 304.0 124.0 L 165.0 124.0 L 95.0 94.0 L 49.0 75.0 L 17.0 25.0 L 0.0 -14.0 L 0.0 -43.0 L 0.0 -104.0 L 68.0 -136.0 L 133.0 -166.0 L 256.0 -165.0 L 311.0 -165.0 L 369.5 -159.5 L 428.0 -154.0 L 476.0 -146.0 L 535.0 -137.0 L 594.0 -122.0 L 653.0 -107.0 L 713.0 -90.0 L 830.0 -57.0 L 979.0 41.0 L 1125.0 137.0 L 1125.0 178.0 L 1125.0 197.0 L 1088.0 197.0 L 1065.0 197.0 L 1033.5 195.0 L 1002.0 193.0 L 965.0 186.0 L 952.0 184.0 L 934.0 181.0 L 916.0 178.0 Z M 284.0 83.0 L 297.0 80.0 L 307.5 75.0 L 318.0 70.0 L 331.0 67.0 L 353.0 66.0 L 387.0 65.5 L 421.0 65.0 L 468.0 65.0 L 524.0 65.0 L 598.0 78.0 L 619.0 82.0 L 640.5 88.5 L 662.0 95.0 L 682.0 100.0 L 763.0 121.0 L 817.0 158.0 L 870.0 195.0 L 870.0 239.0 L 870.0 261.0 L 856.0 280.0 L 851.0 286.0 L 828.0 286.0 L 811.0 286.0 L 786.5 283.5 L 762.0 281.0 L 729.0 274.0 L 718.0 272.0 L 703.0 269.0 L 688.0 266.0 L 670.0 261.0 L 690.0 252.0 L 704.0 233.0 L 719.0 214.0 L 713.0 202.0 L 703.0 179.0 L 665.0 158.0 L 627.0 137.0 L 562.0 125.0 L 492.0 112.0 L 423.0 103.0 L 354.0 94.0 Z" fill="black" fill-opacity="0.25" stroke="black" stroke-width="4.0"/>
  <rect x="21.0" y="-656.0" width="1106.0" height="463.0" fill="none" stroke="red" stroke-width="10.0" /><rect x="66.0" y="-997.0" width="1107.0" height="462.99999999999994" fill="none" stroke="red" stroke-width="10.0" /><rect x="0.0" y="-166.0" width="1125.0" height="363.0" fill="none" stroke="red" stroke-width="10.0" /><rect x="284.0" y="65.0" width="586.0000000000001" height="220.99999999999997" fill="none" stroke="red" stroke-width="10.0" />
</svg>
