<svg xmlns="http://www.w3.org/2000/svg"
  viewBox="-50.0 -1052.1666666666665 1251.0 903.3666666666666">
  <rect x="-50.0" y="-1052.1666666666665" width="1251.0" height="903.3666666666666" fill="white"/>
  <path d="M 716.0 -432.0 L 710.0 -419.0 L 704.0 -400.5 L 698.0 -382.0 L 691.0 -357.0 L 829.0 -351.0 L 1060.0 -342.0 L 1106.0 -296.0 L 964.0 -296.0 L 857.5 -296.0 L 751.0 -296.0 L 671.0 -298.0 L 653.0 -260.0 L 626.0 -230.0 L 615.0 -216.0 L 582.0 -207.0 L 565.0 -202.0 L 550.0 -201.0 L 535.0 -200.0 L 521.0 -199.0 L 499.0 -198.0 L 490.0 -202.0 L 477.0 -207.0 L 485.0 -216.0 L 510.0 -252.0 L 526.0 -302.0 L 513.0 -302.0 L 313.0 -311.0 L 215.0 -360.0 L 131.0 -399.0 L 29.0 -524.0 L 21.0 -538.0 L 17.0 -565.0 L 4.0 -639.0 L 0.0 -647.0 L 31.0 -652.0 L 68.0 -657.0 L 106.0 -662.0 L 121.0 -662.0 L 165.0 -661.0 L 193.0 -643.0 L 201.0 -638.0 L 201.0 -618.0 L 198.0 -573.0 L 198.0 -559.0 L 203.0 -552.0 L 295.0 -421.0 L 505.0 -379.0 L 513.0 -376.0 L 523.5 -375.0 L 534.0 -374.0 L 546.0 -373.0 L 550.0 -389.0 L 555.5 -401.0 L 561.0 -413.0 L 566.0 -424.0 L 574.0 -441.0 L 604.0 -441.0 L 665.0 -435.0 L 677.0 -434.0 L 690.5 -433.0 L 704.0 -432.0 Z M 762.0 -772.0 L 756.0 -760.0 L 749.5 -741.5 L 743.0 -723.0 L 737.0 -698.0 L 875.0 -691.0 L 1106.0 -682.0 L 1151.0 -637.0 L 1009.0 -637.0 L 902.5 -637.0 L 796.0 -637.0 L 716.0 -638.0 L 699.0 -600.0 L 671.0 -571.0 L 660.0 -557.0 L 628.0 -548.0 L 611.0 -543.0 L 596.0 -541.5 L 581.0 -540.0 L 566.0 -540.0 L 544.0 -540.0 L 535.0 -543.0 L 522.0 -548.0 L 531.0 -557.0 L 556.0 -593.0 L 571.0 -643.0 L 559.0 -643.0 L 359.0 -652.0 L 260.0 -701.0 L 176.0 -740.0 L 74.0 -865.0 L 66.0 -880.0 L 62.0 -905.0 L 49.0 -979.0 L 44.0 -988.0 L 75.0 -992.0 L 113.0 -998.0 L 151.0 -1003.0 L 167.0 -1002.0 L 210.0 -1001.0 L 238.0 -983.0 L 245.0 -979.0 L 246.0 -958.0 L 243.0 -913.0 L 243.0 -899.0 L 248.0 -893.0 L 340.0 -762.0 L 551.0 -720.0 L 559.0 -717.0 L 569.0 -716.0 L 579.0 -715.0 L 591.0 -713.0 L 596.0 -729.0 L 601.5 -741.5 L 607.0 -754.0 L 612.0 -765.0 L 621.0 -783.0 L 649.0 -782.0 L 711.0 -776.0 L 723.0 -775.0 L 736.5 -773.5 L 750.0 -772.0 Z" fill="black" fill-opacity="0.25" stroke="black" stroke-width="4.0"/>
  <rect x="0.0" y="-662.0" width="1106.0" height="464.0" fill="none" stroke="red" stroke-width="10.0" /><rect x="44.0" y="-1002.9999999999999" width="1107.0" height="462.99999999999983" fill="none" stroke="red" stroke-width="10.0" />
</svg>
