<svg xmlns="http://www.w3.org/2000/svg"
  viewBox="-50 -1047 1273 1383">
  <rect x="-50" y="-1047" width="1273" height="1383" fill="white"/>
  <path d="M 739 -426 L 733 -414 L 726.5 -395 L 720 -376 L 713 -351 L 851 -345 L 1082 -336 L 1127 -290 L 985 -290 L 879 -290 L 773 -290 L 693 -292 L 676 -254 L 648 -225 L 637 -211 L 604 -201 L 587 -196 L 572 -195 L 557 -194 L 543 -193 L 521 -193 L 512 -197 L 499 -202 L 507 -211 L 532 -247 L 548 -297 L 535 -297 L 335 -306 L 237 -354 L 153 -393 L 51 -518 L 43 -532 L 39 -559 L 26 -633 L 21 -642 L 52 -646 L 90 -651 L 128 -656 L 143 -656 L 186 -655 L 215 -637 L 222 -632 L 223 -612 L 220 -567 L 220 -553 L 225 -547 L 317 -416 L 527 -373 L 535 -370 L 545.5 -369.5 L 556 -369 L 568 -367 L 572 -383 L 577.5 -395.5 L 583 -408 L 588 -418 L 596 -435 L 626 -435 L 687 -430 L 700 -428 L 713 -427 L 726 -426 Z M 784 -767 L 778 -754 L 771.5 -735.5 L 765 -717 L 759 -692 L 896 -685 L 1127 -676 L 1173 -631 L 1031 -631 L 924.5 -631 L 818 -631 L 739 -633 L 721 -595 L 693 -565 L 682 -551 L 649 -542 L 632 -537 L 617.5 -536 L 603 -535 L 588 -534 L 566 -534 L 557 -537 L 544 -542 L 553 -551 L 578 -587 L 593 -637 L 581 -637 L 381 -646 L 282 -695 L 198 -734 L 96 -859 L 88 -873 L 84 -900 L 71 -973 L 66 -982 L 97 -987 L 135 -992 L 173 -997 L 188 -997 L 232 -996 L 260 -978 L 268 -973 L 268 -953 L 265 -908 L 265 -894 L 270 -887 L 362 -756 L 573 -714 L 581 -711 L 591 -710 L 601 -709 L 614 -707 L 618 -723 L 623 -735 L 628 -747 L 634 -759 L 642 -776 L 671 -776 L 732 -770 L 744 -769 L 758 -768 L 772 -767 Z M 895 174 L 905 70 L 731 -14 L 563 -95 L 392 -94 L 302 -94 L 252 -68 L 197 -40 L 195 10 L 194 41 L 240 77 L 302 124 L 304 124 L 165 124 L 95 94 L 49 75 L 17 25 L 0 -14 L 0 -43 L 0 -104 L 68 -136 L 133 -166 L 256 -165 L 311 -165 L 369.5 -159.5 L 428 -154 L 476 -146 L 535 -137 L 594 -122 L 653 -107 L 713 -90 L 830 -57 L 979 41 L 1125 137 L 1125 178 L 1125 197 L 1088 197 L 1065 197 L 1033.5 195 L 1002 193 L 965 186 L 952 184 L 934 181 L 916 178 Z M 284 83 L 297 80 L 307.5 75 L 318 70 L 331 67 L 353 66 L 387 65.5 L 421 65 L 468 65 L 524 65 L 598 78 L 619 82 L 640.5 88.5 L 662 95 L 682 100 L 763 121 L 817 158 L 870 195 L 870 239 L 870 261 L 856 280 L 851 286 L 828 286 L 811 286 L 786.5 283.5 L 762 281 L 729 274 L 718 272 L 703 269 L 688 266 L 670 261 L 690 252 L 704 233 L 719 214 L 713 202 L 703 179 L 665 158 L 627 137 L 562 125 L 492 112 L 423 103 L 354 94 Z" fill="black" fill-opacity="0.25" stroke="black" stroke-width="4"/>
  <rect x="21" y="-656" width="1106" height="463" fill="none" stroke="red" stroke-width="10" /><rect x="66" y="-997" width="1107" height="463" fill="none" stroke="red" stroke-width="10" /><rect x="0" y="-166" width="1125" height="363" fill="none" stroke="red" stroke-width="10" /><rect x="284" y="65" width="586" height="221" fill="none" stroke="red" stroke-width="10" />
</svg>
