<svg xmlns="http://www.w3.org/2000/svg"
  viewBox="-50.0 -1051.1666666666665 1252.0 1246.1666666666665">
  <rect x="-50.0" y="-1051.1666666666665" width="1252.0" height="1246.1666666666665" fill="white"/>
  <path d="M 70.0 -123.0 L 122.0 -128.0 L 236.0 -128.0 L 272.0 -128.0 L 312.0 -124.0 L 352.0 -120.0 L 396.0 -111.0 L 422.0 -105.0 L 447.0 -98.5 L 472.0 -92.0 L 497.0 -84.0 L 596.0 -60.0 L 660.0 -13.0 L 723.0 33.0 L 724.0 88.0 L 724.0 119.0 L 708.0 137.0 L 701.0 145.0 L 673.0 145.0 L 632.0 145.0 L 555.0 130.0 L 543.0 128.0 L 524.0 125.0 L 505.0 122.0 L 482.0 116.0 L 507.0 104.0 L 524.0 80.0 L 541.0 56.0 L 535.0 42.0 L 523.0 13.0 L 477.0 -12.0 L 431.0 -37.0 L 352.0 -53.0 L 268.0 -70.0 L 182.5 -81.0 L 97.0 -92.0 L 13.0 -105.0 Z M 717.0 -431.0 L 711.0 -419.0 L 705.0 -400.0 L 699.0 -381.0 L 692.0 -356.0 L 830.0 -350.0 L 1061.0 -341.0 L 1107.0 -295.0 L 965.0 -295.0 L 858.5 -295.0 L 752.0 -295.0 L 672.0 -297.0 L 655.0 -259.0 L 627.0 -230.0 L 616.0 -216.0 L 583.0 -206.0 L 566.0 -201.0 L 551.0 -200.0 L 536.0 -199.0 L 522.0 -199.0 L 500.0 -199.0 L 491.0 -202.0 L 478.0 -207.0 L 486.0 -216.0 L 511.0 -252.0 L 527.0 -302.0 L 514.0 -302.0 L 314.0 -311.0 L 216.0 -359.0 L 132.0 -398.0 L 30.0 -523.0 L 22.0 -537.0 L 17.0 -564.0 L 4.0 -638.0 L 0.0 -647.0 L 31.0 -651.0 L 69.0 -656.0 L 107.0 -661.0 L 122.0 -661.0 L 165.0 -660.0 L 194.0 -642.0 L 201.0 -638.0 L 202.0 -617.0 L 199.0 -572.0 L 199.0 -558.0 L 203.0 -552.0 L 295.0 -421.0 L 506.0 -378.0 L 514.0 -375.0 L 524.5 -374.0 L 535.0 -373.0 L 547.0 -372.0 L 552.0 -388.0 L 557.0 -400.0 L 562.0 -412.0 L 567.0 -423.0 L 576.0 -441.0 L 605.0 -441.0 L 666.0 -434.0 L 679.0 -433.0 L 691.5 -432.0 L 704.0 -431.0 Z M 763.0 -772.0 L 757.0 -759.0 L 750.5 -740.5 L 744.0 -722.0 L 738.0 -697.0 L 875.0 -691.0 L 1106.0 -681.0 L 1152.0 -636.0 L 1009.0 -636.0 L 903.0 -636.0 L 797.0 -636.0 L 717.0 -638.0 L 700.0 -600.0 L 672.0 -570.0 L 661.0 -555.0 L 629.0 -547.0 L 611.0 -542.0 L 596.5 -540.5 L 582.0 -539.0 L 567.0 -539.0 L 545.0 -539.0 L 536.0 -542.0 L 523.0 -547.0 L 531.0 -556.0 L 556.0 -592.0 L 572.0 -642.0 L 560.0 -642.0 L 360.0 -652.0 L 261.0 -700.0 L 177.0 -739.0 L 75.0 -864.0 L 67.0 -878.0 L 63.0 -905.0 L 50.0 -978.0 L 45.0 -988.0 L 76.0 -993.0 L 114.0 -997.0 L 152.0 -1002.0 L 168.0 -1001.0 L 211.0 -1000.0 L 239.0 -983.0 L 247.0 -978.0 L 247.0 -958.0 L 244.0 -912.0 L 244.0 -898.0 L 249.0 -892.0 L 342.0 -761.0 L 552.0 -719.0 L 560.0 -716.0 L 570.0 -715.0 L 580.0 -714.0 L 592.0 -712.0 L 597.0 -728.0 L 602.0 -740.5 L 607.0 -753.0 L 613.0 -764.0 L 621.0 -781.0 L 650.0 -781.0 L 711.0 -775.0 L 724.0 -774.0 L 737.0 -773.0 L 750.0 -772.0 Z" fill="black" fill-opacity="0.25" stroke="black" stroke-width="4.0"/>
  <rect x="13.0" y="-128.0" width="711.0" height="273.0" fill="none" stroke="red" stroke-width="10.0" /><rect x="0.0" y="-661.0" width="1107.0" height="462.0" fill="none" stroke="red" stroke-width="10.0" /><rect x="45.0" y="-1002.0" width="1107.0" height="462.99999999999994" fill="none" stroke="red" stroke-width="10.0" />
</svg>
