<svg xmlns="http://www.w3.org/2000/svg"
  viewBox="-50 -1052.167 1251 903.367">
  <rect x="-50" y="-1052.167" width="1251" height="903.367" fill="white"/>
  <path d="M 716 -432 L 710 -419 L 704 -400.5 L 698 -382 L 691 -357 L 829 -351 L 1060 -342 L 1106 -296 L 964 -296 L 857.5 -296 L 751 -296 L 671 -298 L 653 -260 L 626 -230 L 615 -216 L 582 -207 L 565 -202 L 550 -201 L 535 -200 L 521 -199 L 499 -198 L 490 -202 L 477 -207 L 485 -216 L 510 -252 L 526 -302 L 513 -302 L 313 -311 L 215 -360 L 131 -399 L 29 -524 L 21 -538 L 17 -565 L 4 -639 L 0 -647 L 31 -652 L 68 -657 L 106 -662 L 121 -662 L 165 -661 L 193 -643 L 201 -638 L 201 -618 L 198 -573 L 198 -559 L 203 -552 L 295 -421 L 505 -379 L 513 -376 L 523.5 -375 L 534 -374 L 546 -373 L 550 -389 L 555.5 -401 L 561 -413 L 566 -424 L 574 -441 L 604 -441 L 665 -435 L 677 -434 L 690.5 -433 L 704 -432 Z M 762 -772 L 756 -760 L 749.5 -741.5 L 743 -723 L 737 -698 L 875 -691 L 1106 -682 L 1151 -637 L 1009 -637 L 902.5 -637 L 796 -637 L 716 -638 L 699 -600 L 671 -571 L 660 -557 L 628 -548 L 611 -543 L 596 -541.5 L 581 -540 L 566 -540 L 544 -540 L 535 -543 L 522 -548 L 531 -557 L 556 -593 L 571 -643 L 559 -643 L 359 -652 L 260 -701 L 176 -740 L 74 -865 L 66 -880 L 62 -905 L 49 -979 L 44 -988 L 75 -992 L 113 -998 L 151 -1003 L 167 -1002 L 210 -1001 L 238 -983 L 245 -979 L 246 -958 L 243 -913 L 243 -899 L 248 -893 L 340 -762 L 551 -720 L 559 -717 L 569 -716 L 579 -715 L 591 -713 L 596 -729 L 601.5 -741.5 L 607 -754 L 612 -765 L 621 -783 L 649 -782 L 711 -776 L 723 -775 L 736.5 -773.5 L 750 -772 Z" fill="black" fill-opacity="0.25" stroke="black" stroke-width="4"/>
  <rect x="0" y="-662" width="1106" height="464" fill="none" stroke="red" stroke-width="10" /><rect x="44" y="-1003" width="1107" height="463" fill="none" stroke="red" stroke-width="10" />
</svg>
