<svg xmlns="http://www.w3.org/2000/svg"
  viewBox="-50 -1045 1272 1315">
  <rect x="-50" y="-1045" width="1272" height="1315" fill="white"/>
  <path d="M 0 -41 L 0 -69 L 13.5 -88.5 L 27 -108 L 49.5 -121 L 72 -134 L 100 -141.5 L 128 -149 L 157 -152.5 L 186 -156 L 213 -157 L 240 -158 L 259 -158 L 377 -155 L 490.5 -132 L 604 -109 L 716 -73 L 837 -35 L 979 63 L 1122 161 L 1122 203 L 1122 220 L 1086 220 L 1039 220 L 988.5 212.5 L 938 205 L 892 192 L 906 91 L 731 3 L 646 -38 L 559.5 -60.5 L 473 -83 L 379 -83 L 353 -83 L 322 -79.5 L 291 -76 L 264 -65.5 L 237 -55 L 217.5 -35.5 L 198 -16 L 195 17 L 193 50 L 239 86 L 300 133 L 303 133 L 233 131 L 181.5 122.5 L 130 114 L 94 98 L 49 78 L 17 30 L 0 -11 Z M 20 -640 L 36 -642 L 53 -645 L 70 -648 L 89 -650 L 102 -652 L 115 -653.5 L 128 -655 L 142 -655 L 186 -654 L 214 -636 L 222 -631 L 222 -611 L 219 -566 L 219 -553 L 224 -545 L 317 -413 L 526 -372 L 534 -369 L 544.5 -368 L 555 -367 L 567 -365 L 571 -381 L 576.5 -393.5 L 582 -406 L 587 -417 L 595 -434 L 625 -434 L 686 -428 L 698 -427 L 711.5 -426 L 725 -425 L 737 -425 L 731 -412 L 725 -393.5 L 719 -375 L 712 -350 L 850 -343 L 1081 -334 L 1126 -289 L 976 -289 L 888 -289 L 819 -289 L 750 -289 L 692 -291 L 674 -254 L 647 -223 L 640 -213 L 625.5 -207 L 611 -201 L 595 -198 L 579 -195 L 563 -193.5 L 547 -192 L 535 -192 L 519 -192 L 511 -195 L 498 -200 L 506 -209 L 519 -227 L 529 -248.5 L 539 -270 L 547 -295 L 534 -295 L 433 -300 L 359.5 -314 L 286 -328 L 236 -353 L 152 -392 L 50 -517 L 42 -531 L 38 -558 L 32 -595 L 27 -615 L 22 -635 Z M 65 -981 L 81 -983 L 98.5 -985.5 L 116 -988 L 134 -990 L 151 -992 L 163.5 -993.5 L 176 -995 L 184 -995 L 204 -995 L 223 -991 L 242 -987 L 259 -976 L 266 -971 L 267 -951 L 264 -906 L 264 -893 L 269 -886 L 362 -755 L 572 -713 L 580 -710 L 590 -709 L 600 -708 L 612 -706 L 617 -722 L 622 -734 L 627 -746 L 633 -758 L 642 -775 L 670 -775 L 731 -769 L 743 -768 L 756.5 -766.5 L 770 -765 L 783 -765 L 777 -753 L 770.5 -734.5 L 764 -716 L 758 -691 L 895 -684 L 1126 -675 L 1172 -630 L 999 -630 L 919 -630 L 855 -630 L 791 -630 L 737 -631 L 720 -593 L 692 -564 L 684 -554 L 670 -548 L 656 -542 L 640 -538.5 L 624 -535 L 608 -534 L 592 -533 L 580 -533 L 563 -533 L 556 -536 L 543 -541 L 552 -550 L 577 -585 L 592 -636 L 580 -636 L 381 -645 L 281 -694 L 197 -733 L 95 -858 L 87 -871 L 83 -898 L 70 -972 Z" fill="black" fill-opacity="0.25" stroke="black" stroke-width="4"/>
  <rect x="0" y="-158" width="1122" height="378" fill="none" stroke="red" stroke-width="10" /><rect x="20" y="-655" width="1106" height="463" fill="none" stroke="red" stroke-width="10" /><rect x="65" y="-995" width="1107" height="462" fill="none" stroke="red" stroke-width="10" />
</svg>
