<svg xmlns="http://www.w3.org/2000/svg"
  viewBox="-50.0 -1045.0 1272.0 1315.0">
  <rect x="-50.0" y="-1045.0" width="1272.0" height="1315.0" fill="white"/>
  <path d="M 0.0 -41.0 L 0.0 -69.0 L 13.5 -88.5 L 27.0 -108.0 L 49.5 -121.0 L 72.0 -134.0 L 100.0 -141.5 L 128.0 -149.0 L 157.0 -152.5 L 186.0 -156.0 L 213.0 -157.0 L 240.0 -158.0 L 259.0 -158.0 L 377.0 -155.0 L 490.5 -132.0 L 604.0 -109.0 L 716.0 -73.0 L 837.0 -35.0 L 979.0 63.0 L 1122.0 161.0 L 1122.0 203.0 L 1122.0 220.0 L 1086.0 220.0 L 1039.0 220.0 L 988.5 212.5 L 938.0 205.0 L 892.0 192.0 L 906.0 91.0 L 731.0 3.0 L 646.0 -38.0 L 559.5 -60.5 L 473.0 -83.0 L 379.0 -83.0 L 353.0 -83.0 L 322.0 -79.5 L 291.0 -76.0 L 264.0 -65.5 L 237.0 -55.0 L 217.5 -35.5 L 198.0 -16.0 L 195.0 17.0 L 193.0 50.0 L 239.0 86.0 L 300.0 133.0 L 303.0 133.0 L 233.0 131.0 L 181.5 122.5 L 130.0 114.0 L 94.0 98.0 L 49.0 78.0 L 17.0 30.0 L 0.0 -11.0 Z M 20.0 -640.0 L 36.0 -642.0 L 53.0 -645.0 L 70.0 -648.0 L 89.0 -650.0 L 102.0 -652.0 L 115.0 -653.5 L 128.0 -655.0 L 142.0 -655.0 L 186.0 -654.0 L 214.0 -636.0 L 222.0 -631.0 L 222.0 -611.0 L 219.0 -566.0 L 219.0 -553.0 L 224.0 -545.0 L 317.0 -413.0 L 526.0 -372.0 L 534.0 -369.0 L 544.5 -368.0 L 555.0 -367.0 L 567.0 -365.0 L 571.0 -381.0 L 576.5 -393.5 L 582.0 -406.0 L 587.0 -417.0 L 595.0 -434.0 L 625.0 -434.0 L 686.0 -428.0 L 698.0 -427.0 L 711.5 -426.0 L 725.0 -425.0 L 737.0 -425.0 L 731.0 -412.0 L 725.0 -393.5 L 719.0 -375.0 L 712.0 -350.0 L 850.0 -343.0 L 1081.0 -334.0 L 1126.0 -289.0 L 976.0 -289.0 L 888.0 -289.0 L 819.0 -289.0 L 750.0 -289.0 L 692.0 -291.0 L 674.0 -254.0 L 647.0 -223.0 L 640.0 -213.0 L 625.5 -207.0 L 611.0 -201.0 L 595.0 -198.0 L 579.0 -195.0 L 563.0 -193.5 L 547.0 -192.0 L 535.0 -192.0 L 519.0 -192.0 L 511.0 -195.0 L 498.0 -200.0 L 506.0 -209.0 L 519.0 -227.0 L 529.0 -248.5 L 539.0 -270.0 L 547.0 -295.0 L 534.0 -295.0 L 433.0 -300.0 L 359.5 -314.0 L 286.0 -328.0 L 236.0 -353.0 L 152.0 -392.0 L 50.0 -517.0 L 42.0 -531.0 L 38.0 -558.0 L 32.0 -595.0 L 27.0 -615.0 L 22.0 -635.0 Z M 65.0 -981.0 L 81.0 -983.0 L 98.5 -985.5 L 116.0 -988.0 L 134.0 -990.0 L 151.0 -992.0 L 163.5 -993.5 L 176.0 -995.0 L 184.0 -995.0 L 204.0 -995.0 L 223.0 -991.0 L 242.0 -987.0 L 259.0 -976.0 L 266.0 -971.0 L 267.0 -951.0 L 264.0 -906.0 L 264.0 -893.0 L 269.0 -886.0 L 362.0 -755.0 L 572.0 -713.0 L 580.0 -710.0 L 590.0 -709.0 L 600.0 -708.0 L 612.0 -706.0 L 617.0 -722.0 L 622.0 -734.0 L 627.0 -746.0 L 633.0 -758.0 L 642.0 -775.0 L 670.0 -775.0 L 731.0 -769.0 L 743.0 -768.0 L 756.5 -766.5 L 770.0 -765.0 L 783.0 -765.0 L 777.0 -753.0 L 770.5 -734.5 L 764.0 -716.0 L 758.0 -691.0 L 895.0 -684.0 L 1126.0 -675.0 L 1172.0 -630.0 L 999.0 -630.0 L 919.0 -630.0 L 855.0 -630.0 L 791.0 -630.0 L 737.0 -631.0 L 720.0 -593.0 L 692.0 -564.0 L 684.0 -554.0 L 670.0 -548.0 L 656.0 -542.0 L 640.0 -538.5 L 624.0 -535.0 L 608.0 -534.0 L 592.0 -533.0 L 580.0 -533.0 L 563.0 -533.0 L 556.0 -536.0 L 543.0 -541.0 L 552.0 -550.0 L 577.0 -585.0 L 592.0 -636.0 L 580.0 -636.0 L 381.0 -645.0 L 281.0 -694.0 L 197.0 -733.0 L 95.0 -858.0 L 87.0 -871.0 L 83.0 -898.0 L 70.0 -972.0 Z" fill="black" fill-opacity="0.25" stroke="black" stroke-width="4.0"/>
  <rect x="0.0" y="-158.0" width="1122.0" height="378.0" fill="none" stroke="red" stroke-width="10.0" /><rect x="20.0" y="-655.0" width="1105.9999999999998" height="463.0" fill="none" stroke="red" stroke-width="10.0" /><rect x="65.0" y="-995.0" width="1107.0" height="461.99999999999994" fill="none" stroke="red" stroke-width="10.0" />
</svg>
