<svg xmlns="http://www.w3.org/2000/svg"
  viewBox="-50 -1051.167 1252 1246.167">
  <rect x="-50" y="-1051.167" width="1252" height="1246.167" fill="white"/>
  <path d="M 70 -123 L 122 -128 L 236 -128 L 272 -128 L 312 -124 L 352 -120 L 396 -111 L 422 -105 L 447 -98.5 L 472 -92 L 497 -84 L 596 -60 L 660 -13 L 723 33 L 724 88 L 724 119 L 708 137 L 701 145 L 673 145 L 632 145 L 555 130 L 543 128 L 524 125 L 505 122 L 482 116 L 507 104 L 524 80 L 541 56 L 535 42 L 523 13 L 477 -12 L 431 -37 L 352 -53 L 268 -70 L 182.5 -81 L 97 -92 L 13 -105 Z M 717 -431 L 711 -419 L 705 -400 L 699 -381 L 692 -356 L 830 -350 L 1061 -341 L 1107 -295 L 965 -295 L 858.5 -295 L 752 -295 L 672 -297 L 655 -259 L 627 -230 L 616 -216 L 583 -206 L 566 -201 L 551 -200 L 536 -199 L 522 -199 L 500 -199 L 491 -202 L 478 -207 L 486 -216 L 511 -252 L 527 -302 L 514 -302 L 314 -311 L 216 -359 L 132 -398 L 30 -523 L 22 -537 L 17 -564 L 4 -638 L 0 -647 L 31 -651 L 69 -656 L 107 -661 L 122 -661 L 165 -660 L 194 -642 L 201 -638 L 202 -617 L 199 -572 L 199 -558 L 203 -552 L 295 -421 L 506 -378 L 514 -375 L 524.5 -374 L 535 -373 L 547 -372 L 552 -388 L 557 -400 L 562 -412 L 567 -423 L 576 -441 L 605 -441 L 666 -434 L 679 -433 L 691.5 -432 L 704 -431 Z M 763 -772 L 757 -759 L 750.5 -740.5 L 744 -722 L 738 -697 L 875 -691 L 1106 -681 L 1152 -636 L 1009 -636 L 903 -636 L 797 -636 L 717 -638 L 700 -600 L 672 -570 L 661 -555 L 629 -547 L 611 -542 L 596.5 -540.5 L 582 -539 L 567 -539 L 545 -539 L 536 -542 L 523 -547 L 531 -556 L 556 -592 L 572 -642 L 560 -642 L 360 -652 L 261 -700 L 177 -739 L 75 -864 L 67 -878 L 63 -905 L 50 -978 L 45 -988 L 76 -993 L 114 -997 L 152 -1002 L 168 -1001 L 211 -1000 L 239 -983 L 247 -978 L 247 -958 L 244 -912 L 244 -898 L 249 -892 L 342 -761 L 552 -719 L 560 -716 L 570 -715 L 580 -714 L 592 -712 L 597 -728 L 602 -740.5 L 607 -753 L 613 -764 L 621 -781 L 650 -781 L 711 -775 L 724 -774 L 737 -773 L 750 -772 Z" fill="black" fill-opacity="0.25" stroke="black" stroke-width="4"/>
  <rect x="13" y="-128" width="711" height="273" fill="none" stroke="red" stroke-width="10" /><rect x="0" y="-661" width="1107" height="462" fill="none" stroke="red" stroke-width="10" /><rect x="45" y="-1002" width="1107" height="463" fill="none" stroke="red" stroke-width="10" />
</svg>
