<svg xmlns="http://www.w3.org/2000/svg"
  viewBox="-50.0 -538.0 1225.0068027210884 552.0">
  <rect x="-50.0" y="-538.0" width="1225.0068027210884" height="552.0" fill="white"/>
  <path d="M 0.0 -366.0 L 0.0 -394.0 L 13.5 -414.0 L 27.0 -434.0 L 49.0 -447.5 L 71.0 -461.0 L 98.5 -469.0 L 126.0 -477.0 L 155.0 -481.5 L 184.0 -486.0 L 210.5 -487.0 L 237.0 -488.0 L 256.0 -488.0 L 317.0 -488.0 L 374.5 -482.5 L 432.0 -477.0 L 488.0 -467.0 L 544.0 -457.0 L 600.0 -443.5 L 656.0 -430.0 L 714.0 -413.0 L 832.0 -379.0 L 980.0 -282.0 L 1126.0 -186.0 L 1125.0 -144.0 L 1125.0 -125.0 L 1089.0 -126.0 L 1042.0 -126.0 L 992.0 -132.5 L 942.0 -139.0 L 896.0 -149.0 L 907.0 -253.0 L 731.0 -337.0 L 564.0 -417.0 L 392.0 -416.0 L 375.0 -416.0 L 354.5 -414.5 L 334.0 -413.0 L 312.5 -409.5 L 291.0 -406.0 L 270.5 -398.5 L 250.0 -391.0 L 233.5 -379.5 L 217.0 -368.0 L 206.5 -352.0 L 196.0 -336.0 L 195.0 -313.0 L 194.0 -282.0 L 241.0 -246.0 L 299.0 -201.0 L 304.0 -199.0 L 165.0 -200.0 L 95.0 -229.0 L 48.0 -249.0 L 17.0 -298.0 L 0.0 -337.0 Z M 284.0 -240.0 L 297.0 -243.0 L 308.0 -247.5 L 319.0 -252.0 L 331.0 -255.0 L 367.0 -257.0 L 402.5 -258.0 L 438.0 -259.0 L 474.0 -259.0 L 501.0 -259.0 L 532.0 -255.0 L 563.0 -251.0 L 599.0 -244.0 L 621.0 -240.0 L 641.5 -233.5 L 662.0 -227.0 L 683.0 -222.0 L 698.0 -219.0 L 717.5 -212.5 L 737.0 -206.0 L 758.0 -197.0 L 779.0 -188.0 L 799.5 -176.5 L 820.0 -165.0 L 836.0 -151.0 L 852.0 -137.0 L 861.5 -120.0 L 871.0 -103.0 L 870.0 -83.0 L 870.0 -61.0 L 856.0 -43.0 L 851.0 -37.0 L 828.0 -36.0 L 811.0 -36.0 L 787.0 -39.0 L 763.0 -42.0 L 730.0 -49.0 L 719.0 -51.0 L 704.0 -54.0 L 689.0 -57.0 L 670.0 -61.0 L 690.0 -71.0 L 705.0 -90.0 L 720.0 -108.0 L 714.0 -121.0 L 704.0 -144.0 L 666.0 -164.5 L 628.0 -185.0 L 563.0 -198.0 L 492.0 -211.0 L 423.5 -220.0 L 355.0 -229.0 Z" fill="black" fill-opacity="0.25" stroke="black" stroke-width="4.0"/>
  <rect x="0.0" y="-488.0" width="1126.0" height="363.0" fill="none" stroke="red" stroke-width="10.0" /><rect x="284.0" y="-259.0" width="587.0" height="223.0" fill="none" stroke="red" stroke-width="10.0" />
</svg>
