<svg xmlns="http://www.w3.org/2000/svg"
  viewBox="-50 -538 1225.007 552">
  <rect x="-50" y="-538" width="1225.007" height="552" fill="white"/>
  <path d="M 0 -366 L 0 -394 L 13.5 -414 L 27 -434 L 49 -447.5 L 71 -461 L 98.5 -469 L 126 -477 L 155 -481.5 L 184 -486 L 210.5 -487 L 237 -488 L 256 -488 L 317 -488 L 374.5 -482.5 L 432 -477 L 488 -467 L 544 -457 L 600 -443.5 L 656 -430 L 714 -413 L 832 -379 L 980 -282 L 1126 -186 L 1125 -144 L 1125 -125 L 1089 -126 L 1042 -126 L 992 -132.5 L 942 -139 L 896 -149 L 907 -253 L 731 -337 L 564 -417 L 392 -416 L 375 -416 L 354.5 -414.5 L 334 -413 L 312.5 -409.5 L 291 -406 L 270.5 -398.5 L 250 -391 L 233.5 -379.5 L 217 -368 L 206.5 -352 L 196 -336 L 195 -313 L 194 -282 L 241 -246 L 299 -201 L 304 -199 L 165 -200 L 95 -229 L 48 -249 L 17 -298 L 0 -337 Z M 284 -240 L 297 -243 L 308 -247.5 L 319 -252 L 331 -255 L 367 -257 L 402.5 -258 L 438 -259 L 474 -259 L 501 -259 L 532 -255 L 563 -251 L 599 -244 L 621 -240 L 641.5 -233.5 L 662 -227 L 683 -222 L 698 -219 L 717.5 -212.5 L 737 -206 L 758 -197 L 779 -188 L 799.5 -176.5 L 820 -165 L 836 -151 L 852 -137 L 861.5 -120 L 871 -103 L 870 -83 L 870 -61 L 856 -43 L 851 -37 L 828 -36 L 811 -36 L 787 -39 L 763 -42 L 730 -49 L 719 -51 L 704 -54 L 689 -57 L 670 -61 L 690 -71 L 705 -90 L 720 -108 L 714 -121 L 704 -144 L 666 -164.5 L 628 -185 L 563 -198 L 492 -211 L 423.5 -220 L 355 -229 Z" fill="black" fill-opacity="0.25" stroke="black" stroke-width="4"/>
  <rect x="0" y="-488" width="1126" height="363" fill="none" stroke="red" stroke-width="10" /><rect x="284" y="-259" width="587" height="223" fill="none" stroke="red" stroke-width="10" />
</svg>
