<svg xmlns="http://www.w3.org/2000/svg"
  viewBox="-50.0 -532.0 1225.0068027210884 462.0">
  <rect x="-50.0" y="-532.0" width="1225.0068027210884" height="462.0" fill="white"/>
  <path d="M 0.0 -360.0 L 0.0 -388.0 L 13.5 -408.0 L 27.0 -428.0 L 49.0 -441.0 L 71.0 -454.0 L 99.0 -463.0 L 127.0 -472.0 L 155.5 -476.0 L 184.0 -480.0 L 210.5 -481.0 L 237.0 -482.0 L 256.0 -482.0 L 316.0 -482.0 L 373.5 -476.0 L 431.0 -470.0 L 487.5 -460.0 L 544.0 -450.0 L 600.5 -437.0 L 657.0 -424.0 L 714.0 -408.0 L 831.0 -374.0 L 980.0 -276.0 L 1126.0 -178.0 L 1125.0 -138.0 L 1124.0 -120.0 L 1089.0 -120.0 L 1042.0 -120.0 L 992.0 -126.0 L 942.0 -132.0 L 896.0 -142.0 L 907.0 -246.0 L 732.0 -330.0 L 564.0 -410.0 L 392.0 -410.0 L 375.0 -410.0 L 354.5 -409.0 L 334.0 -408.0 L 312.5 -404.0 L 291.0 -400.0 L 270.5 -393.0 L 250.0 -386.0 L 233.5 -374.0 L 217.0 -362.0 L 206.5 -346.0 L 196.0 -330.0 L 195.0 -306.0 L 194.0 -276.0 L 241.0 -240.0 L 301.0 -194.0 L 305.0 -192.0 L 166.0 -194.0 L 95.0 -222.0 L 48.0 -242.0 L 17.0 -292.0 L 0.0 -332.0 Z" fill="black" fill-opacity="0.25" stroke="black" stroke-width="4.0"/>
  <rect x="0.0" y="-482.0" width="1126.0" height="362.0" fill="none" stroke="red" stroke-width="10.0" />
</svg>
