<svg xmlns="http://www.w3.org/2000/svg"
  viewBox="-50 -532 1225.007 462">
  <rect x="-50" y="-532" width="1225.007" height="462" fill="white"/>
  <path d="M 0 -360 L 0 -388 L 13.5 -408 L 27 -428 L 49 -441 L 71 -454 L 99 -463 L 127 -472 L 155.5 -476 L 184 -480 L 210.5 -481 L 237 -482 L 256 -482 L 316 -482 L 373.5 -476 L 431 -470 L 487.5 -460 L 544 -450 L 600.5 -437 L 657 -424 L 714 -408 L 831 -374 L 980 -276 L 1126 -178 L 1125 -138 L 1124 -120 L 1089 -120 L 1042 -120 L 992 -126 L 942 -132 L 896 -142 L 907 -246 L 732 -330 L 564 -410 L 392 -410 L 375 -410 L 354.5 -409 L 334 -408 L 312.5 -404 L 291 -400 L 270.5 -393 L 250 -386 L 233.5 -374 L 217 -362 L 206.5 -346 L 196 -330 L 195 -306 L 194 -276 L 241 -240 L 301 -194 L 305 -192 L 166 -194 L 95 -222 L 48 -242 L 17 -292 L 0 -332 Z" fill="black" fill-opacity="0.25" stroke="black" stroke-width="4"/>
  <rect x="0" y="-482" width="1126" height="362" fill="none" stroke="red" stroke-width="10" />
</svg>
