<svg xmlns="http://www.w3.org/2000/svg"
  viewBox="-50.00033538510102 -583.0 1454.010101005101 770.0">
  <rect x="-50.00033538510102" y="-583.0" width="1454.010101005101" height="770.0" fill="white"/>
  <path d="M 701.009765625 -132.0 L 752.009765625 -137.0 L 866.009765625 -137.0 L 902.009765625 -137.0 L 942.009765625 -133.0 L 982.009765625 -129.0 L 1026.00976562 -119.0 L 1052.00976562 -113.0 L 1077.00976562 -107.0 L 1102.00976562 -101.0 L 1128.00976562 -93.0 L 1227.00976562 -68.0 L 1290.00976562 -21.0 L 1354.00976562 26.0 L 1354.00976562 79.0 L 1354.00976562 110.0 L 1339.00976562 129.0 L 1333.00976562 137.0 L 1304.00976562 137.0 L 1264.00976562 137.0 L 1185.00976562 122.0 L 1173.00976562 120.0 L 1154.00976562 117.0 L 1135.00976562 114.0 L 1112.00976562 107.0 L 1137.00976562 96.0 L 1154.00976562 71.0 L 1170.00976562 47.0 L 1165.00976562 34.0 L 1154.00976562 6.0 L 1108.00976562 -19.5 L 1062.00976562 -45.0 L 982.009765625 -62.0 L 898.009765625 -79.0 L 812.509765625 -90.0 L 727.009765625 -101.0 L 643.009765625 -113.0 Z M 70.009765625 -529.0 L 77.009765625 -532.0 L 87.009765625 -532.5 L 97.009765625 -533.0 L 111.009765625 -533.0 L 154.009765625 -533.0 L 199.509765625 -519.5 L 245.009765625 -506.0 L 293.009765625 -477.0 L 356.009765625 -418.0 L 347.009765625 -418.0 L 330.009765625 -420.0 L 313.009765625 -422.0 L 286.009765625 -425.0 L 261.009765625 -428.0 L 242.509765625 -429.5 L 224.009765625 -431.0 L 213.009765625 -431.0 L 190.009765625 -431.0 L 170.009765625 -423.0 L 155.009765625 -416.0 L 155.009765625 -400.0 L 155.009765625 -392.0 L 160.009765625 -381.0 L 167.009765625 -367.0 L 171.009765625 -357.0 L 175.009765625 -347.0 L 179.009765625 -345.0 L 194.009765625 -339.0 L 205.009765625 -336.0 L 216.009765625 -333.0 L 230.009765625 -330.0 L 272.009765625 -319.0 L 279.009765625 -317.0 L 293.009765625 -316.0 L 307.009765625 -315.0 L 328.009765625 -315.0 L 396.009765625 -323.0 L 460.009765625 -330.5 L 524.009765625 -338.0 L 585.009765625 -345.0 L 706.009765625 -358.0 L 843.009765625 -359.0 L 933.009765625 -359.0 L 1066.00976562 -264.0 L 1096.00976562 -222.0 L 1077.00976562 -227.0 L 1025.00976562 -237.0 L 945.009765625 -247.0 L 871.009765625 -257.0 L 805.009765625 -256.0 L 766.009765625 -253.0 L 746.009765625 -252.0 L 716.509765625 -251.0 L 687.009765625 -250.0 L 649.009765625 -247.0 L 634.009765625 -246.0 L 609.009765625 -245.5 L 584.009765625 -245.0 L 549.009765625 -245.0 L 522.009765625 -245.0 L 493.509765625 -246.0 L 465.009765625 -247.0 L 435.009765625 -249.0 L 374.009765625 -252.0 L 299.009765625 -262.0 L 247.009765625 -269.0 L 197.509765625 -292.0 L 148.009765625 -315.0 L 97.009765625 -350.0 L -0.990234375 -417.0 L 0.009765625 -475.0 L 0.009765625 -515.0 Z" fill="black" fill-opacity="0.25" stroke="black" stroke-width="4.0"/>
  <rect x="643.0" y="-137.0" width="711.0000000000001" height="274.0" fill="none" stroke="red" stroke-width="10.0" /><rect x="-1.0" y="-533.0" width="1097.0" height="311.00000000000006" fill="none" stroke="red" stroke-width="10.0" />
</svg>
