<svg xmlns="http://www.w3.org/2000/svg"
  viewBox="-50 -583 1454.01 770">
  <rect x="-50" y="-583" width="1454.01" height="770" fill="white"/>
  <path d="M 701.01 -132 L 752.01 -137 L 866.01 -137 L 902.01 -137 L 942.01 -133 L 982.01 -129 L 1026.01 -119 L 1052.01 -113 L 1077.01 -107 L 1102.01 -101 L 1128.01 -93 L 1227.01 -68 L 1290.01 -21 L 1354.01 26 L 1354.01 79 L 1354.01 110 L 1339.01 129 L 1333.01 137 L 1304.01 137 L 1264.01 137 L 1185.01 122 L 1173.01 120 L 1154.01 117 L 1135.01 114 L 1112.01 107 L 1137.01 96 L 1154.01 71 L 1170.01 47 L 1165.01 34 L 1154.01 6 L 1108.01 -19.5 L 1062.01 -45 L 982.01 -62 L 898.01 -79 L 812.51 -90 L 727.01 -101 L 643.01 -113 Z M 70.01 -529 L 77.01 -532 L 87.01 -532.5 L 97.01 -533 L 111.01 -533 L 154.01 -533 L 199.51 -519.5 L 245.01 -506 L 293.01 -477 L 356.01 -418 L 347.01 -418 L 330.01 -420 L 313.01 -422 L 286.01 -425 L 261.01 -428 L 242.51 -429.5 L 224.01 -431 L 213.01 -431 L 190.01 -431 L 170.01 -423 L 155.01 -416 L 155.01 -400 L 155.01 -392 L 160.01 -381 L 167.01 -367 L 171.01 -357 L 175.01 -347 L 179.01 -345 L 194.01 -339 L 205.01 -336 L 216.01 -333 L 230.01 -330 L 272.01 -319 L 279.01 -317 L 293.01 -316 L 307.01 -315 L 328.01 -315 L 396.01 -323 L 460.01 -330.5 L 524.01 -338 L 585.01 -345 L 706.01 -358 L 843.01 -359 L 933.01 -359 L 1066.01 -264 L 1096.01 -222 L 1077.01 -227 L 1025.01 -237 L 945.01 -247 L 871.01 -257 L 805.01 -256 L 766.01 -253 L 746.01 -252 L 716.51 -251 L 687.01 -250 L 649.01 -247 L 634.01 -246 L 609.01 -245.5 L 584.01 -245 L 549.01 -245 L 522.01 -245 L 493.51 -246 L 465.01 -247 L 435.01 -249 L 374.01 -252 L 299.01 -262 L 247.01 -269 L 197.51 -292 L 148.01 -315 L 97.01 -350 L -0.99 -417 L 0.01 -475 L 0.01 -515 Z" fill="black" fill-opacity="0.25" stroke="black" stroke-width="4"/>
  <rect x="643" y="-137" width="711" height="274" fill="none" stroke="red" stroke-width="10" /><rect x="-1" y="-533" width="1097" height="311" fill="none" stroke="red" stroke-width="10" />
</svg>
