<svg xmlns="http://www.w3.org/2000/svg"
  viewBox="-50 -482 695.795 352">
  <rect x="-50" y="-482" width="695.795" height="352" fill="white"/>
  <path d="M 6.75 -427 L 10.75 -432 L 29.75 -432 L 51.75 -432 L 87.75 -427 L 134.75 -419 L 210.75 -407 L 228.75 -307 L 239.75 -245 L 253.75 -229 L 267.75 -213 L 284.75 -210 L 305.75 -208 L 305.75 -207 L 305.75 -203 L 298.75 -196 L 282.75 -180 L 245.75 -180 L 223.75 -180 L 198.25 -185.5 L 172.75 -191 L 140.75 -202 L 83.75 -223 L 61.75 -355 L 52.75 -411 L 26.75 -411 L 11.75 -411 L 2.75 -411 L 0.75 -413 L -2.25 -415 Z M 309.75 -427 L 309.75 -431 L 329.75 -432 L 346.75 -432 L 379.75 -427 L 425.75 -420 L 500.75 -407 L 518.75 -307 L 529.75 -246 L 543.75 -227 L 554.75 -212 L 575.75 -210 L 596.75 -208 L 595.75 -205 L 595.75 -202 L 589.75 -196 L 573.75 -181 L 535.75 -180 L 488.75 -180 L 432.75 -202 L 373.75 -225 L 351.75 -359 L 341.75 -416 L 326.75 -413 L 309.75 -410 Z" fill="black" fill-opacity="0.25" stroke="black" stroke-width="4"/>
  <rect x="-2" y="-432" width="308" height="252" fill="none" stroke="red" stroke-width="10" /><rect x="310" y="-432" width="287" height="252" fill="none" stroke="red" stroke-width="10" />
</svg>
