<svg xmlns="http://www.w3.org/2000/svg"
  viewBox="-50.0 -482.0 695.7954545454545 352.0">
  <rect x="-50.0" y="-482.0" width="695.7954545454545" height="352.0" fill="white"/>
  <path d="M 6.75 -427.0 L 10.75 -432.0 L 29.75 -432.0 L 51.75 -432.0 L 87.75 -427.0 L 134.75 -419.0 L 210.75 -407.0 L 228.75 -307.0 L 239.75 -245.0 L 253.75 -229.0 L 267.75 -213.0 L 284.75 -210.0 L 305.75 -208.0 L 305.75 -207.0 L 305.75 -203.0 L 298.75 -196.0 L 282.75 -180.0 L 245.75 -180.0 L 223.75 -180.0 L 198.25 -185.5 L 172.75 -191.0 L 140.75 -202.0 L 83.75 -223.0 L 61.75 -355.0 L 52.75 -411.0 L 26.75 -411.0 L 11.75 -411.0 L 2.75 -411.0 L 0.75 -413.0 L -2.25 -415.0 Z M 309.75 -427.0 L 309.75 -431.0 L 329.75 -432.0 L 346.75 -432.0 L 379.75 -427.0 L 425.75 -420.0 L 500.75 -407.0 L 518.75 -307.0 L 529.75 -246.0 L 543.75 -227.0 L 554.75 -212.0 L 575.75 -210.0 L 596.75 -208.0 L 595.75 -205.0 L 595.75 -202.0 L 589.75 -196.0 L 573.75 -181.0 L 535.75 -180.0 L 488.75 -180.0 L 432.75 -202.0 L 373.75 -225.0 L 351.75 -359.0 L 341.75 -416.0 L 326.75 -413.0 L 309.75 -410.0 Z" fill="black" fill-opacity="0.25" stroke="black" stroke-width="4.0"/>
  <rect x="-2.0" y="-432.0" width="308.0" height="252.0" fill="none" stroke="red" stroke-width="10.0" /><rect x="310.0" y="-432.0" width="287.0" height="252.0" fill="none" stroke="red" stroke-width="10.0" />
</svg>
