<svg xmlns="http://www.w3.org/2000/svg"
  viewBox="-50 -479.167 405.276 351.167">
  <rect x="-50" y="-479.167" width="405.276" height="351.167" fill="white"/>
  <path d="M 6.23 -425 L 10.23 -430 L 30.23 -429 L 52.23 -429 L 88.23 -425 L 135.23 -417 L 211.23 -405 L 229.23 -304 L 240.23 -242 L 254.23 -226 L 268.23 -210 L 285.23 -208 L 306.23 -206 L 305.23 -204 L 305.23 -200 L 299.23 -194 L 283.23 -178 L 246.23 -178 L 224.23 -178 L 198.73 -183 L 173.23 -188 L 141.23 -200 L 84.23 -221 L 62.23 -353 L 53.23 -409 L 27.23 -409 L 11.23 -409 L 2.23 -409 L 1.23 -411 L -2.77 -413 Z" fill="black" fill-opacity="0.25" stroke="black" stroke-width="4"/>
  <rect x="-3" y="-430" width="309" height="252" fill="none" stroke="red" stroke-width="10" />
</svg>
