<svg xmlns="http://www.w3.org/2000/svg"
  viewBox="-50.00030048076923 -479.1666666666667 405.2762237762238 351.1666666666667">
  <rect x="-50.00030048076923" y="-479.1666666666667" width="405.2762237762238" height="351.1666666666667" fill="white"/>
  <path d="M 6.23046875 -425.0 L 10.23046875 -430.0 L 30.23046875 -429.0 L 52.23046875 -429.0 L 88.23046875 -425.0 L 135.23046875 -417.0 L 211.23046875 -405.0 L 229.23046875 -304.0 L 240.23046875 -242.0 L 254.23046875 -226.0 L 268.23046875 -210.0 L 285.23046875 -208.0 L 306.23046875 -206.0 L 305.23046875 -204.0 L 305.23046875 -200.0 L 299.23046875 -194.0 L 283.23046875 -178.0 L 246.23046875 -178.0 L 224.23046875 -178.0 L 198.73046875 -183.0 L 173.23046875 -188.0 L 141.23046875 -200.0 L 84.23046875 -221.0 L 62.23046875 -353.0 L 53.23046875 -409.0 L 27.23046875 -409.0 L 11.23046875 -409.0 L 2.23046875 -409.0 L 1.23046875 -411.0 L -2.76953125 -413.0 Z" fill="black" fill-opacity="0.25" stroke="black" stroke-width="4.0"/>
  <rect x="-3.0" y="-430.0" width="309.0" height="252.0" fill="none" stroke="red" stroke-width="10.0" />
</svg>
