<svg xmlns="http://www.w3.org/2000/svg"
  viewBox="-50 -438 1456 493">
  <rect x="-50" y="-438" width="1456" height="493" fill="white"/>
  <path d="M 147 -262 L 82 -272 L 0 -362 L 0 -388 L 36 -376 L 75 -368 L 114 -360 L 158 -359 L 202 -357 L 255.5 -356.5 L 309 -356 L 380 -356 L 475 -356 L 700 -361 L 925 -365 L 1042 -365 L 1149 -365 L 1317 -267 L 1326 -254 L 1336.5 -244 L 1347 -234 L 1356 -223 L 1355 -223 L 1348.5 -223 L 1342 -223 L 1331 -226 L 1301 -231 L 1285.5 -235 L 1270 -239 L 1267 -239 L 1178 -246 L 1137 -249 L 1098 -251.5 L 1059 -254 L 1022 -254 L 967 -254 L 785 -245 L 602 -236 L 511 -236 L 464 -236 L 418.5 -237.5 L 373 -239 L 328 -241 L 283 -244 L 237.5 -249.5 L 192 -255 Z M 872 -206 L 874 -210 L 894 -210 L 910 -210 L 941 -206 L 957 -204 L 966.5 -203 L 976 -202 L 983 -201 L 1046 -191 L 1062 -104 L 1072 -51 L 1083 -37 L 1091 -23 L 1111 -21 L 1116 -20 L 1123 -20 L 1126 -20 L 1128 -18 L 1128 -13 L 1123 -9 L 1109 5 L 1077 5 L 1058 5 L 1036 0 L 1014 -5 L 988 -15 L 938 -34 L 919 -145 L 913 -193 L 889 -193 L 876 -193 L 868 -193 L 867 -195 L 866 -196 Z M 1094 -207 L 1094 -212 L 1111 -212 L 1125 -212 L 1153 -207 L 1167 -205 L 1176.5 -203.5 L 1186 -202 L 1192 -201 L 1256 -191 L 1273 -104 L 1283 -51 L 1294 -37 L 1301 -27 L 1320 -23 L 1337 -20 L 1337 -18 L 1337 -15 L 1336.5 -16 L 1336 -17 L 1333 -10 L 1326 4 L 1287 4 L 1268 4 L 1246.5 -1.5 L 1225 -7 L 1199 -17 L 1149 -36 L 1130 -150 L 1122 -200 L 1108 -197 L 1094 -193 Z" fill="black" fill-opacity="0.25" stroke="black" stroke-width="4"/>
  <rect x="0" y="-388" width="1356" height="165" fill="none" stroke="red" stroke-width="10" /><rect x="866" y="-210" width="262" height="215" fill="none" stroke="red" stroke-width="10" /><rect x="1094" y="-212" width="243" height="216" fill="none" stroke="red" stroke-width="10" />
</svg>
