<svg xmlns="http://www.w3.org/2000/svg"
  viewBox="-50 -904 1991 728">
  <rect x="-50" y="-904" width="1991" height="728" fill="white"/>
  <path d="M 81 -392 L 129 -379 L 181 -371.5 L 233 -364 L 291 -362 L 350 -361 L 422 -360 L 494 -359 L 588 -359 L 652 -359 L 758 -360 L 864 -361 L 1016 -364 L 1167 -366 L 1280 -367 L 1393 -368 L 1472 -368 L 1616 -368 L 1838 -270 L 1850 -257 L 1864 -247 L 1878 -237 L 1891 -226 L 1873 -226 L 1857 -229 L 1817 -233 L 1796.5 -237.5 L 1776 -242 L 1772 -242 L 1653 -249 L 1598 -252 L 1546.5 -254.5 L 1495 -257 L 1444 -257 L 1407 -257 L 1329 -255 L 1251 -253 L 1128 -248 L 1005 -243 L 914.5 -241 L 824 -239 L 763 -239 L 640 -239 L 519 -244.5 L 398 -250 L 277 -265 L 190 -275 L 81 -365 Z M 0 -732 L 0 -760 L 13.5 -780 L 27 -800 L 49 -813.5 L 71 -827 L 99 -835 L 127 -843 L 155 -847 L 183 -851 L 209.5 -852.5 L 236 -854 L 256 -854 L 308 -854 L 363 -849.5 L 418 -845 L 477 -835 L 537 -826 L 595 -811 L 653 -796 L 714 -779 L 832 -745 L 980 -648 L 1126 -552 L 1125 -510 L 1125 -491 L 1089 -492 L 1042 -492 L 992 -498.5 L 942 -505 L 896 -515 L 907 -619 L 731 -702 L 563 -782 L 392 -782 L 375 -782 L 354.5 -780.5 L 334 -779 L 312.5 -775 L 291 -771 L 270.5 -764 L 250 -757 L 233.5 -745.5 L 217 -734 L 206.5 -717.5 L 196 -701 L 195 -679 L 194 -648 L 241 -612 L 299 -567 L 304 -565 L 165 -566 L 95 -595 L 48 -615 L 17 -663 L 0 -703 Z M 284 -605 L 297 -608 L 308 -613 L 319 -618 L 331 -621 L 367 -623 L 403 -623.5 L 439 -624 L 474 -624 L 501 -624 L 532.5 -620.5 L 564 -617 L 599 -610 L 621 -606 L 641.5 -599.5 L 662 -593 L 683 -588 L 699 -584 L 718.5 -578 L 738 -572 L 758.5 -563 L 779 -554 L 799 -542.5 L 819 -531 L 835 -516.5 L 851 -502 L 860.5 -485.5 L 870 -469 L 870 -449 L 871 -427 L 857 -409 L 852 -403 L 832 -402 L 806 -402 L 780.5 -405.5 L 755 -409 L 730 -415 L 719 -417 L 704 -420 L 689 -423 L 670 -427 L 691 -438 L 705 -455 L 720 -474 L 714 -487 L 704 -510 L 666 -530.5 L 628 -551 L 563 -563 L 492 -576 L 423.5 -585 L 355 -594 Z M 1200 -718 L 1202 -721 L 1216 -721 L 1231 -721 L 1242 -721 L 1253 -720.5 L 1264 -720 L 1275 -718 L 1322 -710 L 1391 -697 L 1409 -602 L 1421 -541 L 1433 -527 L 1444 -514 L 1462 -510 L 1468 -509 L 1477 -508 L 1479 -508 L 1481 -507 L 1480 -500 L 1473 -495 L 1466 -490 L 1456.5 -487 L 1447 -484 L 1437.5 -483 L 1428 -482 L 1422 -482 L 1401 -482 L 1378.5 -487.5 L 1356 -493 L 1327 -503 L 1272 -523 L 1252 -649 L 1243 -702 L 1219 -702 L 1205 -702 L 1196 -702 L 1194 -703 L 1191 -706 Z M 1448 -722 L 1461 -722 L 1472.5 -721.5 L 1484 -721 L 1495 -719.5 L 1506 -718 L 1517 -716 L 1528 -714 L 1541 -711 L 1612 -697 L 1628 -602 L 1638 -544 L 1653 -529 L 1663 -514 L 1683 -511 L 1688 -510 L 1690 -509 L 1692 -508 L 1695 -508 L 1700 -508 L 1700 -501 L 1693.5 -496.5 L 1687 -492 L 1678 -489 L 1669 -486 L 1659.5 -484.5 L 1650 -483 L 1646 -483 L 1608 -483 L 1547 -505 L 1493 -526 L 1472 -654 L 1463 -705 L 1447 -705 L 1445 -705 L 1444 -705 L 1443.5 -704.5 L 1443 -704 L 1442 -704 L 1431 -704 L 1431 -719 L 1431 -722 Z" fill="black" fill-opacity="0.25" stroke="black" stroke-width="4"/>
  <rect x="81" y="-392" width="1810" height="166" fill="none" stroke="red" stroke-width="10" /><rect x="0" y="-854" width="1126" height="363" fill="none" stroke="red" stroke-width="10" /><rect x="284" y="-624" width="587" height="222" fill="none" stroke="red" stroke-width="10" /><rect x="1191" y="-721" width="290" height="239" fill="none" stroke="red" stroke-width="10" /><rect x="1431" y="-722" width="269" height="239" fill="none" stroke="red" stroke-width="10" />
</svg>
