<svg xmlns="http://www.w3.org/2000/svg"
  viewBox="-50 -1334 1486.5 1153">
  <rect x="-50" y="-1334" width="1486.5" height="1153" fill="white"/>
  <path d="M 0 -397 L 37 -384 L 75 -376 L 113 -368 L 157 -367 L 201 -366 L 255 -365 L 309 -364 L 380 -364 L 428 -364 L 507 -365 L 586 -366 L 700 -368 L 814 -370 L 898.5 -371.5 L 983 -373 L 1042 -373 L 1149 -373 L 1317 -275 L 1326 -262 L 1336.5 -252 L 1347 -242 L 1356 -231 L 1342 -231 L 1331 -234 L 1301 -238 L 1285.5 -242 L 1270 -246 L 1267 -246 L 1178 -254 L 1136 -257 L 1098 -259.5 L 1060 -262 L 1022 -262 L 994 -262 L 935.5 -260 L 877 -258 L 784 -253 L 691 -248 L 624 -245.5 L 557 -243 L 511 -243 L 419 -243 L 328.5 -249 L 238 -255 L 147 -270 L 81 -280 L 0 -370 Z M 750 -573 L 745 -573 L 742 -581 L 742 -582 L 744 -582 L 745 -582 L 748 -584 L 750 -585 L 746 -591 L 742 -596 L 748 -598 L 794 -615 L 834.5 -628.5 L 875 -642 L 909.5 -653 L 944 -664 L 971 -674 L 998 -684 L 1019 -695 L 1099 -736 L 1144 -809 L 1151 -821 L 1158.5 -838.5 L 1166 -856 L 1174.5 -879.5 L 1183 -903 L 1194.5 -932 L 1206 -961 L 1222 -996 L 1223 -999 L 1226.5 -1000.5 L 1230 -1002 L 1234.5 -1002.5 L 1239 -1003 L 1243.5 -1004 L 1248 -1005 L 1252 -1007 L 1264 -1014 L 1272 -1018.5 L 1280 -1023 L 1283 -1024 L 1296 -1030 L 1304.5 -1032.5 L 1313 -1035 L 1316 -1037 L 1329 -1037 L 1334 -1037 L 1339.5 -1036.5 L 1345 -1036 L 1350 -1034 L 1354 -1033 L 1358.5 -1032.5 L 1363 -1032 L 1368 -1031 L 1373 -1030 L 1377.5 -1028.5 L 1382 -1027 L 1386 -1023 L 1387 -1022 L 1386 -1020 L 1385 -1018 L 1382.5 -1017 L 1380 -1016 L 1377 -1014.5 L 1374 -1013 L 1372 -1012 L 1334 -986 L 1331 -979 L 1323 -945 L 1316 -921 L 1309 -897 L 1302 -878 L 1300 -872 L 1295 -863.5 L 1290 -855 L 1284 -846 L 1278 -837 L 1272.5 -828.5 L 1267 -820 L 1263 -814 L 1264 -814 L 1264 -815 L 1265 -815 L 1267 -815 L 1262 -810 L 1259 -807 L 1259 -807 L 1259 -807 L 1263 -814 L 1259 -812 L 1249 -805.5 L 1239 -799 L 1225 -788.5 L 1211 -778 L 1195 -765.5 L 1179 -753 L 1163 -740 L 1147 -728 L 1134.5 -717.5 L 1122 -707 L 1111 -698 L 1100 -689 L 1092.5 -682.5 L 1085 -676 L 1081 -672 L 1081 -671 L 1079 -670 L 1079 -670 L 1079 -669 L 1085 -671 L 1089.5 -673.5 L 1094 -676 L 1098 -677 L 1103 -680 L 1104 -680 L 1104 -680 L 1101 -679 L 1100 -678 L 1097 -676 L 1094 -674 L 1090.5 -672.5 L 1087 -671 L 1084 -669.5 L 1081 -668 L 1080 -668 L 1079 -668 L 1079 -669 L 1067 -663 L 1051 -655.5 L 1035 -648 L 1018 -641.5 L 1001 -635 L 984.5 -629.5 L 968 -624 L 955 -621 L 946 -620 L 932.5 -619.5 L 919 -619 L 907 -618.5 L 895 -618 L 889.5 -617 L 884 -616 L 891 -614 L 899 -611 L 907.5 -610 L 916 -609 L 925 -609 L 937 -609 L 949 -610 L 961 -611 L 974 -611 L 977 -611 L 980 -611 L 983 -611 L 986 -610 L 1031 -607 L 1066 -581 L 1085 -567 L 1084 -562 L 1087 -554 L 1074 -554 L 1061 -554 L 1049.5 -555 L 1038 -556 L 1025 -559 L 1008 -562 L 985.5 -564.5 L 963 -567 L 936 -571 L 910 -575 L 887 -577 L 864 -579 L 842 -579 L 838 -580 L 834 -580 L 830 -580 L 826 -580 L 812 -580 L 798 -579.5 L 784 -579 L 770 -577 L 767 -576 L 762.5 -574.5 L 758 -573 Z M 129 -828 L 129 -829 L 131 -829 L 132 -829 L 135 -831 L 137 -832 L 133 -838 L 129 -843 L 135 -845 L 181 -862 L 221.5 -875.5 L 262 -889 L 296 -900 L 330 -911 L 357.5 -921 L 385 -931 L 406 -942 L 486 -983 L 531 -1056 L 538 -1068 L 545.5 -1085.5 L 553 -1103 L 561.5 -1126.5 L 570 -1150 L 581.5 -1179 L 593 -1208 L 609 -1243 L 610 -1246 L 613.5 -1247.5 L 617 -1249 L 621 -1249.5 L 625 -1250 L 630 -1251 L 635 -1252 L 638 -1254 L 650 -1261 L 658.5 -1265.5 L 667 -1270 L 670 -1271 L 683 -1277 L 691 -1279.5 L 699 -1282 L 702 -1284 L 716 -1284 L 721 -1284 L 726 -1283.5 L 731 -1283 L 737 -1281 L 741 -1280 L 745.5 -1279.5 L 750 -1279 L 755 -1278 L 760 -1277 L 764.5 -1275.5 L 769 -1274 L 773 -1270 L 774 -1269 L 773 -1267 L 772 -1265 L 769 -1264 L 766 -1263 L 763.5 -1262 L 761 -1261 L 759 -1259 L 721 -1233 L 718 -1226 L 710 -1192 L 703 -1168 L 696 -1144 L 688 -1125 L 686 -1119 L 681.5 -1110.5 L 677 -1102 L 671 -1093 L 665 -1084 L 659.5 -1075.5 L 654 -1067 L 650 -1061 L 651 -1061 L 651 -1062 L 652 -1062 L 654 -1062 L 649 -1057 L 646 -1054 L 645 -1054 L 645 -1054 L 650 -1061 L 646 -1059 L 636 -1052.5 L 626 -1046 L 612 -1035.5 L 598 -1025 L 582 -1012.5 L 566 -1000 L 550 -987 L 534 -975 L 521.5 -964.5 L 509 -954 L 498 -946 L 487 -937 L 479.5 -930 L 472 -923 L 468 -919 L 468 -918 L 466 -917 L 466 -917 L 466 -916 L 472 -918 L 476.5 -920.5 L 481 -923 L 485 -925 L 490 -928 L 490 -927 L 490 -927 L 488 -926 L 487 -925 L 483.5 -923 L 480 -921 L 477 -919.5 L 474 -918 L 471 -916.5 L 468 -915 L 467 -915 L 466 -915 L 466 -916 L 454 -910 L 438 -902.5 L 422 -895 L 405 -888.5 L 388 -882 L 371.5 -876.5 L 355 -871 L 342 -868 L 333 -867 L 319 -866.5 L 305 -866 L 293.5 -865.5 L 282 -865 L 276 -864.5 L 270 -864 L 278 -861 L 286 -858 L 294.5 -857 L 303 -856 L 312 -856 L 324 -856 L 336 -857 L 348 -858 L 361 -858 L 364 -858 L 367 -858 L 370 -858 L 373 -857 L 418 -854 L 452 -828 L 471 -814 L 471 -809 L 474 -801 L 460 -801 L 447 -801 L 436 -802 L 425 -803 L 412 -806 L 395 -809 L 372 -811.5 L 349 -814 L 323 -818 L 297 -822 L 274 -824 L 251 -826 L 229 -826 L 225 -827 L 221 -827 L 217 -827 L 213 -827 L 199 -827 L 185 -826.5 L 171 -826 L 157 -824 L 154 -823 L 149.5 -821.5 L 145 -820 L 137 -820 L 132 -820 Z M 245 -725 L 248 -730 L 264 -730 L 280 -730 L 295.5 -728.5 L 311 -727 L 326 -725 L 373 -718 L 449 -706 L 467 -605 L 478 -543 L 492 -527 L 506 -511 L 523 -509 L 544 -507 L 544 -505 L 544 -501 L 537 -494 L 521 -478 L 484 -479 L 462 -479 L 437 -484 L 412 -489 L 380 -501 L 323 -522 L 300 -654 L 291 -710 L 265 -710 L 250 -710 L 241 -710 L 239 -712 L 236 -713 Z" fill="black" fill-opacity="0.25" stroke="black" stroke-width="4"/>
  <rect x="0" y="-397" width="1356" height="166" fill="none" stroke="red" stroke-width="10" /><rect x="236" y="-730" width="308" height="252" fill="none" stroke="red" stroke-width="10" /><rect x="742" y="-715" width="389.5" height="161" fill="none" stroke="red" stroke-width="10" /><rect x="1058" y="-876" width="243.3" height="161" fill="none" stroke="red" stroke-width="10" /><rect x="1173.2" y="-1037" width="213.8" height="161" fill="none" stroke="red" stroke-width="10" /><rect x="129" y="-962" width="389.5" height="161" fill="none" stroke="red" stroke-width="10" /><rect x="445" y="-1123" width="242.3" height="161" fill="none" stroke="red" stroke-width="10" /><rect x="560.2" y="-1284" width="213.8" height="161" fill="none" stroke="red" stroke-width="10" />
</svg>
