<svg xmlns="http://www.w3.org/2000/svg"
  viewBox="-50.0 -745.0 1592.0 568.0">
  <rect x="-50.0" y="-745.0" width="1592.0" height="568.0" fill="white"/>
  <path d="M 435.0 -457.0 L 423.0 -443.0 L 400.0 -437.0 L 377.0 -430.0 L 348.0 -430.0 L 326.0 -430.0 L 307.0 -432.5 L 288.0 -435.0 L 265.0 -438.0 L 244.0 -441.0 L 230.0 -446.0 L 216.0 -451.0 L 209.0 -454.0 L 163.0 -473.0 L 131.0 -489.0 L 129.0 -493.0 L 127.0 -497.0 L 132.0 -499.0 L 133.0 -500.0 L 145.0 -501.0 L 153.0 -501.0 L 161.5 -501.0 L 170.0 -501.0 L 182.0 -498.0 L 248.0 -488.0 L 260.0 -489.0 L 279.0 -489.0 L 287.0 -496.0 L 293.0 -502.0 L 293.0 -514.0 L 293.0 -531.0 L 266.0 -576.0 L 240.0 -621.0 L 240.0 -645.0 L 240.0 -667.0 L 255.0 -680.0 L 261.0 -685.0 L 290.0 -692.0 L 303.0 -695.0 L 317.5 -695.0 L 332.0 -695.0 L 348.0 -695.0 L 365.0 -695.0 L 382.5 -695.0 L 400.0 -695.0 L 420.0 -692.0 L 456.0 -687.0 L 457.0 -685.0 L 466.0 -668.0 L 466.0 -659.0 L 466.0 -646.0 L 447.0 -645.0 L 437.0 -645.0 L 420.0 -649.0 L 400.0 -654.0 L 393.0 -654.0 L 387.0 -654.0 L 387.0 -649.0 L 387.0 -631.0 L 420.0 -579.0 L 452.0 -528.0 L 452.0 -499.0 L 453.0 -478.0 Z M 161.0 -266.0 L 89.0 -276.0 L 0.0 -366.0 L 0.0 -393.0 L 40.0 -380.0 L 82.5 -372.5 L 125.0 -365.0 L 173.0 -363.0 L 221.0 -362.0 L 280.5 -361.0 L 340.0 -360.0 L 418.0 -360.0 L 522.0 -360.0 L 770.0 -365.0 L 1018.0 -370.0 L 1147.0 -369.0 L 1265.0 -369.0 L 1449.0 -271.0 L 1459.0 -258.0 L 1470.5 -248.0 L 1482.0 -238.0 L 1492.0 -227.0 L 1491.0 -227.0 L 1483.5 -227.0 L 1476.0 -227.0 L 1464.0 -230.0 L 1431.0 -234.0 L 1414.0 -238.5 L 1397.0 -243.0 L 1394.0 -243.0 L 1295.0 -250.0 L 1251.0 -253.0 L 1208.0 -255.5 L 1165.0 -258.0 L 1124.0 -258.0 L 1064.0 -258.0 L 863.0 -249.0 L 661.0 -240.0 L 562.0 -240.0 L 510.0 -240.0 L 460.5 -241.5 L 411.0 -243.0 L 360.0 -246.0 L 310.0 -249.0 L 260.5 -254.0 L 211.0 -259.0 Z M 702.0 -675.0 L 704.0 -678.0 L 724.0 -678.0 L 735.0 -678.0 L 747.5 -678.0 L 760.0 -678.0 L 777.0 -675.0 L 824.0 -667.0 L 893.0 -654.0 L 911.0 -559.0 L 923.0 -498.0 L 935.0 -484.0 L 946.0 -471.0 L 964.0 -467.0 L 969.0 -466.0 L 979.0 -465.0 L 982.0 -465.0 L 983.0 -464.0 L 983.0 -461.0 L 977.0 -454.0 L 962.0 -439.0 L 927.0 -439.0 L 906.0 -439.0 L 882.0 -444.5 L 858.0 -450.0 L 829.0 -460.0 L 774.0 -480.0 L 753.0 -606.0 L 744.0 -659.0 L 721.0 -659.0 L 707.0 -659.0 L 698.0 -659.0 L 696.0 -660.0 L 693.0 -663.0 Z M 933.0 -676.0 L 933.0 -679.0 L 950.0 -679.0 L 960.0 -679.0 L 971.5 -679.0 L 983.0 -679.0 L 999.0 -676.0 L 1015.0 -673.0 L 1026.0 -671.0 L 1037.0 -669.0 L 1043.0 -668.0 L 1113.0 -654.0 L 1130.0 -559.0 L 1141.0 -501.0 L 1155.0 -486.0 L 1164.0 -470.0 L 1185.0 -468.0 L 1190.0 -467.0 L 1192.0 -466.0 L 1194.0 -465.0 L 1197.0 -465.0 L 1202.0 -465.0 L 1202.0 -461.0 L 1197.0 -456.0 L 1181.0 -440.0 L 1148.0 -440.0 L 1110.0 -440.0 L 1049.0 -462.0 L 995.0 -483.0 L 974.0 -611.0 L 965.0 -666.0 L 947.0 -662.0 L 933.0 -659.0 Z" fill="black" fill-opacity="0.25" stroke="black" stroke-width="4.0"/>
  <rect x="127.0" y="-695.0" width="339.0" height="264.99999999999994" fill="none" stroke="red" stroke-width="10.0" /><rect x="0.0" y="-393.0" width="1492.0" height="166.0" fill="none" stroke="red" stroke-width="10.0" /><rect x="693.0" y="-678.0" width="290.00000000000006" height="239.00000000000006" fill="none" stroke="red" stroke-width="10.0" /><rect x="933.0" y="-679.0" width="268.9999999999999" height="239.00000000000006" fill="none" stroke="red" stroke-width="10.0" />
</svg>
