<svg xmlns="http://www.w3.org/2000/svg"
  viewBox="-50.0 -1334.0 1486.5 1153.0">
  <rect x="-50.0" y="-1334.0" width="1486.5" height="1153.0" fill="white"/>
  <path d="M 0.0 -397.0 L 37.0 -384.0 L 75.0 -376.0 L 113.0 -368.0 L 157.0 -367.0 L 201.0 -366.0 L 255.0 -365.0 L 309.0 -364.0 L 380.0 -364.0 L 428.0 -364.0 L 507.0 -365.0 L 586.0 -366.0 L 700.0 -368.0 L 814.0 -370.0 L 898.5 -371.5 L 983.0 -373.0 L 1042.0 -373.0 L 1149.0 -373.0 L 1317.0 -275.0 L 1326.0 -262.0 L 1336.5 -252.0 L 1347.0 -242.0 L 1356.0 -231.0 L 1342.0 -231.0 L 1331.0 -234.0 L 1301.0 -238.0 L 1285.5 -242.0 L 1270.0 -246.0 L 1267.0 -246.0 L 1178.0 -254.0 L 1136.0 -257.0 L 1098.0 -259.5 L 1060.0 -262.0 L 1022.0 -262.0 L 994.0 -262.0 L 935.5 -260.0 L 877.0 -258.0 L 784.0 -253.0 L 691.0 -248.0 L 624.0 -245.5 L 557.0 -243.0 L 511.0 -243.0 L 419.0 -243.0 L 328.5 -249.0 L 238.0 -255.0 L 147.0 -270.0 L 81.0 -280.0 L 0.0 -370.0 Z M 750.0 -573.0 L 745.0 -573.0 L 742.0 -581.0 L 742.0 -582.0 L 744.0 -582.0 L 745.0 -582.0 L 748.0 -584.0 L 750.0 -585.0 L 746.0 -591.0 L 742.0 -596.0 L 748.0 -598.0 L 794.0 -615.0 L 834.5 -628.5 L 875.0 -642.0 L 909.5 -653.0 L 944.0 -664.0 L 971.0 -674.0 L 998.0 -684.0 L 1019.0 -695.0 L 1099.0 -736.0 L 1144.0 -809.0 L 1151.0 -821.0 L 1158.5 -838.5 L 1166.0 -856.0 L 1174.5 -879.5 L 1183.0 -903.0 L 1194.5 -932.0 L 1206.0 -961.0 L 1222.0 -996.0 L 1223.0 -999.0 L 1226.5 -1000.5 L 1230.0 -1002.0 L 1234.5 -1002.5 L 1239.0 -1003.0 L 1243.5 -1004.0 L 1248.0 -1005.0 L 1252.0 -1007.0 L 1264.0 -1014.0 L 1272.0 -1018.5 L 1280.0 -1023.0 L 1283.0 -1024.0 L 1296.0 -1030.0 L 1304.5 -1032.5 L 1313.0 -1035.0 L 1316.0 -1037.0 L 1329.0 -1037.0 L 1334.0 -1037.0 L 1339.5 -1036.5 L 1345.0 -1036.0 L 1350.0 -1034.0 L 1354.0 -1033.0 L 1358.5 -1032.5 L 1363.0 -1032.0 L 1368.0 -1031.0 L 1373.0 -1030.0 L 1377.5 -1028.5 L 1382.0 -1027.0 L 1386.0 -1023.0 L 1387.0 -1022.0 L 1386.0 -1020.0 L 1385.0 -1018.0 L 1382.5 -1017.0 L 1380.0 -1016.0 L 1377.0 -1014.5 L 1374.0 -1013.0 L 1372.0 -1012.0 L 1334.0 -986.0 L 1331.0 -979.0 L 1323.0 -945.0 L 1316.0 -921.0 L 1309.0 -897.0 L 1302.0 -878.0 L 1300.0 -872.0 L 1295.0 -863.5 L 1290.0 -855.0 L 1284.0 -846.0 L 1278.0 -837.0 L 1272.5 -828.5 L 1267.0 -820.0 L 1263.0 -814.0 L 1264.0 -814.0 L 1264.0 -815.0 L 1265.0 -815.0 L 1267.0 -815.0 L 1262.0 -810.0 L 1259.0 -807.0 L 1259.0 -807.0 L 1259.0 -807.0 L 1263.0 -814.0 L 1259.0 -812.0 L 1249.0 -805.5 L 1239.0 -799.0 L 1225.0 -788.5 L 1211.0 -778.0 L 1195.0 -765.5 L 1179.0 -753.0 L 1163.0 -740.0 L 1147.0 -728.0 L 1134.5 -717.5 L 1122.0 -707.0 L 1111.0 -698.0 L 1100.0 -689.0 L 1092.5 -682.5 L 1085.0 -676.0 L 1081.0 -672.0 L 1081.0 -671.0 L 1079.0 -670.0 L 1079.0 -670.0 L 1079.0 -669.0 L 1085.0 -671.0 L 1089.5 -673.5 L 1094.0 -676.0 L 1098.0 -677.0 L 1103.0 -680.0 L 1104.0 -680.0 L 1104.0 -680.0 L 1101.0 -679.0 L 1100.0 -678.0 L 1097.0 -676.0 L 1094.0 -674.0 L 1090.5 -672.5 L 1087.0 -671.0 L 1084.0 -669.5 L 1081.0 -668.0 L 1080.0 -668.0 L 1079.0 -668.0 L 1079.0 -669.0 L 1067.0 -663.0 L 1051.0 -655.5 L 1035.0 -648.0 L 1018.0 -641.5 L 1001.0 -635.0 L 984.5 -629.5 L 968.0 -624.0 L 955.0 -621.0 L 946.0 -620.0 L 932.5 -619.5 L 919.0 -619.0 L 907.0 -618.5 L 895.0 -618.0 L 889.5 -617.0 L 884.0 -616.0 L 891.0 -614.0 L 899.0 -611.0 L 907.5 -610.0 L 916.0 -609.0 L 925.0 -609.0 L 937.0 -609.0 L 949.0 -610.0 L 961.0 -611.0 L 974.0 -611.0 L 977.0 -611.0 L 980.0 -611.0 L 983.0 -611.0 L 986.0 -610.0 L 1031.0 -607.0 L 1066.0 -581.0 L 1085.0 -567.0 L 1084.0 -562.0 L 1087.0 -554.0 L 1074.0 -554.0 L 1061.0 -554.0 L 1049.5 -555.0 L 1038.0 -556.0 L 1025.0 -559.0 L 1008.0 -562.0 L 985.5 -564.5 L 963.0 -567.0 L 936.0 -571.0 L 910.0 -575.0 L 887.0 -577.0 L 864.0 -579.0 L 842.0 -579.0 L 838.0 -580.0 L 834.0 -580.0 L 830.0 -580.0 L 826.0 -580.0 L 812.0 -580.0 L 798.0 -579.5 L 784.0 -579.0 L 770.0 -577.0 L 767.0 -576.0 L 762.5 -574.5 L 758.0 -573.0 Z M 129.0 -828.0 L 129.0 -829.0 L 131.0 -829.0 L 132.0 -829.0 L 135.0 -831.0 L 137.0 -832.0 L 133.0 -838.0 L 129.0 -843.0 L 135.0 -845.0 L 181.0 -862.0 L 221.5 -875.5 L 262.0 -889.0 L 296.0 -900.0 L 330.0 -911.0 L 357.5 -921.0 L 385.0 -931.0 L 406.0 -942.0 L 486.0 -983.0 L 531.0 -1056.0 L 538.0 -1068.0 L 545.5 -1085.5 L 553.0 -1103.0 L 561.5 -1126.5 L 570.0 -1150.0 L 581.5 -1179.0 L 593.0 -1208.0 L 609.0 -1243.0 L 610.0 -1246.0 L 613.5 -1247.5 L 617.0 -1249.0 L 621.0 -1249.5 L 625.0 -1250.0 L 630.0 -1251.0 L 635.0 -1252.0 L 638.0 -1254.0 L 650.0 -1261.0 L 658.5 -1265.5 L 667.0 -1270.0 L 670.0 -1271.0 L 683.0 -1277.0 L 691.0 -1279.5 L 699.0 -1282.0 L 702.0 -1284.0 L 716.0 -1284.0 L 721.0 -1284.0 L 726.0 -1283.5 L 731.0 -1283.0 L 737.0 -1281.0 L 741.0 -1280.0 L 745.5 -1279.5 L 750.0 -1279.0 L 755.0 -1278.0 L 760.0 -1277.0 L 764.5 -1275.5 L 769.0 -1274.0 L 773.0 -1270.0 L 774.0 -1269.0 L 773.0 -1267.0 L 772.0 -1265.0 L 769.0 -1264.0 L 766.0 -1263.0 L 763.5 -1262.0 L 761.0 -1261.0 L 759.0 -1259.0 L 721.0 -1233.0 L 718.0 -1226.0 L 710.0 -1192.0 L 703.0 -1168.0 L 696.0 -1144.0 L 688.0 -1125.0 L 686.0 -1119.0 L 681.5 -1110.5 L 677.0 -1102.0 L 671.0 -1093.0 L 665.0 -1084.0 L 659.5 -1075.5 L 654.0 -1067.0 L 650.0 -1061.0 L 651.0 -1061.0 L 651.0 -1062.0 L 652.0 -1062.0 L 654.0 -1062.0 L 649.0 -1057.0 L 646.0 -1054.0 L 645.0 -1054.0 L 645.0 -1054.0 L 650.0 -1061.0 L 646.0 -1059.0 L 636.0 -1052.5 L 626.0 -1046.0 L 612.0 -1035.5 L 598.0 -1025.0 L 582.0 -1012.5 L 566.0 -1000.0 L 550.0 -987.0 L 534.0 -975.0 L 521.5 -964.5 L 509.0 -954.0 L 498.0 -946.0 L 487.0 -937.0 L 479.5 -930.0 L 472.0 -923.0 L 468.0 -919.0 L 468.0 -918.0 L 466.0 -917.0 L 466.0 -917.0 L 466.0 -916.0 L 472.0 -918.0 L 476.5 -920.5 L 481.0 -923.0 L 485.0 -925.0 L 490.0 -928.0 L 490.0 -927.0 L 490.0 -927.0 L 488.0 -926.0 L 487.0 -925.0 L 483.5 -923.0 L 480.0 -921.0 L 477.0 -919.5 L 474.0 -918.0 L 471.0 -916.5 L 468.0 -915.0 L 467.0 -915.0 L 466.0 -915.0 L 466.0 -916.0 L 454.0 -910.0 L 438.0 -902.5 L 422.0 -895.0 L 405.0 -888.5 L 388.0 -882.0 L 371.5 -876.5 L 355.0 -871.0 L 342.0 -868.0 L 333.0 -867.0 L 319.0 -866.5 L 305.0 -866.0 L 293.5 -865.5 L 282.0 -865.0 L 276.0 -864.5 L 270.0 -864.0 L 278.0 -861.0 L 286.0 -858.0 L 294.5 -857.0 L 303.0 -856.0 L 312.0 -856.0 L 324.0 -856.0 L 336.0 -857.0 L 348.0 -858.0 L 361.0 -858.0 L 364.0 -858.0 L 367.0 -858.0 L 370.0 -858.0 L 373.0 -857.0 L 418.0 -854.0 L 452.0 -828.0 L 471.0 -814.0 L 471.0 -809.0 L 474.0 -801.0 L 460.0 -801.0 L 447.0 -801.0 L 436.0 -802.0 L 425.0 -803.0 L 412.0 -806.0 L 395.0 -809.0 L 372.0 -811.5 L 349.0 -814.0 L 323.0 -818.0 L 297.0 -822.0 L 274.0 -824.0 L 251.0 -826.0 L 229.0 -826.0 L 225.0 -827.0 L 221.0 -827.0 L 217.0 -827.0 L 213.0 -827.0 L 199.0 -827.0 L 185.0 -826.5 L 171.0 -826.0 L 157.0 -824.0 L 154.0 -823.0 L 149.5 -821.5 L 145.0 -820.0 L 137.0 -820.0 L 132.0 -820.0 Z M 245.0 -725.0 L 248.0 -730.0 L 264.0 -730.0 L 280.0 -730.0 L 295.5 -728.5 L 311.0 -727.0 L 326.0 -725.0 L 373.0 -718.0 L 449.0 -706.0 L 467.0 -605.0 L 478.0 -543.0 L 492.0 -527.0 L 506.0 -511.0 L 523.0 -509.0 L 544.0 -507.0 L 544.0 -505.0 L 544.0 -501.0 L 537.0 -494.0 L 521.0 -478.0 L 484.0 -479.0 L 462.0 -479.0 L 437.0 -484.0 L 412.0 -489.0 L 380.0 -501.0 L 323.0 -522.0 L 300.0 -654.0 L 291.0 -710.0 L 265.0 -710.0 L 250.0 -710.0 L 241.0 -710.0 L 239.0 -712.0 L 236.0 -713.0 Z" fill="black" fill-opacity="0.25" stroke="black" stroke-width="4.0"/>
  <rect x="0.0" y="-397.0" width="1356.0" height="166.0" fill="none" stroke="red" stroke-width="10.0" /><rect x="742.0" y="-1037.0" width="645.0" height="482.9999999999999" fill="none" stroke="red" stroke-width="10.0" /><rect x="129.0" y="-1284.0" width="645.0" height="483.0" fill="none" stroke="red" stroke-width="10.0" /><rect x="236.0" y="-730.0" width="308.00000000000006" height="252.0" fill="none" stroke="red" stroke-width="10.0" />
</svg>
