<svg xmlns="http://www.w3.org/2000/svg"
  viewBox="-50 -720.143 1456 540.143">
  <rect x="-50" y="-720.143" width="1456" height="540.143" fill="white"/>
  <path d="M 147 -269 L 82 -279 L 0 -369 L 0 -396 L 36 -384 L 75 -375.5 L 114 -367 L 158 -366 L 202 -364 L 256 -363.5 L 310 -363 L 380 -363 L 475 -363 L 700 -368 L 925 -372 L 1043 -372 L 1150 -372 L 1317 -274 L 1326 -261 L 1336.5 -251 L 1347 -241 L 1356 -230 L 1355 -230 L 1348.5 -230 L 1342 -230 L 1332 -233 L 1302 -238 L 1286.5 -242 L 1271 -246 L 1267 -246 L 1178 -254 L 1137 -257 L 1098.5 -259.5 L 1060 -262 L 1022 -262 L 967 -262 L 785 -252 L 602 -243 L 511 -243 L 464 -243 L 419 -244.5 L 374 -246 L 328 -249 L 283 -252 L 237.5 -257 L 192 -262 Z M 445 -663 L 448 -667 L 467 -668 L 483 -668 L 514 -663 L 530 -661 L 539.5 -660 L 549 -659 L 556 -658 L 619 -648 L 635 -562 L 645 -509 L 656 -494 L 664 -480 L 684 -479 L 689 -478 L 696 -477 L 699 -477 L 701 -476 L 701 -472 L 696 -467 L 682 -453 L 649 -452 L 630 -452 L 608.5 -457.5 L 587 -463 L 561 -472 L 511 -491 L 492 -602 L 486 -650 L 462 -651 L 449 -651 L 441 -651 L 440 -652 L 439 -654 Z M 667 -665 L 667 -671 L 684 -670 L 698 -670 L 726 -665 L 740 -663 L 749.5 -661 L 759 -659 L 765 -658 L 828 -648 L 846 -562 L 857 -510 L 867 -494 L 873 -484 L 893 -480 L 910 -476 L 910 -476 L 910 -473 L 909.5 -473.5 L 909 -474 L 906 -468 L 899 -454 L 860 -454 L 841 -454 L 819.5 -459.5 L 798 -465 L 772 -474 L 722 -493 L 703 -607 L 695 -657 L 681 -654 L 667 -651 Z" fill="black" fill-opacity="0.25" stroke="black" stroke-width="4"/>
  <rect x="0" y="-396" width="1356" height="166" fill="none" stroke="red" stroke-width="10" /><rect x="439" y="-668" width="262" height="216" fill="none" stroke="red" stroke-width="10" /><rect x="667" y="-671" width="243" height="217" fill="none" stroke="red" stroke-width="10" />
</svg>
