<svg xmlns="http://www.w3.org/2000/svg"
  viewBox="-50 -1029 1480.5 854">
  <rect x="-50" y="-1029" width="1480.5" height="854" fill="white"/>
  <path d="M 158 -362 L 202 -361 L 255.5 -359.5 L 309 -358 L 380 -358 L 428 -358 L 507 -359.5 L 586 -361 L 700 -363 L 814 -365 L 898.5 -366.5 L 983 -368 L 1043 -368 L 1150 -368 L 1317 -269 L 1326 -256 L 1336.5 -246.5 L 1347 -237 L 1357 -225 L 1343 -225 L 1332 -229 L 1302 -233 L 1286.5 -237 L 1271 -241 L 1267 -241 L 1178 -249 L 1136 -252 L 1098 -254.5 L 1060 -257 L 1022 -257 L 994 -257 L 935.5 -254.5 L 877 -252 L 785 -247 L 692 -242 L 624.5 -240 L 557 -238 L 511 -238 L 419 -238 L 328.5 -244 L 238 -250 L 147 -265 L 81 -275 L 0 -365 L 0 -392 L 37 -379 L 75.5 -371 L 114 -363 Z M 81 -507 L 76 -507 L 73 -515 L 73 -516 L 74 -517 L 75 -517 L 79 -518 L 81 -519 L 77 -525 L 73 -530 L 79 -532 L 126 -549 L 166 -562.5 L 206 -576 L 240 -587.5 L 274 -599 L 301.5 -609 L 329 -619 L 349 -629 L 429 -671 L 474 -743 L 481 -755 L 488.5 -772.5 L 496 -790 L 505 -813.5 L 514 -837 L 525.5 -866 L 537 -895 L 552 -931 L 553 -934 L 557 -935 L 561 -936 L 565 -936.5 L 569 -937 L 573.5 -938 L 578 -939 L 582 -941 L 594 -948 L 602 -952.5 L 610 -957 L 613 -958 L 626 -964 L 634.5 -967 L 643 -970 L 646 -971 L 659 -971 L 664 -971 L 669.5 -970.5 L 675 -970 L 680 -968 L 684 -967 L 688.5 -966.5 L 693 -966 L 698 -965 L 703 -964 L 707.5 -962.5 L 712 -961 L 716 -957 L 719 -954 L 713 -951.5 L 707 -949 L 702 -946 L 665 -921 L 662 -913 L 657 -892 L 652 -872.5 L 647 -853 L 640.5 -834.5 L 634 -816 L 625 -798 L 616 -780 L 603 -762 L 601 -758 L 598.5 -755 L 596 -752 L 594 -748 L 594 -748 L 596 -749 L 597 -749 L 593 -745 L 589 -741 L 589 -741 L 594 -748 L 590 -746 L 579.5 -739.5 L 569 -733 L 555.5 -722.5 L 542 -712 L 525.5 -699.5 L 509 -687 L 493 -674 L 477 -662 L 464.5 -652 L 452 -642 L 441 -633 L 430 -624 L 423 -617 L 416 -610 L 412 -606 L 412 -605 L 410 -604 L 410 -604 L 409 -603 L 415 -605 L 419.5 -607.5 L 424 -610 L 428 -612 L 433 -615 L 434 -615 L 434 -615 L 432 -613 L 431 -612 L 427.5 -610 L 424 -608 L 421 -606.5 L 418 -605 L 415 -603.5 L 412 -602 L 410 -602 L 409 -602 L 409 -603 L 397 -597 L 381 -589.5 L 365 -582 L 348.5 -575.5 L 332 -569 L 315 -563.5 L 298 -558 L 285 -556 L 276 -555 L 262.5 -554.5 L 249 -554 L 237.5 -553.5 L 226 -553 L 220 -552 L 214 -551 L 221 -548 L 229 -545 L 238 -544 L 247 -543 L 255 -543 L 267 -543 L 279.5 -544 L 292 -545 L 304 -545 L 307 -545 L 310.5 -545 L 314 -545 L 316 -544 L 361 -541 L 396 -515 L 415 -501 L 415 -496 L 418 -488 L 404 -488 L 391 -488 L 379.5 -489.5 L 368 -491 L 356 -493 L 339 -496 L 316 -498.5 L 293 -501 L 266 -505 L 240 -509 L 217 -511 L 194 -513 L 172 -513 L 168 -514 L 164 -514 L 160 -514 L 156 -514 L 142 -514 L 128.5 -513.5 L 115 -513 L 101 -512 L 98 -511 L 93.5 -509 L 89 -507 Z M 737 -523 L 737 -524 L 738 -524 L 739 -524 L 743 -526 L 745 -527 L 741 -533 L 737 -538 L 743 -540 L 790 -557 L 830 -570 L 870 -583 L 904 -594.5 L 938 -606 L 965.5 -616 L 993 -626 L 1013 -637 L 1093 -678 L 1138 -751 L 1145 -763 L 1152.5 -780.5 L 1160 -798 L 1169 -821.5 L 1178 -845 L 1189.5 -874 L 1201 -903 L 1216 -938 L 1217 -941 L 1221 -942.5 L 1225 -944 L 1229 -944.5 L 1233 -945 L 1237.5 -946 L 1242 -947 L 1246 -949 L 1258 -956 L 1266 -960.5 L 1274 -965 L 1277 -966 L 1290 -972 L 1298.5 -974.5 L 1307 -977 L 1310 -979 L 1323 -979 L 1328 -979 L 1333.5 -978.5 L 1339 -978 L 1344 -976 L 1348 -975 L 1352.5 -974.5 L 1357 -974 L 1362 -973 L 1367 -972 L 1372 -970.5 L 1377 -969 L 1380 -965 L 1381 -964 L 1380 -962 L 1379 -960 L 1376.5 -959 L 1374 -958 L 1371 -956.5 L 1368 -955 L 1366 -954 L 1329 -928 L 1326 -921 L 1321 -900 L 1316 -880.5 L 1311 -861 L 1304.5 -842.5 L 1298 -824 L 1289 -806 L 1280 -788 L 1267 -770 L 1265 -766 L 1262.5 -763 L 1260 -760 L 1258 -756 L 1258 -756 L 1260 -757 L 1261 -757 L 1257 -752 L 1253 -748 L 1253 -748 L 1258 -756 L 1254 -754 L 1243.5 -747.5 L 1233 -741 L 1219.5 -730.5 L 1206 -720 L 1189.5 -707.5 L 1173 -695 L 1157 -682 L 1141 -670 L 1128.5 -659.5 L 1116 -649 L 1106 -641 L 1095 -632 L 1087.5 -625 L 1080 -618 L 1076 -614 L 1076 -613 L 1074 -612 L 1074 -612 L 1073 -611 L 1079 -613 L 1083.5 -615.5 L 1088 -618 L 1092 -620 L 1097 -623 L 1098 -622 L 1098 -622 L 1096 -621 L 1095 -620 L 1091.5 -618 L 1088 -616 L 1085 -614.5 L 1082 -613 L 1079 -611.5 L 1076 -610 L 1074 -610 L 1073 -610 L 1073 -611 L 1061 -605 L 1045 -597.5 L 1029 -590 L 1012.5 -583.5 L 996 -577 L 979 -571.5 L 962 -566 L 949 -563 L 940 -562 L 926.5 -561.5 L 913 -561 L 901.5 -560.5 L 890 -560 L 884 -559 L 878 -558 L 885 -556 L 893 -553 L 902 -552 L 911 -551 L 919 -551 L 931 -551 L 943.5 -552 L 956 -553 L 968 -553 L 971 -553 L 974.5 -553 L 978 -553 L 981 -552 L 1026 -549 L 1060 -523 L 1079 -509 L 1079 -504 L 1082 -496 L 1068 -496 L 1055 -496 L 1043.5 -497 L 1032 -498 L 1020 -501 L 1003 -504 L 980 -506.5 L 957 -509 L 930 -513 L 904 -517 L 881 -519 L 858 -521 L 836 -521 L 832 -522 L 828 -522 L 824 -522 L 820 -522 L 806 -522 L 792.5 -521.5 L 779 -521 L 765 -519 L 762 -518 L 757 -516.5 L 752 -515 L 745 -515 L 740 -515 Z" fill="black" fill-opacity="0.25" stroke="black" stroke-width="4"/>
  <rect x="0" y="-392" width="1357" height="167" fill="none" stroke="red" stroke-width="10" /><rect x="73" y="-649" width="387.7" height="161" fill="none" stroke="red" stroke-width="10" /><rect x="387.1" y="-810" width="243.9" height="161" fill="none" stroke="red" stroke-width="10" /><rect x="503.7" y="-971" width="215.3" height="161" fill="none" stroke="red" stroke-width="10" /><rect x="737" y="-657" width="388.5" height="161" fill="none" stroke="red" stroke-width="10" /><rect x="1052" y="-818" width="243" height="161" fill="none" stroke="red" stroke-width="10" /><rect x="1167.7" y="-979" width="213.3" height="161" fill="none" stroke="red" stroke-width="10" />
</svg>
