<svg xmlns="http://www.w3.org/2000/svg"
  viewBox="-50.0 -941.0 1940.0 767.0">
  <rect x="-50.0" y="-941.0" width="1940.0" height="767.0" fill="white"/>
  <path d="M 303.0 -263.0 L 220.0 -273.0 L 117.0 -363.0 L 117.0 -390.0 L 163.0 -377.0 L 212.5 -369.5 L 262.0 -362.0 L 317.0 -360.0 L 373.0 -359.0 L 441.5 -358.0 L 510.0 -357.0 L 599.0 -357.0 L 720.0 -357.0 L 1007.0 -362.0 L 1293.0 -367.0 L 1441.0 -367.0 L 1578.0 -367.0 L 1790.0 -268.0 L 1802.0 -255.0 L 1815.0 -245.0 L 1828.0 -235.0 L 1840.0 -224.0 L 1838.0 -224.0 L 1830.0 -224.0 L 1822.0 -224.0 L 1808.0 -227.0 L 1770.0 -231.0 L 1750.5 -235.5 L 1731.0 -240.0 L 1727.0 -240.0 L 1614.0 -247.0 L 1562.0 -250.0 L 1512.5 -252.5 L 1463.0 -255.0 L 1415.0 -255.0 L 1346.0 -255.0 L 1114.0 -246.0 L 881.0 -237.0 L 766.0 -237.0 L 706.0 -237.0 L 649.0 -238.5 L 592.0 -240.0 L 534.0 -243.0 L 476.0 -246.0 L 418.5 -251.0 L 361.0 -256.0 Z M 1165.0 -677.0 L 1167.0 -680.0 L 1187.0 -680.0 L 1198.0 -680.0 L 1210.5 -680.0 L 1223.0 -680.0 L 1241.0 -677.0 L 1287.0 -669.0 L 1356.0 -656.0 L 1375.0 -561.0 L 1387.0 -500.0 L 1398.0 -486.0 L 1409.0 -473.0 L 1428.0 -469.0 L 1433.0 -468.0 L 1442.0 -467.0 L 1445.0 -467.0 L 1447.0 -466.0 L 1447.0 -463.0 L 1441.0 -456.0 L 1426.0 -441.0 L 1390.0 -441.0 L 1369.0 -441.0 L 1345.5 -446.5 L 1322.0 -452.0 L 1292.0 -462.0 L 1237.0 -482.0 L 1217.0 -608.0 L 1208.0 -661.0 L 1184.0 -661.0 L 1170.0 -661.0 L 1161.0 -661.0 L 1159.0 -663.0 L 1156.0 -665.0 Z M 1397.0 -678.0 L 1397.0 -681.0 L 1414.0 -681.0 L 1424.0 -681.0 L 1435.5 -681.0 L 1447.0 -681.0 L 1463.0 -678.0 L 1479.0 -675.0 L 1489.5 -673.0 L 1500.0 -671.0 L 1506.0 -670.0 L 1576.0 -656.0 L 1594.0 -561.0 L 1605.0 -503.0 L 1619.0 -488.0 L 1628.0 -472.0 L 1648.0 -470.0 L 1653.0 -469.0 L 1655.5 -468.0 L 1658.0 -467.0 L 1661.0 -467.0 L 1666.0 -467.0 L 1666.0 -463.0 L 1661.0 -458.0 L 1645.0 -442.0 L 1611.0 -442.0 L 1573.0 -442.0 L 1513.0 -464.0 L 1459.0 -485.0 L 1437.0 -613.0 L 1428.0 -667.0 L 1411.0 -664.0 L 1397.0 -661.0 Z M 718.0 -661.0 L 712.0 -649.0 L 705.5 -630.0 L 699.0 -611.0 L 693.0 -586.0 L 830.0 -580.0 L 1061.0 -571.0 L 1107.0 -525.0 L 965.0 -525.0 L 858.5 -525.0 L 752.0 -525.0 L 672.0 -526.0 L 655.0 -488.0 L 627.0 -459.0 L 616.0 -445.0 L 613.0 -436.0 L 605.0 -415.0 L 585.5 -421.5 L 566.0 -428.0 L 552.0 -428.0 L 529.0 -428.0 L 520.0 -431.0 L 506.0 -437.0 L 487.0 -445.0 L 512.0 -481.0 L 527.0 -531.0 L 514.0 -531.0 L 314.0 -540.0 L 216.0 -589.0 L 132.0 -628.0 L 30.0 -753.0 L 22.0 -767.0 L 18.0 -793.0 L 5.0 -867.0 L 0.0 -876.0 L 32.0 -880.0 L 69.0 -886.0 L 107.0 -891.0 L 122.0 -891.0 L 165.0 -891.0 L 194.0 -872.0 L 201.0 -867.0 L 202.0 -847.0 L 199.0 -801.0 L 199.0 -787.0 L 203.0 -781.0 L 295.0 -650.0 L 507.0 -608.0 L 515.0 -605.0 L 525.0 -604.0 L 535.0 -603.0 L 547.0 -601.0 L 552.0 -617.0 L 557.0 -629.5 L 562.0 -642.0 L 568.0 -653.0 L 576.0 -670.0 L 605.0 -670.0 L 666.0 -664.0 L 679.0 -663.0 L 692.0 -662.0 L 705.0 -661.0 Z" fill="black" fill-opacity="0.25" stroke="black" stroke-width="4.0"/>
  <rect x="117.0" y="-390.0" width="1723.0" height="166.0" fill="none" stroke="red" stroke-width="10.0" /><rect x="1156.0" y="-680.0" width="291.00000000000017" height="239.00000000000006" fill="none" stroke="red" stroke-width="10.0" /><rect x="1397.0" y="-681.0" width="268.9999999999999" height="239.00000000000006" fill="none" stroke="red" stroke-width="10.0" /><rect x="0.0" y="-891.0" width="1107.0" height="476.00000000000006" fill="none" stroke="red" stroke-width="10.0" />
</svg>
