<svg xmlns="http://www.w3.org/2000/svg"
  viewBox="-50 -1335 1468 1152">
  <rect x="-50" y="-1335" width="1468" height="1152" fill="white"/>
  <path d="M 169 -369 L 213 -368 L 267 -367 L 321 -366 L 392 -366 L 440 -366 L 519 -367 L 598 -368 L 712 -370 L 826 -372 L 910.5 -373.5 L 995 -375 L 1054 -375 L 1161 -375 L 1329 -277 L 1338 -264 L 1348.5 -254 L 1359 -244 L 1368 -233 L 1354 -233 L 1343 -236 L 1313 -240 L 1297.5 -244 L 1282 -248 L 1279 -248 L 1190 -256 L 1148 -259 L 1110 -261.5 L 1072 -264 L 1034 -264 L 1006 -264 L 947.5 -262 L 889 -260 L 796 -255 L 703 -250 L 636 -247.5 L 569 -245 L 523 -245 L 431 -245 L 340.5 -251 L 250 -257 L 159 -272 L 93 -282 L 12 -372 L 12 -399 L 49 -386 L 87 -378 L 125 -370 Z M 646 -828 L 646 -829 L 647 -830 L 648 -830 L 652 -831 L 654 -832 L 649 -838 L 645 -843 L 652 -846 L 698 -863 L 738.5 -876.5 L 779 -890 L 813 -901 L 847 -912 L 874.5 -922 L 902 -932 L 922 -942 L 1002 -983 L 1047 -1056 L 1054 -1068 L 1061.5 -1085.5 L 1069 -1103 L 1078 -1126.5 L 1087 -1150 L 1098.5 -1179.5 L 1110 -1209 L 1126 -1244 L 1127 -1247 L 1130.5 -1248.5 L 1134 -1250 L 1138 -1250.5 L 1142 -1251 L 1146.5 -1251.5 L 1151 -1252 L 1155 -1255 L 1167 -1262 L 1175.5 -1266 L 1184 -1270 L 1187 -1272 L 1200 -1278 L 1208 -1280.5 L 1216 -1283 L 1219 -1285 L 1232 -1285 L 1237 -1285 L 1242.5 -1284.5 L 1248 -1284 L 1253 -1282 L 1257 -1281 L 1262 -1280 L 1267 -1279 L 1271.5 -1278.5 L 1276 -1278 L 1281 -1276 L 1286 -1274 L 1290 -1270 L 1291 -1269 L 1290 -1267.5 L 1289 -1266 L 1286 -1265 L 1283 -1264 L 1280 -1262.5 L 1277 -1261 L 1275 -1260 L 1237 -1234 L 1235 -1227 L 1227 -1193 L 1219.5 -1169 L 1212 -1145 L 1205 -1125 L 1203 -1119 L 1198 -1110.5 L 1193 -1102 L 1187.5 -1093 L 1182 -1084 L 1176 -1076 L 1170 -1068 L 1167 -1062 L 1167 -1062 L 1168 -1062 L 1168 -1062 L 1168 -1063 L 1170 -1063 L 1166 -1058 L 1163 -1055 L 1162 -1055 L 1162 -1055 L 1167 -1062 L 1163 -1060 L 1153 -1053 L 1143 -1046 L 1129 -1036 L 1115 -1026 L 1099 -1013.5 L 1083 -1001 L 1066 -988 L 1050 -976 L 1037.5 -965.5 L 1025 -955 L 1015 -946 L 1004 -937 L 996.5 -930.5 L 989 -924 L 985 -920 L 985 -919 L 983 -917 L 983 -917 L 982 -916 L 988 -918 L 993 -920.5 L 998 -923 L 1001 -925 L 1006 -928 L 1007 -928 L 1007 -928 L 1005 -927 L 1004 -926 L 1000.5 -924 L 997 -922 L 994 -920 L 991 -918 L 988 -917 L 985 -916 L 983 -916 L 982 -916 L 982 -916 L 970 -910 L 954 -903 L 938 -896 L 921.5 -889 L 905 -882 L 888.5 -876.5 L 872 -871 L 858 -869 L 849 -868 L 835.5 -867.5 L 822 -867 L 810.5 -866.5 L 799 -866 L 793 -865 L 787 -864 L 794 -861 L 802 -858 L 811 -857 L 820 -856 L 829 -856 L 841 -856 L 853 -857 L 865 -858 L 877 -858 L 880 -858 L 883.5 -858 L 887 -858 L 890 -858 L 935 -855 L 969 -828 L 988 -814 L 988 -809 L 991 -801 L 977 -802 L 964 -802 L 952.5 -803 L 941 -804 L 929 -806 L 912 -809 L 889 -812 L 866 -815 L 839 -819 L 813 -823 L 790.5 -825 L 768 -827 L 746 -827 L 742 -828 L 737.5 -827.5 L 733 -827 L 730 -827 L 716 -827 L 702 -827 L 688 -827 L 674 -825 L 671 -824 L 666.5 -822.5 L 662 -821 L 654 -821 L 649 -820 Z M 8 -575 L 2 -575 L 0 -583 L 0 -584 L 2 -584 L 3 -584 L 6 -586 L 8 -587 L 4 -593 L 0 -598 L 6 -600 L 52 -617 L 92.5 -630.5 L 133 -644 L 167.5 -655 L 202 -666 L 229 -676 L 256 -686 L 277 -697 L 357 -738 L 402 -811 L 409 -823 L 416.5 -840.5 L 424 -858 L 432.5 -881.5 L 441 -905 L 452.5 -934 L 464 -963 L 480 -998 L 481 -1001 L 484.5 -1002.5 L 488 -1004 L 492.5 -1004.5 L 497 -1005 L 501.5 -1006 L 506 -1007 L 510 -1009 L 522 -1016 L 530 -1020.5 L 538 -1025 L 541 -1026 L 554 -1032 L 562.5 -1034.5 L 571 -1037 L 574 -1039 L 587 -1039 L 592 -1039 L 597.5 -1038.5 L 603 -1038 L 608 -1036 L 612 -1035 L 616.5 -1034.5 L 621 -1034 L 626 -1033 L 631 -1032 L 635.5 -1030.5 L 640 -1029 L 644 -1025 L 645 -1024 L 644 -1022.5 L 643 -1021 L 640.5 -1019.5 L 638 -1018 L 635 -1016.5 L 632 -1015 L 630 -1014 L 592 -988 L 589 -981 L 581 -947 L 574 -923 L 567 -899 L 560 -880 L 558 -874 L 553 -865.5 L 548 -857 L 542 -848 L 536 -839 L 530.5 -830.5 L 525 -822 L 521 -816 L 522 -816 L 522 -817 L 523 -817 L 525 -817 L 521 -812 L 518 -809 L 517 -809 L 517 -809 L 521 -816 L 517 -814 L 507 -807.5 L 497 -801 L 483 -790.5 L 469 -780 L 453 -767.5 L 437 -755 L 421 -742 L 405 -730 L 392.5 -719.5 L 380 -709 L 369 -701 L 358 -692 L 350.5 -685 L 343 -678 L 339 -674 L 339 -673 L 337 -672 L 337 -672 L 337 -671 L 325 -665 L 309 -657.5 L 293 -650 L 276 -643.5 L 259 -637 L 242.5 -631.5 L 226 -626 L 213 -623 L 204 -622 L 190.5 -621.5 L 177 -621 L 165 -620.5 L 153 -620 L 147.5 -619.5 L 142 -619 L 149 -616 L 157 -613 L 165.5 -612 L 174 -611 L 183 -611 L 195 -611 L 207 -612 L 219 -613 L 232 -613 L 235 -613 L 238 -613 L 241 -613 L 244 -612 L 289 -609 L 324 -583 L 343 -569 L 342 -564 L 345 -556 L 332 -556 L 319 -556 L 307.5 -557 L 296 -558 L 283 -561 L 266 -564 L 243.5 -566.5 L 221 -569 L 194 -573 L 168 -577 L 145 -579 L 122 -581 L 100 -581 L 96 -582 L 92 -582 L 88 -582 L 84 -582 L 70 -582 L 56 -581.5 L 42 -581 L 28 -579 L 25 -578 L 20.5 -576.5 L 16 -575 Z M 762 -726 L 765 -731 L 781 -731 L 797 -731 L 812.5 -729.5 L 828 -728 L 843 -726 L 890 -718 L 966 -706 L 984 -606 L 995 -544 L 1009 -528 L 1023 -512 L 1040 -509 L 1061 -507 L 1061 -506 L 1061 -502 L 1054 -495 L 1038 -479 L 1001 -479 L 979 -479 L 954 -484.5 L 929 -490 L 896 -501 L 839 -522 L 817 -654 L 808 -710 L 782 -710 L 767 -710 L 758 -710 L 756 -712 L 753 -714 Z" fill="black" fill-opacity="0.25" stroke="black" stroke-width="4"/>
  <rect x="12" y="-399" width="1356" height="166" fill="none" stroke="red" stroke-width="10" /><rect x="753" y="-731" width="308" height="252" fill="none" stroke="red" stroke-width="10" /><rect x="645" y="-962.9" width="389.4" height="161" fill="none" stroke="red" stroke-width="10" /><rect x="962.8" y="-1124" width="241.9" height="161.1" fill="none" stroke="red" stroke-width="10" /><rect x="1077" y="-1285" width="214" height="161" fill="none" stroke="red" stroke-width="10" /><rect x="0" y="-717" width="389.5" height="161" fill="none" stroke="red" stroke-width="10" /><rect x="316" y="-878" width="243.3" height="161" fill="none" stroke="red" stroke-width="10" /><rect x="431.2" y="-1039" width="213.8" height="161" fill="none" stroke="red" stroke-width="10" />
</svg>
