<svg xmlns="http://www.w3.org/2000/svg"
  viewBox="-50.0 -1335.0 1468.0 1152.0">
  <rect x="-50.0" y="-1335.0" width="1468.0" height="1152.0" fill="white"/>
  <path d="M 169.0 -369.0 L 213.0 -368.0 L 267.0 -367.0 L 321.0 -366.0 L 392.0 -366.0 L 440.0 -366.0 L 519.0 -367.0 L 598.0 -368.0 L 712.0 -370.0 L 826.0 -372.0 L 910.5 -373.5 L 995.0 -375.0 L 1054.0 -375.0 L 1161.0 -375.0 L 1329.0 -277.0 L 1338.0 -264.0 L 1348.5 -254.0 L 1359.0 -244.0 L 1368.0 -233.0 L 1354.0 -233.0 L 1343.0 -236.0 L 1313.0 -240.0 L 1297.5 -244.0 L 1282.0 -248.0 L 1279.0 -248.0 L 1190.0 -256.0 L 1148.0 -259.0 L 1110.0 -261.5 L 1072.0 -264.0 L 1034.0 -264.0 L 1006.0 -264.0 L 947.5 -262.0 L 889.0 -260.0 L 796.0 -255.0 L 703.0 -250.0 L 636.0 -247.5 L 569.0 -245.0 L 523.0 -245.0 L 431.0 -245.0 L 340.5 -251.0 L 250.0 -257.0 L 159.0 -272.0 L 93.0 -282.0 L 12.0 -372.0 L 12.0 -399.0 L 49.0 -386.0 L 87.0 -378.0 L 125.0 -370.0 Z M 646.0 -828.0 L 646.0 -829.0 L 647.0 -830.0 L 648.0 -830.0 L 652.0 -831.0 L 654.0 -832.0 L 649.0 -838.0 L 645.0 -843.0 L 652.0 -846.0 L 698.0 -863.0 L 738.5 -876.5 L 779.0 -890.0 L 813.0 -901.0 L 847.0 -912.0 L 874.5 -922.0 L 902.0 -932.0 L 922.0 -942.0 L 1002.0 -983.0 L 1047.0 -1056.0 L 1054.0 -1068.0 L 1061.5 -1085.5 L 1069.0 -1103.0 L 1078.0 -1126.5 L 1087.0 -1150.0 L 1098.5 -1179.5 L 1110.0 -1209.0 L 1126.0 -1244.0 L 1127.0 -1247.0 L 1130.5 -1248.5 L 1134.0 -1250.0 L 1138.0 -1250.5 L 1142.0 -1251.0 L 1146.5 -1251.5 L 1151.0 -1252.0 L 1155.0 -1255.0 L 1167.0 -1262.0 L 1175.5 -1266.0 L 1184.0 -1270.0 L 1187.0 -1272.0 L 1200.0 -1278.0 L 1208.0 -1280.5 L 1216.0 -1283.0 L 1219.0 -1285.0 L 1232.0 -1285.0 L 1237.0 -1285.0 L 1242.5 -1284.5 L 1248.0 -1284.0 L 1253.0 -1282.0 L 1257.0 -1281.0 L 1262.0 -1280.0 L 1267.0 -1279.0 L 1271.5 -1278.5 L 1276.0 -1278.0 L 1281.0 -1276.0 L 1286.0 -1274.0 L 1290.0 -1270.0 L 1291.0 -1269.0 L 1290.0 -1267.5 L 1289.0 -1266.0 L 1286.0 -1265.0 L 1283.0 -1264.0 L 1280.0 -1262.5 L 1277.0 -1261.0 L 1275.0 -1260.0 L 1237.0 -1234.0 L 1235.0 -1227.0 L 1227.0 -1193.0 L 1219.5 -1169.0 L 1212.0 -1145.0 L 1205.0 -1125.0 L 1203.0 -1119.0 L 1198.0 -1110.5 L 1193.0 -1102.0 L 1187.5 -1093.0 L 1182.0 -1084.0 L 1176.0 -1076.0 L 1170.0 -1068.0 L 1167.0 -1062.0 L 1167.0 -1062.0 L 1168.0 -1062.0 L 1168.0 -1062.0 L 1168.0 -1063.0 L 1170.0 -1063.0 L 1166.0 -1058.0 L 1163.0 -1055.0 L 1162.0 -1055.0 L 1162.0 -1055.0 L 1167.0 -1062.0 L 1163.0 -1060.0 L 1153.0 -1053.0 L 1143.0 -1046.0 L 1129.0 -1036.0 L 1115.0 -1026.0 L 1099.0 -1013.5 L 1083.0 -1001.0 L 1066.0 -988.0 L 1050.0 -976.0 L 1037.5 -965.5 L 1025.0 -955.0 L 1015.0 -946.0 L 1004.0 -937.0 L 996.5 -930.5 L 989.0 -924.0 L 985.0 -920.0 L 985.0 -919.0 L 983.0 -917.0 L 983.0 -917.0 L 982.0 -916.0 L 988.0 -918.0 L 993.0 -920.5 L 998.0 -923.0 L 1001.0 -925.0 L 1006.0 -928.0 L 1007.0 -928.0 L 1007.0 -928.0 L 1005.0 -927.0 L 1004.0 -926.0 L 1000.5 -924.0 L 997.0 -922.0 L 994.0 -920.0 L 991.0 -918.0 L 988.0 -917.0 L 985.0 -916.0 L 983.0 -916.0 L 982.0 -916.0 L 982.0 -916.0 L 970.0 -910.0 L 954.0 -903.0 L 938.0 -896.0 L 921.5 -889.0 L 905.0 -882.0 L 888.5 -876.5 L 872.0 -871.0 L 858.0 -869.0 L 849.0 -868.0 L 835.5 -867.5 L 822.0 -867.0 L 810.5 -866.5 L 799.0 -866.0 L 793.0 -865.0 L 787.0 -864.0 L 794.0 -861.0 L 802.0 -858.0 L 811.0 -857.0 L 820.0 -856.0 L 829.0 -856.0 L 841.0 -856.0 L 853.0 -857.0 L 865.0 -858.0 L 877.0 -858.0 L 880.0 -858.0 L 883.5 -858.0 L 887.0 -858.0 L 890.0 -858.0 L 935.0 -855.0 L 969.0 -828.0 L 988.0 -814.0 L 988.0 -809.0 L 991.0 -801.0 L 977.0 -802.0 L 964.0 -802.0 L 952.5 -803.0 L 941.0 -804.0 L 929.0 -806.0 L 912.0 -809.0 L 889.0 -812.0 L 866.0 -815.0 L 839.0 -819.0 L 813.0 -823.0 L 790.5 -825.0 L 768.0 -827.0 L 746.0 -827.0 L 742.0 -828.0 L 737.5 -827.5 L 733.0 -827.0 L 730.0 -827.0 L 716.0 -827.0 L 702.0 -827.0 L 688.0 -827.0 L 674.0 -825.0 L 671.0 -824.0 L 666.5 -822.5 L 662.0 -821.0 L 654.0 -821.0 L 649.0 -820.0 Z M 8.0 -575.0 L 2.0 -575.0 L 0.0 -583.0 L 0.0 -584.0 L 2.0 -584.0 L 3.0 -584.0 L 6.0 -586.0 L 8.0 -587.0 L 4.0 -593.0 L 0.0 -598.0 L 6.0 -600.0 L 52.0 -617.0 L 92.5 -630.5 L 133.0 -644.0 L 167.5 -655.0 L 202.0 -666.0 L 229.0 -676.0 L 256.0 -686.0 L 277.0 -697.0 L 357.0 -738.0 L 402.0 -811.0 L 409.0 -823.0 L 416.5 -840.5 L 424.0 -858.0 L 432.5 -881.5 L 441.0 -905.0 L 452.5 -934.0 L 464.0 -963.0 L 480.0 -998.0 L 481.0 -1001.0 L 484.5 -1002.5 L 488.0 -1004.0 L 492.5 -1004.5 L 497.0 -1005.0 L 501.5 -1006.0 L 506.0 -1007.0 L 510.0 -1009.0 L 522.0 -1016.0 L 530.0 -1020.5 L 538.0 -1025.0 L 541.0 -1026.0 L 554.0 -1032.0 L 562.5 -1034.5 L 571.0 -1037.0 L 574.0 -1039.0 L 587.0 -1039.0 L 592.0 -1039.0 L 597.5 -1038.5 L 603.0 -1038.0 L 608.0 -1036.0 L 612.0 -1035.0 L 616.5 -1034.5 L 621.0 -1034.0 L 626.0 -1033.0 L 631.0 -1032.0 L 635.5 -1030.5 L 640.0 -1029.0 L 644.0 -1025.0 L 645.0 -1024.0 L 644.0 -1022.5 L 643.0 -1021.0 L 640.5 -1019.5 L 638.0 -1018.0 L 635.0 -1016.5 L 632.0 -1015.0 L 630.0 -1014.0 L 592.0 -988.0 L 589.0 -981.0 L 581.0 -947.0 L 574.0 -923.0 L 567.0 -899.0 L 560.0 -880.0 L 558.0 -874.0 L 553.0 -865.5 L 548.0 -857.0 L 542.0 -848.0 L 536.0 -839.0 L 530.5 -830.5 L 525.0 -822.0 L 521.0 -816.0 L 522.0 -816.0 L 522.0 -817.0 L 523.0 -817.0 L 525.0 -817.0 L 521.0 -812.0 L 518.0 -809.0 L 517.0 -809.0 L 517.0 -809.0 L 521.0 -816.0 L 517.0 -814.0 L 507.0 -807.5 L 497.0 -801.0 L 483.0 -790.5 L 469.0 -780.0 L 453.0 -767.5 L 437.0 -755.0 L 421.0 -742.0 L 405.0 -730.0 L 392.5 -719.5 L 380.0 -709.0 L 369.0 -701.0 L 358.0 -692.0 L 350.5 -685.0 L 343.0 -678.0 L 339.0 -674.0 L 339.0 -673.0 L 337.0 -672.0 L 337.0 -672.0 L 337.0 -671.0 L 325.0 -665.0 L 309.0 -657.5 L 293.0 -650.0 L 276.0 -643.5 L 259.0 -637.0 L 242.5 -631.5 L 226.0 -626.0 L 213.0 -623.0 L 204.0 -622.0 L 190.5 -621.5 L 177.0 -621.0 L 165.0 -620.5 L 153.0 -620.0 L 147.5 -619.5 L 142.0 -619.0 L 149.0 -616.0 L 157.0 -613.0 L 165.5 -612.0 L 174.0 -611.0 L 183.0 -611.0 L 195.0 -611.0 L 207.0 -612.0 L 219.0 -613.0 L 232.0 -613.0 L 235.0 -613.0 L 238.0 -613.0 L 241.0 -613.0 L 244.0 -612.0 L 289.0 -609.0 L 324.0 -583.0 L 343.0 -569.0 L 342.0 -564.0 L 345.0 -556.0 L 332.0 -556.0 L 319.0 -556.0 L 307.5 -557.0 L 296.0 -558.0 L 283.0 -561.0 L 266.0 -564.0 L 243.5 -566.5 L 221.0 -569.0 L 194.0 -573.0 L 168.0 -577.0 L 145.0 -579.0 L 122.0 -581.0 L 100.0 -581.0 L 96.0 -582.0 L 92.0 -582.0 L 88.0 -582.0 L 84.0 -582.0 L 70.0 -582.0 L 56.0 -581.5 L 42.0 -581.0 L 28.0 -579.0 L 25.0 -578.0 L 20.5 -576.5 L 16.0 -575.0 Z M 762.0 -726.0 L 765.0 -731.0 L 781.0 -731.0 L 797.0 -731.0 L 812.5 -729.5 L 828.0 -728.0 L 843.0 -726.0 L 890.0 -718.0 L 966.0 -706.0 L 984.0 -606.0 L 995.0 -544.0 L 1009.0 -528.0 L 1023.0 -512.0 L 1040.0 -509.0 L 1061.0 -507.0 L 1061.0 -506.0 L 1061.0 -502.0 L 1054.0 -495.0 L 1038.0 -479.0 L 1001.0 -479.0 L 979.0 -479.0 L 954.0 -484.5 L 929.0 -490.0 L 896.0 -501.0 L 839.0 -522.0 L 817.0 -654.0 L 808.0 -710.0 L 782.0 -710.0 L 767.0 -710.0 L 758.0 -710.0 L 756.0 -712.0 L 753.0 -714.0 Z" fill="black" fill-opacity="0.25" stroke="black" stroke-width="4.0"/>
  <rect x="12.0" y="-399.0" width="1356.0" height="166.0" fill="none" stroke="red" stroke-width="10.0" /><rect x="645.0" y="-1285.0" width="645.9999999999999" height="483.9999999999999" fill="none" stroke="red" stroke-width="10.0" /><rect x="0.0" y="-1039.0" width="645.0" height="482.9999999999999" fill="none" stroke="red" stroke-width="10.0" /><rect x="753.0" y="-731.0" width="307.99999999999994" height="252.0" fill="none" stroke="red" stroke-width="10.0" />
</svg>
