<svg xmlns="http://www.w3.org/2000/svg"
  viewBox="-50.0 -762.2747252747253 1456.0 581.2747252747253">
  <rect x="-50.0" y="-762.2747252747253" width="1456.0" height="581.2747252747253" fill="white"/>
  <path d="M 147.0 -270.0 L 82.0 -280.0 L 0.0 -370.0 L 0.0 -396.0 L 36.0 -383.0 L 75.0 -375.5 L 114.0 -368.0 L 158.0 -367.0 L 202.0 -366.0 L 256.0 -365.0 L 310.0 -364.0 L 380.0 -364.0 L 475.0 -364.0 L 700.0 -368.0 L 925.0 -373.0 L 1042.0 -373.0 L 1149.0 -373.0 L 1317.0 -274.0 L 1326.0 -262.0 L 1336.5 -252.0 L 1347.0 -242.0 L 1356.0 -231.0 L 1355.0 -231.0 L 1348.5 -231.0 L 1342.0 -231.0 L 1331.0 -234.0 L 1301.0 -239.0 L 1285.5 -242.5 L 1270.0 -246.0 L 1267.0 -246.0 L 1178.0 -254.0 L 1137.0 -257.0 L 1098.5 -259.5 L 1060.0 -262.0 L 1022.0 -262.0 L 967.0 -262.0 L 785.0 -253.0 L 602.0 -243.0 L 511.0 -243.0 L 464.0 -243.0 L 418.5 -244.5 L 373.0 -246.0 L 328.0 -249.0 L 283.0 -252.0 L 237.5 -257.5 L 192.0 -263.0 Z M 550.0 -704.0 L 595.0 -709.0 L 638.0 -712.0 L 706.0 -717.0 L 742.0 -631.0 L 764.0 -580.0 L 778.0 -567.0 L 791.0 -555.0 L 810.0 -557.0 L 829.0 -560.0 L 828.0 -557.0 L 828.0 -554.0 L 825.0 -548.0 L 814.0 -530.0 L 781.0 -523.0 L 742.0 -514.0 L 686.0 -523.0 L 630.0 -532.0 L 584.0 -645.0 L 565.0 -692.0 L 550.0 -687.0 Z" fill="black" fill-opacity="0.25" stroke="black" stroke-width="4.0"/>
  <rect x="0.0" y="-396.0" width="1356.0" height="165.0" fill="none" stroke="red" stroke-width="10.0" /><rect x="550.0" y="-717.0" width="278.9999999999999" height="202.99999999999997" fill="none" stroke="red" stroke-width="10.0" />
</svg>
