<svg xmlns="http://www.w3.org/2000/svg"
  viewBox="-50.0 -461.0444444444444 1834.0 298.76666666666665">
  <rect x="-50.0" y="-461.0444444444444" width="1834.0" height="298.76666666666665" fill="white"/>
  <path d="M 151.0 -262.0 L 82.0 -271.0 L 0.0 -361.0 L 0.0 -388.0 L 38.0 -375.0 L 77.5 -367.5 L 117.0 -360.0 L 161.0 -359.0 L 206.0 -358.0 L 262.0 -357.0 L 318.0 -356.0 L 389.0 -356.0 L 486.0 -356.0 L 717.0 -360.0 L 947.0 -365.0 L 1067.0 -365.0 L 1177.0 -365.0 L 1349.0 -266.0 L 1359.0 -254.0 L 1368.5 -244.0 L 1378.0 -234.0 L 1388.0 -223.0 L 1386.0 -223.0 L 1379.0 -223.0 L 1372.0 -223.0 L 1362.0 -226.0 L 1332.0 -231.0 L 1316.5 -234.5 L 1301.0 -238.0 L 1298.0 -238.0 L 1207.0 -246.0 L 1164.0 -249.0 L 1124.0 -251.5 L 1084.0 -254.0 L 1045.0 -254.0 L 988.0 -254.0 L 803.0 -244.0 L 614.0 -234.0 L 523.0 -235.0 L 474.0 -235.0 L 428.0 -236.5 L 382.0 -238.0 L 336.0 -241.0 L 291.0 -244.0 L 244.0 -249.0 L 197.0 -254.0 Z M 1389.0 -406.0 L 1446.0 -409.0 L 1464.0 -410.0 L 1477.0 -410.0 L 1489.0 -411.0 L 1499.0 -411.0 L 1583.0 -413.0 L 1628.0 -325.0 L 1654.0 -274.0 L 1672.0 -259.0 L 1687.0 -246.0 L 1711.0 -249.0 L 1734.0 -250.0 L 1734.0 -248.0 L 1734.0 -245.0 L 1733.5 -243.5 L 1733.0 -242.0 L 1730.0 -238.0 L 1716.0 -221.0 L 1674.0 -215.0 L 1625.0 -208.0 L 1554.0 -219.0 L 1483.0 -230.0 L 1430.0 -346.0 L 1408.0 -395.0 L 1388.0 -389.0 Z" fill="black" fill-opacity="0.25" stroke="black" stroke-width="4.0"/>
  <rect x="0.0" y="-388.0" width="1388.0" height="165.0" fill="none" stroke="red" stroke-width="10.0" /><rect x="1388.0" y="-413.0" width="346.0000000000001" height="205.0" fill="none" stroke="red" stroke-width="10.0" />
</svg>
