<svg xmlns="http://www.w3.org/2000/svg"
  viewBox="-50 -439 1456 482.8">
  <rect x="-50" y="-439" width="1456" height="482.8" fill="white"/>
  <path d="M 880 -163 L 886 -164 L 895.5 -166 L 905 -168 L 920 -169 L 933 -170 L 942 -172.5 L 951 -175 L 958 -176 L 1019 -183 L 1057 -108 L 1068 -87 L 1076.5 -73 L 1085 -59 L 1092 -53 L 1104 -43 L 1122 -47 L 1125 -47 L 1128 -48 L 1131 -49 L 1135 -49 L 1138 -49 L 1138 -41 L 1136 -39 L 1127 -23 L 1099 -14 L 1082 -9 L 1061 -7 L 1040 -5 L 1013 -8 L 962 -13 L 915 -111 L 893 -152 L 881 -147 Z M 147 -263 L 82 -273 L 0 -363 L 0 -389 L 36 -377 L 75 -369 L 114 -361 L 158 -360 L 202 -358 L 256 -357.5 L 310 -357 L 380 -357 L 475 -357 L 700 -362 L 925 -366 L 1043 -366 L 1150 -366 L 1317 -268 L 1326 -255 L 1336.5 -245 L 1347 -235 L 1356 -224 L 1355 -224 L 1348.5 -224 L 1342 -224 L 1332 -227 L 1302 -232 L 1286.5 -236 L 1271 -240 L 1267 -240 L 1178 -247 L 1137 -250 L 1098.5 -252.5 L 1060 -255 L 1022 -255 L 967 -255 L 785 -246 L 602 -237 L 511 -237 L 464 -237 L 419 -238.5 L 374 -240 L 328 -242 L 283 -245 L 237.5 -250.5 L 192 -256 Z" fill="black" fill-opacity="0.25" stroke="black" stroke-width="4"/>
  <rect x="880" y="-183" width="258" height="178" fill="none" stroke="red" stroke-width="10" /><rect x="0" y="-389" width="1356" height="165" fill="none" stroke="red" stroke-width="10" />
</svg>
