<svg xmlns="http://www.w3.org/2000/svg"
  viewBox="-50 -712 1392.825 539.579">
  <rect x="-50" y="-712" width="1392.825" height="539.579" fill="white"/>
  <path d="M 670.777 -660 L 704.777 -660 L 741.777 -659 L 779.777 -659 L 810.777 -655 L 831.777 -655 L 850.777 -604 L 869.777 -553 L 903.777 -502 L 915.777 -484 L 925.777 -483 L 934.777 -481 L 939.777 -474.5 L 944.777 -468 L 929.777 -463 L 894.777 -458 L 859.777 -459 L 824.777 -460 L 792.777 -463 L 761.777 -473 L 748.777 -509.5 L 735.777 -546 L 700.777 -617 L 690.777 -633 L 666.777 -637 L 650.777 -639 L 648.777 -649.5 L 646.777 -660 Z M 421.777 -662 L 451.777 -662 L 484.777 -661 L 517.777 -660 L 543.777 -656 L 562.777 -656 L 583.777 -603.5 L 604.777 -551 L 632.777 -501 L 642.777 -483 L 651.777 -481 L 659.777 -479 L 664.277 -473 L 668.777 -467 L 655.777 -462 L 624.777 -457 L 594.277 -458 L 563.777 -459 L 535.777 -462 L 509.777 -472 L 494.777 -509 L 479.777 -546 L 448.777 -618 L 445.777 -622 L 437.777 -630.5 L 429.777 -639 L 418.777 -641 L 404.777 -643 L 402.777 -652 L 400.777 -661 Z M 2.777 -384 L 7.777 -392 L 14.277 -392.5 L 20.777 -393 L 27.777 -389 L 34.777 -385 L 45.777 -379.5 L 56.777 -374 L 73.777 -370.5 L 90.777 -367 L 121.777 -367 L 1101.777 -367 L 1129.777 -367 L 1152.777 -362.5 L 1175.777 -358 L 1194.777 -348 L 1213.777 -338 L 1224.277 -330 L 1234.777 -322 L 1253.277 -302.5 L 1271.777 -283 L 1284.777 -265 L 1297.777 -247 L 1289.777 -230 L 1281.777 -218 L 1271.277 -225 L 1260.777 -232 L 1246.777 -237 L 1232.777 -242 L 1216.277 -244 L 1199.777 -246 L 1164.777 -246 L 199.777 -246 L 176.777 -246 L 157.777 -249 L 138.777 -252 L 128.277 -255.5 L 117.777 -259 L 105.777 -265 L 93.777 -271 L 80.277 -279.5 L 66.777 -288 L 51.777 -303.5 L 36.777 -319 L 21.277 -339.5 L 5.777 -360 L 1.777 -368 L -2.223 -376 Z" fill="black" fill-opacity="0.25" stroke="black" stroke-width="4"/>
  <rect x="647" y="-660" width="298" height="202" fill="none" stroke="red" stroke-width="10" /><rect x="401" y="-662" width="268" height="205" fill="none" stroke="red" stroke-width="10" /><rect x="-2" y="-393" width="1300" height="175" fill="none" stroke="red" stroke-width="10" />
</svg>
