<svg xmlns="http://www.w3.org/2000/svg"
  viewBox="-50.0 -1004.0 1578.4 825.0">
  <rect x="-50.0" y="-1004.0" width="1578.4" height="825.0" fill="white"/>
  <path d="M 158.0 -365.0 L 202.0 -364.0 L 255.5 -362.5 L 309.0 -361.0 L 380.0 -361.0 L 428.0 -361.0 L 507.0 -362.5 L 586.0 -364.0 L 700.0 -366.0 L 814.0 -368.0 L 898.5 -369.5 L 983.0 -371.0 L 1042.0 -371.0 L 1149.0 -371.0 L 1317.0 -273.0 L 1326.0 -260.0 L 1336.5 -250.0 L 1347.0 -240.0 L 1356.0 -229.0 L 1341.0 -229.0 L 1331.0 -232.0 L 1301.0 -236.0 L 1285.5 -240.0 L 1270.0 -244.0 L 1267.0 -244.0 L 1178.0 -252.0 L 1136.0 -255.0 L 1098.0 -257.5 L 1060.0 -260.0 L 1022.0 -260.0 L 994.0 -260.0 L 935.5 -258.0 L 877.0 -256.0 L 785.0 -251.0 L 692.0 -246.0 L 624.5 -243.5 L 557.0 -241.0 L 511.0 -241.0 L 418.0 -241.0 L 328.5 -247.0 L 239.0 -253.0 L 147.0 -268.0 L 81.0 -278.0 L 0.0 -368.0 L 0.0 -395.0 L 37.0 -382.0 L 75.5 -374.0 L 114.0 -366.0 Z M 834.0 -498.0 L 834.0 -499.0 L 836.0 -500.0 L 837.0 -500.0 L 840.0 -501.0 L 842.0 -502.0 L 838.0 -508.0 L 834.0 -513.0 L 840.0 -515.0 L 886.0 -532.0 L 926.5 -545.5 L 967.0 -559.0 L 1001.0 -570.5 L 1035.0 -582.0 L 1062.5 -592.0 L 1090.0 -602.0 L 1111.0 -612.0 L 1191.0 -652.0 L 1236.0 -726.0 L 1243.0 -738.0 L 1250.5 -755.5 L 1258.0 -773.0 L 1266.5 -796.5 L 1275.0 -820.0 L 1286.5 -849.5 L 1298.0 -879.0 L 1314.0 -914.0 L 1315.0 -917.0 L 1318.5 -918.5 L 1322.0 -920.0 L 1326.0 -920.5 L 1330.0 -921.0 L 1334.5 -921.5 L 1339.0 -922.0 L 1344.0 -924.0 L 1356.0 -931.0 L 1364.0 -935.5 L 1372.0 -940.0 L 1375.0 -942.0 L 1388.0 -948.0 L 1396.5 -950.5 L 1405.0 -953.0 L 1408.0 -954.0 L 1421.0 -954.0 L 1426.0 -954.0 L 1431.0 -953.5 L 1436.0 -953.0 L 1442.0 -951.0 L 1446.0 -950.0 L 1450.5 -949.5 L 1455.0 -949.0 L 1460.0 -948.0 L 1465.0 -947.0 L 1469.5 -945.5 L 1474.0 -944.0 L 1478.0 -940.0 L 1479.0 -939.0 L 1477.5 -937.5 L 1476.0 -936.0 L 1473.5 -934.5 L 1471.0 -933.0 L 1468.0 -932.0 L 1465.0 -931.0 L 1464.0 -929.0 L 1425.0 -904.0 L 1423.0 -897.0 L 1415.0 -863.0 L 1408.0 -839.0 L 1401.0 -815.0 L 1393.0 -795.0 L 1391.0 -789.0 L 1386.5 -780.5 L 1382.0 -772.0 L 1376.0 -763.0 L 1370.0 -754.0 L 1364.5 -745.5 L 1359.0 -737.0 L 1355.0 -732.0 L 1355.0 -732.0 L 1356.0 -732.0 L 1357.0 -733.0 L 1359.0 -733.0 L 1354.0 -728.0 L 1351.0 -725.0 L 1350.0 -724.0 L 1350.0 -724.0 L 1355.0 -732.0 L 1351.0 -730.0 L 1341.0 -723.0 L 1331.0 -716.0 L 1317.0 -705.5 L 1303.0 -695.0 L 1287.0 -682.5 L 1271.0 -670.0 L 1255.0 -657.0 L 1233.0 -640.0 L 1211.5 -623.0 L 1190.0 -606.0 L 1171.0 -587.0 L 1171.0 -587.0 L 1171.0 -586.0 L 1177.0 -588.0 L 1181.5 -590.5 L 1186.0 -593.0 L 1190.0 -595.0 L 1195.0 -598.0 L 1196.0 -598.0 L 1195.0 -597.0 L 1193.0 -596.0 L 1192.0 -595.0 L 1188.5 -593.0 L 1185.0 -591.0 L 1182.0 -589.5 L 1179.0 -588.0 L 1176.0 -587.0 L 1173.0 -586.0 L 1172.0 -586.0 L 1171.0 -586.0 L 1171.0 -586.0 L 1159.0 -580.0 L 1143.0 -573.0 L 1127.0 -566.0 L 1110.0 -559.0 L 1093.0 -552.0 L 1076.5 -546.5 L 1060.0 -541.0 L 1047.0 -539.0 L 1039.0 -538.0 L 1025.0 -537.5 L 1011.0 -537.0 L 999.0 -536.5 L 987.0 -536.0 L 981.0 -535.0 L 975.0 -534.0 L 983.0 -531.0 L 991.0 -528.0 L 999.5 -527.0 L 1008.0 -526.0 L 1017.0 -526.0 L 1029.0 -526.0 L 1042.0 -527.0 L 1055.0 -528.0 L 1067.0 -528.0 L 1069.0 -528.0 L 1072.5 -527.5 L 1076.0 -527.0 L 1078.0 -527.0 L 1123.0 -524.0 L 1158.0 -498.0 L 1177.0 -484.0 L 1176.0 -479.0 L 1179.0 -471.0 L 1165.0 -471.0 L 1152.0 -471.0 L 1141.0 -472.5 L 1130.0 -474.0 L 1117.0 -476.0 L 1100.0 -479.0 L 1077.5 -482.0 L 1055.0 -485.0 L 1028.0 -488.0 L 1002.0 -492.0 L 979.0 -494.0 L 956.0 -496.0 L 934.0 -496.0 L 932.0 -497.0 L 929.5 -497.0 L 927.0 -497.0 L 924.0 -497.0 L 908.0 -497.0 L 893.0 -496.5 L 878.0 -496.0 L 862.0 -495.0 L 859.0 -494.0 L 854.5 -492.0 L 850.0 -490.0 L 842.0 -490.0 L 837.0 -490.0 Z M 259.0 -675.0 L 261.0 -678.0 L 274.0 -678.0 L 290.0 -678.0 L 299.0 -678.0 L 308.0 -677.5 L 317.0 -677.0 L 327.0 -675.0 L 369.0 -668.0 L 431.0 -657.0 L 448.0 -571.0 L 459.0 -515.0 L 469.0 -503.0 L 477.0 -493.0 L 486.5 -490.0 L 496.0 -487.0 L 509.0 -486.0 L 509.0 -486.0 L 513.0 -485.0 L 512.0 -479.0 L 505.5 -474.5 L 499.0 -470.0 L 490.5 -467.5 L 482.0 -465.0 L 473.5 -464.0 L 465.0 -463.0 L 460.0 -463.0 L 440.0 -463.0 L 420.0 -468.0 L 400.0 -473.0 L 373.0 -482.0 L 324.0 -500.0 L 306.0 -613.0 L 298.0 -661.0 L 276.0 -661.0 L 264.0 -661.0 L 256.0 -661.0 L 254.0 -662.0 L 251.0 -664.0 Z M 480.0 -676.0 L 480.0 -678.0 L 495.0 -679.0 L 518.0 -679.0 L 537.0 -676.5 L 556.0 -674.0 L 578.0 -670.0 L 640.0 -657.0 L 657.0 -571.0 L 667.0 -519.0 L 680.0 -505.0 L 688.0 -491.0 L 706.0 -489.0 L 710.0 -488.0 L 712.5 -487.0 L 715.0 -486.0 L 718.0 -486.0 L 722.0 -486.0 L 722.0 -480.0 L 716.0 -476.0 L 710.0 -472.0 L 701.5 -469.0 L 693.0 -466.0 L 685.0 -465.0 L 677.0 -464.0 L 673.0 -464.0 L 640.0 -464.0 L 584.0 -484.0 L 535.0 -503.0 L 516.0 -617.0 L 509.0 -663.0 L 494.0 -664.0 L 493.0 -664.0 L 487.0 -664.0 L 483.5 -665.5 L 480.0 -667.0 Z" fill="black" fill-opacity="0.25" stroke="black" stroke-width="4.0"/>
  <rect x="0.0" y="-395.0" width="1356.0" height="166.0" fill="none" stroke="red" stroke-width="10.0" /><rect x="251.0" y="-678.0" width="262.0" height="215.00000000000003" fill="none" stroke="red" stroke-width="10.0" /><rect x="480.0" y="-679.0" width="242.0" height="215.00000000000003" fill="none" stroke="red" stroke-width="10.0" /><rect x="834.0" y="-632.0" width="388.90000000000015" height="161.00000000000003" fill="none" stroke="red" stroke-width="10.0" /><rect x="1151.0" y="-793.0" width="241.30000000000007" height="161.00000000000003" fill="none" stroke="red" stroke-width="10.0" /><rect x="1265.2" y="-954.0" width="213.79999999999998" height="160.99999999999991" fill="none" stroke="red" stroke-width="10.0" />
</svg>
