<svg xmlns="http://www.w3.org/2000/svg"
  viewBox="-50.0 -439.0 1456.0 482.8">
  <rect x="-50.0" y="-439.0" width="1456.0" height="482.8" fill="white"/>
  <path d="M 880.0 -163.0 L 886.0 -164.0 L 895.5 -166.0 L 905.0 -168.0 L 920.0 -169.0 L 933.0 -170.0 L 942.0 -172.5 L 951.0 -175.0 L 958.0 -176.0 L 1019.0 -183.0 L 1057.0 -108.0 L 1068.0 -87.0 L 1076.5 -73.0 L 1085.0 -59.0 L 1092.0 -53.0 L 1104.0 -43.0 L 1122.0 -47.0 L 1125.0 -47.0 L 1128.0 -48.0 L 1131.0 -49.0 L 1135.0 -49.0 L 1138.0 -49.0 L 1138.0 -41.0 L 1136.0 -39.0 L 1127.0 -23.0 L 1099.0 -14.0 L 1082.0 -9.0 L 1061.0 -7.0 L 1040.0 -5.0 L 1013.0 -8.0 L 962.0 -13.0 L 915.0 -111.0 L 893.0 -152.0 L 881.0 -147.0 Z M 147.0 -263.0 L 82.0 -273.0 L 0.0 -363.0 L 0.0 -389.0 L 36.0 -377.0 L 75.0 -369.0 L 114.0 -361.0 L 158.0 -360.0 L 202.0 -358.0 L 256.0 -357.5 L 310.0 -357.0 L 380.0 -357.0 L 475.0 -357.0 L 700.0 -362.0 L 925.0 -366.0 L 1043.0 -366.0 L 1150.0 -366.0 L 1317.0 -268.0 L 1326.0 -255.0 L 1336.5 -245.0 L 1347.0 -235.0 L 1356.0 -224.0 L 1355.0 -224.0 L 1348.5 -224.0 L 1342.0 -224.0 L 1332.0 -227.0 L 1302.0 -232.0 L 1286.5 -236.0 L 1271.0 -240.0 L 1267.0 -240.0 L 1178.0 -247.0 L 1137.0 -250.0 L 1098.5 -252.5 L 1060.0 -255.0 L 1022.0 -255.0 L 967.0 -255.0 L 785.0 -246.0 L 602.0 -237.0 L 511.0 -237.0 L 464.0 -237.0 L 419.0 -238.5 L 374.0 -240.0 L 328.0 -242.0 L 283.0 -245.0 L 237.5 -250.5 L 192.0 -256.0 Z" fill="black" fill-opacity="0.25" stroke="black" stroke-width="4.0"/>
  <rect x="880.0" y="-183.0" width="257.9999999999999" height="178.0" fill="none" stroke="red" stroke-width="10.0" /><rect x="0.0" y="-389.0" width="1356.0" height="165.0" fill="none" stroke="red" stroke-width="10.0" />
</svg>
