<svg xmlns="http://www.w3.org/2000/svg"
  viewBox="-50.0 -1076.0 1670.5 897.0">
  <rect x="-50.0" y="-1076.0" width="1670.5" height="897.0" fill="white"/>
  <path d="M 158.0 -365.0 L 220.0 -363.0 L 281.5 -362.5 L 343.0 -362.0 L 406.0 -362.0 L 504.0 -362.0 L 700.0 -367.0 L 813.0 -369.0 L 898.5 -370.0 L 984.0 -371.0 L 1043.0 -371.0 L 1151.0 -371.0 L 1318.0 -273.0 L 1327.0 -261.0 L 1337.0 -250.5 L 1347.0 -240.0 L 1357.0 -229.0 L 1350.0 -229.0 L 1344.0 -229.5 L 1338.0 -230.0 L 1332.0 -232.0 L 1302.0 -237.0 L 1286.5 -241.0 L 1271.0 -245.0 L 1268.0 -245.0 L 1178.0 -253.0 L 1137.0 -256.0 L 1098.5 -258.5 L 1060.0 -261.0 L 1022.0 -261.0 L 994.0 -261.0 L 935.5 -258.5 L 877.0 -256.0 L 785.0 -251.0 L 693.0 -246.0 L 625.0 -244.0 L 557.0 -242.0 L 511.0 -242.0 L 419.0 -242.0 L 328.5 -248.0 L 238.0 -254.0 L 147.0 -268.0 L 81.0 -278.0 L 0.0 -368.0 L 0.0 -395.0 L 37.0 -382.0 L 75.5 -374.0 L 114.0 -366.0 Z M 933.0 -573.0 L 934.0 -574.0 L 933.0 -575.5 L 932.0 -577.0 L 931.0 -579.5 L 930.0 -582.0 L 930.0 -584.0 L 930.0 -586.0 L 933.0 -587.0 L 980.0 -604.0 L 1020.5 -617.5 L 1061.0 -631.0 L 1095.0 -642.0 L 1129.0 -653.0 L 1156.0 -663.5 L 1183.0 -674.0 L 1203.0 -684.0 L 1284.0 -726.0 L 1328.0 -798.0 L 1335.0 -810.0 L 1342.5 -827.5 L 1350.0 -845.0 L 1358.5 -868.5 L 1367.0 -892.0 L 1378.5 -921.0 L 1390.0 -950.0 L 1406.0 -986.0 L 1407.0 -989.0 L 1411.0 -990.0 L 1415.0 -991.0 L 1419.0 -991.5 L 1423.0 -992.0 L 1427.5 -993.0 L 1432.0 -994.0 L 1436.0 -996.0 L 1449.0 -1004.0 L 1456.5 -1008.5 L 1464.0 -1013.0 L 1467.0 -1014.0 L 1480.0 -1020.0 L 1488.5 -1022.5 L 1497.0 -1025.0 L 1500.0 -1026.0 L 1513.0 -1026.0 L 1518.0 -1026.0 L 1523.5 -1025.5 L 1529.0 -1025.0 L 1535.0 -1023.0 L 1539.0 -1022.0 L 1543.5 -1021.5 L 1548.0 -1021.0 L 1552.5 -1020.0 L 1557.0 -1019.0 L 1562.0 -1017.5 L 1567.0 -1016.0 L 1570.0 -1012.0 L 1571.0 -1011.0 L 1570.0 -1009.5 L 1569.0 -1008.0 L 1567.0 -1006.5 L 1565.0 -1005.0 L 1561.5 -1004.0 L 1558.0 -1003.0 L 1557.0 -1001.0 L 1519.0 -975.0 L 1516.0 -969.0 L 1508.0 -936.0 L 1501.0 -911.0 L 1494.0 -886.0 L 1486.0 -867.0 L 1484.0 -861.0 L 1479.0 -852.5 L 1474.0 -844.0 L 1468.0 -834.5 L 1462.0 -825.0 L 1456.5 -816.5 L 1451.0 -808.0 L 1447.0 -803.0 L 1449.0 -804.0 L 1450.0 -804.0 L 1451.0 -804.0 L 1447.0 -800.0 L 1444.0 -797.0 L 1444.0 -796.0 L 1444.0 -796.0 L 1447.0 -803.0 L 1443.0 -801.0 L 1433.0 -793.5 L 1423.0 -786.0 L 1409.0 -776.0 L 1395.0 -766.0 L 1379.0 -754.0 L 1363.0 -742.0 L 1347.0 -729.0 L 1332.0 -717.0 L 1319.5 -707.0 L 1307.0 -697.0 L 1296.0 -688.0 L 1274.0 -670.0 L 1266.0 -661.0 L 1264.0 -658.0 L 1263.0 -658.0 L 1275.0 -663.0 L 1282.0 -667.0 L 1287.0 -670.0 L 1288.0 -670.0 L 1287.0 -670.0 L 1286.0 -668.0 L 1284.0 -667.0 L 1278.0 -664.0 L 1263.0 -656.0 L 1263.0 -658.0 L 1250.0 -652.0 L 1234.0 -644.5 L 1218.0 -637.0 L 1201.5 -630.0 L 1185.0 -623.0 L 1168.5 -618.0 L 1152.0 -613.0 L 1139.0 -611.0 L 1131.0 -610.0 L 1117.5 -609.0 L 1104.0 -608.0 L 1092.0 -608.0 L 1080.0 -608.0 L 1074.0 -607.0 L 1068.0 -606.0 L 1075.0 -603.0 L 1083.0 -600.0 L 1091.5 -599.0 L 1100.0 -598.0 L 1108.0 -598.0 L 1121.0 -598.0 L 1133.5 -599.0 L 1146.0 -600.0 L 1159.0 -600.0 L 1184.0 -600.0 L 1207.5 -592.5 L 1231.0 -585.0 L 1250.0 -570.0 L 1269.0 -556.0 L 1269.0 -551.0 L 1272.0 -543.0 L 1258.0 -543.0 L 1245.0 -543.0 L 1233.5 -544.5 L 1222.0 -546.0 L 1210.0 -548.0 L 1193.0 -551.0 L 1170.0 -554.0 L 1147.0 -557.0 L 1121.0 -561.0 L 1094.0 -565.0 L 1071.5 -567.0 L 1049.0 -569.0 L 1027.0 -569.0 L 1020.0 -569.0 L 1013.5 -569.5 L 1007.0 -570.0 L 1001.0 -570.0 L 988.0 -570.0 L 977.5 -569.0 L 967.0 -568.0 L 955.0 -567.0 L 952.0 -566.0 L 947.5 -564.0 L 943.0 -562.0 L 935.0 -562.0 L 930.0 -562.0 L 927.0 -570.0 L 927.0 -571.0 L 928.0 -572.0 L 930.0 -572.0 Z" fill="black" fill-opacity="0.25" stroke="black" stroke-width="4.0"/>
  <rect x="0.0" y="-395.0" width="1357.0" height="166.0" fill="none" stroke="red" stroke-width="10.0" /><rect x="927.0" y="-1026.0" width="643.9999999999999" height="483.0" fill="none" stroke="red" stroke-width="10.0" />
</svg>
