<svg xmlns="http://www.w3.org/2000/svg"
  viewBox="-50 -960.167 1457 781.167">
  <rect x="-50" y="-960.167" width="1457" height="781.167" fill="white"/>
  <path d="M 147 -268 L 82 -278 L 0 -368 L 0 -395 L 36 -382 L 75.5 -374.5 L 115 -367 L 158 -366 L 202 -365 L 256 -363.5 L 310 -362 L 380 -362 L 475 -362 L 701 -367 L 926 -372 L 1043 -372 L 1150 -372 L 1318 -273 L 1327 -260 L 1337.5 -250.5 L 1348 -241 L 1357 -229 L 1356 -229 L 1349.5 -229 L 1343 -229 L 1332 -233 L 1302 -237 L 1286.5 -241 L 1271 -245 L 1267 -245 L 1179 -253 L 1138 -256 L 1099 -258.5 L 1060 -261 L 1022 -261 L 967 -261 L 785 -251 L 602 -242 L 512 -242 L 465 -242 L 419.5 -243.5 L 374 -245 L 329 -248 L 284 -251 L 238 -256 L 192 -261 Z M 757 -680 L 751 -668 L 745 -649.5 L 739 -631 L 732 -606 L 870 -599 L 1101 -590 L 1146 -545 L 1004 -545 L 898 -545 L 792 -545 L 712 -546 L 695 -508 L 667 -479 L 656 -465 L 623 -455 L 606 -450 L 591 -449 L 576 -448 L 562 -448 L 540 -448 L 531 -451 L 518 -457 L 526 -465 L 551 -501 L 567 -551 L 554 -551 L 354 -560 L 256 -609 L 172 -648 L 70 -773 L 62 -787 L 58 -813 L 45 -887 L 40 -896 L 71 -900 L 109 -906 L 147 -911 L 162 -910 L 205 -909 L 234 -891 L 241 -887 L 242 -866 L 239 -821 L 239 -807 L 243 -801 L 335 -670 L 546 -627 L 554 -624 L 564.5 -623.5 L 575 -623 L 587 -621 L 592 -637 L 596.5 -649 L 601 -661 L 607 -673 L 615 -690 L 645 -690 L 706 -684 L 718 -682 L 731.5 -681 L 745 -680 Z" fill="black" fill-opacity="0.25" stroke="black" stroke-width="4"/>
  <rect x="0" y="-395" width="1357" height="166" fill="none" stroke="red" stroke-width="10" /><rect x="40" y="-911" width="1106" height="463" fill="none" stroke="red" stroke-width="10" />
</svg>
