<svg xmlns="http://www.w3.org/2000/svg"
  viewBox="-50 -762.275 1456 581.275">
  <rect x="-50" y="-762.275" width="1456" height="581.275" fill="white"/>
  <path d="M 147 -270 L 82 -280 L 0 -370 L 0 -396 L 36 -383 L 75 -375.5 L 114 -368 L 158 -367 L 202 -366 L 256 -365 L 310 -364 L 380 -364 L 475 -364 L 700 -368 L 925 -373 L 1042 -373 L 1149 -373 L 1317 -274 L 1326 -262 L 1336.5 -252 L 1347 -242 L 1356 -231 L 1355 -231 L 1348.5 -231 L 1342 -231 L 1331 -234 L 1301 -239 L 1285.5 -242.5 L 1270 -246 L 1267 -246 L 1178 -254 L 1137 -257 L 1098.5 -259.5 L 1060 -262 L 1022 -262 L 967 -262 L 785 -253 L 602 -243 L 511 -243 L 464 -243 L 418.5 -244.5 L 373 -246 L 328 -249 L 283 -252 L 237.5 -257.5 L 192 -263 Z M 550 -704 L 595 -709 L 638 -712 L 706 -717 L 742 -631 L 764 -580 L 778 -567 L 791 -555 L 810 -557 L 829 -560 L 828 -557 L 828 -554 L 825 -548 L 814 -530 L 781 -523 L 742 -514 L 686 -523 L 630 -532 L 584 -645 L 565 -692 L 550 -687 Z" fill="black" fill-opacity="0.25" stroke="black" stroke-width="4"/>
  <rect x="0" y="-396" width="1356" height="165" fill="none" stroke="red" stroke-width="10" /><rect x="550" y="-717" width="279" height="203" fill="none" stroke="red" stroke-width="10" />
</svg>
