<svg xmlns="http://www.w3.org/2000/svg"
  viewBox="-50.0 -1350.0 1500.4 1174.0">
  <rect x="-50.0" y="-1350.0" width="1500.4" height="1174.0" fill="white"/>
  <path d="M 158.0 -362.0 L 202.0 -361.0 L 255.5 -360.0 L 309.0 -359.0 L 380.0 -359.0 L 428.0 -359.0 L 507.0 -360.0 L 586.0 -361.0 L 700.0 -364.0 L 814.0 -366.0 L 898.5 -367.5 L 983.0 -369.0 L 1042.0 -369.0 L 1149.0 -369.0 L 1317.0 -270.0 L 1326.0 -257.0 L 1336.5 -247.0 L 1347.0 -237.0 L 1356.0 -226.0 L 1342.0 -226.0 L 1331.0 -230.0 L 1301.0 -234.0 L 1285.5 -238.0 L 1270.0 -242.0 L 1267.0 -242.0 L 1178.0 -250.0 L 1136.0 -253.0 L 1098.0 -255.0 L 1060.0 -257.0 L 1022.0 -257.0 L 994.0 -257.0 L 935.5 -255.0 L 877.0 -253.0 L 785.0 -248.0 L 692.0 -243.0 L 624.5 -241.0 L 557.0 -239.0 L 511.0 -239.0 L 419.0 -239.0 L 328.5 -245.0 L 238.0 -251.0 L 147.0 -265.0 L 81.0 -275.0 L 0.0 -365.0 L 0.0 -392.0 L 37.0 -379.0 L 75.5 -371.0 L 114.0 -363.0 Z M 129.0 -844.0 L 129.0 -845.0 L 130.0 -846.0 L 131.0 -846.0 L 135.0 -847.0 L 137.0 -848.0 L 133.0 -854.0 L 129.0 -859.0 L 135.0 -861.0 L 182.0 -878.0 L 222.0 -891.5 L 262.0 -905.0 L 296.0 -916.5 L 330.0 -928.0 L 357.5 -938.0 L 385.0 -948.0 L 405.0 -958.0 L 485.0 -998.0 L 530.0 -1072.0 L 537.0 -1084.0 L 544.5 -1101.5 L 552.0 -1119.0 L 561.0 -1142.5 L 570.0 -1166.0 L 581.5 -1195.5 L 593.0 -1225.0 L 608.0 -1260.0 L 609.0 -1263.0 L 613.0 -1264.5 L 617.0 -1266.0 L 621.0 -1266.5 L 625.0 -1267.0 L 629.5 -1267.5 L 634.0 -1268.0 L 638.0 -1271.0 L 650.0 -1278.0 L 658.0 -1282.0 L 666.0 -1286.0 L 669.0 -1288.0 L 682.0 -1294.0 L 690.5 -1296.5 L 699.0 -1299.0 L 702.0 -1300.0 L 715.0 -1300.0 L 720.0 -1300.0 L 725.5 -1299.5 L 731.0 -1299.0 L 736.0 -1298.0 L 740.0 -1297.0 L 744.5 -1296.0 L 749.0 -1295.0 L 754.0 -1294.5 L 759.0 -1294.0 L 763.5 -1292.0 L 768.0 -1290.0 L 772.0 -1286.0 L 773.0 -1285.0 L 772.0 -1283.5 L 771.0 -1282.0 L 768.5 -1280.5 L 766.0 -1279.0 L 763.0 -1278.0 L 760.0 -1277.0 L 758.0 -1276.0 L 720.0 -1250.0 L 718.0 -1243.0 L 712.0 -1218.0 L 706.5 -1196.5 L 701.0 -1175.0 L 693.5 -1155.5 L 686.0 -1136.0 L 675.5 -1117.0 L 665.0 -1098.0 L 650.0 -1078.0 L 650.0 -1078.0 L 651.0 -1078.0 L 652.0 -1079.0 L 654.0 -1079.0 L 649.0 -1074.0 L 645.0 -1070.0 L 645.0 -1070.0 L 645.0 -1070.5 L 645.0 -1071.0 L 646.0 -1072.0 L 647.0 -1073.0 L 648.0 -1074.5 L 649.0 -1076.0 L 650.0 -1078.0 L 646.0 -1076.0 L 635.5 -1069.0 L 625.0 -1062.0 L 611.5 -1052.0 L 598.0 -1042.0 L 581.5 -1029.0 L 565.0 -1016.0 L 549.0 -1004.0 L 533.0 -992.0 L 520.5 -981.5 L 508.0 -971.0 L 497.0 -962.0 L 486.0 -953.0 L 479.0 -946.5 L 472.0 -940.0 L 468.0 -936.0 L 468.0 -935.0 L 466.0 -933.0 L 466.0 -933.0 L 465.0 -932.0 L 471.0 -934.0 L 475.5 -936.5 L 480.0 -939.0 L 484.0 -941.0 L 489.0 -944.0 L 490.0 -944.0 L 490.0 -944.0 L 488.0 -943.0 L 487.0 -942.0 L 483.5 -940.0 L 480.0 -938.0 L 476.5 -936.0 L 473.0 -934.0 L 470.5 -933.0 L 468.0 -932.0 L 466.0 -932.0 L 465.0 -932.0 L 465.0 -932.0 L 453.0 -926.0 L 437.0 -919.0 L 421.0 -912.0 L 404.5 -905.0 L 388.0 -898.0 L 371.0 -892.5 L 354.0 -887.0 L 341.0 -885.0 L 332.0 -884.0 L 318.5 -883.5 L 305.0 -883.0 L 293.5 -882.5 L 282.0 -882.0 L 276.0 -881.0 L 270.0 -880.0 L 277.0 -877.0 L 285.0 -874.0 L 294.0 -873.0 L 303.0 -872.0 L 312.0 -872.0 L 324.0 -872.0 L 336.5 -873.0 L 349.0 -874.0 L 362.0 -874.0 L 364.0 -874.0 L 367.0 -874.0 L 370.0 -874.0 L 372.0 -874.0 L 417.0 -871.0 L 452.0 -844.0 L 471.0 -830.0 L 471.0 -825.0 L 474.0 -817.0 L 460.0 -818.0 L 447.0 -818.0 L 435.5 -819.0 L 424.0 -820.0 L 411.0 -822.0 L 394.0 -825.0 L 371.5 -828.0 L 349.0 -831.0 L 322.0 -835.0 L 296.0 -839.0 L 273.0 -840.5 L 250.0 -842.0 L 228.0 -842.0 L 224.0 -843.0 L 220.0 -843.0 L 216.0 -843.0 L 212.0 -843.0 L 198.0 -843.0 L 184.5 -842.5 L 171.0 -842.0 L 157.0 -841.0 L 154.0 -840.0 L 149.0 -838.5 L 144.0 -837.0 L 137.0 -837.0 L 132.0 -836.0 Z M 756.0 -591.0 L 756.0 -592.0 L 758.0 -592.0 L 759.0 -592.0 L 762.0 -594.0 L 764.0 -595.0 L 760.0 -601.0 L 756.0 -606.0 L 762.0 -608.0 L 808.0 -625.0 L 848.5 -638.5 L 889.0 -652.0 L 923.0 -663.0 L 957.0 -674.0 L 984.5 -684.0 L 1012.0 -694.0 L 1033.0 -705.0 L 1113.0 -745.0 L 1158.0 -819.0 L 1165.0 -831.0 L 1172.5 -848.5 L 1180.0 -866.0 L 1188.5 -889.5 L 1197.0 -913.0 L 1208.5 -942.0 L 1220.0 -971.0 L 1236.0 -1007.0 L 1237.0 -1010.0 L 1240.0 -1011.0 L 1243.0 -1012.0 L 1247.5 -1012.5 L 1252.0 -1013.0 L 1256.5 -1014.0 L 1261.0 -1015.0 L 1265.0 -1017.0 L 1277.0 -1024.0 L 1285.5 -1028.5 L 1294.0 -1033.0 L 1297.0 -1034.0 L 1310.0 -1040.0 L 1318.5 -1043.0 L 1327.0 -1046.0 L 1329.0 -1047.0 L 1343.0 -1047.0 L 1348.0 -1047.0 L 1353.0 -1046.5 L 1358.0 -1046.0 L 1364.0 -1044.0 L 1368.0 -1043.0 L 1372.5 -1042.5 L 1377.0 -1042.0 L 1382.0 -1041.0 L 1387.0 -1040.0 L 1391.5 -1038.5 L 1396.0 -1037.0 L 1400.0 -1033.0 L 1401.0 -1032.0 L 1399.5 -1030.0 L 1398.0 -1028.0 L 1395.5 -1027.0 L 1393.0 -1026.0 L 1390.0 -1025.0 L 1387.0 -1024.0 L 1386.0 -1022.0 L 1348.0 -997.0 L 1345.0 -989.0 L 1337.0 -955.0 L 1330.0 -931.0 L 1323.0 -907.0 L 1315.0 -888.0 L 1313.0 -882.0 L 1308.5 -873.5 L 1304.0 -865.0 L 1298.0 -856.0 L 1292.0 -847.0 L 1286.5 -838.5 L 1281.0 -830.0 L 1277.0 -824.0 L 1278.0 -824.0 L 1278.0 -825.0 L 1279.0 -825.0 L 1281.0 -825.0 L 1276.0 -820.0 L 1273.0 -817.0 L 1272.0 -817.0 L 1272.0 -817.0 L 1277.0 -824.0 L 1273.0 -822.0 L 1263.0 -815.5 L 1253.0 -809.0 L 1239.0 -798.5 L 1225.0 -788.0 L 1209.0 -775.5 L 1193.0 -763.0 L 1177.0 -750.0 L 1161.0 -738.0 L 1148.5 -727.5 L 1136.0 -717.0 L 1125.0 -709.0 L 1114.0 -700.0 L 1106.5 -693.0 L 1099.0 -686.0 L 1095.0 -682.0 L 1095.0 -681.0 L 1093.0 -680.0 L 1093.0 -680.0 L 1093.0 -679.0 L 1099.0 -681.0 L 1103.5 -683.5 L 1108.0 -686.0 L 1112.0 -688.0 L 1117.0 -691.0 L 1118.0 -691.0 L 1118.0 -691.0 L 1115.0 -689.0 L 1114.0 -688.0 L 1110.5 -686.0 L 1107.0 -684.0 L 1104.0 -682.5 L 1101.0 -681.0 L 1098.0 -679.5 L 1095.0 -678.0 L 1094.0 -678.0 L 1093.0 -678.0 L 1093.0 -679.0 L 1081.0 -673.0 L 1065.0 -665.5 L 1049.0 -658.0 L 1032.0 -651.5 L 1015.0 -645.0 L 998.5 -639.5 L 982.0 -634.0 L 969.0 -632.0 L 961.0 -631.0 L 946.5 -630.5 L 932.0 -630.0 L 920.5 -629.5 L 909.0 -629.0 L 903.0 -628.0 L 897.0 -627.0 L 905.0 -624.0 L 913.0 -621.0 L 921.5 -620.0 L 930.0 -619.0 L 939.0 -619.0 L 951.0 -619.0 L 963.5 -620.0 L 976.0 -621.0 L 989.0 -621.0 L 991.0 -621.0 L 994.0 -620.5 L 997.0 -620.0 L 1000.0 -620.0 L 1045.0 -617.0 L 1079.0 -591.0 L 1098.0 -577.0 L 1098.0 -572.0 L 1101.0 -564.0 L 1087.0 -564.0 L 1074.0 -564.0 L 1063.0 -565.5 L 1052.0 -567.0 L 1039.0 -569.0 L 1022.0 -572.0 L 999.0 -574.5 L 976.0 -577.0 L 950.0 -581.0 L 924.0 -585.0 L 901.0 -587.0 L 878.0 -589.0 L 856.0 -589.0 L 852.0 -590.0 L 848.0 -590.0 L 844.0 -590.0 L 840.0 -590.0 L 826.0 -590.0 L 812.0 -589.5 L 798.0 -589.0 L 784.0 -588.0 L 781.0 -587.0 L 776.5 -585.0 L 772.0 -583.0 L 764.0 -583.0 L 759.0 -583.0 Z M 143.0 -711.0 L 145.0 -714.0 L 160.0 -714.0 L 165.0 -714.0 L 177.0 -714.0 L 188.0 -714.0 L 198.0 -713.5 L 208.0 -713.0 L 219.0 -711.0 L 265.0 -703.0 L 334.0 -690.0 L 353.0 -595.0 L 365.0 -534.0 L 376.0 -520.0 L 387.0 -507.0 L 406.0 -503.0 L 411.0 -503.0 L 420.0 -501.0 L 423.0 -501.0 L 425.0 -500.0 L 425.0 -497.0 L 419.0 -490.0 L 409.0 -480.0 L 394.0 -477.5 L 379.0 -475.0 L 366.0 -475.0 L 344.0 -475.0 L 322.0 -480.5 L 300.0 -486.0 L 270.0 -496.0 L 215.0 -516.0 L 195.0 -642.0 L 186.0 -695.0 L 162.0 -695.0 L 148.0 -695.0 L 139.0 -695.0 L 138.0 -696.0 L 134.0 -699.0 Z M 375.0 -712.0 L 375.0 -715.0 L 392.0 -715.0 L 405.0 -715.0 L 416.5 -714.5 L 428.0 -714.0 L 439.0 -712.5 L 450.0 -711.0 L 461.0 -709.0 L 472.0 -707.0 L 484.0 -704.0 L 554.0 -690.0 L 572.0 -595.0 L 583.0 -538.0 L 597.0 -522.0 L 607.0 -507.0 L 626.0 -504.0 L 631.0 -503.0 L 633.5 -502.0 L 636.0 -501.0 L 639.0 -501.0 L 644.0 -501.0 L 644.0 -494.0 L 637.0 -489.5 L 630.0 -485.0 L 621.0 -482.0 L 612.0 -479.0 L 603.0 -477.5 L 594.0 -476.0 L 589.0 -476.0 L 551.0 -476.0 L 491.0 -498.0 L 436.0 -519.0 L 415.0 -647.0 L 407.0 -698.0 L 391.0 -698.0 L 389.0 -698.0 L 381.0 -698.0 L 378.0 -700.0 L 375.0 -702.0 Z" fill="black" fill-opacity="0.25" stroke="black" stroke-width="4.0"/>
  <rect x="0.0" y="-392.0" width="1356.0" height="166.0" fill="none" stroke="red" stroke-width="10.0" /><rect x="129.0" y="-1300.0" width="644.0" height="483.0000000000001" fill="none" stroke="red" stroke-width="10.0" /><rect x="756.0" y="-1047.0" width="645.0" height="483.0" fill="none" stroke="red" stroke-width="10.0" /><rect x="134.0" y="-714.0" width="291.0" height="239.0" fill="none" stroke="red" stroke-width="10.0" /><rect x="375.0" y="-715.0" width="269.0" height="239.0" fill="none" stroke="red" stroke-width="10.0" />
</svg>
