<svg xmlns="http://www.w3.org/2000/svg"
  viewBox="-50 -745 1592 568">
  <rect x="-50" y="-745" width="1592" height="568" fill="white"/>
  <path d="M 435 -457 L 423 -443 L 400 -437 L 377 -430 L 348 -430 L 326 -430 L 307 -432.5 L 288 -435 L 265 -438 L 244 -441 L 230 -446 L 216 -451 L 209 -454 L 163 -473 L 131 -489 L 129 -493 L 127 -497 L 132 -499 L 133 -500 L 145 -501 L 153 -501 L 161.5 -501 L 170 -501 L 182 -498 L 248 -488 L 260 -489 L 279 -489 L 287 -496 L 293 -502 L 293 -514 L 293 -531 L 266 -576 L 240 -621 L 240 -645 L 240 -667 L 255 -680 L 261 -685 L 290 -692 L 303 -695 L 317.5 -695 L 332 -695 L 348 -695 L 365 -695 L 382.5 -695 L 400 -695 L 420 -692 L 456 -687 L 457 -685 L 466 -668 L 466 -659 L 466 -646 L 447 -645 L 437 -645 L 420 -649 L 400 -654 L 393 -654 L 387 -654 L 387 -649 L 387 -631 L 420 -579 L 452 -528 L 452 -499 L 453 -478 Z M 161 -266 L 89 -276 L 0 -366 L 0 -393 L 40 -380 L 82.5 -372.5 L 125 -365 L 173 -363 L 221 -362 L 280.5 -361 L 340 -360 L 418 -360 L 522 -360 L 770 -365 L 1018 -370 L 1147 -369 L 1265 -369 L 1449 -271 L 1459 -258 L 1470.5 -248 L 1482 -238 L 1492 -227 L 1491 -227 L 1483.5 -227 L 1476 -227 L 1464 -230 L 1431 -234 L 1414 -238.5 L 1397 -243 L 1394 -243 L 1295 -250 L 1251 -253 L 1208 -255.5 L 1165 -258 L 1124 -258 L 1064 -258 L 863 -249 L 661 -240 L 562 -240 L 510 -240 L 460.5 -241.5 L 411 -243 L 360 -246 L 310 -249 L 260.5 -254 L 211 -259 Z M 702 -675 L 704 -678 L 724 -678 L 735 -678 L 747.5 -678 L 760 -678 L 777 -675 L 824 -667 L 893 -654 L 911 -559 L 923 -498 L 935 -484 L 946 -471 L 964 -467 L 969 -466 L 979 -465 L 982 -465 L 983 -464 L 983 -461 L 977 -454 L 962 -439 L 927 -439 L 906 -439 L 882 -444.5 L 858 -450 L 829 -460 L 774 -480 L 753 -606 L 744 -659 L 721 -659 L 707 -659 L 698 -659 L 696 -660 L 693 -663 Z M 933 -676 L 933 -679 L 950 -679 L 960 -679 L 971.5 -679 L 983 -679 L 999 -676 L 1015 -673 L 1026 -671 L 1037 -669 L 1043 -668 L 1113 -654 L 1130 -559 L 1141 -501 L 1155 -486 L 1164 -470 L 1185 -468 L 1190 -467 L 1192 -466 L 1194 -465 L 1197 -465 L 1202 -465 L 1202 -461 L 1197 -456 L 1181 -440 L 1148 -440 L 1110 -440 L 1049 -462 L 995 -483 L 974 -611 L 965 -666 L 947 -662 L 933 -659 Z" fill="black" fill-opacity="0.25" stroke="black" stroke-width="4"/>
  <rect x="127" y="-695" width="339" height="265" fill="none" stroke="red" stroke-width="10" /><rect x="0" y="-393" width="1492" height="166" fill="none" stroke="red" stroke-width="10" /><rect x="693" y="-678" width="290" height="239" fill="none" stroke="red" stroke-width="10" /><rect x="933" y="-679" width="269" height="239" fill="none" stroke="red" stroke-width="10" />
</svg>
