<svg xmlns="http://www.w3.org/2000/svg"
  viewBox="-50 -1004 1578.4 825">
  <rect x="-50" y="-1004" width="1578.4" height="825" fill="white"/>
  <path d="M 158 -365 L 202 -364 L 255.5 -362.5 L 309 -361 L 380 -361 L 428 -361 L 507 -362.5 L 586 -364 L 700 -366 L 814 -368 L 898.5 -369.5 L 983 -371 L 1042 -371 L 1149 -371 L 1317 -273 L 1326 -260 L 1336.5 -250 L 1347 -240 L 1356 -229 L 1341 -229 L 1331 -232 L 1301 -236 L 1285.5 -240 L 1270 -244 L 1267 -244 L 1178 -252 L 1136 -255 L 1098 -257.5 L 1060 -260 L 1022 -260 L 994 -260 L 935.5 -258 L 877 -256 L 785 -251 L 692 -246 L 624.5 -243.5 L 557 -241 L 511 -241 L 418 -241 L 328.5 -247 L 239 -253 L 147 -268 L 81 -278 L 0 -368 L 0 -395 L 37 -382 L 75.5 -374 L 114 -366 Z M 834 -498 L 834 -499 L 836 -500 L 837 -500 L 840 -501 L 842 -502 L 838 -508 L 834 -513 L 840 -515 L 886 -532 L 926.5 -545.5 L 967 -559 L 1001 -570.5 L 1035 -582 L 1062.5 -592 L 1090 -602 L 1111 -612 L 1191 -652 L 1236 -726 L 1243 -738 L 1250.5 -755.5 L 1258 -773 L 1266.5 -796.5 L 1275 -820 L 1286.5 -849.5 L 1298 -879 L 1314 -914 L 1315 -917 L 1318.5 -918.5 L 1322 -920 L 1326 -920.5 L 1330 -921 L 1334.5 -921.5 L 1339 -922 L 1344 -924 L 1356 -931 L 1364 -935.5 L 1372 -940 L 1375 -942 L 1388 -948 L 1396.5 -950.5 L 1405 -953 L 1408 -954 L 1421 -954 L 1426 -954 L 1431 -953.5 L 1436 -953 L 1442 -951 L 1446 -950 L 1450.5 -949.5 L 1455 -949 L 1460 -948 L 1465 -947 L 1469.5 -945.5 L 1474 -944 L 1478 -940 L 1479 -939 L 1477.5 -937.5 L 1476 -936 L 1473.5 -934.5 L 1471 -933 L 1468 -932 L 1465 -931 L 1464 -929 L 1425 -904 L 1423 -897 L 1415 -863 L 1408 -839 L 1401 -815 L 1393 -795 L 1391 -789 L 1386.5 -780.5 L 1382 -772 L 1376 -763 L 1370 -754 L 1364.5 -745.5 L 1359 -737 L 1355 -732 L 1355 -732 L 1356 -732 L 1357 -733 L 1359 -733 L 1354 -728 L 1351 -725 L 1350 -724 L 1350 -724 L 1355 -732 L 1351 -730 L 1341 -723 L 1331 -716 L 1317 -705.5 L 1303 -695 L 1287 -682.5 L 1271 -670 L 1255 -657 L 1233 -640 L 1211.5 -623 L 1190 -606 L 1171 -587 L 1171 -587 L 1171 -586 L 1177 -588 L 1181.5 -590.5 L 1186 -593 L 1190 -595 L 1195 -598 L 1196 -598 L 1195 -597 L 1193 -596 L 1192 -595 L 1188.5 -593 L 1185 -591 L 1182 -589.5 L 1179 -588 L 1176 -587 L 1173 -586 L 1172 -586 L 1171 -586 L 1171 -586 L 1159 -580 L 1143 -573 L 1127 -566 L 1110 -559 L 1093 -552 L 1076.5 -546.5 L 1060 -541 L 1047 -539 L 1039 -538 L 1025 -537.5 L 1011 -537 L 999 -536.5 L 987 -536 L 981 -535 L 975 -534 L 983 -531 L 991 -528 L 999.5 -527 L 1008 -526 L 1017 -526 L 1029 -526 L 1042 -527 L 1055 -528 L 1067 -528 L 1069 -528 L 1072.5 -527.5 L 1076 -527 L 1078 -527 L 1123 -524 L 1158 -498 L 1177 -484 L 1176 -479 L 1179 -471 L 1165 -471 L 1152 -471 L 1141 -472.5 L 1130 -474 L 1117 -476 L 1100 -479 L 1077.5 -482 L 1055 -485 L 1028 -488 L 1002 -492 L 979 -494 L 956 -496 L 934 -496 L 932 -497 L 929.5 -497 L 927 -497 L 924 -497 L 908 -497 L 893 -496.5 L 878 -496 L 862 -495 L 859 -494 L 854.5 -492 L 850 -490 L 842 -490 L 837 -490 Z M 259 -675 L 261 -678 L 274 -678 L 290 -678 L 299 -678 L 308 -677.5 L 317 -677 L 327 -675 L 369 -668 L 431 -657 L 448 -571 L 459 -515 L 469 -503 L 477 -493 L 486.5 -490 L 496 -487 L 509 -486 L 509 -486 L 513 -485 L 512 -479 L 505.5 -474.5 L 499 -470 L 490.5 -467.5 L 482 -465 L 473.5 -464 L 465 -463 L 460 -463 L 440 -463 L 420 -468 L 400 -473 L 373 -482 L 324 -500 L 306 -613 L 298 -661 L 276 -661 L 264 -661 L 256 -661 L 254 -662 L 251 -664 Z M 480 -676 L 480 -678 L 495 -679 L 518 -679 L 537 -676.5 L 556 -674 L 578 -670 L 640 -657 L 657 -571 L 667 -519 L 680 -505 L 688 -491 L 706 -489 L 710 -488 L 712.5 -487 L 715 -486 L 718 -486 L 722 -486 L 722 -480 L 716 -476 L 710 -472 L 701.5 -469 L 693 -466 L 685 -465 L 677 -464 L 673 -464 L 640 -464 L 584 -484 L 535 -503 L 516 -617 L 509 -663 L 494 -664 L 493 -664 L 487 -664 L 483.5 -665.5 L 480 -667 Z" fill="black" fill-opacity="0.25" stroke="black" stroke-width="4"/>
  <rect x="0" y="-395" width="1356" height="166" fill="none" stroke="red" stroke-width="10" /><rect x="251" y="-678" width="262" height="215" fill="none" stroke="red" stroke-width="10" /><rect x="480" y="-679" width="242" height="215" fill="none" stroke="red" stroke-width="10" /><rect x="834" y="-632" width="388.9" height="161" fill="none" stroke="red" stroke-width="10" /><rect x="1151" y="-793" width="241.3" height="161" fill="none" stroke="red" stroke-width="10" /><rect x="1265.2" y="-954" width="213.8" height="161" fill="none" stroke="red" stroke-width="10" />
</svg>
