<svg xmlns="http://www.w3.org/2000/svg"
  viewBox="-50.0 -716.0 1456.0 538.0">
  <rect x="-50.0" y="-716.0" width="1456.0" height="538.0" fill="white"/>
  <path d="M 275.0 -647.0 L 288.0 -650.0 L 299.0 -655.0 L 310.0 -660.0 L 322.0 -663.0 L 344.0 -664.0 L 378.5 -665.0 L 413.0 -666.0 L 460.0 -666.0 L 516.0 -666.0 L 590.0 -652.0 L 611.0 -648.0 L 632.0 -641.5 L 653.0 -635.0 L 674.0 -630.0 L 755.0 -610.0 L 808.0 -572.0 L 861.0 -534.0 L 861.0 -491.0 L 861.0 -469.0 L 847.0 -450.0 L 842.0 -444.0 L 819.0 -444.0 L 802.0 -444.0 L 778.0 -447.0 L 754.0 -450.0 L 720.0 -457.0 L 709.0 -459.0 L 694.5 -462.0 L 680.0 -465.0 L 661.0 -469.0 L 681.0 -479.0 L 695.0 -497.0 L 710.0 -516.0 L 705.0 -529.0 L 695.0 -552.0 L 657.0 -572.5 L 619.0 -593.0 L 553.0 -605.0 L 483.0 -618.0 L 414.0 -627.0 L 345.0 -636.0 Z M 147.0 -267.0 L 82.0 -277.0 L 0.0 -367.0 L 0.0 -394.0 L 36.0 -381.0 L 75.0 -373.0 L 114.0 -365.0 L 157.0 -364.0 L 201.0 -363.0 L 255.0 -362.0 L 309.0 -361.0 L 380.0 -361.0 L 475.0 -361.0 L 700.0 -365.0 L 925.0 -370.0 L 1042.0 -370.0 L 1149.0 -370.0 L 1317.0 -272.0 L 1326.0 -259.0 L 1336.5 -249.0 L 1347.0 -239.0 L 1356.0 -228.0 L 1355.0 -228.0 L 1348.5 -228.0 L 1342.0 -228.0 L 1331.0 -231.0 L 1301.0 -235.0 L 1285.5 -239.0 L 1270.0 -243.0 L 1267.0 -243.0 L 1178.0 -251.0 L 1137.0 -254.0 L 1098.0 -256.5 L 1059.0 -259.0 L 1022.0 -259.0 L 967.0 -259.0 L 784.0 -250.0 L 601.0 -241.0 L 511.0 -240.0 L 464.0 -240.0 L 418.5 -241.5 L 373.0 -243.0 L 328.0 -247.0 L 283.0 -250.0 L 237.5 -255.0 L 192.0 -260.0 Z" fill="black" fill-opacity="0.25" stroke="black" stroke-width="4.0"/>
  <rect x="275.0" y="-666.0" width="586.0" height="222.00000000000003" fill="none" stroke="red" stroke-width="10.0" /><rect x="0.0" y="-394.0" width="1356.0" height="166.0" fill="none" stroke="red" stroke-width="10.0" />
</svg>
