<svg xmlns="http://www.w3.org/2000/svg"
  viewBox="-50.0 -1029.0 1480.5 854.0">
  <rect x="-50.0" y="-1029.0" width="1480.5" height="854.0" fill="white"/>
  <path d="M 158.0 -362.0 L 202.0 -361.0 L 255.5 -359.5 L 309.0 -358.0 L 380.0 -358.0 L 428.0 -358.0 L 507.0 -359.5 L 586.0 -361.0 L 700.0 -363.0 L 814.0 -365.0 L 898.5 -366.5 L 983.0 -368.0 L 1043.0 -368.0 L 1150.0 -368.0 L 1317.0 -269.0 L 1326.0 -256.0 L 1336.5 -246.5 L 1347.0 -237.0 L 1357.0 -225.0 L 1343.0 -225.0 L 1332.0 -229.0 L 1302.0 -233.0 L 1286.5 -237.0 L 1271.0 -241.0 L 1267.0 -241.0 L 1178.0 -249.0 L 1136.0 -252.0 L 1098.0 -254.5 L 1060.0 -257.0 L 1022.0 -257.0 L 994.0 -257.0 L 935.5 -254.5 L 877.0 -252.0 L 785.0 -247.0 L 692.0 -242.0 L 624.5 -240.0 L 557.0 -238.0 L 511.0 -238.0 L 419.0 -238.0 L 328.5 -244.0 L 238.0 -250.0 L 147.0 -265.0 L 81.0 -275.0 L 0.0 -365.0 L 0.0 -392.0 L 37.0 -379.0 L 75.5 -371.0 L 114.0 -363.0 Z M 81.0 -507.0 L 76.0 -507.0 L 73.0 -515.0 L 73.0 -516.0 L 74.0 -517.0 L 75.0 -517.0 L 79.0 -518.0 L 81.0 -519.0 L 77.0 -525.0 L 73.0 -530.0 L 79.0 -532.0 L 126.0 -549.0 L 166.0 -562.5 L 206.0 -576.0 L 240.0 -587.5 L 274.0 -599.0 L 301.5 -609.0 L 329.0 -619.0 L 349.0 -629.0 L 429.0 -671.0 L 474.0 -743.0 L 481.0 -755.0 L 488.5 -772.5 L 496.0 -790.0 L 505.0 -813.5 L 514.0 -837.0 L 525.5 -866.0 L 537.0 -895.0 L 552.0 -931.0 L 553.0 -934.0 L 557.0 -935.0 L 561.0 -936.0 L 565.0 -936.5 L 569.0 -937.0 L 573.5 -938.0 L 578.0 -939.0 L 582.0 -941.0 L 594.0 -948.0 L 602.0 -952.5 L 610.0 -957.0 L 613.0 -958.0 L 626.0 -964.0 L 634.5 -967.0 L 643.0 -970.0 L 646.0 -971.0 L 659.0 -971.0 L 664.0 -971.0 L 669.5 -970.5 L 675.0 -970.0 L 680.0 -968.0 L 684.0 -967.0 L 688.5 -966.5 L 693.0 -966.0 L 698.0 -965.0 L 703.0 -964.0 L 707.5 -962.5 L 712.0 -961.0 L 716.0 -957.0 L 719.0 -954.0 L 713.0 -951.5 L 707.0 -949.0 L 702.0 -946.0 L 665.0 -921.0 L 662.0 -913.0 L 657.0 -892.0 L 652.0 -872.5 L 647.0 -853.0 L 640.5 -834.5 L 634.0 -816.0 L 625.0 -798.0 L 616.0 -780.0 L 603.0 -762.0 L 601.0 -758.0 L 598.5 -755.0 L 596.0 -752.0 L 594.0 -748.0 L 594.0 -748.0 L 596.0 -749.0 L 597.0 -749.0 L 593.0 -745.0 L 589.0 -741.0 L 589.0 -741.0 L 594.0 -748.0 L 590.0 -746.0 L 579.5 -739.5 L 569.0 -733.0 L 555.5 -722.5 L 542.0 -712.0 L 525.5 -699.5 L 509.0 -687.0 L 493.0 -674.0 L 477.0 -662.0 L 464.5 -652.0 L 452.0 -642.0 L 441.0 -633.0 L 430.0 -624.0 L 423.0 -617.0 L 416.0 -610.0 L 412.0 -606.0 L 412.0 -605.0 L 410.0 -604.0 L 410.0 -604.0 L 409.0 -603.0 L 415.0 -605.0 L 419.5 -607.5 L 424.0 -610.0 L 428.0 -612.0 L 433.0 -615.0 L 434.0 -615.0 L 434.0 -615.0 L 432.0 -613.0 L 431.0 -612.0 L 427.5 -610.0 L 424.0 -608.0 L 421.0 -606.5 L 418.0 -605.0 L 415.0 -603.5 L 412.0 -602.0 L 410.0 -602.0 L 409.0 -602.0 L 409.0 -603.0 L 397.0 -597.0 L 381.0 -589.5 L 365.0 -582.0 L 348.5 -575.5 L 332.0 -569.0 L 315.0 -563.5 L 298.0 -558.0 L 285.0 -556.0 L 276.0 -555.0 L 262.5 -554.5 L 249.0 -554.0 L 237.5 -553.5 L 226.0 -553.0 L 220.0 -552.0 L 214.0 -551.0 L 221.0 -548.0 L 229.0 -545.0 L 238.0 -544.0 L 247.0 -543.0 L 255.0 -543.0 L 267.0 -543.0 L 279.5 -544.0 L 292.0 -545.0 L 304.0 -545.0 L 307.0 -545.0 L 310.5 -545.0 L 314.0 -545.0 L 316.0 -544.0 L 361.0 -541.0 L 396.0 -515.0 L 415.0 -501.0 L 415.0 -496.0 L 418.0 -488.0 L 404.0 -488.0 L 391.0 -488.0 L 379.5 -489.5 L 368.0 -491.0 L 356.0 -493.0 L 339.0 -496.0 L 316.0 -498.5 L 293.0 -501.0 L 266.0 -505.0 L 240.0 -509.0 L 217.0 -511.0 L 194.0 -513.0 L 172.0 -513.0 L 168.0 -514.0 L 164.0 -514.0 L 160.0 -514.0 L 156.0 -514.0 L 142.0 -514.0 L 128.5 -513.5 L 115.0 -513.0 L 101.0 -512.0 L 98.0 -511.0 L 93.5 -509.0 L 89.0 -507.0 Z M 737.0 -523.0 L 737.0 -524.0 L 738.0 -524.0 L 739.0 -524.0 L 743.0 -526.0 L 745.0 -527.0 L 741.0 -533.0 L 737.0 -538.0 L 743.0 -540.0 L 790.0 -557.0 L 830.0 -570.0 L 870.0 -583.0 L 904.0 -594.5 L 938.0 -606.0 L 965.5 -616.0 L 993.0 -626.0 L 1013.0 -637.0 L 1093.0 -678.0 L 1138.0 -751.0 L 1145.0 -763.0 L 1152.5 -780.5 L 1160.0 -798.0 L 1169.0 -821.5 L 1178.0 -845.0 L 1189.5 -874.0 L 1201.0 -903.0 L 1216.0 -938.0 L 1217.0 -941.0 L 1221.0 -942.5 L 1225.0 -944.0 L 1229.0 -944.5 L 1233.0 -945.0 L 1237.5 -946.0 L 1242.0 -947.0 L 1246.0 -949.0 L 1258.0 -956.0 L 1266.0 -960.5 L 1274.0 -965.0 L 1277.0 -966.0 L 1290.0 -972.0 L 1298.5 -974.5 L 1307.0 -977.0 L 1310.0 -979.0 L 1323.0 -979.0 L 1328.0 -979.0 L 1333.5 -978.5 L 1339.0 -978.0 L 1344.0 -976.0 L 1348.0 -975.0 L 1352.5 -974.5 L 1357.0 -974.0 L 1362.0 -973.0 L 1367.0 -972.0 L 1372.0 -970.5 L 1377.0 -969.0 L 1380.0 -965.0 L 1381.0 -964.0 L 1380.0 -962.0 L 1379.0 -960.0 L 1376.5 -959.0 L 1374.0 -958.0 L 1371.0 -956.5 L 1368.0 -955.0 L 1366.0 -954.0 L 1329.0 -928.0 L 1326.0 -921.0 L 1321.0 -900.0 L 1316.0 -880.5 L 1311.0 -861.0 L 1304.5 -842.5 L 1298.0 -824.0 L 1289.0 -806.0 L 1280.0 -788.0 L 1267.0 -770.0 L 1265.0 -766.0 L 1262.5 -763.0 L 1260.0 -760.0 L 1258.0 -756.0 L 1258.0 -756.0 L 1260.0 -757.0 L 1261.0 -757.0 L 1257.0 -752.0 L 1253.0 -748.0 L 1253.0 -748.0 L 1258.0 -756.0 L 1254.0 -754.0 L 1243.5 -747.5 L 1233.0 -741.0 L 1219.5 -730.5 L 1206.0 -720.0 L 1189.5 -707.5 L 1173.0 -695.0 L 1157.0 -682.0 L 1141.0 -670.0 L 1128.5 -659.5 L 1116.0 -649.0 L 1106.0 -641.0 L 1095.0 -632.0 L 1087.5 -625.0 L 1080.0 -618.0 L 1076.0 -614.0 L 1076.0 -613.0 L 1074.0 -612.0 L 1074.0 -612.0 L 1073.0 -611.0 L 1079.0 -613.0 L 1083.5 -615.5 L 1088.0 -618.0 L 1092.0 -620.0 L 1097.0 -623.0 L 1098.0 -622.0 L 1098.0 -622.0 L 1096.0 -621.0 L 1095.0 -620.0 L 1091.5 -618.0 L 1088.0 -616.0 L 1085.0 -614.5 L 1082.0 -613.0 L 1079.0 -611.5 L 1076.0 -610.0 L 1074.0 -610.0 L 1073.0 -610.0 L 1073.0 -611.0 L 1061.0 -605.0 L 1045.0 -597.5 L 1029.0 -590.0 L 1012.5 -583.5 L 996.0 -577.0 L 979.0 -571.5 L 962.0 -566.0 L 949.0 -563.0 L 940.0 -562.0 L 926.5 -561.5 L 913.0 -561.0 L 901.5 -560.5 L 890.0 -560.0 L 884.0 -559.0 L 878.0 -558.0 L 885.0 -556.0 L 893.0 -553.0 L 902.0 -552.0 L 911.0 -551.0 L 919.0 -551.0 L 931.0 -551.0 L 943.5 -552.0 L 956.0 -553.0 L 968.0 -553.0 L 971.0 -553.0 L 974.5 -553.0 L 978.0 -553.0 L 981.0 -552.0 L 1026.0 -549.0 L 1060.0 -523.0 L 1079.0 -509.0 L 1079.0 -504.0 L 1082.0 -496.0 L 1068.0 -496.0 L 1055.0 -496.0 L 1043.5 -497.0 L 1032.0 -498.0 L 1020.0 -501.0 L 1003.0 -504.0 L 980.0 -506.5 L 957.0 -509.0 L 930.0 -513.0 L 904.0 -517.0 L 881.0 -519.0 L 858.0 -521.0 L 836.0 -521.0 L 832.0 -522.0 L 828.0 -522.0 L 824.0 -522.0 L 820.0 -522.0 L 806.0 -522.0 L 792.5 -521.5 L 779.0 -521.0 L 765.0 -519.0 L 762.0 -518.0 L 757.0 -516.5 L 752.0 -515.0 L 745.0 -515.0 L 740.0 -515.0 Z" fill="black" fill-opacity="0.25" stroke="black" stroke-width="4.0"/>
  <rect x="0.0" y="-392.0" width="1357.0" height="167.0" fill="none" stroke="red" stroke-width="10.0" /><rect x="73.0" y="-971.0" width="646.0" height="483.0" fill="none" stroke="red" stroke-width="10.0" /><rect x="737.0" y="-979.0" width="644.0" height="483.0" fill="none" stroke="red" stroke-width="10.0" />
</svg>
