<svg xmlns="http://www.w3.org/2000/svg"
  viewBox="-50.00043402777778 -712.0 1392.8253968253969 539.578947368421">
  <rect x="-50.00043402777778" y="-712.0" width="1392.8253968253969" height="539.578947368421" fill="white"/>
  <path d="M 670.77734375 -660.0 L 704.77734375 -660.0 L 741.77734375 -659.0 L 779.77734375 -659.0 L 810.77734375 -655.0 L 831.77734375 -655.0 L 850.77734375 -604.0 L 869.77734375 -553.0 L 903.77734375 -502.0 L 915.77734375 -484.0 L 925.77734375 -483.0 L 934.77734375 -481.0 L 939.77734375 -474.5 L 944.77734375 -468.0 L 929.77734375 -463.0 L 894.77734375 -458.0 L 859.77734375 -459.0 L 824.77734375 -460.0 L 792.77734375 -463.0 L 761.77734375 -473.0 L 748.77734375 -509.5 L 735.77734375 -546.0 L 700.77734375 -617.0 L 690.77734375 -633.0 L 666.77734375 -637.0 L 650.77734375 -639.0 L 648.77734375 -649.5 L 646.77734375 -660.0 Z M 421.77734375 -662.0 L 451.77734375 -662.0 L 484.77734375 -661.0 L 517.77734375 -660.0 L 543.77734375 -656.0 L 562.77734375 -656.0 L 583.77734375 -603.5 L 604.77734375 -551.0 L 632.77734375 -501.0 L 642.77734375 -483.0 L 651.77734375 -481.0 L 659.77734375 -479.0 L 664.27734375 -473.0 L 668.77734375 -467.0 L 655.77734375 -462.0 L 624.77734375 -457.0 L 594.27734375 -458.0 L 563.77734375 -459.0 L 535.77734375 -462.0 L 509.77734375 -472.0 L 494.77734375 -509.0 L 479.77734375 -546.0 L 448.77734375 -618.0 L 445.77734375 -622.0 L 437.77734375 -630.5 L 429.77734375 -639.0 L 418.77734375 -641.0 L 404.77734375 -643.0 L 402.77734375 -652.0 L 400.77734375 -661.0 Z M 2.77734375 -384.0 L 7.77734375 -392.0 L 14.27734375 -392.5 L 20.77734375 -393.0 L 27.77734375 -389.0 L 34.77734375 -385.0 L 45.77734375 -379.5 L 56.77734375 -374.0 L 73.77734375 -370.5 L 90.77734375 -367.0 L 121.77734375 -367.0 L 1101.77734375 -367.0 L 1129.77734375 -367.0 L 1152.77734375 -362.5 L 1175.77734375 -358.0 L 1194.77734375 -348.0 L 1213.77734375 -338.0 L 1224.27734375 -330.0 L 1234.77734375 -322.0 L 1253.27734375 -302.5 L 1271.77734375 -283.0 L 1284.77734375 -265.0 L 1297.77734375 -247.0 L 1289.77734375 -230.0 L 1281.77734375 -218.0 L 1271.27734375 -225.0 L 1260.77734375 -232.0 L 1246.77734375 -237.0 L 1232.77734375 -242.0 L 1216.27734375 -244.0 L 1199.77734375 -246.0 L 1164.77734375 -246.0 L 199.77734375 -246.0 L 176.77734375 -246.0 L 157.77734375 -249.0 L 138.77734375 -252.0 L 128.27734375 -255.5 L 117.77734375 -259.0 L 105.77734375 -265.0 L 93.77734375 -271.0 L 80.27734375 -279.5 L 66.77734375 -288.0 L 51.77734375 -303.5 L 36.77734375 -319.0 L 21.27734375 -339.5 L 5.77734375 -360.0 L 1.77734375 -368.0 L -2.22265625 -376.0 Z" fill="black" fill-opacity="0.25" stroke="black" stroke-width="4.0"/>
  <rect x="647.0" y="-660.0" width="297.99999999999994" height="202.0" fill="none" stroke="red" stroke-width="10.0" /><rect x="401.0" y="-662.0" width="268.0" height="205.00000000000003" fill="none" stroke="red" stroke-width="10.0" /><rect x="-2.0" y="-393.0" width="1300.0" height="175.00000000000003" fill="none" stroke="red" stroke-width="10.0" />
</svg>
