<svg xmlns="http://www.w3.org/2000/svg"
  viewBox="-50.0 -766.0 1443.0 587.0">
  <rect x="-50.0" y="-766.0" width="1443.0" height="587.0" fill="white"/>
  <path d="M 974.0 -479.0 L 962.0 -464.0 L 940.0 -458.0 L 917.0 -452.0 L 887.0 -452.0 L 865.0 -452.0 L 846.0 -454.0 L 827.0 -456.0 L 804.0 -460.0 L 783.0 -463.0 L 769.5 -467.5 L 756.0 -472.0 L 748.0 -475.0 L 703.0 -494.0 L 671.0 -510.0 L 668.0 -514.0 L 666.0 -518.0 L 671.0 -521.0 L 672.0 -522.0 L 684.0 -522.0 L 692.0 -522.0 L 700.5 -522.0 L 709.0 -522.0 L 721.0 -519.0 L 787.0 -509.0 L 799.0 -510.0 L 818.0 -510.0 L 826.0 -518.0 L 832.0 -523.0 L 832.0 -535.0 L 832.0 -552.0 L 806.0 -597.0 L 780.0 -642.0 L 779.0 -666.0 L 779.0 -687.0 L 795.0 -702.0 L 801.0 -707.0 L 829.0 -713.0 L 842.0 -716.0 L 856.5 -716.0 L 871.0 -716.0 L 887.0 -716.0 L 904.0 -716.0 L 922.0 -716.0 L 940.0 -716.0 L 959.0 -713.0 L 995.0 -708.0 L 996.0 -707.0 L 1005.0 -690.0 L 1006.0 -680.0 L 1006.0 -667.0 L 987.0 -666.0 L 977.0 -666.0 L 959.0 -671.0 L 939.0 -676.0 L 932.0 -676.0 L 926.0 -676.0 L 926.0 -671.0 L 926.0 -653.0 L 959.0 -600.0 L 991.0 -549.0 L 992.0 -521.0 L 992.0 -500.0 Z M 146.0 -268.0 L 81.0 -278.0 L 0.0 -368.0 L 0.0 -395.0 L 36.0 -382.0 L 74.5 -374.0 L 113.0 -366.0 L 156.0 -365.0 L 199.0 -364.0 L 253.0 -363.0 L 307.0 -362.0 L 376.0 -362.0 L 470.0 -362.0 L 694.0 -366.0 L 917.0 -371.0 L 1033.0 -371.0 L 1139.0 -371.0 L 1305.0 -273.0 L 1314.0 -260.0 L 1324.0 -250.0 L 1334.0 -240.0 L 1343.0 -229.0 L 1342.0 -229.0 L 1335.5 -229.0 L 1329.0 -229.0 L 1319.0 -232.0 L 1290.0 -236.0 L 1274.0 -240.0 L 1258.0 -244.0 L 1255.0 -244.0 L 1166.0 -252.0 L 1126.0 -255.0 L 1087.5 -257.5 L 1049.0 -260.0 L 1012.0 -260.0 L 958.0 -260.0 L 777.0 -251.0 L 595.0 -242.0 L 507.0 -241.0 L 460.0 -241.0 L 415.0 -242.5 L 370.0 -244.0 L 325.0 -248.0 L 280.0 -251.0 L 235.5 -256.0 L 191.0 -261.0 Z" fill="black" fill-opacity="0.25" stroke="black" stroke-width="4.0"/>
  <rect x="666.0" y="-716.0" width="339.99999999999994" height="263.99999999999994" fill="none" stroke="red" stroke-width="10.0" /><rect x="0.0" y="-395.0" width="1343.0" height="166.0" fill="none" stroke="red" stroke-width="10.0" />
</svg>
