<svg xmlns="http://www.w3.org/2000/svg"
  viewBox="-50 -914 1456 737">
  <rect x="-50" y="-914" width="1456" height="737" fill="white"/>
  <path d="M 0 -366 L 0 -393 L 37 -380 L 75 -372 L 113 -364 L 157 -363 L 201 -362 L 255 -361 L 309 -360 L 380 -360 L 428 -360 L 507.5 -361 L 587 -362 L 700 -364 L 813 -366 L 898 -367.5 L 983 -369 L 1042 -369 L 1149 -369 L 1317 -271 L 1326 -258 L 1336.5 -248 L 1347 -238 L 1356 -227 L 1343 -227 L 1331 -230 L 1301 -234 L 1285.5 -238 L 1270 -242 L 1267 -242 L 1178 -250 L 1137 -253 L 1098.5 -255.5 L 1060 -258 L 1022 -258 L 994 -258 L 935 -256 L 876 -254 L 784 -249 L 692 -244 L 624 -241.5 L 556 -239 L 511 -239 L 419 -239 L 328 -245 L 237 -251 L 147 -266 L 81 -276 Z M 62 -742 L 62 -770 L 75.5 -790 L 89 -810 L 111 -823.5 L 133 -837 L 161 -845 L 189 -853 L 217.5 -857.5 L 246 -862 L 272.5 -863 L 299 -864 L 319 -864 L 371 -864 L 425.5 -859.5 L 480 -855 L 539 -845 L 599 -836 L 657 -821 L 715 -806 L 776 -789 L 835 -772 L 901 -739.5 L 967 -707 L 1042 -658 L 1188 -562 L 1187 -520 L 1187 -501 L 1151 -502 L 1104 -502 L 1054 -508.5 L 1004 -515 L 958 -525 L 970 -629 L 794 -713 L 627 -793 L 454 -792 L 437 -792 L 416.5 -790.5 L 396 -789 L 374.5 -785 L 353 -781 L 332.5 -774 L 312 -767 L 295.5 -755.5 L 279 -744 L 268.5 -728 L 258 -712 L 257 -689 L 256 -658 L 303 -622 L 361 -577 L 366 -575 L 227 -576 L 157 -605 L 110 -625 L 79 -674 L 62 -713 Z M 339 -643 L 352 -646 L 363 -651 L 374 -656 L 386 -659 L 422 -661 L 457.5 -661.5 L 493 -662 L 529 -662 L 556 -662 L 587 -658.5 L 618 -655 L 653 -648 L 675 -644 L 696 -637.5 L 717 -631 L 737 -626 L 752 -623 L 772 -616.5 L 792 -610 L 813 -601 L 834 -592 L 854.5 -580.5 L 875 -569 L 890.5 -554.5 L 906 -540 L 915.5 -523.5 L 925 -507 L 925 -487 L 924 -465 L 911 -446 L 906 -440 L 883 -440 L 866 -440 L 842 -443 L 818 -446 L 784 -453 L 773 -455 L 758.5 -458 L 744 -461 L 725 -465 L 735 -470 L 743.5 -477 L 752 -484 L 759 -493 L 774 -511 L 769 -525 L 759 -548 L 721 -568.5 L 683 -589 L 617 -601 L 546 -614 L 478 -623 L 410 -632 Z" fill="black" fill-opacity="0.25" stroke="black" stroke-width="4"/>
  <rect x="0" y="-393" width="1356" height="166" fill="none" stroke="red" stroke-width="10" /><rect x="62" y="-864" width="1126" height="363" fill="none" stroke="red" stroke-width="10" /><rect x="339" y="-662" width="586" height="222" fill="none" stroke="red" stroke-width="10" />
</svg>
