<svg xmlns="http://www.w3.org/2000/svg"
  viewBox="-50.0 -914.0 1456.0 737.0">
  <rect x="-50.0" y="-914.0" width="1456.0" height="737.0" fill="white"/>
  <path d="M 0.0 -366.0 L 0.0 -393.0 L 37.0 -380.0 L 75.0 -372.0 L 113.0 -364.0 L 157.0 -363.0 L 201.0 -362.0 L 255.0 -361.0 L 309.0 -360.0 L 380.0 -360.0 L 428.0 -360.0 L 507.5 -361.0 L 587.0 -362.0 L 700.0 -364.0 L 813.0 -366.0 L 898.0 -367.5 L 983.0 -369.0 L 1042.0 -369.0 L 1149.0 -369.0 L 1317.0 -271.0 L 1326.0 -258.0 L 1336.5 -248.0 L 1347.0 -238.0 L 1356.0 -227.0 L 1343.0 -227.0 L 1331.0 -230.0 L 1301.0 -234.0 L 1285.5 -238.0 L 1270.0 -242.0 L 1267.0 -242.0 L 1178.0 -250.0 L 1137.0 -253.0 L 1098.5 -255.5 L 1060.0 -258.0 L 1022.0 -258.0 L 994.0 -258.0 L 935.0 -256.0 L 876.0 -254.0 L 784.0 -249.0 L 692.0 -244.0 L 624.0 -241.5 L 556.0 -239.0 L 511.0 -239.0 L 419.0 -239.0 L 328.0 -245.0 L 237.0 -251.0 L 147.0 -266.0 L 81.0 -276.0 Z M 62.0 -742.0 L 62.0 -770.0 L 75.5 -790.0 L 89.0 -810.0 L 111.0 -823.5 L 133.0 -837.0 L 161.0 -845.0 L 189.0 -853.0 L 217.5 -857.5 L 246.0 -862.0 L 272.5 -863.0 L 299.0 -864.0 L 319.0 -864.0 L 371.0 -864.0 L 425.5 -859.5 L 480.0 -855.0 L 539.0 -845.0 L 599.0 -836.0 L 657.0 -821.0 L 715.0 -806.0 L 776.0 -789.0 L 835.0 -772.0 L 901.0 -739.5 L 967.0 -707.0 L 1042.0 -658.0 L 1188.0 -562.0 L 1187.0 -520.0 L 1187.0 -501.0 L 1151.0 -502.0 L 1104.0 -502.0 L 1054.0 -508.5 L 1004.0 -515.0 L 958.0 -525.0 L 970.0 -629.0 L 794.0 -713.0 L 627.0 -793.0 L 454.0 -792.0 L 437.0 -792.0 L 416.5 -790.5 L 396.0 -789.0 L 374.5 -785.0 L 353.0 -781.0 L 332.5 -774.0 L 312.0 -767.0 L 295.5 -755.5 L 279.0 -744.0 L 268.5 -728.0 L 258.0 -712.0 L 257.0 -689.0 L 256.0 -658.0 L 303.0 -622.0 L 361.0 -577.0 L 366.0 -575.0 L 227.0 -576.0 L 157.0 -605.0 L 110.0 -625.0 L 79.0 -674.0 L 62.0 -713.0 Z M 339.0 -643.0 L 352.0 -646.0 L 363.0 -651.0 L 374.0 -656.0 L 386.0 -659.0 L 422.0 -661.0 L 457.5 -661.5 L 493.0 -662.0 L 529.0 -662.0 L 556.0 -662.0 L 587.0 -658.5 L 618.0 -655.0 L 653.0 -648.0 L 675.0 -644.0 L 696.0 -637.5 L 717.0 -631.0 L 737.0 -626.0 L 752.0 -623.0 L 772.0 -616.5 L 792.0 -610.0 L 813.0 -601.0 L 834.0 -592.0 L 854.5 -580.5 L 875.0 -569.0 L 890.5 -554.5 L 906.0 -540.0 L 915.5 -523.5 L 925.0 -507.0 L 925.0 -487.0 L 924.0 -465.0 L 911.0 -446.0 L 906.0 -440.0 L 883.0 -440.0 L 866.0 -440.0 L 842.0 -443.0 L 818.0 -446.0 L 784.0 -453.0 L 773.0 -455.0 L 758.5 -458.0 L 744.0 -461.0 L 725.0 -465.0 L 735.0 -470.0 L 743.5 -477.0 L 752.0 -484.0 L 759.0 -493.0 L 774.0 -511.0 L 769.0 -525.0 L 759.0 -548.0 L 721.0 -568.5 L 683.0 -589.0 L 617.0 -601.0 L 546.0 -614.0 L 478.0 -623.0 L 410.0 -632.0 Z" fill="black" fill-opacity="0.25" stroke="black" stroke-width="4.0"/>
  <rect x="0.0" y="-393.0" width="1356.0" height="166.0" fill="none" stroke="red" stroke-width="10.0" /><rect x="62.0" y="-864.0" width="1126.0" height="363.0" fill="none" stroke="red" stroke-width="10.0" /><rect x="339.0" y="-662.0" width="586.0000000000001" height="222.00000000000003" fill="none" stroke="red" stroke-width="10.0" />
</svg>
