<svg xmlns="http://www.w3.org/2000/svg"
  viewBox="-50 -815 1500 635">
  <rect x="-50" y="-815" width="1500" height="635" fill="white"/>
  <path d="M 191 -269 L 126 -279 L 44 -369 L 44 -396 L 80 -383 L 119 -375 L 158 -367 L 201 -366 L 245 -365 L 299 -364 L 353 -363 L 424 -363 L 519 -363 L 744 -367 L 969 -372 L 1086 -372 L 1193 -372 L 1361 -274 L 1370 -261 L 1380.5 -251 L 1391 -241 L 1400 -230 L 1399 -230 L 1392.5 -230 L 1386 -230 L 1375 -233 L 1345 -237 L 1329.5 -241 L 1314 -245 L 1311 -245 L 1222 -253 L 1181 -256 L 1142 -258.5 L 1103 -261 L 1066 -261 L 1011 -261 L 828 -252 L 645 -243 L 555 -242 L 508 -242 L 462.5 -243.5 L 417 -245 L 372 -249 L 327 -252 L 281.5 -257 L 236 -262 Z M 88 -762 L 97 -765 L 109.5 -765 L 122 -765 L 139 -765 L 194 -765 L 250 -752 L 306 -739 L 365 -709 L 444 -651 L 433 -651 L 412 -653 L 391 -655 L 358 -657 L 327 -660 L 303.5 -661.5 L 280 -663 L 266 -664 L 236 -664 L 213 -656 L 194 -649 L 194 -633 L 194 -625 L 200 -614 L 208 -600 L 212.5 -590 L 217 -580 L 223 -578 L 240 -572 L 255 -568.5 L 270 -565 L 287 -562 L 339 -552 L 348 -550 L 365.5 -549 L 383 -548 L 409 -548 L 493 -556 L 573 -563.5 L 653 -571 L 730 -578 L 881 -592 L 1051 -592 L 1164 -592 L 1330 -497 L 1367 -454 L 1344 -459 L 1278 -470 L 1178 -479 L 1086 -489 L 1005 -489 L 956 -486 L 931 -485 L 894.5 -484 L 858 -483 L 809 -479 L 790 -478 L 759 -478 L 728 -478 L 684 -478 L 650 -478 L 615 -479 L 580 -480 L 542 -481 L 467 -484 L 373 -495 L 308 -502 L 246 -525.5 L 184 -549 L 122 -583 L 0 -650 L 0 -707 L 0 -748 Z" fill="black" fill-opacity="0.25" stroke="black" stroke-width="4"/>
  <rect x="44" y="-396" width="1356" height="166" fill="none" stroke="red" stroke-width="10" /><rect x="0" y="-765" width="1367" height="311" fill="none" stroke="red" stroke-width="10" />
</svg>
