<svg xmlns="http://www.w3.org/2000/svg"
  viewBox="-50.0 -1082.0 1457.0 905.0">
  <rect x="-50.0" y="-1082.0" width="1457.0" height="905.0" fill="white"/>
  <path d="M 0.0 -366.0 L 0.0 -393.0 L 37.0 -380.0 L 75.0 -372.5 L 113.0 -365.0 L 158.0 -363.0 L 202.0 -362.0 L 255.5 -361.0 L 309.0 -360.0 L 380.0 -360.0 L 428.0 -360.0 L 507.5 -361.0 L 587.0 -362.0 L 700.0 -365.0 L 814.0 -367.0 L 898.5 -368.5 L 983.0 -370.0 L 1043.0 -370.0 L 1150.0 -370.0 L 1317.0 -271.0 L 1326.0 -258.0 L 1336.5 -248.0 L 1347.0 -238.0 L 1357.0 -227.0 L 1343.0 -227.0 L 1332.0 -231.0 L 1302.0 -235.0 L 1286.5 -239.0 L 1271.0 -243.0 L 1267.0 -243.0 L 1178.0 -251.0 L 1136.0 -254.0 L 1098.0 -256.0 L 1060.0 -258.0 L 1022.0 -258.0 L 994.0 -258.0 L 935.5 -256.0 L 877.0 -254.0 L 785.0 -249.0 L 692.0 -244.0 L 624.5 -242.0 L 557.0 -240.0 L 511.0 -240.0 L 419.0 -240.0 L 328.5 -246.0 L 238.0 -252.0 L 147.0 -266.0 L 81.0 -276.0 Z M 70.0 -576.0 L 70.0 -577.0 L 72.0 -577.0 L 73.0 -577.0 L 76.0 -579.0 L 78.0 -580.0 L 74.0 -586.0 L 70.0 -591.0 L 76.0 -593.0 L 123.0 -610.0 L 163.5 -623.0 L 204.0 -636.0 L 238.0 -647.5 L 272.0 -659.0 L 299.0 -669.0 L 326.0 -679.0 L 347.0 -690.0 L 427.0 -732.0 L 472.0 -804.0 L 479.0 -816.0 L 486.5 -833.5 L 494.0 -851.0 L 502.5 -874.5 L 511.0 -898.0 L 522.5 -927.0 L 534.0 -956.0 L 550.0 -991.0 L 551.0 -994.0 L 554.5 -995.5 L 558.0 -997.0 L 562.0 -997.5 L 566.0 -998.0 L 571.0 -999.0 L 576.0 -1000.0 L 580.0 -1002.0 L 592.0 -1009.0 L 600.0 -1013.5 L 608.0 -1018.0 L 611.0 -1019.0 L 624.0 -1025.0 L 632.5 -1027.5 L 641.0 -1030.0 L 644.0 -1032.0 L 657.0 -1032.0 L 662.0 -1032.0 L 667.0 -1031.5 L 672.0 -1031.0 L 678.0 -1029.0 L 682.0 -1028.0 L 686.5 -1027.5 L 691.0 -1027.0 L 696.0 -1026.0 L 701.0 -1025.0 L 705.5 -1023.5 L 710.0 -1022.0 L 714.0 -1018.0 L 715.0 -1017.0 L 714.0 -1015.0 L 713.0 -1013.0 L 710.5 -1012.0 L 708.0 -1011.0 L 705.0 -1009.5 L 702.0 -1008.0 L 700.0 -1007.0 L 663.0 -981.0 L 659.0 -974.0 L 651.0 -940.0 L 644.0 -916.0 L 637.0 -892.0 L 629.0 -873.0 L 627.0 -867.0 L 622.5 -858.5 L 618.0 -850.0 L 612.0 -841.0 L 606.0 -832.0 L 600.5 -823.5 L 595.0 -815.0 L 591.0 -809.0 L 591.0 -809.0 L 593.0 -810.0 L 595.0 -810.0 L 590.0 -805.0 L 587.0 -802.0 L 587.0 -802.0 L 587.0 -802.0 L 591.0 -809.0 L 587.0 -807.0 L 577.0 -800.5 L 567.0 -794.0 L 553.0 -783.5 L 539.0 -773.0 L 523.0 -760.5 L 507.0 -748.0 L 491.0 -735.0 L 475.0 -723.0 L 462.5 -712.5 L 450.0 -702.0 L 439.0 -694.0 L 428.0 -685.0 L 420.5 -678.0 L 413.0 -671.0 L 409.0 -667.0 L 409.0 -666.0 L 407.0 -665.0 L 407.0 -665.0 L 407.0 -664.0 L 413.0 -666.0 L 417.5 -668.5 L 422.0 -671.0 L 426.0 -673.0 L 431.0 -676.0 L 432.0 -675.0 L 432.0 -675.0 L 429.0 -674.0 L 428.0 -673.0 L 424.5 -671.0 L 421.0 -669.0 L 418.0 -667.5 L 415.0 -666.0 L 412.0 -664.5 L 409.0 -663.0 L 408.0 -663.0 L 407.0 -663.0 L 407.0 -664.0 L 395.0 -658.0 L 379.0 -650.5 L 363.0 -643.0 L 346.0 -636.5 L 329.0 -630.0 L 312.5 -624.5 L 296.0 -619.0 L 283.0 -616.0 L 274.0 -615.0 L 260.5 -614.5 L 247.0 -614.0 L 235.0 -613.5 L 223.0 -613.0 L 217.0 -612.5 L 211.0 -612.0 L 219.0 -609.0 L 227.0 -606.0 L 235.5 -605.0 L 244.0 -604.0 L 253.0 -604.0 L 265.0 -604.0 L 277.0 -605.0 L 289.0 -606.0 L 302.0 -606.0 L 305.0 -606.0 L 308.0 -606.0 L 311.0 -606.0 L 314.0 -605.0 L 359.0 -602.0 L 394.0 -576.0 L 413.0 -562.0 L 412.0 -557.0 L 415.0 -549.0 L 401.0 -549.0 L 388.0 -549.0 L 377.0 -550.0 L 366.0 -551.0 L 353.0 -554.0 L 336.0 -557.0 L 313.5 -559.5 L 291.0 -562.0 L 264.0 -566.0 L 238.0 -570.0 L 215.0 -572.0 L 192.0 -574.0 L 170.0 -574.0 L 166.0 -575.0 L 162.0 -575.0 L 158.0 -575.0 L 154.0 -575.0 L 140.0 -575.0 L 126.0 -574.5 L 112.0 -574.0 L 98.0 -572.0 L 95.0 -571.0 L 90.5 -569.5 L 86.0 -568.0 L 78.0 -568.0 L 73.0 -568.0 Z" fill="black" fill-opacity="0.25" stroke="black" stroke-width="4.0"/>
  <rect x="0.0" y="-393.0" width="1357.0" height="166.0" fill="none" stroke="red" stroke-width="10.0" /><rect x="70.0" y="-1032.0" width="645.0" height="483.0" fill="none" stroke="red" stroke-width="10.0" />
</svg>
