<svg xmlns="http://www.w3.org/2000/svg"
  viewBox="-50 -833.55 1402.825 515.106">
  <rect x="-50" y="-833.55" width="1402.825" height="515.106" fill="white"/>
  <path d="M 991.777 -549 L 1022.777 -549 L 1056.277 -548.5 L 1089.777 -548 L 1116.777 -544 L 1135.777 -544 L 1152.777 -498 L 1169.777 -452 L 1201.777 -407 L 1212.777 -391 L 1220.777 -389 L 1228.777 -387 L 1233.277 -381.5 L 1237.777 -376 L 1224.777 -372 L 1193.777 -368 L 1161.777 -368.5 L 1129.777 -369 L 1100.777 -372 L 1073.777 -381 L 1062.277 -413.5 L 1050.777 -446 L 1017.777 -510 L 1006.777 -525 L 987.777 -528 L 972.777 -529 L 971.777 -539 L 970.777 -549 Z M 717.777 -552 L 744.777 -552 L 774.277 -551.5 L 803.777 -551 L 826.777 -547 L 843.777 -547 L 862.777 -500 L 881.777 -451 L 907.777 -407 L 914.777 -391 L 924.777 -390 L 931.777 -388 L 935.277 -382.5 L 938.777 -377 L 927.777 -372 L 900.777 -368 L 872.777 -368.5 L 844.777 -369 L 818.777 -372 L 794.777 -381 L 781.777 -414.5 L 768.777 -448 L 740.777 -512 L 738.777 -515 L 731.277 -523.5 L 723.777 -532 L 714.777 -533 L 701.777 -534 L 700.277 -543 L 698.777 -552 Z M 2.777 -775 L 7.777 -783 L 13.777 -783.5 L 19.777 -784 L 27.277 -779.5 L 34.777 -775 L 45.277 -770 L 55.777 -765 L 72.277 -761.5 L 88.777 -758 L 118.777 -758 L 1116.777 -758 L 1144.777 -758 L 1166.777 -753.5 L 1188.777 -749 L 1207.277 -739.5 L 1225.777 -730 L 1235.777 -722 L 1245.777 -714 L 1263.777 -695.5 L 1281.777 -677 L 1294.777 -659 L 1307.777 -641 L 1299.777 -625 L 1292.777 -613 L 1282.277 -619.5 L 1271.777 -626 L 1257.777 -631.5 L 1243.777 -637 L 1227.777 -638.5 L 1211.777 -640 L 1178.777 -640 L 194.777 -640 L 171.777 -640 L 153.777 -643.5 L 135.777 -647 L 125.277 -650.5 L 114.777 -654 L 103.277 -659 L 91.777 -664 L 78.777 -672.5 L 65.777 -681 L 50.777 -696.5 L 35.777 -712 L 20.777 -731.5 L 5.777 -751 L 1.777 -759 L -2.223 -767 Z" fill="black" fill-opacity="0.25" stroke="black" stroke-width="4"/>
  <rect x="971" y="-549" width="267" height="181" fill="none" stroke="red" stroke-width="10" /><rect x="699" y="-552" width="240" height="184" fill="none" stroke="red" stroke-width="10" /><rect x="-2" y="-784" width="1310" height="171" fill="none" stroke="red" stroke-width="10" />
</svg>
