<svg xmlns="http://www.w3.org/2000/svg"
  viewBox="-50 -1277 1786.455 1100">
  <rect x="-50" y="-1277" width="1786.455" height="1100" fill="white"/>
  <path d="M 132 -393 L 171 -380 L 209.5 -372.5 L 248 -365 L 290 -363 L 346 -361 L 401 -360.5 L 456 -360 L 512 -360 L 560 -360 L 639.5 -361 L 719 -362 L 832 -365 L 946 -367 L 1031 -368 L 1116 -369 L 1175 -369 L 1282 -369 L 1450 -271 L 1455 -265 L 1459.5 -259 L 1464 -253 L 1469 -248 L 1474 -243 L 1479 -237.5 L 1484 -232 L 1489 -227 L 1481 -227 L 1474 -227 L 1464 -230 L 1449 -232 L 1437.5 -234.5 L 1426 -237 L 1418 -239 L 1400 -243 L 1399 -243 L 1310 -250 L 1270 -254 L 1232 -256 L 1194 -258 L 1154 -258 L 1126 -258 L 1067.5 -256 L 1009 -254 L 917 -249 L 824 -244 L 756.5 -242 L 689 -240 L 643 -240 L 552 -240 L 461 -246 L 370 -252 L 279 -266 L 213 -276 L 132 -366 Z M 8 -468 L 4 -468 L 0 -475 L 0 -476 L 1 -477 L 3 -477 L 6 -478 L 7 -479 L 3 -485 L -1 -490 L 6 -493 L 50 -510 L 88.5 -523 L 127 -536 L 159 -547 L 194 -558 L 226 -571.5 L 258 -585 L 286 -603 L 314 -621 L 338 -645.5 L 362 -670 L 382 -703 L 389 -715 L 396 -732.5 L 403 -750 L 410 -774 L 426 -821 L 456 -891 L 458 -897 L 468 -897 L 477 -897 L 484 -902 L 489 -905 L 495 -908.5 L 501 -912 L 508 -916 L 515 -920 L 521.5 -923 L 528 -926 L 534 -928 L 538 -929 L 540.5 -930 L 543 -931 L 545 -931 L 549 -931 L 553 -931 L 557 -931 L 561 -932 L 570 -932 L 577 -929 L 584 -926 L 595 -926 L 605 -925 L 612 -917 L 614 -914 L 608 -912 L 605 -911 L 602.5 -909.5 L 600 -908 L 598 -907 L 563 -882 L 560 -874 L 555 -850 L 549.5 -828.5 L 544 -807 L 537 -787.5 L 530 -768 L 520 -749 L 510 -730 L 495 -709 L 495 -709 L 497 -710 L 498 -710 L 494 -705 L 491 -701 L 492 -704 L 493 -705 L 493.5 -706 L 494 -707 L 495 -709 L 494 -708 L 493 -707 L 492 -706 L 490 -705 L 453 -679 L 418.5 -651 L 384 -623 L 350 -593 L 340 -584 L 333 -577.5 L 326 -571 L 322 -567 L 321 -566 L 320.5 -565 L 320 -564 L 320 -563 L 325 -565 L 329.5 -567.5 L 334 -570 L 338 -572 L 341 -574 L 342 -575 L 343 -575 L 343 -575 L 343 -575 L 341 -574 L 340 -573 L 338 -572 L 336 -571 L 334 -569 L 320 -561 L 320 -563 L 281 -542 L 241.5 -527.5 L 202 -513 L 157 -513 L 152 -513 L 147.5 -513 L 143 -513 L 139 -512 L 131 -511 L 141 -508 L 156 -502 L 172 -502 L 175 -502 L 178 -502.5 L 181 -503 L 185 -503 L 193 -504 L 200.5 -504.5 L 208 -505 L 216 -505 L 242 -505 L 264 -498.5 L 286 -492 L 307 -475 L 325 -461 L 325 -456 L 328 -448 L 315 -449 L 291 -449 L 268 -453 L 260 -454 L 251 -456 L 242 -458 L 231 -459 L 220 -460 L 208.5 -462 L 197 -464 L 184 -466 L 162 -469 L 140 -471 L 118 -473 L 95 -473 L 82 -474 L 71 -475 L 48 -475 L 27 -472 L 22 -470 L 17.5 -469 L 13 -468 Z M 1081 -499 L 1077 -499 L 1074 -507 L 1074 -508 L 1076 -508 L 1077 -508 L 1080 -510 L 1081 -511 L 1077 -516 L 1073 -521 L 1080 -524 L 1124 -541 L 1162.5 -554.5 L 1201 -568 L 1233 -578 L 1268 -589 L 1300 -602.5 L 1332 -616 L 1360 -634.5 L 1388 -653 L 1412 -677.5 L 1436 -702 L 1455 -735 L 1462 -747 L 1469 -764.5 L 1476 -782 L 1484 -805 L 1500 -852 L 1530 -922 L 1532 -928 L 1541 -929 L 1550 -929 L 1558 -933 L 1562 -936 L 1568.5 -940 L 1575 -944 L 1582 -947.5 L 1589 -951 L 1595.5 -954 L 1602 -957 L 1608 -959 L 1616 -961 L 1618 -963 L 1622 -963 L 1626 -963 L 1630 -963 L 1635 -963 L 1645 -963 L 1652 -960 L 1659 -957 L 1668 -957 L 1678 -956 L 1685 -949 L 1689 -946 L 1682 -943 L 1679 -942 L 1676.5 -940.5 L 1674 -939 L 1672 -938 L 1637 -913 L 1634 -905 L 1630 -888 L 1626.5 -874 L 1623 -860 L 1619 -847 L 1615 -833 L 1611 -821 L 1607 -809 L 1602.5 -798 L 1598 -787 L 1592 -776.5 L 1586 -766 L 1578 -754 L 1576 -750 L 1573.5 -746.5 L 1571 -743 L 1569 -740 L 1571 -741 L 1572 -741 L 1573 -741 L 1569 -736 L 1565 -732 L 1565 -732 L 1566 -735 L 1567 -736 L 1567.5 -737.5 L 1568 -739 L 1569 -740 L 1568 -739 L 1566.5 -738.5 L 1565 -738 L 1564 -737 L 1527 -711 L 1492.5 -682.5 L 1458 -654 L 1424 -624 L 1423 -623 L 1418 -619 L 1413 -615 L 1407.5 -610 L 1402 -605 L 1398 -600.5 L 1394 -596 L 1394 -595 L 1399 -597 L 1403.5 -599 L 1408 -601 L 1412 -603 L 1415 -605 L 1416 -606 L 1417 -606 L 1417 -606 L 1417 -606 L 1415 -605 L 1414 -604 L 1412 -603 L 1410 -602 L 1408 -600 L 1394 -592 L 1394 -595 L 1382 -589 L 1367 -581.5 L 1352 -574 L 1336 -567 L 1320 -560 L 1304 -555 L 1288 -550 L 1276 -547 L 1265 -545 L 1253.5 -544.5 L 1242 -544 L 1230 -544 L 1225 -544 L 1220.5 -544 L 1216 -544 L 1213 -543 L 1206 -542 L 1215 -539 L 1224 -535 L 1232.5 -534.5 L 1241 -534 L 1250 -534 L 1252 -534 L 1254 -534 L 1256 -534 L 1259 -535 L 1266 -536 L 1273 -536.5 L 1280 -537 L 1286 -537 L 1312 -537 L 1336 -530 L 1360 -523 L 1381 -507 L 1399 -493 L 1399 -488 L 1402 -480 L 1389 -480 L 1366 -480 L 1343 -485 L 1335 -486 L 1325.5 -487.5 L 1316 -489 L 1305 -491 L 1294 -492 L 1282.5 -493.5 L 1271 -495 L 1258 -497 L 1236 -500 L 1214 -502.5 L 1192 -505 L 1169 -505 L 1156 -506 L 1145 -506 L 1123 -506 L 1100 -503 L 1095 -501 L 1090.5 -500 L 1086 -499 Z M 641 -783 L 636 -783 L 634 -789 L 634 -792 L 640 -792 L 643 -793 L 639 -800 L 636 -805 L 641 -808 L 685 -824 L 724 -836 L 763 -848 L 796 -857 L 830 -866 L 863 -878.5 L 896 -891 L 925.5 -909.5 L 955 -928 L 980.5 -951.5 L 1006 -975 L 1025 -1007 L 1032 -1018 L 1039.5 -1034.5 L 1047 -1051 L 1056 -1074 L 1065 -1096 L 1077 -1125 L 1089 -1154 L 1105 -1189 L 1108 -1195 L 1116 -1196 L 1124 -1196 L 1131 -1201 L 1142 -1208 L 1151 -1211 L 1159 -1214 L 1163 -1218 L 1168 -1220 L 1172.5 -1221.5 L 1177 -1223 L 1181 -1224 L 1188 -1227 L 1194 -1227 L 1210 -1227 L 1225 -1222 L 1230 -1220 L 1239 -1220 L 1244 -1220 L 1249 -1220 L 1253 -1218.5 L 1257 -1217 L 1260 -1213 L 1263 -1209 L 1256 -1206 L 1252 -1205 L 1244 -1200.5 L 1236 -1196 L 1228.5 -1190 L 1221 -1184 L 1214.5 -1178.5 L 1208 -1173 L 1207 -1169 L 1202 -1153 L 1198 -1139 L 1194 -1125 L 1190 -1112 L 1187 -1098 L 1182.5 -1086 L 1178 -1074 L 1172 -1063.5 L 1166 -1053 L 1159.5 -1042.5 L 1153 -1032 L 1145 -1020 L 1141 -1014 L 1138 -1008 L 1141 -1008 L 1136 -1003 L 1134 -1001 L 1133 -1000 L 1133 -1000 L 1132.5 -999.5 L 1132 -999 L 1132 -999 L 1132 -999 L 1133 -1002 L 1134 -1003 L 1135 -1004.5 L 1136 -1006 L 1138 -1008 L 1137 -1008 L 1135 -1007 L 1133 -1006 L 1129 -1004 L 1105 -989 L 1082 -973 L 1059 -957 L 1037 -939 L 1023 -928 L 1010.5 -917.5 L 998 -907 L 988 -899 L 977 -891 L 970 -884 L 963 -877 L 959 -872 L 959 -872 L 958.5 -871 L 958 -870 L 958 -870 L 963 -872 L 967.5 -873.5 L 972 -875 L 975 -876 L 979 -877 L 980 -878 L 982 -878 L 972 -872 L 963 -867 L 958 -867 L 956 -867 L 958 -870 L 939 -862 L 920.5 -854.5 L 902 -847 L 883 -840 L 854 -829 L 838 -825 L 831 -824 L 817 -824 L 792 -824 L 787 -824 L 782.5 -824 L 778 -824 L 775 -823 L 771 -823 L 777 -819 L 784 -815 L 792 -813.5 L 800 -812 L 808 -812 L 811 -812 L 814 -812 L 817 -812 L 820 -813 L 832 -814 L 843 -814 L 871 -814 L 895.5 -806.5 L 920 -799 L 942 -782 L 958 -769 L 958 -760 L 959 -754 L 948 -753 L 901 -758 L 818 -774 L 803 -778 L 785 -781 L 767 -784 L 749 -785.5 L 731 -787 L 713 -788 L 695 -789 L 680 -789 L 675 -789 L 670 -788.5 L 665 -788 L 661 -788 L 657 -785 L 651 -784 L 645 -783 Z M 704 -714 L 706 -717 L 721 -718 L 747 -718 L 761 -718 L 775 -714 L 820 -706 L 885 -694 L 903 -598 L 914 -537 L 926 -524 L 934 -514 L 944 -510 L 954 -506 L 967 -505 L 970 -505 L 972 -503 L 970 -495 L 962.5 -490.5 L 955 -486 L 946.5 -483 L 938 -480 L 929 -479 L 920 -478 L 913 -478 L 891 -478 L 867.5 -485 L 844 -492 L 825 -500 L 773 -521 L 753 -645 L 745 -698 L 722 -699 L 708 -699 L 699 -699 L 698 -700 L 696 -702 Z" fill="black" fill-opacity="0.25" stroke="black" stroke-width="4"/>
  <rect x="132" y="-393" width="1357" height="166" fill="none" stroke="red" stroke-width="10" /><rect x="696" y="-718" width="276" height="240" fill="none" stroke="red" stroke-width="10" /><rect x="-1" y="-609.9" width="370.2" height="161" fill="none" stroke="red" stroke-width="10" /><rect x="296.8" y="-771" width="234.3" height="161.1" fill="none" stroke="red" stroke-width="10" /><rect x="409.1" y="-932" width="204.9" height="161" fill="none" stroke="red" stroke-width="10" /><rect x="1073" y="-641" width="370.3" height="161" fill="none" stroke="red" stroke-width="10" /><rect x="1369.8" y="-802" width="234.3" height="161" fill="none" stroke="red" stroke-width="10" /><rect x="1483" y="-963" width="206" height="161" fill="none" stroke="red" stroke-width="10" /><rect x="634" y="-911" width="368.8" height="158" fill="none" stroke="red" stroke-width="10" /><rect x="927.9" y="-1069" width="247.2" height="158" fill="none" stroke="red" stroke-width="10" /><rect x="1054" y="-1227" width="209" height="158" fill="none" stroke="red" stroke-width="10" />
</svg>
