<svg xmlns="http://www.w3.org/2000/svg"
  viewBox="-50 -1088 1595.4 909">
  <rect x="-50" y="-1088" width="1595.4" height="909" fill="white"/>
  <path d="M 0 -395 L 37 -382 L 75.5 -374.5 L 114 -367 L 158 -366 L 202 -365 L 256 -363.5 L 310 -362 L 380 -362 L 428 -362 L 507.5 -363.5 L 587 -365 L 701 -367 L 815 -369 L 899.5 -370.5 L 984 -372 L 1043 -372 L 1150 -372 L 1318 -273 L 1327 -260 L 1337.5 -250.5 L 1348 -241 L 1357 -229 L 1343 -229 L 1332 -233 L 1302 -237 L 1286.5 -241 L 1271 -245 L 1268 -245 L 1179 -253 L 1137 -256 L 1099 -258.5 L 1061 -261 L 1022 -261 L 994 -261 L 935.5 -258.5 L 877 -256 L 785 -251 L 692 -246 L 625 -244 L 558 -242 L 512 -242 L 420 -242 L 329.5 -248 L 239 -254 L 147 -268 L 81 -278 L 0 -369 Z M 0 -582 L 0 -583 L 2 -583 L 3 -583 L 6 -585 L 8 -586 L 4 -592 L 0 -597 L 6 -599 L 52 -616 L 92.5 -629.5 L 133 -643 L 167.5 -654 L 202 -665 L 229 -675 L 256 -685 L 277 -696 L 357 -738 L 402 -810 L 409 -822 L 416.5 -839.5 L 424 -857 L 432.5 -880.5 L 441 -904 L 452.5 -933 L 464 -962 L 480 -997 L 481 -1000 L 484.5 -1001.5 L 488 -1003 L 492.5 -1003.5 L 497 -1004 L 501.5 -1005 L 506 -1006 L 510 -1008 L 522 -1015 L 530 -1019.5 L 538 -1024 L 541 -1025 L 554 -1031 L 562.5 -1033.5 L 571 -1036 L 574 -1038 L 587 -1038 L 592 -1038 L 597.5 -1037.5 L 603 -1037 L 608 -1035 L 612 -1034 L 616.5 -1033.5 L 621 -1033 L 626 -1032 L 631 -1031 L 635.5 -1029.5 L 640 -1028 L 644 -1024 L 645 -1023 L 644 -1021 L 643 -1019 L 640.5 -1018 L 638 -1017 L 635 -1016 L 632 -1015 L 630 -1013 L 592 -987 L 589 -980 L 583 -955 L 578 -934 L 573 -913 L 565.5 -893.5 L 558 -874 L 547.5 -855 L 537 -836 L 521 -815 L 522 -815 L 522 -816 L 523 -816 L 525 -816 L 520 -811 L 517 -807 L 517 -807 L 517 -808 L 517 -809 L 518 -809 L 519 -810 L 519.5 -811.5 L 520 -813 L 521 -815 L 517 -813 L 507 -806.5 L 497 -800 L 483 -789.5 L 469 -779 L 453 -766.5 L 437 -754 L 421 -741 L 405 -729 L 392.5 -718.5 L 380 -708 L 369 -700 L 358 -691 L 350.5 -684 L 343 -677 L 339 -673 L 339 -672 L 337 -671 L 337 -671 L 337 -670 L 343 -672 L 347.5 -674.5 L 352 -677 L 356 -679 L 361 -682 L 362 -681 L 362 -681 L 359 -680 L 358 -679 L 355 -677 L 352 -675 L 348.5 -673.5 L 345 -672 L 342 -670.5 L 339 -669 L 338 -669 L 337 -669 L 337 -670 L 325 -664 L 309 -656.5 L 293 -649 L 276 -642.5 L 259 -636 L 242.5 -630.5 L 226 -625 L 213 -622 L 204 -621 L 190.5 -620.5 L 177 -620 L 165 -619.5 L 153 -619 L 147.5 -618.5 L 142 -618 L 149 -615 L 157 -612 L 165.5 -611 L 174 -610 L 183 -610 L 195 -610 L 207 -611 L 219 -612 L 232 -612 L 235 -612 L 238 -612 L 241 -612 L 244 -611 L 289 -608 L 324 -582 L 343 -568 L 342 -563 L 345 -555 L 332 -555 L 319 -555 L 307.5 -556 L 296 -557 L 283 -560 L 266 -563 L 243.5 -565.5 L 221 -568 L 194 -572 L 168 -576 L 145 -578 L 122 -580 L 100 -580 L 96 -581 L 92 -581 L 88 -581 L 84 -581 L 70 -581 L 56 -580.5 L 42 -580 L 28 -578 L 25 -577 L 20.5 -575.5 L 16 -574 L 8 -574 L 3 -574 Z M 426 -582 L 426 -583 L 427 -583 L 428 -583 L 432 -585 L 434 -586 L 429 -592 L 425 -597 L 432 -599 L 478 -616 L 518.5 -629.5 L 559 -643 L 593 -654 L 627 -665 L 654.5 -675 L 682 -685 L 702 -696 L 782 -737 L 827 -810 L 834 -822 L 841.5 -839.5 L 849 -857 L 858 -880.5 L 867 -904 L 878.5 -933 L 890 -962 L 905 -997 L 906 -1000 L 910 -1001.5 L 914 -1003 L 918 -1003.5 L 922 -1004 L 926.5 -1005 L 931 -1006 L 935 -1008 L 947 -1015 L 955 -1019.5 L 963 -1024 L 966 -1025 L 979 -1031 L 987.5 -1033.5 L 996 -1036 L 999 -1038 L 1012 -1038 L 1017 -1038 L 1022.5 -1037.5 L 1028 -1037 L 1033 -1035 L 1037 -1034 L 1041.5 -1033.5 L 1046 -1033 L 1051 -1032 L 1056 -1031 L 1060.5 -1029.5 L 1065 -1028 L 1069 -1024 L 1070 -1023 L 1069 -1021 L 1068 -1019 L 1065.5 -1018 L 1063 -1017 L 1060 -1016 L 1057 -1015 L 1055 -1013 L 1017 -987 L 1015 -980 L 1007 -946 L 999.5 -922 L 992 -898 L 985 -879 L 983 -873 L 978 -864.5 L 973 -856 L 967 -847 L 961 -838 L 955.5 -829.5 L 950 -821 L 946 -815 L 947 -815 L 947 -816 L 948 -816 L 950 -816 L 946 -811 L 943 -808 L 942 -808 L 942 -808 L 946 -815 L 942 -813 L 932 -806.5 L 922 -800 L 908.5 -789.5 L 895 -779 L 878.5 -766.5 L 862 -754 L 846 -741 L 830 -729 L 817.5 -718.5 L 805 -708 L 794 -700 L 783 -691 L 776 -684 L 769 -677 L 765 -673 L 765 -672 L 763 -671 L 763 -671 L 762 -670 L 768 -672 L 772.5 -674.5 L 777 -677 L 781 -679 L 786 -682 L 787 -681 L 787 -681 L 785 -680 L 784 -679 L 780.5 -677 L 777 -675 L 773.5 -673.5 L 770 -672 L 767.5 -670.5 L 765 -669 L 763 -669 L 762 -669 L 762 -670 L 750 -664 L 734 -656.5 L 718 -649 L 701.5 -642.5 L 685 -636 L 668 -630.5 L 651 -625 L 638 -622 L 629 -621 L 615.5 -620.5 L 602 -620 L 590.5 -619.5 L 579 -619 L 573 -618.5 L 567 -618 L 574 -615 L 582 -612 L 591 -611 L 600 -610 L 608 -610 L 620 -610 L 632.5 -611 L 645 -612 L 657 -612 L 660 -612 L 663 -612 L 666 -612 L 669 -611 L 714 -608 L 749 -582 L 768 -568 L 768 -563 L 771 -555 L 757 -555 L 744 -555 L 732.5 -556 L 721 -557 L 708 -560 L 691 -563 L 668.5 -565.5 L 646 -568 L 619 -572 L 593 -576 L 570 -578 L 547 -580 L 525 -580 L 521 -581 L 517 -581 L 513 -581 L 509 -581 L 495 -581 L 481.5 -580.5 L 468 -580 L 454 -578 L 451 -577 L 446 -575.5 L 441 -574 L 434 -574 L 429 -574 Z M 859 -574 L 854 -574 L 851 -582 L 851 -583 L 853 -583 L 854 -583 L 857 -585 L 859 -586 L 854 -592 L 850 -597 L 857 -599 L 903 -616 L 943.5 -629.5 L 984 -643 L 1018 -654 L 1052 -665 L 1079.5 -675 L 1107 -685 L 1127 -696 L 1207 -736 L 1252 -810 L 1259 -822 L 1266.5 -839.5 L 1274 -857 L 1283 -880.5 L 1292 -904 L 1303.5 -933 L 1315 -962 L 1331 -997 L 1332 -1001 L 1335 -1002 L 1338 -1003 L 1342.5 -1003.5 L 1347 -1004 L 1351.5 -1004.5 L 1356 -1005 L 1360 -1008 L 1372 -1015 L 1380.5 -1019.5 L 1389 -1024 L 1392 -1025 L 1405 -1031 L 1413 -1033.5 L 1421 -1036 L 1424 -1038 L 1437 -1038 L 1442 -1038 L 1447.5 -1037.5 L 1453 -1037 L 1458 -1035 L 1462 -1034 L 1467 -1033.5 L 1472 -1033 L 1476.5 -1032 L 1481 -1031 L 1486 -1029.5 L 1491 -1028 L 1495 -1024 L 1496 -1023 L 1494.5 -1021 L 1493 -1019 L 1490.5 -1017.5 L 1488 -1016 L 1485 -1015 L 1482 -1014 L 1480 -1013 L 1442 -987 L 1440 -980 L 1432 -946 L 1424.5 -922 L 1417 -898 L 1410 -879 L 1408 -873 L 1403.5 -864.5 L 1399 -856 L 1393 -847 L 1387 -838 L 1381 -829.5 L 1375 -821 L 1372 -815 L 1372 -815 L 1374 -816 L 1376 -816 L 1371 -811 L 1367 -807 L 1367 -807 L 1372 -815 L 1368 -813 L 1357.5 -806.5 L 1347 -800 L 1333 -789.5 L 1319 -779 L 1303.5 -766.5 L 1288 -754 L 1271 -741 L 1255 -729 L 1242.5 -718.5 L 1230 -708 L 1220 -700 L 1209 -691 L 1201.5 -684 L 1194 -677 L 1190 -673 L 1190 -672 L 1188 -671 L 1188 -671 L 1187 -670 L 1193 -672 L 1198 -674.5 L 1203 -677 L 1207 -679 L 1212 -682 L 1212 -681 L 1212 -681 L 1210 -680 L 1209 -679 L 1205.5 -677 L 1202 -675 L 1199 -673.5 L 1196 -672 L 1193 -670.5 L 1190 -669 L 1188 -669 L 1187 -669 L 1187 -670 L 1175 -664 L 1159.5 -656.5 L 1144 -649 L 1127 -642.5 L 1110 -636 L 1093.5 -630.5 L 1077 -625 L 1063 -622 L 1055 -621 L 1041 -620.5 L 1027 -620 L 1015 -619.5 L 1003 -619 L 997.5 -618.5 L 992 -618 L 999 -615 L 1007 -612 L 1015.5 -611 L 1024 -610 L 1033 -610 L 1045 -610 L 1057 -611 L 1069 -612 L 1082 -612 L 1085 -612 L 1088.5 -612 L 1092 -612 L 1095 -611 L 1140 -608 L 1174 -582 L 1193 -568 L 1193 -563 L 1196 -555 L 1182 -555 L 1169 -555 L 1157.5 -556 L 1146 -557 L 1134 -560 L 1117 -563 L 1094 -565.5 L 1071 -568 L 1044 -572 L 1018 -576 L 995.5 -578 L 973 -580 L 951 -580 L 947 -581 L 942.5 -581 L 938 -581 L 935 -581 L 921 -581 L 907 -580.5 L 893 -580 L 879 -578 L 876 -577 L 871.5 -575.5 L 867 -574 Z" fill="black" fill-opacity="0.25" stroke="black" stroke-width="4"/>
  <rect x="0" y="-395" width="1357" height="166" fill="none" stroke="red" stroke-width="10" /><rect x="0" y="-716" width="389.5" height="161" fill="none" stroke="red" stroke-width="10" /><rect x="315.1" y="-877" width="244.1" height="161" fill="none" stroke="red" stroke-width="10" /><rect x="431.2" y="-1038" width="213.8" height="161" fill="none" stroke="red" stroke-width="10" /><rect x="425" y="-716" width="389.5" height="161" fill="none" stroke="red" stroke-width="10" /><rect x="741" y="-877" width="243.3" height="161" fill="none" stroke="red" stroke-width="10" /><rect x="856.7" y="-1038" width="213.3" height="161" fill="none" stroke="red" stroke-width="10" /><rect x="850" y="-716" width="389.5" height="161" fill="none" stroke="red" stroke-width="10" /><rect x="1167" y="-877" width="242.3" height="161" fill="none" stroke="red" stroke-width="10" /><rect x="1281.7" y="-1038" width="214.3" height="161" fill="none" stroke="red" stroke-width="10" />
</svg>
