<svg xmlns="http://www.w3.org/2000/svg"
  viewBox="-50 -910 1456 731">
  <rect x="-50" y="-910" width="1456" height="731" fill="white"/>
  <path d="M 44 -738 L 44 -766 L 57.5 -786 L 71 -806 L 93 -819 L 115 -832 L 143 -841 L 171 -850 L 199.5 -854 L 228 -858 L 254.5 -859 L 281 -860 L 300 -860 L 360 -860 L 417.5 -854 L 475 -848 L 531.5 -838 L 588 -828 L 644.5 -815 L 701 -802 L 758 -786 L 875 -752 L 1024 -654 L 1170 -556 L 1169 -516 L 1168 -498 L 1133 -498 L 1086 -498 L 1036 -504 L 986 -510 L 940 -520 L 951 -624 L 776 -708 L 608 -788 L 436 -788 L 419 -788 L 398.5 -787 L 378 -786 L 356.5 -782 L 335 -778 L 314.5 -771 L 294 -764 L 277.5 -752 L 261 -740 L 250.5 -724 L 240 -708 L 239 -684 L 238 -654 L 285 -618 L 345 -572 L 349 -570 L 210 -572 L 139 -600 L 92 -620 L 61 -670 L 44 -710 Z M 0 -395 L 37 -382 L 75 -374 L 113 -366 L 157 -365 L 201 -364 L 255 -363 L 309 -362 L 380 -362 L 428 -362 L 507.5 -363 L 587 -364 L 700 -366 L 813 -368 L 898 -369.5 L 983 -371 L 1042 -371 L 1149 -371 L 1317 -273 L 1326 -260 L 1336.5 -250 L 1347 -240 L 1356 -229 L 1343 -229 L 1331 -232 L 1301 -236 L 1285.5 -240 L 1270 -244 L 1267 -244 L 1178 -252 L 1137 -255 L 1098.5 -257.5 L 1060 -260 L 1022 -260 L 994 -260 L 935 -258 L 876 -256 L 784 -251 L 692 -246 L 624 -243.5 L 556 -241 L 511 -241 L 419 -241 L 328 -247 L 237 -253 L 147 -268 L 81 -278 L 0 -368 Z" fill="black" fill-opacity="0.25" stroke="black" stroke-width="4"/>
  <rect x="44" y="-860" width="1126" height="362" fill="none" stroke="red" stroke-width="10" /><rect x="0" y="-395" width="1356" height="166" fill="none" stroke="red" stroke-width="10" />
</svg>
