<svg xmlns="http://www.w3.org/2000/svg"
  viewBox="-50 -438 1457 508">
  <rect x="-50" y="-438" width="1457" height="508" fill="white"/>
  <path d="M 147 -262 L 82 -272 L 0 -362 L 0 -388 L 36 -376 L 75.5 -368 L 115 -360 L 158 -360 L 202 -358 L 256 -357 L 310 -356 L 380 -356 L 475 -356 L 701 -362 L 926 -366 L 1043 -366 L 1150 -366 L 1318 -268 L 1327 -254 L 1337 -244 L 1347 -234 L 1357 -224 L 1356 -224 L 1349.5 -224 L 1343 -224 L 1332 -226 L 1302 -232 L 1286.5 -236 L 1271 -240 L 1267 -240 L 1179 -246 L 1138 -250 L 1099 -252 L 1060 -254 L 1022 -254 L 967 -254 L 785 -246 L 602 -236 L 512 -236 L 465 -236 L 419.5 -238 L 374 -240 L 328 -242 L 283 -244 L 237.5 -250 L 192 -256 Z M 534 -190 L 537 -194 L 556 -196 L 572 -196 L 603 -190 L 619 -188 L 629 -187 L 639 -186 L 645 -186 L 708 -176 L 725 -90 L 735 -36 L 745 -22 L 753 -8 L 773 -6 L 778 -6 L 786 -4 L 789 -4 L 791 -4 L 791 2 L 786 6 L 772 20 L 739 20 L 720 20 L 698.5 15 L 677 10 L 650 0 L 600 -18 L 581 -130 L 575 -178 L 552 -178 L 539 -178 L 531 -178 L 530 -180 L 528 -182 Z M 756 -192 L 756 -198 L 773 -198 L 787 -198 L 816 -192 L 830 -190 L 839 -188 L 848 -186 L 855 -186 L 918 -176 L 936 -90 L 946 -38 L 956 -22 L 963 -12 L 983 -8 L 1000 -4 L 1000 -4 L 1000 0 L 999.5 -1 L 999 -2 L 995 4 L 988 18 L 950 18 L 931 18 L 909.5 13 L 888 8 L 861 -2 L 811 -20 L 792 -134 L 784 -184 L 770 -182 L 756 -178 Z" fill="black" fill-opacity="0.25" stroke="black" stroke-width="4"/>
  <rect x="0" y="-388" width="1357" height="164" fill="none" stroke="red" stroke-width="10" /><rect x="528" y="-196" width="263" height="216" fill="none" stroke="red" stroke-width="10" /><rect x="756" y="-198" width="244" height="216" fill="none" stroke="red" stroke-width="10" />
</svg>
