<svg xmlns="http://www.w3.org/2000/svg"
  viewBox="-50.00043402777778 -833.55 1402.8253968253969 515.1055555555555">
  <rect x="-50.00043402777778" y="-833.55" width="1402.8253968253969" height="515.1055555555555" fill="white"/>
  <path d="M 991.77734375 -549.0 L 1022.77734375 -549.0 L 1056.27734375 -548.5 L 1089.77734375 -548.0 L 1116.77734375 -544.0 L 1135.77734375 -544.0 L 1152.77734375 -498.0 L 1169.77734375 -452.0 L 1201.77734375 -407.0 L 1212.77734375 -391.0 L 1220.77734375 -389.0 L 1228.77734375 -387.0 L 1233.27734375 -381.5 L 1237.77734375 -376.0 L 1224.77734375 -372.0 L 1193.77734375 -368.0 L 1161.77734375 -368.5 L 1129.77734375 -369.0 L 1100.77734375 -372.0 L 1073.77734375 -381.0 L 1062.27734375 -413.5 L 1050.77734375 -446.0 L 1017.77734375 -510.0 L 1006.77734375 -525.0 L 987.77734375 -528.0 L 972.77734375 -529.0 L 971.77734375 -539.0 L 970.77734375 -549.0 Z M 717.77734375 -552.0 L 744.77734375 -552.0 L 774.27734375 -551.5 L 803.77734375 -551.0 L 826.77734375 -547.0 L 843.77734375 -547.0 L 862.77734375 -500.0 L 881.77734375 -451.0 L 907.77734375 -407.0 L 914.77734375 -391.0 L 924.77734375 -390.0 L 931.77734375 -388.0 L 935.27734375 -382.5 L 938.77734375 -377.0 L 927.77734375 -372.0 L 900.77734375 -368.0 L 872.77734375 -368.5 L 844.77734375 -369.0 L 818.77734375 -372.0 L 794.77734375 -381.0 L 781.77734375 -414.5 L 768.77734375 -448.0 L 740.77734375 -512.0 L 738.77734375 -515.0 L 731.27734375 -523.5 L 723.77734375 -532.0 L 714.77734375 -533.0 L 701.77734375 -534.0 L 700.27734375 -543.0 L 698.77734375 -552.0 Z M 2.77734375 -775.0 L 7.77734375 -783.0 L 13.77734375 -783.5 L 19.77734375 -784.0 L 27.27734375 -779.5 L 34.77734375 -775.0 L 45.27734375 -770.0 L 55.77734375 -765.0 L 72.27734375 -761.5 L 88.77734375 -758.0 L 118.77734375 -758.0 L 1116.77734375 -758.0 L 1144.77734375 -758.0 L 1166.77734375 -753.5 L 1188.77734375 -749.0 L 1207.27734375 -739.5 L 1225.77734375 -730.0 L 1235.77734375 -722.0 L 1245.77734375 -714.0 L 1263.77734375 -695.5 L 1281.77734375 -677.0 L 1294.77734375 -659.0 L 1307.77734375 -641.0 L 1299.77734375 -625.0 L 1292.77734375 -613.0 L 1282.27734375 -619.5 L 1271.77734375 -626.0 L 1257.77734375 -631.5 L 1243.77734375 -637.0 L 1227.77734375 -638.5 L 1211.77734375 -640.0 L 1178.77734375 -640.0 L 194.77734375 -640.0 L 171.77734375 -640.0 L 153.77734375 -643.5 L 135.77734375 -647.0 L 125.27734375 -650.5 L 114.77734375 -654.0 L 103.27734375 -659.0 L 91.77734375 -664.0 L 78.77734375 -672.5 L 65.77734375 -681.0 L 50.77734375 -696.5 L 35.77734375 -712.0 L 20.77734375 -731.5 L 5.77734375 -751.0 L 1.77734375 -759.0 L -2.22265625 -767.0 Z" fill="black" fill-opacity="0.25" stroke="black" stroke-width="4.0"/>
  <rect x="971.0" y="-549.0" width="267.0" height="181.00000000000006" fill="none" stroke="red" stroke-width="10.0" /><rect x="699.0" y="-552.0" width="240.0" height="184.00000000000006" fill="none" stroke="red" stroke-width="10.0" /><rect x="-2.0" y="-784.0" width="1310.0" height="171.00000000000003" fill="none" stroke="red" stroke-width="10.0" />
</svg>
