<svg xmlns="http://www.w3.org/2000/svg"
  viewBox="-50.0 -904.0 1991.0 728.0">
  <rect x="-50.0" y="-904.0" width="1991.0" height="728.0" fill="white"/>
  <path d="M 81.0 -392.0 L 129.0 -379.0 L 181.0 -371.5 L 233.0 -364.0 L 291.0 -362.0 L 350.0 -361.0 L 422.0 -360.0 L 494.0 -359.0 L 588.0 -359.0 L 652.0 -359.0 L 758.0 -360.0 L 864.0 -361.0 L 1016.0 -364.0 L 1167.0 -366.0 L 1280.0 -367.0 L 1393.0 -368.0 L 1472.0 -368.0 L 1616.0 -368.0 L 1838.0 -270.0 L 1850.0 -257.0 L 1864.0 -247.0 L 1878.0 -237.0 L 1891.0 -226.0 L 1873.0 -226.0 L 1857.0 -229.0 L 1817.0 -233.0 L 1796.5 -237.5 L 1776.0 -242.0 L 1772.0 -242.0 L 1653.0 -249.0 L 1598.0 -252.0 L 1546.5 -254.5 L 1495.0 -257.0 L 1444.0 -257.0 L 1407.0 -257.0 L 1329.0 -255.0 L 1251.0 -253.0 L 1128.0 -248.0 L 1005.0 -243.0 L 914.5 -241.0 L 824.0 -239.0 L 763.0 -239.0 L 640.0 -239.0 L 519.0 -244.5 L 398.0 -250.0 L 277.0 -265.0 L 190.0 -275.0 L 81.0 -365.0 Z M 0.0 -732.0 L 0.0 -760.0 L 13.5 -780.0 L 27.0 -800.0 L 49.0 -813.5 L 71.0 -827.0 L 99.0 -835.0 L 127.0 -843.0 L 155.0 -847.0 L 183.0 -851.0 L 209.5 -852.5 L 236.0 -854.0 L 256.0 -854.0 L 308.0 -854.0 L 363.0 -849.5 L 418.0 -845.0 L 477.0 -835.0 L 537.0 -826.0 L 595.0 -811.0 L 653.0 -796.0 L 714.0 -779.0 L 832.0 -745.0 L 980.0 -648.0 L 1126.0 -552.0 L 1125.0 -510.0 L 1125.0 -491.0 L 1089.0 -492.0 L 1042.0 -492.0 L 992.0 -498.5 L 942.0 -505.0 L 896.0 -515.0 L 907.0 -619.0 L 731.0 -702.0 L 563.0 -782.0 L 392.0 -782.0 L 375.0 -782.0 L 354.5 -780.5 L 334.0 -779.0 L 312.5 -775.0 L 291.0 -771.0 L 270.5 -764.0 L 250.0 -757.0 L 233.5 -745.5 L 217.0 -734.0 L 206.5 -717.5 L 196.0 -701.0 L 195.0 -679.0 L 194.0 -648.0 L 241.0 -612.0 L 299.0 -567.0 L 304.0 -565.0 L 165.0 -566.0 L 95.0 -595.0 L 48.0 -615.0 L 17.0 -663.0 L 0.0 -703.0 Z M 284.0 -605.0 L 297.0 -608.0 L 308.0 -613.0 L 319.0 -618.0 L 331.0 -621.0 L 367.0 -623.0 L 403.0 -623.5 L 439.0 -624.0 L 474.0 -624.0 L 501.0 -624.0 L 532.5 -620.5 L 564.0 -617.0 L 599.0 -610.0 L 621.0 -606.0 L 641.5 -599.5 L 662.0 -593.0 L 683.0 -588.0 L 699.0 -584.0 L 718.5 -578.0 L 738.0 -572.0 L 758.5 -563.0 L 779.0 -554.0 L 799.0 -542.5 L 819.0 -531.0 L 835.0 -516.5 L 851.0 -502.0 L 860.5 -485.5 L 870.0 -469.0 L 870.0 -449.0 L 871.0 -427.0 L 857.0 -409.0 L 852.0 -403.0 L 832.0 -402.0 L 806.0 -402.0 L 780.5 -405.5 L 755.0 -409.0 L 730.0 -415.0 L 719.0 -417.0 L 704.0 -420.0 L 689.0 -423.0 L 670.0 -427.0 L 691.0 -438.0 L 705.0 -455.0 L 720.0 -474.0 L 714.0 -487.0 L 704.0 -510.0 L 666.0 -530.5 L 628.0 -551.0 L 563.0 -563.0 L 492.0 -576.0 L 423.5 -585.0 L 355.0 -594.0 Z M 1200.0 -718.0 L 1202.0 -721.0 L 1216.0 -721.0 L 1231.0 -721.0 L 1242.0 -721.0 L 1253.0 -720.5 L 1264.0 -720.0 L 1275.0 -718.0 L 1322.0 -710.0 L 1391.0 -697.0 L 1409.0 -602.0 L 1421.0 -541.0 L 1433.0 -527.0 L 1444.0 -514.0 L 1462.0 -510.0 L 1468.0 -509.0 L 1477.0 -508.0 L 1479.0 -508.0 L 1481.0 -507.0 L 1480.0 -500.0 L 1473.0 -495.0 L 1466.0 -490.0 L 1456.5 -487.0 L 1447.0 -484.0 L 1437.5 -483.0 L 1428.0 -482.0 L 1422.0 -482.0 L 1401.0 -482.0 L 1378.5 -487.5 L 1356.0 -493.0 L 1327.0 -503.0 L 1272.0 -523.0 L 1252.0 -649.0 L 1243.0 -702.0 L 1219.0 -702.0 L 1205.0 -702.0 L 1196.0 -702.0 L 1194.0 -703.0 L 1191.0 -706.0 Z M 1448.0 -722.0 L 1461.0 -722.0 L 1472.5 -721.5 L 1484.0 -721.0 L 1495.0 -719.5 L 1506.0 -718.0 L 1517.0 -716.0 L 1528.0 -714.0 L 1541.0 -711.0 L 1612.0 -697.0 L 1628.0 -602.0 L 1638.0 -544.0 L 1653.0 -529.0 L 1663.0 -514.0 L 1683.0 -511.0 L 1688.0 -510.0 L 1690.0 -509.0 L 1692.0 -508.0 L 1695.0 -508.0 L 1700.0 -508.0 L 1700.0 -501.0 L 1693.5 -496.5 L 1687.0 -492.0 L 1678.0 -489.0 L 1669.0 -486.0 L 1659.5 -484.5 L 1650.0 -483.0 L 1646.0 -483.0 L 1608.0 -483.0 L 1547.0 -505.0 L 1493.0 -526.0 L 1472.0 -654.0 L 1463.0 -705.0 L 1447.0 -705.0 L 1445.0 -705.0 L 1444.0 -705.0 L 1443.5 -704.5 L 1443.0 -704.0 L 1442.0 -704.0 L 1431.0 -704.0 L 1431.0 -719.0 L 1431.0 -722.0 Z" fill="black" fill-opacity="0.25" stroke="black" stroke-width="4.0"/>
  <rect x="81.0" y="-392.0" width="1810.0" height="166.0" fill="none" stroke="red" stroke-width="10.0" /><rect x="0.0" y="-854.0" width="1126.0" height="363.0" fill="none" stroke="red" stroke-width="10.0" /><rect x="284.0" y="-624.0" width="587.0" height="221.99999999999997" fill="none" stroke="red" stroke-width="10.0" /><rect x="1191.0" y="-721.0" width="290.00000000000006" height="239.0" fill="none" stroke="red" stroke-width="10.0" /><rect x="1431.0" y="-722.0" width="268.9999999999999" height="239.0" fill="none" stroke="red" stroke-width="10.0" />
</svg>
