<svg xmlns="http://www.w3.org/2000/svg"
  viewBox="-50.0 -866.0 2540.0 726.0">
  <rect x="-50.0" y="-866.0" width="2540.0" height="726.0" fill="white"/>
  <path d="M 450.0 -329.0 L 450.0 -356.0 L 503.0 -343.0 L 560.0 -335.5 L 617.0 -328.0 L 681.0 -326.0 L 713.0 -326.0 L 748.5 -325.0 L 784.0 -324.0 L 824.5 -323.5 L 865.0 -323.0 L 910.5 -323.0 L 956.0 -323.0 L 1007.0 -323.0 L 1077.0 -323.0 L 1194.5 -324.0 L 1312.0 -325.0 L 1478.0 -328.0 L 1644.0 -330.0 L 1768.5 -331.0 L 1893.0 -332.0 L 1980.0 -332.0 L 2139.0 -332.0 L 2383.0 -234.0 L 2396.0 -221.0 L 2411.5 -211.0 L 2427.0 -201.0 L 2440.0 -190.0 L 2420.0 -190.0 L 2403.0 -193.0 L 2359.0 -197.0 L 2336.5 -201.5 L 2314.0 -206.0 L 2310.0 -206.0 L 2179.0 -213.0 L 2119.0 -216.0 L 2062.0 -218.5 L 2005.0 -221.0 L 1949.0 -221.0 L 1909.0 -221.0 L 1822.5 -219.0 L 1736.0 -217.0 L 1601.0 -212.0 L 1466.0 -207.0 L 1366.5 -205.0 L 1267.0 -203.0 L 1200.0 -203.0 L 1066.0 -203.0 L 932.5 -208.5 L 799.0 -214.0 L 665.0 -229.0 L 569.0 -239.0 Z M 663.0 -694.0 L 663.0 -722.0 L 676.0 -742.5 L 689.0 -763.0 L 711.0 -776.0 L 733.0 -789.0 L 761.0 -797.5 L 789.0 -806.0 L 817.5 -810.0 L 846.0 -814.0 L 872.5 -815.0 L 899.0 -816.0 L 919.0 -816.0 L 980.0 -816.0 L 1037.0 -810.5 L 1094.0 -805.0 L 1150.5 -795.0 L 1207.0 -785.0 L 1263.0 -771.5 L 1319.0 -758.0 L 1377.0 -741.0 L 1436.0 -724.0 L 1502.0 -691.5 L 1568.0 -659.0 L 1642.0 -610.0 L 1788.0 -514.0 L 1788.0 -473.0 L 1788.0 -454.0 L 1752.0 -454.0 L 1705.0 -454.0 L 1655.0 -460.5 L 1605.0 -467.0 L 1558.0 -477.0 L 1569.0 -581.0 L 1394.0 -665.0 L 1226.0 -745.0 L 1055.0 -745.0 L 1038.0 -745.0 L 1017.5 -743.5 L 997.0 -742.0 L 975.0 -738.0 L 953.0 -734.0 L 932.5 -727.0 L 912.0 -720.0 L 895.5 -708.5 L 879.0 -697.0 L 869.0 -680.5 L 859.0 -664.0 L 858.0 -642.0 L 857.0 -611.0 L 903.0 -574.0 L 961.0 -529.0 L 967.0 -527.0 L 828.0 -528.0 L 758.0 -557.0 L 711.0 -577.0 L 680.0 -626.0 L 663.0 -665.0 Z M 0.0 -733.0 L 13.0 -736.0 L 23.5 -741.0 L 34.0 -746.0 L 46.0 -748.0 L 82.0 -750.0 L 118.0 -751.0 L 154.0 -752.0 L 189.0 -752.0 L 216.0 -752.0 L 247.5 -748.5 L 279.0 -745.0 L 314.0 -738.0 L 336.0 -734.0 L 356.5 -727.5 L 377.0 -721.0 L 398.0 -716.0 L 413.0 -712.0 L 433.0 -705.5 L 453.0 -699.0 L 474.0 -690.5 L 495.0 -682.0 L 515.0 -670.0 L 535.0 -658.0 L 551.0 -644.0 L 567.0 -630.0 L 576.5 -613.0 L 586.0 -596.0 L 585.0 -577.0 L 585.0 -555.0 L 572.0 -536.0 L 567.0 -530.0 L 547.0 -530.0 L 506.0 -530.0 L 465.5 -537.5 L 425.0 -545.0 L 386.0 -555.0 L 407.0 -566.0 L 420.0 -583.0 L 435.0 -601.0 L 429.0 -614.0 L 419.0 -638.0 L 381.5 -658.5 L 344.0 -679.0 L 278.0 -691.0 L 207.0 -704.0 L 139.0 -713.0 L 71.0 -722.0 Z M 1848.0 -682.0 L 1850.0 -685.0 L 1864.0 -685.0 L 1879.0 -685.0 L 1890.0 -685.0 L 1901.0 -684.5 L 1912.0 -684.0 L 1923.0 -682.0 L 1970.0 -674.0 L 2039.0 -661.0 L 2057.0 -566.0 L 2069.0 -505.0 L 2081.0 -491.0 L 2092.0 -478.0 L 2110.0 -474.0 L 2116.0 -473.0 L 2125.0 -472.0 L 2128.0 -472.0 L 2129.0 -471.0 L 2128.0 -464.0 L 2121.0 -459.0 L 2114.0 -454.0 L 2104.5 -451.0 L 2095.0 -448.0 L 2085.5 -447.0 L 2076.0 -446.0 L 2070.0 -446.0 L 2049.0 -446.0 L 2026.0 -451.5 L 2003.0 -457.0 L 1975.0 -467.0 L 1920.0 -487.0 L 1899.0 -613.0 L 1890.0 -666.0 L 1867.0 -666.0 L 1853.0 -666.0 L 1844.0 -666.0 L 1842.0 -667.0 L 1839.0 -669.0 Z M 2079.0 -683.0 L 2079.0 -686.0 L 2096.0 -686.0 L 2109.0 -686.0 L 2120.5 -685.5 L 2132.0 -685.0 L 2143.0 -683.5 L 2154.0 -682.0 L 2165.0 -680.0 L 2176.0 -678.0 L 2189.0 -675.0 L 2260.0 -661.0 L 2276.0 -566.0 L 2286.0 -508.0 L 2301.0 -493.0 L 2311.0 -478.0 L 2331.0 -475.0 L 2336.0 -474.0 L 2338.0 -473.0 L 2340.0 -472.0 L 2343.0 -472.0 L 2348.0 -472.0 L 2348.0 -465.0 L 2341.5 -460.5 L 2335.0 -456.0 L 2325.5 -453.0 L 2316.0 -450.0 L 2307.0 -448.0 L 2297.0 -447.0 L 2293.0 -447.0 L 2255.0 -447.0 L 2195.0 -469.0 L 2141.0 -490.0 L 2120.0 -618.0 L 2111.0 -669.0 L 2095.0 -669.0 L 2093.0 -669.0 L 2092.0 -669.0 L 2091.5 -668.5 L 2091.0 -668.0 L 2090.0 -668.0 L 2079.0 -668.0 Z" fill="black" fill-opacity="0.25" stroke="black" stroke-width="4.0"/>
  <rect x="450.0" y="-356.0" width="1990.0" height="165.99999999999997" fill="none" stroke="red" stroke-width="10.0" /><rect x="663.0" y="-816.0" width="1125.0" height="361.99999999999994" fill="none" stroke="red" stroke-width="10.0" /><rect x="0.0" y="-752.0" width="586.0" height="221.99999999999997" fill="none" stroke="red" stroke-width="10.0" /><rect x="1839.0" y="-685.0" width="290.00000000000006" height="239.00000000000006" fill="none" stroke="red" stroke-width="10.0" /><rect x="2079.0" y="-686.0" width="268.99999999999966" height="239.00000000000006" fill="none" stroke="red" stroke-width="10.0" />
</svg>
