<svg xmlns="http://www.w3.org/2000/svg"
  viewBox="-50 -912 1972 737">
  <rect x="-50" y="-912" width="1972" height="737" fill="white"/>
  <path d="M 63 -391 L 112 -378 L 163.5 -370.5 L 215 -363 L 273 -361 L 332 -360 L 404 -359 L 476 -358 L 570 -358 L 634 -358 L 740 -359 L 846 -360 L 997 -363 L 1148 -365 L 1261.5 -366 L 1375 -367 L 1454 -367 L 1599 -367 L 1820 -269 L 1832 -256 L 1846 -246 L 1860 -236 L 1872 -225 L 1863 -225 L 1855 -225.5 L 1847 -226 L 1839 -228 L 1799 -232 L 1778.5 -236 L 1758 -240 L 1754 -240 L 1635 -248 L 1580 -251 L 1528 -253.5 L 1476 -256 L 1426 -256 L 1389 -256 L 1310.5 -254 L 1232 -252 L 1110 -247 L 987 -242 L 896.5 -240 L 806 -238 L 745 -238 L 621 -238 L 501 -243.5 L 381 -249 L 259 -264 L 172 -274 L 63 -364 Z M 0 -744 L 0 -772 L 14 -791.5 L 28 -811 L 50.5 -824.5 L 73 -838 L 101 -845 L 129 -852 L 157.5 -856 L 186 -860 L 213 -861 L 240 -862 L 260 -862 L 378 -859 L 491 -836 L 604 -813 L 716 -777 L 837 -738 L 980 -641 L 1123 -543 L 1122 -500 L 1122 -483 L 1086 -483 L 1039 -483 L 988.5 -491 L 938 -499 L 892 -511 L 906 -612 L 732 -700 L 647 -741 L 560.5 -763.5 L 474 -786 L 379 -786 L 353 -786 L 322.5 -783 L 292 -780 L 264.5 -769.5 L 237 -759 L 218 -739 L 199 -719 L 196 -686 L 193 -653 L 240 -617 L 301 -570 L 304 -571 L 234 -573 L 182.5 -581.5 L 131 -590 L 94 -605 L 49 -625 L 17 -674 L 0 -714 Z M 1182 -717 L 1184 -720 L 1198 -719 L 1204 -719 L 1215 -719 L 1226 -719 L 1236 -718.5 L 1246 -718 L 1257 -717 L 1304 -709 L 1373 -696 L 1391 -601 L 1403 -540 L 1414 -526 L 1425 -513 L 1444 -509 L 1449 -509 L 1458 -507 L 1461 -507 L 1463 -506 L 1462 -499 L 1455 -494 L 1448 -489 L 1438.5 -486 L 1429 -483 L 1419.5 -482 L 1410 -481 L 1404 -481 L 1382 -481 L 1360 -486.5 L 1338 -492 L 1309 -502 L 1254 -522 L 1233 -648 L 1224 -701 L 1201 -701 L 1186 -701 L 1177 -701 L 1176 -702 L 1173 -705 Z M 1430 -721 L 1443 -721 L 1454.5 -720 L 1466 -719 L 1477 -718 L 1488 -717 L 1499 -715 L 1510 -713 L 1522 -710 L 1592 -696 L 1610 -601 L 1620 -543 L 1635 -528 L 1645 -513 L 1664 -510 L 1669 -509 L 1671.5 -508 L 1674 -507 L 1677 -507 L 1682 -507 L 1682 -500 L 1675 -495 L 1668 -490 L 1659 -487.5 L 1650 -485 L 1641 -483.5 L 1632 -482 L 1627 -482 L 1589 -482 L 1529 -504 L 1475 -525 L 1454 -653 L 1445 -704 L 1429 -704 L 1427 -704 L 1419 -704 L 1416 -706.5 L 1413 -709 L 1413 -718 L 1413 -721 Z" fill="black" fill-opacity="0.25" stroke="black" stroke-width="4"/>
  <rect x="63" y="-391" width="1809" height="166" fill="none" stroke="red" stroke-width="10" /><rect x="0" y="-862" width="1123" height="379" fill="none" stroke="red" stroke-width="10" /><rect x="1173" y="-720" width="290" height="239" fill="none" stroke="red" stroke-width="10" /><rect x="1413" y="-721" width="269" height="239" fill="none" stroke="red" stroke-width="10" />
</svg>
