<svg xmlns="http://www.w3.org/2000/svg"
  viewBox="-50.0 -960.1666666666666 1457.0 781.1666666666666">
  <rect x="-50.0" y="-960.1666666666666" width="1457.0" height="781.1666666666666" fill="white"/>
  <path d="M 147.0 -268.0 L 82.0 -278.0 L 0.0 -368.0 L 0.0 -395.0 L 36.0 -382.0 L 75.5 -374.5 L 115.0 -367.0 L 158.0 -366.0 L 202.0 -365.0 L 256.0 -363.5 L 310.0 -362.0 L 380.0 -362.0 L 475.0 -362.0 L 701.0 -367.0 L 926.0 -372.0 L 1043.0 -372.0 L 1150.0 -372.0 L 1318.0 -273.0 L 1327.0 -260.0 L 1337.5 -250.5 L 1348.0 -241.0 L 1357.0 -229.0 L 1356.0 -229.0 L 1349.5 -229.0 L 1343.0 -229.0 L 1332.0 -233.0 L 1302.0 -237.0 L 1286.5 -241.0 L 1271.0 -245.0 L 1267.0 -245.0 L 1179.0 -253.0 L 1138.0 -256.0 L 1099.0 -258.5 L 1060.0 -261.0 L 1022.0 -261.0 L 967.0 -261.0 L 785.0 -251.0 L 602.0 -242.0 L 512.0 -242.0 L 465.0 -242.0 L 419.5 -243.5 L 374.0 -245.0 L 329.0 -248.0 L 284.0 -251.0 L 238.0 -256.0 L 192.0 -261.0 Z M 757.0 -680.0 L 751.0 -668.0 L 745.0 -649.5 L 739.0 -631.0 L 732.0 -606.0 L 870.0 -599.0 L 1101.0 -590.0 L 1146.0 -545.0 L 1004.0 -545.0 L 898.0 -545.0 L 792.0 -545.0 L 712.0 -546.0 L 695.0 -508.0 L 667.0 -479.0 L 656.0 -465.0 L 623.0 -455.0 L 606.0 -450.0 L 591.0 -449.0 L 576.0 -448.0 L 562.0 -448.0 L 540.0 -448.0 L 531.0 -451.0 L 518.0 -457.0 L 526.0 -465.0 L 551.0 -501.0 L 567.0 -551.0 L 554.0 -551.0 L 354.0 -560.0 L 256.0 -609.0 L 172.0 -648.0 L 70.0 -773.0 L 62.0 -787.0 L 58.0 -813.0 L 45.0 -887.0 L 40.0 -896.0 L 71.0 -900.0 L 109.0 -906.0 L 147.0 -911.0 L 162.0 -910.0 L 205.0 -909.0 L 234.0 -891.0 L 241.0 -887.0 L 242.0 -866.0 L 239.0 -821.0 L 239.0 -807.0 L 243.0 -801.0 L 335.0 -670.0 L 546.0 -627.0 L 554.0 -624.0 L 564.5 -623.5 L 575.0 -623.0 L 587.0 -621.0 L 592.0 -637.0 L 596.5 -649.0 L 601.0 -661.0 L 607.0 -673.0 L 615.0 -690.0 L 645.0 -690.0 L 706.0 -684.0 L 718.0 -682.0 L 731.5 -681.0 L 745.0 -680.0 Z" fill="black" fill-opacity="0.25" stroke="black" stroke-width="4.0"/>
  <rect x="0.0" y="-395.0" width="1357.0" height="166.0" fill="none" stroke="red" stroke-width="10.0" /><rect x="40.0" y="-911.0" width="1105.9999999999998" height="463.0" fill="none" stroke="red" stroke-width="10.0" />
</svg>
