<svg xmlns="http://www.w3.org/2000/svg"
  viewBox="-50 -1350 1500.4 1174">
  <rect x="-50" y="-1350" width="1500.4" height="1174" fill="white"/>
  <path d="M 158 -362 L 202 -361 L 255.5 -360 L 309 -359 L 380 -359 L 428 -359 L 507 -360 L 586 -361 L 700 -364 L 814 -366 L 898.5 -367.5 L 983 -369 L 1042 -369 L 1149 -369 L 1317 -270 L 1326 -257 L 1336.5 -247 L 1347 -237 L 1356 -226 L 1342 -226 L 1331 -230 L 1301 -234 L 1285.5 -238 L 1270 -242 L 1267 -242 L 1178 -250 L 1136 -253 L 1098 -255 L 1060 -257 L 1022 -257 L 994 -257 L 935.5 -255 L 877 -253 L 785 -248 L 692 -243 L 624.5 -241 L 557 -239 L 511 -239 L 419 -239 L 328.5 -245 L 238 -251 L 147 -265 L 81 -275 L 0 -365 L 0 -392 L 37 -379 L 75.5 -371 L 114 -363 Z M 129 -844 L 129 -845 L 130 -846 L 131 -846 L 135 -847 L 137 -848 L 133 -854 L 129 -859 L 135 -861 L 182 -878 L 222 -891.5 L 262 -905 L 296 -916.5 L 330 -928 L 357.5 -938 L 385 -948 L 405 -958 L 485 -998 L 530 -1072 L 537 -1084 L 544.5 -1101.5 L 552 -1119 L 561 -1142.5 L 570 -1166 L 581.5 -1195.5 L 593 -1225 L 608 -1260 L 609 -1263 L 613 -1264.5 L 617 -1266 L 621 -1266.5 L 625 -1267 L 629.5 -1267.5 L 634 -1268 L 638 -1271 L 650 -1278 L 658 -1282 L 666 -1286 L 669 -1288 L 682 -1294 L 690.5 -1296.5 L 699 -1299 L 702 -1300 L 715 -1300 L 720 -1300 L 725.5 -1299.5 L 731 -1299 L 736 -1298 L 740 -1297 L 744.5 -1296 L 749 -1295 L 754 -1294.5 L 759 -1294 L 763.5 -1292 L 768 -1290 L 772 -1286 L 773 -1285 L 772 -1283.5 L 771 -1282 L 768.5 -1280.5 L 766 -1279 L 763 -1278 L 760 -1277 L 758 -1276 L 720 -1250 L 718 -1243 L 712 -1218 L 706.5 -1196.5 L 701 -1175 L 693.5 -1155.5 L 686 -1136 L 675.5 -1117 L 665 -1098 L 650 -1078 L 650 -1078 L 651 -1078 L 652 -1079 L 654 -1079 L 649 -1074 L 645 -1070 L 645 -1070 L 645 -1070.5 L 645 -1071 L 646 -1072 L 647 -1073 L 648 -1074.5 L 649 -1076 L 650 -1078 L 646 -1076 L 635.5 -1069 L 625 -1062 L 611.5 -1052 L 598 -1042 L 581.5 -1029 L 565 -1016 L 549 -1004 L 533 -992 L 520.5 -981.5 L 508 -971 L 497 -962 L 486 -953 L 479 -946.5 L 472 -940 L 468 -936 L 468 -935 L 466 -933 L 466 -933 L 465 -932 L 471 -934 L 475.5 -936.5 L 480 -939 L 484 -941 L 489 -944 L 490 -944 L 490 -944 L 488 -943 L 487 -942 L 483.5 -940 L 480 -938 L 476.5 -936 L 473 -934 L 470.5 -933 L 468 -932 L 466 -932 L 465 -932 L 465 -932 L 453 -926 L 437 -919 L 421 -912 L 404.5 -905 L 388 -898 L 371 -892.5 L 354 -887 L 341 -885 L 332 -884 L 318.5 -883.5 L 305 -883 L 293.5 -882.5 L 282 -882 L 276 -881 L 270 -880 L 277 -877 L 285 -874 L 294 -873 L 303 -872 L 312 -872 L 324 -872 L 336.5 -873 L 349 -874 L 362 -874 L 364 -874 L 367 -874 L 370 -874 L 372 -874 L 417 -871 L 452 -844 L 471 -830 L 471 -825 L 474 -817 L 460 -818 L 447 -818 L 435.5 -819 L 424 -820 L 411 -822 L 394 -825 L 371.5 -828 L 349 -831 L 322 -835 L 296 -839 L 273 -840.5 L 250 -842 L 228 -842 L 224 -843 L 220 -843 L 216 -843 L 212 -843 L 198 -843 L 184.5 -842.5 L 171 -842 L 157 -841 L 154 -840 L 149 -838.5 L 144 -837 L 137 -837 L 132 -836 Z M 756 -591 L 756 -592 L 758 -592 L 759 -592 L 762 -594 L 764 -595 L 760 -601 L 756 -606 L 762 -608 L 808 -625 L 848.5 -638.5 L 889 -652 L 923 -663 L 957 -674 L 984.5 -684 L 1012 -694 L 1033 -705 L 1113 -745 L 1158 -819 L 1165 -831 L 1172.5 -848.5 L 1180 -866 L 1188.5 -889.5 L 1197 -913 L 1208.5 -942 L 1220 -971 L 1236 -1007 L 1237 -1010 L 1240 -1011 L 1243 -1012 L 1247.5 -1012.5 L 1252 -1013 L 1256.5 -1014 L 1261 -1015 L 1265 -1017 L 1277 -1024 L 1285.5 -1028.5 L 1294 -1033 L 1297 -1034 L 1310 -1040 L 1318.5 -1043 L 1327 -1046 L 1329 -1047 L 1343 -1047 L 1348 -1047 L 1353 -1046.5 L 1358 -1046 L 1364 -1044 L 1368 -1043 L 1372.5 -1042.5 L 1377 -1042 L 1382 -1041 L 1387 -1040 L 1391.5 -1038.5 L 1396 -1037 L 1400 -1033 L 1401 -1032 L 1399.5 -1030 L 1398 -1028 L 1395.5 -1027 L 1393 -1026 L 1390 -1025 L 1387 -1024 L 1386 -1022 L 1348 -997 L 1345 -989 L 1337 -955 L 1330 -931 L 1323 -907 L 1315 -888 L 1313 -882 L 1308.5 -873.5 L 1304 -865 L 1298 -856 L 1292 -847 L 1286.5 -838.5 L 1281 -830 L 1277 -824 L 1278 -824 L 1278 -825 L 1279 -825 L 1281 -825 L 1276 -820 L 1273 -817 L 1272 -817 L 1272 -817 L 1277 -824 L 1273 -822 L 1263 -815.5 L 1253 -809 L 1239 -798.5 L 1225 -788 L 1209 -775.5 L 1193 -763 L 1177 -750 L 1161 -738 L 1148.5 -727.5 L 1136 -717 L 1125 -709 L 1114 -700 L 1106.5 -693 L 1099 -686 L 1095 -682 L 1095 -681 L 1093 -680 L 1093 -680 L 1093 -679 L 1099 -681 L 1103.5 -683.5 L 1108 -686 L 1112 -688 L 1117 -691 L 1118 -691 L 1118 -691 L 1115 -689 L 1114 -688 L 1110.5 -686 L 1107 -684 L 1104 -682.5 L 1101 -681 L 1098 -679.5 L 1095 -678 L 1094 -678 L 1093 -678 L 1093 -679 L 1081 -673 L 1065 -665.5 L 1049 -658 L 1032 -651.5 L 1015 -645 L 998.5 -639.5 L 982 -634 L 969 -632 L 961 -631 L 946.5 -630.5 L 932 -630 L 920.5 -629.5 L 909 -629 L 903 -628 L 897 -627 L 905 -624 L 913 -621 L 921.5 -620 L 930 -619 L 939 -619 L 951 -619 L 963.5 -620 L 976 -621 L 989 -621 L 991 -621 L 994 -620.5 L 997 -620 L 1000 -620 L 1045 -617 L 1079 -591 L 1098 -577 L 1098 -572 L 1101 -564 L 1087 -564 L 1074 -564 L 1063 -565.5 L 1052 -567 L 1039 -569 L 1022 -572 L 999 -574.5 L 976 -577 L 950 -581 L 924 -585 L 901 -587 L 878 -589 L 856 -589 L 852 -590 L 848 -590 L 844 -590 L 840 -590 L 826 -590 L 812 -589.5 L 798 -589 L 784 -588 L 781 -587 L 776.5 -585 L 772 -583 L 764 -583 L 759 -583 Z M 143 -711 L 145 -714 L 160 -714 L 165 -714 L 177 -714 L 188 -714 L 198 -713.5 L 208 -713 L 219 -711 L 265 -703 L 334 -690 L 353 -595 L 365 -534 L 376 -520 L 387 -507 L 406 -503 L 411 -503 L 420 -501 L 423 -501 L 425 -500 L 425 -497 L 419 -490 L 409 -480 L 394 -477.5 L 379 -475 L 366 -475 L 344 -475 L 322 -480.5 L 300 -486 L 270 -496 L 215 -516 L 195 -642 L 186 -695 L 162 -695 L 148 -695 L 139 -695 L 138 -696 L 134 -699 Z M 375 -712 L 375 -715 L 392 -715 L 405 -715 L 416.5 -714.5 L 428 -714 L 439 -712.5 L 450 -711 L 461 -709 L 472 -707 L 484 -704 L 554 -690 L 572 -595 L 583 -538 L 597 -522 L 607 -507 L 626 -504 L 631 -503 L 633.5 -502 L 636 -501 L 639 -501 L 644 -501 L 644 -494 L 637 -489.5 L 630 -485 L 621 -482 L 612 -479 L 603 -477.5 L 594 -476 L 589 -476 L 551 -476 L 491 -498 L 436 -519 L 415 -647 L 407 -698 L 391 -698 L 389 -698 L 381 -698 L 378 -700 L 375 -702 Z" fill="black" fill-opacity="0.25" stroke="black" stroke-width="4"/>
  <rect x="0" y="-392" width="1356" height="166" fill="none" stroke="red" stroke-width="10" /><rect x="134" y="-714" width="291" height="239" fill="none" stroke="red" stroke-width="10" /><rect x="375" y="-715" width="269" height="239" fill="none" stroke="red" stroke-width="10" /><rect x="129" y="-978.6" width="388" height="160.7" fill="none" stroke="red" stroke-width="10" /><rect x="446.2" y="-1139.3" width="241.1" height="160.7" fill="none" stroke="red" stroke-width="10" /><rect x="559.8" y="-1300" width="213.2" height="160.7" fill="none" stroke="red" stroke-width="10" /><rect x="756" y="-725" width="389.5" height="161" fill="none" stroke="red" stroke-width="10" /><rect x="1073" y="-886" width="241.3" height="161" fill="none" stroke="red" stroke-width="10" /><rect x="1187.2" y="-1047" width="213.8" height="161" fill="none" stroke="red" stroke-width="10" />
</svg>
