<svg xmlns="http://www.w3.org/2000/svg"
  viewBox="-50 -461.044 1834 298.767">
  <rect x="-50" y="-461.044" width="1834" height="298.767" fill="white"/>
  <path d="M 151 -262 L 82 -271 L 0 -361 L 0 -388 L 38 -375 L 77.5 -367.5 L 117 -360 L 161 -359 L 206 -358 L 262 -357 L 318 -356 L 389 -356 L 486 -356 L 717 -360 L 947 -365 L 1067 -365 L 1177 -365 L 1349 -266 L 1359 -254 L 1368.5 -244 L 1378 -234 L 1388 -223 L 1386 -223 L 1379 -223 L 1372 -223 L 1362 -226 L 1332 -231 L 1316.5 -234.5 L 1301 -238 L 1298 -238 L 1207 -246 L 1164 -249 L 1124 -251.5 L 1084 -254 L 1045 -254 L 988 -254 L 803 -244 L 614 -234 L 523 -235 L 474 -235 L 428 -236.5 L 382 -238 L 336 -241 L 291 -244 L 244 -249 L 197 -254 Z M 1389 -406 L 1446 -409 L 1464 -410 L 1477 -410 L 1489 -411 L 1499 -411 L 1583 -413 L 1628 -325 L 1654 -274 L 1672 -259 L 1687 -246 L 1711 -249 L 1734 -250 L 1734 -248 L 1734 -245 L 1733.5 -243.5 L 1733 -242 L 1730 -238 L 1716 -221 L 1674 -215 L 1625 -208 L 1554 -219 L 1483 -230 L 1430 -346 L 1408 -395 L 1388 -389 Z" fill="black" fill-opacity="0.25" stroke="black" stroke-width="4"/>
  <rect x="0" y="-388" width="1388" height="165" fill="none" stroke="red" stroke-width="10" /><rect x="1388" y="-413" width="346" height="205" fill="none" stroke="red" stroke-width="10" />
</svg>
