<svg xmlns="http://www.w3.org/2000/svg"
  viewBox="-50 -1028 1488 850">
  <rect x="-50" y="-1028" width="1488" height="850" fill="white"/>
  <path d="M 32 -367 L 32 -393 L 69 -381 L 107 -373 L 145 -365 L 190 -364 L 234 -362 L 287.5 -361.5 L 341 -361 L 412 -361 L 460 -361 L 539 -362 L 618 -363 L 732 -366 L 957 -370 L 1074 -370 L 1181 -370 L 1349 -272 L 1358 -259 L 1368.5 -249 L 1379 -239 L 1388 -228 L 1381 -228 L 1375.5 -228.5 L 1370 -229 L 1363 -231 L 1333 -236 L 1317.5 -239.5 L 1302 -243 L 1299 -243 L 1210 -251 L 1168 -254 L 1130 -256.5 L 1092 -259 L 1054 -259 L 1026 -259 L 967.5 -257 L 909 -255 L 817 -250 L 724 -245 L 656.5 -243 L 589 -241 L 543 -241 L 450 -241 L 360.5 -247 L 271 -253 L 179 -267 L 113 -277 Z M 8 -514 L 3 -514 L 0 -522 L 0 -523 L 2 -523 L 3 -523 L 6 -525 L 8 -526 L 4 -532 L 0 -537 L 6 -539 L 53 -556 L 93 -569 L 133 -582 L 167.5 -593 L 202 -604 L 229 -614.5 L 256 -625 L 277 -636 L 357 -677 L 402 -750 L 409 -762 L 416 -779.5 L 423 -797 L 432 -820.5 L 441 -844 L 452.5 -873 L 464 -902 L 480 -937 L 481 -940 L 484.5 -941.5 L 488 -943 L 492 -943.5 L 496 -944 L 501 -945 L 506 -946 L 509 -948 L 521 -955 L 529 -959.5 L 537 -964 L 541 -965 L 553 -971 L 561.5 -973.5 L 570 -976 L 573 -978 L 587 -978 L 592 -978 L 597 -977.5 L 602 -977 L 608 -975 L 612 -974 L 616.5 -973 L 621 -972 L 626 -971.5 L 631 -971 L 635.5 -969.5 L 640 -968 L 644 -964 L 645 -963 L 644 -961.5 L 643 -960 L 640 -958.5 L 637 -957 L 634.5 -955.5 L 632 -954 L 630 -953 L 593 -929 L 589 -920 L 581 -886 L 574 -862 L 567 -838 L 559 -819 L 557 -813 L 552.5 -804.5 L 548 -796 L 542 -787 L 536 -778 L 530.5 -769.5 L 525 -761 L 521 -755 L 522 -755 L 522 -756 L 523 -756 L 525 -756 L 520 -751 L 517 -748 L 516 -748 L 516 -748 L 521 -755 L 517 -753 L 507 -746.5 L 497 -740 L 483 -729.5 L 469 -719 L 453 -706.5 L 437 -694 L 421 -681 L 399 -664 L 377.5 -647 L 356 -630 L 337 -611 L 337 -611 L 337 -610 L 343 -612 L 347.5 -614.5 L 352 -617 L 356 -618 L 361 -621 L 361 -621 L 360 -620 L 359 -620 L 358 -619 L 354.5 -617 L 351 -615 L 348 -613.5 L 345 -612 L 342 -610.5 L 339 -609 L 338 -609 L 337 -609 L 337 -610 L 325 -604 L 309 -596.5 L 293 -589 L 276 -582 L 259 -575 L 242.5 -570 L 226 -565 L 213 -562 L 204 -561 L 190 -560.5 L 176 -560 L 164.5 -559.5 L 153 -559 L 147 -558 L 141 -557 L 149 -554 L 157 -551 L 165.5 -550.5 L 174 -550 L 183 -550 L 195 -550 L 207 -551 L 219 -552 L 232 -552 L 235 -552 L 238 -552 L 241 -552 L 244 -551 L 289 -548 L 323 -522 L 342 -508 L 342 -503 L 345 -495 L 331 -495 L 318 -495 L 307 -496 L 296 -497 L 283 -500 L 266 -503 L 243 -505.5 L 220 -508 L 194 -512 L 168 -516 L 145 -518 L 122 -520 L 100 -520 L 98 -521 L 95 -521 L 92 -521 L 90 -521 L 74 -521 L 59 -520.5 L 44 -520 L 28 -518 L 25 -517 L 20.5 -515.5 L 16 -514 Z M 605 -695 L 606 -696 L 610 -697.5 L 614 -699 L 618 -699.5 L 622 -700 L 625.5 -700 L 629 -700 L 631 -700 L 646 -700 L 674 -695 L 690 -693 L 700 -692 L 710 -691 L 716 -690 L 779 -680 L 796 -594 L 806 -541 L 816 -526 L 824 -512 L 844 -511 L 849 -510 L 857 -509 L 860 -509 L 861 -508 L 861 -503 L 857 -498 L 843 -484 L 810 -484 L 791 -484 L 769 -489 L 747 -494 L 721 -504 L 671 -522 L 652 -634 L 646 -682 L 622 -682 L 610 -682 L 602 -682 L 600 -684 L 599 -686 Z M 827 -697 L 827 -702 L 840 -701 L 844 -701 L 851 -701 L 861.5 -700 L 872 -699 L 886 -697 L 901 -695 L 910 -693 L 919 -691 L 925 -690 L 988 -681 L 1006 -594 L 1016 -542 L 1027 -526 L 1034 -516 L 1053 -512 L 1071 -508 L 1070 -508 L 1070 -505 L 1069.5 -505.5 L 1069 -506 L 1066 -500 L 1059 -486 L 1021 -486 L 1002 -486 L 980 -491 L 958 -496 L 932 -506 L 882 -524 L 863 -639 L 856 -686 L 842 -686 L 841 -686 L 840 -686 L 836 -685 L 827 -686 Z" fill="black" fill-opacity="0.25" stroke="black" stroke-width="4"/>
  <rect x="32" y="-393" width="1356" height="165" fill="none" stroke="red" stroke-width="10" /><rect x="599" y="-700" width="262" height="216" fill="none" stroke="red" stroke-width="10" /><rect x="827" y="-702" width="244" height="216" fill="none" stroke="red" stroke-width="10" /><rect x="0" y="-656" width="388.9" height="161" fill="none" stroke="red" stroke-width="10" /><rect x="316" y="-817" width="242.3" height="161" fill="none" stroke="red" stroke-width="10" /><rect x="430.7" y="-978" width="214.3" height="161" fill="none" stroke="red" stroke-width="10" />
</svg>
