<svg xmlns="http://www.w3.org/2000/svg"
  viewBox="-50 -1316 1456 1135">
  <rect x="-50" y="-1316" width="1456" height="1135" fill="white"/>
  <path d="M 0 -371 L 0 -397 L 39 -384 L 77.5 -376.5 L 116 -369 L 157 -367 L 206 -365 L 253.5 -364.5 L 301 -364 L 350 -364 L 438 -364 L 525 -365.5 L 612 -367 L 700 -369 L 814 -371 L 898.5 -372 L 983 -373 L 1042 -373 L 1149 -373 L 1317 -275 L 1322 -269 L 1327 -263.5 L 1332 -258 L 1336 -252 L 1341 -247 L 1346 -242 L 1351 -237 L 1356 -231 L 1348 -231 L 1342 -231 L 1331 -234 L 1301 -239 L 1286 -243 L 1268 -247 L 1267 -247 L 1178 -255 L 1157 -256 L 1137.5 -257.5 L 1118 -259 L 1098 -260 L 1078 -261 L 1059 -262 L 1040 -263 L 1021 -263 L 993 -263 L 934.5 -260.5 L 876 -258 L 784 -253 L 691 -248 L 624 -246 L 557 -244 L 511 -244 L 418 -244 L 328.5 -250.5 L 239 -257 L 146 -270 L 81 -281 Z M 423 -828 L 423 -831 L 429 -831 L 432 -832 L 429 -839 L 426 -844 L 431 -847 L 478 -863 L 518.5 -875 L 559 -887 L 594 -896 L 629 -905 L 663 -917.5 L 697 -930 L 728.5 -948 L 760 -966 L 787 -990 L 814 -1014 L 834 -1045 L 841 -1056 L 849 -1072.5 L 857 -1089 L 867 -1113 L 877 -1135 L 889.5 -1164 L 902 -1193 L 918 -1228 L 921 -1234 L 930 -1234 L 938 -1234 L 946 -1239 L 952 -1243 L 957.5 -1245.5 L 963 -1248 L 968 -1250 L 976 -1253 L 979 -1256 L 984 -1257 L 989 -1259 L 994 -1261 L 998 -1263 L 1003 -1265 L 1007 -1265.5 L 1011 -1266 L 1016 -1266 L 1030 -1266 L 1045 -1261 L 1050 -1260 L 1055.5 -1259.5 L 1061 -1259 L 1066 -1259 L 1076 -1259 L 1081 -1251 L 1085 -1247 L 1077 -1245 L 1070 -1243 L 1067 -1241 L 1029 -1217 L 1026 -1208 L 1016 -1177 L 1009 -1151 L 1003 -1132 L 996.5 -1116 L 990 -1100 L 979 -1084 L 974 -1077 L 969 -1070.5 L 964 -1064 L 960 -1059 L 958 -1056 L 956.5 -1052.5 L 955 -1049 L 953 -1047 L 956 -1048 L 951 -1042 L 946 -1038 L 947 -1039 L 947 -1039 L 947.5 -1039.5 L 948 -1040 L 948 -1040 L 949 -1043 L 953 -1047 L 950 -1047 L 942 -1042.5 L 934 -1038 L 923.5 -1031 L 913 -1024 L 901 -1015.5 L 889 -1007 L 878.5 -999.5 L 868 -992 L 859.5 -986 L 851 -980 L 848 -977 L 842 -972 L 829.5 -964 L 817 -956 L 804.5 -946 L 792 -936 L 781 -926.5 L 770 -917 L 766 -911 L 765 -910 L 764 -909 L 769 -911 L 773.5 -912.5 L 778 -914 L 782 -915 L 786 -916 L 788 -917 L 790 -917 L 778 -911 L 769 -906 L 765 -906 L 763 -906 L 764 -909 L 755 -906 L 742 -900 L 715 -889 L 685 -878 L 667 -872 L 650.5 -867.5 L 634 -863 L 615 -863 L 589 -863 L 583 -863 L 579 -863 L 575 -863 L 571 -862 L 565 -862 L 573 -858 L 588 -852 L 606 -852 L 609 -852 L 612 -852 L 615 -852 L 618 -852 L 623 -852 L 629 -852.5 L 635 -853 L 640 -853 L 668 -853 L 696 -846 L 724 -839 L 747 -820 L 763 -807 L 764 -798 L 765 -792 L 753 -792 L 704 -797 L 617 -812 L 583 -820 L 546.5 -824 L 510 -828 L 475 -828 L 469 -828 L 463 -827.5 L 457 -827 L 451 -827 L 449 -826 L 443 -824 L 439 -822 L 431 -822 L 425 -822 Z M 587 -709 L 629 -712 L 631 -712 L 633 -712.5 L 635 -713 L 637 -713 L 699 -713 L 734 -631 L 755 -580 L 770 -567 L 780 -557 L 794 -558 L 795 -558 L 797 -558 L 799 -558 L 801 -558 L 811 -559 L 815 -560 L 820 -560 L 820 -558 L 821 -554 L 817 -548 L 811 -539 L 800.5 -533.5 L 790 -528 L 777.5 -524.5 L 765 -521 L 752.5 -520 L 740 -519 L 729 -519 L 717 -519 L 704.5 -520 L 692 -521 L 678 -523 L 622 -532 L 576 -645 L 559 -687 L 545 -688 L 543 -688 L 542 -687 L 542 -705 Z" fill="black" fill-opacity="0.25" stroke="black" stroke-width="4"/>
  <rect x="0" y="-397" width="1356" height="166" fill="none" stroke="red" stroke-width="10" /><rect x="542" y="-713" width="279" height="194" fill="none" stroke="red" stroke-width="10" /><rect x="423" y="-950" width="386.5" height="158" fill="none" stroke="red" stroke-width="10" /><rect x="732" y="-1108" width="261.2" height="158" fill="none" stroke="red" stroke-width="10" /><rect x="864.9" y="-1266" width="220.1" height="158" fill="none" stroke="red" stroke-width="10" />
</svg>
