<svg xmlns="http://www.w3.org/2000/svg"
  viewBox="-50.0 -1300.0 1893.5 1122.0">
  <rect x="-50.0" y="-1300.0" width="1893.5" height="1122.0" fill="white"/>
  <path d="M 310.0 -364.0 L 347.0 -363.0 L 389.5 -362.0 L 432.0 -361.0 L 487.0 -361.0 L 532.0 -361.0 L 580.0 -361.0 L 659.0 -362.0 L 738.0 -363.0 L 852.0 -366.0 L 1077.0 -370.0 L 1194.0 -370.0 L 1301.0 -370.0 L 1469.0 -272.0 L 1478.0 -259.0 L 1488.5 -249.0 L 1499.0 -239.0 L 1508.0 -228.0 L 1501.0 -228.0 L 1495.5 -228.5 L 1490.0 -229.0 L 1483.0 -231.0 L 1453.0 -236.0 L 1437.5 -240.0 L 1422.0 -244.0 L 1419.0 -244.0 L 1330.0 -251.0 L 1288.0 -254.0 L 1250.0 -256.5 L 1212.0 -259.0 L 1174.0 -259.0 L 1146.0 -259.0 L 1087.5 -257.0 L 1029.0 -255.0 L 937.0 -250.0 L 844.0 -245.0 L 776.5 -243.0 L 709.0 -241.0 L 663.0 -241.0 L 570.0 -241.0 L 480.5 -247.0 L 391.0 -253.0 L 299.0 -267.0 L 233.0 -277.0 L 152.0 -367.0 L 152.0 -393.0 L 189.0 -381.0 L 227.5 -373.0 L 266.0 -365.0 Z M 0.0 -484.0 L 0.0 -485.0 L 1.0 -485.0 L 2.0 -485.0 L 5.0 -487.0 L 7.0 -488.0 L 3.0 -494.0 L -1.0 -499.0 L 5.0 -501.0 L 52.0 -518.0 L 92.5 -531.0 L 133.0 -544.0 L 167.0 -555.5 L 201.0 -567.0 L 228.0 -577.0 L 255.0 -587.0 L 276.0 -598.0 L 355.0 -640.0 L 401.0 -712.0 L 408.0 -724.0 L 415.5 -741.5 L 423.0 -759.0 L 432.0 -782.5 L 441.0 -806.0 L 452.5 -835.0 L 464.0 -864.0 L 480.0 -899.0 L 481.0 -902.0 L 484.0 -903.5 L 487.0 -905.0 L 491.5 -905.5 L 496.0 -906.0 L 500.5 -907.0 L 505.0 -908.0 L 509.0 -910.0 L 521.0 -917.0 L 529.0 -921.0 L 537.0 -925.0 L 541.0 -927.0 L 553.0 -933.0 L 561.5 -935.5 L 570.0 -938.0 L 573.0 -940.0 L 586.0 -940.0 L 591.0 -940.0 L 596.5 -939.5 L 602.0 -939.0 L 607.0 -937.0 L 611.0 -936.0 L 616.0 -935.0 L 621.0 -934.0 L 625.5 -933.5 L 630.0 -933.0 L 635.0 -931.5 L 640.0 -930.0 L 644.0 -926.0 L 645.0 -925.0 L 643.5 -923.0 L 642.0 -921.0 L 639.5 -920.0 L 637.0 -919.0 L 634.0 -917.5 L 631.0 -916.0 L 629.0 -915.0 L 591.0 -889.0 L 589.0 -882.0 L 581.0 -848.0 L 573.5 -824.0 L 566.0 -800.0 L 559.0 -781.0 L 557.0 -775.0 L 552.0 -766.5 L 547.0 -758.0 L 541.5 -749.0 L 536.0 -740.0 L 530.0 -731.5 L 524.0 -723.0 L 521.0 -717.0 L 522.0 -717.0 L 522.0 -718.0 L 524.0 -718.0 L 520.0 -713.0 L 517.0 -710.0 L 516.0 -710.0 L 516.0 -710.0 L 521.0 -717.0 L 517.0 -715.0 L 507.0 -708.5 L 497.0 -702.0 L 483.0 -691.5 L 469.0 -681.0 L 453.0 -668.5 L 437.0 -656.0 L 420.0 -643.0 L 404.0 -631.0 L 391.5 -620.5 L 379.0 -610.0 L 369.0 -601.0 L 358.0 -592.0 L 350.5 -585.5 L 343.0 -579.0 L 339.0 -575.0 L 339.0 -574.0 L 337.0 -573.0 L 337.0 -573.0 L 336.0 -572.0 L 341.0 -574.0 L 346.0 -576.5 L 351.0 -579.0 L 355.0 -580.0 L 360.0 -583.0 L 361.0 -583.0 L 362.0 -583.0 L 352.0 -578.0 L 341.0 -572.0 L 337.0 -571.0 L 336.0 -571.0 L 336.0 -572.0 L 324.0 -566.0 L 308.5 -558.5 L 293.0 -551.0 L 276.0 -544.5 L 259.0 -538.0 L 242.5 -532.5 L 226.0 -527.0 L 212.0 -524.0 L 204.0 -523.0 L 190.0 -522.5 L 176.0 -522.0 L 164.0 -521.5 L 152.0 -521.0 L 146.5 -520.0 L 141.0 -519.0 L 148.0 -517.0 L 156.0 -514.0 L 164.5 -513.0 L 173.0 -512.0 L 182.0 -512.0 L 194.0 -512.0 L 206.0 -513.0 L 218.0 -514.0 L 231.0 -514.0 L 256.0 -514.0 L 279.5 -506.5 L 303.0 -499.0 L 323.0 -484.0 L 341.0 -470.0 L 342.0 -465.0 L 345.0 -457.0 L 331.0 -457.0 L 318.0 -457.0 L 306.5 -458.0 L 295.0 -459.0 L 283.0 -462.0 L 265.0 -465.0 L 242.5 -467.5 L 220.0 -470.0 L 193.0 -474.0 L 166.0 -478.0 L 144.0 -480.0 L 122.0 -482.0 L 100.0 -482.0 L 96.0 -483.0 L 91.5 -483.0 L 87.0 -483.0 L 84.0 -483.0 L 70.0 -483.0 L 56.0 -482.5 L 42.0 -482.0 L 27.0 -480.0 L 24.0 -479.0 L 19.5 -477.5 L 15.0 -476.0 L 7.0 -476.0 L 3.0 -476.0 Z M 614.0 -786.0 L 609.0 -786.0 L 606.0 -794.0 L 606.0 -795.0 L 607.0 -795.0 L 608.0 -795.0 L 612.0 -797.0 L 614.0 -798.0 L 609.0 -804.0 L 605.0 -809.0 L 612.0 -811.0 L 658.0 -828.0 L 698.5 -841.0 L 739.0 -854.0 L 773.0 -865.5 L 807.0 -877.0 L 834.5 -887.0 L 862.0 -897.0 L 882.0 -908.0 L 961.0 -950.0 L 1007.0 -1022.0 L 1014.0 -1034.0 L 1021.5 -1051.5 L 1029.0 -1069.0 L 1038.0 -1092.5 L 1047.0 -1116.0 L 1058.5 -1145.0 L 1070.0 -1174.0 L 1085.0 -1209.0 L 1086.0 -1212.0 L 1089.5 -1213.5 L 1093.0 -1215.0 L 1097.5 -1215.5 L 1102.0 -1216.0 L 1106.5 -1217.0 L 1111.0 -1218.0 L 1115.0 -1220.0 L 1127.0 -1227.0 L 1135.0 -1231.0 L 1143.0 -1235.0 L 1147.0 -1237.0 L 1159.0 -1243.0 L 1167.5 -1245.5 L 1176.0 -1248.0 L 1179.0 -1250.0 L 1192.0 -1250.0 L 1197.0 -1250.0 L 1202.5 -1249.5 L 1208.0 -1249.0 L 1213.0 -1247.0 L 1217.0 -1246.0 L 1222.0 -1245.5 L 1227.0 -1245.0 L 1231.5 -1244.0 L 1236.0 -1243.0 L 1241.0 -1241.5 L 1246.0 -1240.0 L 1250.0 -1236.0 L 1251.0 -1235.0 L 1249.5 -1233.0 L 1248.0 -1231.0 L 1245.5 -1230.0 L 1243.0 -1229.0 L 1240.0 -1227.5 L 1237.0 -1226.0 L 1235.0 -1225.0 L 1197.0 -1199.0 L 1195.0 -1192.0 L 1187.0 -1158.0 L 1179.5 -1134.0 L 1172.0 -1110.0 L 1165.0 -1091.0 L 1163.0 -1085.0 L 1158.0 -1076.5 L 1153.0 -1068.0 L 1147.5 -1059.0 L 1142.0 -1050.0 L 1136.0 -1041.5 L 1130.0 -1033.0 L 1126.0 -1027.0 L 1127.0 -1027.0 L 1127.0 -1028.0 L 1128.0 -1028.0 L 1130.0 -1028.0 L 1126.0 -1023.0 L 1123.0 -1020.0 L 1122.0 -1020.0 L 1122.0 -1020.0 L 1126.0 -1027.0 L 1122.0 -1025.0 L 1112.5 -1018.5 L 1103.0 -1012.0 L 1089.0 -1001.5 L 1075.0 -991.0 L 1059.0 -978.5 L 1043.0 -966.0 L 1026.0 -953.0 L 1010.0 -941.0 L 997.5 -930.5 L 985.0 -920.0 L 975.0 -912.0 L 964.0 -903.0 L 956.5 -896.0 L 949.0 -889.0 L 945.0 -885.0 L 945.0 -884.0 L 943.0 -883.0 L 943.0 -883.0 L 942.0 -882.0 L 947.0 -884.0 L 952.0 -886.5 L 957.0 -889.0 L 961.0 -891.0 L 966.0 -894.0 L 967.0 -893.0 L 968.0 -893.0 L 958.0 -888.0 L 947.0 -882.0 L 943.0 -881.0 L 942.0 -881.0 L 942.0 -882.0 L 930.0 -876.0 L 914.0 -868.5 L 898.0 -861.0 L 881.5 -854.5 L 865.0 -848.0 L 848.5 -842.5 L 832.0 -837.0 L 818.0 -834.0 L 810.0 -833.0 L 796.0 -832.5 L 782.0 -832.0 L 770.0 -831.5 L 758.0 -831.0 L 752.5 -830.0 L 747.0 -829.0 L 754.0 -827.0 L 762.0 -824.0 L 770.5 -823.0 L 779.0 -822.0 L 788.0 -822.0 L 800.0 -822.0 L 812.0 -823.0 L 824.0 -824.0 L 837.0 -824.0 L 862.0 -824.0 L 885.5 -816.5 L 909.0 -809.0 L 929.0 -794.0 L 947.0 -780.0 L 948.0 -775.0 L 951.0 -767.0 L 937.0 -767.0 L 924.0 -767.0 L 912.5 -768.0 L 901.0 -769.0 L 889.0 -772.0 L 871.0 -775.0 L 848.5 -777.5 L 826.0 -780.0 L 799.0 -784.0 L 772.0 -788.0 L 750.0 -790.0 L 728.0 -792.0 L 706.0 -792.0 L 702.0 -793.0 L 697.5 -793.0 L 693.0 -793.0 L 689.0 -793.0 L 675.0 -793.0 L 661.5 -792.5 L 648.0 -792.0 L 634.0 -790.0 L 631.0 -789.0 L 626.5 -787.5 L 622.0 -786.0 Z M 1149.0 -483.0 L 1149.0 -484.0 L 1151.0 -484.0 L 1152.0 -484.0 L 1155.0 -486.0 L 1157.0 -487.0 L 1153.0 -493.0 L 1149.0 -498.0 L 1155.0 -500.0 L 1201.0 -517.0 L 1241.5 -530.0 L 1282.0 -543.0 L 1316.0 -554.5 L 1350.0 -566.0 L 1377.5 -576.0 L 1405.0 -586.0 L 1426.0 -597.0 L 1505.0 -639.0 L 1551.0 -711.0 L 1558.0 -723.0 L 1565.5 -740.5 L 1573.0 -758.0 L 1581.5 -781.5 L 1590.0 -805.0 L 1601.5 -834.0 L 1613.0 -863.0 L 1629.0 -898.0 L 1630.0 -901.0 L 1633.5 -902.5 L 1637.0 -904.0 L 1641.0 -904.5 L 1645.0 -905.0 L 1649.5 -906.0 L 1654.0 -907.0 L 1659.0 -909.0 L 1671.0 -916.0 L 1678.5 -920.0 L 1686.0 -924.0 L 1690.0 -926.0 L 1702.0 -932.0 L 1711.0 -934.5 L 1720.0 -937.0 L 1723.0 -939.0 L 1736.0 -939.0 L 1741.0 -939.0 L 1746.0 -938.5 L 1751.0 -938.0 L 1757.0 -936.0 L 1761.0 -935.0 L 1765.5 -934.0 L 1770.0 -933.0 L 1775.0 -932.5 L 1780.0 -932.0 L 1784.5 -930.5 L 1789.0 -929.0 L 1793.0 -925.0 L 1794.0 -924.0 L 1793.0 -922.0 L 1792.0 -920.0 L 1789.0 -919.0 L 1786.0 -918.0 L 1783.0 -916.5 L 1780.0 -915.0 L 1779.0 -914.0 L 1741.0 -888.0 L 1738.0 -881.0 L 1730.0 -847.0 L 1723.0 -823.0 L 1716.0 -799.0 L 1709.0 -780.0 L 1707.0 -774.0 L 1702.0 -765.5 L 1697.0 -757.0 L 1691.0 -748.0 L 1685.0 -739.0 L 1679.5 -730.5 L 1674.0 -722.0 L 1670.0 -716.0 L 1671.0 -716.0 L 1671.0 -717.0 L 1672.0 -717.0 L 1674.0 -717.0 L 1669.0 -712.0 L 1666.0 -709.0 L 1666.0 -709.0 L 1666.0 -709.0 L 1670.0 -716.0 L 1666.0 -714.0 L 1656.0 -707.5 L 1646.0 -701.0 L 1632.0 -690.5 L 1618.0 -680.0 L 1602.0 -667.5 L 1586.0 -655.0 L 1570.0 -642.0 L 1554.0 -630.0 L 1541.5 -619.5 L 1529.0 -609.0 L 1518.0 -600.0 L 1507.0 -591.0 L 1499.5 -584.5 L 1492.0 -578.0 L 1488.0 -574.0 L 1488.0 -573.0 L 1486.0 -572.0 L 1486.0 -572.0 L 1486.0 -571.0 L 1491.0 -573.0 L 1496.0 -575.5 L 1501.0 -578.0 L 1504.0 -579.0 L 1509.0 -582.0 L 1510.0 -582.0 L 1511.0 -582.0 L 1501.0 -577.0 L 1490.0 -571.0 L 1487.0 -570.0 L 1486.0 -570.0 L 1486.0 -571.0 L 1474.0 -565.0 L 1458.0 -557.5 L 1442.0 -550.0 L 1425.0 -543.5 L 1408.0 -537.0 L 1391.5 -531.5 L 1375.0 -526.0 L 1362.0 -523.0 L 1354.0 -522.0 L 1340.0 -521.5 L 1326.0 -521.0 L 1314.0 -520.5 L 1302.0 -520.0 L 1296.0 -519.0 L 1290.0 -518.0 L 1298.0 -516.0 L 1306.0 -513.0 L 1314.0 -512.0 L 1322.0 -511.0 L 1332.0 -511.0 L 1344.0 -511.0 L 1356.0 -512.0 L 1368.0 -513.0 L 1380.0 -513.0 L 1405.0 -513.0 L 1428.5 -505.5 L 1452.0 -498.0 L 1473.0 -483.0 L 1491.0 -469.0 L 1491.0 -464.0 L 1494.0 -456.0 L 1480.0 -456.0 L 1467.0 -456.0 L 1456.0 -457.0 L 1445.0 -458.0 L 1432.0 -461.0 L 1414.0 -464.0 L 1391.5 -466.5 L 1369.0 -469.0 L 1343.0 -473.0 L 1316.0 -477.0 L 1293.5 -479.0 L 1271.0 -481.0 L 1249.0 -481.0 L 1245.0 -482.0 L 1241.0 -482.0 L 1237.0 -482.0 L 1233.0 -482.0 L 1219.0 -482.0 L 1205.0 -481.5 L 1191.0 -481.0 L 1177.0 -479.0 L 1174.0 -478.0 L 1169.5 -476.5 L 1165.0 -475.0 L 1157.0 -475.0 L 1152.0 -475.0 Z M 607.0 -679.0 L 608.0 -680.0 L 612.0 -681.0 L 616.0 -682.0 L 620.0 -682.5 L 624.0 -683.0 L 627.5 -683.0 L 631.0 -683.0 L 633.0 -683.0 L 648.0 -683.0 L 676.0 -679.0 L 692.0 -677.0 L 701.5 -676.0 L 711.0 -675.0 L 718.0 -674.0 L 781.0 -664.0 L 798.0 -577.0 L 808.0 -524.0 L 818.0 -510.0 L 826.0 -496.0 L 846.0 -494.0 L 851.0 -493.0 L 859.0 -493.0 L 862.0 -493.0 L 864.0 -491.0 L 863.0 -484.0 L 857.0 -479.5 L 851.0 -475.0 L 842.5 -472.5 L 834.0 -470.0 L 825.5 -469.0 L 817.0 -468.0 L 812.0 -468.0 L 793.0 -468.0 L 771.5 -473.0 L 750.0 -478.0 L 723.0 -488.0 L 672.0 -507.0 L 654.0 -618.0 L 648.0 -666.0 L 625.0 -666.0 L 612.0 -666.0 L 604.0 -666.0 L 603.0 -667.0 L 601.0 -670.0 Z M 829.0 -680.0 L 829.0 -685.0 L 843.0 -685.0 L 846.0 -685.0 L 853.0 -685.0 L 864.0 -684.0 L 875.0 -683.0 L 889.0 -680.0 L 904.0 -678.0 L 912.5 -676.5 L 921.0 -675.0 L 928.0 -674.0 L 991.0 -665.0 L 1009.0 -577.0 L 1019.0 -525.0 L 1029.0 -510.0 L 1035.0 -500.0 L 1056.0 -496.0 L 1074.0 -492.0 L 1073.0 -491.0 L 1073.0 -488.0 L 1072.0 -488.5 L 1071.0 -489.0 L 1068.0 -483.0 L 1061.0 -469.0 L 1023.0 -469.0 L 1004.0 -469.0 L 982.0 -474.5 L 960.0 -480.0 L 934.0 -490.0 L 883.0 -509.0 L 865.0 -622.0 L 858.0 -669.0 L 845.0 -669.0 L 843.0 -669.0 L 842.0 -669.0 L 838.0 -669.0 L 828.0 -669.0 Z" fill="black" fill-opacity="0.25" stroke="black" stroke-width="4.0"/>
  <rect x="152.0" y="-393.0" width="1356.0" height="165.0" fill="none" stroke="red" stroke-width="10.0" /><rect x="-1.0" y="-940.0" width="646.0" height="482.99999999999994" fill="none" stroke="red" stroke-width="10.0" /><rect x="605.0" y="-1250.0" width="645.9999999999999" height="483.0" fill="none" stroke="red" stroke-width="10.0" /><rect x="1149.0" y="-939.0" width="645.0" height="482.99999999999994" fill="none" stroke="red" stroke-width="10.0" /><rect x="601.0" y="-683.0" width="263.0" height="215.00000000000003" fill="none" stroke="red" stroke-width="10.0" /><rect x="828.0" y="-685.0" width="246.0000000000001" height="216.00000000000009" fill="none" stroke="red" stroke-width="10.0" />
</svg>
