<svg xmlns="http://www.w3.org/2000/svg"
  viewBox="-50.00033538510102 -796.0 2068.010101005101 634.0">
  <rect x="-50.00033538510102" y="-796.0" width="2068.010101005101" height="634.0" fill="white"/>
  <path d="M 70.009765625 -743.0 L 77.009765625 -746.0 L 87.009765625 -746.0 L 97.009765625 -746.0 L 111.009765625 -746.0 L 154.009765625 -746.0 L 200.009765625 -732.0 L 244.009765625 -719.0 L 292.009765625 -690.0 L 355.009765625 -632.0 L 346.009765625 -632.0 L 329.509765625 -633.5 L 313.009765625 -635.0 L 286.009765625 -638.0 L 261.009765625 -641.0 L 242.509765625 -642.5 L 224.009765625 -644.0 L 212.009765625 -644.0 L 189.009765625 -644.0 L 170.009765625 -637.0 L 154.009765625 -630.0 L 154.009765625 -613.0 L 154.009765625 -605.0 L 160.009765625 -594.0 L 167.009765625 -580.0 L 170.509765625 -570.0 L 174.009765625 -560.0 L 179.009765625 -558.0 L 193.009765625 -552.0 L 204.509765625 -549.0 L 216.009765625 -546.0 L 230.009765625 -543.0 L 272.009765625 -532.0 L 279.009765625 -530.0 L 293.009765625 -529.5 L 307.009765625 -529.0 L 328.009765625 -529.0 L 396.009765625 -537.0 L 459.509765625 -544.5 L 523.009765625 -552.0 L 585.009765625 -558.0 L 706.009765625 -571.0 L 843.009765625 -573.0 L 933.009765625 -573.0 L 1066.00976562 -477.0 L 1096.00976562 -435.0 L 1077.00976562 -440.0 L 1024.00976562 -451.0 L 944.009765625 -460.0 L 870.009765625 -470.0 L 805.009765625 -470.0 L 766.009765625 -466.0 L 746.009765625 -465.0 L 716.509765625 -464.0 L 687.009765625 -463.0 L 648.009765625 -460.0 L 633.009765625 -459.0 L 608.509765625 -458.5 L 584.009765625 -458.0 L 548.009765625 -458.0 L 521.009765625 -458.0 L 492.509765625 -459.0 L 464.009765625 -460.0 L 435.009765625 -462.0 L 374.009765625 -465.0 L 299.009765625 -475.0 L 247.009765625 -482.0 L 197.009765625 -505.5 L 147.009765625 -529.0 L 97.009765625 -563.0 L -0.990234375 -630.0 L 0.009765625 -688.0 L 0.009765625 -729.0 Z M 1204.00976562 -677.0 L 1208.00976562 -682.0 L 1227.00976562 -682.0 L 1249.00976562 -682.0 L 1285.00976562 -677.0 L 1332.00976562 -669.0 L 1408.00976562 -657.0 L 1426.00976562 -557.0 L 1437.00976562 -495.0 L 1451.00976562 -479.0 L 1465.00976562 -463.0 L 1482.00976562 -460.0 L 1503.00976562 -458.0 L 1502.00976562 -457.0 L 1502.00976562 -453.0 L 1496.00976562 -446.0 L 1480.00976562 -430.0 L 1443.00976562 -431.0 L 1421.00976562 -431.0 L 1395.50976562 -436.0 L 1370.00976562 -441.0 L 1338.00976562 -452.0 L 1281.00976562 -473.0 L 1259.00976562 -605.0 L 1249.00976562 -661.0 L 1224.00976562 -661.0 L 1209.00976562 -661.0 L 1200.00976562 -661.0 L 1198.00976562 -663.0 L 1195.00976562 -666.0 Z M 1449.00976562 -679.0 L 1449.00976562 -683.0 L 1470.00976562 -683.0 L 1487.00976562 -683.0 L 1520.00976562 -679.0 L 1565.00976562 -671.0 L 1640.00976562 -658.0 L 1659.00976562 -558.0 L 1670.00976562 -497.0 L 1684.00976562 -479.0 L 1695.00976562 -464.0 L 1715.00976562 -462.0 L 1736.00976562 -460.0 L 1735.00976562 -457.0 L 1735.00976562 -454.0 L 1729.00976562 -448.0 L 1713.00976562 -433.0 L 1676.00976562 -432.0 L 1629.00976562 -432.0 L 1573.00976562 -454.0 L 1514.00976562 -477.0 L 1491.00976562 -610.0 L 1481.00976562 -667.0 L 1466.00976562 -665.0 L 1449.00976562 -662.0 Z M 374.009765625 -251.0 L 287.009765625 -261.0 L 180.009765625 -351.0 L 180.009765625 -377.0 L 228.009765625 -365.0 L 279.509765625 -357.0 L 331.009765625 -349.0 L 388.009765625 -348.0 L 446.009765625 -346.0 L 517.009765625 -345.5 L 588.009765625 -345.0 L 681.009765625 -345.0 L 806.009765625 -345.0 L 1103.00976562 -349.0 L 1399.00976562 -353.0 L 1554.00976562 -354.0 L 1696.00976562 -354.0 L 1916.00976562 -256.0 L 1928.00976562 -243.0 L 1942.00976562 -233.0 L 1956.00976562 -223.0 L 1968.00976562 -212.0 L 1966.00976562 -212.0 L 1957.50976562 -212.0 L 1949.00976562 -212.0 L 1935.00976562 -215.0 L 1896.00976562 -220.0 L 1875.50976562 -223.5 L 1855.00976562 -227.0 L 1850.00976562 -227.0 L 1732.00976562 -235.0 L 1679.00976562 -238.0 L 1627.50976562 -240.5 L 1576.00976562 -243.0 L 1527.00976562 -243.0 L 1455.00976562 -243.0 L 1214.00976562 -234.0 L 973.009765625 -225.0 L 854.009765625 -224.0 L 792.009765625 -224.0 L 732.009765625 -225.5 L 672.009765625 -227.0 L 612.009765625 -230.0 L 552.009765625 -233.0 L 493.009765625 -238.5 L 434.009765625 -244.0 Z" fill="black" fill-opacity="0.25" stroke="black" stroke-width="4.0"/>
  <rect x="-1.0" y="-746.0" width="1097.0" height="311.0" fill="none" stroke="red" stroke-width="10.0" /><rect x="1195.0" y="-682.0" width="307.99999999999983" height="252.00000000000006" fill="none" stroke="red" stroke-width="10.0" /><rect x="1449.0" y="-683.0" width="286.99999999999994" height="251.00000000000006" fill="none" stroke="red" stroke-width="10.0" /><rect x="180.0" y="-377.0" width="1788.0" height="165.0" fill="none" stroke="red" stroke-width="10.0" />
</svg>
