<svg xmlns="http://www.w3.org/2000/svg"
  viewBox="-50.0 -1277.0 1786.4545454545455 1100.0">
  <rect x="-50.0" y="-1277.0" width="1786.4545454545455" height="1100.0" fill="white"/>
  <path d="M 132.0 -393.0 L 171.0 -380.0 L 209.5 -372.5 L 248.0 -365.0 L 290.0 -363.0 L 346.0 -361.0 L 401.0 -360.5 L 456.0 -360.0 L 512.0 -360.0 L 560.0 -360.0 L 639.5 -361.0 L 719.0 -362.0 L 832.0 -365.0 L 946.0 -367.0 L 1031.0 -368.0 L 1116.0 -369.0 L 1175.0 -369.0 L 1282.0 -369.0 L 1450.0 -271.0 L 1455.0 -265.0 L 1459.5 -259.0 L 1464.0 -253.0 L 1469.0 -248.0 L 1474.0 -243.0 L 1479.0 -237.5 L 1484.0 -232.0 L 1489.0 -227.0 L 1481.0 -227.0 L 1474.0 -227.0 L 1464.0 -230.0 L 1449.0 -232.0 L 1437.5 -234.5 L 1426.0 -237.0 L 1418.0 -239.0 L 1400.0 -243.0 L 1399.0 -243.0 L 1310.0 -250.0 L 1270.0 -254.0 L 1232.0 -256.0 L 1194.0 -258.0 L 1154.0 -258.0 L 1126.0 -258.0 L 1067.5 -256.0 L 1009.0 -254.0 L 917.0 -249.0 L 824.0 -244.0 L 756.5 -242.0 L 689.0 -240.0 L 643.0 -240.0 L 552.0 -240.0 L 461.0 -246.0 L 370.0 -252.0 L 279.0 -266.0 L 213.0 -276.0 L 132.0 -366.0 Z M 8.0 -468.0 L 4.0 -468.0 L 0.0 -475.0 L 0.0 -476.0 L 1.0 -477.0 L 3.0 -477.0 L 6.0 -478.0 L 7.0 -479.0 L 3.0 -485.0 L -1.0 -490.0 L 6.0 -493.0 L 50.0 -510.0 L 88.5 -523.0 L 127.0 -536.0 L 159.0 -547.0 L 194.0 -558.0 L 226.0 -571.5 L 258.0 -585.0 L 286.0 -603.0 L 314.0 -621.0 L 338.0 -645.5 L 362.0 -670.0 L 382.0 -703.0 L 389.0 -715.0 L 396.0 -732.5 L 403.0 -750.0 L 410.0 -774.0 L 426.0 -821.0 L 456.0 -891.0 L 458.0 -897.0 L 468.0 -897.0 L 477.0 -897.0 L 484.0 -902.0 L 489.0 -905.0 L 495.0 -908.5 L 501.0 -912.0 L 508.0 -916.0 L 515.0 -920.0 L 521.5 -923.0 L 528.0 -926.0 L 534.0 -928.0 L 538.0 -929.0 L 540.5 -930.0 L 543.0 -931.0 L 545.0 -931.0 L 549.0 -931.0 L 553.0 -931.0 L 557.0 -931.0 L 561.0 -932.0 L 570.0 -932.0 L 577.0 -929.0 L 584.0 -926.0 L 595.0 -926.0 L 605.0 -925.0 L 612.0 -917.0 L 614.0 -914.0 L 608.0 -912.0 L 605.0 -911.0 L 602.5 -909.5 L 600.0 -908.0 L 598.0 -907.0 L 563.0 -882.0 L 560.0 -874.0 L 555.0 -850.0 L 549.5 -828.5 L 544.0 -807.0 L 537.0 -787.5 L 530.0 -768.0 L 520.0 -749.0 L 510.0 -730.0 L 495.0 -709.0 L 495.0 -709.0 L 497.0 -710.0 L 498.0 -710.0 L 494.0 -705.0 L 491.0 -701.0 L 492.0 -704.0 L 493.0 -705.0 L 493.5 -706.0 L 494.0 -707.0 L 495.0 -709.0 L 494.0 -708.0 L 493.0 -707.0 L 492.0 -706.0 L 490.0 -705.0 L 453.0 -679.0 L 418.5 -651.0 L 384.0 -623.0 L 350.0 -593.0 L 340.0 -584.0 L 333.0 -577.5 L 326.0 -571.0 L 322.0 -567.0 L 321.0 -566.0 L 320.5 -565.0 L 320.0 -564.0 L 320.0 -563.0 L 325.0 -565.0 L 329.5 -567.5 L 334.0 -570.0 L 338.0 -572.0 L 341.0 -574.0 L 342.0 -575.0 L 343.0 -575.0 L 343.0 -575.0 L 343.0 -575.0 L 341.0 -574.0 L 340.0 -573.0 L 338.0 -572.0 L 336.0 -571.0 L 334.0 -569.0 L 320.0 -561.0 L 320.0 -563.0 L 281.0 -542.0 L 241.5 -527.5 L 202.0 -513.0 L 157.0 -513.0 L 152.0 -513.0 L 147.5 -513.0 L 143.0 -513.0 L 139.0 -512.0 L 131.0 -511.0 L 141.0 -508.0 L 156.0 -502.0 L 172.0 -502.0 L 175.0 -502.0 L 178.0 -502.5 L 181.0 -503.0 L 185.0 -503.0 L 193.0 -504.0 L 200.5 -504.5 L 208.0 -505.0 L 216.0 -505.0 L 242.0 -505.0 L 264.0 -498.5 L 286.0 -492.0 L 307.0 -475.0 L 325.0 -461.0 L 325.0 -456.0 L 328.0 -448.0 L 315.0 -449.0 L 291.0 -449.0 L 268.0 -453.0 L 260.0 -454.0 L 251.0 -456.0 L 242.0 -458.0 L 231.0 -459.0 L 220.0 -460.0 L 208.5 -462.0 L 197.0 -464.0 L 184.0 -466.0 L 162.0 -469.0 L 140.0 -471.0 L 118.0 -473.0 L 95.0 -473.0 L 82.0 -474.0 L 71.0 -475.0 L 48.0 -475.0 L 27.0 -472.0 L 22.0 -470.0 L 17.5 -469.0 L 13.0 -468.0 Z M 1081.0 -499.0 L 1077.0 -499.0 L 1074.0 -507.0 L 1074.0 -508.0 L 1076.0 -508.0 L 1077.0 -508.0 L 1080.0 -510.0 L 1081.0 -511.0 L 1077.0 -516.0 L 1073.0 -521.0 L 1080.0 -524.0 L 1124.0 -541.0 L 1162.5 -554.5 L 1201.0 -568.0 L 1233.0 -578.0 L 1268.0 -589.0 L 1300.0 -602.5 L 1332.0 -616.0 L 1360.0 -634.5 L 1388.0 -653.0 L 1412.0 -677.5 L 1436.0 -702.0 L 1455.0 -735.0 L 1462.0 -747.0 L 1469.0 -764.5 L 1476.0 -782.0 L 1484.0 -805.0 L 1500.0 -852.0 L 1530.0 -922.0 L 1532.0 -928.0 L 1541.0 -929.0 L 1550.0 -929.0 L 1558.0 -933.0 L 1562.0 -936.0 L 1568.5 -940.0 L 1575.0 -944.0 L 1582.0 -947.5 L 1589.0 -951.0 L 1595.5 -954.0 L 1602.0 -957.0 L 1608.0 -959.0 L 1616.0 -961.0 L 1618.0 -963.0 L 1622.0 -963.0 L 1626.0 -963.0 L 1630.0 -963.0 L 1635.0 -963.0 L 1645.0 -963.0 L 1652.0 -960.0 L 1659.0 -957.0 L 1668.0 -957.0 L 1678.0 -956.0 L 1685.0 -949.0 L 1689.0 -946.0 L 1682.0 -943.0 L 1679.0 -942.0 L 1676.5 -940.5 L 1674.0 -939.0 L 1672.0 -938.0 L 1637.0 -913.0 L 1634.0 -905.0 L 1630.0 -888.0 L 1626.5 -874.0 L 1623.0 -860.0 L 1619.0 -847.0 L 1615.0 -833.0 L 1611.0 -821.0 L 1607.0 -809.0 L 1602.5 -798.0 L 1598.0 -787.0 L 1592.0 -776.5 L 1586.0 -766.0 L 1578.0 -754.0 L 1576.0 -750.0 L 1573.5 -746.5 L 1571.0 -743.0 L 1569.0 -740.0 L 1571.0 -741.0 L 1572.0 -741.0 L 1573.0 -741.0 L 1569.0 -736.0 L 1565.0 -732.0 L 1565.0 -732.0 L 1566.0 -735.0 L 1567.0 -736.0 L 1567.5 -737.5 L 1568.0 -739.0 L 1569.0 -740.0 L 1568.0 -739.0 L 1566.5 -738.5 L 1565.0 -738.0 L 1564.0 -737.0 L 1527.0 -711.0 L 1492.5 -682.5 L 1458.0 -654.0 L 1424.0 -624.0 L 1423.0 -623.0 L 1418.0 -619.0 L 1413.0 -615.0 L 1407.5 -610.0 L 1402.0 -605.0 L 1398.0 -600.5 L 1394.0 -596.0 L 1394.0 -595.0 L 1399.0 -597.0 L 1403.5 -599.0 L 1408.0 -601.0 L 1412.0 -603.0 L 1415.0 -605.0 L 1416.0 -606.0 L 1417.0 -606.0 L 1417.0 -606.0 L 1417.0 -606.0 L 1415.0 -605.0 L 1414.0 -604.0 L 1412.0 -603.0 L 1410.0 -602.0 L 1408.0 -600.0 L 1394.0 -592.0 L 1394.0 -595.0 L 1382.0 -589.0 L 1367.0 -581.5 L 1352.0 -574.0 L 1336.0 -567.0 L 1320.0 -560.0 L 1304.0 -555.0 L 1288.0 -550.0 L 1276.0 -547.0 L 1265.0 -545.0 L 1253.5 -544.5 L 1242.0 -544.0 L 1230.0 -544.0 L 1225.0 -544.0 L 1220.5 -544.0 L 1216.0 -544.0 L 1213.0 -543.0 L 1206.0 -542.0 L 1215.0 -539.0 L 1224.0 -535.0 L 1232.5 -534.5 L 1241.0 -534.0 L 1250.0 -534.0 L 1252.0 -534.0 L 1254.0 -534.0 L 1256.0 -534.0 L 1259.0 -535.0 L 1266.0 -536.0 L 1273.0 -536.5 L 1280.0 -537.0 L 1286.0 -537.0 L 1312.0 -537.0 L 1336.0 -530.0 L 1360.0 -523.0 L 1381.0 -507.0 L 1399.0 -493.0 L 1399.0 -488.0 L 1402.0 -480.0 L 1389.0 -480.0 L 1366.0 -480.0 L 1343.0 -485.0 L 1335.0 -486.0 L 1325.5 -487.5 L 1316.0 -489.0 L 1305.0 -491.0 L 1294.0 -492.0 L 1282.5 -493.5 L 1271.0 -495.0 L 1258.0 -497.0 L 1236.0 -500.0 L 1214.0 -502.5 L 1192.0 -505.0 L 1169.0 -505.0 L 1156.0 -506.0 L 1145.0 -506.0 L 1123.0 -506.0 L 1100.0 -503.0 L 1095.0 -501.0 L 1090.5 -500.0 L 1086.0 -499.0 Z M 641.0 -783.0 L 636.0 -783.0 L 634.0 -789.0 L 634.0 -792.0 L 640.0 -792.0 L 643.0 -793.0 L 639.0 -800.0 L 636.0 -805.0 L 641.0 -808.0 L 685.0 -824.0 L 724.0 -836.0 L 763.0 -848.0 L 796.0 -857.0 L 830.0 -866.0 L 863.0 -878.5 L 896.0 -891.0 L 925.5 -909.5 L 955.0 -928.0 L 980.5 -951.5 L 1006.0 -975.0 L 1025.0 -1007.0 L 1032.0 -1018.0 L 1039.5 -1034.5 L 1047.0 -1051.0 L 1056.0 -1074.0 L 1065.0 -1096.0 L 1077.0 -1125.0 L 1089.0 -1154.0 L 1105.0 -1189.0 L 1108.0 -1195.0 L 1116.0 -1196.0 L 1124.0 -1196.0 L 1131.0 -1201.0 L 1142.0 -1208.0 L 1151.0 -1211.0 L 1159.0 -1214.0 L 1163.0 -1218.0 L 1168.0 -1220.0 L 1172.5 -1221.5 L 1177.0 -1223.0 L 1181.0 -1224.0 L 1188.0 -1227.0 L 1194.0 -1227.0 L 1210.0 -1227.0 L 1225.0 -1222.0 L 1230.0 -1220.0 L 1239.0 -1220.0 L 1244.0 -1220.0 L 1249.0 -1220.0 L 1253.0 -1218.5 L 1257.0 -1217.0 L 1260.0 -1213.0 L 1263.0 -1209.0 L 1256.0 -1206.0 L 1252.0 -1205.0 L 1244.0 -1200.5 L 1236.0 -1196.0 L 1228.5 -1190.0 L 1221.0 -1184.0 L 1214.5 -1178.5 L 1208.0 -1173.0 L 1207.0 -1169.0 L 1202.0 -1153.0 L 1198.0 -1139.0 L 1194.0 -1125.0 L 1190.0 -1112.0 L 1187.0 -1098.0 L 1182.5 -1086.0 L 1178.0 -1074.0 L 1172.0 -1063.5 L 1166.0 -1053.0 L 1159.5 -1042.5 L 1153.0 -1032.0 L 1145.0 -1020.0 L 1141.0 -1014.0 L 1138.0 -1008.0 L 1141.0 -1008.0 L 1136.0 -1003.0 L 1134.0 -1001.0 L 1133.0 -1000.0 L 1133.0 -1000.0 L 1132.5 -999.5 L 1132.0 -999.0 L 1132.0 -999.0 L 1132.0 -999.0 L 1133.0 -1002.0 L 1134.0 -1003.0 L 1135.0 -1004.5 L 1136.0 -1006.0 L 1138.0 -1008.0 L 1137.0 -1008.0 L 1135.0 -1007.0 L 1133.0 -1006.0 L 1129.0 -1004.0 L 1105.0 -989.0 L 1082.0 -973.0 L 1059.0 -957.0 L 1037.0 -939.0 L 1023.0 -928.0 L 1010.5 -917.5 L 998.0 -907.0 L 988.0 -899.0 L 977.0 -891.0 L 970.0 -884.0 L 963.0 -877.0 L 959.0 -872.0 L 959.0 -872.0 L 958.5 -871.0 L 958.0 -870.0 L 958.0 -870.0 L 963.0 -872.0 L 967.5 -873.5 L 972.0 -875.0 L 975.0 -876.0 L 979.0 -877.0 L 980.0 -878.0 L 982.0 -878.0 L 972.0 -872.0 L 963.0 -867.0 L 958.0 -867.0 L 956.0 -867.0 L 958.0 -870.0 L 939.0 -862.0 L 920.5 -854.5 L 902.0 -847.0 L 883.0 -840.0 L 854.0 -829.0 L 838.0 -825.0 L 831.0 -824.0 L 817.0 -824.0 L 792.0 -824.0 L 787.0 -824.0 L 782.5 -824.0 L 778.0 -824.0 L 775.0 -823.0 L 771.0 -823.0 L 777.0 -819.0 L 784.0 -815.0 L 792.0 -813.5 L 800.0 -812.0 L 808.0 -812.0 L 811.0 -812.0 L 814.0 -812.0 L 817.0 -812.0 L 820.0 -813.0 L 832.0 -814.0 L 843.0 -814.0 L 871.0 -814.0 L 895.5 -806.5 L 920.0 -799.0 L 942.0 -782.0 L 958.0 -769.0 L 958.0 -760.0 L 959.0 -754.0 L 948.0 -753.0 L 901.0 -758.0 L 818.0 -774.0 L 803.0 -778.0 L 785.0 -781.0 L 767.0 -784.0 L 749.0 -785.5 L 731.0 -787.0 L 713.0 -788.0 L 695.0 -789.0 L 680.0 -789.0 L 675.0 -789.0 L 670.0 -788.5 L 665.0 -788.0 L 661.0 -788.0 L 657.0 -785.0 L 651.0 -784.0 L 645.0 -783.0 Z M 704.0 -714.0 L 706.0 -717.0 L 721.0 -718.0 L 747.0 -718.0 L 761.0 -718.0 L 775.0 -714.0 L 820.0 -706.0 L 885.0 -694.0 L 903.0 -598.0 L 914.0 -537.0 L 926.0 -524.0 L 934.0 -514.0 L 944.0 -510.0 L 954.0 -506.0 L 967.0 -505.0 L 970.0 -505.0 L 972.0 -503.0 L 970.0 -495.0 L 962.5 -490.5 L 955.0 -486.0 L 946.5 -483.0 L 938.0 -480.0 L 929.0 -479.0 L 920.0 -478.0 L 913.0 -478.0 L 891.0 -478.0 L 867.5 -485.0 L 844.0 -492.0 L 825.0 -500.0 L 773.0 -521.0 L 753.0 -645.0 L 745.0 -698.0 L 722.0 -699.0 L 708.0 -699.0 L 699.0 -699.0 L 698.0 -700.0 L 696.0 -702.0 Z" fill="black" fill-opacity="0.25" stroke="black" stroke-width="4.0"/>
  <rect x="132.0" y="-393.0" width="1357.0000000000002" height="166.0" fill="none" stroke="red" stroke-width="10.0" /><rect x="696.0" y="-718.0" width="276.0" height="240.0" fill="none" stroke="red" stroke-width="10.0" /><rect x="-1.0" y="-609.9" width="370.2" height="160.99999999999997" fill="none" stroke="red" stroke-width="10.0" /><rect x="296.8" y="-771.0" width="234.3" height="161.10000000000002" fill="none" stroke="red" stroke-width="10.0" /><rect x="409.1" y="-932.0" width="204.89999999999998" height="161.00000000000003" fill="none" stroke="red" stroke-width="10.0" /><rect x="1073.0" y="-641.0" width="370.30000000000007" height="161.00000000000003" fill="none" stroke="red" stroke-width="10.0" /><rect x="1369.8" y="-802.0" width="234.30000000000018" height="161.00000000000003" fill="none" stroke="red" stroke-width="10.0" /><rect x="1483.0" y="-963.0" width="205.99999999999997" height="160.99999999999991" fill="none" stroke="red" stroke-width="10.0" /><rect x="634.0" y="-911.0" width="368.7999999999999" height="158.00000000000003" fill="none" stroke="red" stroke-width="10.0" /><rect x="927.9" y="-1069.0" width="247.20000000000007" height="157.99999999999991" fill="none" stroke="red" stroke-width="10.0" /><rect x="1054.0" y="-1227.0" width="208.99999999999986" height="158.00000000000014" fill="none" stroke="red" stroke-width="10.0" />
</svg>
