<svg xmlns="http://www.w3.org/2000/svg"
  viewBox="-50 -799 1598 624">
  <rect x="-50" y="-799" width="1598" height="624" fill="white"/>
  <path d="M 809 -711 L 813 -716 L 832 -716 L 854 -716 L 890 -711 L 937 -703 L 1013 -691 L 1031 -591 L 1042 -529 L 1056 -513 L 1070 -497 L 1087 -494 L 1108 -492 L 1108 -491 L 1108 -487 L 1101 -480 L 1085 -464 L 1048 -465 L 1026 -465 L 1000.5 -470 L 975 -475 L 944 -486 L 887 -507 L 864 -639 L 854 -696 L 829 -695 L 814 -695 L 805 -695 L 803 -697 L 800 -700 Z M 1054 -713 L 1054 -717 L 1075 -717 L 1092 -717 L 1125 -713 L 1170 -705 L 1246 -692 L 1264 -592 L 1275 -531 L 1289 -513 L 1300 -498 L 1320 -496 L 1341 -494 L 1341 -491 L 1341 -488 L 1334 -482 L 1319 -467 L 1281 -466 L 1234 -466 L 1178 -488 L 1119 -512 L 1096 -644 L 1086 -701 L 1071 -699 L 1054 -696 Z M 58 -744 L 109 -749 L 223 -749 L 259 -749 L 299 -745 L 339 -741 L 383 -731 L 409 -725 L 434 -719 L 459 -713 L 485 -705 L 583 -680 L 647 -633 L 710 -586 L 711 -533 L 711 -503 L 695 -483 L 689 -475 L 661 -475 L 620 -475 L 542 -490 L 529 -492 L 510.5 -495 L 492 -498 L 469 -505 L 494 -516 L 511 -541 L 527 -565 L 522 -578 L 510 -607 L 464.5 -632.5 L 419 -658 L 339 -673 L 255 -690 L 169.5 -701.5 L 84 -713 L 0 -725 Z M 207 -264 L 137 -274 L 50 -364 L 50 -390 L 89 -378 L 130.5 -370 L 172 -362 L 218 -361 L 265 -359 L 323 -358.5 L 381 -358 L 456 -358 L 558 -358 L 798 -362 L 1038 -366 L 1163 -367 L 1278 -367 L 1456 -269 L 1466 -256 L 1477 -246 L 1488 -236 L 1498 -225 L 1496 -225 L 1489.5 -225 L 1483 -225 L 1471 -228 L 1439 -233 L 1422.5 -236.5 L 1406 -240 L 1403 -240 L 1308 -248 L 1265 -251 L 1223 -253.5 L 1181 -256 L 1141 -256 L 1082 -256 L 887 -247 L 692 -238 L 596 -237 L 546 -237 L 497.5 -238.5 L 449 -240 L 401 -243 L 353 -246 L 304 -251.5 L 255 -257 Z" fill="black" fill-opacity="0.25" stroke="black" stroke-width="4"/>
  <rect x="800" y="-716" width="308" height="252" fill="none" stroke="red" stroke-width="10" /><rect x="1054" y="-717" width="287" height="251" fill="none" stroke="red" stroke-width="10" /><rect x="0" y="-749" width="711" height="274" fill="none" stroke="red" stroke-width="10" /><rect x="50" y="-390" width="1448" height="165" fill="none" stroke="red" stroke-width="10" />
</svg>
