<svg xmlns="http://www.w3.org/2000/svg"
  viewBox="-50.0 -442.0 1456.0 266.0">
  <rect x="-50.0" y="-442.0" width="1456.0" height="266.0" fill="white"/>
  <path d="M 147.0 -265.0 L 82.0 -275.0 L 0.0 -365.0 L 0.0 -392.0 L 36.0 -379.0 L 75.0 -371.5 L 114.0 -364.0 L 157.0 -362.0 L 201.0 -361.0 L 255.0 -360.0 L 309.0 -359.0 L 380.0 -359.0 L 475.0 -359.0 L 700.0 -364.0 L 925.0 -369.0 L 1042.0 -368.0 L 1149.0 -368.0 L 1317.0 -270.0 L 1326.0 -257.0 L 1336.5 -247.0 L 1347.0 -237.0 L 1356.0 -226.0 L 1355.0 -226.0 L 1348.5 -226.0 L 1342.0 -226.0 L 1331.0 -229.0 L 1301.0 -233.0 L 1285.5 -237.0 L 1270.0 -241.0 L 1267.0 -241.0 L 1178.0 -249.0 L 1137.0 -252.0 L 1098.0 -254.5 L 1059.0 -257.0 L 1022.0 -257.0 L 967.0 -257.0 L 784.0 -248.0 L 601.0 -239.0 L 511.0 -239.0 L 464.0 -239.0 L 418.5 -240.0 L 373.0 -241.0 L 328.0 -245.0 L 283.0 -248.0 L 237.5 -253.0 L 192.0 -258.0 Z" fill="black" fill-opacity="0.25" stroke="black" stroke-width="4.0"/>
  <rect x="0.0" y="-392.0" width="1356.0" height="166.0" fill="none" stroke="red" stroke-width="10.0" />
</svg>
