<svg xmlns="http://www.w3.org/2000/svg"
  viewBox="-50.0 -912.0 1972.0 737.0">
  <rect x="-50.0" y="-912.0" width="1972.0" height="737.0" fill="white"/>
  <path d="M 63.0 -391.0 L 112.0 -378.0 L 163.5 -370.5 L 215.0 -363.0 L 273.0 -361.0 L 332.0 -360.0 L 404.0 -359.0 L 476.0 -358.0 L 570.0 -358.0 L 634.0 -358.0 L 740.0 -359.0 L 846.0 -360.0 L 997.0 -363.0 L 1148.0 -365.0 L 1261.5 -366.0 L 1375.0 -367.0 L 1454.0 -367.0 L 1599.0 -367.0 L 1820.0 -269.0 L 1832.0 -256.0 L 1846.0 -246.0 L 1860.0 -236.0 L 1872.0 -225.0 L 1863.0 -225.0 L 1855.0 -225.5 L 1847.0 -226.0 L 1839.0 -228.0 L 1799.0 -232.0 L 1778.5 -236.0 L 1758.0 -240.0 L 1754.0 -240.0 L 1635.0 -248.0 L 1580.0 -251.0 L 1528.0 -253.5 L 1476.0 -256.0 L 1426.0 -256.0 L 1389.0 -256.0 L 1310.5 -254.0 L 1232.0 -252.0 L 1110.0 -247.0 L 987.0 -242.0 L 896.5 -240.0 L 806.0 -238.0 L 745.0 -238.0 L 621.0 -238.0 L 501.0 -243.5 L 381.0 -249.0 L 259.0 -264.0 L 172.0 -274.0 L 63.0 -364.0 Z M 0.0 -744.0 L 0.0 -772.0 L 14.0 -791.5 L 28.0 -811.0 L 50.5 -824.5 L 73.0 -838.0 L 101.0 -845.0 L 129.0 -852.0 L 157.5 -856.0 L 186.0 -860.0 L 213.0 -861.0 L 240.0 -862.0 L 260.0 -862.0 L 378.0 -859.0 L 491.0 -836.0 L 604.0 -813.0 L 716.0 -777.0 L 837.0 -738.0 L 980.0 -641.0 L 1123.0 -543.0 L 1122.0 -500.0 L 1122.0 -483.0 L 1086.0 -483.0 L 1039.0 -483.0 L 988.5 -491.0 L 938.0 -499.0 L 892.0 -511.0 L 906.0 -612.0 L 732.0 -700.0 L 647.0 -741.0 L 560.5 -763.5 L 474.0 -786.0 L 379.0 -786.0 L 353.0 -786.0 L 322.5 -783.0 L 292.0 -780.0 L 264.5 -769.5 L 237.0 -759.0 L 218.0 -739.0 L 199.0 -719.0 L 196.0 -686.0 L 193.0 -653.0 L 240.0 -617.0 L 301.0 -570.0 L 304.0 -571.0 L 234.0 -573.0 L 182.5 -581.5 L 131.0 -590.0 L 94.0 -605.0 L 49.0 -625.0 L 17.0 -674.0 L 0.0 -714.0 Z M 1182.0 -717.0 L 1184.0 -720.0 L 1198.0 -719.0 L 1204.0 -719.0 L 1215.0 -719.0 L 1226.0 -719.0 L 1236.0 -718.5 L 1246.0 -718.0 L 1257.0 -717.0 L 1304.0 -709.0 L 1373.0 -696.0 L 1391.0 -601.0 L 1403.0 -540.0 L 1414.0 -526.0 L 1425.0 -513.0 L 1444.0 -509.0 L 1449.0 -509.0 L 1458.0 -507.0 L 1461.0 -507.0 L 1463.0 -506.0 L 1462.0 -499.0 L 1455.0 -494.0 L 1448.0 -489.0 L 1438.5 -486.0 L 1429.0 -483.0 L 1419.5 -482.0 L 1410.0 -481.0 L 1404.0 -481.0 L 1382.0 -481.0 L 1360.0 -486.5 L 1338.0 -492.0 L 1309.0 -502.0 L 1254.0 -522.0 L 1233.0 -648.0 L 1224.0 -701.0 L 1201.0 -701.0 L 1186.0 -701.0 L 1177.0 -701.0 L 1176.0 -702.0 L 1173.0 -705.0 Z M 1430.0 -721.0 L 1443.0 -721.0 L 1454.5 -720.0 L 1466.0 -719.0 L 1477.0 -718.0 L 1488.0 -717.0 L 1499.0 -715.0 L 1510.0 -713.0 L 1522.0 -710.0 L 1592.0 -696.0 L 1610.0 -601.0 L 1620.0 -543.0 L 1635.0 -528.0 L 1645.0 -513.0 L 1664.0 -510.0 L 1669.0 -509.0 L 1671.5 -508.0 L 1674.0 -507.0 L 1677.0 -507.0 L 1682.0 -507.0 L 1682.0 -500.0 L 1675.0 -495.0 L 1668.0 -490.0 L 1659.0 -487.5 L 1650.0 -485.0 L 1641.0 -483.5 L 1632.0 -482.0 L 1627.0 -482.0 L 1589.0 -482.0 L 1529.0 -504.0 L 1475.0 -525.0 L 1454.0 -653.0 L 1445.0 -704.0 L 1429.0 -704.0 L 1427.0 -704.0 L 1419.0 -704.0 L 1416.0 -706.5 L 1413.0 -709.0 L 1413.0 -718.0 L 1413.0 -721.0 Z" fill="black" fill-opacity="0.25" stroke="black" stroke-width="4.0"/>
  <rect x="63.0" y="-391.0" width="1809.0000000000002" height="166.0" fill="none" stroke="red" stroke-width="10.0" /><rect x="0.0" y="-862.0" width="1123.0" height="379.0" fill="none" stroke="red" stroke-width="10.0" /><rect x="1173.0" y="-720.0" width="290.00000000000006" height="239.0" fill="none" stroke="red" stroke-width="10.0" /><rect x="1413.0" y="-721.0" width="268.9999999999999" height="239.0" fill="none" stroke="red" stroke-width="10.0" />
</svg>
