<svg xmlns="http://www.w3.org/2000/svg"
  viewBox="-50.0 -1036.0 1480.5 854.0">
  <rect x="-50.0" y="-1036.0" width="1480.5" height="854.0" fill="white"/>
  <path d="M 158.0 -368.0 L 202.0 -368.0 L 255.5 -367.0 L 309.0 -366.0 L 380.0 -366.0 L 428.0 -366.0 L 507.0 -367.0 L 586.0 -368.0 L 700.0 -370.0 L 814.0 -372.0 L 898.5 -373.0 L 983.0 -374.0 L 1042.0 -374.0 L 1149.0 -374.0 L 1317.0 -276.0 L 1326.0 -264.0 L 1336.5 -254.0 L 1347.0 -244.0 L 1356.0 -232.0 L 1342.0 -232.0 L 1332.0 -236.0 L 1302.0 -240.0 L 1286.0 -244.0 L 1270.0 -248.0 L 1267.0 -248.0 L 1178.0 -256.0 L 1136.0 -258.0 L 1098.0 -261.0 L 1060.0 -264.0 L 1022.0 -264.0 L 994.0 -264.0 L 935.5 -262.0 L 877.0 -260.0 L 785.0 -254.0 L 692.0 -250.0 L 624.5 -247.0 L 557.0 -244.0 L 511.0 -244.0 L 419.0 -244.0 L 328.5 -250.0 L 238.0 -256.0 L 147.0 -272.0 L 81.0 -282.0 L 0.0 -372.0 L 0.0 -398.0 L 37.0 -386.0 L 75.5 -378.0 L 114.0 -370.0 Z M 745.0 -522.0 L 740.0 -522.0 L 737.0 -530.0 L 737.0 -530.0 L 738.0 -532.0 L 739.0 -532.0 L 743.0 -532.0 L 745.0 -534.0 L 741.0 -540.0 L 737.0 -544.0 L 743.0 -546.0 L 790.0 -564.0 L 830.0 -577.0 L 870.0 -590.0 L 904.0 -601.0 L 938.0 -612.0 L 965.5 -622.0 L 993.0 -632.0 L 1013.0 -644.0 L 1093.0 -684.0 L 1138.0 -758.0 L 1145.0 -770.0 L 1152.5 -787.0 L 1160.0 -804.0 L 1169.0 -828.0 L 1178.0 -852.0 L 1189.5 -881.0 L 1201.0 -910.0 L 1216.0 -946.0 L 1217.0 -948.0 L 1221.0 -949.0 L 1225.0 -950.0 L 1229.0 -951.0 L 1233.0 -952.0 L 1237.5 -953.0 L 1242.0 -954.0 L 1246.0 -956.0 L 1258.0 -962.0 L 1266.0 -967.0 L 1274.0 -972.0 L 1277.0 -972.0 L 1290.0 -978.0 L 1298.5 -981.0 L 1307.0 -984.0 L 1310.0 -986.0 L 1323.0 -986.0 L 1328.0 -986.0 L 1333.5 -985.0 L 1339.0 -984.0 L 1344.0 -982.0 L 1348.0 -982.0 L 1352.5 -981.0 L 1357.0 -980.0 L 1362.0 -979.0 L 1367.0 -978.0 L 1371.5 -977.0 L 1376.0 -976.0 L 1380.0 -972.0 L 1381.0 -970.0 L 1380.0 -969.0 L 1379.0 -968.0 L 1376.5 -966.0 L 1374.0 -964.0 L 1371.0 -963.0 L 1368.0 -962.0 L 1366.0 -960.0 L 1329.0 -934.0 L 1326.0 -928.0 L 1318.0 -894.0 L 1310.5 -870.0 L 1303.0 -846.0 L 1296.0 -826.0 L 1294.0 -820.0 L 1289.0 -812.0 L 1284.0 -804.0 L 1278.0 -795.0 L 1272.0 -786.0 L 1266.5 -777.0 L 1261.0 -768.0 L 1257.0 -764.0 L 1257.0 -764.0 L 1259.0 -764.0 L 1261.0 -764.0 L 1257.0 -760.0 L 1254.0 -756.0 L 1253.0 -756.0 L 1253.0 -756.0 L 1257.0 -764.0 L 1253.0 -762.0 L 1243.0 -755.0 L 1233.0 -748.0 L 1219.5 -737.0 L 1206.0 -726.0 L 1189.5 -714.0 L 1173.0 -702.0 L 1157.0 -688.0 L 1141.0 -676.0 L 1128.5 -666.0 L 1116.0 -656.0 L 1105.0 -648.0 L 1094.0 -638.0 L 1087.0 -631.0 L 1080.0 -624.0 L 1076.0 -620.0 L 1076.0 -620.0 L 1074.0 -618.0 L 1074.0 -618.0 L 1073.0 -618.0 L 1079.0 -620.0 L 1083.5 -622.0 L 1088.0 -624.0 L 1092.0 -626.0 L 1097.0 -630.0 L 1098.0 -630.0 L 1098.0 -630.0 L 1096.0 -628.0 L 1095.0 -626.0 L 1091.5 -624.0 L 1088.0 -622.0 L 1085.0 -621.0 L 1082.0 -620.0 L 1079.0 -619.0 L 1076.0 -618.0 L 1074.0 -618.0 L 1073.0 -618.0 L 1073.0 -618.0 L 1061.0 -612.0 L 1045.0 -605.0 L 1029.0 -598.0 L 1012.5 -591.0 L 996.0 -584.0 L 979.0 -578.0 L 962.0 -572.0 L 949.0 -570.0 L 940.0 -570.0 L 926.5 -569.0 L 913.0 -568.0 L 901.5 -568.0 L 890.0 -568.0 L 884.0 -567.0 L 878.0 -566.0 L 885.0 -562.0 L 893.0 -560.0 L 902.0 -559.0 L 911.0 -558.0 L 919.0 -558.0 L 931.0 -558.0 L 943.5 -559.0 L 956.0 -560.0 L 968.0 -560.0 L 971.0 -560.0 L 974.5 -560.0 L 978.0 -560.0 L 980.0 -558.0 L 1025.0 -556.0 L 1060.0 -530.0 L 1079.0 -516.0 L 1079.0 -510.0 L 1082.0 -502.0 L 1068.0 -502.0 L 1055.0 -502.0 L 1043.5 -504.0 L 1032.0 -506.0 L 1020.0 -508.0 L 1003.0 -510.0 L 980.0 -513.0 L 957.0 -516.0 L 930.0 -520.0 L 904.0 -524.0 L 881.0 -526.0 L 858.0 -528.0 L 836.0 -528.0 L 832.0 -528.0 L 828.0 -528.0 L 824.0 -528.0 L 820.0 -528.0 L 806.0 -528.0 L 792.5 -528.0 L 779.0 -528.0 L 765.0 -526.0 L 762.0 -526.0 L 757.5 -524.0 L 753.0 -522.0 Z M 277.0 -754.0 L 280.0 -758.0 L 297.0 -758.0 L 313.0 -758.0 L 328.0 -757.0 L 343.0 -756.0 L 359.0 -754.0 L 406.0 -746.0 L 481.0 -734.0 L 499.0 -634.0 L 510.0 -572.0 L 524.0 -556.0 L 538.0 -540.0 L 556.0 -536.0 L 577.0 -534.0 L 576.0 -534.0 L 576.0 -530.0 L 570.0 -522.0 L 554.0 -506.0 L 517.0 -508.0 L 495.0 -508.0 L 469.5 -513.0 L 444.0 -518.0 L 412.0 -530.0 L 355.0 -550.0 L 333.0 -682.0 L 324.0 -738.0 L 298.0 -738.0 L 282.0 -738.0 L 273.0 -738.0 L 271.0 -740.0 L 268.0 -742.0 Z" fill="black" fill-opacity="0.25" stroke="black" stroke-width="4.0"/>
  <rect x="0.0" y="-398.0" width="1356.0" height="166.0" fill="none" stroke="red" stroke-width="10.0" /><rect x="737.0" y="-986.0" width="644.0" height="484.0" fill="none" stroke="red" stroke-width="10.0" /><rect x="268.0" y="-758.0" width="308.99999999999994" height="252.0" fill="none" stroke="red" stroke-width="10.0" />
</svg>
