<svg xmlns="http://www.w3.org/2000/svg"
  viewBox="-50.0 -1316.0 1456.0 1135.0">
  <rect x="-50.0" y="-1316.0" width="1456.0" height="1135.0" fill="white"/>
  <path d="M 0.0 -371.0 L 0.0 -397.0 L 39.0 -384.0 L 77.5 -376.5 L 116.0 -369.0 L 157.0 -367.0 L 206.0 -365.0 L 253.5 -364.5 L 301.0 -364.0 L 350.0 -364.0 L 438.0 -364.0 L 525.0 -365.5 L 612.0 -367.0 L 700.0 -369.0 L 814.0 -371.0 L 898.5 -372.0 L 983.0 -373.0 L 1042.0 -373.0 L 1149.0 -373.0 L 1317.0 -275.0 L 1322.0 -269.0 L 1327.0 -263.5 L 1332.0 -258.0 L 1336.0 -252.0 L 1341.0 -247.0 L 1346.0 -242.0 L 1351.0 -237.0 L 1356.0 -231.0 L 1348.0 -231.0 L 1342.0 -231.0 L 1331.0 -234.0 L 1301.0 -239.0 L 1286.0 -243.0 L 1268.0 -247.0 L 1267.0 -247.0 L 1178.0 -255.0 L 1157.0 -256.0 L 1137.5 -257.5 L 1118.0 -259.0 L 1098.0 -260.0 L 1078.0 -261.0 L 1059.0 -262.0 L 1040.0 -263.0 L 1021.0 -263.0 L 993.0 -263.0 L 934.5 -260.5 L 876.0 -258.0 L 784.0 -253.0 L 691.0 -248.0 L 624.0 -246.0 L 557.0 -244.0 L 511.0 -244.0 L 418.0 -244.0 L 328.5 -250.5 L 239.0 -257.0 L 146.0 -270.0 L 81.0 -281.0 Z M 423.0 -828.0 L 423.0 -831.0 L 429.0 -831.0 L 432.0 -832.0 L 429.0 -839.0 L 426.0 -844.0 L 431.0 -847.0 L 478.0 -863.0 L 518.5 -875.0 L 559.0 -887.0 L 594.0 -896.0 L 629.0 -905.0 L 663.0 -917.5 L 697.0 -930.0 L 728.5 -948.0 L 760.0 -966.0 L 787.0 -990.0 L 814.0 -1014.0 L 834.0 -1045.0 L 841.0 -1056.0 L 849.0 -1072.5 L 857.0 -1089.0 L 867.0 -1113.0 L 877.0 -1135.0 L 889.5 -1164.0 L 902.0 -1193.0 L 918.0 -1228.0 L 921.0 -1234.0 L 930.0 -1234.0 L 938.0 -1234.0 L 946.0 -1239.0 L 952.0 -1243.0 L 957.5 -1245.5 L 963.0 -1248.0 L 968.0 -1250.0 L 976.0 -1253.0 L 979.0 -1256.0 L 984.0 -1257.0 L 989.0 -1259.0 L 994.0 -1261.0 L 998.0 -1263.0 L 1003.0 -1265.0 L 1007.0 -1265.5 L 1011.0 -1266.0 L 1016.0 -1266.0 L 1030.0 -1266.0 L 1045.0 -1261.0 L 1050.0 -1260.0 L 1055.5 -1259.5 L 1061.0 -1259.0 L 1066.0 -1259.0 L 1076.0 -1259.0 L 1081.0 -1251.0 L 1085.0 -1247.0 L 1077.0 -1245.0 L 1070.0 -1243.0 L 1067.0 -1241.0 L 1029.0 -1217.0 L 1026.0 -1208.0 L 1016.0 -1177.0 L 1009.0 -1151.0 L 1003.0 -1132.0 L 996.5 -1116.0 L 990.0 -1100.0 L 979.0 -1084.0 L 974.0 -1077.0 L 969.0 -1070.5 L 964.0 -1064.0 L 960.0 -1059.0 L 958.0 -1056.0 L 956.5 -1052.5 L 955.0 -1049.0 L 953.0 -1047.0 L 956.0 -1048.0 L 951.0 -1042.0 L 946.0 -1038.0 L 947.0 -1039.0 L 947.0 -1039.0 L 947.5 -1039.5 L 948.0 -1040.0 L 948.0 -1040.0 L 949.0 -1043.0 L 953.0 -1047.0 L 950.0 -1047.0 L 942.0 -1042.5 L 934.0 -1038.0 L 923.5 -1031.0 L 913.0 -1024.0 L 901.0 -1015.5 L 889.0 -1007.0 L 878.5 -999.5 L 868.0 -992.0 L 859.5 -986.0 L 851.0 -980.0 L 848.0 -977.0 L 842.0 -972.0 L 829.5 -964.0 L 817.0 -956.0 L 804.5 -946.0 L 792.0 -936.0 L 781.0 -926.5 L 770.0 -917.0 L 766.0 -911.0 L 765.0 -910.0 L 764.0 -909.0 L 769.0 -911.0 L 773.5 -912.5 L 778.0 -914.0 L 782.0 -915.0 L 786.0 -916.0 L 788.0 -917.0 L 790.0 -917.0 L 778.0 -911.0 L 769.0 -906.0 L 765.0 -906.0 L 763.0 -906.0 L 764.0 -909.0 L 755.0 -906.0 L 742.0 -900.0 L 715.0 -889.0 L 685.0 -878.0 L 667.0 -872.0 L 650.5 -867.5 L 634.0 -863.0 L 615.0 -863.0 L 589.0 -863.0 L 583.0 -863.0 L 579.0 -863.0 L 575.0 -863.0 L 571.0 -862.0 L 565.0 -862.0 L 573.0 -858.0 L 588.0 -852.0 L 606.0 -852.0 L 609.0 -852.0 L 612.0 -852.0 L 615.0 -852.0 L 618.0 -852.0 L 623.0 -852.0 L 629.0 -852.5 L 635.0 -853.0 L 640.0 -853.0 L 668.0 -853.0 L 696.0 -846.0 L 724.0 -839.0 L 747.0 -820.0 L 763.0 -807.0 L 764.0 -798.0 L 765.0 -792.0 L 753.0 -792.0 L 704.0 -797.0 L 617.0 -812.0 L 583.0 -820.0 L 546.5 -824.0 L 510.0 -828.0 L 475.0 -828.0 L 469.0 -828.0 L 463.0 -827.5 L 457.0 -827.0 L 451.0 -827.0 L 449.0 -826.0 L 443.0 -824.0 L 439.0 -822.0 L 431.0 -822.0 L 425.0 -822.0 Z M 587.0 -709.0 L 629.0 -712.0 L 631.0 -712.0 L 633.0 -712.5 L 635.0 -713.0 L 637.0 -713.0 L 699.0 -713.0 L 734.0 -631.0 L 755.0 -580.0 L 770.0 -567.0 L 780.0 -557.0 L 794.0 -558.0 L 795.0 -558.0 L 797.0 -558.0 L 799.0 -558.0 L 801.0 -558.0 L 811.0 -559.0 L 815.0 -560.0 L 820.0 -560.0 L 820.0 -558.0 L 821.0 -554.0 L 817.0 -548.0 L 811.0 -539.0 L 800.5 -533.5 L 790.0 -528.0 L 777.5 -524.5 L 765.0 -521.0 L 752.5 -520.0 L 740.0 -519.0 L 729.0 -519.0 L 717.0 -519.0 L 704.5 -520.0 L 692.0 -521.0 L 678.0 -523.0 L 622.0 -532.0 L 576.0 -645.0 L 559.0 -687.0 L 545.0 -688.0 L 543.0 -688.0 L 542.0 -687.0 L 542.0 -705.0 Z" fill="black" fill-opacity="0.25" stroke="black" stroke-width="4.0"/>
  <rect x="0.0" y="-397.0" width="1356.0" height="166.0" fill="none" stroke="red" stroke-width="10.0" /><rect x="423.0" y="-1266.0" width="661.9999999999999" height="474.0" fill="none" stroke="red" stroke-width="10.0" /><rect x="542.0" y="-713.0" width="278.9999999999999" height="193.99999999999994" fill="none" stroke="red" stroke-width="10.0" />
</svg>
