<svg xmlns="http://www.w3.org/2000/svg"
  viewBox="-50 -1300 1893.5 1122">
  <rect x="-50" y="-1300" width="1893.5" height="1122" fill="white"/>
  <path d="M 310 -364 L 347 -363 L 389.5 -362 L 432 -361 L 487 -361 L 532 -361 L 580 -361 L 659 -362 L 738 -363 L 852 -366 L 1077 -370 L 1194 -370 L 1301 -370 L 1469 -272 L 1478 -259 L 1488.5 -249 L 1499 -239 L 1508 -228 L 1501 -228 L 1495.5 -228.5 L 1490 -229 L 1483 -231 L 1453 -236 L 1437.5 -240 L 1422 -244 L 1419 -244 L 1330 -251 L 1288 -254 L 1250 -256.5 L 1212 -259 L 1174 -259 L 1146 -259 L 1087.5 -257 L 1029 -255 L 937 -250 L 844 -245 L 776.5 -243 L 709 -241 L 663 -241 L 570 -241 L 480.5 -247 L 391 -253 L 299 -267 L 233 -277 L 152 -367 L 152 -393 L 189 -381 L 227.5 -373 L 266 -365 Z M 0 -484 L 0 -485 L 1 -485 L 2 -485 L 5 -487 L 7 -488 L 3 -494 L -1 -499 L 5 -501 L 52 -518 L 92.5 -531 L 133 -544 L 167 -555.5 L 201 -567 L 228 -577 L 255 -587 L 276 -598 L 355 -640 L 401 -712 L 408 -724 L 415.5 -741.5 L 423 -759 L 432 -782.5 L 441 -806 L 452.5 -835 L 464 -864 L 480 -899 L 481 -902 L 484 -903.5 L 487 -905 L 491.5 -905.5 L 496 -906 L 500.5 -907 L 505 -908 L 509 -910 L 521 -917 L 529 -921 L 537 -925 L 541 -927 L 553 -933 L 561.5 -935.5 L 570 -938 L 573 -940 L 586 -940 L 591 -940 L 596.5 -939.5 L 602 -939 L 607 -937 L 611 -936 L 616 -935 L 621 -934 L 625.5 -933.5 L 630 -933 L 635 -931.5 L 640 -930 L 644 -926 L 645 -925 L 643.5 -923 L 642 -921 L 639.5 -920 L 637 -919 L 634 -917.5 L 631 -916 L 629 -915 L 591 -889 L 589 -882 L 581 -848 L 573.5 -824 L 566 -800 L 559 -781 L 557 -775 L 552 -766.5 L 547 -758 L 541.5 -749 L 536 -740 L 530 -731.5 L 524 -723 L 521 -717 L 522 -717 L 522 -718 L 524 -718 L 520 -713 L 517 -710 L 516 -710 L 516 -710 L 521 -717 L 517 -715 L 507 -708.5 L 497 -702 L 483 -691.5 L 469 -681 L 453 -668.5 L 437 -656 L 420 -643 L 404 -631 L 391.5 -620.5 L 379 -610 L 369 -601 L 358 -592 L 350.5 -585.5 L 343 -579 L 339 -575 L 339 -574 L 337 -573 L 337 -573 L 336 -572 L 341 -574 L 346 -576.5 L 351 -579 L 355 -580 L 360 -583 L 361 -583 L 362 -583 L 352 -578 L 341 -572 L 337 -571 L 336 -571 L 336 -572 L 324 -566 L 308.5 -558.5 L 293 -551 L 276 -544.5 L 259 -538 L 242.5 -532.5 L 226 -527 L 212 -524 L 204 -523 L 190 -522.5 L 176 -522 L 164 -521.5 L 152 -521 L 146.5 -520 L 141 -519 L 148 -517 L 156 -514 L 164.5 -513 L 173 -512 L 182 -512 L 194 -512 L 206 -513 L 218 -514 L 231 -514 L 256 -514 L 279.5 -506.5 L 303 -499 L 323 -484 L 341 -470 L 342 -465 L 345 -457 L 331 -457 L 318 -457 L 306.5 -458 L 295 -459 L 283 -462 L 265 -465 L 242.5 -467.5 L 220 -470 L 193 -474 L 166 -478 L 144 -480 L 122 -482 L 100 -482 L 96 -483 L 91.5 -483 L 87 -483 L 84 -483 L 70 -483 L 56 -482.5 L 42 -482 L 27 -480 L 24 -479 L 19.5 -477.5 L 15 -476 L 7 -476 L 3 -476 Z M 614 -786 L 609 -786 L 606 -794 L 606 -795 L 607 -795 L 608 -795 L 612 -797 L 614 -798 L 609 -804 L 605 -809 L 612 -811 L 658 -828 L 698.5 -841 L 739 -854 L 773 -865.5 L 807 -877 L 834.5 -887 L 862 -897 L 882 -908 L 961 -950 L 1007 -1022 L 1014 -1034 L 1021.5 -1051.5 L 1029 -1069 L 1038 -1092.5 L 1047 -1116 L 1058.5 -1145 L 1070 -1174 L 1085 -1209 L 1086 -1212 L 1089.5 -1213.5 L 1093 -1215 L 1097.5 -1215.5 L 1102 -1216 L 1106.5 -1217 L 1111 -1218 L 1115 -1220 L 1127 -1227 L 1135 -1231 L 1143 -1235 L 1147 -1237 L 1159 -1243 L 1167.5 -1245.5 L 1176 -1248 L 1179 -1250 L 1192 -1250 L 1197 -1250 L 1202.5 -1249.5 L 1208 -1249 L 1213 -1247 L 1217 -1246 L 1222 -1245.5 L 1227 -1245 L 1231.5 -1244 L 1236 -1243 L 1241 -1241.5 L 1246 -1240 L 1250 -1236 L 1251 -1235 L 1249.5 -1233 L 1248 -1231 L 1245.5 -1230 L 1243 -1229 L 1240 -1227.5 L 1237 -1226 L 1235 -1225 L 1197 -1199 L 1195 -1192 L 1187 -1158 L 1179.5 -1134 L 1172 -1110 L 1165 -1091 L 1163 -1085 L 1158 -1076.5 L 1153 -1068 L 1147.5 -1059 L 1142 -1050 L 1136 -1041.5 L 1130 -1033 L 1126 -1027 L 1127 -1027 L 1127 -1028 L 1128 -1028 L 1130 -1028 L 1126 -1023 L 1123 -1020 L 1122 -1020 L 1122 -1020 L 1126 -1027 L 1122 -1025 L 1112.5 -1018.5 L 1103 -1012 L 1089 -1001.5 L 1075 -991 L 1059 -978.5 L 1043 -966 L 1026 -953 L 1010 -941 L 997.5 -930.5 L 985 -920 L 975 -912 L 964 -903 L 956.5 -896 L 949 -889 L 945 -885 L 945 -884 L 943 -883 L 943 -883 L 942 -882 L 947 -884 L 952 -886.5 L 957 -889 L 961 -891 L 966 -894 L 967 -893 L 968 -893 L 958 -888 L 947 -882 L 943 -881 L 942 -881 L 942 -882 L 930 -876 L 914 -868.5 L 898 -861 L 881.5 -854.5 L 865 -848 L 848.5 -842.5 L 832 -837 L 818 -834 L 810 -833 L 796 -832.5 L 782 -832 L 770 -831.5 L 758 -831 L 752.5 -830 L 747 -829 L 754 -827 L 762 -824 L 770.5 -823 L 779 -822 L 788 -822 L 800 -822 L 812 -823 L 824 -824 L 837 -824 L 862 -824 L 885.5 -816.5 L 909 -809 L 929 -794 L 947 -780 L 948 -775 L 951 -767 L 937 -767 L 924 -767 L 912.5 -768 L 901 -769 L 889 -772 L 871 -775 L 848.5 -777.5 L 826 -780 L 799 -784 L 772 -788 L 750 -790 L 728 -792 L 706 -792 L 702 -793 L 697.5 -793 L 693 -793 L 689 -793 L 675 -793 L 661.5 -792.5 L 648 -792 L 634 -790 L 631 -789 L 626.5 -787.5 L 622 -786 Z M 1149 -483 L 1149 -484 L 1151 -484 L 1152 -484 L 1155 -486 L 1157 -487 L 1153 -493 L 1149 -498 L 1155 -500 L 1201 -517 L 1241.5 -530 L 1282 -543 L 1316 -554.5 L 1350 -566 L 1377.5 -576 L 1405 -586 L 1426 -597 L 1505 -639 L 1551 -711 L 1558 -723 L 1565.5 -740.5 L 1573 -758 L 1581.5 -781.5 L 1590 -805 L 1601.5 -834 L 1613 -863 L 1629 -898 L 1630 -901 L 1633.5 -902.5 L 1637 -904 L 1641 -904.5 L 1645 -905 L 1649.5 -906 L 1654 -907 L 1659 -909 L 1671 -916 L 1678.5 -920 L 1686 -924 L 1690 -926 L 1702 -932 L 1711 -934.5 L 1720 -937 L 1723 -939 L 1736 -939 L 1741 -939 L 1746 -938.5 L 1751 -938 L 1757 -936 L 1761 -935 L 1765.5 -934 L 1770 -933 L 1775 -932.5 L 1780 -932 L 1784.5 -930.5 L 1789 -929 L 1793 -925 L 1794 -924 L 1793 -922 L 1792 -920 L 1789 -919 L 1786 -918 L 1783 -916.5 L 1780 -915 L 1779 -914 L 1741 -888 L 1738 -881 L 1730 -847 L 1723 -823 L 1716 -799 L 1709 -780 L 1707 -774 L 1702 -765.5 L 1697 -757 L 1691 -748 L 1685 -739 L 1679.5 -730.5 L 1674 -722 L 1670 -716 L 1671 -716 L 1671 -717 L 1672 -717 L 1674 -717 L 1669 -712 L 1666 -709 L 1666 -709 L 1666 -709 L 1670 -716 L 1666 -714 L 1656 -707.5 L 1646 -701 L 1632 -690.5 L 1618 -680 L 1602 -667.5 L 1586 -655 L 1570 -642 L 1554 -630 L 1541.5 -619.5 L 1529 -609 L 1518 -600 L 1507 -591 L 1499.5 -584.5 L 1492 -578 L 1488 -574 L 1488 -573 L 1486 -572 L 1486 -572 L 1486 -571 L 1491 -573 L 1496 -575.5 L 1501 -578 L 1504 -579 L 1509 -582 L 1510 -582 L 1511 -582 L 1501 -577 L 1490 -571 L 1487 -570 L 1486 -570 L 1486 -571 L 1474 -565 L 1458 -557.5 L 1442 -550 L 1425 -543.5 L 1408 -537 L 1391.5 -531.5 L 1375 -526 L 1362 -523 L 1354 -522 L 1340 -521.5 L 1326 -521 L 1314 -520.5 L 1302 -520 L 1296 -519 L 1290 -518 L 1298 -516 L 1306 -513 L 1314 -512 L 1322 -511 L 1332 -511 L 1344 -511 L 1356 -512 L 1368 -513 L 1380 -513 L 1405 -513 L 1428.5 -505.5 L 1452 -498 L 1473 -483 L 1491 -469 L 1491 -464 L 1494 -456 L 1480 -456 L 1467 -456 L 1456 -457 L 1445 -458 L 1432 -461 L 1414 -464 L 1391.5 -466.5 L 1369 -469 L 1343 -473 L 1316 -477 L 1293.5 -479 L 1271 -481 L 1249 -481 L 1245 -482 L 1241 -482 L 1237 -482 L 1233 -482 L 1219 -482 L 1205 -481.5 L 1191 -481 L 1177 -479 L 1174 -478 L 1169.5 -476.5 L 1165 -475 L 1157 -475 L 1152 -475 Z M 607 -679 L 608 -680 L 612 -681 L 616 -682 L 620 -682.5 L 624 -683 L 627.5 -683 L 631 -683 L 633 -683 L 648 -683 L 676 -679 L 692 -677 L 701.5 -676 L 711 -675 L 718 -674 L 781 -664 L 798 -577 L 808 -524 L 818 -510 L 826 -496 L 846 -494 L 851 -493 L 859 -493 L 862 -493 L 864 -491 L 863 -484 L 857 -479.5 L 851 -475 L 842.5 -472.5 L 834 -470 L 825.5 -469 L 817 -468 L 812 -468 L 793 -468 L 771.5 -473 L 750 -478 L 723 -488 L 672 -507 L 654 -618 L 648 -666 L 625 -666 L 612 -666 L 604 -666 L 603 -667 L 601 -670 Z M 829 -680 L 829 -685 L 843 -685 L 846 -685 L 853 -685 L 864 -684 L 875 -683 L 889 -680 L 904 -678 L 912.5 -676.5 L 921 -675 L 928 -674 L 991 -665 L 1009 -577 L 1019 -525 L 1029 -510 L 1035 -500 L 1056 -496 L 1074 -492 L 1073 -491 L 1073 -488 L 1072 -488.5 L 1071 -489 L 1068 -483 L 1061 -469 L 1023 -469 L 1004 -469 L 982 -474.5 L 960 -480 L 934 -490 L 883 -509 L 865 -622 L 858 -669 L 845 -669 L 843 -669 L 842 -669 L 838 -669 L 828 -669 Z" fill="black" fill-opacity="0.25" stroke="black" stroke-width="4"/>
  <rect x="152" y="-393" width="1356" height="165" fill="none" stroke="red" stroke-width="10" /><rect x="601" y="-683" width="263" height="215" fill="none" stroke="red" stroke-width="10" /><rect x="828" y="-685" width="246" height="216" fill="none" stroke="red" stroke-width="10" /><rect x="-1" y="-618" width="389.5" height="161" fill="none" stroke="red" stroke-width="10" /><rect x="313.6" y="-779" width="244.7" height="161" fill="none" stroke="red" stroke-width="10" /><rect x="430.7" y="-940" width="214.3" height="161" fill="none" stroke="red" stroke-width="10" /><rect x="605" y="-928" width="389.5" height="161" fill="none" stroke="red" stroke-width="10" /><rect x="919.6" y="-1089" width="244.7" height="161" fill="none" stroke="red" stroke-width="10" /><rect x="1036.7" y="-1250" width="214.3" height="161" fill="none" stroke="red" stroke-width="10" /><rect x="1149" y="-617" width="389.5" height="161" fill="none" stroke="red" stroke-width="10" /><rect x="1463.6" y="-778" width="244.7" height="161" fill="none" stroke="red" stroke-width="10" /><rect x="1580.2" y="-939" width="213.8" height="161" fill="none" stroke="red" stroke-width="10" />
</svg>
