<svg xmlns="http://www.w3.org/2000/svg"
  viewBox="-50.0 -1088.0 1595.4 909.0">
  <rect x="-50.0" y="-1088.0" width="1595.4" height="909.0" fill="white"/>
  <path d="M 0.0 -395.0 L 37.0 -382.0 L 75.5 -374.5 L 114.0 -367.0 L 158.0 -366.0 L 202.0 -365.0 L 256.0 -363.5 L 310.0 -362.0 L 380.0 -362.0 L 428.0 -362.0 L 507.5 -363.5 L 587.0 -365.0 L 701.0 -367.0 L 815.0 -369.0 L 899.5 -370.5 L 984.0 -372.0 L 1043.0 -372.0 L 1150.0 -372.0 L 1318.0 -273.0 L 1327.0 -260.0 L 1337.5 -250.5 L 1348.0 -241.0 L 1357.0 -229.0 L 1343.0 -229.0 L 1332.0 -233.0 L 1302.0 -237.0 L 1286.5 -241.0 L 1271.0 -245.0 L 1268.0 -245.0 L 1179.0 -253.0 L 1137.0 -256.0 L 1099.0 -258.5 L 1061.0 -261.0 L 1022.0 -261.0 L 994.0 -261.0 L 935.5 -258.5 L 877.0 -256.0 L 785.0 -251.0 L 692.0 -246.0 L 625.0 -244.0 L 558.0 -242.0 L 512.0 -242.0 L 420.0 -242.0 L 329.5 -248.0 L 239.0 -254.0 L 147.0 -268.0 L 81.0 -278.0 L 0.0 -369.0 Z M 0.0 -582.0 L 0.0 -583.0 L 2.0 -583.0 L 3.0 -583.0 L 6.0 -585.0 L 8.0 -586.0 L 4.0 -592.0 L 0.0 -597.0 L 6.0 -599.0 L 52.0 -616.0 L 92.5 -629.5 L 133.0 -643.0 L 167.5 -654.0 L 202.0 -665.0 L 229.0 -675.0 L 256.0 -685.0 L 277.0 -696.0 L 357.0 -738.0 L 402.0 -810.0 L 409.0 -822.0 L 416.5 -839.5 L 424.0 -857.0 L 432.5 -880.5 L 441.0 -904.0 L 452.5 -933.0 L 464.0 -962.0 L 480.0 -997.0 L 481.0 -1000.0 L 484.5 -1001.5 L 488.0 -1003.0 L 492.5 -1003.5 L 497.0 -1004.0 L 501.5 -1005.0 L 506.0 -1006.0 L 510.0 -1008.0 L 522.0 -1015.0 L 530.0 -1019.5 L 538.0 -1024.0 L 541.0 -1025.0 L 554.0 -1031.0 L 562.5 -1033.5 L 571.0 -1036.0 L 574.0 -1038.0 L 587.0 -1038.0 L 592.0 -1038.0 L 597.5 -1037.5 L 603.0 -1037.0 L 608.0 -1035.0 L 612.0 -1034.0 L 616.5 -1033.5 L 621.0 -1033.0 L 626.0 -1032.0 L 631.0 -1031.0 L 635.5 -1029.5 L 640.0 -1028.0 L 644.0 -1024.0 L 645.0 -1023.0 L 644.0 -1021.0 L 643.0 -1019.0 L 640.5 -1018.0 L 638.0 -1017.0 L 635.0 -1016.0 L 632.0 -1015.0 L 630.0 -1013.0 L 592.0 -987.0 L 589.0 -980.0 L 583.0 -955.0 L 578.0 -934.0 L 573.0 -913.0 L 565.5 -893.5 L 558.0 -874.0 L 547.5 -855.0 L 537.0 -836.0 L 521.0 -815.0 L 522.0 -815.0 L 522.0 -816.0 L 523.0 -816.0 L 525.0 -816.0 L 520.0 -811.0 L 517.0 -807.0 L 517.0 -807.0 L 517.0 -808.0 L 517.0 -809.0 L 518.0 -809.0 L 519.0 -810.0 L 519.5 -811.5 L 520.0 -813.0 L 521.0 -815.0 L 517.0 -813.0 L 507.0 -806.5 L 497.0 -800.0 L 483.0 -789.5 L 469.0 -779.0 L 453.0 -766.5 L 437.0 -754.0 L 421.0 -741.0 L 405.0 -729.0 L 392.5 -718.5 L 380.0 -708.0 L 369.0 -700.0 L 358.0 -691.0 L 350.5 -684.0 L 343.0 -677.0 L 339.0 -673.0 L 339.0 -672.0 L 337.0 -671.0 L 337.0 -671.0 L 337.0 -670.0 L 343.0 -672.0 L 347.5 -674.5 L 352.0 -677.0 L 356.0 -679.0 L 361.0 -682.0 L 362.0 -681.0 L 362.0 -681.0 L 359.0 -680.0 L 358.0 -679.0 L 355.0 -677.0 L 352.0 -675.0 L 348.5 -673.5 L 345.0 -672.0 L 342.0 -670.5 L 339.0 -669.0 L 338.0 -669.0 L 337.0 -669.0 L 337.0 -670.0 L 325.0 -664.0 L 309.0 -656.5 L 293.0 -649.0 L 276.0 -642.5 L 259.0 -636.0 L 242.5 -630.5 L 226.0 -625.0 L 213.0 -622.0 L 204.0 -621.0 L 190.5 -620.5 L 177.0 -620.0 L 165.0 -619.5 L 153.0 -619.0 L 147.5 -618.5 L 142.0 -618.0 L 149.0 -615.0 L 157.0 -612.0 L 165.5 -611.0 L 174.0 -610.0 L 183.0 -610.0 L 195.0 -610.0 L 207.0 -611.0 L 219.0 -612.0 L 232.0 -612.0 L 235.0 -612.0 L 238.0 -612.0 L 241.0 -612.0 L 244.0 -611.0 L 289.0 -608.0 L 324.0 -582.0 L 343.0 -568.0 L 342.0 -563.0 L 345.0 -555.0 L 332.0 -555.0 L 319.0 -555.0 L 307.5 -556.0 L 296.0 -557.0 L 283.0 -560.0 L 266.0 -563.0 L 243.5 -565.5 L 221.0 -568.0 L 194.0 -572.0 L 168.0 -576.0 L 145.0 -578.0 L 122.0 -580.0 L 100.0 -580.0 L 96.0 -581.0 L 92.0 -581.0 L 88.0 -581.0 L 84.0 -581.0 L 70.0 -581.0 L 56.0 -580.5 L 42.0 -580.0 L 28.0 -578.0 L 25.0 -577.0 L 20.5 -575.5 L 16.0 -574.0 L 8.0 -574.0 L 3.0 -574.0 Z M 426.0 -582.0 L 426.0 -583.0 L 427.0 -583.0 L 428.0 -583.0 L 432.0 -585.0 L 434.0 -586.0 L 429.0 -592.0 L 425.0 -597.0 L 432.0 -599.0 L 478.0 -616.0 L 518.5 -629.5 L 559.0 -643.0 L 593.0 -654.0 L 627.0 -665.0 L 654.5 -675.0 L 682.0 -685.0 L 702.0 -696.0 L 782.0 -737.0 L 827.0 -810.0 L 834.0 -822.0 L 841.5 -839.5 L 849.0 -857.0 L 858.0 -880.5 L 867.0 -904.0 L 878.5 -933.0 L 890.0 -962.0 L 905.0 -997.0 L 906.0 -1000.0 L 910.0 -1001.5 L 914.0 -1003.0 L 918.0 -1003.5 L 922.0 -1004.0 L 926.5 -1005.0 L 931.0 -1006.0 L 935.0 -1008.0 L 947.0 -1015.0 L 955.0 -1019.5 L 963.0 -1024.0 L 966.0 -1025.0 L 979.0 -1031.0 L 987.5 -1033.5 L 996.0 -1036.0 L 999.0 -1038.0 L 1012.0 -1038.0 L 1017.0 -1038.0 L 1022.5 -1037.5 L 1028.0 -1037.0 L 1033.0 -1035.0 L 1037.0 -1034.0 L 1041.5 -1033.5 L 1046.0 -1033.0 L 1051.0 -1032.0 L 1056.0 -1031.0 L 1060.5 -1029.5 L 1065.0 -1028.0 L 1069.0 -1024.0 L 1070.0 -1023.0 L 1069.0 -1021.0 L 1068.0 -1019.0 L 1065.5 -1018.0 L 1063.0 -1017.0 L 1060.0 -1016.0 L 1057.0 -1015.0 L 1055.0 -1013.0 L 1017.0 -987.0 L 1015.0 -980.0 L 1007.0 -946.0 L 999.5 -922.0 L 992.0 -898.0 L 985.0 -879.0 L 983.0 -873.0 L 978.0 -864.5 L 973.0 -856.0 L 967.0 -847.0 L 961.0 -838.0 L 955.5 -829.5 L 950.0 -821.0 L 946.0 -815.0 L 947.0 -815.0 L 947.0 -816.0 L 948.0 -816.0 L 950.0 -816.0 L 946.0 -811.0 L 943.0 -808.0 L 942.0 -808.0 L 942.0 -808.0 L 946.0 -815.0 L 942.0 -813.0 L 932.0 -806.5 L 922.0 -800.0 L 908.5 -789.5 L 895.0 -779.0 L 878.5 -766.5 L 862.0 -754.0 L 846.0 -741.0 L 830.0 -729.0 L 817.5 -718.5 L 805.0 -708.0 L 794.0 -700.0 L 783.0 -691.0 L 776.0 -684.0 L 769.0 -677.0 L 765.0 -673.0 L 765.0 -672.0 L 763.0 -671.0 L 763.0 -671.0 L 762.0 -670.0 L 768.0 -672.0 L 772.5 -674.5 L 777.0 -677.0 L 781.0 -679.0 L 786.0 -682.0 L 787.0 -681.0 L 787.0 -681.0 L 785.0 -680.0 L 784.0 -679.0 L 780.5 -677.0 L 777.0 -675.0 L 773.5 -673.5 L 770.0 -672.0 L 767.5 -670.5 L 765.0 -669.0 L 763.0 -669.0 L 762.0 -669.0 L 762.0 -670.0 L 750.0 -664.0 L 734.0 -656.5 L 718.0 -649.0 L 701.5 -642.5 L 685.0 -636.0 L 668.0 -630.5 L 651.0 -625.0 L 638.0 -622.0 L 629.0 -621.0 L 615.5 -620.5 L 602.0 -620.0 L 590.5 -619.5 L 579.0 -619.0 L 573.0 -618.5 L 567.0 -618.0 L 574.0 -615.0 L 582.0 -612.0 L 591.0 -611.0 L 600.0 -610.0 L 608.0 -610.0 L 620.0 -610.0 L 632.5 -611.0 L 645.0 -612.0 L 657.0 -612.0 L 660.0 -612.0 L 663.0 -612.0 L 666.0 -612.0 L 669.0 -611.0 L 714.0 -608.0 L 749.0 -582.0 L 768.0 -568.0 L 768.0 -563.0 L 771.0 -555.0 L 757.0 -555.0 L 744.0 -555.0 L 732.5 -556.0 L 721.0 -557.0 L 708.0 -560.0 L 691.0 -563.0 L 668.5 -565.5 L 646.0 -568.0 L 619.0 -572.0 L 593.0 -576.0 L 570.0 -578.0 L 547.0 -580.0 L 525.0 -580.0 L 521.0 -581.0 L 517.0 -581.0 L 513.0 -581.0 L 509.0 -581.0 L 495.0 -581.0 L 481.5 -580.5 L 468.0 -580.0 L 454.0 -578.0 L 451.0 -577.0 L 446.0 -575.5 L 441.0 -574.0 L 434.0 -574.0 L 429.0 -574.0 Z M 859.0 -574.0 L 854.0 -574.0 L 851.0 -582.0 L 851.0 -583.0 L 853.0 -583.0 L 854.0 -583.0 L 857.0 -585.0 L 859.0 -586.0 L 854.0 -592.0 L 850.0 -597.0 L 857.0 -599.0 L 903.0 -616.0 L 943.5 -629.5 L 984.0 -643.0 L 1018.0 -654.0 L 1052.0 -665.0 L 1079.5 -675.0 L 1107.0 -685.0 L 1127.0 -696.0 L 1207.0 -736.0 L 1252.0 -810.0 L 1259.0 -822.0 L 1266.5 -839.5 L 1274.0 -857.0 L 1283.0 -880.5 L 1292.0 -904.0 L 1303.5 -933.0 L 1315.0 -962.0 L 1331.0 -997.0 L 1332.0 -1001.0 L 1335.0 -1002.0 L 1338.0 -1003.0 L 1342.5 -1003.5 L 1347.0 -1004.0 L 1351.5 -1004.5 L 1356.0 -1005.0 L 1360.0 -1008.0 L 1372.0 -1015.0 L 1380.5 -1019.5 L 1389.0 -1024.0 L 1392.0 -1025.0 L 1405.0 -1031.0 L 1413.0 -1033.5 L 1421.0 -1036.0 L 1424.0 -1038.0 L 1437.0 -1038.0 L 1442.0 -1038.0 L 1447.5 -1037.5 L 1453.0 -1037.0 L 1458.0 -1035.0 L 1462.0 -1034.0 L 1467.0 -1033.5 L 1472.0 -1033.0 L 1476.5 -1032.0 L 1481.0 -1031.0 L 1486.0 -1029.5 L 1491.0 -1028.0 L 1495.0 -1024.0 L 1496.0 -1023.0 L 1494.5 -1021.0 L 1493.0 -1019.0 L 1490.5 -1017.5 L 1488.0 -1016.0 L 1485.0 -1015.0 L 1482.0 -1014.0 L 1480.0 -1013.0 L 1442.0 -987.0 L 1440.0 -980.0 L 1432.0 -946.0 L 1424.5 -922.0 L 1417.0 -898.0 L 1410.0 -879.0 L 1408.0 -873.0 L 1403.5 -864.5 L 1399.0 -856.0 L 1393.0 -847.0 L 1387.0 -838.0 L 1381.0 -829.5 L 1375.0 -821.0 L 1372.0 -815.0 L 1372.0 -815.0 L 1374.0 -816.0 L 1376.0 -816.0 L 1371.0 -811.0 L 1367.0 -807.0 L 1367.0 -807.0 L 1372.0 -815.0 L 1368.0 -813.0 L 1357.5 -806.5 L 1347.0 -800.0 L 1333.0 -789.5 L 1319.0 -779.0 L 1303.5 -766.5 L 1288.0 -754.0 L 1271.0 -741.0 L 1255.0 -729.0 L 1242.5 -718.5 L 1230.0 -708.0 L 1220.0 -700.0 L 1209.0 -691.0 L 1201.5 -684.0 L 1194.0 -677.0 L 1190.0 -673.0 L 1190.0 -672.0 L 1188.0 -671.0 L 1188.0 -671.0 L 1187.0 -670.0 L 1193.0 -672.0 L 1198.0 -674.5 L 1203.0 -677.0 L 1207.0 -679.0 L 1212.0 -682.0 L 1212.0 -681.0 L 1212.0 -681.0 L 1210.0 -680.0 L 1209.0 -679.0 L 1205.5 -677.0 L 1202.0 -675.0 L 1199.0 -673.5 L 1196.0 -672.0 L 1193.0 -670.5 L 1190.0 -669.0 L 1188.0 -669.0 L 1187.0 -669.0 L 1187.0 -670.0 L 1175.0 -664.0 L 1159.5 -656.5 L 1144.0 -649.0 L 1127.0 -642.5 L 1110.0 -636.0 L 1093.5 -630.5 L 1077.0 -625.0 L 1063.0 -622.0 L 1055.0 -621.0 L 1041.0 -620.5 L 1027.0 -620.0 L 1015.0 -619.5 L 1003.0 -619.0 L 997.5 -618.5 L 992.0 -618.0 L 999.0 -615.0 L 1007.0 -612.0 L 1015.5 -611.0 L 1024.0 -610.0 L 1033.0 -610.0 L 1045.0 -610.0 L 1057.0 -611.0 L 1069.0 -612.0 L 1082.0 -612.0 L 1085.0 -612.0 L 1088.5 -612.0 L 1092.0 -612.0 L 1095.0 -611.0 L 1140.0 -608.0 L 1174.0 -582.0 L 1193.0 -568.0 L 1193.0 -563.0 L 1196.0 -555.0 L 1182.0 -555.0 L 1169.0 -555.0 L 1157.5 -556.0 L 1146.0 -557.0 L 1134.0 -560.0 L 1117.0 -563.0 L 1094.0 -565.5 L 1071.0 -568.0 L 1044.0 -572.0 L 1018.0 -576.0 L 995.5 -578.0 L 973.0 -580.0 L 951.0 -580.0 L 947.0 -581.0 L 942.5 -581.0 L 938.0 -581.0 L 935.0 -581.0 L 921.0 -581.0 L 907.0 -580.5 L 893.0 -580.0 L 879.0 -578.0 L 876.0 -577.0 L 871.5 -575.5 L 867.0 -574.0 Z" fill="black" fill-opacity="0.25" stroke="black" stroke-width="4.0"/>
  <rect x="0.0" y="-395.0" width="1357.0" height="166.0" fill="none" stroke="red" stroke-width="10.0" /><rect x="0.0" y="-716.0" width="389.5" height="160.99999999999991" fill="none" stroke="red" stroke-width="10.0" /><rect x="315.09999999999997" y="-877.0" width="244.10000000000005" height="161.00000000000003" fill="none" stroke="red" stroke-width="10.0" /><rect x="431.20000000000005" y="-1038.0" width="213.79999999999998" height="161.00000000000003" fill="none" stroke="red" stroke-width="10.0" /><rect x="425.0" y="-716.0" width="389.5" height="160.99999999999991" fill="none" stroke="red" stroke-width="10.0" /><rect x="741.0" y="-877.0" width="243.29999999999995" height="161.00000000000003" fill="none" stroke="red" stroke-width="10.0" /><rect x="856.7" y="-1038.0" width="213.30000000000004" height="161.00000000000003" fill="none" stroke="red" stroke-width="10.0" /><rect x="850.0" y="-716.0" width="389.50000000000006" height="160.99999999999991" fill="none" stroke="red" stroke-width="10.0" /><rect x="1167.0" y="-877.0" width="242.29999999999995" height="161.00000000000003" fill="none" stroke="red" stroke-width="10.0" /><rect x="1281.7" y="-1038.0" width="214.29999999999993" height="161.00000000000003" fill="none" stroke="red" stroke-width="10.0" />
</svg>
