<svg xmlns="http://www.w3.org/2000/svg"
  viewBox="-50 -1082 1457 905">
  <rect x="-50" y="-1082" width="1457" height="905" fill="white"/>
  <path d="M 0 -366 L 0 -393 L 37 -380 L 75 -372.5 L 113 -365 L 158 -363 L 202 -362 L 255.5 -361 L 309 -360 L 380 -360 L 428 -360 L 507.5 -361 L 587 -362 L 700 -365 L 814 -367 L 898.5 -368.5 L 983 -370 L 1043 -370 L 1150 -370 L 1317 -271 L 1326 -258 L 1336.5 -248 L 1347 -238 L 1357 -227 L 1343 -227 L 1332 -231 L 1302 -235 L 1286.5 -239 L 1271 -243 L 1267 -243 L 1178 -251 L 1136 -254 L 1098 -256 L 1060 -258 L 1022 -258 L 994 -258 L 935.5 -256 L 877 -254 L 785 -249 L 692 -244 L 624.5 -242 L 557 -240 L 511 -240 L 419 -240 L 328.5 -246 L 238 -252 L 147 -266 L 81 -276 Z M 70 -576 L 70 -577 L 72 -577 L 73 -577 L 76 -579 L 78 -580 L 74 -586 L 70 -591 L 76 -593 L 123 -610 L 163.5 -623 L 204 -636 L 238 -647.5 L 272 -659 L 299 -669 L 326 -679 L 347 -690 L 427 -732 L 472 -804 L 479 -816 L 486.5 -833.5 L 494 -851 L 502.5 -874.5 L 511 -898 L 522.5 -927 L 534 -956 L 550 -991 L 551 -994 L 554.5 -995.5 L 558 -997 L 562 -997.5 L 566 -998 L 571 -999 L 576 -1000 L 580 -1002 L 592 -1009 L 600 -1013.5 L 608 -1018 L 611 -1019 L 624 -1025 L 632.5 -1027.5 L 641 -1030 L 644 -1032 L 657 -1032 L 662 -1032 L 667 -1031.5 L 672 -1031 L 678 -1029 L 682 -1028 L 686.5 -1027.5 L 691 -1027 L 696 -1026 L 701 -1025 L 705.5 -1023.5 L 710 -1022 L 714 -1018 L 715 -1017 L 714 -1015 L 713 -1013 L 710.5 -1012 L 708 -1011 L 705 -1009.5 L 702 -1008 L 700 -1007 L 663 -981 L 659 -974 L 651 -940 L 644 -916 L 637 -892 L 629 -873 L 627 -867 L 622.5 -858.5 L 618 -850 L 612 -841 L 606 -832 L 600.5 -823.5 L 595 -815 L 591 -809 L 591 -809 L 593 -810 L 595 -810 L 590 -805 L 587 -802 L 587 -802 L 587 -802 L 591 -809 L 587 -807 L 577 -800.5 L 567 -794 L 553 -783.5 L 539 -773 L 523 -760.5 L 507 -748 L 491 -735 L 475 -723 L 462.5 -712.5 L 450 -702 L 439 -694 L 428 -685 L 420.5 -678 L 413 -671 L 409 -667 L 409 -666 L 407 -665 L 407 -665 L 407 -664 L 413 -666 L 417.5 -668.5 L 422 -671 L 426 -673 L 431 -676 L 432 -675 L 432 -675 L 429 -674 L 428 -673 L 424.5 -671 L 421 -669 L 418 -667.5 L 415 -666 L 412 -664.5 L 409 -663 L 408 -663 L 407 -663 L 407 -664 L 395 -658 L 379 -650.5 L 363 -643 L 346 -636.5 L 329 -630 L 312.5 -624.5 L 296 -619 L 283 -616 L 274 -615 L 260.5 -614.5 L 247 -614 L 235 -613.5 L 223 -613 L 217 -612.5 L 211 -612 L 219 -609 L 227 -606 L 235.5 -605 L 244 -604 L 253 -604 L 265 -604 L 277 -605 L 289 -606 L 302 -606 L 305 -606 L 308 -606 L 311 -606 L 314 -605 L 359 -602 L 394 -576 L 413 -562 L 412 -557 L 415 -549 L 401 -549 L 388 -549 L 377 -550 L 366 -551 L 353 -554 L 336 -557 L 313.5 -559.5 L 291 -562 L 264 -566 L 238 -570 L 215 -572 L 192 -574 L 170 -574 L 166 -575 L 162 -575 L 158 -575 L 154 -575 L 140 -575 L 126 -574.5 L 112 -574 L 98 -572 L 95 -571 L 90.5 -569.5 L 86 -568 L 78 -568 L 73 -568 Z" fill="black" fill-opacity="0.25" stroke="black" stroke-width="4"/>
  <rect x="0" y="-393" width="1357" height="166" fill="none" stroke="red" stroke-width="10" /><rect x="70" y="-710" width="389.5" height="161" fill="none" stroke="red" stroke-width="10" /><rect x="385.1" y="-871" width="243.2" height="161" fill="none" stroke="red" stroke-width="10" /><rect x="501.2" y="-1032" width="213.8" height="161" fill="none" stroke="red" stroke-width="10" />
</svg>
