<svg xmlns="http://www.w3.org/2000/svg"
  viewBox="-50.0 -815.0 1500.0 635.0">
  <rect x="-50.0" y="-815.0" width="1500.0" height="635.0" fill="white"/>
  <path d="M 191.0 -269.0 L 126.0 -279.0 L 44.0 -369.0 L 44.0 -396.0 L 80.0 -383.0 L 119.0 -375.0 L 158.0 -367.0 L 201.0 -366.0 L 245.0 -365.0 L 299.0 -364.0 L 353.0 -363.0 L 424.0 -363.0 L 519.0 -363.0 L 744.0 -367.0 L 969.0 -372.0 L 1086.0 -372.0 L 1193.0 -372.0 L 1361.0 -274.0 L 1370.0 -261.0 L 1380.5 -251.0 L 1391.0 -241.0 L 1400.0 -230.0 L 1399.0 -230.0 L 1392.5 -230.0 L 1386.0 -230.0 L 1375.0 -233.0 L 1345.0 -237.0 L 1329.5 -241.0 L 1314.0 -245.0 L 1311.0 -245.0 L 1222.0 -253.0 L 1181.0 -256.0 L 1142.0 -258.5 L 1103.0 -261.0 L 1066.0 -261.0 L 1011.0 -261.0 L 828.0 -252.0 L 645.0 -243.0 L 555.0 -242.0 L 508.0 -242.0 L 462.5 -243.5 L 417.0 -245.0 L 372.0 -249.0 L 327.0 -252.0 L 281.5 -257.0 L 236.0 -262.0 Z M 88.0 -762.0 L 97.0 -765.0 L 109.5 -765.0 L 122.0 -765.0 L 139.0 -765.0 L 194.0 -765.0 L 250.0 -752.0 L 306.0 -739.0 L 365.0 -709.0 L 444.0 -651.0 L 433.0 -651.0 L 412.0 -653.0 L 391.0 -655.0 L 358.0 -657.0 L 327.0 -660.0 L 303.5 -661.5 L 280.0 -663.0 L 266.0 -664.0 L 236.0 -664.0 L 213.0 -656.0 L 194.0 -649.0 L 194.0 -633.0 L 194.0 -625.0 L 200.0 -614.0 L 208.0 -600.0 L 212.5 -590.0 L 217.0 -580.0 L 223.0 -578.0 L 240.0 -572.0 L 255.0 -568.5 L 270.0 -565.0 L 287.0 -562.0 L 339.0 -552.0 L 348.0 -550.0 L 365.5 -549.0 L 383.0 -548.0 L 409.0 -548.0 L 493.0 -556.0 L 573.0 -563.5 L 653.0 -571.0 L 730.0 -578.0 L 881.0 -592.0 L 1051.0 -592.0 L 1164.0 -592.0 L 1330.0 -497.0 L 1367.0 -454.0 L 1344.0 -459.0 L 1278.0 -470.0 L 1178.0 -479.0 L 1086.0 -489.0 L 1005.0 -489.0 L 956.0 -486.0 L 931.0 -485.0 L 894.5 -484.0 L 858.0 -483.0 L 809.0 -479.0 L 790.0 -478.0 L 759.0 -478.0 L 728.0 -478.0 L 684.0 -478.0 L 650.0 -478.0 L 615.0 -479.0 L 580.0 -480.0 L 542.0 -481.0 L 467.0 -484.0 L 373.0 -495.0 L 308.0 -502.0 L 246.0 -525.5 L 184.0 -549.0 L 122.0 -583.0 L 0.0 -650.0 L 0.0 -707.0 L 0.0 -748.0 Z" fill="black" fill-opacity="0.25" stroke="black" stroke-width="4.0"/>
  <rect x="44.0" y="-396.0" width="1355.9999999999998" height="166.0" fill="none" stroke="red" stroke-width="10.0" /><rect x="0.0" y="-765.0" width="1367.0" height="311.0" fill="none" stroke="red" stroke-width="10.0" />
</svg>
