<svg xmlns="http://www.w3.org/2000/svg"
  viewBox="-50 -866 2540 726">
  <rect x="-50" y="-866" width="2540" height="726" fill="white"/>
  <path d="M 450 -329 L 450 -356 L 503 -343 L 560 -335.5 L 617 -328 L 681 -326 L 713 -326 L 748.5 -325 L 784 -324 L 824.5 -323.5 L 865 -323 L 910.5 -323 L 956 -323 L 1007 -323 L 1077 -323 L 1194.5 -324 L 1312 -325 L 1478 -328 L 1644 -330 L 1768.5 -331 L 1893 -332 L 1980 -332 L 2139 -332 L 2383 -234 L 2396 -221 L 2411.5 -211 L 2427 -201 L 2440 -190 L 2420 -190 L 2403 -193 L 2359 -197 L 2336.5 -201.5 L 2314 -206 L 2310 -206 L 2179 -213 L 2119 -216 L 2062 -218.5 L 2005 -221 L 1949 -221 L 1909 -221 L 1822.5 -219 L 1736 -217 L 1601 -212 L 1466 -207 L 1366.5 -205 L 1267 -203 L 1200 -203 L 1066 -203 L 932.5 -208.5 L 799 -214 L 665 -229 L 569 -239 Z M 663 -694 L 663 -722 L 676 -742.5 L 689 -763 L 711 -776 L 733 -789 L 761 -797.5 L 789 -806 L 817.5 -810 L 846 -814 L 872.5 -815 L 899 -816 L 919 -816 L 980 -816 L 1037 -810.5 L 1094 -805 L 1150.5 -795 L 1207 -785 L 1263 -771.5 L 1319 -758 L 1377 -741 L 1436 -724 L 1502 -691.5 L 1568 -659 L 1642 -610 L 1788 -514 L 1788 -473 L 1788 -454 L 1752 -454 L 1705 -454 L 1655 -460.5 L 1605 -467 L 1558 -477 L 1569 -581 L 1394 -665 L 1226 -745 L 1055 -745 L 1038 -745 L 1017.5 -743.5 L 997 -742 L 975 -738 L 953 -734 L 932.5 -727 L 912 -720 L 895.5 -708.5 L 879 -697 L 869 -680.5 L 859 -664 L 858 -642 L 857 -611 L 903 -574 L 961 -529 L 967 -527 L 828 -528 L 758 -557 L 711 -577 L 680 -626 L 663 -665 Z M 0 -733 L 13 -736 L 23.5 -741 L 34 -746 L 46 -748 L 82 -750 L 118 -751 L 154 -752 L 189 -752 L 216 -752 L 247.5 -748.5 L 279 -745 L 314 -738 L 336 -734 L 356.5 -727.5 L 377 -721 L 398 -716 L 413 -712 L 433 -705.5 L 453 -699 L 474 -690.5 L 495 -682 L 515 -670 L 535 -658 L 551 -644 L 567 -630 L 576.5 -613 L 586 -596 L 585 -577 L 585 -555 L 572 -536 L 567 -530 L 547 -530 L 506 -530 L 465.5 -537.5 L 425 -545 L 386 -555 L 407 -566 L 420 -583 L 435 -601 L 429 -614 L 419 -638 L 381.5 -658.5 L 344 -679 L 278 -691 L 207 -704 L 139 -713 L 71 -722 Z M 1848 -682 L 1850 -685 L 1864 -685 L 1879 -685 L 1890 -685 L 1901 -684.5 L 1912 -684 L 1923 -682 L 1970 -674 L 2039 -661 L 2057 -566 L 2069 -505 L 2081 -491 L 2092 -478 L 2110 -474 L 2116 -473 L 2125 -472 L 2128 -472 L 2129 -471 L 2128 -464 L 2121 -459 L 2114 -454 L 2104.5 -451 L 2095 -448 L 2085.5 -447 L 2076 -446 L 2070 -446 L 2049 -446 L 2026 -451.5 L 2003 -457 L 1975 -467 L 1920 -487 L 1899 -613 L 1890 -666 L 1867 -666 L 1853 -666 L 1844 -666 L 1842 -667 L 1839 -669 Z M 2079 -683 L 2079 -686 L 2096 -686 L 2109 -686 L 2120.5 -685.5 L 2132 -685 L 2143 -683.5 L 2154 -682 L 2165 -680 L 2176 -678 L 2189 -675 L 2260 -661 L 2276 -566 L 2286 -508 L 2301 -493 L 2311 -478 L 2331 -475 L 2336 -474 L 2338 -473 L 2340 -472 L 2343 -472 L 2348 -472 L 2348 -465 L 2341.5 -460.5 L 2335 -456 L 2325.5 -453 L 2316 -450 L 2307 -448 L 2297 -447 L 2293 -447 L 2255 -447 L 2195 -469 L 2141 -490 L 2120 -618 L 2111 -669 L 2095 -669 L 2093 -669 L 2092 -669 L 2091.5 -668.5 L 2091 -668 L 2090 -668 L 2079 -668 Z" fill="black" fill-opacity="0.25" stroke="black" stroke-width="4"/>
  <rect x="450" y="-356" width="1990" height="166" fill="none" stroke="red" stroke-width="10" /><rect x="663" y="-816" width="1125" height="362" fill="none" stroke="red" stroke-width="10" /><rect x="0" y="-752" width="586" height="222" fill="none" stroke="red" stroke-width="10" /><rect x="1839" y="-685" width="290" height="239" fill="none" stroke="red" stroke-width="10" /><rect x="2079" y="-686" width="269" height="239" fill="none" stroke="red" stroke-width="10" />
</svg>
