<svg xmlns="http://www.w3.org/2000/svg"
  viewBox="-50.0 -1028.0 1488.0 850.0">
  <rect x="-50.0" y="-1028.0" width="1488.0" height="850.0" fill="white"/>
  <path d="M 32.0 -367.0 L 32.0 -393.0 L 69.0 -381.0 L 107.0 -373.0 L 145.0 -365.0 L 190.0 -364.0 L 234.0 -362.0 L 287.5 -361.5 L 341.0 -361.0 L 412.0 -361.0 L 460.0 -361.0 L 539.0 -362.0 L 618.0 -363.0 L 732.0 -366.0 L 957.0 -370.0 L 1074.0 -370.0 L 1181.0 -370.0 L 1349.0 -272.0 L 1358.0 -259.0 L 1368.5 -249.0 L 1379.0 -239.0 L 1388.0 -228.0 L 1381.0 -228.0 L 1375.5 -228.5 L 1370.0 -229.0 L 1363.0 -231.0 L 1333.0 -236.0 L 1317.5 -239.5 L 1302.0 -243.0 L 1299.0 -243.0 L 1210.0 -251.0 L 1168.0 -254.0 L 1130.0 -256.5 L 1092.0 -259.0 L 1054.0 -259.0 L 1026.0 -259.0 L 967.5 -257.0 L 909.0 -255.0 L 817.0 -250.0 L 724.0 -245.0 L 656.5 -243.0 L 589.0 -241.0 L 543.0 -241.0 L 450.0 -241.0 L 360.5 -247.0 L 271.0 -253.0 L 179.0 -267.0 L 113.0 -277.0 Z M 8.0 -514.0 L 3.0 -514.0 L 0.0 -522.0 L 0.0 -523.0 L 2.0 -523.0 L 3.0 -523.0 L 6.0 -525.0 L 8.0 -526.0 L 4.0 -532.0 L 0.0 -537.0 L 6.0 -539.0 L 53.0 -556.0 L 93.0 -569.0 L 133.0 -582.0 L 167.5 -593.0 L 202.0 -604.0 L 229.0 -614.5 L 256.0 -625.0 L 277.0 -636.0 L 357.0 -677.0 L 402.0 -750.0 L 409.0 -762.0 L 416.0 -779.5 L 423.0 -797.0 L 432.0 -820.5 L 441.0 -844.0 L 452.5 -873.0 L 464.0 -902.0 L 480.0 -937.0 L 481.0 -940.0 L 484.5 -941.5 L 488.0 -943.0 L 492.0 -943.5 L 496.0 -944.0 L 501.0 -945.0 L 506.0 -946.0 L 509.0 -948.0 L 521.0 -955.0 L 529.0 -959.5 L 537.0 -964.0 L 541.0 -965.0 L 553.0 -971.0 L 561.5 -973.5 L 570.0 -976.0 L 573.0 -978.0 L 587.0 -978.0 L 592.0 -978.0 L 597.0 -977.5 L 602.0 -977.0 L 608.0 -975.0 L 612.0 -974.0 L 616.5 -973.0 L 621.0 -972.0 L 626.0 -971.5 L 631.0 -971.0 L 635.5 -969.5 L 640.0 -968.0 L 644.0 -964.0 L 645.0 -963.0 L 644.0 -961.5 L 643.0 -960.0 L 640.0 -958.5 L 637.0 -957.0 L 634.5 -955.5 L 632.0 -954.0 L 630.0 -953.0 L 593.0 -929.0 L 589.0 -920.0 L 581.0 -886.0 L 574.0 -862.0 L 567.0 -838.0 L 559.0 -819.0 L 557.0 -813.0 L 552.5 -804.5 L 548.0 -796.0 L 542.0 -787.0 L 536.0 -778.0 L 530.5 -769.5 L 525.0 -761.0 L 521.0 -755.0 L 522.0 -755.0 L 522.0 -756.0 L 523.0 -756.0 L 525.0 -756.0 L 520.0 -751.0 L 517.0 -748.0 L 516.0 -748.0 L 516.0 -748.0 L 521.0 -755.0 L 517.0 -753.0 L 507.0 -746.5 L 497.0 -740.0 L 483.0 -729.5 L 469.0 -719.0 L 453.0 -706.5 L 437.0 -694.0 L 421.0 -681.0 L 399.0 -664.0 L 377.5 -647.0 L 356.0 -630.0 L 337.0 -611.0 L 337.0 -611.0 L 337.0 -610.0 L 343.0 -612.0 L 347.5 -614.5 L 352.0 -617.0 L 356.0 -618.0 L 361.0 -621.0 L 361.0 -621.0 L 360.0 -620.0 L 359.0 -620.0 L 358.0 -619.0 L 354.5 -617.0 L 351.0 -615.0 L 348.0 -613.5 L 345.0 -612.0 L 342.0 -610.5 L 339.0 -609.0 L 338.0 -609.0 L 337.0 -609.0 L 337.0 -610.0 L 325.0 -604.0 L 309.0 -596.5 L 293.0 -589.0 L 276.0 -582.0 L 259.0 -575.0 L 242.5 -570.0 L 226.0 -565.0 L 213.0 -562.0 L 204.0 -561.0 L 190.0 -560.5 L 176.0 -560.0 L 164.5 -559.5 L 153.0 -559.0 L 147.0 -558.0 L 141.0 -557.0 L 149.0 -554.0 L 157.0 -551.0 L 165.5 -550.5 L 174.0 -550.0 L 183.0 -550.0 L 195.0 -550.0 L 207.0 -551.0 L 219.0 -552.0 L 232.0 -552.0 L 235.0 -552.0 L 238.0 -552.0 L 241.0 -552.0 L 244.0 -551.0 L 289.0 -548.0 L 323.0 -522.0 L 342.0 -508.0 L 342.0 -503.0 L 345.0 -495.0 L 331.0 -495.0 L 318.0 -495.0 L 307.0 -496.0 L 296.0 -497.0 L 283.0 -500.0 L 266.0 -503.0 L 243.0 -505.5 L 220.0 -508.0 L 194.0 -512.0 L 168.0 -516.0 L 145.0 -518.0 L 122.0 -520.0 L 100.0 -520.0 L 98.0 -521.0 L 95.0 -521.0 L 92.0 -521.0 L 90.0 -521.0 L 74.0 -521.0 L 59.0 -520.5 L 44.0 -520.0 L 28.0 -518.0 L 25.0 -517.0 L 20.5 -515.5 L 16.0 -514.0 Z M 605.0 -695.0 L 606.0 -696.0 L 610.0 -697.5 L 614.0 -699.0 L 618.0 -699.5 L 622.0 -700.0 L 625.5 -700.0 L 629.0 -700.0 L 631.0 -700.0 L 646.0 -700.0 L 674.0 -695.0 L 690.0 -693.0 L 700.0 -692.0 L 710.0 -691.0 L 716.0 -690.0 L 779.0 -680.0 L 796.0 -594.0 L 806.0 -541.0 L 816.0 -526.0 L 824.0 -512.0 L 844.0 -511.0 L 849.0 -510.0 L 857.0 -509.0 L 860.0 -509.0 L 861.0 -508.0 L 861.0 -503.0 L 857.0 -498.0 L 843.0 -484.0 L 810.0 -484.0 L 791.0 -484.0 L 769.0 -489.0 L 747.0 -494.0 L 721.0 -504.0 L 671.0 -522.0 L 652.0 -634.0 L 646.0 -682.0 L 622.0 -682.0 L 610.0 -682.0 L 602.0 -682.0 L 600.0 -684.0 L 599.0 -686.0 Z M 827.0 -697.0 L 827.0 -702.0 L 840.0 -701.0 L 844.0 -701.0 L 851.0 -701.0 L 861.5 -700.0 L 872.0 -699.0 L 886.0 -697.0 L 901.0 -695.0 L 910.0 -693.0 L 919.0 -691.0 L 925.0 -690.0 L 988.0 -681.0 L 1006.0 -594.0 L 1016.0 -542.0 L 1027.0 -526.0 L 1034.0 -516.0 L 1053.0 -512.0 L 1071.0 -508.0 L 1070.0 -508.0 L 1070.0 -505.0 L 1069.5 -505.5 L 1069.0 -506.0 L 1066.0 -500.0 L 1059.0 -486.0 L 1021.0 -486.0 L 1002.0 -486.0 L 980.0 -491.0 L 958.0 -496.0 L 932.0 -506.0 L 882.0 -524.0 L 863.0 -639.0 L 856.0 -686.0 L 842.0 -686.0 L 841.0 -686.0 L 840.0 -686.0 L 836.0 -685.0 L 827.0 -686.0 Z" fill="black" fill-opacity="0.25" stroke="black" stroke-width="4.0"/>
  <rect x="32.0" y="-393.0" width="1355.9999999999998" height="165.0" fill="none" stroke="red" stroke-width="10.0" /><rect x="0.0" y="-978.0" width="645.0" height="483.0" fill="none" stroke="red" stroke-width="10.0" /><rect x="599.0" y="-700.0" width="262.0" height="215.99999999999997" fill="none" stroke="red" stroke-width="10.0" /><rect x="827.0" y="-702.0" width="244.0" height="215.99999999999997" fill="none" stroke="red" stroke-width="10.0" />
</svg>
