<svg xmlns="http://www.w3.org/2000/svg"
  viewBox="-50.0 -799.0 1598.0 624.0">
  <rect x="-50.0" y="-799.0" width="1598.0" height="624.0" fill="white"/>
  <path d="M 809.0 -711.0 L 813.0 -716.0 L 832.0 -716.0 L 854.0 -716.0 L 890.0 -711.0 L 937.0 -703.0 L 1013.0 -691.0 L 1031.0 -591.0 L 1042.0 -529.0 L 1056.0 -513.0 L 1070.0 -497.0 L 1087.0 -494.0 L 1108.0 -492.0 L 1108.0 -491.0 L 1108.0 -487.0 L 1101.0 -480.0 L 1085.0 -464.0 L 1048.0 -465.0 L 1026.0 -465.0 L 1000.5 -470.0 L 975.0 -475.0 L 944.0 -486.0 L 887.0 -507.0 L 864.0 -639.0 L 854.0 -696.0 L 829.0 -695.0 L 814.0 -695.0 L 805.0 -695.0 L 803.0 -697.0 L 800.0 -700.0 Z M 1054.0 -713.0 L 1054.0 -717.0 L 1075.0 -717.0 L 1092.0 -717.0 L 1125.0 -713.0 L 1170.0 -705.0 L 1246.0 -692.0 L 1264.0 -592.0 L 1275.0 -531.0 L 1289.0 -513.0 L 1300.0 -498.0 L 1320.0 -496.0 L 1341.0 -494.0 L 1341.0 -491.0 L 1341.0 -488.0 L 1334.0 -482.0 L 1319.0 -467.0 L 1281.0 -466.0 L 1234.0 -466.0 L 1178.0 -488.0 L 1119.0 -512.0 L 1096.0 -644.0 L 1086.0 -701.0 L 1071.0 -699.0 L 1054.0 -696.0 Z M 58.0 -744.0 L 109.0 -749.0 L 223.0 -749.0 L 259.0 -749.0 L 299.0 -745.0 L 339.0 -741.0 L 383.0 -731.0 L 409.0 -725.0 L 434.0 -719.0 L 459.0 -713.0 L 485.0 -705.0 L 583.0 -680.0 L 647.0 -633.0 L 710.0 -586.0 L 711.0 -533.0 L 711.0 -503.0 L 695.0 -483.0 L 689.0 -475.0 L 661.0 -475.0 L 620.0 -475.0 L 542.0 -490.0 L 529.0 -492.0 L 510.5 -495.0 L 492.0 -498.0 L 469.0 -505.0 L 494.0 -516.0 L 511.0 -541.0 L 527.0 -565.0 L 522.0 -578.0 L 510.0 -607.0 L 464.5 -632.5 L 419.0 -658.0 L 339.0 -673.0 L 255.0 -690.0 L 169.5 -701.5 L 84.0 -713.0 L 0.0 -725.0 Z M 207.0 -264.0 L 137.0 -274.0 L 50.0 -364.0 L 50.0 -390.0 L 89.0 -378.0 L 130.5 -370.0 L 172.0 -362.0 L 218.0 -361.0 L 265.0 -359.0 L 323.0 -358.5 L 381.0 -358.0 L 456.0 -358.0 L 558.0 -358.0 L 798.0 -362.0 L 1038.0 -366.0 L 1163.0 -367.0 L 1278.0 -367.0 L 1456.0 -269.0 L 1466.0 -256.0 L 1477.0 -246.0 L 1488.0 -236.0 L 1498.0 -225.0 L 1496.0 -225.0 L 1489.5 -225.0 L 1483.0 -225.0 L 1471.0 -228.0 L 1439.0 -233.0 L 1422.5 -236.5 L 1406.0 -240.0 L 1403.0 -240.0 L 1308.0 -248.0 L 1265.0 -251.0 L 1223.0 -253.5 L 1181.0 -256.0 L 1141.0 -256.0 L 1082.0 -256.0 L 887.0 -247.0 L 692.0 -238.0 L 596.0 -237.0 L 546.0 -237.0 L 497.5 -238.5 L 449.0 -240.0 L 401.0 -243.0 L 353.0 -246.0 L 304.0 -251.5 L 255.0 -257.0 Z" fill="black" fill-opacity="0.25" stroke="black" stroke-width="4.0"/>
  <rect x="800.0" y="-716.0" width="308.00000000000006" height="251.99999999999994" fill="none" stroke="red" stroke-width="10.0" /><rect x="1054.0" y="-717.0" width="286.99999999999994" height="250.99999999999994" fill="none" stroke="red" stroke-width="10.0" /><rect x="0.0" y="-749.0" width="711.0" height="274.0" fill="none" stroke="red" stroke-width="10.0" /><rect x="50.0" y="-390.0" width="1448.0" height="165.0" fill="none" stroke="red" stroke-width="10.0" />
</svg>
