<svg xmlns="http://www.w3.org/2000/svg"
  viewBox="-50.0 -438.0 1457.0 508.0">
  <rect x="-50.0" y="-438.0" width="1457.0" height="508.0" fill="white"/>
  <path d="M 147.0 -262.0 L 82.0 -272.0 L 0.0 -362.0 L 0.0 -388.0 L 36.0 -376.0 L 75.5 -368.0 L 115.0 -360.0 L 158.0 -360.0 L 202.0 -358.0 L 256.0 -357.0 L 310.0 -356.0 L 380.0 -356.0 L 475.0 -356.0 L 701.0 -362.0 L 926.0 -366.0 L 1043.0 -366.0 L 1150.0 -366.0 L 1318.0 -268.0 L 1327.0 -254.0 L 1337.0 -244.0 L 1347.0 -234.0 L 1357.0 -224.0 L 1356.0 -224.0 L 1349.5 -224.0 L 1343.0 -224.0 L 1332.0 -226.0 L 1302.0 -232.0 L 1286.5 -236.0 L 1271.0 -240.0 L 1267.0 -240.0 L 1179.0 -246.0 L 1138.0 -250.0 L 1099.0 -252.0 L 1060.0 -254.0 L 1022.0 -254.0 L 967.0 -254.0 L 785.0 -246.0 L 602.0 -236.0 L 512.0 -236.0 L 465.0 -236.0 L 419.5 -238.0 L 374.0 -240.0 L 328.0 -242.0 L 283.0 -244.0 L 237.5 -250.0 L 192.0 -256.0 Z M 534.0 -190.0 L 537.0 -194.0 L 556.0 -196.0 L 572.0 -196.0 L 603.0 -190.0 L 619.0 -188.0 L 629.0 -187.0 L 639.0 -186.0 L 645.0 -186.0 L 708.0 -176.0 L 725.0 -90.0 L 735.0 -36.0 L 745.0 -22.0 L 753.0 -8.0 L 773.0 -6.0 L 778.0 -6.0 L 786.0 -4.0 L 789.0 -4.0 L 791.0 -4.0 L 791.0 2.0 L 786.0 6.0 L 772.0 20.0 L 739.0 20.0 L 720.0 20.0 L 698.5 15.0 L 677.0 10.0 L 650.0 -0.0 L 600.0 -18.0 L 581.0 -130.0 L 575.0 -178.0 L 552.0 -178.0 L 539.0 -178.0 L 531.0 -178.0 L 530.0 -180.0 L 528.0 -182.0 Z M 756.0 -192.0 L 756.0 -198.0 L 773.0 -198.0 L 787.0 -198.0 L 816.0 -192.0 L 830.0 -190.0 L 839.0 -188.0 L 848.0 -186.0 L 855.0 -186.0 L 918.0 -176.0 L 936.0 -90.0 L 946.0 -38.0 L 956.0 -22.0 L 963.0 -12.0 L 983.0 -8.0 L 1000.0 -4.0 L 1000.0 -4.0 L 1000.0 -0.0 L 999.5 -1.0 L 999.0 -2.0 L 995.0 4.0 L 988.0 18.0 L 950.0 18.0 L 931.0 18.0 L 909.5 13.0 L 888.0 8.0 L 861.0 -2.0 L 811.0 -20.0 L 792.0 -134.0 L 784.0 -184.0 L 770.0 -182.0 L 756.0 -178.0 Z" fill="black" fill-opacity="0.25" stroke="black" stroke-width="4.0"/>
  <rect x="0.0" y="-388.0" width="1357.0" height="164.0" fill="none" stroke="red" stroke-width="10.0" /><rect x="528.0" y="-196.0" width="263.0" height="216.0" fill="none" stroke="red" stroke-width="10.0" /><rect x="756.0" y="-198.0" width="244.0" height="216.0" fill="none" stroke="red" stroke-width="10.0" />
</svg>
