<svg xmlns="http://www.w3.org/2000/svg"
  viewBox="-50 -716 1456 538">
  <rect x="-50" y="-716" width="1456" height="538" fill="white"/>
  <path d="M 275 -647 L 288 -650 L 299 -655 L 310 -660 L 322 -663 L 344 -664 L 378.5 -665 L 413 -666 L 460 -666 L 516 -666 L 590 -652 L 611 -648 L 632 -641.5 L 653 -635 L 674 -630 L 755 -610 L 808 -572 L 861 -534 L 861 -491 L 861 -469 L 847 -450 L 842 -444 L 819 -444 L 802 -444 L 778 -447 L 754 -450 L 720 -457 L 709 -459 L 694.5 -462 L 680 -465 L 661 -469 L 681 -479 L 695 -497 L 710 -516 L 705 -529 L 695 -552 L 657 -572.5 L 619 -593 L 553 -605 L 483 -618 L 414 -627 L 345 -636 Z M 147 -267 L 82 -277 L 0 -367 L 0 -394 L 36 -381 L 75 -373 L 114 -365 L 157 -364 L 201 -363 L 255 -362 L 309 -361 L 380 -361 L 475 -361 L 700 -365 L 925 -370 L 1042 -370 L 1149 -370 L 1317 -272 L 1326 -259 L 1336.5 -249 L 1347 -239 L 1356 -228 L 1355 -228 L 1348.5 -228 L 1342 -228 L 1331 -231 L 1301 -235 L 1285.5 -239 L 1270 -243 L 1267 -243 L 1178 -251 L 1137 -254 L 1098 -256.5 L 1059 -259 L 1022 -259 L 967 -259 L 784 -250 L 601 -241 L 511 -240 L 464 -240 L 418.5 -241.5 L 373 -243 L 328 -247 L 283 -250 L 237.5 -255 L 192 -260 Z" fill="black" fill-opacity="0.25" stroke="black" stroke-width="4"/>
  <rect x="275" y="-666" width="586" height="222" fill="none" stroke="red" stroke-width="10" /><rect x="0" y="-394" width="1356" height="166" fill="none" stroke="red" stroke-width="10" />
</svg>
