<svg xmlns="http://www.w3.org/2000/svg"
  viewBox="-50.0 -910.0 1456.0 731.0">
  <rect x="-50.0" y="-910.0" width="1456.0" height="731.0" fill="white"/>
  <path d="M 44.0 -738.0 L 44.0 -766.0 L 57.5 -786.0 L 71.0 -806.0 L 93.0 -819.0 L 115.0 -832.0 L 143.0 -841.0 L 171.0 -850.0 L 199.5 -854.0 L 228.0 -858.0 L 254.5 -859.0 L 281.0 -860.0 L 300.0 -860.0 L 360.0 -860.0 L 417.5 -854.0 L 475.0 -848.0 L 531.5 -838.0 L 588.0 -828.0 L 644.5 -815.0 L 701.0 -802.0 L 758.0 -786.0 L 875.0 -752.0 L 1024.0 -654.0 L 1170.0 -556.0 L 1169.0 -516.0 L 1168.0 -498.0 L 1133.0 -498.0 L 1086.0 -498.0 L 1036.0 -504.0 L 986.0 -510.0 L 940.0 -520.0 L 951.0 -624.0 L 776.0 -708.0 L 608.0 -788.0 L 436.0 -788.0 L 419.0 -788.0 L 398.5 -787.0 L 378.0 -786.0 L 356.5 -782.0 L 335.0 -778.0 L 314.5 -771.0 L 294.0 -764.0 L 277.5 -752.0 L 261.0 -740.0 L 250.5 -724.0 L 240.0 -708.0 L 239.0 -684.0 L 238.0 -654.0 L 285.0 -618.0 L 345.0 -572.0 L 349.0 -570.0 L 210.0 -572.0 L 139.0 -600.0 L 92.0 -620.0 L 61.0 -670.0 L 44.0 -710.0 Z M 0.0 -395.0 L 37.0 -382.0 L 75.0 -374.0 L 113.0 -366.0 L 157.0 -365.0 L 201.0 -364.0 L 255.0 -363.0 L 309.0 -362.0 L 380.0 -362.0 L 428.0 -362.0 L 507.5 -363.0 L 587.0 -364.0 L 700.0 -366.0 L 813.0 -368.0 L 898.0 -369.5 L 983.0 -371.0 L 1042.0 -371.0 L 1149.0 -371.0 L 1317.0 -273.0 L 1326.0 -260.0 L 1336.5 -250.0 L 1347.0 -240.0 L 1356.0 -229.0 L 1343.0 -229.0 L 1331.0 -232.0 L 1301.0 -236.0 L 1285.5 -240.0 L 1270.0 -244.0 L 1267.0 -244.0 L 1178.0 -252.0 L 1137.0 -255.0 L 1098.5 -257.5 L 1060.0 -260.0 L 1022.0 -260.0 L 994.0 -260.0 L 935.0 -258.0 L 876.0 -256.0 L 784.0 -251.0 L 692.0 -246.0 L 624.0 -243.5 L 556.0 -241.0 L 511.0 -241.0 L 419.0 -241.0 L 328.0 -247.0 L 237.0 -253.0 L 147.0 -268.0 L 81.0 -278.0 L 0.0 -368.0 Z" fill="black" fill-opacity="0.25" stroke="black" stroke-width="4.0"/>
  <rect x="44.0" y="-860.0" width="1126.0" height="362.0" fill="none" stroke="red" stroke-width="10.0" /><rect x="0.0" y="-395.0" width="1356.0" height="166.0" fill="none" stroke="red" stroke-width="10.0" />
</svg>
