<svg xmlns="http://www.w3.org/2000/svg"
  viewBox="-50 -1076 1670.5 897">
  <rect x="-50" y="-1076" width="1670.5" height="897" fill="white"/>
  <path d="M 158 -365 L 220 -363 L 281.5 -362.5 L 343 -362 L 406 -362 L 504 -362 L 700 -367 L 813 -369 L 898.5 -370 L 984 -371 L 1043 -371 L 1151 -371 L 1318 -273 L 1327 -261 L 1337 -250.5 L 1347 -240 L 1357 -229 L 1350 -229 L 1344 -229.5 L 1338 -230 L 1332 -232 L 1302 -237 L 1286.5 -241 L 1271 -245 L 1268 -245 L 1178 -253 L 1137 -256 L 1098.5 -258.5 L 1060 -261 L 1022 -261 L 994 -261 L 935.5 -258.5 L 877 -256 L 785 -251 L 693 -246 L 625 -244 L 557 -242 L 511 -242 L 419 -242 L 328.5 -248 L 238 -254 L 147 -268 L 81 -278 L 0 -368 L 0 -395 L 37 -382 L 75.5 -374 L 114 -366 Z M 933 -573 L 934 -574 L 933 -575.5 L 932 -577 L 931 -579.5 L 930 -582 L 930 -584 L 930 -586 L 933 -587 L 980 -604 L 1020.5 -617.5 L 1061 -631 L 1095 -642 L 1129 -653 L 1156 -663.5 L 1183 -674 L 1203 -684 L 1284 -726 L 1328 -798 L 1335 -810 L 1342.5 -827.5 L 1350 -845 L 1358.5 -868.5 L 1367 -892 L 1378.5 -921 L 1390 -950 L 1406 -986 L 1407 -989 L 1411 -990 L 1415 -991 L 1419 -991.5 L 1423 -992 L 1427.5 -993 L 1432 -994 L 1436 -996 L 1449 -1004 L 1456.5 -1008.5 L 1464 -1013 L 1467 -1014 L 1480 -1020 L 1488.5 -1022.5 L 1497 -1025 L 1500 -1026 L 1513 -1026 L 1518 -1026 L 1523.5 -1025.5 L 1529 -1025 L 1535 -1023 L 1539 -1022 L 1543.5 -1021.5 L 1548 -1021 L 1552.5 -1020 L 1557 -1019 L 1562 -1017.5 L 1567 -1016 L 1570 -1012 L 1571 -1011 L 1570 -1009.5 L 1569 -1008 L 1567 -1006.5 L 1565 -1005 L 1561.5 -1004 L 1558 -1003 L 1557 -1001 L 1519 -975 L 1516 -969 L 1508 -936 L 1501 -911 L 1494 -886 L 1486 -867 L 1484 -861 L 1479 -852.5 L 1474 -844 L 1468 -834.5 L 1462 -825 L 1456.5 -816.5 L 1451 -808 L 1447 -803 L 1449 -804 L 1450 -804 L 1451 -804 L 1447 -800 L 1444 -797 L 1444 -796 L 1444 -796 L 1447 -803 L 1443 -801 L 1433 -793.5 L 1423 -786 L 1409 -776 L 1395 -766 L 1379 -754 L 1363 -742 L 1347 -729 L 1332 -717 L 1319.5 -707 L 1307 -697 L 1296 -688 L 1274 -670 L 1266 -661 L 1264 -658 L 1263 -658 L 1275 -663 L 1282 -667 L 1287 -670 L 1288 -670 L 1287 -670 L 1286 -668 L 1284 -667 L 1278 -664 L 1263 -656 L 1263 -658 L 1250 -652 L 1234 -644.5 L 1218 -637 L 1201.5 -630 L 1185 -623 L 1168.5 -618 L 1152 -613 L 1139 -611 L 1131 -610 L 1117.5 -609 L 1104 -608 L 1092 -608 L 1080 -608 L 1074 -607 L 1068 -606 L 1075 -603 L 1083 -600 L 1091.5 -599 L 1100 -598 L 1108 -598 L 1121 -598 L 1133.5 -599 L 1146 -600 L 1159 -600 L 1184 -600 L 1207.5 -592.5 L 1231 -585 L 1250 -570 L 1269 -556 L 1269 -551 L 1272 -543 L 1258 -543 L 1245 -543 L 1233.5 -544.5 L 1222 -546 L 1210 -548 L 1193 -551 L 1170 -554 L 1147 -557 L 1121 -561 L 1094 -565 L 1071.5 -567 L 1049 -569 L 1027 -569 L 1020 -569 L 1013.5 -569.5 L 1007 -570 L 1001 -570 L 988 -570 L 977.5 -569 L 967 -568 L 955 -567 L 952 -566 L 947.5 -564 L 943 -562 L 935 -562 L 930 -562 L 927 -570 L 927 -571 L 928 -572 L 930 -572 Z" fill="black" fill-opacity="0.25" stroke="black" stroke-width="4"/>
  <rect x="0" y="-395" width="1357" height="166" fill="none" stroke="red" stroke-width="10" /><rect x="927" y="-704" width="388.7" height="161" fill="none" stroke="red" stroke-width="10" /><rect x="1241.6" y="-865" width="243.7" height="161" fill="none" stroke="red" stroke-width="10" /><rect x="1357.2" y="-1026" width="213.8" height="161" fill="none" stroke="red" stroke-width="10" />
</svg>
