<svg xmlns="http://www.w3.org/2000/svg"
  viewBox="-50 -442 1456 266">
  <rect x="-50" y="-442" width="1456" height="266" fill="white"/>
  <path d="M 147 -265 L 82 -275 L 0 -365 L 0 -392 L 36 -379 L 75 -371.5 L 114 -364 L 157 -362 L 201 -361 L 255 -360 L 309 -359 L 380 -359 L 475 -359 L 700 -364 L 925 -369 L 1042 -368 L 1149 -368 L 1317 -270 L 1326 -257 L 1336.5 -247 L 1347 -237 L 1356 -226 L 1355 -226 L 1348.5 -226 L 1342 -226 L 1331 -229 L 1301 -233 L 1285.5 -237 L 1270 -241 L 1267 -241 L 1178 -249 L 1137 -252 L 1098 -254.5 L 1059 -257 L 1022 -257 L 967 -257 L 784 -248 L 601 -239 L 511 -239 L 464 -239 L 418.5 -240 L 373 -241 L 328 -245 L 283 -248 L 237.5 -253 L 192 -258 Z" fill="black" fill-opacity="0.25" stroke="black" stroke-width="4"/>
  <rect x="0" y="-392" width="1356" height="166" fill="none" stroke="red" stroke-width="10" />
</svg>
