<svg xmlns="http://www.w3.org/2000/svg"
  viewBox="-50 -941 1940 767">
  <rect x="-50" y="-941" width="1940" height="767" fill="white"/>
  <path d="M 303 -263 L 220 -273 L 117 -363 L 117 -390 L 163 -377 L 212.5 -369.5 L 262 -362 L 317 -360 L 373 -359 L 441.5 -358 L 510 -357 L 599 -357 L 720 -357 L 1007 -362 L 1293 -367 L 1441 -367 L 1578 -367 L 1790 -268 L 1802 -255 L 1815 -245 L 1828 -235 L 1840 -224 L 1838 -224 L 1830 -224 L 1822 -224 L 1808 -227 L 1770 -231 L 1750.5 -235.5 L 1731 -240 L 1727 -240 L 1614 -247 L 1562 -250 L 1512.5 -252.5 L 1463 -255 L 1415 -255 L 1346 -255 L 1114 -246 L 881 -237 L 766 -237 L 706 -237 L 649 -238.5 L 592 -240 L 534 -243 L 476 -246 L 418.5 -251 L 361 -256 Z M 1165 -677 L 1167 -680 L 1187 -680 L 1198 -680 L 1210.5 -680 L 1223 -680 L 1241 -677 L 1287 -669 L 1356 -656 L 1375 -561 L 1387 -500 L 1398 -486 L 1409 -473 L 1428 -469 L 1433 -468 L 1442 -467 L 1445 -467 L 1447 -466 L 1447 -463 L 1441 -456 L 1426 -441 L 1390 -441 L 1369 -441 L 1345.5 -446.5 L 1322 -452 L 1292 -462 L 1237 -482 L 1217 -608 L 1208 -661 L 1184 -661 L 1170 -661 L 1161 -661 L 1159 -663 L 1156 -665 Z M 1397 -678 L 1397 -681 L 1414 -681 L 1424 -681 L 1435.5 -681 L 1447 -681 L 1463 -678 L 1479 -675 L 1489.5 -673 L 1500 -671 L 1506 -670 L 1576 -656 L 1594 -561 L 1605 -503 L 1619 -488 L 1628 -472 L 1648 -470 L 1653 -469 L 1655.5 -468 L 1658 -467 L 1661 -467 L 1666 -467 L 1666 -463 L 1661 -458 L 1645 -442 L 1611 -442 L 1573 -442 L 1513 -464 L 1459 -485 L 1437 -613 L 1428 -667 L 1411 -664 L 1397 -661 Z M 718 -661 L 712 -649 L 705.5 -630 L 699 -611 L 693 -586 L 830 -580 L 1061 -571 L 1107 -525 L 965 -525 L 858.5 -525 L 752 -525 L 672 -526 L 655 -488 L 627 -459 L 616 -445 L 613 -436 L 605 -415 L 585.5 -421.5 L 566 -428 L 552 -428 L 529 -428 L 520 -431 L 506 -437 L 487 -445 L 512 -481 L 527 -531 L 514 -531 L 314 -540 L 216 -589 L 132 -628 L 30 -753 L 22 -767 L 18 -793 L 5 -867 L 0 -876 L 32 -880 L 69 -886 L 107 -891 L 122 -891 L 165 -891 L 194 -872 L 201 -867 L 202 -847 L 199 -801 L 199 -787 L 203 -781 L 295 -650 L 507 -608 L 515 -605 L 525 -604 L 535 -603 L 547 -601 L 552 -617 L 557 -629.5 L 562 -642 L 568 -653 L 576 -670 L 605 -670 L 666 -664 L 679 -663 L 692 -662 L 705 -661 Z" fill="black" fill-opacity="0.25" stroke="black" stroke-width="4"/>
  <rect x="117" y="-390" width="1723" height="166" fill="none" stroke="red" stroke-width="10" /><rect x="1156" y="-680" width="291" height="239" fill="none" stroke="red" stroke-width="10" /><rect x="1397" y="-681" width="269" height="239" fill="none" stroke="red" stroke-width="10" /><rect x="0" y="-891" width="1107" height="476" fill="none" stroke="red" stroke-width="10" />
</svg>
