<svg xmlns="http://www.w3.org/2000/svg"
  viewBox="-50.0 -720.1428571428571 1789.0 565.8650793650793">
  <rect x="-50.0" y="-720.1428571428571" width="1789.0" height="565.8650793650793" fill="white"/>
  <path d="M 1344.0 -398.0 L 1401.0 -401.0 L 1419.0 -402.0 L 1432.0 -402.0 L 1444.0 -403.0 L 1454.0 -403.0 L 1538.0 -405.0 L 1583.0 -317.0 L 1609.0 -266.0 L 1627.0 -251.0 L 1642.0 -238.0 L 1666.0 -241.0 L 1689.0 -242.0 L 1689.0 -240.0 L 1689.0 -237.0 L 1688.5 -235.5 L 1688.0 -234.0 L 1685.0 -230.0 L 1671.0 -213.0 L 1629.0 -207.0 L 1580.0 -200.0 L 1509.0 -211.0 L 1438.0 -222.0 L 1385.0 -338.0 L 1363.0 -387.0 L 1343.0 -381.0 Z M 147.0 -269.0 L 82.0 -279.0 L 0.0 -369.0 L 0.0 -396.0 L 36.0 -384.0 L 75.0 -375.5 L 114.0 -367.0 L 158.0 -366.0 L 202.0 -364.0 L 256.0 -363.5 L 310.0 -363.0 L 380.0 -363.0 L 475.0 -363.0 L 700.0 -368.0 L 925.0 -372.0 L 1043.0 -372.0 L 1150.0 -372.0 L 1317.0 -274.0 L 1326.0 -261.0 L 1336.5 -251.0 L 1347.0 -241.0 L 1356.0 -230.0 L 1355.0 -230.0 L 1348.5 -230.0 L 1342.0 -230.0 L 1332.0 -233.0 L 1302.0 -238.0 L 1286.5 -242.0 L 1271.0 -246.0 L 1267.0 -246.0 L 1178.0 -254.0 L 1137.0 -257.0 L 1098.5 -259.5 L 1060.0 -262.0 L 1022.0 -262.0 L 967.0 -262.0 L 785.0 -252.0 L 602.0 -243.0 L 511.0 -243.0 L 464.0 -243.0 L 419.0 -244.5 L 374.0 -246.0 L 328.0 -249.0 L 283.0 -252.0 L 237.5 -257.0 L 192.0 -262.0 Z M 445.0 -663.0 L 448.0 -667.0 L 467.0 -668.0 L 483.0 -668.0 L 514.0 -663.0 L 530.0 -661.0 L 539.5 -660.0 L 549.0 -659.0 L 556.0 -658.0 L 619.0 -648.0 L 635.0 -562.0 L 645.0 -509.0 L 656.0 -494.0 L 664.0 -480.0 L 684.0 -479.0 L 689.0 -478.0 L 696.0 -477.0 L 699.0 -477.0 L 701.0 -476.0 L 701.0 -472.0 L 696.0 -467.0 L 682.0 -453.0 L 649.0 -452.0 L 630.0 -452.0 L 608.5 -457.5 L 587.0 -463.0 L 561.0 -472.0 L 511.0 -491.0 L 492.0 -602.0 L 486.0 -650.0 L 462.0 -651.0 L 449.0 -651.0 L 441.0 -651.0 L 440.0 -652.0 L 439.0 -654.0 Z M 667.0 -665.0 L 667.0 -671.0 L 684.0 -670.0 L 698.0 -670.0 L 726.0 -665.0 L 740.0 -663.0 L 749.5 -661.0 L 759.0 -659.0 L 765.0 -658.0 L 828.0 -648.0 L 846.0 -562.0 L 857.0 -510.0 L 867.0 -494.0 L 873.0 -484.0 L 893.0 -480.0 L 910.0 -476.0 L 910.0 -476.0 L 910.0 -473.0 L 909.5 -473.5 L 909.0 -474.0 L 906.0 -468.0 L 899.0 -454.0 L 860.0 -454.0 L 841.0 -454.0 L 819.5 -459.5 L 798.0 -465.0 L 772.0 -474.0 L 722.0 -493.0 L 703.0 -607.0 L 695.0 -657.0 L 681.0 -654.0 L 667.0 -651.0 Z" fill="black" fill-opacity="0.25" stroke="black" stroke-width="4.0"/>
  <rect x="1343.0" y="-405.0" width="346.0000000000001" height="205.00000000000003" fill="none" stroke="red" stroke-width="10.0" /><rect x="0.0" y="-396.0" width="1356.0" height="166.0" fill="none" stroke="red" stroke-width="10.0" /><rect x="439.0" y="-668.0" width="261.99999999999994" height="216.00000000000003" fill="none" stroke="red" stroke-width="10.0" /><rect x="667.0" y="-671.0" width="243.0" height="217.00000000000003" fill="none" stroke="red" stroke-width="10.0" />
</svg>
