<svg xmlns="http://www.w3.org/2000/svg"
  viewBox="-50 -1036 1480.5 854">
  <rect x="-50" y="-1036" width="1480.5" height="854" fill="white"/>
  <path d="M 158 -368 L 202 -368 L 255.5 -367 L 309 -366 L 380 -366 L 428 -366 L 507 -367 L 586 -368 L 700 -370 L 814 -372 L 898.5 -373 L 983 -374 L 1042 -374 L 1149 -374 L 1317 -276 L 1326 -264 L 1336.5 -254 L 1347 -244 L 1356 -232 L 1342 -232 L 1332 -236 L 1302 -240 L 1286 -244 L 1270 -248 L 1267 -248 L 1178 -256 L 1136 -258 L 1098 -261 L 1060 -264 L 1022 -264 L 994 -264 L 935.5 -262 L 877 -260 L 785 -254 L 692 -250 L 624.5 -247 L 557 -244 L 511 -244 L 419 -244 L 328.5 -250 L 238 -256 L 147 -272 L 81 -282 L 0 -372 L 0 -398 L 37 -386 L 75.5 -378 L 114 -370 Z M 745 -522 L 740 -522 L 737 -530 L 737 -530 L 738 -532 L 739 -532 L 743 -532 L 745 -534 L 741 -540 L 737 -544 L 743 -546 L 790 -564 L 830 -577 L 870 -590 L 904 -601 L 938 -612 L 965.5 -622 L 993 -632 L 1013 -644 L 1093 -684 L 1138 -758 L 1145 -770 L 1152.5 -787 L 1160 -804 L 1169 -828 L 1178 -852 L 1189.5 -881 L 1201 -910 L 1216 -946 L 1217 -948 L 1221 -949 L 1225 -950 L 1229 -951 L 1233 -952 L 1237.5 -953 L 1242 -954 L 1246 -956 L 1258 -962 L 1266 -967 L 1274 -972 L 1277 -972 L 1290 -978 L 1298.5 -981 L 1307 -984 L 1310 -986 L 1323 -986 L 1328 -986 L 1333.5 -985 L 1339 -984 L 1344 -982 L 1348 -982 L 1352.5 -981 L 1357 -980 L 1362 -979 L 1367 -978 L 1371.5 -977 L 1376 -976 L 1380 -972 L 1381 -970 L 1380 -969 L 1379 -968 L 1376.5 -966 L 1374 -964 L 1371 -963 L 1368 -962 L 1366 -960 L 1329 -934 L 1326 -928 L 1318 -894 L 1310.5 -870 L 1303 -846 L 1296 -826 L 1294 -820 L 1289 -812 L 1284 -804 L 1278 -795 L 1272 -786 L 1266.5 -777 L 1261 -768 L 1257 -764 L 1257 -764 L 1259 -764 L 1261 -764 L 1257 -760 L 1254 -756 L 1253 -756 L 1253 -756 L 1257 -764 L 1253 -762 L 1243 -755 L 1233 -748 L 1219.5 -737 L 1206 -726 L 1189.5 -714 L 1173 -702 L 1157 -688 L 1141 -676 L 1128.5 -666 L 1116 -656 L 1105 -648 L 1094 -638 L 1087 -631 L 1080 -624 L 1076 -620 L 1076 -620 L 1074 -618 L 1074 -618 L 1073 -618 L 1079 -620 L 1083.5 -622 L 1088 -624 L 1092 -626 L 1097 -630 L 1098 -630 L 1098 -630 L 1096 -628 L 1095 -626 L 1091.5 -624 L 1088 -622 L 1085 -621 L 1082 -620 L 1079 -619 L 1076 -618 L 1074 -618 L 1073 -618 L 1073 -618 L 1061 -612 L 1045 -605 L 1029 -598 L 1012.5 -591 L 996 -584 L 979 -578 L 962 -572 L 949 -570 L 940 -570 L 926.5 -569 L 913 -568 L 901.5 -568 L 890 -568 L 884 -567 L 878 -566 L 885 -562 L 893 -560 L 902 -559 L 911 -558 L 919 -558 L 931 -558 L 943.5 -559 L 956 -560 L 968 -560 L 971 -560 L 974.5 -560 L 978 -560 L 980 -558 L 1025 -556 L 1060 -530 L 1079 -516 L 1079 -510 L 1082 -502 L 1068 -502 L 1055 -502 L 1043.5 -504 L 1032 -506 L 1020 -508 L 1003 -510 L 980 -513 L 957 -516 L 930 -520 L 904 -524 L 881 -526 L 858 -528 L 836 -528 L 832 -528 L 828 -528 L 824 -528 L 820 -528 L 806 -528 L 792.5 -528 L 779 -528 L 765 -526 L 762 -526 L 757.5 -524 L 753 -522 Z M 277 -754 L 280 -758 L 297 -758 L 313 -758 L 328 -757 L 343 -756 L 359 -754 L 406 -746 L 481 -734 L 499 -634 L 510 -572 L 524 -556 L 538 -540 L 556 -536 L 577 -534 L 576 -534 L 576 -530 L 570 -522 L 554 -506 L 517 -508 L 495 -508 L 469.5 -513 L 444 -518 L 412 -530 L 355 -550 L 333 -682 L 324 -738 L 298 -738 L 282 -738 L 273 -738 L 271 -740 L 268 -742 Z" fill="black" fill-opacity="0.25" stroke="black" stroke-width="4"/>
  <rect x="0" y="-398" width="1356" height="166" fill="none" stroke="red" stroke-width="10" /><rect x="268" y="-758" width="309" height="252" fill="none" stroke="red" stroke-width="10" /><rect x="737" y="-663.3" width="388.2" height="161.3" fill="none" stroke="red" stroke-width="10" /><rect x="1051.7" y="-824.7" width="243.9" height="161.4" fill="none" stroke="red" stroke-width="10" /><rect x="1167.8" y="-986" width="213.2" height="161.3" fill="none" stroke="red" stroke-width="10" />
</svg>
