<svg xmlns="http://www.w3.org/2000/svg"
  viewBox="-50 -796 2068.01 634">
  <rect x="-50" y="-796" width="2068.01" height="634" fill="white"/>
  <path d="M 70.01 -743 L 77.01 -746 L 87.01 -746 L 97.01 -746 L 111.01 -746 L 154.01 -746 L 200.01 -732 L 244.01 -719 L 292.01 -690 L 355.01 -632 L 346.01 -632 L 329.51 -633.5 L 313.01 -635 L 286.01 -638 L 261.01 -641 L 242.51 -642.5 L 224.01 -644 L 212.01 -644 L 189.01 -644 L 170.01 -637 L 154.01 -630 L 154.01 -613 L 154.01 -605 L 160.01 -594 L 167.01 -580 L 170.51 -570 L 174.01 -560 L 179.01 -558 L 193.01 -552 L 204.51 -549 L 216.01 -546 L 230.01 -543 L 272.01 -532 L 279.01 -530 L 293.01 -529.5 L 307.01 -529 L 328.01 -529 L 396.01 -537 L 459.51 -544.5 L 523.01 -552 L 585.01 -558 L 706.01 -571 L 843.01 -573 L 933.01 -573 L 1066.01 -477 L 1096.01 -435 L 1077.01 -440 L 1024.01 -451 L 944.01 -460 L 870.01 -470 L 805.01 -470 L 766.01 -466 L 746.01 -465 L 716.51 -464 L 687.01 -463 L 648.01 -460 L 633.01 -459 L 608.51 -458.5 L 584.01 -458 L 548.01 -458 L 521.01 -458 L 492.51 -459 L 464.01 -460 L 435.01 -462 L 374.01 -465 L 299.01 -475 L 247.01 -482 L 197.01 -505.5 L 147.01 -529 L 97.01 -563 L -0.99 -630 L 0.01 -688 L 0.01 -729 Z M 1204.01 -677 L 1208.01 -682 L 1227.01 -682 L 1249.01 -682 L 1285.01 -677 L 1332.01 -669 L 1408.01 -657 L 1426.01 -557 L 1437.01 -495 L 1451.01 -479 L 1465.01 -463 L 1482.01 -460 L 1503.01 -458 L 1502.01 -457 L 1502.01 -453 L 1496.01 -446 L 1480.01 -430 L 1443.01 -431 L 1421.01 -431 L 1395.51 -436 L 1370.01 -441 L 1338.01 -452 L 1281.01 -473 L 1259.01 -605 L 1249.01 -661 L 1224.01 -661 L 1209.01 -661 L 1200.01 -661 L 1198.01 -663 L 1195.01 -666 Z M 1449.01 -679 L 1449.01 -683 L 1470.01 -683 L 1487.01 -683 L 1520.01 -679 L 1565.01 -671 L 1640.01 -658 L 1659.01 -558 L 1670.01 -497 L 1684.01 -479 L 1695.01 -464 L 1715.01 -462 L 1736.01 -460 L 1735.01 -457 L 1735.01 -454 L 1729.01 -448 L 1713.01 -433 L 1676.01 -432 L 1629.01 -432 L 1573.01 -454 L 1514.01 -477 L 1491.01 -610 L 1481.01 -667 L 1466.01 -665 L 1449.01 -662 Z M 374.01 -251 L 287.01 -261 L 180.01 -351 L 180.01 -377 L 228.01 -365 L 279.51 -357 L 331.01 -349 L 388.01 -348 L 446.01 -346 L 517.01 -345.5 L 588.01 -345 L 681.01 -345 L 806.01 -345 L 1103.01 -349 L 1399.01 -353 L 1554.01 -354 L 1696.01 -354 L 1916.01 -256 L 1928.01 -243 L 1942.01 -233 L 1956.01 -223 L 1968.01 -212 L 1966.01 -212 L 1957.51 -212 L 1949.01 -212 L 1935.01 -215 L 1896.01 -220 L 1875.51 -223.5 L 1855.01 -227 L 1850.01 -227 L 1732.01 -235 L 1679.01 -238 L 1627.51 -240.5 L 1576.01 -243 L 1527.01 -243 L 1455.01 -243 L 1214.01 -234 L 973.01 -225 L 854.01 -224 L 792.01 -224 L 732.01 -225.5 L 672.01 -227 L 612.01 -230 L 552.01 -233 L 493.01 -238.5 L 434.01 -244 Z" fill="black" fill-opacity="0.25" stroke="black" stroke-width="4"/>
  <rect x="-1" y="-746" width="1097" height="311" fill="none" stroke="red" stroke-width="10" /><rect x="1195" y="-682" width="308" height="252" fill="none" stroke="red" stroke-width="10" /><rect x="1449" y="-683" width="287" height="251" fill="none" stroke="red" stroke-width="10" /><rect x="180" y="-377" width="1788" height="165" fill="none" stroke="red" stroke-width="10" />
</svg>
