<svg xmlns="http://www.w3.org/2000/svg"
  viewBox="-50 -766 1443 587">
  <rect x="-50" y="-766" width="1443" height="587" fill="white"/>
  <path d="M 974 -479 L 962 -464 L 940 -458 L 917 -452 L 887 -452 L 865 -452 L 846 -454 L 827 -456 L 804 -460 L 783 -463 L 769.5 -467.5 L 756 -472 L 748 -475 L 703 -494 L 671 -510 L 668 -514 L 666 -518 L 671 -521 L 672 -522 L 684 -522 L 692 -522 L 700.5 -522 L 709 -522 L 721 -519 L 787 -509 L 799 -510 L 818 -510 L 826 -518 L 832 -523 L 832 -535 L 832 -552 L 806 -597 L 780 -642 L 779 -666 L 779 -687 L 795 -702 L 801 -707 L 829 -713 L 842 -716 L 856.5 -716 L 871 -716 L 887 -716 L 904 -716 L 922 -716 L 940 -716 L 959 -713 L 995 -708 L 996 -707 L 1005 -690 L 1006 -680 L 1006 -667 L 987 -666 L 977 -666 L 959 -671 L 939 -676 L 932 -676 L 926 -676 L 926 -671 L 926 -653 L 959 -600 L 991 -549 L 992 -521 L 992 -500 Z M 146 -268 L 81 -278 L 0 -368 L 0 -395 L 36 -382 L 74.5 -374 L 113 -366 L 156 -365 L 199 -364 L 253 -363 L 307 -362 L 376 -362 L 470 -362 L 694 -366 L 917 -371 L 1033 -371 L 1139 -371 L 1305 -273 L 1314 -260 L 1324 -250 L 1334 -240 L 1343 -229 L 1342 -229 L 1335.5 -229 L 1329 -229 L 1319 -232 L 1290 -236 L 1274 -240 L 1258 -244 L 1255 -244 L 1166 -252 L 1126 -255 L 1087.5 -257.5 L 1049 -260 L 1012 -260 L 958 -260 L 777 -251 L 595 -242 L 507 -241 L 460 -241 L 415 -242.5 L 370 -244 L 325 -248 L 280 -251 L 235.5 -256 L 191 -261 Z" fill="black" fill-opacity="0.25" stroke="black" stroke-width="4"/>
  <rect x="666" y="-716" width="340" height="264" fill="none" stroke="red" stroke-width="10" /><rect x="0" y="-395" width="1343" height="166" fill="none" stroke="red" stroke-width="10" />
</svg>
