<svg xmlns="http://www.w3.org/2000/svg"
  viewBox="-50.0 -438.0 1456.0 493.0">
  <rect x="-50.0" y="-438.0" width="1456.0" height="493.0" fill="white"/>
  <path d="M 147.0 -262.0 L 82.0 -272.0 L 0.0 -362.0 L 0.0 -388.0 L 36.0 -376.0 L 75.0 -368.0 L 114.0 -360.0 L 158.0 -359.0 L 202.0 -357.0 L 255.5 -356.5 L 309.0 -356.0 L 380.0 -356.0 L 475.0 -356.0 L 700.0 -361.0 L 925.0 -365.0 L 1042.0 -365.0 L 1149.0 -365.0 L 1317.0 -267.0 L 1326.0 -254.0 L 1336.5 -244.0 L 1347.0 -234.0 L 1356.0 -223.0 L 1355.0 -223.0 L 1348.5 -223.0 L 1342.0 -223.0 L 1331.0 -226.0 L 1301.0 -231.0 L 1285.5 -235.0 L 1270.0 -239.0 L 1267.0 -239.0 L 1178.0 -246.0 L 1137.0 -249.0 L 1098.0 -251.5 L 1059.0 -254.0 L 1022.0 -254.0 L 967.0 -254.0 L 785.0 -245.0 L 602.0 -236.0 L 511.0 -236.0 L 464.0 -236.0 L 418.5 -237.5 L 373.0 -239.0 L 328.0 -241.0 L 283.0 -244.0 L 237.5 -249.5 L 192.0 -255.0 Z M 872.0 -206.0 L 874.0 -210.0 L 894.0 -210.0 L 910.0 -210.0 L 941.0 -206.0 L 957.0 -204.0 L 966.5 -203.0 L 976.0 -202.0 L 983.0 -201.0 L 1046.0 -191.0 L 1062.0 -104.0 L 1072.0 -51.0 L 1083.0 -37.0 L 1091.0 -23.0 L 1111.0 -21.0 L 1116.0 -20.0 L 1123.0 -20.0 L 1126.0 -20.0 L 1128.0 -18.0 L 1128.0 -13.0 L 1123.0 -9.0 L 1109.0 5.0 L 1077.0 5.0 L 1058.0 5.0 L 1036.0 -0.0 L 1014.0 -5.0 L 988.0 -15.0 L 938.0 -34.0 L 919.0 -145.0 L 913.0 -193.0 L 889.0 -193.0 L 876.0 -193.0 L 868.0 -193.0 L 867.0 -195.0 L 866.0 -196.0 Z M 1094.0 -207.0 L 1094.0 -212.0 L 1111.0 -212.0 L 1125.0 -212.0 L 1153.0 -207.0 L 1167.0 -205.0 L 1176.5 -203.5 L 1186.0 -202.0 L 1192.0 -201.0 L 1256.0 -191.0 L 1273.0 -104.0 L 1283.0 -51.0 L 1294.0 -37.0 L 1301.0 -27.0 L 1320.0 -23.0 L 1337.0 -20.0 L 1337.0 -18.0 L 1337.0 -15.0 L 1336.5 -16.0 L 1336.0 -17.0 L 1333.0 -10.0 L 1326.0 4.0 L 1287.0 4.0 L 1268.0 4.0 L 1246.5 -1.5 L 1225.0 -7.0 L 1199.0 -17.0 L 1149.0 -36.0 L 1130.0 -150.0 L 1122.0 -200.0 L 1108.0 -197.0 L 1094.0 -193.0 Z" fill="black" fill-opacity="0.25" stroke="black" stroke-width="4.0"/>
  <rect x="0.0" y="-388.0" width="1356.0" height="165.0" fill="none" stroke="red" stroke-width="10.0" /><rect x="866.0" y="-210.0" width="261.9999999999999" height="215.0" fill="none" stroke="red" stroke-width="10.0" /><rect x="1094.0" y="-212.0" width="242.9999999999999" height="216.0" fill="none" stroke="red" stroke-width="10.0" />
</svg>
