<svg xmlns="http://www.w3.org/2000/svg"
  viewBox="-50.0 -785.0 1233.0 652.0">
  <rect x="-50.0" y="-785.0" width="1233.0" height="652.0" fill="white"/>
  <path d="M 119.0 -633.0 L 67.0 -639.0 L 0.0 -714.0 L 0.0 -735.0 L 58.0 -714.0 L 127.0 -711.0 L 163.0 -710.0 L 208.5 -709.0 L 254.0 -708.0 L 308.0 -708.0 L 385.0 -708.0 L 568.0 -713.0 L 662.0 -716.0 L 729.5 -716.0 L 797.0 -716.0 L 844.0 -716.0 L 933.0 -716.0 L 1068.0 -638.0 L 1099.0 -603.0 L 1078.0 -605.0 L 1031.0 -614.0 L 1026.0 -614.0 L 955.0 -622.0 L 922.0 -625.0 L 891.0 -626.5 L 860.0 -628.0 L 828.0 -628.0 L 807.0 -628.0 L 758.5 -625.5 L 710.0 -623.0 L 635.0 -620.0 L 560.0 -617.0 L 504.5 -615.0 L 449.0 -613.0 L 413.0 -613.0 L 338.0 -613.0 L 266.0 -618.0 L 230.0 -621.0 L 193.0 -624.0 L 156.0 -627.0 Z M 1117.0 -422.0 L 1133.0 -386.0 L 1133.0 -352.0 L 1133.0 -268.0 L 1036.0 -225.0 L 937.0 -183.0 L 778.0 -183.0 L 639.0 -183.0 L 464.0 -219.0 L 329.0 -247.0 L 173.0 -319.0 L 6.0 -397.0 L 6.0 -443.0 L 6.0 -461.0 L 30.0 -468.0 L 58.0 -476.0 L 117.0 -475.0 L 150.0 -475.0 L 182.0 -474.0 L 214.0 -473.0 L 246.0 -469.0 L 305.0 -462.0 L 328.0 -451.0 L 334.0 -440.0 L 335.0 -439.0 L 327.0 -430.0 L 321.0 -431.0 L 313.5 -432.0 L 306.0 -433.0 L 297.0 -433.0 L 285.0 -433.0 L 274.5 -432.0 L 264.0 -431.0 L 254.0 -430.0 L 243.0 -431.0 L 242.0 -422.0 L 242.0 -406.0 L 272.0 -377.0 L 289.0 -360.0 L 309.5 -345.5 L 330.0 -331.0 L 355.0 -319.0 L 398.0 -298.0 L 446.0 -283.0 L 494.0 -268.0 L 548.0 -255.0 L 654.0 -230.0 L 756.0 -230.0 L 853.0 -230.0 L 903.0 -255.0 L 958.0 -282.0 L 958.0 -336.0 L 955.0 -363.0 L 947.0 -405.0 L 861.0 -449.0 L 858.0 -453.0 L 856.5 -456.5 L 855.0 -460.0 L 852.0 -465.0 L 865.0 -468.0 L 878.5 -469.0 L 892.0 -470.0 L 910.0 -473.0 L 927.0 -475.0 L 938.5 -476.0 L 950.0 -477.0 L 963.0 -477.0 L 1002.0 -477.0 L 1032.5 -469.5 L 1063.0 -462.0 L 1086.0 -449.0 L 1094.0 -445.0 L 1101.5 -437.5 L 1109.0 -430.0 Z" fill="black" fill-opacity="0.25" stroke="black" stroke-width="4.0"/>
  <rect x="0.0" y="-735.0" width="1099.0" height="132.0" fill="none" stroke="red" stroke-width="10.0" /><rect x="6.0" y="-477.0" width="1127.0" height="294.0" fill="none" stroke="red" stroke-width="10.0" />
</svg>
