<svg xmlns="http://www.w3.org/2000/svg"
  viewBox="-50 -1057 1514.5 935">
  <rect x="-50" y="-1057" width="1514.5" height="935" fill="white"/>
  <path d="M 14 -432 L 14 -451 L 37 -457 L 62 -465 L 116 -464 L 137 -464 L 167 -463.5 L 197 -463 L 228.5 -460.5 L 260 -458 L 288.5 -453 L 317 -448 L 336 -440 L 338 -438 L 338.5 -435.5 L 339 -433 L 340 -431 L 341 -429 L 342 -428 L 334 -419 L 328 -420 L 321 -421 L 314 -422 L 304 -422 L 292 -422 L 282 -421.5 L 272 -421 L 261 -419 L 257 -419 L 253.5 -418 L 250 -417 L 250 -411 L 250 -395 L 279 -366 L 304 -341 L 340.5 -320 L 377 -299 L 420 -283 L 463 -267 L 509.5 -255 L 556 -243 L 601.5 -235 L 647 -227 L 689 -223 L 731 -219 L 764 -219 L 782 -219 L 803.5 -220 L 825 -221 L 847.5 -225 L 870 -229 L 891 -236 L 912 -243 L 928.5 -255 L 945 -267 L 955 -284 L 965 -301 L 965 -325 L 962 -352 L 954 -394 L 868 -438 L 865 -442 L 863.5 -445.5 L 862 -449 L 859 -454 L 872 -457 L 886 -458 L 900 -459 L 917 -462 L 934 -464 L 946 -465 L 958 -466 L 970 -466 L 1010 -466 L 1040 -458.5 L 1070 -451 L 1093 -438 L 1101 -434 L 1109 -426.5 L 1117 -419 L 1125 -411 L 1141 -374 L 1140 -341 L 1140 -303 L 1121.5 -275.5 L 1103 -248 L 1073 -229.5 L 1043 -211 L 1004 -199.5 L 965 -188 L 926 -182 L 887 -176 L 850 -174 L 813 -172 L 786 -172 L 715 -172 L 637.5 -181 L 560 -190 L 472 -208 L 404 -222 L 332 -247 L 260 -272 L 181 -308 L 14 -386 Z M 7 -541 L 2 -541 L 0 -549 L 0 -550 L 1 -550 L 2 -550 L 5 -552 L 7 -553 L 3 -559 L -1 -564 L 5 -566 L 51 -583 L 91.5 -596 L 132 -609 L 166 -620.5 L 200 -632 L 227.5 -642 L 255 -652 L 276 -663 L 356 -704 L 401 -777 L 408 -789 L 415.5 -806.5 L 423 -824 L 432 -847.5 L 441 -871 L 452 -900 L 463 -929 L 479 -964 L 480 -967 L 483.5 -968.5 L 487 -970 L 491.5 -970.5 L 496 -971 L 500.5 -972 L 505 -973 L 509 -975 L 521 -982 L 528.5 -986 L 536 -990 L 540 -992 L 552 -998 L 561 -1001 L 570 -1004 L 573 -1005 L 586 -1005 L 591 -1005 L 596.5 -1004.5 L 602 -1004 L 607 -1002 L 611 -1001 L 615.5 -1000.5 L 620 -1000 L 625 -999 L 630 -998 L 634.5 -996.5 L 639 -995 L 643 -991 L 644 -990 L 643 -988 L 642 -986 L 639.5 -985 L 637 -984 L 634 -983 L 631 -982 L 629 -980 L 592 -954 L 588 -947 L 580 -913 L 573 -889 L 566 -865 L 559 -846 L 557 -840 L 552 -831.5 L 547 -823 L 541.5 -814 L 536 -805 L 530 -796.5 L 524 -788 L 520 -782 L 520 -782 L 522 -783 L 524 -783 L 520 -778 L 516 -775 L 516 -775 L 520 -782 L 516 -780 L 506 -773.5 L 496 -767 L 482 -756.5 L 468 -746 L 452 -733.5 L 436 -721 L 420 -708 L 404 -696 L 391.5 -685.5 L 379 -675 L 368 -667 L 357 -658 L 349.5 -651 L 342 -644 L 338 -640 L 338 -639 L 337 -638 L 337 -638 L 336 -637 L 342 -639 L 346.5 -641.5 L 351 -644 L 355 -646 L 360 -649 L 361 -649 L 361 -649 L 358 -647 L 357 -646 L 354 -644 L 351 -642 L 347.5 -640.5 L 344 -639 L 341 -637.5 L 338 -636 L 337 -636 L 336 -636 L 336 -637 L 324 -631 L 308 -623.5 L 292 -616 L 275 -609.5 L 258 -603 L 241.5 -597.5 L 225 -592 L 212 -589 L 203 -588 L 189 -587.5 L 175 -587 L 163.5 -586.5 L 152 -586 L 146.5 -585 L 141 -584 L 148 -582 L 156 -579 L 164.5 -578 L 173 -577 L 182 -577 L 194 -577 L 206 -578 L 218 -579 L 231 -579 L 256 -579 L 279 -572 L 302 -565 L 323 -549 L 341 -535 L 341 -530 L 344 -522 L 331 -522 L 318 -522 L 306.5 -523.5 L 295 -525 L 282 -527 L 264 -530 L 241.5 -532.5 L 219 -535 L 193 -539 L 166 -543 L 143.5 -545 L 121 -547 L 99 -547 L 95 -548 L 91 -548 L 87 -548 L 83 -548 L 69 -548 L 55.5 -547.5 L 42 -547 L 27 -546 L 24 -545 L 19.5 -543 L 15 -541 Z M 770 -551 L 770 -552 L 772 -552 L 773 -552 L 776 -554 L 778 -555 L 774 -561 L 770 -566 L 776 -568 L 822 -585 L 862.5 -598 L 903 -611 L 937 -622.5 L 971 -634 L 998.5 -644 L 1026 -654 L 1046 -665 L 1126 -706 L 1171 -779 L 1178 -791 L 1185.5 -808.5 L 1193 -826 L 1202 -849.5 L 1211 -873 L 1222.5 -902 L 1234 -931 L 1250 -966 L 1251 -969 L 1254.5 -970.5 L 1258 -972 L 1262 -972.5 L 1266 -973 L 1270.5 -974 L 1275 -975 L 1279 -977 L 1291 -984 L 1299 -988 L 1307 -992 L 1311 -994 L 1323 -1000 L 1331.5 -1002.5 L 1340 -1005 L 1343 -1007 L 1357 -1007 L 1362 -1007 L 1367 -1006.5 L 1372 -1006 L 1378 -1004 L 1382 -1003 L 1386.5 -1002.5 L 1391 -1002 L 1395.5 -1001 L 1400 -1000 L 1405 -998.5 L 1410 -997 L 1414 -993 L 1415 -992 L 1414 -990 L 1413 -988 L 1410 -987 L 1407 -986 L 1404 -985 L 1402 -984 L 1400 -982 L 1363 -956 L 1359 -949 L 1351 -915 L 1344 -891 L 1337 -867 L 1329 -848 L 1327 -842 L 1322.5 -833.5 L 1318 -825 L 1312 -816 L 1306 -807 L 1300.5 -798.5 L 1295 -790 L 1291 -784 L 1291 -784 L 1293 -785 L 1295 -785 L 1290 -780 L 1286 -776 L 1286 -776 L 1291 -784 L 1287 -782 L 1276.5 -775.5 L 1266 -769 L 1252 -758.5 L 1238 -748 L 1222.5 -735.5 L 1207 -723 L 1191 -710 L 1175 -698 L 1162.5 -687.5 L 1150 -677 L 1139 -669 L 1128 -660 L 1120.5 -653 L 1113 -646 L 1109 -642 L 1109 -641 L 1107 -640 L 1107 -640 L 1107 -639 L 1113 -641 L 1117.5 -643.5 L 1122 -646 L 1126 -648 L 1131 -651 L 1131 -651 L 1131 -651 L 1129 -649 L 1128 -648 L 1124.5 -646 L 1121 -644 L 1118 -642.5 L 1115 -641 L 1112 -639.5 L 1109 -638 L 1108 -638 L 1107 -638 L 1107 -639 L 1095 -633 L 1079 -625.5 L 1063 -618 L 1046 -611.5 L 1029 -605 L 1012.5 -599.5 L 996 -594 L 983 -591 L 974 -590 L 960 -589.5 L 946 -589 L 934.5 -588.5 L 923 -588 L 917.5 -587 L 912 -586 L 919 -584 L 927 -581 L 935 -580 L 943 -579 L 952 -579 L 964 -579 L 976 -580 L 988 -581 L 1001 -581 L 1026 -581 L 1049.5 -574 L 1073 -567 L 1093 -551 L 1111 -537 L 1112 -532 L 1115 -524 L 1101 -524 L 1088 -524 L 1077 -525 L 1066 -526 L 1053 -529 L 1035 -532 L 1012.5 -534.5 L 990 -537 L 963 -541 L 936 -545 L 914 -547 L 892 -549 L 870 -549 L 866 -550 L 862 -550 L 858 -550 L 854 -550 L 840 -550 L 826 -549.5 L 812 -549 L 798 -547 L 795 -546 L 790.5 -544.5 L 786 -543 L 778 -543 L 773 -543 Z M 386 -549 L 386 -550 L 387 -551 L 388 -551 L 392 -552 L 394 -553 L 389 -559 L 385 -564 L 392 -567 L 438 -584 L 478.5 -597 L 519 -610 L 553 -621 L 587 -632 L 614.5 -642 L 642 -652 L 662 -663 L 742 -704 L 787 -777 L 794 -789 L 801.5 -806.5 L 809 -824 L 818 -847.5 L 827 -871 L 838.5 -900.5 L 850 -930 L 865 -965 L 866 -968 L 870 -969 L 874 -970 L 878 -971 L 882 -972 L 886.5 -972.5 L 891 -973 L 895 -976 L 907 -983 L 914.5 -987 L 922 -991 L 926 -993 L 938 -999 L 947 -1001.5 L 956 -1004 L 959 -1005 L 972 -1005 L 977 -1005 L 982.5 -1005 L 988 -1005 L 993 -1003 L 997 -1002 L 1001.5 -1001 L 1006 -1000 L 1011 -999.5 L 1016 -999 L 1020.5 -997 L 1025 -995 L 1029 -991 L 1030 -990 L 1029 -988.5 L 1028 -987 L 1025.5 -985.5 L 1023 -984 L 1020 -983 L 1017 -982 L 1015 -981 L 978 -955 L 975 -948 L 967 -914 L 959.5 -890 L 952 -866 L 945 -846 L 943 -840 L 938.5 -831.5 L 934 -823 L 928 -814 L 922 -805 L 916 -796.5 L 910 -788 L 906 -783 L 906 -783 L 908 -783 L 910 -783 L 906 -779 L 902 -775 L 902 -775 L 906 -783 L 902 -781 L 892 -774 L 882 -767 L 868 -757 L 854 -747 L 838 -734.5 L 822 -722 L 806 -709 L 790 -697 L 777.5 -686.5 L 765 -676 L 754 -667 L 743 -658 L 736 -651.5 L 729 -645 L 725 -641 L 725 -640 L 723 -638 L 723 -638 L 722 -637 L 728 -639 L 732.5 -641.5 L 737 -644 L 741 -646 L 746 -649 L 747 -649 L 747 -649 L 745 -648 L 744 -647 L 740.5 -645 L 737 -643 L 734 -641 L 731 -639 L 728 -638 L 725 -637 L 723 -637 L 722 -637 L 722 -637 L 710 -631 L 694 -624 L 678 -617 L 661.5 -610 L 645 -603 L 628 -597.5 L 611 -592 L 598 -590 L 589 -589 L 575.5 -588.5 L 562 -588 L 550.5 -587.5 L 539 -587 L 533 -586 L 527 -585 L 534 -582 L 542 -579 L 550.5 -578 L 559 -577 L 568 -577 L 580 -577 L 592 -578 L 604 -579 L 617 -579 L 642 -579 L 665.5 -572 L 689 -565 L 709 -549 L 727 -535 L 728 -530 L 731 -522 L 717 -523 L 704 -523 L 692.5 -524 L 681 -525 L 669 -527 L 651 -530 L 628.5 -533 L 606 -536 L 579 -540 L 552 -544 L 529.5 -545.5 L 507 -547 L 485 -547 L 481 -548 L 477 -548 L 473 -548 L 469 -548 L 455 -548 L 441.5 -547.5 L 428 -547 L 414 -546 L 411 -545 L 406 -543.5 L 401 -542 L 394 -542 L 389 -541 Z" fill="black" fill-opacity="0.25" stroke="black" stroke-width="4"/>
  <rect x="14" y="-466" width="1127" height="294" fill="none" stroke="red" stroke-width="10" /><rect x="-1" y="-683" width="389.5" height="161" fill="none" stroke="red" stroke-width="10" /><rect x="315" y="-844" width="243.3" height="161" fill="none" stroke="red" stroke-width="10" /><rect x="430.7" y="-1005" width="213.3" height="161" fill="none" stroke="red" stroke-width="10" /><rect x="770" y="-685" width="389.5" height="161" fill="none" stroke="red" stroke-width="10" /><rect x="1085" y="-846" width="243.3" height="161" fill="none" stroke="red" stroke-width="10" /><rect x="1200.7" y="-1007" width="214.3" height="161" fill="none" stroke="red" stroke-width="10" /><rect x="385" y="-683.6" width="389" height="160.7" fill="none" stroke="red" stroke-width="10" /><rect x="702.2" y="-844.3" width="242.2" height="160.7" fill="none" stroke="red" stroke-width="10" /><rect x="816.8" y="-1005" width="213.2" height="160.7" fill="none" stroke="red" stroke-width="10" />
</svg>
