<svg xmlns="http://www.w3.org/2000/svg"
  viewBox="-50 -712 1227 599">
  <rect x="-50" y="-712" width="1227" height="599" fill="white"/>
  <path d="M 1111 -403 L 1127 -367 L 1127 -332 L 1127 -248 L 1030 -206 L 931 -164 L 772 -163 L 633 -163 L 458 -200 L 324 -227 L 167 -300 L 0 -378 L 0 -423 L 0 -442 L 24 -448 L 52 -456 L 111 -456 L 144 -456 L 176 -454.5 L 208 -453 L 239 -450 L 299 -443 L 322 -430 L 328 -419 L 328 -420 L 320 -410 L 314 -411 L 307 -412 L 300 -413 L 291 -413 L 278 -413 L 268 -412.5 L 258 -412 L 247 -410 L 236 -411 L 236 -403 L 236 -387 L 266 -357 L 283 -340 L 303 -325.5 L 323 -311 L 348 -300 L 392 -279 L 439.5 -263.5 L 487 -248 L 542 -235 L 648 -210 L 750 -210 L 847 -210 L 897 -235 L 952 -262 L 952 -317 L 948 -343 L 940 -385 L 855 -429 L 852 -434 L 850 -437 L 848 -440 L 845 -445 L 858 -448 L 872 -449.5 L 886 -451 L 903 -452 L 921 -454 L 932.5 -455.5 L 944 -457 L 956 -457 L 995 -457 L 1025.5 -449.5 L 1056 -442 L 1080 -429 L 1088 -425 L 1095.5 -418 L 1103 -411 Z M 111 -657 L 163 -662 L 276 -662 L 312 -662 L 351.5 -658.5 L 391 -655 L 434 -645 L 461 -639 L 486.5 -632.5 L 512 -626 L 538 -618 L 636 -593 L 700 -546 L 763 -499 L 764 -446 L 764 -416 L 749 -396 L 743 -388 L 714 -389 L 673 -389 L 595 -404 L 582 -406 L 564 -409 L 546 -412 L 522 -418 L 547 -429 L 564 -454 L 580 -478 L 575 -492 L 563 -521 L 517.5 -546 L 472 -571 L 392 -587 L 308 -604 L 222.5 -615 L 137 -626 L 53 -639 Z" fill="black" fill-opacity="0.25" stroke="black" stroke-width="4"/>
  <rect x="0" y="-457" width="1127" height="294" fill="none" stroke="red" stroke-width="10" /><rect x="53" y="-662" width="711" height="274" fill="none" stroke="red" stroke-width="10" />
</svg>
