<svg xmlns="http://www.w3.org/2000/svg"
  viewBox="-50.0 -1384.0 1558.5 1264.0">
  <rect x="-50.0" y="-1384.0" width="1558.5" height="1264.0" fill="white"/>
  <path d="M 0.0 -430.0 L 0.0 -449.0 L 24.0 -455.0 L 49.0 -463.0 L 103.0 -462.0 L 124.0 -462.0 L 154.0 -461.5 L 184.0 -461.0 L 215.0 -458.5 L 246.0 -456.0 L 275.0 -451.0 L 304.0 -446.0 L 322.0 -438.0 L 324.0 -436.0 L 325.0 -433.5 L 326.0 -431.0 L 327.0 -429.0 L 328.0 -427.0 L 328.0 -426.0 L 321.0 -417.0 L 315.0 -418.0 L 307.5 -419.0 L 300.0 -420.0 L 291.0 -420.0 L 279.0 -420.0 L 268.5 -419.0 L 258.0 -418.0 L 247.0 -417.0 L 243.0 -417.0 L 239.5 -416.0 L 236.0 -415.0 L 236.0 -409.0 L 236.0 -393.0 L 266.0 -364.0 L 291.0 -339.0 L 327.5 -318.0 L 364.0 -297.0 L 407.0 -281.0 L 450.0 -265.0 L 496.5 -253.0 L 543.0 -241.0 L 588.5 -233.0 L 634.0 -225.0 L 675.5 -221.0 L 717.0 -217.0 L 750.0 -217.0 L 768.0 -217.0 L 789.5 -218.0 L 811.0 -219.0 L 833.5 -223.0 L 856.0 -227.0 L 877.5 -234.0 L 899.0 -241.0 L 915.5 -253.0 L 932.0 -265.0 L 942.0 -282.0 L 952.0 -299.0 L 952.0 -323.0 L 949.0 -350.0 L 941.0 -392.0 L 855.0 -436.0 L 852.0 -440.0 L 850.5 -443.5 L 849.0 -447.0 L 846.0 -452.0 L 859.0 -455.0 L 872.5 -456.0 L 886.0 -457.0 L 904.0 -459.0 L 921.0 -461.0 L 932.5 -462.5 L 944.0 -464.0 L 956.0 -464.0 L 996.0 -464.0 L 1026.0 -456.5 L 1056.0 -449.0 L 1080.0 -436.0 L 1088.0 -432.0 L 1095.5 -424.5 L 1103.0 -417.0 L 1111.0 -409.0 L 1127.0 -372.0 L 1127.0 -339.0 L 1127.0 -301.0 L 1108.5 -273.5 L 1090.0 -246.0 L 1059.5 -227.5 L 1029.0 -209.0 L 990.5 -197.5 L 952.0 -186.0 L 912.5 -180.0 L 873.0 -174.0 L 836.5 -172.0 L 800.0 -170.0 L 772.0 -170.0 L 701.0 -170.0 L 624.0 -179.0 L 547.0 -188.0 L 458.0 -206.0 L 390.0 -220.0 L 318.0 -245.0 L 246.0 -270.0 L 167.0 -306.0 L 0.0 -384.0 Z M 279.0 -870.0 L 274.0 -870.0 L 271.0 -877.0 L 271.0 -878.0 L 273.0 -879.0 L 274.0 -879.0 L 277.0 -880.0 L 279.0 -881.0 L 275.0 -887.0 L 271.0 -892.0 L 277.0 -895.0 L 323.0 -912.0 L 363.5 -925.0 L 404.0 -938.0 L 438.0 -949.0 L 472.0 -960.0 L 499.5 -970.0 L 527.0 -980.0 L 548.0 -991.0 L 627.0 -1033.0 L 673.0 -1105.0 L 680.0 -1117.0 L 687.5 -1134.5 L 695.0 -1152.0 L 703.5 -1175.5 L 712.0 -1199.0 L 723.5 -1228.5 L 735.0 -1258.0 L 751.0 -1293.0 L 752.0 -1296.0 L 755.5 -1297.0 L 759.0 -1298.0 L 763.0 -1298.5 L 767.0 -1299.0 L 771.5 -1300.0 L 776.0 -1301.0 L 781.0 -1304.0 L 793.0 -1311.0 L 800.5 -1315.0 L 808.0 -1319.0 L 812.0 -1321.0 L 824.0 -1327.0 L 833.0 -1329.5 L 842.0 -1332.0 L 845.0 -1334.0 L 858.0 -1334.0 L 863.0 -1334.0 L 868.0 -1333.5 L 873.0 -1333.0 L 879.0 -1331.0 L 883.0 -1330.0 L 887.5 -1329.0 L 892.0 -1328.0 L 897.0 -1327.5 L 902.0 -1327.0 L 906.5 -1325.0 L 911.0 -1323.0 L 915.0 -1319.0 L 916.0 -1318.0 L 914.5 -1316.5 L 913.0 -1315.0 L 910.5 -1314.0 L 908.0 -1313.0 L 905.0 -1311.5 L 902.0 -1310.0 L 901.0 -1309.0 L 863.0 -1283.0 L 860.0 -1276.0 L 852.0 -1242.0 L 845.0 -1218.0 L 838.0 -1194.0 L 830.0 -1174.0 L 828.0 -1168.0 L 823.5 -1159.5 L 819.0 -1151.0 L 813.0 -1142.0 L 807.0 -1133.0 L 801.5 -1124.5 L 796.0 -1116.0 L 792.0 -1111.0 L 792.0 -1111.0 L 794.0 -1111.0 L 796.0 -1111.0 L 791.0 -1107.0 L 787.0 -1103.0 L 787.0 -1103.0 L 792.0 -1111.0 L 788.0 -1109.0 L 777.5 -1102.0 L 767.0 -1095.0 L 753.5 -1085.0 L 740.0 -1075.0 L 724.0 -1062.5 L 708.0 -1050.0 L 692.0 -1037.0 L 676.0 -1025.0 L 663.5 -1014.5 L 651.0 -1004.0 L 640.0 -995.0 L 618.0 -977.0 L 610.0 -968.0 L 610.0 -967.0 L 609.0 -966.0 L 609.0 -966.0 L 608.0 -965.0 L 613.0 -967.0 L 617.5 -969.5 L 622.0 -972.0 L 626.0 -974.0 L 627.0 -975.0 L 628.5 -975.5 L 630.0 -976.0 L 631.0 -976.0 L 632.0 -976.0 L 632.0 -977.0 L 634.0 -977.0 L 623.0 -971.0 L 608.0 -963.0 L 608.0 -965.0 L 589.0 -956.0 L 570.0 -948.0 L 551.0 -940.0 L 532.0 -933.0 L 502.0 -921.0 L 484.0 -918.0 L 475.0 -917.0 L 461.0 -916.5 L 447.0 -916.0 L 435.5 -915.5 L 424.0 -915.0 L 418.0 -914.0 L 412.0 -913.0 L 420.0 -910.0 L 428.0 -907.0 L 436.0 -906.0 L 444.0 -905.0 L 453.0 -905.0 L 465.0 -905.0 L 477.5 -906.0 L 490.0 -907.0 L 502.0 -907.0 L 527.0 -907.0 L 550.5 -900.0 L 574.0 -893.0 L 595.0 -877.0 L 613.0 -863.0 L 613.0 -858.0 L 616.0 -850.0 L 602.0 -851.0 L 589.0 -851.0 L 578.0 -852.0 L 567.0 -853.0 L 554.0 -855.0 L 536.0 -858.0 L 513.5 -861.0 L 491.0 -864.0 L 465.0 -868.0 L 438.0 -872.0 L 415.5 -874.0 L 393.0 -876.0 L 371.0 -876.0 L 367.0 -877.0 L 363.0 -876.5 L 359.0 -876.0 L 355.0 -876.0 L 341.0 -876.0 L 327.0 -876.0 L 313.0 -876.0 L 299.0 -874.0 L 296.0 -873.0 L 291.5 -871.5 L 287.0 -870.0 Z M 823.0 -559.0 L 818.0 -559.0 L 815.0 -566.0 L 815.0 -567.0 L 816.0 -568.0 L 817.0 -568.0 L 821.0 -569.0 L 823.0 -570.0 L 818.0 -576.0 L 814.0 -581.0 L 821.0 -584.0 L 867.0 -601.0 L 907.5 -614.0 L 948.0 -627.0 L 981.5 -638.0 L 1015.0 -649.0 L 1043.0 -659.0 L 1071.0 -669.0 L 1091.0 -680.0 L 1170.0 -722.0 L 1216.0 -794.0 L 1223.0 -806.0 L 1230.5 -823.5 L 1238.0 -841.0 L 1247.0 -864.5 L 1256.0 -888.0 L 1267.5 -917.5 L 1279.0 -947.0 L 1294.0 -982.0 L 1295.0 -985.0 L 1299.0 -986.0 L 1303.0 -987.0 L 1306.5 -987.5 L 1310.0 -988.0 L 1315.0 -989.0 L 1320.0 -990.0 L 1324.0 -993.0 L 1336.0 -1000.0 L 1343.5 -1004.0 L 1351.0 -1008.0 L 1355.0 -1010.0 L 1367.0 -1016.0 L 1376.0 -1018.5 L 1385.0 -1021.0 L 1388.0 -1022.0 L 1401.0 -1022.0 L 1406.0 -1022.0 L 1411.5 -1022.0 L 1417.0 -1022.0 L 1422.0 -1020.0 L 1426.0 -1019.0 L 1430.5 -1018.0 L 1435.0 -1017.0 L 1440.0 -1016.5 L 1445.0 -1016.0 L 1449.5 -1014.0 L 1454.0 -1012.0 L 1458.0 -1008.0 L 1459.0 -1007.0 L 1458.0 -1005.5 L 1457.0 -1004.0 L 1454.5 -1002.5 L 1452.0 -1001.0 L 1449.0 -1000.0 L 1446.0 -999.0 L 1444.0 -998.0 L 1406.0 -972.0 L 1404.0 -965.0 L 1396.0 -931.0 L 1388.5 -907.0 L 1381.0 -883.0 L 1374.0 -863.0 L 1372.0 -857.0 L 1367.5 -848.5 L 1363.0 -840.0 L 1357.0 -831.0 L 1351.0 -822.0 L 1345.0 -813.5 L 1339.0 -805.0 L 1335.0 -800.0 L 1335.0 -800.0 L 1337.0 -800.0 L 1339.0 -800.0 L 1335.0 -796.0 L 1331.0 -792.0 L 1331.0 -792.0 L 1335.0 -800.0 L 1331.0 -798.0 L 1321.0 -791.0 L 1311.0 -784.0 L 1297.0 -774.0 L 1283.0 -764.0 L 1267.0 -751.5 L 1251.0 -739.0 L 1235.0 -726.0 L 1219.0 -714.0 L 1206.5 -703.5 L 1194.0 -693.0 L 1183.0 -684.0 L 1161.0 -666.0 L 1154.0 -657.0 L 1154.0 -656.0 L 1152.0 -655.0 L 1152.0 -655.0 L 1152.0 -654.0 L 1157.0 -656.0 L 1161.5 -658.5 L 1166.0 -661.0 L 1170.0 -663.0 L 1171.0 -664.0 L 1172.0 -664.5 L 1173.0 -665.0 L 1174.0 -665.0 L 1175.0 -665.0 L 1176.0 -666.0 L 1178.0 -666.0 L 1166.0 -660.0 L 1151.0 -652.0 L 1152.0 -654.0 L 1133.0 -645.0 L 1114.0 -637.0 L 1095.0 -629.0 L 1075.0 -622.0 L 1045.0 -610.0 L 1027.0 -607.0 L 1018.0 -606.0 L 1004.5 -605.5 L 991.0 -605.0 L 979.0 -604.5 L 967.0 -604.0 L 961.5 -603.0 L 956.0 -602.0 L 963.0 -599.0 L 971.0 -596.0 L 979.5 -595.0 L 988.0 -594.0 L 996.0 -594.0 L 1008.0 -594.0 L 1020.5 -595.0 L 1033.0 -596.0 L 1046.0 -596.0 L 1071.0 -596.0 L 1094.5 -589.0 L 1118.0 -582.0 L 1138.0 -566.0 L 1156.0 -552.0 L 1157.0 -547.0 L 1160.0 -539.0 L 1146.0 -540.0 L 1133.0 -540.0 L 1121.5 -541.0 L 1110.0 -542.0 L 1098.0 -544.0 L 1080.0 -547.0 L 1057.5 -550.0 L 1035.0 -553.0 L 1008.0 -557.0 L 981.0 -561.0 L 958.5 -562.5 L 936.0 -564.0 L 914.0 -564.0 L 910.0 -565.0 L 906.0 -565.0 L 902.0 -565.0 L 898.0 -565.0 L 884.0 -565.0 L 870.5 -564.5 L 857.0 -564.0 L 843.0 -563.0 L 840.0 -562.0 L 835.5 -560.5 L 831.0 -559.0 Z M 273.0 -762.0 L 276.0 -766.0 L 295.0 -767.0 L 311.0 -767.0 L 342.0 -762.0 L 358.0 -760.0 L 367.5 -759.0 L 377.0 -758.0 L 384.0 -757.0 L 447.0 -748.0 L 463.0 -661.0 L 473.0 -608.0 L 484.0 -593.0 L 492.0 -579.0 L 512.0 -578.0 L 517.0 -577.0 L 524.0 -576.0 L 527.0 -576.0 L 529.0 -575.0 L 528.0 -568.0 L 522.0 -563.5 L 516.0 -559.0 L 507.5 -556.0 L 499.0 -553.0 L 491.0 -552.0 L 483.0 -551.0 L 477.0 -551.0 L 458.0 -551.0 L 436.5 -556.5 L 415.0 -562.0 L 389.0 -571.0 L 338.0 -590.0 L 320.0 -701.0 L 314.0 -749.0 L 290.0 -750.0 L 277.0 -750.0 L 269.0 -750.0 L 268.0 -751.0 L 267.0 -753.0 Z M 494.0 -764.0 L 494.0 -769.0 L 508.0 -769.0 L 512.0 -769.0 L 519.0 -769.0 L 529.5 -767.5 L 540.0 -766.0 L 554.0 -764.0 L 569.0 -762.0 L 577.5 -760.0 L 586.0 -758.0 L 593.0 -757.0 L 656.0 -747.0 L 674.0 -661.0 L 684.0 -610.0 L 695.0 -593.0 L 700.0 -584.0 L 721.0 -579.0 L 739.0 -575.0 L 738.0 -575.0 L 738.0 -572.0 L 737.5 -572.5 L 737.0 -573.0 L 734.0 -567.0 L 727.0 -553.0 L 688.0 -553.0 L 669.0 -553.0 L 647.5 -558.0 L 626.0 -563.0 L 599.0 -573.0 L 548.0 -592.0 L 531.0 -706.0 L 524.0 -753.0 L 511.0 -753.0 L 511.0 -753.0 L 510.0 -753.0 L 509.0 -753.0 L 509.0 -753.0 L 508.0 -753.0 L 503.0 -752.0 L 493.0 -753.0 Z" fill="black" fill-opacity="0.25" stroke="black" stroke-width="4.0"/>
  <rect x="0.0" y="-464.0" width="1127.0" height="294.00000000000006" fill="none" stroke="red" stroke-width="10.0" /><rect x="271.0" y="-1334.0" width="645.0" height="484.0000000000001" fill="none" stroke="red" stroke-width="10.0" /><rect x="814.0" y="-1022.0" width="645.0000000000001" height="483.0" fill="none" stroke="red" stroke-width="10.0" /><rect x="267.0" y="-767.0" width="262.0" height="215.99999999999997" fill="none" stroke="red" stroke-width="10.0" /><rect x="493.0" y="-769.0" width="246.0" height="215.99999999999997" fill="none" stroke="red" stroke-width="10.0" />
</svg>
