<svg xmlns="http://www.w3.org/2000/svg"
  viewBox="-50.0 -1410.0 1293.0 1429.0">
  <rect x="-50.0" y="-1410.0" width="1293.0" height="1429.0" fill="white"/>
  <path d="M 110.0 -524.0 L 162.0 -529.0 L 276.0 -529.0 L 312.0 -529.0 L 352.0 -525.0 L 392.0 -521.0 L 435.0 -511.0 L 461.0 -505.0 L 486.5 -499.0 L 512.0 -493.0 L 574.0 -477.0 L 636.0 -461.0 L 700.0 -413.0 L 763.0 -367.0 L 764.0 -313.0 L 764.0 -284.0 L 748.0 -263.0 L 742.0 -255.0 L 713.0 -256.0 L 672.0 -256.0 L 595.0 -271.0 L 583.0 -273.0 L 564.0 -276.0 L 545.0 -279.0 L 521.0 -285.0 L 545.0 -297.0 L 563.0 -321.0 L 580.0 -345.0 L 571.5 -365.5 L 563.0 -386.0 L 517.5 -412.0 L 472.0 -438.0 L 392.0 -454.0 L 308.0 -471.0 L 222.5 -482.0 L 137.0 -493.0 L 53.0 -506.0 Z M 758.0 -790.0 L 752.0 -778.0 L 746.0 -759.0 L 740.0 -740.0 L 733.0 -715.0 L 871.0 -709.0 L 1102.0 -700.0 L 1147.0 -654.0 L 1005.0 -654.0 L 899.0 -654.0 L 793.0 -654.0 L 713.0 -656.0 L 696.0 -618.0 L 667.0 -589.0 L 656.0 -575.0 L 624.0 -565.0 L 607.0 -560.0 L 592.0 -558.5 L 577.0 -557.0 L 563.0 -557.0 L 540.0 -557.0 L 532.0 -560.0 L 518.0 -566.0 L 527.0 -574.0 L 552.0 -610.0 L 568.0 -660.0 L 555.0 -660.0 L 355.0 -669.0 L 257.0 -718.0 L 173.0 -757.0 L 71.0 -882.0 L 62.0 -896.0 L 58.0 -923.0 L 45.0 -997.0 L 41.0 -1006.0 L 73.0 -1010.0 L 110.0 -1015.0 L 148.0 -1020.0 L 163.0 -1020.0 L 206.0 -1020.0 L 235.0 -1001.0 L 242.0 -996.0 L 243.0 -976.0 L 240.0 -930.0 L 240.0 -916.0 L 244.0 -910.0 L 336.0 -779.0 L 547.0 -737.0 L 555.0 -734.0 L 565.5 -733.0 L 576.0 -732.0 L 588.0 -731.0 L 593.0 -747.0 L 598.0 -759.0 L 603.0 -771.0 L 608.0 -782.0 L 617.0 -799.0 L 646.0 -800.0 L 706.0 -793.0 L 719.0 -792.0 L 732.0 -791.0 L 745.0 -790.0 Z M 804.0 -1131.0 L 798.0 -1118.0 L 791.5 -1099.5 L 785.0 -1081.0 L 779.0 -1055.0 L 916.0 -1050.0 L 1147.0 -1040.0 L 1193.0 -995.0 L 1050.0 -995.0 L 944.0 -995.0 L 838.0 -995.0 L 758.0 -996.0 L 741.0 -958.0 L 713.0 -929.0 L 702.0 -914.0 L 669.0 -906.0 L 651.0 -901.0 L 636.5 -899.5 L 622.0 -898.0 L 608.0 -898.0 L 585.0 -898.0 L 577.0 -901.0 L 563.0 -907.0 L 572.0 -915.0 L 597.0 -951.0 L 613.0 -1001.0 L 600.0 -1001.0 L 400.0 -1011.0 L 302.0 -1059.0 L 218.0 -1098.0 L 116.0 -1223.0 L 108.0 -1237.0 L 103.0 -1263.0 L 90.0 -1336.0 L 86.0 -1346.0 L 117.0 -1351.0 L 155.0 -1356.0 L 193.0 -1360.0 L 208.0 -1360.0 L 251.0 -1360.0 L 280.0 -1342.0 L 288.0 -1337.0 L 288.0 -1317.0 L 285.0 -1271.0 L 285.0 -1257.0 L 289.0 -1251.0 L 381.0 -1120.0 L 593.0 -1077.0 L 601.0 -1074.0 L 611.0 -1073.5 L 621.0 -1073.0 L 633.0 -1071.0 L 638.0 -1087.0 L 643.0 -1099.5 L 648.0 -1112.0 L 654.0 -1123.0 L 662.0 -1140.0 L 691.0 -1140.0 L 752.0 -1134.0 L 765.0 -1133.0 L 778.0 -1132.0 L 791.0 -1131.0 Z M 1111.0 -270.0 L 1127.0 -234.0 L 1126.0 -200.0 L 1126.0 -116.0 L 1030.0 -74.0 L 932.0 -31.0 L 772.0 -31.0 L 633.0 -31.0 L 457.0 -67.0 L 323.0 -95.0 L 167.0 -167.0 L 0.0 -245.0 L 0.0 -290.0 L 0.0 -309.0 L 23.0 -316.0 L 50.0 -324.0 L 111.0 -324.0 L 144.0 -324.0 L 175.5 -322.5 L 207.0 -321.0 L 239.0 -317.0 L 299.0 -310.0 L 322.0 -298.0 L 322.0 -298.0 L 328.0 -287.0 L 320.0 -278.0 L 314.0 -279.0 L 307.0 -280.0 L 300.0 -281.0 L 290.0 -281.0 L 277.0 -281.0 L 267.5 -280.5 L 258.0 -280.0 L 246.0 -278.0 L 235.0 -279.0 L 236.0 -270.0 L 236.0 -254.0 L 266.0 -225.0 L 283.0 -208.0 L 303.5 -193.5 L 324.0 -179.0 L 348.0 -167.0 L 392.0 -146.0 L 439.5 -131.0 L 487.0 -116.0 L 542.0 -103.0 L 648.0 -78.0 L 750.0 -78.0 L 847.0 -78.0 L 897.0 -103.0 L 952.0 -131.0 L 952.0 -184.0 L 948.0 -211.0 L 940.0 -253.0 L 854.0 -297.0 L 851.0 -302.0 L 849.5 -305.0 L 848.0 -308.0 L 845.0 -312.0 L 858.0 -315.0 L 872.0 -316.5 L 886.0 -318.0 L 903.0 -320.0 L 921.0 -322.0 L 932.5 -323.5 L 944.0 -325.0 L 956.0 -325.0 L 995.0 -325.0 L 1026.0 -317.0 L 1057.0 -309.0 L 1079.0 -297.0 L 1087.0 -293.0 L 1095.0 -285.5 L 1103.0 -278.0 Z" fill="black" fill-opacity="0.25" stroke="black" stroke-width="4.0"/>
  <rect x="53.0" y="-529.0" width="711.0" height="274.0" fill="none" stroke="red" stroke-width="10.0" /><rect x="41.0" y="-1020.0" width="1106.0" height="462.99999999999994" fill="none" stroke="red" stroke-width="10.0" /><rect x="86.0" y="-1360.0" width="1107.0" height="462.00000000000006" fill="none" stroke="red" stroke-width="10.0" /><rect x="0.0" y="-325.0" width="1127.0" height="294.00000000000006" fill="none" stroke="red" stroke-width="10.0" />
</svg>
