<svg xmlns="http://www.w3.org/2000/svg"
  viewBox="-50.0 -1186.0 1248.0 1089.0">
  <rect x="-50.0" y="-1186.0" width="1248.0" height="1089.0" fill="white"/>
  <path d="M 111.0 -640.0 L 163.0 -645.0 L 277.0 -645.0 L 313.0 -645.0 L 352.5 -641.0 L 392.0 -637.0 L 436.0 -627.0 L 462.0 -621.0 L 487.0 -615.0 L 512.0 -609.0 L 574.0 -593.0 L 636.0 -577.0 L 700.0 -529.0 L 763.0 -483.0 L 764.0 -429.0 L 764.0 -400.0 L 748.0 -379.0 L 742.0 -371.0 L 714.0 -372.0 L 673.0 -372.0 L 595.0 -387.0 L 583.0 -389.0 L 564.0 -392.0 L 545.0 -395.0 L 522.0 -401.0 L 546.0 -413.0 L 564.0 -437.0 L 581.0 -461.0 L 572.5 -481.5 L 564.0 -502.0 L 518.0 -528.0 L 472.0 -554.0 L 392.0 -570.0 L 308.0 -587.0 L 222.5 -598.0 L 137.0 -609.0 L 53.0 -622.0 Z M 759.0 -906.0 L 753.0 -894.0 L 746.5 -875.0 L 740.0 -856.0 L 734.0 -831.0 L 871.0 -825.0 L 1102.0 -816.0 L 1148.0 -770.0 L 1006.0 -770.0 L 899.5 -770.0 L 793.0 -770.0 L 713.0 -771.0 L 696.0 -733.0 L 668.0 -705.0 L 657.0 -691.0 L 624.0 -681.0 L 607.0 -676.0 L 592.0 -674.5 L 577.0 -673.0 L 563.0 -673.0 L 540.0 -673.0 L 532.0 -676.0 L 518.0 -682.0 L 528.0 -690.0 L 553.0 -726.0 L 568.0 -776.0 L 555.0 -776.0 L 355.0 -785.0 L 257.0 -834.0 L 173.0 -873.0 L 71.0 -998.0 L 63.0 -1012.0 L 59.0 -1039.0 L 46.0 -1113.0 L 41.0 -1122.0 L 73.0 -1126.0 L 110.0 -1131.0 L 148.0 -1136.0 L 163.0 -1136.0 L 206.0 -1136.0 L 235.0 -1117.0 L 242.0 -1112.0 L 243.0 -1092.0 L 240.0 -1046.0 L 240.0 -1032.0 L 244.0 -1026.0 L 336.0 -895.0 L 548.0 -853.0 L 556.0 -850.0 L 566.0 -849.0 L 576.0 -848.0 L 588.0 -847.0 L 593.0 -863.0 L 598.0 -875.0 L 603.0 -887.0 L 609.0 -898.0 L 618.0 -915.0 L 646.0 -915.0 L 707.0 -909.0 L 720.0 -908.0 L 733.0 -907.0 L 746.0 -906.0 Z M 1111.0 -386.0 L 1127.0 -350.0 L 1127.0 -316.0 L 1127.0 -232.0 L 1030.0 -189.0 L 932.0 -147.0 L 772.0 -147.0 L 633.0 -147.0 L 458.0 -183.0 L 323.0 -211.0 L 167.0 -283.0 L 0.0 -361.0 L 0.0 -406.0 L 0.0 -425.0 L 24.0 -432.0 L 51.0 -440.0 L 111.0 -439.0 L 144.0 -439.0 L 176.0 -438.0 L 208.0 -437.0 L 239.0 -433.0 L 299.0 -426.0 L 322.0 -414.0 L 322.0 -414.0 L 328.0 -403.0 L 321.0 -394.0 L 315.0 -395.0 L 307.5 -396.0 L 300.0 -397.0 L 291.0 -397.0 L 278.0 -397.0 L 268.0 -396.0 L 258.0 -395.0 L 247.0 -394.0 L 236.0 -395.0 L 236.0 -386.0 L 236.0 -370.0 L 266.0 -341.0 L 283.0 -324.0 L 303.0 -309.5 L 323.0 -295.0 L 348.0 -283.0 L 392.0 -262.0 L 439.5 -246.5 L 487.0 -231.0 L 542.0 -219.0 L 648.0 -194.0 L 750.0 -194.0 L 847.0 -194.0 L 897.0 -219.0 L 952.0 -247.0 L 952.0 -300.0 L 948.0 -327.0 L 940.0 -369.0 L 855.0 -413.0 L 852.0 -418.0 L 850.0 -421.0 L 848.0 -424.0 L 845.0 -428.0 L 858.0 -431.0 L 872.0 -432.5 L 886.0 -434.0 L 903.0 -436.0 L 921.0 -438.0 L 932.5 -439.5 L 944.0 -441.0 L 956.0 -441.0 L 995.0 -441.0 L 1025.5 -433.0 L 1056.0 -425.0 L 1080.0 -413.0 L 1088.0 -409.0 L 1095.5 -401.5 L 1103.0 -394.0 Z" fill="black" fill-opacity="0.25" stroke="black" stroke-width="4.0"/>
  <rect x="53.0" y="-645.0" width="711.0" height="274.0" fill="none" stroke="red" stroke-width="10.0" /><rect x="41.0" y="-1136.0" width="1107.0" height="462.99999999999983" fill="none" stroke="red" stroke-width="10.0" /><rect x="0.0" y="-441.0" width="1127.0" height="294.00000000000006" fill="none" stroke="red" stroke-width="10.0" />
</svg>
