<svg xmlns="http://www.w3.org/2000/svg"
  viewBox="-50 -1335 1348.059 1217">
  <rect x="-50" y="-1335" width="1348.059" height="1217" fill="white"/>
  <path d="M 145 -453 L 170 -461 L 224 -460 L 245 -460 L 275 -459.5 L 305 -459 L 336.5 -456.5 L 368 -454 L 396.5 -449 L 425 -444 L 444 -436 L 446 -434 L 446.5 -431.5 L 447 -429 L 448 -427 L 449 -425 L 450 -424 L 442 -415 L 436 -416 L 429 -417 L 422 -418 L 412 -418 L 400 -418 L 390 -417.5 L 380 -417 L 369 -415 L 365 -415 L 361.5 -414 L 358 -413 L 358 -407 L 358 -391 L 387 -362 L 412 -337 L 448.5 -316 L 485 -295 L 528 -279 L 571 -263 L 617.5 -251 L 664 -239 L 709.5 -231 L 755 -223 L 797 -219 L 839 -215 L 872 -215 L 890 -215 L 911.5 -216 L 933 -217 L 955.5 -221 L 978 -225 L 999 -232 L 1020 -239 L 1036.5 -251 L 1053 -263 L 1063 -280 L 1073 -297 L 1073 -321 L 1070 -348 L 1062 -390 L 976 -434 L 973 -438 L 971.5 -441.5 L 970 -445 L 967 -450 L 980 -453 L 994 -454 L 1008 -455 L 1025 -458 L 1042 -460 L 1054 -461 L 1066 -462 L 1078 -462 L 1118 -462 L 1148 -454.5 L 1178 -447 L 1201 -434 L 1209 -430 L 1217 -422.5 L 1225 -415 L 1233 -407 L 1249 -370 L 1248 -337 L 1248 -299 L 1229.5 -271.5 L 1211 -244 L 1181 -225.5 L 1151 -207 L 1112 -195.5 L 1073 -184 L 1034 -178 L 995 -172 L 958 -170 L 921 -168 L 894 -168 L 823 -168 L 745.5 -177 L 668 -186 L 580 -204 L 512 -218 L 440 -243 L 368 -268 L 289 -304 L 122 -381 L 122 -428 L 122 -447 Z M 569 -829 L 569 -830 L 570 -831 L 571 -831 L 575 -832 L 577 -833 L 573 -839 L 569 -844 L 575 -846 L 622 -863 L 662 -876.5 L 702 -890 L 736 -901.5 L 770 -913 L 797.5 -923 L 825 -933 L 845 -943 L 925 -984 L 970 -1057 L 977 -1069 L 984.5 -1087 L 992 -1105 L 1001 -1128 L 1010 -1151 L 1021.5 -1180 L 1033 -1209 L 1049 -1245 L 1050 -1248 L 1053.5 -1249.5 L 1057 -1251 L 1061 -1251 L 1065 -1251 L 1069.5 -1252 L 1074 -1253 L 1078 -1255 L 1090 -1262 L 1098 -1266.5 L 1106 -1271 L 1110 -1272 L 1122 -1278 L 1130.5 -1281 L 1139 -1284 L 1142 -1285 L 1155 -1285 L 1160 -1285 L 1165.5 -1284.5 L 1171 -1284 L 1176 -1282 L 1180 -1281 L 1185 -1280.5 L 1190 -1280 L 1195 -1279 L 1200 -1278 L 1204.5 -1276.5 L 1209 -1275 L 1213 -1271 L 1216 -1268 L 1209.5 -1265.5 L 1203 -1263 L 1198 -1260 L 1161 -1235 L 1158 -1228 L 1152 -1203 L 1146.5 -1181.5 L 1141 -1160 L 1133.5 -1140.5 L 1126 -1121 L 1116 -1102 L 1106 -1083 L 1090 -1063 L 1092 -1064 L 1093 -1064 L 1094 -1064 L 1089 -1059 L 1086 -1056 L 1086 -1055 L 1086 -1055 L 1090 -1063 L 1089 -1063 L 1088 -1061.5 L 1087 -1060 L 1085 -1059 L 1047 -1033 L 1010 -1005 L 973 -977 L 938 -947 L 927 -938 L 919.5 -931 L 912 -924 L 908 -920 L 908 -919 L 906 -918 L 906 -918 L 905 -917 L 911 -919 L 916 -921.5 L 921 -924 L 924 -926 L 929 -929 L 930 -929 L 930 -929 L 928 -927 L 927 -926 L 923.5 -924 L 920 -922 L 917 -920.5 L 914 -919 L 911 -918 L 908 -917 L 906 -917 L 905 -917 L 905 -917 L 893 -911 L 877.5 -904 L 862 -897 L 845 -890 L 828 -883 L 811.5 -877.5 L 795 -872 L 781 -870 L 772 -869 L 758.5 -868 L 745 -867 L 733.5 -866.5 L 722 -866 L 716.5 -865 L 711 -864 L 717 -862 L 725 -859 L 733.5 -858 L 742 -857 L 751 -857 L 763 -857 L 775 -858 L 787 -859 L 800 -859 L 825 -859 L 848.5 -852 L 872 -845 L 892 -829 L 911 -815 L 911 -810 L 914 -802 L 900 -802 L 887 -802 L 875.5 -803.5 L 864 -805 L 852 -807 L 835 -810 L 812 -812.5 L 789 -815 L 762 -819 L 735 -823 L 713 -825 L 691 -827 L 669 -827 L 665 -828 L 660.5 -828 L 656 -828 L 653 -828 L 639 -828 L 625 -827.5 L 611 -827 L 597 -826 L 594 -825 L 589.5 -823 L 585 -821 L 577 -821 L 572 -821 Z M 8 -593 L 3 -593 L 0 -601 L 0 -602 L 2 -602 L 3 -602 L 6 -604 L 8 -605 L 4 -610 L 0 -615 L 6 -618 L 52 -635 L 92.5 -648 L 133 -661 L 167 -672.5 L 201 -684 L 228.5 -694 L 256 -704 L 277 -714 L 357 -755 L 402 -829 L 409 -841 L 416.5 -858.5 L 424 -876 L 432.5 -899 L 441 -922 L 452.5 -951.5 L 464 -981 L 480 -1016 L 481 -1019 L 484 -1020.5 L 487 -1022 L 491.5 -1022.5 L 496 -1023 L 500.5 -1023.5 L 505 -1024 L 509 -1027 L 521 -1034 L 529 -1038 L 537 -1042 L 541 -1044 L 553 -1050 L 561.5 -1052.5 L 570 -1055 L 573 -1057 L 587 -1057 L 592 -1057 L 597 -1056.5 L 602 -1056 L 608 -1054 L 612 -1053 L 616.5 -1052 L 621 -1051 L 626 -1050.5 L 631 -1050 L 636 -1048 L 640 -1047 L 644 -1043 L 645 -1042 L 644 -1040 L 643 -1038 L 640 -1037 L 637 -1036 L 634.5 -1034.5 L 632 -1033 L 630 -1032 L 593 -1006 L 589 -999 L 581 -965 L 574 -941 L 567 -917 L 559 -897 L 557 -891 L 552.5 -883 L 548 -875 L 542 -865.5 L 536 -856 L 530.5 -847.5 L 525 -839 L 521 -834 L 521 -834 L 523 -834 L 525 -834 L 520 -830 L 516 -826 L 516 -826 L 521 -834 L 517 -832 L 506.5 -825 L 496 -818 L 482 -808 L 468 -798 L 452.5 -785.5 L 437 -773 L 421 -760 L 405 -748 L 392.5 -737.5 L 380 -727 L 369 -718 L 358 -709 L 350.5 -702.5 L 343 -696 L 339 -692 L 339 -691 L 337 -689 L 337 -689 L 337 -688 L 343 -690 L 347.5 -692.5 L 352 -695 L 356 -697 L 361 -700 L 362 -700 L 362 -700 L 359 -699 L 358 -698 L 354.5 -696 L 351 -694 L 348 -692 L 345 -690 L 342 -689 L 339 -688 L 338 -688 L 337 -688 L 337 -688 L 325 -682 L 309 -675 L 293 -668 L 276 -661 L 259 -654 L 242.5 -649 L 226 -644 L 213 -641 L 204 -640 L 190 -639.5 L 176 -639 L 164.5 -638.5 L 153 -638 L 147.5 -637 L 142 -636 L 149 -633 L 157 -630 L 165.5 -629 L 174 -628 L 182 -628 L 194 -628 L 206 -629 L 218 -630 L 231 -630 L 256 -630 L 279.5 -623 L 303 -616 L 323 -601 L 341 -587 L 342 -582 L 345 -574 L 331 -574 L 318 -574 L 307 -575 L 296 -576 L 283 -579 L 265 -582 L 242.5 -584.5 L 220 -587 L 194 -591 L 167 -595 L 144.5 -597 L 122 -599 L 100 -599 L 96 -600 L 92 -600 L 88 -600 L 84 -600 L 70 -600 L 56 -599.5 L 42 -599 L 28 -597 L 25 -596 L 20.5 -594.5 L 16 -593 Z M 652 -718 L 652 -723 L 666 -723 L 677 -723 L 688.5 -721.5 L 700 -720 L 712 -718 L 727 -716 L 735.5 -714 L 744 -712 L 751 -711 L 814 -700 L 832 -615 L 843 -564 L 852 -547 L 857 -538 L 879 -533 L 897 -529 L 896 -529 L 896 -526 L 895 -526.5 L 894 -527 L 891 -521 L 884 -507 L 846 -507 L 827 -507 L 805 -512.5 L 783 -518 L 757 -527 L 706 -546 L 688 -660 L 681 -707 L 668 -708 L 668 -708 L 667.5 -707.5 L 667 -707 L 666 -707 L 665 -707 L 661 -707 L 651 -707 Z" fill="black" fill-opacity="0.25" stroke="black" stroke-width="4"/>
  <rect x="122" y="-462" width="1127" height="294" fill="none" stroke="red" stroke-width="10" /><rect x="651" y="-723" width="246" height="216" fill="none" stroke="red" stroke-width="10" /><rect x="569" y="-963" width="387.7" height="161" fill="none" stroke="red" stroke-width="10" /><rect x="884" y="-1124" width="243.2" height="161" fill="none" stroke="red" stroke-width="10" /><rect x="999.4" y="-1285" width="216.6" height="161" fill="none" stroke="red" stroke-width="10" /><rect x="0" y="-735" width="389.5" height="161" fill="none" stroke="red" stroke-width="10" /><rect x="318" y="-896" width="240.7" height="161" fill="none" stroke="red" stroke-width="10" /><rect x="431.4" y="-1057" width="213.6" height="161" fill="none" stroke="red" stroke-width="10" />
</svg>
