<svg xmlns="http://www.w3.org/2000/svg"
  viewBox="-50.0 -1076.0 1556.5 957.0">
  <rect x="-50.0" y="-1076.0" width="1556.5" height="957.0" fill="white"/>
  <path d="M 59.0 -453.0 L 84.0 -461.0 L 138.0 -461.0 L 159.0 -461.0 L 189.0 -460.5 L 219.0 -460.0 L 250.5 -457.5 L 282.0 -455.0 L 310.5 -450.0 L 339.0 -445.0 L 357.0 -436.0 L 359.0 -434.0 L 360.0 -432.0 L 361.0 -430.0 L 362.0 -428.0 L 363.0 -426.0 L 364.0 -425.0 L 356.0 -416.0 L 350.0 -417.0 L 342.5 -418.0 L 335.0 -419.0 L 326.0 -419.0 L 314.0 -419.0 L 303.5 -418.0 L 293.0 -417.0 L 283.0 -416.0 L 279.0 -416.0 L 275.0 -415.0 L 271.0 -414.0 L 271.0 -408.0 L 271.0 -392.0 L 301.0 -363.0 L 327.0 -338.0 L 360.5 -318.5 L 394.0 -299.0 L 431.0 -284.5 L 468.0 -270.0 L 505.5 -259.5 L 543.0 -249.0 L 578.0 -241.0 L 680.0 -216.0 L 786.0 -216.0 L 803.0 -216.0 L 824.5 -217.0 L 846.0 -218.0 L 868.5 -222.0 L 891.0 -226.0 L 913.0 -233.0 L 935.0 -240.0 L 951.5 -252.0 L 968.0 -264.0 L 978.0 -281.0 L 988.0 -298.0 L 987.0 -322.0 L 984.0 -348.0 L 976.0 -390.0 L 890.0 -435.0 L 887.0 -439.0 L 885.5 -442.5 L 884.0 -446.0 L 881.0 -451.0 L 894.0 -454.0 L 907.5 -455.0 L 921.0 -456.0 L 939.0 -458.0 L 956.0 -460.0 L 967.5 -461.5 L 979.0 -463.0 L 992.0 -463.0 L 1032.0 -463.0 L 1062.0 -455.5 L 1092.0 -448.0 L 1115.0 -435.0 L 1123.0 -431.0 L 1131.0 -423.5 L 1139.0 -416.0 L 1146.0 -408.0 L 1162.0 -371.0 L 1162.0 -338.0 L 1162.0 -300.0 L 1143.0 -272.5 L 1124.0 -245.0 L 1093.5 -226.0 L 1063.0 -207.0 L 1025.0 -196.0 L 987.0 -185.0 L 947.5 -179.0 L 908.0 -173.0 L 871.0 -171.0 L 834.0 -169.0 L 808.0 -169.0 L 670.0 -169.0 L 494.0 -205.0 L 426.0 -219.0 L 354.0 -243.5 L 282.0 -268.0 L 203.0 -305.0 L 36.0 -382.0 L 36.0 -429.0 L 36.0 -447.0 Z M 8.0 -562.0 L 3.0 -562.0 L 0.0 -570.0 L 0.0 -571.0 L 1.0 -572.0 L 2.0 -572.0 L 6.0 -573.0 L 8.0 -574.0 L 3.0 -580.0 L -1.0 -585.0 L 6.0 -587.0 L 52.0 -604.0 L 92.5 -617.5 L 133.0 -631.0 L 167.0 -642.0 L 201.0 -653.0 L 228.5 -663.0 L 256.0 -673.0 L 277.0 -684.0 L 356.0 -726.0 L 402.0 -798.0 L 409.0 -810.0 L 416.5 -827.5 L 424.0 -845.0 L 432.5 -868.5 L 441.0 -892.0 L 452.5 -921.5 L 464.0 -951.0 L 480.0 -986.0 L 481.0 -989.0 L 484.5 -990.0 L 488.0 -991.0 L 492.0 -992.0 L 496.0 -993.0 L 500.5 -993.5 L 505.0 -994.0 L 510.0 -996.0 L 522.0 -1003.0 L 529.5 -1007.5 L 537.0 -1012.0 L 541.0 -1014.0 L 553.0 -1020.0 L 562.0 -1022.5 L 571.0 -1025.0 L 574.0 -1026.0 L 587.0 -1026.0 L 592.0 -1026.0 L 597.0 -1025.5 L 602.0 -1025.0 L 608.0 -1023.0 L 612.0 -1022.0 L 616.5 -1021.5 L 621.0 -1021.0 L 626.0 -1020.0 L 631.0 -1019.0 L 635.5 -1017.5 L 640.0 -1016.0 L 644.0 -1012.0 L 645.0 -1011.0 L 644.0 -1009.5 L 643.0 -1008.0 L 640.0 -1006.5 L 637.0 -1005.0 L 634.0 -1004.0 L 631.0 -1003.0 L 630.0 -1001.0 L 592.0 -975.0 L 589.0 -969.0 L 581.0 -935.0 L 574.0 -911.0 L 567.0 -887.0 L 560.0 -867.0 L 558.0 -861.0 L 553.0 -852.5 L 548.0 -844.0 L 542.0 -835.0 L 536.0 -826.0 L 530.5 -817.5 L 525.0 -809.0 L 521.0 -804.0 L 521.0 -804.0 L 522.0 -804.0 L 523.0 -805.0 L 525.0 -805.0 L 520.0 -800.0 L 517.0 -797.0 L 517.0 -796.0 L 517.0 -796.0 L 521.0 -804.0 L 517.0 -802.0 L 507.0 -795.0 L 497.0 -788.0 L 483.0 -777.5 L 469.0 -767.0 L 453.0 -755.0 L 437.0 -743.0 L 421.0 -729.0 L 405.0 -717.0 L 392.5 -707.0 L 380.0 -697.0 L 369.0 -688.0 L 358.0 -679.0 L 350.5 -672.0 L 343.0 -665.0 L 339.0 -661.0 L 339.0 -660.0 L 337.0 -659.0 L 337.0 -659.0 L 337.0 -658.0 L 343.0 -660.0 L 347.5 -662.5 L 352.0 -665.0 L 356.0 -667.0 L 361.0 -670.0 L 362.0 -670.0 L 362.0 -670.0 L 359.0 -668.0 L 358.0 -667.0 L 355.0 -665.0 L 352.0 -663.0 L 348.5 -661.5 L 345.0 -660.0 L 342.0 -659.0 L 339.0 -658.0 L 338.0 -658.0 L 337.0 -658.0 L 337.0 -658.0 L 325.0 -652.0 L 309.0 -645.0 L 293.0 -638.0 L 276.0 -631.0 L 259.0 -624.0 L 242.5 -618.5 L 226.0 -613.0 L 213.0 -611.0 L 204.0 -610.0 L 190.0 -609.5 L 176.0 -609.0 L 164.5 -608.5 L 153.0 -608.0 L 147.5 -607.0 L 142.0 -606.0 L 149.0 -603.0 L 157.0 -600.0 L 165.5 -599.0 L 174.0 -598.0 L 183.0 -598.0 L 195.0 -598.0 L 207.5 -599.0 L 220.0 -600.0 L 233.0 -600.0 L 236.0 -600.0 L 238.5 -599.5 L 241.0 -599.0 L 244.0 -599.0 L 289.0 -596.0 L 324.0 -570.0 L 342.0 -556.0 L 342.0 -551.0 L 345.0 -543.0 L 331.0 -543.0 L 318.0 -543.0 L 307.0 -544.5 L 296.0 -546.0 L 283.0 -548.0 L 265.0 -551.0 L 242.5 -553.5 L 220.0 -556.0 L 194.0 -560.0 L 167.0 -564.0 L 144.5 -566.0 L 122.0 -568.0 L 100.0 -568.0 L 96.0 -569.0 L 92.0 -569.0 L 88.0 -569.0 L 84.0 -569.0 L 70.0 -569.0 L 56.0 -568.5 L 42.0 -568.0 L 28.0 -567.0 L 25.0 -566.0 L 20.5 -564.0 L 16.0 -562.0 Z M 813.0 -570.0 L 813.0 -571.0 L 814.0 -572.0 L 815.0 -572.0 L 819.0 -573.0 L 821.0 -574.0 L 816.0 -580.0 L 812.0 -585.0 L 819.0 -587.0 L 865.0 -604.0 L 905.5 -617.5 L 946.0 -631.0 L 980.0 -642.0 L 1014.0 -653.0 L 1041.5 -663.0 L 1069.0 -673.0 L 1089.0 -684.0 L 1168.0 -726.0 L 1214.0 -798.0 L 1221.0 -810.0 L 1228.5 -827.5 L 1236.0 -845.0 L 1245.0 -868.5 L 1254.0 -892.0 L 1265.5 -921.5 L 1277.0 -951.0 L 1292.0 -986.0 L 1293.0 -989.0 L 1296.5 -990.0 L 1300.0 -991.0 L 1304.5 -992.0 L 1309.0 -993.0 L 1313.5 -993.5 L 1318.0 -994.0 L 1322.0 -996.0 L 1334.0 -1003.0 L 1342.0 -1007.5 L 1350.0 -1012.0 L 1353.0 -1014.0 L 1365.0 -1020.0 L 1374.0 -1022.5 L 1383.0 -1025.0 L 1386.0 -1026.0 L 1399.0 -1026.0 L 1404.0 -1026.0 L 1409.5 -1025.5 L 1415.0 -1025.0 L 1420.0 -1023.0 L 1424.0 -1022.0 L 1429.0 -1021.5 L 1434.0 -1021.0 L 1438.5 -1020.0 L 1443.0 -1019.0 L 1448.0 -1017.5 L 1453.0 -1016.0 L 1456.0 -1012.0 L 1457.0 -1011.0 L 1456.0 -1009.5 L 1455.0 -1008.0 L 1452.5 -1006.5 L 1450.0 -1005.0 L 1447.0 -1004.0 L 1444.0 -1003.0 L 1442.0 -1001.0 L 1404.0 -975.0 L 1402.0 -969.0 L 1394.0 -935.0 L 1386.5 -911.0 L 1379.0 -887.0 L 1372.0 -867.0 L 1370.0 -861.0 L 1365.0 -852.5 L 1360.0 -844.0 L 1354.5 -835.0 L 1349.0 -826.0 L 1343.0 -817.5 L 1337.0 -809.0 L 1333.0 -804.0 L 1333.0 -804.0 L 1334.0 -804.0 L 1335.0 -804.0 L 1335.0 -804.0 L 1335.0 -805.0 L 1337.0 -805.0 L 1333.0 -800.0 L 1330.0 -797.0 L 1329.0 -796.0 L 1329.0 -796.0 L 1333.0 -804.0 L 1329.0 -802.0 L 1319.5 -795.0 L 1310.0 -788.0 L 1296.0 -777.5 L 1282.0 -767.0 L 1265.5 -755.0 L 1249.0 -743.0 L 1233.0 -729.0 L 1217.0 -717.0 L 1204.5 -707.0 L 1192.0 -697.0 L 1182.0 -688.0 L 1171.0 -679.0 L 1163.5 -672.0 L 1156.0 -665.0 L 1152.0 -661.0 L 1152.0 -660.0 L 1150.0 -659.0 L 1150.0 -659.0 L 1149.0 -658.0 L 1155.0 -660.0 L 1160.0 -662.5 L 1165.0 -665.0 L 1168.0 -667.0 L 1173.0 -670.0 L 1174.0 -670.0 L 1174.0 -670.0 L 1172.0 -668.0 L 1171.0 -667.0 L 1167.5 -665.0 L 1164.0 -663.0 L 1161.0 -661.5 L 1158.0 -660.0 L 1155.0 -659.0 L 1152.0 -658.0 L 1150.0 -658.0 L 1149.0 -658.0 L 1149.0 -658.0 L 1137.0 -652.0 L 1121.0 -645.0 L 1105.0 -638.0 L 1088.5 -631.0 L 1072.0 -624.0 L 1055.5 -618.5 L 1039.0 -613.0 L 1025.0 -611.0 L 1016.0 -610.0 L 1002.5 -609.5 L 989.0 -609.0 L 977.0 -608.5 L 965.0 -608.0 L 959.5 -607.0 L 954.0 -606.0 L 961.0 -603.0 L 969.0 -600.0 L 977.5 -599.0 L 986.0 -598.0 L 996.0 -598.0 L 1008.0 -598.0 L 1020.5 -599.0 L 1033.0 -600.0 L 1045.0 -600.0 L 1048.0 -600.0 L 1051.0 -599.5 L 1054.0 -599.0 L 1057.0 -599.0 L 1102.0 -596.0 L 1136.0 -570.0 L 1154.0 -556.0 L 1155.0 -551.0 L 1158.0 -543.0 L 1144.0 -543.0 L 1131.0 -543.0 L 1119.5 -544.5 L 1108.0 -546.0 L 1096.0 -548.0 L 1078.0 -551.0 L 1055.5 -553.5 L 1033.0 -556.0 L 1006.0 -560.0 L 979.0 -564.0 L 957.0 -566.0 L 935.0 -568.0 L 913.0 -568.0 L 909.0 -569.0 L 904.5 -569.0 L 900.0 -569.0 L 896.0 -569.0 L 882.0 -569.0 L 868.5 -568.5 L 855.0 -568.0 L 841.0 -567.0 L 838.0 -566.0 L 833.5 -564.0 L 829.0 -562.0 L 821.0 -562.0 L 816.0 -562.0 Z" fill="black" fill-opacity="0.25" stroke="black" stroke-width="4.0"/>
  <rect x="36.0" y="-463.0" width="1126.0" height="294.00000000000006" fill="none" stroke="red" stroke-width="10.0" /><rect x="-1.0" y="-704.0" width="389.7" height="160.99999999999991" fill="none" stroke="red" stroke-width="10.0" /><rect x="314.59999999999997" y="-865.0" width="244.70000000000002" height="161.00000000000003" fill="none" stroke="red" stroke-width="10.0" /><rect x="431.20000000000005" y="-1026.0" width="213.79999999999998" height="161.00000000000003" fill="none" stroke="red" stroke-width="10.0" /><rect x="812.0" y="-704.0" width="388.70000000000005" height="160.99999999999991" fill="none" stroke="red" stroke-width="10.0" /><rect x="1126.6000000000001" y="-865.0" width="244.69999999999993" height="161.00000000000003" fill="none" stroke="red" stroke-width="10.0" /><rect x="1243.7" y="-1026.0" width="213.30000000000004" height="161.00000000000003" fill="none" stroke="red" stroke-width="10.0" />
</svg>
