<svg xmlns="http://www.w3.org/2000/svg"
  viewBox="-50.0 -918.0 1240.0 799.0">
  <rect x="-50.0" y="-918.0" width="1240.0" height="799.0" fill="white"/>
  <path d="M 0.0 -746.0 L 0.0 -774.0 L 14.0 -794.0 L 28.0 -814.0 L 50.0 -827.5 L 72.0 -841.0 L 99.5 -849.0 L 127.0 -857.0 L 155.5 -861.0 L 184.0 -865.0 L 210.5 -866.5 L 237.0 -868.0 L 257.0 -868.0 L 317.0 -868.0 L 374.0 -862.5 L 431.0 -857.0 L 488.0 -847.0 L 545.0 -837.0 L 601.0 -823.0 L 657.0 -809.0 L 714.0 -793.0 L 831.0 -760.0 L 980.0 -662.0 L 1126.0 -566.0 L 1125.0 -524.0 L 1125.0 -505.0 L 1089.0 -505.0 L 1042.0 -505.0 L 992.0 -511.5 L 942.0 -518.0 L 896.0 -529.0 L 907.0 -633.0 L 732.0 -716.0 L 564.0 -796.0 L 392.0 -796.0 L 375.0 -796.0 L 354.5 -794.5 L 334.0 -793.0 L 312.5 -789.0 L 291.0 -785.0 L 270.5 -778.0 L 250.0 -771.0 L 233.5 -759.5 L 217.0 -748.0 L 207.0 -731.5 L 197.0 -715.0 L 196.0 -693.0 L 195.0 -662.0 L 241.0 -625.0 L 301.0 -579.0 L 305.0 -579.0 L 166.0 -580.0 L 96.0 -608.0 L 49.0 -628.0 L 17.0 -677.0 L 0.0 -717.0 Z M 37.0 -454.0 L 50.0 -458.0 L 69.5 -459.5 L 89.0 -461.0 L 116.0 -461.0 L 137.0 -461.0 L 167.0 -460.5 L 197.0 -460.0 L 228.5 -457.5 L 260.0 -455.0 L 288.5 -450.0 L 317.0 -445.0 L 335.0 -436.0 L 337.0 -434.0 L 338.0 -432.0 L 339.0 -430.0 L 340.0 -428.0 L 341.0 -426.0 L 342.0 -425.0 L 334.0 -416.0 L 328.0 -417.0 L 320.5 -418.0 L 313.0 -419.0 L 304.0 -419.0 L 292.0 -419.0 L 281.5 -418.0 L 271.0 -417.0 L 261.0 -416.0 L 257.0 -416.0 L 253.0 -415.0 L 249.0 -414.0 L 249.0 -408.0 L 249.0 -392.0 L 279.0 -363.0 L 304.0 -338.0 L 340.5 -317.0 L 377.0 -296.0 L 420.0 -280.0 L 463.0 -264.0 L 509.5 -252.0 L 556.0 -240.0 L 601.5 -232.0 L 647.0 -224.0 L 688.5 -220.0 L 730.0 -216.0 L 763.0 -216.0 L 781.0 -216.0 L 803.0 -217.0 L 825.0 -218.0 L 847.0 -222.0 L 869.0 -226.0 L 890.5 -233.0 L 912.0 -240.0 L 928.5 -252.0 L 945.0 -264.0 L 955.0 -281.0 L 965.0 -298.0 L 965.0 -322.0 L 962.0 -349.0 L 954.0 -391.0 L 868.0 -435.0 L 865.0 -439.0 L 863.5 -442.5 L 862.0 -446.0 L 859.0 -451.0 L 872.0 -454.0 L 885.5 -455.0 L 899.0 -456.0 L 917.0 -458.0 L 934.0 -460.0 L 945.5 -461.5 L 957.0 -463.0 L 970.0 -463.0 L 1010.0 -463.0 L 1040.0 -455.5 L 1070.0 -448.0 L 1093.0 -435.0 L 1101.0 -431.0 L 1109.0 -423.5 L 1117.0 -416.0 L 1124.0 -408.0 L 1140.0 -371.0 L 1140.0 -338.0 L 1140.0 -300.0 L 1121.0 -272.5 L 1102.0 -245.0 L 1071.5 -226.0 L 1041.0 -207.0 L 1003.0 -196.0 L 965.0 -185.0 L 925.5 -179.0 L 886.0 -173.0 L 849.0 -171.0 L 812.0 -169.0 L 785.0 -169.0 L 715.0 -169.0 L 637.0 -178.0 L 559.0 -187.0 L 471.0 -205.0 L 403.0 -219.0 L 331.0 -243.5 L 259.0 -268.0 L 180.0 -305.0 L 13.0 -382.0 L 13.0 -429.0 L 14.0 -448.0 Z" fill="black" fill-opacity="0.25" stroke="black" stroke-width="4.0"/>
  <rect x="0.0" y="-868.0" width="1126.0" height="363.0" fill="none" stroke="red" stroke-width="10.0" /><rect x="13.0" y="-463.0" width="1127.0" height="294.00000000000006" fill="none" stroke="red" stroke-width="10.0" />
</svg>
