<svg xmlns="http://www.w3.org/2000/svg"
  viewBox="-50.0 -1368.0 1309.0 1247.0">
  <rect x="-50.0" y="-1368.0" width="1309.0" height="1247.0" fill="white"/>
  <path d="M 103.0 -1304.0 L 119.0 -1306.0 L 136.0 -1308.5 L 153.0 -1311.0 L 172.0 -1313.0 L 191.0 -1315.0 L 204.0 -1316.5 L 217.0 -1318.0 L 225.0 -1318.0 L 268.0 -1318.0 L 297.0 -1299.0 L 304.0 -1294.0 L 305.0 -1274.0 L 302.0 -1229.0 L 302.0 -1216.0 L 306.0 -1209.0 L 399.0 -1077.0 L 609.0 -1036.0 L 617.0 -1033.0 L 627.5 -1032.0 L 638.0 -1031.0 L 650.0 -1029.0 L 655.0 -1045.0 L 660.0 -1057.0 L 665.0 -1069.0 L 670.0 -1081.0 L 678.0 -1098.0 L 708.0 -1098.0 L 769.0 -1092.0 L 782.0 -1091.0 L 795.0 -1089.5 L 808.0 -1088.0 L 820.0 -1088.0 L 814.0 -1076.0 L 808.0 -1057.5 L 802.0 -1039.0 L 795.0 -1014.0 L 933.0 -1007.0 L 1164.0 -997.0 L 1209.0 -953.0 L 1036.0 -953.0 L 957.0 -953.0 L 893.0 -953.0 L 829.0 -953.0 L 775.0 -954.0 L 758.0 -916.0 L 730.0 -887.0 L 722.0 -877.0 L 708.0 -871.0 L 694.0 -865.0 L 678.0 -861.5 L 662.0 -858.0 L 645.5 -857.0 L 629.0 -856.0 L 618.0 -856.0 L 601.0 -856.0 L 594.0 -859.0 L 580.0 -865.0 L 589.0 -873.0 L 602.0 -891.0 L 612.0 -912.5 L 622.0 -934.0 L 630.0 -959.0 L 617.0 -959.0 L 417.0 -969.0 L 319.0 -1017.0 L 235.0 -1056.0 L 133.0 -1181.0 L 125.0 -1194.0 L 121.0 -1221.0 L 108.0 -1294.0 Z M 0.0 -745.0 L 0.0 -773.0 L 13.5 -793.0 L 27.0 -813.0 L 49.0 -826.5 L 71.0 -840.0 L 98.5 -848.0 L 126.0 -856.0 L 155.0 -860.0 L 184.0 -864.0 L 210.5 -865.5 L 237.0 -867.0 L 256.0 -867.0 L 308.0 -867.0 L 362.5 -862.0 L 417.0 -857.0 L 477.0 -848.0 L 537.0 -839.0 L 595.0 -824.0 L 653.0 -810.0 L 714.0 -792.0 L 773.0 -775.0 L 839.0 -742.0 L 905.0 -709.0 L 980.0 -661.0 L 1126.0 -565.0 L 1125.0 -523.0 L 1125.0 -504.0 L 1089.0 -504.0 L 1042.0 -504.0 L 992.0 -511.0 L 942.0 -518.0 L 896.0 -528.0 L 908.0 -632.0 L 731.0 -715.0 L 564.0 -795.0 L 392.0 -795.0 L 375.0 -795.0 L 354.5 -793.5 L 334.0 -792.0 L 312.5 -788.0 L 291.0 -784.0 L 270.5 -777.0 L 250.0 -770.0 L 233.5 -758.5 L 217.0 -747.0 L 206.5 -730.5 L 196.0 -714.0 L 195.0 -692.0 L 194.0 -661.0 L 241.0 -625.0 L 299.0 -580.0 L 304.0 -578.0 L 165.0 -579.0 L 95.0 -607.0 L 48.0 -627.0 L 17.0 -676.0 L 0.0 -716.0 Z M 97.0 -456.0 L 110.0 -460.0 L 129.5 -462.0 L 149.0 -464.0 L 176.0 -464.0 L 197.0 -464.0 L 227.0 -463.5 L 257.0 -463.0 L 288.5 -460.5 L 320.0 -458.0 L 348.5 -453.0 L 377.0 -448.0 L 396.0 -439.0 L 398.0 -437.0 L 398.5 -434.5 L 399.0 -432.0 L 400.0 -431.0 L 401.0 -429.0 L 402.0 -428.0 L 394.0 -418.0 L 388.0 -419.0 L 381.0 -420.5 L 374.0 -422.0 L 364.0 -422.0 L 352.0 -422.0 L 342.0 -421.0 L 332.0 -420.0 L 321.0 -418.0 L 317.0 -418.0 L 313.5 -417.0 L 310.0 -416.0 L 310.0 -411.0 L 310.0 -395.0 L 339.0 -365.0 L 364.0 -340.0 L 401.0 -319.5 L 438.0 -299.0 L 480.5 -282.5 L 523.0 -266.0 L 569.5 -254.0 L 616.0 -242.0 L 662.0 -234.0 L 708.0 -226.0 L 749.5 -222.0 L 791.0 -218.0 L 824.0 -218.0 L 842.0 -218.0 L 863.5 -219.5 L 885.0 -221.0 L 907.5 -224.5 L 930.0 -228.0 L 951.0 -235.0 L 972.0 -242.0 L 988.5 -254.0 L 1005.0 -266.0 L 1015.0 -283.5 L 1025.0 -301.0 L 1025.0 -325.0 L 1022.0 -351.0 L 1014.0 -393.0 L 928.0 -437.0 L 925.0 -441.0 L 923.5 -444.5 L 922.0 -448.0 L 919.0 -453.0 L 932.0 -456.0 L 945.5 -457.0 L 959.0 -458.0 L 977.0 -461.0 L 994.0 -463.0 L 1006.0 -464.0 L 1018.0 -465.0 L 1030.0 -465.0 L 1070.0 -465.0 L 1100.0 -457.5 L 1130.0 -450.0 L 1153.0 -437.0 L 1161.0 -433.0 L 1169.0 -425.5 L 1177.0 -418.0 L 1185.0 -411.0 L 1201.0 -374.0 L 1200.0 -340.0 L 1200.0 -302.0 L 1181.5 -275.0 L 1163.0 -248.0 L 1133.0 -229.0 L 1103.0 -210.0 L 1064.0 -198.5 L 1025.0 -187.0 L 986.0 -181.0 L 947.0 -175.0 L 910.0 -173.0 L 873.0 -171.0 L 846.0 -171.0 L 776.0 -171.0 L 698.0 -180.0 L 620.0 -189.0 L 532.0 -208.0 L 464.0 -222.0 L 391.5 -246.5 L 319.0 -271.0 L 241.0 -308.0 L 74.0 -385.0 L 74.0 -431.0 L 74.0 -450.0 Z" fill="black" fill-opacity="0.25" stroke="black" stroke-width="4.0"/>
  <rect x="103.0" y="-1318.0" width="1106.0" height="462.00000000000006" fill="none" stroke="red" stroke-width="10.0" /><rect x="0.0" y="-867.0" width="1126.0" height="363.0" fill="none" stroke="red" stroke-width="10.0" /><rect x="74.0" y="-465.0" width="1127.0" height="294.00000000000006" fill="none" stroke="red" stroke-width="10.0" />
</svg>
