<svg xmlns="http://www.w3.org/2000/svg"
  viewBox="-50.0 -694.0 1226.0 591.0">
  <rect x="-50.0" y="-694.0" width="1226.0" height="591.0" fill="white"/>
  <path d="M 1110.0 -392.0 L 1126.0 -356.0 L 1126.0 -321.0 L 1126.0 -236.0 L 1029.0 -195.0 L 930.0 -153.0 L 772.0 -153.0 L 633.0 -153.0 L 458.0 -189.0 L 323.0 -216.0 L 167.0 -289.0 L 0.0 -367.0 L 0.0 -412.0 L 0.0 -431.0 L 23.0 -437.0 L 51.0 -445.0 L 110.0 -445.0 L 143.0 -445.0 L 175.5 -443.5 L 208.0 -442.0 L 239.0 -439.0 L 298.0 -432.0 L 321.0 -420.0 L 327.0 -409.0 L 328.0 -409.0 L 320.0 -399.0 L 314.0 -401.0 L 306.5 -402.0 L 299.0 -403.0 L 290.0 -403.0 L 278.0 -403.0 L 267.5 -402.0 L 257.0 -401.0 L 247.0 -399.0 L 236.0 -401.0 L 235.0 -392.0 L 235.0 -377.0 L 265.0 -347.0 L 283.0 -329.0 L 302.5 -315.0 L 322.0 -301.0 L 348.0 -289.0 L 391.0 -268.0 L 439.0 -252.5 L 487.0 -237.0 L 542.0 -225.0 L 648.0 -200.0 L 750.0 -200.0 L 847.0 -200.0 L 897.0 -225.0 L 952.0 -252.0 L 951.0 -306.0 L 948.0 -333.0 L 940.0 -375.0 L 854.0 -419.0 L 851.0 -423.0 L 849.5 -426.0 L 848.0 -429.0 L 845.0 -434.0 L 858.0 -437.0 L 871.5 -438.5 L 885.0 -440.0 L 903.0 -442.0 L 920.0 -444.0 L 931.5 -445.0 L 943.0 -446.0 L 956.0 -446.0 L 995.0 -446.0 L 1025.5 -438.5 L 1056.0 -431.0 L 1079.0 -419.0 L 1087.0 -415.0 L 1094.5 -407.5 L 1102.0 -400.0 Z M 725.0 -407.0 L 714.0 -393.0 L 691.0 -386.0 L 668.0 -380.0 L 637.0 -380.0 L 616.0 -380.0 L 596.5 -382.5 L 577.0 -385.0 L 555.0 -388.0 L 533.0 -391.0 L 519.5 -395.5 L 506.0 -400.0 L 499.0 -403.0 L 453.0 -422.0 L 421.0 -437.0 L 419.0 -442.0 L 417.0 -445.0 L 422.0 -449.0 L 423.0 -450.0 L 434.0 -450.0 L 442.0 -450.0 L 451.0 -450.0 L 460.0 -450.0 L 472.0 -447.0 L 538.0 -438.0 L 550.0 -438.0 L 569.0 -438.0 L 577.0 -446.0 L 583.0 -452.0 L 583.0 -463.0 L 583.0 -480.0 L 556.0 -525.0 L 530.0 -570.0 L 530.0 -594.0 L 529.0 -615.0 L 545.0 -630.0 L 551.0 -636.0 L 580.0 -641.0 L 593.0 -643.0 L 607.5 -643.5 L 622.0 -644.0 L 637.0 -644.0 L 655.0 -644.0 L 673.0 -644.0 L 691.0 -644.0 L 710.0 -641.0 L 746.0 -636.0 L 747.0 -635.0 L 757.0 -618.0 L 756.0 -608.0 L 756.0 -594.0 L 737.0 -594.0 L 728.0 -594.0 L 710.0 -599.0 L 691.0 -604.0 L 683.0 -604.0 L 677.0 -604.0 L 676.0 -599.0 L 676.0 -580.0 L 710.0 -528.0 L 743.0 -477.0 L 742.0 -449.0 L 742.0 -428.0 Z" fill="black" fill-opacity="0.25" stroke="black" stroke-width="4.0"/>
  <rect x="0.0" y="-446.0" width="1126.0" height="293.00000000000006" fill="none" stroke="red" stroke-width="10.0" /><rect x="417.0" y="-644.0" width="340.0" height="264.0" fill="none" stroke="red" stroke-width="10.0" />
</svg>
