<svg xmlns="http://www.w3.org/2000/svg"
  viewBox="-50.00013950892857 -1104.0 1449.5714285689287 985.0">
  <rect x="-50.00013950892857" y="-1104.0" width="1449.5714285689287" height="985.0" fill="white"/>
  <path d="M 12.0712890625 -450.0 L 19.0712890625 -455.0 L 32.0712890625 -457.5 L 45.0712890625 -460.0 L 60.0712890625 -461.0 L 75.0712890625 -462.0 L 89.0712890625 -462.5 L 103.071289062 -463.0 L 112.071289062 -463.0 L 131.071289062 -463.0 L 160.071289062 -462.0 L 189.071289062 -461.0 L 219.571289062 -458.5 L 250.071289062 -456.0 L 278.571289062 -451.0 L 307.071289062 -446.0 L 323.071289062 -437.0 L 325.071289062 -435.0 L 326.071289062 -432.5 L 327.071289062 -430.0 L 328.071289062 -429.0 L 329.071289062 -428.0 L 329.071289062 -427.0 L 321.071289062 -417.0 L 320.071289062 -416.0 L 314.071289062 -417.0 L 306.571289062 -418.5 L 299.071289062 -420.0 L 290.071289062 -420.0 L 278.071289062 -420.0 L 267.571289062 -419.0 L 257.071289062 -418.0 L 247.071289062 -416.0 L 245.071289062 -416.0 L 243.071289062 -416.0 L 241.071289062 -416.0 L 239.071289062 -415.0 L 237.071289062 -413.0 L 237.071289062 -409.0 L 237.071289062 -393.0 L 267.071289062 -364.0 L 284.071289062 -347.0 L 304.071289062 -332.5 L 324.071289062 -318.0 L 349.071289062 -306.0 L 392.071289062 -285.0 L 442.571289062 -269.0 L 493.071289062 -253.0 L 545.571289062 -241.0 L 598.071289062 -229.0 L 650.571289062 -223.0 L 703.071289062 -217.0 L 751.071289062 -217.0 L 769.071289062 -217.0 L 790.571289062 -218.5 L 812.071289062 -220.0 L 834.071289062 -223.5 L 856.071289062 -227.0 L 877.071289062 -234.0 L 898.071289062 -241.0 L 915.071289062 -252.5 L 932.071289062 -264.0 L 942.071289062 -281.5 L 952.071289062 -299.0 L 951.071289062 -323.0 L 948.071289062 -349.0 L 940.071289062 -391.0 L 854.071289062 -435.0 L 851.071289062 -439.0 L 849.571289062 -442.5 L 848.071289062 -446.0 L 845.071289062 -451.0 L 846.071289062 -451.0 L 846.071289062 -451.0 L 859.071289062 -454.0 L 873.071289062 -455.5 L 887.071289062 -457.0 L 904.071289062 -459.0 L 922.071289062 -461.0 L 933.571289062 -462.5 L 945.071289062 -464.0 L 957.071289062 -464.0 L 997.071289062 -464.0 L 1027.07128906 -456.5 L 1057.07128906 -449.0 L 1081.07128906 -436.0 L 1089.07128906 -432.0 L 1096.57128906 -424.5 L 1104.07128906 -417.0 L 1112.07128906 -409.0 L 1128.07128906 -372.0 L 1127.07128906 -339.0 L 1127.07128906 -301.0 L 1108.57128906 -273.5 L 1090.07128906 -246.0 L 1059.57128906 -227.0 L 1029.07128906 -208.0 L 990.571289062 -196.5 L 952.071289062 -185.0 L 912.571289062 -179.0 L 873.071289062 -173.0 L 836.071289062 -171.0 L 799.071289062 -169.0 L 771.071289062 -169.0 L 701.071289062 -169.0 L 623.071289062 -178.0 L 545.071289062 -187.0 L 458.071289062 -205.0 L 390.071289062 -219.0 L 317.571289062 -244.0 L 245.071289062 -269.0 L 167.071289062 -305.0 L 0.0712890625 -382.0 L 0.0712890625 -429.0 L -0.9287109375 -443.0 Z M 713.071289062 -590.0 L 708.071289062 -590.0 L 706.071289062 -598.0 L 706.071289062 -599.0 L 707.071289062 -599.0 L 708.071289062 -599.0 L 711.071289062 -601.0 L 713.071289062 -602.0 L 709.071289062 -608.0 L 705.071289062 -613.0 L 711.071289062 -615.0 L 758.071289062 -632.0 L 798.571289062 -645.0 L 839.071289062 -658.0 L 873.071289062 -669.5 L 907.071289062 -681.0 L 934.071289062 -691.0 L 961.071289062 -701.0 L 982.071289062 -712.0 L 1063.07128906 -754.0 L 1107.07128906 -826.0 L 1114.07128906 -838.0 L 1121.57128906 -855.5 L 1129.07128906 -873.0 L 1137.57128906 -896.5 L 1146.07128906 -920.0 L 1157.57128906 -949.0 L 1169.07128906 -978.0 L 1185.07128906 -1013.0 L 1186.07128906 -1016.0 L 1189.57128906 -1017.5 L 1193.07128906 -1019.0 L 1197.57128906 -1019.5 L 1202.07128906 -1020.0 L 1206.57128906 -1021.0 L 1211.07128906 -1022.0 L 1215.07128906 -1024.0 L 1227.07128906 -1031.0 L 1235.07128906 -1035.5 L 1243.07128906 -1040.0 L 1246.07128906 -1041.0 L 1259.07128906 -1047.0 L 1267.57128906 -1050.0 L 1276.07128906 -1053.0 L 1279.07128906 -1054.0 L 1292.07128906 -1054.0 L 1297.07128906 -1054.0 L 1302.57128906 -1053.5 L 1308.07128906 -1053.0 L 1313.07128906 -1051.0 L 1317.07128906 -1050.0 L 1321.57128906 -1049.5 L 1326.07128906 -1049.0 L 1331.07128906 -1048.0 L 1336.07128906 -1047.0 L 1340.57128906 -1045.5 L 1345.07128906 -1044.0 L 1349.07128906 -1040.0 L 1350.07128906 -1039.0 L 1349.07128906 -1037.5 L 1348.07128906 -1036.0 L 1345.57128906 -1034.5 L 1343.07128906 -1033.0 L 1340.07128906 -1032.0 L 1337.07128906 -1031.0 L 1335.07128906 -1029.0 L 1298.07128906 -1005.0 L 1294.07128906 -996.0 L 1286.07128906 -962.0 L 1279.07128906 -938.0 L 1272.07128906 -914.0 L 1265.07128906 -895.0 L 1263.07128906 -889.0 L 1258.07128906 -880.5 L 1253.07128906 -872.0 L 1247.57128906 -863.0 L 1242.07128906 -854.0 L 1236.07128906 -845.5 L 1230.07128906 -837.0 L 1227.07128906 -831.0 L 1228.07128906 -831.0 L 1229.07128906 -832.0 L 1230.07128906 -832.0 L 1226.07128906 -827.0 L 1224.07128906 -825.0 L 1223.07128906 -825.0 L 1223.07128906 -825.0 L 1222.07128906 -824.0 L 1222.07128906 -824.0 L 1227.07128906 -831.0 L 1223.07128906 -829.0 L 1213.07128906 -822.5 L 1203.07128906 -816.0 L 1189.07128906 -805.5 L 1175.07128906 -795.0 L 1158.57128906 -782.5 L 1142.07128906 -770.0 L 1126.07128906 -757.0 L 1095.07128906 -733.0 L 1074.07128906 -716.0 L 1063.07128906 -707.0 L 1055.57128906 -700.0 L 1048.07128906 -693.0 L 1044.07128906 -689.0 L 1042.07128906 -686.0 L 1042.07128906 -686.0 L 1048.07128906 -688.0 L 1052.57128906 -690.5 L 1057.07128906 -693.0 L 1061.07128906 -695.0 L 1066.07128906 -698.0 L 1067.07128906 -698.0 L 1066.07128906 -698.0 L 1064.07128906 -696.0 L 1062.07128906 -695.0 L 1057.07128906 -692.0 L 1046.07128906 -686.0 L 1043.07128906 -685.0 L 1042.07128906 -685.0 L 1042.07128906 -686.0 L 1030.07128906 -680.0 L 1014.07128906 -672.5 L 998.071289062 -665.0 L 981.071289062 -658.5 L 964.071289062 -652.0 L 947.571289062 -646.5 L 931.071289062 -641.0 L 918.071289062 -638.0 L 909.071289062 -637.0 L 895.571289062 -636.5 L 882.071289062 -636.0 L 870.071289062 -636.0 L 858.071289062 -636.0 L 852.571289062 -635.0 L 847.071289062 -634.0 L 854.071289062 -631.0 L 862.071289062 -628.0 L 870.571289062 -627.0 L 879.071289062 -626.0 L 888.071289062 -626.0 L 900.071289062 -626.0 L 912.071289062 -627.0 L 924.071289062 -628.0 L 937.071289062 -628.0 L 940.071289062 -628.0 L 943.071289062 -628.0 L 946.071289062 -628.0 L 949.071289062 -627.0 L 994.071289062 -624.0 L 1029.07128906 -598.0 L 1048.07128906 -584.0 L 1047.07128906 -579.0 L 1050.07128906 -571.0 L 1037.07128906 -571.0 L 1024.07128906 -571.0 L 1012.57128906 -572.5 L 1001.07128906 -574.0 L 988.071289062 -576.0 L 971.071289062 -579.0 L 948.571289062 -581.5 L 926.071289062 -584.0 L 899.071289062 -588.0 L 873.071289062 -592.0 L 850.071289062 -594.0 L 827.071289062 -596.0 L 805.071289062 -596.0 L 798.071289062 -597.0 L 791.571289062 -597.0 L 785.071289062 -597.0 L 779.071289062 -597.0 L 767.071289062 -597.0 L 756.071289062 -596.5 L 745.071289062 -596.0 L 733.071289062 -595.0 L 730.071289062 -594.0 L 725.571289062 -592.0 L 721.071289062 -590.0 Z" fill="black" fill-opacity="0.25" stroke="black" stroke-width="4.0"/>
  <rect x="-1.0" y="-464.0" width="1128.9999999999998" height="295.00000000000006" fill="none" stroke="red" stroke-width="10.0" /><rect x="705.0999999999999" y="-732.0" width="388.70000000000016" height="161.00000000000003" fill="none" stroke="red" stroke-width="10.0" /><rect x="1020.5999999999999" y="-893.0" width="243.8" height="161.00000000000003" fill="none" stroke="red" stroke-width="10.0" /><rect x="1136.3000000000002" y="-1054.0" width="213.79999999999998" height="161.00000000000003" fill="none" stroke="red" stroke-width="10.0" />
</svg>
