<svg xmlns="http://www.w3.org/2000/svg"
  viewBox="-50.0 -1356.0 1958.9 1262.0">
  <rect x="-50.0" y="-1356.0" width="1958.9" height="1262.0" fill="white"/>
  <path d="M 206.0 -408.0 L 206.0 -429.0 L 234.0 -435.0 L 259.0 -441.0 L 285.0 -442.0 L 311.0 -443.0 L 337.0 -443.0 L 376.0 -442.0 L 414.0 -440.5 L 452.0 -439.0 L 491.0 -436.0 L 503.0 -435.0 L 515.5 -433.5 L 528.0 -432.0 L 541.0 -429.5 L 554.0 -427.0 L 566.5 -424.0 L 579.0 -421.0 L 589.0 -416.0 L 597.0 -407.0 L 597.0 -405.0 L 587.0 -396.0 L 578.0 -398.0 L 569.5 -398.5 L 561.0 -399.0 L 551.0 -399.0 L 526.0 -399.0 L 500.0 -396.0 L 496.0 -396.0 L 487.0 -396.0 L 487.0 -388.0 L 487.0 -374.0 L 522.0 -341.0 L 549.0 -316.0 L 591.5 -295.5 L 634.0 -275.0 L 684.5 -258.5 L 735.0 -242.0 L 791.0 -230.0 L 847.0 -218.0 L 902.0 -209.5 L 957.0 -201.0 L 1007.5 -197.0 L 1058.0 -193.0 L 1098.0 -193.0 L 1116.0 -193.0 L 1140.5 -193.5 L 1165.0 -194.0 L 1191.5 -197.5 L 1218.0 -201.0 L 1244.0 -207.5 L 1270.0 -214.0 L 1291.0 -226.5 L 1312.0 -239.0 L 1324.5 -257.0 L 1337.0 -275.0 L 1337.0 -301.0 L 1334.0 -327.0 L 1325.0 -371.0 L 1223.0 -414.0 L 1218.0 -419.0 L 1217.0 -423.0 L 1216.0 -424.0 L 1214.5 -426.0 L 1213.0 -428.0 L 1211.0 -431.0 L 1227.0 -435.0 L 1243.0 -436.0 L 1261.0 -437.0 L 1279.0 -438.5 L 1297.0 -440.0 L 1315.0 -443.0 L 1322.0 -443.0 L 1329.0 -443.5 L 1336.0 -444.0 L 1344.0 -444.0 L 1363.0 -444.0 L 1385.0 -442.0 L 1407.0 -440.0 L 1429.5 -435.5 L 1452.0 -431.0 L 1472.5 -423.0 L 1493.0 -415.0 L 1509.0 -403.0 L 1513.0 -399.0 L 1517.5 -395.5 L 1522.0 -392.0 L 1528.0 -388.0 L 1546.0 -354.0 L 1545.0 -316.0 L 1545.0 -286.0 L 1531.5 -262.5 L 1518.0 -239.0 L 1494.5 -221.0 L 1471.0 -203.0 L 1440.0 -190.5 L 1409.0 -178.0 L 1374.5 -169.5 L 1340.0 -161.0 L 1304.0 -156.0 L 1268.0 -151.0 L 1234.5 -148.5 L 1201.0 -146.0 L 1172.0 -145.0 L 1143.0 -144.0 L 1123.0 -144.0 L 954.0 -144.0 L 750.0 -180.0 L 661.0 -197.0 L 575.0 -223.0 L 489.0 -249.0 L 405.0 -283.0 L 206.0 -362.0 Z M 8.0 -535.0 L 3.0 -535.0 L 0.0 -543.0 L 0.0 -544.0 L 1.0 -544.0 L 2.0 -544.0 L 6.0 -546.0 L 7.0 -547.0 L 3.0 -552.0 L -1.0 -557.0 L 6.0 -560.0 L 53.0 -577.0 L 93.0 -590.5 L 133.0 -604.0 L 167.0 -615.0 L 203.0 -626.0 L 236.5 -639.0 L 270.0 -652.0 L 299.5 -670.0 L 329.0 -688.0 L 354.5 -712.5 L 380.0 -737.0 L 401.0 -771.0 L 416.0 -794.0 L 432.0 -841.0 L 440.0 -864.0 L 452.0 -893.5 L 464.0 -923.0 L 479.0 -958.0 L 482.0 -964.0 L 492.0 -965.0 L 501.0 -965.0 L 509.0 -969.0 L 522.0 -977.0 L 530.0 -981.0 L 540.0 -986.0 L 553.0 -993.0 L 562.0 -995.0 L 566.0 -996.0 L 568.5 -997.0 L 571.0 -998.0 L 573.0 -999.0 L 577.0 -999.0 L 581.0 -999.0 L 585.0 -999.0 L 590.0 -999.0 L 600.0 -999.0 L 608.0 -996.0 L 616.0 -993.0 L 626.0 -993.0 L 636.0 -993.0 L 643.0 -985.0 L 647.0 -982.0 L 640.0 -979.0 L 633.0 -976.0 L 629.0 -974.0 L 610.0 -961.0 L 600.5 -953.0 L 591.0 -945.0 L 589.0 -941.0 L 583.0 -915.0 L 576.0 -890.0 L 569.0 -865.0 L 559.0 -840.0 L 556.0 -831.0 L 547.0 -816.0 L 543.0 -809.0 L 539.0 -802.5 L 535.0 -796.0 L 531.0 -790.0 L 529.0 -786.0 L 526.0 -783.0 L 523.0 -780.0 L 521.0 -776.0 L 522.0 -776.0 L 522.0 -777.0 L 523.0 -777.0 L 524.0 -777.0 L 520.0 -772.0 L 516.0 -768.0 L 517.0 -769.0 L 517.0 -769.0 L 517.0 -770.0 L 517.0 -771.0 L 518.0 -771.0 L 519.0 -773.0 L 521.0 -776.0 L 520.0 -776.0 L 518.5 -775.0 L 517.0 -774.0 L 516.0 -773.0 L 478.0 -747.0 L 441.0 -718.5 L 404.0 -690.0 L 369.0 -660.0 L 368.0 -659.0 L 362.5 -655.0 L 357.0 -651.0 L 351.5 -646.0 L 346.0 -641.0 L 341.5 -636.5 L 337.0 -632.0 L 337.0 -631.0 L 342.0 -633.0 L 346.5 -635.0 L 351.0 -637.0 L 355.0 -639.0 L 360.0 -642.0 L 361.0 -642.0 L 361.0 -642.0 L 359.0 -641.0 L 357.0 -640.0 L 351.0 -636.0 L 336.0 -627.0 L 337.0 -631.0 L 325.0 -625.0 L 308.5 -617.5 L 292.0 -610.0 L 275.5 -603.0 L 259.0 -596.0 L 242.0 -591.0 L 225.0 -586.0 L 212.0 -583.0 L 200.0 -581.0 L 188.0 -580.5 L 176.0 -580.0 L 164.0 -580.0 L 158.0 -580.0 L 154.0 -580.0 L 150.0 -580.0 L 147.0 -579.0 L 139.0 -578.0 L 148.0 -575.0 L 157.0 -572.0 L 166.5 -571.0 L 176.0 -570.0 L 185.0 -570.0 L 187.0 -570.0 L 189.5 -570.0 L 192.0 -570.0 L 195.0 -571.0 L 202.0 -572.0 L 209.5 -572.5 L 217.0 -573.0 L 224.0 -573.0 L 252.0 -573.0 L 276.5 -566.0 L 301.0 -559.0 L 323.0 -543.0 L 342.0 -529.0 L 342.0 -524.0 L 345.0 -516.0 L 331.0 -516.0 L 318.0 -516.0 L 306.5 -517.0 L 295.0 -518.0 L 283.0 -521.0 L 266.0 -524.0 L 243.0 -527.0 L 232.0 -528.0 L 219.5 -529.5 L 207.0 -531.0 L 194.0 -533.0 L 171.0 -536.0 L 147.5 -538.5 L 124.0 -541.0 L 100.0 -541.0 L 86.0 -542.0 L 75.0 -542.0 L 51.0 -542.0 L 28.0 -539.0 L 23.0 -537.0 L 18.0 -536.0 L 13.0 -535.0 Z M 1222.0 -566.0 L 1218.0 -566.0 L 1214.0 -574.0 L 1214.0 -575.0 L 1215.0 -575.0 L 1217.0 -575.0 L 1220.0 -577.0 L 1221.0 -578.0 L 1218.0 -584.0 L 1214.0 -589.0 L 1220.0 -591.0 L 1267.0 -608.0 L 1307.0 -621.5 L 1347.0 -635.0 L 1381.0 -646.0 L 1418.0 -657.0 L 1451.0 -670.0 L 1484.0 -683.0 L 1513.5 -701.0 L 1543.0 -719.0 L 1569.0 -743.5 L 1595.0 -768.0 L 1616.0 -802.0 L 1630.0 -825.0 L 1646.0 -872.0 L 1654.0 -895.0 L 1666.0 -924.5 L 1678.0 -954.0 L 1694.0 -990.0 L 1697.0 -996.0 L 1706.0 -996.0 L 1715.0 -996.0 L 1723.0 -1000.0 L 1736.0 -1008.0 L 1744.0 -1012.0 L 1754.0 -1017.0 L 1767.0 -1024.0 L 1776.0 -1026.0 L 1780.0 -1027.0 L 1783.0 -1028.0 L 1786.0 -1029.0 L 1788.0 -1030.0 L 1792.0 -1030.0 L 1796.0 -1030.0 L 1800.0 -1030.0 L 1804.0 -1031.0 L 1813.0 -1031.0 L 1822.0 -1027.0 L 1830.0 -1024.0 L 1840.0 -1024.0 L 1850.0 -1024.0 L 1858.0 -1016.0 L 1861.0 -1013.0 L 1854.0 -1011.0 L 1851.0 -1010.0 L 1848.5 -1008.0 L 1846.0 -1006.0 L 1844.0 -1005.0 L 1807.0 -979.0 L 1803.0 -972.0 L 1798.0 -950.0 L 1793.0 -931.0 L 1788.0 -912.0 L 1781.5 -894.0 L 1775.0 -876.0 L 1766.0 -858.5 L 1757.0 -841.0 L 1745.0 -821.0 L 1743.0 -817.0 L 1740.0 -814.0 L 1737.0 -811.0 L 1735.0 -807.0 L 1737.0 -808.0 L 1738.0 -808.0 L 1734.0 -803.0 L 1730.0 -800.0 L 1730.0 -800.0 L 1732.0 -802.0 L 1733.0 -804.0 L 1735.0 -807.0 L 1734.0 -807.0 L 1732.5 -806.0 L 1731.0 -805.0 L 1729.0 -804.0 L 1692.0 -779.0 L 1654.5 -750.0 L 1617.0 -721.0 L 1583.0 -692.0 L 1582.0 -691.0 L 1576.5 -686.5 L 1571.0 -682.0 L 1565.5 -677.5 L 1560.0 -673.0 L 1555.5 -668.0 L 1551.0 -663.0 L 1551.0 -662.0 L 1556.0 -664.0 L 1560.5 -666.5 L 1565.0 -669.0 L 1569.0 -671.0 L 1574.0 -674.0 L 1575.0 -674.0 L 1575.0 -674.0 L 1573.0 -672.0 L 1571.0 -671.0 L 1565.0 -668.0 L 1549.0 -659.0 L 1551.0 -662.0 L 1546.0 -660.0 L 1541.0 -657.5 L 1536.0 -655.0 L 1530.0 -653.0 L 1511.0 -644.0 L 1493.0 -636.5 L 1475.0 -629.0 L 1457.0 -623.0 L 1439.0 -617.0 L 1419.5 -614.0 L 1400.0 -611.0 L 1379.0 -611.0 L 1373.0 -611.0 L 1368.5 -611.0 L 1364.0 -611.0 L 1361.0 -611.0 L 1353.0 -610.0 L 1362.0 -607.0 L 1378.0 -601.0 L 1395.0 -601.0 L 1398.0 -601.0 L 1401.5 -601.0 L 1405.0 -601.0 L 1409.0 -602.0 L 1417.0 -603.0 L 1425.0 -603.5 L 1433.0 -604.0 L 1441.0 -604.0 L 1469.0 -604.0 L 1492.5 -597.5 L 1516.0 -591.0 L 1538.0 -574.0 L 1557.0 -560.0 L 1556.0 -555.0 L 1559.0 -547.0 L 1545.0 -547.0 L 1521.0 -547.0 L 1496.0 -552.0 L 1479.0 -555.0 L 1457.0 -558.0 L 1446.0 -559.0 L 1433.5 -560.5 L 1421.0 -562.0 L 1408.0 -564.0 L 1385.0 -567.0 L 1361.5 -569.5 L 1338.0 -572.0 L 1314.0 -572.0 L 1300.0 -573.0 L 1288.0 -573.0 L 1265.0 -573.0 L 1242.0 -571.0 L 1236.0 -569.0 L 1232.5 -567.5 L 1229.0 -566.0 Z M 648.0 -863.0 L 642.0 -863.0 L 641.0 -869.0 L 641.0 -872.0 L 647.0 -872.0 L 649.0 -873.0 L 646.0 -880.0 L 643.0 -885.0 L 648.0 -888.0 L 742.0 -919.0 L 811.0 -936.0 L 846.0 -945.0 L 880.0 -957.5 L 914.0 -970.0 L 945.5 -988.5 L 977.0 -1007.0 L 1004.5 -1031.0 L 1032.0 -1055.0 L 1051.0 -1086.0 L 1058.0 -1097.0 L 1066.5 -1114.0 L 1075.0 -1131.0 L 1084.0 -1154.0 L 1093.0 -1177.0 L 1106.0 -1205.5 L 1119.0 -1234.0 L 1136.0 -1269.0 L 1138.0 -1273.0 L 1141.5 -1274.5 L 1145.0 -1276.0 L 1149.0 -1276.0 L 1156.0 -1276.0 L 1164.0 -1280.0 L 1170.0 -1284.0 L 1175.5 -1286.5 L 1181.0 -1289.0 L 1185.0 -1291.0 L 1194.0 -1294.0 L 1197.0 -1297.0 L 1202.0 -1299.0 L 1206.5 -1300.5 L 1211.0 -1302.0 L 1215.0 -1303.0 L 1220.0 -1305.0 L 1224.0 -1305.5 L 1228.0 -1306.0 L 1233.0 -1306.0 L 1247.0 -1306.0 L 1262.0 -1302.0 L 1268.0 -1300.0 L 1277.0 -1300.0 L 1282.0 -1300.0 L 1287.0 -1300.0 L 1291.0 -1298.5 L 1295.0 -1297.0 L 1298.0 -1293.0 L 1302.0 -1288.0 L 1294.0 -1286.0 L 1287.0 -1284.0 L 1284.0 -1282.0 L 1246.0 -1258.0 L 1244.0 -1249.0 L 1239.0 -1233.0 L 1235.0 -1218.5 L 1231.0 -1204.0 L 1227.0 -1192.0 L 1221.0 -1174.0 L 1214.0 -1157.5 L 1207.0 -1141.0 L 1196.0 -1125.0 L 1191.0 -1118.0 L 1186.5 -1111.5 L 1182.0 -1105.0 L 1178.0 -1099.0 L 1176.0 -1096.0 L 1174.0 -1093.0 L 1172.0 -1090.0 L 1170.0 -1088.0 L 1172.0 -1089.0 L 1168.0 -1083.0 L 1165.0 -1080.0 L 1165.0 -1080.0 L 1164.5 -1079.5 L 1164.0 -1079.0 L 1164.0 -1078.0 L 1164.0 -1079.0 L 1164.0 -1079.0 L 1164.5 -1080.0 L 1165.0 -1081.0 L 1166.0 -1081.0 L 1167.0 -1084.0 L 1170.0 -1088.0 L 1168.0 -1088.0 L 1161.0 -1084.0 L 1152.0 -1080.0 L 1136.5 -1069.5 L 1121.0 -1059.0 L 1102.0 -1046.5 L 1083.0 -1034.0 L 1064.0 -1019.5 L 1045.0 -1005.0 L 1028.5 -992.0 L 1012.0 -979.0 L 1000.0 -968.0 L 988.0 -957.0 L 983.0 -952.0 L 983.0 -952.0 L 982.5 -951.0 L 982.0 -950.0 L 982.0 -950.0 L 983.0 -950.0 L 986.5 -951.5 L 990.0 -953.0 L 993.5 -954.5 L 997.0 -956.0 L 1000.5 -957.0 L 1004.0 -958.0 L 1005.0 -958.0 L 1007.0 -958.0 L 995.0 -952.0 L 986.0 -947.0 L 982.0 -947.0 L 980.0 -947.0 L 982.0 -950.0 L 977.0 -948.0 L 971.5 -946.0 L 966.0 -944.0 L 959.0 -941.0 L 932.0 -930.0 L 902.0 -919.0 L 885.0 -913.0 L 868.0 -908.5 L 851.0 -904.0 L 833.0 -904.0 L 807.0 -904.0 L 801.0 -904.0 L 796.5 -904.0 L 792.0 -904.0 L 789.0 -903.0 L 783.0 -903.0 L 790.0 -899.0 L 806.0 -892.0 L 825.0 -892.0 L 827.0 -892.0 L 830.0 -892.0 L 833.0 -892.0 L 836.0 -892.0 L 848.0 -893.0 L 860.0 -894.0 L 888.0 -894.0 L 915.0 -886.5 L 942.0 -879.0 L 964.0 -861.0 L 980.0 -848.0 L 981.0 -840.0 L 983.0 -834.0 L 970.0 -833.0 L 922.0 -838.0 L 834.0 -853.0 L 800.0 -861.0 L 763.5 -864.5 L 727.0 -868.0 L 692.0 -868.0 L 686.0 -868.0 L 680.0 -868.0 L 674.0 -868.0 L 668.0 -867.0 L 659.0 -863.0 Z M 634.0 -782.0 L 636.0 -785.0 L 651.0 -785.0 L 680.0 -785.0 L 694.0 -786.0 L 709.0 -782.0 L 756.0 -774.0 L 825.0 -762.0 L 844.0 -666.0 L 856.0 -605.0 L 867.0 -591.0 L 878.0 -578.0 L 897.0 -574.0 L 899.0 -574.0 L 902.5 -573.5 L 906.0 -573.0 L 911.0 -572.0 L 914.0 -572.0 L 915.0 -571.0 L 914.0 -564.0 L 907.0 -559.0 L 900.0 -554.0 L 891.5 -551.0 L 883.0 -548.0 L 874.0 -547.0 L 865.0 -546.0 L 859.0 -546.0 L 833.0 -546.0 L 809.0 -552.5 L 785.0 -559.0 L 761.0 -568.0 L 708.0 -588.0 L 686.0 -713.0 L 677.0 -766.0 L 653.0 -766.0 L 639.0 -766.0 L 629.0 -766.0 L 628.0 -767.0 L 626.0 -770.0 Z M 883.0 -786.0 L 904.0 -786.0 L 910.0 -786.0 L 916.5 -785.5 L 923.0 -785.0 L 931.0 -783.0 L 939.0 -782.0 L 946.0 -780.5 L 953.0 -779.0 L 958.0 -778.0 L 969.0 -776.0 L 975.0 -775.0 L 1045.0 -762.0 L 1062.0 -666.0 L 1072.0 -608.0 L 1087.0 -593.0 L 1097.0 -577.0 L 1117.0 -575.0 L 1119.0 -574.0 L 1121.0 -573.5 L 1123.0 -573.0 L 1124.0 -573.0 L 1128.0 -572.0 L 1129.0 -572.0 L 1134.0 -572.0 L 1134.0 -565.0 L 1127.5 -560.0 L 1121.0 -555.0 L 1111.5 -552.5 L 1102.0 -550.0 L 1093.0 -548.5 L 1084.0 -547.0 L 1080.0 -547.0 L 1042.0 -547.0 L 981.0 -569.0 L 927.0 -591.0 L 906.0 -718.0 L 898.0 -770.0 L 882.0 -769.0 L 879.0 -769.0 L 878.0 -769.0 L 875.0 -769.0 L 865.0 -769.0 L 866.0 -783.0 L 866.0 -786.0 Z" fill="black" fill-opacity="0.25" stroke="black" stroke-width="4.0"/>
  <rect x="206.0" y="-444.0" width="1340.0" height="300.00000000000006" fill="none" stroke="red" stroke-width="10.0" /><rect x="626.0" y="-786.0" width="289.00000000000006" height="240.0" fill="none" stroke="red" stroke-width="10.0" /><rect x="865.0" y="-786.0" width="268.9999999999999" height="239.0" fill="none" stroke="red" stroke-width="10.0" /><rect x="-1.0" y="-677.0" width="389.79999999999995" height="161.00000000000003" fill="none" stroke="red" stroke-width="10.0" /><rect x="311.0" y="-838.0" width="247.3" height="160.99999999999991" fill="none" stroke="red" stroke-width="10.0" /><rect x="431.0" y="-999.0" width="216.00000000000003" height="161.00000000000003" fill="none" stroke="red" stroke-width="10.0" /><rect x="1214.0" y="-708.3000000000001" width="388.10000000000014" height="161.3" fill="none" stroke="red" stroke-width="10.0" /><rect x="1525.5" y="-869.7" width="246.2" height="161.39999999999998" fill="none" stroke="red" stroke-width="10.0" /><rect x="1645.2" y="-1031.0" width="215.79999999999998" height="161.2999999999999" fill="none" stroke="red" stroke-width="10.0" /><rect x="641.0" y="-990.7" width="385.7999999999999" height="157.70000000000007" fill="none" stroke="red" stroke-width="10.0" /><rect x="949.2" y="-1148.3000000000002" width="260.8999999999999" height="157.60000000000008" fill="none" stroke="red" stroke-width="10.0" /><rect x="1081.8000000000002" y="-1306.0" width="220.19999999999996" height="157.69999999999996" fill="none" stroke="red" stroke-width="10.0" />
</svg>
