<svg xmlns="http://www.w3.org/2000/svg"
  viewBox="-50 -1384 1558.5 1264">
  <rect x="-50" y="-1384" width="1558.5" height="1264" fill="white"/>
  <path d="M 0 -430 L 0 -449 L 24 -455 L 49 -463 L 103 -462 L 124 -462 L 154 -461.5 L 184 -461 L 215 -458.5 L 246 -456 L 275 -451 L 304 -446 L 322 -438 L 324 -436 L 325 -433.5 L 326 -431 L 327 -429 L 328 -427 L 328 -426 L 321 -417 L 315 -418 L 307.5 -419 L 300 -420 L 291 -420 L 279 -420 L 268.5 -419 L 258 -418 L 247 -417 L 243 -417 L 239.5 -416 L 236 -415 L 236 -409 L 236 -393 L 266 -364 L 291 -339 L 327.5 -318 L 364 -297 L 407 -281 L 450 -265 L 496.5 -253 L 543 -241 L 588.5 -233 L 634 -225 L 675.5 -221 L 717 -217 L 750 -217 L 768 -217 L 789.5 -218 L 811 -219 L 833.5 -223 L 856 -227 L 877.5 -234 L 899 -241 L 915.5 -253 L 932 -265 L 942 -282 L 952 -299 L 952 -323 L 949 -350 L 941 -392 L 855 -436 L 852 -440 L 850.5 -443.5 L 849 -447 L 846 -452 L 859 -455 L 872.5 -456 L 886 -457 L 904 -459 L 921 -461 L 932.5 -462.5 L 944 -464 L 956 -464 L 996 -464 L 1026 -456.5 L 1056 -449 L 1080 -436 L 1088 -432 L 1095.5 -424.5 L 1103 -417 L 1111 -409 L 1127 -372 L 1127 -339 L 1127 -301 L 1108.5 -273.5 L 1090 -246 L 1059.5 -227.5 L 1029 -209 L 990.5 -197.5 L 952 -186 L 912.5 -180 L 873 -174 L 836.5 -172 L 800 -170 L 772 -170 L 701 -170 L 624 -179 L 547 -188 L 458 -206 L 390 -220 L 318 -245 L 246 -270 L 167 -306 L 0 -384 Z M 279 -870 L 274 -870 L 271 -877 L 271 -878 L 273 -879 L 274 -879 L 277 -880 L 279 -881 L 275 -887 L 271 -892 L 277 -895 L 323 -912 L 363.5 -925 L 404 -938 L 438 -949 L 472 -960 L 499.5 -970 L 527 -980 L 548 -991 L 627 -1033 L 673 -1105 L 680 -1117 L 687.5 -1134.5 L 695 -1152 L 703.5 -1175.5 L 712 -1199 L 723.5 -1228.5 L 735 -1258 L 751 -1293 L 752 -1296 L 755.5 -1297 L 759 -1298 L 763 -1298.5 L 767 -1299 L 771.5 -1300 L 776 -1301 L 781 -1304 L 793 -1311 L 800.5 -1315 L 808 -1319 L 812 -1321 L 824 -1327 L 833 -1329.5 L 842 -1332 L 845 -1334 L 858 -1334 L 863 -1334 L 868 -1333.5 L 873 -1333 L 879 -1331 L 883 -1330 L 887.5 -1329 L 892 -1328 L 897 -1327.5 L 902 -1327 L 906.5 -1325 L 911 -1323 L 915 -1319 L 916 -1318 L 914.5 -1316.5 L 913 -1315 L 910.5 -1314 L 908 -1313 L 905 -1311.5 L 902 -1310 L 901 -1309 L 863 -1283 L 860 -1276 L 852 -1242 L 845 -1218 L 838 -1194 L 830 -1174 L 828 -1168 L 823.5 -1159.5 L 819 -1151 L 813 -1142 L 807 -1133 L 801.5 -1124.5 L 796 -1116 L 792 -1111 L 792 -1111 L 794 -1111 L 796 -1111 L 791 -1107 L 787 -1103 L 787 -1103 L 792 -1111 L 788 -1109 L 777.5 -1102 L 767 -1095 L 753.5 -1085 L 740 -1075 L 724 -1062.5 L 708 -1050 L 692 -1037 L 676 -1025 L 663.5 -1014.5 L 651 -1004 L 640 -995 L 618 -977 L 610 -968 L 610 -967 L 609 -966 L 609 -966 L 608 -965 L 613 -967 L 617.5 -969.5 L 622 -972 L 626 -974 L 627 -975 L 628.5 -975.5 L 630 -976 L 631 -976 L 632 -976 L 632 -977 L 634 -977 L 623 -971 L 608 -963 L 608 -965 L 589 -956 L 570 -948 L 551 -940 L 532 -933 L 502 -921 L 484 -918 L 475 -917 L 461 -916.5 L 447 -916 L 435.5 -915.5 L 424 -915 L 418 -914 L 412 -913 L 420 -910 L 428 -907 L 436 -906 L 444 -905 L 453 -905 L 465 -905 L 477.5 -906 L 490 -907 L 502 -907 L 527 -907 L 550.5 -900 L 574 -893 L 595 -877 L 613 -863 L 613 -858 L 616 -850 L 602 -851 L 589 -851 L 578 -852 L 567 -853 L 554 -855 L 536 -858 L 513.5 -861 L 491 -864 L 465 -868 L 438 -872 L 415.5 -874 L 393 -876 L 371 -876 L 367 -877 L 363 -876.5 L 359 -876 L 355 -876 L 341 -876 L 327 -876 L 313 -876 L 299 -874 L 296 -873 L 291.5 -871.5 L 287 -870 Z M 823 -559 L 818 -559 L 815 -566 L 815 -567 L 816 -568 L 817 -568 L 821 -569 L 823 -570 L 818 -576 L 814 -581 L 821 -584 L 867 -601 L 907.5 -614 L 948 -627 L 981.5 -638 L 1015 -649 L 1043 -659 L 1071 -669 L 1091 -680 L 1170 -722 L 1216 -794 L 1223 -806 L 1230.5 -823.5 L 1238 -841 L 1247 -864.5 L 1256 -888 L 1267.5 -917.5 L 1279 -947 L 1294 -982 L 1295 -985 L 1299 -986 L 1303 -987 L 1306.5 -987.5 L 1310 -988 L 1315 -989 L 1320 -990 L 1324 -993 L 1336 -1000 L 1343.5 -1004 L 1351 -1008 L 1355 -1010 L 1367 -1016 L 1376 -1018.5 L 1385 -1021 L 1388 -1022 L 1401 -1022 L 1406 -1022 L 1411.5 -1022 L 1417 -1022 L 1422 -1020 L 1426 -1019 L 1430.5 -1018 L 1435 -1017 L 1440 -1016.5 L 1445 -1016 L 1449.5 -1014 L 1454 -1012 L 1458 -1008 L 1459 -1007 L 1458 -1005.5 L 1457 -1004 L 1454.5 -1002.5 L 1452 -1001 L 1449 -1000 L 1446 -999 L 1444 -998 L 1406 -972 L 1404 -965 L 1396 -931 L 1388.5 -907 L 1381 -883 L 1374 -863 L 1372 -857 L 1367.5 -848.5 L 1363 -840 L 1357 -831 L 1351 -822 L 1345 -813.5 L 1339 -805 L 1335 -800 L 1335 -800 L 1337 -800 L 1339 -800 L 1335 -796 L 1331 -792 L 1331 -792 L 1335 -800 L 1331 -798 L 1321 -791 L 1311 -784 L 1297 -774 L 1283 -764 L 1267 -751.5 L 1251 -739 L 1235 -726 L 1219 -714 L 1206.5 -703.5 L 1194 -693 L 1183 -684 L 1161 -666 L 1154 -657 L 1154 -656 L 1152 -655 L 1152 -655 L 1152 -654 L 1157 -656 L 1161.5 -658.5 L 1166 -661 L 1170 -663 L 1171 -664 L 1172 -664.5 L 1173 -665 L 1174 -665 L 1175 -665 L 1176 -666 L 1178 -666 L 1166 -660 L 1151 -652 L 1152 -654 L 1133 -645 L 1114 -637 L 1095 -629 L 1075 -622 L 1045 -610 L 1027 -607 L 1018 -606 L 1004.5 -605.5 L 991 -605 L 979 -604.5 L 967 -604 L 961.5 -603 L 956 -602 L 963 -599 L 971 -596 L 979.5 -595 L 988 -594 L 996 -594 L 1008 -594 L 1020.5 -595 L 1033 -596 L 1046 -596 L 1071 -596 L 1094.5 -589 L 1118 -582 L 1138 -566 L 1156 -552 L 1157 -547 L 1160 -539 L 1146 -540 L 1133 -540 L 1121.5 -541 L 1110 -542 L 1098 -544 L 1080 -547 L 1057.5 -550 L 1035 -553 L 1008 -557 L 981 -561 L 958.5 -562.5 L 936 -564 L 914 -564 L 910 -565 L 906 -565 L 902 -565 L 898 -565 L 884 -565 L 870.5 -564.5 L 857 -564 L 843 -563 L 840 -562 L 835.5 -560.5 L 831 -559 Z M 273 -762 L 276 -766 L 295 -767 L 311 -767 L 342 -762 L 358 -760 L 367.5 -759 L 377 -758 L 384 -757 L 447 -748 L 463 -661 L 473 -608 L 484 -593 L 492 -579 L 512 -578 L 517 -577 L 524 -576 L 527 -576 L 529 -575 L 528 -568 L 522 -563.5 L 516 -559 L 507.5 -556 L 499 -553 L 491 -552 L 483 -551 L 477 -551 L 458 -551 L 436.5 -556.5 L 415 -562 L 389 -571 L 338 -590 L 320 -701 L 314 -749 L 290 -750 L 277 -750 L 269 -750 L 268 -751 L 267 -753 Z M 494 -764 L 494 -769 L 508 -769 L 512 -769 L 519 -769 L 529.5 -767.5 L 540 -766 L 554 -764 L 569 -762 L 577.5 -760 L 586 -758 L 593 -757 L 656 -747 L 674 -661 L 684 -610 L 695 -593 L 700 -584 L 721 -579 L 739 -575 L 738 -575 L 738 -572 L 737.5 -572.5 L 737 -573 L 734 -567 L 727 -553 L 688 -553 L 669 -553 L 647.5 -558 L 626 -563 L 599 -573 L 548 -592 L 531 -706 L 524 -753 L 511 -753 L 511 -753 L 510 -753 L 509 -753 L 509 -753 L 508 -753 L 503 -752 L 493 -753 Z" fill="black" fill-opacity="0.25" stroke="black" stroke-width="4"/>
  <rect x="0" y="-464" width="1127" height="294" fill="none" stroke="red" stroke-width="10" /><rect x="267" y="-767" width="262" height="216" fill="none" stroke="red" stroke-width="10" /><rect x="493" y="-769" width="246" height="216" fill="none" stroke="red" stroke-width="10" /><rect x="271" y="-1011.9" width="389.4" height="161" fill="none" stroke="red" stroke-width="10" /><rect x="587.4" y="-1173" width="242.3" height="161.1" fill="none" stroke="red" stroke-width="10" /><rect x="702.6" y="-1334" width="213.4" height="161" fill="none" stroke="red" stroke-width="10" /><rect x="814" y="-700.6" width="389" height="160.7" fill="none" stroke="red" stroke-width="10" /><rect x="1129.7" y="-861.3" width="243.7" height="160.7" fill="none" stroke="red" stroke-width="10" /><rect x="1245.8" y="-1022" width="213.2" height="160.7" fill="none" stroke="red" stroke-width="10" />
</svg>
