<svg xmlns="http://www.w3.org/2000/svg"
  viewBox="-50.0 -1335.0 1348.0588235294117 1217.0">
  <rect x="-50.0" y="-1335.0" width="1348.0588235294117" height="1217.0" fill="white"/>
  <path d="M 145.0 -453.0 L 170.0 -461.0 L 224.0 -460.0 L 245.0 -460.0 L 275.0 -459.5 L 305.0 -459.0 L 336.5 -456.5 L 368.0 -454.0 L 396.5 -449.0 L 425.0 -444.0 L 444.0 -436.0 L 446.0 -434.0 L 446.5 -431.5 L 447.0 -429.0 L 448.0 -427.0 L 449.0 -425.0 L 450.0 -424.0 L 442.0 -415.0 L 436.0 -416.0 L 429.0 -417.0 L 422.0 -418.0 L 412.0 -418.0 L 400.0 -418.0 L 390.0 -417.5 L 380.0 -417.0 L 369.0 -415.0 L 365.0 -415.0 L 361.5 -414.0 L 358.0 -413.0 L 358.0 -407.0 L 358.0 -391.0 L 387.0 -362.0 L 412.0 -337.0 L 448.5 -316.0 L 485.0 -295.0 L 528.0 -279.0 L 571.0 -263.0 L 617.5 -251.0 L 664.0 -239.0 L 709.5 -231.0 L 755.0 -223.0 L 797.0 -219.0 L 839.0 -215.0 L 872.0 -215.0 L 890.0 -215.0 L 911.5 -216.0 L 933.0 -217.0 L 955.5 -221.0 L 978.0 -225.0 L 999.0 -232.0 L 1020.0 -239.0 L 1036.5 -251.0 L 1053.0 -263.0 L 1063.0 -280.0 L 1073.0 -297.0 L 1073.0 -321.0 L 1070.0 -348.0 L 1062.0 -390.0 L 976.0 -434.0 L 973.0 -438.0 L 971.5 -441.5 L 970.0 -445.0 L 967.0 -450.0 L 980.0 -453.0 L 994.0 -454.0 L 1008.0 -455.0 L 1025.0 -458.0 L 1042.0 -460.0 L 1054.0 -461.0 L 1066.0 -462.0 L 1078.0 -462.0 L 1118.0 -462.0 L 1148.0 -454.5 L 1178.0 -447.0 L 1201.0 -434.0 L 1209.0 -430.0 L 1217.0 -422.5 L 1225.0 -415.0 L 1233.0 -407.0 L 1249.0 -370.0 L 1248.0 -337.0 L 1248.0 -299.0 L 1229.5 -271.5 L 1211.0 -244.0 L 1181.0 -225.5 L 1151.0 -207.0 L 1112.0 -195.5 L 1073.0 -184.0 L 1034.0 -178.0 L 995.0 -172.0 L 958.0 -170.0 L 921.0 -168.0 L 894.0 -168.0 L 823.0 -168.0 L 745.5 -177.0 L 668.0 -186.0 L 580.0 -204.0 L 512.0 -218.0 L 440.0 -243.0 L 368.0 -268.0 L 289.0 -304.0 L 122.0 -381.0 L 122.0 -428.0 L 122.0 -447.0 Z M 569.0 -829.0 L 569.0 -830.0 L 570.0 -831.0 L 571.0 -831.0 L 575.0 -832.0 L 577.0 -833.0 L 573.0 -839.0 L 569.0 -844.0 L 575.0 -846.0 L 622.0 -863.0 L 662.0 -876.5 L 702.0 -890.0 L 736.0 -901.5 L 770.0 -913.0 L 797.5 -923.0 L 825.0 -933.0 L 845.0 -943.0 L 925.0 -984.0 L 970.0 -1057.0 L 977.0 -1069.0 L 984.5 -1087.0 L 992.0 -1105.0 L 1001.0 -1128.0 L 1010.0 -1151.0 L 1021.5 -1180.0 L 1033.0 -1209.0 L 1049.0 -1245.0 L 1050.0 -1248.0 L 1053.5 -1249.5 L 1057.0 -1251.0 L 1061.0 -1251.0 L 1065.0 -1251.0 L 1069.5 -1252.0 L 1074.0 -1253.0 L 1078.0 -1255.0 L 1090.0 -1262.0 L 1098.0 -1266.5 L 1106.0 -1271.0 L 1110.0 -1272.0 L 1122.0 -1278.0 L 1130.5 -1281.0 L 1139.0 -1284.0 L 1142.0 -1285.0 L 1155.0 -1285.0 L 1160.0 -1285.0 L 1165.5 -1284.5 L 1171.0 -1284.0 L 1176.0 -1282.0 L 1180.0 -1281.0 L 1185.0 -1280.5 L 1190.0 -1280.0 L 1195.0 -1279.0 L 1200.0 -1278.0 L 1204.5 -1276.5 L 1209.0 -1275.0 L 1213.0 -1271.0 L 1216.0 -1268.0 L 1209.5 -1265.5 L 1203.0 -1263.0 L 1198.0 -1260.0 L 1161.0 -1235.0 L 1158.0 -1228.0 L 1152.0 -1203.0 L 1146.5 -1181.5 L 1141.0 -1160.0 L 1133.5 -1140.5 L 1126.0 -1121.0 L 1116.0 -1102.0 L 1106.0 -1083.0 L 1090.0 -1063.0 L 1092.0 -1064.0 L 1093.0 -1064.0 L 1094.0 -1064.0 L 1089.0 -1059.0 L 1086.0 -1056.0 L 1086.0 -1055.0 L 1086.0 -1055.0 L 1090.0 -1063.0 L 1089.0 -1063.0 L 1088.0 -1061.5 L 1087.0 -1060.0 L 1085.0 -1059.0 L 1047.0 -1033.0 L 1010.0 -1005.0 L 973.0 -977.0 L 938.0 -947.0 L 927.0 -938.0 L 919.5 -931.0 L 912.0 -924.0 L 908.0 -920.0 L 908.0 -919.0 L 906.0 -918.0 L 906.0 -918.0 L 905.0 -917.0 L 911.0 -919.0 L 916.0 -921.5 L 921.0 -924.0 L 924.0 -926.0 L 929.0 -929.0 L 930.0 -929.0 L 930.0 -929.0 L 928.0 -927.0 L 927.0 -926.0 L 923.5 -924.0 L 920.0 -922.0 L 917.0 -920.5 L 914.0 -919.0 L 911.0 -918.0 L 908.0 -917.0 L 906.0 -917.0 L 905.0 -917.0 L 905.0 -917.0 L 893.0 -911.0 L 877.5 -904.0 L 862.0 -897.0 L 845.0 -890.0 L 828.0 -883.0 L 811.5 -877.5 L 795.0 -872.0 L 781.0 -870.0 L 772.0 -869.0 L 758.5 -868.0 L 745.0 -867.0 L 733.5 -866.5 L 722.0 -866.0 L 716.5 -865.0 L 711.0 -864.0 L 717.0 -862.0 L 725.0 -859.0 L 733.5 -858.0 L 742.0 -857.0 L 751.0 -857.0 L 763.0 -857.0 L 775.0 -858.0 L 787.0 -859.0 L 800.0 -859.0 L 825.0 -859.0 L 848.5 -852.0 L 872.0 -845.0 L 892.0 -829.0 L 911.0 -815.0 L 911.0 -810.0 L 914.0 -802.0 L 900.0 -802.0 L 887.0 -802.0 L 875.5 -803.5 L 864.0 -805.0 L 852.0 -807.0 L 835.0 -810.0 L 812.0 -812.5 L 789.0 -815.0 L 762.0 -819.0 L 735.0 -823.0 L 713.0 -825.0 L 691.0 -827.0 L 669.0 -827.0 L 665.0 -828.0 L 660.5 -828.0 L 656.0 -828.0 L 653.0 -828.0 L 639.0 -828.0 L 625.0 -827.5 L 611.0 -827.0 L 597.0 -826.0 L 594.0 -825.0 L 589.5 -823.0 L 585.0 -821.0 L 577.0 -821.0 L 572.0 -821.0 Z M 8.0 -593.0 L 3.0 -593.0 L 0.0 -601.0 L 0.0 -602.0 L 2.0 -602.0 L 3.0 -602.0 L 6.0 -604.0 L 8.0 -605.0 L 4.0 -610.0 L 0.0 -615.0 L 6.0 -618.0 L 52.0 -635.0 L 92.5 -648.0 L 133.0 -661.0 L 167.0 -672.5 L 201.0 -684.0 L 228.5 -694.0 L 256.0 -704.0 L 277.0 -714.0 L 357.0 -755.0 L 402.0 -829.0 L 409.0 -841.0 L 416.5 -858.5 L 424.0 -876.0 L 432.5 -899.0 L 441.0 -922.0 L 452.5 -951.5 L 464.0 -981.0 L 480.0 -1016.0 L 481.0 -1019.0 L 484.0 -1020.5 L 487.0 -1022.0 L 491.5 -1022.5 L 496.0 -1023.0 L 500.5 -1023.5 L 505.0 -1024.0 L 509.0 -1027.0 L 521.0 -1034.0 L 529.0 -1038.0 L 537.0 -1042.0 L 541.0 -1044.0 L 553.0 -1050.0 L 561.5 -1052.5 L 570.0 -1055.0 L 573.0 -1057.0 L 587.0 -1057.0 L 592.0 -1057.0 L 597.0 -1056.5 L 602.0 -1056.0 L 608.0 -1054.0 L 612.0 -1053.0 L 616.5 -1052.0 L 621.0 -1051.0 L 626.0 -1050.5 L 631.0 -1050.0 L 636.0 -1048.0 L 640.0 -1047.0 L 644.0 -1043.0 L 645.0 -1042.0 L 644.0 -1040.0 L 643.0 -1038.0 L 640.0 -1037.0 L 637.0 -1036.0 L 634.5 -1034.5 L 632.0 -1033.0 L 630.0 -1032.0 L 593.0 -1006.0 L 589.0 -999.0 L 581.0 -965.0 L 574.0 -941.0 L 567.0 -917.0 L 559.0 -897.0 L 557.0 -891.0 L 552.5 -883.0 L 548.0 -875.0 L 542.0 -865.5 L 536.0 -856.0 L 530.5 -847.5 L 525.0 -839.0 L 521.0 -834.0 L 521.0 -834.0 L 523.0 -834.0 L 525.0 -834.0 L 520.0 -830.0 L 516.0 -826.0 L 516.0 -826.0 L 521.0 -834.0 L 517.0 -832.0 L 506.5 -825.0 L 496.0 -818.0 L 482.0 -808.0 L 468.0 -798.0 L 452.5 -785.5 L 437.0 -773.0 L 421.0 -760.0 L 405.0 -748.0 L 392.5 -737.5 L 380.0 -727.0 L 369.0 -718.0 L 358.0 -709.0 L 350.5 -702.5 L 343.0 -696.0 L 339.0 -692.0 L 339.0 -691.0 L 337.0 -689.0 L 337.0 -689.0 L 337.0 -688.0 L 343.0 -690.0 L 347.5 -692.5 L 352.0 -695.0 L 356.0 -697.0 L 361.0 -700.0 L 362.0 -700.0 L 362.0 -700.0 L 359.0 -699.0 L 358.0 -698.0 L 354.5 -696.0 L 351.0 -694.0 L 348.0 -692.0 L 345.0 -690.0 L 342.0 -689.0 L 339.0 -688.0 L 338.0 -688.0 L 337.0 -688.0 L 337.0 -688.0 L 325.0 -682.0 L 309.0 -675.0 L 293.0 -668.0 L 276.0 -661.0 L 259.0 -654.0 L 242.5 -649.0 L 226.0 -644.0 L 213.0 -641.0 L 204.0 -640.0 L 190.0 -639.5 L 176.0 -639.0 L 164.5 -638.5 L 153.0 -638.0 L 147.5 -637.0 L 142.0 -636.0 L 149.0 -633.0 L 157.0 -630.0 L 165.5 -629.0 L 174.0 -628.0 L 182.0 -628.0 L 194.0 -628.0 L 206.0 -629.0 L 218.0 -630.0 L 231.0 -630.0 L 256.0 -630.0 L 279.5 -623.0 L 303.0 -616.0 L 323.0 -601.0 L 341.0 -587.0 L 342.0 -582.0 L 345.0 -574.0 L 331.0 -574.0 L 318.0 -574.0 L 307.0 -575.0 L 296.0 -576.0 L 283.0 -579.0 L 265.0 -582.0 L 242.5 -584.5 L 220.0 -587.0 L 194.0 -591.0 L 167.0 -595.0 L 144.5 -597.0 L 122.0 -599.0 L 100.0 -599.0 L 96.0 -600.0 L 92.0 -600.0 L 88.0 -600.0 L 84.0 -600.0 L 70.0 -600.0 L 56.0 -599.5 L 42.0 -599.0 L 28.0 -597.0 L 25.0 -596.0 L 20.5 -594.5 L 16.0 -593.0 Z M 652.0 -718.0 L 652.0 -723.0 L 666.0 -723.0 L 677.0 -723.0 L 688.5 -721.5 L 700.0 -720.0 L 712.0 -718.0 L 727.0 -716.0 L 735.5 -714.0 L 744.0 -712.0 L 751.0 -711.0 L 814.0 -700.0 L 832.0 -615.0 L 843.0 -564.0 L 852.0 -547.0 L 857.0 -538.0 L 879.0 -533.0 L 897.0 -529.0 L 896.0 -529.0 L 896.0 -526.0 L 895.0 -526.5 L 894.0 -527.0 L 891.0 -521.0 L 884.0 -507.0 L 846.0 -507.0 L 827.0 -507.0 L 805.0 -512.5 L 783.0 -518.0 L 757.0 -527.0 L 706.0 -546.0 L 688.0 -660.0 L 681.0 -707.0 L 668.0 -708.0 L 668.0 -708.0 L 667.5 -707.5 L 667.0 -707.0 L 666.0 -707.0 L 665.0 -707.0 L 661.0 -707.0 L 651.0 -707.0 Z" fill="black" fill-opacity="0.25" stroke="black" stroke-width="4.0"/>
  <rect x="122.0" y="-462.0" width="1127.0000000000002" height="294.00000000000006" fill="none" stroke="red" stroke-width="10.0" /><rect x="569.0" y="-1285.0" width="647.0" height="482.9999999999999" fill="none" stroke="red" stroke-width="10.0" /><rect x="0.0" y="-1057.0" width="645.0" height="483.0" fill="none" stroke="red" stroke-width="10.0" /><rect x="651.0" y="-723.0" width="246.0" height="215.99999999999997" fill="none" stroke="red" stroke-width="10.0" />
</svg>
