<svg xmlns="http://www.w3.org/2000/svg"
  viewBox="-50 -1088.167 1228 967.167">
  <rect x="-50" y="-1088.167" width="1228" height="967.167" fill="white"/>
  <path d="M 738 -808 L 732 -796 L 726 -777.5 L 720 -759 L 714 -734 L 851 -727 L 1082 -718 L 1128 -673 L 986 -673 L 879.5 -673 L 773 -673 L 693 -674 L 676 -636 L 648 -607 L 637 -593 L 604 -584 L 587 -579 L 572 -577.5 L 557 -576 L 543 -576 L 520 -576 L 512 -579 L 498 -585 L 507 -593 L 532 -629 L 548 -679 L 535 -679 L 335 -688 L 237 -737 L 153 -776 L 51 -901 L 43 -915 L 39 -941 L 26 -1015 L 21 -1024 L 53 -1028 L 90 -1034 L 128 -1039 L 143 -1038 L 186 -1038 L 215 -1019 L 222 -1014 L 223 -995 L 220 -949 L 220 -935 L 224 -929 L 316 -798 L 527 -756 L 535 -753 L 545.5 -752 L 556 -751 L 568 -749 L 573 -765 L 578 -777 L 583 -789 L 589 -801 L 598 -818 L 626 -818 L 687 -812 L 700 -811 L 712.5 -809.5 L 725 -808 Z M 1111 -411 L 1127 -375 L 1126 -340 L 1126 -256 L 1029 -214 L 931 -172 L 772 -171 L 633 -171 L 457 -207 L 322 -235 L 167 -308 L 0 -386 L 0 -431 L 0 -450 L 23 -456 L 50 -464 L 111 -464 L 144 -464 L 175.5 -462.5 L 207 -461 L 238 -457 L 298 -450 L 321 -438 L 327 -427 L 328 -428 L 320 -418 L 314 -419 L 306.5 -420 L 299 -421 L 290 -421 L 277 -421 L 267 -420.5 L 257 -420 L 246 -418 L 235 -419 L 236 -411 L 236 -395 L 265 -365 L 282 -348 L 302.5 -333.5 L 323 -319 L 348 -308 L 392 -287 L 439 -271.5 L 486 -256 L 542 -243 L 648 -218 L 750 -218 L 847 -218 L 897 -243 L 952 -271 L 951 -325 L 948 -351 L 940 -393 L 854 -437 L 851 -442 L 849.5 -445 L 848 -448 L 845 -453 L 858 -456 L 871.5 -457 L 885 -458 L 902 -460 L 920 -462 L 932 -463.5 L 944 -465 L 956 -465 L 995 -465 L 1025.5 -457.5 L 1056 -450 L 1079 -437 L 1087 -433 L 1095 -426 L 1103 -419 Z" fill="black" fill-opacity="0.25" stroke="black" stroke-width="4"/>
  <rect x="21" y="-1039" width="1107" height="463" fill="none" stroke="red" stroke-width="10" /><rect x="0" y="-465" width="1127" height="294" fill="none" stroke="red" stroke-width="10" />
</svg>
