<svg xmlns="http://www.w3.org/2000/svg"
  viewBox="-50 -1324 1500.5 1208">
  <rect x="-50" y="-1324" width="1500.5" height="1208" fill="white"/>
  <path d="M 0 -426 L 0 -445 L 23 -451 L 48 -459 L 102 -458 L 123 -458 L 153 -457.5 L 183 -457 L 214.5 -454.5 L 246 -452 L 274.5 -447 L 303 -442 L 322 -434 L 324 -432 L 324.5 -429.5 L 325 -427 L 326 -425 L 327 -423 L 328 -422 L 320 -413 L 314 -414 L 307 -415 L 300 -416 L 290 -416 L 278 -416 L 268 -415.5 L 258 -415 L 247 -413 L 243 -413 L 239.5 -412 L 236 -411 L 236 -405 L 236 -389 L 265 -360 L 290 -335 L 326.5 -314 L 363 -293 L 406 -277 L 449 -261 L 495.5 -249 L 542 -237 L 587.5 -229 L 633 -221 L 675 -217 L 717 -213 L 750 -213 L 768 -213 L 789.5 -214 L 811 -215 L 833.5 -219 L 856 -223 L 877 -230 L 898 -237 L 914.5 -249 L 931 -261 L 941 -278 L 951 -295 L 951 -319 L 948 -346 L 940 -388 L 854 -432 L 851 -436 L 849.5 -439.5 L 848 -443 L 845 -448 L 858 -451 L 872 -452 L 886 -453 L 903 -456 L 920 -458 L 932 -459 L 944 -460 L 956 -460 L 996 -460 L 1026 -452.5 L 1056 -445 L 1079 -432 L 1087 -428 L 1095 -420.5 L 1103 -413 L 1111 -405 L 1127 -368 L 1126 -335 L 1126 -297 L 1107.5 -269.5 L 1089 -242 L 1059 -223.5 L 1029 -205 L 990 -193.5 L 951 -182 L 912 -176 L 873 -170 L 836 -168 L 799 -166 L 772 -166 L 701 -166 L 623.5 -175 L 546 -184 L 458 -202 L 390 -216 L 318 -241 L 246 -266 L 167 -302 L 0 -380 Z M 287 -818 L 287 -819 L 289 -819 L 290 -819 L 293 -821 L 295 -822 L 291 -828 L 287 -833 L 293 -835 L 339 -852 L 379.5 -865 L 420 -878 L 454 -889.5 L 488 -901 L 515.5 -911 L 543 -921 L 564 -932 L 644 -973 L 689 -1046 L 696 -1058 L 703.5 -1075.5 L 711 -1093 L 719.5 -1116.5 L 728 -1140 L 739.5 -1169 L 751 -1198 L 767 -1233 L 768 -1236 L 771.5 -1237.5 L 775 -1239 L 779 -1239.5 L 783 -1240 L 788 -1241 L 793 -1242 L 797 -1244 L 809 -1251 L 816.5 -1255 L 824 -1259 L 828 -1261 L 840 -1267 L 849 -1269.5 L 858 -1272 L 861 -1274 L 874 -1274 L 879 -1274 L 884 -1273.5 L 889 -1273 L 895 -1271 L 899 -1270 L 903.5 -1269.5 L 908 -1269 L 913 -1268 L 918 -1267 L 922.5 -1265.5 L 927 -1264 L 931 -1260 L 932 -1259 L 931 -1257 L 930 -1255 L 927.5 -1254 L 925 -1253 L 922 -1251.5 L 919 -1250 L 917 -1249 L 880 -1223 L 876 -1216 L 868 -1182 L 861 -1158 L 854 -1134 L 846 -1115 L 844 -1109 L 839.5 -1100.5 L 835 -1092 L 829 -1083 L 823 -1074 L 817.5 -1065.5 L 812 -1057 L 808 -1051 L 808 -1051 L 810 -1052 L 812 -1052 L 807 -1047 L 803 -1043 L 803 -1043 L 808 -1051 L 804 -1049 L 793.5 -1042.5 L 783 -1036 L 769.5 -1025.5 L 756 -1015 L 740 -1002.5 L 724 -990 L 708 -977 L 692 -965 L 679.5 -954.5 L 667 -944 L 656 -936 L 645 -927 L 637.5 -920 L 630 -913 L 626 -909 L 626 -908 L 624 -907 L 624 -907 L 624 -906 L 630 -908 L 634.5 -910.5 L 639 -913 L 643 -915 L 648 -918 L 649 -917 L 649 -917 L 646 -916 L 645 -915 L 641.5 -913 L 638 -911 L 635 -909.5 L 632 -908 L 629 -906.5 L 626 -905 L 625 -905 L 624 -905 L 624 -906 L 612 -900 L 596 -892.5 L 580 -885 L 563 -878.5 L 546 -872 L 529.5 -866.5 L 513 -861 L 500 -858 L 491 -857 L 477 -856.5 L 463 -856 L 451.5 -855.5 L 440 -855 L 434.5 -854 L 429 -853 L 436 -851 L 444 -848 L 452.5 -847 L 461 -846 L 469 -846 L 481 -846 L 493.5 -847 L 506 -848 L 518 -848 L 543 -848 L 566.5 -840.5 L 590 -833 L 611 -818 L 629 -804 L 629 -799 L 632 -791 L 618 -791 L 605 -791 L 594 -792 L 583 -793 L 570 -796 L 552 -799 L 529.5 -801.5 L 507 -804 L 481 -808 L 454 -812 L 431.5 -814 L 409 -816 L 387 -816 L 383 -817 L 379 -817 L 375 -817 L 371 -817 L 357 -817 L 343 -816.5 L 329 -816 L 315 -814 L 312 -813 L 307.5 -811.5 L 303 -810 L 295 -810 L 290 -810 Z M 764 -537 L 759 -537 L 756 -545 L 756 -546 L 758 -546 L 759 -546 L 762 -548 L 764 -549 L 760 -555 L 756 -560 L 762 -562 L 808 -579 L 848.5 -592 L 889 -605 L 923 -616.5 L 957 -628 L 984.5 -638 L 1012 -648 L 1032 -659 L 1112 -700 L 1157 -773 L 1164 -785 L 1171.5 -802.5 L 1179 -820 L 1188 -843.5 L 1197 -867 L 1208.5 -896 L 1220 -925 L 1236 -960 L 1237 -963 L 1240.5 -964.5 L 1244 -966 L 1248 -966.5 L 1252 -967 L 1256.5 -968 L 1261 -969 L 1265 -971 L 1277 -978 L 1285 -982 L 1293 -986 L 1297 -988 L 1309 -994 L 1317.5 -996.5 L 1326 -999 L 1329 -1001 L 1343 -1001 L 1348 -1001 L 1353 -1000.5 L 1358 -1000 L 1364 -998 L 1368 -997 L 1372.5 -996.5 L 1377 -996 L 1381.5 -995 L 1386 -994 L 1391 -992.5 L 1396 -991 L 1400 -987 L 1401 -986 L 1400 -984 L 1399 -982 L 1396 -981 L 1393 -980 L 1390 -979 L 1388 -978 L 1386 -976 L 1349 -950 L 1345 -943 L 1337 -909 L 1330 -885 L 1323 -861 L 1315 -842 L 1313 -836 L 1308.5 -827.5 L 1304 -819 L 1298 -810 L 1292 -801 L 1286.5 -792.5 L 1281 -784 L 1277 -778 L 1277 -778 L 1279 -779 L 1281 -779 L 1276 -774 L 1272 -770 L 1272 -770 L 1277 -778 L 1273 -776 L 1262.5 -769.5 L 1252 -763 L 1238 -752.5 L 1224 -742 L 1208.5 -729.5 L 1193 -717 L 1177 -704 L 1161 -692 L 1148.5 -681.5 L 1136 -671 L 1125 -663 L 1114 -654 L 1106.5 -647 L 1099 -640 L 1095 -636 L 1095 -635 L 1093 -634 L 1093 -634 L 1093 -633 L 1099 -635 L 1103.5 -637.5 L 1108 -640 L 1112 -642 L 1117 -645 L 1117 -645 L 1117 -645 L 1115 -643 L 1114 -642 L 1110.5 -640 L 1107 -638 L 1104 -636.5 L 1101 -635 L 1098 -633.5 L 1095 -632 L 1094 -632 L 1093 -632 L 1093 -633 L 1081 -627 L 1065 -619.5 L 1049 -612 L 1032 -605.5 L 1015 -599 L 998.5 -593.5 L 982 -588 L 969 -585 L 960 -584 L 946 -583.5 L 932 -583 L 920.5 -582.5 L 909 -582 L 903.5 -581 L 898 -580 L 905 -578 L 913 -575 L 921 -574 L 929 -573 L 938 -573 L 950 -573 L 962 -574 L 974 -575 L 987 -575 L 1012 -575 L 1035.5 -568 L 1059 -561 L 1079 -545 L 1097 -531 L 1098 -526 L 1101 -518 L 1087 -518 L 1074 -518 L 1063 -519 L 1052 -520 L 1039 -523 L 1021 -526 L 998.5 -528.5 L 976 -531 L 949 -535 L 922 -539 L 900 -541 L 878 -543 L 856 -543 L 852 -544 L 848 -544 L 844 -544 L 840 -544 L 826 -544 L 812 -543.5 L 798 -543 L 784 -541 L 781 -540 L 776.5 -538.5 L 772 -537 Z M 424 -699 L 424 -704 L 437 -704 L 441 -704 L 448 -704 L 458.5 -703 L 469 -702 L 483 -699 L 498 -697 L 506.5 -695.5 L 515 -694 L 522 -693 L 585 -683 L 603 -596 L 614 -545 L 624 -529 L 629 -520 L 650 -515 L 668 -511 L 667 -510 L 667 -507 L 666.5 -507.5 L 666 -508 L 663 -502 L 656 -488 L 617 -488 L 598 -488 L 576.5 -493.5 L 555 -499 L 529 -509 L 478 -528 L 460 -642 L 453 -689 L 440 -689 L 440 -689 L 439 -688.5 L 438 -688 L 438 -688 L 437 -688 L 432 -688 L 423 -688 Z" fill="black" fill-opacity="0.25" stroke="black" stroke-width="4"/>
  <rect x="0" y="-460" width="1127" height="294" fill="none" stroke="red" stroke-width="10" /><rect x="423" y="-704" width="245" height="216" fill="none" stroke="red" stroke-width="10" /><rect x="287" y="-952" width="389.5" height="161" fill="none" stroke="red" stroke-width="10" /><rect x="603" y="-1113" width="242.3" height="161" fill="none" stroke="red" stroke-width="10" /><rect x="718.2" y="-1274" width="213.8" height="161" fill="none" stroke="red" stroke-width="10" /><rect x="756" y="-679" width="389.5" height="161" fill="none" stroke="red" stroke-width="10" /><rect x="1071" y="-840" width="243.3" height="161" fill="none" stroke="red" stroke-width="10" /><rect x="1186.7" y="-1001" width="214.3" height="161" fill="none" stroke="red" stroke-width="10" />
</svg>
