<svg xmlns="http://www.w3.org/2000/svg"
  viewBox="-50.0 -789.0 1227.0 660.0">
  <rect x="-50.0" y="-789.0" width="1227.0" height="660.0" fill="white"/>
  <path d="M 1111.0 -418.0 L 1127.0 -382.0 L 1127.0 -348.0 L 1127.0 -264.0 L 1030.0 -222.0 L 931.0 -180.0 L 772.0 -179.0 L 633.0 -179.0 L 458.0 -215.0 L 323.0 -243.0 L 167.0 -315.0 L 0.0 -392.0 L 0.0 -439.0 L 0.0 -457.0 L 24.0 -464.0 L 52.0 -472.0 L 111.0 -472.0 L 144.0 -472.0 L 176.0 -470.5 L 208.0 -469.0 L 239.0 -465.0 L 298.0 -458.0 L 322.0 -447.0 L 328.0 -436.0 L 328.0 -435.0 L 320.0 -426.0 L 314.0 -427.0 L 307.0 -428.5 L 300.0 -430.0 L 291.0 -430.0 L 279.0 -430.0 L 268.5 -429.0 L 258.0 -428.0 L 247.0 -426.0 L 236.0 -427.0 L 236.0 -418.0 L 236.0 -402.0 L 266.0 -373.0 L 283.0 -356.0 L 303.0 -342.0 L 323.0 -328.0 L 349.0 -315.0 L 392.0 -294.0 L 439.5 -279.5 L 487.0 -265.0 L 542.0 -251.0 L 648.0 -226.0 L 750.0 -226.0 L 846.0 -226.0 L 897.0 -251.0 L 951.0 -278.0 L 952.0 -332.0 L 948.0 -359.0 L 940.0 -401.0 L 855.0 -445.0 L 852.0 -449.0 L 850.5 -452.5 L 849.0 -456.0 L 845.0 -461.0 L 858.0 -464.0 L 872.0 -465.0 L 886.0 -466.0 L 903.0 -469.0 L 920.0 -471.0 L 932.0 -472.0 L 944.0 -473.0 L 956.0 -473.0 L 995.0 -473.0 L 1025.5 -465.5 L 1056.0 -458.0 L 1080.0 -445.0 L 1088.0 -441.0 L 1095.5 -433.5 L 1103.0 -426.0 Z M 416.0 -734.0 L 420.0 -739.0 L 439.0 -739.0 L 461.0 -739.0 L 497.0 -734.0 L 544.0 -726.0 L 620.0 -714.0 L 638.0 -614.0 L 649.0 -552.0 L 663.0 -536.0 L 677.0 -520.0 L 694.0 -517.0 L 715.0 -515.0 L 714.0 -514.0 L 714.0 -510.0 L 708.0 -503.0 L 692.0 -487.0 L 655.0 -487.0 L 633.0 -487.0 L 607.5 -492.0 L 582.0 -497.0 L 550.0 -509.0 L 493.0 -530.0 L 471.0 -662.0 L 462.0 -718.0 L 436.0 -718.0 L 421.0 -718.0 L 412.0 -718.0 L 410.0 -720.0 L 407.0 -722.0 Z" fill="black" fill-opacity="0.25" stroke="black" stroke-width="4.0"/>
  <rect x="0.0" y="-473.0" width="1127.0" height="294.0" fill="none" stroke="red" stroke-width="10.0" /><rect x="407.0" y="-739.0" width="308.0" height="252.0" fill="none" stroke="red" stroke-width="10.0" />
</svg>
