<svg xmlns="http://www.w3.org/2000/svg"
  viewBox="-50 -918 1947 829">
  <rect x="-50" y="-918" width="1947" height="829" fill="white"/>
  <path d="M 702 -746 L 702 -774 L 716 -794 L 730 -814 L 752 -827.5 L 774 -841 L 801.5 -849 L 829 -857 L 857.5 -861 L 886 -865 L 912.5 -866.5 L 939 -868 L 959 -868 L 1019 -868 L 1076 -862.5 L 1133 -857 L 1190 -847 L 1247 -837 L 1303 -823 L 1359 -809 L 1416 -793 L 1533 -760 L 1682 -662 L 1828 -566 L 1827 -524 L 1827 -505 L 1791 -505 L 1744 -505 L 1694 -511.5 L 1644 -518 L 1598 -529 L 1609 -633 L 1434 -716 L 1266 -796 L 1094 -796 L 1077 -796 L 1056.5 -794.5 L 1036 -793 L 1014.5 -789 L 993 -785 L 972.5 -778 L 952 -771 L 935.5 -759.5 L 919 -748 L 909 -731.5 L 899 -715 L 898 -693 L 897 -662 L 943 -625 L 1003 -579 L 1007 -579 L 868 -580 L 798 -608 L 751 -628 L 719 -677 L 702 -717 Z M 1831 -378 L 1847 -342 L 1847 -308 L 1847 -224 L 1750 -181 L 1651 -139 L 1493 -139 L 1354 -139 L 1179 -175 L 1044 -203 L 888 -275 L 721 -352 L 721 -398 L 721 -416 L 744 -423 L 772 -431 L 831 -431 L 864 -431 L 896.5 -430 L 929 -429 L 960 -425 L 1019 -418 L 1042 -406 L 1048 -395 L 1049 -395 L 1041 -386 L 1035 -387 L 1027.5 -388 L 1020 -389 L 1011 -389 L 999 -389 L 988.5 -388 L 978 -387 L 968 -386 L 957 -387 L 956 -378 L 956 -362 L 986 -332 L 1003 -315 L 1023.5 -301 L 1044 -287 L 1069 -275 L 1112 -254 L 1160 -239 L 1208 -224 L 1263 -211 L 1369 -186 L 1471 -185 L 1568 -185 L 1618 -211 L 1673 -238 L 1672 -292 L 1669 -318 L 1661 -360 L 1575 -405 L 1572 -409 L 1570.5 -412 L 1569 -415 L 1566 -420 L 1579 -423 L 1592.5 -424.5 L 1606 -426 L 1624 -428 L 1641 -430 L 1653 -431.5 L 1665 -433 L 1677 -433 L 1716 -433 L 1746.5 -425 L 1777 -417 L 1800 -405 L 1808 -401 L 1815.5 -393.5 L 1823 -386 Z M 55 -813 L 104 -817 L 209 -818 L 281 -818 L 359 -803 L 386 -798 L 409.5 -791.5 L 433 -785 L 455 -776 L 503 -765 L 542 -748 L 581 -731 L 608 -710 L 668 -665 L 667 -613 L 667 -587 L 653 -566 L 648 -559 L 621 -559 L 586 -558 L 510 -573 L 497 -575 L 480 -578.5 L 463 -582 L 441 -587 L 468 -603 L 481 -621 L 489 -632 L 491.5 -640.5 L 494 -649 L 492 -657 L 480 -683 L 437 -707.5 L 394 -732 L 319 -748 L 239 -765 L 159.5 -774.5 L 80 -784 L 0 -798 Z" fill="black" fill-opacity="0.25" stroke="black" stroke-width="4"/>
  <rect x="702" y="-868" width="1126" height="363" fill="none" stroke="red" stroke-width="10" /><rect x="721" y="-433" width="1126" height="294" fill="none" stroke="red" stroke-width="10" /><rect x="0" y="-818" width="668" height="260" fill="none" stroke="red" stroke-width="10" />
</svg>
