<svg xmlns="http://www.w3.org/2000/svg"
  viewBox="-50.0 -1324.0 1500.5 1208.0">
  <rect x="-50.0" y="-1324.0" width="1500.5" height="1208.0" fill="white"/>
  <path d="M 0.0 -426.0 L 0.0 -445.0 L 23.0 -451.0 L 48.0 -459.0 L 102.0 -458.0 L 123.0 -458.0 L 153.0 -457.5 L 183.0 -457.0 L 214.5 -454.5 L 246.0 -452.0 L 274.5 -447.0 L 303.0 -442.0 L 322.0 -434.0 L 324.0 -432.0 L 324.5 -429.5 L 325.0 -427.0 L 326.0 -425.0 L 327.0 -423.0 L 328.0 -422.0 L 320.0 -413.0 L 314.0 -414.0 L 307.0 -415.0 L 300.0 -416.0 L 290.0 -416.0 L 278.0 -416.0 L 268.0 -415.5 L 258.0 -415.0 L 247.0 -413.0 L 243.0 -413.0 L 239.5 -412.0 L 236.0 -411.0 L 236.0 -405.0 L 236.0 -389.0 L 265.0 -360.0 L 290.0 -335.0 L 326.5 -314.0 L 363.0 -293.0 L 406.0 -277.0 L 449.0 -261.0 L 495.5 -249.0 L 542.0 -237.0 L 587.5 -229.0 L 633.0 -221.0 L 675.0 -217.0 L 717.0 -213.0 L 750.0 -213.0 L 768.0 -213.0 L 789.5 -214.0 L 811.0 -215.0 L 833.5 -219.0 L 856.0 -223.0 L 877.0 -230.0 L 898.0 -237.0 L 914.5 -249.0 L 931.0 -261.0 L 941.0 -278.0 L 951.0 -295.0 L 951.0 -319.0 L 948.0 -346.0 L 940.0 -388.0 L 854.0 -432.0 L 851.0 -436.0 L 849.5 -439.5 L 848.0 -443.0 L 845.0 -448.0 L 858.0 -451.0 L 872.0 -452.0 L 886.0 -453.0 L 903.0 -456.0 L 920.0 -458.0 L 932.0 -459.0 L 944.0 -460.0 L 956.0 -460.0 L 996.0 -460.0 L 1026.0 -452.5 L 1056.0 -445.0 L 1079.0 -432.0 L 1087.0 -428.0 L 1095.0 -420.5 L 1103.0 -413.0 L 1111.0 -405.0 L 1127.0 -368.0 L 1126.0 -335.0 L 1126.0 -297.0 L 1107.5 -269.5 L 1089.0 -242.0 L 1059.0 -223.5 L 1029.0 -205.0 L 990.0 -193.5 L 951.0 -182.0 L 912.0 -176.0 L 873.0 -170.0 L 836.0 -168.0 L 799.0 -166.0 L 772.0 -166.0 L 701.0 -166.0 L 623.5 -175.0 L 546.0 -184.0 L 458.0 -202.0 L 390.0 -216.0 L 318.0 -241.0 L 246.0 -266.0 L 167.0 -302.0 L 0.0 -380.0 Z M 287.0 -818.0 L 287.0 -819.0 L 289.0 -819.0 L 290.0 -819.0 L 293.0 -821.0 L 295.0 -822.0 L 291.0 -828.0 L 287.0 -833.0 L 293.0 -835.0 L 339.0 -852.0 L 379.5 -865.0 L 420.0 -878.0 L 454.0 -889.5 L 488.0 -901.0 L 515.5 -911.0 L 543.0 -921.0 L 564.0 -932.0 L 644.0 -973.0 L 689.0 -1046.0 L 696.0 -1058.0 L 703.5 -1075.5 L 711.0 -1093.0 L 719.5 -1116.5 L 728.0 -1140.0 L 739.5 -1169.0 L 751.0 -1198.0 L 767.0 -1233.0 L 768.0 -1236.0 L 771.5 -1237.5 L 775.0 -1239.0 L 779.0 -1239.5 L 783.0 -1240.0 L 788.0 -1241.0 L 793.0 -1242.0 L 797.0 -1244.0 L 809.0 -1251.0 L 816.5 -1255.0 L 824.0 -1259.0 L 828.0 -1261.0 L 840.0 -1267.0 L 849.0 -1269.5 L 858.0 -1272.0 L 861.0 -1274.0 L 874.0 -1274.0 L 879.0 -1274.0 L 884.0 -1273.5 L 889.0 -1273.0 L 895.0 -1271.0 L 899.0 -1270.0 L 903.5 -1269.5 L 908.0 -1269.0 L 913.0 -1268.0 L 918.0 -1267.0 L 922.5 -1265.5 L 927.0 -1264.0 L 931.0 -1260.0 L 932.0 -1259.0 L 931.0 -1257.0 L 930.0 -1255.0 L 927.5 -1254.0 L 925.0 -1253.0 L 922.0 -1251.5 L 919.0 -1250.0 L 917.0 -1249.0 L 880.0 -1223.0 L 876.0 -1216.0 L 868.0 -1182.0 L 861.0 -1158.0 L 854.0 -1134.0 L 846.0 -1115.0 L 844.0 -1109.0 L 839.5 -1100.5 L 835.0 -1092.0 L 829.0 -1083.0 L 823.0 -1074.0 L 817.5 -1065.5 L 812.0 -1057.0 L 808.0 -1051.0 L 808.0 -1051.0 L 810.0 -1052.0 L 812.0 -1052.0 L 807.0 -1047.0 L 803.0 -1043.0 L 803.0 -1043.0 L 808.0 -1051.0 L 804.0 -1049.0 L 793.5 -1042.5 L 783.0 -1036.0 L 769.5 -1025.5 L 756.0 -1015.0 L 740.0 -1002.5 L 724.0 -990.0 L 708.0 -977.0 L 692.0 -965.0 L 679.5 -954.5 L 667.0 -944.0 L 656.0 -936.0 L 645.0 -927.0 L 637.5 -920.0 L 630.0 -913.0 L 626.0 -909.0 L 626.0 -908.0 L 624.0 -907.0 L 624.0 -907.0 L 624.0 -906.0 L 630.0 -908.0 L 634.5 -910.5 L 639.0 -913.0 L 643.0 -915.0 L 648.0 -918.0 L 649.0 -917.0 L 649.0 -917.0 L 646.0 -916.0 L 645.0 -915.0 L 641.5 -913.0 L 638.0 -911.0 L 635.0 -909.5 L 632.0 -908.0 L 629.0 -906.5 L 626.0 -905.0 L 625.0 -905.0 L 624.0 -905.0 L 624.0 -906.0 L 612.0 -900.0 L 596.0 -892.5 L 580.0 -885.0 L 563.0 -878.5 L 546.0 -872.0 L 529.5 -866.5 L 513.0 -861.0 L 500.0 -858.0 L 491.0 -857.0 L 477.0 -856.5 L 463.0 -856.0 L 451.5 -855.5 L 440.0 -855.0 L 434.5 -854.0 L 429.0 -853.0 L 436.0 -851.0 L 444.0 -848.0 L 452.5 -847.0 L 461.0 -846.0 L 469.0 -846.0 L 481.0 -846.0 L 493.5 -847.0 L 506.0 -848.0 L 518.0 -848.0 L 543.0 -848.0 L 566.5 -840.5 L 590.0 -833.0 L 611.0 -818.0 L 629.0 -804.0 L 629.0 -799.0 L 632.0 -791.0 L 618.0 -791.0 L 605.0 -791.0 L 594.0 -792.0 L 583.0 -793.0 L 570.0 -796.0 L 552.0 -799.0 L 529.5 -801.5 L 507.0 -804.0 L 481.0 -808.0 L 454.0 -812.0 L 431.5 -814.0 L 409.0 -816.0 L 387.0 -816.0 L 383.0 -817.0 L 379.0 -817.0 L 375.0 -817.0 L 371.0 -817.0 L 357.0 -817.0 L 343.0 -816.5 L 329.0 -816.0 L 315.0 -814.0 L 312.0 -813.0 L 307.5 -811.5 L 303.0 -810.0 L 295.0 -810.0 L 290.0 -810.0 Z M 764.0 -537.0 L 759.0 -537.0 L 756.0 -545.0 L 756.0 -546.0 L 758.0 -546.0 L 759.0 -546.0 L 762.0 -548.0 L 764.0 -549.0 L 760.0 -555.0 L 756.0 -560.0 L 762.0 -562.0 L 808.0 -579.0 L 848.5 -592.0 L 889.0 -605.0 L 923.0 -616.5 L 957.0 -628.0 L 984.5 -638.0 L 1012.0 -648.0 L 1032.0 -659.0 L 1112.0 -700.0 L 1157.0 -773.0 L 1164.0 -785.0 L 1171.5 -802.5 L 1179.0 -820.0 L 1188.0 -843.5 L 1197.0 -867.0 L 1208.5 -896.0 L 1220.0 -925.0 L 1236.0 -960.0 L 1237.0 -963.0 L 1240.5 -964.5 L 1244.0 -966.0 L 1248.0 -966.5 L 1252.0 -967.0 L 1256.5 -968.0 L 1261.0 -969.0 L 1265.0 -971.0 L 1277.0 -978.0 L 1285.0 -982.0 L 1293.0 -986.0 L 1297.0 -988.0 L 1309.0 -994.0 L 1317.5 -996.5 L 1326.0 -999.0 L 1329.0 -1001.0 L 1343.0 -1001.0 L 1348.0 -1001.0 L 1353.0 -1000.5 L 1358.0 -1000.0 L 1364.0 -998.0 L 1368.0 -997.0 L 1372.5 -996.5 L 1377.0 -996.0 L 1381.5 -995.0 L 1386.0 -994.0 L 1391.0 -992.5 L 1396.0 -991.0 L 1400.0 -987.0 L 1401.0 -986.0 L 1400.0 -984.0 L 1399.0 -982.0 L 1396.0 -981.0 L 1393.0 -980.0 L 1390.0 -979.0 L 1388.0 -978.0 L 1386.0 -976.0 L 1349.0 -950.0 L 1345.0 -943.0 L 1337.0 -909.0 L 1330.0 -885.0 L 1323.0 -861.0 L 1315.0 -842.0 L 1313.0 -836.0 L 1308.5 -827.5 L 1304.0 -819.0 L 1298.0 -810.0 L 1292.0 -801.0 L 1286.5 -792.5 L 1281.0 -784.0 L 1277.0 -778.0 L 1277.0 -778.0 L 1279.0 -779.0 L 1281.0 -779.0 L 1276.0 -774.0 L 1272.0 -770.0 L 1272.0 -770.0 L 1277.0 -778.0 L 1273.0 -776.0 L 1262.5 -769.5 L 1252.0 -763.0 L 1238.0 -752.5 L 1224.0 -742.0 L 1208.5 -729.5 L 1193.0 -717.0 L 1177.0 -704.0 L 1161.0 -692.0 L 1148.5 -681.5 L 1136.0 -671.0 L 1125.0 -663.0 L 1114.0 -654.0 L 1106.5 -647.0 L 1099.0 -640.0 L 1095.0 -636.0 L 1095.0 -635.0 L 1093.0 -634.0 L 1093.0 -634.0 L 1093.0 -633.0 L 1099.0 -635.0 L 1103.5 -637.5 L 1108.0 -640.0 L 1112.0 -642.0 L 1117.0 -645.0 L 1117.0 -645.0 L 1117.0 -645.0 L 1115.0 -643.0 L 1114.0 -642.0 L 1110.5 -640.0 L 1107.0 -638.0 L 1104.0 -636.5 L 1101.0 -635.0 L 1098.0 -633.5 L 1095.0 -632.0 L 1094.0 -632.0 L 1093.0 -632.0 L 1093.0 -633.0 L 1081.0 -627.0 L 1065.0 -619.5 L 1049.0 -612.0 L 1032.0 -605.5 L 1015.0 -599.0 L 998.5 -593.5 L 982.0 -588.0 L 969.0 -585.0 L 960.0 -584.0 L 946.0 -583.5 L 932.0 -583.0 L 920.5 -582.5 L 909.0 -582.0 L 903.5 -581.0 L 898.0 -580.0 L 905.0 -578.0 L 913.0 -575.0 L 921.0 -574.0 L 929.0 -573.0 L 938.0 -573.0 L 950.0 -573.0 L 962.0 -574.0 L 974.0 -575.0 L 987.0 -575.0 L 1012.0 -575.0 L 1035.5 -568.0 L 1059.0 -561.0 L 1079.0 -545.0 L 1097.0 -531.0 L 1098.0 -526.0 L 1101.0 -518.0 L 1087.0 -518.0 L 1074.0 -518.0 L 1063.0 -519.0 L 1052.0 -520.0 L 1039.0 -523.0 L 1021.0 -526.0 L 998.5 -528.5 L 976.0 -531.0 L 949.0 -535.0 L 922.0 -539.0 L 900.0 -541.0 L 878.0 -543.0 L 856.0 -543.0 L 852.0 -544.0 L 848.0 -544.0 L 844.0 -544.0 L 840.0 -544.0 L 826.0 -544.0 L 812.0 -543.5 L 798.0 -543.0 L 784.0 -541.0 L 781.0 -540.0 L 776.5 -538.5 L 772.0 -537.0 Z M 424.0 -699.0 L 424.0 -704.0 L 437.0 -704.0 L 441.0 -704.0 L 448.0 -704.0 L 458.5 -703.0 L 469.0 -702.0 L 483.0 -699.0 L 498.0 -697.0 L 506.5 -695.5 L 515.0 -694.0 L 522.0 -693.0 L 585.0 -683.0 L 603.0 -596.0 L 614.0 -545.0 L 624.0 -529.0 L 629.0 -520.0 L 650.0 -515.0 L 668.0 -511.0 L 667.0 -510.0 L 667.0 -507.0 L 666.5 -507.5 L 666.0 -508.0 L 663.0 -502.0 L 656.0 -488.0 L 617.0 -488.0 L 598.0 -488.0 L 576.5 -493.5 L 555.0 -499.0 L 529.0 -509.0 L 478.0 -528.0 L 460.0 -642.0 L 453.0 -689.0 L 440.0 -689.0 L 440.0 -689.0 L 439.0 -688.5 L 438.0 -688.0 L 438.0 -688.0 L 437.0 -688.0 L 432.0 -688.0 L 423.0 -688.0 Z" fill="black" fill-opacity="0.25" stroke="black" stroke-width="4.0"/>
  <rect x="0.0" y="-460.0" width="1127.0" height="294.00000000000006" fill="none" stroke="red" stroke-width="10.0" /><rect x="287.0" y="-1274.0" width="645.0" height="483.0" fill="none" stroke="red" stroke-width="10.0" /><rect x="756.0" y="-1000.9999999999999" width="645.0" height="482.9999999999999" fill="none" stroke="red" stroke-width="10.0" /><rect x="423.0" y="-704.0" width="245.00000000000006" height="215.99999999999997" fill="none" stroke="red" stroke-width="10.0" />
</svg>
