<svg xmlns="http://www.w3.org/2000/svg"
  viewBox="-50 -1368 1309 1247">
  <rect x="-50" y="-1368" width="1309" height="1247" fill="white"/>
  <path d="M 103 -1304 L 119 -1306 L 136 -1308.5 L 153 -1311 L 172 -1313 L 191 -1315 L 204 -1316.5 L 217 -1318 L 225 -1318 L 268 -1318 L 297 -1299 L 304 -1294 L 305 -1274 L 302 -1229 L 302 -1216 L 306 -1209 L 399 -1077 L 609 -1036 L 617 -1033 L 627.5 -1032 L 638 -1031 L 650 -1029 L 655 -1045 L 660 -1057 L 665 -1069 L 670 -1081 L 678 -1098 L 708 -1098 L 769 -1092 L 782 -1091 L 795 -1089.5 L 808 -1088 L 820 -1088 L 814 -1076 L 808 -1057.5 L 802 -1039 L 795 -1014 L 933 -1007 L 1164 -997 L 1209 -953 L 1036 -953 L 957 -953 L 893 -953 L 829 -953 L 775 -954 L 758 -916 L 730 -887 L 722 -877 L 708 -871 L 694 -865 L 678 -861.5 L 662 -858 L 645.5 -857 L 629 -856 L 618 -856 L 601 -856 L 594 -859 L 580 -865 L 589 -873 L 602 -891 L 612 -912.5 L 622 -934 L 630 -959 L 617 -959 L 417 -969 L 319 -1017 L 235 -1056 L 133 -1181 L 125 -1194 L 121 -1221 L 108 -1294 Z M 0 -745 L 0 -773 L 13.5 -793 L 27 -813 L 49 -826.5 L 71 -840 L 98.5 -848 L 126 -856 L 155 -860 L 184 -864 L 210.5 -865.5 L 237 -867 L 256 -867 L 308 -867 L 362.5 -862 L 417 -857 L 477 -848 L 537 -839 L 595 -824 L 653 -810 L 714 -792 L 773 -775 L 839 -742 L 905 -709 L 980 -661 L 1126 -565 L 1125 -523 L 1125 -504 L 1089 -504 L 1042 -504 L 992 -511 L 942 -518 L 896 -528 L 908 -632 L 731 -715 L 564 -795 L 392 -795 L 375 -795 L 354.5 -793.5 L 334 -792 L 312.5 -788 L 291 -784 L 270.5 -777 L 250 -770 L 233.5 -758.5 L 217 -747 L 206.5 -730.5 L 196 -714 L 195 -692 L 194 -661 L 241 -625 L 299 -580 L 304 -578 L 165 -579 L 95 -607 L 48 -627 L 17 -676 L 0 -716 Z M 97 -456 L 110 -460 L 129.5 -462 L 149 -464 L 176 -464 L 197 -464 L 227 -463.5 L 257 -463 L 288.5 -460.5 L 320 -458 L 348.5 -453 L 377 -448 L 396 -439 L 398 -437 L 398.5 -434.5 L 399 -432 L 400 -431 L 401 -429 L 402 -428 L 394 -418 L 388 -419 L 381 -420.5 L 374 -422 L 364 -422 L 352 -422 L 342 -421 L 332 -420 L 321 -418 L 317 -418 L 313.5 -417 L 310 -416 L 310 -411 L 310 -395 L 339 -365 L 364 -340 L 401 -319.5 L 438 -299 L 480.5 -282.5 L 523 -266 L 569.5 -254 L 616 -242 L 662 -234 L 708 -226 L 749.5 -222 L 791 -218 L 824 -218 L 842 -218 L 863.5 -219.5 L 885 -221 L 907.5 -224.5 L 930 -228 L 951 -235 L 972 -242 L 988.5 -254 L 1005 -266 L 1015 -283.5 L 1025 -301 L 1025 -325 L 1022 -351 L 1014 -393 L 928 -437 L 925 -441 L 923.5 -444.5 L 922 -448 L 919 -453 L 932 -456 L 945.5 -457 L 959 -458 L 977 -461 L 994 -463 L 1006 -464 L 1018 -465 L 1030 -465 L 1070 -465 L 1100 -457.5 L 1130 -450 L 1153 -437 L 1161 -433 L 1169 -425.5 L 1177 -418 L 1185 -411 L 1201 -374 L 1200 -340 L 1200 -302 L 1181.5 -275 L 1163 -248 L 1133 -229 L 1103 -210 L 1064 -198.5 L 1025 -187 L 986 -181 L 947 -175 L 910 -173 L 873 -171 L 846 -171 L 776 -171 L 698 -180 L 620 -189 L 532 -208 L 464 -222 L 391.5 -246.5 L 319 -271 L 241 -308 L 74 -385 L 74 -431 L 74 -450 Z" fill="black" fill-opacity="0.25" stroke="black" stroke-width="4"/>
  <rect x="103" y="-1318" width="1106" height="462" fill="none" stroke="red" stroke-width="10" /><rect x="0" y="-867" width="1126" height="363" fill="none" stroke="red" stroke-width="10" /><rect x="74" y="-465" width="1127" height="294" fill="none" stroke="red" stroke-width="10" />
</svg>
