<svg xmlns="http://www.w3.org/2000/svg"
  viewBox="-50 -1330 1226.059 1208">
  <rect x="-50" y="-1330" width="1226.059" height="1208" fill="white"/>
  <path d="M 0 -432 L 0 -451 L 23 -457 L 48 -465 L 102 -464 L 123 -464 L 153 -463.5 L 183 -463 L 214.5 -460.5 L 246 -458 L 274.5 -453 L 303 -448 L 322 -440 L 324 -438 L 324.5 -435.5 L 325 -433 L 326 -431 L 327 -429 L 328 -428 L 320 -419 L 314 -420 L 307 -421 L 300 -422 L 290 -422 L 278 -422 L 268 -421.5 L 258 -421 L 247 -419 L 243 -419 L 239.5 -418 L 236 -417 L 236 -411 L 236 -395 L 265 -366 L 290 -341 L 326.5 -320 L 363 -299 L 406 -283 L 449 -267 L 495.5 -255 L 542 -243 L 587.5 -235 L 633 -227 L 675 -223 L 717 -219 L 750 -219 L 768 -219 L 789.5 -220 L 811 -221 L 833.5 -225 L 856 -229 L 877 -236 L 898 -243 L 914.5 -255 L 931 -267 L 941 -284 L 951 -301 L 951 -325 L 948 -352 L 940 -394 L 854 -438 L 851 -442 L 849.5 -445.5 L 848 -449 L 845 -454 L 858 -457 L 872 -458 L 886 -459 L 903 -462 L 920 -464 L 932 -465 L 944 -466 L 956 -466 L 996 -466 L 1026 -458.5 L 1056 -451 L 1079 -438 L 1087 -434 L 1095 -426.5 L 1103 -419 L 1111 -411 L 1127 -374 L 1126 -341 L 1126 -303 L 1107.5 -275.5 L 1089 -248 L 1059 -229.5 L 1029 -211 L 990 -199.5 L 951 -188 L 912 -182 L 873 -176 L 836 -174 L 799 -172 L 772 -172 L 701 -172 L 623.5 -181 L 546 -190 L 458 -208 L 390 -222 L 318 -247 L 246 -272 L 167 -308 L 0 -386 Z M 287 -824 L 287 -825 L 289 -825 L 290 -825 L 293 -827 L 295 -828 L 291 -834 L 287 -839 L 293 -841 L 339 -858 L 379.5 -871 L 420 -884 L 454 -895.5 L 488 -907 L 515.5 -917 L 543 -927 L 564 -938 L 644 -979 L 689 -1052 L 696 -1064 L 703.5 -1081.5 L 711 -1099 L 719.5 -1122.5 L 728 -1146 L 739.5 -1175 L 751 -1204 L 767 -1239 L 768 -1242 L 771.5 -1243.5 L 775 -1245 L 779 -1245.5 L 783 -1246 L 788 -1247 L 793 -1248 L 797 -1250 L 809 -1257 L 816.5 -1261 L 824 -1265 L 828 -1267 L 840 -1273 L 849 -1275.5 L 858 -1278 L 861 -1280 L 874 -1280 L 879 -1280 L 884 -1279.5 L 889 -1279 L 895 -1277 L 899 -1276 L 903.5 -1275.5 L 908 -1275 L 913 -1274 L 918 -1273 L 922.5 -1271.5 L 927 -1270 L 931 -1266 L 932 -1265 L 931 -1263 L 930 -1261 L 927.5 -1260 L 925 -1259 L 922 -1257.5 L 919 -1256 L 917 -1255 L 880 -1229 L 876 -1222 L 868 -1188 L 861 -1164 L 854 -1140 L 846 -1121 L 844 -1115 L 839.5 -1106.5 L 835 -1098 L 829 -1089 L 823 -1080 L 817.5 -1071.5 L 812 -1063 L 808 -1057 L 808 -1057 L 810 -1058 L 812 -1058 L 807 -1053 L 803 -1049 L 803 -1049 L 808 -1057 L 804 -1055 L 793.5 -1048.5 L 783 -1042 L 769.5 -1031.5 L 756 -1021 L 740 -1008.5 L 724 -996 L 708 -983 L 692 -971 L 679.5 -960.5 L 667 -950 L 656 -942 L 645 -933 L 637.5 -926 L 630 -919 L 626 -915 L 626 -914 L 624 -913 L 624 -913 L 624 -912 L 630 -914 L 634.5 -916.5 L 639 -919 L 643 -921 L 648 -924 L 649 -923 L 649 -923 L 646 -922 L 645 -921 L 641.5 -919 L 638 -917 L 635 -915.5 L 632 -914 L 629 -912.5 L 626 -911 L 625 -911 L 624 -911 L 624 -912 L 612 -906 L 596 -898.5 L 580 -891 L 563 -884.5 L 546 -878 L 529.5 -872.5 L 513 -867 L 500 -864 L 491 -863 L 477 -862.5 L 463 -862 L 451.5 -861.5 L 440 -861 L 434.5 -860 L 429 -859 L 436 -857 L 444 -854 L 452.5 -853 L 461 -852 L 469 -852 L 481 -852 L 493.5 -853 L 506 -854 L 518 -854 L 543 -854 L 566.5 -846.5 L 590 -839 L 611 -824 L 629 -810 L 629 -805 L 632 -797 L 618 -797 L 605 -797 L 594 -798 L 583 -799 L 570 -802 L 552 -805 L 529.5 -807.5 L 507 -810 L 481 -814 L 454 -818 L 431.5 -820 L 409 -822 L 387 -822 L 383 -823 L 379 -823 L 375 -823 L 371 -823 L 357 -823 L 343 -822.5 L 329 -822 L 315 -820 L 312 -819 L 307.5 -817.5 L 303 -816 L 295 -816 L 290 -816 Z M 424 -705 L 424 -710 L 437 -710 L 441 -710 L 448 -710 L 458.5 -709 L 469 -708 L 483 -705 L 498 -703 L 506.5 -701.5 L 515 -700 L 522 -699 L 585 -689 L 603 -602 L 614 -551 L 624 -535 L 629 -526 L 650 -521 L 668 -517 L 667 -516 L 667 -513 L 666.5 -513.5 L 666 -514 L 663 -508 L 656 -494 L 617 -494 L 598 -494 L 576.5 -499.5 L 555 -505 L 529 -515 L 478 -534 L 460 -648 L 453 -695 L 440 -695 L 440 -695 L 439 -694.5 L 438 -694 L 438 -694 L 437 -694 L 432 -694 L 423 -694 Z" fill="black" fill-opacity="0.25" stroke="black" stroke-width="4"/>
  <rect x="0" y="-466" width="1127" height="294" fill="none" stroke="red" stroke-width="10" /><rect x="423" y="-710" width="245" height="216" fill="none" stroke="red" stroke-width="10" /><rect x="287" y="-958" width="389.5" height="161" fill="none" stroke="red" stroke-width="10" /><rect x="603" y="-1119" width="242.3" height="161" fill="none" stroke="red" stroke-width="10" /><rect x="718.2" y="-1280" width="213.8" height="161" fill="none" stroke="red" stroke-width="10" />
</svg>
