<svg xmlns="http://www.w3.org/2000/svg"
  viewBox="-50 -924 1300 794">
  <rect x="-50" y="-924" width="1300" height="794" fill="white"/>
  <path d="M 0 -752 L 0 -780 L 13 -801 L 26 -822 L 48 -835 L 70 -848 L 98 -856 L 126 -864 L 154.5 -868 L 183 -872 L 209.5 -873 L 236 -874 L 256 -874 L 308 -874 L 362.5 -870 L 417 -866 L 476 -856 L 536 -848 L 594 -832 L 652 -816 L 713 -800 L 772 -782 L 838.5 -750 L 905 -718 L 979 -668 L 1125 -572 L 1125 -532 L 1125 -512 L 1088 -512 L 1041 -512 L 991 -519 L 941 -526 L 895 -536 L 907 -640 L 731 -724 L 564 -804 L 392 -804 L 375 -804 L 354 -802 L 333 -800 L 311.5 -796 L 290 -792 L 269.5 -785 L 249 -778 L 232.5 -767 L 216 -756 L 206 -739 L 196 -722 L 195 -700 L 194 -670 L 240 -632 L 298 -588 L 304 -586 L 165 -586 L 95 -616 L 48 -636 L 17 -684 L 0 -724 Z M 73 -440 L 73 -458 L 97 -464 L 110 -468 L 129.5 -470 L 149 -472 L 176 -472 L 197 -472 L 227 -472 L 257 -472 L 288 -469 L 319 -466 L 348 -461 L 377 -456 L 395 -448 L 397 -446 L 398 -443 L 399 -440 L 400 -438 L 401 -436 L 401 -436 L 394 -426 L 388 -428 L 380.5 -429 L 373 -430 L 364 -430 L 352 -430 L 341.5 -429 L 331 -428 L 320 -426 L 316 -426 L 312.5 -425 L 309 -424 L 309 -418 L 309 -402 L 339 -374 L 356 -356 L 376 -342 L 396 -328 L 422 -316 L 464 -294 L 514.5 -278 L 565 -262 L 618 -251 L 671 -240 L 723.5 -233 L 776 -226 L 823 -226 L 841 -226 L 862.5 -227 L 884 -228 L 906.5 -232 L 929 -236 L 950 -243 L 971 -250 L 987.5 -262 L 1004 -274 L 1014 -291 L 1024 -308 L 1025 -332 L 1022 -360 L 1014 -402 L 928 -446 L 925 -450 L 923.5 -453 L 922 -456 L 919 -462 L 932 -464 L 945.5 -465 L 959 -466 L 977 -470 L 994 -472 L 1005.5 -473 L 1017 -474 L 1029 -474 L 1069 -474 L 1099 -466 L 1129 -458 L 1153 -446 L 1161 -442 L 1168.5 -434 L 1176 -426 L 1184 -418 L 1200 -382 L 1200 -348 L 1200 -310 L 1181.5 -283 L 1163 -256 L 1132.5 -237 L 1102 -218 L 1063.5 -207 L 1025 -196 L 985.5 -190 L 946 -184 L 909.5 -182 L 873 -180 L 845 -180 L 775 -180 L 697 -189 L 619 -198 L 531 -216 L 395 -244 L 240 -316 L 73 -394 Z M 276 -654 L 289 -658 L 300 -662 L 311 -666 L 323 -670 L 359 -672 L 395 -673 L 431 -674 L 466 -674 L 493 -674 L 524.5 -670 L 556 -666 L 591 -660 L 613 -656 L 633.5 -649 L 654 -642 L 675 -638 L 690 -634 L 710 -628 L 730 -622 L 751 -612 L 772 -602 L 792 -591 L 812 -580 L 828 -566 L 844 -552 L 853.5 -535 L 863 -518 L 862 -498 L 861 -476 L 849 -458 L 844 -452 L 820 -452 L 803 -452 L 779 -454 L 755 -456 L 722 -464 L 711 -466 L 696 -469 L 681 -472 L 663 -476 L 673 -480 L 681.5 -488 L 690 -496 L 697 -504 L 711 -524 L 706 -536 L 696 -558 L 658.5 -579 L 621 -600 L 555 -612 L 484 -626 L 415.5 -635 L 347 -644 Z" fill="black" fill-opacity="0.25" stroke="black" stroke-width="4"/>
  <rect x="0" y="-874" width="1125" height="362" fill="none" stroke="red" stroke-width="10" /><rect x="73" y="-474" width="1127" height="294" fill="none" stroke="red" stroke-width="10" /><rect x="276" y="-674" width="587" height="222" fill="none" stroke="red" stroke-width="10" />
</svg>
