<svg xmlns="http://www.w3.org/2000/svg"
  viewBox="-50.0 -1057.0 1514.5 935.0">
  <rect x="-50.0" y="-1057.0" width="1514.5" height="935.0" fill="white"/>
  <path d="M 14.0 -432.0 L 14.0 -451.0 L 37.0 -457.0 L 62.0 -465.0 L 116.0 -464.0 L 137.0 -464.0 L 167.0 -463.5 L 197.0 -463.0 L 228.5 -460.5 L 260.0 -458.0 L 288.5 -453.0 L 317.0 -448.0 L 336.0 -440.0 L 338.0 -438.0 L 338.5 -435.5 L 339.0 -433.0 L 340.0 -431.0 L 341.0 -429.0 L 342.0 -428.0 L 334.0 -419.0 L 328.0 -420.0 L 321.0 -421.0 L 314.0 -422.0 L 304.0 -422.0 L 292.0 -422.0 L 282.0 -421.5 L 272.0 -421.0 L 261.0 -419.0 L 257.0 -419.0 L 253.5 -418.0 L 250.0 -417.0 L 250.0 -411.0 L 250.0 -395.0 L 279.0 -366.0 L 304.0 -341.0 L 340.5 -320.0 L 377.0 -299.0 L 420.0 -283.0 L 463.0 -267.0 L 509.5 -255.0 L 556.0 -243.0 L 601.5 -235.0 L 647.0 -227.0 L 689.0 -223.0 L 731.0 -219.0 L 764.0 -219.0 L 782.0 -219.0 L 803.5 -220.0 L 825.0 -221.0 L 847.5 -225.0 L 870.0 -229.0 L 891.0 -236.0 L 912.0 -243.0 L 928.5 -255.0 L 945.0 -267.0 L 955.0 -284.0 L 965.0 -301.0 L 965.0 -325.0 L 962.0 -352.0 L 954.0 -394.0 L 868.0 -438.0 L 865.0 -442.0 L 863.5 -445.5 L 862.0 -449.0 L 859.0 -454.0 L 872.0 -457.0 L 886.0 -458.0 L 900.0 -459.0 L 917.0 -462.0 L 934.0 -464.0 L 946.0 -465.0 L 958.0 -466.0 L 970.0 -466.0 L 1010.0 -466.0 L 1040.0 -458.5 L 1070.0 -451.0 L 1093.0 -438.0 L 1101.0 -434.0 L 1109.0 -426.5 L 1117.0 -419.0 L 1125.0 -411.0 L 1141.0 -374.0 L 1140.0 -341.0 L 1140.0 -303.0 L 1121.5 -275.5 L 1103.0 -248.0 L 1073.0 -229.5 L 1043.0 -211.0 L 1004.0 -199.5 L 965.0 -188.0 L 926.0 -182.0 L 887.0 -176.0 L 850.0 -174.0 L 813.0 -172.0 L 786.0 -172.0 L 715.0 -172.0 L 637.5 -181.0 L 560.0 -190.0 L 472.0 -208.0 L 404.0 -222.0 L 332.0 -247.0 L 260.0 -272.0 L 181.0 -308.0 L 14.0 -386.0 Z M 7.0 -541.0 L 2.0 -541.0 L 0.0 -549.0 L 0.0 -550.0 L 1.0 -550.0 L 2.0 -550.0 L 5.0 -552.0 L 7.0 -553.0 L 3.0 -559.0 L -1.0 -564.0 L 5.0 -566.0 L 51.0 -583.0 L 91.5 -596.0 L 132.0 -609.0 L 166.0 -620.5 L 200.0 -632.0 L 227.5 -642.0 L 255.0 -652.0 L 276.0 -663.0 L 356.0 -704.0 L 401.0 -777.0 L 408.0 -789.0 L 415.5 -806.5 L 423.0 -824.0 L 432.0 -847.5 L 441.0 -871.0 L 452.0 -900.0 L 463.0 -929.0 L 479.0 -964.0 L 480.0 -967.0 L 483.5 -968.5 L 487.0 -970.0 L 491.5 -970.5 L 496.0 -971.0 L 500.5 -972.0 L 505.0 -973.0 L 509.0 -975.0 L 521.0 -982.0 L 528.5 -986.0 L 536.0 -990.0 L 540.0 -992.0 L 552.0 -998.0 L 561.0 -1001.0 L 570.0 -1004.0 L 573.0 -1005.0 L 586.0 -1005.0 L 591.0 -1005.0 L 596.5 -1004.5 L 602.0 -1004.0 L 607.0 -1002.0 L 611.0 -1001.0 L 615.5 -1000.5 L 620.0 -1000.0 L 625.0 -999.0 L 630.0 -998.0 L 634.5 -996.5 L 639.0 -995.0 L 643.0 -991.0 L 644.0 -990.0 L 643.0 -988.0 L 642.0 -986.0 L 639.5 -985.0 L 637.0 -984.0 L 634.0 -983.0 L 631.0 -982.0 L 629.0 -980.0 L 592.0 -954.0 L 588.0 -947.0 L 580.0 -913.0 L 573.0 -889.0 L 566.0 -865.0 L 559.0 -846.0 L 557.0 -840.0 L 552.0 -831.5 L 547.0 -823.0 L 541.5 -814.0 L 536.0 -805.0 L 530.0 -796.5 L 524.0 -788.0 L 520.0 -782.0 L 520.0 -782.0 L 522.0 -783.0 L 524.0 -783.0 L 520.0 -778.0 L 516.0 -775.0 L 516.0 -775.0 L 520.0 -782.0 L 516.0 -780.0 L 506.0 -773.5 L 496.0 -767.0 L 482.0 -756.5 L 468.0 -746.0 L 452.0 -733.5 L 436.0 -721.0 L 420.0 -708.0 L 404.0 -696.0 L 391.5 -685.5 L 379.0 -675.0 L 368.0 -667.0 L 357.0 -658.0 L 349.5 -651.0 L 342.0 -644.0 L 338.0 -640.0 L 338.0 -639.0 L 337.0 -638.0 L 337.0 -638.0 L 336.0 -637.0 L 342.0 -639.0 L 346.5 -641.5 L 351.0 -644.0 L 355.0 -646.0 L 360.0 -649.0 L 361.0 -649.0 L 361.0 -649.0 L 358.0 -647.0 L 357.0 -646.0 L 354.0 -644.0 L 351.0 -642.0 L 347.5 -640.5 L 344.0 -639.0 L 341.0 -637.5 L 338.0 -636.0 L 337.0 -636.0 L 336.0 -636.0 L 336.0 -637.0 L 324.0 -631.0 L 308.0 -623.5 L 292.0 -616.0 L 275.0 -609.5 L 258.0 -603.0 L 241.5 -597.5 L 225.0 -592.0 L 212.0 -589.0 L 203.0 -588.0 L 189.0 -587.5 L 175.0 -587.0 L 163.5 -586.5 L 152.0 -586.0 L 146.5 -585.0 L 141.0 -584.0 L 148.0 -582.0 L 156.0 -579.0 L 164.5 -578.0 L 173.0 -577.0 L 182.0 -577.0 L 194.0 -577.0 L 206.0 -578.0 L 218.0 -579.0 L 231.0 -579.0 L 256.0 -579.0 L 279.0 -572.0 L 302.0 -565.0 L 323.0 -549.0 L 341.0 -535.0 L 341.0 -530.0 L 344.0 -522.0 L 331.0 -522.0 L 318.0 -522.0 L 306.5 -523.5 L 295.0 -525.0 L 282.0 -527.0 L 264.0 -530.0 L 241.5 -532.5 L 219.0 -535.0 L 193.0 -539.0 L 166.0 -543.0 L 143.5 -545.0 L 121.0 -547.0 L 99.0 -547.0 L 95.0 -548.0 L 91.0 -548.0 L 87.0 -548.0 L 83.0 -548.0 L 69.0 -548.0 L 55.5 -547.5 L 42.0 -547.0 L 27.0 -546.0 L 24.0 -545.0 L 19.5 -543.0 L 15.0 -541.0 Z M 770.0 -551.0 L 770.0 -552.0 L 772.0 -552.0 L 773.0 -552.0 L 776.0 -554.0 L 778.0 -555.0 L 774.0 -561.0 L 770.0 -566.0 L 776.0 -568.0 L 822.0 -585.0 L 862.5 -598.0 L 903.0 -611.0 L 937.0 -622.5 L 971.0 -634.0 L 998.5 -644.0 L 1026.0 -654.0 L 1046.0 -665.0 L 1126.0 -706.0 L 1171.0 -779.0 L 1178.0 -791.0 L 1185.5 -808.5 L 1193.0 -826.0 L 1202.0 -849.5 L 1211.0 -873.0 L 1222.5 -902.0 L 1234.0 -931.0 L 1250.0 -966.0 L 1251.0 -969.0 L 1254.5 -970.5 L 1258.0 -972.0 L 1262.0 -972.5 L 1266.0 -973.0 L 1270.5 -974.0 L 1275.0 -975.0 L 1279.0 -977.0 L 1291.0 -984.0 L 1299.0 -988.0 L 1307.0 -992.0 L 1311.0 -994.0 L 1323.0 -1000.0 L 1331.5 -1002.5 L 1340.0 -1005.0 L 1343.0 -1007.0 L 1357.0 -1007.0 L 1362.0 -1007.0 L 1367.0 -1006.5 L 1372.0 -1006.0 L 1378.0 -1004.0 L 1382.0 -1003.0 L 1386.5 -1002.5 L 1391.0 -1002.0 L 1395.5 -1001.0 L 1400.0 -1000.0 L 1405.0 -998.5 L 1410.0 -997.0 L 1414.0 -993.0 L 1415.0 -992.0 L 1414.0 -990.0 L 1413.0 -988.0 L 1410.0 -987.0 L 1407.0 -986.0 L 1404.0 -985.0 L 1402.0 -984.0 L 1400.0 -982.0 L 1363.0 -956.0 L 1359.0 -949.0 L 1351.0 -915.0 L 1344.0 -891.0 L 1337.0 -867.0 L 1329.0 -848.0 L 1327.0 -842.0 L 1322.5 -833.5 L 1318.0 -825.0 L 1312.0 -816.0 L 1306.0 -807.0 L 1300.5 -798.5 L 1295.0 -790.0 L 1291.0 -784.0 L 1291.0 -784.0 L 1293.0 -785.0 L 1295.0 -785.0 L 1290.0 -780.0 L 1286.0 -776.0 L 1286.0 -776.0 L 1291.0 -784.0 L 1287.0 -782.0 L 1276.5 -775.5 L 1266.0 -769.0 L 1252.0 -758.5 L 1238.0 -748.0 L 1222.5 -735.5 L 1207.0 -723.0 L 1191.0 -710.0 L 1175.0 -698.0 L 1162.5 -687.5 L 1150.0 -677.0 L 1139.0 -669.0 L 1128.0 -660.0 L 1120.5 -653.0 L 1113.0 -646.0 L 1109.0 -642.0 L 1109.0 -641.0 L 1107.0 -640.0 L 1107.0 -640.0 L 1107.0 -639.0 L 1113.0 -641.0 L 1117.5 -643.5 L 1122.0 -646.0 L 1126.0 -648.0 L 1131.0 -651.0 L 1131.0 -651.0 L 1131.0 -651.0 L 1129.0 -649.0 L 1128.0 -648.0 L 1124.5 -646.0 L 1121.0 -644.0 L 1118.0 -642.5 L 1115.0 -641.0 L 1112.0 -639.5 L 1109.0 -638.0 L 1108.0 -638.0 L 1107.0 -638.0 L 1107.0 -639.0 L 1095.0 -633.0 L 1079.0 -625.5 L 1063.0 -618.0 L 1046.0 -611.5 L 1029.0 -605.0 L 1012.5 -599.5 L 996.0 -594.0 L 983.0 -591.0 L 974.0 -590.0 L 960.0 -589.5 L 946.0 -589.0 L 934.5 -588.5 L 923.0 -588.0 L 917.5 -587.0 L 912.0 -586.0 L 919.0 -584.0 L 927.0 -581.0 L 935.0 -580.0 L 943.0 -579.0 L 952.0 -579.0 L 964.0 -579.0 L 976.0 -580.0 L 988.0 -581.0 L 1001.0 -581.0 L 1026.0 -581.0 L 1049.5 -574.0 L 1073.0 -567.0 L 1093.0 -551.0 L 1111.0 -537.0 L 1112.0 -532.0 L 1115.0 -524.0 L 1101.0 -524.0 L 1088.0 -524.0 L 1077.0 -525.0 L 1066.0 -526.0 L 1053.0 -529.0 L 1035.0 -532.0 L 1012.5 -534.5 L 990.0 -537.0 L 963.0 -541.0 L 936.0 -545.0 L 914.0 -547.0 L 892.0 -549.0 L 870.0 -549.0 L 866.0 -550.0 L 862.0 -550.0 L 858.0 -550.0 L 854.0 -550.0 L 840.0 -550.0 L 826.0 -549.5 L 812.0 -549.0 L 798.0 -547.0 L 795.0 -546.0 L 790.5 -544.5 L 786.0 -543.0 L 778.0 -543.0 L 773.0 -543.0 Z M 386.0 -549.0 L 386.0 -550.0 L 387.0 -551.0 L 388.0 -551.0 L 392.0 -552.0 L 394.0 -553.0 L 389.0 -559.0 L 385.0 -564.0 L 392.0 -567.0 L 438.0 -584.0 L 478.5 -597.0 L 519.0 -610.0 L 553.0 -621.0 L 587.0 -632.0 L 614.5 -642.0 L 642.0 -652.0 L 662.0 -663.0 L 742.0 -704.0 L 787.0 -777.0 L 794.0 -789.0 L 801.5 -806.5 L 809.0 -824.0 L 818.0 -847.5 L 827.0 -871.0 L 838.5 -900.5 L 850.0 -930.0 L 865.0 -965.0 L 866.0 -968.0 L 870.0 -969.0 L 874.0 -970.0 L 878.0 -971.0 L 882.0 -972.0 L 886.5 -972.5 L 891.0 -973.0 L 895.0 -976.0 L 907.0 -983.0 L 914.5 -987.0 L 922.0 -991.0 L 926.0 -993.0 L 938.0 -999.0 L 947.0 -1001.5 L 956.0 -1004.0 L 959.0 -1005.0 L 972.0 -1005.0 L 977.0 -1005.0 L 982.5 -1005.0 L 988.0 -1005.0 L 993.0 -1003.0 L 997.0 -1002.0 L 1001.5 -1001.0 L 1006.0 -1000.0 L 1011.0 -999.5 L 1016.0 -999.0 L 1020.5 -997.0 L 1025.0 -995.0 L 1029.0 -991.0 L 1030.0 -990.0 L 1029.0 -988.5 L 1028.0 -987.0 L 1025.5 -985.5 L 1023.0 -984.0 L 1020.0 -983.0 L 1017.0 -982.0 L 1015.0 -981.0 L 978.0 -955.0 L 975.0 -948.0 L 967.0 -914.0 L 959.5 -890.0 L 952.0 -866.0 L 945.0 -846.0 L 943.0 -840.0 L 938.5 -831.5 L 934.0 -823.0 L 928.0 -814.0 L 922.0 -805.0 L 916.0 -796.5 L 910.0 -788.0 L 906.0 -783.0 L 906.0 -783.0 L 908.0 -783.0 L 910.0 -783.0 L 906.0 -779.0 L 902.0 -775.0 L 902.0 -775.0 L 906.0 -783.0 L 902.0 -781.0 L 892.0 -774.0 L 882.0 -767.0 L 868.0 -757.0 L 854.0 -747.0 L 838.0 -734.5 L 822.0 -722.0 L 806.0 -709.0 L 790.0 -697.0 L 777.5 -686.5 L 765.0 -676.0 L 754.0 -667.0 L 743.0 -658.0 L 736.0 -651.5 L 729.0 -645.0 L 725.0 -641.0 L 725.0 -640.0 L 723.0 -638.0 L 723.0 -638.0 L 722.0 -637.0 L 728.0 -639.0 L 732.5 -641.5 L 737.0 -644.0 L 741.0 -646.0 L 746.0 -649.0 L 747.0 -649.0 L 747.0 -649.0 L 745.0 -648.0 L 744.0 -647.0 L 740.5 -645.0 L 737.0 -643.0 L 734.0 -641.0 L 731.0 -639.0 L 728.0 -638.0 L 725.0 -637.0 L 723.0 -637.0 L 722.0 -637.0 L 722.0 -637.0 L 710.0 -631.0 L 694.0 -624.0 L 678.0 -617.0 L 661.5 -610.0 L 645.0 -603.0 L 628.0 -597.5 L 611.0 -592.0 L 598.0 -590.0 L 589.0 -589.0 L 575.5 -588.5 L 562.0 -588.0 L 550.5 -587.5 L 539.0 -587.0 L 533.0 -586.0 L 527.0 -585.0 L 534.0 -582.0 L 542.0 -579.0 L 550.5 -578.0 L 559.0 -577.0 L 568.0 -577.0 L 580.0 -577.0 L 592.0 -578.0 L 604.0 -579.0 L 617.0 -579.0 L 642.0 -579.0 L 665.5 -572.0 L 689.0 -565.0 L 709.0 -549.0 L 727.0 -535.0 L 728.0 -530.0 L 731.0 -522.0 L 717.0 -523.0 L 704.0 -523.0 L 692.5 -524.0 L 681.0 -525.0 L 669.0 -527.0 L 651.0 -530.0 L 628.5 -533.0 L 606.0 -536.0 L 579.0 -540.0 L 552.0 -544.0 L 529.5 -545.5 L 507.0 -547.0 L 485.0 -547.0 L 481.0 -548.0 L 477.0 -548.0 L 473.0 -548.0 L 469.0 -548.0 L 455.0 -548.0 L 441.5 -547.5 L 428.0 -547.0 L 414.0 -546.0 L 411.0 -545.0 L 406.0 -543.5 L 401.0 -542.0 L 394.0 -542.0 L 389.0 -541.0 Z" fill="black" fill-opacity="0.25" stroke="black" stroke-width="4.0"/>
  <rect x="14.0" y="-466.0" width="1127.0" height="294.00000000000006" fill="none" stroke="red" stroke-width="10.0" /><rect x="-1.0" y="-683.0" width="389.5" height="161.00000000000003" fill="none" stroke="red" stroke-width="10.0" /><rect x="315.0" y="-844.0" width="243.3" height="160.99999999999991" fill="none" stroke="red" stroke-width="10.0" /><rect x="430.70000000000005" y="-1004.9999999999999" width="213.29999999999998" height="160.99999999999991" fill="none" stroke="red" stroke-width="10.0" /><rect x="770.0" y="-685.0" width="389.49999999999994" height="161.00000000000003" fill="none" stroke="red" stroke-width="10.0" /><rect x="1085.0" y="-846.0" width="243.30000000000007" height="160.99999999999991" fill="none" stroke="red" stroke-width="10.0" /><rect x="1200.7" y="-1006.9999999999999" width="214.29999999999993" height="160.99999999999991" fill="none" stroke="red" stroke-width="10.0" /><rect x="385.0" y="-683.6" width="389.0" height="160.69999999999996" fill="none" stroke="red" stroke-width="10.0" /><rect x="702.2" y="-844.3000000000001" width="242.19999999999996" height="160.70000000000007" fill="none" stroke="red" stroke-width="10.0" /><rect x="816.8" y="-1004.9999999999999" width="213.20000000000005" height="160.69999999999985" fill="none" stroke="red" stroke-width="10.0" />
</svg>
