<svg xmlns="http://www.w3.org/2000/svg"
  viewBox="-50 -789 1227 660">
  <rect x="-50" y="-789" width="1227" height="660" fill="white"/>
  <path d="M 1111 -418 L 1127 -382 L 1127 -348 L 1127 -264 L 1030 -222 L 931 -180 L 772 -179 L 633 -179 L 458 -215 L 323 -243 L 167 -315 L 0 -392 L 0 -439 L 0 -457 L 24 -464 L 52 -472 L 111 -472 L 144 -472 L 176 -470.5 L 208 -469 L 239 -465 L 298 -458 L 322 -447 L 328 -436 L 328 -435 L 320 -426 L 314 -427 L 307 -428.5 L 300 -430 L 291 -430 L 279 -430 L 268.5 -429 L 258 -428 L 247 -426 L 236 -427 L 236 -418 L 236 -402 L 266 -373 L 283 -356 L 303 -342 L 323 -328 L 349 -315 L 392 -294 L 439.5 -279.5 L 487 -265 L 542 -251 L 648 -226 L 750 -226 L 846 -226 L 897 -251 L 951 -278 L 952 -332 L 948 -359 L 940 -401 L 855 -445 L 852 -449 L 850.5 -452.5 L 849 -456 L 845 -461 L 858 -464 L 872 -465 L 886 -466 L 903 -469 L 920 -471 L 932 -472 L 944 -473 L 956 -473 L 995 -473 L 1025.5 -465.5 L 1056 -458 L 1080 -445 L 1088 -441 L 1095.5 -433.5 L 1103 -426 Z M 416 -734 L 420 -739 L 439 -739 L 461 -739 L 497 -734 L 544 -726 L 620 -714 L 638 -614 L 649 -552 L 663 -536 L 677 -520 L 694 -517 L 715 -515 L 714 -514 L 714 -510 L 708 -503 L 692 -487 L 655 -487 L 633 -487 L 607.5 -492 L 582 -497 L 550 -509 L 493 -530 L 471 -662 L 462 -718 L 436 -718 L 421 -718 L 412 -718 L 410 -720 L 407 -722 Z" fill="black" fill-opacity="0.25" stroke="black" stroke-width="4"/>
  <rect x="0" y="-473" width="1127" height="294" fill="none" stroke="red" stroke-width="10" /><rect x="407" y="-739" width="308" height="252" fill="none" stroke="red" stroke-width="10" />
</svg>
