<svg xmlns="http://www.w3.org/2000/svg"
  viewBox="-50 -1186 1248 1089">
  <rect x="-50" y="-1186" width="1248" height="1089" fill="white"/>
  <path d="M 111 -640 L 163 -645 L 277 -645 L 313 -645 L 352.5 -641 L 392 -637 L 436 -627 L 462 -621 L 487 -615 L 512 -609 L 574 -593 L 636 -577 L 700 -529 L 763 -483 L 764 -429 L 764 -400 L 748 -379 L 742 -371 L 714 -372 L 673 -372 L 595 -387 L 583 -389 L 564 -392 L 545 -395 L 522 -401 L 546 -413 L 564 -437 L 581 -461 L 572.5 -481.5 L 564 -502 L 518 -528 L 472 -554 L 392 -570 L 308 -587 L 222.5 -598 L 137 -609 L 53 -622 Z M 759 -906 L 753 -894 L 746.5 -875 L 740 -856 L 734 -831 L 871 -825 L 1102 -816 L 1148 -770 L 1006 -770 L 899.5 -770 L 793 -770 L 713 -771 L 696 -733 L 668 -705 L 657 -691 L 624 -681 L 607 -676 L 592 -674.5 L 577 -673 L 563 -673 L 540 -673 L 532 -676 L 518 -682 L 528 -690 L 553 -726 L 568 -776 L 555 -776 L 355 -785 L 257 -834 L 173 -873 L 71 -998 L 63 -1012 L 59 -1039 L 46 -1113 L 41 -1122 L 73 -1126 L 110 -1131 L 148 -1136 L 163 -1136 L 206 -1136 L 235 -1117 L 242 -1112 L 243 -1092 L 240 -1046 L 240 -1032 L 244 -1026 L 336 -895 L 548 -853 L 556 -850 L 566 -849 L 576 -848 L 588 -847 L 593 -863 L 598 -875 L 603 -887 L 609 -898 L 618 -915 L 646 -915 L 707 -909 L 720 -908 L 733 -907 L 746 -906 Z M 1111 -386 L 1127 -350 L 1127 -316 L 1127 -232 L 1030 -189 L 932 -147 L 772 -147 L 633 -147 L 458 -183 L 323 -211 L 167 -283 L 0 -361 L 0 -406 L 0 -425 L 24 -432 L 51 -440 L 111 -439 L 144 -439 L 176 -438 L 208 -437 L 239 -433 L 299 -426 L 322 -414 L 322 -414 L 328 -403 L 321 -394 L 315 -395 L 307.5 -396 L 300 -397 L 291 -397 L 278 -397 L 268 -396 L 258 -395 L 247 -394 L 236 -395 L 236 -386 L 236 -370 L 266 -341 L 283 -324 L 303 -309.5 L 323 -295 L 348 -283 L 392 -262 L 439.5 -246.5 L 487 -231 L 542 -219 L 648 -194 L 750 -194 L 847 -194 L 897 -219 L 952 -247 L 952 -300 L 948 -327 L 940 -369 L 855 -413 L 852 -418 L 850 -421 L 848 -424 L 845 -428 L 858 -431 L 872 -432.5 L 886 -434 L 903 -436 L 921 -438 L 932.5 -439.5 L 944 -441 L 956 -441 L 995 -441 L 1025.5 -433 L 1056 -425 L 1080 -413 L 1088 -409 L 1095.5 -401.5 L 1103 -394 Z" fill="black" fill-opacity="0.25" stroke="black" stroke-width="4"/>
  <rect x="53" y="-645" width="711" height="274" fill="none" stroke="red" stroke-width="10" /><rect x="41" y="-1136" width="1107" height="463" fill="none" stroke="red" stroke-width="10" /><rect x="0" y="-441" width="1127" height="294" fill="none" stroke="red" stroke-width="10" />
</svg>
