<svg xmlns="http://www.w3.org/2000/svg"
  viewBox="-50 -1076 1556.5 957">
  <rect x="-50" y="-1076" width="1556.5" height="957" fill="white"/>
  <path d="M 59 -453 L 84 -461 L 138 -461 L 159 -461 L 189 -460.5 L 219 -460 L 250.5 -457.5 L 282 -455 L 310.5 -450 L 339 -445 L 357 -436 L 359 -434 L 360 -432 L 361 -430 L 362 -428 L 363 -426 L 364 -425 L 356 -416 L 350 -417 L 342.5 -418 L 335 -419 L 326 -419 L 314 -419 L 303.5 -418 L 293 -417 L 283 -416 L 279 -416 L 275 -415 L 271 -414 L 271 -408 L 271 -392 L 301 -363 L 327 -338 L 360.5 -318.5 L 394 -299 L 431 -284.5 L 468 -270 L 505.5 -259.5 L 543 -249 L 578 -241 L 680 -216 L 786 -216 L 803 -216 L 824.5 -217 L 846 -218 L 868.5 -222 L 891 -226 L 913 -233 L 935 -240 L 951.5 -252 L 968 -264 L 978 -281 L 988 -298 L 987 -322 L 984 -348 L 976 -390 L 890 -435 L 887 -439 L 885.5 -442.5 L 884 -446 L 881 -451 L 894 -454 L 907.5 -455 L 921 -456 L 939 -458 L 956 -460 L 967.5 -461.5 L 979 -463 L 992 -463 L 1032 -463 L 1062 -455.5 L 1092 -448 L 1115 -435 L 1123 -431 L 1131 -423.5 L 1139 -416 L 1146 -408 L 1162 -371 L 1162 -338 L 1162 -300 L 1143 -272.5 L 1124 -245 L 1093.5 -226 L 1063 -207 L 1025 -196 L 987 -185 L 947.5 -179 L 908 -173 L 871 -171 L 834 -169 L 808 -169 L 670 -169 L 494 -205 L 426 -219 L 354 -243.5 L 282 -268 L 203 -305 L 36 -382 L 36 -429 L 36 -447 Z M 8 -562 L 3 -562 L 0 -570 L 0 -571 L 1 -572 L 2 -572 L 6 -573 L 8 -574 L 3 -580 L -1 -585 L 6 -587 L 52 -604 L 92.5 -617.5 L 133 -631 L 167 -642 L 201 -653 L 228.5 -663 L 256 -673 L 277 -684 L 356 -726 L 402 -798 L 409 -810 L 416.5 -827.5 L 424 -845 L 432.5 -868.5 L 441 -892 L 452.5 -921.5 L 464 -951 L 480 -986 L 481 -989 L 484.5 -990 L 488 -991 L 492 -992 L 496 -993 L 500.5 -993.5 L 505 -994 L 510 -996 L 522 -1003 L 529.5 -1007.5 L 537 -1012 L 541 -1014 L 553 -1020 L 562 -1022.5 L 571 -1025 L 574 -1026 L 587 -1026 L 592 -1026 L 597 -1025.5 L 602 -1025 L 608 -1023 L 612 -1022 L 616.5 -1021.5 L 621 -1021 L 626 -1020 L 631 -1019 L 635.5 -1017.5 L 640 -1016 L 644 -1012 L 645 -1011 L 644 -1009.5 L 643 -1008 L 640 -1006.5 L 637 -1005 L 634 -1004 L 631 -1003 L 630 -1001 L 592 -975 L 589 -969 L 581 -935 L 574 -911 L 567 -887 L 560 -867 L 558 -861 L 553 -852.5 L 548 -844 L 542 -835 L 536 -826 L 530.5 -817.5 L 525 -809 L 521 -804 L 521 -804 L 522 -804 L 523 -805 L 525 -805 L 520 -800 L 517 -797 L 517 -796 L 517 -796 L 521 -804 L 517 -802 L 507 -795 L 497 -788 L 483 -777.5 L 469 -767 L 453 -755 L 437 -743 L 421 -729 L 405 -717 L 392.5 -707 L 380 -697 L 369 -688 L 358 -679 L 350.5 -672 L 343 -665 L 339 -661 L 339 -660 L 337 -659 L 337 -659 L 337 -658 L 343 -660 L 347.5 -662.5 L 352 -665 L 356 -667 L 361 -670 L 362 -670 L 362 -670 L 359 -668 L 358 -667 L 355 -665 L 352 -663 L 348.5 -661.5 L 345 -660 L 342 -659 L 339 -658 L 338 -658 L 337 -658 L 337 -658 L 325 -652 L 309 -645 L 293 -638 L 276 -631 L 259 -624 L 242.5 -618.5 L 226 -613 L 213 -611 L 204 -610 L 190 -609.5 L 176 -609 L 164.5 -608.5 L 153 -608 L 147.5 -607 L 142 -606 L 149 -603 L 157 -600 L 165.5 -599 L 174 -598 L 183 -598 L 195 -598 L 207.5 -599 L 220 -600 L 233 -600 L 236 -600 L 238.5 -599.5 L 241 -599 L 244 -599 L 289 -596 L 324 -570 L 342 -556 L 342 -551 L 345 -543 L 331 -543 L 318 -543 L 307 -544.5 L 296 -546 L 283 -548 L 265 -551 L 242.5 -553.5 L 220 -556 L 194 -560 L 167 -564 L 144.5 -566 L 122 -568 L 100 -568 L 96 -569 L 92 -569 L 88 -569 L 84 -569 L 70 -569 L 56 -568.5 L 42 -568 L 28 -567 L 25 -566 L 20.5 -564 L 16 -562 Z M 813 -570 L 813 -571 L 814 -572 L 815 -572 L 819 -573 L 821 -574 L 816 -580 L 812 -585 L 819 -587 L 865 -604 L 905.5 -617.5 L 946 -631 L 980 -642 L 1014 -653 L 1041.5 -663 L 1069 -673 L 1089 -684 L 1168 -726 L 1214 -798 L 1221 -810 L 1228.5 -827.5 L 1236 -845 L 1245 -868.5 L 1254 -892 L 1265.5 -921.5 L 1277 -951 L 1292 -986 L 1293 -989 L 1296.5 -990 L 1300 -991 L 1304.5 -992 L 1309 -993 L 1313.5 -993.5 L 1318 -994 L 1322 -996 L 1334 -1003 L 1342 -1007.5 L 1350 -1012 L 1353 -1014 L 1365 -1020 L 1374 -1022.5 L 1383 -1025 L 1386 -1026 L 1399 -1026 L 1404 -1026 L 1409.5 -1025.5 L 1415 -1025 L 1420 -1023 L 1424 -1022 L 1429 -1021.5 L 1434 -1021 L 1438.5 -1020 L 1443 -1019 L 1448 -1017.5 L 1453 -1016 L 1456 -1012 L 1457 -1011 L 1456 -1009.5 L 1455 -1008 L 1452.5 -1006.5 L 1450 -1005 L 1447 -1004 L 1444 -1003 L 1442 -1001 L 1404 -975 L 1402 -969 L 1394 -935 L 1386.5 -911 L 1379 -887 L 1372 -867 L 1370 -861 L 1365 -852.5 L 1360 -844 L 1354.5 -835 L 1349 -826 L 1343 -817.5 L 1337 -809 L 1333 -804 L 1333 -804 L 1334 -804 L 1335 -804 L 1335 -804 L 1335 -805 L 1337 -805 L 1333 -800 L 1330 -797 L 1329 -796 L 1329 -796 L 1333 -804 L 1329 -802 L 1319.5 -795 L 1310 -788 L 1296 -777.5 L 1282 -767 L 1265.5 -755 L 1249 -743 L 1233 -729 L 1217 -717 L 1204.5 -707 L 1192 -697 L 1182 -688 L 1171 -679 L 1163.5 -672 L 1156 -665 L 1152 -661 L 1152 -660 L 1150 -659 L 1150 -659 L 1149 -658 L 1155 -660 L 1160 -662.5 L 1165 -665 L 1168 -667 L 1173 -670 L 1174 -670 L 1174 -670 L 1172 -668 L 1171 -667 L 1167.5 -665 L 1164 -663 L 1161 -661.5 L 1158 -660 L 1155 -659 L 1152 -658 L 1150 -658 L 1149 -658 L 1149 -658 L 1137 -652 L 1121 -645 L 1105 -638 L 1088.5 -631 L 1072 -624 L 1055.5 -618.5 L 1039 -613 L 1025 -611 L 1016 -610 L 1002.5 -609.5 L 989 -609 L 977 -608.5 L 965 -608 L 959.5 -607 L 954 -606 L 961 -603 L 969 -600 L 977.5 -599 L 986 -598 L 996 -598 L 1008 -598 L 1020.5 -599 L 1033 -600 L 1045 -600 L 1048 -600 L 1051 -599.5 L 1054 -599 L 1057 -599 L 1102 -596 L 1136 -570 L 1154 -556 L 1155 -551 L 1158 -543 L 1144 -543 L 1131 -543 L 1119.5 -544.5 L 1108 -546 L 1096 -548 L 1078 -551 L 1055.5 -553.5 L 1033 -556 L 1006 -560 L 979 -564 L 957 -566 L 935 -568 L 913 -568 L 909 -569 L 904.5 -569 L 900 -569 L 896 -569 L 882 -569 L 868.5 -568.5 L 855 -568 L 841 -567 L 838 -566 L 833.5 -564 L 829 -562 L 821 -562 L 816 -562 Z" fill="black" fill-opacity="0.25" stroke="black" stroke-width="4"/>
  <rect x="36" y="-463" width="1126" height="294" fill="none" stroke="red" stroke-width="10" /><rect x="-1" y="-704" width="389.7" height="161" fill="none" stroke="red" stroke-width="10" /><rect x="314.6" y="-865" width="244.7" height="161" fill="none" stroke="red" stroke-width="10" /><rect x="431.2" y="-1026" width="213.8" height="161" fill="none" stroke="red" stroke-width="10" /><rect x="812" y="-704" width="388.7" height="161" fill="none" stroke="red" stroke-width="10" /><rect x="1126.6" y="-865" width="244.7" height="161" fill="none" stroke="red" stroke-width="10" /><rect x="1243.7" y="-1026" width="213.3" height="161" fill="none" stroke="red" stroke-width="10" />
</svg>
