<svg xmlns="http://www.w3.org/2000/svg"
  viewBox="-50.0 -930.0 1345.0 760.0227272727273">
  <rect x="-50.0" y="-930.0" width="1345.0" height="760.0227272727273" fill="white"/>
  <path d="M 1229.0 -459.0 L 1245.0 -423.0 L 1245.0 -388.0 L 1245.0 -304.0 L 1148.0 -262.0 L 1049.0 -219.0 L 890.0 -220.0 L 751.0 -220.0 L 576.0 -256.0 L 441.0 -284.0 L 285.0 -356.0 L 118.0 -434.0 L 118.0 -479.0 L 118.0 -497.0 L 142.0 -504.0 L 170.0 -512.0 L 229.0 -512.0 L 262.0 -512.0 L 294.0 -511.0 L 326.0 -510.0 L 357.0 -506.0 L 416.0 -499.0 L 440.0 -487.0 L 440.0 -487.0 L 446.0 -476.0 L 438.0 -467.0 L 432.0 -468.0 L 425.0 -469.0 L 418.0 -470.0 L 409.0 -470.0 L 397.0 -470.0 L 386.5 -469.0 L 376.0 -468.0 L 365.0 -467.0 L 354.0 -468.0 L 354.0 -459.0 L 354.0 -443.0 L 384.0 -413.0 L 401.0 -396.0 L 421.0 -382.0 L 441.0 -368.0 L 467.0 -356.0 L 510.0 -335.0 L 557.5 -320.0 L 605.0 -305.0 L 660.0 -292.0 L 766.0 -267.0 L 868.0 -266.0 L 965.0 -266.0 L 1015.0 -292.0 L 1070.0 -319.0 L 1070.0 -373.0 L 1066.0 -399.0 L 1058.0 -441.0 L 973.0 -486.0 L 970.0 -490.0 L 968.5 -493.0 L 967.0 -496.0 L 963.0 -501.0 L 976.0 -504.0 L 990.0 -505.5 L 1004.0 -507.0 L 1021.0 -509.0 L 1038.0 -511.0 L 1050.0 -512.0 L 1062.0 -513.0 L 1074.0 -513.0 L 1113.0 -513.0 L 1144.0 -505.5 L 1175.0 -498.0 L 1198.0 -486.0 L 1206.0 -482.0 L 1213.5 -474.5 L 1221.0 -467.0 Z M 78.0 -876.0 L 86.0 -879.0 L 97.0 -879.5 L 108.0 -880.0 L 124.0 -880.0 L 172.0 -880.0 L 222.5 -866.5 L 273.0 -853.0 L 326.0 -824.0 L 395.0 -765.0 L 385.0 -765.0 L 366.5 -767.0 L 348.0 -769.0 L 319.0 -772.0 L 291.0 -775.0 L 270.0 -776.5 L 249.0 -778.0 L 237.0 -778.0 L 211.0 -778.0 L 189.0 -770.0 L 172.0 -763.0 L 172.0 -747.0 L 172.0 -739.0 L 178.0 -728.0 L 185.0 -714.0 L 189.0 -704.0 L 193.0 -694.0 L 199.0 -692.0 L 214.0 -686.0 L 227.5 -682.5 L 241.0 -679.0 L 256.0 -677.0 L 302.0 -666.0 L 310.0 -664.0 L 325.5 -663.0 L 341.0 -662.0 L 365.0 -662.0 L 440.0 -670.0 L 511.0 -677.5 L 582.0 -685.0 L 650.0 -692.0 L 785.0 -706.0 L 937.0 -706.0 L 1038.0 -706.0 L 1185.0 -611.0 L 1218.0 -569.0 L 1198.0 -574.0 L 1139.0 -584.0 L 1050.0 -594.0 L 968.0 -604.0 L 895.0 -603.0 L 852.0 -600.0 L 830.0 -599.0 L 797.0 -598.0 L 764.0 -597.0 L 721.0 -594.0 L 704.0 -593.0 L 676.5 -592.5 L 649.0 -592.0 L 610.0 -592.0 L 580.0 -592.0 L 548.5 -593.0 L 517.0 -594.0 L 483.0 -595.0 L 416.0 -598.0 L 332.0 -609.0 L 274.0 -616.0 L 219.5 -639.0 L 165.0 -662.0 L 108.0 -697.0 L 0.0 -764.0 L 0.0 -822.0 L 0.0 -862.0 Z" fill="black" fill-opacity="0.25" stroke="black" stroke-width="4.0"/>
  <rect x="118.0" y="-513.0" width="1127.0000000000002" height="294.00000000000006" fill="none" stroke="red" stroke-width="10.0" /><rect x="0.0" y="-880.0" width="1218.0" height="311.00000000000006" fill="none" stroke="red" stroke-width="10.0" />
</svg>
