<svg xmlns="http://www.w3.org/2000/svg"
  viewBox="-50 -785 1233 652">
  <rect x="-50" y="-785" width="1233" height="652" fill="white"/>
  <path d="M 119 -633 L 67 -639 L 0 -714 L 0 -735 L 58 -714 L 127 -711 L 163 -710 L 208.5 -709 L 254 -708 L 308 -708 L 385 -708 L 568 -713 L 662 -716 L 729.5 -716 L 797 -716 L 844 -716 L 933 -716 L 1068 -638 L 1099 -603 L 1078 -605 L 1031 -614 L 1026 -614 L 955 -622 L 922 -625 L 891 -626.5 L 860 -628 L 828 -628 L 807 -628 L 758.5 -625.5 L 710 -623 L 635 -620 L 560 -617 L 504.5 -615 L 449 -613 L 413 -613 L 338 -613 L 266 -618 L 230 -621 L 193 -624 L 156 -627 Z M 1117 -422 L 1133 -386 L 1133 -352 L 1133 -268 L 1036 -225 L 937 -183 L 778 -183 L 639 -183 L 464 -219 L 329 -247 L 173 -319 L 6 -397 L 6 -443 L 6 -461 L 30 -468 L 58 -476 L 117 -475 L 150 -475 L 182 -474 L 214 -473 L 246 -469 L 305 -462 L 328 -451 L 334 -440 L 335 -439 L 327 -430 L 321 -431 L 313.5 -432 L 306 -433 L 297 -433 L 285 -433 L 274.5 -432 L 264 -431 L 254 -430 L 243 -431 L 242 -422 L 242 -406 L 272 -377 L 289 -360 L 309.5 -345.5 L 330 -331 L 355 -319 L 398 -298 L 446 -283 L 494 -268 L 548 -255 L 654 -230 L 756 -230 L 853 -230 L 903 -255 L 958 -282 L 958 -336 L 955 -363 L 947 -405 L 861 -449 L 858 -453 L 856.5 -456.5 L 855 -460 L 852 -465 L 865 -468 L 878.5 -469 L 892 -470 L 910 -473 L 927 -475 L 938.5 -476 L 950 -477 L 963 -477 L 1002 -477 L 1032.5 -469.5 L 1063 -462 L 1086 -449 L 1094 -445 L 1101.5 -437.5 L 1109 -430 Z" fill="black" fill-opacity="0.25" stroke="black" stroke-width="4"/>
  <rect x="0" y="-735" width="1099" height="132" fill="none" stroke="red" stroke-width="10" /><rect x="6" y="-477" width="1127" height="294" fill="none" stroke="red" stroke-width="10" />
</svg>
