<svg xmlns="http://www.w3.org/2000/svg"
  viewBox="-50.0 -1321.0 1921.4545454545455 1245.0">
  <rect x="-50.0" y="-1321.0" width="1921.4545454545455" height="1245.0" fill="white"/>
  <path d="M 241.0 -390.0 L 241.0 -411.0 L 269.0 -417.0 L 294.0 -423.0 L 320.0 -424.0 L 346.0 -425.0 L 372.0 -425.0 L 411.0 -424.0 L 449.0 -422.5 L 487.0 -421.0 L 525.0 -418.0 L 548.0 -416.0 L 575.0 -412.0 L 602.0 -408.0 L 623.0 -398.0 L 631.0 -389.0 L 631.0 -387.0 L 622.0 -378.0 L 613.0 -380.0 L 604.5 -380.5 L 596.0 -381.0 L 586.0 -381.0 L 561.0 -381.0 L 535.0 -378.0 L 531.0 -378.0 L 522.0 -378.0 L 522.0 -370.0 L 522.0 -356.0 L 556.0 -323.0 L 584.0 -298.0 L 626.5 -277.5 L 669.0 -257.0 L 719.5 -240.5 L 770.0 -224.0 L 825.5 -211.5 L 881.0 -199.0 L 936.0 -191.0 L 991.0 -183.0 L 1041.5 -179.0 L 1092.0 -175.0 L 1133.0 -175.0 L 1151.0 -175.0 L 1175.5 -175.5 L 1200.0 -176.0 L 1226.5 -179.5 L 1253.0 -183.0 L 1279.0 -189.5 L 1305.0 -196.0 L 1326.0 -208.5 L 1347.0 -221.0 L 1359.5 -239.0 L 1372.0 -257.0 L 1372.0 -283.0 L 1369.0 -309.0 L 1360.0 -353.0 L 1258.0 -396.0 L 1253.0 -401.0 L 1252.0 -405.0 L 1251.0 -406.0 L 1249.5 -408.5 L 1248.0 -411.0 L 1246.0 -414.0 L 1262.0 -418.0 L 1278.0 -418.0 L 1296.0 -419.0 L 1314.0 -420.5 L 1332.0 -422.0 L 1350.0 -425.0 L 1357.0 -425.0 L 1364.0 -425.5 L 1371.0 -426.0 L 1378.0 -426.0 L 1397.0 -426.0 L 1419.5 -424.0 L 1442.0 -422.0 L 1464.0 -417.5 L 1486.0 -413.0 L 1506.5 -405.0 L 1527.0 -397.0 L 1543.0 -385.0 L 1551.0 -379.0 L 1562.0 -370.0 L 1579.0 -335.0 L 1580.0 -298.0 L 1580.0 -268.0 L 1566.0 -244.5 L 1552.0 -221.0 L 1528.5 -203.0 L 1505.0 -185.0 L 1474.0 -173.0 L 1443.0 -161.0 L 1408.5 -152.0 L 1374.0 -143.0 L 1338.0 -138.0 L 1302.0 -133.0 L 1268.5 -130.5 L 1235.0 -128.0 L 1206.5 -127.0 L 1178.0 -126.0 L 1158.0 -126.0 L 1074.0 -126.0 L 982.0 -135.0 L 890.0 -144.0 L 785.0 -162.0 L 695.0 -180.0 L 609.5 -206.0 L 524.0 -232.0 L 439.0 -265.0 L 241.0 -343.0 Z M 1184.0 -543.0 L 1179.0 -543.0 L 1177.0 -551.0 L 1177.0 -552.0 L 1178.0 -553.0 L 1179.0 -553.0 L 1183.0 -554.0 L 1184.0 -556.0 L 1181.0 -561.0 L 1177.0 -566.0 L 1183.0 -568.0 L 1230.0 -585.0 L 1270.0 -598.5 L 1310.0 -612.0 L 1345.0 -623.0 L 1381.0 -634.0 L 1414.0 -647.5 L 1447.0 -661.0 L 1476.5 -679.0 L 1506.0 -697.0 L 1531.5 -721.5 L 1557.0 -746.0 L 1578.0 -779.0 L 1593.0 -802.0 L 1609.0 -850.0 L 1617.0 -873.0 L 1629.0 -902.5 L 1641.0 -932.0 L 1656.0 -967.0 L 1659.0 -973.0 L 1669.0 -973.0 L 1678.0 -973.0 L 1686.0 -978.0 L 1699.0 -986.0 L 1706.0 -990.0 L 1717.0 -995.0 L 1730.0 -1002.0 L 1739.0 -1004.0 L 1747.0 -1006.0 L 1750.0 -1008.0 L 1767.0 -1008.0 L 1777.0 -1008.0 L 1785.0 -1004.0 L 1793.0 -1001.0 L 1803.0 -1001.0 L 1813.0 -1001.0 L 1820.0 -994.0 L 1824.0 -991.0 L 1817.0 -988.0 L 1810.0 -985.0 L 1807.0 -982.0 L 1769.0 -956.0 L 1766.0 -950.0 L 1762.0 -933.0 L 1758.0 -919.0 L 1754.0 -905.0 L 1751.0 -892.0 L 1747.0 -876.0 L 1742.5 -864.5 L 1738.0 -853.0 L 1733.0 -842.5 L 1728.0 -832.0 L 1722.0 -821.5 L 1716.0 -811.0 L 1707.0 -798.0 L 1701.0 -790.0 L 1699.0 -785.0 L 1700.0 -785.0 L 1700.0 -786.0 L 1702.0 -786.0 L 1697.0 -781.0 L 1696.0 -779.0 L 1694.0 -778.0 L 1693.0 -777.0 L 1692.0 -777.0 L 1695.0 -780.0 L 1696.0 -781.0 L 1696.5 -782.5 L 1697.0 -784.0 L 1699.0 -785.0 L 1697.0 -784.0 L 1692.0 -781.0 L 1615.0 -728.0 L 1545.0 -669.0 L 1544.0 -668.0 L 1539.0 -664.0 L 1534.0 -660.0 L 1528.0 -655.0 L 1522.0 -650.0 L 1518.0 -645.5 L 1514.0 -641.0 L 1514.0 -640.0 L 1519.0 -642.0 L 1523.5 -644.0 L 1528.0 -646.0 L 1532.0 -648.0 L 1533.0 -649.0 L 1534.5 -649.5 L 1536.0 -650.0 L 1537.0 -650.0 L 1538.0 -650.0 L 1538.0 -651.0 L 1538.0 -651.0 L 1528.0 -645.0 L 1517.0 -639.0 L 1515.0 -639.0 L 1514.0 -639.0 L 1514.0 -640.0 L 1501.0 -634.0 L 1485.0 -626.5 L 1469.0 -619.0 L 1452.5 -612.5 L 1436.0 -606.0 L 1419.5 -600.5 L 1403.0 -595.0 L 1389.0 -592.0 L 1380.0 -590.0 L 1370.5 -589.5 L 1361.0 -589.0 L 1352.0 -589.0 L 1341.0 -589.0 L 1335.0 -589.0 L 1331.0 -588.5 L 1327.0 -588.0 L 1324.0 -588.0 L 1316.0 -587.0 L 1325.0 -584.0 L 1341.0 -578.0 L 1358.0 -578.0 L 1361.0 -578.0 L 1364.5 -578.5 L 1368.0 -579.0 L 1372.0 -579.0 L 1380.0 -580.0 L 1388.0 -580.5 L 1396.0 -581.0 L 1405.0 -581.0 L 1432.0 -581.0 L 1455.0 -574.5 L 1478.0 -568.0 L 1500.0 -551.0 L 1518.0 -536.0 L 1519.0 -533.0 L 1522.0 -525.0 L 1508.0 -525.0 L 1507.0 -525.0 L 1500.0 -524.0 L 1486.0 -524.0 L 1459.0 -529.0 L 1442.0 -532.0 L 1420.0 -535.0 L 1409.0 -536.0 L 1396.5 -538.0 L 1384.0 -540.0 L 1371.0 -542.0 L 1337.0 -547.0 L 1304.5 -549.0 L 1272.0 -551.0 L 1239.0 -551.0 L 1231.0 -551.0 L 1222.0 -550.0 L 1213.0 -549.0 L 1205.0 -548.0 L 1201.0 -545.0 L 1195.0 -544.0 L 1189.0 -543.0 Z M 0.0 -520.0 L 0.0 -521.0 L 1.0 -521.0 L 3.0 -521.0 L 6.0 -523.0 L 7.0 -525.0 L 4.0 -530.0 L 0.0 -535.0 L 6.0 -537.0 L 53.0 -554.0 L 93.5 -567.5 L 134.0 -581.0 L 168.0 -592.0 L 204.0 -603.0 L 237.0 -616.0 L 270.0 -629.0 L 300.0 -647.0 L 330.0 -665.0 L 355.5 -689.5 L 381.0 -714.0 L 402.0 -748.0 L 416.0 -771.0 L 433.0 -818.0 L 441.0 -841.0 L 452.5 -870.5 L 464.0 -900.0 L 480.0 -935.0 L 483.0 -941.0 L 492.0 -942.0 L 501.0 -942.0 L 509.0 -947.0 L 522.0 -955.0 L 530.0 -958.0 L 540.0 -964.0 L 553.0 -971.0 L 562.0 -973.0 L 566.0 -974.0 L 569.0 -975.0 L 572.0 -976.0 L 574.0 -977.0 L 590.0 -977.0 L 599.0 -977.0 L 608.0 -973.0 L 616.0 -970.0 L 626.0 -970.0 L 636.0 -970.0 L 644.0 -962.0 L 647.0 -958.0 L 641.0 -956.0 L 634.0 -953.0 L 630.0 -951.0 L 611.0 -938.0 L 601.0 -930.0 L 591.0 -922.0 L 589.0 -918.0 L 585.0 -901.0 L 581.5 -887.0 L 578.0 -873.0 L 575.0 -861.0 L 570.0 -845.0 L 565.5 -833.5 L 561.0 -822.0 L 556.5 -811.5 L 552.0 -801.0 L 545.5 -791.0 L 539.0 -781.0 L 531.0 -767.0 L 525.0 -759.0 L 522.0 -754.0 L 522.0 -754.0 L 523.0 -754.0 L 523.0 -755.0 L 525.0 -755.0 L 520.0 -750.0 L 520.0 -748.0 L 518.0 -747.0 L 517.0 -746.0 L 516.0 -746.0 L 518.0 -748.0 L 519.0 -749.0 L 519.5 -750.5 L 520.0 -752.0 L 522.0 -754.0 L 520.0 -753.0 L 516.0 -750.0 L 478.0 -724.0 L 441.0 -696.5 L 404.0 -669.0 L 369.0 -638.0 L 368.0 -637.0 L 362.5 -633.0 L 357.0 -629.0 L 351.5 -624.0 L 346.0 -619.0 L 341.5 -614.5 L 337.0 -610.0 L 337.0 -608.0 L 342.0 -610.0 L 346.5 -612.5 L 351.0 -615.0 L 355.0 -617.0 L 356.0 -618.0 L 357.5 -618.5 L 359.0 -619.0 L 360.0 -619.0 L 361.0 -619.0 L 361.0 -620.0 L 361.0 -620.0 L 351.0 -614.0 L 335.0 -606.0 L 337.0 -608.0 L 332.0 -606.0 L 327.0 -604.0 L 322.0 -602.0 L 316.0 -599.0 L 297.0 -590.0 L 279.0 -582.5 L 261.0 -575.0 L 243.0 -569.5 L 225.0 -564.0 L 206.0 -561.0 L 187.0 -558.0 L 165.0 -558.0 L 159.0 -558.0 L 154.5 -557.5 L 150.0 -557.0 L 147.0 -557.0 L 139.0 -556.0 L 148.0 -553.0 L 157.0 -550.0 L 166.5 -548.5 L 176.0 -547.0 L 185.0 -547.0 L 187.0 -547.0 L 189.5 -547.0 L 192.0 -547.0 L 195.0 -548.0 L 203.0 -549.0 L 210.0 -550.0 L 217.0 -551.0 L 225.0 -551.0 L 252.0 -551.0 L 277.0 -544.0 L 302.0 -537.0 L 324.0 -520.0 L 343.0 -506.0 L 342.0 -501.0 L 345.0 -493.0 L 331.0 -494.0 L 330.0 -494.0 L 324.0 -493.0 L 310.0 -493.0 L 283.0 -498.0 L 266.0 -501.0 L 243.0 -504.0 L 232.0 -505.0 L 219.5 -507.0 L 207.0 -509.0 L 194.0 -511.0 L 160.0 -516.0 L 127.5 -517.5 L 95.0 -519.0 L 61.0 -519.0 L 53.0 -519.0 L 45.0 -518.5 L 37.0 -518.0 L 28.0 -517.0 L 23.0 -514.0 L 18.0 -513.0 L 13.0 -512.0 L 8.0 -512.0 L 3.0 -512.0 Z M 705.0 -828.0 L 700.0 -828.0 L 697.0 -834.0 L 697.0 -837.0 L 703.0 -837.0 L 706.0 -838.0 L 703.0 -845.0 L 700.0 -850.0 L 705.0 -853.0 L 752.0 -869.0 L 792.0 -881.0 L 832.0 -893.0 L 868.0 -902.0 L 903.0 -911.0 L 937.0 -923.0 L 971.0 -935.0 L 1002.5 -953.5 L 1034.0 -972.0 L 1061.0 -995.5 L 1088.0 -1019.0 L 1108.0 -1051.0 L 1123.0 -1075.0 L 1141.0 -1119.0 L 1160.0 -1164.0 L 1192.0 -1234.0 L 1195.0 -1240.0 L 1204.0 -1240.0 L 1212.0 -1240.0 L 1220.0 -1245.0 L 1226.0 -1249.0 L 1231.5 -1251.5 L 1237.0 -1254.0 L 1242.0 -1256.0 L 1250.0 -1259.0 L 1253.0 -1262.0 L 1258.0 -1264.0 L 1263.0 -1265.5 L 1268.0 -1267.0 L 1272.0 -1269.0 L 1277.0 -1271.0 L 1281.0 -1271.0 L 1285.0 -1271.0 L 1290.0 -1271.0 L 1304.0 -1271.0 L 1319.0 -1267.0 L 1325.0 -1265.0 L 1334.0 -1265.0 L 1339.0 -1265.0 L 1344.0 -1265.0 L 1348.0 -1263.5 L 1352.0 -1262.0 L 1355.0 -1258.0 L 1359.0 -1253.0 L 1351.0 -1251.0 L 1344.0 -1249.0 L 1341.0 -1247.0 L 1303.0 -1223.0 L 1300.0 -1214.0 L 1290.0 -1183.0 L 1283.0 -1157.0 L 1277.0 -1138.0 L 1270.5 -1122.0 L 1264.0 -1106.0 L 1252.0 -1090.0 L 1247.0 -1083.0 L 1242.5 -1076.5 L 1238.0 -1070.0 L 1234.0 -1064.0 L 1232.0 -1061.0 L 1230.0 -1058.0 L 1228.0 -1055.0 L 1226.0 -1053.0 L 1230.0 -1054.0 L 1225.0 -1048.0 L 1222.0 -1045.0 L 1222.0 -1045.0 L 1221.5 -1044.5 L 1221.0 -1044.0 L 1221.0 -1043.0 L 1221.0 -1043.0 L 1222.0 -1046.0 L 1223.0 -1047.0 L 1224.0 -1049.0 L 1225.0 -1051.0 L 1226.0 -1053.0 L 1197.0 -1039.0 L 1171.5 -1021.0 L 1146.0 -1003.0 L 1121.0 -983.0 L 1106.0 -972.0 L 1093.0 -962.0 L 1080.0 -952.0 L 1069.0 -944.0 L 1046.0 -925.0 L 1039.0 -917.0 L 1038.0 -916.0 L 1038.0 -915.0 L 1043.0 -917.0 L 1047.5 -918.5 L 1052.0 -920.0 L 1056.0 -921.0 L 1060.0 -922.0 L 1061.0 -923.0 L 1063.0 -923.0 L 1052.0 -917.0 L 1043.0 -912.0 L 1038.0 -912.0 L 1036.0 -912.0 L 1038.0 -915.0 L 1029.0 -912.0 L 1016.0 -906.0 L 989.0 -895.0 L 959.0 -884.0 L 941.0 -878.0 L 924.5 -873.5 L 908.0 -869.0 L 889.0 -869.0 L 863.0 -869.0 L 857.0 -869.0 L 853.0 -869.0 L 849.0 -869.0 L 846.0 -868.0 L 840.0 -868.0 L 847.0 -864.0 L 863.0 -857.0 L 881.0 -857.0 L 883.0 -857.0 L 886.0 -857.0 L 889.0 -857.0 L 892.0 -857.0 L 904.0 -858.0 L 916.0 -859.0 L 944.0 -859.0 L 971.0 -851.5 L 998.0 -844.0 L 1020.0 -826.0 L 1036.0 -813.0 L 1038.0 -805.0 L 1039.0 -799.0 L 1027.0 -798.0 L 978.0 -803.0 L 891.0 -818.0 L 857.0 -826.0 L 820.5 -829.5 L 784.0 -833.0 L 749.0 -833.0 L 743.0 -833.0 L 736.5 -833.0 L 730.0 -833.0 L 725.0 -832.0 L 716.0 -828.0 Z M 770.0 -759.0 L 772.0 -762.0 L 787.0 -762.0 L 816.0 -762.0 L 829.0 -762.0 L 845.0 -759.0 L 892.0 -751.0 L 962.0 -737.0 L 980.0 -643.0 L 992.0 -582.0 L 1003.0 -568.0 L 1014.0 -554.0 L 1033.0 -551.0 L 1038.0 -551.0 L 1047.0 -550.0 L 1050.0 -550.0 L 1052.0 -548.0 L 1051.0 -541.0 L 1044.0 -536.5 L 1037.0 -532.0 L 1028.0 -529.0 L 1019.0 -526.0 L 1010.0 -524.5 L 1001.0 -523.0 L 996.0 -523.0 L 970.0 -523.0 L 945.5 -529.5 L 921.0 -536.0 L 897.0 -545.0 L 843.0 -565.0 L 822.0 -690.0 L 813.0 -743.0 L 789.0 -744.0 L 775.0 -744.0 L 766.0 -744.0 L 764.0 -745.0 L 762.0 -747.0 Z" fill="black" fill-opacity="0.25" stroke="black" stroke-width="4.0"/>
  <rect x="241.0" y="-426.0" width="1339.0" height="300.0" fill="none" stroke="red" stroke-width="10.0" /><rect x="1177.0" y="-1008.0" width="647.0" height="484.0" fill="none" stroke="red" stroke-width="10.0" /><rect x="0.0" y="-977.0" width="647.0" height="484.0" fill="none" stroke="red" stroke-width="10.0" /><rect x="697.0" y="-1271.0" width="662.0" height="472.9999999999999" fill="none" stroke="red" stroke-width="10.0" /><rect x="762.0" y="-762.0" width="290.00000000000006" height="239.0" fill="none" stroke="red" stroke-width="10.0" />
</svg>
