<svg xmlns="http://www.w3.org/2000/svg"
  viewBox="-50 -1321 1921.455 1245">
  <rect x="-50" y="-1321" width="1921.455" height="1245" fill="white"/>
  <path d="M 241 -390 L 241 -411 L 269 -417 L 294 -423 L 320 -424 L 346 -425 L 372 -425 L 411 -424 L 449 -422.5 L 487 -421 L 525 -418 L 548 -416 L 575 -412 L 602 -408 L 623 -398 L 631 -389 L 631 -387 L 622 -378 L 613 -380 L 604.5 -380.5 L 596 -381 L 586 -381 L 561 -381 L 535 -378 L 531 -378 L 522 -378 L 522 -370 L 522 -356 L 556 -323 L 584 -298 L 626.5 -277.5 L 669 -257 L 719.5 -240.5 L 770 -224 L 825.5 -211.5 L 881 -199 L 936 -191 L 991 -183 L 1041.5 -179 L 1092 -175 L 1133 -175 L 1151 -175 L 1175.5 -175.5 L 1200 -176 L 1226.5 -179.5 L 1253 -183 L 1279 -189.5 L 1305 -196 L 1326 -208.5 L 1347 -221 L 1359.5 -239 L 1372 -257 L 1372 -283 L 1369 -309 L 1360 -353 L 1258 -396 L 1253 -401 L 1252 -405 L 1251 -406 L 1249.5 -408.5 L 1248 -411 L 1246 -414 L 1262 -418 L 1278 -418 L 1296 -419 L 1314 -420.5 L 1332 -422 L 1350 -425 L 1357 -425 L 1364 -425.5 L 1371 -426 L 1378 -426 L 1397 -426 L 1419.5 -424 L 1442 -422 L 1464 -417.5 L 1486 -413 L 1506.5 -405 L 1527 -397 L 1543 -385 L 1551 -379 L 1562 -370 L 1579 -335 L 1580 -298 L 1580 -268 L 1566 -244.5 L 1552 -221 L 1528.5 -203 L 1505 -185 L 1474 -173 L 1443 -161 L 1408.5 -152 L 1374 -143 L 1338 -138 L 1302 -133 L 1268.5 -130.5 L 1235 -128 L 1206.5 -127 L 1178 -126 L 1158 -126 L 1074 -126 L 982 -135 L 890 -144 L 785 -162 L 695 -180 L 609.5 -206 L 524 -232 L 439 -265 L 241 -343 Z M 1184 -543 L 1179 -543 L 1177 -551 L 1177 -552 L 1178 -553 L 1179 -553 L 1183 -554 L 1184 -556 L 1181 -561 L 1177 -566 L 1183 -568 L 1230 -585 L 1270 -598.5 L 1310 -612 L 1345 -623 L 1381 -634 L 1414 -647.5 L 1447 -661 L 1476.5 -679 L 1506 -697 L 1531.5 -721.5 L 1557 -746 L 1578 -779 L 1593 -802 L 1609 -850 L 1617 -873 L 1629 -902.5 L 1641 -932 L 1656 -967 L 1659 -973 L 1669 -973 L 1678 -973 L 1686 -978 L 1699 -986 L 1706 -990 L 1717 -995 L 1730 -1002 L 1739 -1004 L 1747 -1006 L 1750 -1008 L 1767 -1008 L 1777 -1008 L 1785 -1004 L 1793 -1001 L 1803 -1001 L 1813 -1001 L 1820 -994 L 1824 -991 L 1817 -988 L 1810 -985 L 1807 -982 L 1769 -956 L 1766 -950 L 1762 -933 L 1758 -919 L 1754 -905 L 1751 -892 L 1747 -876 L 1742.5 -864.5 L 1738 -853 L 1733 -842.5 L 1728 -832 L 1722 -821.5 L 1716 -811 L 1707 -798 L 1701 -790 L 1699 -785 L 1700 -785 L 1700 -786 L 1702 -786 L 1697 -781 L 1696 -779 L 1694 -778 L 1693 -777 L 1692 -777 L 1695 -780 L 1696 -781 L 1696.5 -782.5 L 1697 -784 L 1699 -785 L 1697 -784 L 1692 -781 L 1615 -728 L 1545 -669 L 1544 -668 L 1539 -664 L 1534 -660 L 1528 -655 L 1522 -650 L 1518 -645.5 L 1514 -641 L 1514 -640 L 1519 -642 L 1523.5 -644 L 1528 -646 L 1532 -648 L 1533 -649 L 1534.5 -649.5 L 1536 -650 L 1537 -650 L 1538 -650 L 1538 -651 L 1538 -651 L 1528 -645 L 1517 -639 L 1515 -639 L 1514 -639 L 1514 -640 L 1501 -634 L 1485 -626.5 L 1469 -619 L 1452.5 -612.5 L 1436 -606 L 1419.5 -600.5 L 1403 -595 L 1389 -592 L 1380 -590 L 1370.5 -589.5 L 1361 -589 L 1352 -589 L 1341 -589 L 1335 -589 L 1331 -588.5 L 1327 -588 L 1324 -588 L 1316 -587 L 1325 -584 L 1341 -578 L 1358 -578 L 1361 -578 L 1364.5 -578.5 L 1368 -579 L 1372 -579 L 1380 -580 L 1388 -580.5 L 1396 -581 L 1405 -581 L 1432 -581 L 1455 -574.5 L 1478 -568 L 1500 -551 L 1518 -536 L 1519 -533 L 1522 -525 L 1508 -525 L 1507 -525 L 1500 -524 L 1486 -524 L 1459 -529 L 1442 -532 L 1420 -535 L 1409 -536 L 1396.5 -538 L 1384 -540 L 1371 -542 L 1337 -547 L 1304.5 -549 L 1272 -551 L 1239 -551 L 1231 -551 L 1222 -550 L 1213 -549 L 1205 -548 L 1201 -545 L 1195 -544 L 1189 -543 Z M 0 -520 L 0 -521 L 1 -521 L 3 -521 L 6 -523 L 7 -525 L 4 -530 L 0 -535 L 6 -537 L 53 -554 L 93.5 -567.5 L 134 -581 L 168 -592 L 204 -603 L 237 -616 L 270 -629 L 300 -647 L 330 -665 L 355.5 -689.5 L 381 -714 L 402 -748 L 416 -771 L 433 -818 L 441 -841 L 452.5 -870.5 L 464 -900 L 480 -935 L 483 -941 L 492 -942 L 501 -942 L 509 -947 L 522 -955 L 530 -958 L 540 -964 L 553 -971 L 562 -973 L 566 -974 L 569 -975 L 572 -976 L 574 -977 L 590 -977 L 599 -977 L 608 -973 L 616 -970 L 626 -970 L 636 -970 L 644 -962 L 647 -958 L 641 -956 L 634 -953 L 630 -951 L 611 -938 L 601 -930 L 591 -922 L 589 -918 L 585 -901 L 581.5 -887 L 578 -873 L 575 -861 L 570 -845 L 565.5 -833.5 L 561 -822 L 556.5 -811.5 L 552 -801 L 545.5 -791 L 539 -781 L 531 -767 L 525 -759 L 522 -754 L 522 -754 L 523 -754 L 523 -755 L 525 -755 L 520 -750 L 520 -748 L 518 -747 L 517 -746 L 516 -746 L 518 -748 L 519 -749 L 519.5 -750.5 L 520 -752 L 522 -754 L 520 -753 L 516 -750 L 478 -724 L 441 -696.5 L 404 -669 L 369 -638 L 368 -637 L 362.5 -633 L 357 -629 L 351.5 -624 L 346 -619 L 341.5 -614.5 L 337 -610 L 337 -608 L 342 -610 L 346.5 -612.5 L 351 -615 L 355 -617 L 356 -618 L 357.5 -618.5 L 359 -619 L 360 -619 L 361 -619 L 361 -620 L 361 -620 L 351 -614 L 335 -606 L 337 -608 L 332 -606 L 327 -604 L 322 -602 L 316 -599 L 297 -590 L 279 -582.5 L 261 -575 L 243 -569.5 L 225 -564 L 206 -561 L 187 -558 L 165 -558 L 159 -558 L 154.5 -557.5 L 150 -557 L 147 -557 L 139 -556 L 148 -553 L 157 -550 L 166.5 -548.5 L 176 -547 L 185 -547 L 187 -547 L 189.5 -547 L 192 -547 L 195 -548 L 203 -549 L 210 -550 L 217 -551 L 225 -551 L 252 -551 L 277 -544 L 302 -537 L 324 -520 L 343 -506 L 342 -501 L 345 -493 L 331 -494 L 330 -494 L 324 -493 L 310 -493 L 283 -498 L 266 -501 L 243 -504 L 232 -505 L 219.5 -507 L 207 -509 L 194 -511 L 160 -516 L 127.5 -517.5 L 95 -519 L 61 -519 L 53 -519 L 45 -518.5 L 37 -518 L 28 -517 L 23 -514 L 18 -513 L 13 -512 L 8 -512 L 3 -512 Z M 705 -828 L 700 -828 L 697 -834 L 697 -837 L 703 -837 L 706 -838 L 703 -845 L 700 -850 L 705 -853 L 752 -869 L 792 -881 L 832 -893 L 868 -902 L 903 -911 L 937 -923 L 971 -935 L 1002.5 -953.5 L 1034 -972 L 1061 -995.5 L 1088 -1019 L 1108 -1051 L 1123 -1075 L 1141 -1119 L 1160 -1164 L 1192 -1234 L 1195 -1240 L 1204 -1240 L 1212 -1240 L 1220 -1245 L 1226 -1249 L 1231.5 -1251.5 L 1237 -1254 L 1242 -1256 L 1250 -1259 L 1253 -1262 L 1258 -1264 L 1263 -1265.5 L 1268 -1267 L 1272 -1269 L 1277 -1271 L 1281 -1271 L 1285 -1271 L 1290 -1271 L 1304 -1271 L 1319 -1267 L 1325 -1265 L 1334 -1265 L 1339 -1265 L 1344 -1265 L 1348 -1263.5 L 1352 -1262 L 1355 -1258 L 1359 -1253 L 1351 -1251 L 1344 -1249 L 1341 -1247 L 1303 -1223 L 1300 -1214 L 1290 -1183 L 1283 -1157 L 1277 -1138 L 1270.5 -1122 L 1264 -1106 L 1252 -1090 L 1247 -1083 L 1242.5 -1076.5 L 1238 -1070 L 1234 -1064 L 1232 -1061 L 1230 -1058 L 1228 -1055 L 1226 -1053 L 1230 -1054 L 1225 -1048 L 1222 -1045 L 1222 -1045 L 1221.5 -1044.5 L 1221 -1044 L 1221 -1043 L 1221 -1043 L 1222 -1046 L 1223 -1047 L 1224 -1049 L 1225 -1051 L 1226 -1053 L 1197 -1039 L 1171.5 -1021 L 1146 -1003 L 1121 -983 L 1106 -972 L 1093 -962 L 1080 -952 L 1069 -944 L 1046 -925 L 1039 -917 L 1038 -916 L 1038 -915 L 1043 -917 L 1047.5 -918.5 L 1052 -920 L 1056 -921 L 1060 -922 L 1061 -923 L 1063 -923 L 1052 -917 L 1043 -912 L 1038 -912 L 1036 -912 L 1038 -915 L 1029 -912 L 1016 -906 L 989 -895 L 959 -884 L 941 -878 L 924.5 -873.5 L 908 -869 L 889 -869 L 863 -869 L 857 -869 L 853 -869 L 849 -869 L 846 -868 L 840 -868 L 847 -864 L 863 -857 L 881 -857 L 883 -857 L 886 -857 L 889 -857 L 892 -857 L 904 -858 L 916 -859 L 944 -859 L 971 -851.5 L 998 -844 L 1020 -826 L 1036 -813 L 1038 -805 L 1039 -799 L 1027 -798 L 978 -803 L 891 -818 L 857 -826 L 820.5 -829.5 L 784 -833 L 749 -833 L 743 -833 L 736.5 -833 L 730 -833 L 725 -832 L 716 -828 Z M 770 -759 L 772 -762 L 787 -762 L 816 -762 L 829 -762 L 845 -759 L 892 -751 L 962 -737 L 980 -643 L 992 -582 L 1003 -568 L 1014 -554 L 1033 -551 L 1038 -551 L 1047 -550 L 1050 -550 L 1052 -548 L 1051 -541 L 1044 -536.5 L 1037 -532 L 1028 -529 L 1019 -526 L 1010 -524.5 L 1001 -523 L 996 -523 L 970 -523 L 945.5 -529.5 L 921 -536 L 897 -545 L 843 -565 L 822 -690 L 813 -743 L 789 -744 L 775 -744 L 766 -744 L 764 -745 L 762 -747 Z" fill="black" fill-opacity="0.25" stroke="black" stroke-width="4"/>
  <rect x="241" y="-426" width="1339" height="300" fill="none" stroke="red" stroke-width="10" /><rect x="762" y="-762" width="290" height="239" fill="none" stroke="red" stroke-width="10" /><rect x="1177" y="-685.3" width="387.4" height="161.3" fill="none" stroke="red" stroke-width="10" /><rect x="1486.9" y="-846.7" width="248.1" height="161.4" fill="none" stroke="red" stroke-width="10" /><rect x="1607.9" y="-1008" width="216.1" height="161.3" fill="none" stroke="red" stroke-width="10" /><rect x="0" y="-654.3" width="387.4" height="161.3" fill="none" stroke="red" stroke-width="10" /><rect x="312.2" y="-815.7" width="246.1" height="161.4" fill="none" stroke="red" stroke-width="10" /><rect x="432.2" y="-977" width="214.8" height="161.3" fill="none" stroke="red" stroke-width="10" /><rect x="697" y="-955.7" width="387.8" height="157.7" fill="none" stroke="red" stroke-width="10" /><rect x="1006.2" y="-1113.3" width="260.8" height="157.6" fill="none" stroke="red" stroke-width="10" /><rect x="1138.7" y="-1271" width="220.3" height="157.7" fill="none" stroke="red" stroke-width="10" />
</svg>
