<svg xmlns="http://www.w3.org/2000/svg"
  viewBox="-50 -918 1240 799">
  <rect x="-50" y="-918" width="1240" height="799" fill="white"/>
  <path d="M 0 -746 L 0 -774 L 14 -794 L 28 -814 L 50 -827.5 L 72 -841 L 99.5 -849 L 127 -857 L 155.5 -861 L 184 -865 L 210.5 -866.5 L 237 -868 L 257 -868 L 317 -868 L 374 -862.5 L 431 -857 L 488 -847 L 545 -837 L 601 -823 L 657 -809 L 714 -793 L 831 -760 L 980 -662 L 1126 -566 L 1125 -524 L 1125 -505 L 1089 -505 L 1042 -505 L 992 -511.5 L 942 -518 L 896 -529 L 907 -633 L 732 -716 L 564 -796 L 392 -796 L 375 -796 L 354.5 -794.5 L 334 -793 L 312.5 -789 L 291 -785 L 270.5 -778 L 250 -771 L 233.5 -759.5 L 217 -748 L 207 -731.5 L 197 -715 L 196 -693 L 195 -662 L 241 -625 L 301 -579 L 305 -579 L 166 -580 L 96 -608 L 49 -628 L 17 -677 L 0 -717 Z M 37 -454 L 50 -458 L 69.5 -459.5 L 89 -461 L 116 -461 L 137 -461 L 167 -460.5 L 197 -460 L 228.5 -457.5 L 260 -455 L 288.5 -450 L 317 -445 L 335 -436 L 337 -434 L 338 -432 L 339 -430 L 340 -428 L 341 -426 L 342 -425 L 334 -416 L 328 -417 L 320.5 -418 L 313 -419 L 304 -419 L 292 -419 L 281.5 -418 L 271 -417 L 261 -416 L 257 -416 L 253 -415 L 249 -414 L 249 -408 L 249 -392 L 279 -363 L 304 -338 L 340.5 -317 L 377 -296 L 420 -280 L 463 -264 L 509.5 -252 L 556 -240 L 601.5 -232 L 647 -224 L 688.5 -220 L 730 -216 L 763 -216 L 781 -216 L 803 -217 L 825 -218 L 847 -222 L 869 -226 L 890.5 -233 L 912 -240 L 928.5 -252 L 945 -264 L 955 -281 L 965 -298 L 965 -322 L 962 -349 L 954 -391 L 868 -435 L 865 -439 L 863.5 -442.5 L 862 -446 L 859 -451 L 872 -454 L 885.5 -455 L 899 -456 L 917 -458 L 934 -460 L 945.5 -461.5 L 957 -463 L 970 -463 L 1010 -463 L 1040 -455.5 L 1070 -448 L 1093 -435 L 1101 -431 L 1109 -423.5 L 1117 -416 L 1124 -408 L 1140 -371 L 1140 -338 L 1140 -300 L 1121 -272.5 L 1102 -245 L 1071.5 -226 L 1041 -207 L 1003 -196 L 965 -185 L 925.5 -179 L 886 -173 L 849 -171 L 812 -169 L 785 -169 L 715 -169 L 637 -178 L 559 -187 L 471 -205 L 403 -219 L 331 -243.5 L 259 -268 L 180 -305 L 13 -382 L 13 -429 L 14 -448 Z" fill="black" fill-opacity="0.25" stroke="black" stroke-width="4"/>
  <rect x="0" y="-868" width="1126" height="363" fill="none" stroke="red" stroke-width="10" /><rect x="13" y="-463" width="1127" height="294" fill="none" stroke="red" stroke-width="10" />
</svg>
