<svg xmlns="http://www.w3.org/2000/svg"
  viewBox="-50 -1082 1506.5 958">
  <rect x="-50" y="-1082" width="1506.5" height="958" fill="white"/>
  <path d="M 0 -434 L 0 -454 L 23 -460 L 48 -468 L 102 -466 L 123 -466 L 153 -466 L 183 -466 L 214.5 -463 L 246 -460 L 274.5 -455 L 303 -450 L 322 -442 L 324 -440 L 324.5 -438 L 325 -436 L 326 -434 L 327 -432 L 328 -430 L 320 -422 L 314 -422 L 307 -423 L 300 -424 L 290 -424 L 278 -424 L 268 -424 L 258 -424 L 247 -422 L 243 -422 L 239.5 -421 L 236 -420 L 236 -414 L 236 -398 L 265 -368 L 290 -344 L 326.5 -323 L 363 -302 L 406 -286 L 449 -270 L 495.5 -258 L 542 -246 L 587.5 -238 L 633 -230 L 675 -226 L 717 -222 L 750 -222 L 768 -222 L 789.5 -223 L 811 -224 L 833.5 -228 L 856 -232 L 877 -239 L 898 -246 L 914.5 -258 L 931 -270 L 941 -287 L 951 -304 L 951 -328 L 948 -354 L 940 -396 L 854 -440 L 851 -444 L 849.5 -448 L 848 -452 L 845 -456 L 858 -460 L 872 -461 L 886 -462 L 903 -464 L 920 -466 L 932 -467 L 944 -468 L 956 -468 L 996 -468 L 1026 -461 L 1056 -454 L 1079 -440 L 1087 -436 L 1095 -429 L 1103 -422 L 1111 -414 L 1127 -376 L 1126 -344 L 1126 -306 L 1107.5 -278 L 1089 -250 L 1059 -232 L 1029 -214 L 990 -202 L 951 -190 L 912 -184 L 873 -178 L 836 -176 L 799 -174 L 772 -174 L 701 -174 L 623.5 -183 L 546 -192 L 458 -210 L 390 -224 L 318 -249 L 246 -274 L 167 -310 L 0 -388 Z M 762 -576 L 762 -576 L 764 -576 L 765 -576 L 768 -578 L 770 -580 L 766 -586 L 762 -590 L 768 -592 L 814 -610 L 854.5 -623 L 895 -636 L 929 -647 L 963 -658 L 990.5 -668 L 1018 -678 L 1039 -690 L 1118 -732 L 1164 -804 L 1171 -816 L 1178.5 -833 L 1186 -850 L 1194.5 -874 L 1203 -898 L 1214.5 -927 L 1226 -956 L 1242 -990 L 1243 -994 L 1246.5 -995 L 1250 -996 L 1254 -997 L 1258 -998 L 1262.5 -998 L 1267 -998 L 1272 -1002 L 1284 -1008 L 1291.5 -1012 L 1299 -1016 L 1303 -1018 L 1315 -1024 L 1324 -1027 L 1333 -1030 L 1336 -1032 L 1349 -1032 L 1354 -1032 L 1359.5 -1031 L 1365 -1030 L 1370 -1028 L 1374 -1028 L 1378.5 -1027 L 1383 -1026 L 1388 -1025 L 1393 -1024 L 1397.5 -1023 L 1402 -1022 L 1406 -1018 L 1407 -1016 L 1406 -1014 L 1405 -1012 L 1402 -1011 L 1399 -1010 L 1396 -1009 L 1393 -1008 L 1392 -1006 L 1354 -980 L 1351 -974 L 1343 -940 L 1336 -916 L 1329 -892 L 1322 -872 L 1320 -866 L 1315 -858 L 1310 -850 L 1304.5 -841 L 1299 -832 L 1293 -823 L 1287 -814 L 1283 -808 L 1283 -808 L 1285 -810 L 1287 -810 L 1282 -804 L 1279 -800 L 1279 -800 L 1283 -808 L 1279 -806 L 1269 -800 L 1259 -794 L 1245 -783 L 1231 -772 L 1215 -760 L 1199 -748 L 1183 -734 L 1167 -722 L 1154.5 -712 L 1142 -702 L 1131 -694 L 1109 -676 L 1101 -666 L 1101 -666 L 1100 -664 L 1100 -664 L 1099 -664 L 1080 -654 L 1061 -646 L 1042 -638 L 1023 -630 L 993 -618 L 975 -616 L 966 -614 L 952 -614 L 938 -614 L 926.5 -613 L 915 -612 L 909.5 -612 L 904 -612 L 911 -608 L 919 -606 L 927 -605 L 935 -604 L 944 -604 L 956 -604 L 968.5 -605 L 981 -606 L 993 -606 L 1018 -606 L 1041.5 -598 L 1065 -590 L 1086 -576 L 1104 -562 L 1104 -556 L 1107 -548 L 1094 -548 L 1081 -548 L 1069.5 -549 L 1058 -550 L 1045 -554 L 1027 -556 L 1004.5 -559 L 982 -562 L 956 -566 L 929 -570 L 906.5 -572 L 884 -574 L 862 -574 L 858 -574 L 854 -574 L 850 -574 L 846 -574 L 832 -574 L 818 -574 L 804 -574 L 790 -572 L 787 -570 L 782.5 -569 L 778 -568 L 770 -568 L 765 -568 Z M 406 -762 L 406 -768 L 420 -768 L 424 -768 L 431 -768 L 441.5 -767 L 452 -766 L 466 -762 L 481 -760 L 489.5 -759 L 498 -758 L 505 -756 L 568 -746 L 586 -660 L 597 -608 L 607 -592 L 612 -584 L 633 -578 L 651 -574 L 650 -574 L 650 -570 L 649.5 -571 L 649 -572 L 646 -566 L 639 -552 L 600 -552 L 581 -552 L 559.5 -557 L 538 -562 L 511 -572 L 460 -592 L 443 -706 L 436 -752 L 423 -752 L 423 -752 L 422 -752 L 421 -752 L 421 -752 L 420 -752 L 415 -752 L 405 -752 Z" fill="black" fill-opacity="0.25" stroke="black" stroke-width="4"/>
  <rect x="0" y="-468" width="1127" height="294" fill="none" stroke="red" stroke-width="10" /><rect x="405" y="-768" width="246" height="216" fill="none" stroke="red" stroke-width="10" /><rect x="762" y="-709.3" width="389.2" height="161.3" fill="none" stroke="red" stroke-width="10" /><rect x="1075.4" y="-870.7" width="246.2" height="161.4" fill="none" stroke="red" stroke-width="10" /><rect x="1193.3" y="-1032" width="213.7" height="161.3" fill="none" stroke="red" stroke-width="10" />
</svg>
