<svg xmlns="http://www.w3.org/2000/svg"
  viewBox="-50 -509 1226.059 394">
  <rect x="-50" y="-509" width="1226.059" height="394" fill="white"/>
  <path d="M 1111 -404 L 1127 -368 L 1126 -334 L 1126 -250 L 1030 -208 L 931 -166 L 772 -165 L 633 -165 L 458 -201 L 324 -228 L 167 -301 L 0 -379 L 0 -424 L 0 -443 L 23 -450 L 51 -458 L 111 -458 L 144 -458 L 176 -456.5 L 208 -455 L 239 -451 L 299 -444 L 322 -432 L 328 -421 L 328 -422 L 320 -412 L 314 -413 L 307 -414 L 300 -415 L 291 -415 L 278 -415 L 268 -414.5 L 258 -414 L 247 -412 L 236 -413 L 236 -404 L 236 -388 L 266 -359 L 283 -342 L 303 -327.5 L 323 -313 L 348 -301 L 392 -280 L 439.5 -265 L 487 -250 L 542 -237 L 648 -212 L 750 -212 L 847 -212 L 897 -237 L 952 -264 L 952 -319 L 948 -345 L 940 -387 L 854 -431 L 851 -436 L 849.5 -439 L 848 -442 L 845 -446 L 858 -449 L 872 -450.5 L 886 -452 L 903 -454 L 921 -456 L 932.5 -457.5 L 944 -459 L 956 -459 L 995 -459 L 1025.5 -451.5 L 1056 -444 L 1080 -431 L 1088 -427 L 1095.5 -419.5 L 1103 -412 Z" fill="black" fill-opacity="0.25" stroke="black" stroke-width="4"/>
  <rect x="0" y="-459" width="1127" height="294" fill="none" stroke="red" stroke-width="10" />
</svg>
