<svg xmlns="http://www.w3.org/2000/svg"
  viewBox="-50.0 -712.0 1227.0 599.0">
  <rect x="-50.0" y="-712.0" width="1227.0" height="599.0" fill="white"/>
  <path d="M 1111.0 -403.0 L 1127.0 -367.0 L 1127.0 -332.0 L 1127.0 -248.0 L 1030.0 -206.0 L 931.0 -164.0 L 772.0 -163.0 L 633.0 -163.0 L 458.0 -200.0 L 324.0 -227.0 L 167.0 -300.0 L 0.0 -378.0 L 0.0 -423.0 L 0.0 -442.0 L 24.0 -448.0 L 52.0 -456.0 L 111.0 -456.0 L 144.0 -456.0 L 176.0 -454.5 L 208.0 -453.0 L 239.0 -450.0 L 299.0 -443.0 L 322.0 -430.0 L 328.0 -419.0 L 328.0 -420.0 L 320.0 -410.0 L 314.0 -411.0 L 307.0 -412.0 L 300.0 -413.0 L 291.0 -413.0 L 278.0 -413.0 L 268.0 -412.5 L 258.0 -412.0 L 247.0 -410.0 L 236.0 -411.0 L 236.0 -403.0 L 236.0 -387.0 L 266.0 -357.0 L 283.0 -340.0 L 303.0 -325.5 L 323.0 -311.0 L 348.0 -300.0 L 392.0 -279.0 L 439.5 -263.5 L 487.0 -248.0 L 542.0 -235.0 L 648.0 -210.0 L 750.0 -210.0 L 847.0 -210.0 L 897.0 -235.0 L 952.0 -262.0 L 952.0 -317.0 L 948.0 -343.0 L 940.0 -385.0 L 855.0 -429.0 L 852.0 -434.0 L 850.0 -437.0 L 848.0 -440.0 L 845.0 -445.0 L 858.0 -448.0 L 872.0 -449.5 L 886.0 -451.0 L 903.0 -452.0 L 921.0 -454.0 L 932.5 -455.5 L 944.0 -457.0 L 956.0 -457.0 L 995.0 -457.0 L 1025.5 -449.5 L 1056.0 -442.0 L 1080.0 -429.0 L 1088.0 -425.0 L 1095.5 -418.0 L 1103.0 -411.0 Z M 111.0 -657.0 L 163.0 -662.0 L 276.0 -662.0 L 312.0 -662.0 L 351.5 -658.5 L 391.0 -655.0 L 434.0 -645.0 L 461.0 -639.0 L 486.5 -632.5 L 512.0 -626.0 L 538.0 -618.0 L 636.0 -593.0 L 700.0 -546.0 L 763.0 -499.0 L 764.0 -446.0 L 764.0 -416.0 L 749.0 -396.0 L 743.0 -388.0 L 714.0 -389.0 L 673.0 -389.0 L 595.0 -404.0 L 582.0 -406.0 L 564.0 -409.0 L 546.0 -412.0 L 522.0 -418.0 L 547.0 -429.0 L 564.0 -454.0 L 580.0 -478.0 L 575.0 -492.0 L 563.0 -521.0 L 517.5 -546.0 L 472.0 -571.0 L 392.0 -587.0 L 308.0 -604.0 L 222.5 -615.0 L 137.0 -626.0 L 53.0 -639.0 Z" fill="black" fill-opacity="0.25" stroke="black" stroke-width="4.0"/>
  <rect x="0.0" y="-457.0" width="1127.0" height="294.00000000000006" fill="none" stroke="red" stroke-width="10.0" /><rect x="53.0" y="-662.0" width="711.0" height="274.0" fill="none" stroke="red" stroke-width="10.0" />
</svg>
