<svg xmlns="http://www.w3.org/2000/svg"
  viewBox="-50 -930 1345 760.023">
  <rect x="-50" y="-930" width="1345" height="760.023" fill="white"/>
  <path d="M 1229 -459 L 1245 -423 L 1245 -388 L 1245 -304 L 1148 -262 L 1049 -219 L 890 -220 L 751 -220 L 576 -256 L 441 -284 L 285 -356 L 118 -434 L 118 -479 L 118 -497 L 142 -504 L 170 -512 L 229 -512 L 262 -512 L 294 -511 L 326 -510 L 357 -506 L 416 -499 L 440 -487 L 440 -487 L 446 -476 L 438 -467 L 432 -468 L 425 -469 L 418 -470 L 409 -470 L 397 -470 L 386.5 -469 L 376 -468 L 365 -467 L 354 -468 L 354 -459 L 354 -443 L 384 -413 L 401 -396 L 421 -382 L 441 -368 L 467 -356 L 510 -335 L 557.5 -320 L 605 -305 L 660 -292 L 766 -267 L 868 -266 L 965 -266 L 1015 -292 L 1070 -319 L 1070 -373 L 1066 -399 L 1058 -441 L 973 -486 L 970 -490 L 968.5 -493 L 967 -496 L 963 -501 L 976 -504 L 990 -505.5 L 1004 -507 L 1021 -509 L 1038 -511 L 1050 -512 L 1062 -513 L 1074 -513 L 1113 -513 L 1144 -505.5 L 1175 -498 L 1198 -486 L 1206 -482 L 1213.5 -474.5 L 1221 -467 Z M 78 -876 L 86 -879 L 97 -879.5 L 108 -880 L 124 -880 L 172 -880 L 222.5 -866.5 L 273 -853 L 326 -824 L 395 -765 L 385 -765 L 366.5 -767 L 348 -769 L 319 -772 L 291 -775 L 270 -776.5 L 249 -778 L 237 -778 L 211 -778 L 189 -770 L 172 -763 L 172 -747 L 172 -739 L 178 -728 L 185 -714 L 189 -704 L 193 -694 L 199 -692 L 214 -686 L 227.5 -682.5 L 241 -679 L 256 -677 L 302 -666 L 310 -664 L 325.5 -663 L 341 -662 L 365 -662 L 440 -670 L 511 -677.5 L 582 -685 L 650 -692 L 785 -706 L 937 -706 L 1038 -706 L 1185 -611 L 1218 -569 L 1198 -574 L 1139 -584 L 1050 -594 L 968 -604 L 895 -603 L 852 -600 L 830 -599 L 797 -598 L 764 -597 L 721 -594 L 704 -593 L 676.5 -592.5 L 649 -592 L 610 -592 L 580 -592 L 548.5 -593 L 517 -594 L 483 -595 L 416 -598 L 332 -609 L 274 -616 L 219.5 -639 L 165 -662 L 108 -697 L 0 -764 L 0 -822 L 0 -862 Z" fill="black" fill-opacity="0.25" stroke="black" stroke-width="4"/>
  <rect x="118" y="-513" width="1127" height="294" fill="none" stroke="red" stroke-width="10" /><rect x="0" y="-880" width="1218" height="311" fill="none" stroke="red" stroke-width="10" />
</svg>
