<svg xmlns="http://www.w3.org/2000/svg"
  viewBox="-50 -1410 1293 1429">
  <rect x="-50" y="-1410" width="1293" height="1429" fill="white"/>
  <path d="M 110 -524 L 162 -529 L 276 -529 L 312 -529 L 352 -525 L 392 -521 L 435 -511 L 461 -505 L 486.5 -499 L 512 -493 L 574 -477 L 636 -461 L 700 -413 L 763 -367 L 764 -313 L 764 -284 L 748 -263 L 742 -255 L 713 -256 L 672 -256 L 595 -271 L 583 -273 L 564 -276 L 545 -279 L 521 -285 L 545 -297 L 563 -321 L 580 -345 L 571.5 -365.5 L 563 -386 L 517.5 -412 L 472 -438 L 392 -454 L 308 -471 L 222.5 -482 L 137 -493 L 53 -506 Z M 758 -790 L 752 -778 L 746 -759 L 740 -740 L 733 -715 L 871 -709 L 1102 -700 L 1147 -654 L 1005 -654 L 899 -654 L 793 -654 L 713 -656 L 696 -618 L 667 -589 L 656 -575 L 624 -565 L 607 -560 L 592 -558.5 L 577 -557 L 563 -557 L 540 -557 L 532 -560 L 518 -566 L 527 -574 L 552 -610 L 568 -660 L 555 -660 L 355 -669 L 257 -718 L 173 -757 L 71 -882 L 62 -896 L 58 -923 L 45 -997 L 41 -1006 L 73 -1010 L 110 -1015 L 148 -1020 L 163 -1020 L 206 -1020 L 235 -1001 L 242 -996 L 243 -976 L 240 -930 L 240 -916 L 244 -910 L 336 -779 L 547 -737 L 555 -734 L 565.5 -733 L 576 -732 L 588 -731 L 593 -747 L 598 -759 L 603 -771 L 608 -782 L 617 -799 L 646 -800 L 706 -793 L 719 -792 L 732 -791 L 745 -790 Z M 804 -1131 L 798 -1118 L 791.5 -1099.5 L 785 -1081 L 779 -1055 L 916 -1050 L 1147 -1040 L 1193 -995 L 1050 -995 L 944 -995 L 838 -995 L 758 -996 L 741 -958 L 713 -929 L 702 -914 L 669 -906 L 651 -901 L 636.5 -899.5 L 622 -898 L 608 -898 L 585 -898 L 577 -901 L 563 -907 L 572 -915 L 597 -951 L 613 -1001 L 600 -1001 L 400 -1011 L 302 -1059 L 218 -1098 L 116 -1223 L 108 -1237 L 103 -1263 L 90 -1336 L 86 -1346 L 117 -1351 L 155 -1356 L 193 -1360 L 208 -1360 L 251 -1360 L 280 -1342 L 288 -1337 L 288 -1317 L 285 -1271 L 285 -1257 L 289 -1251 L 381 -1120 L 593 -1077 L 601 -1074 L 611 -1073.5 L 621 -1073 L 633 -1071 L 638 -1087 L 643 -1099.5 L 648 -1112 L 654 -1123 L 662 -1140 L 691 -1140 L 752 -1134 L 765 -1133 L 778 -1132 L 791 -1131 Z M 1111 -270 L 1127 -234 L 1126 -200 L 1126 -116 L 1030 -74 L 932 -31 L 772 -31 L 633 -31 L 457 -67 L 323 -95 L 167 -167 L 0 -245 L 0 -290 L 0 -309 L 23 -316 L 50 -324 L 111 -324 L 144 -324 L 175.5 -322.5 L 207 -321 L 239 -317 L 299 -310 L 322 -298 L 322 -298 L 328 -287 L 320 -278 L 314 -279 L 307 -280 L 300 -281 L 290 -281 L 277 -281 L 267.5 -280.5 L 258 -280 L 246 -278 L 235 -279 L 236 -270 L 236 -254 L 266 -225 L 283 -208 L 303.5 -193.5 L 324 -179 L 348 -167 L 392 -146 L 439.5 -131 L 487 -116 L 542 -103 L 648 -78 L 750 -78 L 847 -78 L 897 -103 L 952 -131 L 952 -184 L 948 -211 L 940 -253 L 854 -297 L 851 -302 L 849.5 -305 L 848 -308 L 845 -312 L 858 -315 L 872 -316.5 L 886 -318 L 903 -320 L 921 -322 L 932.5 -323.5 L 944 -325 L 956 -325 L 995 -325 L 1026 -317 L 1057 -309 L 1079 -297 L 1087 -293 L 1095 -285.5 L 1103 -278 Z" fill="black" fill-opacity="0.25" stroke="black" stroke-width="4"/>
  <rect x="53" y="-529" width="711" height="274" fill="none" stroke="red" stroke-width="10" /><rect x="41" y="-1020" width="1106" height="463" fill="none" stroke="red" stroke-width="10" /><rect x="86" y="-1360" width="1107" height="462" fill="none" stroke="red" stroke-width="10" /><rect x="0" y="-325" width="1127" height="294" fill="none" stroke="red" stroke-width="10" />
</svg>
