<svg xmlns="http://www.w3.org/2000/svg"
  viewBox="-50 -1104 1449.571 985">
  <rect x="-50" y="-1104" width="1449.571" height="985" fill="white"/>
  <path d="M 12.071 -450 L 19.071 -455 L 32.071 -457.5 L 45.071 -460 L 60.071 -461 L 75.071 -462 L 89.071 -462.5 L 103.071 -463 L 112.071 -463 L 131.071 -463 L 160.071 -462 L 189.071 -461 L 219.571 -458.5 L 250.071 -456 L 278.571 -451 L 307.071 -446 L 323.071 -437 L 325.071 -435 L 326.071 -432.5 L 327.071 -430 L 328.071 -429 L 329.071 -428 L 329.071 -427 L 321.071 -417 L 320.071 -416 L 314.071 -417 L 306.571 -418.5 L 299.071 -420 L 290.071 -420 L 278.071 -420 L 267.571 -419 L 257.071 -418 L 247.071 -416 L 245.071 -416 L 243.071 -416 L 241.071 -416 L 239.071 -415 L 237.071 -413 L 237.071 -409 L 237.071 -393 L 267.071 -364 L 284.071 -347 L 304.071 -332.5 L 324.071 -318 L 349.071 -306 L 392.071 -285 L 442.571 -269 L 493.071 -253 L 545.571 -241 L 598.071 -229 L 650.571 -223 L 703.071 -217 L 751.071 -217 L 769.071 -217 L 790.571 -218.5 L 812.071 -220 L 834.071 -223.5 L 856.071 -227 L 877.071 -234 L 898.071 -241 L 915.071 -252.5 L 932.071 -264 L 942.071 -281.5 L 952.071 -299 L 951.071 -323 L 948.071 -349 L 940.071 -391 L 854.071 -435 L 851.071 -439 L 849.571 -442.5 L 848.071 -446 L 845.071 -451 L 846.071 -451 L 846.071 -451 L 859.071 -454 L 873.071 -455.5 L 887.071 -457 L 904.071 -459 L 922.071 -461 L 933.571 -462.5 L 945.071 -464 L 957.071 -464 L 997.071 -464 L 1027.071 -456.5 L 1057.071 -449 L 1081.071 -436 L 1089.071 -432 L 1096.571 -424.5 L 1104.071 -417 L 1112.071 -409 L 1128.071 -372 L 1127.071 -339 L 1127.071 -301 L 1108.571 -273.5 L 1090.071 -246 L 1059.571 -227 L 1029.071 -208 L 990.571 -196.5 L 952.071 -185 L 912.571 -179 L 873.071 -173 L 836.071 -171 L 799.071 -169 L 771.071 -169 L 701.071 -169 L 623.071 -178 L 545.071 -187 L 458.071 -205 L 390.071 -219 L 317.571 -244 L 245.071 -269 L 167.071 -305 L 0.071 -382 L 0.071 -429 L -0.929 -443 Z M 713.071 -590 L 708.071 -590 L 706.071 -598 L 706.071 -599 L 707.071 -599 L 708.071 -599 L 711.071 -601 L 713.071 -602 L 709.071 -608 L 705.071 -613 L 711.071 -615 L 758.071 -632 L 798.571 -645 L 839.071 -658 L 873.071 -669.5 L 907.071 -681 L 934.071 -691 L 961.071 -701 L 982.071 -712 L 1063.071 -754 L 1107.071 -826 L 1114.071 -838 L 1121.571 -855.5 L 1129.071 -873 L 1137.571 -896.5 L 1146.071 -920 L 1157.571 -949 L 1169.071 -978 L 1185.071 -1013 L 1186.071 -1016 L 1189.571 -1017.5 L 1193.071 -1019 L 1197.571 -1019.5 L 1202.071 -1020 L 1206.571 -1021 L 1211.071 -1022 L 1215.071 -1024 L 1227.071 -1031 L 1235.071 -1035.5 L 1243.071 -1040 L 1246.071 -1041 L 1259.071 -1047 L 1267.571 -1050 L 1276.071 -1053 L 1279.071 -1054 L 1292.071 -1054 L 1297.071 -1054 L 1302.571 -1053.5 L 1308.071 -1053 L 1313.071 -1051 L 1317.071 -1050 L 1321.571 -1049.5 L 1326.071 -1049 L 1331.071 -1048 L 1336.071 -1047 L 1340.571 -1045.5 L 1345.071 -1044 L 1349.071 -1040 L 1350.071 -1039 L 1349.071 -1037.5 L 1348.071 -1036 L 1345.571 -1034.5 L 1343.071 -1033 L 1340.071 -1032 L 1337.071 -1031 L 1335.071 -1029 L 1298.071 -1005 L 1294.071 -996 L 1286.071 -962 L 1279.071 -938 L 1272.071 -914 L 1265.071 -895 L 1263.071 -889 L 1258.071 -880.5 L 1253.071 -872 L 1247.571 -863 L 1242.071 -854 L 1236.071 -845.5 L 1230.071 -837 L 1227.071 -831 L 1228.071 -831 L 1229.071 -832 L 1230.071 -832 L 1226.071 -827 L 1224.071 -825 L 1223.071 -825 L 1223.071 -825 L 1222.071 -824 L 1222.071 -824 L 1227.071 -831 L 1223.071 -829 L 1213.071 -822.5 L 1203.071 -816 L 1189.071 -805.5 L 1175.071 -795 L 1158.571 -782.5 L 1142.071 -770 L 1126.071 -757 L 1095.071 -733 L 1074.071 -716 L 1063.071 -707 L 1055.571 -700 L 1048.071 -693 L 1044.071 -689 L 1042.071 -686 L 1042.071 -686 L 1048.071 -688 L 1052.571 -690.5 L 1057.071 -693 L 1061.071 -695 L 1066.071 -698 L 1067.071 -698 L 1066.071 -698 L 1064.071 -696 L 1062.071 -695 L 1057.071 -692 L 1046.071 -686 L 1043.071 -685 L 1042.071 -685 L 1042.071 -686 L 1030.071 -680 L 1014.071 -672.5 L 998.071 -665 L 981.071 -658.5 L 964.071 -652 L 947.571 -646.5 L 931.071 -641 L 918.071 -638 L 909.071 -637 L 895.571 -636.5 L 882.071 -636 L 870.071 -636 L 858.071 -636 L 852.571 -635 L 847.071 -634 L 854.071 -631 L 862.071 -628 L 870.571 -627 L 879.071 -626 L 888.071 -626 L 900.071 -626 L 912.071 -627 L 924.071 -628 L 937.071 -628 L 940.071 -628 L 943.071 -628 L 946.071 -628 L 949.071 -627 L 994.071 -624 L 1029.071 -598 L 1048.071 -584 L 1047.071 -579 L 1050.071 -571 L 1037.071 -571 L 1024.071 -571 L 1012.571 -572.5 L 1001.071 -574 L 988.071 -576 L 971.071 -579 L 948.571 -581.5 L 926.071 -584 L 899.071 -588 L 873.071 -592 L 850.071 -594 L 827.071 -596 L 805.071 -596 L 798.071 -597 L 791.571 -597 L 785.071 -597 L 779.071 -597 L 767.071 -597 L 756.071 -596.5 L 745.071 -596 L 733.071 -595 L 730.071 -594 L 725.571 -592 L 721.071 -590 Z" fill="black" fill-opacity="0.25" stroke="black" stroke-width="4"/>
  <rect x="-1" y="-464" width="1129" height="295" fill="none" stroke="red" stroke-width="10" /><rect x="705.1" y="-732" width="388.7" height="161" fill="none" stroke="red" stroke-width="10" /><rect x="1020.6" y="-893" width="243.8" height="161" fill="none" stroke="red" stroke-width="10" /><rect x="1136.3" y="-1054" width="213.8" height="161" fill="none" stroke="red" stroke-width="10" />
</svg>
