<svg xmlns="http://www.w3.org/2000/svg"
  viewBox="-50 -1104 1226 986">
  <rect x="-50" y="-1104" width="1226" height="986" fill="white"/>
  <path d="M 0 -428 L 0 -448 L 23 -454 L 48 -462 L 102 -462 L 123 -462 L 153 -461 L 183 -460 L 214.5 -457 L 246 -454 L 274.5 -450 L 303 -446 L 321 -436 L 323 -434 L 324 -432 L 325 -430 L 326 -428 L 327 -426 L 328 -426 L 320 -416 L 314 -416 L 306.5 -418 L 299 -420 L 290 -420 L 278 -420 L 267.5 -419 L 257 -418 L 247 -416 L 243 -416 L 239 -415 L 235 -414 L 235 -408 L 235 -392 L 265 -362 L 290 -338 L 326.5 -317 L 363 -296 L 406 -280 L 449 -264 L 495.5 -252 L 542 -240 L 587.5 -232 L 633 -224 L 674.5 -220 L 716 -216 L 750 -216 L 768 -216 L 789.5 -217 L 811 -218 L 833.5 -222 L 856 -226 L 877 -233 L 898 -240 L 914.5 -252 L 931 -264 L 941 -281 L 951 -298 L 951 -322 L 948 -348 L 940 -390 L 854 -434 L 851 -438 L 849.5 -442 L 848 -446 L 845 -450 L 858 -454 L 871.5 -455 L 885 -456 L 903 -458 L 920 -460 L 931.5 -461 L 943 -462 L 956 -462 L 996 -462 L 1026 -455 L 1056 -448 L 1079 -434 L 1087 -430 L 1095 -423 L 1103 -416 L 1110 -408 L 1126 -370 L 1126 -338 L 1126 -300 L 1107.5 -272 L 1089 -244 L 1058.5 -226 L 1028 -208 L 989.5 -196 L 951 -184 L 912 -178 L 873 -172 L 836 -170 L 799 -168 L 772 -168 L 702 -168 L 624 -177 L 546 -186 L 458 -204 L 390 -218 L 318 -243 L 246 -268 L 167 -304 L 0 -382 Z M 25 -592 L 20 -592 L 17 -598 L 17 -600 L 18 -600 L 19 -600 L 23 -602 L 25 -602 L 21 -608 L 17 -614 L 23 -616 L 70 -632 L 110 -646 L 150 -660 L 184 -671 L 218 -682 L 245.5 -692 L 273 -702 L 293 -712 L 373 -754 L 418 -826 L 425 -838 L 432.5 -856 L 440 -874 L 449 -897 L 458 -920 L 469.5 -950 L 481 -980 L 496 -1014 L 497 -1018 L 501 -1019 L 505 -1020 L 509 -1021 L 513 -1022 L 517.5 -1022 L 522 -1022 L 526 -1026 L 538 -1032 L 546 -1036 L 554 -1040 L 557 -1042 L 569 -1048 L 578 -1051 L 587 -1054 L 590 -1054 L 603 -1054 L 608 -1054 L 613.5 -1054 L 619 -1054 L 624 -1052 L 628 -1052 L 632.5 -1051 L 637 -1050 L 642 -1049 L 647 -1048 L 651.5 -1046 L 656 -1044 L 660 -1040 L 661 -1040 L 660 -1038 L 659 -1036 L 656.5 -1035 L 654 -1034 L 651 -1033 L 648 -1032 L 646 -1030 L 609 -1006 L 606 -998 L 598 -964 L 590.5 -939 L 583 -914 L 576 -896 L 574 -890 L 569 -881 L 564 -872 L 558 -863 L 552 -854 L 546.5 -846 L 541 -838 L 537 -832 L 537 -832 L 539 -832 L 541 -832 L 537 -828 L 534 -826 L 533 -824 L 533 -824 L 537 -832 L 533 -830 L 523 -823 L 513 -816 L 499 -806 L 485 -796 L 469 -784 L 453 -772 L 437 -758 L 421 -746 L 408.5 -736 L 396 -726 L 385 -716 L 374 -708 L 367 -701 L 360 -694 L 356 -690 L 356 -690 L 354 -688 L 354 -688 L 353 -686 L 359 -688 L 363.5 -691 L 368 -694 L 372 -696 L 377 -698 L 378 -698 L 378 -698 L 376 -698 L 375 -696 L 371.5 -694 L 368 -692 L 364.5 -690 L 361 -688 L 358.5 -687 L 356 -686 L 354 -686 L 353 -686 L 353 -686 L 341 -680 L 325 -673 L 309 -666 L 292.5 -659 L 276 -652 L 259 -647 L 242 -642 L 229 -640 L 220 -638 L 206.5 -638 L 193 -638 L 181.5 -637 L 170 -636 L 164 -635 L 158 -634 L 165 -632 L 173 -628 L 182 -627 L 191 -626 L 199 -626 L 211 -626 L 223 -627 L 235 -628 L 248 -628 L 251 -628 L 254 -628 L 257 -628 L 260 -628 L 305 -626 L 340 -598 L 359 -584 L 359 -580 L 362 -572 L 348 -572 L 335 -572 L 323.5 -573 L 312 -574 L 299 -576 L 282 -580 L 259.5 -583 L 237 -586 L 210 -590 L 184 -594 L 161 -595 L 138 -596 L 116 -596 L 112 -598 L 108 -598 L 104 -598 L 100 -598 L 86 -598 L 72.5 -597 L 59 -596 L 45 -596 L 42 -594 L 37.5 -593 L 33 -592 Z" fill="black" fill-opacity="0.25" stroke="black" stroke-width="4"/>
  <rect x="0" y="-462" width="1126" height="294" fill="none" stroke="red" stroke-width="10" /><rect x="17" y="-732.7" width="387.3" height="160.7" fill="none" stroke="red" stroke-width="10" /><rect x="332.4" y="-893.3" width="242.7" height="160.6" fill="none" stroke="red" stroke-width="10" /><rect x="447.6" y="-1054" width="213.4" height="160.7" fill="none" stroke="red" stroke-width="10" />
</svg>
