<svg xmlns="http://www.w3.org/2000/svg"
  viewBox="-50.0 -509.0 1226.0588235294117 394.0">
  <rect x="-50.0" y="-509.0" width="1226.0588235294117" height="394.0" fill="white"/>
  <path d="M 1111.0 -404.0 L 1127.0 -368.0 L 1126.0 -334.0 L 1126.0 -250.0 L 1030.0 -208.0 L 931.0 -166.0 L 772.0 -165.0 L 633.0 -165.0 L 458.0 -201.0 L 324.0 -228.0 L 167.0 -301.0 L 0.0 -379.0 L 0.0 -424.0 L 0.0 -443.0 L 23.0 -450.0 L 51.0 -458.0 L 111.0 -458.0 L 144.0 -458.0 L 176.0 -456.5 L 208.0 -455.0 L 239.0 -451.0 L 299.0 -444.0 L 322.0 -432.0 L 328.0 -421.0 L 328.0 -422.0 L 320.0 -412.0 L 314.0 -413.0 L 307.0 -414.0 L 300.0 -415.0 L 291.0 -415.0 L 278.0 -415.0 L 268.0 -414.5 L 258.0 -414.0 L 247.0 -412.0 L 236.0 -413.0 L 236.0 -404.0 L 236.0 -388.0 L 266.0 -359.0 L 283.0 -342.0 L 303.0 -327.5 L 323.0 -313.0 L 348.0 -301.0 L 392.0 -280.0 L 439.5 -265.0 L 487.0 -250.0 L 542.0 -237.0 L 648.0 -212.0 L 750.0 -212.0 L 847.0 -212.0 L 897.0 -237.0 L 952.0 -264.0 L 952.0 -319.0 L 948.0 -345.0 L 940.0 -387.0 L 854.0 -431.0 L 851.0 -436.0 L 849.5 -439.0 L 848.0 -442.0 L 845.0 -446.0 L 858.0 -449.0 L 872.0 -450.5 L 886.0 -452.0 L 903.0 -454.0 L 921.0 -456.0 L 932.5 -457.5 L 944.0 -459.0 L 956.0 -459.0 L 995.0 -459.0 L 1025.5 -451.5 L 1056.0 -444.0 L 1080.0 -431.0 L 1088.0 -427.0 L 1095.5 -419.5 L 1103.0 -412.0 Z" fill="black" fill-opacity="0.25" stroke="black" stroke-width="4.0"/>
  <rect x="0.0" y="-459.0" width="1127.0" height="294.00000000000006" fill="none" stroke="red" stroke-width="10.0" />
</svg>
