<svg xmlns="http://www.w3.org/2000/svg"
  viewBox="-50 -1372 1309 1247">
  <rect x="-50" y="-1372" width="1309" height="1247" fill="white"/>
  <path d="M 103 -1308 L 119 -1310 L 136 -1312.5 L 153 -1315 L 172 -1317 L 191 -1319 L 204 -1320.5 L 217 -1322 L 225 -1322 L 268 -1322 L 297 -1303 L 304 -1298 L 305 -1278 L 302 -1233 L 302 -1220 L 306 -1213 L 399 -1081 L 609 -1040 L 617 -1037 L 627.5 -1036 L 638 -1035 L 650 -1033 L 655 -1049 L 660 -1061 L 665 -1073 L 670 -1085 L 678 -1102 L 708 -1102 L 769 -1096 L 782 -1095 L 795 -1093.5 L 808 -1092 L 820 -1092 L 814 -1080 L 808 -1061.5 L 802 -1043 L 795 -1018 L 933 -1011 L 1164 -1001 L 1209 -957 L 1036 -957 L 957 -957 L 893 -957 L 829 -957 L 775 -958 L 758 -920 L 730 -891 L 722 -881 L 708 -875 L 694 -869 L 678 -865.5 L 662 -862 L 645.5 -861 L 629 -860 L 618 -860 L 601 -860 L 594 -863 L 580 -869 L 589 -877 L 602 -895 L 612 -916.5 L 622 -938 L 630 -963 L 617 -963 L 417 -973 L 319 -1021 L 235 -1060 L 133 -1185 L 125 -1198 L 121 -1225 L 108 -1298 Z M 0 -749 L 0 -777 L 13.5 -797 L 27 -817 L 49 -830.5 L 71 -844 L 98.5 -852 L 126 -860 L 155 -864 L 184 -868 L 210.5 -869.5 L 237 -871 L 256 -871 L 308 -871 L 362.5 -866 L 417 -861 L 477 -852 L 537 -843 L 595 -828 L 653 -814 L 714 -796 L 773 -779 L 839 -746 L 905 -713 L 980 -665 L 1126 -569 L 1125 -527 L 1125 -508 L 1089 -508 L 1042 -508 L 992 -515 L 942 -522 L 896 -532 L 908 -636 L 731 -719 L 564 -799 L 392 -799 L 375 -799 L 354.5 -797.5 L 334 -796 L 312.5 -792 L 291 -788 L 270.5 -781 L 250 -774 L 233.5 -762.5 L 217 -751 L 206.5 -734.5 L 196 -718 L 195 -696 L 194 -665 L 241 -629 L 299 -584 L 304 -582 L 165 -583 L 95 -611 L 48 -631 L 17 -680 L 0 -720 Z M 97 -460 L 110 -464 L 129.5 -466 L 149 -468 L 176 -468 L 197 -468 L 227 -467.5 L 257 -467 L 288.5 -464.5 L 320 -462 L 348.5 -457 L 377 -452 L 396 -443 L 398 -441 L 398.5 -438.5 L 399 -436 L 400 -435 L 401 -433 L 402 -432 L 394 -422 L 388 -423 L 381 -424.5 L 374 -426 L 364 -426 L 352 -426 L 342 -425 L 332 -424 L 321 -422 L 317 -422 L 313.5 -421 L 310 -420 L 310 -415 L 310 -399 L 339 -369 L 364 -344 L 401 -323.5 L 438 -303 L 480.5 -286.5 L 523 -270 L 569.5 -258 L 616 -246 L 662 -238 L 708 -230 L 749.5 -226 L 791 -222 L 824 -222 L 842 -222 L 863.5 -223.5 L 885 -225 L 907.5 -228.5 L 930 -232 L 951 -239 L 972 -246 L 988.5 -258 L 1005 -270 L 1015 -287.5 L 1025 -305 L 1025 -329 L 1022 -355 L 1014 -397 L 928 -441 L 925 -445 L 923.5 -448.5 L 922 -452 L 919 -457 L 932 -460 L 945.5 -461 L 959 -462 L 977 -465 L 994 -467 L 1006 -468 L 1018 -469 L 1030 -469 L 1070 -469 L 1100 -461.5 L 1130 -454 L 1153 -441 L 1161 -437 L 1169 -429.5 L 1177 -422 L 1185 -415 L 1201 -378 L 1200 -344 L 1200 -306 L 1181.5 -279 L 1163 -252 L 1133 -233 L 1103 -214 L 1064 -202.5 L 1025 -191 L 986 -185 L 947 -179 L 910 -177 L 873 -175 L 846 -175 L 776 -175 L 698 -184 L 620 -193 L 532 -212 L 464 -226 L 391.5 -250.5 L 319 -275 L 241 -312 L 74 -389 L 74 -435 L 74 -454 Z M 324 -666 L 360 -668 L 395.5 -668.5 L 431 -669 L 467 -669 L 494 -669 L 525 -665.5 L 556 -662 L 591 -655 L 613 -651 L 634 -644.5 L 655 -638 L 675 -633 L 690 -630 L 710 -623.5 L 730 -617 L 751 -608 L 772 -599 L 792.5 -587 L 813 -575 L 828.5 -561 L 844 -547 L 853.5 -530 L 863 -513 L 863 -494 L 862 -472 L 849 -453 L 844 -447 L 821 -447 L 804 -447 L 780 -450 L 756 -453 L 722 -460 L 711 -462 L 696.5 -464.5 L 682 -467 L 663 -472 L 673 -477 L 681.5 -484 L 690 -491 L 697 -500 L 711 -519 L 707 -531 L 697 -554 L 659 -575 L 621 -596 L 555 -608 L 484 -621 L 416 -630 L 348 -639 L 277 -650 L 290 -653 L 301 -658 L 312 -663 Z" fill="black" fill-opacity="0.25" stroke="black" stroke-width="4"/>
  <rect x="103" y="-1322" width="1106" height="462" fill="none" stroke="red" stroke-width="10" /><rect x="0" y="-871" width="1126" height="363" fill="none" stroke="red" stroke-width="10" /><rect x="74" y="-469" width="1127" height="294" fill="none" stroke="red" stroke-width="10" /><rect x="277" y="-669" width="586" height="222" fill="none" stroke="red" stroke-width="10" />
</svg>
