<svg xmlns="http://www.w3.org/2000/svg"
  viewBox="-50.0 -1104.0 1226.0 986.0">
  <rect x="-50.0" y="-1104.0" width="1226.0" height="986.0" fill="white"/>
  <path d="M 0.0 -428.0 L 0.0 -448.0 L 23.0 -454.0 L 48.0 -462.0 L 102.0 -462.0 L 123.0 -462.0 L 153.0 -461.0 L 183.0 -460.0 L 214.5 -457.0 L 246.0 -454.0 L 274.5 -450.0 L 303.0 -446.0 L 321.0 -436.0 L 323.0 -434.0 L 324.0 -432.0 L 325.0 -430.0 L 326.0 -428.0 L 327.0 -426.0 L 328.0 -426.0 L 320.0 -416.0 L 314.0 -416.0 L 306.5 -418.0 L 299.0 -420.0 L 290.0 -420.0 L 278.0 -420.0 L 267.5 -419.0 L 257.0 -418.0 L 247.0 -416.0 L 243.0 -416.0 L 239.0 -415.0 L 235.0 -414.0 L 235.0 -408.0 L 235.0 -392.0 L 265.0 -362.0 L 290.0 -338.0 L 326.5 -317.0 L 363.0 -296.0 L 406.0 -280.0 L 449.0 -264.0 L 495.5 -252.0 L 542.0 -240.0 L 587.5 -232.0 L 633.0 -224.0 L 674.5 -220.0 L 716.0 -216.0 L 750.0 -216.0 L 768.0 -216.0 L 789.5 -217.0 L 811.0 -218.0 L 833.5 -222.0 L 856.0 -226.0 L 877.0 -233.0 L 898.0 -240.0 L 914.5 -252.0 L 931.0 -264.0 L 941.0 -281.0 L 951.0 -298.0 L 951.0 -322.0 L 948.0 -348.0 L 940.0 -390.0 L 854.0 -434.0 L 851.0 -438.0 L 849.5 -442.0 L 848.0 -446.0 L 845.0 -450.0 L 858.0 -454.0 L 871.5 -455.0 L 885.0 -456.0 L 903.0 -458.0 L 920.0 -460.0 L 931.5 -461.0 L 943.0 -462.0 L 956.0 -462.0 L 996.0 -462.0 L 1026.0 -455.0 L 1056.0 -448.0 L 1079.0 -434.0 L 1087.0 -430.0 L 1095.0 -423.0 L 1103.0 -416.0 L 1110.0 -408.0 L 1126.0 -370.0 L 1126.0 -338.0 L 1126.0 -300.0 L 1107.5 -272.0 L 1089.0 -244.0 L 1058.5 -226.0 L 1028.0 -208.0 L 989.5 -196.0 L 951.0 -184.0 L 912.0 -178.0 L 873.0 -172.0 L 836.0 -170.0 L 799.0 -168.0 L 772.0 -168.0 L 702.0 -168.0 L 624.0 -177.0 L 546.0 -186.0 L 458.0 -204.0 L 390.0 -218.0 L 318.0 -243.0 L 246.0 -268.0 L 167.0 -304.0 L 0.0 -382.0 Z M 25.0 -592.0 L 20.0 -592.0 L 17.0 -598.0 L 17.0 -600.0 L 18.0 -600.0 L 19.0 -600.0 L 23.0 -602.0 L 25.0 -602.0 L 21.0 -608.0 L 17.0 -614.0 L 23.0 -616.0 L 70.0 -632.0 L 110.0 -646.0 L 150.0 -660.0 L 184.0 -671.0 L 218.0 -682.0 L 245.5 -692.0 L 273.0 -702.0 L 293.0 -712.0 L 373.0 -754.0 L 418.0 -826.0 L 425.0 -838.0 L 432.5 -856.0 L 440.0 -874.0 L 449.0 -897.0 L 458.0 -920.0 L 469.5 -950.0 L 481.0 -980.0 L 496.0 -1014.0 L 497.0 -1018.0 L 501.0 -1019.0 L 505.0 -1020.0 L 509.0 -1021.0 L 513.0 -1022.0 L 517.5 -1022.0 L 522.0 -1022.0 L 526.0 -1026.0 L 538.0 -1032.0 L 546.0 -1036.0 L 554.0 -1040.0 L 557.0 -1042.0 L 569.0 -1048.0 L 578.0 -1051.0 L 587.0 -1054.0 L 590.0 -1054.0 L 603.0 -1054.0 L 608.0 -1054.0 L 613.5 -1054.0 L 619.0 -1054.0 L 624.0 -1052.0 L 628.0 -1052.0 L 632.5 -1051.0 L 637.0 -1050.0 L 642.0 -1049.0 L 647.0 -1048.0 L 651.5 -1046.0 L 656.0 -1044.0 L 660.0 -1040.0 L 661.0 -1040.0 L 660.0 -1038.0 L 659.0 -1036.0 L 656.5 -1035.0 L 654.0 -1034.0 L 651.0 -1033.0 L 648.0 -1032.0 L 646.0 -1030.0 L 609.0 -1006.0 L 606.0 -998.0 L 598.0 -964.0 L 590.5 -939.0 L 583.0 -914.0 L 576.0 -896.0 L 574.0 -890.0 L 569.0 -881.0 L 564.0 -872.0 L 558.0 -863.0 L 552.0 -854.0 L 546.5 -846.0 L 541.0 -838.0 L 537.0 -832.0 L 537.0 -832.0 L 539.0 -832.0 L 541.0 -832.0 L 537.0 -828.0 L 534.0 -826.0 L 533.0 -824.0 L 533.0 -824.0 L 537.0 -832.0 L 533.0 -830.0 L 523.0 -823.0 L 513.0 -816.0 L 499.0 -806.0 L 485.0 -796.0 L 469.0 -784.0 L 453.0 -772.0 L 437.0 -758.0 L 421.0 -746.0 L 408.5 -736.0 L 396.0 -726.0 L 385.0 -716.0 L 374.0 -708.0 L 367.0 -701.0 L 360.0 -694.0 L 356.0 -690.0 L 356.0 -690.0 L 354.0 -688.0 L 354.0 -688.0 L 353.0 -686.0 L 359.0 -688.0 L 363.5 -691.0 L 368.0 -694.0 L 372.0 -696.0 L 377.0 -698.0 L 378.0 -698.0 L 378.0 -698.0 L 376.0 -698.0 L 375.0 -696.0 L 371.5 -694.0 L 368.0 -692.0 L 364.5 -690.0 L 361.0 -688.0 L 358.5 -687.0 L 356.0 -686.0 L 354.0 -686.0 L 353.0 -686.0 L 353.0 -686.0 L 341.0 -680.0 L 325.0 -673.0 L 309.0 -666.0 L 292.5 -659.0 L 276.0 -652.0 L 259.0 -647.0 L 242.0 -642.0 L 229.0 -640.0 L 220.0 -638.0 L 206.5 -638.0 L 193.0 -638.0 L 181.5 -637.0 L 170.0 -636.0 L 164.0 -635.0 L 158.0 -634.0 L 165.0 -632.0 L 173.0 -628.0 L 182.0 -627.0 L 191.0 -626.0 L 199.0 -626.0 L 211.0 -626.0 L 223.0 -627.0 L 235.0 -628.0 L 248.0 -628.0 L 251.0 -628.0 L 254.0 -628.0 L 257.0 -628.0 L 260.0 -628.0 L 305.0 -626.0 L 340.0 -598.0 L 359.0 -584.0 L 359.0 -580.0 L 362.0 -572.0 L 348.0 -572.0 L 335.0 -572.0 L 323.5 -573.0 L 312.0 -574.0 L 299.0 -576.0 L 282.0 -580.0 L 259.5 -583.0 L 237.0 -586.0 L 210.0 -590.0 L 184.0 -594.0 L 161.0 -595.0 L 138.0 -596.0 L 116.0 -596.0 L 112.0 -598.0 L 108.0 -598.0 L 104.0 -598.0 L 100.0 -598.0 L 86.0 -598.0 L 72.5 -597.0 L 59.0 -596.0 L 45.0 -596.0 L 42.0 -594.0 L 37.5 -593.0 L 33.0 -592.0 Z" fill="black" fill-opacity="0.25" stroke="black" stroke-width="4.0"/>
  <rect x="0.0" y="-462.0" width="1126.0" height="294.00000000000006" fill="none" stroke="red" stroke-width="10.0" /><rect x="17.0" y="-1054.0" width="644.0" height="482.0000000000001" fill="none" stroke="red" stroke-width="10.0" />
</svg>
