<svg xmlns="http://www.w3.org/2000/svg"
  viewBox="-50.0 -1330.0 1226.0588235294117 1208.0">
  <rect x="-50.0" y="-1330.0" width="1226.0588235294117" height="1208.0" fill="white"/>
  <path d="M 0.0 -432.0 L 0.0 -451.0 L 23.0 -457.0 L 48.0 -465.0 L 102.0 -464.0 L 123.0 -464.0 L 153.0 -463.5 L 183.0 -463.0 L 214.5 -460.5 L 246.0 -458.0 L 274.5 -453.0 L 303.0 -448.0 L 322.0 -440.0 L 324.0 -438.0 L 324.5 -435.5 L 325.0 -433.0 L 326.0 -431.0 L 327.0 -429.0 L 328.0 -428.0 L 320.0 -419.0 L 314.0 -420.0 L 307.0 -421.0 L 300.0 -422.0 L 290.0 -422.0 L 278.0 -422.0 L 268.0 -421.5 L 258.0 -421.0 L 247.0 -419.0 L 243.0 -419.0 L 239.5 -418.0 L 236.0 -417.0 L 236.0 -411.0 L 236.0 -395.0 L 265.0 -366.0 L 290.0 -341.0 L 326.5 -320.0 L 363.0 -299.0 L 406.0 -283.0 L 449.0 -267.0 L 495.5 -255.0 L 542.0 -243.0 L 587.5 -235.0 L 633.0 -227.0 L 675.0 -223.0 L 717.0 -219.0 L 750.0 -219.0 L 768.0 -219.0 L 789.5 -220.0 L 811.0 -221.0 L 833.5 -225.0 L 856.0 -229.0 L 877.0 -236.0 L 898.0 -243.0 L 914.5 -255.0 L 931.0 -267.0 L 941.0 -284.0 L 951.0 -301.0 L 951.0 -325.0 L 948.0 -352.0 L 940.0 -394.0 L 854.0 -438.0 L 851.0 -442.0 L 849.5 -445.5 L 848.0 -449.0 L 845.0 -454.0 L 858.0 -457.0 L 872.0 -458.0 L 886.0 -459.0 L 903.0 -462.0 L 920.0 -464.0 L 932.0 -465.0 L 944.0 -466.0 L 956.0 -466.0 L 996.0 -466.0 L 1026.0 -458.5 L 1056.0 -451.0 L 1079.0 -438.0 L 1087.0 -434.0 L 1095.0 -426.5 L 1103.0 -419.0 L 1111.0 -411.0 L 1127.0 -374.0 L 1126.0 -341.0 L 1126.0 -303.0 L 1107.5 -275.5 L 1089.0 -248.0 L 1059.0 -229.5 L 1029.0 -211.0 L 990.0 -199.5 L 951.0 -188.0 L 912.0 -182.0 L 873.0 -176.0 L 836.0 -174.0 L 799.0 -172.0 L 772.0 -172.0 L 701.0 -172.0 L 623.5 -181.0 L 546.0 -190.0 L 458.0 -208.0 L 390.0 -222.0 L 318.0 -247.0 L 246.0 -272.0 L 167.0 -308.0 L 0.0 -386.0 Z M 287.0 -824.0 L 287.0 -825.0 L 289.0 -825.0 L 290.0 -825.0 L 293.0 -827.0 L 295.0 -828.0 L 291.0 -834.0 L 287.0 -839.0 L 293.0 -841.0 L 339.0 -858.0 L 379.5 -871.0 L 420.0 -884.0 L 454.0 -895.5 L 488.0 -907.0 L 515.5 -917.0 L 543.0 -927.0 L 564.0 -938.0 L 644.0 -979.0 L 689.0 -1052.0 L 696.0 -1064.0 L 703.5 -1081.5 L 711.0 -1099.0 L 719.5 -1122.5 L 728.0 -1146.0 L 739.5 -1175.0 L 751.0 -1204.0 L 767.0 -1239.0 L 768.0 -1242.0 L 771.5 -1243.5 L 775.0 -1245.0 L 779.0 -1245.5 L 783.0 -1246.0 L 788.0 -1247.0 L 793.0 -1248.0 L 797.0 -1250.0 L 809.0 -1257.0 L 816.5 -1261.0 L 824.0 -1265.0 L 828.0 -1267.0 L 840.0 -1273.0 L 849.0 -1275.5 L 858.0 -1278.0 L 861.0 -1280.0 L 874.0 -1280.0 L 879.0 -1280.0 L 884.0 -1279.5 L 889.0 -1279.0 L 895.0 -1277.0 L 899.0 -1276.0 L 903.5 -1275.5 L 908.0 -1275.0 L 913.0 -1274.0 L 918.0 -1273.0 L 922.5 -1271.5 L 927.0 -1270.0 L 931.0 -1266.0 L 932.0 -1265.0 L 931.0 -1263.0 L 930.0 -1261.0 L 927.5 -1260.0 L 925.0 -1259.0 L 922.0 -1257.5 L 919.0 -1256.0 L 917.0 -1255.0 L 880.0 -1229.0 L 876.0 -1222.0 L 868.0 -1188.0 L 861.0 -1164.0 L 854.0 -1140.0 L 846.0 -1121.0 L 844.0 -1115.0 L 839.5 -1106.5 L 835.0 -1098.0 L 829.0 -1089.0 L 823.0 -1080.0 L 817.5 -1071.5 L 812.0 -1063.0 L 808.0 -1057.0 L 808.0 -1057.0 L 810.0 -1058.0 L 812.0 -1058.0 L 807.0 -1053.0 L 803.0 -1049.0 L 803.0 -1049.0 L 808.0 -1057.0 L 804.0 -1055.0 L 793.5 -1048.5 L 783.0 -1042.0 L 769.5 -1031.5 L 756.0 -1021.0 L 740.0 -1008.5 L 724.0 -996.0 L 708.0 -983.0 L 692.0 -971.0 L 679.5 -960.5 L 667.0 -950.0 L 656.0 -942.0 L 645.0 -933.0 L 637.5 -926.0 L 630.0 -919.0 L 626.0 -915.0 L 626.0 -914.0 L 624.0 -913.0 L 624.0 -913.0 L 624.0 -912.0 L 630.0 -914.0 L 634.5 -916.5 L 639.0 -919.0 L 643.0 -921.0 L 648.0 -924.0 L 649.0 -923.0 L 649.0 -923.0 L 646.0 -922.0 L 645.0 -921.0 L 641.5 -919.0 L 638.0 -917.0 L 635.0 -915.5 L 632.0 -914.0 L 629.0 -912.5 L 626.0 -911.0 L 625.0 -911.0 L 624.0 -911.0 L 624.0 -912.0 L 612.0 -906.0 L 596.0 -898.5 L 580.0 -891.0 L 563.0 -884.5 L 546.0 -878.0 L 529.5 -872.5 L 513.0 -867.0 L 500.0 -864.0 L 491.0 -863.0 L 477.0 -862.5 L 463.0 -862.0 L 451.5 -861.5 L 440.0 -861.0 L 434.5 -860.0 L 429.0 -859.0 L 436.0 -857.0 L 444.0 -854.0 L 452.5 -853.0 L 461.0 -852.0 L 469.0 -852.0 L 481.0 -852.0 L 493.5 -853.0 L 506.0 -854.0 L 518.0 -854.0 L 543.0 -854.0 L 566.5 -846.5 L 590.0 -839.0 L 611.0 -824.0 L 629.0 -810.0 L 629.0 -805.0 L 632.0 -797.0 L 618.0 -797.0 L 605.0 -797.0 L 594.0 -798.0 L 583.0 -799.0 L 570.0 -802.0 L 552.0 -805.0 L 529.5 -807.5 L 507.0 -810.0 L 481.0 -814.0 L 454.0 -818.0 L 431.5 -820.0 L 409.0 -822.0 L 387.0 -822.0 L 383.0 -823.0 L 379.0 -823.0 L 375.0 -823.0 L 371.0 -823.0 L 357.0 -823.0 L 343.0 -822.5 L 329.0 -822.0 L 315.0 -820.0 L 312.0 -819.0 L 307.5 -817.5 L 303.0 -816.0 L 295.0 -816.0 L 290.0 -816.0 Z M 424.0 -705.0 L 424.0 -710.0 L 437.0 -710.0 L 441.0 -710.0 L 448.0 -710.0 L 458.5 -709.0 L 469.0 -708.0 L 483.0 -705.0 L 498.0 -703.0 L 506.5 -701.5 L 515.0 -700.0 L 522.0 -699.0 L 585.0 -689.0 L 603.0 -602.0 L 614.0 -551.0 L 624.0 -535.0 L 629.0 -526.0 L 650.0 -521.0 L 668.0 -517.0 L 667.0 -516.0 L 667.0 -513.0 L 666.5 -513.5 L 666.0 -514.0 L 663.0 -508.0 L 656.0 -494.0 L 617.0 -494.0 L 598.0 -494.0 L 576.5 -499.5 L 555.0 -505.0 L 529.0 -515.0 L 478.0 -534.0 L 460.0 -648.0 L 453.0 -695.0 L 440.0 -695.0 L 440.0 -695.0 L 439.0 -694.5 L 438.0 -694.0 L 438.0 -694.0 L 437.0 -694.0 L 432.0 -694.0 L 423.0 -694.0 Z" fill="black" fill-opacity="0.25" stroke="black" stroke-width="4.0"/>
  <rect x="0.0" y="-466.0" width="1127.0" height="294.00000000000006" fill="none" stroke="red" stroke-width="10.0" /><rect x="287.0" y="-1280.0" width="645.0" height="483.0" fill="none" stroke="red" stroke-width="10.0" /><rect x="423.0" y="-710.0" width="245.00000000000006" height="215.99999999999997" fill="none" stroke="red" stroke-width="10.0" />
</svg>
