<svg xmlns="http://www.w3.org/2000/svg"
  viewBox="-50 -1356 1958.9 1262">
  <rect x="-50" y="-1356" width="1958.9" height="1262" fill="white"/>
  <path d="M 206 -408 L 206 -429 L 234 -435 L 259 -441 L 285 -442 L 311 -443 L 337 -443 L 376 -442 L 414 -440.5 L 452 -439 L 491 -436 L 503 -435 L 515.5 -433.5 L 528 -432 L 541 -429.5 L 554 -427 L 566.5 -424 L 579 -421 L 589 -416 L 597 -407 L 597 -405 L 587 -396 L 578 -398 L 569.5 -398.5 L 561 -399 L 551 -399 L 526 -399 L 500 -396 L 496 -396 L 487 -396 L 487 -388 L 487 -374 L 522 -341 L 549 -316 L 591.5 -295.5 L 634 -275 L 684.5 -258.5 L 735 -242 L 791 -230 L 847 -218 L 902 -209.5 L 957 -201 L 1007.5 -197 L 1058 -193 L 1098 -193 L 1116 -193 L 1140.5 -193.5 L 1165 -194 L 1191.5 -197.5 L 1218 -201 L 1244 -207.5 L 1270 -214 L 1291 -226.5 L 1312 -239 L 1324.5 -257 L 1337 -275 L 1337 -301 L 1334 -327 L 1325 -371 L 1223 -414 L 1218 -419 L 1217 -423 L 1216 -424 L 1214.5 -426 L 1213 -428 L 1211 -431 L 1227 -435 L 1243 -436 L 1261 -437 L 1279 -438.5 L 1297 -440 L 1315 -443 L 1322 -443 L 1329 -443.5 L 1336 -444 L 1344 -444 L 1363 -444 L 1385 -442 L 1407 -440 L 1429.5 -435.5 L 1452 -431 L 1472.5 -423 L 1493 -415 L 1509 -403 L 1513 -399 L 1517.5 -395.5 L 1522 -392 L 1528 -388 L 1546 -354 L 1545 -316 L 1545 -286 L 1531.5 -262.5 L 1518 -239 L 1494.5 -221 L 1471 -203 L 1440 -190.5 L 1409 -178 L 1374.5 -169.5 L 1340 -161 L 1304 -156 L 1268 -151 L 1234.5 -148.5 L 1201 -146 L 1172 -145 L 1143 -144 L 1123 -144 L 954 -144 L 750 -180 L 661 -197 L 575 -223 L 489 -249 L 405 -283 L 206 -362 Z M 8 -535 L 3 -535 L 0 -543 L 0 -544 L 1 -544 L 2 -544 L 6 -546 L 7 -547 L 3 -552 L -1 -557 L 6 -560 L 53 -577 L 93 -590.5 L 133 -604 L 167 -615 L 203 -626 L 236.5 -639 L 270 -652 L 299.5 -670 L 329 -688 L 354.5 -712.5 L 380 -737 L 401 -771 L 416 -794 L 432 -841 L 440 -864 L 452 -893.5 L 464 -923 L 479 -958 L 482 -964 L 492 -965 L 501 -965 L 509 -969 L 522 -977 L 530 -981 L 540 -986 L 553 -993 L 562 -995 L 566 -996 L 568.5 -997 L 571 -998 L 573 -999 L 577 -999 L 581 -999 L 585 -999 L 590 -999 L 600 -999 L 608 -996 L 616 -993 L 626 -993 L 636 -993 L 643 -985 L 647 -982 L 640 -979 L 633 -976 L 629 -974 L 610 -961 L 600.5 -953 L 591 -945 L 589 -941 L 583 -915 L 576 -890 L 569 -865 L 559 -840 L 556 -831 L 547 -816 L 543 -809 L 539 -802.5 L 535 -796 L 531 -790 L 529 -786 L 526 -783 L 523 -780 L 521 -776 L 522 -776 L 522 -777 L 523 -777 L 524 -777 L 520 -772 L 516 -768 L 517 -769 L 517 -769 L 517 -770 L 517 -771 L 518 -771 L 519 -773 L 521 -776 L 520 -776 L 518.5 -775 L 517 -774 L 516 -773 L 478 -747 L 441 -718.5 L 404 -690 L 369 -660 L 368 -659 L 362.5 -655 L 357 -651 L 351.5 -646 L 346 -641 L 341.5 -636.5 L 337 -632 L 337 -631 L 342 -633 L 346.5 -635 L 351 -637 L 355 -639 L 360 -642 L 361 -642 L 361 -642 L 359 -641 L 357 -640 L 351 -636 L 336 -627 L 337 -631 L 325 -625 L 308.5 -617.5 L 292 -610 L 275.5 -603 L 259 -596 L 242 -591 L 225 -586 L 212 -583 L 200 -581 L 188 -580.5 L 176 -580 L 164 -580 L 158 -580 L 154 -580 L 150 -580 L 147 -579 L 139 -578 L 148 -575 L 157 -572 L 166.5 -571 L 176 -570 L 185 -570 L 187 -570 L 189.5 -570 L 192 -570 L 195 -571 L 202 -572 L 209.5 -572.5 L 217 -573 L 224 -573 L 252 -573 L 276.5 -566 L 301 -559 L 323 -543 L 342 -529 L 342 -524 L 345 -516 L 331 -516 L 318 -516 L 306.5 -517 L 295 -518 L 283 -521 L 266 -524 L 243 -527 L 232 -528 L 219.5 -529.5 L 207 -531 L 194 -533 L 171 -536 L 147.5 -538.5 L 124 -541 L 100 -541 L 86 -542 L 75 -542 L 51 -542 L 28 -539 L 23 -537 L 18 -536 L 13 -535 Z M 1222 -566 L 1218 -566 L 1214 -574 L 1214 -575 L 1215 -575 L 1217 -575 L 1220 -577 L 1221 -578 L 1218 -584 L 1214 -589 L 1220 -591 L 1267 -608 L 1307 -621.5 L 1347 -635 L 1381 -646 L 1418 -657 L 1451 -670 L 1484 -683 L 1513.5 -701 L 1543 -719 L 1569 -743.5 L 1595 -768 L 1616 -802 L 1630 -825 L 1646 -872 L 1654 -895 L 1666 -924.5 L 1678 -954 L 1694 -990 L 1697 -996 L 1706 -996 L 1715 -996 L 1723 -1000 L 1736 -1008 L 1744 -1012 L 1754 -1017 L 1767 -1024 L 1776 -1026 L 1780 -1027 L 1783 -1028 L 1786 -1029 L 1788 -1030 L 1792 -1030 L 1796 -1030 L 1800 -1030 L 1804 -1031 L 1813 -1031 L 1822 -1027 L 1830 -1024 L 1840 -1024 L 1850 -1024 L 1858 -1016 L 1861 -1013 L 1854 -1011 L 1851 -1010 L 1848.5 -1008 L 1846 -1006 L 1844 -1005 L 1807 -979 L 1803 -972 L 1798 -950 L 1793 -931 L 1788 -912 L 1781.5 -894 L 1775 -876 L 1766 -858.5 L 1757 -841 L 1745 -821 L 1743 -817 L 1740 -814 L 1737 -811 L 1735 -807 L 1737 -808 L 1738 -808 L 1734 -803 L 1730 -800 L 1730 -800 L 1732 -802 L 1733 -804 L 1735 -807 L 1734 -807 L 1732.5 -806 L 1731 -805 L 1729 -804 L 1692 -779 L 1654.5 -750 L 1617 -721 L 1583 -692 L 1582 -691 L 1576.5 -686.5 L 1571 -682 L 1565.5 -677.5 L 1560 -673 L 1555.5 -668 L 1551 -663 L 1551 -662 L 1556 -664 L 1560.5 -666.5 L 1565 -669 L 1569 -671 L 1574 -674 L 1575 -674 L 1575 -674 L 1573 -672 L 1571 -671 L 1565 -668 L 1549 -659 L 1551 -662 L 1546 -660 L 1541 -657.5 L 1536 -655 L 1530 -653 L 1511 -644 L 1493 -636.5 L 1475 -629 L 1457 -623 L 1439 -617 L 1419.5 -614 L 1400 -611 L 1379 -611 L 1373 -611 L 1368.5 -611 L 1364 -611 L 1361 -611 L 1353 -610 L 1362 -607 L 1378 -601 L 1395 -601 L 1398 -601 L 1401.5 -601 L 1405 -601 L 1409 -602 L 1417 -603 L 1425 -603.5 L 1433 -604 L 1441 -604 L 1469 -604 L 1492.5 -597.5 L 1516 -591 L 1538 -574 L 1557 -560 L 1556 -555 L 1559 -547 L 1545 -547 L 1521 -547 L 1496 -552 L 1479 -555 L 1457 -558 L 1446 -559 L 1433.5 -560.5 L 1421 -562 L 1408 -564 L 1385 -567 L 1361.5 -569.5 L 1338 -572 L 1314 -572 L 1300 -573 L 1288 -573 L 1265 -573 L 1242 -571 L 1236 -569 L 1232.5 -567.5 L 1229 -566 Z M 648 -863 L 642 -863 L 641 -869 L 641 -872 L 647 -872 L 649 -873 L 646 -880 L 643 -885 L 648 -888 L 742 -919 L 811 -936 L 846 -945 L 880 -957.5 L 914 -970 L 945.5 -988.5 L 977 -1007 L 1004.5 -1031 L 1032 -1055 L 1051 -1086 L 1058 -1097 L 1066.5 -1114 L 1075 -1131 L 1084 -1154 L 1093 -1177 L 1106 -1205.5 L 1119 -1234 L 1136 -1269 L 1138 -1273 L 1141.5 -1274.5 L 1145 -1276 L 1149 -1276 L 1156 -1276 L 1164 -1280 L 1170 -1284 L 1175.5 -1286.5 L 1181 -1289 L 1185 -1291 L 1194 -1294 L 1197 -1297 L 1202 -1299 L 1206.5 -1300.5 L 1211 -1302 L 1215 -1303 L 1220 -1305 L 1224 -1305.5 L 1228 -1306 L 1233 -1306 L 1247 -1306 L 1262 -1302 L 1268 -1300 L 1277 -1300 L 1282 -1300 L 1287 -1300 L 1291 -1298.5 L 1295 -1297 L 1298 -1293 L 1302 -1288 L 1294 -1286 L 1287 -1284 L 1284 -1282 L 1246 -1258 L 1244 -1249 L 1239 -1233 L 1235 -1218.5 L 1231 -1204 L 1227 -1192 L 1221 -1174 L 1214 -1157.5 L 1207 -1141 L 1196 -1125 L 1191 -1118 L 1186.5 -1111.5 L 1182 -1105 L 1178 -1099 L 1176 -1096 L 1174 -1093 L 1172 -1090 L 1170 -1088 L 1172 -1089 L 1168 -1083 L 1165 -1080 L 1165 -1080 L 1164.5 -1079.5 L 1164 -1079 L 1164 -1078 L 1164 -1079 L 1164 -1079 L 1164.5 -1080 L 1165 -1081 L 1166 -1081 L 1167 -1084 L 1170 -1088 L 1168 -1088 L 1161 -1084 L 1152 -1080 L 1136.5 -1069.5 L 1121 -1059 L 1102 -1046.5 L 1083 -1034 L 1064 -1019.5 L 1045 -1005 L 1028.5 -992 L 1012 -979 L 1000 -968 L 988 -957 L 983 -952 L 983 -952 L 982.5 -951 L 982 -950 L 982 -950 L 983 -950 L 986.5 -951.5 L 990 -953 L 993.5 -954.5 L 997 -956 L 1000.5 -957 L 1004 -958 L 1005 -958 L 1007 -958 L 995 -952 L 986 -947 L 982 -947 L 980 -947 L 982 -950 L 977 -948 L 971.5 -946 L 966 -944 L 959 -941 L 932 -930 L 902 -919 L 885 -913 L 868 -908.5 L 851 -904 L 833 -904 L 807 -904 L 801 -904 L 796.5 -904 L 792 -904 L 789 -903 L 783 -903 L 790 -899 L 806 -892 L 825 -892 L 827 -892 L 830 -892 L 833 -892 L 836 -892 L 848 -893 L 860 -894 L 888 -894 L 915 -886.5 L 942 -879 L 964 -861 L 980 -848 L 981 -840 L 983 -834 L 970 -833 L 922 -838 L 834 -853 L 800 -861 L 763.5 -864.5 L 727 -868 L 692 -868 L 686 -868 L 680 -868 L 674 -868 L 668 -867 L 659 -863 Z M 634 -782 L 636 -785 L 651 -785 L 680 -785 L 694 -786 L 709 -782 L 756 -774 L 825 -762 L 844 -666 L 856 -605 L 867 -591 L 878 -578 L 897 -574 L 899 -574 L 902.5 -573.5 L 906 -573 L 911 -572 L 914 -572 L 915 -571 L 914 -564 L 907 -559 L 900 -554 L 891.5 -551 L 883 -548 L 874 -547 L 865 -546 L 859 -546 L 833 -546 L 809 -552.5 L 785 -559 L 761 -568 L 708 -588 L 686 -713 L 677 -766 L 653 -766 L 639 -766 L 629 -766 L 628 -767 L 626 -770 Z M 883 -786 L 904 -786 L 910 -786 L 916.5 -785.5 L 923 -785 L 931 -783 L 939 -782 L 946 -780.5 L 953 -779 L 958 -778 L 969 -776 L 975 -775 L 1045 -762 L 1062 -666 L 1072 -608 L 1087 -593 L 1097 -577 L 1117 -575 L 1119 -574 L 1121 -573.5 L 1123 -573 L 1124 -573 L 1128 -572 L 1129 -572 L 1134 -572 L 1134 -565 L 1127.5 -560 L 1121 -555 L 1111.5 -552.5 L 1102 -550 L 1093 -548.5 L 1084 -547 L 1080 -547 L 1042 -547 L 981 -569 L 927 -591 L 906 -718 L 898 -770 L 882 -769 L 879 -769 L 878 -769 L 875 -769 L 865 -769 L 866 -783 L 866 -786 Z" fill="black" fill-opacity="0.25" stroke="black" stroke-width="4"/>
  <rect x="206" y="-444" width="1340" height="300" fill="none" stroke="red" stroke-width="10" /><rect x="626" y="-786" width="289" height="240" fill="none" stroke="red" stroke-width="10" /><rect x="865" y="-786" width="269" height="239" fill="none" stroke="red" stroke-width="10" /><rect x="-1" y="-677" width="389.8" height="161" fill="none" stroke="red" stroke-width="10" /><rect x="311" y="-838" width="247.3" height="161" fill="none" stroke="red" stroke-width="10" /><rect x="431" y="-999" width="216" height="161" fill="none" stroke="red" stroke-width="10" /><rect x="1214" y="-708.3" width="388.1" height="161.3" fill="none" stroke="red" stroke-width="10" /><rect x="1525.5" y="-869.7" width="246.2" height="161.4" fill="none" stroke="red" stroke-width="10" /><rect x="1645.2" y="-1031" width="215.8" height="161.3" fill="none" stroke="red" stroke-width="10" /><rect x="641" y="-990.7" width="385.8" height="157.7" fill="none" stroke="red" stroke-width="10" /><rect x="949.2" y="-1148.3" width="260.9" height="157.6" fill="none" stroke="red" stroke-width="10" /><rect x="1081.8" y="-1306" width="220.2" height="157.7" fill="none" stroke="red" stroke-width="10" />
</svg>
