<svg xmlns="http://www.w3.org/2000/svg"
  viewBox="-50 -1269 1276 1293">
  <rect x="-50" y="-1269" width="1276" height="1293" fill="white"/>
  <path d="M 717 -659 L 711 -647 L 705 -628 L 699 -609 L 692 -585 L 830 -578 L 1061 -569 L 1106 -523 L 964 -523 L 858 -523 L 752 -523 L 672 -525 L 655 -487 L 626 -458 L 615 -444 L 583 -435 L 566 -430 L 551 -428.5 L 536 -427 L 522 -427 L 499 -427 L 491 -430 L 477 -436 L 486 -444 L 511 -480 L 527 -530 L 514 -530 L 314 -539 L 216 -587 L 132 -626 L 30 -752 L 22 -766 L 17 -792 L 4 -866 L 0 -875 L 32 -879 L 69 -884 L 107 -889 L 122 -889 L 165 -889 L 194 -870 L 201 -865 L 201 -845 L 199 -800 L 199 -786 L 203 -780 L 295 -649 L 506 -606 L 514 -603 L 524 -602.5 L 534 -602 L 547 -600 L 552 -616 L 557 -628 L 562 -640 L 567 -651 L 576 -668 L 605 -669 L 665 -663 L 678 -662 L 691 -660.5 L 704 -659 Z M 1160 -265 L 1176 -229 L 1176 -195 L 1176 -111 L 1079 -68 L 981 -26 L 822 -26 L 683 -26 L 507 -62 L 372 -90 L 217 -162 L 50 -240 L 50 -285 L 50 -304 L 73 -311 L 100 -319 L 160 -318 L 193 -318 L 225 -317 L 257 -316 L 288 -312 L 348 -305 L 371 -293 L 377 -282 L 378 -282 L 370 -273 L 364 -274 L 356.5 -275 L 349 -276 L 340 -276 L 327 -276 L 317 -275 L 307 -274 L 296 -273 L 285 -274 L 285 -265 L 285 -249 L 315 -220 L 332 -203 L 352.5 -188.5 L 373 -174 L 398 -162 L 442 -141 L 489 -126 L 536 -111 L 592 -98 L 698 -73 L 800 -73 L 897 -73 L 947 -98 L 1002 -126 L 1001 -179 L 998 -206 L 990 -248 L 904 -292 L 901 -297 L 899.5 -300 L 898 -303 L 895 -307 L 908 -310 L 921.5 -311.5 L 935 -313 L 952 -315 L 970 -317 L 981.5 -318.5 L 993 -320 L 1006 -320 L 1045 -320 L 1075.5 -312 L 1106 -304 L 1129 -292 L 1137 -288 L 1144.5 -280.5 L 1152 -273 Z M 762 -989 L 756 -977 L 750 -958 L 744 -939 L 738 -915 L 875 -908 L 1106 -899 L 1152 -854 L 1010 -854 L 903.5 -854 L 797 -854 L 717 -855 L 700 -817 L 672 -788 L 661 -774 L 628 -765 L 611 -760 L 596 -758.5 L 581 -757 L 567 -757 L 544 -757 L 536 -760 L 522 -766 L 532 -774 L 557 -810 L 572 -860 L 559 -860 L 359 -869 L 261 -918 L 177 -957 L 75 -1082 L 67 -1096 L 63 -1122 L 50 -1196 L 45 -1205 L 77 -1209 L 114 -1214 L 152 -1219 L 167 -1219 L 210 -1219 L 239 -1200 L 246 -1195 L 247 -1175 L 244 -1130 L 244 -1116 L 248 -1110 L 340 -979 L 552 -937 L 560 -934 L 570 -933 L 580 -932 L 592 -930 L 597 -946 L 602 -958 L 607 -970 L 613 -981 L 622 -998 L 650 -999 L 711 -993 L 724 -992 L 736.5 -990.5 L 749 -989 Z" fill="black" fill-opacity="0.25" stroke="black" stroke-width="4"/>
  <rect x="0" y="-889" width="1106" height="462" fill="none" stroke="red" stroke-width="10" /><rect x="50" y="-320" width="1126" height="294" fill="none" stroke="red" stroke-width="10" /><rect x="45" y="-1219" width="1107" height="462" fill="none" stroke="red" stroke-width="10" />
</svg>
