<svg xmlns="http://www.w3.org/2000/svg"
  viewBox="-50.0 -1372.0 1309.0 1247.0">
  <rect x="-50.0" y="-1372.0" width="1309.0" height="1247.0" fill="white"/>
  <path d="M 103.0 -1308.0 L 119.0 -1310.0 L 136.0 -1312.5 L 153.0 -1315.0 L 172.0 -1317.0 L 191.0 -1319.0 L 204.0 -1320.5 L 217.0 -1322.0 L 225.0 -1322.0 L 268.0 -1322.0 L 297.0 -1303.0 L 304.0 -1298.0 L 305.0 -1278.0 L 302.0 -1233.0 L 302.0 -1220.0 L 306.0 -1213.0 L 399.0 -1081.0 L 609.0 -1040.0 L 617.0 -1037.0 L 627.5 -1036.0 L 638.0 -1035.0 L 650.0 -1033.0 L 655.0 -1049.0 L 660.0 -1061.0 L 665.0 -1073.0 L 670.0 -1085.0 L 678.0 -1102.0 L 708.0 -1102.0 L 769.0 -1096.0 L 782.0 -1095.0 L 795.0 -1093.5 L 808.0 -1092.0 L 820.0 -1092.0 L 814.0 -1080.0 L 808.0 -1061.5 L 802.0 -1043.0 L 795.0 -1018.0 L 933.0 -1011.0 L 1164.0 -1001.0 L 1209.0 -957.0 L 1036.0 -957.0 L 957.0 -957.0 L 893.0 -957.0 L 829.0 -957.0 L 775.0 -958.0 L 758.0 -920.0 L 730.0 -891.0 L 722.0 -881.0 L 708.0 -875.0 L 694.0 -869.0 L 678.0 -865.5 L 662.0 -862.0 L 645.5 -861.0 L 629.0 -860.0 L 618.0 -860.0 L 601.0 -860.0 L 594.0 -863.0 L 580.0 -869.0 L 589.0 -877.0 L 602.0 -895.0 L 612.0 -916.5 L 622.0 -938.0 L 630.0 -963.0 L 617.0 -963.0 L 417.0 -973.0 L 319.0 -1021.0 L 235.0 -1060.0 L 133.0 -1185.0 L 125.0 -1198.0 L 121.0 -1225.0 L 108.0 -1298.0 Z M 0.0 -749.0 L 0.0 -777.0 L 13.5 -797.0 L 27.0 -817.0 L 49.0 -830.5 L 71.0 -844.0 L 98.5 -852.0 L 126.0 -860.0 L 155.0 -864.0 L 184.0 -868.0 L 210.5 -869.5 L 237.0 -871.0 L 256.0 -871.0 L 308.0 -871.0 L 362.5 -866.0 L 417.0 -861.0 L 477.0 -852.0 L 537.0 -843.0 L 595.0 -828.0 L 653.0 -814.0 L 714.0 -796.0 L 773.0 -779.0 L 839.0 -746.0 L 905.0 -713.0 L 980.0 -665.0 L 1126.0 -569.0 L 1125.0 -527.0 L 1125.0 -508.0 L 1089.0 -508.0 L 1042.0 -508.0 L 992.0 -515.0 L 942.0 -522.0 L 896.0 -532.0 L 908.0 -636.0 L 731.0 -719.0 L 564.0 -799.0 L 392.0 -799.0 L 375.0 -799.0 L 354.5 -797.5 L 334.0 -796.0 L 312.5 -792.0 L 291.0 -788.0 L 270.5 -781.0 L 250.0 -774.0 L 233.5 -762.5 L 217.0 -751.0 L 206.5 -734.5 L 196.0 -718.0 L 195.0 -696.0 L 194.0 -665.0 L 241.0 -629.0 L 299.0 -584.0 L 304.0 -582.0 L 165.0 -583.0 L 95.0 -611.0 L 48.0 -631.0 L 17.0 -680.0 L 0.0 -720.0 Z M 97.0 -460.0 L 110.0 -464.0 L 129.5 -466.0 L 149.0 -468.0 L 176.0 -468.0 L 197.0 -468.0 L 227.0 -467.5 L 257.0 -467.0 L 288.5 -464.5 L 320.0 -462.0 L 348.5 -457.0 L 377.0 -452.0 L 396.0 -443.0 L 398.0 -441.0 L 398.5 -438.5 L 399.0 -436.0 L 400.0 -435.0 L 401.0 -433.0 L 402.0 -432.0 L 394.0 -422.0 L 388.0 -423.0 L 381.0 -424.5 L 374.0 -426.0 L 364.0 -426.0 L 352.0 -426.0 L 342.0 -425.0 L 332.0 -424.0 L 321.0 -422.0 L 317.0 -422.0 L 313.5 -421.0 L 310.0 -420.0 L 310.0 -415.0 L 310.0 -399.0 L 339.0 -369.0 L 364.0 -344.0 L 401.0 -323.5 L 438.0 -303.0 L 480.5 -286.5 L 523.0 -270.0 L 569.5 -258.0 L 616.0 -246.0 L 662.0 -238.0 L 708.0 -230.0 L 749.5 -226.0 L 791.0 -222.0 L 824.0 -222.0 L 842.0 -222.0 L 863.5 -223.5 L 885.0 -225.0 L 907.5 -228.5 L 930.0 -232.0 L 951.0 -239.0 L 972.0 -246.0 L 988.5 -258.0 L 1005.0 -270.0 L 1015.0 -287.5 L 1025.0 -305.0 L 1025.0 -329.0 L 1022.0 -355.0 L 1014.0 -397.0 L 928.0 -441.0 L 925.0 -445.0 L 923.5 -448.5 L 922.0 -452.0 L 919.0 -457.0 L 932.0 -460.0 L 945.5 -461.0 L 959.0 -462.0 L 977.0 -465.0 L 994.0 -467.0 L 1006.0 -468.0 L 1018.0 -469.0 L 1030.0 -469.0 L 1070.0 -469.0 L 1100.0 -461.5 L 1130.0 -454.0 L 1153.0 -441.0 L 1161.0 -437.0 L 1169.0 -429.5 L 1177.0 -422.0 L 1185.0 -415.0 L 1201.0 -378.0 L 1200.0 -344.0 L 1200.0 -306.0 L 1181.5 -279.0 L 1163.0 -252.0 L 1133.0 -233.0 L 1103.0 -214.0 L 1064.0 -202.5 L 1025.0 -191.0 L 986.0 -185.0 L 947.0 -179.0 L 910.0 -177.0 L 873.0 -175.0 L 846.0 -175.0 L 776.0 -175.0 L 698.0 -184.0 L 620.0 -193.0 L 532.0 -212.0 L 464.0 -226.0 L 391.5 -250.5 L 319.0 -275.0 L 241.0 -312.0 L 74.0 -389.0 L 74.0 -435.0 L 74.0 -454.0 Z M 324.0 -666.0 L 360.0 -668.0 L 395.5 -668.5 L 431.0 -669.0 L 467.0 -669.0 L 494.0 -669.0 L 525.0 -665.5 L 556.0 -662.0 L 591.0 -655.0 L 613.0 -651.0 L 634.0 -644.5 L 655.0 -638.0 L 675.0 -633.0 L 690.0 -630.0 L 710.0 -623.5 L 730.0 -617.0 L 751.0 -608.0 L 772.0 -599.0 L 792.5 -587.0 L 813.0 -575.0 L 828.5 -561.0 L 844.0 -547.0 L 853.5 -530.0 L 863.0 -513.0 L 863.0 -494.0 L 862.0 -472.0 L 849.0 -453.0 L 844.0 -447.0 L 821.0 -447.0 L 804.0 -447.0 L 780.0 -450.0 L 756.0 -453.0 L 722.0 -460.0 L 711.0 -462.0 L 696.5 -464.5 L 682.0 -467.0 L 663.0 -472.0 L 673.0 -477.0 L 681.5 -484.0 L 690.0 -491.0 L 697.0 -500.0 L 711.0 -519.0 L 707.0 -531.0 L 697.0 -554.0 L 659.0 -575.0 L 621.0 -596.0 L 555.0 -608.0 L 484.0 -621.0 L 416.0 -630.0 L 348.0 -639.0 L 277.0 -650.0 L 290.0 -653.0 L 301.0 -658.0 L 312.0 -663.0 Z" fill="black" fill-opacity="0.25" stroke="black" stroke-width="4.0"/>
  <rect x="103.0" y="-1322.0" width="1106.0" height="462.00000000000006" fill="none" stroke="red" stroke-width="10.0" /><rect x="0.0" y="-871.0" width="1126.0" height="363.0" fill="none" stroke="red" stroke-width="10.0" /><rect x="74.0" y="-469.0" width="1127.0" height="294.0" fill="none" stroke="red" stroke-width="10.0" /><rect x="277.0" y="-669.0" width="586.0" height="222.00000000000003" fill="none" stroke="red" stroke-width="10.0" />
</svg>
