<svg xmlns="http://www.w3.org/2000/svg"
  viewBox="-50.0 -918.0 1947.0 829.0">
  <rect x="-50.0" y="-918.0" width="1947.0" height="829.0" fill="white"/>
  <path d="M 702.0 -746.0 L 702.0 -774.0 L 716.0 -794.0 L 730.0 -814.0 L 752.0 -827.5 L 774.0 -841.0 L 801.5 -849.0 L 829.0 -857.0 L 857.5 -861.0 L 886.0 -865.0 L 912.5 -866.5 L 939.0 -868.0 L 959.0 -868.0 L 1019.0 -868.0 L 1076.0 -862.5 L 1133.0 -857.0 L 1190.0 -847.0 L 1247.0 -837.0 L 1303.0 -823.0 L 1359.0 -809.0 L 1416.0 -793.0 L 1533.0 -760.0 L 1682.0 -662.0 L 1828.0 -566.0 L 1827.0 -524.0 L 1827.0 -505.0 L 1791.0 -505.0 L 1744.0 -505.0 L 1694.0 -511.5 L 1644.0 -518.0 L 1598.0 -529.0 L 1609.0 -633.0 L 1434.0 -716.0 L 1266.0 -796.0 L 1094.0 -796.0 L 1077.0 -796.0 L 1056.5 -794.5 L 1036.0 -793.0 L 1014.5 -789.0 L 993.0 -785.0 L 972.5 -778.0 L 952.0 -771.0 L 935.5 -759.5 L 919.0 -748.0 L 909.0 -731.5 L 899.0 -715.0 L 898.0 -693.0 L 897.0 -662.0 L 943.0 -625.0 L 1003.0 -579.0 L 1007.0 -579.0 L 868.0 -580.0 L 798.0 -608.0 L 751.0 -628.0 L 719.0 -677.0 L 702.0 -717.0 Z M 1831.0 -378.0 L 1847.0 -342.0 L 1847.0 -308.0 L 1847.0 -224.0 L 1750.0 -181.0 L 1651.0 -139.0 L 1493.0 -139.0 L 1354.0 -139.0 L 1179.0 -175.0 L 1044.0 -203.0 L 888.0 -275.0 L 721.0 -352.0 L 721.0 -398.0 L 721.0 -416.0 L 744.0 -423.0 L 772.0 -431.0 L 831.0 -431.0 L 864.0 -431.0 L 896.5 -430.0 L 929.0 -429.0 L 960.0 -425.0 L 1019.0 -418.0 L 1042.0 -406.0 L 1048.0 -395.0 L 1049.0 -395.0 L 1041.0 -386.0 L 1035.0 -387.0 L 1027.5 -388.0 L 1020.0 -389.0 L 1011.0 -389.0 L 999.0 -389.0 L 988.5 -388.0 L 978.0 -387.0 L 968.0 -386.0 L 957.0 -387.0 L 956.0 -378.0 L 956.0 -362.0 L 986.0 -332.0 L 1003.0 -315.0 L 1023.5 -301.0 L 1044.0 -287.0 L 1069.0 -275.0 L 1112.0 -254.0 L 1160.0 -239.0 L 1208.0 -224.0 L 1263.0 -211.0 L 1369.0 -186.0 L 1471.0 -185.0 L 1568.0 -185.0 L 1618.0 -211.0 L 1673.0 -238.0 L 1672.0 -292.0 L 1669.0 -318.0 L 1661.0 -360.0 L 1575.0 -405.0 L 1572.0 -409.0 L 1570.5 -412.0 L 1569.0 -415.0 L 1566.0 -420.0 L 1579.0 -423.0 L 1592.5 -424.5 L 1606.0 -426.0 L 1624.0 -428.0 L 1641.0 -430.0 L 1653.0 -431.5 L 1665.0 -433.0 L 1677.0 -433.0 L 1716.0 -433.0 L 1746.5 -425.0 L 1777.0 -417.0 L 1800.0 -405.0 L 1808.0 -401.0 L 1815.5 -393.5 L 1823.0 -386.0 Z M 55.0 -813.0 L 104.0 -817.0 L 209.0 -818.0 L 281.0 -818.0 L 359.0 -803.0 L 386.0 -798.0 L 409.5 -791.5 L 433.0 -785.0 L 455.0 -776.0 L 503.0 -765.0 L 542.0 -748.0 L 581.0 -731.0 L 608.0 -710.0 L 668.0 -665.0 L 667.0 -613.0 L 667.0 -587.0 L 653.0 -566.0 L 648.0 -559.0 L 621.0 -559.0 L 586.0 -558.0 L 510.0 -573.0 L 497.0 -575.0 L 480.0 -578.5 L 463.0 -582.0 L 441.0 -587.0 L 468.0 -603.0 L 481.0 -621.0 L 489.0 -632.0 L 491.5 -640.5 L 494.0 -649.0 L 492.0 -657.0 L 480.0 -683.0 L 437.0 -707.5 L 394.0 -732.0 L 319.0 -748.0 L 239.0 -765.0 L 159.5 -774.5 L 80.0 -784.0 L 0.0 -798.0 Z" fill="black" fill-opacity="0.25" stroke="black" stroke-width="4.0"/>
  <rect x="702.0" y="-868.0" width="1126.0" height="363.0" fill="none" stroke="red" stroke-width="10.0" /><rect x="721.0" y="-433.0" width="1126.0" height="294.0" fill="none" stroke="red" stroke-width="10.0" /><rect x="0.0" y="-818.0" width="668.0" height="259.9999999999999" fill="none" stroke="red" stroke-width="10.0" />
</svg>
