<svg xmlns="http://www.w3.org/2000/svg"
  viewBox="-50.0 -924.0 1300.0 794.0">
  <rect x="-50.0" y="-924.0" width="1300.0" height="794.0" fill="white"/>
  <path d="M 0.0 -752.0 L 0.0 -780.0 L 13.0 -801.0 L 26.0 -822.0 L 48.0 -835.0 L 70.0 -848.0 L 98.0 -856.0 L 126.0 -864.0 L 154.5 -868.0 L 183.0 -872.0 L 209.5 -873.0 L 236.0 -874.0 L 256.0 -874.0 L 308.0 -874.0 L 362.5 -870.0 L 417.0 -866.0 L 476.0 -856.0 L 536.0 -848.0 L 594.0 -832.0 L 652.0 -816.0 L 713.0 -800.0 L 772.0 -782.0 L 838.5 -750.0 L 905.0 -718.0 L 979.0 -668.0 L 1125.0 -572.0 L 1125.0 -532.0 L 1125.0 -512.0 L 1088.0 -512.0 L 1041.0 -512.0 L 991.0 -519.0 L 941.0 -526.0 L 895.0 -536.0 L 907.0 -640.0 L 731.0 -724.0 L 564.0 -804.0 L 392.0 -804.0 L 375.0 -804.0 L 354.0 -802.0 L 333.0 -800.0 L 311.5 -796.0 L 290.0 -792.0 L 269.5 -785.0 L 249.0 -778.0 L 232.5 -767.0 L 216.0 -756.0 L 206.0 -739.0 L 196.0 -722.0 L 195.0 -700.0 L 194.0 -670.0 L 240.0 -632.0 L 298.0 -588.0 L 304.0 -586.0 L 165.0 -586.0 L 95.0 -616.0 L 48.0 -636.0 L 17.0 -684.0 L 0.0 -724.0 Z M 73.0 -440.0 L 73.0 -458.0 L 97.0 -464.0 L 110.0 -468.0 L 129.5 -470.0 L 149.0 -472.0 L 176.0 -472.0 L 197.0 -472.0 L 227.0 -472.0 L 257.0 -472.0 L 288.0 -469.0 L 319.0 -466.0 L 348.0 -461.0 L 377.0 -456.0 L 395.0 -448.0 L 397.0 -446.0 L 398.0 -443.0 L 399.0 -440.0 L 400.0 -438.0 L 401.0 -436.0 L 401.0 -436.0 L 394.0 -426.0 L 388.0 -428.0 L 380.5 -429.0 L 373.0 -430.0 L 364.0 -430.0 L 352.0 -430.0 L 341.5 -429.0 L 331.0 -428.0 L 320.0 -426.0 L 316.0 -426.0 L 312.5 -425.0 L 309.0 -424.0 L 309.0 -418.0 L 309.0 -402.0 L 339.0 -374.0 L 356.0 -356.0 L 376.0 -342.0 L 396.0 -328.0 L 422.0 -316.0 L 464.0 -294.0 L 514.5 -278.0 L 565.0 -262.0 L 618.0 -251.0 L 671.0 -240.0 L 723.5 -233.0 L 776.0 -226.0 L 823.0 -226.0 L 841.0 -226.0 L 862.5 -227.0 L 884.0 -228.0 L 906.5 -232.0 L 929.0 -236.0 L 950.0 -243.0 L 971.0 -250.0 L 987.5 -262.0 L 1004.0 -274.0 L 1014.0 -291.0 L 1024.0 -308.0 L 1025.0 -332.0 L 1022.0 -360.0 L 1014.0 -402.0 L 928.0 -446.0 L 925.0 -450.0 L 923.5 -453.0 L 922.0 -456.0 L 919.0 -462.0 L 932.0 -464.0 L 945.5 -465.0 L 959.0 -466.0 L 977.0 -470.0 L 994.0 -472.0 L 1005.5 -473.0 L 1017.0 -474.0 L 1029.0 -474.0 L 1069.0 -474.0 L 1099.0 -466.0 L 1129.0 -458.0 L 1153.0 -446.0 L 1161.0 -442.0 L 1168.5 -434.0 L 1176.0 -426.0 L 1184.0 -418.0 L 1200.0 -382.0 L 1200.0 -348.0 L 1200.0 -310.0 L 1181.5 -283.0 L 1163.0 -256.0 L 1132.5 -237.0 L 1102.0 -218.0 L 1063.5 -207.0 L 1025.0 -196.0 L 985.5 -190.0 L 946.0 -184.0 L 909.5 -182.0 L 873.0 -180.0 L 845.0 -180.0 L 775.0 -180.0 L 697.0 -189.0 L 619.0 -198.0 L 531.0 -216.0 L 395.0 -244.0 L 240.0 -316.0 L 73.0 -394.0 Z M 276.0 -654.0 L 289.0 -658.0 L 300.0 -662.0 L 311.0 -666.0 L 323.0 -670.0 L 359.0 -672.0 L 395.0 -673.0 L 431.0 -674.0 L 466.0 -674.0 L 493.0 -674.0 L 524.5 -670.0 L 556.0 -666.0 L 591.0 -660.0 L 613.0 -656.0 L 633.5 -649.0 L 654.0 -642.0 L 675.0 -638.0 L 690.0 -634.0 L 710.0 -628.0 L 730.0 -622.0 L 751.0 -612.0 L 772.0 -602.0 L 792.0 -591.0 L 812.0 -580.0 L 828.0 -566.0 L 844.0 -552.0 L 853.5 -535.0 L 863.0 -518.0 L 862.0 -498.0 L 861.0 -476.0 L 849.0 -458.0 L 844.0 -452.0 L 820.0 -452.0 L 803.0 -452.0 L 779.0 -454.0 L 755.0 -456.0 L 722.0 -464.0 L 711.0 -466.0 L 696.0 -469.0 L 681.0 -472.0 L 663.0 -476.0 L 673.0 -480.0 L 681.5 -488.0 L 690.0 -496.0 L 697.0 -504.0 L 711.0 -524.0 L 706.0 -536.0 L 696.0 -558.0 L 658.5 -579.0 L 621.0 -600.0 L 555.0 -612.0 L 484.0 -626.0 L 415.5 -635.0 L 347.0 -644.0 Z" fill="black" fill-opacity="0.25" stroke="black" stroke-width="4.0"/>
  <rect x="0.0" y="-874.0" width="1125.0" height="362.0" fill="none" stroke="red" stroke-width="10.0" /><rect x="73.0" y="-474.0" width="1127.0" height="294.0" fill="none" stroke="red" stroke-width="10.0" /><rect x="276.0" y="-674.0" width="587.0" height="222.00000000000003" fill="none" stroke="red" stroke-width="10.0" />
</svg>
