<svg xmlns="http://www.w3.org/2000/svg"
  viewBox="-50.0 -1269.0 1276.0 1293.0">
  <rect x="-50.0" y="-1269.0" width="1276.0" height="1293.0" fill="white"/>
  <path d="M 717.0 -659.0 L 711.0 -647.0 L 705.0 -628.0 L 699.0 -609.0 L 692.0 -585.0 L 830.0 -578.0 L 1061.0 -569.0 L 1106.0 -523.0 L 964.0 -523.0 L 858.0 -523.0 L 752.0 -523.0 L 672.0 -525.0 L 655.0 -487.0 L 626.0 -458.0 L 615.0 -444.0 L 583.0 -435.0 L 566.0 -430.0 L 551.0 -428.5 L 536.0 -427.0 L 522.0 -427.0 L 499.0 -427.0 L 491.0 -430.0 L 477.0 -436.0 L 486.0 -444.0 L 511.0 -480.0 L 527.0 -530.0 L 514.0 -530.0 L 314.0 -539.0 L 216.0 -587.0 L 132.0 -626.0 L 30.0 -752.0 L 22.0 -766.0 L 17.0 -792.0 L 4.0 -866.0 L 0.0 -875.0 L 32.0 -879.0 L 69.0 -884.0 L 107.0 -889.0 L 122.0 -889.0 L 165.0 -889.0 L 194.0 -870.0 L 201.0 -865.0 L 201.0 -845.0 L 199.0 -800.0 L 199.0 -786.0 L 203.0 -780.0 L 295.0 -649.0 L 506.0 -606.0 L 514.0 -603.0 L 524.0 -602.5 L 534.0 -602.0 L 547.0 -600.0 L 552.0 -616.0 L 557.0 -628.0 L 562.0 -640.0 L 567.0 -651.0 L 576.0 -668.0 L 605.0 -669.0 L 665.0 -663.0 L 678.0 -662.0 L 691.0 -660.5 L 704.0 -659.0 Z M 1160.0 -265.0 L 1176.0 -229.0 L 1176.0 -195.0 L 1176.0 -111.0 L 1079.0 -68.0 L 981.0 -26.0 L 822.0 -26.0 L 683.0 -26.0 L 507.0 -62.0 L 372.0 -90.0 L 217.0 -162.0 L 50.0 -240.0 L 50.0 -285.0 L 50.0 -304.0 L 73.0 -311.0 L 100.0 -319.0 L 160.0 -318.0 L 193.0 -318.0 L 225.0 -317.0 L 257.0 -316.0 L 288.0 -312.0 L 348.0 -305.0 L 371.0 -293.0 L 377.0 -282.0 L 378.0 -282.0 L 370.0 -273.0 L 364.0 -274.0 L 356.5 -275.0 L 349.0 -276.0 L 340.0 -276.0 L 327.0 -276.0 L 317.0 -275.0 L 307.0 -274.0 L 296.0 -273.0 L 285.0 -274.0 L 285.0 -265.0 L 285.0 -249.0 L 315.0 -220.0 L 332.0 -203.0 L 352.5 -188.5 L 373.0 -174.0 L 398.0 -162.0 L 442.0 -141.0 L 489.0 -126.0 L 536.0 -111.0 L 592.0 -98.0 L 698.0 -73.0 L 800.0 -73.0 L 897.0 -73.0 L 947.0 -98.0 L 1002.0 -126.0 L 1001.0 -179.0 L 998.0 -206.0 L 990.0 -248.0 L 904.0 -292.0 L 901.0 -297.0 L 899.5 -300.0 L 898.0 -303.0 L 895.0 -307.0 L 908.0 -310.0 L 921.5 -311.5 L 935.0 -313.0 L 952.0 -315.0 L 970.0 -317.0 L 981.5 -318.5 L 993.0 -320.0 L 1006.0 -320.0 L 1045.0 -320.0 L 1075.5 -312.0 L 1106.0 -304.0 L 1129.0 -292.0 L 1137.0 -288.0 L 1144.5 -280.5 L 1152.0 -273.0 Z M 762.0 -989.0 L 756.0 -977.0 L 750.0 -958.0 L 744.0 -939.0 L 738.0 -915.0 L 875.0 -908.0 L 1106.0 -899.0 L 1152.0 -854.0 L 1010.0 -854.0 L 903.5 -854.0 L 797.0 -854.0 L 717.0 -855.0 L 700.0 -817.0 L 672.0 -788.0 L 661.0 -774.0 L 628.0 -765.0 L 611.0 -760.0 L 596.0 -758.5 L 581.0 -757.0 L 567.0 -757.0 L 544.0 -757.0 L 536.0 -760.0 L 522.0 -766.0 L 532.0 -774.0 L 557.0 -810.0 L 572.0 -860.0 L 559.0 -860.0 L 359.0 -869.0 L 261.0 -918.0 L 177.0 -957.0 L 75.0 -1082.0 L 67.0 -1096.0 L 63.0 -1122.0 L 50.0 -1196.0 L 45.0 -1205.0 L 77.0 -1209.0 L 114.0 -1214.0 L 152.0 -1219.0 L 167.0 -1219.0 L 210.0 -1219.0 L 239.0 -1200.0 L 246.0 -1195.0 L 247.0 -1175.0 L 244.0 -1130.0 L 244.0 -1116.0 L 248.0 -1110.0 L 340.0 -979.0 L 552.0 -937.0 L 560.0 -934.0 L 570.0 -933.0 L 580.0 -932.0 L 592.0 -930.0 L 597.0 -946.0 L 602.0 -958.0 L 607.0 -970.0 L 613.0 -981.0 L 622.0 -998.0 L 650.0 -999.0 L 711.0 -993.0 L 724.0 -992.0 L 736.5 -990.5 L 749.0 -989.0 Z" fill="black" fill-opacity="0.25" stroke="black" stroke-width="4.0"/>
  <rect x="0.0" y="-889.0" width="1106.0" height="462.0" fill="none" stroke="red" stroke-width="10.0" /><rect x="50.0" y="-320.0" width="1126.0" height="294.0" fill="none" stroke="red" stroke-width="10.0" /><rect x="45.0" y="-1219.0" width="1107.0" height="462.00000000000006" fill="none" stroke="red" stroke-width="10.0" />
</svg>
