<svg xmlns="http://www.w3.org/2000/svg"
  viewBox="-50 -694 1226 591">
  <rect x="-50" y="-694" width="1226" height="591" fill="white"/>
  <path d="M 1110 -392 L 1126 -356 L 1126 -321 L 1126 -236 L 1029 -195 L 930 -153 L 772 -153 L 633 -153 L 458 -189 L 323 -216 L 167 -289 L 0 -367 L 0 -412 L 0 -431 L 23 -437 L 51 -445 L 110 -445 L 143 -445 L 175.5 -443.5 L 208 -442 L 239 -439 L 298 -432 L 321 -420 L 327 -409 L 328 -409 L 320 -399 L 314 -401 L 306.5 -402 L 299 -403 L 290 -403 L 278 -403 L 267.5 -402 L 257 -401 L 247 -399 L 236 -401 L 235 -392 L 235 -377 L 265 -347 L 283 -329 L 302.5 -315 L 322 -301 L 348 -289 L 391 -268 L 439 -252.5 L 487 -237 L 542 -225 L 648 -200 L 750 -200 L 847 -200 L 897 -225 L 952 -252 L 951 -306 L 948 -333 L 940 -375 L 854 -419 L 851 -423 L 849.5 -426 L 848 -429 L 845 -434 L 858 -437 L 871.5 -438.5 L 885 -440 L 903 -442 L 920 -444 L 931.5 -445 L 943 -446 L 956 -446 L 995 -446 L 1025.5 -438.5 L 1056 -431 L 1079 -419 L 1087 -415 L 1094.5 -407.5 L 1102 -400 Z M 725 -407 L 714 -393 L 691 -386 L 668 -380 L 637 -380 L 616 -380 L 596.5 -382.5 L 577 -385 L 555 -388 L 533 -391 L 519.5 -395.5 L 506 -400 L 499 -403 L 453 -422 L 421 -437 L 419 -442 L 417 -445 L 422 -449 L 423 -450 L 434 -450 L 442 -450 L 451 -450 L 460 -450 L 472 -447 L 538 -438 L 550 -438 L 569 -438 L 577 -446 L 583 -452 L 583 -463 L 583 -480 L 556 -525 L 530 -570 L 530 -594 L 529 -615 L 545 -630 L 551 -636 L 580 -641 L 593 -643 L 607.5 -643.5 L 622 -644 L 637 -644 L 655 -644 L 673 -644 L 691 -644 L 710 -641 L 746 -636 L 747 -635 L 757 -618 L 756 -608 L 756 -594 L 737 -594 L 728 -594 L 710 -599 L 691 -604 L 683 -604 L 677 -604 L 676 -599 L 676 -580 L 710 -528 L 743 -477 L 742 -449 L 742 -428 Z" fill="black" fill-opacity="0.25" stroke="black" stroke-width="4"/>
  <rect x="0" y="-446" width="1126" height="293" fill="none" stroke="red" stroke-width="10" /><rect x="417" y="-644" width="340" height="264" fill="none" stroke="red" stroke-width="10" />
</svg>
