<svg xmlns="http://www.w3.org/2000/svg"
  viewBox="-50.0 -1082.0 1506.5 958.0">
  <rect x="-50.0" y="-1082.0" width="1506.5" height="958.0" fill="white"/>
  <path d="M 0.0 -434.0 L 0.0 -454.0 L 23.0 -460.0 L 48.0 -468.0 L 102.0 -466.0 L 123.0 -466.0 L 153.0 -466.0 L 183.0 -466.0 L 214.5 -463.0 L 246.0 -460.0 L 274.5 -455.0 L 303.0 -450.0 L 322.0 -442.0 L 324.0 -440.0 L 324.5 -438.0 L 325.0 -436.0 L 326.0 -434.0 L 327.0 -432.0 L 328.0 -430.0 L 320.0 -422.0 L 314.0 -422.0 L 307.0 -423.0 L 300.0 -424.0 L 290.0 -424.0 L 278.0 -424.0 L 268.0 -424.0 L 258.0 -424.0 L 247.0 -422.0 L 243.0 -422.0 L 239.5 -421.0 L 236.0 -420.0 L 236.0 -414.0 L 236.0 -398.0 L 265.0 -368.0 L 290.0 -344.0 L 326.5 -323.0 L 363.0 -302.0 L 406.0 -286.0 L 449.0 -270.0 L 495.5 -258.0 L 542.0 -246.0 L 587.5 -238.0 L 633.0 -230.0 L 675.0 -226.0 L 717.0 -222.0 L 750.0 -222.0 L 768.0 -222.0 L 789.5 -223.0 L 811.0 -224.0 L 833.5 -228.0 L 856.0 -232.0 L 877.0 -239.0 L 898.0 -246.0 L 914.5 -258.0 L 931.0 -270.0 L 941.0 -287.0 L 951.0 -304.0 L 951.0 -328.0 L 948.0 -354.0 L 940.0 -396.0 L 854.0 -440.0 L 851.0 -444.0 L 849.5 -448.0 L 848.0 -452.0 L 845.0 -456.0 L 858.0 -460.0 L 872.0 -461.0 L 886.0 -462.0 L 903.0 -464.0 L 920.0 -466.0 L 932.0 -467.0 L 944.0 -468.0 L 956.0 -468.0 L 996.0 -468.0 L 1026.0 -461.0 L 1056.0 -454.0 L 1079.0 -440.0 L 1087.0 -436.0 L 1095.0 -429.0 L 1103.0 -422.0 L 1111.0 -414.0 L 1127.0 -376.0 L 1126.0 -344.0 L 1126.0 -306.0 L 1107.5 -278.0 L 1089.0 -250.0 L 1059.0 -232.0 L 1029.0 -214.0 L 990.0 -202.0 L 951.0 -190.0 L 912.0 -184.0 L 873.0 -178.0 L 836.0 -176.0 L 799.0 -174.0 L 772.0 -174.0 L 701.0 -174.0 L 623.5 -183.0 L 546.0 -192.0 L 458.0 -210.0 L 390.0 -224.0 L 318.0 -249.0 L 246.0 -274.0 L 167.0 -310.0 L 0.0 -388.0 Z M 762.0 -576.0 L 762.0 -576.0 L 764.0 -576.0 L 765.0 -576.0 L 768.0 -578.0 L 770.0 -580.0 L 766.0 -586.0 L 762.0 -590.0 L 768.0 -592.0 L 814.0 -610.0 L 854.5 -623.0 L 895.0 -636.0 L 929.0 -647.0 L 963.0 -658.0 L 990.5 -668.0 L 1018.0 -678.0 L 1039.0 -690.0 L 1118.0 -732.0 L 1164.0 -804.0 L 1171.0 -816.0 L 1178.5 -833.0 L 1186.0 -850.0 L 1194.5 -874.0 L 1203.0 -898.0 L 1214.5 -927.0 L 1226.0 -956.0 L 1242.0 -990.0 L 1243.0 -994.0 L 1246.5 -995.0 L 1250.0 -996.0 L 1254.0 -997.0 L 1258.0 -998.0 L 1262.5 -998.0 L 1267.0 -998.0 L 1272.0 -1002.0 L 1284.0 -1008.0 L 1291.5 -1012.0 L 1299.0 -1016.0 L 1303.0 -1018.0 L 1315.0 -1024.0 L 1324.0 -1027.0 L 1333.0 -1030.0 L 1336.0 -1032.0 L 1349.0 -1032.0 L 1354.0 -1032.0 L 1359.5 -1031.0 L 1365.0 -1030.0 L 1370.0 -1028.0 L 1374.0 -1028.0 L 1378.5 -1027.0 L 1383.0 -1026.0 L 1388.0 -1025.0 L 1393.0 -1024.0 L 1397.5 -1023.0 L 1402.0 -1022.0 L 1406.0 -1018.0 L 1407.0 -1016.0 L 1406.0 -1014.0 L 1405.0 -1012.0 L 1402.0 -1011.0 L 1399.0 -1010.0 L 1396.0 -1009.0 L 1393.0 -1008.0 L 1392.0 -1006.0 L 1354.0 -980.0 L 1351.0 -974.0 L 1343.0 -940.0 L 1336.0 -916.0 L 1329.0 -892.0 L 1322.0 -872.0 L 1320.0 -866.0 L 1315.0 -858.0 L 1310.0 -850.0 L 1304.5 -841.0 L 1299.0 -832.0 L 1293.0 -823.0 L 1287.0 -814.0 L 1283.0 -808.0 L 1283.0 -808.0 L 1285.0 -810.0 L 1287.0 -810.0 L 1282.0 -804.0 L 1279.0 -800.0 L 1279.0 -800.0 L 1283.0 -808.0 L 1279.0 -806.0 L 1269.0 -800.0 L 1259.0 -794.0 L 1245.0 -783.0 L 1231.0 -772.0 L 1215.0 -760.0 L 1199.0 -748.0 L 1183.0 -734.0 L 1167.0 -722.0 L 1154.5 -712.0 L 1142.0 -702.0 L 1131.0 -694.0 L 1109.0 -676.0 L 1101.0 -666.0 L 1101.0 -666.0 L 1100.0 -664.0 L 1100.0 -664.0 L 1099.0 -664.0 L 1080.0 -654.0 L 1061.0 -646.0 L 1042.0 -638.0 L 1023.0 -630.0 L 993.0 -618.0 L 975.0 -616.0 L 966.0 -614.0 L 952.0 -614.0 L 938.0 -614.0 L 926.5 -613.0 L 915.0 -612.0 L 909.5 -612.0 L 904.0 -612.0 L 911.0 -608.0 L 919.0 -606.0 L 927.0 -605.0 L 935.0 -604.0 L 944.0 -604.0 L 956.0 -604.0 L 968.5 -605.0 L 981.0 -606.0 L 993.0 -606.0 L 1018.0 -606.0 L 1041.5 -598.0 L 1065.0 -590.0 L 1086.0 -576.0 L 1104.0 -562.0 L 1104.0 -556.0 L 1107.0 -548.0 L 1094.0 -548.0 L 1081.0 -548.0 L 1069.5 -549.0 L 1058.0 -550.0 L 1045.0 -554.0 L 1027.0 -556.0 L 1004.5 -559.0 L 982.0 -562.0 L 956.0 -566.0 L 929.0 -570.0 L 906.5 -572.0 L 884.0 -574.0 L 862.0 -574.0 L 858.0 -574.0 L 854.0 -574.0 L 850.0 -574.0 L 846.0 -574.0 L 832.0 -574.0 L 818.0 -574.0 L 804.0 -574.0 L 790.0 -572.0 L 787.0 -570.0 L 782.5 -569.0 L 778.0 -568.0 L 770.0 -568.0 L 765.0 -568.0 Z M 406.0 -762.0 L 406.0 -768.0 L 420.0 -768.0 L 424.0 -768.0 L 431.0 -768.0 L 441.5 -767.0 L 452.0 -766.0 L 466.0 -762.0 L 481.0 -760.0 L 489.5 -759.0 L 498.0 -758.0 L 505.0 -756.0 L 568.0 -746.0 L 586.0 -660.0 L 597.0 -608.0 L 607.0 -592.0 L 612.0 -584.0 L 633.0 -578.0 L 651.0 -574.0 L 650.0 -574.0 L 650.0 -570.0 L 649.5 -571.0 L 649.0 -572.0 L 646.0 -566.0 L 639.0 -552.0 L 600.0 -552.0 L 581.0 -552.0 L 559.5 -557.0 L 538.0 -562.0 L 511.0 -572.0 L 460.0 -592.0 L 443.0 -706.0 L 436.0 -752.0 L 423.0 -752.0 L 423.0 -752.0 L 422.0 -752.0 L 421.0 -752.0 L 421.0 -752.0 L 420.0 -752.0 L 415.0 -752.0 L 405.0 -752.0 Z" fill="black" fill-opacity="0.25" stroke="black" stroke-width="4.0"/>
  <rect x="0.0" y="-468.0" width="1127.0" height="294.00000000000006" fill="none" stroke="red" stroke-width="10.0" /><rect x="405.0" y="-768.0" width="246.0" height="215.99999999999997" fill="none" stroke="red" stroke-width="10.0" /><rect x="762.0" y="-709.3000000000001" width="389.2" height="161.3" fill="none" stroke="red" stroke-width="10.0" /><rect x="1075.3999999999999" y="-870.7" width="246.2000000000002" height="161.39999999999998" fill="none" stroke="red" stroke-width="10.0" /><rect x="1193.3" y="-1032.0" width="213.7" height="161.3" fill="none" stroke="red" stroke-width="10.0" />
</svg>
