<svg xmlns="http://www.w3.org/2000/svg"
  viewBox="-50.0 -1088.1666666666667 1228.0 967.1666666666667">
  <rect x="-50.0" y="-1088.1666666666667" width="1228.0" height="967.1666666666667" fill="white"/>
  <path d="M 738.0 -808.0 L 732.0 -796.0 L 726.0 -777.5 L 720.0 -759.0 L 714.0 -734.0 L 851.0 -727.0 L 1082.0 -718.0 L 1128.0 -673.0 L 986.0 -673.0 L 879.5 -673.0 L 773.0 -673.0 L 693.0 -674.0 L 676.0 -636.0 L 648.0 -607.0 L 637.0 -593.0 L 604.0 -584.0 L 587.0 -579.0 L 572.0 -577.5 L 557.0 -576.0 L 543.0 -576.0 L 520.0 -576.0 L 512.0 -579.0 L 498.0 -585.0 L 507.0 -593.0 L 532.0 -629.0 L 548.0 -679.0 L 535.0 -679.0 L 335.0 -688.0 L 237.0 -737.0 L 153.0 -776.0 L 51.0 -901.0 L 43.0 -915.0 L 39.0 -941.0 L 26.0 -1015.0 L 21.0 -1024.0 L 53.0 -1028.0 L 90.0 -1034.0 L 128.0 -1039.0 L 143.0 -1038.0 L 186.0 -1038.0 L 215.0 -1019.0 L 222.0 -1014.0 L 223.0 -995.0 L 220.0 -949.0 L 220.0 -935.0 L 224.0 -929.0 L 316.0 -798.0 L 527.0 -756.0 L 535.0 -753.0 L 545.5 -752.0 L 556.0 -751.0 L 568.0 -749.0 L 573.0 -765.0 L 578.0 -777.0 L 583.0 -789.0 L 589.0 -801.0 L 598.0 -818.0 L 626.0 -818.0 L 687.0 -812.0 L 700.0 -811.0 L 712.5 -809.5 L 725.0 -808.0 Z M 1111.0 -411.0 L 1127.0 -375.0 L 1126.0 -340.0 L 1126.0 -256.0 L 1029.0 -214.0 L 931.0 -172.0 L 772.0 -171.0 L 633.0 -171.0 L 457.0 -207.0 L 322.0 -235.0 L 167.0 -308.0 L 0.0 -386.0 L 0.0 -431.0 L 0.0 -450.0 L 23.0 -456.0 L 50.0 -464.0 L 111.0 -464.0 L 144.0 -464.0 L 175.5 -462.5 L 207.0 -461.0 L 238.0 -457.0 L 298.0 -450.0 L 321.0 -438.0 L 327.0 -427.0 L 328.0 -428.0 L 320.0 -418.0 L 314.0 -419.0 L 306.5 -420.0 L 299.0 -421.0 L 290.0 -421.0 L 277.0 -421.0 L 267.0 -420.5 L 257.0 -420.0 L 246.0 -418.0 L 235.0 -419.0 L 236.0 -411.0 L 236.0 -395.0 L 265.0 -365.0 L 282.0 -348.0 L 302.5 -333.5 L 323.0 -319.0 L 348.0 -308.0 L 392.0 -287.0 L 439.0 -271.5 L 486.0 -256.0 L 542.0 -243.0 L 648.0 -218.0 L 750.0 -218.0 L 847.0 -218.0 L 897.0 -243.0 L 952.0 -271.0 L 951.0 -325.0 L 948.0 -351.0 L 940.0 -393.0 L 854.0 -437.0 L 851.0 -442.0 L 849.5 -445.0 L 848.0 -448.0 L 845.0 -453.0 L 858.0 -456.0 L 871.5 -457.0 L 885.0 -458.0 L 902.0 -460.0 L 920.0 -462.0 L 932.0 -463.5 L 944.0 -465.0 L 956.0 -465.0 L 995.0 -465.0 L 1025.5 -457.5 L 1056.0 -450.0 L 1079.0 -437.0 L 1087.0 -433.0 L 1095.0 -426.0 L 1103.0 -419.0 Z" fill="black" fill-opacity="0.25" stroke="black" stroke-width="4.0"/>
  <rect x="21.0" y="-1039.0" width="1107.0" height="462.99999999999994" fill="none" stroke="red" stroke-width="10.0" /><rect x="0.0" y="-465.0" width="1127.0" height="294.00000000000006" fill="none" stroke="red" stroke-width="10.0" />
</svg>
