<svg xmlns="http://www.w3.org/2000/svg"
  viewBox="-50 -520.138 1872 459.197">
  <rect x="-50" y="-520.138" width="1872" height="459.197" fill="white"/>
  <path d="M 54 -432 L 102 -436 L 208 -437 L 280 -437 L 358 -422 L 386 -417 L 409 -410.5 L 432 -404 L 454 -395 L 502 -384 L 541 -367 L 580 -350 L 606 -329 L 666 -284 L 666 -232 L 666 -206 L 652 -185 L 648 -178 L 620 -177 L 584 -177 L 508 -192 L 496 -194 L 479 -197.5 L 462 -201 L 440 -206 L 466 -222 L 480 -240 L 488 -251 L 491 -259.5 L 494 -268 L 492 -276 L 480 -302 L 437 -326.5 L 394 -351 L 318 -367 L 238 -384 L 159 -393.5 L 80 -403 L 0 -417 Z M 1558 -137 L 1572 -235 L 1406 -317 L 1326 -357 L 1248 -377.5 L 1170 -398 L 1088 -400 L 1008 -403 L 958 -378 L 906 -357 L 900 -304 L 898 -273 L 942 -239 L 998 -196 L 1004 -195 L 938 -195 L 890 -204 L 842 -213 L 808 -226 L 764 -244 L 734 -292 L 728 -309 L 724 -326 L 720 -343 L 720 -361 L 720 -419 L 786 -445 L 852 -472 L 964 -470 L 1010 -470 L 1062 -464.5 L 1114 -459 L 1168 -449 L 1224 -437 L 1280 -422 L 1336 -407 L 1392 -390 L 1450 -369 L 1511 -337.5 L 1572 -306 L 1638 -260 L 1772 -167 L 1772 -126 L 1772 -110 L 1738 -111 L 1716 -111 L 1687 -113.5 L 1658 -116 L 1622 -123 L 1610 -125 L 1595 -129 L 1580 -133 Z" fill="black" fill-opacity="0.25" stroke="black" stroke-width="4"/>
  <rect x="0" y="-437" width="666" height="260" fill="none" stroke="red" stroke-width="10" /><rect x="720" y="-472" width="1052" height="362" fill="none" stroke="red" stroke-width="10" />
</svg>
