<svg xmlns="http://www.w3.org/2000/svg"
  viewBox="-50.0 -520.1379310344828 1872.0 459.1967545638945">
  <rect x="-50.0" y="-520.1379310344828" width="1872.0" height="459.1967545638945" fill="white"/>
  <path d="M 54.0 -432.0 L 102.0 -436.0 L 208.0 -437.0 L 280.0 -437.0 L 358.0 -422.0 L 386.0 -417.0 L 409.0 -410.5 L 432.0 -404.0 L 454.0 -395.0 L 502.0 -384.0 L 541.0 -367.0 L 580.0 -350.0 L 606.0 -329.0 L 666.0 -284.0 L 666.0 -232.0 L 666.0 -206.0 L 652.0 -185.0 L 648.0 -178.0 L 620.0 -177.0 L 584.0 -177.0 L 508.0 -192.0 L 496.0 -194.0 L 479.0 -197.5 L 462.0 -201.0 L 440.0 -206.0 L 466.0 -222.0 L 480.0 -240.0 L 488.0 -251.0 L 491.0 -259.5 L 494.0 -268.0 L 492.0 -276.0 L 480.0 -302.0 L 437.0 -326.5 L 394.0 -351.0 L 318.0 -367.0 L 238.0 -384.0 L 159.0 -393.5 L 80.0 -403.0 L 0.0 -417.0 Z M 1558.0 -137.0 L 1572.0 -235.0 L 1406.0 -317.0 L 1326.0 -357.0 L 1248.0 -377.5 L 1170.0 -398.0 L 1088.0 -400.0 L 1008.0 -403.0 L 958.0 -378.0 L 906.0 -357.0 L 900.0 -304.0 L 898.0 -273.0 L 942.0 -239.0 L 998.0 -196.0 L 1004.0 -195.0 L 938.0 -195.0 L 890.0 -204.0 L 842.0 -213.0 L 808.0 -226.0 L 764.0 -244.0 L 734.0 -292.0 L 728.0 -309.0 L 724.0 -326.0 L 720.0 -343.0 L 720.0 -361.0 L 720.0 -419.0 L 786.0 -445.0 L 852.0 -472.0 L 964.0 -470.0 L 1010.0 -470.0 L 1062.0 -464.5 L 1114.0 -459.0 L 1168.0 -449.0 L 1224.0 -437.0 L 1280.0 -422.0 L 1336.0 -407.0 L 1392.0 -390.0 L 1450.0 -369.0 L 1511.0 -337.5 L 1572.0 -306.0 L 1638.0 -260.0 L 1772.0 -167.0 L 1772.0 -126.0 L 1772.0 -110.0 L 1738.0 -111.0 L 1716.0 -111.0 L 1687.0 -113.5 L 1658.0 -116.0 L 1622.0 -123.0 L 1610.0 -125.0 L 1595.0 -129.0 L 1580.0 -133.0 Z" fill="black" fill-opacity="0.25" stroke="black" stroke-width="4.0"/>
  <rect x="0.0" y="-437.0" width="666.0" height="260.0" fill="none" stroke="red" stroke-width="10.0" /><rect x="720.0" y="-472.0" width="1052.0" height="362.0" fill="none" stroke="red" stroke-width="10.0" />
</svg>
