<svg xmlns="http://www.w3.org/2000/svg"
  viewBox="-434.0 -1220.0 997.0 433.2307692307693">
  <rect x="-434.0" y="-1220.0" width="997.0" height="433.2307692307693" fill="white"/>
  <path d="M 122.0 -1138.0 L 127.0 -1133.0 L 129.0 -1129.0 L 135.0 -1121.0 L 137.0 -1112.5 L 139.0 -1104.0 L 143.0 -1096.0 L 156.0 -1060.0 L 159.0 -1060.0 L 161.0 -1058.0 L 162.0 -1057.0 L 164.0 -1057.0 L 166.0 -1057.0 L 169.0 -1054.0 L 174.0 -1035.0 L -84.0 -1037.0 L -80.0 -1032.0 L -78.0 -1027.0 L -72.0 -1019.0 L -69.5 -1010.5 L -67.0 -1002.0 L -64.0 -994.0 L -61.0 -986.0 L -58.5 -978.5 L -56.0 -971.0 L -51.0 -963.0 L -40.0 -963.0 L -24.0 -963.0 L -12.0 -959.0 L -6.0 -952.0 L 0.0 -933.0 L -259.0 -937.0 L -253.0 -931.0 L -251.0 -925.0 L -245.0 -917.0 L -242.5 -909.0 L -240.0 -901.0 L -237.0 -893.0 L -223.0 -859.0 L -219.0 -843.0 L -219.0 -842.0 L -231.0 -841.0 L -237.0 -841.0 L -245.0 -840.5 L -253.0 -840.0 L -261.0 -838.0 L -282.0 -834.0 L -305.0 -843.0 L -308.0 -844.0 L -311.5 -846.5 L -315.0 -849.0 L -323.0 -855.0 L -356.0 -927.0 L -364.0 -943.0 L -381.0 -952.0 L -384.0 -968.0 L -203.0 -965.0 L -153.0 -965.0 L -181.0 -1027.0 L -190.0 -1045.0 L -207.0 -1052.0 L -209.0 -1068.0 L 53.0 -1063.0 L 16.0 -1146.0 L -1.0 -1154.0 L -4.0 -1170.0 L 178.0 -1166.0 L 296.0 -1165.0 L 340.0 -1165.0 L 356.0 -1165.0 L 367.0 -1160.0 L 369.0 -1159.0 L 370.5 -1158.5 L 372.0 -1158.0 L 375.0 -1155.0 L 380.0 -1136.0 Z M 439.0 -1121.0 L 439.0 -1137.0 L 450.0 -1147.5 L 461.0 -1158.0 L 475.0 -1158.0 L 491.0 -1158.0 L 502.0 -1147.0 L 513.0 -1136.0 L 513.0 -1121.0 L 513.0 -1105.0 L 502.0 -1095.0 L 491.0 -1085.0 L 475.0 -1085.0 L 461.0 -1085.0 L 450.0 -1095.0 L 439.0 -1105.0 Z" fill="black" fill-opacity="0.25" stroke="black" stroke-width="4.0"/>
  <rect x="-373.2" y="-947.8" width="373.2" height="110.99999999999999" fill="none" stroke="red" stroke-width="10.0" /><rect x="-384.0" y="-1058.8999999999999" width="558.0" height="111.09999999999998" fill="none" stroke="red" stroke-width="10.0" /><rect x="-209.0" y="-1170.0" width="722.0" height="111.09999999999998" fill="none" stroke="red" stroke-width="10.0" />
</svg>
