<svg xmlns="http://www.w3.org/2000/svg"
  viewBox="-429 -1216 865 433.231">
  <rect x="-429" y="-1216" width="865" height="433.231" fill="white"/>
  <path d="M 128 -1134 L 133 -1129 L 134 -1125 L 140 -1117 L 142.5 -1108.5 L 145 -1100 L 148 -1092 L 162 -1056 L 165 -1056 L 167 -1054 L 168 -1053 L 170 -1053 L 172 -1053 L 175 -1050 L 180 -1031 L -78 -1033 L -74 -1028 L -72 -1023 L -66 -1015 L -63.5 -1006.5 L -61 -998 L -58 -990 L -55 -982 L -52.5 -974.5 L -50 -967 L -46 -959 L -35 -959 L -19 -959 L -6 -955 L 0 -948 L 6 -929 L -254 -933 L -248 -927 L -246 -921 L -240 -913 L -237.5 -905 L -235 -897 L -232 -889 L -217 -855 L -213 -839 L -213 -838 L -225 -837 L -231 -837 L -239 -836.5 L -247 -836 L -255 -834 L -276 -830 L -299 -839 L -302 -840 L -306 -842.5 L -310 -845 L -318 -851 L -350 -923 L -358 -939 L -376 -948 L -379 -964 L -197 -961 L -147 -961 L -175 -1023 L -185 -1041 L -202 -1048 L -203 -1064 L 59 -1059 L 21 -1142 L 4 -1150 L 1 -1166 L 184 -1162 L 301 -1161 L 345 -1161 L 361 -1161 L 373 -1156 L 375 -1155 L 376.5 -1154.5 L 378 -1154 L 381 -1151 L 386 -1132 Z" fill="black" fill-opacity="0.25" stroke="black" stroke-width="4"/>
  <rect x="-367.7" y="-943.8" width="373.7" height="111" fill="none" stroke="red" stroke-width="10" /><rect x="-379" y="-1054.9" width="559" height="111.1" fill="none" stroke="red" stroke-width="10" /><rect x="-203" y="-1166" width="589" height="111.1" fill="none" stroke="red" stroke-width="10" />
</svg>
