<svg xmlns="http://www.w3.org/2000/svg"
  viewBox="-434 -1220 997 433.231">
  <rect x="-434" y="-1220" width="997" height="433.231" fill="white"/>
  <path d="M 122 -1138 L 127 -1133 L 129 -1129 L 135 -1121 L 137 -1112.5 L 139 -1104 L 143 -1096 L 156 -1060 L 159 -1060 L 161 -1058 L 162 -1057 L 164 -1057 L 166 -1057 L 169 -1054 L 174 -1035 L -84 -1037 L -80 -1032 L -78 -1027 L -72 -1019 L -69.5 -1010.5 L -67 -1002 L -64 -994 L -61 -986 L -58.5 -978.5 L -56 -971 L -51 -963 L -40 -963 L -24 -963 L -12 -959 L -6 -952 L 0 -933 L -259 -937 L -253 -931 L -251 -925 L -245 -917 L -242.5 -909 L -240 -901 L -237 -893 L -223 -859 L -219 -843 L -219 -842 L -231 -841 L -237 -841 L -245 -840.5 L -253 -840 L -261 -838 L -282 -834 L -305 -843 L -308 -844 L -311.5 -846.5 L -315 -849 L -323 -855 L -356 -927 L -364 -943 L -381 -952 L -384 -968 L -203 -965 L -153 -965 L -181 -1027 L -190 -1045 L -207 -1052 L -209 -1068 L 53 -1063 L 16 -1146 L -1 -1154 L -4 -1170 L 178 -1166 L 296 -1165 L 340 -1165 L 356 -1165 L 367 -1160 L 369 -1159 L 370.5 -1158.5 L 372 -1158 L 375 -1155 L 380 -1136 Z M 439 -1121 L 439 -1137 L 450 -1147.5 L 461 -1158 L 475 -1158 L 491 -1158 L 502 -1147 L 513 -1136 L 513 -1121 L 513 -1105 L 502 -1095 L 491 -1085 L 475 -1085 L 461 -1085 L 450 -1095 L 439 -1105 Z" fill="black" fill-opacity="0.25" stroke="black" stroke-width="4"/>
  <rect x="-373.2" y="-947.8" width="373.2" height="111" fill="none" stroke="red" stroke-width="10" /><rect x="-384" y="-1058.9" width="558" height="111.1" fill="none" stroke="red" stroke-width="10" /><rect x="-209" y="-1170" width="722" height="111.1" fill="none" stroke="red" stroke-width="10" />
</svg>
