<svg xmlns="http://www.w3.org/2000/svg"
  viewBox="-580 -1217 1010 433.231">
  <rect x="-580" y="-1217" width="1010" height="433.231" fill="white"/>
  <path d="M 122 -1135 L 127 -1130 L 129 -1126 L 135 -1118 L 137 -1109.5 L 139 -1101 L 143 -1093 L 156 -1057 L 159 -1057 L 161 -1055 L 162 -1054 L 164 -1054 L 166 -1054 L 169 -1051 L 174 -1032 L -84 -1034 L -80 -1029 L -78 -1024 L -72 -1016 L -69.5 -1007.5 L -67 -999 L -64 -991 L -61 -983 L -58.5 -975.5 L -56 -968 L -51 -960 L -40 -960 L -24 -960 L -12 -956 L -6 -949 L 0 -930 L -259 -934 L -253 -928 L -251 -922 L -245 -914 L -242.5 -906 L -240 -898 L -237 -890 L -223 -856 L -219 -840 L -219 -839 L -231 -838 L -237 -838 L -245 -837.5 L -253 -837 L -261 -835 L -282 -831 L -305 -840 L -308 -841 L -311.5 -843.5 L -315 -846 L -323 -852 L -356 -924 L -364 -940 L -381 -949 L -384 -965 L -203 -962 L -153 -962 L -181 -1024 L -190 -1042 L -207 -1049 L -209 -1065 L 53 -1060 L 16 -1143 L -1 -1151 L -4 -1167 L 178 -1163 L 296 -1162 L 340 -1162 L 356 -1162 L 367 -1157 L 369 -1156 L 370.5 -1155.5 L 372 -1155 L 375 -1152 L 380 -1133 Z M -530 -926 L -530 -942 L -519 -952.5 L -508 -963 L -494 -963 L -478 -963 L -467 -952.5 L -456 -942 L -456 -926 L -456 -910 L -467 -900 L -478 -890 L -494 -890 L -508 -890 L -519 -900 L -530 -910 Z" fill="black" fill-opacity="0.25" stroke="black" stroke-width="4"/>
  <rect x="-530" y="-944.8" width="530" height="111" fill="none" stroke="red" stroke-width="10" /><rect x="-527" y="-1055.9" width="701" height="111.1" fill="none" stroke="red" stroke-width="10" /><rect x="-209" y="-1167" width="589" height="111.1" fill="none" stroke="red" stroke-width="10" />
</svg>
