<svg xmlns="http://www.w3.org/2000/svg"
  viewBox="-434 -1231 864 455.231">
  <rect x="-434" y="-1231" width="864" height="455.231" fill="white"/>
  <path d="M 122 -1127 L 127 -1122 L 129 -1118 L 135 -1110 L 137 -1101.5 L 139 -1093 L 143 -1085 L 156 -1049 L 159 -1049 L 161 -1047 L 162 -1046 L 164 -1046 L 166 -1046 L 169 -1043 L 174 -1024 L -84 -1026 L -80 -1021 L -78 -1016 L -72 -1008 L -69.5 -999.5 L -67 -991 L -64 -983 L -61 -975 L -58.5 -967.5 L -56 -960 L -51 -952 L -40 -952 L -24 -952 L -12 -948 L -6 -941 L 0 -922 L -259 -926 L -253 -920 L -251 -914 L -245 -906 L -242.5 -898 L -240 -890 L -237 -882 L -223 -848 L -219 -832 L -219 -831 L -231 -830 L -237 -830 L -245 -829.5 L -253 -829 L -261 -827 L -282 -823 L -305 -832 L -308 -833 L -311.5 -835.5 L -315 -838 L -323 -844 L -356 -916 L -364 -932 L -381 -941 L -384 -957 L -203 -954 L -153 -954 L -181 -1016 L -190 -1034 L -207 -1041 L -209 -1057 L 53 -1052 L 16 -1135 L -1 -1143 L -4 -1159 L 178 -1155 L 296 -1154 L 340 -1154 L 356 -1154 L 367 -1149 L 369 -1148 L 370.5 -1147.5 L 372 -1147 L 375 -1144 L 380 -1125 Z M -161 -1143 L -161 -1159 L -150 -1170 L -139 -1181 L -125 -1181 L -109 -1181 L -98 -1170 L -87 -1159 L -87 -1143 L -87 -1127 L -98 -1117 L -109 -1107 L -125 -1107 L -139 -1107 L -150 -1117 L -161 -1127 Z" fill="black" fill-opacity="0.25" stroke="black" stroke-width="4"/>
  <rect x="-381.6" y="-944.2" width="381.6" height="118.4" fill="none" stroke="red" stroke-width="10" /><rect x="-384" y="-1062.6" width="558" height="118.4" fill="none" stroke="red" stroke-width="10" /><rect x="-161" y="-1181" width="541" height="118.4" fill="none" stroke="red" stroke-width="10" />
</svg>
