<svg xmlns="http://www.w3.org/2000/svg"
  viewBox="-50.0 -1311.1666666666667 1252.0 1266.1666666666667">
  <rect x="-50.0" y="-1311.1666666666667" width="1252.0" height="1266.1666666666667" fill="white"/>
  <path d="M 717.0 -691.0 L 711.0 -678.0 L 705.0 -659.5 L 699.0 -641.0 L 692.0 -616.0 L 830.0 -610.0 L 1061.0 -601.0 L 1106.0 -555.0 L 964.0 -555.0 L 857.5 -555.0 L 751.0 -555.0 L 672.0 -556.0 L 655.0 -519.0 L 626.0 -490.0 L 615.0 -476.0 L 583.0 -466.0 L 566.0 -461.0 L 551.0 -460.0 L 536.0 -459.0 L 522.0 -458.0 L 500.0 -458.0 L 491.0 -461.0 L 478.0 -466.0 L 486.0 -475.0 L 511.0 -511.0 L 527.0 -561.0 L 514.0 -561.0 L 314.0 -570.0 L 216.0 -619.0 L 132.0 -658.0 L 30.0 -783.0 L 22.0 -797.0 L 17.0 -824.0 L 4.0 -897.0 L 0.0 -906.0 L 31.0 -910.0 L 69.0 -916.0 L 107.0 -921.0 L 122.0 -921.0 L 165.0 -921.0 L 194.0 -902.0 L 202.0 -897.0 L 202.0 -877.0 L 199.0 -832.0 L 199.0 -818.0 L 203.0 -811.0 L 295.0 -680.0 L 506.0 -638.0 L 514.0 -635.0 L 524.5 -634.0 L 535.0 -633.0 L 547.0 -632.0 L 552.0 -648.0 L 557.0 -660.0 L 562.0 -672.0 L 567.0 -683.0 L 575.0 -700.0 L 605.0 -700.0 L 666.0 -694.0 L 679.0 -693.0 L 691.5 -692.0 L 704.0 -691.0 Z M 763.0 -1031.0 L 757.0 -1019.0 L 750.5 -1000.5 L 744.0 -982.0 L 738.0 -957.0 L 875.0 -950.0 L 1106.0 -941.0 L 1152.0 -896.0 L 1009.0 -896.0 L 903.0 -896.0 L 797.0 -896.0 L 717.0 -897.0 L 700.0 -859.0 L 672.0 -830.0 L 661.0 -816.0 L 628.0 -806.0 L 610.0 -801.0 L 596.0 -800.0 L 582.0 -799.0 L 567.0 -799.0 L 545.0 -799.0 L 536.0 -802.0 L 523.0 -808.0 L 531.0 -816.0 L 556.0 -852.0 L 572.0 -902.0 L 560.0 -902.0 L 360.0 -911.0 L 261.0 -960.0 L 177.0 -999.0 L 75.0 -1124.0 L 67.0 -1138.0 L 62.0 -1164.0 L 49.0 -1238.0 L 45.0 -1247.0 L 76.0 -1251.0 L 114.0 -1257.0 L 152.0 -1262.0 L 167.0 -1261.0 L 210.0 -1260.0 L 239.0 -1242.0 L 246.0 -1238.0 L 247.0 -1218.0 L 244.0 -1172.0 L 244.0 -1158.0 L 249.0 -1152.0 L 342.0 -1021.0 L 552.0 -978.0 L 560.0 -975.0 L 570.0 -974.5 L 580.0 -974.0 L 592.0 -972.0 L 597.0 -988.0 L 602.0 -1000.0 L 607.0 -1012.0 L 613.0 -1024.0 L 621.0 -1041.0 L 650.0 -1041.0 L 711.0 -1035.0 L 724.0 -1033.0 L 737.0 -1032.0 L 750.0 -1031.0 Z M 727.0 -328.0 L 721.0 -316.0 L 714.5 -297.5 L 708.0 -279.0 L 702.0 -254.0 L 839.0 -247.0 L 1070.0 -238.0 L 1116.0 -193.0 L 974.0 -193.0 L 867.5 -193.0 L 761.0 -193.0 L 681.0 -194.0 L 664.0 -156.0 L 636.0 -127.0 L 625.0 -113.0 L 592.0 -103.0 L 575.0 -98.0 L 560.0 -97.0 L 545.0 -96.0 L 531.0 -95.0 L 509.0 -95.0 L 500.0 -99.0 L 487.0 -105.0 L 496.0 -113.0 L 521.0 -149.0 L 536.0 -199.0 L 523.0 -199.0 L 323.0 -208.0 L 225.0 -257.0 L 141.0 -296.0 L 39.0 -421.0 L 31.0 -435.0 L 27.0 -461.0 L 14.0 -535.0 L 9.0 -544.0 L 40.0 -548.0 L 78.0 -553.0 L 116.0 -558.0 L 131.0 -558.0 L 174.0 -557.0 L 203.0 -539.0 L 210.0 -535.0 L 211.0 -514.0 L 208.0 -469.0 L 208.0 -455.0 L 212.0 -449.0 L 304.0 -318.0 L 516.0 -275.0 L 524.0 -272.0 L 534.0 -271.5 L 544.0 -271.0 L 556.0 -269.0 L 561.0 -285.0 L 566.0 -297.0 L 571.0 -309.0 L 577.0 -321.0 L 585.0 -338.0 L 614.0 -338.0 L 675.0 -332.0 L 687.0 -330.0 L 701.0 -329.0 L 715.0 -328.0 Z" fill="black" fill-opacity="0.25" stroke="black" stroke-width="4.0"/>
  <rect x="0.0" y="-921.0" width="1106.0" height="463.0" fill="none" stroke="red" stroke-width="10.0" /><rect x="45.0" y="-1262.0" width="1107.0" height="462.99999999999994" fill="none" stroke="red" stroke-width="10.0" /><rect x="9.0" y="-558.0" width="1107.0000000000002" height="463.00000000000006" fill="none" stroke="red" stroke-width="10.0" />
</svg>
