<svg xmlns="http://www.w3.org/2000/svg"
  viewBox="-50 -1311.167 1252 1266.167">
  <rect x="-50" y="-1311.167" width="1252" height="1266.167" fill="white"/>
  <path d="M 717 -691 L 711 -678 L 705 -659.5 L 699 -641 L 692 -616 L 830 -610 L 1061 -601 L 1106 -555 L 964 -555 L 857.5 -555 L 751 -555 L 672 -556 L 655 -519 L 626 -490 L 615 -476 L 583 -466 L 566 -461 L 551 -460 L 536 -459 L 522 -458 L 500 -458 L 491 -461 L 478 -466 L 486 -475 L 511 -511 L 527 -561 L 514 -561 L 314 -570 L 216 -619 L 132 -658 L 30 -783 L 22 -797 L 17 -824 L 4 -897 L 0 -906 L 31 -910 L 69 -916 L 107 -921 L 122 -921 L 165 -921 L 194 -902 L 202 -897 L 202 -877 L 199 -832 L 199 -818 L 203 -811 L 295 -680 L 506 -638 L 514 -635 L 524.5 -634 L 535 -633 L 547 -632 L 552 -648 L 557 -660 L 562 -672 L 567 -683 L 575 -700 L 605 -700 L 666 -694 L 679 -693 L 691.5 -692 L 704 -691 Z M 763 -1031 L 757 -1019 L 750.5 -1000.5 L 744 -982 L 738 -957 L 875 -950 L 1106 -941 L 1152 -896 L 1009 -896 L 903 -896 L 797 -896 L 717 -897 L 700 -859 L 672 -830 L 661 -816 L 628 -806 L 610 -801 L 596 -800 L 582 -799 L 567 -799 L 545 -799 L 536 -802 L 523 -808 L 531 -816 L 556 -852 L 572 -902 L 560 -902 L 360 -911 L 261 -960 L 177 -999 L 75 -1124 L 67 -1138 L 62 -1164 L 49 -1238 L 45 -1247 L 76 -1251 L 114 -1257 L 152 -1262 L 167 -1261 L 210 -1260 L 239 -1242 L 246 -1238 L 247 -1218 L 244 -1172 L 244 -1158 L 249 -1152 L 342 -1021 L 552 -978 L 560 -975 L 570 -974.5 L 580 -974 L 592 -972 L 597 -988 L 602 -1000 L 607 -1012 L 613 -1024 L 621 -1041 L 650 -1041 L 711 -1035 L 724 -1033 L 737 -1032 L 750 -1031 Z M 727 -328 L 721 -316 L 714.5 -297.5 L 708 -279 L 702 -254 L 839 -247 L 1070 -238 L 1116 -193 L 974 -193 L 867.5 -193 L 761 -193 L 681 -194 L 664 -156 L 636 -127 L 625 -113 L 592 -103 L 575 -98 L 560 -97 L 545 -96 L 531 -95 L 509 -95 L 500 -99 L 487 -105 L 496 -113 L 521 -149 L 536 -199 L 523 -199 L 323 -208 L 225 -257 L 141 -296 L 39 -421 L 31 -435 L 27 -461 L 14 -535 L 9 -544 L 40 -548 L 78 -553 L 116 -558 L 131 -558 L 174 -557 L 203 -539 L 210 -535 L 211 -514 L 208 -469 L 208 -455 L 212 -449 L 304 -318 L 516 -275 L 524 -272 L 534 -271.5 L 544 -271 L 556 -269 L 561 -285 L 566 -297 L 571 -309 L 577 -321 L 585 -338 L 614 -338 L 675 -332 L 687 -330 L 701 -329 L 715 -328 Z" fill="black" fill-opacity="0.25" stroke="black" stroke-width="4"/>
  <rect x="0" y="-921" width="1106" height="463" fill="none" stroke="red" stroke-width="10" /><rect x="45" y="-1262" width="1107" height="463" fill="none" stroke="red" stroke-width="10" /><rect x="9" y="-558" width="1107" height="463" fill="none" stroke="red" stroke-width="10" />
</svg>
