<svg xmlns="http://www.w3.org/2000/svg"
  viewBox="-50.00013950892857 -490.0 438.57142857092856 364.0">
  <rect x="-50.00013950892857" y="-490.0" width="438.57142857092856" height="364.0" fill="white"/>
  <path d="M 306.571289062 -203.0 L 295.571289062 -189.0 L 272.571289062 -182.0 L 249.571289062 -176.0 L 219.571289062 -176.0 L 197.571289062 -176.0 L 178.071289062 -178.5 L 158.571289062 -181.0 L 136.571289062 -183.0 L 114.571289062 -186.0 L 101.571289062 -191.0 L 88.5712890625 -196.0 L 80.5712890625 -199.0 L 34.5712890625 -218.0 L 3.5712890625 -234.0 L 0.5712890625 -238.0 L -1.4287109375 -241.0 L 3.5712890625 -245.0 L 4.5712890625 -246.0 L 16.5712890625 -246.0 L 24.5712890625 -246.0 L 33.0712890625 -246.0 L 41.5712890625 -246.0 L 53.5712890625 -243.0 L 119.571289062 -234.0 L 131.571289062 -234.0 L 150.571289062 -234.0 L 158.571289062 -242.0 L 164.571289062 -248.0 L 164.571289062 -259.0 L 164.571289062 -276.0 L 137.571289062 -321.0 L 111.571289062 -366.0 L 111.571289062 -390.0 L 111.571289062 -411.0 L 127.571289062 -426.0 L 133.571289062 -432.0 L 161.571289062 -437.0 L 174.571289062 -439.0 L 189.071289062 -439.5 L 203.571289062 -440.0 L 219.571289062 -440.0 L 236.571289062 -440.0 L 254.571289062 -440.0 L 272.571289062 -440.0 L 291.571289062 -437.0 L 327.571289062 -432.0 L 328.571289062 -431.0 L 337.571289062 -414.0 L 338.571289062 -404.0 L 338.571289062 -390.0 L 319.571289062 -390.0 L 310.571289062 -390.0 L 291.571289062 -394.0 L 272.571289062 -399.0 L 264.571289062 -399.0 L 258.571289062 -399.0 L 258.571289062 -394.0 L 258.571289062 -375.0 L 291.571289062 -324.0 L 324.571289062 -273.0 L 324.571289062 -245.0 L 323.571289062 -224.0 Z" fill="black" fill-opacity="0.25" stroke="black" stroke-width="4.0"/>
  <rect x="-1.0" y="-440.0" width="340.0" height="264.0" fill="none" stroke="red" stroke-width="10.0" />
</svg>
