<svg xmlns="http://www.w3.org/2000/svg"
  viewBox="-50 -490 438.571 364">
  <rect x="-50" y="-490" width="438.571" height="364" fill="white"/>
  <path d="M 306.571 -203 L 295.571 -189 L 272.571 -182 L 249.571 -176 L 219.571 -176 L 197.571 -176 L 178.071 -178.5 L 158.571 -181 L 136.571 -183 L 114.571 -186 L 101.571 -191 L 88.571 -196 L 80.571 -199 L 34.571 -218 L 3.571 -234 L 0.571 -238 L -1.429 -241 L 3.571 -245 L 4.571 -246 L 16.571 -246 L 24.571 -246 L 33.071 -246 L 41.571 -246 L 53.571 -243 L 119.571 -234 L 131.571 -234 L 150.571 -234 L 158.571 -242 L 164.571 -248 L 164.571 -259 L 164.571 -276 L 137.571 -321 L 111.571 -366 L 111.571 -390 L 111.571 -411 L 127.571 -426 L 133.571 -432 L 161.571 -437 L 174.571 -439 L 189.071 -439.5 L 203.571 -440 L 219.571 -440 L 236.571 -440 L 254.571 -440 L 272.571 -440 L 291.571 -437 L 327.571 -432 L 328.571 -431 L 337.571 -414 L 338.571 -404 L 338.571 -390 L 319.571 -390 L 310.571 -390 L 291.571 -394 L 272.571 -399 L 264.571 -399 L 258.571 -399 L 258.571 -394 L 258.571 -375 L 291.571 -324 L 324.571 -273 L 324.571 -245 L 323.571 -224 Z" fill="black" fill-opacity="0.25" stroke="black" stroke-width="4"/>
  <rect x="-1" y="-440" width="340" height="264" fill="none" stroke="red" stroke-width="10" />
</svg>
