<svg xmlns="http://www.w3.org/2000/svg"
  viewBox="28.8 -601.286 1139.304 876.286">
  <rect x="28.8" y="-601.286" width="1139.304" height="876.286" fill="white"/>
  <path d="M 868 217 L 860.667 211 L 860.333 205.667 L 867 201 L 873.667 196.333 L 882 194 L 892 194 L 902.667 194 L 917.833 184 L 937.5 164 L 957.167 144 L 970 120 L 976 92 L 986 43.333 L 960.333 3.333 L 899 -28 L 833 -60.667 L 748.333 -82.333 L 645 -93 L 627.667 -94.333 L 608 -95 L 586 -95 L 564 -95 L 551.667 -95.333 L 549 -96 L 539.667 -99.333 L 536.167 -105 L 538.5 -113 L 540.833 -121 L 545.667 -125.333 L 553 -126 L 560.333 -126.667 L 578.5 -126.167 L 607.5 -124.5 L 636.5 -122.833 L 668 -119.667 L 702 -115 L 741.333 -109 L 781.167 -101 L 821.5 -91 L 861.833 -81 L 899.667 -69.333 L 935 -56 L 974.333 -40.667 L 1005.667 -25.167 L 1029 -9.5 L 1052.333 6.167 L 1073.667 26.667 L 1093 52 L 1112.333 78.667 L 1120.5 105 L 1117.5 131 L 1114.5 157 L 1103 177.333 L 1083 192 L 1065.667 205.333 L 1045.5 214.167 L 1022.5 218.5 L 999.5 222.833 L 977.333 225 L 956 225 L 934.667 225 L 920 224.833 L 912 224.5 L 904 224.167 L 889.333 221.667 Z M 409 -208 L 401.667 -214 L 401.333 -219.5 L 408 -224.5 L 414.667 -229.5 L 423 -232 L 433 -232 L 443.667 -232 L 458.833 -241.667 L 478.5 -261 L 498.167 -280.333 L 511 -304.333 L 517 -333 L 527 -381.667 L 501.333 -421.667 L 440 -453 L 374.667 -485.667 L 290 -507 L 186 -517 L 168 -519 L 148.333 -519.833 L 127 -519.5 L 105.667 -519.167 L 93.333 -519.667 L 90 -521 L 80.667 -524.333 L 77.167 -530 L 79.5 -538 L 81.833 -546 L 86.667 -550.333 L 94 -551 L 101.333 -551.667 L 119.333 -551.167 L 148 -549.5 L 176.667 -547.833 L 208.333 -544.667 L 243 -540 L 282.333 -534 L 322.167 -526 L 362.5 -516 L 402.833 -506 L 440.667 -494.333 L 476 -481 L 515.333 -465.667 L 546.667 -450.167 L 570 -434.5 L 593.333 -418.833 L 614.667 -398 L 634 -372 L 653.333 -345.333 L 661.5 -319.167 L 658.5 -293.5 L 655.5 -267.833 L 644.333 -248 L 625 -234 L 607.667 -220.667 L 587.333 -211.667 L 564 -207 L 540.667 -202.333 L 518.333 -200 L 497 -200 L 466 -200 L 466 -200 L 453.5 -200 L 445.167 -200 L 430.333 -202.667 Z" fill="black" fill-opacity="0.25" stroke="black" stroke-width="4"/>
  <rect x="536" y="-127" width="585" height="352" fill="none" stroke="red" stroke-width="10" /><rect x="77" y="-552" width="584" height="352" fill="none" stroke="red" stroke-width="10" />
</svg>
