<svg xmlns="http://www.w3.org/2000/svg"
  viewBox="-112 -1039.2 394 500.467">
  <rect x="-112" y="-1039.2" width="394" height="500.467" fill="white"/>
  <path d="M 59.5 -988 L 41.167 -986 L 20 -978.833 L -4 -966.5 L -28 -954.167 L -47.333 -934 L -62 -906 L -56 -903 L -24.667 -928.333 L 0.333 -944 L 19 -950 L 37.667 -956 L 53.667 -959.333 L 67 -960 L 80.333 -960.667 L 94.667 -960.333 L 110 -959 L 125.333 -957.667 L 141.667 -953.333 L 159 -946 L 176.333 -938.667 L 198.333 -924.333 L 225 -903 L 232 -907 L 214.667 -937 L 194.833 -957 L 172.5 -967 L 150.167 -977 L 130.333 -983.5 L 113 -986.5 L 95.667 -989.5 L 77.833 -990 Z M 71 -883 L 71.667 -891.667 L 77 -895.667 L 87 -895 L 97 -894.333 L 102.333 -890.333 L 103 -883 L 103 -615 L 103 -615 L 103 -615 L 103 -600 L 99 -591.333 L 92.667 -587.667 L 84 -589 L 75.333 -590.333 L 71 -594 L 71 -600 L 71 -868 L 71 -868 L 71 -868 Z" fill="black" fill-opacity="0.25" stroke="black" stroke-width="4"/>
  <rect x="-62" y="-990" width="294" height="87" fill="none" stroke="red" stroke-width="10" /><rect x="71" y="-896" width="32" height="308" fill="none" stroke="red" stroke-width="10" />
</svg>
