<svg xmlns="http://www.w3.org/2000/svg"
  viewBox="-112.0 -1039.2 394.0 500.466583913405">
  <rect x="-112.0" y="-1039.2" width="394.0" height="500.466583913405" fill="white"/>
  <path d="M 59.5 -988.0 L 41.1669921875 -986.0 L 20.0 -978.833007812 L -4.0 -966.5 L -28.0 -954.166992188 L -47.3330078125 -934.0 L -62.0 -906.0 L -56.0 -903.0 L -24.6669921875 -928.333007812 L 0.3330078125 -944.0 L 19.0 -950.0 L 37.6669921875 -956.0 L 53.6669921875 -959.333007812 L 67.0 -960.0 L 80.3330078125 -960.666992188 L 94.6669921875 -960.333007812 L 110.0 -959.0 L 125.333007812 -957.666992188 L 141.666992188 -953.333007812 L 159.0 -946.0 L 176.333007812 -938.666992188 L 198.333007812 -924.333007812 L 225.0 -903.0 L 232.0 -907.0 L 214.666992188 -937.0 L 194.833007812 -957.0 L 172.5 -967.0 L 150.166992188 -977.0 L 130.333007812 -983.5 L 113.0 -986.5 L 95.6669921875 -989.5 L 77.8330078125 -990.0 Z M 71.0 -883.0 L 71.6669921875 -891.666992188 L 77.0 -895.666992188 L 87.0 -895.0 L 97.0 -894.333007812 L 102.333007812 -890.333007812 L 103.0 -883.0 L 103.0 -615.0 L 103.0 -615.0 L 103.0 -615.0 L 103.0 -600.0 L 99.0 -591.333007812 L 92.6669921875 -587.666992188 L 84.0 -589.0 L 75.3330078125 -590.333007812 L 71.0 -594.0 L 71.0 -600.0 L 71.0 -868.0 L 71.0 -868.0 L 71.0 -868.0 Z" fill="black" fill-opacity="0.25" stroke="black" stroke-width="4.0"/>
  <rect x="-62.0" y="-990.0" width="294.00000000000006" height="86.99999999999997" fill="none" stroke="red" stroke-width="10.0" /><rect x="71.0" y="-896.0" width="32.0" height="308.00000000000006" fill="none" stroke="red" stroke-width="10.0" />
</svg>
