<svg xmlns="http://www.w3.org/2000/svg"
  viewBox="-151 -862 507 908.267">
  <rect x="-151" y="-862" width="507" height="908.267" fill="white"/>
  <path d="M 90 -248 Z M 106 -812 L 55.333 -810 L 14.833 -801.5 L -15.5 -786.5 L -45.833 -771.5 L -74.333 -746.667 L -101 -712 L -91 -703 L -51 -740.333 L -16 -762.667 L 14 -770 L 44 -777.333 L 74.667 -781.667 L 106 -783 L 148 -780.333 L 182.333 -774 L 209 -764 L 235.667 -754 L 264.667 -733.667 L 296 -703 L 306 -714 L 273.333 -753.333 L 242.333 -778.833 L 213 -790.5 L 183.667 -802.167 L 148 -809.333 Z M 91 -693 L 91.667 -701.667 L 97 -705.667 L 107 -705 L 117 -704.333 L 122.333 -700.333 L 123 -693 L 123 -30 L 123 -15 L 123 -15 L 123 -15 L 119 -6.333 L 112.667 -2.667 L 104 -4 L 95.333 -5.333 L 91 -9 L 91 -15 L 91 -678 L 91 -693 L 91 -693 Z" fill="black" fill-opacity="0.25" stroke="black" stroke-width="4"/>
  <rect x="-101" y="-812" width="407" height="109" fill="none" stroke="red" stroke-width="10" /><rect x="91" y="-706" width="32" height="703" fill="none" stroke="red" stroke-width="10" />
</svg>
