<svg xmlns="http://www.w3.org/2000/svg"
  viewBox="18.273 -1166.2 1085.172 1013.2">
  <rect x="18.273" y="-1166.2" width="1085.172" height="1013.2" fill="white"/>
  <path d="M 899 -290 L 908 -252 L 908 -249.333 L 911.5 -242.833 L 918.5 -232.5 L 925.5 -222.167 L 929 -215.667 L 929 -213 L 929 -210.333 L 923.5 -208 L 912.5 -206 L 901.5 -204 L 894 -203 L 890 -203 L 829 -203 L 821 -203 L 813.5 -208.667 L 806.5 -220 L 799.5 -231.333 L 795 -242 L 793 -252 L 785 -290 L 707 -290 L 635.333 -293.167 L 570 -299.5 L 504.667 -305.833 L 458.333 -311.333 L 431 -316 L 380.333 -324 L 338.5 -338 L 305.5 -358 L 272.5 -378 L 250.667 -400.667 L 240 -426 L 234.667 -438.667 L 225 -457.5 L 211 -482.5 L 197 -507.5 L 182.333 -532.667 L 167 -558 L 151.667 -583.333 L 137.167 -606 L 123.5 -626 L 109.833 -646 L 100.333 -657 L 95 -659 L 67.667 -668.333 L 61.667 -678.667 L 77 -690 L 110.333 -692.667 L 142.333 -694.5 L 173 -695.5 L 203.667 -696.5 L 235 -695.667 L 267 -693 L 299 -691 L 321.833 -672.667 L 335.5 -638 L 349.167 -603.333 L 363 -558 L 377 -502 L 391 -446 L 408.167 -407.833 L 428.5 -387.5 L 448.833 -367.167 L 484 -350.333 L 534 -337 L 584.667 -323 L 667 -317.333 L 781 -320 L 769 -389 L 768.333 -392.333 L 765 -396.667 L 759 -402 L 753 -407.333 L 750 -411.667 L 750 -415 L 750 -419 L 755.333 -421.667 L 766 -423 L 776.667 -424.333 L 784.333 -425 L 789 -425 L 850 -425 L 857.333 -425 L 864.5 -419.833 L 871.5 -409.5 L 878.5 -399.167 L 883.333 -388 L 886 -376 L 896 -321 L 940.667 -321.667 L 971 -323.167 L 987 -325.5 L 1003 -327.833 L 1020.667 -330.333 L 1040 -333 L 1047.333 -332.333 L 1051.667 -329 L 1053 -323 L 1054.333 -317 L 1052.667 -311.333 L 1048 -306 L 1041.333 -300.667 L 1027.667 -296.667 L 1007 -294 L 986.333 -291.333 L 950.333 -290 Z M 899 -711 L 908 -673 L 908 -670.333 L 911.5 -663.833 L 918.5 -653.5 L 925.5 -643.167 L 929 -636.667 L 929 -634 L 929 -631.333 L 923.5 -628.833 L 912.5 -626.5 L 901.5 -624.167 L 894 -623 L 890 -623 L 829 -623 L 821 -623 L 813.5 -628.667 L 806.5 -640 L 799.5 -651.333 L 795 -662.333 L 793 -673 L 785 -711 L 707 -711 L 635.333 -714 L 570 -720 L 504.667 -726 L 458.333 -731.333 L 431 -736 L 380.333 -744 L 338.5 -758 L 305.5 -778 L 272.5 -798 L 250.667 -820.667 L 240 -846 L 234.667 -858.667 L 225 -877.5 L 211 -902.5 L 197 -927.5 L 182.333 -952.667 L 167 -978 L 151.667 -1003.333 L 137.167 -1026 L 123.5 -1046 L 109.833 -1066 L 100.333 -1077.333 L 95 -1080 L 67 -1089.333 L 61 -1099.667 L 77 -1111 L 110.333 -1113.667 L 142.333 -1115.333 L 173 -1116 L 203.667 -1116.667 L 235 -1115.667 L 267 -1113 L 299 -1111 L 321.833 -1092.833 L 335.5 -1058.5 L 349.167 -1024.167 L 363 -979 L 377 -923 L 391 -866.333 L 408.167 -827.833 L 428.5 -807.5 L 448.833 -787.167 L 484 -770.667 L 534 -758 L 584.667 -744 L 667 -738.333 L 781 -741 L 769 -809 L 768.333 -812.333 L 765 -816.833 L 759 -822.5 L 753 -828.167 L 750 -832.667 L 750 -836 L 750 -840 L 755.333 -842.667 L 766 -844 L 776.667 -845.333 L 784.333 -846 L 789 -846 L 850 -846 L 857.333 -846 L 864.5 -840.833 L 871.5 -830.5 L 878.5 -820.167 L 883.333 -809 L 886 -797 L 896 -741 L 940.667 -741.667 L 971 -743.167 L 987 -745.5 L 1003 -747.833 L 1020.667 -750.333 L 1040 -753 L 1047.333 -752.333 L 1051.667 -749 L 1053 -743 L 1054.333 -737 L 1052.667 -731.667 L 1048 -727 L 1041.333 -721.667 L 1027.667 -717.667 L 1007 -715 L 986.333 -712.333 L 950.333 -711 Z" fill="black" fill-opacity="0.25" stroke="black" stroke-width="4"/>
  <rect x="62" y="-697" width="992" height="494" fill="none" stroke="red" stroke-width="10" /><rect x="61" y="-1117" width="993" height="494" fill="none" stroke="red" stroke-width="10" />
</svg>
