<svg xmlns="http://www.w3.org/2000/svg"
  viewBox="18.272727272727266 -1166.2000000016 1085.171717170757 1013.2000000016001">
  <rect x="18.272727272727266" y="-1166.2000000016" width="1085.171717170757" height="1013.2000000016001" fill="white"/>
  <path d="M 899.0 -290.0 L 908.0 -252.0 L 908.0 -249.333333333 L 911.5 -242.833333333 L 918.5 -232.5 L 925.5 -222.166666667 L 929.0 -215.666666667 L 929.0 -213.0 L 929.0 -210.333333333 L 923.5 -208.0 L 912.5 -206.0 L 901.5 -204.0 L 894.0 -203.0 L 890.0 -203.0 L 829.0 -203.0 L 821.0 -203.0 L 813.5 -208.666666667 L 806.5 -220.0 L 799.5 -231.333333333 L 795.0 -242.0 L 793.0 -252.0 L 785.0 -290.0 L 707.0 -290.0 L 635.333333333 -293.166666667 L 570.0 -299.5 L 504.666666667 -305.833333333 L 458.333333333 -311.333333333 L 431.0 -316.0 L 380.333333333 -324.0 L 338.5 -338.0 L 305.5 -358.0 L 272.5 -378.0 L 250.666666667 -400.666666667 L 240.0 -426.0 L 234.666666667 -438.666666667 L 225.0 -457.5 L 211.0 -482.5 L 197.0 -507.5 L 182.333333333 -532.666666667 L 167.0 -558.0 L 151.666666667 -583.333333333 L 137.166666667 -606.0 L 123.5 -626.0 L 109.833333333 -646.0 L 100.333333333 -657.0 L 95.0 -659.0 L 67.6666666667 -668.333333333 L 61.6666666667 -678.666666667 L 77.0 -690.0 L 110.333333333 -692.666666667 L 142.333333333 -694.5 L 173.0 -695.5 L 203.666666667 -696.5 L 235.0 -695.666666667 L 267.0 -693.0 L 299.0 -691.0 L 321.833333333 -672.666666667 L 335.5 -638.0 L 349.166666667 -603.333333333 L 363.0 -558.0 L 377.0 -502.0 L 391.0 -446.0 L 408.166666667 -407.833333333 L 428.5 -387.5 L 448.833333333 -367.166666667 L 484.0 -350.333333333 L 534.0 -337.0 L 584.666666667 -323.0 L 667.0 -317.333333333 L 781.0 -320.0 L 769.0 -389.0 L 768.333333333 -392.333333333 L 765.0 -396.666666667 L 759.0 -402.0 L 753.0 -407.333333333 L 750.0 -411.666666667 L 750.0 -415.0 L 750.0 -419.0 L 755.333333333 -421.666666667 L 766.0 -423.0 L 776.666666667 -424.333333333 L 784.333333333 -425.0 L 789.0 -425.0 L 850.0 -425.0 L 857.333333333 -425.0 L 864.5 -419.833333333 L 871.5 -409.5 L 878.5 -399.166666667 L 883.333333333 -388.0 L 886.0 -376.0 L 896.0 -321.0 L 940.666666667 -321.666666667 L 971.0 -323.166666667 L 987.0 -325.5 L 1003.0 -327.833333333 L 1020.66666667 -330.333333333 L 1040.0 -333.0 L 1047.33333333 -332.333333333 L 1051.66666667 -329.0 L 1053.0 -323.0 L 1054.33333333 -317.0 L 1052.66666667 -311.333333333 L 1048.0 -306.0 L 1041.33333333 -300.666666667 L 1027.66666667 -296.666666667 L 1007.0 -294.0 L 986.333333333 -291.333333333 L 950.333333333 -290.0 Z M 899.0 -711.0 L 908.0 -673.0 L 908.0 -670.333333333 L 911.5 -663.833333333 L 918.5 -653.5 L 925.5 -643.166666667 L 929.0 -636.666666667 L 929.0 -634.0 L 929.0 -631.333333333 L 923.5 -628.833333333 L 912.5 -626.5 L 901.5 -624.166666667 L 894.0 -623.0 L 890.0 -623.0 L 829.0 -623.0 L 821.0 -623.0 L 813.5 -628.666666667 L 806.5 -640.0 L 799.5 -651.333333333 L 795.0 -662.333333333 L 793.0 -673.0 L 785.0 -711.0 L 707.0 -711.0 L 635.333333333 -714.0 L 570.0 -720.0 L 504.666666667 -726.0 L 458.333333333 -731.333333333 L 431.0 -736.0 L 380.333333333 -744.0 L 338.5 -758.0 L 305.5 -778.0 L 272.5 -798.0 L 250.666666667 -820.666666667 L 240.0 -846.0 L 234.666666667 -858.666666667 L 225.0 -877.5 L 211.0 -902.5 L 197.0 -927.5 L 182.333333333 -952.666666667 L 167.0 -978.0 L 151.666666667 -1003.33333333 L 137.166666667 -1026.0 L 123.5 -1046.0 L 109.833333333 -1066.0 L 100.333333333 -1077.33333333 L 95.0 -1080.0 L 67.0 -1089.33333333 L 61.0 -1099.66666667 L 77.0 -1111.0 L 110.333333333 -1113.66666667 L 142.333333333 -1115.33333333 L 173.0 -1116.0 L 203.666666667 -1116.66666667 L 235.0 -1115.66666667 L 267.0 -1113.0 L 299.0 -1111.0 L 321.833333333 -1092.83333333 L 335.5 -1058.5 L 349.166666667 -1024.16666667 L 363.0 -979.0 L 377.0 -923.0 L 391.0 -866.333333333 L 408.166666667 -827.833333333 L 428.5 -807.5 L 448.833333333 -787.166666667 L 484.0 -770.666666667 L 534.0 -758.0 L 584.666666667 -744.0 L 667.0 -738.333333333 L 781.0 -741.0 L 769.0 -809.0 L 768.333333333 -812.333333333 L 765.0 -816.833333333 L 759.0 -822.5 L 753.0 -828.166666667 L 750.0 -832.666666667 L 750.0 -836.0 L 750.0 -840.0 L 755.333333333 -842.666666667 L 766.0 -844.0 L 776.666666667 -845.333333333 L 784.333333333 -846.0 L 789.0 -846.0 L 850.0 -846.0 L 857.333333333 -846.0 L 864.5 -840.833333333 L 871.5 -830.5 L 878.5 -820.166666667 L 883.333333333 -809.0 L 886.0 -797.0 L 896.0 -741.0 L 940.666666667 -741.666666667 L 971.0 -743.166666667 L 987.0 -745.5 L 1003.0 -747.833333333 L 1020.66666667 -750.333333333 L 1040.0 -753.0 L 1047.33333333 -752.333333333 L 1051.66666667 -749.0 L 1053.0 -743.0 L 1054.33333333 -737.0 L 1052.66666667 -731.666666667 L 1048.0 -727.0 L 1041.33333333 -721.666666667 L 1027.66666667 -717.666666667 L 1007.0 -715.0 L 986.333333333 -712.333333333 L 950.333333333 -711.0 Z" fill="black" fill-opacity="0.25" stroke="black" stroke-width="4.0"/>
  <rect x="62.0" y="-697.0" width="992.0" height="493.99999999999994" fill="none" stroke="red" stroke-width="10.0" /><rect x="61.0" y="-1117.0" width="993.0000000000001" height="494.0" fill="none" stroke="red" stroke-width="10.0" />
</svg>
