<svg xmlns="http://www.w3.org/2000/svg"
  viewBox="18.272727272727266 -1166.2000000016 1152.2696456096419 1318.4592592606452">
  <rect x="18.272727272727266" y="-1166.2000000016" width="1152.2696456096419" height="1318.4592592606452" fill="white"/>
  <path d="M 899.0 -290.0 L 908.0 -252.0 L 908.0 -249.333333333 L 911.5 -242.833333333 L 918.5 -232.5 L 925.5 -222.166666667 L 929.0 -215.666666667 L 929.0 -213.0 L 929.0 -210.333333333 L 923.5 -208.0 L 912.5 -206.0 L 901.5 -204.0 L 894.0 -203.0 L 890.0 -203.0 L 829.0 -203.0 L 821.0 -203.0 L 813.5 -208.666666667 L 806.5 -220.0 L 799.5 -231.333333333 L 795.0 -242.0 L 793.0 -252.0 L 785.0 -290.0 L 707.0 -290.0 L 635.333333333 -293.166666667 L 570.0 -299.5 L 504.666666667 -305.833333333 L 458.333333333 -311.333333333 L 431.0 -316.0 L 380.333333333 -324.0 L 338.5 -338.0 L 305.5 -358.0 L 272.5 -378.0 L 250.666666667 -400.666666667 L 240.0 -426.0 L 234.666666667 -438.666666667 L 225.0 -457.5 L 211.0 -482.5 L 197.0 -507.5 L 182.333333333 -532.666666667 L 167.0 -558.0 L 151.666666667 -583.333333333 L 137.166666667 -606.0 L 123.5 -626.0 L 109.833333333 -646.0 L 100.333333333 -657.0 L 95.0 -659.0 L 67.6666666667 -668.333333333 L 61.6666666667 -678.666666667 L 77.0 -690.0 L 110.333333333 -692.666666667 L 142.333333333 -694.5 L 173.0 -695.5 L 203.666666667 -696.5 L 235.0 -695.666666667 L 267.0 -693.0 L 299.0 -691.0 L 321.833333333 -672.666666667 L 335.5 -638.0 L 349.166666667 -603.333333333 L 363.0 -558.0 L 377.0 -502.0 L 391.0 -446.0 L 408.166666667 -407.833333333 L 428.5 -387.5 L 448.833333333 -367.166666667 L 484.0 -350.333333333 L 534.0 -337.0 L 584.666666667 -323.0 L 667.0 -317.333333333 L 781.0 -320.0 L 769.0 -389.0 L 768.333333333 -392.333333333 L 765.0 -396.666666667 L 759.0 -402.0 L 753.0 -407.333333333 L 750.0 -411.666666667 L 750.0 -415.0 L 750.0 -419.0 L 755.333333333 -421.666666667 L 766.0 -423.0 L 776.666666667 -424.333333333 L 784.333333333 -425.0 L 789.0 -425.0 L 850.0 -425.0 L 857.333333333 -425.0 L 864.5 -419.833333333 L 871.5 -409.5 L 878.5 -399.166666667 L 883.333333333 -388.0 L 886.0 -376.0 L 896.0 -321.0 L 940.666666667 -321.666666667 L 971.0 -323.166666667 L 987.0 -325.5 L 1003.0 -327.833333333 L 1020.66666667 -330.333333333 L 1040.0 -333.0 L 1047.33333333 -332.333333333 L 1051.66666667 -329.0 L 1053.0 -323.0 L 1054.33333333 -317.0 L 1052.66666667 -311.333333333 L 1048.0 -306.0 L 1041.33333333 -300.666666667 L 1027.66666667 -296.666666667 L 1007.0 -294.0 L 986.333333333 -291.333333333 L 950.333333333 -290.0 Z M 899.0 -711.0 L 908.0 -673.0 L 908.0 -670.333333333 L 911.5 -663.833333333 L 918.5 -653.5 L 925.5 -643.166666667 L 929.0 -636.666666667 L 929.0 -634.0 L 929.0 -631.333333333 L 923.5 -628.833333333 L 912.5 -626.5 L 901.5 -624.166666667 L 894.0 -623.0 L 890.0 -623.0 L 829.0 -623.0 L 821.0 -623.0 L 813.5 -628.666666667 L 806.5 -640.0 L 799.5 -651.333333333 L 795.0 -662.333333333 L 793.0 -673.0 L 785.0 -711.0 L 707.0 -711.0 L 635.333333333 -714.0 L 570.0 -720.0 L 504.666666667 -726.0 L 458.333333333 -731.333333333 L 431.0 -736.0 L 380.333333333 -744.0 L 338.5 -758.0 L 305.5 -778.0 L 272.5 -798.0 L 250.666666667 -820.666666667 L 240.0 -846.0 L 234.666666667 -858.666666667 L 225.0 -877.5 L 211.0 -902.5 L 197.0 -927.5 L 182.333333333 -952.666666667 L 167.0 -978.0 L 151.666666667 -1003.33333333 L 137.166666667 -1026.0 L 123.5 -1046.0 L 109.833333333 -1066.0 L 100.333333333 -1077.33333333 L 95.0 -1080.0 L 67.0 -1089.33333333 L 61.0 -1099.66666667 L 77.0 -1111.0 L 110.333333333 -1113.66666667 L 142.333333333 -1115.33333333 L 173.0 -1116.0 L 203.666666667 -1116.66666667 L 235.0 -1115.66666667 L 267.0 -1113.0 L 299.0 -1111.0 L 321.833333333 -1092.83333333 L 335.5 -1058.5 L 349.166666667 -1024.16666667 L 363.0 -979.0 L 377.0 -923.0 L 391.0 -866.333333333 L 408.166666667 -827.833333333 L 428.5 -807.5 L 448.833333333 -787.166666667 L 484.0 -770.666666667 L 534.0 -758.0 L 584.666666667 -744.0 L 667.0 -738.333333333 L 781.0 -741.0 L 769.0 -809.0 L 768.333333333 -812.333333333 L 765.0 -816.833333333 L 759.0 -822.5 L 753.0 -828.166666667 L 750.0 -832.666666667 L 750.0 -836.0 L 750.0 -840.0 L 755.333333333 -842.666666667 L 766.0 -844.0 L 776.666666667 -845.333333333 L 784.333333333 -846.0 L 789.0 -846.0 L 850.0 -846.0 L 857.333333333 -846.0 L 864.5 -840.833333333 L 871.5 -830.5 L 878.5 -820.166666667 L 883.333333333 -809.0 L 886.0 -797.0 L 896.0 -741.0 L 940.666666667 -741.666666667 L 971.0 -743.166666667 L 987.0 -745.5 L 1003.0 -747.833333333 L 1020.66666667 -750.333333333 L 1040.0 -753.0 L 1047.33333333 -752.333333333 L 1051.66666667 -749.0 L 1053.0 -743.0 L 1054.33333333 -737.0 L 1052.66666667 -731.666666667 L 1048.0 -727.0 L 1041.33333333 -721.666666667 L 1027.66666667 -717.666666667 L 1007.0 -715.0 L 986.333333333 -712.333333333 L 950.333333333 -711.0 Z M 400.0 96.0 L 377.333333333 104.666666667 L 339.0 104.333333333 L 285.0 95.0 L 253.666666667 87.0 L 225.833333333 76.5 L 201.5 63.5 L 177.166666667 50.5 L 158.666666667 27.3333333333 L 146.0 -6.0 L 137.333333333 -37.3333333333 L 134.333333333 -62.3333333333 L 137.0 -81.0 L 139.666666667 -99.6666666667 L 150.0 -121.333333333 L 168.0 -146.0 L 185.333333333 -166.666666667 L 205.5 -182.5 L 228.5 -193.5 L 251.5 -204.5 L 279.666666667 -213.333333333 L 313.0 -220.0 L 346.333333333 -226.666666667 L 373.333333333 -229.833333333 L 394.0 -229.5 L 414.666666667 -229.166666667 L 437.0 -228.666666667 L 461.0 -228.0 L 485.0 -227.333333333 L 507.333333333 -225.5 L 528.0 -222.5 L 548.666666667 -219.5 L 573.666666667 -213.333333333 L 603.0 -204.0 L 651.666666667 -190.666666667 L 699.333333333 -172.666666667 L 746.0 -150.0 L 772.666666667 -136.666666667 L 800.666666667 -122.5 L 830.0 -107.5 L 859.333333333 -92.5 L 892.333333333 -74.6666666667 L 929.0 -54.0 L 945.666666667 -44.0 L 963.833333333 -33.1666666667 L 983.5 -21.5 L 1003.16666667 -9.83333333333 L 1024.33333333 2.0 L 1047.0 14.0 L 1064.33333333 24.6666666667 L 1081.5 35.5 L 1098.5 46.5 L 1115.5 57.5 L 1122.66666667 68.5 L 1120.0 79.5 L 1117.33333333 90.5 L 1110.83333333 95.6666666667 L 1100.5 95.0 L 1090.16666667 94.3333333333 L 1058.16666667 94.5 L 1004.5 95.5 L 950.833333333 96.5 L 904.0 96.6666666667 L 864.0 96.0 L 848.0 84.0 L 848.166666667 75.5 L 864.5 70.5 L 880.833333333 65.5 L 893.0 59.0 L 901.0 51.0 L 915.666666667 35.6666666667 L 922.166666667 23.5 L 920.5 14.5 L 918.833333333 5.5 L 916.5 -1.5 L 913.5 -6.5 L 910.5 -11.5 L 905.666666667 -17.0 L 899.0 -23.0 L 892.333333333 -29.0 L 876.166666667 -40.8333333333 L 850.5 -58.5 L 824.833333333 -76.1666666667 L 792.666666667 -95.0 L 754.0 -115.0 L 720.0 -130.333333333 L 693.0 -142.666666667 L 673.0 -152.0 L 653.0 -161.333333333 L 621.0 -171.666666667 L 577.0 -183.0 L 544.333333333 -189.666666667 L 511.0 -193.833333333 L 477.0 -195.5 L 443.0 -197.166666667 L 408.666666667 -192.0 L 374.0 -180.0 L 349.333333333 -169.333333333 L 332.0 -160.166666667 L 322.0 -152.5 L 312.0 -144.833333333 L 301.0 -132.0 L 289.0 -114.0 L 278.333333333 -96.0 L 272.166666667 -80.8333333333 L 270.5 -68.5 L 268.833333333 -56.1666666667 L 268.333333333 -41.6666666667 L 269.0 -25.0 L 269.666666667 -8.33333333333 L 271.666666667 3.66666666667 L 275.0 11.0 L 278.333333333 18.3333333333 L 282.666666667 25.8333333333 L 288.0 33.5 L 293.333333333 41.1666666667 L 300.0 48.1666666667 L 308.0 54.5 L 316.0 60.8333333333 L 328.333333333 65.3333333333 L 345.0 68.0 L 361.666666667 70.6666666667 L 378.0 72.6666666667 L 394.0 74.0 L 400.666666667 75.3333333333 L 405.0 78.3333333333 L 407.0 83.0 L 409.0 87.6666666667 L 406.666666667 92.0 Z" fill="black" fill-opacity="0.25" stroke="black" stroke-width="4.0"/>
  <rect x="62.0" y="-697.0" width="992.0" height="493.99999999999994" fill="none" stroke="red" stroke-width="10.0" /><rect x="61.0" y="-1117.0" width="993.0000000000001" height="494.0" fill="none" stroke="red" stroke-width="10.0" /><rect x="134.0" y="-230.0" width="989.0" height="335.0" fill="none" stroke="red" stroke-width="10.0" />
</svg>
