<svg xmlns="http://www.w3.org/2000/svg"
  viewBox="18.273 -1166.2 1152.27 1417.2">
  <rect x="18.273" y="-1166.2" width="1152.27" height="1417.2" fill="white"/>
  <path d="M 899 -711 L 908 -673 L 908 -670.333 L 911.5 -663.833 L 918.5 -653.5 L 925.5 -643.167 L 929 -636.667 L 929 -634 L 929 -631.333 L 923.5 -628.833 L 912.5 -626.5 L 901.5 -624.167 L 894 -623 L 890 -623 L 829 -623 L 821 -623 L 813.5 -628.667 L 806.5 -640 L 799.5 -651.333 L 795 -662.333 L 793 -673 L 785 -711 L 707 -711 L 635.333 -714 L 570 -720 L 504.667 -726 L 458.333 -731.333 L 431 -736 L 380.333 -744 L 338.5 -758 L 305.5 -778 L 272.5 -798 L 250.667 -820.667 L 240 -846 L 234.667 -858.667 L 225 -877.5 L 211 -902.5 L 197 -927.5 L 182.333 -952.667 L 167 -978 L 151.667 -1003.333 L 137.167 -1026 L 123.5 -1046 L 109.833 -1066 L 100.333 -1077.333 L 95 -1080 L 67 -1089.333 L 61 -1099.667 L 77 -1111 L 110.333 -1113.667 L 142.333 -1115.333 L 173 -1116 L 203.667 -1116.667 L 235 -1115.667 L 267 -1113 L 299 -1111 L 321.833 -1092.833 L 335.5 -1058.5 L 349.167 -1024.167 L 363 -979 L 377 -923 L 391 -866.333 L 408.167 -827.833 L 428.5 -807.5 L 448.833 -787.167 L 484 -770.667 L 534 -758 L 584.667 -744 L 667 -738.333 L 781 -741 L 769 -809 L 768.333 -812.333 L 765 -816.833 L 759 -822.5 L 753 -828.167 L 750 -832.667 L 750 -836 L 750 -840 L 755.333 -842.667 L 766 -844 L 776.667 -845.333 L 784.333 -846 L 789 -846 L 850 -846 L 857.333 -846 L 864.5 -840.833 L 871.5 -830.5 L 878.5 -820.167 L 883.333 -809 L 886 -797 L 896 -741 L 940.667 -741.667 L 971 -743.167 L 987 -745.5 L 1003 -747.833 L 1020.667 -750.333 L 1040 -753 L 1047.333 -752.333 L 1051.667 -749 L 1053 -743 L 1054.333 -737 L 1052.667 -731.667 L 1048 -727 L 1041.333 -721.667 L 1027.667 -717.667 L 1007 -715 L 986.333 -712.333 L 950.333 -711 Z M 899 -290 L 908 -252 L 908 -249.333 L 911.5 -242.833 L 918.5 -232.5 L 925.5 -222.167 L 929 -215.667 L 929 -213 L 929 -210.333 L 923.5 -208 L 912.5 -206 L 901.5 -204 L 894 -203 L 890 -203 L 829 -203 L 821 -203 L 813.5 -208.667 L 806.5 -220 L 799.5 -231.333 L 795 -242 L 793 -252 L 785 -290 L 707 -290 L 635.333 -293.167 L 570 -299.5 L 504.667 -305.833 L 458.333 -311.333 L 431 -316 L 380.333 -324 L 338.5 -338 L 305.5 -358 L 272.5 -378 L 250.667 -400.667 L 240 -426 L 234.667 -438.667 L 225 -457.5 L 211 -482.5 L 197 -507.5 L 182.333 -532.667 L 167 -558 L 151.667 -583.333 L 137.167 -606 L 123.5 -626 L 109.833 -646 L 100.333 -657 L 95 -659 L 67.667 -668.333 L 61.667 -678.667 L 77 -690 L 110.333 -692.667 L 142.333 -694.5 L 173 -695.5 L 203.667 -696.5 L 235 -695.667 L 267 -693 L 299 -691 L 321.833 -672.667 L 335.5 -638 L 349.167 -603.333 L 363 -558 L 377 -502 L 391 -446 L 408.167 -407.833 L 428.5 -387.5 L 448.833 -367.167 L 484 -350.333 L 534 -337 L 584.667 -323 L 667 -317.333 L 781 -320 L 769 -389 L 768.333 -392.333 L 765 -396.667 L 759 -402 L 753 -407.333 L 750 -411.667 L 750 -415 L 750 -419 L 755.333 -421.667 L 766 -423 L 776.667 -424.333 L 784.333 -425 L 789 -425 L 850 -425 L 857.333 -425 L 864.5 -419.833 L 871.5 -409.5 L 878.5 -399.167 L 883.333 -388 L 886 -376 L 896 -321 L 940.667 -321.667 L 971 -323.167 L 987 -325.5 L 1003 -327.833 L 1020.667 -330.333 L 1040 -333 L 1047.333 -332.333 L 1051.667 -329 L 1053 -323 L 1054.333 -317 L 1052.667 -311.333 L 1048 -306 L 1041.333 -300.667 L 1027.667 -296.667 L 1007 -294 L 986.333 -291.333 L 950.333 -290 Z M 400 96 L 377.333 104.667 L 339 104.333 L 285 95 L 253.667 87 L 225.833 76.5 L 201.5 63.5 L 177.167 50.5 L 158.667 27.333 L 146 -6 L 137.333 -37.333 L 134.333 -62.333 L 137 -81 L 139.667 -99.667 L 150 -121.333 L 168 -146 L 185.333 -166.667 L 205.5 -182.5 L 228.5 -193.5 L 251.5 -204.5 L 279.667 -213.333 L 313 -220 L 346.333 -226.667 L 373.333 -229.833 L 394 -229.5 L 414.667 -229.167 L 437 -228.667 L 461 -228 L 485 -227.333 L 507.333 -225.5 L 528 -222.5 L 548.667 -219.5 L 573.667 -213.333 L 603 -204 L 651.667 -190.667 L 699.333 -172.667 L 746 -150 L 772.667 -136.667 L 800.667 -122.5 L 830 -107.5 L 859.333 -92.5 L 892.333 -74.667 L 929 -54 L 945.667 -44 L 963.833 -33.167 L 983.5 -21.5 L 1003.167 -9.833 L 1024.333 2 L 1047 14 L 1064.333 24.667 L 1081.5 35.5 L 1098.5 46.5 L 1115.5 57.5 L 1122.667 68.5 L 1120 79.5 L 1117.333 90.5 L 1110.833 95.667 L 1100.5 95 L 1090.167 94.333 L 1058.167 94.5 L 1004.5 95.5 L 950.833 96.5 L 904 96.667 L 864 96 L 848 84 L 848.167 75.5 L 864.5 70.5 L 880.833 65.5 L 893 59 L 901 51 L 915.667 35.667 L 922.167 23.5 L 920.5 14.5 L 918.833 5.5 L 916.5 -1.5 L 913.5 -6.5 L 910.5 -11.5 L 905.667 -17 L 899 -23 L 892.333 -29 L 876.167 -40.833 L 850.5 -58.5 L 824.833 -76.167 L 792.667 -95 L 754 -115 L 720 -130.333 L 693 -142.667 L 673 -152 L 653 -161.333 L 621 -171.667 L 577 -183 L 544.333 -189.667 L 511 -193.833 L 477 -195.5 L 443 -197.167 L 408.667 -192 L 374 -180 L 349.333 -169.333 L 332 -160.167 L 322 -152.5 L 312 -144.833 L 301 -132 L 289 -114 L 278.333 -96 L 272.167 -80.833 L 270.5 -68.5 L 268.833 -56.167 L 268.333 -41.667 L 269 -25 L 269.667 -8.333 L 271.667 3.667 L 275 11 L 278.333 18.333 L 282.667 25.833 L 288 33.5 L 293.333 41.167 L 300 48.167 L 308 54.5 L 316 60.833 L 328.333 65.333 L 345 68 L 361.667 70.667 L 378 72.667 L 394 74 L 400.667 75.333 L 405 78.333 L 407 83 L 409 87.667 L 406.667 92 Z M 590 195 L 583.333 189.667 L 582.833 184.667 L 588.5 180 L 594.167 175.333 L 601 173 L 609 173 L 618.333 173 L 631.333 164.167 L 648 146.5 L 664.667 128.833 L 675.667 107 L 681 81 L 689.667 37 L 668 1 L 616 -27 L 596.667 -37 L 571.833 -46 L 541.5 -54 L 511.167 -62 L 481.333 -69 L 452 -75 L 422.667 -81 L 396.667 -85.833 L 374 -89.5 L 351.333 -93.167 L 338 -96 L 334 -98 L 326.667 -101.333 L 323.833 -105.667 L 325.5 -111 L 327.167 -116.333 L 331 -119 L 337 -119 L 340.333 -119 L 353.167 -117.667 L 375.5 -115 L 397.833 -112.333 L 424.333 -108.333 L 455 -103 L 485.667 -97.667 L 518.167 -90.667 L 552.5 -82 L 586.833 -73.333 L 618 -63.333 L 646 -52 L 679.333 -38 L 706 -24 L 726 -10 L 746 4 L 764.333 22.667 L 781 46 L 797.667 70 L 804.667 93.667 L 802 117 L 799.333 140.333 L 789.667 158.333 L 773 171 L 757.667 183 L 740.167 191 L 720.5 195 L 700.833 199 L 682.333 201 L 665 201 L 638 201 L 638 201 L 627 201 L 619.667 201 L 607.333 199 Z" fill="black" fill-opacity="0.25" stroke="black" stroke-width="4"/>
  <rect x="61" y="-1117" width="993" height="494" fill="none" stroke="red" stroke-width="10" /><rect x="62" y="-697" width="992" height="494" fill="none" stroke="red" stroke-width="10" /><rect x="134" y="-230" width="989" height="335" fill="none" stroke="red" stroke-width="10" /><rect x="324" y="-119" width="481" height="320" fill="none" stroke="red" stroke-width="10" />
</svg>
