<svg xmlns="http://www.w3.org/2000/svg"
  viewBox="28.75 -555 1202.364 577">
  <rect x="28.75" y="-555" width="1202.364" height="577" fill="white"/>
  <path d="M 375 -140 L 349.667 -130.667 L 306.667 -131.333 L 246 -142 L 210.667 -150.667 L 179.5 -162.333 L 152.5 -177 L 125.5 -191.667 L 104.667 -217.333 L 90 -254 L 80 -289.333 L 76.667 -317.5 L 80 -338.5 L 83.333 -359.5 L 95 -384 L 115 -412 L 134.333 -435.333 L 156.833 -453 L 182.5 -465 L 208.167 -477 L 239.667 -486.667 L 277 -494 L 314.333 -501.333 L 344.667 -505 L 368 -505 L 391.333 -505 L 416.667 -504.333 L 444 -503 L 470.667 -501.667 L 495.5 -499.5 L 518.5 -496.5 L 541.5 -493.5 L 569.333 -487 L 602 -477 L 656 -462.333 L 709.333 -442 L 762 -416 L 791.333 -401.333 L 822.5 -385.5 L 855.5 -368.5 L 888.5 -351.5 L 925.333 -331.333 L 966 -308 L 984.667 -296.667 L 1005.167 -284.667 L 1027.5 -272 L 1049.833 -259.333 L 1073.667 -246.333 L 1099 -233 L 1118.333 -221 L 1137.5 -208.833 L 1156.5 -196.5 L 1175.5 -184.167 L 1183.5 -171.833 L 1180.5 -159.5 L 1177.5 -147.167 L 1170.333 -141.333 L 1159 -142 L 1147.667 -142.667 L 1111.833 -142.333 L 1051.5 -141 L 991.167 -139.667 L 938.667 -139.333 L 894 -140 L 876 -153.333 L 876.167 -163 L 894.5 -169 L 912.833 -175 L 926.667 -182.333 L 936 -191 L 952.667 -208.333 L 960 -222 L 958 -232 L 956 -242 L 953.167 -249.833 L 949.5 -255.5 L 945.833 -261.167 L 940.333 -267.167 L 933 -273.5 L 925.667 -279.833 L 907.5 -293 L 878.5 -313 L 849.5 -333 L 813.667 -354 L 771 -376 L 732.333 -392.667 L 702 -406.333 L 680 -417 L 658 -427.667 L 622.333 -439.667 L 573 -453 L 536.333 -460.333 L 499 -464.833 L 461 -466.5 L 423 -468.167 L 384.333 -462.667 L 345 -450 L 317.667 -438 L 298.5 -427.833 L 287.5 -419.5 L 276.5 -411.167 L 264 -396.333 L 250 -375 L 238 -355 L 231.167 -338 L 229.5 -324 L 227.833 -310 L 227.667 -294 L 229 -276 L 229.667 -257.333 L 231.833 -243.833 L 235.5 -235.5 L 239.167 -227.167 L 243.833 -218.833 L 249.5 -210.5 L 255.167 -202.167 L 262.5 -194.5 L 271.5 -187.5 L 280.5 -180.5 L 294.333 -175.5 L 313 -172.5 L 331.667 -169.5 L 350 -167 L 368 -165 L 376 -163.667 L 381.167 -160.333 L 383.5 -155 L 385.833 -149.667 L 383 -144.667 Z M 581 -35 L 574.333 -40.333 L 573.833 -45.333 L 579.5 -50 L 585.167 -54.667 L 592.667 -57 L 602 -57 L 612 -57 L 625.667 -65.833 L 643 -83.5 L 660.333 -101.167 L 672 -123 L 678 -149 L 687.333 -193 L 664.333 -229.333 L 609 -258 L 587.667 -268 L 561 -277 L 529 -285 L 497 -293 L 465.333 -300 L 434 -306 L 402.667 -312 L 375 -316.833 L 351 -320.5 L 327 -324.167 L 313 -327 L 309 -329 L 300.333 -332.333 L 297 -336.667 L 299 -342 L 301 -347.333 L 305.333 -350 L 312 -350 L 315.333 -350 L 328.833 -348.667 L 352.5 -346 L 376.167 -343.333 L 404.5 -339.167 L 437.5 -333.5 L 470.5 -327.833 L 505.167 -320.833 L 541.5 -312.5 L 577.833 -304.833 L 611 -295 L 641 -283 L 676.333 -269 L 704.667 -255 L 726 -241 L 747.333 -227 L 766.667 -208 L 784 -184 L 801.333 -160 L 808.667 -136.333 L 806 -113 L 803.333 -89.667 L 793.333 -71.333 L 776 -58 L 760 -46 L 741.333 -38 L 720 -34 L 698.667 -30 L 678.667 -28 L 660 -28 L 641.333 -28 L 628.167 -28.167 L 620.5 -28.5 L 612.833 -28.833 L 599.667 -31 Z" fill="black" fill-opacity="0.25" stroke="black" stroke-width="4"/>
  <rect x="77" y="-505" width="1106" height="374" fill="none" stroke="red" stroke-width="10" /><rect x="297" y="-350" width="512" height="322" fill="none" stroke="red" stroke-width="10" />
</svg>
