<svg xmlns="http://www.w3.org/2000/svg"
  viewBox="28.750000000056247 -555.0 1202.36363636358 471.53333333352">
  <rect x="28.750000000056247" y="-555.0" width="1202.36363636358" height="471.53333333352" fill="white"/>
  <path d="M 375.0 -140.0 L 349.666666667 -130.666666667 L 306.666666667 -131.333333333 L 246.0 -142.0 L 210.666666667 -150.666666667 L 179.5 -162.333333333 L 152.5 -177.0 L 125.5 -191.666666667 L 104.666666667 -217.333333333 L 90.0 -254.0 L 80.0 -289.333333333 L 76.6666666667 -317.5 L 80.0 -338.5 L 83.3333333333 -359.5 L 95.0 -384.0 L 115.0 -412.0 L 134.333333333 -435.333333333 L 156.833333333 -453.0 L 182.5 -465.0 L 208.166666667 -477.0 L 239.666666667 -486.666666667 L 277.0 -494.0 L 314.333333333 -501.333333333 L 344.666666667 -505.0 L 368.0 -505.0 L 391.333333333 -505.0 L 416.666666667 -504.333333333 L 444.0 -503.0 L 470.666666667 -501.666666667 L 495.5 -499.5 L 518.5 -496.5 L 541.5 -493.5 L 569.333333333 -487.0 L 602.0 -477.0 L 656.0 -462.333333333 L 709.333333333 -442.0 L 762.0 -416.0 L 791.333333333 -401.333333333 L 822.5 -385.5 L 855.5 -368.5 L 888.5 -351.5 L 925.333333333 -331.333333333 L 966.0 -308.0 L 984.666666667 -296.666666667 L 1005.16666667 -284.666666667 L 1027.5 -272.0 L 1049.83333333 -259.333333333 L 1073.66666667 -246.333333333 L 1099.0 -233.0 L 1118.33333333 -221.0 L 1137.5 -208.833333333 L 1156.5 -196.5 L 1175.5 -184.166666667 L 1183.5 -171.833333333 L 1180.5 -159.5 L 1177.5 -147.166666667 L 1170.33333333 -141.333333333 L 1159.0 -142.0 L 1147.66666667 -142.666666667 L 1111.83333333 -142.333333333 L 1051.5 -141.0 L 991.166666667 -139.666666667 L 938.666666667 -139.333333333 L 894.0 -140.0 L 876.0 -153.333333333 L 876.166666667 -163.0 L 894.5 -169.0 L 912.833333333 -175.0 L 926.666666667 -182.333333333 L 936.0 -191.0 L 952.666666667 -208.333333333 L 960.0 -222.0 L 958.0 -232.0 L 956.0 -242.0 L 953.166666667 -249.833333333 L 949.5 -255.5 L 945.833333333 -261.166666667 L 940.333333333 -267.166666667 L 933.0 -273.5 L 925.666666667 -279.833333333 L 907.5 -293.0 L 878.5 -313.0 L 849.5 -333.0 L 813.666666667 -354.0 L 771.0 -376.0 L 732.333333333 -392.666666667 L 702.0 -406.333333333 L 680.0 -417.0 L 658.0 -427.666666667 L 622.333333333 -439.666666667 L 573.0 -453.0 L 536.333333333 -460.333333333 L 499.0 -464.833333333 L 461.0 -466.5 L 423.0 -468.166666667 L 384.333333333 -462.666666667 L 345.0 -450.0 L 317.666666667 -438.0 L 298.5 -427.833333333 L 287.5 -419.5 L 276.5 -411.166666667 L 264.0 -396.333333333 L 250.0 -375.0 L 238.0 -355.0 L 231.166666667 -338.0 L 229.5 -324.0 L 227.833333333 -310.0 L 227.666666667 -294.0 L 229.0 -276.0 L 229.666666667 -257.333333333 L 231.833333333 -243.833333333 L 235.5 -235.5 L 239.166666667 -227.166666667 L 243.833333333 -218.833333333 L 249.5 -210.5 L 255.166666667 -202.166666667 L 262.5 -194.5 L 271.5 -187.5 L 280.5 -180.5 L 294.333333333 -175.5 L 313.0 -172.5 L 331.666666667 -169.5 L 350.0 -167.0 L 368.0 -165.0 L 376.0 -163.666666667 L 381.166666667 -160.333333333 L 383.5 -155.0 L 385.833333333 -149.666666667 L 383.0 -144.666666667 Z" fill="black" fill-opacity="0.25" stroke="black" stroke-width="4.0"/>
  <rect x="77.0" y="-505.0" width="1106.0" height="374.0" fill="none" stroke="red" stroke-width="10.0" />
</svg>
