<svg xmlns="http://www.w3.org/2000/svg"
  viewBox="26.981981981909826 -664.4705882351142 1416.7533121344827 940.4705882351142">
  <rect x="26.981981981909826" y="-664.4705882351142" width="1416.7533121344827" height="940.4705882351142" fill="white"/>
  <path d="M 1144.0 218.0 L 1136.66666667 212.0 L 1136.16666667 206.5 L 1142.5 201.5 L 1148.83333333 196.5 L 1157.0 194.0 L 1167.0 194.0 L 1177.66666667 194.0 L 1192.83333333 184.166666667 L 1212.5 164.5 L 1232.16666667 144.833333333 L 1245.0 121.0 L 1251.0 93.0 L 1261.0 44.3333333333 L 1235.66666667 4.33333333333 L 1175.0 -27.0 L 1109.0 -59.6666666667 L 1024.0 -81.3333333333 L 920.0 -92.0 L 902.666666667 -93.3333333333 L 883.166666667 -94.0 L 861.5 -94.0 L 839.833333333 -94.0 L 827.666666667 -94.3333333333 L 825.0 -95.0 L 815.666666667 -98.3333333333 L 812.0 -104.0 L 814.0 -112.0 L 816.0 -120.0 L 821.0 -124.666666667 L 829.0 -126.0 L 836.333333333 -126.0 L 854.333333333 -125.166666667 L 883.0 -123.5 L 911.666666667 -121.833333333 L 943.333333333 -118.666666667 L 978.0 -114.0 L 1017.33333333 -108.0 L 1057.16666667 -100.0 L 1097.5 -90.0 L 1137.83333333 -80.0 L 1175.33333333 -68.3333333333 L 1210.0 -55.0 L 1249.33333333 -39.6666666667 L 1280.66666667 -24.1666666667 L 1304.0 -8.5 L 1327.33333333 7.16666666667 L 1349.0 27.6666666667 L 1369.0 53.0 L 1388.33333333 79.6666666667 L 1396.33333333 106.0 L 1393.0 132.0 L 1389.66666667 158.0 L 1378.33333333 178.0 L 1359.0 192.0 L 1341.66666667 205.333333333 L 1321.33333333 214.333333333 L 1298.0 219.0 L 1274.66666667 223.666666667 L 1252.33333333 226.0 L 1231.0 226.0 L 1199.0 226.0 L 1199.0 226.0 L 1187.5 226.0 L 1179.83333333 226.0 L 1165.33333333 223.333333333 Z M 103.0 -443.0 L 77.6666666667 -489.0 L 70.8333333333 -528.5 L 82.5 -561.5 L 94.1666666667 -594.5 L 115.0 -612.0 L 145.0 -614.0 L 164.333333333 -615.333333333 L 179.166666667 -613.833333333 L 189.5 -609.5 L 199.833333333 -605.166666667 L 209.0 -600.833333333 L 217.0 -596.5 L 225.0 -592.166666667 L 232.5 -587.5 L 239.5 -582.5 L 246.5 -577.5 L 253.0 -572.333333333 L 259.0 -567.0 L 265.0 -561.666666667 L 269.166666667 -556.833333333 L 271.5 -552.5 L 273.833333333 -548.166666667 L 274.833333333 -544.166666667 L 274.5 -540.5 L 274.166666667 -536.833333333 L 272.833333333 -534.333333333 L 270.5 -533.0 L 268.166666667 -531.666666667 L 261.166666667 -528.666666667 L 249.5 -524.0 L 237.833333333 -519.333333333 L 222.666666667 -511.833333333 L 204.0 -501.5 L 185.333333333 -491.166666667 L 176.333333333 -473.666666667 L 177.0 -449.0 L 177.0 -423.666666667 L 203.333333333 -399.833333333 L 256.0 -377.5 L 308.666666667 -355.166666667 L 387.0 -346.0 L 491.0 -350.0 L 938.0 -369.0 L 960.0 -369.0 L 977.5 -367.5 L 990.5 -364.5 L 1003.5 -361.5 L 1015.33333333 -357.666666667 L 1026.0 -353.0 L 1036.66666667 -348.333333333 L 1045.66666667 -343.833333333 L 1053.0 -339.5 L 1060.33333333 -335.166666667 L 1069.0 -328.5 L 1079.0 -319.5 L 1089.0 -310.5 L 1100.5 -299.0 L 1113.5 -285.0 L 1126.5 -271.0 L 1135.16666667 -260.666666667 L 1139.5 -254.0 L 1143.83333333 -247.333333333 L 1146.0 -240.833333333 L 1146.0 -234.5 L 1146.0 -228.166666667 L 1143.83333333 -224.0 L 1139.5 -222.0 L 1135.16666667 -220.0 L 1130.66666667 -219.0 L 1126.0 -219.0 L 1121.33333333 -219.0 L 1116.33333333 -220.0 L 1111.0 -222.0 L 1105.66666667 -224.0 L 1099.16666667 -226.333333333 L 1091.5 -229.0 L 1083.83333333 -231.666666667 L 1075.33333333 -234.333333333 L 1066.0 -237.0 L 1056.66666667 -239.666666667 L 1048.0 -241.666666667 L 1040.0 -243.0 L 1032.0 -244.333333333 L 1021.0 -245.333333333 L 1007.0 -246.0 L 900.0 -252.0 L 838.666666667 -252.0 L 774.166666667 -254.5 L 706.5 -259.5 L 638.833333333 -264.5 L 575.0 -271.0 L 515.0 -279.0 L 455.0 -287.0 L 402.333333333 -295.666666667 L 357.0 -305.0 L 311.666666667 -314.333333333 L 280.666666667 -322.0 L 264.0 -328.0 L 235.333333333 -340.0 L 209.833333333 -351.833333333 L 187.5 -363.5 L 165.166666667 -375.166666667 L 137.0 -401.666666667 Z" fill="black" fill-opacity="0.25" stroke="black" stroke-width="4.0"/>
  <rect x="812.0" y="-126.0" width="583.9999999999999" height="352.0" fill="none" stroke="red" stroke-width="10.0" /><rect x="71.0" y="-615.0" width="1075.0" height="396.0" fill="none" stroke="red" stroke-width="10.0" />
</svg>
