<svg xmlns="http://www.w3.org/2000/svg"
  viewBox="35.264 -502 714.274 387.143">
  <rect x="35.264" y="-502" width="714.274" height="387.143" fill="white"/>
  <path d="M 107 -452 L 129.667 -452 L 153.667 -451.667 L 179 -451 L 204.333 -450.333 L 227 -448.333 L 247 -445 L 261 -445 L 276.5 -417.5 L 293.5 -362.5 L 310.5 -307.5 L 330.667 -259.333 L 354 -218 L 362 -204 L 369.333 -196 L 376 -194 L 382 -192 L 386.667 -188.5 L 390 -183.5 L 393.333 -178.5 L 390 -174 L 380 -170 L 356.667 -166 L 333.167 -164.333 L 309.5 -165 L 285.833 -165.667 L 263.333 -167.333 L 242 -170 L 222 -178 L 205.5 -203.667 L 192.5 -247 L 179.5 -290.333 L 161.333 -340.667 L 138 -398 L 136 -401.333 L 131.833 -405.833 L 125.5 -411.5 L 119.167 -417.167 L 112 -421 L 104 -423 L 93.333 -425 L 87.167 -430.167 L 85.5 -438.5 L 83.833 -446.833 L 91 -451.333 Z M 416 -452 L 438.667 -452 L 462.5 -451.667 L 487.5 -451 L 512.5 -450.333 L 535.333 -448.333 L 556 -445 L 570 -445 L 585.333 -417.5 L 602 -362.5 L 618.667 -307.5 L 639 -259.333 L 663 -218 L 671 -204 L 678.333 -196 L 685 -194 L 691 -192 L 695.5 -188.5 L 698.5 -183.5 L 701.5 -178.5 L 698 -174 L 688 -170 L 664.667 -166 L 641.333 -164.333 L 618 -165 L 594.667 -165.667 L 572.333 -167.333 L 551 -170 L 531 -178 L 514.333 -203.667 L 501 -247 L 487.667 -290.333 L 469.333 -340.667 L 446 -398 L 444 -401.333 L 440 -405.833 L 434 -411.5 L 428 -417.167 L 420.667 -421 L 412 -423 L 401.333 -425 L 395.333 -430.167 L 394 -438.5 L 392.667 -446.833 L 400 -451.333 Z" fill="black" fill-opacity="0.25" stroke="black" stroke-width="4"/>
  <rect x="84" y="-452" width="309" height="288" fill="none" stroke="red" stroke-width="10" /><rect x="393" y="-452" width="309" height="288" fill="none" stroke="red" stroke-width="10" />
</svg>
