<svg xmlns="http://www.w3.org/2000/svg"
  viewBox="-92.16 -497 404.41 386.538">
  <rect x="-92.16" y="-497" width="404.41" height="386.538" fill="white"/>
  <path d="M -21 -447 L 1.667 -447 L 25.5 -446.667 L 50.5 -446 L 75.5 -445.333 L 98 -443.667 L 118 -441 L 132 -441 L 147.5 -413.333 L 164.5 -358 L 181.5 -302.667 L 201.667 -254.333 L 225 -213 L 233 -199 L 240.333 -191 L 247 -189 L 253 -187 L 257.667 -183.667 L 261 -179 L 264.333 -174.333 L 261 -170 L 251 -166 L 227.667 -162 L 204.333 -160.167 L 181 -160.5 L 157.667 -160.833 L 135 -162.667 L 113 -166 L 93 -174 L 76.5 -199.5 L 63.5 -242.5 L 50.5 -285.5 L 32.333 -336 L 9 -394 L 7 -397.333 L 3 -401.833 L -3 -407.5 L -9 -413.167 L -16 -416.667 L -24 -418 L -34.667 -420 L -40.667 -425.333 L -42 -434 L -43.333 -442.667 L -36.333 -447 Z" fill="black" fill-opacity="0.25" stroke="black" stroke-width="4"/>
  <rect x="-43" y="-447" width="307" height="287" fill="none" stroke="red" stroke-width="10" />
</svg>
