<svg xmlns="http://www.w3.org/2000/svg"
  viewBox="-92.15999999999264 -497.0 404.40999999986764 386.53846153760946">
  <rect x="-92.15999999999264" y="-497.0" width="404.40999999986764" height="386.53846153760946" fill="white"/>
  <path d="M -21.0 -447.0 L 1.66666666667 -447.0 L 25.5 -446.666666667 L 50.5 -446.0 L 75.5 -445.333333333 L 98.0 -443.666666667 L 118.0 -441.0 L 132.0 -441.0 L 147.5 -413.333333333 L 164.5 -358.0 L 181.5 -302.666666667 L 201.666666667 -254.333333333 L 225.0 -213.0 L 233.0 -199.0 L 240.333333333 -191.0 L 247.0 -189.0 L 253.0 -187.0 L 257.666666667 -183.666666667 L 261.0 -179.0 L 264.333333333 -174.333333333 L 261.0 -170.0 L 251.0 -166.0 L 227.666666667 -162.0 L 204.333333333 -160.166666667 L 181.0 -160.5 L 157.666666667 -160.833333333 L 135.0 -162.666666667 L 113.0 -166.0 L 93.0 -174.0 L 76.5 -199.5 L 63.5 -242.5 L 50.5 -285.5 L 32.3333333333 -336.0 L 9.0 -394.0 L 7.0 -397.333333333 L 3.0 -401.833333333 L -3.0 -407.5 L -9.0 -413.166666667 L -16.0 -416.666666667 L -24.0 -418.0 L -34.6666666667 -420.0 L -40.6666666667 -425.333333333 L -42.0 -434.0 L -43.3333333333 -442.666666667 L -36.3333333333 -447.0 Z" fill="black" fill-opacity="0.25" stroke="black" stroke-width="4.0"/>
  <rect x="-43.0" y="-447.0" width="307.0" height="287.00000000000006" fill="none" stroke="red" stroke-width="10.0" />
</svg>
