<svg xmlns="http://www.w3.org/2000/svg"
  viewBox="29.750000000056247 -903.5217391303931 1991.2267441845233 731.1006864992131">
  <rect x="29.750000000056247" y="-903.5217391303931" width="1991.2267441845233" height="731.1006864992131" fill="white"/>
  <path d="M 1591.0 -671.0 L 1611.0 -671.0 L 1632.0 -670.666666667 L 1654.0 -670.0 L 1676.0 -669.333333333 L 1695.66666667 -667.333333333 L 1713.0 -664.0 L 1725.66666667 -664.0 L 1740.0 -647.0 L 1756.0 -613.0 L 1772.0 -579.0 L 1789.66666667 -541.666666667 L 1809.0 -501.0 L 1815.0 -487.0 L 1821.33333333 -479.0 L 1828.0 -477.0 L 1832.66666667 -475.0 L 1836.5 -471.5 L 1839.5 -466.5 L 1842.5 -461.5 L 1839.66666667 -457.0 L 1831.0 -453.0 L 1811.0 -449.0 L 1790.5 -447.333333333 L 1769.5 -448.0 L 1748.5 -448.666666667 L 1728.66666667 -450.333333333 L 1710.0 -453.0 L 1692.66666667 -461.0 L 1678.0 -476.0 L 1666.0 -498.0 L 1654.0 -520.0 L 1637.66666667 -559.666666667 L 1617.0 -617.0 L 1615.66666667 -620.333333333 L 1612.16666667 -625.5 L 1606.5 -632.5 L 1600.83333333 -639.5 L 1594.66666667 -643.666666667 L 1588.0 -645.0 L 1578.66666667 -646.333333333 L 1573.33333333 -651.0 L 1572.0 -659.0 L 1570.66666667 -667.0 L 1577.0 -671.0 Z M 1321.0 -671.0 L 1341.0 -671.0 L 1362.0 -670.666666667 L 1384.0 -670.0 L 1406.0 -669.333333333 L 1425.66666667 -667.333333333 L 1443.0 -664.0 L 1455.66666667 -664.0 L 1470.0 -647.0 L 1486.0 -613.0 L 1502.0 -579.0 L 1519.33333333 -541.666666667 L 1538.0 -501.0 L 1544.0 -487.0 L 1550.33333333 -479.0 L 1557.0 -477.0 L 1562.33333333 -475.0 L 1566.5 -471.5 L 1569.5 -466.5 L 1572.5 -461.5 L 1569.66666667 -457.0 L 1561.0 -453.0 L 1540.33333333 -449.0 L 1519.66666667 -447.333333333 L 1499.0 -448.0 L 1478.33333333 -448.666666667 L 1458.66666667 -450.333333333 L 1440.0 -453.0 L 1422.0 -461.0 L 1407.16666667 -476.0 L 1395.5 -498.0 L 1383.83333333 -520.0 L 1367.66666667 -559.666666667 L 1347.0 -617.0 L 1345.0 -620.333333333 L 1341.33333333 -625.5 L 1336.0 -632.5 L 1330.66666667 -639.5 L 1324.33333333 -643.666666667 L 1317.0 -645.0 L 1307.66666667 -646.333333333 L 1302.5 -651.0 L 1301.5 -659.0 L 1300.5 -667.0 L 1307.0 -671.0 Z M 172.5 -384.0 L 176.166666667 -389.333333333 L 180.0 -392.166666667 L 184.0 -392.5 L 188.0 -392.833333333 L 192.5 -391.666666667 L 197.5 -389.0 L 202.5 -386.333333333 L 208.666666667 -383.166666667 L 216.0 -379.5 L 223.333333333 -375.833333333 L 232.666666667 -372.833333333 L 244.0 -370.5 L 255.333333333 -368.166666667 L 271.333333333 -367.0 L 292.0 -367.0 L 1779.0 -367.0 L 1797.66666667 -367.0 L 1814.83333333 -365.5 L 1830.5 -362.5 L 1846.16666667 -359.5 L 1860.33333333 -354.666666667 L 1873.0 -348.0 L 1885.66666667 -341.333333333 L 1895.5 -335.333333333 L 1902.5 -330.0 L 1909.5 -324.666666667 L 1919.0 -315.5 L 1931.0 -302.5 L 1943.0 -289.5 L 1953.5 -277.0 L 1962.5 -265.0 L 1971.5 -253.0 L 1973.33333333 -241.333333333 L 1968.0 -230.0 L 1962.66666667 -222.0 L 1956.5 -220.333333333 L 1949.5 -225.0 L 1942.5 -229.666666667 L 1934.33333333 -233.666666667 L 1925.0 -237.0 L 1915.66666667 -240.333333333 L 1905.33333333 -242.666666667 L 1894.0 -244.0 L 1882.66666667 -245.333333333 L 1865.66666667 -246.0 L 1843.0 -246.0 L 370.0 -246.0 L 354.666666667 -246.0 L 340.666666667 -247.0 L 328.0 -249.0 L 315.333333333 -251.0 L 305.5 -253.166666667 L 298.5 -255.5 L 291.5 -257.833333333 L 284.0 -261.0 L 276.0 -265.0 L 268.0 -269.0 L 259.5 -273.833333333 L 250.5 -279.5 L 241.5 -285.166666667 L 232.0 -293.166666667 L 222.0 -303.5 L 212.0 -313.833333333 L 201.833333333 -325.833333333 L 191.5 -339.5 L 181.166666667 -353.166666667 L 174.5 -362.666666667 L 171.5 -368.0 L 168.5 -373.333333333 L 168.833333333 -378.666666667 Z M 376.0 -489.0 L 350.666666667 -479.666666667 L 308.0 -480.0 L 248.0 -490.0 L 212.666666667 -498.666666667 L 181.333333333 -510.333333333 L 154.0 -525.0 L 126.666666667 -539.666666667 L 105.666666667 -565.333333333 L 91.0 -602.0 L 81.0 -637.333333333 L 77.6666666667 -665.666666667 L 81.0 -687.0 L 84.3333333333 -708.333333333 L 96.3333333333 -732.666666667 L 117.0 -760.0 L 136.333333333 -783.333333333 L 158.833333333 -801.0 L 184.5 -813.0 L 210.166666667 -825.0 L 241.666666667 -835.0 L 279.0 -843.0 L 316.333333333 -850.333333333 L 346.666666667 -853.833333333 L 370.0 -853.5 L 393.333333333 -853.166666667 L 418.333333333 -852.333333333 L 445.0 -851.0 L 471.666666667 -849.666666667 L 496.5 -847.5 L 519.5 -844.5 L 542.5 -841.5 L 570.333333333 -835.0 L 603.0 -825.0 L 657.0 -810.333333333 L 710.333333333 -790.0 L 763.0 -764.0 L 792.333333333 -749.333333333 L 823.666666667 -733.5 L 857.0 -716.5 L 890.333333333 -699.5 L 927.333333333 -679.666666667 L 968.0 -657.0 L 986.666666667 -645.666666667 L 1007.0 -633.5 L 1029.0 -620.5 L 1051.0 -607.5 L 1075.0 -594.333333333 L 1101.0 -581.0 L 1120.33333333 -569.0 L 1139.33333333 -556.833333333 L 1158.0 -544.5 L 1176.66666667 -532.166666667 L 1184.5 -519.833333333 L 1181.5 -507.5 L 1178.5 -495.166666667 L 1171.33333333 -489.333333333 L 1160.0 -490.0 L 1148.66666667 -490.666666667 L 1113.0 -490.333333333 L 1053.0 -489.0 L 993.0 -487.666666667 L 940.666666667 -487.666666667 L 896.0 -489.0 L 878.0 -502.333333333 L 878.166666667 -511.833333333 L 896.5 -517.5 L 914.833333333 -523.166666667 L 928.333333333 -530.333333333 L 937.0 -539.0 L 953.666666667 -556.333333333 L 961.166666667 -570.0 L 959.5 -580.0 L 957.833333333 -590.0 L 955.166666667 -597.833333333 L 951.5 -603.5 L 947.833333333 -609.166666667 L 942.333333333 -615.333333333 L 935.0 -622.0 L 927.666666667 -628.666666667 L 909.5 -641.833333333 L 880.5 -661.5 L 851.5 -681.166666667 L 815.333333333 -702.0 L 772.0 -724.0 L 733.333333333 -740.666666667 L 703.0 -754.5 L 681.0 -765.5 L 659.0 -776.5 L 623.333333333 -788.666666667 L 574.0 -802.0 L 537.333333333 -809.333333333 L 500.0 -813.666666667 L 462.0 -815.0 L 424.0 -816.333333333 L 385.666666667 -810.666666667 L 347.0 -798.0 L 319.666666667 -786.0 L 300.333333333 -775.833333333 L 289.0 -767.5 L 277.666666667 -759.166666667 L 265.0 -744.333333333 L 251.0 -723.0 L 239.0 -703.0 L 232.166666667 -686.166666667 L 230.5 -672.5 L 228.833333333 -658.833333333 L 228.666666667 -642.666666667 L 230.0 -624.0 L 230.666666667 -605.333333333 L 232.833333333 -592.0 L 236.5 -584.0 L 240.166666667 -576.0 L 245.0 -567.666666667 L 251.0 -559.0 L 257.0 -550.333333333 L 264.5 -542.5 L 273.5 -535.5 L 282.5 -528.5 L 296.166666667 -523.5 L 314.5 -520.5 L 332.833333333 -517.5 L 351.333333333 -515.0 L 370.0 -513.0 L 378.0 -511.666666667 L 383.0 -508.5 L 385.0 -503.5 L 387.0 -498.5 L 384.0 -493.666666667 Z" fill="black" fill-opacity="0.25" stroke="black" stroke-width="4.0"/>
  <rect x="1571.0" y="-671.0" width="272.0" height="224.00000000000003" fill="none" stroke="red" stroke-width="10.0" /><rect x="1300.0" y="-671.0" width="272.9999999999999" height="224.00000000000003" fill="none" stroke="red" stroke-width="10.0" /><rect x="169.0" y="-393.0" width="1804.0" height="173.00000000000003" fill="none" stroke="red" stroke-width="10.0" /><rect x="78.0" y="-854.0" width="1107.0" height="374.0" fill="none" stroke="red" stroke-width="10.0" />
</svg>
