<svg xmlns="http://www.w3.org/2000/svg"
  viewBox="17.222 -442.556 1436.825 515.101">
  <rect x="17.222" y="-442.556" width="1436.825" height="515.101" fill="white"/>
  <path d="M 863 -180 L 885.667 -180 L 909.667 -179.833 L 935 -179.5 L 960.333 -179.167 L 983 -177.667 L 1003 -175 L 1017 -175 L 1030.333 -158 L 1043 -124 L 1055.667 -90 L 1073.667 -56 L 1097 -22 L 1105 -10 L 1112.333 -3.333 L 1119 -2 L 1125 -0.667 L 1129.667 2 L 1133 6 L 1136.333 10 L 1133 13.667 L 1123 17 L 1099.667 20.333 L 1076.167 21.667 L 1052.5 21 L 1028.833 20.333 L 1006.333 19 L 985 17 L 965 10.333 L 950.667 -5.167 L 942 -29.5 L 933.333 -53.833 L 917.333 -89.667 L 894 -137 L 886.667 -148.333 L 875.333 -155 L 860 -157 L 849.333 -158.333 L 843.167 -162.5 L 841.5 -169.5 L 839.833 -176.5 L 847 -180 Z M 615 -181 L 635 -181 L 655.833 -180.833 L 677.5 -180.5 L 699.167 -180.167 L 719 -178.667 L 737 -176 L 749.667 -176 L 762.833 -158.5 L 776.5 -123.5 L 790.167 -88.5 L 806.667 -54 L 826 -20 L 832 -8 L 838.333 -1.667 L 845 -1 L 850.333 0.333 L 854.333 3 L 857 7 L 859.667 11 L 857 14.667 L 849 18 L 829 21.333 L 808.5 22.833 L 787.5 22.5 L 766.5 22.167 L 746.667 20.667 L 728 18 L 710.667 11.333 L 697 -4.333 L 687 -29 L 677 -53.667 L 661.667 -89.667 L 641 -137 L 639 -139.667 L 635.333 -144 L 630 -150 L 624.667 -156 L 618.333 -159.667 L 611 -161 L 601.667 -162.333 L 596.5 -166 L 595.5 -172 L 594.5 -178 L 601 -181 Z M 70 -384 L 73.333 -389.333 L 77.167 -392.167 L 81.5 -392.5 L 85.833 -392.833 L 90.5 -391.667 L 95.5 -389 L 100.5 -386.333 L 106.5 -383.167 L 113.5 -379.5 L 120.5 -375.833 L 129.667 -372.833 L 141 -370.5 L 152.333 -368.167 L 168.333 -367 L 189 -367 L 1213 -367 L 1231.667 -367 L 1248.667 -365.5 L 1264 -362.5 L 1279.333 -359.5 L 1293.333 -354.667 L 1306 -348 L 1318.667 -341.333 L 1328.5 -335.333 L 1335.5 -330 L 1342.5 -324.667 L 1352.167 -315.5 L 1364.5 -302.5 L 1376.833 -289.5 L 1387.333 -277 L 1396 -265 L 1404.667 -253 L 1406.333 -241.333 L 1401 -230 L 1395.667 -222 L 1389.667 -220.333 L 1383 -225 L 1376.333 -229.667 L 1368.167 -233.667 L 1358.5 -237 L 1348.833 -240.333 L 1338.5 -242.667 L 1327.5 -244 L 1316.5 -245.333 L 1299.333 -246 L 1276 -246 L 267 -246 L 251.667 -246 L 237.833 -247 L 225.5 -249 L 213.167 -251 L 203.333 -253.167 L 196 -255.5 L 188.667 -257.833 L 181.167 -261 L 173.5 -265 L 165.833 -269 L 157.5 -273.833 L 148.5 -279.5 L 139.5 -285.167 L 129.833 -293.167 L 119.5 -303.5 L 109.167 -313.833 L 98.833 -325.833 L 88.5 -339.5 L 78.167 -353.167 L 71.667 -362.667 L 69 -368 L 66.333 -373.333 L 66.667 -378.667 Z" fill="black" fill-opacity="0.25" stroke="black" stroke-width="4"/>
  <rect x="840" y="-180" width="296" height="202" fill="none" stroke="red" stroke-width="10" /><rect x="595" y="-181" width="265" height="204" fill="none" stroke="red" stroke-width="10" /><rect x="66" y="-393" width="1340" height="173" fill="none" stroke="red" stroke-width="10" />
</svg>
