<svg xmlns="http://www.w3.org/2000/svg"
  viewBox="32.222222222237036 -786.6956521732704 1436.7545219623426 614.2745995420904">
  <rect x="32.222222222237036" y="-786.6956521732704" width="1436.7545219623426" height="614.2745995420904" fill="white"/>
  <path d="M 1062.0 -735.0 L 1077.33333333 -735.0 L 1084.83333333 -730.333333333 L 1084.5 -721.0 L 1084.16666667 -711.666666667 L 1078.66666667 -706.0 L 1068.0 -704.0 L 1050.66666667 -700.0 L 1038.66666667 -692.333333333 L 1032.0 -681.0 L 1008.0 -623.666666667 L 989.666666667 -573.5 L 977.0 -530.5 L 964.333333333 -487.5 L 947.666666667 -461.666666667 L 927.0 -453.0 L 905.666666667 -450.333333333 L 883.166666667 -448.833333333 L 859.5 -448.5 L 835.833333333 -448.166666667 L 812.666666667 -449.666666667 L 790.0 -453.0 L 780.0 -457.0 L 776.5 -461.5 L 779.5 -466.5 L 782.5 -471.5 L 787.333333333 -475.0 L 794.0 -477.0 L 800.666666667 -478.333333333 L 807.666666667 -486.333333333 L 815.0 -501.0 L 838.333333333 -542.333333333 L 857.833333333 -589.166666667 L 873.5 -641.5 L 889.166666667 -693.833333333 L 905.666666667 -722.666666667 L 923.0 -728.0 L 945.666666667 -734.666666667 L 968.666666667 -737.5 L 992.0 -736.5 L 1015.33333333 -735.5 L 1038.66666667 -735.0 Z M 85.0 -384.0 L 88.3333333333 -389.333333333 L 92.1666666667 -392.166666667 L 96.5 -392.5 L 100.833333333 -392.833333333 L 105.333333333 -391.666666667 L 110.0 -389.0 L 114.666666667 -386.333333333 L 120.666666667 -383.166666667 L 128.0 -379.5 L 135.333333333 -375.833333333 L 144.666666667 -372.833333333 L 156.0 -370.5 L 167.333333333 -368.166666667 L 183.333333333 -367.0 L 204.0 -367.0 L 1228.0 -367.0 L 1246.66666667 -367.0 L 1263.66666667 -365.5 L 1279.0 -362.5 L 1294.33333333 -359.5 L 1308.33333333 -354.666666667 L 1321.0 -348.0 L 1333.66666667 -341.333333333 L 1343.5 -335.333333333 L 1350.5 -330.0 L 1357.5 -324.666666667 L 1367.0 -315.5 L 1379.0 -302.5 L 1391.0 -289.5 L 1401.5 -277.0 L 1410.5 -265.0 L 1419.5 -253.0 L 1421.33333333 -241.333333333 L 1416.0 -230.0 L 1410.66666667 -222.0 L 1404.5 -220.333333333 L 1397.5 -225.0 L 1390.5 -229.666666667 L 1382.33333333 -233.666666667 L 1373.0 -237.0 L 1363.66666667 -240.333333333 L 1353.5 -242.666666667 L 1342.5 -244.0 L 1331.5 -245.333333333 L 1314.33333333 -246.0 L 1291.0 -246.0 L 282.0 -246.0 L 266.666666667 -246.0 L 252.666666667 -247.0 L 240.0 -249.0 L 227.333333333 -251.0 L 217.5 -253.166666667 L 210.5 -255.5 L 203.5 -257.833333333 L 196.0 -261.0 L 188.0 -265.0 L 180.0 -269.0 L 171.5 -273.833333333 L 162.5 -279.5 L 153.5 -285.166666667 L 144.0 -293.166666667 L 134.0 -303.5 L 124.0 -313.833333333 L 113.833333333 -325.833333333 L 103.5 -339.5 L 93.1666666667 -353.166666667 L 86.6666666667 -362.666666667 L 84.0 -368.0 L 81.3333333333 -373.333333333 L 81.6666666667 -378.666666667 Z" fill="black" fill-opacity="0.25" stroke="black" stroke-width="4.0"/>
  <rect x="776.0" y="-738.0" width="308.99999999999994" height="290.0" fill="none" stroke="red" stroke-width="10.0" /><rect x="81.0" y="-393.0" width="1340.0" height="173.00000000000003" fill="none" stroke="red" stroke-width="10.0" />
</svg>
