<svg xmlns="http://www.w3.org/2000/svg"
  viewBox="27.222 -856 1568.755 683.579">
  <rect x="27.222" y="-856" width="1568.755" height="683.579" fill="white"/>
  <path d="M 408 -458 L 400.667 -464 L 400.333 -469.5 L 407 -474.5 L 413.667 -479.5 L 422 -482 L 432 -482 L 442.667 -482 L 457.667 -491.833 L 477 -511.5 L 496.333 -531.167 L 509.333 -555.333 L 516 -584 L 526 -632.667 L 500.333 -672.333 L 439 -703 L 415.667 -714.333 L 386.333 -724.5 L 351 -733.5 L 315.667 -742.5 L 280.667 -750.333 L 246 -757 L 211.333 -763.667 L 180.833 -769.167 L 154.5 -773.5 L 128.167 -778.5 L 112.667 -781.667 L 108 -783 L 98.667 -786.333 L 95.167 -791 L 97.5 -797 L 99.833 -803 L 104.667 -806 L 112 -806 L 116 -806 L 131 -804.5 L 157 -801.5 L 183 -798.5 L 214 -794 L 250 -788 L 286 -782 L 324.167 -774.167 L 364.5 -764.5 L 404.833 -754.833 L 441.667 -743.667 L 475 -731 L 514.333 -715.667 L 545.667 -700.333 L 569 -685 L 592.333 -669.667 L 613.667 -649 L 633 -623 L 652.333 -597 L 660.5 -571 L 657.5 -545 L 654.5 -519 L 643.333 -498.667 L 624 -484 L 606 -470.667 L 585.5 -461.667 L 562.5 -457 L 539.5 -452.333 L 517.333 -450 L 496 -450 L 464 -450 L 464 -450 L 452 -450 L 444 -450 L 429.333 -452.667 Z M 1149 -671 L 1169 -671 L 1190 -670.667 L 1212 -670 L 1234 -669.333 L 1253.667 -667.333 L 1271 -664 L 1283.667 -664 L 1298 -647 L 1314 -613 L 1330 -579 L 1347.667 -541.667 L 1367 -501 L 1372.333 -487 L 1378.667 -479 L 1386 -477 L 1390.667 -475 L 1394.5 -471.5 L 1397.5 -466.5 L 1400.5 -461.5 L 1397.667 -457 L 1389 -453 L 1369 -449 L 1348.5 -447.333 L 1327.5 -448 L 1306.5 -448.667 L 1287 -450.333 L 1269 -453 L 1251.667 -461 L 1236.833 -476 L 1224.5 -498 L 1212.167 -520 L 1195.667 -559.667 L 1175 -617 L 1173 -620.333 L 1169.333 -625.5 L 1164 -632.5 L 1158.667 -639.5 L 1152.667 -643.667 L 1146 -645 L 1136.667 -646.333 L 1131.333 -651 L 1130 -659 L 1128.667 -667 L 1135 -671 Z M 879 -671 L 899 -671 L 920 -670.667 L 942 -670 L 964 -669.333 L 983.667 -667.333 L 1001 -664 L 1013.667 -664 L 1028 -647 L 1044 -613 L 1060 -579 L 1077.333 -541.667 L 1096 -501 L 1102 -487 L 1108.333 -479 L 1115 -477 L 1120.333 -475 L 1124.5 -471.5 L 1127.5 -466.5 L 1130.5 -461.5 L 1127.667 -457 L 1119 -453 L 1098.333 -449 L 1077.667 -447.333 L 1057 -448 L 1036.333 -448.667 L 1016.667 -450.333 L 998 -453 L 980.667 -461 L 966 -476 L 954 -498 L 942 -520 L 925.667 -559.667 L 905 -617 L 903 -620.333 L 899.333 -625.5 L 894 -632.5 L 888.667 -639.5 L 882.333 -643.667 L 875 -645 L 865.667 -646.333 L 860.5 -651 L 859.5 -659 L 858.5 -667 L 865 -671 Z M 80 -384 L 83.333 -389.333 L 87.167 -392.167 L 91.5 -392.5 L 95.833 -392.833 L 100.333 -391.667 L 105 -389 L 109.667 -386.333 L 115.667 -383.167 L 123 -379.5 L 130.333 -375.833 L 139.667 -372.833 L 151 -370.5 L 162.333 -368.167 L 178.333 -367 L 199 -367 L 1354 -367 L 1372.667 -367 L 1389.833 -365.5 L 1405.5 -362.5 L 1421.167 -359.5 L 1435.333 -354.667 L 1448 -348 L 1460.667 -341.333 L 1470.5 -335.333 L 1477.5 -330 L 1484.5 -324.667 L 1494 -315.5 L 1506 -302.5 L 1518 -289.5 L 1528.5 -277 L 1537.5 -265 L 1546.5 -253 L 1548.333 -241.333 L 1543 -230 L 1537.667 -222 L 1531.5 -220.333 L 1524.5 -225 L 1517.5 -229.667 L 1509.333 -233.667 L 1500 -237 L 1490.667 -240.333 L 1480.5 -242.667 L 1469.5 -244 L 1458.5 -245.333 L 1441.333 -246 L 1418 -246 L 277 -246 L 261.667 -246 L 247.667 -247 L 235 -249 L 222.333 -251 L 212.5 -253.167 L 205.5 -255.5 L 198.5 -257.833 L 191 -261 L 183 -265 L 175 -269 L 166.667 -273.833 L 158 -279.5 L 149.333 -285.167 L 139.833 -293.167 L 129.5 -303.5 L 119.167 -313.833 L 108.833 -325.833 L 98.5 -339.5 L 88.167 -353.167 L 81.667 -362.667 L 79 -368 L 76.333 -373.333 L 76.667 -378.667 Z" fill="black" fill-opacity="0.25" stroke="black" stroke-width="4"/>
  <rect x="95" y="-806" width="565" height="356" fill="none" stroke="red" stroke-width="10" /><rect x="1129" y="-671" width="272" height="224" fill="none" stroke="red" stroke-width="10" /><rect x="859" y="-671" width="272" height="224" fill="none" stroke="red" stroke-width="10" /><rect x="76" y="-393" width="1472" height="173" fill="none" stroke="red" stroke-width="10" />
</svg>
