<svg xmlns="http://www.w3.org/2000/svg"
  viewBox="32.222222222237036 -1320.0 1436.7545219623426 1147.5789473688199">
  <rect x="32.222222222237036" y="-1320.0" width="1436.7545219623426" height="1147.5789473688199" fill="white"/>
  <path d="M 640.0 -667.0 L 660.666666667 -667.0 L 682.0 -666.833333333 L 704.0 -666.5 L 726.0 -666.166666667 L 746.0 -664.666666667 L 764.0 -662.0 L 776.666666667 -662.0 L 789.5 -640.5 L 802.5 -597.5 L 815.5 -554.5 L 831.666666667 -516.333333333 L 851.0 -483.0 L 857.0 -471.666666667 L 863.0 -465.666666667 L 869.0 -465.0 L 874.333333333 -463.666666667 L 878.333333333 -460.833333333 L 881.0 -456.5 L 883.666666667 -452.166666667 L 880.666666667 -448.666666667 L 872.0 -446.0 L 850.666666667 -442.666666667 L 829.5 -441.333333333 L 808.5 -442.0 L 787.5 -442.666666667 L 767.666666667 -444.0 L 749.0 -446.0 L 731.0 -452.666666667 L 717.0 -472.833333333 L 707.0 -506.5 L 697.0 -540.166666667 L 682.666666667 -579.666666667 L 664.0 -625.0 L 658.0 -635.666666667 L 648.333333333 -642.333333333 L 635.0 -645.0 L 625.0 -646.333333333 L 619.833333333 -650.333333333 L 619.5 -657.0 L 619.166666667 -663.666666667 L 626.0 -667.0 Z M 85.0 -384.0 L 88.3333333333 -389.333333333 L 92.1666666667 -392.166666667 L 96.5 -392.5 L 100.833333333 -392.833333333 L 105.333333333 -391.666666667 L 110.0 -389.0 L 114.666666667 -386.333333333 L 120.666666667 -383.166666667 L 128.0 -379.5 L 135.333333333 -375.833333333 L 144.666666667 -372.833333333 L 156.0 -370.5 L 167.333333333 -368.166666667 L 183.333333333 -367.0 L 204.0 -367.0 L 1228.0 -367.0 L 1246.66666667 -367.0 L 1263.66666667 -365.5 L 1279.0 -362.5 L 1294.33333333 -359.5 L 1308.33333333 -354.666666667 L 1321.0 -348.0 L 1333.66666667 -341.333333333 L 1343.5 -335.333333333 L 1350.5 -330.0 L 1357.5 -324.666666667 L 1367.0 -315.5 L 1379.0 -302.5 L 1391.0 -289.5 L 1401.5 -277.0 L 1410.5 -265.0 L 1419.5 -253.0 L 1421.33333333 -241.333333333 L 1416.0 -230.0 L 1410.66666667 -222.0 L 1404.5 -220.333333333 L 1397.5 -225.0 L 1390.5 -229.666666667 L 1382.33333333 -233.666666667 L 1373.0 -237.0 L 1363.66666667 -240.333333333 L 1353.5 -242.666666667 L 1342.5 -244.0 L 1331.5 -245.333333333 L 1314.33333333 -246.0 L 1291.0 -246.0 L 282.0 -246.0 L 266.666666667 -246.0 L 252.666666667 -247.0 L 240.0 -249.0 L 227.333333333 -251.0 L 217.5 -253.166666667 L 210.5 -255.5 L 203.5 -257.833333333 L 196.0 -261.0 L 188.0 -265.0 L 180.0 -269.0 L 171.5 -273.833333333 L 162.5 -279.5 L 153.5 -285.166666667 L 144.0 -293.166666667 L 134.0 -303.5 L 124.0 -313.833333333 L 113.833333333 -325.833333333 L 103.5 -339.5 L 93.1666666667 -353.166666667 L 86.6666666667 -362.666666667 L 84.0 -368.0 L 81.3333333333 -373.333333333 L 81.6666666667 -378.666666667 Z M 1078.0 -1270.0 L 1088.0 -1268.66666667 L 1092.33333333 -1264.0 L 1091.0 -1256.0 L 1089.66666667 -1248.0 L 1083.33333333 -1243.66666667 L 1072.0 -1243.0 L 1059.33333333 -1239.0 L 1049.0 -1224.16666667 L 1041.0 -1198.5 L 1033.0 -1172.83333333 L 1024.66666667 -1145.66666667 L 1016.0 -1117.0 L 995.333333333 -1049.66666667 L 976.333333333 -995.166666667 L 959.0 -953.5 L 941.666666667 -911.833333333 L 925.166666667 -882.833333333 L 909.5 -866.5 L 893.833333333 -850.166666667 L 875.333333333 -837.666666667 L 854.0 -829.0 L 820.666666667 -815.666666667 L 787.833333333 -805.833333333 L 755.5 -799.5 L 723.166666667 -793.166666667 L 695.0 -790.0 L 671.0 -790.0 L 683.0 -764.0 L 702.666666667 -746.166666667 L 730.0 -736.5 L 757.333333333 -726.833333333 L 765.333333333 -716.333333333 L 754.0 -705.0 L 747.333333333 -699.0 L 726.0 -707.333333333 L 690.0 -730.0 L 654.0 -752.666666667 L 629.333333333 -775.0 L 616.0 -797.0 L 616.0 -811.0 L 622.333333333 -816.833333333 L 635.0 -814.5 L 647.666666667 -812.166666667 L 661.0 -810.333333333 L 675.0 -809.0 L 689.666666667 -808.333333333 L 704.5 -809.166666667 L 719.5 -811.5 L 734.5 -813.833333333 L 754.666666667 -820.666666667 L 780.0 -832.0 L 792.666666667 -838.0 L 804.5 -851.0 L 815.5 -871.0 L 826.5 -891.0 L 836.333333333 -913.166666667 L 845.0 -937.5 L 853.666666667 -961.833333333 L 861.166666667 -985.833333333 L 867.5 -1009.5 L 873.833333333 -1033.16666667 L 882.0 -1067.5 L 892.0 -1112.5 L 902.0 -1157.5 L 910.666666667 -1187.66666667 L 918.0 -1203.0 L 925.333333333 -1218.33333333 L 935.5 -1230.66666667 L 948.5 -1240.0 L 961.5 -1249.33333333 L 974.0 -1255.33333333 L 986.0 -1258.0 L 998.0 -1260.66666667 L 1011.5 -1262.83333333 L 1026.5 -1264.5 L 1041.5 -1266.16666667 L 1058.66666667 -1268.0 Z" fill="black" fill-opacity="0.25" stroke="black" stroke-width="4.0"/>
  <rect x="619.0" y="-667.0" width="265.0" height="226.00000000000003" fill="none" stroke="red" stroke-width="10.0" /><rect x="81.0" y="-393.0" width="1340.0" height="173.00000000000003" fill="none" stroke="red" stroke-width="10.0" /><rect x="616.0" y="-1270.0" width="476.0000000000001" height="571.0000000000001" fill="none" stroke="red" stroke-width="10.0" />
</svg>
