<svg xmlns="http://www.w3.org/2000/svg"
  viewBox="32.222 -985.909 1436.755 813.488">
  <rect x="32.222" y="-985.909" width="1436.755" height="813.488" fill="white"/>
  <path d="M 989 -530 L 998 -492 L 998.667 -489.333 L 1002.333 -482.833 L 1009 -472.5 L 1015.667 -462.167 L 1019 -455.667 L 1019 -453 L 1019 -450.333 L 1013.5 -448 L 1002.5 -446 L 991.5 -444 L 984 -443 L 980 -443 L 919 -443 L 911 -443 L 903.5 -448.667 L 896.5 -460 L 889.5 -471.333 L 885 -482 L 883 -492 L 875 -531 L 797 -531 L 725.333 -534 L 660 -540 L 594.667 -546 L 548.333 -551.333 L 521 -556 L 470.333 -564 L 428.5 -578 L 395.5 -598 L 362.5 -618 L 340.667 -640.667 L 330 -666 L 324.667 -678.667 L 315 -697.5 L 301 -722.5 L 287 -747.5 L 272.333 -772.667 L 257 -798 L 241.667 -823.333 L 227.167 -846 L 213.5 -866 L 199.833 -886 L 190.333 -897.333 L 185 -900 L 157.667 -909.333 L 151.667 -919.333 L 167 -930 L 201 -932.667 L 233.167 -934.5 L 263.5 -935.5 L 293.833 -936.5 L 325 -935.667 L 357 -933 L 389 -931 L 412 -912.667 L 426 -878 L 440 -843.333 L 453.667 -798 L 467 -742 L 481 -686 L 498.333 -647.833 L 519 -627.5 L 539.667 -607.167 L 575 -590.333 L 625 -577 L 653 -569 L 686.833 -564 L 726.5 -562 L 766.167 -560 L 814.667 -559.333 L 872 -560 L 859 -629 L 858.333 -632.333 L 855 -636.833 L 849 -642.5 L 843 -648.167 L 840 -652.333 L 840 -655 L 840 -659 L 845.5 -661.667 L 856.5 -663 L 867.5 -664.333 L 875 -665 L 879 -665 L 940 -665 L 947.333 -665 L 954.5 -659.833 L 961.5 -649.5 L 968.5 -639.167 L 973.333 -628 L 976 -616 L 986 -561 L 1030.667 -561.667 L 1061.167 -563.167 L 1077.5 -565.5 L 1093.833 -567.833 L 1111 -570.333 L 1129 -573 L 1136.333 -572.333 L 1140.833 -569 L 1142.5 -563 L 1144.167 -557 L 1142.667 -551.667 L 1138 -547 L 1131.333 -541.667 L 1117.667 -537.5 L 1097 -534.5 L 1076.333 -531.5 L 1040.333 -530 Z M 85 -384 L 88.333 -389.333 L 92.167 -392.167 L 96.5 -392.5 L 100.833 -392.833 L 105.333 -391.667 L 110 -389 L 114.667 -386.333 L 120.667 -383.167 L 128 -379.5 L 135.333 -375.833 L 144.667 -372.833 L 156 -370.5 L 167.333 -368.167 L 183.333 -367 L 204 -367 L 1228 -367 L 1246.667 -367 L 1263.667 -365.5 L 1279 -362.5 L 1294.333 -359.5 L 1308.333 -354.667 L 1321 -348 L 1333.667 -341.333 L 1343.5 -335.333 L 1350.5 -330 L 1357.5 -324.667 L 1367 -315.5 L 1379 -302.5 L 1391 -289.5 L 1401.5 -277 L 1410.5 -265 L 1419.5 -253 L 1421.333 -241.333 L 1416 -230 L 1410.667 -222 L 1404.5 -220.333 L 1397.5 -225 L 1390.5 -229.667 L 1382.333 -233.667 L 1373 -237 L 1363.667 -240.333 L 1353.5 -242.667 L 1342.5 -244 L 1331.5 -245.333 L 1314.333 -246 L 1291 -246 L 282 -246 L 266.667 -246 L 252.667 -247 L 240 -249 L 227.333 -251 L 217.5 -253.167 L 210.5 -255.5 L 203.5 -257.833 L 196 -261 L 188 -265 L 180 -269 L 171.5 -273.833 L 162.5 -279.5 L 153.5 -285.167 L 144 -293.167 L 134 -303.5 L 124 -313.833 L 113.833 -325.833 L 103.5 -339.5 L 93.167 -353.167 L 86.667 -362.667 L 84 -368 L 81.333 -373.333 L 81.667 -378.667 Z" fill="black" fill-opacity="0.25" stroke="black" stroke-width="4"/>
  <rect x="152" y="-936" width="992" height="493" fill="none" stroke="red" stroke-width="10" /><rect x="81" y="-393" width="1340" height="173" fill="none" stroke="red" stroke-width="10" />
</svg>
