<svg xmlns="http://www.w3.org/2000/svg"
  viewBox="310.222 -833.55 1402.825 515.106">
  <rect x="310.222" y="-833.55" width="1402.825" height="515.106" fill="white"/>
  <path d="M 1352 -549 L 1372.667 -549 L 1394.167 -548.833 L 1416.5 -548.5 L 1438.833 -548.167 L 1459 -546.667 L 1477 -544 L 1489.667 -544 L 1501.667 -528.667 L 1513 -498 L 1524.333 -467.333 L 1540.667 -437 L 1562 -407 L 1569.333 -396.333 L 1575.667 -390.333 L 1581 -389 L 1586.333 -387.667 L 1590.5 -385.167 L 1593.5 -381.5 L 1596.5 -377.833 L 1593.667 -374.667 L 1585 -372 L 1564.333 -369.333 L 1543.333 -368.167 L 1522 -368.5 L 1500.667 -368.833 L 1480.333 -370 L 1461 -372 L 1443 -378 L 1430.167 -391.833 L 1422.5 -413.5 L 1414.833 -435.167 L 1400 -467.333 L 1378 -510 L 1370.667 -520 L 1360.667 -526 L 1348 -528 L 1338 -528.667 L 1332.667 -532.333 L 1332 -539 L 1331.333 -545.667 L 1338 -549 Z M 1078 -552 L 1096 -552 L 1114.833 -551.833 L 1134.5 -551.5 L 1154.167 -551.167 L 1171.667 -549.667 L 1187 -547 L 1198.333 -547 L 1210.333 -531.167 L 1223 -499.5 L 1235.667 -467.167 L 1250.667 -436.333 L 1268 -407 L 1272.667 -396.333 L 1278.333 -390.667 L 1285 -390 L 1289.667 -388.667 L 1293.167 -386.167 L 1295.5 -382.5 L 1297.833 -378.833 L 1295.333 -375.333 L 1288 -372 L 1270 -369.333 L 1251.667 -368.167 L 1233 -368.5 L 1214.333 -368.833 L 1196.333 -370 L 1179 -372 L 1163 -378 L 1150.667 -392.167 L 1142 -414.5 L 1133.333 -436.833 L 1119.667 -469.333 L 1101 -512 L 1099.667 -514 L 1096.5 -517.833 L 1091.5 -523.5 L 1086.5 -529.167 L 1081 -532.333 L 1075 -533 L 1066.333 -533.667 L 1061.5 -537 L 1060.5 -543 L 1059.5 -549 L 1065.333 -552 Z M 363 -775 L 366.333 -780.333 L 370 -783.167 L 374 -783.5 L 378 -783.833 L 382.5 -782.5 L 387.5 -779.5 L 392.5 -776.5 L 398.5 -773.333 L 405.5 -770 L 412.5 -766.667 L 421.5 -763.833 L 432.5 -761.5 L 443.5 -759.167 L 459 -758 L 479 -758 L 1477 -758 L 1495.667 -758 L 1512.333 -756.5 L 1527 -753.5 L 1541.667 -750.5 L 1555.167 -745.833 L 1567.5 -739.5 L 1579.833 -733.167 L 1589.333 -727.333 L 1596 -722 L 1602.667 -716.667 L 1612 -707.833 L 1624 -695.5 L 1636 -683.167 L 1646.333 -671 L 1655 -659 L 1663.667 -647 L 1665.333 -635.667 L 1660 -625 L 1655.333 -617 L 1649.5 -615.167 L 1642.5 -619.5 L 1635.5 -623.833 L 1627.333 -627.833 L 1618 -631.5 L 1608.667 -635.167 L 1598.667 -637.5 L 1588 -638.5 L 1577.333 -639.5 L 1561 -640 L 1539 -640 L 555 -640 L 539.667 -640 L 526 -641.167 L 514 -643.5 L 502 -645.833 L 492.5 -648.167 L 485.5 -650.5 L 478.5 -652.833 L 471.167 -655.667 L 463.5 -659 L 455.833 -662.333 L 447.667 -666.833 L 439 -672.5 L 430.333 -678.167 L 421 -686.167 L 411 -696.5 L 401 -706.833 L 391 -718.5 L 381 -731.5 L 371 -744.5 L 364.667 -753.667 L 362 -759 L 359.333 -764.333 L 359.667 -769.667 Z" fill="black" fill-opacity="0.25" stroke="black" stroke-width="4"/>
  <rect x="1331" y="-549" width="266" height="181" fill="none" stroke="red" stroke-width="10" /><rect x="1060" y="-552" width="238" height="184" fill="none" stroke="red" stroke-width="10" /><rect x="359" y="-784" width="1306" height="169" fill="none" stroke="red" stroke-width="10" />
</svg>
