<svg xmlns="http://www.w3.org/2000/svg"
  viewBox="18.734 -985.909 1923.716 813.488">
  <rect x="18.734" y="-985.909" width="1923.716" height="813.488" fill="white"/>
  <path d="M 899 -530 L 908 -492 L 908 -489.333 L 911.5 -482.833 L 918.5 -472.5 L 925.5 -462.167 L 929 -455.667 L 929 -453 L 929 -450.333 L 923.5 -448 L 912.5 -446 L 901.5 -444 L 894 -443 L 890 -443 L 829 -443 L 821 -443 L 813.5 -448.667 L 806.5 -460 L 799.5 -471.333 L 795 -482 L 793 -492 L 785 -531 L 707 -531 L 635.333 -534 L 570 -540 L 504.667 -546 L 458.333 -551.333 L 431 -556 L 380.333 -564 L 338.5 -578 L 305.5 -598 L 272.5 -618 L 250.667 -640.667 L 240 -666 L 234.667 -678.667 L 225 -697.5 L 211 -722.5 L 197 -747.5 L 182.333 -772.667 L 167 -798 L 151.667 -823.333 L 137.167 -846 L 123.5 -866 L 109.833 -886 L 100.333 -897.333 L 95 -900 L 67.667 -909.333 L 61.667 -919.333 L 77 -930 L 110.333 -932.667 L 142.333 -934.5 L 173 -935.5 L 203.667 -936.5 L 235 -935.667 L 267 -933 L 299 -931 L 321.833 -912.667 L 335.5 -878 L 349.167 -843.333 L 363 -798 L 377 -742 L 391 -686 L 408.167 -647.833 L 428.5 -627.5 L 448.833 -607.167 L 484 -590.333 L 534 -577 L 562 -569 L 596 -564 L 636 -562 L 676 -560 L 724.333 -559.333 L 781 -560 L 769 -629 L 768.333 -632.333 L 765 -636.833 L 759 -642.5 L 753 -648.167 L 750 -652.333 L 750 -655 L 750 -659 L 755.333 -661.667 L 766 -663 L 776.667 -664.333 L 784.333 -665 L 789 -665 L 850 -665 L 857.333 -665 L 864.5 -659.833 L 871.5 -649.5 L 878.5 -639.167 L 883.333 -628 L 886 -616 L 896 -561 L 940.667 -561.667 L 971 -563.167 L 987 -565.5 L 1003 -567.833 L 1020.667 -570.333 L 1040 -573 L 1047.333 -572.333 L 1051.667 -569 L 1053 -563 L 1054.333 -557 L 1052.667 -551.667 L 1048 -547 L 1041.333 -541.667 L 1027.667 -537.5 L 1007 -534.5 L 986.333 -531.5 L 950.333 -530 Z M 1506 -671 L 1526 -671 L 1547 -670.667 L 1569 -670 L 1591 -669.333 L 1610.667 -667.333 L 1628 -664 L 1640.667 -664 L 1655 -647 L 1671 -613 L 1687 -579 L 1704.667 -541.667 L 1724 -501 L 1730 -487 L 1736.333 -479 L 1743 -477 L 1748.333 -475 L 1752.333 -471.5 L 1755 -466.5 L 1757.667 -461.5 L 1755 -457 L 1747 -453 L 1726.333 -449 L 1705.667 -447.333 L 1685 -448 L 1664.333 -448.667 L 1644.333 -450.333 L 1625 -453 L 1607.667 -461 L 1593 -476 L 1581 -498 L 1569 -520 L 1553 -559.667 L 1533 -617 L 1531 -620.333 L 1527.167 -625.5 L 1521.5 -632.5 L 1515.833 -639.5 L 1509.667 -643.667 L 1503 -645 L 1493.667 -646.333 L 1488.333 -651 L 1487 -659 L 1485.667 -667 L 1492 -671 Z M 1236 -671 L 1256 -671 L 1277 -670.667 L 1299 -670 L 1321 -669.333 L 1340.667 -667.333 L 1358 -664 L 1370.667 -664 L 1385 -647 L 1401 -613 L 1417 -579 L 1434.667 -541.667 L 1454 -501 L 1459.333 -487 L 1465.667 -479 L 1473 -477 L 1477.667 -475 L 1481.5 -471.5 L 1484.5 -466.5 L 1487.5 -461.5 L 1484.667 -457 L 1476 -453 L 1456 -449 L 1435.5 -447.333 L 1414.5 -448 L 1393.5 -448.667 L 1373.667 -450.333 L 1355 -453 L 1337.667 -461 L 1323 -476 L 1311 -498 L 1299 -520 L 1282.667 -559.667 L 1262 -617 L 1260 -620.333 L 1256.333 -625.5 L 1251 -632.5 L 1245.667 -639.5 L 1239.333 -643.667 L 1232 -645 L 1222.667 -646.333 L 1217.5 -651 L 1216.5 -659 L 1215.5 -667 L 1222 -671 Z M 172.5 -384 L 176.167 -389.333 L 180 -392.167 L 184 -392.5 L 188 -392.833 L 192.5 -391.667 L 197.5 -389 L 202.5 -386.333 L 208.667 -383.167 L 216 -379.5 L 223.333 -375.833 L 232.667 -372.833 L 244 -370.5 L 255.333 -368.167 L 271.333 -367 L 292 -367 L 1701 -367 L 1719.667 -367 L 1736.667 -365.5 L 1752 -362.5 L 1767.333 -359.5 L 1781.333 -354.667 L 1794 -348 L 1806.667 -341.333 L 1816.5 -335.333 L 1823.5 -330 L 1830.5 -324.667 L 1840.167 -315.5 L 1852.5 -302.5 L 1864.833 -289.5 L 1875.333 -277 L 1884 -265 L 1892.667 -253 L 1894.667 -241.333 L 1890 -230 L 1884.667 -222 L 1878.5 -220.333 L 1871.5 -225 L 1864.5 -229.667 L 1856.333 -233.667 L 1847 -237 L 1837.667 -240.333 L 1827.333 -242.667 L 1816 -244 L 1804.667 -245.333 L 1787.667 -246 L 1765 -246 L 370 -246 L 354.667 -246 L 340.667 -247 L 328 -249 L 315.333 -251 L 305.5 -253.167 L 298.5 -255.5 L 291.5 -257.833 L 284 -261 L 276 -265 L 268 -269 L 259.5 -273.833 L 250.5 -279.5 L 241.5 -285.167 L 232 -293.167 L 222 -303.5 L 212 -313.833 L 201.833 -325.833 L 191.5 -339.5 L 181.167 -353.167 L 174.5 -362.667 L 171.5 -368 L 168.5 -373.333 L 168.833 -378.667 Z" fill="black" fill-opacity="0.25" stroke="black" stroke-width="4"/>
  <rect x="62" y="-936" width="992" height="493" fill="none" stroke="red" stroke-width="10" /><rect x="1486" y="-671" width="272" height="224" fill="none" stroke="red" stroke-width="10" /><rect x="1216" y="-671" width="272" height="224" fill="none" stroke="red" stroke-width="10" /><rect x="169" y="-393" width="1726" height="173" fill="none" stroke="red" stroke-width="10" />
</svg>
