<svg xmlns="http://www.w3.org/2000/svg"
  viewBox="32.222222222237036 -442.5555555554815 1436.7545219623426 553.0940170938578">
  <rect x="32.222222222237036" y="-442.5555555554815" width="1436.7545219623426" height="553.0940170938578" fill="white"/>
  <path d="M 825.0 -187.0 L 845.0 -187.0 L 866.0 -186.666666667 L 888.0 -186.0 L 910.0 -185.333333333 L 929.666666667 -183.333333333 L 947.0 -180.0 L 959.666666667 -180.0 L 973.0 -158.833333333 L 987.0 -116.5 L 1001.0 -74.1666666667 L 1017.33333333 -32.3333333333 L 1036.0 9.0 L 1042.0 23.0 L 1048.33333333 30.6666666667 L 1055.0 32.0 L 1060.33333333 34.0 L 1064.5 37.5 L 1067.5 42.5 L 1070.5 47.5 L 1067.66666667 51.6666666667 L 1059.0 55.0 L 1038.33333333 59.0 L 1017.66666667 60.8333333333 L 997.0 60.5 L 976.333333333 60.1666666667 L 956.666666667 58.3333333333 L 938.0 55.0 L 920.0 47.0 L 906.166666667 28.0 L 896.5 -2.0 L 886.833333333 -32.0 L 872.0 -76.0 L 852.0 -134.0 L 850.0 -137.333333333 L 846.333333333 -142.333333333 L 841.0 -149.0 L 835.666666667 -155.666666667 L 829.333333333 -160.0 L 822.0 -162.0 L 812.0 -164.0 L 806.5 -168.666666667 L 805.5 -176.0 L 804.5 -183.333333333 L 811.0 -187.0 Z M 1095.0 -187.0 L 1115.0 -187.0 L 1136.0 -186.666666667 L 1158.0 -186.0 L 1180.0 -185.333333333 L 1199.66666667 -183.333333333 L 1217.0 -180.0 L 1229.66666667 -180.0 L 1243.0 -158.833333333 L 1257.0 -116.5 L 1271.0 -74.1666666667 L 1287.66666667 -32.3333333333 L 1307.0 9.0 L 1313.0 23.0 L 1319.33333333 30.6666666667 L 1326.0 32.0 L 1331.33333333 34.0 L 1335.33333333 37.5 L 1338.0 42.5 L 1340.66666667 47.5 L 1337.66666667 51.6666666667 L 1329.0 55.0 L 1309.0 59.0 L 1288.5 60.8333333333 L 1267.5 60.5 L 1246.5 60.1666666667 L 1226.66666667 58.3333333333 L 1208.0 55.0 L 1190.66666667 47.0 L 1177.0 28.0 L 1167.0 -2.0 L 1157.0 -32.0 L 1142.0 -76.0 L 1122.0 -134.0 L 1120.0 -137.333333333 L 1116.33333333 -142.333333333 L 1111.0 -149.0 L 1105.66666667 -155.666666667 L 1099.33333333 -160.0 L 1092.0 -162.0 L 1082.66666667 -164.0 L 1077.33333333 -168.666666667 L 1076.0 -176.0 L 1074.66666667 -183.333333333 L 1081.0 -187.0 Z M 85.0 -384.0 L 88.3333333333 -389.333333333 L 92.1666666667 -392.166666667 L 96.5 -392.5 L 100.833333333 -392.833333333 L 105.333333333 -391.666666667 L 110.0 -389.0 L 114.666666667 -386.333333333 L 120.666666667 -383.166666667 L 128.0 -379.5 L 135.333333333 -375.833333333 L 144.666666667 -372.833333333 L 156.0 -370.5 L 167.333333333 -368.166666667 L 183.333333333 -367.0 L 204.0 -367.0 L 1228.0 -367.0 L 1246.66666667 -367.0 L 1263.66666667 -365.5 L 1279.0 -362.5 L 1294.33333333 -359.5 L 1308.33333333 -354.666666667 L 1321.0 -348.0 L 1333.66666667 -341.333333333 L 1343.5 -335.333333333 L 1350.5 -330.0 L 1357.5 -324.666666667 L 1367.0 -315.5 L 1379.0 -302.5 L 1391.0 -289.5 L 1401.5 -277.0 L 1410.5 -265.0 L 1419.5 -253.0 L 1421.33333333 -241.333333333 L 1416.0 -230.0 L 1410.66666667 -222.0 L 1404.5 -220.333333333 L 1397.5 -225.0 L 1390.5 -229.666666667 L 1382.33333333 -233.666666667 L 1373.0 -237.0 L 1363.66666667 -240.333333333 L 1353.5 -242.666666667 L 1342.5 -244.0 L 1331.5 -245.333333333 L 1314.33333333 -246.0 L 1291.0 -246.0 L 282.0 -246.0 L 266.666666667 -246.0 L 252.666666667 -247.0 L 240.0 -249.0 L 227.333333333 -251.0 L 217.5 -253.166666667 L 210.5 -255.5 L 203.5 -257.833333333 L 196.0 -261.0 L 188.0 -265.0 L 180.0 -269.0 L 171.5 -273.833333333 L 162.5 -279.5 L 153.5 -285.166666667 L 144.0 -293.166666667 L 134.0 -303.5 L 124.0 -313.833333333 L 113.833333333 -325.833333333 L 103.5 -339.5 L 93.1666666667 -353.166666667 L 86.6666666667 -362.666666667 L 84.0 -368.0 L 81.3333333333 -373.333333333 L 81.6666666667 -378.666666667 Z" fill="black" fill-opacity="0.25" stroke="black" stroke-width="4.0"/>
  <rect x="804.0" y="-187.0" width="266.9999999999999" height="248.0" fill="none" stroke="red" stroke-width="10.0" /><rect x="1075.0" y="-187.0" width="266.0" height="248.0" fill="none" stroke="red" stroke-width="10.0" /><rect x="81.0" y="-393.0" width="1340.0" height="173.00000000000003" fill="none" stroke="red" stroke-width="10.0" />
</svg>
