<svg xmlns="http://www.w3.org/2000/svg"
  viewBox="32.222222222237036 -889.4705882351142 1436.7545219623426 717.0495356039341">
  <rect x="32.222222222237036" y="-889.4705882351142" width="1436.7545219623426" height="717.0495356039341" fill="white"/>
  <path d="M 85.0 -384.0 L 88.3333333333 -389.333333333 L 92.1666666667 -392.166666667 L 96.5 -392.5 L 100.833333333 -392.833333333 L 105.333333333 -391.666666667 L 110.0 -389.0 L 114.666666667 -386.333333333 L 120.666666667 -383.166666667 L 128.0 -379.5 L 135.333333333 -375.833333333 L 144.666666667 -372.833333333 L 156.0 -370.5 L 167.333333333 -368.166666667 L 183.333333333 -367.0 L 204.0 -367.0 L 1228.0 -367.0 L 1246.66666667 -367.0 L 1263.66666667 -365.5 L 1279.0 -362.5 L 1294.33333333 -359.5 L 1308.33333333 -354.666666667 L 1321.0 -348.0 L 1333.66666667 -341.333333333 L 1343.5 -335.333333333 L 1350.5 -330.0 L 1357.5 -324.666666667 L 1367.0 -315.5 L 1379.0 -302.5 L 1391.0 -289.5 L 1401.5 -277.0 L 1410.5 -265.0 L 1419.5 -253.0 L 1421.33333333 -241.333333333 L 1416.0 -230.0 L 1410.66666667 -222.0 L 1404.5 -220.333333333 L 1397.5 -225.0 L 1390.5 -229.666666667 L 1382.33333333 -233.666666667 L 1373.0 -237.0 L 1363.66666667 -240.333333333 L 1353.5 -242.666666667 L 1342.5 -244.0 L 1331.5 -245.333333333 L 1314.33333333 -246.0 L 1291.0 -246.0 L 282.0 -246.0 L 266.666666667 -246.0 L 252.666666667 -247.0 L 240.0 -249.0 L 227.333333333 -251.0 L 217.5 -253.166666667 L 210.5 -255.5 L 203.5 -257.833333333 L 196.0 -261.0 L 188.0 -265.0 L 180.0 -269.0 L 171.5 -273.833333333 L 162.5 -279.5 L 153.5 -285.166666667 L 144.0 -293.166666667 L 134.0 -303.5 L 124.0 -313.833333333 L 113.833333333 -325.833333333 L 103.5 -339.5 L 93.1666666667 -353.166666667 L 86.6666666667 -362.666666667 L 84.0 -368.0 L 81.3333333333 -373.333333333 L 81.6666666667 -378.666666667 Z M 129.0 -668.0 L 107.0 -714.0 L 101.0 -753.333333333 L 111.0 -786.0 L 121.0 -818.666666667 L 139.333333333 -836.333333333 L 166.0 -839.0 L 183.333333333 -840.333333333 L 196.5 -838.833333333 L 205.5 -834.5 L 214.5 -830.166666667 L 222.333333333 -825.833333333 L 229.0 -821.5 L 235.666666667 -817.166666667 L 242.166666667 -812.5 L 248.5 -807.5 L 254.833333333 -802.5 L 260.666666667 -797.166666667 L 266.0 -791.5 L 271.333333333 -785.833333333 L 275.0 -781.0 L 277.0 -777.0 L 279.0 -773.0 L 280.0 -769.166666667 L 280.0 -765.5 L 280.0 -761.833333333 L 278.833333333 -759.166666667 L 276.5 -757.5 L 274.166666667 -755.833333333 L 267.833333333 -752.666666667 L 257.5 -748.0 L 247.166666667 -743.333333333 L 233.833333333 -735.833333333 L 217.5 -725.5 L 201.166666667 -715.166666667 L 193.333333333 -698.0 L 194.0 -674.0 L 194.0 -648.666666667 L 217.166666667 -624.833333333 L 263.5 -602.5 L 309.833333333 -580.166666667 L 378.666666667 -571.0 L 470.0 -575.0 L 1115.0 -594.0 L 1134.33333333 -594.0 L 1149.83333333 -592.5 L 1161.5 -589.5 L 1173.16666667 -586.5 L 1183.66666667 -582.666666667 L 1193.0 -578.0 L 1202.33333333 -573.333333333 L 1210.16666667 -568.666666667 L 1216.5 -564.0 L 1222.83333333 -559.333333333 L 1230.33333333 -552.666666667 L 1239.0 -544.0 L 1247.66666667 -535.333333333 L 1257.83333333 -524.0 L 1269.5 -510.0 L 1281.16666667 -496.0 L 1288.83333333 -485.666666667 L 1292.5 -479.0 L 1296.16666667 -472.333333333 L 1298.0 -465.833333333 L 1298.0 -459.5 L 1298.0 -453.166666667 L 1296.16666667 -449.0 L 1292.5 -447.0 L 1288.83333333 -445.0 L 1284.83333333 -444.0 L 1280.5 -444.0 L 1276.16666667 -444.0 L 1271.66666667 -445.0 L 1267.0 -447.0 L 1262.33333333 -449.0 L 1256.66666667 -451.166666667 L 1250.0 -453.5 L 1243.33333333 -455.833333333 L 1235.83333333 -458.5 L 1227.5 -461.5 L 1219.16666667 -464.5 L 1211.66666667 -466.666666667 L 1205.0 -468.0 L 1198.33333333 -469.333333333 L 1188.66666667 -470.0 L 1176.0 -470.0 L 829.0 -476.0 L 775.0 -476.0 L 718.333333333 -478.5 L 659.0 -483.5 L 599.666666667 -488.5 L 543.666666667 -495.0 L 491.0 -503.0 L 438.333333333 -511.0 L 392.0 -519.833333333 L 352.0 -529.5 L 312.0 -539.166666667 L 284.666666667 -547.0 L 270.0 -553.0 L 244.666666667 -565.0 L 222.333333333 -576.833333333 L 203.0 -588.5 L 183.666666667 -600.166666667 L 159.0 -626.666666667 Z" fill="black" fill-opacity="0.25" stroke="black" stroke-width="4.0"/>
  <rect x="81.0" y="-393.0" width="1340.0" height="173.00000000000003" fill="none" stroke="red" stroke-width="10.0" /><rect x="101.0" y="-840.0" width="1197.0" height="395.99999999999994" fill="none" stroke="red" stroke-width="10.0" />
</svg>
