<svg xmlns="http://www.w3.org/2000/svg"
  viewBox="-58.643 -841.524 2191.69 669.103">
  <rect x="-58.643" y="-841.524" width="2191.69" height="669.103" fill="white"/>
  <path d="M 244 -462 L 237.333 -466.667 L 236.833 -471.333 L 242.5 -476 L 248.167 -480.667 L 255.333 -483 L 264 -483 L 273.333 -483 L 286.333 -491.333 L 303 -508 L 319.667 -524.667 L 330.667 -545.333 L 336 -570 L 344.667 -611.333 L 323 -645.333 L 271 -672 L 231.667 -691.333 L 178.5 -706.333 L 111.5 -717 L 44.5 -727.667 L 7.333 -734.333 L 0 -737 L -7.333 -739.667 L -10 -743.833 L -8 -749.5 L -6 -755.167 L -2.333 -758 L 3 -758 L 9 -758 L 46.167 -753 L 114.5 -743 L 182.833 -733 L 245 -717.333 L 301 -696 L 334.333 -682.667 L 361 -669.5 L 381 -656.5 L 401 -643.5 L 419.667 -625.667 L 437 -603 L 453.667 -580.333 L 460.5 -558 L 457.5 -536 L 454.5 -514 L 444.667 -497 L 428 -485 L 412.667 -473.667 L 395.167 -466 L 375.5 -462 L 355.833 -458 L 337 -456 L 319 -456 L 292 -456 L 292 -456 L 281.5 -456 L 274.5 -456 L 262 -458 Z M 1515 -671 L 1535 -671 L 1556 -670.667 L 1578 -670 L 1600 -669.333 L 1619.667 -667.333 L 1637 -664 L 1649.667 -664 L 1664.167 -647 L 1680.5 -613 L 1696.833 -579 L 1714.333 -541.667 L 1733 -501 L 1739 -487 L 1745.333 -479 L 1752 -477 L 1756.667 -475 L 1760.667 -471.5 L 1764 -466.5 L 1767.333 -461.5 L 1764.333 -457 L 1755 -453 L 1735 -449 L 1714.667 -447.333 L 1694 -448 L 1673.333 -448.667 L 1653.667 -450.333 L 1635 -453 L 1617.667 -461 L 1602.833 -476 L 1590.5 -498 L 1578.167 -520 L 1562 -559.667 L 1542 -617 L 1540.667 -620.333 L 1537 -625.5 L 1531 -632.5 L 1525 -639.5 L 1518.667 -643.667 L 1512 -645 L 1502.667 -646.333 L 1497.333 -651 L 1496 -659 L 1494.667 -667 L 1501 -671 Z M 1786 -671 L 1806 -671 L 1826.833 -670.667 L 1848.5 -670 L 1870.167 -669.333 L 1890 -667.333 L 1908 -664 L 1920.667 -664 L 1935 -647 L 1951 -613 L 1967 -579 L 1984.333 -541.667 L 2003 -501 L 2009 -487 L 2015.333 -479 L 2022 -477 L 2027.333 -475 L 2031.5 -471.5 L 2034.5 -466.5 L 2037.5 -461.5 L 2034.667 -457 L 2026 -453 L 2005.333 -449 L 1984.667 -447.333 L 1964 -448 L 1943.333 -448.667 L 1923.667 -450.333 L 1905 -453 L 1887 -461 L 1872.167 -476 L 1860.5 -498 L 1848.833 -520 L 1832.667 -559.667 L 1812 -617 L 1810 -620.333 L 1806.167 -625.5 L 1800.5 -632.5 L 1794.833 -639.5 L 1788.667 -643.667 L 1782 -645 L 1772.667 -646.333 L 1767.5 -651 L 1766.5 -659 L 1765.5 -667 L 1772 -671 Z M 265.5 -384 L 269.167 -389.333 L 273 -392.167 L 277 -392.5 L 281 -392.833 L 285.5 -391.667 L 290.5 -389 L 295.5 -386.333 L 301.5 -383.167 L 308.5 -379.5 L 315.5 -375.833 L 324.833 -372.833 L 336.5 -370.5 L 348.167 -368.167 L 364 -367 L 384 -367 L 1892 -367 L 1910.667 -367 L 1927.667 -365.5 L 1943 -362.5 L 1958.333 -359.5 L 1972.333 -354.667 L 1985 -348 L 1997.667 -341.333 L 2007.5 -335.333 L 2014.5 -330 L 2021.5 -324.667 L 2031.167 -315.5 L 2043.5 -302.5 L 2055.833 -289.5 L 2066.333 -277 L 2075 -265 L 2083.667 -253 L 2085.333 -241.333 L 2080 -230 L 2074.667 -222 L 2068.5 -220.333 L 2061.5 -225 L 2054.5 -229.667 L 2046.333 -233.667 L 2037 -237 L 2027.667 -240.333 L 2017.5 -242.667 L 2006.5 -244 L 1995.5 -245.333 L 1978.333 -246 L 1955 -246 L 462 -246 L 446.667 -246 L 432.833 -247 L 420.5 -249 L 408.167 -251 L 398.333 -253.167 L 391 -255.5 L 383.667 -257.833 L 376.167 -261 L 368.5 -265 L 360.833 -269 L 352.5 -273.833 L 343.5 -279.5 L 334.5 -285.167 L 325 -293.167 L 315 -303.5 L 305 -313.833 L 294.833 -325.833 L 284.5 -339.5 L 274.167 -353.167 L 267.5 -362.667 L 264.5 -368 L 261.5 -373.333 L 261.833 -378.667 Z M 732 -465 L 709.333 -456.333 L 671 -457 L 617 -467 L 585.667 -475 L 557.833 -485.5 L 533.5 -498.5 L 509.167 -511.5 L 490.667 -534.333 L 478 -567 L 469.333 -598.333 L 466.333 -623.5 L 469 -642.5 L 471.667 -661.5 L 482 -683.333 L 500 -708 L 517.333 -728.667 L 537.5 -744.333 L 560.5 -755 L 583.5 -765.667 L 611.667 -774.667 L 645 -782 L 678.333 -788.667 L 705.333 -791.833 L 726 -791.5 L 746.667 -791.167 L 769 -790.333 L 793 -789 L 817 -788.333 L 839.333 -786.667 L 860 -784 L 880.667 -781.333 L 905.667 -775.333 L 935 -766 L 983.667 -752.667 L 1031.333 -734.333 L 1078 -711 L 1104.667 -697.667 L 1132.667 -683.5 L 1162 -668.5 L 1191.333 -653.5 L 1224.333 -636 L 1261 -616 L 1277.667 -606 L 1295.833 -595.167 L 1315.5 -583.5 L 1335.167 -571.833 L 1356.333 -560 L 1379 -548 L 1396.333 -537.333 L 1413.5 -526.5 L 1430.5 -515.5 L 1447.5 -504.5 L 1454.667 -493.5 L 1452 -482.5 L 1449.333 -471.5 L 1442.833 -466.333 L 1432.5 -467 L 1422.167 -467.667 L 1390.167 -467.333 L 1336.5 -466 L 1282.833 -464.667 L 1236 -464.333 L 1196 -465 L 1180 -477 L 1180.167 -485.5 L 1196.5 -490.5 L 1212.833 -495.5 L 1225 -502 L 1233 -510 L 1247.667 -525.333 L 1254.167 -537.5 L 1252.5 -546.5 L 1250.833 -555.5 L 1248.5 -562.5 L 1245.5 -567.5 L 1242.5 -572.5 L 1237.667 -578 L 1231 -584 L 1224.333 -590 L 1208.167 -601.833 L 1182.5 -619.5 L 1156.833 -637.167 L 1124.667 -656 L 1086 -676 L 1052 -691.333 L 1025 -703.667 L 1005 -713 L 985 -722.333 L 953 -733 L 909 -745 L 876.333 -751.667 L 843 -755.667 L 809 -757 L 775 -758.333 L 740.667 -753.333 L 706 -742 L 681.333 -731.333 L 664 -722.167 L 654 -714.5 L 644 -706.833 L 633 -693.667 L 621 -675 L 610.333 -657 L 604.167 -641.833 L 602.5 -629.5 L 600.833 -617.167 L 600.333 -603 L 601 -587 L 601.667 -570.333 L 603.667 -558.167 L 607 -550.5 L 610.333 -542.833 L 614.667 -535.167 L 620 -527.5 L 625.333 -519.833 L 632 -513 L 640 -507 L 648 -501 L 660.333 -496.667 L 677 -494 L 693.667 -491.333 L 710 -489 L 726 -487 L 732.667 -485.667 L 737 -482.667 L 739 -478 L 741 -473.333 L 738.667 -469 Z" fill="black" fill-opacity="0.25" stroke="black" stroke-width="4"/>
  <rect x="-10" y="-758" width="471" height="302" fill="none" stroke="red" stroke-width="10" /><rect x="1495" y="-671" width="272" height="224" fill="none" stroke="red" stroke-width="10" /><rect x="1766" y="-671" width="272" height="224" fill="none" stroke="red" stroke-width="10" /><rect x="262" y="-393" width="1823" height="173" fill="none" stroke="red" stroke-width="10" /><rect x="466" y="-792" width="989" height="336" fill="none" stroke="red" stroke-width="10" />
</svg>
