<svg xmlns="http://www.w3.org/2000/svg"
  viewBox="27.222222222237036 -770.0 1558.8253968248207 597.57894736882">
  <rect x="27.222222222237036" y="-770.0" width="1558.8253968248207" height="597.57894736882" fill="white"/>
  <path d="M 1149.0 -671.0 L 1169.0 -671.0 L 1190.0 -670.666666667 L 1212.0 -670.0 L 1234.0 -669.333333333 L 1253.66666667 -667.333333333 L 1271.0 -664.0 L 1283.66666667 -664.0 L 1298.0 -647.0 L 1314.0 -613.0 L 1330.0 -579.0 L 1347.66666667 -541.666666667 L 1367.0 -501.0 L 1372.33333333 -487.0 L 1378.66666667 -479.0 L 1386.0 -477.0 L 1390.66666667 -475.0 L 1394.5 -471.5 L 1397.5 -466.5 L 1400.5 -461.5 L 1397.66666667 -457.0 L 1389.0 -453.0 L 1369.0 -449.0 L 1348.5 -447.333333333 L 1327.5 -448.0 L 1306.5 -448.666666667 L 1287.0 -450.333333333 L 1269.0 -453.0 L 1251.66666667 -461.0 L 1236.83333333 -476.0 L 1224.5 -498.0 L 1212.16666667 -520.0 L 1195.66666667 -559.666666667 L 1175.0 -617.0 L 1173.0 -620.333333333 L 1169.33333333 -625.5 L 1164.0 -632.5 L 1158.66666667 -639.5 L 1152.66666667 -643.666666667 L 1146.0 -645.0 L 1136.66666667 -646.333333333 L 1131.33333333 -651.0 L 1130.0 -659.0 L 1128.66666667 -667.0 L 1135.0 -671.0 Z M 879.0 -671.0 L 899.0 -671.0 L 920.0 -670.666666667 L 942.0 -670.0 L 964.0 -669.333333333 L 983.666666667 -667.333333333 L 1001.0 -664.0 L 1013.66666667 -664.0 L 1028.0 -647.0 L 1044.0 -613.0 L 1060.0 -579.0 L 1077.33333333 -541.666666667 L 1096.0 -501.0 L 1102.0 -487.0 L 1108.33333333 -479.0 L 1115.0 -477.0 L 1120.33333333 -475.0 L 1124.5 -471.5 L 1127.5 -466.5 L 1130.5 -461.5 L 1127.66666667 -457.0 L 1119.0 -453.0 L 1098.33333333 -449.0 L 1077.66666667 -447.333333333 L 1057.0 -448.0 L 1036.33333333 -448.666666667 L 1016.66666667 -450.333333333 L 998.0 -453.0 L 980.666666667 -461.0 L 966.0 -476.0 L 954.0 -498.0 L 942.0 -520.0 L 925.666666667 -559.666666667 L 905.0 -617.0 L 903.0 -620.333333333 L 899.333333333 -625.5 L 894.0 -632.5 L 888.666666667 -639.5 L 882.333333333 -643.666666667 L 875.0 -645.0 L 865.666666667 -646.333333333 L 860.5 -651.0 L 859.5 -659.0 L 858.5 -667.0 L 865.0 -671.0 Z M 561.0 -720.0 L 576.333333333 -719.333333333 L 583.5 -715.166666667 L 582.5 -707.5 L 581.5 -699.833333333 L 575.333333333 -695.0 L 564.0 -693.0 L 555.333333333 -691.666666667 L 548.0 -688.5 L 542.0 -683.5 L 536.0 -678.5 L 532.333333333 -674.333333333 L 531.0 -671.0 L 507.0 -619.0 L 488.5 -573.666666667 L 475.5 -535.0 L 462.5 -496.333333333 L 446.0 -473.666666667 L 426.0 -467.0 L 404.666666667 -465.0 L 382.0 -463.5 L 358.0 -462.5 L 334.0 -461.5 L 310.666666667 -463.0 L 288.0 -467.0 L 278.0 -470.333333333 L 274.666666667 -474.166666667 L 278.0 -478.5 L 281.333333333 -482.833333333 L 286.0 -486.0 L 292.0 -488.0 L 298.666666667 -490.0 L 306.0 -497.0 L 314.0 -509.0 L 337.333333333 -546.333333333 L 357.333333333 -589.666666667 L 374.0 -639.0 L 390.666666667 -688.333333333 L 406.333333333 -713.0 L 421.0 -713.0 L 441.0 -715.666666667 L 463.5 -717.5 L 488.5 -718.5 L 513.5 -719.5 L 537.666666667 -720.0 Z M 80.0 -384.0 L 83.3333333333 -389.333333333 L 87.1666666667 -392.166666667 L 91.5 -392.5 L 95.8333333333 -392.833333333 L 100.333333333 -391.666666667 L 105.0 -389.0 L 109.666666667 -386.333333333 L 115.666666667 -383.166666667 L 123.0 -379.5 L 130.333333333 -375.833333333 L 139.666666667 -372.833333333 L 151.0 -370.5 L 162.333333333 -368.166666667 L 178.333333333 -367.0 L 199.0 -367.0 L 1345.0 -367.0 L 1363.66666667 -367.0 L 1380.66666667 -365.5 L 1396.0 -362.5 L 1411.33333333 -359.5 L 1425.33333333 -354.666666667 L 1438.0 -348.0 L 1450.66666667 -341.333333333 L 1460.5 -335.333333333 L 1467.5 -330.0 L 1474.5 -324.666666667 L 1484.16666667 -315.5 L 1496.5 -302.5 L 1508.83333333 -289.5 L 1519.33333333 -277.0 L 1528.0 -265.0 L 1536.66666667 -253.0 L 1538.33333333 -241.333333333 L 1533.0 -230.0 L 1527.66666667 -222.0 L 1521.5 -220.333333333 L 1514.5 -225.0 L 1507.5 -229.666666667 L 1499.33333333 -233.666666667 L 1490.0 -237.0 L 1480.66666667 -240.333333333 L 1470.5 -242.666666667 L 1459.5 -244.0 L 1448.5 -245.333333333 L 1431.33333333 -246.0 L 1408.0 -246.0 L 277.0 -246.0 L 261.666666667 -246.0 L 247.666666667 -247.0 L 235.0 -249.0 L 222.333333333 -251.0 L 212.5 -253.166666667 L 205.5 -255.5 L 198.5 -257.833333333 L 191.0 -261.0 L 183.0 -265.0 L 175.0 -269.0 L 166.666666667 -273.833333333 L 158.0 -279.5 L 149.333333333 -285.166666667 L 139.833333333 -293.166666667 L 129.5 -303.5 L 119.166666667 -313.833333333 L 108.833333333 -325.833333333 L 98.5 -339.5 L 88.1666666667 -353.166666667 L 81.6666666667 -362.666666667 L 79.0 -368.0 L 76.3333333333 -373.333333333 L 76.6666666667 -378.666666667 Z" fill="black" fill-opacity="0.25" stroke="black" stroke-width="4.0"/>
  <rect x="1129.0" y="-671.0" width="272.0" height="224.00000000000003" fill="none" stroke="red" stroke-width="10.0" /><rect x="859.0" y="-671.0" width="272.0" height="224.00000000000003" fill="none" stroke="red" stroke-width="10.0" /><rect x="275.0" y="-720.0" width="308.99999999999994" height="257.99999999999994" fill="none" stroke="red" stroke-width="10.0" /><rect x="76.0" y="-393.0" width="1462.0" height="173.00000000000003" fill="none" stroke="red" stroke-width="10.0" />
</svg>
