<svg xmlns="http://www.w3.org/2000/svg"
  viewBox="32.982 -883.471 1885.066 711.05">
  <rect x="32.982" y="-883.471" width="1885.066" height="711.05" fill="white"/>
  <path d="M 1236 -671 L 1256 -671 L 1277 -670.667 L 1299 -670 L 1321 -669.333 L 1340.667 -667.333 L 1358 -664 L 1370.667 -664 L 1385 -647 L 1401 -613 L 1417 -579 L 1434.667 -541.667 L 1454 -501 L 1459.333 -487 L 1465.667 -479 L 1473 -477 L 1477.667 -475 L 1481.5 -471.5 L 1484.5 -466.5 L 1487.5 -461.5 L 1484.667 -457 L 1476 -453 L 1456 -449 L 1435.5 -447.333 L 1414.5 -448 L 1393.5 -448.667 L 1373.667 -450.333 L 1355 -453 L 1337.667 -461 L 1323 -476 L 1311 -498 L 1299 -520 L 1282.667 -559.667 L 1262 -617 L 1260 -620.333 L 1256.333 -625.5 L 1251 -632.5 L 1245.667 -639.5 L 1239.333 -643.667 L 1232 -645 L 1222.667 -646.333 L 1217.5 -651 L 1216.5 -659 L 1215.5 -667 L 1222 -671 Z M 1506 -671 L 1526 -671 L 1547 -670.667 L 1569 -670 L 1591 -669.333 L 1610.667 -667.333 L 1628 -664 L 1640.667 -664 L 1655 -647 L 1671 -613 L 1687 -579 L 1704.667 -541.667 L 1724 -501 L 1730 -487 L 1736.333 -479 L 1743 -477 L 1748.333 -475 L 1752.333 -471.5 L 1755 -466.5 L 1757.667 -461.5 L 1755 -457 L 1747 -453 L 1726.333 -449 L 1705.667 -447.333 L 1685 -448 L 1664.333 -448.667 L 1644.333 -450.333 L 1625 -453 L 1607.667 -461 L 1593 -476 L 1581 -498 L 1569 -520 L 1553 -559.667 L 1533 -617 L 1531 -620.333 L 1527.167 -625.5 L 1521.5 -632.5 L 1515.833 -639.5 L 1509.667 -643.667 L 1503 -645 L 1493.667 -646.333 L 1488.333 -651 L 1487 -659 L 1485.667 -667 L 1492 -671 Z M 172.5 -384 L 176.167 -389.333 L 180 -392.167 L 184 -392.5 L 188 -392.833 L 192.5 -391.667 L 197.5 -389 L 202.5 -386.333 L 208.667 -383.167 L 216 -379.5 L 223.333 -375.833 L 232.667 -372.833 L 244 -370.5 L 255.333 -368.167 L 271.333 -367 L 292 -367 L 1677 -367 L 1695.667 -367 L 1712.667 -365.5 L 1728 -362.5 L 1743.333 -359.5 L 1757.333 -354.667 L 1770 -348 L 1782.667 -341.333 L 1792.5 -335.333 L 1799.5 -330 L 1806.5 -324.667 L 1816.167 -315.5 L 1828.5 -302.5 L 1840.833 -289.5 L 1851.333 -277 L 1860 -265 L 1868.667 -253 L 1870.333 -241.333 L 1865 -230 L 1859.667 -222 L 1853.5 -220.333 L 1846.5 -225 L 1839.5 -229.667 L 1831.333 -233.667 L 1822 -237 L 1812.667 -240.333 L 1802.5 -242.667 L 1791.5 -244 L 1780.5 -245.333 L 1763.333 -246 L 1740 -246 L 370 -246 L 354.667 -246 L 340.667 -247 L 328 -249 L 315.333 -251 L 305.5 -253.167 L 298.5 -255.5 L 291.5 -257.833 L 284 -261 L 276 -265 L 268 -269 L 259.5 -273.833 L 250.5 -279.5 L 241.5 -285.167 L 232 -293.167 L 222 -303.5 L 212 -313.833 L 201.833 -325.833 L 191.5 -339.5 L 181.167 -353.167 L 174.5 -362.667 L 171.5 -368 L 168.5 -373.333 L 168.833 -378.667 Z M 109 -662 L 83.667 -708 L 76.833 -747.333 L 88.5 -780 L 100.167 -812.667 L 121 -830.333 L 151 -833 L 170.333 -834.333 L 185.167 -832.833 L 195.5 -828.5 L 205.833 -824.167 L 215 -819.833 L 223 -815.5 L 231 -811.167 L 238.5 -806.5 L 245.5 -801.5 L 252.5 -796.5 L 259 -791.333 L 265 -786 L 271 -780.667 L 275.333 -775.833 L 278 -771.5 L 280.667 -767.167 L 281.833 -763.167 L 281.5 -759.5 L 281.167 -755.833 L 279.667 -753.167 L 277 -751.5 L 274.333 -749.833 L 267.167 -746.833 L 255.5 -742.5 L 243.833 -738.167 L 228.833 -730.667 L 210.5 -720 L 192.167 -709.333 L 183.333 -692 L 184 -668 L 184 -642.667 L 210.333 -618.833 L 263 -596.5 L 315.667 -574.167 L 394 -565 L 498 -569 L 944 -593 L 966 -593 L 983.5 -591.5 L 996.5 -588.5 L 1009.5 -585.5 L 1021.333 -581.667 L 1032 -577 L 1042.667 -572.333 L 1051.667 -567.667 L 1059 -563 L 1066.333 -558.333 L 1075.167 -551.667 L 1085.5 -543 L 1095.833 -534.333 L 1107.5 -523 L 1120.5 -509 L 1133.5 -495 L 1142 -484.667 L 1146 -478 L 1150 -471.333 L 1152 -464.833 L 1152 -458.5 L 1152 -452.167 L 1150 -448 L 1146 -446 L 1142 -444 L 1137.5 -443 L 1132.5 -443 L 1127.5 -443 L 1122.333 -444 L 1117 -446 L 1111.667 -448 L 1105.167 -450.167 L 1097.5 -452.5 L 1089.833 -454.833 L 1081.333 -457.5 L 1072 -460.5 L 1062.667 -463.5 L 1054 -465.667 L 1046 -467 L 1038 -468.333 L 1027.333 -469.333 L 1014 -470 L 955 -475 L 861 -471.667 L 780.167 -472.667 L 712.5 -478 L 644.833 -483.333 L 581.167 -490 L 521.5 -498 L 461.833 -506 L 409.167 -514.667 L 363.5 -524 L 317.833 -533.333 L 286.667 -541 L 270 -547 L 241.333 -559 L 215.833 -570.833 L 193.5 -582.5 L 171.167 -594.167 L 143 -620.667 Z" fill="black" fill-opacity="0.25" stroke="black" stroke-width="4"/>
  <rect x="1216" y="-671" width="272" height="224" fill="none" stroke="red" stroke-width="10" /><rect x="1486" y="-671" width="272" height="224" fill="none" stroke="red" stroke-width="10" /><rect x="169" y="-393" width="1701" height="173" fill="none" stroke="red" stroke-width="10" /><rect x="77" y="-834" width="1075" height="391" fill="none" stroke="red" stroke-width="10" />
</svg>
