<svg xmlns="http://www.w3.org/2000/svg"
  viewBox="32.222222222237036 -1322.0 1512.9999999992172 1149.5789473688199">
  <rect x="32.222222222237036" y="-1322.0" width="1512.9999999992172" height="1149.5789473688199" fill="white"/>
  <path d="M 371.0 -697.0 L 391.0 -697.0 L 412.0 -696.666666667 L 434.0 -696.0 L 456.0 -695.333333333 L 475.666666667 -693.333333333 L 493.0 -690.0 L 505.666666667 -690.0 L 519.0 -668.666666667 L 533.0 -626.0 L 547.0 -583.333333333 L 563.666666667 -541.666666667 L 583.0 -501.0 L 589.0 -487.0 L 595.333333333 -479.0 L 602.0 -477.0 L 607.333333333 -475.0 L 611.333333333 -471.5 L 614.0 -466.5 L 616.666666667 -461.5 L 613.666666667 -457.0 L 605.0 -453.0 L 585.0 -449.0 L 564.5 -447.333333333 L 543.5 -448.0 L 522.5 -448.666666667 L 502.666666667 -450.333333333 L 484.0 -453.0 L 466.666666667 -461.0 L 453.0 -480.166666667 L 443.0 -510.5 L 433.0 -540.833333333 L 417.666666667 -585.0 L 397.0 -643.0 L 395.666666667 -646.333333333 L 392.166666667 -651.5 L 386.5 -658.5 L 380.833333333 -665.5 L 374.666666667 -669.666666667 L 368.0 -671.0 L 358.666666667 -672.333333333 L 353.333333333 -676.833333333 L 352.0 -684.5 L 350.666666667 -692.166666667 L 357.0 -696.333333333 Z M 642.0 -697.0 L 662.0 -697.0 L 682.833333333 -696.666666667 L 704.5 -696.0 L 726.166666667 -695.333333333 L 746.0 -693.333333333 L 764.0 -690.0 L 776.666666667 -690.0 L 789.833333333 -668.666666667 L 803.5 -626.0 L 817.166666667 -583.333333333 L 833.666666667 -541.666666667 L 853.0 -501.0 L 859.0 -487.0 L 865.333333333 -479.0 L 872.0 -477.0 L 877.333333333 -475.0 L 881.333333333 -471.5 L 884.0 -466.5 L 886.666666667 -461.5 L 883.666666667 -457.0 L 875.0 -453.0 L 855.0 -449.0 L 834.666666667 -447.333333333 L 814.0 -448.0 L 793.333333333 -448.666666667 L 773.666666667 -450.333333333 L 755.0 -453.0 L 737.666666667 -461.0 L 724.0 -480.166666667 L 714.0 -510.5 L 704.0 -540.833333333 L 688.666666667 -585.0 L 668.0 -643.0 L 666.0 -646.333333333 L 662.166666667 -651.5 L 656.5 -658.5 L 650.833333333 -665.5 L 644.666666667 -669.666666667 L 638.0 -671.0 L 628.666666667 -672.333333333 L 623.5 -676.833333333 L 622.5 -684.5 L 621.5 -692.166666667 L 628.0 -696.333333333 Z M 85.0 -384.0 L 88.3333333333 -389.333333333 L 92.1666666667 -392.166666667 L 96.5 -392.5 L 100.833333333 -392.833333333 L 105.333333333 -391.666666667 L 110.0 -389.0 L 114.666666667 -386.333333333 L 120.666666667 -383.166666667 L 128.0 -379.5 L 135.333333333 -375.833333333 L 144.666666667 -372.833333333 L 156.0 -370.5 L 167.333333333 -368.166666667 L 183.333333333 -367.0 L 204.0 -367.0 L 1228.0 -367.0 L 1246.66666667 -367.0 L 1263.66666667 -365.5 L 1279.0 -362.5 L 1294.33333333 -359.5 L 1308.33333333 -354.666666667 L 1321.0 -348.0 L 1333.66666667 -341.333333333 L 1343.5 -335.333333333 L 1350.5 -330.0 L 1357.5 -324.666666667 L 1367.0 -315.5 L 1379.0 -302.5 L 1391.0 -289.5 L 1401.5 -277.0 L 1410.5 -265.0 L 1419.5 -253.0 L 1421.33333333 -241.333333333 L 1416.0 -230.0 L 1410.66666667 -222.0 L 1404.5 -220.333333333 L 1397.5 -225.0 L 1390.5 -229.666666667 L 1382.33333333 -233.666666667 L 1373.0 -237.0 L 1363.66666667 -240.333333333 L 1353.5 -242.666666667 L 1342.5 -244.0 L 1331.5 -245.333333333 L 1314.33333333 -246.0 L 1291.0 -246.0 L 282.0 -246.0 L 266.666666667 -246.0 L 252.666666667 -247.0 L 240.0 -249.0 L 227.333333333 -251.0 L 217.5 -253.166666667 L 210.5 -255.5 L 203.5 -257.833333333 L 196.0 -261.0 L 188.0 -265.0 L 180.0 -269.0 L 171.5 -273.833333333 L 162.5 -279.5 L 153.5 -285.166666667 L 144.0 -293.166666667 L 134.0 -303.5 L 124.0 -313.833333333 L 113.833333333 -325.833333333 L 103.5 -339.5 L 93.1666666667 -353.166666667 L 86.6666666667 -362.666666667 L 84.0 -368.0 L 81.3333333333 -373.333333333 L 81.6666666667 -378.666666667 Z M 1481.0 -1163.0 L 1491.66666667 -1161.0 L 1496.33333333 -1155.5 L 1495.0 -1146.5 L 1493.66666667 -1137.5 L 1487.0 -1132.66666667 L 1475.0 -1132.0 L 1461.0 -1127.33333333 L 1449.66666667 -1109.66666667 L 1441.0 -1079.0 L 1432.33333333 -1048.33333333 L 1423.33333333 -1016.0 L 1414.0 -982.0 L 1391.33333333 -902.666666667 L 1370.66666667 -838.333333333 L 1352.0 -789.0 L 1333.33333333 -739.666666667 L 1315.5 -705.166666667 L 1298.5 -685.5 L 1281.5 -665.833333333 L 1261.33333333 -650.666666667 L 1238.0 -640.0 L 1202.0 -624.666666667 L 1166.5 -613.333333333 L 1131.5 -606.0 L 1096.5 -598.666666667 L 1066.33333333 -595.0 L 1041.0 -595.0 L 1053.66666667 -565.0 L 1074.83333333 -544.0 L 1104.5 -532.0 L 1134.16666667 -520.0 L 1142.66666667 -507.333333333 L 1130.0 -494.0 L 1122.66666667 -486.666666667 L 1099.66666667 -496.333333333 L 1061.0 -523.0 L 1022.33333333 -549.666666667 L 995.666666667 -576.0 L 981.0 -602.0 L 981.0 -618.666666667 L 987.833333333 -625.666666667 L 1001.5 -623.0 L 1015.16666667 -620.333333333 L 1029.66666667 -618.333333333 L 1045.0 -617.0 L 1060.33333333 -616.333333333 L 1076.33333333 -617.333333333 L 1093.0 -620.0 L 1109.66666667 -622.666666667 L 1131.66666667 -631.0 L 1159.0 -645.0 L 1172.33333333 -651.666666667 L 1184.83333333 -666.833333333 L 1196.5 -690.5 L 1208.16666667 -714.166666667 L 1218.83333333 -740.333333333 L 1228.5 -769.0 L 1238.16666667 -797.666666667 L 1246.33333333 -826.166666667 L 1253.0 -854.5 L 1259.66666667 -882.833333333 L 1268.5 -923.666666667 L 1279.5 -977.0 L 1290.5 -1030.33333333 L 1299.83333333 -1066.0 L 1307.5 -1084.0 L 1315.16666667 -1102.0 L 1326.16666667 -1116.66666667 L 1340.5 -1128.0 L 1354.83333333 -1139.33333333 L 1368.5 -1146.66666667 L 1381.5 -1150.0 L 1394.5 -1153.33333333 L 1409.0 -1155.66666667 L 1425.0 -1157.0 L 1441.0 -1158.33333333 L 1459.66666667 -1160.33333333 Z M 874.0 -1272.0 L 883.333333333 -1270.66666667 L 887.5 -1266.5 L 886.5 -1259.5 L 885.5 -1252.5 L 879.333333333 -1248.66666667 L 868.0 -1248.0 L 856.0 -1244.0 L 846.166666667 -1230.83333333 L 838.5 -1208.5 L 830.833333333 -1186.16666667 L 822.666666667 -1162.33333333 L 814.0 -1137.0 L 794.0 -1077.66666667 L 775.833333333 -1029.66666667 L 759.5 -993.0 L 743.166666667 -956.333333333 L 727.666666667 -930.666666667 L 713.0 -916.0 L 698.333333333 -901.333333333 L 680.666666667 -890.0 L 660.0 -882.0 L 628.0 -870.666666667 L 596.666666667 -862.166666667 L 566.0 -856.5 L 535.333333333 -850.833333333 L 508.666666667 -848.0 L 486.0 -848.0 L 497.333333333 -825.333333333 L 516.166666667 -809.666666667 L 542.5 -801.0 L 568.833333333 -792.333333333 L 576.333333333 -783.0 L 565.0 -773.0 L 558.333333333 -767.666666667 L 538.0 -775.0 L 504.0 -795.0 L 470.0 -815.0 L 446.666666667 -834.666666667 L 434.0 -854.0 L 434.0 -866.666666667 L 439.833333333 -871.833333333 L 451.5 -869.5 L 463.166666667 -867.166666667 L 476.0 -865.666666667 L 490.0 -865.0 L 504.0 -864.333333333 L 518.166666667 -865.0 L 532.5 -867.0 L 546.833333333 -869.0 L 566.0 -875.333333333 L 590.0 -886.0 L 602.0 -891.333333333 L 613.166666667 -902.666666667 L 623.5 -920.0 L 633.833333333 -937.333333333 L 643.166666667 -956.833333333 L 651.5 -978.5 L 659.833333333 -1000.16666667 L 667.0 -1021.5 L 673.0 -1042.5 L 679.0 -1063.5 L 686.666666667 -1093.83333333 L 696.0 -1133.5 L 705.333333333 -1173.16666667 L 713.5 -1199.66666667 L 720.5 -1213.0 L 727.5 -1226.33333333 L 737.333333333 -1237.16666667 L 750.0 -1245.5 L 762.666666667 -1253.83333333 L 774.833333333 -1259.16666667 L 786.5 -1261.5 L 798.166666667 -1263.83333333 L 811.0 -1265.66666667 L 825.0 -1267.0 L 839.0 -1268.33333333 L 855.333333333 -1270.0 Z" fill="black" fill-opacity="0.25" stroke="black" stroke-width="4.0"/>
  <rect x="351.0" y="-697.0" width="266.0" height="249.99999999999994" fill="none" stroke="red" stroke-width="10.0" /><rect x="622.0" y="-697.0" width="265.0" height="249.99999999999994" fill="none" stroke="red" stroke-width="10.0" /><rect x="81.0" y="-393.0" width="1340.0" height="173.00000000000003" fill="none" stroke="red" stroke-width="10.0" /><rect x="981.0" y="-715.4000000000001" width="339.8" height="223.80000000000007" fill="none" stroke="red" stroke-width="10.0" /><rect x="1208.7" y="-939.2" width="193.09999999999982" height="223.8" fill="none" stroke="red" stroke-width="10.0" /><rect x="1271.7" y="-1163.0" width="224.5999999999999" height="223.8" fill="none" stroke="red" stroke-width="10.0" /><rect x="434.0" y="-938.2" width="298.2" height="166.90000000000003" fill="none" stroke="red" stroke-width="10.0" /><rect x="634.3" y="-1105.1" width="168.90000000000006" height="166.89999999999995" fill="none" stroke="red" stroke-width="10.0" /><rect x="689.3000000000001" y="-1272.0" width="198.19999999999993" height="166.90000000000003" fill="none" stroke="red" stroke-width="10.0" />
</svg>
