<svg xmlns="http://www.w3.org/2000/svg"
  viewBox="27.222 -770 1558.825 597.579">
  <rect x="27.222" y="-770" width="1558.825" height="597.579" fill="white"/>
  <path d="M 1149 -671 L 1169 -671 L 1190 -670.667 L 1212 -670 L 1234 -669.333 L 1253.667 -667.333 L 1271 -664 L 1283.667 -664 L 1298 -647 L 1314 -613 L 1330 -579 L 1347.667 -541.667 L 1367 -501 L 1372.333 -487 L 1378.667 -479 L 1386 -477 L 1390.667 -475 L 1394.5 -471.5 L 1397.5 -466.5 L 1400.5 -461.5 L 1397.667 -457 L 1389 -453 L 1369 -449 L 1348.5 -447.333 L 1327.5 -448 L 1306.5 -448.667 L 1287 -450.333 L 1269 -453 L 1251.667 -461 L 1236.833 -476 L 1224.5 -498 L 1212.167 -520 L 1195.667 -559.667 L 1175 -617 L 1173 -620.333 L 1169.333 -625.5 L 1164 -632.5 L 1158.667 -639.5 L 1152.667 -643.667 L 1146 -645 L 1136.667 -646.333 L 1131.333 -651 L 1130 -659 L 1128.667 -667 L 1135 -671 Z M 879 -671 L 899 -671 L 920 -670.667 L 942 -670 L 964 -669.333 L 983.667 -667.333 L 1001 -664 L 1013.667 -664 L 1028 -647 L 1044 -613 L 1060 -579 L 1077.333 -541.667 L 1096 -501 L 1102 -487 L 1108.333 -479 L 1115 -477 L 1120.333 -475 L 1124.5 -471.5 L 1127.5 -466.5 L 1130.5 -461.5 L 1127.667 -457 L 1119 -453 L 1098.333 -449 L 1077.667 -447.333 L 1057 -448 L 1036.333 -448.667 L 1016.667 -450.333 L 998 -453 L 980.667 -461 L 966 -476 L 954 -498 L 942 -520 L 925.667 -559.667 L 905 -617 L 903 -620.333 L 899.333 -625.5 L 894 -632.5 L 888.667 -639.5 L 882.333 -643.667 L 875 -645 L 865.667 -646.333 L 860.5 -651 L 859.5 -659 L 858.5 -667 L 865 -671 Z M 561 -720 L 576.333 -719.333 L 583.5 -715.167 L 582.5 -707.5 L 581.5 -699.833 L 575.333 -695 L 564 -693 L 555.333 -691.667 L 548 -688.5 L 542 -683.5 L 536 -678.5 L 532.333 -674.333 L 531 -671 L 507 -619 L 488.5 -573.667 L 475.5 -535 L 462.5 -496.333 L 446 -473.667 L 426 -467 L 404.667 -465 L 382 -463.5 L 358 -462.5 L 334 -461.5 L 310.667 -463 L 288 -467 L 278 -470.333 L 274.667 -474.167 L 278 -478.5 L 281.333 -482.833 L 286 -486 L 292 -488 L 298.667 -490 L 306 -497 L 314 -509 L 337.333 -546.333 L 357.333 -589.667 L 374 -639 L 390.667 -688.333 L 406.333 -713 L 421 -713 L 441 -715.667 L 463.5 -717.5 L 488.5 -718.5 L 513.5 -719.5 L 537.667 -720 Z M 80 -384 L 83.333 -389.333 L 87.167 -392.167 L 91.5 -392.5 L 95.833 -392.833 L 100.333 -391.667 L 105 -389 L 109.667 -386.333 L 115.667 -383.167 L 123 -379.5 L 130.333 -375.833 L 139.667 -372.833 L 151 -370.5 L 162.333 -368.167 L 178.333 -367 L 199 -367 L 1345 -367 L 1363.667 -367 L 1380.667 -365.5 L 1396 -362.5 L 1411.333 -359.5 L 1425.333 -354.667 L 1438 -348 L 1450.667 -341.333 L 1460.5 -335.333 L 1467.5 -330 L 1474.5 -324.667 L 1484.167 -315.5 L 1496.5 -302.5 L 1508.833 -289.5 L 1519.333 -277 L 1528 -265 L 1536.667 -253 L 1538.333 -241.333 L 1533 -230 L 1527.667 -222 L 1521.5 -220.333 L 1514.5 -225 L 1507.5 -229.667 L 1499.333 -233.667 L 1490 -237 L 1480.667 -240.333 L 1470.5 -242.667 L 1459.5 -244 L 1448.5 -245.333 L 1431.333 -246 L 1408 -246 L 277 -246 L 261.667 -246 L 247.667 -247 L 235 -249 L 222.333 -251 L 212.5 -253.167 L 205.5 -255.5 L 198.5 -257.833 L 191 -261 L 183 -265 L 175 -269 L 166.667 -273.833 L 158 -279.5 L 149.333 -285.167 L 139.833 -293.167 L 129.5 -303.5 L 119.167 -313.833 L 108.833 -325.833 L 98.5 -339.5 L 88.167 -353.167 L 81.667 -362.667 L 79 -368 L 76.333 -373.333 L 76.667 -378.667 Z" fill="black" fill-opacity="0.25" stroke="black" stroke-width="4"/>
  <rect x="1129" y="-671" width="272" height="224" fill="none" stroke="red" stroke-width="10" /><rect x="859" y="-671" width="272" height="224" fill="none" stroke="red" stroke-width="10" /><rect x="275" y="-720" width="309" height="258" fill="none" stroke="red" stroke-width="10" /><rect x="76" y="-393" width="1462" height="173" fill="none" stroke="red" stroke-width="10" />
</svg>
