<svg xmlns="http://www.w3.org/2000/svg"
  viewBox="9 -1388 1541.222 1215.579">
  <rect x="9" y="-1388" width="1541.222" height="1215.579" fill="white"/>
  <path d="M 657 -697 L 677 -697 L 697.833 -696.667 L 719.5 -696 L 741.167 -695.333 L 761 -693.333 L 779 -690 L 791.667 -690 L 804.833 -668.667 L 818.5 -626 L 832.167 -583.333 L 848.667 -541.667 L 868 -501 L 874 -487 L 880.333 -479 L 887 -477 L 892.333 -475 L 896.333 -471.5 L 899 -466.5 L 901.667 -461.5 L 899 -457 L 891 -453 L 871 -449 L 850.5 -447.333 L 829.5 -448 L 808.5 -448.667 L 788.667 -450.333 L 770 -453 L 752.667 -461 L 739 -480.167 L 729 -510.5 L 719 -540.833 L 703.667 -585 L 683 -643 L 681 -646.333 L 677.333 -651.5 L 672 -658.5 L 666.667 -665.5 L 660.333 -669.667 L 653 -671 L 643.667 -672.333 L 638.5 -676.833 L 637.5 -684.5 L 636.5 -692.167 L 643 -696.333 Z M 85 -384 L 88.333 -389.333 L 92.167 -392.167 L 96.5 -392.5 L 100.833 -392.833 L 105.333 -391.667 L 110 -389 L 114.667 -386.333 L 120.667 -383.167 L 128 -379.5 L 135.333 -375.833 L 144.667 -372.833 L 156 -370.5 L 167.333 -368.167 L 183.333 -367 L 204 -367 L 1228 -367 L 1246.667 -367 L 1263.667 -365.5 L 1279 -362.5 L 1294.333 -359.5 L 1308.333 -354.667 L 1321 -348 L 1333.667 -341.333 L 1343.5 -335.333 L 1350.5 -330 L 1357.5 -324.667 L 1367 -315.5 L 1379 -302.5 L 1391 -289.5 L 1401.5 -277 L 1410.5 -265 L 1419.5 -253 L 1421.333 -241.333 L 1416 -230 L 1410.667 -222 L 1404.5 -220.333 L 1397.5 -225 L 1390.5 -229.667 L 1382.333 -233.667 L 1373 -237 L 1363.667 -240.333 L 1353.5 -242.667 L 1342.5 -244 L 1331.5 -245.333 L 1314.333 -246 L 1291 -246 L 282 -246 L 266.667 -246 L 252.667 -247 L 240 -249 L 227.333 -251 L 217.5 -253.167 L 210.5 -255.5 L 203.5 -257.833 L 196 -261 L 188 -265 L 180 -269 L 171.5 -273.833 L 162.5 -279.5 L 153.5 -285.167 L 144 -293.167 L 134 -303.5 L 124 -313.833 L 113.833 -325.833 L 103.5 -339.5 L 93.167 -353.167 L 86.667 -362.667 L 84 -368 L 81.333 -373.333 L 81.667 -378.667 Z M 1486 -1163 L 1496.667 -1161 L 1501.333 -1155.5 L 1500 -1146.5 L 1498.667 -1137.5 L 1491.667 -1132.667 L 1479 -1132 L 1465 -1127.333 L 1453.833 -1109.667 L 1445.5 -1079 L 1437.167 -1048.333 L 1428 -1016 L 1418 -982 L 1395.333 -902.667 L 1374.833 -838.333 L 1356.5 -789 L 1338.167 -739.667 L 1320.5 -705.167 L 1303.5 -685.5 L 1286.5 -665.833 L 1266.333 -650.667 L 1243 -640 L 1207 -624.667 L 1171.5 -613.333 L 1136.5 -606 L 1101.5 -598.667 L 1071 -595 L 1045 -595 L 1057.667 -565 L 1079 -544 L 1109 -532 L 1139 -520 L 1147.667 -507.333 L 1135 -494 L 1127.667 -486.667 L 1104.667 -496.333 L 1066 -523 L 1027.333 -549.667 L 1000.667 -576 L 986 -602 L 986 -618.667 L 992.833 -625.667 L 1006.5 -623 L 1020.167 -620.333 L 1034.667 -618.333 L 1050 -617 L 1065.333 -616.333 L 1081.333 -617.333 L 1098 -620 L 1114.667 -622.667 L 1136.667 -631 L 1164 -645 L 1177.333 -651.667 L 1189.833 -666.833 L 1201.5 -690.5 L 1213.167 -714.167 L 1223.833 -740.333 L 1233.5 -769 L 1243.167 -797.667 L 1251.333 -826.167 L 1258 -854.5 L 1264.667 -882.833 L 1273.5 -923.667 L 1284.5 -977 L 1295.5 -1030.333 L 1304.833 -1066 L 1312.5 -1084 L 1320.167 -1102 L 1331.167 -1116.667 L 1345.5 -1128 L 1359.833 -1139.333 L 1373.5 -1146.667 L 1386.5 -1150 L 1399.5 -1153.333 L 1414 -1155.667 L 1430 -1157 L 1446 -1158.333 L 1464.667 -1160.333 Z M 558 -1163 L 568.667 -1161 L 573.333 -1155.5 L 572 -1146.5 L 570.667 -1137.5 L 564 -1132.667 L 552 -1132 L 538 -1127.333 L 526.667 -1109.667 L 518 -1079 L 509.333 -1048.333 L 500.333 -1016 L 491 -982 L 468.333 -902.667 L 447.667 -838.333 L 429 -789 L 410.333 -739.667 L 392.667 -705.167 L 376 -685.5 L 359.333 -665.833 L 339 -650.667 L 315 -640 L 279 -624.667 L 243.5 -613.333 L 208.5 -606 L 173.5 -598.667 L 143.333 -595 L 118 -595 L 130.667 -565 L 152 -544 L 182 -532 L 212 -520 L 220.667 -507.333 L 208 -494 L 200.667 -486.667 L 177.5 -496.333 L 138.5 -523 L 99.5 -549.667 L 73 -576 L 59 -602 L 59 -618.667 L 65.667 -625.667 L 79 -623 L 92.333 -620.333 L 107 -618.333 L 123 -617 L 138.333 -616.333 L 154.167 -617.333 L 170.5 -620 L 186.833 -622.667 L 208.667 -631 L 236 -645 L 249.333 -651.667 L 262 -666.833 L 274 -690.5 L 286 -714.167 L 296.667 -740.333 L 306 -769 L 315.333 -797.667 L 323.333 -826.167 L 330 -854.5 L 336.667 -882.833 L 345.5 -923.667 L 356.5 -977 L 367.5 -1030.333 L 376.833 -1066 L 384.5 -1084 L 392.167 -1102 L 403.167 -1116.667 L 417.5 -1128 L 431.833 -1139.333 L 445.667 -1146.667 L 459 -1150 L 472.333 -1153.333 L 486.833 -1155.667 L 502.5 -1157 L 518.167 -1158.333 L 536.667 -1160.333 Z M 1063 -1338 L 1073 -1336.667 L 1077.5 -1332.167 L 1076.5 -1324.5 L 1075.5 -1316.833 L 1069.333 -1312.333 L 1058 -1311 L 1045.333 -1307 L 1035 -1292.167 L 1027 -1266.5 L 1019 -1240.833 L 1010.333 -1213.667 L 1001 -1185 L 980.333 -1117.667 L 961.333 -1063.333 L 944 -1022 L 926.667 -980.667 L 910.333 -951.667 L 895 -935 L 879.667 -918.333 L 861 -905.667 L 839 -897 L 805.667 -883.667 L 772.833 -874 L 740.5 -868 L 708.167 -862 L 680 -859 L 656 -859 L 668 -833 L 687.833 -815.167 L 715.5 -805.5 L 743.167 -795.833 L 751 -785.333 L 739 -774 L 732.333 -768 L 711.167 -776.167 L 675.5 -798.5 L 639.833 -820.833 L 615.333 -843 L 602 -865 L 602 -879 L 608.167 -884.833 L 620.5 -882.5 L 632.833 -880.167 L 646.333 -878.667 L 661 -878 L 675.667 -877.333 L 690.5 -878 L 705.5 -880 L 720.5 -882 L 740.667 -889 L 766 -901 L 778.667 -907 L 790.333 -919.833 L 801 -939.5 L 811.667 -959.167 L 821.5 -981.167 L 830.5 -1005.5 L 839.5 -1029.833 L 847 -1054 L 853 -1078 L 859 -1102 L 867 -1136.333 L 877 -1181 L 887 -1225.667 L 895.667 -1255.667 L 903 -1271 L 910.333 -1286.333 L 920.667 -1298.833 L 934 -1308.5 L 947.333 -1318.167 L 960 -1324.333 L 972 -1327 L 984 -1329.667 L 997.333 -1331.667 L 1012 -1333 L 1026.667 -1334.333 L 1043.667 -1336 Z" fill="black" fill-opacity="0.25" stroke="black" stroke-width="4"/>
  <rect x="636" y="-697" width="266" height="250" fill="none" stroke="red" stroke-width="10" /><rect x="81" y="-393" width="1340" height="173" fill="none" stroke="red" stroke-width="10" /><rect x="986" y="-715.4" width="339.7" height="223.8" fill="none" stroke="red" stroke-width="10" /><rect x="1213.7" y="-939.2" width="192.1" height="223.8" fill="none" stroke="red" stroke-width="10" /><rect x="1276.7" y="-1163" width="224.6" height="223.8" fill="none" stroke="red" stroke-width="10" /><rect x="59" y="-715.4" width="338.9" height="223.8" fill="none" stroke="red" stroke-width="10" /><rect x="286.5" y="-939.2" width="192.3" height="223.8" fill="none" stroke="red" stroke-width="10" /><rect x="348.7" y="-1163" width="224.6" height="223.8" fill="none" stroke="red" stroke-width="10" /><rect x="602" y="-960.7" width="313.4" height="188.6" fill="none" stroke="red" stroke-width="10" /><rect x="812.4" y="-1149.4" width="177.7" height="188.7" fill="none" stroke="red" stroke-width="10" /><rect x="869.9" y="-1338" width="207.6" height="188.6" fill="none" stroke="red" stroke-width="10" />
</svg>
