<svg xmlns="http://www.w3.org/2000/svg"
  viewBox="32.222222222237036 -1213.0 1517.9999999992172 1040.57894736882">
  <rect x="32.222222222237036" y="-1213.0" width="1517.9999999992172" height="1040.57894736882" fill="white"/>
  <path d="M 642.0 -697.0 L 662.0 -697.0 L 682.833333333 -696.666666667 L 704.5 -696.0 L 726.166666667 -695.333333333 L 746.0 -693.333333333 L 764.0 -690.0 L 776.666666667 -690.0 L 789.833333333 -668.666666667 L 803.5 -626.0 L 817.166666667 -583.333333333 L 833.666666667 -541.666666667 L 853.0 -501.0 L 859.0 -487.0 L 865.333333333 -479.0 L 872.0 -477.0 L 877.333333333 -475.0 L 881.333333333 -471.5 L 884.0 -466.5 L 886.666666667 -461.5 L 883.666666667 -457.0 L 875.0 -453.0 L 855.0 -449.0 L 834.666666667 -447.333333333 L 814.0 -448.0 L 793.333333333 -448.666666667 L 773.666666667 -450.333333333 L 755.0 -453.0 L 737.666666667 -461.0 L 724.0 -480.166666667 L 714.0 -510.5 L 704.0 -540.833333333 L 688.666666667 -585.0 L 668.0 -643.0 L 666.0 -646.333333333 L 662.166666667 -651.5 L 656.5 -658.5 L 650.833333333 -665.5 L 644.666666667 -669.666666667 L 638.0 -671.0 L 628.666666667 -672.333333333 L 623.5 -676.833333333 L 622.5 -684.5 L 621.5 -692.166666667 L 628.0 -696.333333333 Z M 371.0 -697.0 L 391.0 -697.0 L 412.0 -696.666666667 L 434.0 -696.0 L 456.0 -695.333333333 L 475.666666667 -693.333333333 L 493.0 -690.0 L 505.666666667 -690.0 L 519.0 -668.666666667 L 533.0 -626.0 L 547.0 -583.333333333 L 563.666666667 -541.666666667 L 583.0 -501.0 L 589.0 -487.0 L 595.333333333 -479.0 L 602.0 -477.0 L 607.333333333 -475.0 L 611.333333333 -471.5 L 614.0 -466.5 L 616.666666667 -461.5 L 613.666666667 -457.0 L 605.0 -453.0 L 585.0 -449.0 L 564.5 -447.333333333 L 543.5 -448.0 L 522.5 -448.666666667 L 502.666666667 -450.333333333 L 484.0 -453.0 L 466.666666667 -461.0 L 453.0 -480.166666667 L 443.0 -510.5 L 433.0 -540.833333333 L 417.666666667 -585.0 L 397.0 -643.0 L 395.666666667 -646.333333333 L 392.166666667 -651.5 L 386.5 -658.5 L 380.833333333 -665.5 L 374.666666667 -669.666666667 L 368.0 -671.0 L 358.666666667 -672.333333333 L 353.333333333 -676.833333333 L 352.0 -684.5 L 350.666666667 -692.166666667 L 357.0 -696.333333333 Z M 85.0 -384.0 L 88.3333333333 -389.333333333 L 92.1666666667 -392.166666667 L 96.5 -392.5 L 100.833333333 -392.833333333 L 105.333333333 -391.666666667 L 110.0 -389.0 L 114.666666667 -386.333333333 L 120.666666667 -383.166666667 L 128.0 -379.5 L 135.333333333 -375.833333333 L 144.666666667 -372.833333333 L 156.0 -370.5 L 167.333333333 -368.166666667 L 183.333333333 -367.0 L 204.0 -367.0 L 1228.0 -367.0 L 1246.66666667 -367.0 L 1263.66666667 -365.5 L 1279.0 -362.5 L 1294.33333333 -359.5 L 1308.33333333 -354.666666667 L 1321.0 -348.0 L 1333.66666667 -341.333333333 L 1343.5 -335.333333333 L 1350.5 -330.0 L 1357.5 -324.666666667 L 1367.0 -315.5 L 1379.0 -302.5 L 1391.0 -289.5 L 1401.5 -277.0 L 1410.5 -265.0 L 1419.5 -253.0 L 1421.33333333 -241.333333333 L 1416.0 -230.0 L 1410.66666667 -222.0 L 1404.5 -220.333333333 L 1397.5 -225.0 L 1390.5 -229.666666667 L 1382.33333333 -233.666666667 L 1373.0 -237.0 L 1363.66666667 -240.333333333 L 1353.5 -242.666666667 L 1342.5 -244.0 L 1331.5 -245.333333333 L 1314.33333333 -246.0 L 1291.0 -246.0 L 282.0 -246.0 L 266.666666667 -246.0 L 252.666666667 -247.0 L 240.0 -249.0 L 227.333333333 -251.0 L 217.5 -253.166666667 L 210.5 -255.5 L 203.5 -257.833333333 L 196.0 -261.0 L 188.0 -265.0 L 180.0 -269.0 L 171.5 -273.833333333 L 162.5 -279.5 L 153.5 -285.166666667 L 144.0 -293.166666667 L 134.0 -303.5 L 124.0 -313.833333333 L 113.833333333 -325.833333333 L 103.5 -339.5 L 93.1666666667 -353.166666667 L 86.6666666667 -362.666666667 L 84.0 -368.0 L 81.3333333333 -373.333333333 L 81.6666666667 -378.666666667 Z M 1486.0 -1163.0 L 1496.66666667 -1161.0 L 1501.33333333 -1155.5 L 1500.0 -1146.5 L 1498.66666667 -1137.5 L 1491.66666667 -1132.66666667 L 1479.0 -1132.0 L 1465.0 -1127.33333333 L 1453.83333333 -1109.66666667 L 1445.5 -1079.0 L 1437.16666667 -1048.33333333 L 1428.0 -1016.0 L 1418.0 -982.0 L 1395.33333333 -902.666666667 L 1374.83333333 -838.333333333 L 1356.5 -789.0 L 1338.16666667 -739.666666667 L 1320.5 -705.166666667 L 1303.5 -685.5 L 1286.5 -665.833333333 L 1266.33333333 -650.666666667 L 1243.0 -640.0 L 1207.0 -624.666666667 L 1171.5 -613.333333333 L 1136.5 -606.0 L 1101.5 -598.666666667 L 1071.0 -595.0 L 1045.0 -595.0 L 1057.66666667 -565.0 L 1079.0 -544.0 L 1109.0 -532.0 L 1139.0 -520.0 L 1147.66666667 -507.333333333 L 1135.0 -494.0 L 1127.66666667 -486.666666667 L 1104.66666667 -496.333333333 L 1066.0 -523.0 L 1027.33333333 -549.666666667 L 1000.66666667 -576.0 L 986.0 -602.0 L 986.0 -618.666666667 L 992.833333333 -625.666666667 L 1006.5 -623.0 L 1020.16666667 -620.333333333 L 1034.66666667 -618.333333333 L 1050.0 -617.0 L 1065.33333333 -616.333333333 L 1081.33333333 -617.333333333 L 1098.0 -620.0 L 1114.66666667 -622.666666667 L 1136.66666667 -631.0 L 1164.0 -645.0 L 1177.33333333 -651.666666667 L 1189.83333333 -666.833333333 L 1201.5 -690.5 L 1213.16666667 -714.166666667 L 1223.83333333 -740.333333333 L 1233.5 -769.0 L 1243.16666667 -797.666666667 L 1251.33333333 -826.166666667 L 1258.0 -854.5 L 1264.66666667 -882.833333333 L 1273.5 -923.666666667 L 1284.5 -977.0 L 1295.5 -1030.33333333 L 1304.83333333 -1066.0 L 1312.5 -1084.0 L 1320.16666667 -1102.0 L 1331.16666667 -1116.66666667 L 1345.5 -1128.0 L 1359.83333333 -1139.33333333 L 1373.5 -1146.66666667 L 1386.5 -1150.0 L 1399.5 -1153.33333333 L 1414.0 -1155.66666667 L 1430.0 -1157.0 L 1446.0 -1158.33333333 L 1464.66666667 -1160.33333333 Z" fill="black" fill-opacity="0.25" stroke="black" stroke-width="4.0"/>
  <rect x="622.0" y="-697.0" width="265.0" height="249.99999999999994" fill="none" stroke="red" stroke-width="10.0" /><rect x="351.0" y="-697.0" width="266.0" height="249.99999999999994" fill="none" stroke="red" stroke-width="10.0" /><rect x="81.0" y="-393.0" width="1340.0" height="173.00000000000003" fill="none" stroke="red" stroke-width="10.0" /><rect x="986.0" y="-1163.0" width="514.9999999999999" height="676.0" fill="none" stroke="red" stroke-width="10.0" />
</svg>
