<svg xmlns="http://www.w3.org/2000/svg"
  viewBox="9.0 -1388.0 1541.222222221454 1215.5789473688199">
  <rect x="9.0" y="-1388.0" width="1541.222222221454" height="1215.5789473688199" fill="white"/>
  <path d="M 461.0 -697.0 L 481.0 -697.0 L 502.0 -696.666666667 L 524.0 -696.0 L 546.0 -695.333333333 L 565.666666667 -693.333333333 L 583.0 -690.0 L 595.666666667 -690.0 L 609.166666667 -668.666666667 L 623.5 -626.0 L 637.833333333 -583.333333333 L 654.333333333 -541.666666667 L 673.0 -501.0 L 678.333333333 -487.0 L 684.666666667 -479.0 L 692.0 -477.0 L 696.666666667 -475.0 L 700.5 -471.5 L 703.5 -466.5 L 706.5 -461.5 L 703.666666667 -457.0 L 695.0 -453.0 L 675.0 -449.0 L 654.666666667 -447.333333333 L 634.0 -448.0 L 613.333333333 -448.666666667 L 593.666666667 -450.333333333 L 575.0 -453.0 L 557.666666667 -461.0 L 544.0 -480.166666667 L 534.0 -510.5 L 524.0 -540.833333333 L 508.666666667 -585.0 L 488.0 -643.0 L 486.0 -646.333333333 L 482.333333333 -651.5 L 477.0 -658.5 L 471.666666667 -665.5 L 465.333333333 -669.666666667 L 458.0 -671.0 L 448.666666667 -672.333333333 L 443.333333333 -676.833333333 L 442.0 -684.5 L 440.666666667 -692.166666667 L 447.0 -696.333333333 Z M 731.0 -697.0 L 751.0 -697.0 L 772.166666667 -696.666666667 L 794.5 -696.0 L 816.833333333 -695.333333333 L 836.666666667 -693.333333333 L 854.0 -690.0 L 866.666666667 -690.0 L 880.0 -668.666666667 L 894.0 -626.0 L 908.0 -583.333333333 L 924.333333333 -541.666666667 L 943.0 -501.0 L 949.0 -487.0 L 955.333333333 -479.0 L 962.0 -477.0 L 967.333333333 -475.0 L 971.5 -471.5 L 974.5 -466.5 L 977.5 -461.5 L 974.666666667 -457.0 L 966.0 -453.0 L 945.333333333 -449.0 L 924.666666667 -447.333333333 L 904.0 -448.0 L 883.333333333 -448.666666667 L 863.666666667 -450.333333333 L 845.0 -453.0 L 827.0 -461.0 L 813.166666667 -480.166666667 L 803.5 -510.5 L 793.833333333 -540.833333333 L 778.666666667 -585.0 L 758.0 -643.0 L 756.666666667 -646.333333333 L 753.166666667 -651.5 L 747.5 -658.5 L 741.833333333 -665.5 L 735.666666667 -669.666666667 L 729.0 -671.0 L 719.666666667 -672.333333333 L 714.166666667 -676.833333333 L 712.5 -684.5 L 710.833333333 -692.166666667 L 717.0 -696.333333333 Z M 85.0 -384.0 L 88.3333333333 -389.333333333 L 92.1666666667 -392.166666667 L 96.5 -392.5 L 100.833333333 -392.833333333 L 105.333333333 -391.666666667 L 110.0 -389.0 L 114.666666667 -386.333333333 L 120.666666667 -383.166666667 L 128.0 -379.5 L 135.333333333 -375.833333333 L 144.666666667 -372.833333333 L 156.0 -370.5 L 167.333333333 -368.166666667 L 183.333333333 -367.0 L 204.0 -367.0 L 1228.0 -367.0 L 1246.66666667 -367.0 L 1263.66666667 -365.5 L 1279.0 -362.5 L 1294.33333333 -359.5 L 1308.33333333 -354.666666667 L 1321.0 -348.0 L 1333.66666667 -341.333333333 L 1343.5 -335.333333333 L 1350.5 -330.0 L 1357.5 -324.666666667 L 1367.0 -315.5 L 1379.0 -302.5 L 1391.0 -289.5 L 1401.5 -277.0 L 1410.5 -265.0 L 1419.5 -253.0 L 1421.33333333 -241.333333333 L 1416.0 -230.0 L 1410.66666667 -222.0 L 1404.5 -220.333333333 L 1397.5 -225.0 L 1390.5 -229.666666667 L 1382.33333333 -233.666666667 L 1373.0 -237.0 L 1363.66666667 -240.333333333 L 1353.5 -242.666666667 L 1342.5 -244.0 L 1331.5 -245.333333333 L 1314.33333333 -246.0 L 1291.0 -246.0 L 282.0 -246.0 L 266.666666667 -246.0 L 252.666666667 -247.0 L 240.0 -249.0 L 227.333333333 -251.0 L 217.5 -253.166666667 L 210.5 -255.5 L 203.5 -257.833333333 L 196.0 -261.0 L 188.0 -265.0 L 180.0 -269.0 L 171.5 -273.833333333 L 162.5 -279.5 L 153.5 -285.166666667 L 144.0 -293.166666667 L 134.0 -303.5 L 124.0 -313.833333333 L 113.833333333 -325.833333333 L 103.5 -339.5 L 93.1666666667 -353.166666667 L 86.6666666667 -362.666666667 L 84.0 -368.0 L 81.3333333333 -373.333333333 L 81.6666666667 -378.666666667 Z M 1486.0 -1163.0 L 1496.66666667 -1161.0 L 1501.33333333 -1155.5 L 1500.0 -1146.5 L 1498.66666667 -1137.5 L 1491.66666667 -1132.66666667 L 1479.0 -1132.0 L 1465.0 -1127.33333333 L 1453.83333333 -1109.66666667 L 1445.5 -1079.0 L 1437.16666667 -1048.33333333 L 1428.0 -1016.0 L 1418.0 -982.0 L 1395.33333333 -902.666666667 L 1374.83333333 -838.333333333 L 1356.5 -789.0 L 1338.16666667 -739.666666667 L 1320.5 -705.166666667 L 1303.5 -685.5 L 1286.5 -665.833333333 L 1266.33333333 -650.666666667 L 1243.0 -640.0 L 1207.0 -624.666666667 L 1171.5 -613.333333333 L 1136.5 -606.0 L 1101.5 -598.666666667 L 1071.0 -595.0 L 1045.0 -595.0 L 1057.66666667 -565.0 L 1079.0 -544.0 L 1109.0 -532.0 L 1139.0 -520.0 L 1147.66666667 -507.333333333 L 1135.0 -494.0 L 1127.66666667 -486.666666667 L 1104.66666667 -496.333333333 L 1066.0 -523.0 L 1027.33333333 -549.666666667 L 1000.66666667 -576.0 L 986.0 -602.0 L 986.0 -618.666666667 L 992.833333333 -625.666666667 L 1006.5 -623.0 L 1020.16666667 -620.333333333 L 1034.66666667 -618.333333333 L 1050.0 -617.0 L 1065.33333333 -616.333333333 L 1081.33333333 -617.333333333 L 1098.0 -620.0 L 1114.66666667 -622.666666667 L 1136.66666667 -631.0 L 1164.0 -645.0 L 1177.33333333 -651.666666667 L 1189.83333333 -666.833333333 L 1201.5 -690.5 L 1213.16666667 -714.166666667 L 1223.83333333 -740.333333333 L 1233.5 -769.0 L 1243.16666667 -797.666666667 L 1251.33333333 -826.166666667 L 1258.0 -854.5 L 1264.66666667 -882.833333333 L 1273.5 -923.666666667 L 1284.5 -977.0 L 1295.5 -1030.33333333 L 1304.83333333 -1066.0 L 1312.5 -1084.0 L 1320.16666667 -1102.0 L 1331.16666667 -1116.66666667 L 1345.5 -1128.0 L 1359.83333333 -1139.33333333 L 1373.5 -1146.66666667 L 1386.5 -1150.0 L 1399.5 -1153.33333333 L 1414.0 -1155.66666667 L 1430.0 -1157.0 L 1446.0 -1158.33333333 L 1464.66666667 -1160.33333333 Z M 558.0 -1163.0 L 568.666666667 -1161.0 L 573.333333333 -1155.5 L 572.0 -1146.5 L 570.666666667 -1137.5 L 564.0 -1132.66666667 L 552.0 -1132.0 L 538.0 -1127.33333333 L 526.666666667 -1109.66666667 L 518.0 -1079.0 L 509.333333333 -1048.33333333 L 500.333333333 -1016.0 L 491.0 -982.0 L 468.333333333 -902.666666667 L 447.666666667 -838.333333333 L 429.0 -789.0 L 410.333333333 -739.666666667 L 392.666666667 -705.166666667 L 376.0 -685.5 L 359.333333333 -665.833333333 L 339.0 -650.666666667 L 315.0 -640.0 L 279.0 -624.666666667 L 243.5 -613.333333333 L 208.5 -606.0 L 173.5 -598.666666667 L 143.333333333 -595.0 L 118.0 -595.0 L 130.666666667 -565.0 L 152.0 -544.0 L 182.0 -532.0 L 212.0 -520.0 L 220.666666667 -507.333333333 L 208.0 -494.0 L 200.666666667 -486.666666667 L 177.5 -496.333333333 L 138.5 -523.0 L 99.5 -549.666666667 L 73.0 -576.0 L 59.0 -602.0 L 59.0 -618.666666667 L 65.6666666667 -625.666666667 L 79.0 -623.0 L 92.3333333333 -620.333333333 L 107.0 -618.333333333 L 123.0 -617.0 L 138.333333333 -616.333333333 L 154.166666667 -617.333333333 L 170.5 -620.0 L 186.833333333 -622.666666667 L 208.666666667 -631.0 L 236.0 -645.0 L 249.333333333 -651.666666667 L 262.0 -666.833333333 L 274.0 -690.5 L 286.0 -714.166666667 L 296.666666667 -740.333333333 L 306.0 -769.0 L 315.333333333 -797.666666667 L 323.333333333 -826.166666667 L 330.0 -854.5 L 336.666666667 -882.833333333 L 345.5 -923.666666667 L 356.5 -977.0 L 367.5 -1030.33333333 L 376.833333333 -1066.0 L 384.5 -1084.0 L 392.166666667 -1102.0 L 403.166666667 -1116.66666667 L 417.5 -1128.0 L 431.833333333 -1139.33333333 L 445.666666667 -1146.66666667 L 459.0 -1150.0 L 472.333333333 -1153.33333333 L 486.833333333 -1155.66666667 L 502.5 -1157.0 L 518.166666667 -1158.33333333 L 536.666666667 -1160.33333333 Z M 1000.0 -1338.0 L 1010.0 -1336.66666667 L 1014.33333333 -1332.16666667 L 1013.0 -1324.5 L 1011.66666667 -1316.83333333 L 1005.33333333 -1312.33333333 L 994.0 -1311.0 L 981.333333333 -1307.0 L 971.0 -1292.16666667 L 963.0 -1266.5 L 955.0 -1240.83333333 L 946.666666667 -1213.66666667 L 938.0 -1185.0 L 917.333333333 -1117.66666667 L 898.166666667 -1063.33333333 L 880.5 -1022.0 L 862.833333333 -980.666666667 L 846.333333333 -951.666666667 L 831.0 -935.0 L 815.666666667 -918.333333333 L 797.333333333 -905.666666667 L 776.0 -897.0 L 742.666666667 -883.666666667 L 709.666666667 -874.0 L 677.0 -868.0 L 644.333333333 -862.0 L 616.333333333 -859.0 L 593.0 -859.0 L 605.0 -833.0 L 624.666666667 -815.166666667 L 652.0 -805.5 L 679.333333333 -795.833333333 L 687.333333333 -785.333333333 L 676.0 -774.0 L 669.333333333 -768.0 L 648.0 -776.166666667 L 612.0 -798.5 L 576.0 -820.833333333 L 551.333333333 -843.0 L 538.0 -865.0 L 538.0 -879.0 L 544.333333333 -884.833333333 L 557.0 -882.5 L 569.666666667 -880.166666667 L 583.0 -878.666666667 L 597.0 -878.0 L 611.666666667 -877.333333333 L 626.5 -878.0 L 641.5 -880.0 L 656.5 -882.0 L 676.666666667 -889.0 L 702.0 -901.0 L 714.666666667 -907.0 L 726.333333333 -919.833333333 L 737.0 -939.5 L 747.666666667 -959.166666667 L 757.5 -981.166666667 L 766.5 -1005.5 L 775.5 -1029.83333333 L 783.166666667 -1054.0 L 789.5 -1078.0 L 795.833333333 -1102.0 L 804.0 -1136.33333333 L 814.0 -1181.0 L 824.0 -1225.66666667 L 832.666666667 -1255.66666667 L 840.0 -1271.0 L 847.333333333 -1286.33333333 L 857.5 -1298.83333333 L 870.5 -1308.5 L 883.5 -1318.16666667 L 896.0 -1324.33333333 L 908.0 -1327.0 L 920.0 -1329.66666667 L 933.5 -1331.66666667 L 948.5 -1333.0 L 963.5 -1334.33333333 L 980.666666667 -1336.0 Z" fill="black" fill-opacity="0.25" stroke="black" stroke-width="4.0"/>
  <rect x="441.0" y="-697.0" width="265.99999999999994" height="249.99999999999994" fill="none" stroke="red" stroke-width="10.0" /><rect x="711.0" y="-697.0" width="267.0" height="249.99999999999994" fill="none" stroke="red" stroke-width="10.0" /><rect x="81.0" y="-393.0" width="1340.0" height="173.00000000000003" fill="none" stroke="red" stroke-width="10.0" /><rect x="986.0" y="-715.4000000000001" width="339.7000000000001" height="223.80000000000007" fill="none" stroke="red" stroke-width="10.0" /><rect x="1213.7" y="-939.2" width="192.09999999999994" height="223.8" fill="none" stroke="red" stroke-width="10.0" /><rect x="1276.7" y="-1163.0" width="224.60000000000014" height="223.8" fill="none" stroke="red" stroke-width="10.0" /><rect x="59.0" y="-715.4000000000001" width="338.9" height="223.80000000000007" fill="none" stroke="red" stroke-width="10.0" /><rect x="286.5" y="-939.2" width="192.30000000000004" height="223.8" fill="none" stroke="red" stroke-width="10.0" /><rect x="348.7" y="-1163.0" width="224.60000000000002" height="223.8" fill="none" stroke="red" stroke-width="10.0" /><rect x="538.0" y="-960.7" width="313.5" height="188.6" fill="none" stroke="red" stroke-width="10.0" /><rect x="748.4" y="-1149.4" width="178.70000000000007" height="188.7" fill="none" stroke="red" stroke-width="10.0" /><rect x="806.9" y="-1338.0" width="207.40000000000003" height="188.6000000000001" fill="none" stroke="red" stroke-width="10.0" />
</svg>
