<svg xmlns="http://www.w3.org/2000/svg"
  viewBox="-58.64285714286163 -841.523809522041 2191.690476189919 669.102756890861">
  <rect x="-58.64285714286163" y="-841.523809522041" width="2191.690476189919" height="669.102756890861" fill="white"/>
  <path d="M 244.0 -462.0 L 237.333333333 -466.666666667 L 236.833333333 -471.333333333 L 242.5 -476.0 L 248.166666667 -480.666666667 L 255.333333333 -483.0 L 264.0 -483.0 L 273.333333333 -483.0 L 286.333333333 -491.333333333 L 303.0 -508.0 L 319.666666667 -524.666666667 L 330.666666667 -545.333333333 L 336.0 -570.0 L 344.666666667 -611.333333333 L 323.0 -645.333333333 L 271.0 -672.0 L 231.666666667 -691.333333333 L 178.5 -706.333333333 L 111.5 -717.0 L 44.5 -727.666666667 L 7.33333333333 -734.333333333 L 0.0 -737.0 L -7.33333333333 -739.666666667 L -10.0 -743.833333333 L -8.0 -749.5 L -6.0 -755.166666667 L -2.33333333333 -758.0 L 3.0 -758.0 L 9.0 -758.0 L 46.1666666667 -753.0 L 114.5 -743.0 L 182.833333333 -733.0 L 245.0 -717.333333333 L 301.0 -696.0 L 334.333333333 -682.666666667 L 361.0 -669.5 L 381.0 -656.5 L 401.0 -643.5 L 419.666666667 -625.666666667 L 437.0 -603.0 L 453.666666667 -580.333333333 L 460.5 -558.0 L 457.5 -536.0 L 454.5 -514.0 L 444.666666667 -497.0 L 428.0 -485.0 L 412.666666667 -473.666666667 L 395.166666667 -466.0 L 375.5 -462.0 L 355.833333333 -458.0 L 337.0 -456.0 L 319.0 -456.0 L 292.0 -456.0 L 292.0 -456.0 L 281.5 -456.0 L 274.5 -456.0 L 262.0 -458.0 Z M 1515.0 -671.0 L 1535.0 -671.0 L 1556.0 -670.666666667 L 1578.0 -670.0 L 1600.0 -669.333333333 L 1619.66666667 -667.333333333 L 1637.0 -664.0 L 1649.66666667 -664.0 L 1664.16666667 -647.0 L 1680.5 -613.0 L 1696.83333333 -579.0 L 1714.33333333 -541.666666667 L 1733.0 -501.0 L 1739.0 -487.0 L 1745.33333333 -479.0 L 1752.0 -477.0 L 1756.66666667 -475.0 L 1760.66666667 -471.5 L 1764.0 -466.5 L 1767.33333333 -461.5 L 1764.33333333 -457.0 L 1755.0 -453.0 L 1735.0 -449.0 L 1714.66666667 -447.333333333 L 1694.0 -448.0 L 1673.33333333 -448.666666667 L 1653.66666667 -450.333333333 L 1635.0 -453.0 L 1617.66666667 -461.0 L 1602.83333333 -476.0 L 1590.5 -498.0 L 1578.16666667 -520.0 L 1562.0 -559.666666667 L 1542.0 -617.0 L 1540.66666667 -620.333333333 L 1537.0 -625.5 L 1531.0 -632.5 L 1525.0 -639.5 L 1518.66666667 -643.666666667 L 1512.0 -645.0 L 1502.66666667 -646.333333333 L 1497.33333333 -651.0 L 1496.0 -659.0 L 1494.66666667 -667.0 L 1501.0 -671.0 Z M 1786.0 -671.0 L 1806.0 -671.0 L 1826.83333333 -670.666666667 L 1848.5 -670.0 L 1870.16666667 -669.333333333 L 1890.0 -667.333333333 L 1908.0 -664.0 L 1920.66666667 -664.0 L 1935.0 -647.0 L 1951.0 -613.0 L 1967.0 -579.0 L 1984.33333333 -541.666666667 L 2003.0 -501.0 L 2009.0 -487.0 L 2015.33333333 -479.0 L 2022.0 -477.0 L 2027.33333333 -475.0 L 2031.5 -471.5 L 2034.5 -466.5 L 2037.5 -461.5 L 2034.66666667 -457.0 L 2026.0 -453.0 L 2005.33333333 -449.0 L 1984.66666667 -447.333333333 L 1964.0 -448.0 L 1943.33333333 -448.666666667 L 1923.66666667 -450.333333333 L 1905.0 -453.0 L 1887.0 -461.0 L 1872.16666667 -476.0 L 1860.5 -498.0 L 1848.83333333 -520.0 L 1832.66666667 -559.666666667 L 1812.0 -617.0 L 1810.0 -620.333333333 L 1806.16666667 -625.5 L 1800.5 -632.5 L 1794.83333333 -639.5 L 1788.66666667 -643.666666667 L 1782.0 -645.0 L 1772.66666667 -646.333333333 L 1767.5 -651.0 L 1766.5 -659.0 L 1765.5 -667.0 L 1772.0 -671.0 Z M 265.5 -384.0 L 269.166666667 -389.333333333 L 273.0 -392.166666667 L 277.0 -392.5 L 281.0 -392.833333333 L 285.5 -391.666666667 L 290.5 -389.0 L 295.5 -386.333333333 L 301.5 -383.166666667 L 308.5 -379.5 L 315.5 -375.833333333 L 324.833333333 -372.833333333 L 336.5 -370.5 L 348.166666667 -368.166666667 L 364.0 -367.0 L 384.0 -367.0 L 1892.0 -367.0 L 1910.66666667 -367.0 L 1927.66666667 -365.5 L 1943.0 -362.5 L 1958.33333333 -359.5 L 1972.33333333 -354.666666667 L 1985.0 -348.0 L 1997.66666667 -341.333333333 L 2007.5 -335.333333333 L 2014.5 -330.0 L 2021.5 -324.666666667 L 2031.16666667 -315.5 L 2043.5 -302.5 L 2055.83333333 -289.5 L 2066.33333333 -277.0 L 2075.0 -265.0 L 2083.66666667 -253.0 L 2085.33333333 -241.333333333 L 2080.0 -230.0 L 2074.66666667 -222.0 L 2068.5 -220.333333333 L 2061.5 -225.0 L 2054.5 -229.666666667 L 2046.33333333 -233.666666667 L 2037.0 -237.0 L 2027.66666667 -240.333333333 L 2017.5 -242.666666667 L 2006.5 -244.0 L 1995.5 -245.333333333 L 1978.33333333 -246.0 L 1955.0 -246.0 L 462.0 -246.0 L 446.666666667 -246.0 L 432.833333333 -247.0 L 420.5 -249.0 L 408.166666667 -251.0 L 398.333333333 -253.166666667 L 391.0 -255.5 L 383.666666667 -257.833333333 L 376.166666667 -261.0 L 368.5 -265.0 L 360.833333333 -269.0 L 352.5 -273.833333333 L 343.5 -279.5 L 334.5 -285.166666667 L 325.0 -293.166666667 L 315.0 -303.5 L 305.0 -313.833333333 L 294.833333333 -325.833333333 L 284.5 -339.5 L 274.166666667 -353.166666667 L 267.5 -362.666666667 L 264.5 -368.0 L 261.5 -373.333333333 L 261.833333333 -378.666666667 Z M 732.0 -465.0 L 709.333333333 -456.333333333 L 671.0 -457.0 L 617.0 -467.0 L 585.666666667 -475.0 L 557.833333333 -485.5 L 533.5 -498.5 L 509.166666667 -511.5 L 490.666666667 -534.333333333 L 478.0 -567.0 L 469.333333333 -598.333333333 L 466.333333333 -623.5 L 469.0 -642.5 L 471.666666667 -661.5 L 482.0 -683.333333333 L 500.0 -708.0 L 517.333333333 -728.666666667 L 537.5 -744.333333333 L 560.5 -755.0 L 583.5 -765.666666667 L 611.666666667 -774.666666667 L 645.0 -782.0 L 678.333333333 -788.666666667 L 705.333333333 -791.833333333 L 726.0 -791.5 L 746.666666667 -791.166666667 L 769.0 -790.333333333 L 793.0 -789.0 L 817.0 -788.333333333 L 839.333333333 -786.666666667 L 860.0 -784.0 L 880.666666667 -781.333333333 L 905.666666667 -775.333333333 L 935.0 -766.0 L 983.666666667 -752.666666667 L 1031.33333333 -734.333333333 L 1078.0 -711.0 L 1104.66666667 -697.666666667 L 1132.66666667 -683.5 L 1162.0 -668.5 L 1191.33333333 -653.5 L 1224.33333333 -636.0 L 1261.0 -616.0 L 1277.66666667 -606.0 L 1295.83333333 -595.166666667 L 1315.5 -583.5 L 1335.16666667 -571.833333333 L 1356.33333333 -560.0 L 1379.0 -548.0 L 1396.33333333 -537.333333333 L 1413.5 -526.5 L 1430.5 -515.5 L 1447.5 -504.5 L 1454.66666667 -493.5 L 1452.0 -482.5 L 1449.33333333 -471.5 L 1442.83333333 -466.333333333 L 1432.5 -467.0 L 1422.16666667 -467.666666667 L 1390.16666667 -467.333333333 L 1336.5 -466.0 L 1282.83333333 -464.666666667 L 1236.0 -464.333333333 L 1196.0 -465.0 L 1180.0 -477.0 L 1180.16666667 -485.5 L 1196.5 -490.5 L 1212.83333333 -495.5 L 1225.0 -502.0 L 1233.0 -510.0 L 1247.66666667 -525.333333333 L 1254.16666667 -537.5 L 1252.5 -546.5 L 1250.83333333 -555.5 L 1248.5 -562.5 L 1245.5 -567.5 L 1242.5 -572.5 L 1237.66666667 -578.0 L 1231.0 -584.0 L 1224.33333333 -590.0 L 1208.16666667 -601.833333333 L 1182.5 -619.5 L 1156.83333333 -637.166666667 L 1124.66666667 -656.0 L 1086.0 -676.0 L 1052.0 -691.333333333 L 1025.0 -703.666666667 L 1005.0 -713.0 L 985.0 -722.333333333 L 953.0 -733.0 L 909.0 -745.0 L 876.333333333 -751.666666667 L 843.0 -755.666666667 L 809.0 -757.0 L 775.0 -758.333333333 L 740.666666667 -753.333333333 L 706.0 -742.0 L 681.333333333 -731.333333333 L 664.0 -722.166666667 L 654.0 -714.5 L 644.0 -706.833333333 L 633.0 -693.666666667 L 621.0 -675.0 L 610.333333333 -657.0 L 604.166666667 -641.833333333 L 602.5 -629.5 L 600.833333333 -617.166666667 L 600.333333333 -603.0 L 601.0 -587.0 L 601.666666667 -570.333333333 L 603.666666667 -558.166666667 L 607.0 -550.5 L 610.333333333 -542.833333333 L 614.666666667 -535.166666667 L 620.0 -527.5 L 625.333333333 -519.833333333 L 632.0 -513.0 L 640.0 -507.0 L 648.0 -501.0 L 660.333333333 -496.666666667 L 677.0 -494.0 L 693.666666667 -491.333333333 L 710.0 -489.0 L 726.0 -487.0 L 732.666666667 -485.666666667 L 737.0 -482.666666667 L 739.0 -478.0 L 741.0 -473.333333333 L 738.666666667 -469.0 Z" fill="black" fill-opacity="0.25" stroke="black" stroke-width="4.0"/>
  <rect x="-10.0" y="-758.0" width="471.00000000000006" height="302.0" fill="none" stroke="red" stroke-width="10.0" /><rect x="1495.0" y="-671.0" width="271.9999999999998" height="224.00000000000003" fill="none" stroke="red" stroke-width="10.0" /><rect x="1766.0" y="-671.0" width="271.9999999999998" height="224.00000000000003" fill="none" stroke="red" stroke-width="10.0" /><rect x="262.0" y="-393.0" width="1823.0" height="173.00000000000003" fill="none" stroke="red" stroke-width="10.0" /><rect x="466.0" y="-792.0" width="989.0000000000001" height="336.0" fill="none" stroke="red" stroke-width="10.0" />
</svg>
