<svg xmlns="http://www.w3.org/2000/svg"
  viewBox="17.222222222237036 -442.5555555554815 1436.8253968248207 515.1010101009277">
  <rect x="17.222222222237036" y="-442.5555555554815" width="1436.8253968248207" height="515.1010101009277" fill="white"/>
  <path d="M 863.0 -180.0 L 885.666666667 -180.0 L 909.666666667 -179.833333333 L 935.0 -179.5 L 960.333333333 -179.166666667 L 983.0 -177.666666667 L 1003.0 -175.0 L 1017.0 -175.0 L 1030.33333333 -158.0 L 1043.0 -124.0 L 1055.66666667 -90.0 L 1073.66666667 -56.0 L 1097.0 -22.0 L 1105.0 -10.0 L 1112.33333333 -3.33333333333 L 1119.0 -2.0 L 1125.0 -0.666666666667 L 1129.66666667 2.0 L 1133.0 6.0 L 1136.33333333 10.0 L 1133.0 13.6666666667 L 1123.0 17.0 L 1099.66666667 20.3333333333 L 1076.16666667 21.6666666667 L 1052.5 21.0 L 1028.83333333 20.3333333333 L 1006.33333333 19.0 L 985.0 17.0 L 965.0 10.3333333333 L 950.666666667 -5.16666666667 L 942.0 -29.5 L 933.333333333 -53.8333333333 L 917.333333333 -89.6666666667 L 894.0 -137.0 L 886.666666667 -148.333333333 L 875.333333333 -155.0 L 860.0 -157.0 L 849.333333333 -158.333333333 L 843.166666667 -162.5 L 841.5 -169.5 L 839.833333333 -176.5 L 847.0 -180.0 Z M 615.0 -181.0 L 635.0 -181.0 L 655.833333333 -180.833333333 L 677.5 -180.5 L 699.166666667 -180.166666667 L 719.0 -178.666666667 L 737.0 -176.0 L 749.666666667 -176.0 L 762.833333333 -158.5 L 776.5 -123.5 L 790.166666667 -88.5 L 806.666666667 -54.0 L 826.0 -20.0 L 832.0 -8.0 L 838.333333333 -1.66666666667 L 845.0 -1.0 L 850.333333333 0.333333333333 L 854.333333333 3.0 L 857.0 7.0 L 859.666666667 11.0 L 857.0 14.6666666667 L 849.0 18.0 L 829.0 21.3333333333 L 808.5 22.8333333333 L 787.5 22.5 L 766.5 22.1666666667 L 746.666666667 20.6666666667 L 728.0 18.0 L 710.666666667 11.3333333333 L 697.0 -4.33333333333 L 687.0 -29.0 L 677.0 -53.6666666667 L 661.666666667 -89.6666666667 L 641.0 -137.0 L 639.0 -139.666666667 L 635.333333333 -144.0 L 630.0 -150.0 L 624.666666667 -156.0 L 618.333333333 -159.666666667 L 611.0 -161.0 L 601.666666667 -162.333333333 L 596.5 -166.0 L 595.5 -172.0 L 594.5 -178.0 L 601.0 -181.0 Z M 70.0 -384.0 L 73.3333333333 -389.333333333 L 77.1666666667 -392.166666667 L 81.5 -392.5 L 85.8333333333 -392.833333333 L 90.5 -391.666666667 L 95.5 -389.0 L 100.5 -386.333333333 L 106.5 -383.166666667 L 113.5 -379.5 L 120.5 -375.833333333 L 129.666666667 -372.833333333 L 141.0 -370.5 L 152.333333333 -368.166666667 L 168.333333333 -367.0 L 189.0 -367.0 L 1213.0 -367.0 L 1231.66666667 -367.0 L 1248.66666667 -365.5 L 1264.0 -362.5 L 1279.33333333 -359.5 L 1293.33333333 -354.666666667 L 1306.0 -348.0 L 1318.66666667 -341.333333333 L 1328.5 -335.333333333 L 1335.5 -330.0 L 1342.5 -324.666666667 L 1352.16666667 -315.5 L 1364.5 -302.5 L 1376.83333333 -289.5 L 1387.33333333 -277.0 L 1396.0 -265.0 L 1404.66666667 -253.0 L 1406.33333333 -241.333333333 L 1401.0 -230.0 L 1395.66666667 -222.0 L 1389.66666667 -220.333333333 L 1383.0 -225.0 L 1376.33333333 -229.666666667 L 1368.16666667 -233.666666667 L 1358.5 -237.0 L 1348.83333333 -240.333333333 L 1338.5 -242.666666667 L 1327.5 -244.0 L 1316.5 -245.333333333 L 1299.33333333 -246.0 L 1276.0 -246.0 L 267.0 -246.0 L 251.666666667 -246.0 L 237.833333333 -247.0 L 225.5 -249.0 L 213.166666667 -251.0 L 203.333333333 -253.166666667 L 196.0 -255.5 L 188.666666667 -257.833333333 L 181.166666667 -261.0 L 173.5 -265.0 L 165.833333333 -269.0 L 157.5 -273.833333333 L 148.5 -279.5 L 139.5 -285.166666667 L 129.833333333 -293.166666667 L 119.5 -303.5 L 109.166666667 -313.833333333 L 98.8333333333 -325.833333333 L 88.5 -339.5 L 78.1666666667 -353.166666667 L 71.6666666667 -362.666666667 L 69.0 -368.0 L 66.3333333333 -373.333333333 L 66.6666666667 -378.666666667 Z" fill="black" fill-opacity="0.25" stroke="black" stroke-width="4.0"/>
  <rect x="840.0" y="-180.0" width="295.99999999999994" height="201.99999999999997" fill="none" stroke="red" stroke-width="10.0" /><rect x="595.0" y="-181.0" width="265.0" height="204.0" fill="none" stroke="red" stroke-width="10.0" /><rect x="66.0" y="-393.0" width="1339.9999999999998" height="173.00000000000003" fill="none" stroke="red" stroke-width="10.0" />
</svg>
