<svg xmlns="http://www.w3.org/2000/svg"
  viewBox="32.222222222237036 -1213.0 1458.9999999992172 1040.57894736882">
  <rect x="32.222222222237036" y="-1213.0" width="1458.9999999992172" height="1040.57894736882" fill="white"/>
  <path d="M 1427.0 -1163.0 L 1437.66666667 -1161.0 L 1442.33333333 -1155.5 L 1441.0 -1146.5 L 1439.66666667 -1137.5 L 1433.0 -1132.66666667 L 1421.0 -1132.0 L 1407.0 -1127.33333333 L 1395.83333333 -1109.66666667 L 1387.5 -1079.0 L 1379.16666667 -1048.33333333 L 1370.0 -1016.0 L 1360.0 -982.0 L 1337.33333333 -902.666666667 L 1316.66666667 -838.333333333 L 1298.0 -789.0 L 1279.33333333 -739.666666667 L 1261.66666667 -705.166666667 L 1245.0 -685.5 L 1228.33333333 -665.833333333 L 1208.33333333 -650.666666667 L 1185.0 -640.0 L 1149.0 -624.666666667 L 1113.33333333 -613.333333333 L 1078.0 -606.0 L 1042.66666667 -598.666666667 L 1012.33333333 -595.0 L 987.0 -595.0 L 999.666666667 -565.0 L 1021.0 -544.0 L 1051.0 -532.0 L 1081.0 -520.0 L 1089.66666667 -507.333333333 L 1077.0 -494.0 L 1069.66666667 -486.666666667 L 1046.5 -496.333333333 L 1007.5 -523.0 L 968.5 -549.666666667 L 942.0 -576.0 L 928.0 -602.0 L 928.0 -618.666666667 L 934.666666667 -625.666666667 L 948.0 -623.0 L 961.333333333 -620.333333333 L 976.0 -618.333333333 L 992.0 -617.0 L 1007.33333333 -616.333333333 L 1023.16666667 -617.333333333 L 1039.5 -620.0 L 1055.83333333 -622.666666667 L 1077.66666667 -631.0 L 1105.0 -645.0 L 1118.33333333 -651.666666667 L 1131.0 -666.833333333 L 1143.0 -690.5 L 1155.0 -714.166666667 L 1165.66666667 -740.333333333 L 1175.0 -769.0 L 1184.33333333 -797.666666667 L 1192.33333333 -826.166666667 L 1199.0 -854.5 L 1205.66666667 -882.833333333 L 1214.5 -923.666666667 L 1225.5 -977.0 L 1236.5 -1030.33333333 L 1246.0 -1066.0 L 1254.0 -1084.0 L 1262.0 -1102.0 L 1273.16666667 -1116.66666667 L 1287.5 -1128.0 L 1301.83333333 -1139.33333333 L 1315.5 -1146.66666667 L 1328.5 -1150.0 L 1341.5 -1153.33333333 L 1355.83333333 -1155.66666667 L 1371.5 -1157.0 L 1387.16666667 -1158.33333333 L 1405.66666667 -1160.33333333 Z M 85.0 -384.0 L 88.3333333333 -389.333333333 L 92.1666666667 -392.166666667 L 96.5 -392.5 L 100.833333333 -392.833333333 L 105.333333333 -391.666666667 L 110.0 -389.0 L 114.666666667 -386.333333333 L 120.666666667 -383.166666667 L 128.0 -379.5 L 135.333333333 -375.833333333 L 144.666666667 -372.833333333 L 156.0 -370.5 L 167.333333333 -368.166666667 L 183.333333333 -367.0 L 204.0 -367.0 L 1228.0 -367.0 L 1246.66666667 -367.0 L 1263.66666667 -365.5 L 1279.0 -362.5 L 1294.33333333 -359.5 L 1308.33333333 -354.666666667 L 1321.0 -348.0 L 1333.66666667 -341.333333333 L 1343.5 -335.333333333 L 1350.5 -330.0 L 1357.5 -324.666666667 L 1367.0 -315.5 L 1379.0 -302.5 L 1391.0 -289.5 L 1401.5 -277.0 L 1410.5 -265.0 L 1419.5 -253.0 L 1421.33333333 -241.333333333 L 1416.0 -230.0 L 1410.66666667 -222.0 L 1404.5 -220.333333333 L 1397.5 -225.0 L 1390.5 -229.666666667 L 1382.33333333 -233.666666667 L 1373.0 -237.0 L 1363.66666667 -240.333333333 L 1353.5 -242.666666667 L 1342.5 -244.0 L 1331.5 -245.333333333 L 1314.33333333 -246.0 L 1291.0 -246.0 L 282.0 -246.0 L 266.666666667 -246.0 L 252.666666667 -247.0 L 240.0 -249.0 L 227.333333333 -251.0 L 217.5 -253.166666667 L 210.5 -255.5 L 203.5 -257.833333333 L 196.0 -261.0 L 188.0 -265.0 L 180.0 -269.0 L 171.5 -273.833333333 L 162.5 -279.5 L 153.5 -285.166666667 L 144.0 -293.166666667 L 134.0 -303.5 L 124.0 -313.833333333 L 113.833333333 -325.833333333 L 103.5 -339.5 L 93.1666666667 -353.166666667 L 86.6666666667 -362.666666667 L 84.0 -368.0 L 81.3333333333 -373.333333333 L 81.6666666667 -378.666666667 Z" fill="black" fill-opacity="0.25" stroke="black" stroke-width="4.0"/>
  <rect x="928.0" y="-1163.0" width="513.9999999999999" height="676.0" fill="none" stroke="red" stroke-width="10.0" /><rect x="81.0" y="-393.0" width="1340.0" height="173.00000000000003" fill="none" stroke="red" stroke-width="10.0" />
</svg>
