<svg xmlns="http://www.w3.org/2000/svg"
  viewBox="32.222 -712 1392.825 539.579">
  <rect x="32.222" y="-712" width="1392.825" height="539.579" fill="white"/>
  <path d="M 753 -660 L 775.667 -660 L 799.5 -659.833 L 824.5 -659.5 L 849.5 -659.167 L 872.333 -657.667 L 893 -655 L 907 -655 L 920.333 -638 L 933 -604 L 945.667 -570 L 963.333 -536 L 986 -502 L 994 -490 L 1001.333 -483.667 L 1008 -483 L 1014 -481.667 L 1018.667 -478.833 L 1022 -474.5 L 1025.333 -470.167 L 1022 -466.333 L 1012 -463 L 988.667 -459.667 L 965.333 -458.333 L 942 -459 L 918.667 -459.667 L 896.333 -461 L 875 -463 L 854.333 -469.667 L 839.667 -485.167 L 831 -509.5 L 822.333 -533.833 L 806.333 -569.667 L 783 -617 L 776.333 -627.667 L 765 -634.333 L 749 -637 L 738.333 -638.333 L 732.333 -642.5 L 731 -649.5 L 729.667 -656.5 L 737 -660 Z M 504 -662 L 524 -662 L 545 -661.667 L 567 -661 L 589 -660.333 L 608.667 -658.667 L 626 -656 L 638.667 -656 L 652 -638.5 L 666 -603.5 L 680 -568.5 L 696.333 -534.333 L 715 -501 L 721.667 -489 L 728 -482.333 L 734 -481 L 739.333 -479.667 L 743.5 -477 L 746.5 -473 L 749.5 -469 L 746.667 -465.333 L 738 -462 L 717.333 -458.667 L 696.833 -457.333 L 676.5 -458 L 656.167 -458.667 L 636.667 -460 L 618 -462 L 600.667 -468.667 L 587 -484.333 L 577 -509 L 567 -533.667 L 551.667 -570 L 531 -618 L 529 -620.667 L 525.333 -624.833 L 520 -630.5 L 514.667 -636.167 L 508.333 -639.667 L 501 -641 L 491.667 -642.333 L 486.333 -646 L 485 -652 L 483.667 -658 L 490 -661.333 Z M 85 -384 L 88.333 -389.333 L 92.167 -392.167 L 96.5 -392.5 L 100.833 -392.833 L 105.333 -391.667 L 110 -389 L 114.667 -386.333 L 120.667 -383.167 L 128 -379.5 L 135.333 -375.833 L 144.667 -372.833 L 156 -370.5 L 167.333 -368.167 L 183.333 -367 L 204 -367 L 1184 -367 L 1202.667 -367 L 1219.667 -365.5 L 1235 -362.5 L 1250.333 -359.5 L 1264.333 -354.667 L 1277 -348 L 1289.667 -341.333 L 1299.5 -335.333 L 1306.5 -330 L 1313.5 -324.667 L 1323.167 -315.5 L 1335.5 -302.5 L 1347.833 -289.5 L 1358.333 -277 L 1367 -265 L 1375.667 -253 L 1377.333 -241.333 L 1372 -230 L 1366.667 -222 L 1360.5 -220.333 L 1353.5 -225 L 1346.5 -229.667 L 1338.333 -233.667 L 1329 -237 L 1319.667 -240.333 L 1309.5 -242.667 L 1298.5 -244 L 1287.5 -245.333 L 1270.333 -246 L 1247 -246 L 282 -246 L 266.667 -246 L 252.667 -247 L 240 -249 L 227.333 -251 L 217.5 -253.167 L 210.5 -255.5 L 203.5 -257.833 L 196 -261 L 188 -265 L 180 -269 L 171.5 -273.833 L 162.5 -279.5 L 153.5 -285.167 L 144 -293.167 L 134 -303.5 L 124 -313.833 L 113.833 -325.833 L 103.5 -339.5 L 93.167 -353.167 L 86.667 -362.667 L 84 -368 L 81.333 -373.333 L 81.667 -378.667 Z" fill="black" fill-opacity="0.25" stroke="black" stroke-width="4"/>
  <rect x="730" y="-660" width="295" height="202" fill="none" stroke="red" stroke-width="10" /><rect x="484" y="-662" width="266" height="205" fill="none" stroke="red" stroke-width="10" /><rect x="81" y="-393" width="1296" height="173" fill="none" stroke="red" stroke-width="10" />
</svg>
