<svg xmlns="http://www.w3.org/2000/svg"
  viewBox="32.222 -833 1436.755 660.579">
  <rect x="32.222" y="-833" width="1436.755" height="660.579" fill="white"/>
  <path d="M 593 -783 L 615.667 -783 L 639.667 -782.833 L 665 -782.5 L 690.333 -782.167 L 713 -780.333 L 733 -777 L 747 -777 L 762.5 -749.5 L 779.5 -694.5 L 796.5 -639.5 L 816.667 -591 L 840 -549 L 848 -535 L 855.333 -527.333 L 862 -526 L 868 -524 L 872.5 -520.5 L 875.5 -515.5 L 878.5 -510.5 L 875.333 -506 L 866 -502 L 842.667 -498 L 819.167 -496.333 L 795.5 -497 L 771.833 -497.667 L 749.333 -499.333 L 728 -502 L 708 -510 L 691.5 -535.5 L 678.5 -578.5 L 665.5 -621.5 L 647.333 -672 L 624 -730 L 622 -733.333 L 617.833 -737.833 L 611.5 -743.5 L 605.167 -749.167 L 598 -753 L 590 -755 L 579.333 -757 L 573.167 -762.167 L 571.5 -770.5 L 569.833 -778.833 L 577 -783 Z M 85 -384 L 88.333 -389.333 L 92.167 -392.167 L 96.5 -392.5 L 100.833 -392.833 L 105.333 -391.667 L 110 -389 L 114.667 -386.333 L 120.667 -383.167 L 128 -379.5 L 135.333 -375.833 L 144.667 -372.833 L 156 -370.5 L 167.333 -368.167 L 183.333 -367 L 204 -367 L 1228 -367 L 1246.667 -367 L 1263.667 -365.5 L 1279 -362.5 L 1294.333 -359.5 L 1308.333 -354.667 L 1321 -348 L 1333.667 -341.333 L 1343.5 -335.333 L 1350.5 -330 L 1357.5 -324.667 L 1367 -315.5 L 1379 -302.5 L 1391 -289.5 L 1401.5 -277 L 1410.5 -265 L 1419.5 -253 L 1421.333 -241.333 L 1416 -230 L 1410.667 -222 L 1404.5 -220.333 L 1397.5 -225 L 1390.5 -229.667 L 1382.333 -233.667 L 1373 -237 L 1363.667 -240.333 L 1353.5 -242.667 L 1342.5 -244 L 1331.5 -245.333 L 1314.333 -246 L 1291 -246 L 282 -246 L 266.667 -246 L 252.667 -247 L 240 -249 L 227.333 -251 L 217.5 -253.167 L 210.5 -255.5 L 203.5 -257.833 L 196 -261 L 188 -265 L 180 -269 L 171.5 -273.833 L 162.5 -279.5 L 153.5 -285.167 L 144 -293.167 L 134 -303.5 L 124 -313.833 L 113.833 -325.833 L 103.5 -339.5 L 93.167 -353.167 L 86.667 -362.667 L 84 -368 L 81.333 -373.333 L 81.667 -378.667 Z" fill="black" fill-opacity="0.25" stroke="black" stroke-width="4"/>
  <rect x="570" y="-783" width="308" height="287" fill="none" stroke="red" stroke-width="10" /><rect x="81" y="-393" width="1340" height="173" fill="none" stroke="red" stroke-width="10" />
</svg>
