<svg xmlns="http://www.w3.org/2000/svg"
  viewBox="32.222222222237036 -916.5217391303931 1436.7545219623426 744.1006864992131">
  <rect x="32.222222222237036" y="-916.5217391303931" width="1436.7545219623426" height="744.1006864992131" fill="white"/>
  <path d="M 85.0 -384.0 L 88.3333333333 -389.333333333 L 92.1666666667 -392.166666667 L 96.5 -392.5 L 100.833333333 -392.833333333 L 105.333333333 -391.666666667 L 110.0 -389.0 L 114.666666667 -386.333333333 L 120.666666667 -383.166666667 L 128.0 -379.5 L 135.333333333 -375.833333333 L 144.666666667 -372.833333333 L 156.0 -370.5 L 167.333333333 -368.166666667 L 183.333333333 -367.0 L 204.0 -367.0 L 1228.0 -367.0 L 1246.66666667 -367.0 L 1263.66666667 -365.5 L 1279.0 -362.5 L 1294.33333333 -359.5 L 1308.33333333 -354.666666667 L 1321.0 -348.0 L 1333.66666667 -341.333333333 L 1343.5 -335.333333333 L 1350.5 -330.0 L 1357.5 -324.666666667 L 1367.0 -315.5 L 1379.0 -302.5 L 1391.0 -289.5 L 1401.5 -277.0 L 1410.5 -265.0 L 1419.5 -253.0 L 1421.33333333 -241.333333333 L 1416.0 -230.0 L 1410.66666667 -222.0 L 1404.5 -220.333333333 L 1397.5 -225.0 L 1390.5 -229.666666667 L 1382.33333333 -233.666666667 L 1373.0 -237.0 L 1363.66666667 -240.333333333 L 1353.5 -242.666666667 L 1342.5 -244.0 L 1331.5 -245.333333333 L 1314.33333333 -246.0 L 1291.0 -246.0 L 282.0 -246.0 L 266.666666667 -246.0 L 252.666666667 -247.0 L 240.0 -249.0 L 227.333333333 -251.0 L 217.5 -253.166666667 L 210.5 -255.5 L 203.5 -257.833333333 L 196.0 -261.0 L 188.0 -265.0 L 180.0 -269.0 L 171.5 -273.833333333 L 162.5 -279.5 L 153.5 -285.166666667 L 144.0 -293.166666667 L 134.0 -303.5 L 124.0 -313.833333333 L 113.833333333 -325.833333333 L 103.5 -339.5 L 93.1666666667 -353.166666667 L 86.6666666667 -362.666666667 L 84.0 -368.0 L 81.3333333333 -373.333333333 L 81.6666666667 -378.666666667 Z M 433.0 -502.0 L 407.666666667 -492.666666667 L 365.0 -493.0 L 305.0 -503.0 L 269.666666667 -511.666666667 L 238.333333333 -523.333333333 L 211.0 -538.0 L 183.666666667 -552.666666667 L 162.666666667 -578.666666667 L 148.0 -616.0 L 138.0 -651.333333333 L 134.833333333 -679.5 L 138.5 -700.5 L 142.166666667 -721.5 L 154.0 -745.666666667 L 174.0 -773.0 L 193.333333333 -796.333333333 L 215.833333333 -814.0 L 241.5 -826.0 L 267.166666667 -838.0 L 298.666666667 -848.0 L 336.0 -856.0 L 373.333333333 -863.333333333 L 403.666666667 -866.833333333 L 427.0 -866.5 L 450.333333333 -866.166666667 L 475.333333333 -865.666666667 L 502.0 -865.0 L 528.666666667 -863.666666667 L 553.5 -861.333333333 L 576.5 -858.0 L 599.5 -854.666666667 L 627.333333333 -848.0 L 660.0 -838.0 L 714.0 -823.333333333 L 767.333333333 -803.0 L 820.0 -777.0 L 849.333333333 -762.333333333 L 880.666666667 -746.5 L 914.0 -729.5 L 947.333333333 -712.5 L 984.333333333 -692.666666667 L 1025.0 -670.0 L 1043.66666667 -658.666666667 L 1064.0 -646.5 L 1086.0 -633.5 L 1108.0 -620.5 L 1132.0 -607.333333333 L 1158.0 -594.0 L 1177.33333333 -582.0 L 1196.33333333 -569.833333333 L 1215.0 -557.5 L 1233.66666667 -545.166666667 L 1241.5 -532.833333333 L 1238.5 -520.5 L 1235.5 -508.166666667 L 1228.33333333 -502.333333333 L 1217.0 -503.0 L 1205.66666667 -503.666666667 L 1170.0 -503.333333333 L 1110.0 -502.0 L 1050.0 -500.666666667 L 997.666666667 -500.666666667 L 953.0 -502.0 L 935.0 -515.333333333 L 935.166666667 -524.833333333 L 953.5 -530.5 L 971.833333333 -536.166666667 L 985.333333333 -543.333333333 L 994.0 -552.0 L 1010.66666667 -569.333333333 L 1018.16666667 -583.0 L 1016.5 -593.0 L 1014.83333333 -603.0 L 1012.16666667 -610.833333333 L 1008.5 -616.5 L 1004.83333333 -622.166666667 L 999.333333333 -628.333333333 L 992.0 -635.0 L 984.666666667 -641.666666667 L 966.5 -654.833333333 L 937.5 -674.5 L 908.5 -694.166666667 L 872.666666667 -715.333333333 L 830.0 -738.0 L 791.333333333 -754.666666667 L 761.0 -768.333333333 L 739.0 -779.0 L 717.0 -789.666666667 L 681.0 -801.666666667 L 631.0 -815.0 L 594.333333333 -822.333333333 L 557.0 -826.666666667 L 519.0 -828.0 L 481.0 -829.333333333 L 442.666666667 -823.666666667 L 404.0 -811.0 L 376.666666667 -799.0 L 357.333333333 -788.833333333 L 346.0 -780.5 L 334.666666667 -772.166666667 L 322.333333333 -757.666666667 L 309.0 -737.0 L 297.0 -717.0 L 290.0 -700.0 L 288.0 -686.0 L 286.0 -672.0 L 285.666666667 -655.666666667 L 287.0 -637.0 L 287.666666667 -618.333333333 L 289.833333333 -605.0 L 293.5 -597.0 L 297.166666667 -589.0 L 302.0 -580.666666667 L 308.0 -572.0 L 314.0 -563.333333333 L 321.5 -555.5 L 330.5 -548.5 L 339.5 -541.5 L 353.166666667 -536.5 L 371.5 -533.5 L 389.833333333 -530.5 L 408.333333333 -528.0 L 427.0 -526.0 L 435.0 -524.666666667 L 440.0 -521.5 L 442.0 -516.5 L 444.0 -511.5 L 441.0 -506.666666667 Z M 640.0 -449.0 L 634.0 -453.666666667 L 633.5 -458.333333333 L 638.5 -463.0 L 643.5 -467.666666667 L 650.333333333 -470.0 L 659.0 -470.0 L 667.666666667 -470.0 L 680.166666667 -478.0 L 696.5 -494.0 L 712.833333333 -510.0 L 723.666666667 -529.666666667 L 729.0 -553.0 L 737.666666667 -593.666666667 L 716.333333333 -627.0 L 665.0 -653.0 L 646.333333333 -662.333333333 L 622.333333333 -670.5 L 593.0 -677.5 L 563.666666667 -684.5 L 534.666666667 -690.833333333 L 506.0 -696.5 L 477.333333333 -702.166666667 L 452.0 -706.666666667 L 430.0 -710.0 L 408.0 -713.333333333 L 395.333333333 -716.0 L 392.0 -718.0 L 384.666666667 -720.666666667 L 381.833333333 -724.5 L 383.5 -729.5 L 385.166666667 -734.5 L 389.0 -737.0 L 395.0 -737.0 L 398.333333333 -737.0 L 410.666666667 -735.666666667 L 432.0 -733.0 L 453.333333333 -730.333333333 L 479.0 -726.666666667 L 509.0 -722.0 L 539.0 -717.333333333 L 570.666666667 -711.0 L 604.0 -703.0 L 637.333333333 -695.0 L 667.666666667 -686.0 L 695.0 -676.0 L 727.0 -662.666666667 L 752.666666667 -649.666666667 L 772.0 -637.0 L 791.333333333 -624.333333333 L 809.0 -607.333333333 L 825.0 -586.0 L 841.0 -564.0 L 847.833333333 -542.333333333 L 845.5 -521.0 L 843.166666667 -499.666666667 L 833.666666667 -483.0 L 817.0 -471.0 L 802.333333333 -459.666666667 L 785.5 -452.166666667 L 766.5 -448.5 L 747.5 -444.833333333 L 729.333333333 -443.0 L 712.0 -443.0 L 686.0 -443.0 L 686.0 -443.0 L 676.0 -443.0 L 669.333333333 -443.0 L 657.333333333 -445.0 Z" fill="black" fill-opacity="0.25" stroke="black" stroke-width="4.0"/>
  <rect x="81.0" y="-393.0" width="1340.0" height="173.00000000000003" fill="none" stroke="red" stroke-width="10.0" /><rect x="135.0" y="-867.0" width="1107.0" height="374.0" fill="none" stroke="red" stroke-width="10.0" /><rect x="382.0" y="-737.0" width="465.99999999999994" height="294.0" fill="none" stroke="red" stroke-width="10.0" />
</svg>
