<svg xmlns="http://www.w3.org/2000/svg"
  viewBox="32.981981981909826 -883.4705882351142 1885.0656370651477 711.0495356039341">
  <rect x="32.981981981909826" y="-883.4705882351142" width="1885.0656370651477" height="711.0495356039341" fill="white"/>
  <path d="M 1236.0 -671.0 L 1256.0 -671.0 L 1277.0 -670.666666667 L 1299.0 -670.0 L 1321.0 -669.333333333 L 1340.66666667 -667.333333333 L 1358.0 -664.0 L 1370.66666667 -664.0 L 1385.0 -647.0 L 1401.0 -613.0 L 1417.0 -579.0 L 1434.66666667 -541.666666667 L 1454.0 -501.0 L 1459.33333333 -487.0 L 1465.66666667 -479.0 L 1473.0 -477.0 L 1477.66666667 -475.0 L 1481.5 -471.5 L 1484.5 -466.5 L 1487.5 -461.5 L 1484.66666667 -457.0 L 1476.0 -453.0 L 1456.0 -449.0 L 1435.5 -447.333333333 L 1414.5 -448.0 L 1393.5 -448.666666667 L 1373.66666667 -450.333333333 L 1355.0 -453.0 L 1337.66666667 -461.0 L 1323.0 -476.0 L 1311.0 -498.0 L 1299.0 -520.0 L 1282.66666667 -559.666666667 L 1262.0 -617.0 L 1260.0 -620.333333333 L 1256.33333333 -625.5 L 1251.0 -632.5 L 1245.66666667 -639.5 L 1239.33333333 -643.666666667 L 1232.0 -645.0 L 1222.66666667 -646.333333333 L 1217.5 -651.0 L 1216.5 -659.0 L 1215.5 -667.0 L 1222.0 -671.0 Z M 1506.0 -671.0 L 1526.0 -671.0 L 1547.0 -670.666666667 L 1569.0 -670.0 L 1591.0 -669.333333333 L 1610.66666667 -667.333333333 L 1628.0 -664.0 L 1640.66666667 -664.0 L 1655.0 -647.0 L 1671.0 -613.0 L 1687.0 -579.0 L 1704.66666667 -541.666666667 L 1724.0 -501.0 L 1730.0 -487.0 L 1736.33333333 -479.0 L 1743.0 -477.0 L 1748.33333333 -475.0 L 1752.33333333 -471.5 L 1755.0 -466.5 L 1757.66666667 -461.5 L 1755.0 -457.0 L 1747.0 -453.0 L 1726.33333333 -449.0 L 1705.66666667 -447.333333333 L 1685.0 -448.0 L 1664.33333333 -448.666666667 L 1644.33333333 -450.333333333 L 1625.0 -453.0 L 1607.66666667 -461.0 L 1593.0 -476.0 L 1581.0 -498.0 L 1569.0 -520.0 L 1553.0 -559.666666667 L 1533.0 -617.0 L 1531.0 -620.333333333 L 1527.16666667 -625.5 L 1521.5 -632.5 L 1515.83333333 -639.5 L 1509.66666667 -643.666666667 L 1503.0 -645.0 L 1493.66666667 -646.333333333 L 1488.33333333 -651.0 L 1487.0 -659.0 L 1485.66666667 -667.0 L 1492.0 -671.0 Z M 172.5 -384.0 L 176.166666667 -389.333333333 L 180.0 -392.166666667 L 184.0 -392.5 L 188.0 -392.833333333 L 192.5 -391.666666667 L 197.5 -389.0 L 202.5 -386.333333333 L 208.666666667 -383.166666667 L 216.0 -379.5 L 223.333333333 -375.833333333 L 232.666666667 -372.833333333 L 244.0 -370.5 L 255.333333333 -368.166666667 L 271.333333333 -367.0 L 292.0 -367.0 L 1677.0 -367.0 L 1695.66666667 -367.0 L 1712.66666667 -365.5 L 1728.0 -362.5 L 1743.33333333 -359.5 L 1757.33333333 -354.666666667 L 1770.0 -348.0 L 1782.66666667 -341.333333333 L 1792.5 -335.333333333 L 1799.5 -330.0 L 1806.5 -324.666666667 L 1816.16666667 -315.5 L 1828.5 -302.5 L 1840.83333333 -289.5 L 1851.33333333 -277.0 L 1860.0 -265.0 L 1868.66666667 -253.0 L 1870.33333333 -241.333333333 L 1865.0 -230.0 L 1859.66666667 -222.0 L 1853.5 -220.333333333 L 1846.5 -225.0 L 1839.5 -229.666666667 L 1831.33333333 -233.666666667 L 1822.0 -237.0 L 1812.66666667 -240.333333333 L 1802.5 -242.666666667 L 1791.5 -244.0 L 1780.5 -245.333333333 L 1763.33333333 -246.0 L 1740.0 -246.0 L 370.0 -246.0 L 354.666666667 -246.0 L 340.666666667 -247.0 L 328.0 -249.0 L 315.333333333 -251.0 L 305.5 -253.166666667 L 298.5 -255.5 L 291.5 -257.833333333 L 284.0 -261.0 L 276.0 -265.0 L 268.0 -269.0 L 259.5 -273.833333333 L 250.5 -279.5 L 241.5 -285.166666667 L 232.0 -293.166666667 L 222.0 -303.5 L 212.0 -313.833333333 L 201.833333333 -325.833333333 L 191.5 -339.5 L 181.166666667 -353.166666667 L 174.5 -362.666666667 L 171.5 -368.0 L 168.5 -373.333333333 L 168.833333333 -378.666666667 Z M 109.0 -662.0 L 83.6666666667 -708.0 L 76.8333333333 -747.333333333 L 88.5 -780.0 L 100.166666667 -812.666666667 L 121.0 -830.333333333 L 151.0 -833.0 L 170.333333333 -834.333333333 L 185.166666667 -832.833333333 L 195.5 -828.5 L 205.833333333 -824.166666667 L 215.0 -819.833333333 L 223.0 -815.5 L 231.0 -811.166666667 L 238.5 -806.5 L 245.5 -801.5 L 252.5 -796.5 L 259.0 -791.333333333 L 265.0 -786.0 L 271.0 -780.666666667 L 275.333333333 -775.833333333 L 278.0 -771.5 L 280.666666667 -767.166666667 L 281.833333333 -763.166666667 L 281.5 -759.5 L 281.166666667 -755.833333333 L 279.666666667 -753.166666667 L 277.0 -751.5 L 274.333333333 -749.833333333 L 267.166666667 -746.833333333 L 255.5 -742.5 L 243.833333333 -738.166666667 L 228.833333333 -730.666666667 L 210.5 -720.0 L 192.166666667 -709.333333333 L 183.333333333 -692.0 L 184.0 -668.0 L 184.0 -642.666666667 L 210.333333333 -618.833333333 L 263.0 -596.5 L 315.666666667 -574.166666667 L 394.0 -565.0 L 498.0 -569.0 L 944.0 -593.0 L 966.0 -593.0 L 983.5 -591.5 L 996.5 -588.5 L 1009.5 -585.5 L 1021.33333333 -581.666666667 L 1032.0 -577.0 L 1042.66666667 -572.333333333 L 1051.66666667 -567.666666667 L 1059.0 -563.0 L 1066.33333333 -558.333333333 L 1075.16666667 -551.666666667 L 1085.5 -543.0 L 1095.83333333 -534.333333333 L 1107.5 -523.0 L 1120.5 -509.0 L 1133.5 -495.0 L 1142.0 -484.666666667 L 1146.0 -478.0 L 1150.0 -471.333333333 L 1152.0 -464.833333333 L 1152.0 -458.5 L 1152.0 -452.166666667 L 1150.0 -448.0 L 1146.0 -446.0 L 1142.0 -444.0 L 1137.5 -443.0 L 1132.5 -443.0 L 1127.5 -443.0 L 1122.33333333 -444.0 L 1117.0 -446.0 L 1111.66666667 -448.0 L 1105.16666667 -450.166666667 L 1097.5 -452.5 L 1089.83333333 -454.833333333 L 1081.33333333 -457.5 L 1072.0 -460.5 L 1062.66666667 -463.5 L 1054.0 -465.666666667 L 1046.0 -467.0 L 1038.0 -468.333333333 L 1027.33333333 -469.333333333 L 1014.0 -470.0 L 955.0 -475.0 L 861.0 -471.666666667 L 780.166666667 -472.666666667 L 712.5 -478.0 L 644.833333333 -483.333333333 L 581.166666667 -490.0 L 521.5 -498.0 L 461.833333333 -506.0 L 409.166666667 -514.666666667 L 363.5 -524.0 L 317.833333333 -533.333333333 L 286.666666667 -541.0 L 270.0 -547.0 L 241.333333333 -559.0 L 215.833333333 -570.833333333 L 193.5 -582.5 L 171.166666667 -594.166666667 L 143.0 -620.666666667 Z" fill="black" fill-opacity="0.25" stroke="black" stroke-width="4.0"/>
  <rect x="1216.0" y="-671.0" width="272.0" height="224.00000000000003" fill="none" stroke="red" stroke-width="10.0" /><rect x="1486.0" y="-671.0" width="272.0" height="224.00000000000003" fill="none" stroke="red" stroke-width="10.0" /><rect x="169.0" y="-393.0" width="1701.0" height="173.00000000000003" fill="none" stroke="red" stroke-width="10.0" /><rect x="77.0" y="-834.0" width="1075.0" height="390.99999999999994" fill="none" stroke="red" stroke-width="10.0" />
</svg>
