<svg xmlns="http://www.w3.org/2000/svg"
  viewBox="18.73437500002302 -985.9090909091652 1923.715625002252 813.4880382779852">
  <rect x="18.73437500002302" y="-985.9090909091652" width="1923.715625002252" height="813.4880382779852" fill="white"/>
  <path d="M 899.0 -530.0 L 908.0 -492.0 L 908.0 -489.333333333 L 911.5 -482.833333333 L 918.5 -472.5 L 925.5 -462.166666667 L 929.0 -455.666666667 L 929.0 -453.0 L 929.0 -450.333333333 L 923.5 -448.0 L 912.5 -446.0 L 901.5 -444.0 L 894.0 -443.0 L 890.0 -443.0 L 829.0 -443.0 L 821.0 -443.0 L 813.5 -448.666666667 L 806.5 -460.0 L 799.5 -471.333333333 L 795.0 -482.0 L 793.0 -492.0 L 785.0 -531.0 L 707.0 -531.0 L 635.333333333 -534.0 L 570.0 -540.0 L 504.666666667 -546.0 L 458.333333333 -551.333333333 L 431.0 -556.0 L 380.333333333 -564.0 L 338.5 -578.0 L 305.5 -598.0 L 272.5 -618.0 L 250.666666667 -640.666666667 L 240.0 -666.0 L 234.666666667 -678.666666667 L 225.0 -697.5 L 211.0 -722.5 L 197.0 -747.5 L 182.333333333 -772.666666667 L 167.0 -798.0 L 151.666666667 -823.333333333 L 137.166666667 -846.0 L 123.5 -866.0 L 109.833333333 -886.0 L 100.333333333 -897.333333333 L 95.0 -900.0 L 67.6666666667 -909.333333333 L 61.6666666667 -919.333333333 L 77.0 -930.0 L 110.333333333 -932.666666667 L 142.333333333 -934.5 L 173.0 -935.5 L 203.666666667 -936.5 L 235.0 -935.666666667 L 267.0 -933.0 L 299.0 -931.0 L 321.833333333 -912.666666667 L 335.5 -878.0 L 349.166666667 -843.333333333 L 363.0 -798.0 L 377.0 -742.0 L 391.0 -686.0 L 408.166666667 -647.833333333 L 428.5 -627.5 L 448.833333333 -607.166666667 L 484.0 -590.333333333 L 534.0 -577.0 L 562.0 -569.0 L 596.0 -564.0 L 636.0 -562.0 L 676.0 -560.0 L 724.333333333 -559.333333333 L 781.0 -560.0 L 769.0 -629.0 L 768.333333333 -632.333333333 L 765.0 -636.833333333 L 759.0 -642.5 L 753.0 -648.166666667 L 750.0 -652.333333333 L 750.0 -655.0 L 750.0 -659.0 L 755.333333333 -661.666666667 L 766.0 -663.0 L 776.666666667 -664.333333333 L 784.333333333 -665.0 L 789.0 -665.0 L 850.0 -665.0 L 857.333333333 -665.0 L 864.5 -659.833333333 L 871.5 -649.5 L 878.5 -639.166666667 L 883.333333333 -628.0 L 886.0 -616.0 L 896.0 -561.0 L 940.666666667 -561.666666667 L 971.0 -563.166666667 L 987.0 -565.5 L 1003.0 -567.833333333 L 1020.66666667 -570.333333333 L 1040.0 -573.0 L 1047.33333333 -572.333333333 L 1051.66666667 -569.0 L 1053.0 -563.0 L 1054.33333333 -557.0 L 1052.66666667 -551.666666667 L 1048.0 -547.0 L 1041.33333333 -541.666666667 L 1027.66666667 -537.5 L 1007.0 -534.5 L 986.333333333 -531.5 L 950.333333333 -530.0 Z M 1506.0 -671.0 L 1526.0 -671.0 L 1547.0 -670.666666667 L 1569.0 -670.0 L 1591.0 -669.333333333 L 1610.66666667 -667.333333333 L 1628.0 -664.0 L 1640.66666667 -664.0 L 1655.0 -647.0 L 1671.0 -613.0 L 1687.0 -579.0 L 1704.66666667 -541.666666667 L 1724.0 -501.0 L 1730.0 -487.0 L 1736.33333333 -479.0 L 1743.0 -477.0 L 1748.33333333 -475.0 L 1752.33333333 -471.5 L 1755.0 -466.5 L 1757.66666667 -461.5 L 1755.0 -457.0 L 1747.0 -453.0 L 1726.33333333 -449.0 L 1705.66666667 -447.333333333 L 1685.0 -448.0 L 1664.33333333 -448.666666667 L 1644.33333333 -450.333333333 L 1625.0 -453.0 L 1607.66666667 -461.0 L 1593.0 -476.0 L 1581.0 -498.0 L 1569.0 -520.0 L 1553.0 -559.666666667 L 1533.0 -617.0 L 1531.0 -620.333333333 L 1527.16666667 -625.5 L 1521.5 -632.5 L 1515.83333333 -639.5 L 1509.66666667 -643.666666667 L 1503.0 -645.0 L 1493.66666667 -646.333333333 L 1488.33333333 -651.0 L 1487.0 -659.0 L 1485.66666667 -667.0 L 1492.0 -671.0 Z M 1236.0 -671.0 L 1256.0 -671.0 L 1277.0 -670.666666667 L 1299.0 -670.0 L 1321.0 -669.333333333 L 1340.66666667 -667.333333333 L 1358.0 -664.0 L 1370.66666667 -664.0 L 1385.0 -647.0 L 1401.0 -613.0 L 1417.0 -579.0 L 1434.66666667 -541.666666667 L 1454.0 -501.0 L 1459.33333333 -487.0 L 1465.66666667 -479.0 L 1473.0 -477.0 L 1477.66666667 -475.0 L 1481.5 -471.5 L 1484.5 -466.5 L 1487.5 -461.5 L 1484.66666667 -457.0 L 1476.0 -453.0 L 1456.0 -449.0 L 1435.5 -447.333333333 L 1414.5 -448.0 L 1393.5 -448.666666667 L 1373.66666667 -450.333333333 L 1355.0 -453.0 L 1337.66666667 -461.0 L 1323.0 -476.0 L 1311.0 -498.0 L 1299.0 -520.0 L 1282.66666667 -559.666666667 L 1262.0 -617.0 L 1260.0 -620.333333333 L 1256.33333333 -625.5 L 1251.0 -632.5 L 1245.66666667 -639.5 L 1239.33333333 -643.666666667 L 1232.0 -645.0 L 1222.66666667 -646.333333333 L 1217.5 -651.0 L 1216.5 -659.0 L 1215.5 -667.0 L 1222.0 -671.0 Z M 172.5 -384.0 L 176.166666667 -389.333333333 L 180.0 -392.166666667 L 184.0 -392.5 L 188.0 -392.833333333 L 192.5 -391.666666667 L 197.5 -389.0 L 202.5 -386.333333333 L 208.666666667 -383.166666667 L 216.0 -379.5 L 223.333333333 -375.833333333 L 232.666666667 -372.833333333 L 244.0 -370.5 L 255.333333333 -368.166666667 L 271.333333333 -367.0 L 292.0 -367.0 L 1701.0 -367.0 L 1719.66666667 -367.0 L 1736.66666667 -365.5 L 1752.0 -362.5 L 1767.33333333 -359.5 L 1781.33333333 -354.666666667 L 1794.0 -348.0 L 1806.66666667 -341.333333333 L 1816.5 -335.333333333 L 1823.5 -330.0 L 1830.5 -324.666666667 L 1840.16666667 -315.5 L 1852.5 -302.5 L 1864.83333333 -289.5 L 1875.33333333 -277.0 L 1884.0 -265.0 L 1892.66666667 -253.0 L 1894.66666667 -241.333333333 L 1890.0 -230.0 L 1884.66666667 -222.0 L 1878.5 -220.333333333 L 1871.5 -225.0 L 1864.5 -229.666666667 L 1856.33333333 -233.666666667 L 1847.0 -237.0 L 1837.66666667 -240.333333333 L 1827.33333333 -242.666666667 L 1816.0 -244.0 L 1804.66666667 -245.333333333 L 1787.66666667 -246.0 L 1765.0 -246.0 L 370.0 -246.0 L 354.666666667 -246.0 L 340.666666667 -247.0 L 328.0 -249.0 L 315.333333333 -251.0 L 305.5 -253.166666667 L 298.5 -255.5 L 291.5 -257.833333333 L 284.0 -261.0 L 276.0 -265.0 L 268.0 -269.0 L 259.5 -273.833333333 L 250.5 -279.5 L 241.5 -285.166666667 L 232.0 -293.166666667 L 222.0 -303.5 L 212.0 -313.833333333 L 201.833333333 -325.833333333 L 191.5 -339.5 L 181.166666667 -353.166666667 L 174.5 -362.666666667 L 171.5 -368.0 L 168.5 -373.333333333 L 168.833333333 -378.666666667 Z" fill="black" fill-opacity="0.25" stroke="black" stroke-width="4.0"/>
  <rect x="62.0" y="-936.0" width="992.0" height="493.00000000000006" fill="none" stroke="red" stroke-width="10.0" /><rect x="1486.0" y="-671.0" width="272.0" height="224.00000000000003" fill="none" stroke="red" stroke-width="10.0" /><rect x="1216.0" y="-671.0" width="272.0" height="224.00000000000003" fill="none" stroke="red" stroke-width="10.0" /><rect x="169.0" y="-393.0" width="1726.0" height="173.00000000000003" fill="none" stroke="red" stroke-width="10.0" />
</svg>
