<svg xmlns="http://www.w3.org/2000/svg"
  viewBox="32.222222222237036 -442.5555555554815 1436.7545219623426 513.7222222222731">
  <rect x="32.222222222237036" y="-442.5555555554815" width="1436.7545219623426" height="513.7222222222731" fill="white"/>
  <path d="M 863.0 -180.0 L 885.666666667 -180.0 L 909.666666667 -179.833333333 L 935.0 -179.5 L 960.333333333 -179.166666667 L 983.0 -177.666666667 L 1003.0 -175.0 L 1017.0 -175.0 L 1030.33333333 -158.0 L 1043.0 -124.0 L 1055.66666667 -90.0 L 1073.66666667 -56.0 L 1097.0 -22.0 L 1105.0 -10.0 L 1112.33333333 -3.33333333333 L 1119.0 -2.0 L 1125.0 -0.666666666667 L 1129.66666667 2.0 L 1133.0 6.0 L 1136.33333333 10.0 L 1133.0 13.6666666667 L 1123.0 17.0 L 1099.66666667 20.3333333333 L 1076.16666667 21.6666666667 L 1052.5 21.0 L 1028.83333333 20.3333333333 L 1006.33333333 19.0 L 985.0 17.0 L 965.0 10.3333333333 L 950.666666667 -5.16666666667 L 942.0 -29.5 L 933.333333333 -53.8333333333 L 917.333333333 -89.6666666667 L 894.0 -137.0 L 886.666666667 -148.333333333 L 875.333333333 -155.0 L 860.0 -157.0 L 849.333333333 -158.333333333 L 843.166666667 -162.5 L 841.5 -169.5 L 839.833333333 -176.5 L 847.0 -180.0 Z M 85.0 -384.0 L 88.3333333333 -389.333333333 L 92.1666666667 -392.166666667 L 96.5 -392.5 L 100.833333333 -392.833333333 L 105.333333333 -391.666666667 L 110.0 -389.0 L 114.666666667 -386.333333333 L 120.666666667 -383.166666667 L 128.0 -379.5 L 135.333333333 -375.833333333 L 144.666666667 -372.833333333 L 156.0 -370.5 L 167.333333333 -368.166666667 L 183.333333333 -367.0 L 204.0 -367.0 L 1228.0 -367.0 L 1246.66666667 -367.0 L 1263.66666667 -365.5 L 1279.0 -362.5 L 1294.33333333 -359.5 L 1308.33333333 -354.666666667 L 1321.0 -348.0 L 1333.66666667 -341.333333333 L 1343.5 -335.333333333 L 1350.5 -330.0 L 1357.5 -324.666666667 L 1367.0 -315.5 L 1379.0 -302.5 L 1391.0 -289.5 L 1401.5 -277.0 L 1410.5 -265.0 L 1419.5 -253.0 L 1421.33333333 -241.333333333 L 1416.0 -230.0 L 1410.66666667 -222.0 L 1404.5 -220.333333333 L 1397.5 -225.0 L 1390.5 -229.666666667 L 1382.33333333 -233.666666667 L 1373.0 -237.0 L 1363.66666667 -240.333333333 L 1353.5 -242.666666667 L 1342.5 -244.0 L 1331.5 -245.333333333 L 1314.33333333 -246.0 L 1291.0 -246.0 L 282.0 -246.0 L 266.666666667 -246.0 L 252.666666667 -247.0 L 240.0 -249.0 L 227.333333333 -251.0 L 217.5 -253.166666667 L 210.5 -255.5 L 203.5 -257.833333333 L 196.0 -261.0 L 188.0 -265.0 L 180.0 -269.0 L 171.5 -273.833333333 L 162.5 -279.5 L 153.5 -285.166666667 L 144.0 -293.166666667 L 134.0 -303.5 L 124.0 -313.833333333 L 113.833333333 -325.833333333 L 103.5 -339.5 L 93.1666666667 -353.166666667 L 86.6666666667 -362.666666667 L 84.0 -368.0 L 81.3333333333 -373.333333333 L 81.6666666667 -378.666666667 Z" fill="black" fill-opacity="0.25" stroke="black" stroke-width="4.0"/>
  <rect x="840.0" y="-180.0" width="295.99999999999994" height="201.99999999999997" fill="none" stroke="red" stroke-width="10.0" /><rect x="81.0" y="-393.0" width="1340.0" height="173.00000000000003" fill="none" stroke="red" stroke-width="10.0" />
</svg>
