<svg xmlns="http://www.w3.org/2000/svg"
  viewBox="28.750000000056247 -901.5217391303931 1992.2267441845233 729.1006864992131">
  <rect x="28.750000000056247" y="-901.5217391303931" width="1992.2267441845233" height="729.1006864992131" fill="white"/>
  <path d="M 1321.0 -671.0 L 1341.0 -671.0 L 1362.0 -670.666666667 L 1384.0 -670.0 L 1406.0 -669.333333333 L 1425.66666667 -667.333333333 L 1443.0 -664.0 L 1455.66666667 -664.0 L 1470.0 -647.0 L 1486.0 -613.0 L 1502.0 -579.0 L 1519.33333333 -541.666666667 L 1538.0 -501.0 L 1544.0 -487.0 L 1550.33333333 -479.0 L 1557.0 -477.0 L 1562.33333333 -475.0 L 1566.5 -471.5 L 1569.5 -466.5 L 1572.5 -461.5 L 1569.66666667 -457.0 L 1561.0 -453.0 L 1540.33333333 -449.0 L 1519.66666667 -447.333333333 L 1499.0 -448.0 L 1478.33333333 -448.666666667 L 1458.66666667 -450.333333333 L 1440.0 -453.0 L 1422.0 -461.0 L 1407.16666667 -476.0 L 1395.5 -498.0 L 1383.83333333 -520.0 L 1367.66666667 -559.666666667 L 1347.0 -617.0 L 1345.0 -620.333333333 L 1341.33333333 -625.5 L 1336.0 -632.5 L 1330.66666667 -639.5 L 1324.33333333 -643.666666667 L 1317.0 -645.0 L 1307.66666667 -646.333333333 L 1302.5 -651.0 L 1301.5 -659.0 L 1300.5 -667.0 L 1307.0 -671.0 Z M 1591.0 -671.0 L 1611.0 -671.0 L 1632.0 -670.666666667 L 1654.0 -670.0 L 1676.0 -669.333333333 L 1695.66666667 -667.333333333 L 1713.0 -664.0 L 1725.66666667 -664.0 L 1740.0 -647.0 L 1756.0 -613.0 L 1772.0 -579.0 L 1789.66666667 -541.666666667 L 1809.0 -501.0 L 1815.0 -487.0 L 1821.33333333 -479.0 L 1828.0 -477.0 L 1832.66666667 -475.0 L 1836.5 -471.5 L 1839.5 -466.5 L 1842.5 -461.5 L 1839.66666667 -457.0 L 1831.0 -453.0 L 1811.0 -449.0 L 1790.5 -447.333333333 L 1769.5 -448.0 L 1748.5 -448.666666667 L 1728.66666667 -450.333333333 L 1710.0 -453.0 L 1692.66666667 -461.0 L 1678.0 -476.0 L 1666.0 -498.0 L 1654.0 -520.0 L 1637.66666667 -559.666666667 L 1617.0 -617.0 L 1615.66666667 -620.333333333 L 1612.16666667 -625.5 L 1606.5 -632.5 L 1600.83333333 -639.5 L 1594.66666667 -643.666666667 L 1588.0 -645.0 L 1578.66666667 -646.333333333 L 1573.33333333 -651.0 L 1572.0 -659.0 L 1570.66666667 -667.0 L 1577.0 -671.0 Z M 168.0 -384.0 L 171.333333333 -389.333333333 L 175.166666667 -392.166666667 L 179.5 -392.5 L 183.833333333 -392.833333333 L 188.333333333 -391.666666667 L 193.0 -389.0 L 197.666666667 -386.333333333 L 203.666666667 -383.166666667 L 211.0 -379.5 L 218.333333333 -375.833333333 L 227.666666667 -372.833333333 L 239.0 -370.5 L 250.333333333 -368.166666667 L 266.333333333 -367.0 L 287.0 -367.0 L 1779.0 -367.0 L 1797.66666667 -367.0 L 1814.83333333 -365.5 L 1830.5 -362.5 L 1846.16666667 -359.5 L 1860.33333333 -354.666666667 L 1873.0 -348.0 L 1885.66666667 -341.333333333 L 1895.5 -335.333333333 L 1902.5 -330.0 L 1909.5 -324.666666667 L 1919.0 -315.5 L 1931.0 -302.5 L 1943.0 -289.5 L 1953.5 -277.0 L 1962.5 -265.0 L 1971.5 -253.0 L 1973.33333333 -241.333333333 L 1968.0 -230.0 L 1962.66666667 -222.0 L 1956.5 -220.333333333 L 1949.5 -225.0 L 1942.5 -229.666666667 L 1934.33333333 -233.666666667 L 1925.0 -237.0 L 1915.66666667 -240.333333333 L 1905.33333333 -242.666666667 L 1894.0 -244.0 L 1882.66666667 -245.333333333 L 1865.66666667 -246.0 L 1843.0 -246.0 L 365.0 -246.0 L 349.666666667 -246.0 L 335.666666667 -247.0 L 323.0 -249.0 L 310.333333333 -251.0 L 300.5 -253.166666667 L 293.5 -255.5 L 286.5 -257.833333333 L 279.0 -261.0 L 271.0 -265.0 L 263.0 -269.0 L 254.5 -273.833333333 L 245.5 -279.5 L 236.5 -285.166666667 L 227.0 -293.166666667 L 217.0 -303.5 L 207.0 -313.833333333 L 196.833333333 -325.833333333 L 186.5 -339.5 L 176.166666667 -353.166666667 L 169.666666667 -362.666666667 L 167.0 -368.0 L 164.333333333 -373.333333333 L 164.666666667 -378.666666667 Z M 375.0 -487.0 L 349.666666667 -477.666666667 L 306.666666667 -478.333333333 L 246.0 -489.0 L 210.666666667 -497.666666667 L 179.5 -509.333333333 L 152.5 -524.0 L 125.5 -538.666666667 L 104.666666667 -564.333333333 L 90.0 -601.0 L 80.0 -636.333333333 L 76.6666666667 -664.5 L 80.0 -685.5 L 83.3333333333 -706.5 L 95.0 -731.0 L 115.0 -759.0 L 134.333333333 -782.333333333 L 156.833333333 -799.833333333 L 182.5 -811.5 L 208.166666667 -823.166666667 L 239.666666667 -833.0 L 277.0 -841.0 L 314.333333333 -848.333333333 L 344.666666667 -851.833333333 L 368.0 -851.5 L 391.333333333 -851.166666667 L 416.666666667 -850.666666667 L 444.0 -850.0 L 470.666666667 -848.666666667 L 495.5 -846.5 L 518.5 -843.5 L 541.5 -840.5 L 569.333333333 -834.0 L 602.0 -824.0 L 656.0 -809.333333333 L 709.333333333 -788.666666667 L 762.0 -762.0 L 791.333333333 -747.333333333 L 822.5 -731.666666667 L 855.5 -715.0 L 888.5 -698.333333333 L 925.333333333 -678.333333333 L 966.0 -655.0 L 984.666666667 -643.666666667 L 1005.16666667 -631.5 L 1027.5 -618.5 L 1049.83333333 -605.5 L 1073.66666667 -592.333333333 L 1099.0 -579.0 L 1118.33333333 -567.0 L 1137.5 -555.0 L 1156.5 -543.0 L 1175.5 -531.0 L 1183.5 -518.833333333 L 1180.5 -506.5 L 1177.5 -494.166666667 L 1170.33333333 -488.333333333 L 1159.0 -489.0 L 1147.66666667 -489.666666667 L 1111.83333333 -489.333333333 L 1051.5 -488.0 L 991.166666667 -486.666666667 L 938.666666667 -486.333333333 L 894.0 -487.0 L 876.0 -500.333333333 L 876.166666667 -509.833333333 L 894.5 -515.5 L 912.833333333 -521.166666667 L 926.666666667 -528.333333333 L 936.0 -537.0 L 952.666666667 -554.333333333 L 960.0 -568.166666667 L 958.0 -578.5 L 956.0 -588.833333333 L 953.166666667 -596.833333333 L 949.5 -602.5 L 945.833333333 -608.166666667 L 940.333333333 -614.166666667 L 933.0 -620.5 L 925.666666667 -626.833333333 L 907.5 -640.0 L 878.5 -660.0 L 849.5 -680.0 L 813.666666667 -701.0 L 771.0 -723.0 L 732.333333333 -739.666666667 L 702.0 -753.333333333 L 680.0 -764.0 L 658.0 -774.666666667 L 622.333333333 -786.666666667 L 573.0 -800.0 L 536.333333333 -807.333333333 L 499.0 -811.833333333 L 461.0 -813.5 L 423.0 -815.166666667 L 384.333333333 -809.666666667 L 345.0 -797.0 L 317.666666667 -785.0 L 298.5 -774.666666667 L 287.5 -766.0 L 276.5 -757.333333333 L 264.0 -742.666666667 L 250.0 -722.0 L 238.0 -702.0 L 231.166666667 -685.0 L 229.5 -671.0 L 227.833333333 -657.0 L 227.666666667 -641.0 L 229.0 -623.0 L 229.666666667 -604.333333333 L 231.833333333 -590.833333333 L 235.5 -582.5 L 239.166666667 -574.166666667 L 243.833333333 -565.666666667 L 249.5 -557.0 L 255.166666667 -548.333333333 L 262.5 -540.5 L 271.5 -533.5 L 280.5 -526.5 L 294.333333333 -521.5 L 313.0 -518.5 L 331.666666667 -515.5 L 350.0 -513.333333333 L 368.0 -512.0 L 376.0 -510.666666667 L 381.166666667 -507.333333333 L 383.5 -502.0 L 385.833333333 -496.666666667 L 383.0 -491.666666667 Z M 581.0 -426.0 L 574.333333333 -431.333333333 L 573.833333333 -436.333333333 L 579.5 -441.0 L 585.166666667 -445.666666667 L 592.666666667 -448.0 L 602.0 -448.0 L 612.0 -448.0 L 625.666666667 -456.666666667 L 643.0 -474.0 L 660.333333333 -491.333333333 L 672.0 -513.333333333 L 678.0 -540.0 L 687.333333333 -584.0 L 664.333333333 -620.0 L 609.0 -648.0 L 587.666666667 -658.0 L 561.0 -667.0 L 529.0 -675.0 L 497.0 -683.0 L 465.333333333 -690.166666667 L 434.0 -696.5 L 402.666666667 -702.833333333 L 375.0 -707.833333333 L 351.0 -711.5 L 327.0 -715.166666667 L 313.0 -718.0 L 309.0 -720.0 L 300.333333333 -723.333333333 L 297.0 -727.666666667 L 299.0 -733.0 L 301.0 -738.333333333 L 305.333333333 -741.0 L 312.0 -741.0 L 315.333333333 -741.0 L 328.833333333 -739.666666667 L 352.5 -737.0 L 376.166666667 -734.333333333 L 404.5 -730.166666667 L 437.5 -724.5 L 470.5 -718.833333333 L 505.166666667 -711.833333333 L 541.5 -703.5 L 577.833333333 -695.166666667 L 611.0 -685.0 L 641.0 -673.0 L 676.333333333 -659.0 L 704.666666667 -645.0 L 726.0 -631.0 L 747.333333333 -617.0 L 766.666666667 -598.333333333 L 784.0 -575.0 L 801.333333333 -551.0 L 808.666666667 -527.333333333 L 806.0 -504.0 L 803.333333333 -480.666666667 L 793.333333333 -462.333333333 L 776.0 -449.0 L 760.0 -437.0 L 741.333333333 -429.0 L 720.0 -425.0 L 698.666666667 -421.0 L 678.666666667 -419.0 L 660.0 -419.0 L 641.333333333 -419.0 L 628.166666667 -419.166666667 L 620.5 -419.5 L 612.833333333 -419.833333333 L 599.666666667 -422.0 Z" fill="black" fill-opacity="0.25" stroke="black" stroke-width="4.0"/>
  <rect x="1300.0" y="-671.0" width="272.9999999999999" height="224.00000000000003" fill="none" stroke="red" stroke-width="10.0" /><rect x="1571.0" y="-671.0" width="272.0" height="224.00000000000003" fill="none" stroke="red" stroke-width="10.0" /><rect x="164.0" y="-393.0" width="1809.0000000000002" height="173.00000000000003" fill="none" stroke="red" stroke-width="10.0" /><rect x="77.0" y="-852.0" width="1106.0" height="374.0" fill="none" stroke="red" stroke-width="10.0" /><rect x="297.0" y="-741.0" width="512.0" height="322.0" fill="none" stroke="red" stroke-width="10.0" />
</svg>
