<svg xmlns="http://www.w3.org/2000/svg"
  viewBox="32.222222222237036 -1213.0 1436.7545219623426 1040.57894736882">
  <rect x="32.222222222237036" y="-1213.0" width="1436.7545219623426" height="1040.57894736882" fill="white"/>
  <path d="M 924.0 -711.0 L 944.0 -711.0 L 965.0 -710.666666667 L 987.0 -710.0 L 1009.0 -709.333333333 L 1028.66666667 -707.333333333 L 1046.0 -704.0 L 1058.66666667 -704.0 L 1071.83333333 -682.833333333 L 1085.5 -640.5 L 1099.16666667 -598.166666667 L 1115.66666667 -556.333333333 L 1135.0 -515.0 L 1141.0 -501.0 L 1147.33333333 -493.333333333 L 1154.0 -492.0 L 1159.33333333 -490.0 L 1163.5 -486.5 L 1166.5 -481.5 L 1169.5 -476.5 L 1166.66666667 -472.333333333 L 1158.0 -469.0 L 1138.0 -465.0 L 1117.5 -463.166666667 L 1096.5 -463.5 L 1075.5 -463.833333333 L 1055.66666667 -465.666666667 L 1037.0 -469.0 L 1019.66666667 -477.0 L 1006.0 -496.0 L 996.0 -526.0 L 986.0 -556.0 L 970.666666667 -600.0 L 950.0 -658.0 L 948.666666667 -661.333333333 L 945.166666667 -666.333333333 L 939.5 -673.0 L 933.833333333 -679.666666667 L 927.333333333 -684.0 L 920.0 -686.0 L 910.666666667 -688.0 L 905.5 -692.666666667 L 904.5 -700.0 L 903.5 -707.333333333 L 910.0 -711.0 Z M 654.0 -711.0 L 674.0 -711.0 L 695.0 -710.666666667 L 717.0 -710.0 L 739.0 -709.333333333 L 758.666666667 -707.333333333 L 776.0 -704.0 L 788.666666667 -704.0 L 801.833333333 -682.833333333 L 815.5 -640.5 L 829.166666667 -598.166666667 L 845.666666667 -556.333333333 L 865.0 -515.0 L 871.666666667 -501.0 L 878.0 -493.333333333 L 884.0 -492.0 L 889.333333333 -490.0 L 893.333333333 -486.5 L 896.0 -481.5 L 898.666666667 -476.5 L 896.0 -472.333333333 L 888.0 -469.0 L 867.333333333 -465.0 L 846.666666667 -463.166666667 L 826.0 -463.5 L 805.333333333 -463.833333333 L 785.666666667 -465.666666667 L 767.0 -469.0 L 749.0 -477.0 L 735.166666667 -496.0 L 725.5 -526.0 L 715.833333333 -556.0 L 700.666666667 -600.0 L 680.0 -658.0 L 678.0 -661.333333333 L 674.333333333 -666.333333333 L 669.0 -673.0 L 663.666666667 -679.666666667 L 657.333333333 -684.0 L 650.0 -686.0 L 640.0 -688.0 L 634.666666667 -692.666666667 L 634.0 -700.0 L 633.333333333 -707.333333333 L 640.0 -711.0 Z M 85.0 -384.0 L 88.3333333333 -389.333333333 L 92.1666666667 -392.166666667 L 96.5 -392.5 L 100.833333333 -392.833333333 L 105.333333333 -391.666666667 L 110.0 -389.0 L 114.666666667 -386.333333333 L 120.666666667 -383.166666667 L 128.0 -379.5 L 135.333333333 -375.833333333 L 144.666666667 -372.833333333 L 156.0 -370.5 L 167.333333333 -368.166666667 L 183.333333333 -367.0 L 204.0 -367.0 L 1228.0 -367.0 L 1246.66666667 -367.0 L 1263.66666667 -365.5 L 1279.0 -362.5 L 1294.33333333 -359.5 L 1308.33333333 -354.666666667 L 1321.0 -348.0 L 1333.66666667 -341.333333333 L 1343.5 -335.333333333 L 1350.5 -330.0 L 1357.5 -324.666666667 L 1367.0 -315.5 L 1379.0 -302.5 L 1391.0 -289.5 L 1401.5 -277.0 L 1410.5 -265.0 L 1419.5 -253.0 L 1421.33333333 -241.333333333 L 1416.0 -230.0 L 1410.66666667 -222.0 L 1404.5 -220.333333333 L 1397.5 -225.0 L 1390.5 -229.666666667 L 1382.33333333 -233.666666667 L 1373.0 -237.0 L 1363.66666667 -240.333333333 L 1353.5 -242.666666667 L 1342.5 -244.0 L 1331.5 -245.333333333 L 1314.33333333 -246.0 L 1291.0 -246.0 L 282.0 -246.0 L 266.666666667 -246.0 L 252.666666667 -247.0 L 240.0 -249.0 L 227.333333333 -251.0 L 217.5 -253.166666667 L 210.5 -255.5 L 203.5 -257.833333333 L 196.0 -261.0 L 188.0 -265.0 L 180.0 -269.0 L 171.5 -273.833333333 L 162.5 -279.5 L 153.5 -285.166666667 L 144.0 -293.166666667 L 134.0 -303.5 L 124.0 -313.833333333 L 113.833333333 -325.833333333 L 103.5 -339.5 L 93.1666666667 -353.166666667 L 86.6666666667 -362.666666667 L 84.0 -368.0 L 81.3333333333 -373.333333333 L 81.6666666667 -378.666666667 Z M 646.0 -1163.0 L 656.666666667 -1161.0 L 661.333333333 -1155.5 L 660.0 -1146.5 L 658.666666667 -1137.5 L 652.0 -1132.66666667 L 640.0 -1132.0 L 626.0 -1127.33333333 L 614.666666667 -1109.66666667 L 606.0 -1079.0 L 597.333333333 -1048.33333333 L 588.333333333 -1016.0 L 579.0 -982.0 L 556.333333333 -902.666666667 L 535.666666667 -838.333333333 L 517.0 -789.0 L 498.333333333 -739.666666667 L 480.5 -705.166666667 L 463.5 -685.5 L 446.5 -665.833333333 L 426.333333333 -650.666666667 L 403.0 -640.0 L 367.0 -624.666666667 L 331.5 -613.333333333 L 296.5 -606.0 L 261.5 -598.666666667 L 231.333333333 -595.0 L 206.0 -595.0 L 218.666666667 -565.0 L 239.833333333 -544.0 L 269.5 -532.0 L 299.166666667 -520.0 L 307.666666667 -507.333333333 L 295.0 -494.0 L 287.666666667 -486.666666667 L 264.666666667 -496.333333333 L 226.0 -523.0 L 187.333333333 -549.666666667 L 160.666666667 -576.0 L 146.0 -602.0 L 146.0 -618.666666667 L 152.833333333 -625.666666667 L 166.5 -623.0 L 180.166666667 -620.333333333 L 194.666666667 -618.333333333 L 210.0 -617.0 L 225.333333333 -616.333333333 L 241.333333333 -617.333333333 L 258.0 -620.0 L 274.666666667 -622.666666667 L 296.666666667 -631.0 L 324.0 -645.0 L 337.333333333 -651.666666667 L 349.833333333 -666.833333333 L 361.5 -690.5 L 373.166666667 -714.166666667 L 383.833333333 -740.333333333 L 393.5 -769.0 L 403.166666667 -797.666666667 L 411.333333333 -826.166666667 L 418.0 -854.5 L 424.666666667 -882.833333333 L 433.5 -923.666666667 L 444.5 -977.0 L 455.5 -1030.33333333 L 464.833333333 -1066.0 L 472.5 -1084.0 L 480.166666667 -1102.0 L 491.166666667 -1116.66666667 L 505.5 -1128.0 L 519.833333333 -1139.33333333 L 533.5 -1146.66666667 L 546.5 -1150.0 L 559.5 -1153.33333333 L 574.0 -1155.66666667 L 590.0 -1157.0 L 606.0 -1158.33333333 L 624.666666667 -1160.33333333 Z" fill="black" fill-opacity="0.25" stroke="black" stroke-width="4.0"/>
  <rect x="903.0" y="-711.0" width="266.0" height="247.99999999999994" fill="none" stroke="red" stroke-width="10.0" /><rect x="633.0" y="-711.0" width="266.0" height="247.99999999999994" fill="none" stroke="red" stroke-width="10.0" /><rect x="81.0" y="-393.0" width="1340.0" height="173.00000000000003" fill="none" stroke="red" stroke-width="10.0" /><rect x="146.0" y="-715.4000000000001" width="339.8" height="223.80000000000007" fill="none" stroke="red" stroke-width="10.0" /><rect x="373.7" y="-939.2" width="193.1" height="223.8" fill="none" stroke="red" stroke-width="10.0" /><rect x="436.7" y="-1163.0" width="224.60000000000002" height="223.8" fill="none" stroke="red" stroke-width="10.0" />
</svg>
