<svg xmlns="http://www.w3.org/2000/svg"
  viewBox="32.222 -1322 1513 1149.579">
  <rect x="32.222" y="-1322" width="1513" height="1149.579" fill="white"/>
  <path d="M 371 -697 L 391 -697 L 412 -696.667 L 434 -696 L 456 -695.333 L 475.667 -693.333 L 493 -690 L 505.667 -690 L 519 -668.667 L 533 -626 L 547 -583.333 L 563.667 -541.667 L 583 -501 L 589 -487 L 595.333 -479 L 602 -477 L 607.333 -475 L 611.333 -471.5 L 614 -466.5 L 616.667 -461.5 L 613.667 -457 L 605 -453 L 585 -449 L 564.5 -447.333 L 543.5 -448 L 522.5 -448.667 L 502.667 -450.333 L 484 -453 L 466.667 -461 L 453 -480.167 L 443 -510.5 L 433 -540.833 L 417.667 -585 L 397 -643 L 395.667 -646.333 L 392.167 -651.5 L 386.5 -658.5 L 380.833 -665.5 L 374.667 -669.667 L 368 -671 L 358.667 -672.333 L 353.333 -676.833 L 352 -684.5 L 350.667 -692.167 L 357 -696.333 Z M 642 -697 L 662 -697 L 682.833 -696.667 L 704.5 -696 L 726.167 -695.333 L 746 -693.333 L 764 -690 L 776.667 -690 L 789.833 -668.667 L 803.5 -626 L 817.167 -583.333 L 833.667 -541.667 L 853 -501 L 859 -487 L 865.333 -479 L 872 -477 L 877.333 -475 L 881.333 -471.5 L 884 -466.5 L 886.667 -461.5 L 883.667 -457 L 875 -453 L 855 -449 L 834.667 -447.333 L 814 -448 L 793.333 -448.667 L 773.667 -450.333 L 755 -453 L 737.667 -461 L 724 -480.167 L 714 -510.5 L 704 -540.833 L 688.667 -585 L 668 -643 L 666 -646.333 L 662.167 -651.5 L 656.5 -658.5 L 650.833 -665.5 L 644.667 -669.667 L 638 -671 L 628.667 -672.333 L 623.5 -676.833 L 622.5 -684.5 L 621.5 -692.167 L 628 -696.333 Z M 85 -384 L 88.333 -389.333 L 92.167 -392.167 L 96.5 -392.5 L 100.833 -392.833 L 105.333 -391.667 L 110 -389 L 114.667 -386.333 L 120.667 -383.167 L 128 -379.5 L 135.333 -375.833 L 144.667 -372.833 L 156 -370.5 L 167.333 -368.167 L 183.333 -367 L 204 -367 L 1228 -367 L 1246.667 -367 L 1263.667 -365.5 L 1279 -362.5 L 1294.333 -359.5 L 1308.333 -354.667 L 1321 -348 L 1333.667 -341.333 L 1343.5 -335.333 L 1350.5 -330 L 1357.5 -324.667 L 1367 -315.5 L 1379 -302.5 L 1391 -289.5 L 1401.5 -277 L 1410.5 -265 L 1419.5 -253 L 1421.333 -241.333 L 1416 -230 L 1410.667 -222 L 1404.5 -220.333 L 1397.5 -225 L 1390.5 -229.667 L 1382.333 -233.667 L 1373 -237 L 1363.667 -240.333 L 1353.5 -242.667 L 1342.5 -244 L 1331.5 -245.333 L 1314.333 -246 L 1291 -246 L 282 -246 L 266.667 -246 L 252.667 -247 L 240 -249 L 227.333 -251 L 217.5 -253.167 L 210.5 -255.5 L 203.5 -257.833 L 196 -261 L 188 -265 L 180 -269 L 171.5 -273.833 L 162.5 -279.5 L 153.5 -285.167 L 144 -293.167 L 134 -303.5 L 124 -313.833 L 113.833 -325.833 L 103.5 -339.5 L 93.167 -353.167 L 86.667 -362.667 L 84 -368 L 81.333 -373.333 L 81.667 -378.667 Z M 1481 -1163 L 1491.667 -1161 L 1496.333 -1155.5 L 1495 -1146.5 L 1493.667 -1137.5 L 1487 -1132.667 L 1475 -1132 L 1461 -1127.333 L 1449.667 -1109.667 L 1441 -1079 L 1432.333 -1048.333 L 1423.333 -1016 L 1414 -982 L 1391.333 -902.667 L 1370.667 -838.333 L 1352 -789 L 1333.333 -739.667 L 1315.5 -705.167 L 1298.5 -685.5 L 1281.5 -665.833 L 1261.333 -650.667 L 1238 -640 L 1202 -624.667 L 1166.5 -613.333 L 1131.5 -606 L 1096.5 -598.667 L 1066.333 -595 L 1041 -595 L 1053.667 -565 L 1074.833 -544 L 1104.5 -532 L 1134.167 -520 L 1142.667 -507.333 L 1130 -494 L 1122.667 -486.667 L 1099.667 -496.333 L 1061 -523 L 1022.333 -549.667 L 995.667 -576 L 981 -602 L 981 -618.667 L 987.833 -625.667 L 1001.5 -623 L 1015.167 -620.333 L 1029.667 -618.333 L 1045 -617 L 1060.333 -616.333 L 1076.333 -617.333 L 1093 -620 L 1109.667 -622.667 L 1131.667 -631 L 1159 -645 L 1172.333 -651.667 L 1184.833 -666.833 L 1196.5 -690.5 L 1208.167 -714.167 L 1218.833 -740.333 L 1228.5 -769 L 1238.167 -797.667 L 1246.333 -826.167 L 1253 -854.5 L 1259.667 -882.833 L 1268.5 -923.667 L 1279.5 -977 L 1290.5 -1030.333 L 1299.833 -1066 L 1307.5 -1084 L 1315.167 -1102 L 1326.167 -1116.667 L 1340.5 -1128 L 1354.833 -1139.333 L 1368.5 -1146.667 L 1381.5 -1150 L 1394.5 -1153.333 L 1409 -1155.667 L 1425 -1157 L 1441 -1158.333 L 1459.667 -1160.333 Z M 874 -1272 L 883.333 -1270.667 L 887.5 -1266.5 L 886.5 -1259.5 L 885.5 -1252.5 L 879.333 -1248.667 L 868 -1248 L 856 -1244 L 846.167 -1230.833 L 838.5 -1208.5 L 830.833 -1186.167 L 822.667 -1162.333 L 814 -1137 L 794 -1077.667 L 775.833 -1029.667 L 759.5 -993 L 743.167 -956.333 L 727.667 -930.667 L 713 -916 L 698.333 -901.333 L 680.667 -890 L 660 -882 L 628 -870.667 L 596.667 -862.167 L 566 -856.5 L 535.333 -850.833 L 508.667 -848 L 486 -848 L 497.333 -825.333 L 516.167 -809.667 L 542.5 -801 L 568.833 -792.333 L 576.333 -783 L 565 -773 L 558.333 -767.667 L 538 -775 L 504 -795 L 470 -815 L 446.667 -834.667 L 434 -854 L 434 -866.667 L 439.833 -871.833 L 451.5 -869.5 L 463.167 -867.167 L 476 -865.667 L 490 -865 L 504 -864.333 L 518.167 -865 L 532.5 -867 L 546.833 -869 L 566 -875.333 L 590 -886 L 602 -891.333 L 613.167 -902.667 L 623.5 -920 L 633.833 -937.333 L 643.167 -956.833 L 651.5 -978.5 L 659.833 -1000.167 L 667 -1021.5 L 673 -1042.5 L 679 -1063.5 L 686.667 -1093.833 L 696 -1133.5 L 705.333 -1173.167 L 713.5 -1199.667 L 720.5 -1213 L 727.5 -1226.333 L 737.333 -1237.167 L 750 -1245.5 L 762.667 -1253.833 L 774.833 -1259.167 L 786.5 -1261.5 L 798.167 -1263.833 L 811 -1265.667 L 825 -1267 L 839 -1268.333 L 855.333 -1270 Z" fill="black" fill-opacity="0.25" stroke="black" stroke-width="4"/>
  <rect x="351" y="-697" width="266" height="250" fill="none" stroke="red" stroke-width="10" /><rect x="622" y="-697" width="265" height="250" fill="none" stroke="red" stroke-width="10" /><rect x="81" y="-393" width="1340" height="173" fill="none" stroke="red" stroke-width="10" /><rect x="981" y="-715.4" width="339.8" height="223.8" fill="none" stroke="red" stroke-width="10" /><rect x="1208.7" y="-939.2" width="193.1" height="223.8" fill="none" stroke="red" stroke-width="10" /><rect x="1271.7" y="-1163" width="224.6" height="223.8" fill="none" stroke="red" stroke-width="10" /><rect x="434" y="-938.2" width="298.2" height="166.9" fill="none" stroke="red" stroke-width="10" /><rect x="634.3" y="-1105.1" width="168.9" height="166.9" fill="none" stroke="red" stroke-width="10" /><rect x="689.3" y="-1272" width="198.2" height="166.9" fill="none" stroke="red" stroke-width="10" />
</svg>
