<svg xmlns="http://www.w3.org/2000/svg"
  viewBox="28.75 -901.522 1992.227 729.101">
  <rect x="28.75" y="-901.522" width="1992.227" height="729.101" fill="white"/>
  <path d="M 1321 -671 L 1341 -671 L 1362 -670.667 L 1384 -670 L 1406 -669.333 L 1425.667 -667.333 L 1443 -664 L 1455.667 -664 L 1470 -647 L 1486 -613 L 1502 -579 L 1519.333 -541.667 L 1538 -501 L 1544 -487 L 1550.333 -479 L 1557 -477 L 1562.333 -475 L 1566.5 -471.5 L 1569.5 -466.5 L 1572.5 -461.5 L 1569.667 -457 L 1561 -453 L 1540.333 -449 L 1519.667 -447.333 L 1499 -448 L 1478.333 -448.667 L 1458.667 -450.333 L 1440 -453 L 1422 -461 L 1407.167 -476 L 1395.5 -498 L 1383.833 -520 L 1367.667 -559.667 L 1347 -617 L 1345 -620.333 L 1341.333 -625.5 L 1336 -632.5 L 1330.667 -639.5 L 1324.333 -643.667 L 1317 -645 L 1307.667 -646.333 L 1302.5 -651 L 1301.5 -659 L 1300.5 -667 L 1307 -671 Z M 1591 -671 L 1611 -671 L 1632 -670.667 L 1654 -670 L 1676 -669.333 L 1695.667 -667.333 L 1713 -664 L 1725.667 -664 L 1740 -647 L 1756 -613 L 1772 -579 L 1789.667 -541.667 L 1809 -501 L 1815 -487 L 1821.333 -479 L 1828 -477 L 1832.667 -475 L 1836.5 -471.5 L 1839.5 -466.5 L 1842.5 -461.5 L 1839.667 -457 L 1831 -453 L 1811 -449 L 1790.5 -447.333 L 1769.5 -448 L 1748.5 -448.667 L 1728.667 -450.333 L 1710 -453 L 1692.667 -461 L 1678 -476 L 1666 -498 L 1654 -520 L 1637.667 -559.667 L 1617 -617 L 1615.667 -620.333 L 1612.167 -625.5 L 1606.5 -632.5 L 1600.833 -639.5 L 1594.667 -643.667 L 1588 -645 L 1578.667 -646.333 L 1573.333 -651 L 1572 -659 L 1570.667 -667 L 1577 -671 Z M 168 -384 L 171.333 -389.333 L 175.167 -392.167 L 179.5 -392.5 L 183.833 -392.833 L 188.333 -391.667 L 193 -389 L 197.667 -386.333 L 203.667 -383.167 L 211 -379.5 L 218.333 -375.833 L 227.667 -372.833 L 239 -370.5 L 250.333 -368.167 L 266.333 -367 L 287 -367 L 1779 -367 L 1797.667 -367 L 1814.833 -365.5 L 1830.5 -362.5 L 1846.167 -359.5 L 1860.333 -354.667 L 1873 -348 L 1885.667 -341.333 L 1895.5 -335.333 L 1902.5 -330 L 1909.5 -324.667 L 1919 -315.5 L 1931 -302.5 L 1943 -289.5 L 1953.5 -277 L 1962.5 -265 L 1971.5 -253 L 1973.333 -241.333 L 1968 -230 L 1962.667 -222 L 1956.5 -220.333 L 1949.5 -225 L 1942.5 -229.667 L 1934.333 -233.667 L 1925 -237 L 1915.667 -240.333 L 1905.333 -242.667 L 1894 -244 L 1882.667 -245.333 L 1865.667 -246 L 1843 -246 L 365 -246 L 349.667 -246 L 335.667 -247 L 323 -249 L 310.333 -251 L 300.5 -253.167 L 293.5 -255.5 L 286.5 -257.833 L 279 -261 L 271 -265 L 263 -269 L 254.5 -273.833 L 245.5 -279.5 L 236.5 -285.167 L 227 -293.167 L 217 -303.5 L 207 -313.833 L 196.833 -325.833 L 186.5 -339.5 L 176.167 -353.167 L 169.667 -362.667 L 167 -368 L 164.333 -373.333 L 164.667 -378.667 Z M 375 -487 L 349.667 -477.667 L 306.667 -478.333 L 246 -489 L 210.667 -497.667 L 179.5 -509.333 L 152.5 -524 L 125.5 -538.667 L 104.667 -564.333 L 90 -601 L 80 -636.333 L 76.667 -664.5 L 80 -685.5 L 83.333 -706.5 L 95 -731 L 115 -759 L 134.333 -782.333 L 156.833 -799.833 L 182.5 -811.5 L 208.167 -823.167 L 239.667 -833 L 277 -841 L 314.333 -848.333 L 344.667 -851.833 L 368 -851.5 L 391.333 -851.167 L 416.667 -850.667 L 444 -850 L 470.667 -848.667 L 495.5 -846.5 L 518.5 -843.5 L 541.5 -840.5 L 569.333 -834 L 602 -824 L 656 -809.333 L 709.333 -788.667 L 762 -762 L 791.333 -747.333 L 822.5 -731.667 L 855.5 -715 L 888.5 -698.333 L 925.333 -678.333 L 966 -655 L 984.667 -643.667 L 1005.167 -631.5 L 1027.5 -618.5 L 1049.833 -605.5 L 1073.667 -592.333 L 1099 -579 L 1118.333 -567 L 1137.5 -555 L 1156.5 -543 L 1175.5 -531 L 1183.5 -518.833 L 1180.5 -506.5 L 1177.5 -494.167 L 1170.333 -488.333 L 1159 -489 L 1147.667 -489.667 L 1111.833 -489.333 L 1051.5 -488 L 991.167 -486.667 L 938.667 -486.333 L 894 -487 L 876 -500.333 L 876.167 -509.833 L 894.5 -515.5 L 912.833 -521.167 L 926.667 -528.333 L 936 -537 L 952.667 -554.333 L 960 -568.167 L 958 -578.5 L 956 -588.833 L 953.167 -596.833 L 949.5 -602.5 L 945.833 -608.167 L 940.333 -614.167 L 933 -620.5 L 925.667 -626.833 L 907.5 -640 L 878.5 -660 L 849.5 -680 L 813.667 -701 L 771 -723 L 732.333 -739.667 L 702 -753.333 L 680 -764 L 658 -774.667 L 622.333 -786.667 L 573 -800 L 536.333 -807.333 L 499 -811.833 L 461 -813.5 L 423 -815.167 L 384.333 -809.667 L 345 -797 L 317.667 -785 L 298.5 -774.667 L 287.5 -766 L 276.5 -757.333 L 264 -742.667 L 250 -722 L 238 -702 L 231.167 -685 L 229.5 -671 L 227.833 -657 L 227.667 -641 L 229 -623 L 229.667 -604.333 L 231.833 -590.833 L 235.5 -582.5 L 239.167 -574.167 L 243.833 -565.667 L 249.5 -557 L 255.167 -548.333 L 262.5 -540.5 L 271.5 -533.5 L 280.5 -526.5 L 294.333 -521.5 L 313 -518.5 L 331.667 -515.5 L 350 -513.333 L 368 -512 L 376 -510.667 L 381.167 -507.333 L 383.5 -502 L 385.833 -496.667 L 383 -491.667 Z M 581 -426 L 574.333 -431.333 L 573.833 -436.333 L 579.5 -441 L 585.167 -445.667 L 592.667 -448 L 602 -448 L 612 -448 L 625.667 -456.667 L 643 -474 L 660.333 -491.333 L 672 -513.333 L 678 -540 L 687.333 -584 L 664.333 -620 L 609 -648 L 587.667 -658 L 561 -667 L 529 -675 L 497 -683 L 465.333 -690.167 L 434 -696.5 L 402.667 -702.833 L 375 -707.833 L 351 -711.5 L 327 -715.167 L 313 -718 L 309 -720 L 300.333 -723.333 L 297 -727.667 L 299 -733 L 301 -738.333 L 305.333 -741 L 312 -741 L 315.333 -741 L 328.833 -739.667 L 352.5 -737 L 376.167 -734.333 L 404.5 -730.167 L 437.5 -724.5 L 470.5 -718.833 L 505.167 -711.833 L 541.5 -703.5 L 577.833 -695.167 L 611 -685 L 641 -673 L 676.333 -659 L 704.667 -645 L 726 -631 L 747.333 -617 L 766.667 -598.333 L 784 -575 L 801.333 -551 L 808.667 -527.333 L 806 -504 L 803.333 -480.667 L 793.333 -462.333 L 776 -449 L 760 -437 L 741.333 -429 L 720 -425 L 698.667 -421 L 678.667 -419 L 660 -419 L 641.333 -419 L 628.167 -419.167 L 620.5 -419.5 L 612.833 -419.833 L 599.667 -422 Z" fill="black" fill-opacity="0.25" stroke="black" stroke-width="4"/>
  <rect x="1300" y="-671" width="273" height="224" fill="none" stroke="red" stroke-width="10" /><rect x="1571" y="-671" width="272" height="224" fill="none" stroke="red" stroke-width="10" /><rect x="164" y="-393" width="1809" height="173" fill="none" stroke="red" stroke-width="10" /><rect x="77" y="-852" width="1106" height="374" fill="none" stroke="red" stroke-width="10" /><rect x="297" y="-741" width="512" height="322" fill="none" stroke="red" stroke-width="10" />
</svg>
