<svg xmlns="http://www.w3.org/2000/svg"
  viewBox="29.75 -903.522 1991.227 731.101">
  <rect x="29.75" y="-903.522" width="1991.227" height="731.101" fill="white"/>
  <path d="M 1591 -671 L 1611 -671 L 1632 -670.667 L 1654 -670 L 1676 -669.333 L 1695.667 -667.333 L 1713 -664 L 1725.667 -664 L 1740 -647 L 1756 -613 L 1772 -579 L 1789.667 -541.667 L 1809 -501 L 1815 -487 L 1821.333 -479 L 1828 -477 L 1832.667 -475 L 1836.5 -471.5 L 1839.5 -466.5 L 1842.5 -461.5 L 1839.667 -457 L 1831 -453 L 1811 -449 L 1790.5 -447.333 L 1769.5 -448 L 1748.5 -448.667 L 1728.667 -450.333 L 1710 -453 L 1692.667 -461 L 1678 -476 L 1666 -498 L 1654 -520 L 1637.667 -559.667 L 1617 -617 L 1615.667 -620.333 L 1612.167 -625.5 L 1606.5 -632.5 L 1600.833 -639.5 L 1594.667 -643.667 L 1588 -645 L 1578.667 -646.333 L 1573.333 -651 L 1572 -659 L 1570.667 -667 L 1577 -671 Z M 1321 -671 L 1341 -671 L 1362 -670.667 L 1384 -670 L 1406 -669.333 L 1425.667 -667.333 L 1443 -664 L 1455.667 -664 L 1470 -647 L 1486 -613 L 1502 -579 L 1519.333 -541.667 L 1538 -501 L 1544 -487 L 1550.333 -479 L 1557 -477 L 1562.333 -475 L 1566.5 -471.5 L 1569.5 -466.5 L 1572.5 -461.5 L 1569.667 -457 L 1561 -453 L 1540.333 -449 L 1519.667 -447.333 L 1499 -448 L 1478.333 -448.667 L 1458.667 -450.333 L 1440 -453 L 1422 -461 L 1407.167 -476 L 1395.5 -498 L 1383.833 -520 L 1367.667 -559.667 L 1347 -617 L 1345 -620.333 L 1341.333 -625.5 L 1336 -632.5 L 1330.667 -639.5 L 1324.333 -643.667 L 1317 -645 L 1307.667 -646.333 L 1302.5 -651 L 1301.5 -659 L 1300.5 -667 L 1307 -671 Z M 172.5 -384 L 176.167 -389.333 L 180 -392.167 L 184 -392.5 L 188 -392.833 L 192.5 -391.667 L 197.5 -389 L 202.5 -386.333 L 208.667 -383.167 L 216 -379.5 L 223.333 -375.833 L 232.667 -372.833 L 244 -370.5 L 255.333 -368.167 L 271.333 -367 L 292 -367 L 1779 -367 L 1797.667 -367 L 1814.833 -365.5 L 1830.5 -362.5 L 1846.167 -359.5 L 1860.333 -354.667 L 1873 -348 L 1885.667 -341.333 L 1895.5 -335.333 L 1902.5 -330 L 1909.5 -324.667 L 1919 -315.5 L 1931 -302.5 L 1943 -289.5 L 1953.5 -277 L 1962.5 -265 L 1971.5 -253 L 1973.333 -241.333 L 1968 -230 L 1962.667 -222 L 1956.5 -220.333 L 1949.5 -225 L 1942.5 -229.667 L 1934.333 -233.667 L 1925 -237 L 1915.667 -240.333 L 1905.333 -242.667 L 1894 -244 L 1882.667 -245.333 L 1865.667 -246 L 1843 -246 L 370 -246 L 354.667 -246 L 340.667 -247 L 328 -249 L 315.333 -251 L 305.5 -253.167 L 298.5 -255.5 L 291.5 -257.833 L 284 -261 L 276 -265 L 268 -269 L 259.5 -273.833 L 250.5 -279.5 L 241.5 -285.167 L 232 -293.167 L 222 -303.5 L 212 -313.833 L 201.833 -325.833 L 191.5 -339.5 L 181.167 -353.167 L 174.5 -362.667 L 171.5 -368 L 168.5 -373.333 L 168.833 -378.667 Z M 376 -489 L 350.667 -479.667 L 308 -480 L 248 -490 L 212.667 -498.667 L 181.333 -510.333 L 154 -525 L 126.667 -539.667 L 105.667 -565.333 L 91 -602 L 81 -637.333 L 77.667 -665.667 L 81 -687 L 84.333 -708.333 L 96.333 -732.667 L 117 -760 L 136.333 -783.333 L 158.833 -801 L 184.5 -813 L 210.167 -825 L 241.667 -835 L 279 -843 L 316.333 -850.333 L 346.667 -853.833 L 370 -853.5 L 393.333 -853.167 L 418.333 -852.333 L 445 -851 L 471.667 -849.667 L 496.5 -847.5 L 519.5 -844.5 L 542.5 -841.5 L 570.333 -835 L 603 -825 L 657 -810.333 L 710.333 -790 L 763 -764 L 792.333 -749.333 L 823.667 -733.5 L 857 -716.5 L 890.333 -699.5 L 927.333 -679.667 L 968 -657 L 986.667 -645.667 L 1007 -633.5 L 1029 -620.5 L 1051 -607.5 L 1075 -594.333 L 1101 -581 L 1120.333 -569 L 1139.333 -556.833 L 1158 -544.5 L 1176.667 -532.167 L 1184.5 -519.833 L 1181.5 -507.5 L 1178.5 -495.167 L 1171.333 -489.333 L 1160 -490 L 1148.667 -490.667 L 1113 -490.333 L 1053 -489 L 993 -487.667 L 940.667 -487.667 L 896 -489 L 878 -502.333 L 878.167 -511.833 L 896.5 -517.5 L 914.833 -523.167 L 928.333 -530.333 L 937 -539 L 953.667 -556.333 L 961.167 -570 L 959.5 -580 L 957.833 -590 L 955.167 -597.833 L 951.5 -603.5 L 947.833 -609.167 L 942.333 -615.333 L 935 -622 L 927.667 -628.667 L 909.5 -641.833 L 880.5 -661.5 L 851.5 -681.167 L 815.333 -702 L 772 -724 L 733.333 -740.667 L 703 -754.5 L 681 -765.5 L 659 -776.5 L 623.333 -788.667 L 574 -802 L 537.333 -809.333 L 500 -813.667 L 462 -815 L 424 -816.333 L 385.667 -810.667 L 347 -798 L 319.667 -786 L 300.333 -775.833 L 289 -767.5 L 277.667 -759.167 L 265 -744.333 L 251 -723 L 239 -703 L 232.167 -686.167 L 230.5 -672.5 L 228.833 -658.833 L 228.667 -642.667 L 230 -624 L 230.667 -605.333 L 232.833 -592 L 236.5 -584 L 240.167 -576 L 245 -567.667 L 251 -559 L 257 -550.333 L 264.5 -542.5 L 273.5 -535.5 L 282.5 -528.5 L 296.167 -523.5 L 314.5 -520.5 L 332.833 -517.5 L 351.333 -515 L 370 -513 L 378 -511.667 L 383 -508.5 L 385 -503.5 L 387 -498.5 L 384 -493.667 Z" fill="black" fill-opacity="0.25" stroke="black" stroke-width="4"/>
  <rect x="1571" y="-671" width="272" height="224" fill="none" stroke="red" stroke-width="10" /><rect x="1300" y="-671" width="273" height="224" fill="none" stroke="red" stroke-width="10" /><rect x="169" y="-393" width="1804" height="173" fill="none" stroke="red" stroke-width="10" /><rect x="78" y="-854" width="1107" height="374" fill="none" stroke="red" stroke-width="10" />
</svg>
