<svg xmlns="http://www.w3.org/2000/svg"
  viewBox="32.222 -1213 1459 1040.579">
  <rect x="32.222" y="-1213" width="1459" height="1040.579" fill="white"/>
  <path d="M 1427 -1163 L 1437.667 -1161 L 1442.333 -1155.5 L 1441 -1146.5 L 1439.667 -1137.5 L 1433 -1132.667 L 1421 -1132 L 1407 -1127.333 L 1395.833 -1109.667 L 1387.5 -1079 L 1379.167 -1048.333 L 1370 -1016 L 1360 -982 L 1337.333 -902.667 L 1316.667 -838.333 L 1298 -789 L 1279.333 -739.667 L 1261.667 -705.167 L 1245 -685.5 L 1228.333 -665.833 L 1208.333 -650.667 L 1185 -640 L 1149 -624.667 L 1113.333 -613.333 L 1078 -606 L 1042.667 -598.667 L 1012.333 -595 L 987 -595 L 999.667 -565 L 1021 -544 L 1051 -532 L 1081 -520 L 1089.667 -507.333 L 1077 -494 L 1069.667 -486.667 L 1046.5 -496.333 L 1007.5 -523 L 968.5 -549.667 L 942 -576 L 928 -602 L 928 -618.667 L 934.667 -625.667 L 948 -623 L 961.333 -620.333 L 976 -618.333 L 992 -617 L 1007.333 -616.333 L 1023.167 -617.333 L 1039.5 -620 L 1055.833 -622.667 L 1077.667 -631 L 1105 -645 L 1118.333 -651.667 L 1131 -666.833 L 1143 -690.5 L 1155 -714.167 L 1165.667 -740.333 L 1175 -769 L 1184.333 -797.667 L 1192.333 -826.167 L 1199 -854.5 L 1205.667 -882.833 L 1214.5 -923.667 L 1225.5 -977 L 1236.5 -1030.333 L 1246 -1066 L 1254 -1084 L 1262 -1102 L 1273.167 -1116.667 L 1287.5 -1128 L 1301.833 -1139.333 L 1315.5 -1146.667 L 1328.5 -1150 L 1341.5 -1153.333 L 1355.833 -1155.667 L 1371.5 -1157 L 1387.167 -1158.333 L 1405.667 -1160.333 Z M 85 -384 L 88.333 -389.333 L 92.167 -392.167 L 96.5 -392.5 L 100.833 -392.833 L 105.333 -391.667 L 110 -389 L 114.667 -386.333 L 120.667 -383.167 L 128 -379.5 L 135.333 -375.833 L 144.667 -372.833 L 156 -370.5 L 167.333 -368.167 L 183.333 -367 L 204 -367 L 1228 -367 L 1246.667 -367 L 1263.667 -365.5 L 1279 -362.5 L 1294.333 -359.5 L 1308.333 -354.667 L 1321 -348 L 1333.667 -341.333 L 1343.5 -335.333 L 1350.5 -330 L 1357.5 -324.667 L 1367 -315.5 L 1379 -302.5 L 1391 -289.5 L 1401.5 -277 L 1410.5 -265 L 1419.5 -253 L 1421.333 -241.333 L 1416 -230 L 1410.667 -222 L 1404.5 -220.333 L 1397.5 -225 L 1390.5 -229.667 L 1382.333 -233.667 L 1373 -237 L 1363.667 -240.333 L 1353.5 -242.667 L 1342.5 -244 L 1331.5 -245.333 L 1314.333 -246 L 1291 -246 L 282 -246 L 266.667 -246 L 252.667 -247 L 240 -249 L 227.333 -251 L 217.5 -253.167 L 210.5 -255.5 L 203.5 -257.833 L 196 -261 L 188 -265 L 180 -269 L 171.5 -273.833 L 162.5 -279.5 L 153.5 -285.167 L 144 -293.167 L 134 -303.5 L 124 -313.833 L 113.833 -325.833 L 103.5 -339.5 L 93.167 -353.167 L 86.667 -362.667 L 84 -368 L 81.333 -373.333 L 81.667 -378.667 Z" fill="black" fill-opacity="0.25" stroke="black" stroke-width="4"/>
  <rect x="81" y="-393" width="1340" height="173" fill="none" stroke="red" stroke-width="10" /><rect x="928" y="-715.4" width="338.9" height="223.8" fill="none" stroke="red" stroke-width="10" /><rect x="1155.5" y="-939.2" width="192.3" height="223.8" fill="none" stroke="red" stroke-width="10" /><rect x="1217.7" y="-1163" width="224.6" height="223.8" fill="none" stroke="red" stroke-width="10" />
</svg>
