<svg xmlns="http://www.w3.org/2000/svg"
  viewBox="27.222222222237036 -856.0 1568.7545219623426 683.57894736882">
  <rect x="27.222222222237036" y="-856.0" width="1568.7545219623426" height="683.57894736882" fill="white"/>
  <path d="M 408.0 -458.0 L 400.666666667 -464.0 L 400.333333333 -469.5 L 407.0 -474.5 L 413.666666667 -479.5 L 422.0 -482.0 L 432.0 -482.0 L 442.666666667 -482.0 L 457.666666667 -491.833333333 L 477.0 -511.5 L 496.333333333 -531.166666667 L 509.333333333 -555.333333333 L 516.0 -584.0 L 526.0 -632.666666667 L 500.333333333 -672.333333333 L 439.0 -703.0 L 415.666666667 -714.333333333 L 386.333333333 -724.5 L 351.0 -733.5 L 315.666666667 -742.5 L 280.666666667 -750.333333333 L 246.0 -757.0 L 211.333333333 -763.666666667 L 180.833333333 -769.166666667 L 154.5 -773.5 L 128.166666667 -778.5 L 112.666666667 -781.666666667 L 108.0 -783.0 L 98.6666666667 -786.333333333 L 95.1666666667 -791.0 L 97.5 -797.0 L 99.8333333333 -803.0 L 104.666666667 -806.0 L 112.0 -806.0 L 116.0 -806.0 L 131.0 -804.5 L 157.0 -801.5 L 183.0 -798.5 L 214.0 -794.0 L 250.0 -788.0 L 286.0 -782.0 L 324.166666667 -774.166666667 L 364.5 -764.5 L 404.833333333 -754.833333333 L 441.666666667 -743.666666667 L 475.0 -731.0 L 514.333333333 -715.666666667 L 545.666666667 -700.333333333 L 569.0 -685.0 L 592.333333333 -669.666666667 L 613.666666667 -649.0 L 633.0 -623.0 L 652.333333333 -597.0 L 660.5 -571.0 L 657.5 -545.0 L 654.5 -519.0 L 643.333333333 -498.666666667 L 624.0 -484.0 L 606.0 -470.666666667 L 585.5 -461.666666667 L 562.5 -457.0 L 539.5 -452.333333333 L 517.333333333 -450.0 L 496.0 -450.0 L 464.0 -450.0 L 464.0 -450.0 L 452.0 -450.0 L 444.0 -450.0 L 429.333333333 -452.666666667 Z M 1149.0 -671.0 L 1169.0 -671.0 L 1190.0 -670.666666667 L 1212.0 -670.0 L 1234.0 -669.333333333 L 1253.66666667 -667.333333333 L 1271.0 -664.0 L 1283.66666667 -664.0 L 1298.0 -647.0 L 1314.0 -613.0 L 1330.0 -579.0 L 1347.66666667 -541.666666667 L 1367.0 -501.0 L 1372.33333333 -487.0 L 1378.66666667 -479.0 L 1386.0 -477.0 L 1390.66666667 -475.0 L 1394.5 -471.5 L 1397.5 -466.5 L 1400.5 -461.5 L 1397.66666667 -457.0 L 1389.0 -453.0 L 1369.0 -449.0 L 1348.5 -447.333333333 L 1327.5 -448.0 L 1306.5 -448.666666667 L 1287.0 -450.333333333 L 1269.0 -453.0 L 1251.66666667 -461.0 L 1236.83333333 -476.0 L 1224.5 -498.0 L 1212.16666667 -520.0 L 1195.66666667 -559.666666667 L 1175.0 -617.0 L 1173.0 -620.333333333 L 1169.33333333 -625.5 L 1164.0 -632.5 L 1158.66666667 -639.5 L 1152.66666667 -643.666666667 L 1146.0 -645.0 L 1136.66666667 -646.333333333 L 1131.33333333 -651.0 L 1130.0 -659.0 L 1128.66666667 -667.0 L 1135.0 -671.0 Z M 879.0 -671.0 L 899.0 -671.0 L 920.0 -670.666666667 L 942.0 -670.0 L 964.0 -669.333333333 L 983.666666667 -667.333333333 L 1001.0 -664.0 L 1013.66666667 -664.0 L 1028.0 -647.0 L 1044.0 -613.0 L 1060.0 -579.0 L 1077.33333333 -541.666666667 L 1096.0 -501.0 L 1102.0 -487.0 L 1108.33333333 -479.0 L 1115.0 -477.0 L 1120.33333333 -475.0 L 1124.5 -471.5 L 1127.5 -466.5 L 1130.5 -461.5 L 1127.66666667 -457.0 L 1119.0 -453.0 L 1098.33333333 -449.0 L 1077.66666667 -447.333333333 L 1057.0 -448.0 L 1036.33333333 -448.666666667 L 1016.66666667 -450.333333333 L 998.0 -453.0 L 980.666666667 -461.0 L 966.0 -476.0 L 954.0 -498.0 L 942.0 -520.0 L 925.666666667 -559.666666667 L 905.0 -617.0 L 903.0 -620.333333333 L 899.333333333 -625.5 L 894.0 -632.5 L 888.666666667 -639.5 L 882.333333333 -643.666666667 L 875.0 -645.0 L 865.666666667 -646.333333333 L 860.5 -651.0 L 859.5 -659.0 L 858.5 -667.0 L 865.0 -671.0 Z M 80.0 -384.0 L 83.3333333333 -389.333333333 L 87.1666666667 -392.166666667 L 91.5 -392.5 L 95.8333333333 -392.833333333 L 100.333333333 -391.666666667 L 105.0 -389.0 L 109.666666667 -386.333333333 L 115.666666667 -383.166666667 L 123.0 -379.5 L 130.333333333 -375.833333333 L 139.666666667 -372.833333333 L 151.0 -370.5 L 162.333333333 -368.166666667 L 178.333333333 -367.0 L 199.0 -367.0 L 1354.0 -367.0 L 1372.66666667 -367.0 L 1389.83333333 -365.5 L 1405.5 -362.5 L 1421.16666667 -359.5 L 1435.33333333 -354.666666667 L 1448.0 -348.0 L 1460.66666667 -341.333333333 L 1470.5 -335.333333333 L 1477.5 -330.0 L 1484.5 -324.666666667 L 1494.0 -315.5 L 1506.0 -302.5 L 1518.0 -289.5 L 1528.5 -277.0 L 1537.5 -265.0 L 1546.5 -253.0 L 1548.33333333 -241.333333333 L 1543.0 -230.0 L 1537.66666667 -222.0 L 1531.5 -220.333333333 L 1524.5 -225.0 L 1517.5 -229.666666667 L 1509.33333333 -233.666666667 L 1500.0 -237.0 L 1490.66666667 -240.333333333 L 1480.5 -242.666666667 L 1469.5 -244.0 L 1458.5 -245.333333333 L 1441.33333333 -246.0 L 1418.0 -246.0 L 277.0 -246.0 L 261.666666667 -246.0 L 247.666666667 -247.0 L 235.0 -249.0 L 222.333333333 -251.0 L 212.5 -253.166666667 L 205.5 -255.5 L 198.5 -257.833333333 L 191.0 -261.0 L 183.0 -265.0 L 175.0 -269.0 L 166.666666667 -273.833333333 L 158.0 -279.5 L 149.333333333 -285.166666667 L 139.833333333 -293.166666667 L 129.5 -303.5 L 119.166666667 -313.833333333 L 108.833333333 -325.833333333 L 98.5 -339.5 L 88.1666666667 -353.166666667 L 81.6666666667 -362.666666667 L 79.0 -368.0 L 76.3333333333 -373.333333333 L 76.6666666667 -378.666666667 Z" fill="black" fill-opacity="0.25" stroke="black" stroke-width="4.0"/>
  <rect x="95.0" y="-806.0" width="565.0000000000001" height="356.00000000000006" fill="none" stroke="red" stroke-width="10.0" /><rect x="1129.0" y="-671.0" width="272.0" height="224.00000000000003" fill="none" stroke="red" stroke-width="10.0" /><rect x="859.0" y="-671.0" width="272.0" height="224.00000000000003" fill="none" stroke="red" stroke-width="10.0" /><rect x="76.0" y="-393.0" width="1472.0" height="173.00000000000003" fill="none" stroke="red" stroke-width="10.0" />
</svg>
