<svg xmlns="http://www.w3.org/2000/svg"
  viewBox="18.272727272727266 -1150.909090909632 1207.9772727258664 1067.430830040025">
  <rect x="18.272727272727266" y="-1150.909090909632" width="1207.9772727258664" height="1067.430830040025" fill="white"/>
  <path d="M 592.0 -320.0 L 585.333333333 -325.333333333 L 584.833333333 -330.333333333 L 590.5 -335.0 L 596.166666667 -339.666666667 L 603.333333333 -342.0 L 612.0 -342.0 L 622.0 -342.0 L 635.833333333 -350.833333333 L 653.5 -368.5 L 671.166666667 -386.166666667 L 682.666666667 -407.666666667 L 688.0 -433.0 L 697.333333333 -477.0 L 674.666666667 -513.0 L 620.0 -541.0 L 599.333333333 -551.0 L 572.833333333 -560.0 L 540.5 -568.0 L 508.166666667 -576.0 L 476.5 -583.0 L 445.5 -589.0 L 414.5 -595.0 L 387.166666667 -599.833333333 L 363.5 -603.5 L 339.833333333 -607.166666667 L 326.0 -610.0 L 322.0 -612.0 L 313.333333333 -615.333333333 L 310.0 -619.833333333 L 312.0 -625.5 L 314.0 -631.166666667 L 318.333333333 -634.0 L 325.0 -634.0 L 331.666666667 -634.0 L 373.0 -628.5 L 449.0 -617.5 L 525.0 -606.5 L 592.333333333 -589.333333333 L 651.0 -566.0 L 686.333333333 -552.0 L 714.666666667 -538.0 L 736.0 -524.0 L 757.333333333 -510.0 L 776.666666667 -491.666666667 L 794.0 -469.0 L 811.333333333 -445.666666667 L 818.666666667 -422.166666667 L 816.0 -398.5 L 813.333333333 -374.833333333 L 803.333333333 -356.666666667 L 786.0 -344.0 L 770.0 -332.0 L 751.5 -323.833333333 L 730.5 -319.5 L 709.5 -315.166666667 L 689.666666667 -313.0 L 671.0 -313.0 L 643.0 -313.0 L 643.0 -313.0 L 631.5 -313.0 L 623.833333333 -313.0 L 610.666666667 -315.333333333 Z M 899.0 -696.0 L 908.0 -657.0 L 908.0 -654.333333333 L 911.5 -648.0 L 918.5 -638.0 L 925.5 -628.0 L 929.0 -621.666666667 L 929.0 -619.0 L 929.0 -616.333333333 L 923.5 -613.833333333 L 912.5 -611.5 L 901.5 -609.166666667 L 894.0 -608.0 L 890.0 -608.0 L 829.0 -608.0 L 821.0 -608.0 L 813.5 -613.666666667 L 806.5 -625.0 L 799.5 -635.666666667 L 795.0 -646.333333333 L 793.0 -657.0 L 785.0 -696.0 L 707.0 -696.0 L 635.333333333 -699.0 L 570.0 -705.0 L 504.666666667 -711.0 L 458.333333333 -716.333333333 L 431.0 -721.0 L 380.333333333 -729.0 L 338.5 -743.0 L 305.5 -763.0 L 272.5 -783.0 L 250.666666667 -805.666666667 L 240.0 -831.0 L 234.666666667 -843.666666667 L 225.0 -862.5 L 211.0 -887.5 L 197.0 -912.5 L 182.333333333 -937.666666667 L 167.0 -963.0 L 151.666666667 -988.333333333 L 137.166666667 -1011.0 L 123.5 -1031.0 L 109.833333333 -1051.0 L 100.333333333 -1062.33333333 L 95.0 -1065.0 L 67.0 -1074.33333333 L 61.0 -1084.33333333 L 77.0 -1095.0 L 110.333333333 -1097.66666667 L 142.333333333 -1099.5 L 173.0 -1100.5 L 203.666666667 -1101.5 L 235.0 -1100.66666667 L 267.0 -1098.0 L 299.0 -1096.0 L 321.833333333 -1077.66666667 L 335.5 -1043.0 L 349.166666667 -1008.33333333 L 363.0 -963.0 L 377.0 -907.0 L 391.0 -850.333333333 L 408.166666667 -812.0 L 428.5 -792.0 L 448.833333333 -772.0 L 484.0 -755.333333333 L 534.0 -742.0 L 584.666666667 -728.0 L 667.0 -722.333333333 L 781.0 -725.0 L 769.0 -794.0 L 768.333333333 -797.333333333 L 765.0 -801.833333333 L 759.0 -807.5 L 753.0 -813.166666667 L 750.0 -817.666666667 L 750.0 -821.0 L 750.0 -825.0 L 755.333333333 -827.666666667 L 766.0 -829.0 L 776.666666667 -830.333333333 L 784.333333333 -831.0 L 789.0 -831.0 L 850.0 -831.0 L 857.333333333 -831.0 L 864.5 -825.833333333 L 871.5 -815.5 L 878.5 -805.166666667 L 883.333333333 -794.0 L 886.0 -782.0 L 896.0 -726.0 L 940.666666667 -726.666666667 L 971.0 -728.166666667 L 987.0 -730.5 L 1003.0 -732.833333333 L 1020.66666667 -735.333333333 L 1040.0 -738.0 L 1047.33333333 -737.333333333 L 1051.66666667 -734.0 L 1053.0 -728.0 L 1054.33333333 -722.0 L 1052.66666667 -716.666666667 L 1048.0 -712.0 L 1041.33333333 -706.666666667 L 1027.66666667 -702.666666667 L 1007.0 -700.0 L 986.333333333 -697.333333333 L 950.333333333 -696.0 Z M 880.0 -498.0 L 905.333333333 -507.333333333 L 948.333333333 -506.666666667 L 1009.0 -496.0 L 1044.33333333 -487.333333333 L 1075.5 -475.666666667 L 1102.5 -461.0 L 1129.5 -446.333333333 L 1150.33333333 -420.666666667 L 1165.0 -384.0 L 1175.0 -348.666666667 L 1178.33333333 -320.5 L 1175.0 -299.5 L 1171.66666667 -278.5 L 1160.0 -254.0 L 1140.0 -226.0 L 1120.66666667 -202.666666667 L 1098.16666667 -185.166666667 L 1072.5 -173.5 L 1046.83333333 -161.833333333 L 1015.33333333 -152.0 L 978.0 -144.0 L 940.666666667 -136.666666667 L 910.333333333 -133.166666667 L 887.0 -133.5 L 863.666666667 -133.833333333 L 838.333333333 -134.333333333 L 811.0 -135.0 L 784.333333333 -136.333333333 L 759.5 -138.5 L 736.5 -141.5 L 713.5 -144.5 L 685.666666667 -151.0 L 653.0 -161.0 L 599.0 -175.666666667 L 545.666666667 -196.0 L 493.0 -222.0 L 463.666666667 -236.666666667 L 432.5 -252.5 L 399.5 -269.5 L 366.5 -286.5 L 329.666666667 -306.666666667 L 289.0 -330.0 L 270.333333333 -341.333333333 L 249.833333333 -353.5 L 227.5 -366.5 L 205.166666667 -379.5 L 181.333333333 -392.666666667 L 156.0 -406.0 L 136.666666667 -418.0 L 117.5 -430.0 L 98.5 -442.0 L 79.5 -454.0 L 71.5 -466.166666667 L 74.5 -478.5 L 77.5 -490.833333333 L 84.6666666667 -496.666666667 L 96.0 -496.0 L 107.333333333 -495.333333333 L 143.0 -495.666666667 L 203.0 -497.0 L 263.0 -498.333333333 L 315.666666667 -498.666666667 L 361.0 -498.0 L 379.0 -484.666666667 L 378.833333333 -475.166666667 L 360.5 -469.5 L 342.166666667 -463.833333333 L 328.333333333 -456.666666667 L 319.0 -448.0 L 302.333333333 -430.666666667 L 295.0 -416.833333333 L 297.0 -406.5 L 299.0 -396.166666667 L 301.833333333 -388.166666667 L 305.5 -382.5 L 309.166666667 -376.833333333 L 314.666666667 -370.833333333 L 322.0 -364.5 L 329.333333333 -358.166666667 L 347.333333333 -345.0 L 376.0 -325.0 L 404.666666667 -305.0 L 440.666666667 -284.0 L 484.0 -262.0 L 522.666666667 -245.333333333 L 553.0 -231.666666667 L 575.0 -221.0 L 597.0 -210.333333333 L 632.666666667 -198.333333333 L 682.0 -185.0 L 718.666666667 -177.666666667 L 756.0 -173.166666667 L 794.0 -171.5 L 832.0 -169.833333333 L 870.666666667 -175.333333333 L 910.0 -188.0 L 937.333333333 -200.0 L 956.5 -210.333333333 L 967.5 -219.0 L 978.5 -227.666666667 L 991.0 -242.333333333 L 1005.0 -263.0 L 1017.0 -283.0 L 1023.83333333 -300.0 L 1025.5 -314.0 L 1027.16666667 -328.0 L 1027.33333333 -344.0 L 1026.0 -362.0 L 1025.33333333 -380.666666667 L 1023.16666667 -394.166666667 L 1019.5 -402.5 L 1015.83333333 -410.833333333 L 1011.16666667 -419.333333333 L 1005.5 -428.0 L 999.833333333 -436.666666667 L 992.5 -444.5 L 983.5 -451.5 L 974.5 -458.5 L 960.666666667 -463.333333333 L 942.0 -466.0 L 923.333333333 -468.666666667 L 905.0 -471.0 L 887.0 -473.0 L 879.0 -474.333333333 L 873.833333333 -477.666666667 L 871.5 -483.0 L 869.166666667 -488.333333333 L 872.0 -493.333333333 Z" fill="black" fill-opacity="0.25" stroke="black" stroke-width="4.0"/>
  <rect x="310.0" y="-634.0" width="508.9999999999999" height="321.0" fill="none" stroke="red" stroke-width="10.0" /><rect x="61.0" y="-1101.0" width="993.0000000000001" height="493.0" fill="none" stroke="red" stroke-width="10.0" /><rect x="71.0" y="-507.0" width="1107.0" height="374.0" fill="none" stroke="red" stroke-width="10.0" />
</svg>
