<svg xmlns="http://www.w3.org/2000/svg"
  viewBox="28.886 -554.533 1202.364 471.055">
  <rect x="28.886" y="-554.533" width="1202.364" height="471.055" fill="white"/>
  <path d="M 885 -498 L 910.333 -507.333 L 953.333 -506.667 L 1014 -496 L 1049.333 -486.667 L 1080.5 -474.833 L 1107.5 -460.5 L 1134.5 -446.167 L 1155.333 -420.667 L 1170 -384 L 1180 -348.667 L 1183.333 -320.333 L 1180 -299 L 1176.667 -277.667 L 1165 -253.333 L 1145 -226 L 1125.667 -202.667 L 1103.167 -185.167 L 1077.5 -173.5 L 1051.833 -161.833 L 1020 -152 L 982 -144 L 944.667 -136.667 L 914.333 -133.167 L 891 -133.5 L 867.667 -133.833 L 842.667 -134.333 L 816 -135 L 789.333 -136.333 L 764.5 -138.5 L 741.5 -141.5 L 718.5 -144.5 L 690.667 -151 L 658 -161 L 604 -175.667 L 550.667 -196 L 498 -222 L 468.667 -236.667 L 437.333 -252.5 L 404 -269.5 L 370.667 -286.5 L 333.667 -306.667 L 293 -330 L 274.333 -341.333 L 254 -353.5 L 232 -366.5 L 210 -379.5 L 186.333 -392.667 L 161 -406 L 141.667 -418 L 122.5 -430.167 L 103.5 -442.5 L 84.5 -454.833 L 76.5 -467.167 L 79.5 -479.5 L 82.5 -491.833 L 89.667 -497.667 L 101 -497 L 112.333 -496.333 L 148 -496.5 L 208 -497.5 L 268 -498.5 L 320.667 -498.667 L 366 -498 L 384 -484.667 L 383.667 -475.167 L 365 -469.5 L 346.333 -463.833 L 332.667 -456.667 L 324 -448 L 307.333 -430.667 L 300 -416.833 L 302 -406.5 L 304 -396.167 L 306.667 -388.167 L 310 -382.5 L 313.333 -376.833 L 318.667 -370.833 L 326 -364.5 L 333.333 -358.167 L 351.5 -345 L 380.5 -325 L 409.5 -305 L 445.667 -284 L 489 -262 L 527.667 -245.333 L 558 -231.667 L 580 -221 L 602 -210.333 L 637.667 -198.333 L 687 -185 L 723.667 -177.667 L 761 -173.167 L 799 -171.5 L 837 -169.833 L 875.667 -175.333 L 915 -188 L 942.333 -200 L 961.5 -210.333 L 972.5 -219 L 983.5 -227.667 L 996 -242.333 L 1010 -263 L 1022 -283 L 1028.833 -300 L 1030.5 -314 L 1032.167 -328 L 1032.333 -344 L 1031 -362 L 1030.333 -380.667 L 1028.167 -394.167 L 1024.5 -402.5 L 1020.833 -410.833 L 1016 -419.333 L 1010 -428 L 1004 -436.667 L 996.667 -444.5 L 988 -451.5 L 979.333 -458.5 L 965.667 -463.333 L 947 -466 L 928.333 -468.667 L 910 -471 L 892 -473 L 884 -474.333 L 878.833 -477.667 L 876.5 -483 L 874.167 -488.333 L 877 -493.333 Z" fill="black" fill-opacity="0.25" stroke="black" stroke-width="4"/>
  <rect x="76" y="-507" width="1107" height="374" fill="none" stroke="red" stroke-width="10" />
</svg>
