<svg xmlns="http://www.w3.org/2000/svg"
  viewBox="18.273 -1150.909 1207.977 1067.431">
  <rect x="18.273" y="-1150.909" width="1207.977" height="1067.431" fill="white"/>
  <path d="M 592 -320 L 585.333 -325.333 L 584.833 -330.333 L 590.5 -335 L 596.167 -339.667 L 603.333 -342 L 612 -342 L 622 -342 L 635.833 -350.833 L 653.5 -368.5 L 671.167 -386.167 L 682.667 -407.667 L 688 -433 L 697.333 -477 L 674.667 -513 L 620 -541 L 599.333 -551 L 572.833 -560 L 540.5 -568 L 508.167 -576 L 476.5 -583 L 445.5 -589 L 414.5 -595 L 387.167 -599.833 L 363.5 -603.5 L 339.833 -607.167 L 326 -610 L 322 -612 L 313.333 -615.333 L 310 -619.833 L 312 -625.5 L 314 -631.167 L 318.333 -634 L 325 -634 L 331.667 -634 L 373 -628.5 L 449 -617.5 L 525 -606.5 L 592.333 -589.333 L 651 -566 L 686.333 -552 L 714.667 -538 L 736 -524 L 757.333 -510 L 776.667 -491.667 L 794 -469 L 811.333 -445.667 L 818.667 -422.167 L 816 -398.5 L 813.333 -374.833 L 803.333 -356.667 L 786 -344 L 770 -332 L 751.5 -323.833 L 730.5 -319.5 L 709.5 -315.167 L 689.667 -313 L 671 -313 L 643 -313 L 643 -313 L 631.5 -313 L 623.833 -313 L 610.667 -315.333 Z M 899 -696 L 908 -657 L 908 -654.333 L 911.5 -648 L 918.5 -638 L 925.5 -628 L 929 -621.667 L 929 -619 L 929 -616.333 L 923.5 -613.833 L 912.5 -611.5 L 901.5 -609.167 L 894 -608 L 890 -608 L 829 -608 L 821 -608 L 813.5 -613.667 L 806.5 -625 L 799.5 -635.667 L 795 -646.333 L 793 -657 L 785 -696 L 707 -696 L 635.333 -699 L 570 -705 L 504.667 -711 L 458.333 -716.333 L 431 -721 L 380.333 -729 L 338.5 -743 L 305.5 -763 L 272.5 -783 L 250.667 -805.667 L 240 -831 L 234.667 -843.667 L 225 -862.5 L 211 -887.5 L 197 -912.5 L 182.333 -937.667 L 167 -963 L 151.667 -988.333 L 137.167 -1011 L 123.5 -1031 L 109.833 -1051 L 100.333 -1062.333 L 95 -1065 L 67 -1074.333 L 61 -1084.333 L 77 -1095 L 110.333 -1097.667 L 142.333 -1099.5 L 173 -1100.5 L 203.667 -1101.5 L 235 -1100.667 L 267 -1098 L 299 -1096 L 321.833 -1077.667 L 335.5 -1043 L 349.167 -1008.333 L 363 -963 L 377 -907 L 391 -850.333 L 408.167 -812 L 428.5 -792 L 448.833 -772 L 484 -755.333 L 534 -742 L 584.667 -728 L 667 -722.333 L 781 -725 L 769 -794 L 768.333 -797.333 L 765 -801.833 L 759 -807.5 L 753 -813.167 L 750 -817.667 L 750 -821 L 750 -825 L 755.333 -827.667 L 766 -829 L 776.667 -830.333 L 784.333 -831 L 789 -831 L 850 -831 L 857.333 -831 L 864.5 -825.833 L 871.5 -815.5 L 878.5 -805.167 L 883.333 -794 L 886 -782 L 896 -726 L 940.667 -726.667 L 971 -728.167 L 987 -730.5 L 1003 -732.833 L 1020.667 -735.333 L 1040 -738 L 1047.333 -737.333 L 1051.667 -734 L 1053 -728 L 1054.333 -722 L 1052.667 -716.667 L 1048 -712 L 1041.333 -706.667 L 1027.667 -702.667 L 1007 -700 L 986.333 -697.333 L 950.333 -696 Z M 880 -498 L 905.333 -507.333 L 948.333 -506.667 L 1009 -496 L 1044.333 -487.333 L 1075.5 -475.667 L 1102.5 -461 L 1129.5 -446.333 L 1150.333 -420.667 L 1165 -384 L 1175 -348.667 L 1178.333 -320.5 L 1175 -299.5 L 1171.667 -278.5 L 1160 -254 L 1140 -226 L 1120.667 -202.667 L 1098.167 -185.167 L 1072.5 -173.5 L 1046.833 -161.833 L 1015.333 -152 L 978 -144 L 940.667 -136.667 L 910.333 -133.167 L 887 -133.5 L 863.667 -133.833 L 838.333 -134.333 L 811 -135 L 784.333 -136.333 L 759.5 -138.5 L 736.5 -141.5 L 713.5 -144.5 L 685.667 -151 L 653 -161 L 599 -175.667 L 545.667 -196 L 493 -222 L 463.667 -236.667 L 432.5 -252.5 L 399.5 -269.5 L 366.5 -286.5 L 329.667 -306.667 L 289 -330 L 270.333 -341.333 L 249.833 -353.5 L 227.5 -366.5 L 205.167 -379.5 L 181.333 -392.667 L 156 -406 L 136.667 -418 L 117.5 -430 L 98.5 -442 L 79.5 -454 L 71.5 -466.167 L 74.5 -478.5 L 77.5 -490.833 L 84.667 -496.667 L 96 -496 L 107.333 -495.333 L 143 -495.667 L 203 -497 L 263 -498.333 L 315.667 -498.667 L 361 -498 L 379 -484.667 L 378.833 -475.167 L 360.5 -469.5 L 342.167 -463.833 L 328.333 -456.667 L 319 -448 L 302.333 -430.667 L 295 -416.833 L 297 -406.5 L 299 -396.167 L 301.833 -388.167 L 305.5 -382.5 L 309.167 -376.833 L 314.667 -370.833 L 322 -364.5 L 329.333 -358.167 L 347.333 -345 L 376 -325 L 404.667 -305 L 440.667 -284 L 484 -262 L 522.667 -245.333 L 553 -231.667 L 575 -221 L 597 -210.333 L 632.667 -198.333 L 682 -185 L 718.667 -177.667 L 756 -173.167 L 794 -171.5 L 832 -169.833 L 870.667 -175.333 L 910 -188 L 937.333 -200 L 956.5 -210.333 L 967.5 -219 L 978.5 -227.667 L 991 -242.333 L 1005 -263 L 1017 -283 L 1023.833 -300 L 1025.5 -314 L 1027.167 -328 L 1027.333 -344 L 1026 -362 L 1025.333 -380.667 L 1023.167 -394.167 L 1019.5 -402.5 L 1015.833 -410.833 L 1011.167 -419.333 L 1005.5 -428 L 999.833 -436.667 L 992.5 -444.5 L 983.5 -451.5 L 974.5 -458.5 L 960.667 -463.333 L 942 -466 L 923.333 -468.667 L 905 -471 L 887 -473 L 879 -474.333 L 873.833 -477.667 L 871.5 -483 L 869.167 -488.333 L 872 -493.333 Z" fill="black" fill-opacity="0.25" stroke="black" stroke-width="4"/>
  <rect x="310" y="-634" width="509" height="321" fill="none" stroke="red" stroke-width="10" /><rect x="61" y="-1101" width="993" height="493" fill="none" stroke="red" stroke-width="10" /><rect x="71" y="-507" width="1107" height="374" fill="none" stroke="red" stroke-width="10" />
</svg>
