<svg xmlns="http://www.w3.org/2000/svg"
  viewBox="-0.24999999994374633 -1421.0625000013843 1226.4999999985375 1337.5842391317774">
  <rect x="-0.24999999994374633" y="-1421.0625000013843" width="1226.4999999985375" height="1337.5842391317774" fill="white"/>
  <path d="M 899.0 -966.0 L 908.0 -928.0 L 908.0 -925.333333333 L 911.5 -918.833333333 L 918.5 -908.5 L 925.5 -898.166666667 L 929.0 -891.666666667 L 929.0 -889.0 L 929.0 -886.333333333 L 923.5 -884.0 L 912.5 -882.0 L 901.5 -880.0 L 894.0 -879.0 L 890.0 -879.0 L 829.0 -879.0 L 821.0 -879.0 L 813.5 -884.666666667 L 806.5 -896.0 L 799.5 -907.333333333 L 795.0 -918.0 L 793.0 -928.0 L 785.0 -966.0 L 707.0 -966.0 L 635.333333333 -969.166666667 L 570.0 -975.5 L 504.666666667 -981.833333333 L 458.333333333 -987.0 L 431.0 -991.0 L 327.666666667 -1007.0 L 264.0 -1043.66666667 L 240.0 -1101.0 L 234.666666667 -1113.66666667 L 225.0 -1132.5 L 211.0 -1157.5 L 197.0 -1182.5 L 182.333333333 -1207.66666667 L 167.0 -1233.0 L 151.666666667 -1258.33333333 L 137.166666667 -1281.0 L 123.5 -1301.0 L 109.833333333 -1321.0 L 100.333333333 -1332.33333333 L 95.0 -1335.0 L 67.6666666667 -1344.33333333 L 61.6666666667 -1354.66666667 L 77.0 -1366.0 L 146.333333333 -1372.0 L 209.666666667 -1372.66666667 L 267.0 -1368.0 L 299.0 -1366.0 L 321.833333333 -1347.83333333 L 335.5 -1313.5 L 349.166666667 -1279.16666667 L 363.0 -1234.0 L 377.0 -1178.0 L 391.0 -1122.0 L 408.166666667 -1083.66666667 L 428.5 -1063.0 L 448.833333333 -1042.33333333 L 484.0 -1025.33333333 L 534.0 -1012.0 L 583.333333333 -998.666666667 L 665.666666667 -993.333333333 L 781.0 -996.0 L 769.0 -1065.0 L 768.333333333 -1068.33333333 L 765.0 -1072.66666667 L 759.0 -1078.0 L 753.0 -1083.33333333 L 750.0 -1087.66666667 L 750.0 -1091.0 L 750.0 -1095.0 L 755.333333333 -1097.66666667 L 766.0 -1099.0 L 776.666666667 -1100.33333333 L 784.333333333 -1101.0 L 789.0 -1101.0 L 850.0 -1101.0 L 857.333333333 -1101.0 L 864.5 -1095.83333333 L 871.5 -1085.5 L 878.5 -1075.16666667 L 883.333333333 -1064.0 L 886.0 -1052.0 L 896.0 -996.0 L 940.666666667 -996.0 L 971.0 -997.5 L 987.0 -1000.5 L 1003.0 -1003.5 L 1020.66666667 -1006.33333333 L 1040.0 -1009.0 L 1047.33333333 -1008.33333333 L 1051.66666667 -1005.0 L 1053.0 -999.0 L 1054.33333333 -993.0 L 1052.66666667 -987.333333333 L 1048.0 -982.0 L 1041.33333333 -976.0 L 1027.66666667 -971.833333333 L 1007.0 -969.5 L 986.333333333 -967.166666667 L 950.333333333 -966.0 Z M 562.0 -470.0 L 555.333333333 -474.666666667 L 554.833333333 -479.5 L 560.5 -484.5 L 566.166666667 -489.5 L 573.666666667 -492.0 L 583.0 -492.0 L 593.0 -492.0 L 606.666666667 -500.833333333 L 624.0 -518.5 L 641.333333333 -536.166666667 L 652.666666667 -557.666666667 L 658.0 -583.0 L 667.333333333 -627.0 L 644.666666667 -663.0 L 590.0 -691.0 L 569.333333333 -701.0 L 542.833333333 -710.0 L 510.5 -718.0 L 478.166666667 -726.0 L 446.5 -733.0 L 415.5 -739.0 L 384.5 -745.0 L 357.0 -750.0 L 333.0 -754.0 L 309.0 -758.0 L 295.333333333 -760.666666667 L 292.0 -762.0 L 284.0 -764.666666667 L 280.833333333 -768.833333333 L 282.5 -774.5 L 284.166666667 -780.166666667 L 288.333333333 -783.0 L 295.0 -783.0 L 301.666666667 -783.0 L 343.0 -777.666666667 L 419.0 -767.0 L 495.0 -756.333333333 L 562.666666667 -739.333333333 L 622.0 -716.0 L 657.333333333 -702.0 L 685.5 -688.166666667 L 706.5 -674.5 L 727.5 -660.833333333 L 746.666666667 -642.0 L 764.0 -618.0 L 781.333333333 -594.666666667 L 788.666666667 -571.166666667 L 786.0 -547.5 L 783.333333333 -523.833333333 L 773.0 -505.666666667 L 755.0 -493.0 L 739.666666667 -481.0 L 721.5 -473.0 L 700.5 -469.0 L 679.5 -465.0 L 659.666666667 -463.0 L 641.0 -463.0 L 613.0 -463.0 L 613.0 -463.0 L 601.5 -463.0 L 593.833333333 -463.0 L 580.666666667 -465.333333333 Z M 345.0 -560.0 L 319.666666667 -550.666666667 L 277.0 -551.333333333 L 217.0 -562.0 L 181.666666667 -570.666666667 L 150.5 -582.333333333 L 123.5 -597.0 L 96.5 -611.666666667 L 75.6666666667 -637.333333333 L 61.0 -674.0 L 51.0 -709.333333333 L 47.6666666667 -737.5 L 51.0 -758.5 L 54.3333333333 -779.5 L 66.0 -804.0 L 86.0 -832.0 L 105.333333333 -855.333333333 L 127.833333333 -873.0 L 153.5 -885.0 L 179.166666667 -897.0 L 210.666666667 -906.666666667 L 248.0 -914.0 L 285.333333333 -921.333333333 L 315.666666667 -925.0 L 339.0 -925.0 L 362.333333333 -925.0 L 387.666666667 -924.333333333 L 415.0 -923.0 L 441.666666667 -921.666666667 L 466.333333333 -919.5 L 489.0 -916.5 L 511.666666667 -913.5 L 539.333333333 -907.0 L 572.0 -897.0 L 626.0 -882.333333333 L 679.333333333 -862.0 L 732.0 -836.0 L 761.333333333 -821.333333333 L 792.666666667 -805.5 L 826.0 -788.5 L 859.333333333 -771.5 L 896.333333333 -751.333333333 L 937.0 -728.0 L 955.666666667 -716.666666667 L 976.0 -704.666666667 L 998.0 -692.0 L 1020.0 -679.333333333 L 1044.0 -666.333333333 L 1070.0 -653.0 L 1089.33333333 -641.0 L 1108.33333333 -628.833333333 L 1127.0 -616.5 L 1145.66666667 -604.166666667 L 1153.5 -591.833333333 L 1150.5 -579.5 L 1147.5 -567.166666667 L 1140.33333333 -561.333333333 L 1129.0 -562.0 L 1117.66666667 -562.666666667 L 1082.0 -562.333333333 L 1022.0 -561.0 L 962.0 -559.666666667 L 909.666666667 -559.333333333 L 865.0 -560.0 L 847.0 -573.333333333 L 847.166666667 -582.833333333 L 865.5 -588.5 L 883.833333333 -594.166666667 L 897.333333333 -601.666666667 L 906.0 -611.0 L 922.666666667 -628.333333333 L 930.166666667 -642.0 L 928.5 -652.0 L 926.833333333 -662.0 L 924.166666667 -669.833333333 L 920.5 -675.5 L 916.833333333 -681.166666667 L 911.333333333 -687.166666667 L 904.0 -693.5 L 896.666666667 -699.833333333 L 878.5 -713.0 L 849.5 -733.0 L 820.5 -753.0 L 784.666666667 -774.0 L 742.0 -796.0 L 703.333333333 -812.666666667 L 673.0 -826.333333333 L 651.0 -837.0 L 629.0 -847.666666667 L 593.0 -859.666666667 L 543.0 -873.0 L 506.333333333 -880.333333333 L 469.166666667 -884.833333333 L 431.5 -886.5 L 393.833333333 -888.166666667 L 355.333333333 -882.666666667 L 316.0 -870.0 L 288.666666667 -858.0 L 269.333333333 -847.666666667 L 258.0 -839.0 L 246.666666667 -830.333333333 L 234.333333333 -815.666666667 L 221.0 -795.0 L 209.0 -775.0 L 202.0 -758.0 L 200.0 -744.0 L 198.0 -730.0 L 197.666666667 -714.0 L 199.0 -696.0 L 199.666666667 -677.333333333 L 201.833333333 -663.833333333 L 205.5 -655.5 L 209.166666667 -647.166666667 L 214.0 -638.666666667 L 220.0 -630.0 L 226.0 -621.333333333 L 233.5 -613.5 L 242.5 -606.5 L 251.5 -599.5 L 265.333333333 -594.666666667 L 284.0 -592.0 L 302.666666667 -589.333333333 L 321.0 -587.0 L 339.0 -585.0 L 347.0 -583.666666667 L 352.0 -580.333333333 L 354.0 -575.0 L 356.0 -569.666666667 L 353.0 -564.666666667 Z M 880.0 -498.0 L 905.333333333 -507.333333333 L 948.333333333 -506.666666667 L 1009.0 -496.0 L 1044.33333333 -487.333333333 L 1075.5 -475.666666667 L 1102.5 -461.0 L 1129.5 -446.333333333 L 1150.33333333 -420.666666667 L 1165.0 -384.0 L 1175.0 -348.666666667 L 1178.33333333 -320.5 L 1175.0 -299.5 L 1171.66666667 -278.5 L 1160.0 -254.0 L 1140.0 -226.0 L 1120.66666667 -202.666666667 L 1098.16666667 -185.166666667 L 1072.5 -173.5 L 1046.83333333 -161.833333333 L 1015.33333333 -152.0 L 978.0 -144.0 L 940.666666667 -136.666666667 L 910.333333333 -133.166666667 L 887.0 -133.5 L 863.666666667 -133.833333333 L 838.333333333 -134.333333333 L 811.0 -135.0 L 784.333333333 -136.333333333 L 759.5 -138.5 L 736.5 -141.5 L 713.5 -144.5 L 685.666666667 -151.0 L 653.0 -161.0 L 599.0 -175.666666667 L 545.666666667 -196.0 L 493.0 -222.0 L 463.666666667 -236.666666667 L 432.5 -252.5 L 399.5 -269.5 L 366.5 -286.5 L 329.666666667 -306.666666667 L 289.0 -330.0 L 270.333333333 -341.333333333 L 249.833333333 -353.5 L 227.5 -366.5 L 205.166666667 -379.5 L 181.333333333 -392.666666667 L 156.0 -406.0 L 136.666666667 -418.0 L 117.5 -430.0 L 98.5 -442.0 L 79.5 -454.0 L 71.5 -466.166666667 L 74.5 -478.5 L 77.5 -490.833333333 L 84.6666666667 -496.666666667 L 96.0 -496.0 L 107.333333333 -495.333333333 L 143.0 -495.666666667 L 203.0 -497.0 L 263.0 -498.333333333 L 315.666666667 -498.666666667 L 361.0 -498.0 L 379.0 -484.666666667 L 378.833333333 -475.166666667 L 360.5 -469.5 L 342.166666667 -463.833333333 L 328.333333333 -456.666666667 L 319.0 -448.0 L 302.333333333 -430.666666667 L 295.0 -416.833333333 L 297.0 -406.5 L 299.0 -396.166666667 L 301.833333333 -388.166666667 L 305.5 -382.5 L 309.166666667 -376.833333333 L 314.666666667 -370.833333333 L 322.0 -364.5 L 329.333333333 -358.166666667 L 347.333333333 -345.0 L 376.0 -325.0 L 404.666666667 -305.0 L 440.666666667 -284.0 L 484.0 -262.0 L 522.666666667 -245.333333333 L 553.0 -231.666666667 L 575.0 -221.0 L 597.0 -210.333333333 L 632.666666667 -198.333333333 L 682.0 -185.0 L 718.666666667 -177.666666667 L 756.0 -173.166666667 L 794.0 -171.5 L 832.0 -169.833333333 L 870.666666667 -175.333333333 L 910.0 -188.0 L 937.333333333 -200.0 L 956.5 -210.333333333 L 967.5 -219.0 L 978.5 -227.666666667 L 991.0 -242.333333333 L 1005.0 -263.0 L 1017.0 -283.0 L 1023.83333333 -300.0 L 1025.5 -314.0 L 1027.16666667 -328.0 L 1027.33333333 -344.0 L 1026.0 -362.0 L 1025.33333333 -380.666666667 L 1023.16666667 -394.166666667 L 1019.5 -402.5 L 1015.83333333 -410.833333333 L 1011.16666667 -419.333333333 L 1005.5 -428.0 L 999.833333333 -436.666666667 L 992.5 -444.5 L 983.5 -451.5 L 974.5 -458.5 L 960.666666667 -463.333333333 L 942.0 -466.0 L 923.333333333 -468.666666667 L 905.0 -471.0 L 887.0 -473.0 L 879.0 -474.333333333 L 873.833333333 -477.666666667 L 871.5 -483.0 L 869.166666667 -488.333333333 L 872.0 -493.333333333 Z" fill="black" fill-opacity="0.25" stroke="black" stroke-width="4.0"/>
  <rect x="62.0" y="-1373.0" width="992.0" height="494.0" fill="none" stroke="red" stroke-width="10.0" /><rect x="281.0" y="-783.0" width="508.0" height="320.0" fill="none" stroke="red" stroke-width="10.0" /><rect x="48.0" y="-925.0" width="1105.0" height="374.0" fill="none" stroke="red" stroke-width="10.0" /><rect x="71.0" y="-507.0" width="1107.0" height="374.0" fill="none" stroke="red" stroke-width="10.0" />
</svg>
