<svg xmlns="http://www.w3.org/2000/svg"
  viewBox="23.886 -861 1202.364 777.522">
  <rect x="23.886" y="-861" width="1202.364" height="777.522" fill="white"/>
  <path d="M 533 -463 L 525.667 -469 L 525.333 -474.5 L 532 -479.5 L 538.667 -484.5 L 547 -487 L 557 -487 L 567.667 -487 L 582.833 -496.667 L 602.5 -516 L 622.167 -535.333 L 635 -559.667 L 641 -589 L 651 -638.333 L 625.333 -678 L 564 -708 L 540.667 -719.333 L 511.333 -729.5 L 476 -738.5 L 440.667 -747.5 L 405.667 -755.333 L 371 -762 L 336.333 -768.667 L 305.833 -774 L 279.5 -778 L 253.167 -782 L 237.667 -785 L 233 -787 L 223.667 -790.333 L 220.167 -795.167 L 222.5 -801.5 L 224.833 -807.833 L 230 -811 L 238 -811 L 241.333 -811 L 256 -809.5 L 282 -806.5 L 308 -803.5 L 339 -798.833 L 375 -792.5 L 411 -786.167 L 449.333 -778.333 L 490 -769 L 530.667 -759.667 L 567.333 -748.667 L 600 -736 L 639.333 -720.667 L 670.667 -705.167 L 694 -689.5 L 717.333 -673.833 L 738.667 -653.333 L 758 -628 L 777.333 -601.333 L 785.5 -575 L 782.5 -549 L 779.5 -523 L 768.333 -503 L 749 -489 L 731.667 -475.667 L 711.333 -466.667 L 688 -462 L 664.667 -457.333 L 642.667 -455 L 622 -455 L 600.667 -455 L 585.833 -455.167 L 577.5 -455.5 L 569.167 -455.833 L 554.333 -458.333 Z M 880 -498 L 905.333 -507.333 L 948.333 -506.667 L 1009 -496 L 1044.333 -486.667 L 1075.5 -474.833 L 1102.5 -460.5 L 1129.5 -446.167 L 1150.333 -420.667 L 1165 -384 L 1175 -348.667 L 1178.333 -320.333 L 1175 -299 L 1171.667 -277.667 L 1160 -253.333 L 1140 -226 L 1120.667 -202.667 L 1098.167 -185.167 L 1072.5 -173.5 L 1046.833 -161.833 L 1015.333 -152 L 978 -144 L 940.667 -136.667 L 910.333 -133.167 L 887 -133.5 L 863.667 -133.833 L 838.333 -134.333 L 811 -135 L 784.333 -136.333 L 759.5 -138.5 L 736.5 -141.5 L 713.5 -144.5 L 685.667 -151 L 653 -161 L 599 -175.667 L 545.667 -196 L 493 -222 L 463.667 -236.667 L 432.5 -252.5 L 399.5 -269.5 L 366.5 -286.5 L 329.667 -306.667 L 289 -330 L 270.333 -341.333 L 249.833 -353.5 L 227.5 -366.5 L 205.167 -379.5 L 181.333 -392.667 L 156 -406 L 136.667 -418 L 117.5 -430.167 L 98.5 -442.5 L 79.5 -454.833 L 71.5 -467.167 L 74.5 -479.5 L 77.5 -491.833 L 84.667 -497.667 L 96 -497 L 107.333 -496.333 L 143 -496.5 L 203 -497.5 L 263 -498.5 L 315.667 -498.667 L 361 -498 L 379 -484.667 L 378.833 -475.167 L 360.5 -469.5 L 342.167 -463.833 L 328.333 -456.667 L 319 -448 L 302.333 -430.667 L 295 -416.833 L 297 -406.5 L 299 -396.167 L 301.833 -388.167 L 305.5 -382.5 L 309.167 -376.833 L 314.667 -370.833 L 322 -364.5 L 329.333 -358.167 L 347.333 -345 L 376 -325 L 404.667 -305 L 440.667 -284 L 484 -262 L 522.667 -245.333 L 553 -231.667 L 575 -221 L 597 -210.333 L 632.667 -198.333 L 682 -185 L 718.667 -177.667 L 756 -173.167 L 794 -171.5 L 832 -169.833 L 870.667 -175.333 L 910 -188 L 937.333 -200 L 956.5 -210.333 L 967.5 -219 L 978.5 -227.667 L 991 -242.333 L 1005 -263 L 1017 -283 L 1023.833 -300 L 1025.5 -314 L 1027.167 -328 L 1027.333 -344 L 1026 -362 L 1025.333 -380.667 L 1023.167 -394.167 L 1019.5 -402.5 L 1015.833 -410.833 L 1011.167 -419.333 L 1005.5 -428 L 999.833 -436.667 L 992.5 -444.5 L 983.5 -451.5 L 974.5 -458.5 L 960.667 -463.333 L 942 -466 L 923.333 -468.667 L 905 -471 L 887 -473 L 879 -474.333 L 873.833 -477.667 L 871.5 -483 L 869.167 -488.333 L 872 -493.333 Z" fill="black" fill-opacity="0.25" stroke="black" stroke-width="4"/>
  <rect x="220" y="-811" width="565" height="356" fill="none" stroke="red" stroke-width="10" /><rect x="71" y="-507" width="1107" height="374" fill="none" stroke="red" stroke-width="10" />
</svg>
