<svg xmlns="http://www.w3.org/2000/svg"
  viewBox="-0.25 -1421.063 1226.5 1337.584">
  <rect x="-0.25" y="-1421.063" width="1226.5" height="1337.584" fill="white"/>
  <path d="M 899 -966 L 908 -928 L 908 -925.333 L 911.5 -918.833 L 918.5 -908.5 L 925.5 -898.167 L 929 -891.667 L 929 -889 L 929 -886.333 L 923.5 -884 L 912.5 -882 L 901.5 -880 L 894 -879 L 890 -879 L 829 -879 L 821 -879 L 813.5 -884.667 L 806.5 -896 L 799.5 -907.333 L 795 -918 L 793 -928 L 785 -966 L 707 -966 L 635.333 -969.167 L 570 -975.5 L 504.667 -981.833 L 458.333 -987 L 431 -991 L 327.667 -1007 L 264 -1043.667 L 240 -1101 L 234.667 -1113.667 L 225 -1132.5 L 211 -1157.5 L 197 -1182.5 L 182.333 -1207.667 L 167 -1233 L 151.667 -1258.333 L 137.167 -1281 L 123.5 -1301 L 109.833 -1321 L 100.333 -1332.333 L 95 -1335 L 67.667 -1344.333 L 61.667 -1354.667 L 77 -1366 L 146.333 -1372 L 209.667 -1372.667 L 267 -1368 L 299 -1366 L 321.833 -1347.833 L 335.5 -1313.5 L 349.167 -1279.167 L 363 -1234 L 377 -1178 L 391 -1122 L 408.167 -1083.667 L 428.5 -1063 L 448.833 -1042.333 L 484 -1025.333 L 534 -1012 L 583.333 -998.667 L 665.667 -993.333 L 781 -996 L 769 -1065 L 768.333 -1068.333 L 765 -1072.667 L 759 -1078 L 753 -1083.333 L 750 -1087.667 L 750 -1091 L 750 -1095 L 755.333 -1097.667 L 766 -1099 L 776.667 -1100.333 L 784.333 -1101 L 789 -1101 L 850 -1101 L 857.333 -1101 L 864.5 -1095.833 L 871.5 -1085.5 L 878.5 -1075.167 L 883.333 -1064 L 886 -1052 L 896 -996 L 940.667 -996 L 971 -997.5 L 987 -1000.5 L 1003 -1003.5 L 1020.667 -1006.333 L 1040 -1009 L 1047.333 -1008.333 L 1051.667 -1005 L 1053 -999 L 1054.333 -993 L 1052.667 -987.333 L 1048 -982 L 1041.333 -976 L 1027.667 -971.833 L 1007 -969.5 L 986.333 -967.167 L 950.333 -966 Z M 562 -470 L 555.333 -474.667 L 554.833 -479.5 L 560.5 -484.5 L 566.167 -489.5 L 573.667 -492 L 583 -492 L 593 -492 L 606.667 -500.833 L 624 -518.5 L 641.333 -536.167 L 652.667 -557.667 L 658 -583 L 667.333 -627 L 644.667 -663 L 590 -691 L 569.333 -701 L 542.833 -710 L 510.5 -718 L 478.167 -726 L 446.5 -733 L 415.5 -739 L 384.5 -745 L 357 -750 L 333 -754 L 309 -758 L 295.333 -760.667 L 292 -762 L 284 -764.667 L 280.833 -768.833 L 282.5 -774.5 L 284.167 -780.167 L 288.333 -783 L 295 -783 L 301.667 -783 L 343 -777.667 L 419 -767 L 495 -756.333 L 562.667 -739.333 L 622 -716 L 657.333 -702 L 685.5 -688.167 L 706.5 -674.5 L 727.5 -660.833 L 746.667 -642 L 764 -618 L 781.333 -594.667 L 788.667 -571.167 L 786 -547.5 L 783.333 -523.833 L 773 -505.667 L 755 -493 L 739.667 -481 L 721.5 -473 L 700.5 -469 L 679.5 -465 L 659.667 -463 L 641 -463 L 613 -463 L 613 -463 L 601.5 -463 L 593.833 -463 L 580.667 -465.333 Z M 345 -560 L 319.667 -550.667 L 277 -551.333 L 217 -562 L 181.667 -570.667 L 150.5 -582.333 L 123.5 -597 L 96.5 -611.667 L 75.667 -637.333 L 61 -674 L 51 -709.333 L 47.667 -737.5 L 51 -758.5 L 54.333 -779.5 L 66 -804 L 86 -832 L 105.333 -855.333 L 127.833 -873 L 153.5 -885 L 179.167 -897 L 210.667 -906.667 L 248 -914 L 285.333 -921.333 L 315.667 -925 L 339 -925 L 362.333 -925 L 387.667 -924.333 L 415 -923 L 441.667 -921.667 L 466.333 -919.5 L 489 -916.5 L 511.667 -913.5 L 539.333 -907 L 572 -897 L 626 -882.333 L 679.333 -862 L 732 -836 L 761.333 -821.333 L 792.667 -805.5 L 826 -788.5 L 859.333 -771.5 L 896.333 -751.333 L 937 -728 L 955.667 -716.667 L 976 -704.667 L 998 -692 L 1020 -679.333 L 1044 -666.333 L 1070 -653 L 1089.333 -641 L 1108.333 -628.833 L 1127 -616.5 L 1145.667 -604.167 L 1153.5 -591.833 L 1150.5 -579.5 L 1147.5 -567.167 L 1140.333 -561.333 L 1129 -562 L 1117.667 -562.667 L 1082 -562.333 L 1022 -561 L 962 -559.667 L 909.667 -559.333 L 865 -560 L 847 -573.333 L 847.167 -582.833 L 865.5 -588.5 L 883.833 -594.167 L 897.333 -601.667 L 906 -611 L 922.667 -628.333 L 930.167 -642 L 928.5 -652 L 926.833 -662 L 924.167 -669.833 L 920.5 -675.5 L 916.833 -681.167 L 911.333 -687.167 L 904 -693.5 L 896.667 -699.833 L 878.5 -713 L 849.5 -733 L 820.5 -753 L 784.667 -774 L 742 -796 L 703.333 -812.667 L 673 -826.333 L 651 -837 L 629 -847.667 L 593 -859.667 L 543 -873 L 506.333 -880.333 L 469.167 -884.833 L 431.5 -886.5 L 393.833 -888.167 L 355.333 -882.667 L 316 -870 L 288.667 -858 L 269.333 -847.667 L 258 -839 L 246.667 -830.333 L 234.333 -815.667 L 221 -795 L 209 -775 L 202 -758 L 200 -744 L 198 -730 L 197.667 -714 L 199 -696 L 199.667 -677.333 L 201.833 -663.833 L 205.5 -655.5 L 209.167 -647.167 L 214 -638.667 L 220 -630 L 226 -621.333 L 233.5 -613.5 L 242.5 -606.5 L 251.5 -599.5 L 265.333 -594.667 L 284 -592 L 302.667 -589.333 L 321 -587 L 339 -585 L 347 -583.667 L 352 -580.333 L 354 -575 L 356 -569.667 L 353 -564.667 Z M 880 -498 L 905.333 -507.333 L 948.333 -506.667 L 1009 -496 L 1044.333 -487.333 L 1075.5 -475.667 L 1102.5 -461 L 1129.5 -446.333 L 1150.333 -420.667 L 1165 -384 L 1175 -348.667 L 1178.333 -320.5 L 1175 -299.5 L 1171.667 -278.5 L 1160 -254 L 1140 -226 L 1120.667 -202.667 L 1098.167 -185.167 L 1072.5 -173.5 L 1046.833 -161.833 L 1015.333 -152 L 978 -144 L 940.667 -136.667 L 910.333 -133.167 L 887 -133.5 L 863.667 -133.833 L 838.333 -134.333 L 811 -135 L 784.333 -136.333 L 759.5 -138.5 L 736.5 -141.5 L 713.5 -144.5 L 685.667 -151 L 653 -161 L 599 -175.667 L 545.667 -196 L 493 -222 L 463.667 -236.667 L 432.5 -252.5 L 399.5 -269.5 L 366.5 -286.5 L 329.667 -306.667 L 289 -330 L 270.333 -341.333 L 249.833 -353.5 L 227.5 -366.5 L 205.167 -379.5 L 181.333 -392.667 L 156 -406 L 136.667 -418 L 117.5 -430 L 98.5 -442 L 79.5 -454 L 71.5 -466.167 L 74.5 -478.5 L 77.5 -490.833 L 84.667 -496.667 L 96 -496 L 107.333 -495.333 L 143 -495.667 L 203 -497 L 263 -498.333 L 315.667 -498.667 L 361 -498 L 379 -484.667 L 378.833 -475.167 L 360.5 -469.5 L 342.167 -463.833 L 328.333 -456.667 L 319 -448 L 302.333 -430.667 L 295 -416.833 L 297 -406.5 L 299 -396.167 L 301.833 -388.167 L 305.5 -382.5 L 309.167 -376.833 L 314.667 -370.833 L 322 -364.5 L 329.333 -358.167 L 347.333 -345 L 376 -325 L 404.667 -305 L 440.667 -284 L 484 -262 L 522.667 -245.333 L 553 -231.667 L 575 -221 L 597 -210.333 L 632.667 -198.333 L 682 -185 L 718.667 -177.667 L 756 -173.167 L 794 -171.5 L 832 -169.833 L 870.667 -175.333 L 910 -188 L 937.333 -200 L 956.5 -210.333 L 967.5 -219 L 978.5 -227.667 L 991 -242.333 L 1005 -263 L 1017 -283 L 1023.833 -300 L 1025.5 -314 L 1027.167 -328 L 1027.333 -344 L 1026 -362 L 1025.333 -380.667 L 1023.167 -394.167 L 1019.5 -402.5 L 1015.833 -410.833 L 1011.167 -419.333 L 1005.5 -428 L 999.833 -436.667 L 992.5 -444.5 L 983.5 -451.5 L 974.5 -458.5 L 960.667 -463.333 L 942 -466 L 923.333 -468.667 L 905 -471 L 887 -473 L 879 -474.333 L 873.833 -477.667 L 871.5 -483 L 869.167 -488.333 L 872 -493.333 Z" fill="black" fill-opacity="0.25" stroke="black" stroke-width="4"/>
  <rect x="62" y="-1373" width="992" height="494" fill="none" stroke="red" stroke-width="10" /><rect x="281" y="-783" width="508" height="320" fill="none" stroke="red" stroke-width="10" /><rect x="48" y="-925" width="1105" height="374" fill="none" stroke="red" stroke-width="10" /><rect x="71" y="-507" width="1107" height="374" fill="none" stroke="red" stroke-width="10" />
</svg>
