<svg xmlns="http://www.w3.org/2000/svg"
  viewBox="28.75 -1009.522 1202.5 926.043">
  <rect x="28.75" y="-1009.522" width="1202.5" height="926.043" fill="white"/>
  <path d="M 375 -595 L 349.667 -585.667 L 306.667 -586 L 246 -596 L 210.667 -604.667 L 179.5 -616.333 L 152.5 -631 L 125.5 -645.667 L 104.667 -671.333 L 90 -708 L 80 -743.333 L 76.667 -771.5 L 80 -792.5 L 83.333 -813.5 L 95 -838 L 115 -866 L 134.333 -889.333 L 156.833 -907 L 182.5 -919 L 208.167 -931 L 239.667 -941 L 277 -949 L 314.333 -956.333 L 344.667 -959.833 L 368 -959.5 L 391.333 -959.167 L 416.667 -958.333 L 444 -957 L 470.667 -955.667 L 495.5 -953.5 L 518.5 -950.5 L 541.5 -947.5 L 569.333 -941 L 602 -931 L 656 -916.333 L 709.333 -896 L 762 -870 L 791.333 -855.333 L 822.5 -839.5 L 855.5 -822.5 L 888.5 -805.5 L 925.333 -785.333 L 966 -762 L 984.667 -750.667 L 1005.167 -738.667 L 1027.5 -726 L 1049.833 -713.333 L 1073.667 -700.333 L 1099 -687 L 1118.333 -675 L 1137.5 -662.833 L 1156.5 -650.5 L 1175.5 -638.167 L 1183.5 -625.833 L 1180.5 -613.5 L 1177.5 -601.167 L 1170.333 -595.333 L 1159 -596 L 1147.667 -596.667 L 1111.833 -596.333 L 1051.5 -595 L 991.167 -593.667 L 938.667 -593.667 L 894 -595 L 876 -608.333 L 876.167 -617.833 L 894.5 -623.5 L 912.833 -629.167 L 926.667 -636.333 L 936 -645 L 952.667 -662.333 L 960 -676 L 958 -686 L 956 -696 L 953.167 -703.833 L 949.5 -709.5 L 945.833 -715.167 L 940.333 -721.333 L 933 -728 L 925.667 -734.667 L 907.5 -747.833 L 878.5 -767.5 L 849.5 -787.167 L 813.667 -808 L 771 -830 L 732.333 -846.667 L 702 -860.333 L 680 -871 L 658 -881.667 L 622.333 -893.667 L 573 -907 L 536.333 -914.333 L 499 -918.833 L 461 -920.5 L 423 -922.167 L 384.333 -916.667 L 345 -904 L 317.667 -892 L 298.5 -881.833 L 287.5 -873.5 L 276.5 -865.167 L 264 -850.333 L 250 -829 L 238 -809 L 231.167 -792.167 L 229.5 -778.5 L 227.833 -764.833 L 227.667 -748.667 L 229 -730 L 229.667 -711.333 L 231.833 -698 L 235.5 -690 L 239.167 -682 L 243.833 -673.667 L 249.5 -665 L 255.167 -656.333 L 262.5 -648.5 L 271.5 -641.5 L 280.5 -634.5 L 294.333 -629.5 L 313 -626.5 L 331.667 -623.5 L 350 -621 L 368 -619 L 376 -617.667 L 381.167 -614.5 L 383.5 -609.5 L 385.833 -604.5 L 383 -599.667 Z M 885 -498 L 910.333 -507.333 L 953.333 -506.667 L 1014 -496 L 1049.333 -487.333 L 1080.5 -475.667 L 1107.5 -461 L 1134.5 -446.333 L 1155.333 -420.667 L 1170 -384 L 1180 -348 L 1183.333 -319.667 L 1180 -299 L 1176.667 -278.333 L 1165 -254 L 1145 -226 L 1125.667 -202.667 L 1103.167 -185.167 L 1077.5 -173.5 L 1051.833 -161.833 L 1020 -152 L 982 -144 L 944.667 -136.667 L 914.333 -133.167 L 891 -133.5 L 867.667 -133.833 L 842.667 -134.333 L 816 -135 L 789.333 -136.333 L 764.5 -138.5 L 741.5 -141.5 L 718.5 -144.5 L 690.667 -151 L 658 -161 L 604 -175.667 L 550.667 -196 L 498 -222 L 468.667 -236.667 L 437.333 -252.5 L 404 -269.5 L 370.667 -286.5 L 333.667 -306.667 L 293 -330 L 274.333 -341.333 L 254 -353.5 L 232 -366.5 L 210 -379.5 L 186.333 -392.667 L 161 -406 L 141.667 -418 L 122.5 -430.167 L 103.5 -442.5 L 84.5 -454.833 L 76.5 -467 L 79.5 -479 L 82.5 -491 L 89.667 -496.667 L 101 -496 L 112.333 -495.333 L 148 -495.667 L 208 -497 L 268 -498.333 L 320.667 -498.667 L 366 -498 L 384 -484.667 L 383.667 -475.167 L 365 -469.5 L 346.333 -463.833 L 332.667 -456.667 L 324 -448 L 307.333 -430.667 L 300 -416.833 L 302 -406.5 L 304 -396.167 L 306.667 -388.167 L 310 -382.5 L 313.333 -376.833 L 318.667 -370.833 L 326 -364.5 L 333.333 -358.167 L 351.5 -345 L 380.5 -325 L 409.5 -305 L 445.667 -284 L 489 -262 L 527.667 -245.333 L 558 -231.667 L 580 -221 L 602 -210.333 L 637.667 -198.333 L 687 -185 L 723.667 -177.667 L 761 -173.167 L 799 -171.5 L 837 -169.833 L 875.667 -175.333 L 915 -188 L 942.333 -200 L 961.5 -210.333 L 972.5 -219 L 983.5 -227.667 L 996 -242.333 L 1010 -263 L 1022 -283 L 1028.833 -300 L 1030.5 -314 L 1032.167 -328 L 1032.333 -344 L 1031 -362 L 1030.333 -380.667 L 1028.167 -394.167 L 1024.5 -402.5 L 1020.833 -410.833 L 1016 -419.333 L 1010 -428 L 1004 -436.667 L 996.667 -444.5 L 988 -451.5 L 979.333 -458.5 L 965.667 -463.333 L 947 -466 L 928.333 -468.667 L 910 -471 L 892 -473 L 884 -474.333 L 878.833 -477.667 L 876.5 -483 L 874.167 -488.333 L 877 -493.333 Z" fill="black" fill-opacity="0.25" stroke="black" stroke-width="4"/>
  <rect x="77" y="-960" width="1106" height="374" fill="none" stroke="red" stroke-width="10" /><rect x="76" y="-507" width="1107" height="374" fill="none" stroke="red" stroke-width="10" />
</svg>
