<svg xmlns="http://www.w3.org/2000/svg"
  viewBox="22.222222222237036 -824.5555555554815 1333.3567251476538 741.0772946858747">
  <rect x="22.222222222237036" y="-824.5555555554815" width="1333.3567251476538" height="741.0772946858747" fill="white"/>
  <path d="M 75.0 -766.5 L 78.3333333333 -771.5 L 81.8333333333 -774.166666667 L 85.5 -774.5 L 89.1666666667 -774.833333333 L 93.3333333333 -773.666666667 L 98.0 -771.0 L 102.666666667 -768.333333333 L 108.333333333 -765.333333333 L 115.0 -762.0 L 121.666666667 -758.666666667 L 130.5 -755.833333333 L 141.5 -753.5 L 152.5 -751.166666667 L 167.666666667 -750.0 L 187.0 -750.0 L 1125.0 -750.0 L 1143.0 -750.0 L 1159.16666667 -748.5 L 1173.5 -745.5 L 1187.83333333 -742.5 L 1201.0 -737.833333333 L 1213.0 -731.5 L 1225.0 -725.166666667 L 1234.33333333 -719.5 L 1241.0 -714.5 L 1247.66666667 -709.5 L 1256.83333333 -701.166666667 L 1268.5 -689.5 L 1280.16666667 -677.833333333 L 1290.0 -666.166666667 L 1298.0 -654.5 L 1306.0 -642.833333333 L 1307.66666667 -631.666666667 L 1303.0 -621.0 L 1298.33333333 -613.0 L 1292.66666667 -611.333333333 L 1286.0 -616.0 L 1279.33333333 -620.666666667 L 1271.5 -624.666666667 L 1262.5 -628.0 L 1253.5 -631.333333333 L 1243.83333333 -633.5 L 1233.5 -634.5 L 1223.16666667 -635.5 L 1207.33333333 -636.0 L 1186.0 -636.0 L 260.0 -636.0 L 245.333333333 -636.0 L 232.166666667 -637.0 L 220.5 -639.0 L 208.833333333 -641.0 L 199.666666667 -643.166666667 L 193.0 -645.5 L 186.333333333 -647.833333333 L 179.333333333 -650.666666667 L 172.0 -654.0 L 164.666666667 -657.333333333 L 156.833333333 -661.833333333 L 148.5 -667.5 L 140.166666667 -673.166666667 L 131.166666667 -680.833333333 L 121.5 -690.5 L 111.833333333 -700.166666667 L 102.166666667 -711.333333333 L 92.5 -724.0 L 82.8333333333 -736.666666667 L 76.6666666667 -745.666666667 L 74.0 -751.0 L 71.3333333333 -756.333333333 L 71.6666666667 -761.5 Z M 958.0 -498.0 L 983.333333333 -507.333333333 L 1026.33333333 -506.666666667 L 1087.0 -496.0 L 1122.33333333 -486.666666667 L 1153.5 -474.833333333 L 1180.5 -460.5 L 1207.5 -446.166666667 L 1228.33333333 -420.666666667 L 1243.0 -384.0 L 1253.0 -348.666666667 L 1256.33333333 -320.333333333 L 1253.0 -299.0 L 1249.66666667 -277.666666667 L 1238.0 -253.333333333 L 1218.0 -226.0 L 1198.66666667 -202.666666667 L 1176.16666667 -185.166666667 L 1150.5 -173.5 L 1124.83333333 -161.833333333 L 1093.33333333 -152.0 L 1056.0 -144.0 L 1018.66666667 -136.666666667 L 988.333333333 -133.166666667 L 965.0 -133.5 L 941.666666667 -133.833333333 L 916.333333333 -134.333333333 L 889.0 -135.0 L 862.333333333 -136.333333333 L 837.5 -138.5 L 814.5 -141.5 L 791.5 -144.5 L 763.666666667 -151.0 L 731.0 -161.0 L 677.0 -175.666666667 L 623.666666667 -196.0 L 571.0 -222.0 L 541.666666667 -236.666666667 L 510.5 -252.5 L 477.5 -269.5 L 444.5 -286.5 L 407.666666667 -306.666666667 L 367.0 -330.0 L 348.333333333 -341.333333333 L 327.833333333 -353.5 L 305.5 -366.5 L 283.166666667 -379.5 L 259.333333333 -392.666666667 L 234.0 -406.0 L 214.666666667 -418.0 L 195.5 -430.166666667 L 176.5 -442.5 L 157.5 -454.833333333 L 149.5 -467.166666667 L 152.5 -479.5 L 155.5 -491.833333333 L 162.666666667 -497.666666667 L 174.0 -497.0 L 185.333333333 -496.333333333 L 221.166666667 -496.5 L 281.5 -497.5 L 341.833333333 -498.5 L 394.333333333 -498.666666667 L 439.0 -498.0 L 457.0 -484.666666667 L 456.833333333 -475.166666667 L 438.5 -469.5 L 420.166666667 -463.833333333 L 406.333333333 -456.666666667 L 397.0 -448.0 L 380.333333333 -430.666666667 L 373.0 -416.833333333 L 375.0 -406.5 L 377.0 -396.166666667 L 379.833333333 -388.166666667 L 383.5 -382.5 L 387.166666667 -376.833333333 L 392.666666667 -370.833333333 L 400.0 -364.5 L 407.333333333 -358.166666667 L 425.5 -345.0 L 454.5 -325.0 L 483.5 -305.0 L 519.333333333 -284.0 L 562.0 -262.0 L 600.666666667 -245.333333333 L 631.0 -231.666666667 L 653.0 -221.0 L 675.0 -210.333333333 L 710.666666667 -198.333333333 L 760.0 -185.0 L 796.666666667 -177.666666667 L 834.0 -173.166666667 L 872.0 -171.5 L 910.0 -169.833333333 L 948.666666667 -175.333333333 L 988.0 -188.0 L 1015.33333333 -200.0 L 1034.5 -210.333333333 L 1045.5 -219.0 L 1056.5 -227.666666667 L 1069.0 -242.333333333 L 1083.0 -263.0 L 1095.0 -283.0 L 1101.83333333 -300.0 L 1103.5 -314.0 L 1105.16666667 -328.0 L 1105.33333333 -344.0 L 1104.0 -362.0 L 1103.33333333 -380.666666667 L 1101.16666667 -394.166666667 L 1097.5 -402.5 L 1093.83333333 -410.833333333 L 1089.16666667 -419.333333333 L 1083.5 -428.0 L 1077.83333333 -436.666666667 L 1070.5 -444.5 L 1061.5 -451.5 L 1052.5 -458.5 L 1038.66666667 -463.333333333 L 1020.0 -466.0 L 1001.33333333 -468.666666667 L 983.0 -471.0 L 965.0 -473.0 L 957.0 -474.333333333 L 951.833333333 -477.666666667 L 949.5 -483.0 L 947.166666667 -488.333333333 L 950.0 -493.333333333 Z" fill="black" fill-opacity="0.25" stroke="black" stroke-width="4.0"/>
  <rect x="71.0" y="-775.0" width="1237.0" height="164.00000000000003" fill="none" stroke="red" stroke-width="10.0" /><rect x="149.0" y="-507.0" width="1107.0" height="374.0" fill="none" stroke="red" stroke-width="10.0" />
</svg>
