<svg xmlns="http://www.w3.org/2000/svg"
  viewBox="-6.0 -1393.0 1232.2499999985937 1309.5217391303931">
  <rect x="-6.0" y="-1393.0" width="1232.2499999985937" height="1309.5217391303931" fill="white"/>
  <path d="M 531.0 -707.0 L 551.0 -707.0 L 572.0 -706.666666667 L 594.0 -706.0 L 616.0 -705.333333333 L 635.666666667 -703.333333333 L 653.0 -700.0 L 665.666666667 -700.0 L 679.0 -678.666666667 L 693.0 -636.0 L 707.0 -593.333333333 L 723.333333333 -552.0 L 742.0 -512.0 L 748.0 -498.0 L 754.333333333 -490.0 L 761.0 -488.0 L 766.333333333 -486.666666667 L 770.5 -483.333333333 L 773.5 -478.0 L 776.5 -472.666666667 L 773.666666667 -468.0 L 765.0 -464.0 L 744.333333333 -460.0 L 723.666666667 -458.333333333 L 703.0 -459.0 L 682.333333333 -459.666666667 L 663.0 -461.333333333 L 645.0 -464.0 L 627.0 -472.0 L 613.0 -491.166666667 L 603.0 -521.5 L 593.0 -551.833333333 L 578.0 -596.0 L 558.0 -654.0 L 556.0 -657.333333333 L 552.166666667 -662.333333333 L 546.5 -669.0 L 540.833333333 -675.666666667 L 534.666666667 -679.666666667 L 528.0 -681.0 L 518.666666667 -683.0 L 513.333333333 -687.833333333 L 512.0 -695.5 L 510.666666667 -703.166666667 L 517.0 -707.0 Z M 880.0 -498.0 L 905.333333333 -507.333333333 L 948.333333333 -506.666666667 L 1009.0 -496.0 L 1044.33333333 -487.333333333 L 1075.5 -475.666666667 L 1102.5 -461.0 L 1129.5 -446.333333333 L 1150.33333333 -420.666666667 L 1165.0 -384.0 L 1175.0 -348.666666667 L 1178.33333333 -320.5 L 1175.0 -299.5 L 1171.66666667 -278.5 L 1160.0 -254.0 L 1140.0 -226.0 L 1120.66666667 -202.666666667 L 1098.16666667 -185.166666667 L 1072.5 -173.5 L 1046.83333333 -161.833333333 L 1015.33333333 -152.0 L 978.0 -144.0 L 940.666666667 -136.666666667 L 910.333333333 -133.166666667 L 887.0 -133.5 L 863.666666667 -133.833333333 L 838.333333333 -134.333333333 L 811.0 -135.0 L 784.333333333 -136.333333333 L 759.5 -138.5 L 736.5 -141.5 L 713.5 -144.5 L 685.666666667 -151.0 L 653.0 -161.0 L 599.0 -175.666666667 L 545.666666667 -196.0 L 493.0 -222.0 L 463.666666667 -236.666666667 L 432.5 -252.5 L 399.5 -269.5 L 366.5 -286.5 L 329.666666667 -306.666666667 L 289.0 -330.0 L 270.333333333 -341.333333333 L 249.833333333 -353.5 L 227.5 -366.5 L 205.166666667 -379.5 L 181.333333333 -392.666666667 L 156.0 -406.0 L 136.666666667 -418.0 L 117.5 -430.0 L 98.5 -442.0 L 79.5 -454.0 L 71.5 -466.166666667 L 74.5 -478.5 L 77.5 -490.833333333 L 84.6666666667 -496.666666667 L 96.0 -496.0 L 107.333333333 -495.333333333 L 143.0 -495.666666667 L 203.0 -497.0 L 263.0 -498.333333333 L 315.666666667 -498.666666667 L 361.0 -498.0 L 379.0 -484.666666667 L 378.833333333 -475.166666667 L 360.5 -469.5 L 342.166666667 -463.833333333 L 328.333333333 -456.666666667 L 319.0 -448.0 L 302.333333333 -430.666666667 L 295.0 -416.833333333 L 297.0 -406.5 L 299.0 -396.166666667 L 301.833333333 -388.166666667 L 305.5 -382.5 L 309.166666667 -376.833333333 L 314.666666667 -370.833333333 L 322.0 -364.5 L 329.333333333 -358.166666667 L 347.333333333 -345.0 L 376.0 -325.0 L 404.666666667 -305.0 L 440.666666667 -284.0 L 484.0 -262.0 L 522.666666667 -245.333333333 L 553.0 -231.666666667 L 575.0 -221.0 L 597.0 -210.333333333 L 632.666666667 -198.333333333 L 682.0 -185.0 L 718.666666667 -177.666666667 L 756.0 -173.166666667 L 794.0 -171.5 L 832.0 -169.833333333 L 870.666666667 -175.333333333 L 910.0 -188.0 L 937.333333333 -200.0 L 956.5 -210.333333333 L 967.5 -219.0 L 978.5 -227.666666667 L 991.0 -242.333333333 L 1005.0 -263.0 L 1017.0 -283.0 L 1023.83333333 -300.0 L 1025.5 -314.0 L 1027.16666667 -328.0 L 1027.33333333 -344.0 L 1026.0 -362.0 L 1025.33333333 -380.666666667 L 1023.16666667 -394.166666667 L 1019.5 -402.5 L 1015.83333333 -410.833333333 L 1011.16666667 -419.333333333 L 1005.5 -428.0 L 999.833333333 -436.666666667 L 992.5 -444.5 L 983.5 -451.5 L 974.5 -458.5 L 960.666666667 -463.333333333 L 942.0 -466.0 L 923.333333333 -468.666666667 L 905.0 -471.0 L 887.0 -473.0 L 879.0 -474.333333333 L 873.833333333 -477.666666667 L 871.5 -483.0 L 869.166666667 -488.333333333 L 872.0 -493.333333333 Z M 543.0 -1222.0 L 553.666666667 -1220.0 L 558.5 -1214.5 L 557.5 -1205.5 L 556.5 -1196.5 L 549.666666667 -1191.33333333 L 537.0 -1190.0 L 523.0 -1185.33333333 L 511.833333333 -1167.83333333 L 503.5 -1137.5 L 495.166666667 -1107.16666667 L 486.0 -1075.0 L 476.0 -1041.0 L 453.333333333 -961.666666667 L 432.666666667 -897.333333333 L 414.0 -848.0 L 395.333333333 -798.666666667 L 377.666666667 -764.0 L 361.0 -744.0 L 344.333333333 -724.0 L 324.333333333 -709.0 L 301.0 -699.0 L 265.0 -683.666666667 L 229.5 -672.166666667 L 194.5 -664.5 L 159.5 -656.833333333 L 129.0 -653.0 L 103.0 -653.0 L 115.666666667 -623.0 L 137.0 -602.166666667 L 167.0 -590.5 L 197.0 -578.833333333 L 205.666666667 -566.333333333 L 193.0 -553.0 L 185.666666667 -545.666666667 L 162.5 -555.333333333 L 123.5 -582.0 L 84.5 -608.666666667 L 58.0 -635.0 L 44.0 -661.0 L 44.0 -677.666666667 L 50.6666666667 -684.666666667 L 64.0 -682.0 L 77.3333333333 -679.333333333 L 92.0 -677.333333333 L 108.0 -676.0 L 123.333333333 -675.333333333 L 139.166666667 -676.166666667 L 155.5 -678.5 L 171.833333333 -680.833333333 L 193.666666667 -689.0 L 221.0 -703.0 L 234.333333333 -709.666666667 L 247.0 -724.833333333 L 259.0 -748.5 L 271.0 -772.166666667 L 281.833333333 -798.5 L 291.5 -827.5 L 301.166666667 -856.5 L 309.333333333 -885.166666667 L 316.0 -913.5 L 322.666666667 -941.833333333 L 331.333333333 -982.666666667 L 342.0 -1036.0 L 352.666666667 -1089.33333333 L 362.0 -1125.0 L 370.0 -1143.0 L 378.0 -1161.0 L 389.166666667 -1175.5 L 403.5 -1186.5 L 417.833333333 -1197.5 L 431.5 -1204.66666667 L 444.5 -1208.0 L 457.5 -1211.33333333 L 471.833333333 -1213.83333333 L 487.5 -1215.5 L 503.166666667 -1217.16666667 L 521.666666667 -1219.33333333 Z M 1010.0 -1343.0 L 1020.0 -1341.66666667 L 1024.33333333 -1337.16666667 L 1023.0 -1329.5 L 1021.66666667 -1321.83333333 L 1015.33333333 -1317.33333333 L 1004.0 -1316.0 L 991.333333333 -1312.0 L 981.0 -1297.16666667 L 973.0 -1271.5 L 965.0 -1245.83333333 L 956.666666667 -1218.66666667 L 948.0 -1190.0 L 927.333333333 -1122.66666667 L 908.166666667 -1068.33333333 L 890.5 -1027.0 L 872.833333333 -985.666666667 L 856.333333333 -956.666666667 L 841.0 -940.0 L 825.666666667 -923.333333333 L 807.333333333 -910.666666667 L 786.0 -902.0 L 752.666666667 -888.666666667 L 719.666666667 -879.0 L 687.0 -873.0 L 654.333333333 -867.0 L 626.333333333 -864.0 L 603.0 -864.0 L 615.0 -838.0 L 634.666666667 -820.166666667 L 662.0 -810.5 L 689.333333333 -800.833333333 L 697.333333333 -790.333333333 L 686.0 -779.0 L 679.333333333 -773.0 L 658.0 -781.166666667 L 622.0 -803.5 L 586.0 -825.833333333 L 561.333333333 -848.0 L 548.0 -870.0 L 548.0 -884.0 L 554.166666667 -889.833333333 L 566.5 -887.5 L 578.833333333 -885.166666667 L 592.333333333 -883.666666667 L 607.0 -883.0 L 621.666666667 -882.333333333 L 636.5 -883.0 L 651.5 -885.0 L 666.5 -887.0 L 686.666666667 -894.0 L 712.0 -906.0 L 724.666666667 -912.0 L 736.333333333 -924.833333333 L 747.0 -944.5 L 757.666666667 -964.166666667 L 767.5 -986.166666667 L 776.5 -1010.5 L 785.5 -1034.83333333 L 793.166666667 -1058.83333333 L 799.5 -1082.5 L 805.833333333 -1106.16666667 L 813.833333333 -1140.5 L 823.5 -1185.5 L 833.166666667 -1230.5 L 841.666666667 -1260.66666667 L 849.0 -1276.0 L 856.333333333 -1291.33333333 L 866.666666667 -1303.66666667 L 880.0 -1313.0 L 893.333333333 -1322.33333333 L 906.0 -1328.5 L 918.0 -1331.5 L 930.0 -1334.5 L 943.5 -1336.66666667 L 958.5 -1338.0 L 973.5 -1339.33333333 L 990.666666667 -1341.0 Z" fill="black" fill-opacity="0.25" stroke="black" stroke-width="4.0"/>
  <rect x="511.0" y="-707.0" width="265.0" height="248.99999999999994" fill="none" stroke="red" stroke-width="10.0" /><rect x="71.0" y="-507.0" width="1107.0" height="374.0" fill="none" stroke="red" stroke-width="10.0" /><rect x="44.0" y="-774.4" width="339.0" height="223.8" fill="none" stroke="red" stroke-width="10.0" /><rect x="271.9" y="-998.1999999999999" width="191.9" height="223.8" fill="none" stroke="red" stroke-width="10.0" /><rect x="334.4" y="-1222.0" width="224.10000000000002" height="223.8" fill="none" stroke="red" stroke-width="10.0" /><rect x="548.0" y="-965.7" width="313.5" height="188.6" fill="none" stroke="red" stroke-width="10.0" /><rect x="758.4" y="-1154.4" width="178.70000000000007" height="188.7000000000001" fill="none" stroke="red" stroke-width="10.0" /><rect x="816.8" y="-1343.0" width="207.50000000000003" height="188.59999999999988" fill="none" stroke="red" stroke-width="10.0" />
</svg>
