<svg xmlns="http://www.w3.org/2000/svg"
  viewBox="-79 -1398 1497.222 1314.522">
  <rect x="-79" y="-1398" width="1497.222" height="1314.522" fill="white"/>
  <path d="M 486 -707 L 506 -707 L 527 -706.667 L 549 -706 L 571 -705.333 L 590.667 -703.333 L 608 -700 L 620.667 -700 L 634 -678.667 L 648 -636 L 662 -593.333 L 678.333 -552 L 697 -512 L 702.333 -498 L 708.667 -490 L 716 -488 L 720.667 -486.667 L 724.667 -483.333 L 728 -478 L 731.333 -472.667 L 728.667 -468 L 720 -464 L 700 -460 L 679.5 -458.333 L 658.5 -459 L 637.5 -459.667 L 617.667 -461.333 L 599 -464 L 581.667 -472 L 568 -491.167 L 558 -521.5 L 548 -551.833 L 532.667 -596 L 512 -654 L 510 -657.333 L 506.333 -662.333 L 501 -669 L 495.667 -675.667 L 489.333 -679.667 L 482 -681 L 472.667 -683 L 467.5 -687.833 L 466.5 -695.5 L 465.5 -703.167 L 472 -707 Z M 880 -498 L 905.333 -507.333 L 948.333 -506.667 L 1009 -496 L 1044.333 -487.333 L 1075.5 -475.667 L 1102.5 -461 L 1129.5 -446.333 L 1150.333 -420.667 L 1165 -384 L 1175 -348.667 L 1178.333 -320.5 L 1175 -299.5 L 1171.667 -278.5 L 1160 -254 L 1140 -226 L 1120.667 -202.667 L 1098.167 -185.167 L 1072.5 -173.5 L 1046.833 -161.833 L 1015.333 -152 L 978 -144 L 940.667 -136.667 L 910.333 -133.167 L 887 -133.5 L 863.667 -133.833 L 838.333 -134.333 L 811 -135 L 784.333 -136.333 L 759.5 -138.5 L 736.5 -141.5 L 713.5 -144.5 L 685.667 -151 L 653 -161 L 599 -175.667 L 545.667 -196 L 493 -222 L 463.667 -236.667 L 432.5 -252.5 L 399.5 -269.5 L 366.5 -286.5 L 329.667 -306.667 L 289 -330 L 270.333 -341.333 L 249.833 -353.5 L 227.5 -366.5 L 205.167 -379.5 L 181.333 -392.667 L 156 -406 L 136.667 -418 L 117.5 -430 L 98.5 -442 L 79.5 -454 L 71.5 -466.167 L 74.5 -478.5 L 77.5 -490.833 L 84.667 -496.667 L 96 -496 L 107.333 -495.333 L 143 -495.667 L 203 -497 L 263 -498.333 L 315.667 -498.667 L 361 -498 L 379 -484.667 L 378.833 -475.167 L 360.5 -469.5 L 342.167 -463.833 L 328.333 -456.667 L 319 -448 L 302.333 -430.667 L 295 -416.833 L 297 -406.5 L 299 -396.167 L 301.833 -388.167 L 305.5 -382.5 L 309.167 -376.833 L 314.667 -370.833 L 322 -364.5 L 329.333 -358.167 L 347.333 -345 L 376 -325 L 404.667 -305 L 440.667 -284 L 484 -262 L 522.667 -245.333 L 553 -231.667 L 575 -221 L 597 -210.333 L 632.667 -198.333 L 682 -185 L 718.667 -177.667 L 756 -173.167 L 794 -171.5 L 832 -169.833 L 870.667 -175.333 L 910 -188 L 937.333 -200 L 956.5 -210.333 L 967.5 -219 L 978.5 -227.667 L 991 -242.333 L 1005 -263 L 1017 -283 L 1023.833 -300 L 1025.5 -314 L 1027.167 -328 L 1027.333 -344 L 1026 -362 L 1025.333 -380.667 L 1023.167 -394.167 L 1019.5 -402.5 L 1015.833 -410.833 L 1011.167 -419.333 L 1005.5 -428 L 999.833 -436.667 L 992.5 -444.5 L 983.5 -451.5 L 974.5 -458.5 L 960.667 -463.333 L 942 -466 L 923.333 -468.667 L 905 -471 L 887 -473 L 879 -474.333 L 873.833 -477.667 L 871.5 -483 L 869.167 -488.333 L 872 -493.333 Z M 1354 -1222 L 1364.667 -1220 L 1369.333 -1214.5 L 1368 -1205.5 L 1366.667 -1196.5 L 1360 -1191.333 L 1348 -1190 L 1334 -1185.333 L 1322.667 -1167.833 L 1314 -1137.5 L 1305.333 -1107.167 L 1296.333 -1075 L 1287 -1041 L 1264.333 -961.667 L 1243.667 -897.333 L 1225 -848 L 1206.333 -798.667 L 1188.5 -764 L 1171.5 -744 L 1154.5 -724 L 1134.333 -709 L 1111 -699 L 1075 -683.667 L 1039.5 -672.167 L 1004.5 -664.5 L 969.5 -656.833 L 939.333 -653 L 914 -653 L 926.667 -623 L 947.833 -602.167 L 977.5 -590.5 L 1007.167 -578.833 L 1015.667 -566.333 L 1003 -553 L 995.667 -545.667 L 972.667 -555.333 L 934 -582 L 895.333 -608.667 L 868.667 -635 L 854 -661 L 854 -677.667 L 860.833 -684.667 L 874.5 -682 L 888.167 -679.333 L 902.667 -677.333 L 918 -676 L 933.333 -675.333 L 949.333 -676.167 L 966 -678.5 L 982.667 -680.833 L 1004.667 -689 L 1032 -703 L 1045.333 -709.667 L 1057.833 -724.833 L 1069.5 -748.5 L 1081.167 -772.167 L 1091.833 -798.5 L 1101.5 -827.5 L 1111.167 -856.5 L 1119.333 -885.167 L 1126 -913.5 L 1132.667 -941.833 L 1141.5 -982.667 L 1152.5 -1036 L 1163.5 -1089.333 L 1172.833 -1125 L 1180.5 -1143 L 1188.167 -1161 L 1199.167 -1175.5 L 1213.5 -1186.5 L 1227.833 -1197.5 L 1241.5 -1204.667 L 1254.5 -1208 L 1267.5 -1211.333 L 1282 -1213.833 L 1298 -1215.5 L 1314 -1217.167 L 1332.667 -1219.333 Z M 470 -1222 L 480.667 -1220 L 485.333 -1214.5 L 484 -1205.5 L 482.667 -1196.5 L 476 -1191.333 L 464 -1190 L 450 -1185.333 L 438.667 -1167.833 L 430 -1137.5 L 421.333 -1107.167 L 412.333 -1075 L 403 -1041 L 380.333 -961.667 L 359.667 -897.333 L 341 -848 L 322.333 -798.667 L 304.667 -764 L 288 -744 L 271.333 -724 L 251.333 -709 L 228 -699 L 192 -683.667 L 156.333 -672.167 L 121 -664.5 L 85.667 -656.833 L 55.333 -653 L 30 -653 L 42.667 -623 L 64 -602.167 L 94 -590.5 L 124 -578.833 L 132.667 -566.333 L 120 -553 L 112.667 -545.667 L 89.5 -555.333 L 50.5 -582 L 11.5 -608.667 L -15 -635 L -29 -661 L -29 -677.667 L -22.333 -684.667 L -9 -682 L 4.333 -679.333 L 19 -677.333 L 35 -676 L 50.333 -675.333 L 66.167 -676.167 L 82.5 -678.5 L 98.833 -680.833 L 120.667 -689 L 148 -703 L 161.333 -709.667 L 174 -724.833 L 186 -748.5 L 198 -772.167 L 208.667 -798.5 L 218 -827.5 L 227.333 -856.5 L 235.333 -885.167 L 242 -913.5 L 248.667 -941.833 L 257.5 -982.667 L 268.5 -1036 L 279.5 -1089.333 L 289 -1125 L 297 -1143 L 305 -1161 L 316.167 -1175.5 L 330.5 -1186.5 L 344.833 -1197.5 L 358.5 -1204.667 L 371.5 -1208 L 384.5 -1211.333 L 398.833 -1213.833 L 414.5 -1215.5 L 430.167 -1217.167 L 448.667 -1219.333 Z M 966 -1348 L 976 -1346.667 L 980.333 -1342.167 L 979 -1334.5 L 977.667 -1326.833 L 971.333 -1322.333 L 960 -1321 L 947.333 -1317 L 937 -1302.167 L 929 -1276.5 L 921 -1250.833 L 912.667 -1223.667 L 904 -1195 L 883.333 -1127.667 L 864.167 -1073.333 L 846.5 -1032 L 828.833 -990.667 L 812.333 -961.667 L 797 -945 L 781.667 -928.333 L 763.333 -915.667 L 742 -907 L 708.667 -893.667 L 675.667 -883.833 L 643 -877.5 L 610.333 -871.167 L 582.333 -868 L 559 -868 L 571 -842 L 590.667 -824.333 L 618 -815 L 645.333 -805.667 L 653.333 -795 L 642 -783 L 635.333 -777 L 614 -785.333 L 578 -808 L 542 -830.667 L 517.333 -853 L 504 -875 L 504 -889 L 510.333 -894.833 L 523 -892.5 L 535.667 -890.167 L 549 -888.333 L 563 -887 L 577.667 -886.333 L 592.5 -887.167 L 607.5 -889.5 L 622.5 -891.833 L 642.667 -898.667 L 668 -910 L 680.667 -916 L 692.333 -929 L 703 -949 L 713.667 -969 L 723.5 -991.167 L 732.5 -1015.5 L 741.5 -1039.833 L 749.167 -1063.833 L 755.5 -1087.5 L 761.833 -1111.167 L 769.833 -1145.5 L 779.5 -1190.5 L 789.167 -1235.5 L 797.667 -1265.667 L 805 -1281 L 812.333 -1296.333 L 822.667 -1308.667 L 836 -1318 L 849.333 -1327.333 L 862 -1333.5 L 874 -1336.5 L 886 -1339.5 L 899.5 -1341.667 L 914.5 -1343 L 929.5 -1344.333 L 946.667 -1346 Z" fill="black" fill-opacity="0.25" stroke="black" stroke-width="4"/>
  <rect x="466" y="-707" width="265" height="249" fill="none" stroke="red" stroke-width="10" /><rect x="71" y="-507" width="1107" height="374" fill="none" stroke="red" stroke-width="10" /><rect x="854" y="-774.4" width="339.9" height="223.8" fill="none" stroke="red" stroke-width="10" /><rect x="1082.1" y="-998.2" width="192.7" height="223.8" fill="none" stroke="red" stroke-width="10" /><rect x="1144.7" y="-1222" width="224.6" height="223.8" fill="none" stroke="red" stroke-width="10" /><rect x="-29" y="-774.4" width="339" height="223.8" fill="none" stroke="red" stroke-width="10" /><rect x="198.9" y="-998.2" width="191.9" height="223.8" fill="none" stroke="red" stroke-width="10" /><rect x="260.7" y="-1222" width="224.6" height="223.8" fill="none" stroke="red" stroke-width="10" /><rect x="504" y="-970.1" width="313.1" height="189" fill="none" stroke="red" stroke-width="10" /><rect x="714.1" y="-1159" width="178.9" height="188.9" fill="none" stroke="red" stroke-width="10" /><rect x="772.7" y="-1348" width="207.6" height="189" fill="none" stroke="red" stroke-width="10" />
</svg>
