<svg xmlns="http://www.w3.org/2000/svg"
  viewBox="7.982456140412374 -1279.5714285703789 1218.2675438581814 1333.0931677008055">
  <rect x="7.982456140412374" y="-1279.5714285703789" width="1218.2675438581814" height="1333.0931677008055" fill="white"/>
  <path d="M 805.0 -553.0 L 813.0 -521.0 L 813.666666667 -518.333333333 L 817.0 -512.666666667 L 823.0 -504.0 L 829.0 -495.333333333 L 832.0 -490.0 L 832.0 -488.0 L 832.0 -486.0 L 827.0 -484.0 L 817.0 -482.0 L 807.0 -480.0 L 800.333333333 -479.0 L 797.0 -479.0 L 743.0 -479.0 L 736.333333333 -479.0 L 729.5 -483.833333333 L 722.5 -493.5 L 715.5 -503.166666667 L 711.333333333 -512.333333333 L 710.0 -521.0 L 702.0 -553.0 L 632.0 -553.0 L 567.666666667 -555.833333333 L 509.0 -561.5 L 450.333333333 -567.166666667 L 408.666666667 -571.666666667 L 384.0 -575.0 L 290.666666667 -589.0 L 233.333333333 -620.666666667 L 212.0 -670.0 L 207.333333333 -680.666666667 L 198.666666667 -696.666666667 L 186.0 -718.0 L 173.333333333 -739.333333333 L 160.166666667 -760.833333333 L 146.5 -782.5 L 132.833333333 -804.166666667 L 119.833333333 -823.5 L 107.5 -840.5 L 95.1666666667 -857.5 L 86.6666666667 -867.0 L 82.0 -869.0 L 57.3333333333 -877.0 L 51.6666666667 -885.666666667 L 65.0 -895.0 L 128.333333333 -900.333333333 L 185.333333333 -901.333333333 L 236.0 -898.0 L 264.666666667 -896.666666667 L 285.333333333 -881.0 L 298.0 -851.0 L 310.666666667 -821.0 L 323.333333333 -782.333333333 L 336.0 -735.0 L 348.0 -687.0 L 363.333333333 -654.166666667 L 382.0 -636.5 L 400.666666667 -618.833333333 L 432.333333333 -604.666666667 L 477.0 -594.0 L 523.666666667 -582.666666667 L 597.666666667 -577.666666667 L 699.0 -579.0 L 688.0 -638.0 L 687.333333333 -640.666666667 L 684.333333333 -644.5 L 679.0 -649.5 L 673.666666667 -654.5 L 671.0 -658.0 L 671.0 -660.0 L 671.0 -663.333333333 L 675.833333333 -665.666666667 L 685.5 -667.0 L 695.166666667 -668.333333333 L 702.0 -669.0 L 706.0 -669.0 L 761.0 -669.0 L 767.666666667 -669.0 L 774.166666667 -664.5 L 780.5 -655.5 L 786.833333333 -646.5 L 791.0 -637.0 L 793.0 -627.0 L 803.0 -579.0 L 843.0 -579.666666667 L 870.166666667 -581.166666667 L 884.5 -583.5 L 898.833333333 -585.833333333 L 914.666666667 -588.0 L 932.0 -590.0 L 950.0 -588.0 L 952.333333333 -580.666666667 L 939.0 -568.0 L 933.0 -563.333333333 L 920.666666667 -559.666666667 L 902.0 -557.0 L 883.333333333 -554.333333333 L 851.0 -553.0 Z M 805.0 -883.0 L 813.0 -850.0 L 813.666666667 -848.0 L 817.0 -842.666666667 L 823.0 -834.0 L 829.0 -825.333333333 L 832.0 -820.0 L 832.0 -818.0 L 832.0 -816.0 L 827.0 -813.833333333 L 817.0 -811.5 L 807.0 -809.166666667 L 800.333333333 -808.0 L 797.0 -808.0 L 743.0 -808.0 L 736.333333333 -808.0 L 729.5 -812.833333333 L 722.5 -822.5 L 715.5 -832.166666667 L 711.333333333 -841.333333333 L 710.0 -850.0 L 702.0 -883.0 L 632.0 -883.0 L 567.666666667 -885.666666667 L 509.0 -891.0 L 450.333333333 -896.333333333 L 408.666666667 -901.0 L 384.0 -905.0 L 290.666666667 -919.0 L 233.333333333 -950.333333333 L 212.0 -999.0 L 207.333333333 -1009.66666667 L 198.666666667 -1025.66666667 L 186.0 -1047.0 L 173.333333333 -1068.33333333 L 160.166666667 -1089.83333333 L 146.5 -1111.5 L 132.833333333 -1133.16666667 L 119.833333333 -1152.66666667 L 107.5 -1170.0 L 95.1666666667 -1187.33333333 L 86.6666666667 -1197.0 L 82.0 -1199.0 L 57.3333333333 -1207.0 L 51.6666666667 -1215.66666667 L 65.0 -1225.0 L 128.333333333 -1230.33333333 L 185.333333333 -1231.0 L 236.0 -1227.0 L 264.666666667 -1225.66666667 L 285.333333333 -1210.16666667 L 298.0 -1180.5 L 310.666666667 -1150.83333333 L 323.333333333 -1112.0 L 336.0 -1064.0 L 348.0 -1016.0 L 363.333333333 -983.333333333 L 382.0 -966.0 L 400.666666667 -948.666666667 L 432.333333333 -934.333333333 L 477.0 -923.0 L 521.0 -911.666666667 L 595.0 -906.666666667 L 699.0 -908.0 L 688.0 -968.0 L 687.333333333 -970.666666667 L 684.333333333 -974.333333333 L 679.0 -979.0 L 673.666666667 -983.666666667 L 671.0 -987.333333333 L 671.0 -990.0 L 671.0 -993.333333333 L 675.833333333 -995.666666667 L 685.5 -997.0 L 695.166666667 -998.333333333 L 702.0 -999.0 L 706.0 -999.0 L 761.0 -999.0 L 767.666666667 -999.0 L 774.166666667 -994.5 L 780.5 -985.5 L 786.833333333 -976.5 L 791.0 -967.0 L 793.0 -957.0 L 803.0 -909.0 L 843.0 -909.666666667 L 870.166666667 -911.0 L 884.5 -913.0 L 898.833333333 -915.0 L 914.666666667 -917.333333333 L 932.0 -920.0 L 949.333333333 -918.0 L 951.666666667 -910.333333333 L 939.0 -897.0 L 933.0 -892.333333333 L 920.666666667 -888.833333333 L 902.0 -886.5 L 883.333333333 -884.166666667 L 851.0 -883.0 Z M 880.0 -361.0 L 905.333333333 -370.333333333 L 948.333333333 -370.0 L 1009.0 -360.0 L 1044.33333333 -351.333333333 L 1075.5 -339.666666667 L 1102.5 -325.0 L 1129.5 -310.333333333 L 1150.33333333 -284.333333333 L 1165.0 -247.0 L 1175.0 -211.666666667 L 1178.33333333 -183.5 L 1175.0 -162.5 L 1171.66666667 -141.5 L 1160.0 -117.333333333 L 1140.0 -90.0 L 1120.66666667 -66.6666666667 L 1098.16666667 -49.0 L 1072.5 -37.0 L 1046.83333333 -25.0 L 1015.33333333 -15.0 L 978.0 -7.0 L 940.666666667 0.333333333333 L 910.333333333 3.83333333333 L 887.0 3.5 L 863.666666667 3.16666666667 L 838.333333333 2.66666666667 L 811.0 2.0 L 784.333333333 0.666666666667 L 759.5 -1.66666666667 L 736.5 -5.0 L 713.5 -8.33333333333 L 685.666666667 -15.0 L 653.0 -25.0 L 599.0 -39.6666666667 L 545.666666667 -60.0 L 493.0 -86.0 L 463.666666667 -100.666666667 L 432.5 -116.333333333 L 399.5 -133.0 L 366.5 -149.666666667 L 329.666666667 -169.666666667 L 289.0 -193.0 L 270.333333333 -204.333333333 L 249.833333333 -216.5 L 227.5 -229.5 L 205.166666667 -242.5 L 181.333333333 -255.666666667 L 156.0 -269.0 L 136.666666667 -281.0 L 117.5 -293.166666667 L 98.5 -305.5 L 79.5 -317.833333333 L 71.5 -330.166666667 L 74.5 -342.5 L 77.5 -354.833333333 L 84.6666666667 -360.666666667 L 96.0 -360.0 L 107.333333333 -359.333333333 L 143.0 -359.666666667 L 203.0 -361.0 L 263.0 -362.333333333 L 315.666666667 -362.333333333 L 361.0 -361.0 L 379.0 -347.666666667 L 378.833333333 -338.166666667 L 360.5 -332.5 L 342.166666667 -326.833333333 L 328.333333333 -319.666666667 L 319.0 -311.0 L 302.333333333 -293.666666667 L 295.0 -280.0 L 297.0 -270.0 L 299.0 -260.0 L 301.833333333 -252.166666667 L 305.5 -246.5 L 309.166666667 -240.833333333 L 314.666666667 -234.666666667 L 322.0 -228.0 L 329.333333333 -221.333333333 L 347.333333333 -208.0 L 376.0 -188.0 L 404.666666667 -168.0 L 440.666666667 -147.0 L 484.0 -125.0 L 522.666666667 -108.333333333 L 553.0 -94.6666666667 L 575.0 -84.0 L 597.0 -73.3333333333 L 632.666666667 -61.3333333333 L 682.0 -48.0 L 718.666666667 -40.6666666667 L 756.0 -36.3333333333 L 794.0 -35.0 L 832.0 -33.6666666667 L 870.666666667 -39.3333333333 L 910.0 -52.0 L 937.333333333 -64.0 L 956.5 -74.1666666667 L 967.5 -82.5 L 978.5 -90.8333333333 L 991.0 -105.333333333 L 1005.0 -126.0 L 1017.0 -146.0 L 1023.83333333 -163.0 L 1025.5 -177.0 L 1027.16666667 -191.0 L 1027.33333333 -207.0 L 1026.0 -225.0 L 1025.33333333 -243.666666667 L 1023.16666667 -257.166666667 L 1019.5 -265.5 L 1015.83333333 -273.833333333 L 1011.16666667 -282.333333333 L 1005.5 -291.0 L 999.833333333 -299.666666667 L 992.5 -307.5 L 983.5 -314.5 L 974.5 -321.5 L 960.666666667 -326.5 L 942.0 -329.5 L 923.333333333 -332.5 L 905.0 -335.0 L 887.0 -337.0 L 879.0 -338.333333333 L 873.833333333 -341.5 L 871.5 -346.5 L 869.166666667 -351.5 L 872.0 -356.333333333 Z" fill="black" fill-opacity="0.25" stroke="black" stroke-width="4.0"/>
  <rect x="52.0" y="-901.0" width="899.9999999999999" height="422.00000000000006" fill="none" stroke="red" stroke-width="10.0" /><rect x="52.0" y="-1231.0" width="899.9999999999999" height="423.00000000000006" fill="none" stroke="red" stroke-width="10.0" /><rect x="71.0" y="-370.0" width="1107.0" height="374.0" fill="none" stroke="red" stroke-width="10.0" />
</svg>
