<svg xmlns="http://www.w3.org/2000/svg"
  viewBox="28.88636363636364 -554.53333333352 1202.36363636223 471.05507246391323">
  <rect x="28.88636363636364" y="-554.53333333352" width="1202.36363636223" height="471.05507246391323" fill="white"/>
  <path d="M 885.0 -498.0 L 910.333333333 -507.333333333 L 953.333333333 -506.666666667 L 1014.0 -496.0 L 1049.33333333 -486.666666667 L 1080.5 -474.833333333 L 1107.5 -460.5 L 1134.5 -446.166666667 L 1155.33333333 -420.666666667 L 1170.0 -384.0 L 1180.0 -348.666666667 L 1183.33333333 -320.333333333 L 1180.0 -299.0 L 1176.66666667 -277.666666667 L 1165.0 -253.333333333 L 1145.0 -226.0 L 1125.66666667 -202.666666667 L 1103.16666667 -185.166666667 L 1077.5 -173.5 L 1051.83333333 -161.833333333 L 1020.0 -152.0 L 982.0 -144.0 L 944.666666667 -136.666666667 L 914.333333333 -133.166666667 L 891.0 -133.5 L 867.666666667 -133.833333333 L 842.666666667 -134.333333333 L 816.0 -135.0 L 789.333333333 -136.333333333 L 764.5 -138.5 L 741.5 -141.5 L 718.5 -144.5 L 690.666666667 -151.0 L 658.0 -161.0 L 604.0 -175.666666667 L 550.666666667 -196.0 L 498.0 -222.0 L 468.666666667 -236.666666667 L 437.333333333 -252.5 L 404.0 -269.5 L 370.666666667 -286.5 L 333.666666667 -306.666666667 L 293.0 -330.0 L 274.333333333 -341.333333333 L 254.0 -353.5 L 232.0 -366.5 L 210.0 -379.5 L 186.333333333 -392.666666667 L 161.0 -406.0 L 141.666666667 -418.0 L 122.5 -430.166666667 L 103.5 -442.5 L 84.5 -454.833333333 L 76.5 -467.166666667 L 79.5 -479.5 L 82.5 -491.833333333 L 89.6666666667 -497.666666667 L 101.0 -497.0 L 112.333333333 -496.333333333 L 148.0 -496.5 L 208.0 -497.5 L 268.0 -498.5 L 320.666666667 -498.666666667 L 366.0 -498.0 L 384.0 -484.666666667 L 383.666666667 -475.166666667 L 365.0 -469.5 L 346.333333333 -463.833333333 L 332.666666667 -456.666666667 L 324.0 -448.0 L 307.333333333 -430.666666667 L 300.0 -416.833333333 L 302.0 -406.5 L 304.0 -396.166666667 L 306.666666667 -388.166666667 L 310.0 -382.5 L 313.333333333 -376.833333333 L 318.666666667 -370.833333333 L 326.0 -364.5 L 333.333333333 -358.166666667 L 351.5 -345.0 L 380.5 -325.0 L 409.5 -305.0 L 445.666666667 -284.0 L 489.0 -262.0 L 527.666666667 -245.333333333 L 558.0 -231.666666667 L 580.0 -221.0 L 602.0 -210.333333333 L 637.666666667 -198.333333333 L 687.0 -185.0 L 723.666666667 -177.666666667 L 761.0 -173.166666667 L 799.0 -171.5 L 837.0 -169.833333333 L 875.666666667 -175.333333333 L 915.0 -188.0 L 942.333333333 -200.0 L 961.5 -210.333333333 L 972.5 -219.0 L 983.5 -227.666666667 L 996.0 -242.333333333 L 1010.0 -263.0 L 1022.0 -283.0 L 1028.83333333 -300.0 L 1030.5 -314.0 L 1032.16666667 -328.0 L 1032.33333333 -344.0 L 1031.0 -362.0 L 1030.33333333 -380.666666667 L 1028.16666667 -394.166666667 L 1024.5 -402.5 L 1020.83333333 -410.833333333 L 1016.0 -419.333333333 L 1010.0 -428.0 L 1004.0 -436.666666667 L 996.666666667 -444.5 L 988.0 -451.5 L 979.333333333 -458.5 L 965.666666667 -463.333333333 L 947.0 -466.0 L 928.333333333 -468.666666667 L 910.0 -471.0 L 892.0 -473.0 L 884.0 -474.333333333 L 878.833333333 -477.666666667 L 876.5 -483.0 L 874.166666667 -488.333333333 L 877.0 -493.333333333 Z" fill="black" fill-opacity="0.25" stroke="black" stroke-width="4.0"/>
  <rect x="76.0" y="-507.0" width="1107.0" height="374.0" fill="none" stroke="red" stroke-width="10.0" />
</svg>
