<svg xmlns="http://www.w3.org/2000/svg"
  viewBox="-126.96296296308064 -906.0 1605.904139435468 829.0">
  <rect x="-126.96296296308064" y="-906.0" width="1605.904139435468" height="829.0" fill="white"/>
  <path d="M 175.0 -537.0 L 168.333333333 -541.666666667 L 168.0 -546.166666667 L 174.0 -550.5 L 180.0 -554.833333333 L 187.0 -557.0 L 195.0 -557.0 L 204.333333333 -557.0 L 217.333333333 -565.5 L 234.0 -582.5 L 250.666666667 -599.5 L 262.0 -620.333333333 L 268.0 -645.0 L 276.666666667 -686.333333333 L 254.666666667 -720.333333333 L 202.0 -747.0 L 162.666666667 -766.333333333 L 109.666666667 -781.166666667 L 43.0 -791.5 L -23.6666666667 -801.833333333 L -60.6666666667 -808.666666667 L -68.0 -812.0 L -75.3333333333 -814.666666667 L -78.1666666667 -818.666666667 L -76.5 -824.0 L -74.8333333333 -829.333333333 L -71.0 -832.0 L -65.0 -832.0 L -59.0 -832.0 L -22.0 -827.166666667 L 46.0 -817.5 L 114.0 -807.833333333 L 176.0 -792.333333333 L 232.0 -771.0 L 265.333333333 -757.666666667 L 292.166666667 -744.333333333 L 312.5 -731.0 L 332.833333333 -717.666666667 L 351.333333333 -700.0 L 368.0 -678.0 L 384.666666667 -655.333333333 L 391.666666667 -632.833333333 L 389.0 -610.5 L 386.333333333 -588.166666667 L 376.666666667 -571.0 L 360.0 -559.0 L 344.666666667 -547.666666667 L 327.166666667 -540.0 L 307.5 -536.0 L 287.833333333 -532.0 L 269.0 -530.0 L 251.0 -530.0 L 233.0 -530.0 L 220.333333333 -530.166666667 L 213.0 -530.5 L 205.666666667 -530.833333333 L 193.0 -533.0 Z M 1161.0 -459.0 L 1184.33333333 -467.666666667 L 1223.0 -467.0 L 1277.0 -457.0 L 1309.0 -449.0 L 1337.33333333 -438.5 L 1362.0 -425.5 L 1386.66666667 -412.5 L 1405.66666667 -389.0 L 1419.0 -355.0 L 1427.66666667 -323.0 L 1430.66666667 -297.5 L 1428.0 -278.5 L 1425.33333333 -259.5 L 1414.66666667 -237.333333333 L 1396.0 -212.0 L 1378.66666667 -191.333333333 L 1358.33333333 -175.333333333 L 1335.0 -164.0 L 1311.66666667 -152.666666667 L 1283.0 -143.666666667 L 1249.0 -137.0 L 1215.66666667 -130.333333333 L 1188.33333333 -127.0 L 1167.0 -127.0 L 1145.66666667 -127.0 L 1122.66666667 -127.666666667 L 1098.0 -129.0 L 1074.0 -129.666666667 L 1051.5 -131.5 L 1030.5 -134.5 L 1009.5 -137.5 L 984.0 -143.666666667 L 954.0 -153.0 L 904.666666667 -167.0 L 856.333333333 -185.333333333 L 809.0 -208.0 L 781.666666667 -221.333333333 L 753.0 -235.666666667 L 723.0 -251.0 L 693.0 -266.333333333 L 659.666666667 -284.333333333 L 623.0 -305.0 L 605.666666667 -315.666666667 L 587.0 -326.833333333 L 567.0 -338.5 L 547.0 -350.166666667 L 525.333333333 -362.0 L 502.0 -374.0 L 484.0 -384.666666667 L 466.5 -395.666666667 L 449.5 -407.0 L 432.5 -418.333333333 L 425.333333333 -429.666666667 L 428.0 -441.0 L 430.666666667 -452.333333333 L 437.166666667 -457.666666667 L 447.5 -457.0 L 457.833333333 -456.333333333 L 490.333333333 -456.666666667 L 545.0 -458.0 L 599.666666667 -459.333333333 L 647.333333333 -459.333333333 L 688.0 -458.0 L 704.0 -446.0 L 703.833333333 -437.5 L 687.5 -432.5 L 671.166666667 -427.5 L 658.666666667 -420.666666667 L 650.0 -412.0 L 635.333333333 -396.666666667 L 628.833333333 -384.5 L 630.5 -375.5 L 632.166666667 -366.5 L 634.5 -359.333333333 L 637.5 -354.0 L 640.5 -348.666666667 L 645.5 -343.0 L 652.5 -337.0 L 659.5 -331.0 L 676.166666667 -319.0 L 702.5 -301.0 L 728.833333333 -283.0 L 761.333333333 -264.0 L 800.0 -244.0 L 834.666666667 -228.666666667 L 862.166666667 -216.166666667 L 882.5 -206.5 L 902.833333333 -196.833333333 L 935.333333333 -186.0 L 980.0 -174.0 L 1013.33333333 -168.0 L 1047.33333333 -164.166666667 L 1082.0 -162.5 L 1116.66666667 -160.833333333 L 1152.0 -165.666666667 L 1188.0 -177.0 L 1212.66666667 -188.333333333 L 1230.0 -197.833333333 L 1240.0 -205.5 L 1250.0 -213.166666667 L 1261.33333333 -226.333333333 L 1274.0 -245.0 L 1284.66666667 -263.666666667 L 1290.83333333 -279.166666667 L 1292.5 -291.5 L 1294.16666667 -303.833333333 L 1294.33333333 -318.333333333 L 1293.0 -335.0 L 1292.33333333 -351.666666667 L 1290.33333333 -363.833333333 L 1287.0 -371.5 L 1283.66666667 -379.166666667 L 1279.33333333 -387.0 L 1274.0 -395.0 L 1268.66666667 -403.0 L 1262.0 -410.166666667 L 1254.0 -416.5 L 1246.0 -422.833333333 L 1233.5 -427.333333333 L 1216.5 -430.0 L 1199.5 -432.666666667 L 1183.0 -434.666666667 L 1167.0 -436.0 L 1159.66666667 -437.333333333 L 1155.0 -440.5 L 1153.0 -445.5 L 1151.0 -450.5 L 1153.66666667 -455.0 Z M 675.0 -525.0 L 651.666666667 -516.333333333 L 612.666666667 -516.666666667 L 558.0 -526.0 L 526.0 -534.0 L 497.666666667 -544.666666667 L 473.0 -558.0 L 448.333333333 -571.333333333 L 429.333333333 -594.666666667 L 416.0 -628.0 L 407.333333333 -660.0 L 404.5 -685.666666667 L 407.5 -705.0 L 410.5 -724.333333333 L 421.0 -746.333333333 L 439.0 -771.0 L 456.333333333 -792.333333333 L 476.833333333 -808.5 L 500.5 -819.5 L 524.166666667 -830.5 L 552.666666667 -839.333333333 L 586.0 -846.0 L 620.0 -852.666666667 L 647.666666667 -856.0 L 669.0 -856.0 L 690.333333333 -856.0 L 713.333333333 -855.333333333 L 738.0 -854.0 L 762.666666667 -853.333333333 L 785.333333333 -851.5 L 806.0 -848.5 L 826.666666667 -845.5 L 851.666666667 -839.333333333 L 881.0 -830.0 L 930.333333333 -816.0 L 979.0 -797.666666667 L 1027.0 -775.0 L 1054.33333333 -761.666666667 L 1082.83333333 -747.333333333 L 1112.5 -732.0 L 1142.16666667 -716.666666667 L 1175.66666667 -698.333333333 L 1213.0 -677.0 L 1230.33333333 -667.0 L 1248.83333333 -656.166666667 L 1268.5 -644.5 L 1288.16666667 -632.833333333 L 1309.66666667 -621.0 L 1333.0 -609.0 L 1351.0 -597.666666667 L 1368.5 -586.5 L 1385.5 -575.5 L 1402.5 -564.5 L 1409.66666667 -553.333333333 L 1407.0 -542.0 L 1404.33333333 -530.666666667 L 1397.83333333 -525.333333333 L 1387.5 -526.0 L 1377.16666667 -526.666666667 L 1344.66666667 -526.333333333 L 1290.0 -525.0 L 1235.33333333 -523.666666667 L 1187.66666667 -523.666666667 L 1147.0 -525.0 L 1131.0 -537.0 L 1131.33333333 -545.5 L 1148.0 -550.5 L 1164.66666667 -555.5 L 1177.0 -562.0 L 1185.0 -570.0 L 1199.66666667 -586.0 L 1206.33333333 -598.5 L 1205.0 -607.5 L 1203.66666667 -616.5 L 1201.33333333 -623.666666667 L 1198.0 -629.0 L 1194.66666667 -634.333333333 L 1189.66666667 -640.0 L 1183.0 -646.0 L 1176.33333333 -652.0 L 1159.83333333 -664.0 L 1133.5 -682.0 L 1107.16666667 -700.0 L 1074.33333333 -719.0 L 1035.0 -739.0 L 1000.33333333 -754.333333333 L 972.833333333 -766.833333333 L 952.5 -776.5 L 932.166666667 -786.166666667 L 899.666666667 -797.0 L 855.0 -809.0 L 821.666666667 -815.666666667 L 787.833333333 -819.833333333 L 753.5 -821.5 L 719.166666667 -823.166666667 L 684.0 -818.0 L 648.0 -806.0 L 623.333333333 -795.333333333 L 605.833333333 -786.0 L 595.5 -778.0 L 585.166666667 -770.0 L 574.0 -756.666666667 L 562.0 -738.0 L 551.333333333 -720.0 L 545.166666667 -704.666666667 L 543.5 -692.0 L 541.833333333 -679.333333333 L 541.333333333 -664.666666667 L 542.0 -648.0 L 542.666666667 -631.333333333 L 544.666666667 -619.166666667 L 548.0 -611.5 L 551.333333333 -603.833333333 L 555.666666667 -596.0 L 561.0 -588.0 L 566.333333333 -580.0 L 573.166666667 -572.833333333 L 581.5 -566.5 L 589.833333333 -560.166666667 L 602.333333333 -555.833333333 L 619.0 -553.5 L 635.666666667 -551.166666667 L 652.333333333 -549.0 L 669.0 -547.0 L 676.333333333 -545.666666667 L 681.0 -542.666666667 L 683.0 -538.0 L 685.0 -533.333333333 L 682.333333333 -529.0 Z" fill="black" fill-opacity="0.25" stroke="black" stroke-width="4.0"/>
  <rect x="-78.0" y="-832.0" width="470.00000000000006" height="301.99999999999994" fill="none" stroke="red" stroke-width="10.0" /><rect x="425.0" y="-468.0" width="1006.0" height="341.0" fill="none" stroke="red" stroke-width="10.0" /><rect x="405.0" y="-856.0" width="1004.9999999999999" height="339.99999999999994" fill="none" stroke="red" stroke-width="10.0" />
</svg>
