<svg xmlns="http://www.w3.org/2000/svg"
  viewBox="23.88636363636364 -1393.0 1277.3358585850904 1309.5217391303931">
  <rect x="23.88636363636364" y="-1393.0" width="1277.3358585850904" height="1309.5217391303931" fill="white"/>
  <path d="M 456.0 -707.0 L 476.0 -707.0 L 497.0 -706.666666667 L 519.0 -706.0 L 541.0 -705.333333333 L 560.666666667 -703.333333333 L 578.0 -700.0 L 590.666666667 -700.0 L 604.0 -678.666666667 L 618.0 -636.0 L 632.0 -593.333333333 L 648.333333333 -552.0 L 667.0 -512.0 L 673.0 -498.0 L 679.333333333 -490.0 L 686.0 -488.0 L 691.333333333 -486.666666667 L 695.5 -483.333333333 L 698.5 -478.0 L 701.5 -472.666666667 L 698.666666667 -468.0 L 690.0 -464.0 L 669.333333333 -460.0 L 648.666666667 -458.333333333 L 628.0 -459.0 L 607.333333333 -459.666666667 L 587.666666667 -461.333333333 L 569.0 -464.0 L 551.666666667 -472.0 L 538.0 -491.166666667 L 528.0 -521.5 L 518.0 -551.833333333 L 502.666666667 -596.0 L 482.0 -654.0 L 480.666666667 -657.333333333 L 477.166666667 -662.333333333 L 471.5 -669.0 L 465.833333333 -675.666666667 L 459.666666667 -679.666666667 L 453.0 -681.0 L 443.666666667 -683.0 L 438.333333333 -687.833333333 L 437.0 -695.5 L 435.666666667 -703.166666667 L 442.0 -707.0 Z M 880.0 -498.0 L 905.333333333 -507.333333333 L 948.333333333 -506.666666667 L 1009.0 -496.0 L 1044.33333333 -487.333333333 L 1075.5 -475.666666667 L 1102.5 -461.0 L 1129.5 -446.333333333 L 1150.33333333 -420.666666667 L 1165.0 -384.0 L 1175.0 -348.666666667 L 1178.33333333 -320.5 L 1175.0 -299.5 L 1171.66666667 -278.5 L 1160.0 -254.0 L 1140.0 -226.0 L 1120.66666667 -202.666666667 L 1098.16666667 -185.166666667 L 1072.5 -173.5 L 1046.83333333 -161.833333333 L 1015.33333333 -152.0 L 978.0 -144.0 L 940.666666667 -136.666666667 L 910.333333333 -133.166666667 L 887.0 -133.5 L 863.666666667 -133.833333333 L 838.333333333 -134.333333333 L 811.0 -135.0 L 784.333333333 -136.333333333 L 759.5 -138.5 L 736.5 -141.5 L 713.5 -144.5 L 685.666666667 -151.0 L 653.0 -161.0 L 599.0 -175.666666667 L 545.666666667 -196.0 L 493.0 -222.0 L 463.666666667 -236.666666667 L 432.5 -252.5 L 399.5 -269.5 L 366.5 -286.5 L 329.666666667 -306.666666667 L 289.0 -330.0 L 270.333333333 -341.333333333 L 249.833333333 -353.5 L 227.5 -366.5 L 205.166666667 -379.5 L 181.333333333 -392.666666667 L 156.0 -406.0 L 136.666666667 -418.0 L 117.5 -430.0 L 98.5 -442.0 L 79.5 -454.0 L 71.5 -466.166666667 L 74.5 -478.5 L 77.5 -490.833333333 L 84.6666666667 -496.666666667 L 96.0 -496.0 L 107.333333333 -495.333333333 L 143.0 -495.666666667 L 203.0 -497.0 L 263.0 -498.333333333 L 315.666666667 -498.666666667 L 361.0 -498.0 L 379.0 -484.666666667 L 378.833333333 -475.166666667 L 360.5 -469.5 L 342.166666667 -463.833333333 L 328.333333333 -456.666666667 L 319.0 -448.0 L 302.333333333 -430.666666667 L 295.0 -416.833333333 L 297.0 -406.5 L 299.0 -396.166666667 L 301.833333333 -388.166666667 L 305.5 -382.5 L 309.166666667 -376.833333333 L 314.666666667 -370.833333333 L 322.0 -364.5 L 329.333333333 -358.166666667 L 347.333333333 -345.0 L 376.0 -325.0 L 404.666666667 -305.0 L 440.666666667 -284.0 L 484.0 -262.0 L 522.666666667 -245.333333333 L 553.0 -231.666666667 L 575.0 -221.0 L 597.0 -210.333333333 L 632.666666667 -198.333333333 L 682.0 -185.0 L 718.666666667 -177.666666667 L 756.0 -173.166666667 L 794.0 -171.5 L 832.0 -169.833333333 L 870.666666667 -175.333333333 L 910.0 -188.0 L 937.333333333 -200.0 L 956.5 -210.333333333 L 967.5 -219.0 L 978.5 -227.666666667 L 991.0 -242.333333333 L 1005.0 -263.0 L 1017.0 -283.0 L 1023.83333333 -300.0 L 1025.5 -314.0 L 1027.16666667 -328.0 L 1027.33333333 -344.0 L 1026.0 -362.0 L 1025.33333333 -380.666666667 L 1023.16666667 -394.166666667 L 1019.5 -402.5 L 1015.83333333 -410.833333333 L 1011.16666667 -419.333333333 L 1005.5 -428.0 L 999.833333333 -436.666666667 L 992.5 -444.5 L 983.5 -451.5 L 974.5 -458.5 L 960.666666667 -463.333333333 L 942.0 -466.0 L 923.333333333 -468.666666667 L 905.0 -471.0 L 887.0 -473.0 L 879.0 -474.333333333 L 873.833333333 -477.666666667 L 871.5 -483.0 L 869.166666667 -488.333333333 L 872.0 -493.333333333 Z M 1237.0 -1222.0 L 1247.66666667 -1220.0 L 1252.33333333 -1214.5 L 1251.0 -1205.5 L 1249.66666667 -1196.5 L 1242.66666667 -1191.33333333 L 1230.0 -1190.0 L 1216.0 -1185.33333333 L 1204.83333333 -1167.83333333 L 1196.5 -1137.5 L 1188.16666667 -1107.16666667 L 1179.0 -1075.0 L 1169.0 -1041.0 L 1146.33333333 -961.666666667 L 1125.83333333 -897.333333333 L 1107.5 -848.0 L 1089.16666667 -798.666666667 L 1071.5 -764.0 L 1054.5 -744.0 L 1037.5 -724.0 L 1017.33333333 -709.0 L 994.0 -699.0 L 958.0 -683.666666667 L 922.5 -672.166666667 L 887.5 -664.5 L 852.5 -656.833333333 L 822.0 -653.0 L 796.0 -653.0 L 808.666666667 -623.0 L 830.0 -602.166666667 L 860.0 -590.5 L 890.0 -578.833333333 L 898.666666667 -566.333333333 L 886.0 -553.0 L 878.666666667 -545.666666667 L 855.666666667 -555.333333333 L 817.0 -582.0 L 778.333333333 -608.666666667 L 751.666666667 -635.0 L 737.0 -661.0 L 737.0 -677.666666667 L 743.833333333 -684.666666667 L 757.5 -682.0 L 771.166666667 -679.333333333 L 785.666666667 -677.333333333 L 801.0 -676.0 L 816.333333333 -675.333333333 L 832.333333333 -676.166666667 L 849.0 -678.5 L 865.666666667 -680.833333333 L 887.666666667 -689.0 L 915.0 -703.0 L 928.333333333 -709.666666667 L 940.833333333 -724.833333333 L 952.5 -748.5 L 964.166666667 -772.166666667 L 974.833333333 -798.5 L 984.5 -827.5 L 994.166666667 -856.5 L 1002.33333333 -885.166666667 L 1009.0 -913.5 L 1015.66666667 -941.833333333 L 1024.5 -982.666666667 L 1035.5 -1036.0 L 1046.5 -1089.33333333 L 1055.83333333 -1125.0 L 1063.5 -1143.0 L 1071.16666667 -1161.0 L 1082.16666667 -1175.5 L 1096.5 -1186.5 L 1110.83333333 -1197.5 L 1124.5 -1204.66666667 L 1137.5 -1208.0 L 1150.5 -1211.33333333 L 1165.0 -1213.83333333 L 1181.0 -1215.5 L 1197.0 -1217.16666667 L 1215.66666667 -1219.33333333 Z M 863.0 -1343.0 L 873.0 -1341.66666667 L 877.5 -1337.16666667 L 876.5 -1329.5 L 875.5 -1321.83333333 L 869.0 -1317.33333333 L 857.0 -1316.0 L 844.333333333 -1312.0 L 834.0 -1297.16666667 L 826.0 -1271.5 L 818.0 -1245.83333333 L 809.666666667 -1218.66666667 L 801.0 -1190.0 L 780.333333333 -1122.66666667 L 761.333333333 -1068.33333333 L 744.0 -1027.0 L 726.666666667 -985.666666667 L 710.166666667 -956.666666667 L 694.5 -940.0 L 678.833333333 -923.333333333 L 660.333333333 -910.666666667 L 639.0 -902.0 L 605.666666667 -888.666666667 L 572.833333333 -879.0 L 540.5 -873.0 L 508.166666667 -867.0 L 480.0 -864.0 L 456.0 -864.0 L 468.0 -838.0 L 487.833333333 -820.166666667 L 515.5 -810.5 L 543.166666667 -800.833333333 L 551.0 -790.333333333 L 539.0 -779.0 L 532.333333333 -773.0 L 511.0 -781.166666667 L 475.0 -803.5 L 439.0 -825.833333333 L 414.333333333 -848.0 L 401.0 -870.0 L 401.0 -884.0 L 407.333333333 -889.833333333 L 420.0 -887.5 L 432.666666667 -885.166666667 L 446.0 -883.666666667 L 460.0 -883.0 L 474.666666667 -882.333333333 L 489.5 -883.0 L 504.5 -885.0 L 519.5 -887.0 L 539.666666667 -894.0 L 565.0 -906.0 L 577.666666667 -912.0 L 589.5 -924.833333333 L 600.5 -944.5 L 611.5 -964.166666667 L 621.5 -986.166666667 L 630.5 -1010.5 L 639.5 -1034.83333333 L 647.0 -1058.83333333 L 653.0 -1082.5 L 659.0 -1106.16666667 L 667.0 -1140.5 L 677.0 -1185.5 L 687.0 -1230.5 L 695.666666667 -1260.66666667 L 703.0 -1276.0 L 710.333333333 -1291.33333333 L 720.5 -1303.66666667 L 733.5 -1313.0 L 746.5 -1322.33333333 L 759.166666667 -1328.5 L 771.5 -1331.5 L 783.833333333 -1334.5 L 797.333333333 -1336.66666667 L 812.0 -1338.0 L 826.666666667 -1339.33333333 L 843.666666667 -1341.0 Z" fill="black" fill-opacity="0.25" stroke="black" stroke-width="4.0"/>
  <rect x="436.0" y="-707.0" width="265.99999999999994" height="248.99999999999994" fill="none" stroke="red" stroke-width="10.0" /><rect x="71.0" y="-507.0" width="1107.0" height="374.0" fill="none" stroke="red" stroke-width="10.0" /><rect x="737.0" y="-774.4" width="339.8" height="223.8" fill="none" stroke="red" stroke-width="10.0" /><rect x="965.0999999999999" y="-998.1999999999999" width="191.7000000000001" height="223.8" fill="none" stroke="red" stroke-width="10.0" /><rect x="1027.7" y="-1222.0" width="224.5999999999999" height="223.8" fill="none" stroke="red" stroke-width="10.0" /><rect x="401.0" y="-965.7" width="314.3" height="188.6" fill="none" stroke="red" stroke-width="10.0" /><rect x="612.1999999999999" y="-1154.4" width="177.90000000000006" height="188.7000000000001" fill="none" stroke="red" stroke-width="10.0" /><rect x="670.1" y="-1343.0" width="207.39999999999992" height="188.59999999999988" fill="none" stroke="red" stroke-width="10.0" />
</svg>
