<svg xmlns="http://www.w3.org/2000/svg"
  viewBox="27.467 -724.696 1125.19 640.219">
  <rect x="27.467" y="-724.696" width="1125.19" height="640.219" fill="white"/>
  <path d="M 772 -673 L 787.333 -673 L 794.667 -668.333 L 794 -659 L 793.333 -649.667 L 788 -644 L 778 -642 L 760 -638.667 L 748 -631 L 742 -619 L 718 -561 L 699.5 -510.667 L 686.5 -468 L 673.5 -425.333 L 657 -399.667 L 637 -391 L 615.667 -388.333 L 593.167 -386.833 L 569.5 -386.5 L 545.833 -386.167 L 522.667 -387.667 L 500 -391 L 490 -395 L 486.5 -399.5 L 489.5 -404.5 L 492.5 -409.5 L 497.333 -413 L 504 -415 L 510 -417 L 517 -425 L 525 -439 L 548.333 -480.333 L 567.667 -527 L 583 -579 L 598.333 -631 L 615 -660 L 633 -666 L 655.667 -672.667 L 678.667 -675.5 L 702 -674.5 L 725.333 -673.5 L 748.667 -673 Z M 828 -474 L 852 -482.667 L 891.667 -482 L 947 -472 L 979.667 -463.333 L 1008.667 -452.333 L 1034 -439 L 1059.333 -425.667 L 1079 -401.667 L 1093 -367 L 1101.667 -334.333 L 1104.5 -308.333 L 1101.5 -289 L 1098.5 -269.667 L 1087.667 -247 L 1069 -221 L 1051 -199.667 L 1030 -183.333 L 1006 -172 L 982 -160.667 L 952.667 -151.333 L 918 -144 L 883.333 -137.333 L 855.167 -134.167 L 833.5 -134.5 L 811.833 -134.833 L 788.333 -135.333 L 763 -136 L 737.667 -137.333 L 714.5 -139.5 L 693.5 -142.5 L 672.5 -145.5 L 646.667 -151.667 L 616 -161 L 566 -175 L 516.333 -194 L 467 -218 L 439 -232 L 409.833 -246.667 L 379.5 -262 L 349.167 -277.333 L 315 -296 L 277 -318 L 259.667 -328.667 L 240.667 -340 L 220 -352 L 199.333 -364 L 177 -376 L 153 -388 L 135 -399.333 L 117.333 -410.667 L 100 -422 L 82.667 -433.333 L 75.333 -444.833 L 78 -456.5 L 80.667 -468.167 L 87.333 -473.667 L 98 -473 L 108.667 -472.333 L 142 -472.5 L 198 -473.5 L 254 -474.5 L 302.667 -474.667 L 344 -474 L 360.667 -462 L 360.5 -453.333 L 343.5 -448 L 326.5 -442.667 L 314 -436 L 306 -428 L 290.667 -412 L 283.833 -399.167 L 285.5 -389.5 L 287.167 -379.833 L 289.5 -372.333 L 292.5 -367 L 295.5 -361.667 L 300.5 -356 L 307.5 -350 L 314.5 -344 L 331.5 -331.667 L 358.5 -313 L 385.5 -294.333 L 418.667 -275 L 458 -255 L 494 -239 L 522.333 -226 L 543 -216 L 563.667 -206 L 597 -194.667 L 643 -182 L 677 -175.333 L 711.667 -171.333 L 747 -170 L 782.333 -168.667 L 818.333 -174 L 855 -186 L 880.333 -197.333 L 898.167 -206.833 L 908.5 -214.5 L 918.833 -222.167 L 930.333 -235.667 L 943 -255 L 954.333 -273.667 L 960.833 -289.5 L 962.5 -302.5 L 964.167 -315.5 L 964.333 -330.333 L 963 -347 L 962.333 -364.333 L 960.333 -376.833 L 957 -384.5 L 953.667 -392.167 L 949.333 -400.167 L 944 -408.5 L 938.667 -416.833 L 931.833 -424.167 L 923.5 -430.5 L 915.167 -436.833 L 902.333 -441.333 L 885 -444 L 867.667 -446.667 L 850.333 -449 L 833 -451 L 825.667 -452.333 L 821.167 -455.5 L 819.5 -460.5 L 817.833 -465.5 L 820.667 -470 Z" fill="black" fill-opacity="0.25" stroke="black" stroke-width="4"/>
  <rect x="486" y="-675" width="309" height="289" fill="none" stroke="red" stroke-width="10" /><rect x="75" y="-483" width="1030" height="349" fill="none" stroke="red" stroke-width="10" />
</svg>
