<svg xmlns="http://www.w3.org/2000/svg"
  viewBox="7.982 -1279.571 1218.268 1333.093">
  <rect x="7.982" y="-1279.571" width="1218.268" height="1333.093" fill="white"/>
  <path d="M 805 -553 L 813 -521 L 813.667 -518.333 L 817 -512.667 L 823 -504 L 829 -495.333 L 832 -490 L 832 -488 L 832 -486 L 827 -484 L 817 -482 L 807 -480 L 800.333 -479 L 797 -479 L 743 -479 L 736.333 -479 L 729.5 -483.833 L 722.5 -493.5 L 715.5 -503.167 L 711.333 -512.333 L 710 -521 L 702 -553 L 632 -553 L 567.667 -555.833 L 509 -561.5 L 450.333 -567.167 L 408.667 -571.667 L 384 -575 L 290.667 -589 L 233.333 -620.667 L 212 -670 L 207.333 -680.667 L 198.667 -696.667 L 186 -718 L 173.333 -739.333 L 160.167 -760.833 L 146.5 -782.5 L 132.833 -804.167 L 119.833 -823.5 L 107.5 -840.5 L 95.167 -857.5 L 86.667 -867 L 82 -869 L 57.333 -877 L 51.667 -885.667 L 65 -895 L 128.333 -900.333 L 185.333 -901.333 L 236 -898 L 264.667 -896.667 L 285.333 -881 L 298 -851 L 310.667 -821 L 323.333 -782.333 L 336 -735 L 348 -687 L 363.333 -654.167 L 382 -636.5 L 400.667 -618.833 L 432.333 -604.667 L 477 -594 L 523.667 -582.667 L 597.667 -577.667 L 699 -579 L 688 -638 L 687.333 -640.667 L 684.333 -644.5 L 679 -649.5 L 673.667 -654.5 L 671 -658 L 671 -660 L 671 -663.333 L 675.833 -665.667 L 685.5 -667 L 695.167 -668.333 L 702 -669 L 706 -669 L 761 -669 L 767.667 -669 L 774.167 -664.5 L 780.5 -655.5 L 786.833 -646.5 L 791 -637 L 793 -627 L 803 -579 L 843 -579.667 L 870.167 -581.167 L 884.5 -583.5 L 898.833 -585.833 L 914.667 -588 L 932 -590 L 950 -588 L 952.333 -580.667 L 939 -568 L 933 -563.333 L 920.667 -559.667 L 902 -557 L 883.333 -554.333 L 851 -553 Z M 805 -883 L 813 -850 L 813.667 -848 L 817 -842.667 L 823 -834 L 829 -825.333 L 832 -820 L 832 -818 L 832 -816 L 827 -813.833 L 817 -811.5 L 807 -809.167 L 800.333 -808 L 797 -808 L 743 -808 L 736.333 -808 L 729.5 -812.833 L 722.5 -822.5 L 715.5 -832.167 L 711.333 -841.333 L 710 -850 L 702 -883 L 632 -883 L 567.667 -885.667 L 509 -891 L 450.333 -896.333 L 408.667 -901 L 384 -905 L 290.667 -919 L 233.333 -950.333 L 212 -999 L 207.333 -1009.667 L 198.667 -1025.667 L 186 -1047 L 173.333 -1068.333 L 160.167 -1089.833 L 146.5 -1111.5 L 132.833 -1133.167 L 119.833 -1152.667 L 107.5 -1170 L 95.167 -1187.333 L 86.667 -1197 L 82 -1199 L 57.333 -1207 L 51.667 -1215.667 L 65 -1225 L 128.333 -1230.333 L 185.333 -1231 L 236 -1227 L 264.667 -1225.667 L 285.333 -1210.167 L 298 -1180.5 L 310.667 -1150.833 L 323.333 -1112 L 336 -1064 L 348 -1016 L 363.333 -983.333 L 382 -966 L 400.667 -948.667 L 432.333 -934.333 L 477 -923 L 521 -911.667 L 595 -906.667 L 699 -908 L 688 -968 L 687.333 -970.667 L 684.333 -974.333 L 679 -979 L 673.667 -983.667 L 671 -987.333 L 671 -990 L 671 -993.333 L 675.833 -995.667 L 685.5 -997 L 695.167 -998.333 L 702 -999 L 706 -999 L 761 -999 L 767.667 -999 L 774.167 -994.5 L 780.5 -985.5 L 786.833 -976.5 L 791 -967 L 793 -957 L 803 -909 L 843 -909.667 L 870.167 -911 L 884.5 -913 L 898.833 -915 L 914.667 -917.333 L 932 -920 L 949.333 -918 L 951.667 -910.333 L 939 -897 L 933 -892.333 L 920.667 -888.833 L 902 -886.5 L 883.333 -884.167 L 851 -883 Z M 880 -361 L 905.333 -370.333 L 948.333 -370 L 1009 -360 L 1044.333 -351.333 L 1075.5 -339.667 L 1102.5 -325 L 1129.5 -310.333 L 1150.333 -284.333 L 1165 -247 L 1175 -211.667 L 1178.333 -183.5 L 1175 -162.5 L 1171.667 -141.5 L 1160 -117.333 L 1140 -90 L 1120.667 -66.667 L 1098.167 -49 L 1072.5 -37 L 1046.833 -25 L 1015.333 -15 L 978 -7 L 940.667 0.333 L 910.333 3.833 L 887 3.5 L 863.667 3.167 L 838.333 2.667 L 811 2 L 784.333 0.667 L 759.5 -1.667 L 736.5 -5 L 713.5 -8.333 L 685.667 -15 L 653 -25 L 599 -39.667 L 545.667 -60 L 493 -86 L 463.667 -100.667 L 432.5 -116.333 L 399.5 -133 L 366.5 -149.667 L 329.667 -169.667 L 289 -193 L 270.333 -204.333 L 249.833 -216.5 L 227.5 -229.5 L 205.167 -242.5 L 181.333 -255.667 L 156 -269 L 136.667 -281 L 117.5 -293.167 L 98.5 -305.5 L 79.5 -317.833 L 71.5 -330.167 L 74.5 -342.5 L 77.5 -354.833 L 84.667 -360.667 L 96 -360 L 107.333 -359.333 L 143 -359.667 L 203 -361 L 263 -362.333 L 315.667 -362.333 L 361 -361 L 379 -347.667 L 378.833 -338.167 L 360.5 -332.5 L 342.167 -326.833 L 328.333 -319.667 L 319 -311 L 302.333 -293.667 L 295 -280 L 297 -270 L 299 -260 L 301.833 -252.167 L 305.5 -246.5 L 309.167 -240.833 L 314.667 -234.667 L 322 -228 L 329.333 -221.333 L 347.333 -208 L 376 -188 L 404.667 -168 L 440.667 -147 L 484 -125 L 522.667 -108.333 L 553 -94.667 L 575 -84 L 597 -73.333 L 632.667 -61.333 L 682 -48 L 718.667 -40.667 L 756 -36.333 L 794 -35 L 832 -33.667 L 870.667 -39.333 L 910 -52 L 937.333 -64 L 956.5 -74.167 L 967.5 -82.5 L 978.5 -90.833 L 991 -105.333 L 1005 -126 L 1017 -146 L 1023.833 -163 L 1025.5 -177 L 1027.167 -191 L 1027.333 -207 L 1026 -225 L 1025.333 -243.667 L 1023.167 -257.167 L 1019.5 -265.5 L 1015.833 -273.833 L 1011.167 -282.333 L 1005.5 -291 L 999.833 -299.667 L 992.5 -307.5 L 983.5 -314.5 L 974.5 -321.5 L 960.667 -326.5 L 942 -329.5 L 923.333 -332.5 L 905 -335 L 887 -337 L 879 -338.333 L 873.833 -341.5 L 871.5 -346.5 L 869.167 -351.5 L 872 -356.333 Z" fill="black" fill-opacity="0.25" stroke="black" stroke-width="4"/>
  <rect x="52" y="-901" width="900" height="422" fill="none" stroke="red" stroke-width="10" /><rect x="52" y="-1231" width="900" height="423" fill="none" stroke="red" stroke-width="10" /><rect x="71" y="-370" width="1107" height="374" fill="none" stroke="red" stroke-width="10" />
</svg>
