<svg xmlns="http://www.w3.org/2000/svg"
  viewBox="-6.0 -1272.0 1351.222222221454 1188.5217391303931">
  <rect x="-6.0" y="-1272.0" width="1351.222222221454" height="1188.5217391303931" fill="white"/>
  <path d="M 880.0 -498.0 L 905.333333333 -507.333333333 L 948.333333333 -506.666666667 L 1009.0 -496.0 L 1044.33333333 -487.333333333 L 1075.5 -475.666666667 L 1102.5 -461.0 L 1129.5 -446.333333333 L 1150.33333333 -420.666666667 L 1165.0 -384.0 L 1175.0 -348.666666667 L 1178.33333333 -320.5 L 1175.0 -299.5 L 1171.66666667 -278.5 L 1160.0 -254.0 L 1140.0 -226.0 L 1120.66666667 -202.666666667 L 1098.16666667 -185.166666667 L 1072.5 -173.5 L 1046.83333333 -161.833333333 L 1015.33333333 -152.0 L 978.0 -144.0 L 940.666666667 -136.666666667 L 910.333333333 -133.166666667 L 887.0 -133.5 L 863.666666667 -133.833333333 L 838.333333333 -134.333333333 L 811.0 -135.0 L 784.333333333 -136.333333333 L 759.5 -138.5 L 736.5 -141.5 L 713.5 -144.5 L 685.666666667 -151.0 L 653.0 -161.0 L 599.0 -175.666666667 L 545.666666667 -196.0 L 493.0 -222.0 L 463.666666667 -236.666666667 L 432.5 -252.5 L 399.5 -269.5 L 366.5 -286.5 L 329.666666667 -306.666666667 L 289.0 -330.0 L 270.333333333 -341.333333333 L 249.833333333 -353.5 L 227.5 -366.5 L 205.166666667 -379.5 L 181.333333333 -392.666666667 L 156.0 -406.0 L 136.666666667 -418.0 L 117.5 -430.0 L 98.5 -442.0 L 79.5 -454.0 L 71.5 -466.166666667 L 74.5 -478.5 L 77.5 -490.833333333 L 84.6666666667 -496.666666667 L 96.0 -496.0 L 107.333333333 -495.333333333 L 143.0 -495.666666667 L 203.0 -497.0 L 263.0 -498.333333333 L 315.666666667 -498.666666667 L 361.0 -498.0 L 379.0 -484.666666667 L 378.833333333 -475.166666667 L 360.5 -469.5 L 342.166666667 -463.833333333 L 328.333333333 -456.666666667 L 319.0 -448.0 L 302.333333333 -430.666666667 L 295.0 -416.833333333 L 297.0 -406.5 L 299.0 -396.166666667 L 301.833333333 -388.166666667 L 305.5 -382.5 L 309.166666667 -376.833333333 L 314.666666667 -370.833333333 L 322.0 -364.5 L 329.333333333 -358.166666667 L 347.333333333 -345.0 L 376.0 -325.0 L 404.666666667 -305.0 L 440.666666667 -284.0 L 484.0 -262.0 L 522.666666667 -245.333333333 L 553.0 -231.666666667 L 575.0 -221.0 L 597.0 -210.333333333 L 632.666666667 -198.333333333 L 682.0 -185.0 L 718.666666667 -177.666666667 L 756.0 -173.166666667 L 794.0 -171.5 L 832.0 -169.833333333 L 870.666666667 -175.333333333 L 910.0 -188.0 L 937.333333333 -200.0 L 956.5 -210.333333333 L 967.5 -219.0 L 978.5 -227.666666667 L 991.0 -242.333333333 L 1005.0 -263.0 L 1017.0 -283.0 L 1023.83333333 -300.0 L 1025.5 -314.0 L 1027.16666667 -328.0 L 1027.33333333 -344.0 L 1026.0 -362.0 L 1025.33333333 -380.666666667 L 1023.16666667 -394.166666667 L 1019.5 -402.5 L 1015.83333333 -410.833333333 L 1011.16666667 -419.333333333 L 1005.5 -428.0 L 999.833333333 -436.666666667 L 992.5 -444.5 L 983.5 -451.5 L 974.5 -458.5 L 960.666666667 -463.333333333 L 942.0 -466.0 L 923.333333333 -468.666666667 L 905.0 -471.0 L 887.0 -473.0 L 879.0 -474.333333333 L 873.833333333 -477.666666667 L 871.5 -483.0 L 869.166666667 -488.333333333 L 872.0 -493.333333333 Z M 1281.0 -1222.0 L 1291.66666667 -1220.0 L 1296.33333333 -1214.5 L 1295.0 -1205.5 L 1293.66666667 -1196.5 L 1286.66666667 -1191.33333333 L 1274.0 -1190.0 L 1260.0 -1185.33333333 L 1248.83333333 -1167.83333333 L 1240.5 -1137.5 L 1232.16666667 -1107.16666667 L 1223.0 -1075.0 L 1213.0 -1041.0 L 1190.33333333 -961.666666667 L 1169.83333333 -897.333333333 L 1151.5 -848.0 L 1133.16666667 -798.666666667 L 1115.5 -764.0 L 1098.5 -744.0 L 1081.5 -724.0 L 1061.33333333 -709.0 L 1038.0 -699.0 L 1002.0 -683.666666667 L 966.5 -672.166666667 L 931.5 -664.5 L 896.5 -656.833333333 L 866.0 -653.0 L 840.0 -653.0 L 852.666666667 -623.0 L 874.0 -602.166666667 L 904.0 -590.5 L 934.0 -578.833333333 L 942.666666667 -566.333333333 L 930.0 -553.0 L 922.666666667 -545.666666667 L 899.666666667 -555.333333333 L 861.0 -582.0 L 822.333333333 -608.666666667 L 795.666666667 -635.0 L 781.0 -661.0 L 781.0 -677.666666667 L 787.833333333 -684.666666667 L 801.5 -682.0 L 815.166666667 -679.333333333 L 829.666666667 -677.333333333 L 845.0 -676.0 L 860.333333333 -675.333333333 L 876.166666667 -676.166666667 L 892.5 -678.5 L 908.833333333 -680.833333333 L 930.666666667 -689.0 L 958.0 -703.0 L 971.333333333 -709.666666667 L 984.0 -724.833333333 L 996.0 -748.5 L 1008.0 -772.166666667 L 1018.83333333 -798.5 L 1028.5 -827.5 L 1038.16666667 -856.5 L 1046.33333333 -885.166666667 L 1053.0 -913.5 L 1059.66666667 -941.833333333 L 1068.5 -982.666666667 L 1079.5 -1036.0 L 1090.5 -1089.33333333 L 1099.83333333 -1125.0 L 1107.5 -1143.0 L 1115.16666667 -1161.0 L 1126.16666667 -1175.5 L 1140.5 -1186.5 L 1154.83333333 -1197.5 L 1168.5 -1204.66666667 L 1181.5 -1208.0 L 1194.5 -1211.33333333 L 1209.0 -1213.83333333 L 1225.0 -1215.5 L 1241.0 -1217.16666667 L 1259.66666667 -1219.33333333 Z M 905.0 -1222.0 L 915.666666667 -1220.0 L 920.333333333 -1214.5 L 919.0 -1205.5 L 917.666666667 -1196.5 L 910.666666667 -1191.33333333 L 898.0 -1190.0 L 884.0 -1185.33333333 L 872.833333333 -1167.83333333 L 864.5 -1137.5 L 856.166666667 -1107.16666667 L 847.0 -1075.0 L 837.0 -1041.0 L 814.333333333 -961.666666667 L 793.833333333 -897.333333333 L 775.5 -848.0 L 757.166666667 -798.666666667 L 739.5 -764.0 L 722.5 -744.0 L 705.5 -724.0 L 685.333333333 -709.0 L 662.0 -699.0 L 626.0 -683.666666667 L 590.5 -672.166666667 L 555.5 -664.5 L 520.5 -656.833333333 L 490.0 -653.0 L 464.0 -653.0 L 476.666666667 -623.0 L 498.0 -602.166666667 L 528.0 -590.5 L 558.0 -578.833333333 L 566.666666667 -566.333333333 L 554.0 -553.0 L 546.666666667 -545.666666667 L 523.666666667 -555.333333333 L 485.0 -582.0 L 446.333333333 -608.666666667 L 419.666666667 -635.0 L 405.0 -661.0 L 405.0 -677.666666667 L 411.833333333 -684.666666667 L 425.5 -682.0 L 439.166666667 -679.333333333 L 453.666666667 -677.333333333 L 469.0 -676.0 L 484.333333333 -675.333333333 L 500.333333333 -676.166666667 L 517.0 -678.5 L 533.666666667 -680.833333333 L 555.666666667 -689.0 L 583.0 -703.0 L 596.333333333 -709.666666667 L 608.833333333 -724.833333333 L 620.5 -748.5 L 632.166666667 -772.166666667 L 642.833333333 -798.5 L 652.5 -827.5 L 662.166666667 -856.5 L 670.333333333 -885.166666667 L 677.0 -913.5 L 683.666666667 -941.833333333 L 692.5 -982.666666667 L 703.5 -1036.0 L 714.5 -1089.33333333 L 723.833333333 -1125.0 L 731.5 -1143.0 L 739.166666667 -1161.0 L 750.166666667 -1175.5 L 764.5 -1186.5 L 778.833333333 -1197.5 L 792.5 -1204.66666667 L 805.5 -1208.0 L 818.5 -1211.33333333 L 833.0 -1213.83333333 L 849.0 -1215.5 L 865.0 -1217.16666667 L 883.666666667 -1219.33333333 Z M 543.0 -1222.0 L 553.666666667 -1220.0 L 558.5 -1214.5 L 557.5 -1205.5 L 556.5 -1196.5 L 549.666666667 -1191.33333333 L 537.0 -1190.0 L 523.0 -1185.33333333 L 511.833333333 -1167.83333333 L 503.5 -1137.5 L 495.166666667 -1107.16666667 L 486.0 -1075.0 L 476.0 -1041.0 L 453.333333333 -961.666666667 L 432.666666667 -897.333333333 L 414.0 -848.0 L 395.333333333 -798.666666667 L 377.666666667 -764.0 L 361.0 -744.0 L 344.333333333 -724.0 L 324.333333333 -709.0 L 301.0 -699.0 L 265.0 -683.666666667 L 229.5 -672.166666667 L 194.5 -664.5 L 159.5 -656.833333333 L 129.0 -653.0 L 103.0 -653.0 L 115.666666667 -623.0 L 137.0 -602.166666667 L 167.0 -590.5 L 197.0 -578.833333333 L 205.666666667 -566.333333333 L 193.0 -553.0 L 185.666666667 -545.666666667 L 162.5 -555.333333333 L 123.5 -582.0 L 84.5 -608.666666667 L 58.0 -635.0 L 44.0 -661.0 L 44.0 -677.666666667 L 50.6666666667 -684.666666667 L 64.0 -682.0 L 77.3333333333 -679.333333333 L 92.0 -677.333333333 L 108.0 -676.0 L 123.333333333 -675.333333333 L 139.166666667 -676.166666667 L 155.5 -678.5 L 171.833333333 -680.833333333 L 193.666666667 -689.0 L 221.0 -703.0 L 234.333333333 -709.666666667 L 247.0 -724.833333333 L 259.0 -748.5 L 271.0 -772.166666667 L 281.833333333 -798.5 L 291.5 -827.5 L 301.166666667 -856.5 L 309.333333333 -885.166666667 L 316.0 -913.5 L 322.666666667 -941.833333333 L 331.333333333 -982.666666667 L 342.0 -1036.0 L 352.666666667 -1089.33333333 L 362.0 -1125.0 L 370.0 -1143.0 L 378.0 -1161.0 L 389.166666667 -1175.5 L 403.5 -1186.5 L 417.833333333 -1197.5 L 431.5 -1204.66666667 L 444.5 -1208.0 L 457.5 -1211.33333333 L 471.833333333 -1213.83333333 L 487.5 -1215.5 L 503.166666667 -1217.16666667 L 521.666666667 -1219.33333333 Z" fill="black" fill-opacity="0.25" stroke="black" stroke-width="4.0"/>
  <rect x="71.0" y="-507.0" width="1107.0" height="374.0" fill="none" stroke="red" stroke-width="10.0" /><rect x="781.0" y="-1222.0" width="515.0" height="675.9999999999999" fill="none" stroke="red" stroke-width="10.0" /><rect x="405.0" y="-1222.0" width="515.0" height="675.9999999999999" fill="none" stroke="red" stroke-width="10.0" /><rect x="44.0" y="-1222.0" width="514.0" height="675.9999999999999" fill="none" stroke="red" stroke-width="10.0" />
</svg>
