<svg xmlns="http://www.w3.org/2000/svg"
  viewBox="23.88636363636364 -1272.0 1202.36363636223 1188.5217391303931">
  <rect x="23.88636363636364" y="-1272.0" width="1202.36363636223" height="1188.5217391303931" fill="white"/>
  <path d="M 880.0 -498.0 L 905.333333333 -507.333333333 L 948.333333333 -506.666666667 L 1009.0 -496.0 L 1044.33333333 -486.666666667 L 1075.5 -474.833333333 L 1102.5 -460.5 L 1129.5 -446.166666667 L 1150.33333333 -420.666666667 L 1165.0 -384.0 L 1175.0 -348.666666667 L 1178.33333333 -320.333333333 L 1175.0 -299.0 L 1171.66666667 -277.666666667 L 1160.0 -253.333333333 L 1140.0 -226.0 L 1120.66666667 -202.666666667 L 1098.16666667 -185.166666667 L 1072.5 -173.5 L 1046.83333333 -161.833333333 L 1015.33333333 -152.0 L 978.0 -144.0 L 940.666666667 -136.666666667 L 910.333333333 -133.166666667 L 887.0 -133.5 L 863.666666667 -133.833333333 L 838.333333333 -134.333333333 L 811.0 -135.0 L 784.333333333 -136.333333333 L 759.5 -138.5 L 736.5 -141.5 L 713.5 -144.5 L 685.666666667 -151.0 L 653.0 -161.0 L 599.0 -175.666666667 L 545.666666667 -196.0 L 493.0 -222.0 L 463.666666667 -236.666666667 L 432.5 -252.5 L 399.5 -269.5 L 366.5 -286.5 L 329.666666667 -306.666666667 L 289.0 -330.0 L 270.333333333 -341.333333333 L 249.833333333 -353.5 L 227.5 -366.5 L 205.166666667 -379.5 L 181.333333333 -392.666666667 L 156.0 -406.0 L 136.666666667 -418.0 L 117.5 -430.166666667 L 98.5 -442.5 L 79.5 -454.833333333 L 71.5 -467.166666667 L 74.5 -479.5 L 77.5 -491.833333333 L 84.6666666667 -497.666666667 L 96.0 -497.0 L 107.333333333 -496.333333333 L 143.0 -496.5 L 203.0 -497.5 L 263.0 -498.5 L 315.666666667 -498.666666667 L 361.0 -498.0 L 379.0 -484.666666667 L 378.833333333 -475.166666667 L 360.5 -469.5 L 342.166666667 -463.833333333 L 328.333333333 -456.666666667 L 319.0 -448.0 L 302.333333333 -430.666666667 L 295.0 -416.833333333 L 297.0 -406.5 L 299.0 -396.166666667 L 301.833333333 -388.166666667 L 305.5 -382.5 L 309.166666667 -376.833333333 L 314.666666667 -370.833333333 L 322.0 -364.5 L 329.333333333 -358.166666667 L 347.333333333 -345.0 L 376.0 -325.0 L 404.666666667 -305.0 L 440.666666667 -284.0 L 484.0 -262.0 L 522.666666667 -245.333333333 L 553.0 -231.666666667 L 575.0 -221.0 L 597.0 -210.333333333 L 632.666666667 -198.333333333 L 682.0 -185.0 L 718.666666667 -177.666666667 L 756.0 -173.166666667 L 794.0 -171.5 L 832.0 -169.833333333 L 870.666666667 -175.333333333 L 910.0 -188.0 L 937.333333333 -200.0 L 956.5 -210.333333333 L 967.5 -219.0 L 978.5 -227.666666667 L 991.0 -242.333333333 L 1005.0 -263.0 L 1017.0 -283.0 L 1023.83333333 -300.0 L 1025.5 -314.0 L 1027.16666667 -328.0 L 1027.33333333 -344.0 L 1026.0 -362.0 L 1025.33333333 -380.666666667 L 1023.16666667 -394.166666667 L 1019.5 -402.5 L 1015.83333333 -410.833333333 L 1011.16666667 -419.333333333 L 1005.5 -428.0 L 999.833333333 -436.666666667 L 992.5 -444.5 L 983.5 -451.5 L 974.5 -458.5 L 960.666666667 -463.333333333 L 942.0 -466.0 L 923.333333333 -468.666666667 L 905.0 -471.0 L 887.0 -473.0 L 879.0 -474.333333333 L 873.833333333 -477.666666667 L 871.5 -483.0 L 869.166666667 -488.333333333 L 872.0 -493.333333333 Z M 666.0 -1222.0 L 676.666666667 -1220.0 L 681.333333333 -1214.5 L 680.0 -1205.5 L 678.666666667 -1196.5 L 671.666666667 -1191.33333333 L 659.0 -1190.0 L 645.0 -1185.33333333 L 633.833333333 -1167.83333333 L 625.5 -1137.5 L 617.166666667 -1107.16666667 L 608.0 -1075.0 L 598.0 -1041.0 L 575.333333333 -961.666666667 L 554.666666667 -897.333333333 L 536.0 -848.0 L 517.333333333 -798.666666667 L 499.666666667 -764.0 L 483.0 -744.0 L 466.333333333 -724.0 L 446.333333333 -709.0 L 423.0 -699.0 L 387.0 -683.666666667 L 351.5 -672.166666667 L 316.5 -664.5 L 281.5 -656.833333333 L 251.0 -653.0 L 225.0 -653.0 L 237.666666667 -623.0 L 259.0 -602.166666667 L 289.0 -590.5 L 319.0 -578.833333333 L 327.666666667 -566.333333333 L 315.0 -553.0 L 307.666666667 -545.666666667 L 284.666666667 -555.333333333 L 246.0 -582.0 L 207.333333333 -608.666666667 L 180.666666667 -635.0 L 166.0 -661.0 L 166.0 -677.666666667 L 172.833333333 -684.666666667 L 186.5 -682.0 L 200.166666667 -679.333333333 L 214.666666667 -677.333333333 L 230.0 -676.0 L 245.333333333 -675.333333333 L 261.166666667 -676.166666667 L 277.5 -678.5 L 293.833333333 -680.833333333 L 315.666666667 -689.0 L 343.0 -703.0 L 356.333333333 -709.666666667 L 369.0 -724.833333333 L 381.0 -748.5 L 393.0 -772.166666667 L 403.833333333 -798.5 L 413.5 -827.5 L 423.166666667 -856.5 L 431.333333333 -885.166666667 L 438.0 -913.5 L 444.666666667 -941.833333333 L 453.333333333 -982.666666667 L 464.0 -1036.0 L 474.666666667 -1089.33333333 L 484.0 -1125.0 L 492.0 -1143.0 L 500.0 -1161.0 L 511.166666667 -1175.5 L 525.5 -1186.5 L 539.833333333 -1197.5 L 553.5 -1204.66666667 L 566.5 -1208.0 L 579.5 -1211.33333333 L 594.0 -1213.83333333 L 610.0 -1215.5 L 626.0 -1217.16666667 L 644.666666667 -1219.33333333 Z" fill="black" fill-opacity="0.25" stroke="black" stroke-width="4.0"/>
  <rect x="71.0" y="-507.0" width="1107.0" height="374.0" fill="none" stroke="red" stroke-width="10.0" /><rect x="166.0" y="-1222.0" width="515.0" height="675.9999999999999" fill="none" stroke="red" stroke-width="10.0" />
</svg>
