<svg xmlns="http://www.w3.org/2000/svg"
  viewBox="-126.963 -906 1605.904 829">
  <rect x="-126.963" y="-906" width="1605.904" height="829" fill="white"/>
  <path d="M 175 -537 L 168.333 -541.667 L 168 -546.167 L 174 -550.5 L 180 -554.833 L 187 -557 L 195 -557 L 204.333 -557 L 217.333 -565.5 L 234 -582.5 L 250.667 -599.5 L 262 -620.333 L 268 -645 L 276.667 -686.333 L 254.667 -720.333 L 202 -747 L 162.667 -766.333 L 109.667 -781.167 L 43 -791.5 L -23.667 -801.833 L -60.667 -808.667 L -68 -812 L -75.333 -814.667 L -78.167 -818.667 L -76.5 -824 L -74.833 -829.333 L -71 -832 L -65 -832 L -59 -832 L -22 -827.167 L 46 -817.5 L 114 -807.833 L 176 -792.333 L 232 -771 L 265.333 -757.667 L 292.167 -744.333 L 312.5 -731 L 332.833 -717.667 L 351.333 -700 L 368 -678 L 384.667 -655.333 L 391.667 -632.833 L 389 -610.5 L 386.333 -588.167 L 376.667 -571 L 360 -559 L 344.667 -547.667 L 327.167 -540 L 307.5 -536 L 287.833 -532 L 269 -530 L 251 -530 L 233 -530 L 220.333 -530.167 L 213 -530.5 L 205.667 -530.833 L 193 -533 Z M 1161 -459 L 1184.333 -467.667 L 1223 -467 L 1277 -457 L 1309 -449 L 1337.333 -438.5 L 1362 -425.5 L 1386.667 -412.5 L 1405.667 -389 L 1419 -355 L 1427.667 -323 L 1430.667 -297.5 L 1428 -278.5 L 1425.333 -259.5 L 1414.667 -237.333 L 1396 -212 L 1378.667 -191.333 L 1358.333 -175.333 L 1335 -164 L 1311.667 -152.667 L 1283 -143.667 L 1249 -137 L 1215.667 -130.333 L 1188.333 -127 L 1167 -127 L 1145.667 -127 L 1122.667 -127.667 L 1098 -129 L 1074 -129.667 L 1051.5 -131.5 L 1030.5 -134.5 L 1009.5 -137.5 L 984 -143.667 L 954 -153 L 904.667 -167 L 856.333 -185.333 L 809 -208 L 781.667 -221.333 L 753 -235.667 L 723 -251 L 693 -266.333 L 659.667 -284.333 L 623 -305 L 605.667 -315.667 L 587 -326.833 L 567 -338.5 L 547 -350.167 L 525.333 -362 L 502 -374 L 484 -384.667 L 466.5 -395.667 L 449.5 -407 L 432.5 -418.333 L 425.333 -429.667 L 428 -441 L 430.667 -452.333 L 437.167 -457.667 L 447.5 -457 L 457.833 -456.333 L 490.333 -456.667 L 545 -458 L 599.667 -459.333 L 647.333 -459.333 L 688 -458 L 704 -446 L 703.833 -437.5 L 687.5 -432.5 L 671.167 -427.5 L 658.667 -420.667 L 650 -412 L 635.333 -396.667 L 628.833 -384.5 L 630.5 -375.5 L 632.167 -366.5 L 634.5 -359.333 L 637.5 -354 L 640.5 -348.667 L 645.5 -343 L 652.5 -337 L 659.5 -331 L 676.167 -319 L 702.5 -301 L 728.833 -283 L 761.333 -264 L 800 -244 L 834.667 -228.667 L 862.167 -216.167 L 882.5 -206.5 L 902.833 -196.833 L 935.333 -186 L 980 -174 L 1013.333 -168 L 1047.333 -164.167 L 1082 -162.5 L 1116.667 -160.833 L 1152 -165.667 L 1188 -177 L 1212.667 -188.333 L 1230 -197.833 L 1240 -205.5 L 1250 -213.167 L 1261.333 -226.333 L 1274 -245 L 1284.667 -263.667 L 1290.833 -279.167 L 1292.5 -291.5 L 1294.167 -303.833 L 1294.333 -318.333 L 1293 -335 L 1292.333 -351.667 L 1290.333 -363.833 L 1287 -371.5 L 1283.667 -379.167 L 1279.333 -387 L 1274 -395 L 1268.667 -403 L 1262 -410.167 L 1254 -416.5 L 1246 -422.833 L 1233.5 -427.333 L 1216.5 -430 L 1199.5 -432.667 L 1183 -434.667 L 1167 -436 L 1159.667 -437.333 L 1155 -440.5 L 1153 -445.5 L 1151 -450.5 L 1153.667 -455 Z M 675 -525 L 651.667 -516.333 L 612.667 -516.667 L 558 -526 L 526 -534 L 497.667 -544.667 L 473 -558 L 448.333 -571.333 L 429.333 -594.667 L 416 -628 L 407.333 -660 L 404.5 -685.667 L 407.5 -705 L 410.5 -724.333 L 421 -746.333 L 439 -771 L 456.333 -792.333 L 476.833 -808.5 L 500.5 -819.5 L 524.167 -830.5 L 552.667 -839.333 L 586 -846 L 620 -852.667 L 647.667 -856 L 669 -856 L 690.333 -856 L 713.333 -855.333 L 738 -854 L 762.667 -853.333 L 785.333 -851.5 L 806 -848.5 L 826.667 -845.5 L 851.667 -839.333 L 881 -830 L 930.333 -816 L 979 -797.667 L 1027 -775 L 1054.333 -761.667 L 1082.833 -747.333 L 1112.5 -732 L 1142.167 -716.667 L 1175.667 -698.333 L 1213 -677 L 1230.333 -667 L 1248.833 -656.167 L 1268.5 -644.5 L 1288.167 -632.833 L 1309.667 -621 L 1333 -609 L 1351 -597.667 L 1368.5 -586.5 L 1385.5 -575.5 L 1402.5 -564.5 L 1409.667 -553.333 L 1407 -542 L 1404.333 -530.667 L 1397.833 -525.333 L 1387.5 -526 L 1377.167 -526.667 L 1344.667 -526.333 L 1290 -525 L 1235.333 -523.667 L 1187.667 -523.667 L 1147 -525 L 1131 -537 L 1131.333 -545.5 L 1148 -550.5 L 1164.667 -555.5 L 1177 -562 L 1185 -570 L 1199.667 -586 L 1206.333 -598.5 L 1205 -607.5 L 1203.667 -616.5 L 1201.333 -623.667 L 1198 -629 L 1194.667 -634.333 L 1189.667 -640 L 1183 -646 L 1176.333 -652 L 1159.833 -664 L 1133.5 -682 L 1107.167 -700 L 1074.333 -719 L 1035 -739 L 1000.333 -754.333 L 972.833 -766.833 L 952.5 -776.5 L 932.167 -786.167 L 899.667 -797 L 855 -809 L 821.667 -815.667 L 787.833 -819.833 L 753.5 -821.5 L 719.167 -823.167 L 684 -818 L 648 -806 L 623.333 -795.333 L 605.833 -786 L 595.5 -778 L 585.167 -770 L 574 -756.667 L 562 -738 L 551.333 -720 L 545.167 -704.667 L 543.5 -692 L 541.833 -679.333 L 541.333 -664.667 L 542 -648 L 542.667 -631.333 L 544.667 -619.167 L 548 -611.5 L 551.333 -603.833 L 555.667 -596 L 561 -588 L 566.333 -580 L 573.167 -572.833 L 581.5 -566.5 L 589.833 -560.167 L 602.333 -555.833 L 619 -553.5 L 635.667 -551.167 L 652.333 -549 L 669 -547 L 676.333 -545.667 L 681 -542.667 L 683 -538 L 685 -533.333 L 682.333 -529 Z" fill="black" fill-opacity="0.25" stroke="black" stroke-width="4"/>
  <rect x="-78" y="-832" width="470" height="302" fill="none" stroke="red" stroke-width="10" /><rect x="425" y="-468" width="1006" height="341" fill="none" stroke="red" stroke-width="10" /><rect x="405" y="-856" width="1005" height="340" fill="none" stroke="red" stroke-width="10" />
</svg>
