<svg xmlns="http://www.w3.org/2000/svg"
  viewBox="23.88636363636364 -861.0 1202.36363636223 777.5217391303931">
  <rect x="23.88636363636364" y="-861.0" width="1202.36363636223" height="777.5217391303931" fill="white"/>
  <path d="M 533.0 -463.0 L 525.666666667 -469.0 L 525.333333333 -474.5 L 532.0 -479.5 L 538.666666667 -484.5 L 547.0 -487.0 L 557.0 -487.0 L 567.666666667 -487.0 L 582.833333333 -496.666666667 L 602.5 -516.0 L 622.166666667 -535.333333333 L 635.0 -559.666666667 L 641.0 -589.0 L 651.0 -638.333333333 L 625.333333333 -678.0 L 564.0 -708.0 L 540.666666667 -719.333333333 L 511.333333333 -729.5 L 476.0 -738.5 L 440.666666667 -747.5 L 405.666666667 -755.333333333 L 371.0 -762.0 L 336.333333333 -768.666666667 L 305.833333333 -774.0 L 279.5 -778.0 L 253.166666667 -782.0 L 237.666666667 -785.0 L 233.0 -787.0 L 223.666666667 -790.333333333 L 220.166666667 -795.166666667 L 222.5 -801.5 L 224.833333333 -807.833333333 L 230.0 -811.0 L 238.0 -811.0 L 241.333333333 -811.0 L 256.0 -809.5 L 282.0 -806.5 L 308.0 -803.5 L 339.0 -798.833333333 L 375.0 -792.5 L 411.0 -786.166666667 L 449.333333333 -778.333333333 L 490.0 -769.0 L 530.666666667 -759.666666667 L 567.333333333 -748.666666667 L 600.0 -736.0 L 639.333333333 -720.666666667 L 670.666666667 -705.166666667 L 694.0 -689.5 L 717.333333333 -673.833333333 L 738.666666667 -653.333333333 L 758.0 -628.0 L 777.333333333 -601.333333333 L 785.5 -575.0 L 782.5 -549.0 L 779.5 -523.0 L 768.333333333 -503.0 L 749.0 -489.0 L 731.666666667 -475.666666667 L 711.333333333 -466.666666667 L 688.0 -462.0 L 664.666666667 -457.333333333 L 642.666666667 -455.0 L 622.0 -455.0 L 600.666666667 -455.0 L 585.833333333 -455.166666667 L 577.5 -455.5 L 569.166666667 -455.833333333 L 554.333333333 -458.333333333 Z M 880.0 -498.0 L 905.333333333 -507.333333333 L 948.333333333 -506.666666667 L 1009.0 -496.0 L 1044.33333333 -486.666666667 L 1075.5 -474.833333333 L 1102.5 -460.5 L 1129.5 -446.166666667 L 1150.33333333 -420.666666667 L 1165.0 -384.0 L 1175.0 -348.666666667 L 1178.33333333 -320.333333333 L 1175.0 -299.0 L 1171.66666667 -277.666666667 L 1160.0 -253.333333333 L 1140.0 -226.0 L 1120.66666667 -202.666666667 L 1098.16666667 -185.166666667 L 1072.5 -173.5 L 1046.83333333 -161.833333333 L 1015.33333333 -152.0 L 978.0 -144.0 L 940.666666667 -136.666666667 L 910.333333333 -133.166666667 L 887.0 -133.5 L 863.666666667 -133.833333333 L 838.333333333 -134.333333333 L 811.0 -135.0 L 784.333333333 -136.333333333 L 759.5 -138.5 L 736.5 -141.5 L 713.5 -144.5 L 685.666666667 -151.0 L 653.0 -161.0 L 599.0 -175.666666667 L 545.666666667 -196.0 L 493.0 -222.0 L 463.666666667 -236.666666667 L 432.5 -252.5 L 399.5 -269.5 L 366.5 -286.5 L 329.666666667 -306.666666667 L 289.0 -330.0 L 270.333333333 -341.333333333 L 249.833333333 -353.5 L 227.5 -366.5 L 205.166666667 -379.5 L 181.333333333 -392.666666667 L 156.0 -406.0 L 136.666666667 -418.0 L 117.5 -430.166666667 L 98.5 -442.5 L 79.5 -454.833333333 L 71.5 -467.166666667 L 74.5 -479.5 L 77.5 -491.833333333 L 84.6666666667 -497.666666667 L 96.0 -497.0 L 107.333333333 -496.333333333 L 143.0 -496.5 L 203.0 -497.5 L 263.0 -498.5 L 315.666666667 -498.666666667 L 361.0 -498.0 L 379.0 -484.666666667 L 378.833333333 -475.166666667 L 360.5 -469.5 L 342.166666667 -463.833333333 L 328.333333333 -456.666666667 L 319.0 -448.0 L 302.333333333 -430.666666667 L 295.0 -416.833333333 L 297.0 -406.5 L 299.0 -396.166666667 L 301.833333333 -388.166666667 L 305.5 -382.5 L 309.166666667 -376.833333333 L 314.666666667 -370.833333333 L 322.0 -364.5 L 329.333333333 -358.166666667 L 347.333333333 -345.0 L 376.0 -325.0 L 404.666666667 -305.0 L 440.666666667 -284.0 L 484.0 -262.0 L 522.666666667 -245.333333333 L 553.0 -231.666666667 L 575.0 -221.0 L 597.0 -210.333333333 L 632.666666667 -198.333333333 L 682.0 -185.0 L 718.666666667 -177.666666667 L 756.0 -173.166666667 L 794.0 -171.5 L 832.0 -169.833333333 L 870.666666667 -175.333333333 L 910.0 -188.0 L 937.333333333 -200.0 L 956.5 -210.333333333 L 967.5 -219.0 L 978.5 -227.666666667 L 991.0 -242.333333333 L 1005.0 -263.0 L 1017.0 -283.0 L 1023.83333333 -300.0 L 1025.5 -314.0 L 1027.16666667 -328.0 L 1027.33333333 -344.0 L 1026.0 -362.0 L 1025.33333333 -380.666666667 L 1023.16666667 -394.166666667 L 1019.5 -402.5 L 1015.83333333 -410.833333333 L 1011.16666667 -419.333333333 L 1005.5 -428.0 L 999.833333333 -436.666666667 L 992.5 -444.5 L 983.5 -451.5 L 974.5 -458.5 L 960.666666667 -463.333333333 L 942.0 -466.0 L 923.333333333 -468.666666667 L 905.0 -471.0 L 887.0 -473.0 L 879.0 -474.333333333 L 873.833333333 -477.666666667 L 871.5 -483.0 L 869.166666667 -488.333333333 L 872.0 -493.333333333 Z" fill="black" fill-opacity="0.25" stroke="black" stroke-width="4.0"/>
  <rect x="220.0" y="-811.0" width="565.0000000000001" height="356.00000000000006" fill="none" stroke="red" stroke-width="10.0" /><rect x="71.0" y="-507.0" width="1107.0" height="374.0" fill="none" stroke="red" stroke-width="10.0" />
</svg>
