<svg xmlns="http://www.w3.org/2000/svg"
  viewBox="27.466666666528013 -724.6956521732704 1125.190476191106 640.2194616953113">
  <rect x="27.466666666528013" y="-724.6956521732704" width="1125.190476191106" height="640.2194616953113" fill="white"/>
  <path d="M 772.0 -673.0 L 787.333333333 -673.0 L 794.666666667 -668.333333333 L 794.0 -659.0 L 793.333333333 -649.666666667 L 788.0 -644.0 L 778.0 -642.0 L 760.0 -638.666666667 L 748.0 -631.0 L 742.0 -619.0 L 718.0 -561.0 L 699.5 -510.666666667 L 686.5 -468.0 L 673.5 -425.333333333 L 657.0 -399.666666667 L 637.0 -391.0 L 615.666666667 -388.333333333 L 593.166666667 -386.833333333 L 569.5 -386.5 L 545.833333333 -386.166666667 L 522.666666667 -387.666666667 L 500.0 -391.0 L 490.0 -395.0 L 486.5 -399.5 L 489.5 -404.5 L 492.5 -409.5 L 497.333333333 -413.0 L 504.0 -415.0 L 510.0 -417.0 L 517.0 -425.0 L 525.0 -439.0 L 548.333333333 -480.333333333 L 567.666666667 -527.0 L 583.0 -579.0 L 598.333333333 -631.0 L 615.0 -660.0 L 633.0 -666.0 L 655.666666667 -672.666666667 L 678.666666667 -675.5 L 702.0 -674.5 L 725.333333333 -673.5 L 748.666666667 -673.0 Z M 828.0 -474.0 L 852.0 -482.666666667 L 891.666666667 -482.0 L 947.0 -472.0 L 979.666666667 -463.333333333 L 1008.66666667 -452.333333333 L 1034.0 -439.0 L 1059.33333333 -425.666666667 L 1079.0 -401.666666667 L 1093.0 -367.0 L 1101.66666667 -334.333333333 L 1104.5 -308.333333333 L 1101.5 -289.0 L 1098.5 -269.666666667 L 1087.66666667 -247.0 L 1069.0 -221.0 L 1051.0 -199.666666667 L 1030.0 -183.333333333 L 1006.0 -172.0 L 982.0 -160.666666667 L 952.666666667 -151.333333333 L 918.0 -144.0 L 883.333333333 -137.333333333 L 855.166666667 -134.166666667 L 833.5 -134.5 L 811.833333333 -134.833333333 L 788.333333333 -135.333333333 L 763.0 -136.0 L 737.666666667 -137.333333333 L 714.5 -139.5 L 693.5 -142.5 L 672.5 -145.5 L 646.666666667 -151.666666667 L 616.0 -161.0 L 566.0 -175.0 L 516.333333333 -194.0 L 467.0 -218.0 L 439.0 -232.0 L 409.833333333 -246.666666667 L 379.5 -262.0 L 349.166666667 -277.333333333 L 315.0 -296.0 L 277.0 -318.0 L 259.666666667 -328.666666667 L 240.666666667 -340.0 L 220.0 -352.0 L 199.333333333 -364.0 L 177.0 -376.0 L 153.0 -388.0 L 135.0 -399.333333333 L 117.333333333 -410.666666667 L 100.0 -422.0 L 82.6666666667 -433.333333333 L 75.3333333333 -444.833333333 L 78.0 -456.5 L 80.6666666667 -468.166666667 L 87.3333333333 -473.666666667 L 98.0 -473.0 L 108.666666667 -472.333333333 L 142.0 -472.5 L 198.0 -473.5 L 254.0 -474.5 L 302.666666667 -474.666666667 L 344.0 -474.0 L 360.666666667 -462.0 L 360.5 -453.333333333 L 343.5 -448.0 L 326.5 -442.666666667 L 314.0 -436.0 L 306.0 -428.0 L 290.666666667 -412.0 L 283.833333333 -399.166666667 L 285.5 -389.5 L 287.166666667 -379.833333333 L 289.5 -372.333333333 L 292.5 -367.0 L 295.5 -361.666666667 L 300.5 -356.0 L 307.5 -350.0 L 314.5 -344.0 L 331.5 -331.666666667 L 358.5 -313.0 L 385.5 -294.333333333 L 418.666666667 -275.0 L 458.0 -255.0 L 494.0 -239.0 L 522.333333333 -226.0 L 543.0 -216.0 L 563.666666667 -206.0 L 597.0 -194.666666667 L 643.0 -182.0 L 677.0 -175.333333333 L 711.666666667 -171.333333333 L 747.0 -170.0 L 782.333333333 -168.666666667 L 818.333333333 -174.0 L 855.0 -186.0 L 880.333333333 -197.333333333 L 898.166666667 -206.833333333 L 908.5 -214.5 L 918.833333333 -222.166666667 L 930.333333333 -235.666666667 L 943.0 -255.0 L 954.333333333 -273.666666667 L 960.833333333 -289.5 L 962.5 -302.5 L 964.166666667 -315.5 L 964.333333333 -330.333333333 L 963.0 -347.0 L 962.333333333 -364.333333333 L 960.333333333 -376.833333333 L 957.0 -384.5 L 953.666666667 -392.166666667 L 949.333333333 -400.166666667 L 944.0 -408.5 L 938.666666667 -416.833333333 L 931.833333333 -424.166666667 L 923.5 -430.5 L 915.166666667 -436.833333333 L 902.333333333 -441.333333333 L 885.0 -444.0 L 867.666666667 -446.666666667 L 850.333333333 -449.0 L 833.0 -451.0 L 825.666666667 -452.333333333 L 821.166666667 -455.5 L 819.5 -460.5 L 817.833333333 -465.5 L 820.666666667 -470.0 Z" fill="black" fill-opacity="0.25" stroke="black" stroke-width="4.0"/>
  <rect x="486.0" y="-675.0" width="309.00000000000006" height="289.00000000000006" fill="none" stroke="red" stroke-width="10.0" /><rect x="75.0" y="-483.0" width="1030.0" height="349.0" fill="none" stroke="red" stroke-width="10.0" />
</svg>
