<svg xmlns="http://www.w3.org/2000/svg"
  viewBox="23.88636363636364 -1320.0 1202.36363636223 1236.5217391303931">
  <rect x="23.88636363636364" y="-1320.0" width="1202.36363636223" height="1236.5217391303931" fill="white"/>
  <path d="M 499.0 -667.0 L 521.666666667 -667.0 L 545.333333333 -666.666666667 L 570.0 -666.0 L 594.666666667 -665.333333333 L 617.333333333 -663.666666667 L 638.0 -661.0 L 652.0 -661.0 L 667.5 -636.0 L 684.5 -586.0 L 701.5 -536.0 L 721.666666667 -492.0 L 745.0 -454.0 L 753.0 -441.333333333 L 760.333333333 -434.0 L 767.0 -432.0 L 773.0 -430.0 L 777.666666667 -426.833333333 L 781.0 -422.5 L 784.333333333 -418.166666667 L 781.0 -414.333333333 L 771.0 -411.0 L 747.666666667 -407.0 L 724.333333333 -405.333333333 L 701.0 -406.0 L 677.666666667 -406.666666667 L 655.0 -408.333333333 L 633.0 -411.0 L 612.333333333 -418.333333333 L 595.666666667 -441.666666667 L 583.0 -481.0 L 570.333333333 -520.333333333 L 552.0 -566.333333333 L 528.0 -619.0 L 526.0 -621.666666667 L 522.0 -625.5 L 516.0 -630.5 L 510.0 -635.5 L 503.0 -639.0 L 495.0 -641.0 L 484.333333333 -642.333333333 L 478.333333333 -647.0 L 477.0 -655.0 L 475.666666667 -663.0 L 483.0 -667.0 Z M 880.0 -498.0 L 905.333333333 -507.333333333 L 948.333333333 -506.666666667 L 1009.0 -496.0 L 1044.33333333 -486.666666667 L 1075.5 -474.833333333 L 1102.5 -460.5 L 1129.5 -446.166666667 L 1150.33333333 -420.666666667 L 1165.0 -384.0 L 1175.0 -348.666666667 L 1178.33333333 -320.333333333 L 1175.0 -299.0 L 1171.66666667 -277.666666667 L 1160.0 -253.333333333 L 1140.0 -226.0 L 1120.66666667 -202.666666667 L 1098.16666667 -185.166666667 L 1072.5 -173.5 L 1046.83333333 -161.833333333 L 1015.33333333 -152.0 L 978.0 -144.0 L 940.666666667 -136.666666667 L 910.333333333 -133.166666667 L 887.0 -133.5 L 863.666666667 -133.833333333 L 838.333333333 -134.333333333 L 811.0 -135.0 L 784.333333333 -136.333333333 L 759.5 -138.5 L 736.5 -141.5 L 713.5 -144.5 L 685.666666667 -151.0 L 653.0 -161.0 L 599.0 -175.666666667 L 545.666666667 -196.0 L 493.0 -222.0 L 463.666666667 -236.666666667 L 432.5 -252.5 L 399.5 -269.5 L 366.5 -286.5 L 329.666666667 -306.666666667 L 289.0 -330.0 L 270.333333333 -341.333333333 L 249.833333333 -353.5 L 227.5 -366.5 L 205.166666667 -379.5 L 181.333333333 -392.666666667 L 156.0 -406.0 L 136.666666667 -418.0 L 117.5 -430.166666667 L 98.5 -442.5 L 79.5 -454.833333333 L 71.5 -467.166666667 L 74.5 -479.5 L 77.5 -491.833333333 L 84.6666666667 -497.666666667 L 96.0 -497.0 L 107.333333333 -496.333333333 L 143.0 -496.5 L 203.0 -497.5 L 263.0 -498.5 L 315.666666667 -498.666666667 L 361.0 -498.0 L 379.0 -484.666666667 L 378.833333333 -475.166666667 L 360.5 -469.5 L 342.166666667 -463.833333333 L 328.333333333 -456.666666667 L 319.0 -448.0 L 302.333333333 -430.666666667 L 295.0 -416.833333333 L 297.0 -406.5 L 299.0 -396.166666667 L 301.833333333 -388.166666667 L 305.5 -382.5 L 309.166666667 -376.833333333 L 314.666666667 -370.833333333 L 322.0 -364.5 L 329.333333333 -358.166666667 L 347.333333333 -345.0 L 376.0 -325.0 L 404.666666667 -305.0 L 440.666666667 -284.0 L 484.0 -262.0 L 522.666666667 -245.333333333 L 553.0 -231.666666667 L 575.0 -221.0 L 597.0 -210.333333333 L 632.666666667 -198.333333333 L 682.0 -185.0 L 718.666666667 -177.666666667 L 756.0 -173.166666667 L 794.0 -171.5 L 832.0 -169.833333333 L 870.666666667 -175.333333333 L 910.0 -188.0 L 937.333333333 -200.0 L 956.5 -210.333333333 L 967.5 -219.0 L 978.5 -227.666666667 L 991.0 -242.333333333 L 1005.0 -263.0 L 1017.0 -283.0 L 1023.83333333 -300.0 L 1025.5 -314.0 L 1027.16666667 -328.0 L 1027.33333333 -344.0 L 1026.0 -362.0 L 1025.33333333 -380.666666667 L 1023.16666667 -394.166666667 L 1019.5 -402.5 L 1015.83333333 -410.833333333 L 1011.16666667 -419.333333333 L 1005.5 -428.0 L 999.833333333 -436.666666667 L 992.5 -444.5 L 983.5 -451.5 L 974.5 -458.5 L 960.666666667 -463.333333333 L 942.0 -466.0 L 923.333333333 -468.666666667 L 905.0 -471.0 L 887.0 -473.0 L 879.0 -474.333333333 L 873.833333333 -477.666666667 L 871.5 -483.0 L 869.166666667 -488.333333333 L 872.0 -493.333333333 Z M 966.0 -1270.0 L 976.0 -1268.66666667 L 980.333333333 -1264.0 L 979.0 -1256.0 L 977.666666667 -1248.0 L 971.333333333 -1243.66666667 L 960.0 -1243.0 L 947.333333333 -1239.0 L 937.0 -1224.16666667 L 929.0 -1198.5 L 921.0 -1172.83333333 L 912.666666667 -1145.66666667 L 904.0 -1117.0 L 883.333333333 -1049.66666667 L 864.166666667 -995.166666667 L 846.5 -953.5 L 828.833333333 -911.833333333 L 812.333333333 -882.833333333 L 797.0 -866.5 L 781.666666667 -850.166666667 L 763.333333333 -837.666666667 L 742.0 -829.0 L 708.666666667 -815.666666667 L 675.666666667 -805.833333333 L 643.0 -799.5 L 610.333333333 -793.166666667 L 582.333333333 -790.0 L 559.0 -790.0 L 571.0 -764.0 L 590.666666667 -746.166666667 L 618.0 -736.5 L 645.333333333 -726.833333333 L 653.333333333 -716.333333333 L 642.0 -705.0 L 635.333333333 -699.0 L 614.0 -707.333333333 L 578.0 -730.0 L 542.0 -752.666666667 L 517.333333333 -775.0 L 504.0 -797.0 L 504.0 -811.0 L 510.333333333 -816.833333333 L 523.0 -814.5 L 535.666666667 -812.166666667 L 549.0 -810.333333333 L 563.0 -809.0 L 577.666666667 -808.333333333 L 592.5 -809.166666667 L 607.5 -811.5 L 622.5 -813.833333333 L 642.666666667 -820.666666667 L 668.0 -832.0 L 680.666666667 -838.0 L 692.333333333 -851.0 L 703.0 -871.0 L 713.666666667 -891.0 L 723.5 -913.166666667 L 732.5 -937.5 L 741.5 -961.833333333 L 749.166666667 -985.833333333 L 755.5 -1009.5 L 761.833333333 -1033.16666667 L 769.833333333 -1067.5 L 779.5 -1112.5 L 789.166666667 -1157.5 L 797.666666667 -1187.66666667 L 805.0 -1203.0 L 812.333333333 -1218.33333333 L 822.666666667 -1230.66666667 L 836.0 -1240.0 L 849.333333333 -1249.33333333 L 862.0 -1255.33333333 L 874.0 -1258.0 L 886.0 -1260.66666667 L 899.5 -1262.83333333 L 914.5 -1264.5 L 929.5 -1266.16666667 L 946.666666667 -1268.0 Z" fill="black" fill-opacity="0.25" stroke="black" stroke-width="4.0"/>
  <rect x="476.0" y="-667.0" width="308.00000000000006" height="262.0" fill="none" stroke="red" stroke-width="10.0" /><rect x="71.0" y="-507.0" width="1107.0" height="374.0" fill="none" stroke="red" stroke-width="10.0" /><rect x="504.0" y="-1270.0" width="476.0" height="571.0000000000001" fill="none" stroke="red" stroke-width="10.0" />
</svg>
