<svg xmlns="http://www.w3.org/2000/svg"
  viewBox="23.88636363636364 -1275.0 1288.3358585850904 1191.5217391303931">
  <rect x="23.88636363636364" y="-1275.0" width="1288.3358585850904" height="1191.5217391303931" fill="white"/>
  <path d="M 880.0 -498.0 L 905.333333333 -507.333333333 L 948.333333333 -506.666666667 L 1009.0 -496.0 L 1044.33333333 -486.666666667 L 1075.5 -474.833333333 L 1102.5 -460.5 L 1129.5 -446.166666667 L 1150.33333333 -420.666666667 L 1165.0 -384.0 L 1175.0 -348.666666667 L 1178.33333333 -320.333333333 L 1175.0 -299.0 L 1171.66666667 -277.666666667 L 1160.0 -253.333333333 L 1140.0 -226.0 L 1120.66666667 -202.666666667 L 1098.16666667 -185.166666667 L 1072.5 -173.5 L 1046.83333333 -161.833333333 L 1015.33333333 -152.0 L 978.0 -144.0 L 940.666666667 -136.666666667 L 910.333333333 -133.166666667 L 887.0 -133.5 L 863.666666667 -133.833333333 L 838.333333333 -134.333333333 L 811.0 -135.0 L 784.333333333 -136.333333333 L 759.5 -138.5 L 736.5 -141.5 L 713.5 -144.5 L 685.666666667 -151.0 L 653.0 -161.0 L 599.0 -175.666666667 L 545.666666667 -196.0 L 493.0 -222.0 L 463.666666667 -236.666666667 L 432.5 -252.5 L 399.5 -269.5 L 366.5 -286.5 L 329.666666667 -306.666666667 L 289.0 -330.0 L 270.333333333 -341.333333333 L 249.833333333 -353.5 L 227.5 -366.5 L 205.166666667 -379.5 L 181.333333333 -392.666666667 L 156.0 -406.0 L 136.666666667 -418.0 L 117.5 -430.166666667 L 98.5 -442.5 L 79.5 -454.833333333 L 71.5 -467.166666667 L 74.5 -479.5 L 77.5 -491.833333333 L 84.6666666667 -497.666666667 L 96.0 -497.0 L 107.333333333 -496.333333333 L 143.0 -496.5 L 203.0 -497.5 L 263.0 -498.5 L 315.666666667 -498.666666667 L 361.0 -498.0 L 379.0 -484.666666667 L 378.833333333 -475.166666667 L 360.5 -469.5 L 342.166666667 -463.833333333 L 328.333333333 -456.666666667 L 319.0 -448.0 L 302.333333333 -430.666666667 L 295.0 -416.833333333 L 297.0 -406.5 L 299.0 -396.166666667 L 301.833333333 -388.166666667 L 305.5 -382.5 L 309.166666667 -376.833333333 L 314.666666667 -370.833333333 L 322.0 -364.5 L 329.333333333 -358.166666667 L 347.333333333 -345.0 L 376.0 -325.0 L 404.666666667 -305.0 L 440.666666667 -284.0 L 484.0 -262.0 L 522.666666667 -245.333333333 L 553.0 -231.666666667 L 575.0 -221.0 L 597.0 -210.333333333 L 632.666666667 -198.333333333 L 682.0 -185.0 L 718.666666667 -177.666666667 L 756.0 -173.166666667 L 794.0 -171.5 L 832.0 -169.833333333 L 870.666666667 -175.333333333 L 910.0 -188.0 L 937.333333333 -200.0 L 956.5 -210.333333333 L 967.5 -219.0 L 978.5 -227.666666667 L 991.0 -242.333333333 L 1005.0 -263.0 L 1017.0 -283.0 L 1023.83333333 -300.0 L 1025.5 -314.0 L 1027.16666667 -328.0 L 1027.33333333 -344.0 L 1026.0 -362.0 L 1025.33333333 -380.666666667 L 1023.16666667 -394.166666667 L 1019.5 -402.5 L 1015.83333333 -410.833333333 L 1011.16666667 -419.333333333 L 1005.5 -428.0 L 999.833333333 -436.666666667 L 992.5 -444.5 L 983.5 -451.5 L 974.5 -458.5 L 960.666666667 -463.333333333 L 942.0 -466.0 L 923.333333333 -468.666666667 L 905.0 -471.0 L 887.0 -473.0 L 879.0 -474.333333333 L 873.833333333 -477.666666667 L 871.5 -483.0 L 869.166666667 -488.333333333 L 872.0 -493.333333333 Z M 1248.0 -1225.0 L 1258.66666667 -1223.0 L 1263.33333333 -1217.83333333 L 1262.0 -1209.5 L 1260.66666667 -1201.16666667 L 1254.0 -1196.33333333 L 1242.0 -1195.0 L 1228.66666667 -1190.33333333 L 1218.0 -1173.5 L 1210.0 -1144.5 L 1202.0 -1115.5 L 1193.33333333 -1085.0 L 1184.0 -1053.0 L 1162.66666667 -977.0 L 1143.0 -915.333333333 L 1125.0 -868.0 L 1107.0 -820.666666667 L 1090.0 -787.666666667 L 1074.0 -769.0 L 1058.0 -750.333333333 L 1039.0 -736.0 L 1017.0 -726.0 L 982.333333333 -711.333333333 L 948.333333333 -700.333333333 L 915.0 -693.0 L 881.666666667 -685.666666667 L 852.666666667 -682.0 L 828.0 -682.0 L 840.666666667 -653.333333333 L 861.166666667 -633.5 L 889.5 -622.5 L 917.833333333 -611.5 L 926.0 -599.666666667 L 914.0 -587.0 L 906.666666667 -579.666666667 L 884.5 -588.833333333 L 847.5 -614.5 L 810.5 -640.166666667 L 785.0 -665.333333333 L 771.0 -690.0 L 771.0 -705.333333333 L 777.5 -711.833333333 L 790.5 -709.5 L 803.5 -707.166666667 L 817.666666667 -705.333333333 L 833.0 -704.0 L 847.666666667 -703.333333333 L 862.666666667 -704.333333333 L 878.0 -707.0 L 893.333333333 -709.666666667 L 914.0 -717.666666667 L 940.0 -731.0 L 953.333333333 -737.666666667 L 965.666666667 -752.166666667 L 977.0 -774.5 L 988.333333333 -796.833333333 L 998.5 -821.666666667 L 1007.5 -849.0 L 1016.5 -876.333333333 L 1024.33333333 -903.5 L 1031.0 -930.5 L 1037.66666667 -957.5 L 1046.0 -996.5 L 1056.0 -1047.5 L 1066.0 -1098.5 L 1074.83333333 -1132.66666667 L 1082.5 -1150.0 L 1090.16666667 -1167.33333333 L 1100.83333333 -1181.33333333 L 1114.5 -1192.0 L 1128.16666667 -1202.66666667 L 1141.16666667 -1209.5 L 1153.5 -1212.5 L 1165.83333333 -1215.5 L 1179.66666667 -1217.66666667 L 1195.0 -1219.0 L 1210.33333333 -1220.33333333 L 1228.0 -1222.33333333 Z" fill="black" fill-opacity="0.25" stroke="black" stroke-width="4.0"/>
  <rect x="71.0" y="-507.0" width="1107.0" height="374.0" fill="none" stroke="red" stroke-width="10.0" /><rect x="771.0" y="-798.0" width="324.2999999999999" height="213.40000000000003" fill="none" stroke="red" stroke-width="10.0" /><rect x="988.8000000000001" y="-1011.5000000000001" width="183.6000000000001" height="213.50000000000003" fill="none" stroke="red" stroke-width="10.0" /><rect x="1048.8999999999999" y="-1225.0" width="214.40000000000015" height="213.50000000000003" fill="none" stroke="red" stroke-width="10.0" />
</svg>
