<svg xmlns="http://www.w3.org/2000/svg"
  viewBox="-2.562 -555 1745.686 474">
  <rect x="-2.562" y="-555" width="1745.686" height="474" fill="white"/>
  <path d="M 330 -138 L 322.667 -143.333 L 322.167 -148.5 L 328.5 -153.5 L 334.833 -158.5 L 343 -161 L 353 -161 L 363.667 -161 L 378.167 -170.5 L 396.5 -189.5 L 414.833 -208.5 L 427 -231.667 L 433 -259 L 442.333 -305 L 418 -343 L 360 -373 L 338 -383.667 L 310.667 -393.167 L 278 -401.5 L 245.333 -409.833 L 213.333 -416.833 L 182 -422.5 L 150.667 -428.167 L 123.167 -433 L 99.5 -437 L 75.833 -441 L 62 -443.667 L 58 -445 L 49.333 -448.333 L 46 -453 L 48 -459 L 50 -465 L 54.667 -468 L 62 -468 L 69.333 -468 L 110.833 -462.5 L 186.5 -451.5 L 262.167 -440.5 L 331.333 -423 L 394 -399 L 431.333 -384.333 L 461.167 -369.667 L 483.5 -355 L 505.833 -340.333 L 526.333 -320.667 L 545 -296 L 563.667 -271.333 L 571.5 -246.5 L 568.5 -221.5 L 565.5 -196.5 L 554.667 -177 L 536 -163 L 518.667 -150.333 L 499 -141.833 L 477 -137.5 L 455 -133.167 L 434 -131 L 414 -131 L 384 -131 L 384 -131 L 372 -131 L 364 -131 L 350 -133.333 Z M 887 -140 L 861.667 -130.667 L 819 -131.333 L 759 -142 L 723.667 -150.667 L 692.5 -162.333 L 665.5 -177 L 638.5 -191.667 L 617.667 -217.333 L 603 -254 L 593 -289.333 L 589.667 -317.5 L 593 -338.5 L 596.333 -359.5 L 608 -384 L 628 -412 L 647.333 -435.333 L 669.833 -453 L 695.5 -465 L 721.167 -477 L 752.667 -486.667 L 790 -494 L 827.333 -501.333 L 857.667 -505 L 881 -505 L 904.333 -505 L 929.667 -504.333 L 957 -503 L 983.667 -501.667 L 1008.333 -499.5 L 1031 -496.5 L 1053.667 -493.5 L 1081.333 -487 L 1114 -477 L 1168 -462.333 L 1221.333 -442 L 1274 -416 L 1303.333 -401.333 L 1334.667 -385.5 L 1368 -368.5 L 1401.333 -351.5 L 1438.333 -331.333 L 1479 -308 L 1497.667 -296.667 L 1518 -284.667 L 1540 -272 L 1562 -259.333 L 1586 -246.333 L 1612 -233 L 1631.333 -221 L 1650.333 -208.833 L 1669 -196.5 L 1687.667 -184.167 L 1695.5 -171.833 L 1692.5 -159.5 L 1689.5 -147.167 L 1682.333 -141.333 L 1671 -142 L 1659.667 -142.667 L 1624 -142.333 L 1564 -141 L 1504 -139.667 L 1451.667 -139.333 L 1407 -140 L 1389 -153.333 L 1389.167 -163 L 1407.5 -169 L 1425.833 -175 L 1439.333 -182.333 L 1448 -191 L 1464.667 -208.333 L 1472.167 -222 L 1470.5 -232 L 1468.833 -242 L 1466.167 -249.833 L 1462.5 -255.5 L 1458.833 -261.167 L 1453.333 -267.167 L 1446 -273.5 L 1438.667 -279.833 L 1420.5 -293 L 1391.5 -313 L 1362.5 -333 L 1326.667 -354 L 1284 -376 L 1245.333 -392.667 L 1215 -406.333 L 1193 -417 L 1171 -427.667 L 1135 -439.667 L 1085 -453 L 1048.333 -460.333 L 1011.167 -464.833 L 973.5 -466.5 L 935.833 -468.167 L 897.333 -462.667 L 858 -450 L 830.667 -438 L 811.333 -427.833 L 800 -419.5 L 788.667 -411.167 L 776.333 -396.333 L 763 -375 L 751 -355 L 744 -338 L 742 -324 L 740 -310 L 739.667 -294 L 741 -276 L 741.667 -257.333 L 743.833 -243.833 L 747.5 -235.5 L 751.167 -227.167 L 756 -218.833 L 762 -210.5 L 768 -202.167 L 775.5 -194.5 L 784.5 -187.5 L 793.5 -180.5 L 807.333 -175.5 L 826 -172.5 L 844.667 -169.5 L 863 -167 L 881 -165 L 889 -163.667 L 894 -160.333 L 896 -155 L 898 -149.667 L 895 -144.667 Z" fill="black" fill-opacity="0.25" stroke="black" stroke-width="4"/>
  <rect x="46" y="-468" width="526" height="337" fill="none" stroke="red" stroke-width="10" /><rect x="590" y="-505" width="1106" height="374" fill="none" stroke="red" stroke-width="10" />
</svg>
