<svg xmlns="http://www.w3.org/2000/svg"
  viewBox="-2.5624999999492175 -555.0 1745.6855769231913 474.0">
  <rect x="-2.5624999999492175" y="-555.0" width="1745.6855769231913" height="474.0" fill="white"/>
  <path d="M 330.0 -138.0 L 322.666666667 -143.333333333 L 322.166666667 -148.5 L 328.5 -153.5 L 334.833333333 -158.5 L 343.0 -161.0 L 353.0 -161.0 L 363.666666667 -161.0 L 378.166666667 -170.5 L 396.5 -189.5 L 414.833333333 -208.5 L 427.0 -231.666666667 L 433.0 -259.0 L 442.333333333 -305.0 L 418.0 -343.0 L 360.0 -373.0 L 338.0 -383.666666667 L 310.666666667 -393.166666667 L 278.0 -401.5 L 245.333333333 -409.833333333 L 213.333333333 -416.833333333 L 182.0 -422.5 L 150.666666667 -428.166666667 L 123.166666667 -433.0 L 99.5 -437.0 L 75.8333333333 -441.0 L 62.0 -443.666666667 L 58.0 -445.0 L 49.3333333333 -448.333333333 L 46.0 -453.0 L 48.0 -459.0 L 50.0 -465.0 L 54.6666666667 -468.0 L 62.0 -468.0 L 69.3333333333 -468.0 L 110.833333333 -462.5 L 186.5 -451.5 L 262.166666667 -440.5 L 331.333333333 -423.0 L 394.0 -399.0 L 431.333333333 -384.333333333 L 461.166666667 -369.666666667 L 483.5 -355.0 L 505.833333333 -340.333333333 L 526.333333333 -320.666666667 L 545.0 -296.0 L 563.666666667 -271.333333333 L 571.5 -246.5 L 568.5 -221.5 L 565.5 -196.5 L 554.666666667 -177.0 L 536.0 -163.0 L 518.666666667 -150.333333333 L 499.0 -141.833333333 L 477.0 -137.5 L 455.0 -133.166666667 L 434.0 -131.0 L 414.0 -131.0 L 384.0 -131.0 L 384.0 -131.0 L 372.0 -131.0 L 364.0 -131.0 L 350.0 -133.333333333 Z M 887.0 -140.0 L 861.666666667 -130.666666667 L 819.0 -131.333333333 L 759.0 -142.0 L 723.666666667 -150.666666667 L 692.5 -162.333333333 L 665.5 -177.0 L 638.5 -191.666666667 L 617.666666667 -217.333333333 L 603.0 -254.0 L 593.0 -289.333333333 L 589.666666667 -317.5 L 593.0 -338.5 L 596.333333333 -359.5 L 608.0 -384.0 L 628.0 -412.0 L 647.333333333 -435.333333333 L 669.833333333 -453.0 L 695.5 -465.0 L 721.166666667 -477.0 L 752.666666667 -486.666666667 L 790.0 -494.0 L 827.333333333 -501.333333333 L 857.666666667 -505.0 L 881.0 -505.0 L 904.333333333 -505.0 L 929.666666667 -504.333333333 L 957.0 -503.0 L 983.666666667 -501.666666667 L 1008.33333333 -499.5 L 1031.0 -496.5 L 1053.66666667 -493.5 L 1081.33333333 -487.0 L 1114.0 -477.0 L 1168.0 -462.333333333 L 1221.33333333 -442.0 L 1274.0 -416.0 L 1303.33333333 -401.333333333 L 1334.66666667 -385.5 L 1368.0 -368.5 L 1401.33333333 -351.5 L 1438.33333333 -331.333333333 L 1479.0 -308.0 L 1497.66666667 -296.666666667 L 1518.0 -284.666666667 L 1540.0 -272.0 L 1562.0 -259.333333333 L 1586.0 -246.333333333 L 1612.0 -233.0 L 1631.33333333 -221.0 L 1650.33333333 -208.833333333 L 1669.0 -196.5 L 1687.66666667 -184.166666667 L 1695.5 -171.833333333 L 1692.5 -159.5 L 1689.5 -147.166666667 L 1682.33333333 -141.333333333 L 1671.0 -142.0 L 1659.66666667 -142.666666667 L 1624.0 -142.333333333 L 1564.0 -141.0 L 1504.0 -139.666666667 L 1451.66666667 -139.333333333 L 1407.0 -140.0 L 1389.0 -153.333333333 L 1389.16666667 -163.0 L 1407.5 -169.0 L 1425.83333333 -175.0 L 1439.33333333 -182.333333333 L 1448.0 -191.0 L 1464.66666667 -208.333333333 L 1472.16666667 -222.0 L 1470.5 -232.0 L 1468.83333333 -242.0 L 1466.16666667 -249.833333333 L 1462.5 -255.5 L 1458.83333333 -261.166666667 L 1453.33333333 -267.166666667 L 1446.0 -273.5 L 1438.66666667 -279.833333333 L 1420.5 -293.0 L 1391.5 -313.0 L 1362.5 -333.0 L 1326.66666667 -354.0 L 1284.0 -376.0 L 1245.33333333 -392.666666667 L 1215.0 -406.333333333 L 1193.0 -417.0 L 1171.0 -427.666666667 L 1135.0 -439.666666667 L 1085.0 -453.0 L 1048.33333333 -460.333333333 L 1011.16666667 -464.833333333 L 973.5 -466.5 L 935.833333333 -468.166666667 L 897.333333333 -462.666666667 L 858.0 -450.0 L 830.666666667 -438.0 L 811.333333333 -427.833333333 L 800.0 -419.5 L 788.666666667 -411.166666667 L 776.333333333 -396.333333333 L 763.0 -375.0 L 751.0 -355.0 L 744.0 -338.0 L 742.0 -324.0 L 740.0 -310.0 L 739.666666667 -294.0 L 741.0 -276.0 L 741.666666667 -257.333333333 L 743.833333333 -243.833333333 L 747.5 -235.5 L 751.166666667 -227.166666667 L 756.0 -218.833333333 L 762.0 -210.5 L 768.0 -202.166666667 L 775.5 -194.5 L 784.5 -187.5 L 793.5 -180.5 L 807.333333333 -175.5 L 826.0 -172.5 L 844.666666667 -169.5 L 863.0 -167.0 L 881.0 -165.0 L 889.0 -163.666666667 L 894.0 -160.333333333 L 896.0 -155.0 L 898.0 -149.666666667 L 895.0 -144.666666667 Z" fill="black" fill-opacity="0.25" stroke="black" stroke-width="4.0"/>
  <rect x="46.0" y="-468.0" width="525.9999999999999" height="337.0" fill="none" stroke="red" stroke-width="10.0" /><rect x="590.0" y="-505.0" width="1105.9999999999998" height="374.0" fill="none" stroke="red" stroke-width="10.0" />
</svg>
