<svg xmlns="http://www.w3.org/2000/svg"
  viewBox="-50.000117207116254 -601.2859135969981 1139.3047748750946 876.2859135969981">
  <rect x="-50.000117207116254" y="-601.2859135969981" width="1139.3047748750946" height="876.2859135969981" fill="white"/>
  <path d="M 789.200195312 217.0 L 781.866210938 211.0 L 781.533203125 205.666992188 L 788.200195312 201.0 L 794.866210938 196.333007812 L 803.200195312 194.0 L 813.200195312 194.0 L 823.866210938 194.0 L 839.033203125 184.0 L 858.700195312 164.0 L 878.366210938 144.0 L 891.200195312 120.0 L 897.200195312 92.0 L 907.200195312 43.3330078125 L 881.533203125 3.3330078125 L 820.200195312 -28.0 L 754.200195312 -60.6669921875 L 669.533203125 -82.3330078125 L 566.200195312 -93.0 L 548.866210938 -94.3330078125 L 529.200195312 -95.0 L 507.200195312 -95.0 L 485.200195312 -95.0 L 472.866210938 -95.3330078125 L 470.200195312 -96.0 L 460.866210938 -99.3330078125 L 457.366210938 -105.0 L 459.700195312 -113.0 L 462.033203125 -121.0 L 466.866210938 -125.333007812 L 474.200195312 -126.0 L 481.533203125 -126.666992188 L 499.700195312 -126.166992188 L 528.700195312 -124.5 L 557.700195312 -122.833007812 L 589.200195312 -119.666992188 L 623.200195312 -115.0 L 662.533203125 -109.0 L 702.366210938 -101.0 L 742.700195312 -91.0 L 783.033203125 -81.0 L 820.866210938 -69.3330078125 L 856.200195312 -56.0 L 895.533203125 -40.6669921875 L 926.866210938 -25.1669921875 L 950.200195312 -9.5 L 973.533203125 6.1669921875 L 994.866210938 26.6669921875 L 1014.20019531 52.0 L 1033.53320312 78.6669921875 L 1041.70019531 105.0 L 1038.70019531 131.0 L 1035.70019531 157.0 L 1024.20019531 177.333007812 L 1004.20019531 192.0 L 986.866210938 205.333007812 L 966.700195312 214.166992188 L 943.700195312 218.5 L 920.700195312 222.833007812 L 898.533203125 225.0 L 877.200195312 225.0 L 855.866210938 225.0 L 841.200195312 224.833007812 L 833.200195312 224.5 L 825.200195312 224.166992188 L 810.533203125 221.666992188 Z M 330.200195312 -208.0 L 322.866210938 -214.0 L 322.533203125 -219.5 L 329.200195312 -224.5 L 335.866210938 -229.5 L 344.200195312 -232.0 L 354.200195312 -232.0 L 364.866210938 -232.0 L 380.033203125 -241.666992188 L 399.700195312 -261.0 L 419.366210938 -280.333007812 L 432.200195312 -304.333007812 L 438.200195312 -333.0 L 448.200195312 -381.666992188 L 422.533203125 -421.666992188 L 361.200195312 -453.0 L 295.866210938 -485.666992188 L 211.200195312 -507.0 L 107.200195312 -517.0 L 89.2001953125 -519.0 L 69.533203125 -519.833007812 L 48.2001953125 -519.5 L 26.8662109375 -519.166992188 L 14.533203125 -519.666992188 L 11.2001953125 -521.0 L 1.8662109375 -524.333007812 L -1.6337890625 -530.0 L 0.7001953125 -538.0 L 3.033203125 -546.0 L 7.8662109375 -550.333007812 L 15.2001953125 -551.0 L 22.533203125 -551.666992188 L 40.533203125 -551.166992188 L 69.2001953125 -549.5 L 97.8662109375 -547.833007812 L 129.533203125 -544.666992188 L 164.200195312 -540.0 L 203.533203125 -534.0 L 243.366210938 -526.0 L 283.700195312 -516.0 L 324.033203125 -506.0 L 361.866210938 -494.333007812 L 397.200195312 -481.0 L 436.533203125 -465.666992188 L 467.866210938 -450.166992188 L 491.200195312 -434.5 L 514.533203125 -418.833007812 L 535.866210938 -398.0 L 555.200195312 -372.0 L 574.533203125 -345.333007812 L 582.700195312 -319.166992188 L 579.700195312 -293.5 L 576.700195312 -267.833007812 L 565.533203125 -248.0 L 546.200195312 -234.0 L 528.866210938 -220.666992188 L 508.533203125 -211.666992188 L 485.200195312 -207.0 L 461.866210938 -202.333007812 L 439.533203125 -200.0 L 418.200195312 -200.0 L 387.200195312 -200.0 L 387.200195312 -200.0 L 374.700195312 -200.0 L 366.366210938 -200.0 L 351.533203125 -202.666992188 Z" fill="black" fill-opacity="0.25" stroke="black" stroke-width="4.0"/>
  <rect x="457.0" y="-127.0" width="585.0" height="352.0" fill="none" stroke="red" stroke-width="10.0" /><rect x="-2.0" y="-552.0" width="585.0" height="352.00000000000006" fill="none" stroke="red" stroke-width="10.0" />
</svg>
