<svg xmlns="http://www.w3.org/2000/svg"
  viewBox="-50 -546.286 681.304 451.286">
  <rect x="-50" y="-546.286" width="681.304" height="451.286" fill="white"/>
  <path d="M 331.2 -153 L 323.867 -159 L 323.367 -164.5 L 329.7 -169.5 L 336.033 -174.5 L 344.2 -177 L 354.2 -177 L 364.867 -177 L 380.033 -186.833 L 399.7 -206.5 L 419.367 -226.167 L 432.2 -250.333 L 438.2 -279 L 448.2 -327.667 L 422.867 -367.333 L 362.2 -398 L 296.2 -430.667 L 211.2 -452.333 L 107.2 -463 L 89.2 -464.333 L 69.533 -465 L 48.2 -465 L 26.867 -465 L 14.533 -465.667 L 11.2 -467 L 1.867 -470.333 L -1.633 -475.833 L 0.7 -483.5 L 3.033 -491.167 L 8.2 -495.333 L 16.2 -496 L 23.533 -496.667 L 41.533 -496.167 L 70.2 -494.5 L 98.867 -492.833 L 130.533 -489.667 L 165.2 -485 L 204.533 -479 L 244.367 -471.167 L 284.7 -461.5 L 325.033 -451.833 L 362.533 -440 L 397.2 -426 L 436.533 -410.667 L 467.867 -395.167 L 491.2 -379.5 L 514.533 -363.833 L 536.2 -343.333 L 556.2 -318 L 575.533 -291.333 L 583.7 -265 L 580.7 -239 L 577.7 -213 L 566.2 -192.667 L 546.2 -178 L 528.2 -164.667 L 507.7 -155.833 L 484.7 -151.5 L 461.7 -147.167 L 439.533 -145 L 418.2 -145 L 396.867 -145 L 382.367 -145.167 L 374.7 -145.5 L 367.033 -145.833 L 352.533 -148.333 Z" fill="black" fill-opacity="0.25" stroke="black" stroke-width="4"/>
  <rect x="-2" y="-497" width="586" height="352" fill="none" stroke="red" stroke-width="10" />
</svg>
