<svg xmlns="http://www.w3.org/2000/svg"
  viewBox="-49.99964844240488 -546.2859135969982 681.3043061125238 451.2859135969981">
  <rect x="-49.99964844240488" y="-546.2859135969982" width="681.3043061125238" height="451.2859135969981" fill="white"/>
  <path d="M 331.200195312 -153.0 L 323.8671875 -159.0 L 323.3671875 -164.5 L 329.700195312 -169.5 L 336.033203125 -174.5 L 344.200195312 -177.0 L 354.200195312 -177.0 L 364.8671875 -177.0 L 380.033203125 -186.833007812 L 399.700195312 -206.5 L 419.3671875 -226.166992188 L 432.200195312 -250.333007812 L 438.200195312 -279.0 L 448.200195312 -327.666992188 L 422.8671875 -367.333007812 L 362.200195312 -398.0 L 296.200195312 -430.666992188 L 211.200195312 -452.333007812 L 107.200195312 -463.0 L 89.2001953125 -464.333007812 L 69.533203125 -465.0 L 48.2001953125 -465.0 L 26.8671875 -465.0 L 14.533203125 -465.666992188 L 11.2001953125 -467.0 L 1.8671875 -470.333007812 L -1.6328125 -475.833007812 L 0.7001953125 -483.5 L 3.033203125 -491.166992188 L 8.2001953125 -495.333007812 L 16.2001953125 -496.0 L 23.533203125 -496.666992188 L 41.533203125 -496.166992188 L 70.2001953125 -494.5 L 98.8671875 -492.833007812 L 130.533203125 -489.666992188 L 165.200195312 -485.0 L 204.533203125 -479.0 L 244.3671875 -471.166992188 L 284.700195312 -461.5 L 325.033203125 -451.833007812 L 362.533203125 -440.0 L 397.200195312 -426.0 L 436.533203125 -410.666992188 L 467.8671875 -395.166992188 L 491.200195312 -379.5 L 514.533203125 -363.833007812 L 536.200195312 -343.333007812 L 556.200195312 -318.0 L 575.533203125 -291.333007812 L 583.700195312 -265.0 L 580.700195312 -239.0 L 577.700195312 -213.0 L 566.200195312 -192.666992188 L 546.200195312 -178.0 L 528.200195312 -164.666992188 L 507.700195312 -155.833007812 L 484.700195312 -151.5 L 461.700195312 -147.166992188 L 439.533203125 -145.0 L 418.200195312 -145.0 L 396.8671875 -145.0 L 382.3671875 -145.166992188 L 374.700195312 -145.5 L 367.033203125 -145.833007812 L 352.533203125 -148.333007812 Z" fill="black" fill-opacity="0.25" stroke="black" stroke-width="4.0"/>
  <rect x="-2.0" y="-497.0" width="586.0" height="352.0" fill="none" stroke="red" stroke-width="10.0" />
</svg>
