<svg xmlns="http://www.w3.org/2000/svg"
  viewBox="-50 -601.286 1139.305 876.286">
  <rect x="-50" y="-601.286" width="1139.305" height="876.286" fill="white"/>
  <path d="M 789.2 217 L 781.866 211 L 781.533 205.667 L 788.2 201 L 794.866 196.333 L 803.2 194 L 813.2 194 L 823.866 194 L 839.033 184 L 858.7 164 L 878.366 144 L 891.2 120 L 897.2 92 L 907.2 43.333 L 881.533 3.333 L 820.2 -28 L 754.2 -60.667 L 669.533 -82.333 L 566.2 -93 L 548.866 -94.333 L 529.2 -95 L 507.2 -95 L 485.2 -95 L 472.866 -95.333 L 470.2 -96 L 460.866 -99.333 L 457.366 -105 L 459.7 -113 L 462.033 -121 L 466.866 -125.333 L 474.2 -126 L 481.533 -126.667 L 499.7 -126.167 L 528.7 -124.5 L 557.7 -122.833 L 589.2 -119.667 L 623.2 -115 L 662.533 -109 L 702.366 -101 L 742.7 -91 L 783.033 -81 L 820.866 -69.333 L 856.2 -56 L 895.533 -40.667 L 926.866 -25.167 L 950.2 -9.5 L 973.533 6.167 L 994.866 26.667 L 1014.2 52 L 1033.533 78.667 L 1041.7 105 L 1038.7 131 L 1035.7 157 L 1024.2 177.333 L 1004.2 192 L 986.866 205.333 L 966.7 214.167 L 943.7 218.5 L 920.7 222.833 L 898.533 225 L 877.2 225 L 855.866 225 L 841.2 224.833 L 833.2 224.5 L 825.2 224.167 L 810.533 221.667 Z M 330.2 -208 L 322.866 -214 L 322.533 -219.5 L 329.2 -224.5 L 335.866 -229.5 L 344.2 -232 L 354.2 -232 L 364.866 -232 L 380.033 -241.667 L 399.7 -261 L 419.366 -280.333 L 432.2 -304.333 L 438.2 -333 L 448.2 -381.667 L 422.533 -421.667 L 361.2 -453 L 295.866 -485.667 L 211.2 -507 L 107.2 -517 L 89.2 -519 L 69.533 -519.833 L 48.2 -519.5 L 26.866 -519.167 L 14.533 -519.667 L 11.2 -521 L 1.866 -524.333 L -1.634 -530 L 0.7 -538 L 3.033 -546 L 7.866 -550.333 L 15.2 -551 L 22.533 -551.667 L 40.533 -551.167 L 69.2 -549.5 L 97.866 -547.833 L 129.533 -544.667 L 164.2 -540 L 203.533 -534 L 243.366 -526 L 283.7 -516 L 324.033 -506 L 361.866 -494.333 L 397.2 -481 L 436.533 -465.667 L 467.866 -450.167 L 491.2 -434.5 L 514.533 -418.833 L 535.866 -398 L 555.2 -372 L 574.533 -345.333 L 582.7 -319.167 L 579.7 -293.5 L 576.7 -267.833 L 565.533 -248 L 546.2 -234 L 528.866 -220.667 L 508.533 -211.667 L 485.2 -207 L 461.866 -202.333 L 439.533 -200 L 418.2 -200 L 387.2 -200 L 387.2 -200 L 374.7 -200 L 366.366 -200 L 351.533 -202.667 Z" fill="black" fill-opacity="0.25" stroke="black" stroke-width="4"/>
  <rect x="457" y="-127" width="585" height="352" fill="none" stroke="red" stroke-width="10" /><rect x="-2" y="-552" width="585" height="352" fill="none" stroke="red" stroke-width="10" />
</svg>
