<svg xmlns="http://www.w3.org/2000/svg"
  viewBox="-242 -862 507 908.267">
  <rect x="-242" y="-862" width="507" height="908.267" fill="white"/>
  <path d="M -1 -248 Z M 15 -812 L -35.667 -810 L -76.167 -801.5 L -106.5 -786.5 L -136.833 -771.5 L -165.333 -746.667 L -192 -712 L -182 -703 L -142 -740.333 L -107 -762.667 L -77 -770 L -47 -777.333 L -16.333 -781.667 L 15 -783 L 57 -780.333 L 91.333 -774 L 118 -764 L 144.667 -754 L 173.667 -733.667 L 205 -703 L 215 -714 L 182.333 -753.333 L 151.333 -778.833 L 122 -790.5 L 92.667 -802.167 L 57 -809.333 Z M 0 -693 L 0.667 -701.667 L 6 -705.667 L 16 -705 L 26 -704.333 L 31.333 -700.333 L 32 -693 L 32 -30 L 32 -15 L 32 -15 L 32 -15 L 28 -6.333 L 21.667 -2.667 L 13 -4 L 4.333 -5.333 L 0 -9 L 0 -15 L 0 -678 L 0 -693 L 0 -693 Z" fill="black" fill-opacity="0.25" stroke="black" stroke-width="4"/>
  <rect x="-192" y="-812" width="407" height="109" fill="none" stroke="red" stroke-width="10" /><rect x="0" y="-706" width="32" height="703" fill="none" stroke="red" stroke-width="10" />
</svg>
