<svg xmlns="http://www.w3.org/2000/svg"
  viewBox="-183.0 -1039.2 394.0 500.466583913405">
  <rect x="-183.0" y="-1039.2" width="394.0" height="500.466583913405" fill="white"/>
  <path d="M -11.5 -988.0 L -29.8330078125 -986.0 L -51.0 -978.833007812 L -75.0 -966.5 L -99.0 -954.166992188 L -118.333007812 -934.0 L -133.0 -906.0 L -127.0 -903.0 L -95.6669921875 -928.333007812 L -70.6669921875 -944.0 L -52.0 -950.0 L -33.3330078125 -956.0 L -17.3330078125 -959.333007812 L -4.0 -960.0 L 9.3330078125 -960.666992188 L 23.6669921875 -960.333007812 L 39.0 -959.0 L 54.3330078125 -957.666992188 L 70.6669921875 -953.333007812 L 88.0 -946.0 L 105.333007812 -938.666992188 L 127.333007812 -924.333007812 L 154.0 -903.0 L 161.0 -907.0 L 143.666992188 -937.0 L 123.833007812 -957.0 L 101.5 -967.0 L 79.1669921875 -977.0 L 59.3330078125 -983.5 L 42.0 -986.5 L 24.6669921875 -989.5 L 6.8330078125 -990.0 Z M 0.0 -883.0 L 0.6669921875 -891.666992188 L 6.0 -895.666992188 L 16.0 -895.0 L 26.0 -894.333007812 L 31.3330078125 -890.333007812 L 32.0 -883.0 L 32.0 -615.0 L 32.0 -615.0 L 32.0 -615.0 L 32.0 -600.0 L 28.0 -591.333007812 L 21.6669921875 -587.666992188 L 13.0 -589.0 L 4.3330078125 -590.333007812 L 0.0 -594.0 L 0.0 -600.0 L 0.0 -868.0 L 0.0 -868.0 L 0.0 -868.0 Z" fill="black" fill-opacity="0.25" stroke="black" stroke-width="4.0"/>
  <rect x="-133.0" y="-990.0" width="294.00000000000006" height="86.99999999999997" fill="none" stroke="red" stroke-width="10.0" /><rect x="0.0" y="-896.0" width="32.0" height="308.00000000000006" fill="none" stroke="red" stroke-width="10.0" />
</svg>
