<svg xmlns="http://www.w3.org/2000/svg"
  viewBox="-49.99986267131756 -1170.4 1202.3634990349537 1086.933317131539">
  <rect x="-49.99986267131756" y="-1170.4" width="1202.3634990349537" height="1086.933317131539" fill="white"/>
  <path d="M 857.25 -591.0 L 865.25 -553.0 L 865.25 -550.333007812 L 868.75 -543.833007812 L 875.75 -533.5 L 882.75 -523.166992188 L 886.25 -516.666992188 L 886.25 -514.0 L 886.25 -511.333007812 L 880.75 -509.0 L 869.75 -507.0 L 858.75 -505.0 L 851.25 -504.0 L 847.25 -504.0 L 786.25 -504.0 L 778.25 -504.0 L 770.75 -509.5 L 763.75 -520.5 L 756.75 -531.5 L 752.25 -542.333007812 L 750.25 -553.0 L 741.25 -591.0 L 663.25 -591.0 L 591.75 -594.166992188 L 526.75 -600.5 L 461.75 -606.833007812 L 415.583007812 -612.0 L 388.25 -616.0 L 337.583007812 -624.0 L 295.75 -638.0 L 262.75 -658.0 L 229.75 -678.0 L 207.916992188 -700.666992188 L 197.25 -726.0 L 191.25 -738.666992188 L 181.25 -764.0 L 167.25 -802.0 L 153.25 -840.0 L 138.416992188 -879.5 L 122.75 -920.5 L 107.083007812 -961.5 L 92.25 -998.5 L 78.25 -1031.5 L 64.25 -1064.5 L 54.5830078125 -1082.33300781 L 49.25 -1085.0 L 21.9169921875 -1094.33300781 L 15.9169921875 -1104.33300781 L 31.25 -1115.0 L 99.9169921875 -1121.0 L 163.25 -1122.0 L 221.25 -1118.0 L 237.25 -1117.33300781 L 250.75 -1105.66699219 L 261.75 -1083.0 L 272.75 -1060.33300781 L 282.583007812 -1033.0 L 291.25 -1001.0 L 299.916992188 -969.0 L 307.583007812 -935.0 L 314.25 -899.0 L 320.916992188 -863.0 L 327.916992188 -831.0 L 335.25 -803.0 L 349.25 -746.333007812 L 366.416992188 -707.833007812 L 386.75 -687.5 L 407.083007812 -667.166992188 L 441.916992188 -650.333007812 L 491.25 -637.0 L 540.583007812 -623.666992188 L 622.916992188 -618.333007812 L 738.25 -621.0 L 726.25 -689.0 L 725.583007812 -692.333007812 L 722.25 -696.833007812 L 716.25 -702.5 L 710.25 -708.166992188 L 707.25 -712.666992188 L 707.25 -716.0 L 707.25 -720.0 L 712.583007812 -722.666992188 L 723.25 -724.0 L 733.916992188 -725.333007812 L 741.583007812 -726.0 L 746.25 -726.0 L 807.25 -726.0 L 814.583007812 -726.0 L 821.75 -720.833007812 L 828.75 -710.5 L 835.75 -700.166992188 L 840.583007812 -689.0 L 843.25 -677.0 L 853.25 -621.0 L 897.916992188 -621.666992188 L 928.25 -623.333007812 L 944.25 -626.0 L 960.25 -628.666992188 L 977.916992188 -631.0 L 997.25 -633.0 L 1004.58300781 -632.333007812 L 1008.91699219 -629.166992188 L 1010.25 -623.5 L 1011.58300781 -617.833007812 L 1009.91699219 -612.333007812 L 1005.25 -607.0 L 998.583007812 -601.0 L 985.083007812 -596.833007812 L 964.75 -594.5 L 944.416992188 -592.166992188 L 908.583007812 -591.0 Z M 296.25 -140.0 L 270.916992188 -130.666992188 L 227.916992188 -131.333007812 L 167.25 -142.0 L 131.916992188 -150.666992188 L 100.75 -162.333007812 L 73.75 -177.0 L 46.75 -191.666992188 L 25.9169921875 -217.333007812 L 11.25 -254.0 L 1.25 -289.333007812 L -2.0830078125 -317.5 L 1.25 -338.5 L 4.5830078125 -359.5 L 16.25 -384.0 L 36.25 -412.0 L 55.5830078125 -435.333007812 L 78.0830078125 -453.0 L 103.75 -465.0 L 129.416992188 -477.0 L 160.916992188 -486.666992188 L 198.25 -494.0 L 235.583007812 -501.333007812 L 265.916992188 -505.0 L 289.25 -505.0 L 312.583007812 -505.0 L 337.916992188 -504.333007812 L 365.25 -503.0 L 391.916992188 -501.666992188 L 416.75 -499.5 L 439.75 -496.5 L 462.75 -493.5 L 490.583007812 -487.0 L 523.25 -477.0 L 577.25 -462.333007812 L 630.583007812 -442.0 L 683.25 -416.0 L 712.583007812 -401.333007812 L 743.75 -385.5 L 776.75 -368.5 L 809.75 -351.5 L 846.583007812 -331.333007812 L 887.25 -308.0 L 905.916992188 -296.666992188 L 926.416992188 -284.666992188 L 948.75 -272.0 L 971.083007812 -259.333007812 L 994.916992188 -246.333007812 L 1020.25 -233.0 L 1039.58300781 -221.0 L 1058.75 -208.833007812 L 1077.75 -196.5 L 1096.75 -184.166992188 L 1104.75 -171.833007812 L 1101.75 -159.5 L 1098.75 -147.166992188 L 1091.58300781 -141.333007812 L 1080.25 -142.0 L 1068.91699219 -142.666992188 L 1033.08300781 -142.333007812 L 972.75 -141.0 L 912.416992188 -139.666992188 L 859.916992188 -139.333007812 L 815.25 -140.0 L 797.25 -153.333007812 L 797.416992188 -163.0 L 815.75 -169.0 L 834.083007812 -175.0 L 847.916992188 -182.333007812 L 857.25 -191.0 L 873.916992188 -208.333007812 L 881.25 -222.0 L 879.25 -232.0 L 877.25 -242.0 L 874.416992188 -249.833007812 L 870.75 -255.5 L 867.083007812 -261.166992188 L 861.583007812 -267.166992188 L 854.25 -273.5 L 846.916992188 -279.833007812 L 828.75 -293.0 L 799.75 -313.0 L 770.75 -333.0 L 734.916992188 -354.0 L 692.25 -376.0 L 653.583007812 -392.666992188 L 623.25 -406.333007812 L 601.25 -417.0 L 579.25 -427.666992188 L 543.583007812 -439.666992188 L 494.25 -453.0 L 457.583007812 -460.333007812 L 420.25 -464.833007812 L 382.25 -466.5 L 344.25 -468.166992188 L 305.583007812 -462.666992188 L 266.25 -450.0 L 238.916992188 -438.0 L 219.75 -427.833007812 L 208.75 -419.5 L 197.75 -411.166992188 L 185.25 -396.333007812 L 171.25 -375.0 L 159.25 -355.0 L 152.416992188 -338.0 L 150.75 -324.0 L 149.083007812 -310.0 L 148.916992188 -294.0 L 150.25 -276.0 L 150.916992188 -257.333007812 L 153.083007812 -243.833007812 L 156.75 -235.5 L 160.416992188 -227.166992188 L 165.083007812 -218.833007812 L 170.75 -210.5 L 176.416992188 -202.166992188 L 183.75 -194.5 L 192.75 -187.5 L 201.75 -180.5 L 215.583007812 -175.5 L 234.25 -172.5 L 252.916992188 -169.5 L 271.25 -167.0 L 289.25 -165.0 L 297.25 -163.666992188 L 302.416992188 -160.333007812 L 304.75 -155.0 L 307.083007812 -149.666992188 L 304.25 -144.666992188 Z" fill="black" fill-opacity="0.25" stroke="black" stroke-width="4.0"/>
  <rect x="16.0" y="-1122.0" width="996.0" height="618.0000000000001" fill="none" stroke="red" stroke-width="10.0" /><rect x="-2.0" y="-505.0" width="1107.0" height="374.0" fill="none" stroke="red" stroke-width="10.0" />
</svg>
