<svg xmlns="http://www.w3.org/2000/svg"
  viewBox="-463.0 -1238.0 824.7645770791376 467.33340567493906">
  <rect x="-463.0" y="-1238.0" width="824.7645770791376" height="467.33340567493906" fill="white"/>
  <path d="M -1.0 -1022.0 L -1.0 -1046.66699219 L -0.6669921875 -1070.66699219 L 0.0 -1094.0 L 0.6669921875 -1117.33300781 L 1.0 -1143.0 L 1.0 -1171.0 L 1.0 -1180.33300781 L 4.3330078125 -1185.33300781 L 11.0 -1186.0 L 60.3330078125 -1186.0 L 109.833007812 -1186.16699219 L 159.5 -1186.5 L 209.166992188 -1186.83300781 L 258.333007812 -1187.33300781 L 307.0 -1188.0 L 313.0 -1180.0 L 313.333007812 -1168.0 L 308.0 -1152.0 L 298.0 -1149.33300781 L 265.166992188 -1148.0 L 209.5 -1148.0 L 126.0 -1148.0 L 126.0 -1148.0 L 64.0 -1148.0 L 64.0 -1114.0 L 64.6669921875 -1079.33300781 L 66.0 -1044.0 L 67.3330078125 -1008.66699219 L 66.0 -990.666992188 L 62.0 -990.0 L 56.6669921875 -989.333007812 L 51.5 -988.333007812 L 46.5 -987.0 L 41.5 -985.666992188 L 26.0 -985.333007812 L 0.0 -986.0 L -26.6669921875 -986.0 L -57.3330078125 -985.5 L -92.0 -984.5 L -126.666992188 -983.5 L -157.0 -983.0 L -183.0 -983.0 L -183.0 -949.0 L -182.5 -914.0 L -181.5 -878.0 L -180.5 -842.0 L -182.0 -824.0 L -186.0 -824.0 L -196.0 -824.0 L -206.833007812 -823.166992188 L -218.5 -821.5 L -230.166992188 -819.833007812 L -240.333007812 -820.666992188 L -249.0 -824.0 L -250.333007812 -824.0 L -251.0 -827.333007812 L -251.0 -834.0 L -251.0 -834.0 L -251.0 -834.0 L -250.0 -834.5 L -249.333007812 -834.833007812 L -249.0 -835.333007812 L -249.0 -836.0 L -249.0 -871.333007812 L -248.5 -899.5 L -247.5 -920.5 L -246.5 -941.5 L -246.0 -969.666992188 L -246.0 -1005.0 L -246.0 -1014.33300781 L -243.0 -1019.33300781 L -237.0 -1020.0 L -197.666992188 -1020.0 L -158.333007812 -1020.16699219 L -119.0 -1020.5 L -79.6669921875 -1020.83300781 L -40.3330078125 -1021.33300781 Z M -380.0 -988.0 L -337.0 -988.0 L -334.333007812 -988.0 L -330.333007812 -987.833007812 L -325.0 -987.5 L -319.666992188 -987.166992188 L -316.333007812 -986.333007812 L -315.0 -985.0 L -313.0 -983.0 L -313.333007812 -982.0 L -316.0 -982.0 L -318.666992188 -982.0 L -321.0 -976.666992188 L -323.0 -966.0 L -327.0 -932.0 L -328.333007812 -917.333007812 L -335.333007812 -910.0 L -348.0 -910.0 L -390.0 -910.0 L -392.0 -910.0 L -396.166992188 -910.166992188 L -402.5 -910.5 L -408.833007812 -910.833007812 L -412.333007812 -912.333007812 L -413.0 -915.0 L -413.0 -917.666992188 L -411.833007812 -919.5 L -409.5 -920.5 L -407.166992188 -921.5 L -405.666992188 -925.333007812 L -405.0 -932.0 L -400.0 -966.0 L -398.0 -980.666992188 L -391.333007812 -988.0 Z" fill="black" fill-opacity="0.25" stroke="black" stroke-width="4.0"/>
  <rect x="-413.0" y="-1004.3" width="480.0" height="183.6" fill="none" stroke="red" stroke-width="10.0" /><rect x="-246.0" y="-1188.0" width="559.3000000000001" height="183.7" fill="none" stroke="red" stroke-width="10.0" />
</svg>
