<svg xmlns="http://www.w3.org/2000/svg"
  viewBox="-300.0 -1227.0 814.7270467487456 440.66659433300845">
  <rect x="-300.0" y="-1227.0" width="814.7270467487456" height="440.66659433300845" fill="white"/>
  <path d="M 0.0 -1023.0 L 0.0 -1046.33300781 L 0.3330078125 -1068.66699219 L 1.0 -1090.0 L 1.6669921875 -1111.33300781 L 2.0 -1135.0 L 2.0 -1161.0 L 2.0 -1169.0 L 5.3330078125 -1173.33300781 L 12.0 -1174.0 L 61.3330078125 -1174.0 L 110.833007812 -1174.33300781 L 160.5 -1175.0 L 210.166992188 -1175.66699219 L 259.333007812 -1176.33300781 L 308.0 -1177.0 L 311.333007812 -1173.0 L 312.5 -1167.5 L 311.5 -1160.5 L 310.5 -1153.5 L 309.333007812 -1147.66699219 L 308.0 -1143.0 L 298.0 -1141.0 L 265.333007812 -1140.0 L 210.0 -1140.0 L 127.0 -1140.0 L 127.0 -1140.0 L 65.0 -1140.0 L 65.0 -1108.0 L 65.6669921875 -1075.5 L 67.0 -1042.5 L 68.3330078125 -1009.5 L 67.0 -993.0 L 63.0 -993.0 L 57.6669921875 -992.333007812 L 52.5 -991.333007812 L 47.5 -990.0 L 42.5 -988.666992188 L 27.0 -988.666992188 L 1.0 -990.0 L -25.6669921875 -989.333007812 L -56.3330078125 -988.5 L -91.0 -987.5 L -125.666992188 -986.5 L -156.0 -986.0 L -182.0 -986.0 L -182.0 -954.0 L -181.5 -921.5 L -180.5 -888.5 L -179.5 -855.5 L -181.0 -839.0 L -185.0 -839.0 L -195.0 -839.0 L -205.833007812 -838.333007812 L -217.5 -837.0 L -229.166992188 -835.666992188 L -239.333007812 -836.333007812 L -248.0 -839.0 L -248.666992188 -839.0 L -249.333007812 -842.0 L -250.0 -848.0 L -250.0 -848.0 L -250.0 -848.0 L -249.0 -848.5 L -248.333007812 -848.833007812 L -248.0 -849.333007812 L -248.0 -850.0 L -248.0 -882.666992188 L -247.5 -908.833007812 L -246.5 -928.5 L -245.5 -948.166992188 L -245.0 -974.333007812 L -245.0 -1007.0 L -245.0 -1015.0 L -242.0 -1019.66699219 L -236.0 -1021.0 L -196.666992188 -1021.0 L -157.333007812 -1021.16699219 L -118.0 -1021.5 L -78.6669921875 -1021.83300781 L -39.3330078125 -1022.33300781 Z M 400.0 -1156.0 L 442.0 -1156.0 L 445.0 -1156.0 L 445.0 -1156.0 L 453.0 -1156.0 L 458.333007812 -1156.0 L 462.0 -1155.33300781 L 464.0 -1154.0 L 465.333007812 -1152.0 L 464.833007812 -1151.0 L 462.5 -1151.0 L 460.166992188 -1151.0 L 458.333007812 -1145.33300781 L 457.0 -1134.0 L 453.0 -1100.0 L 450.333007812 -1085.33300781 L 443.333007812 -1078.0 L 432.0 -1078.0 L 390.0 -1078.0 L 387.333007812 -1078.0 L 382.833007812 -1078.16699219 L 376.5 -1078.5 L 370.166992188 -1078.83300781 L 367.0 -1080.33300781 L 367.0 -1083.0 L 366.333007812 -1085.66699219 L 367.166992188 -1087.5 L 369.5 -1088.5 L 371.833007812 -1089.5 L 373.666992188 -1093.33300781 L 375.0 -1100.0 L 379.0 -1134.0 L 381.0 -1148.66699219 L 388.0 -1156.0 Z" fill="black" fill-opacity="0.25" stroke="black" stroke-width="4.0"/>
  <rect x="-250.0" y="-1006.6999999999999" width="318.09999999999997" height="170.3999999999999" fill="none" stroke="red" stroke-width="10.0" /><rect x="-245.0" y="-1177.0" width="710.3" height="170.30000000000013" fill="none" stroke="red" stroke-width="10.0" />
</svg>
