<svg xmlns="http://www.w3.org/2000/svg"
  viewBox="-49.99973366477273 -1166.2001562683631 1152.2694477350371 1417.2001562683631">
  <rect x="-49.99973366477273" y="-1166.2001562683631" width="1152.2694477350371" height="1417.2001562683631" fill="white"/>
  <path d="M 830.727539062 -711.0 L 839.727539062 -673.0 L 839.727539062 -670.333007812 L 843.227539062 -663.833007812 L 850.227539062 -653.5 L 857.227539062 -643.166992188 L 860.727539062 -636.666992188 L 860.727539062 -634.0 L 860.727539062 -631.333007812 L 855.227539062 -628.833007812 L 844.227539062 -626.5 L 833.227539062 -624.166992188 L 825.727539062 -623.0 L 821.727539062 -623.0 L 760.727539062 -623.0 L 752.727539062 -623.0 L 745.227539062 -628.666992188 L 738.227539062 -640.0 L 731.227539062 -651.333007812 L 726.727539062 -662.333007812 L 724.727539062 -673.0 L 716.727539062 -711.0 L 638.727539062 -711.0 L 567.060546875 -714.0 L 501.727539062 -720.0 L 436.393554688 -726.0 L 390.060546875 -731.333007812 L 362.727539062 -736.0 L 312.060546875 -744.0 L 270.227539062 -758.0 L 237.227539062 -778.0 L 204.227539062 -798.0 L 182.393554688 -820.666992188 L 171.727539062 -846.0 L 166.393554688 -858.666992188 L 156.727539062 -877.5 L 142.727539062 -902.5 L 128.727539062 -927.5 L 114.060546875 -952.666992188 L 98.7275390625 -978.0 L 83.3935546875 -1003.33300781 L 68.8935546875 -1026.0 L 55.2275390625 -1046.0 L 41.560546875 -1066.0 L 32.060546875 -1077.33300781 L 26.7275390625 -1080.0 L -1.2724609375 -1089.33300781 L -7.2724609375 -1099.66699219 L 8.7275390625 -1111.0 L 42.060546875 -1113.66699219 L 74.060546875 -1115.33300781 L 104.727539062 -1116.0 L 135.393554688 -1116.66699219 L 166.727539062 -1115.66699219 L 198.727539062 -1113.0 L 230.727539062 -1111.0 L 253.560546875 -1092.83300781 L 267.227539062 -1058.5 L 280.893554688 -1024.16699219 L 294.727539062 -979.0 L 308.727539062 -923.0 L 322.727539062 -866.333007812 L 339.893554688 -827.833007812 L 360.227539062 -807.5 L 380.560546875 -787.166992188 L 415.727539062 -770.666992188 L 465.727539062 -758.0 L 516.393554688 -744.0 L 598.727539062 -738.333007812 L 712.727539062 -741.0 L 700.727539062 -809.0 L 700.060546875 -812.333007812 L 696.727539062 -816.833007812 L 690.727539062 -822.5 L 684.727539062 -828.166992188 L 681.727539062 -832.666992188 L 681.727539062 -836.0 L 681.727539062 -840.0 L 687.060546875 -842.666992188 L 697.727539062 -844.0 L 708.393554688 -845.333007812 L 716.060546875 -846.0 L 720.727539062 -846.0 L 781.727539062 -846.0 L 789.060546875 -846.0 L 796.227539062 -840.833007812 L 803.227539062 -830.5 L 810.227539062 -820.166992188 L 815.060546875 -809.0 L 817.727539062 -797.0 L 827.727539062 -741.0 L 872.393554688 -741.666992188 L 902.727539062 -743.166992188 L 918.727539062 -745.5 L 934.727539062 -747.833007812 L 952.393554688 -750.333007812 L 971.727539062 -753.0 L 979.060546875 -752.333007812 L 983.393554688 -749.0 L 984.727539062 -743.0 L 986.060546875 -737.0 L 984.393554688 -731.666992188 L 979.727539062 -727.0 L 973.060546875 -721.666992188 L 959.393554688 -717.666992188 L 938.727539062 -715.0 L 918.060546875 -712.333007812 L 882.060546875 -711.0 Z M 830.727539062 -290.0 L 839.727539062 -252.0 L 839.727539062 -249.333007812 L 843.227539062 -242.833007812 L 850.227539062 -232.5 L 857.227539062 -222.166992188 L 860.727539062 -215.666992188 L 860.727539062 -213.0 L 860.727539062 -210.333007812 L 855.227539062 -208.0 L 844.227539062 -206.0 L 833.227539062 -204.0 L 825.727539062 -203.0 L 821.727539062 -203.0 L 760.727539062 -203.0 L 752.727539062 -203.0 L 745.227539062 -208.666992188 L 738.227539062 -220.0 L 731.227539062 -231.333007812 L 726.727539062 -242.0 L 724.727539062 -252.0 L 716.727539062 -290.0 L 638.727539062 -290.0 L 567.060546875 -293.166992188 L 501.727539062 -299.5 L 436.393554688 -305.833007812 L 390.060546875 -311.333007812 L 362.727539062 -316.0 L 312.060546875 -324.0 L 270.227539062 -338.0 L 237.227539062 -358.0 L 204.227539062 -378.0 L 182.393554688 -400.666992188 L 171.727539062 -426.0 L 166.393554688 -438.666992188 L 156.727539062 -457.5 L 142.727539062 -482.5 L 128.727539062 -507.5 L 114.060546875 -532.666992188 L 98.7275390625 -558.0 L 83.3935546875 -583.333007812 L 68.8935546875 -606.0 L 55.2275390625 -626.0 L 41.560546875 -646.0 L 32.060546875 -657.0 L 26.7275390625 -659.0 L -0.6064453125 -668.333007812 L -6.6064453125 -678.666992188 L 8.7275390625 -690.0 L 42.060546875 -692.666992188 L 74.060546875 -694.5 L 104.727539062 -695.5 L 135.393554688 -696.5 L 166.727539062 -695.666992188 L 198.727539062 -693.0 L 230.727539062 -691.0 L 253.560546875 -672.666992188 L 267.227539062 -638.0 L 280.893554688 -603.333007812 L 294.727539062 -558.0 L 308.727539062 -502.0 L 322.727539062 -446.0 L 339.893554688 -407.833007812 L 360.227539062 -387.5 L 380.560546875 -367.166992188 L 415.727539062 -350.333007812 L 465.727539062 -337.0 L 516.393554688 -323.0 L 598.727539062 -317.333007812 L 712.727539062 -320.0 L 700.727539062 -389.0 L 700.060546875 -392.333007812 L 696.727539062 -396.666992188 L 690.727539062 -402.0 L 684.727539062 -407.333007812 L 681.727539062 -411.666992188 L 681.727539062 -415.0 L 681.727539062 -419.0 L 687.060546875 -421.666992188 L 697.727539062 -423.0 L 708.393554688 -424.333007812 L 716.060546875 -425.0 L 720.727539062 -425.0 L 781.727539062 -425.0 L 789.060546875 -425.0 L 796.227539062 -419.833007812 L 803.227539062 -409.5 L 810.227539062 -399.166992188 L 815.060546875 -388.0 L 817.727539062 -376.0 L 827.727539062 -321.0 L 872.393554688 -321.666992188 L 902.727539062 -323.166992188 L 918.727539062 -325.5 L 934.727539062 -327.833007812 L 952.393554688 -330.333007812 L 971.727539062 -333.0 L 979.060546875 -332.333007812 L 983.393554688 -329.0 L 984.727539062 -323.0 L 986.060546875 -317.0 L 984.393554688 -311.333007812 L 979.727539062 -306.0 L 973.060546875 -300.666992188 L 959.393554688 -296.666992188 L 938.727539062 -294.0 L 918.060546875 -291.333007812 L 882.060546875 -290.0 Z M 331.727539062 96.0 L 309.060546875 104.666992188 L 270.727539062 104.333007812 L 216.727539062 95.0 L 185.393554688 87.0 L 157.560546875 76.5 L 133.227539062 63.5 L 108.893554688 50.5 L 90.3935546875 27.3330078125 L 77.7275390625 -6.0 L 69.060546875 -37.3330078125 L 66.060546875 -62.3330078125 L 68.7275390625 -81.0 L 71.3935546875 -99.6669921875 L 81.7275390625 -121.333007812 L 99.7275390625 -146.0 L 117.060546875 -166.666992188 L 137.227539062 -182.5 L 160.227539062 -193.5 L 183.227539062 -204.5 L 211.393554688 -213.333007812 L 244.727539062 -220.0 L 278.060546875 -226.666992188 L 305.060546875 -229.833007812 L 325.727539062 -229.5 L 346.393554688 -229.166992188 L 368.727539062 -228.666992188 L 392.727539062 -228.0 L 416.727539062 -227.333007812 L 439.060546875 -225.5 L 459.727539062 -222.5 L 480.393554688 -219.5 L 505.393554688 -213.333007812 L 534.727539062 -204.0 L 583.393554688 -190.666992188 L 631.060546875 -172.666992188 L 677.727539062 -150.0 L 704.393554688 -136.666992188 L 732.393554688 -122.5 L 761.727539062 -107.5 L 791.060546875 -92.5 L 824.060546875 -74.6669921875 L 860.727539062 -54.0 L 877.393554688 -44.0 L 895.560546875 -33.1669921875 L 915.227539062 -21.5 L 934.893554688 -9.8330078125 L 956.060546875 2.0 L 978.727539062 14.0 L 996.060546875 24.6669921875 L 1013.22753906 35.5 L 1030.22753906 46.5 L 1047.22753906 57.5 L 1054.39355469 68.5 L 1051.72753906 79.5 L 1049.06054688 90.5 L 1042.56054688 95.6669921875 L 1032.22753906 95.0 L 1021.89355469 94.3330078125 L 989.893554688 94.5 L 936.227539062 95.5 L 882.560546875 96.5 L 835.727539062 96.6669921875 L 795.727539062 96.0 L 779.727539062 84.0 L 779.893554688 75.5 L 796.227539062 70.5 L 812.560546875 65.5 L 824.727539062 59.0 L 832.727539062 51.0 L 847.393554688 35.6669921875 L 853.893554688 23.5 L 852.227539062 14.5 L 850.560546875 5.5 L 848.227539062 -1.5 L 845.227539062 -6.5 L 842.227539062 -11.5 L 837.393554688 -17.0 L 830.727539062 -23.0 L 824.060546875 -29.0 L 807.893554688 -40.8330078125 L 782.227539062 -58.5 L 756.560546875 -76.1669921875 L 724.393554688 -95.0 L 685.727539062 -115.0 L 651.727539062 -130.333007812 L 624.727539062 -142.666992188 L 604.727539062 -152.0 L 584.727539062 -161.333007812 L 552.727539062 -171.666992188 L 508.727539062 -183.0 L 476.060546875 -189.666992188 L 442.727539062 -193.833007812 L 408.727539062 -195.5 L 374.727539062 -197.166992188 L 340.393554688 -192.0 L 305.727539062 -180.0 L 281.060546875 -169.333007812 L 263.727539062 -160.166992188 L 253.727539062 -152.5 L 243.727539062 -144.833007812 L 232.727539062 -132.0 L 220.727539062 -114.0 L 210.060546875 -96.0 L 203.893554688 -80.8330078125 L 202.227539062 -68.5 L 200.560546875 -56.1669921875 L 200.060546875 -41.6669921875 L 200.727539062 -25.0 L 201.393554688 -8.3330078125 L 203.393554688 3.6669921875 L 206.727539062 11.0 L 210.060546875 18.3330078125 L 214.393554688 25.8330078125 L 219.727539062 33.5 L 225.060546875 41.1669921875 L 231.727539062 48.1669921875 L 239.727539062 54.5 L 247.727539062 60.8330078125 L 260.060546875 65.3330078125 L 276.727539062 68.0 L 293.393554688 70.6669921875 L 309.727539062 72.6669921875 L 325.727539062 74.0 L 332.393554688 75.3330078125 L 336.727539062 78.3330078125 L 338.727539062 83.0 L 340.727539062 87.6669921875 L 338.393554688 92.0 Z M 521.727539062 195.0 L 515.060546875 189.666992188 L 514.560546875 184.666992188 L 520.227539062 180.0 L 525.893554688 175.333007812 L 532.727539062 173.0 L 540.727539062 173.0 L 550.060546875 173.0 L 563.060546875 164.166992188 L 579.727539062 146.5 L 596.393554688 128.833007812 L 607.393554688 107.0 L 612.727539062 81.0 L 621.393554688 37.0 L 599.727539062 1.0 L 547.727539062 -27.0 L 528.393554688 -37.0 L 503.560546875 -46.0 L 473.227539062 -54.0 L 442.893554688 -62.0 L 413.060546875 -69.0 L 383.727539062 -75.0 L 354.393554688 -81.0 L 328.393554688 -85.8330078125 L 305.727539062 -89.5 L 283.060546875 -93.1669921875 L 269.727539062 -96.0 L 265.727539062 -98.0 L 258.393554688 -101.333007812 L 255.560546875 -105.666992188 L 257.227539062 -111.0 L 258.893554688 -116.333007812 L 262.727539062 -119.0 L 268.727539062 -119.0 L 272.060546875 -119.0 L 284.893554688 -117.666992188 L 307.227539062 -115.0 L 329.560546875 -112.333007812 L 356.060546875 -108.333007812 L 386.727539062 -103.0 L 417.393554688 -97.6669921875 L 449.893554688 -90.6669921875 L 484.227539062 -82.0 L 518.560546875 -73.3330078125 L 549.727539062 -63.3330078125 L 577.727539062 -52.0 L 611.060546875 -38.0 L 637.727539062 -24.0 L 657.727539062 -10.0 L 677.727539062 4.0 L 696.060546875 22.6669921875 L 712.727539062 46.0 L 729.393554688 70.0 L 736.393554688 93.6669921875 L 733.727539062 117.0 L 731.060546875 140.333007812 L 721.393554688 158.333007812 L 704.727539062 171.0 L 689.393554688 183.0 L 671.893554688 191.0 L 652.227539062 195.0 L 632.560546875 199.0 L 614.060546875 201.0 L 596.727539062 201.0 L 569.727539062 201.0 L 569.727539062 201.0 L 558.727539062 201.0 L 551.393554688 201.0 L 539.060546875 199.0 Z" fill="black" fill-opacity="0.25" stroke="black" stroke-width="4.0"/>
  <rect x="-7.0" y="-1117.0" width="993.0" height="494.0" fill="none" stroke="red" stroke-width="10.0" /><rect x="-7.0" y="-697.0" width="993.0" height="493.99999999999994" fill="none" stroke="red" stroke-width="10.0" /><rect x="66.0" y="-230.0" width="988.0" height="335.0" fill="none" stroke="red" stroke-width="10.0" /><rect x="256.0" y="-119.0" width="480.0" height="320.0" fill="none" stroke="red" stroke-width="10.0" />
</svg>
