<svg xmlns="http://www.w3.org/2000/svg"
  viewBox="-50 -1166.2 1085.172 1309.2">
  <rect x="-50" y="-1166.2" width="1085.172" height="1309.2" fill="white"/>
  <path d="M 830.728 -290 L 839.728 -252 L 839.728 -249.333 L 843.228 -242.833 L 850.228 -232.5 L 857.228 -222.167 L 860.728 -215.667 L 860.728 -213 L 860.728 -210.333 L 855.228 -208 L 844.228 -206 L 833.228 -204 L 825.728 -203 L 821.728 -203 L 760.728 -203 L 752.728 -203 L 745.228 -208.667 L 738.228 -220 L 731.228 -231.333 L 726.728 -242 L 724.728 -252 L 716.728 -290 L 638.728 -290 L 567.061 -293.167 L 501.728 -299.5 L 436.394 -305.833 L 390.061 -311.333 L 362.728 -316 L 312.061 -324 L 270.228 -338 L 237.228 -358 L 204.228 -378 L 182.394 -400.667 L 171.728 -426 L 166.394 -438.667 L 156.728 -457.5 L 142.728 -482.5 L 128.728 -507.5 L 114.061 -532.667 L 98.728 -558 L 83.394 -583.333 L 68.894 -606 L 55.228 -626 L 41.561 -646 L 32.061 -657 L 26.728 -659 L -0.606 -668.333 L -6.606 -678.667 L 8.728 -690 L 42.061 -692.667 L 74.061 -694.5 L 104.728 -695.5 L 135.394 -696.5 L 166.728 -695.667 L 198.728 -693 L 230.728 -691 L 253.561 -672.667 L 267.228 -638 L 280.894 -603.333 L 294.728 -558 L 308.728 -502 L 322.728 -446 L 339.894 -407.833 L 360.228 -387.5 L 380.561 -367.167 L 415.728 -350.333 L 465.728 -337 L 516.394 -323 L 598.728 -317.333 L 712.728 -320 L 700.728 -389 L 700.061 -392.333 L 696.728 -396.667 L 690.728 -402 L 684.728 -407.333 L 681.728 -411.667 L 681.728 -415 L 681.728 -419 L 687.061 -421.667 L 697.728 -423 L 708.394 -424.333 L 716.061 -425 L 720.728 -425 L 781.728 -425 L 789.061 -425 L 796.228 -419.833 L 803.228 -409.5 L 810.228 -399.167 L 815.061 -388 L 817.728 -376 L 827.728 -321 L 872.394 -321.667 L 902.728 -323.167 L 918.728 -325.5 L 934.728 -327.833 L 952.394 -330.333 L 971.728 -333 L 979.061 -332.333 L 983.394 -329 L 984.728 -323 L 986.061 -317 L 984.394 -311.333 L 979.728 -306 L 973.061 -300.667 L 959.394 -296.667 L 938.728 -294 L 918.061 -291.333 L 882.061 -290 Z M 830.728 -711 L 839.728 -673 L 839.728 -670.333 L 843.228 -663.833 L 850.228 -653.5 L 857.228 -643.167 L 860.728 -636.667 L 860.728 -634 L 860.728 -631.333 L 855.228 -628.833 L 844.228 -626.5 L 833.228 -624.167 L 825.728 -623 L 821.728 -623 L 760.728 -623 L 752.728 -623 L 745.228 -628.667 L 738.228 -640 L 731.228 -651.333 L 726.728 -662.333 L 724.728 -673 L 716.728 -711 L 638.728 -711 L 567.061 -714 L 501.728 -720 L 436.394 -726 L 390.061 -731.333 L 362.728 -736 L 312.061 -744 L 270.228 -758 L 237.228 -778 L 204.228 -798 L 182.394 -820.667 L 171.728 -846 L 166.394 -858.667 L 156.728 -877.5 L 142.728 -902.5 L 128.728 -927.5 L 114.061 -952.667 L 98.728 -978 L 83.394 -1003.333 L 68.894 -1026 L 55.228 -1046 L 41.561 -1066 L 32.061 -1077.333 L 26.728 -1080 L -1.272 -1089.333 L -7.272 -1099.667 L 8.728 -1111 L 42.061 -1113.667 L 74.061 -1115.333 L 104.728 -1116 L 135.394 -1116.667 L 166.728 -1115.667 L 198.728 -1113 L 230.728 -1111 L 253.561 -1092.833 L 267.228 -1058.5 L 280.894 -1024.167 L 294.728 -979 L 308.728 -923 L 322.728 -866.333 L 339.894 -827.833 L 360.228 -807.5 L 380.561 -787.167 L 415.728 -770.667 L 465.728 -758 L 516.394 -744 L 598.728 -738.333 L 712.728 -741 L 700.728 -809 L 700.061 -812.333 L 696.728 -816.833 L 690.728 -822.5 L 684.728 -828.167 L 681.728 -832.667 L 681.728 -836 L 681.728 -840 L 687.061 -842.667 L 697.728 -844 L 708.394 -845.333 L 716.061 -846 L 720.728 -846 L 781.728 -846 L 789.061 -846 L 796.228 -840.833 L 803.228 -830.5 L 810.228 -820.167 L 815.061 -809 L 817.728 -797 L 827.728 -741 L 872.394 -741.667 L 902.728 -743.167 L 918.728 -745.5 L 934.728 -747.833 L 952.394 -750.333 L 971.728 -753 L 979.061 -752.333 L 983.394 -749 L 984.728 -743 L 986.061 -737 L 984.394 -731.667 L 979.728 -727 L 973.061 -721.667 L 959.394 -717.667 L 938.728 -715 L 918.061 -712.333 L 882.061 -711 Z M 523.728 85 L 517.061 80.333 L 516.561 75.667 L 522.228 71 L 527.894 66.333 L 535.061 64 L 543.728 64 L 553.728 64 L 567.561 55.167 L 585.228 37.5 L 602.894 19.833 L 614.394 -2 L 619.728 -28 L 629.061 -72 L 606.394 -108 L 551.728 -136 L 531.061 -146 L 504.561 -155 L 472.228 -163 L 439.894 -171 L 408.228 -178 L 377.228 -184 L 346.228 -190 L 318.894 -194.833 L 295.228 -198.5 L 271.561 -202.167 L 257.728 -205 L 253.728 -207 L 245.061 -209.667 L 241.728 -213.833 L 243.728 -219.5 L 245.728 -225.167 L 250.061 -228 L 256.728 -228 L 263.394 -228 L 304.728 -222.5 L 380.728 -211.5 L 456.728 -200.5 L 524.061 -183.333 L 582.728 -160 L 618.061 -146 L 646.394 -132.167 L 667.728 -118.5 L 689.061 -104.833 L 708.394 -86.333 L 725.728 -63 L 743.061 -39.667 L 750.394 -16.167 L 747.728 7.5 L 745.061 31.167 L 735.061 49.333 L 717.728 62 L 701.728 74 L 683.228 82.167 L 662.228 86.5 L 641.228 90.833 L 621.394 93 L 602.728 93 L 584.061 93 L 570.894 92.833 L 563.228 92.5 L 555.561 92.167 L 542.394 89.667 Z" fill="black" fill-opacity="0.25" stroke="black" stroke-width="4"/>
  <rect x="-7" y="-697" width="993" height="494" fill="none" stroke="red" stroke-width="10" /><rect x="-7" y="-1117" width="993" height="494" fill="none" stroke="red" stroke-width="10" /><rect x="242" y="-228" width="508" height="321" fill="none" stroke="red" stroke-width="10" />
</svg>
