<svg xmlns="http://www.w3.org/2000/svg"
  viewBox="-50.00008470894536 -664.4704125292188 1416.7532019478517 940.4704125292188">
  <rect x="-50.00008470894536" y="-664.4704125292188" width="1416.7532019478517" height="940.4704125292188" fill="white"/>
  <path d="M 1067.01757812 218.0 L 1059.68457031 212.0 L 1059.18457031 206.5 L 1065.51757812 201.5 L 1071.8515625 196.5 L 1080.01757812 194.0 L 1090.01757812 194.0 L 1100.68457031 194.0 L 1115.8515625 184.166992188 L 1135.51757812 164.5 L 1155.18457031 144.833007812 L 1168.01757812 121.0 L 1174.01757812 93.0 L 1184.01757812 44.3330078125 L 1158.68457031 4.3330078125 L 1098.01757812 -27.0 L 1032.01757812 -59.6669921875 L 947.017578125 -81.3330078125 L 843.017578125 -92.0 L 825.684570312 -93.3330078125 L 806.184570312 -94.0 L 784.517578125 -94.0 L 762.8515625 -94.0 L 750.684570312 -94.3330078125 L 748.017578125 -95.0 L 738.684570312 -98.3330078125 L 735.017578125 -104.0 L 737.017578125 -112.0 L 739.017578125 -120.0 L 744.017578125 -124.666992188 L 752.017578125 -126.0 L 759.3515625 -126.0 L 777.3515625 -125.166992188 L 806.017578125 -123.5 L 834.684570312 -121.833007812 L 866.3515625 -118.666992188 L 901.017578125 -114.0 L 940.3515625 -108.0 L 980.184570312 -100.0 L 1020.51757812 -90.0 L 1060.8515625 -80.0 L 1098.3515625 -68.3330078125 L 1133.01757812 -55.0 L 1172.3515625 -39.6669921875 L 1203.68457031 -24.1669921875 L 1227.01757812 -8.5 L 1250.3515625 7.1669921875 L 1272.01757812 27.6669921875 L 1292.01757812 53.0 L 1311.3515625 79.6669921875 L 1319.3515625 106.0 L 1316.01757812 132.0 L 1312.68457031 158.0 L 1301.3515625 178.0 L 1282.01757812 192.0 L 1264.68457031 205.333007812 L 1244.3515625 214.333007812 L 1221.01757812 219.0 L 1197.68457031 223.666992188 L 1175.3515625 226.0 L 1154.01757812 226.0 L 1122.01757812 226.0 L 1122.01757812 226.0 L 1110.51757812 226.0 L 1102.8515625 226.0 L 1088.3515625 223.333007812 Z M 26.017578125 -443.0 L 0.6845703125 -489.0 L -6.1484375 -528.5 L 5.517578125 -561.5 L 17.1845703125 -594.5 L 38.017578125 -612.0 L 68.017578125 -614.0 L 87.3515625 -615.333007812 L 102.184570312 -613.833007812 L 112.517578125 -609.5 L 122.8515625 -605.166992188 L 132.017578125 -600.833007812 L 140.017578125 -596.5 L 148.017578125 -592.166992188 L 155.517578125 -587.5 L 162.517578125 -582.5 L 169.517578125 -577.5 L 176.017578125 -572.333007812 L 182.017578125 -567.0 L 188.017578125 -561.666992188 L 192.184570312 -556.833007812 L 194.517578125 -552.5 L 196.8515625 -548.166992188 L 197.8515625 -544.166992188 L 197.517578125 -540.5 L 197.184570312 -536.833007812 L 195.8515625 -534.333007812 L 193.517578125 -533.0 L 191.184570312 -531.666992188 L 184.184570312 -528.666992188 L 172.517578125 -524.0 L 160.8515625 -519.333007812 L 145.684570312 -511.833007812 L 127.017578125 -501.5 L 108.3515625 -491.166992188 L 99.3515625 -473.666992188 L 100.017578125 -449.0 L 100.017578125 -423.666992188 L 126.3515625 -399.833007812 L 179.017578125 -377.5 L 231.684570312 -355.166992188 L 310.017578125 -346.0 L 414.017578125 -350.0 L 861.017578125 -369.0 L 883.017578125 -369.0 L 900.517578125 -367.5 L 913.517578125 -364.5 L 926.517578125 -361.5 L 938.3515625 -357.666992188 L 949.017578125 -353.0 L 959.684570312 -348.333007812 L 968.684570312 -343.833007812 L 976.017578125 -339.5 L 983.3515625 -335.166992188 L 992.017578125 -328.5 L 1002.01757812 -319.5 L 1012.01757812 -310.5 L 1023.51757812 -299.0 L 1036.51757812 -285.0 L 1049.51757812 -271.0 L 1058.18457031 -260.666992188 L 1062.51757812 -254.0 L 1066.8515625 -247.333007812 L 1069.01757812 -240.833007812 L 1069.01757812 -234.5 L 1069.01757812 -228.166992188 L 1066.8515625 -224.0 L 1062.51757812 -222.0 L 1058.18457031 -220.0 L 1053.68457031 -219.0 L 1049.01757812 -219.0 L 1044.3515625 -219.0 L 1039.3515625 -220.0 L 1034.01757812 -222.0 L 1028.68457031 -224.0 L 1022.18457031 -226.333007812 L 1014.51757812 -229.0 L 1006.8515625 -231.666992188 L 998.3515625 -234.333007812 L 989.017578125 -237.0 L 979.684570312 -239.666992188 L 971.017578125 -241.666992188 L 963.017578125 -243.0 L 955.017578125 -244.333007812 L 944.017578125 -245.333007812 L 930.017578125 -246.0 L 823.017578125 -252.0 L 761.684570312 -252.0 L 697.184570312 -254.5 L 629.517578125 -259.5 L 561.8515625 -264.5 L 498.017578125 -271.0 L 438.017578125 -279.0 L 378.017578125 -287.0 L 325.3515625 -295.666992188 L 280.017578125 -305.0 L 234.684570312 -314.333007812 L 203.684570312 -322.0 L 187.017578125 -328.0 L 158.3515625 -340.0 L 132.8515625 -351.833007812 L 110.517578125 -363.5 L 88.1845703125 -375.166992188 L 60.017578125 -401.666992188 Z" fill="black" fill-opacity="0.25" stroke="black" stroke-width="4.0"/>
  <rect x="735.0" y="-126.0" width="584.0" height="352.0" fill="none" stroke="red" stroke-width="10.0" /><rect x="-6.0" y="-615.0" width="1075.0" height="396.0" fill="none" stroke="red" stroke-width="10.0" />
</svg>
