<svg xmlns="http://www.w3.org/2000/svg"
  viewBox="-49.99959650113251 -502.0 714.274386164594 387.14295964753944">
  <rect x="-49.99959650113251" y="-502.0" width="714.274386164594" height="387.14295964753944" fill="white"/>
  <path d="M 21.736328125 -452.0 L 44.40234375 -452.0 L 68.40234375 -451.666992188 L 93.736328125 -451.0 L 119.069335938 -450.333007812 L 141.736328125 -448.333007812 L 161.736328125 -445.0 L 175.736328125 -445.0 L 191.236328125 -417.5 L 208.236328125 -362.5 L 225.236328125 -307.5 L 245.40234375 -259.333007812 L 268.736328125 -218.0 L 276.736328125 -204.0 L 284.069335938 -196.0 L 290.736328125 -194.0 L 296.736328125 -192.0 L 301.40234375 -188.5 L 304.736328125 -183.5 L 308.069335938 -178.5 L 304.736328125 -174.0 L 294.736328125 -170.0 L 271.40234375 -166.0 L 247.90234375 -164.333007812 L 224.236328125 -165.0 L 200.569335938 -165.666992188 L 178.069335938 -167.333007812 L 156.736328125 -170.0 L 136.736328125 -178.0 L 120.236328125 -203.666992188 L 107.236328125 -247.0 L 94.236328125 -290.333007812 L 76.0693359375 -340.666992188 L 52.736328125 -398.0 L 50.736328125 -401.333007812 L 46.5693359375 -405.833007812 L 40.236328125 -411.5 L 33.90234375 -417.166992188 L 26.736328125 -421.0 L 18.736328125 -423.0 L 8.0693359375 -425.0 L 1.90234375 -430.166992188 L 0.236328125 -438.5 L -1.4306640625 -446.833007812 L 5.736328125 -451.333007812 Z M 330.736328125 -452.0 L 353.40234375 -452.0 L 377.236328125 -451.666992188 L 402.236328125 -451.0 L 427.236328125 -450.333007812 L 450.069335938 -448.333007812 L 470.736328125 -445.0 L 484.736328125 -445.0 L 500.069335938 -417.5 L 516.736328125 -362.5 L 533.40234375 -307.5 L 553.736328125 -259.333007812 L 577.736328125 -218.0 L 585.736328125 -204.0 L 593.069335938 -196.0 L 599.736328125 -194.0 L 605.736328125 -192.0 L 610.236328125 -188.5 L 613.236328125 -183.5 L 616.236328125 -178.5 L 612.736328125 -174.0 L 602.736328125 -170.0 L 579.40234375 -166.0 L 556.069335938 -164.333007812 L 532.736328125 -165.0 L 509.40234375 -165.666992188 L 487.069335938 -167.333007812 L 465.736328125 -170.0 L 445.736328125 -178.0 L 429.069335938 -203.666992188 L 415.736328125 -247.0 L 402.40234375 -290.333007812 L 384.069335938 -340.666992188 L 360.736328125 -398.0 L 358.736328125 -401.333007812 L 354.736328125 -405.833007812 L 348.736328125 -411.5 L 342.736328125 -417.166992188 L 335.40234375 -421.0 L 326.736328125 -423.0 L 316.069335938 -425.0 L 310.069335938 -430.166992188 L 308.736328125 -438.5 L 307.40234375 -446.833007812 L 314.736328125 -451.333007812 Z" fill="black" fill-opacity="0.25" stroke="black" stroke-width="4.0"/>
  <rect x="-1.0" y="-452.0" width="309.0" height="288.00000000000006" fill="none" stroke="red" stroke-width="10.0" /><rect x="307.0" y="-452.0" width="309.0" height="288.00000000000006" fill="none" stroke="red" stroke-width="10.0" />
</svg>
