<svg xmlns="http://www.w3.org/2000/svg"
  viewBox="-50 -497 404.41 386.538">
  <rect x="-50" y="-497" width="404.41" height="386.538" fill="white"/>
  <path d="M 21.16 -447 L 43.827 -447 L 67.66 -446.667 L 92.66 -446 L 117.66 -445.333 L 140.16 -443.667 L 160.16 -441 L 174.16 -441 L 189.66 -413.333 L 206.66 -358 L 223.66 -302.667 L 243.827 -254.333 L 267.16 -213 L 275.16 -199 L 282.493 -191 L 289.16 -189 L 295.16 -187 L 299.827 -183.667 L 303.16 -179 L 306.493 -174.333 L 303.16 -170 L 293.16 -166 L 269.827 -162 L 246.493 -160.167 L 223.16 -160.5 L 199.827 -160.833 L 177.16 -162.667 L 155.16 -166 L 135.16 -174 L 118.66 -199.5 L 105.66 -242.5 L 92.66 -285.5 L 74.493 -336 L 51.16 -394 L 49.16 -397.333 L 45.16 -401.833 L 39.16 -407.5 L 33.16 -413.167 L 26.16 -416.667 L 18.16 -418 L 7.493 -420 L 1.493 -425.333 L 0.16 -434 L -1.173 -442.667 L 5.827 -447 Z" fill="black" fill-opacity="0.25" stroke="black" stroke-width="4"/>
  <rect x="-1" y="-447" width="307" height="287" fill="none" stroke="red" stroke-width="10" />
</svg>
