<svg xmlns="http://www.w3.org/2000/svg"
  viewBox="-50 -502 714.274 387.143">
  <rect x="-50" y="-502" width="714.274" height="387.143" fill="white"/>
  <path d="M 21.736 -452 L 44.402 -452 L 68.402 -451.667 L 93.736 -451 L 119.069 -450.333 L 141.736 -448.333 L 161.736 -445 L 175.736 -445 L 191.236 -417.5 L 208.236 -362.5 L 225.236 -307.5 L 245.402 -259.333 L 268.736 -218 L 276.736 -204 L 284.069 -196 L 290.736 -194 L 296.736 -192 L 301.402 -188.5 L 304.736 -183.5 L 308.069 -178.5 L 304.736 -174 L 294.736 -170 L 271.402 -166 L 247.902 -164.333 L 224.236 -165 L 200.569 -165.667 L 178.069 -167.333 L 156.736 -170 L 136.736 -178 L 120.236 -203.667 L 107.236 -247 L 94.236 -290.333 L 76.069 -340.667 L 52.736 -398 L 50.736 -401.333 L 46.569 -405.833 L 40.236 -411.5 L 33.902 -417.167 L 26.736 -421 L 18.736 -423 L 8.069 -425 L 1.902 -430.167 L 0.236 -438.5 L -1.431 -446.833 L 5.736 -451.333 Z M 330.736 -452 L 353.402 -452 L 377.236 -451.667 L 402.236 -451 L 427.236 -450.333 L 450.069 -448.333 L 470.736 -445 L 484.736 -445 L 500.069 -417.5 L 516.736 -362.5 L 533.402 -307.5 L 553.736 -259.333 L 577.736 -218 L 585.736 -204 L 593.069 -196 L 599.736 -194 L 605.736 -192 L 610.236 -188.5 L 613.236 -183.5 L 616.236 -178.5 L 612.736 -174 L 602.736 -170 L 579.402 -166 L 556.069 -164.333 L 532.736 -165 L 509.402 -165.667 L 487.069 -167.333 L 465.736 -170 L 445.736 -178 L 429.069 -203.667 L 415.736 -247 L 402.402 -290.333 L 384.069 -340.667 L 360.736 -398 L 358.736 -401.333 L 354.736 -405.833 L 348.736 -411.5 L 342.736 -417.167 L 335.402 -421 L 326.736 -423 L 316.069 -425 L 310.069 -430.167 L 308.736 -438.5 L 307.402 -446.833 L 314.736 -451.333 Z" fill="black" fill-opacity="0.25" stroke="black" stroke-width="4"/>
  <rect x="-1" y="-452" width="309" height="288" fill="none" stroke="red" stroke-width="10" /><rect x="307" y="-452" width="309" height="288" fill="none" stroke="red" stroke-width="10" />
</svg>
