<svg xmlns="http://www.w3.org/2000/svg"
  viewBox="-50.00005894218928 -833.549920917248 1402.8253946059476 515.10540146434">
  <rect x="-50.00005894218928" y="-833.549920917248" width="1402.8253946059476" height="515.10540146434" fill="white"/>
  <path d="M 991.77734375 -549.0 L 1012.44433594 -549.0 L 1033.94433594 -548.833007812 L 1056.27734375 -548.5 L 1078.61132812 -548.166992188 L 1098.77734375 -546.666992188 L 1116.77734375 -544.0 L 1129.44433594 -544.0 L 1141.44433594 -528.666992188 L 1152.77734375 -498.0 L 1164.11132812 -467.333007812 L 1180.44433594 -437.0 L 1201.77734375 -407.0 L 1209.11132812 -396.333007812 L 1215.44433594 -390.333007812 L 1220.77734375 -389.0 L 1226.11132812 -387.666992188 L 1230.27734375 -385.166992188 L 1233.27734375 -381.5 L 1236.27734375 -377.833007812 L 1233.44433594 -374.666992188 L 1224.77734375 -372.0 L 1204.11132812 -369.333007812 L 1183.11132812 -368.166992188 L 1161.77734375 -368.5 L 1140.44433594 -368.833007812 L 1120.11132812 -370.0 L 1100.77734375 -372.0 L 1082.77734375 -378.0 L 1069.94433594 -391.833007812 L 1062.27734375 -413.5 L 1054.61132812 -435.166992188 L 1039.77734375 -467.333007812 L 1017.77734375 -510.0 L 1010.44433594 -520.0 L 1000.44433594 -526.0 L 987.77734375 -528.0 L 977.77734375 -528.666992188 L 972.444335938 -532.333007812 L 971.77734375 -539.0 L 971.111328125 -545.666992188 L 977.77734375 -549.0 Z M 717.77734375 -552.0 L 735.77734375 -552.0 L 754.611328125 -551.833007812 L 774.27734375 -551.5 L 793.944335938 -551.166992188 L 811.444335938 -549.666992188 L 826.77734375 -547.0 L 838.111328125 -547.0 L 850.111328125 -531.166992188 L 862.77734375 -499.5 L 875.444335938 -467.166992188 L 890.444335938 -436.333007812 L 907.77734375 -407.0 L 912.444335938 -396.333007812 L 918.111328125 -390.666992188 L 924.77734375 -390.0 L 929.444335938 -388.666992188 L 932.944335938 -386.166992188 L 935.27734375 -382.5 L 937.611328125 -378.833007812 L 935.111328125 -375.333007812 L 927.77734375 -372.0 L 909.77734375 -369.333007812 L 891.444335938 -368.166992188 L 872.77734375 -368.5 L 854.111328125 -368.833007812 L 836.111328125 -370.0 L 818.77734375 -372.0 L 802.77734375 -378.0 L 790.444335938 -392.166992188 L 781.77734375 -414.5 L 773.111328125 -436.833007812 L 759.444335938 -469.333007812 L 740.77734375 -512.0 L 739.444335938 -514.0 L 736.27734375 -517.833007812 L 731.27734375 -523.5 L 726.27734375 -529.166992188 L 720.77734375 -532.333007812 L 714.77734375 -533.0 L 706.111328125 -533.666992188 L 701.27734375 -537.0 L 700.27734375 -543.0 L 699.27734375 -549.0 L 705.111328125 -552.0 Z M 2.77734375 -775.0 L 6.111328125 -780.333007812 L 9.77734375 -783.166992188 L 13.77734375 -783.5 L 17.77734375 -783.833007812 L 22.27734375 -782.5 L 27.27734375 -779.5 L 32.27734375 -776.5 L 38.27734375 -773.333007812 L 45.27734375 -770.0 L 52.27734375 -766.666992188 L 61.27734375 -763.833007812 L 72.27734375 -761.5 L 83.27734375 -759.166992188 L 98.77734375 -758.0 L 118.77734375 -758.0 L 1116.77734375 -758.0 L 1135.44433594 -758.0 L 1152.11132812 -756.5 L 1166.77734375 -753.5 L 1181.44433594 -750.5 L 1194.94433594 -745.833007812 L 1207.27734375 -739.5 L 1219.61132812 -733.166992188 L 1229.11132812 -727.333007812 L 1235.77734375 -722.0 L 1242.44433594 -716.666992188 L 1251.77734375 -707.833007812 L 1263.77734375 -695.5 L 1275.77734375 -683.166992188 L 1286.11132812 -671.0 L 1294.77734375 -659.0 L 1303.44433594 -647.0 L 1305.11132812 -635.666992188 L 1299.77734375 -625.0 L 1295.11132812 -617.0 L 1289.27734375 -615.166992188 L 1282.27734375 -619.5 L 1275.27734375 -623.833007812 L 1267.11132812 -627.833007812 L 1257.77734375 -631.5 L 1248.44433594 -635.166992188 L 1238.44433594 -637.5 L 1227.77734375 -638.5 L 1217.11132812 -639.5 L 1200.77734375 -640.0 L 1178.77734375 -640.0 L 194.77734375 -640.0 L 179.444335938 -640.0 L 165.77734375 -641.166992188 L 153.77734375 -643.5 L 141.77734375 -645.833007812 L 132.27734375 -648.166992188 L 125.27734375 -650.5 L 118.27734375 -652.833007812 L 110.944335938 -655.666992188 L 103.27734375 -659.0 L 95.611328125 -662.333007812 L 87.4443359375 -666.833007812 L 78.77734375 -672.5 L 70.111328125 -678.166992188 L 60.77734375 -686.166992188 L 50.77734375 -696.5 L 40.77734375 -706.833007812 L 30.77734375 -718.5 L 20.77734375 -731.5 L 10.77734375 -744.5 L 4.4443359375 -753.666992188 L 1.77734375 -759.0 L -0.888671875 -764.333007812 L -0.5556640625 -769.666992188 Z" fill="black" fill-opacity="0.25" stroke="black" stroke-width="4.0"/>
  <rect x="971.0" y="-549.0" width="265.0" height="181.00000000000006" fill="none" stroke="red" stroke-width="10.0" /><rect x="699.0" y="-552.0" width="239.0" height="184.00000000000006" fill="none" stroke="red" stroke-width="10.0" /><rect x="-1.0" y="-784.0" width="1305.9999999999998" height="169.00000000000003" fill="none" stroke="red" stroke-width="10.0" />
</svg>
