<svg xmlns="http://www.w3.org/2000/svg"
  viewBox="-50.00005894218928 -442.55548054709203 1436.7544334076463 513.7222376373159">
  <rect x="-50.00005894218928" y="-442.55548054709203" width="1436.7544334076463" height="513.7222376373159" fill="white"/>
  <path d="M 780.77734375 -180.0 L 803.444335938 -180.0 L 827.444335938 -179.833007812 L 852.77734375 -179.5 L 878.111328125 -179.166992188 L 900.77734375 -177.666992188 L 920.77734375 -175.0 L 934.77734375 -175.0 L 948.111328125 -158.0 L 960.77734375 -124.0 L 973.444335938 -90.0 L 991.444335938 -56.0 L 1014.77734375 -22.0 L 1022.77734375 -10.0 L 1030.11132812 -3.3330078125 L 1036.77734375 -2.0 L 1042.77734375 -0.6669921875 L 1047.44433594 2.0 L 1050.77734375 6.0 L 1054.11132812 10.0 L 1050.77734375 13.6669921875 L 1040.77734375 17.0 L 1017.44433594 20.3330078125 L 993.944335938 21.6669921875 L 970.27734375 21.0 L 946.611328125 20.3330078125 L 924.111328125 19.0 L 902.77734375 17.0 L 882.77734375 10.3330078125 L 868.444335938 -5.1669921875 L 859.77734375 -29.5 L 851.111328125 -53.8330078125 L 835.111328125 -89.6669921875 L 811.77734375 -137.0 L 804.444335938 -148.333007812 L 793.111328125 -155.0 L 777.77734375 -157.0 L 767.111328125 -158.333007812 L 760.944335938 -162.5 L 759.27734375 -169.5 L 757.611328125 -176.5 L 764.77734375 -180.0 Z M 2.77734375 -384.0 L 6.111328125 -389.333007812 L 9.9443359375 -392.166992188 L 14.27734375 -392.5 L 18.611328125 -392.833007812 L 23.111328125 -391.666992188 L 27.77734375 -389.0 L 32.4443359375 -386.333007812 L 38.4443359375 -383.166992188 L 45.77734375 -379.5 L 53.111328125 -375.833007812 L 62.4443359375 -372.833007812 L 73.77734375 -370.5 L 85.111328125 -368.166992188 L 101.111328125 -367.0 L 121.77734375 -367.0 L 1145.77734375 -367.0 L 1164.44433594 -367.0 L 1181.44433594 -365.5 L 1196.77734375 -362.5 L 1212.11132812 -359.5 L 1226.11132812 -354.666992188 L 1238.77734375 -348.0 L 1251.44433594 -341.333007812 L 1261.27734375 -335.333007812 L 1268.27734375 -330.0 L 1275.27734375 -324.666992188 L 1284.77734375 -315.5 L 1296.77734375 -302.5 L 1308.77734375 -289.5 L 1319.27734375 -277.0 L 1328.27734375 -265.0 L 1337.27734375 -253.0 L 1339.11132812 -241.333007812 L 1333.77734375 -230.0 L 1328.44433594 -222.0 L 1322.27734375 -220.333007812 L 1315.27734375 -225.0 L 1308.27734375 -229.666992188 L 1300.11132812 -233.666992188 L 1290.77734375 -237.0 L 1281.44433594 -240.333007812 L 1271.27734375 -242.666992188 L 1260.27734375 -244.0 L 1249.27734375 -245.333007812 L 1232.11132812 -246.0 L 1208.77734375 -246.0 L 199.77734375 -246.0 L 184.444335938 -246.0 L 170.444335938 -247.0 L 157.77734375 -249.0 L 145.111328125 -251.0 L 135.27734375 -253.166992188 L 128.27734375 -255.5 L 121.27734375 -257.833007812 L 113.77734375 -261.0 L 105.77734375 -265.0 L 97.77734375 -269.0 L 89.27734375 -273.833007812 L 80.27734375 -279.5 L 71.27734375 -285.166992188 L 61.77734375 -293.166992188 L 51.77734375 -303.5 L 41.77734375 -313.833007812 L 31.611328125 -325.833007812 L 21.27734375 -339.5 L 10.9443359375 -353.166992188 L 4.4443359375 -362.666992188 L 1.77734375 -368.0 L -0.888671875 -373.333007812 L -0.5556640625 -378.666992188 Z" fill="black" fill-opacity="0.25" stroke="black" stroke-width="4.0"/>
  <rect x="758.0" y="-180.0" width="296.00000000000006" height="201.99999999999997" fill="none" stroke="red" stroke-width="10.0" /><rect x="-1.0" y="-393.0" width="1339.9999999999998" height="173.00000000000003" fill="none" stroke="red" stroke-width="10.0" />
</svg>
