<svg xmlns="http://www.w3.org/2000/svg"
  viewBox="-50.00005894218928 -985.9091437404975 1436.7544334076463 813.4882346250131">
  <rect x="-50.00005894218928" y="-985.9091437404975" width="1436.7544334076463" height="813.4882346250131" fill="white"/>
  <path d="M 906.77734375 -530.0 L 915.77734375 -492.0 L 916.444335938 -489.333007812 L 920.111328125 -482.833007812 L 926.77734375 -472.5 L 933.444335938 -462.166992188 L 936.77734375 -455.666992188 L 936.77734375 -453.0 L 936.77734375 -450.333007812 L 931.27734375 -448.0 L 920.27734375 -446.0 L 909.27734375 -444.0 L 901.77734375 -443.0 L 897.77734375 -443.0 L 836.77734375 -443.0 L 828.77734375 -443.0 L 821.27734375 -448.666992188 L 814.27734375 -460.0 L 807.27734375 -471.333007812 L 802.77734375 -482.0 L 800.77734375 -492.0 L 792.77734375 -531.0 L 714.77734375 -531.0 L 643.111328125 -534.0 L 577.77734375 -540.0 L 512.444335938 -546.0 L 466.111328125 -551.333007812 L 438.77734375 -556.0 L 388.111328125 -564.0 L 346.27734375 -578.0 L 313.27734375 -598.0 L 280.27734375 -618.0 L 258.444335938 -640.666992188 L 247.77734375 -666.0 L 242.444335938 -678.666992188 L 232.77734375 -697.5 L 218.77734375 -722.5 L 204.77734375 -747.5 L 190.111328125 -772.666992188 L 174.77734375 -798.0 L 159.444335938 -823.333007812 L 144.944335938 -846.0 L 131.27734375 -866.0 L 117.611328125 -886.0 L 108.111328125 -897.333007812 L 102.77734375 -900.0 L 75.4443359375 -909.333007812 L 69.4443359375 -919.333007812 L 84.77734375 -930.0 L 118.77734375 -932.666992188 L 150.944335938 -934.5 L 181.27734375 -935.5 L 211.611328125 -936.5 L 242.77734375 -935.666992188 L 274.77734375 -933.0 L 306.77734375 -931.0 L 329.77734375 -912.666992188 L 343.77734375 -878.0 L 357.77734375 -843.333007812 L 371.444335938 -798.0 L 384.77734375 -742.0 L 398.77734375 -686.0 L 416.111328125 -647.833007812 L 436.77734375 -627.5 L 457.444335938 -607.166992188 L 492.77734375 -590.333007812 L 542.77734375 -577.0 L 570.77734375 -569.0 L 604.611328125 -564.0 L 644.27734375 -562.0 L 683.944335938 -560.0 L 732.444335938 -559.333007812 L 789.77734375 -560.0 L 776.77734375 -629.0 L 776.111328125 -632.333007812 L 772.77734375 -636.833007812 L 766.77734375 -642.5 L 760.77734375 -648.166992188 L 757.77734375 -652.333007812 L 757.77734375 -655.0 L 757.77734375 -659.0 L 763.27734375 -661.666992188 L 774.27734375 -663.0 L 785.27734375 -664.333007812 L 792.77734375 -665.0 L 796.77734375 -665.0 L 857.77734375 -665.0 L 865.111328125 -665.0 L 872.27734375 -659.833007812 L 879.27734375 -649.5 L 886.27734375 -639.166992188 L 891.111328125 -628.0 L 893.77734375 -616.0 L 903.77734375 -561.0 L 948.444335938 -561.666992188 L 978.944335938 -563.166992188 L 995.27734375 -565.5 L 1011.61132812 -567.833007812 L 1028.77734375 -570.333007812 L 1046.77734375 -573.0 L 1054.11132812 -572.333007812 L 1058.61132812 -569.0 L 1060.27734375 -563.0 L 1061.94433594 -557.0 L 1060.44433594 -551.666992188 L 1055.77734375 -547.0 L 1049.11132812 -541.666992188 L 1035.44433594 -537.5 L 1014.77734375 -534.5 L 994.111328125 -531.5 L 958.111328125 -530.0 Z M 2.77734375 -384.0 L 6.111328125 -389.333007812 L 9.9443359375 -392.166992188 L 14.27734375 -392.5 L 18.611328125 -392.833007812 L 23.111328125 -391.666992188 L 27.77734375 -389.0 L 32.4443359375 -386.333007812 L 38.4443359375 -383.166992188 L 45.77734375 -379.5 L 53.111328125 -375.833007812 L 62.4443359375 -372.833007812 L 73.77734375 -370.5 L 85.111328125 -368.166992188 L 101.111328125 -367.0 L 121.77734375 -367.0 L 1145.77734375 -367.0 L 1164.44433594 -367.0 L 1181.44433594 -365.5 L 1196.77734375 -362.5 L 1212.11132812 -359.5 L 1226.11132812 -354.666992188 L 1238.77734375 -348.0 L 1251.44433594 -341.333007812 L 1261.27734375 -335.333007812 L 1268.27734375 -330.0 L 1275.27734375 -324.666992188 L 1284.77734375 -315.5 L 1296.77734375 -302.5 L 1308.77734375 -289.5 L 1319.27734375 -277.0 L 1328.27734375 -265.0 L 1337.27734375 -253.0 L 1339.11132812 -241.333007812 L 1333.77734375 -230.0 L 1328.44433594 -222.0 L 1322.27734375 -220.333007812 L 1315.27734375 -225.0 L 1308.27734375 -229.666992188 L 1300.11132812 -233.666992188 L 1290.77734375 -237.0 L 1281.44433594 -240.333007812 L 1271.27734375 -242.666992188 L 1260.27734375 -244.0 L 1249.27734375 -245.333007812 L 1232.11132812 -246.0 L 1208.77734375 -246.0 L 199.77734375 -246.0 L 184.444335938 -246.0 L 170.444335938 -247.0 L 157.77734375 -249.0 L 145.111328125 -251.0 L 135.27734375 -253.166992188 L 128.27734375 -255.5 L 121.27734375 -257.833007812 L 113.77734375 -261.0 L 105.77734375 -265.0 L 97.77734375 -269.0 L 89.27734375 -273.833007812 L 80.27734375 -279.5 L 71.27734375 -285.166992188 L 61.77734375 -293.166992188 L 51.77734375 -303.5 L 41.77734375 -313.833007812 L 31.611328125 -325.833007812 L 21.27734375 -339.5 L 10.9443359375 -353.166992188 L 4.4443359375 -362.666992188 L 1.77734375 -368.0 L -0.888671875 -373.333007812 L -0.5556640625 -378.666992188 Z" fill="black" fill-opacity="0.25" stroke="black" stroke-width="4.0"/>
  <rect x="69.0" y="-936.0" width="993.0000000000001" height="493.00000000000006" fill="none" stroke="red" stroke-width="10.0" /><rect x="-1.0" y="-393.0" width="1339.9999999999998" height="173.00000000000003" fill="none" stroke="red" stroke-width="10.0" />
</svg>
