<svg xmlns="http://www.w3.org/2000/svg"
  viewBox="-50 -497 1795.028 386.538">
  <rect x="-50" y="-497" width="1795.028" height="386.538" fill="white"/>
  <path d="M 2.777 -384 L 6.11 -389.333 L 9.944 -392.167 L 14.277 -392.5 L 18.61 -392.833 L 23.11 -391.667 L 27.777 -389 L 32.444 -386.333 L 38.444 -383.167 L 45.777 -379.5 L 53.11 -375.833 L 62.444 -372.833 L 73.777 -370.5 L 85.11 -368.167 L 101.11 -367 L 121.777 -367 L 1145.777 -367 L 1164.444 -367 L 1181.444 -365.5 L 1196.777 -362.5 L 1212.11 -359.5 L 1226.11 -354.667 L 1238.777 -348 L 1251.444 -341.333 L 1261.277 -335.333 L 1268.277 -330 L 1275.277 -324.667 L 1284.777 -315.5 L 1296.777 -302.5 L 1308.777 -289.5 L 1319.277 -277 L 1328.277 -265 L 1337.277 -253 L 1339.11 -241.333 L 1333.777 -230 L 1328.444 -222 L 1322.277 -220.333 L 1315.277 -225 L 1308.277 -229.667 L 1300.11 -233.667 L 1290.777 -237 L 1281.444 -240.333 L 1271.277 -242.667 L 1260.277 -244 L 1249.277 -245.333 L 1232.11 -246 L 1208.777 -246 L 199.777 -246 L 184.444 -246 L 170.444 -247 L 157.777 -249 L 145.11 -251 L 135.277 -253.167 L 128.277 -255.5 L 121.277 -257.833 L 113.777 -261 L 105.777 -265 L 97.777 -269 L 89.277 -273.833 L 80.277 -279.5 L 71.277 -285.167 L 61.777 -293.167 L 51.777 -303.5 L 41.777 -313.833 L 31.61 -325.833 L 21.277 -339.5 L 10.944 -353.167 L 4.444 -362.667 L 1.777 -368 L -0.89 -373.333 L -0.556 -378.667 Z M 1411.777 -447 L 1434.444 -447 L 1458.277 -446.667 L 1483.277 -446 L 1508.277 -445.333 L 1530.777 -443.667 L 1550.777 -441 L 1564.777 -441 L 1580.277 -413.333 L 1597.277 -358 L 1614.277 -302.667 L 1634.444 -254.333 L 1657.777 -213 L 1665.777 -199 L 1673.11 -191 L 1679.777 -189 L 1685.777 -187 L 1690.444 -183.667 L 1693.777 -179 L 1697.11 -174.333 L 1693.777 -170 L 1683.777 -166 L 1660.444 -162 L 1637.11 -160.167 L 1613.777 -160.5 L 1590.444 -160.833 L 1567.777 -162.667 L 1545.777 -166 L 1525.777 -174 L 1509.277 -199.5 L 1496.277 -242.5 L 1483.277 -285.5 L 1465.11 -336 L 1441.777 -394 L 1439.777 -397.333 L 1435.777 -401.833 L 1429.777 -407.5 L 1423.777 -413.167 L 1416.777 -416.667 L 1408.777 -418 L 1398.11 -420 L 1392.11 -425.333 L 1390.777 -434 L 1389.444 -442.667 L 1396.444 -447 Z" fill="black" fill-opacity="0.25" stroke="black" stroke-width="4"/>
  <rect x="-1" y="-393" width="1340" height="173" fill="none" stroke="red" stroke-width="10" /><rect x="1389" y="-447" width="308" height="287" fill="none" stroke="red" stroke-width="10" />
</svg>
