<svg xmlns="http://www.w3.org/2000/svg"
  viewBox="-50.00005894218928 -1213.0 1436.7544334076463 1040.5790908845156">
  <rect x="-50.00005894218928" y="-1213.0" width="1436.7544334076463" height="1040.5790908845156" fill="white"/>
  <path d="M 841.77734375 -711.0 L 861.77734375 -711.0 L 882.77734375 -710.666992188 L 904.77734375 -710.0 L 926.77734375 -709.333007812 L 946.444335938 -707.333007812 L 963.77734375 -704.0 L 976.444335938 -704.0 L 989.611328125 -682.833007812 L 1003.27734375 -640.5 L 1016.94433594 -598.166992188 L 1033.44433594 -556.333007812 L 1052.77734375 -515.0 L 1058.77734375 -501.0 L 1065.11132812 -493.333007812 L 1071.77734375 -492.0 L 1077.11132812 -490.0 L 1081.27734375 -486.5 L 1084.27734375 -481.5 L 1087.27734375 -476.5 L 1084.44433594 -472.333007812 L 1075.77734375 -469.0 L 1055.77734375 -465.0 L 1035.27734375 -463.166992188 L 1014.27734375 -463.5 L 993.27734375 -463.833007812 L 973.444335938 -465.666992188 L 954.77734375 -469.0 L 937.444335938 -477.0 L 923.77734375 -496.0 L 913.77734375 -526.0 L 903.77734375 -556.0 L 888.444335938 -600.0 L 867.77734375 -658.0 L 866.444335938 -661.333007812 L 862.944335938 -666.333007812 L 857.27734375 -673.0 L 851.611328125 -679.666992188 L 845.111328125 -684.0 L 837.77734375 -686.0 L 828.444335938 -688.0 L 823.27734375 -692.666992188 L 822.27734375 -700.0 L 821.27734375 -707.333007812 L 827.77734375 -711.0 Z M 571.77734375 -711.0 L 591.77734375 -711.0 L 612.77734375 -710.666992188 L 634.77734375 -710.0 L 656.77734375 -709.333007812 L 676.444335938 -707.333007812 L 693.77734375 -704.0 L 706.444335938 -704.0 L 719.611328125 -682.833007812 L 733.27734375 -640.5 L 746.944335938 -598.166992188 L 763.444335938 -556.333007812 L 782.77734375 -515.0 L 789.444335938 -501.0 L 795.77734375 -493.333007812 L 801.77734375 -492.0 L 807.111328125 -490.0 L 811.111328125 -486.5 L 813.77734375 -481.5 L 816.444335938 -476.5 L 813.77734375 -472.333007812 L 805.77734375 -469.0 L 785.111328125 -465.0 L 764.444335938 -463.166992188 L 743.77734375 -463.5 L 723.111328125 -463.833007812 L 703.444335938 -465.666992188 L 684.77734375 -469.0 L 666.77734375 -477.0 L 652.944335938 -496.0 L 643.27734375 -526.0 L 633.611328125 -556.0 L 618.444335938 -600.0 L 597.77734375 -658.0 L 595.77734375 -661.333007812 L 592.111328125 -666.333007812 L 586.77734375 -673.0 L 581.444335938 -679.666992188 L 575.111328125 -684.0 L 567.77734375 -686.0 L 557.77734375 -688.0 L 552.444335938 -692.666992188 L 551.77734375 -700.0 L 551.111328125 -707.333007812 L 557.77734375 -711.0 Z M 2.77734375 -384.0 L 6.111328125 -389.333007812 L 9.9443359375 -392.166992188 L 14.27734375 -392.5 L 18.611328125 -392.833007812 L 23.111328125 -391.666992188 L 27.77734375 -389.0 L 32.4443359375 -386.333007812 L 38.4443359375 -383.166992188 L 45.77734375 -379.5 L 53.111328125 -375.833007812 L 62.4443359375 -372.833007812 L 73.77734375 -370.5 L 85.111328125 -368.166992188 L 101.111328125 -367.0 L 121.77734375 -367.0 L 1145.77734375 -367.0 L 1164.44433594 -367.0 L 1181.44433594 -365.5 L 1196.77734375 -362.5 L 1212.11132812 -359.5 L 1226.11132812 -354.666992188 L 1238.77734375 -348.0 L 1251.44433594 -341.333007812 L 1261.27734375 -335.333007812 L 1268.27734375 -330.0 L 1275.27734375 -324.666992188 L 1284.77734375 -315.5 L 1296.77734375 -302.5 L 1308.77734375 -289.5 L 1319.27734375 -277.0 L 1328.27734375 -265.0 L 1337.27734375 -253.0 L 1339.11132812 -241.333007812 L 1333.77734375 -230.0 L 1328.44433594 -222.0 L 1322.27734375 -220.333007812 L 1315.27734375 -225.0 L 1308.27734375 -229.666992188 L 1300.11132812 -233.666992188 L 1290.77734375 -237.0 L 1281.44433594 -240.333007812 L 1271.27734375 -242.666992188 L 1260.27734375 -244.0 L 1249.27734375 -245.333007812 L 1232.11132812 -246.0 L 1208.77734375 -246.0 L 199.77734375 -246.0 L 184.444335938 -246.0 L 170.444335938 -247.0 L 157.77734375 -249.0 L 145.111328125 -251.0 L 135.27734375 -253.166992188 L 128.27734375 -255.5 L 121.27734375 -257.833007812 L 113.77734375 -261.0 L 105.77734375 -265.0 L 97.77734375 -269.0 L 89.27734375 -273.833007812 L 80.27734375 -279.5 L 71.27734375 -285.166992188 L 61.77734375 -293.166992188 L 51.77734375 -303.5 L 41.77734375 -313.833007812 L 31.611328125 -325.833007812 L 21.27734375 -339.5 L 10.9443359375 -353.166992188 L 4.4443359375 -362.666992188 L 1.77734375 -368.0 L -0.888671875 -373.333007812 L -0.5556640625 -378.666992188 Z M 563.77734375 -1163.0 L 574.444335938 -1161.0 L 579.111328125 -1155.5 L 577.77734375 -1146.5 L 576.444335938 -1137.5 L 569.77734375 -1132.66699219 L 557.77734375 -1132.0 L 543.77734375 -1127.33300781 L 532.444335938 -1109.66699219 L 523.77734375 -1079.0 L 515.111328125 -1048.33300781 L 506.111328125 -1016.0 L 496.77734375 -982.0 L 474.111328125 -902.666992188 L 453.444335938 -838.333007812 L 434.77734375 -789.0 L 416.111328125 -739.666992188 L 398.27734375 -705.166992188 L 381.27734375 -685.5 L 364.27734375 -665.833007812 L 344.111328125 -650.666992188 L 320.77734375 -640.0 L 284.77734375 -624.666992188 L 249.27734375 -613.333007812 L 214.27734375 -606.0 L 179.27734375 -598.666992188 L 149.111328125 -595.0 L 123.77734375 -595.0 L 136.444335938 -565.0 L 157.611328125 -544.0 L 187.27734375 -532.0 L 216.944335938 -520.0 L 225.444335938 -507.333007812 L 212.77734375 -494.0 L 205.444335938 -486.666992188 L 182.444335938 -496.333007812 L 143.77734375 -523.0 L 105.111328125 -549.666992188 L 78.4443359375 -576.0 L 63.77734375 -602.0 L 63.77734375 -618.666992188 L 70.611328125 -625.666992188 L 84.27734375 -623.0 L 97.9443359375 -620.333007812 L 112.444335938 -618.333007812 L 127.77734375 -617.0 L 143.111328125 -616.333007812 L 159.111328125 -617.333007812 L 175.77734375 -620.0 L 192.444335938 -622.666992188 L 214.444335938 -631.0 L 241.77734375 -645.0 L 255.111328125 -651.666992188 L 267.611328125 -666.833007812 L 279.27734375 -690.5 L 290.944335938 -714.166992188 L 301.611328125 -740.333007812 L 311.27734375 -769.0 L 320.944335938 -797.666992188 L 329.111328125 -826.166992188 L 335.77734375 -854.5 L 342.444335938 -882.833007812 L 351.27734375 -923.666992188 L 362.27734375 -977.0 L 373.27734375 -1030.33300781 L 382.611328125 -1066.0 L 390.27734375 -1084.0 L 397.944335938 -1102.0 L 408.944335938 -1116.66699219 L 423.27734375 -1128.0 L 437.611328125 -1139.33300781 L 451.27734375 -1146.66699219 L 464.27734375 -1150.0 L 477.27734375 -1153.33300781 L 491.77734375 -1155.66699219 L 507.77734375 -1157.0 L 523.77734375 -1158.33300781 L 542.444335938 -1160.33300781 Z" fill="black" fill-opacity="0.25" stroke="black" stroke-width="4.0"/>
  <rect x="821.0" y="-711.0" width="266.0" height="247.99999999999994" fill="none" stroke="red" stroke-width="10.0" /><rect x="551.0" y="-711.0" width="264.9999999999999" height="247.99999999999994" fill="none" stroke="red" stroke-width="10.0" /><rect x="-1.0" y="-393.0" width="1339.9999999999998" height="173.00000000000003" fill="none" stroke="red" stroke-width="10.0" /><rect x="64.0" y="-1163.0" width="514.9999999999999" height="676.0" fill="none" stroke="red" stroke-width="10.0" />
</svg>
