<svg xmlns="http://www.w3.org/2000/svg"
  viewBox="-50 -1213 1541.222 1040.579">
  <rect x="-50" y="-1213" width="1541.222" height="1040.579" fill="white"/>
  <path d="M 26 -384 L 29.333 -389.333 L 33.167 -392.167 L 37.5 -392.5 L 41.833 -392.833 L 46.333 -391.667 L 51 -389 L 55.667 -386.333 L 61.667 -383.167 L 69 -379.5 L 76.333 -375.833 L 85.667 -372.833 L 97 -370.5 L 108.333 -368.167 L 124.333 -367 L 145 -367 L 1169 -367 L 1187.667 -367 L 1204.667 -365.5 L 1220 -362.5 L 1235.333 -359.5 L 1249.333 -354.667 L 1262 -348 L 1274.667 -341.333 L 1284.5 -335.333 L 1291.5 -330 L 1298.5 -324.667 L 1308 -315.5 L 1320 -302.5 L 1332 -289.5 L 1342.5 -277 L 1351.5 -265 L 1360.5 -253 L 1362.333 -241.333 L 1357 -230 L 1351.667 -222 L 1345.5 -220.333 L 1338.5 -225 L 1331.5 -229.667 L 1323.333 -233.667 L 1314 -237 L 1304.667 -240.333 L 1294.5 -242.667 L 1283.5 -244 L 1272.5 -245.333 L 1255.333 -246 L 1232 -246 L 223 -246 L 207.667 -246 L 193.667 -247 L 181 -249 L 168.333 -251 L 158.5 -253.167 L 151.5 -255.5 L 144.5 -257.833 L 137 -261 L 129 -265 L 121 -269 L 112.5 -273.833 L 103.5 -279.5 L 94.5 -285.167 L 85 -293.167 L 75 -303.5 L 65 -313.833 L 54.833 -325.833 L 44.5 -339.5 L 34.167 -353.167 L 27.667 -362.667 L 25 -368 L 22.333 -373.333 L 22.667 -378.667 Z M 1427 -1163 L 1437.667 -1161 L 1442.333 -1155.5 L 1441 -1146.5 L 1439.667 -1137.5 L 1432.667 -1132.667 L 1420 -1132 L 1406 -1127.333 L 1394.833 -1109.667 L 1386.5 -1079 L 1378.167 -1048.333 L 1369 -1016 L 1359 -982 L 1336.333 -902.667 L 1315.833 -838.333 L 1297.5 -789 L 1279.167 -739.667 L 1261.5 -705.167 L 1244.5 -685.5 L 1227.5 -665.833 L 1207.333 -650.667 L 1184 -640 L 1148 -624.667 L 1112.5 -613.333 L 1077.5 -606 L 1042.5 -598.667 L 1012 -595 L 986 -595 L 998.667 -565 L 1020 -544 L 1050 -532 L 1080 -520 L 1088.667 -507.333 L 1076 -494 L 1068.667 -486.667 L 1045.667 -496.333 L 1007 -523 L 968.333 -549.667 L 941.667 -576 L 927 -602 L 927 -618.667 L 933.833 -625.667 L 947.5 -623 L 961.167 -620.333 L 975.667 -618.333 L 991 -617 L 1006.333 -616.333 L 1022.333 -617.333 L 1039 -620 L 1055.667 -622.667 L 1077.667 -631 L 1105 -645 L 1118.333 -651.667 L 1130.833 -666.833 L 1142.5 -690.5 L 1154.167 -714.167 L 1164.833 -740.333 L 1174.5 -769 L 1184.167 -797.667 L 1192.333 -826.167 L 1199 -854.5 L 1205.667 -882.833 L 1214.5 -923.667 L 1225.5 -977 L 1236.5 -1030.333 L 1245.833 -1066 L 1253.5 -1084 L 1261.167 -1102 L 1272.167 -1116.667 L 1286.5 -1128 L 1300.833 -1139.333 L 1314.5 -1146.667 L 1327.5 -1150 L 1340.5 -1153.333 L 1355 -1155.667 L 1371 -1157 L 1387 -1158.333 L 1405.667 -1160.333 Z M 963 -1163 L 973.667 -1161 L 978.333 -1155.5 L 977 -1146.5 L 975.667 -1137.5 L 969 -1132.667 L 957 -1132 L 943 -1127.333 L 931.667 -1109.667 L 923 -1079 L 914.333 -1048.333 L 905.333 -1016 L 896 -982 L 873.333 -902.667 L 852.667 -838.333 L 834 -789 L 815.333 -739.667 L 797.5 -705.167 L 780.5 -685.5 L 763.5 -665.833 L 743.333 -650.667 L 720 -640 L 684 -624.667 L 648.5 -613.333 L 613.5 -606 L 578.5 -598.667 L 548.333 -595 L 523 -595 L 535.667 -565 L 556.833 -544 L 586.5 -532 L 616.167 -520 L 624.667 -507.333 L 612 -494 L 604.667 -486.667 L 581.667 -496.333 L 543 -523 L 504.333 -549.667 L 477.667 -576 L 463 -602 L 463 -618.667 L 469.833 -625.667 L 483.5 -623 L 497.167 -620.333 L 511.667 -618.333 L 527 -617 L 542.333 -616.333 L 558.333 -617.333 L 575 -620 L 591.667 -622.667 L 613.667 -631 L 641 -645 L 654.333 -651.667 L 666.833 -666.833 L 678.5 -690.5 L 690.167 -714.167 L 700.833 -740.333 L 710.5 -769 L 720.167 -797.667 L 728.333 -826.167 L 735 -854.5 L 741.667 -882.833 L 750.5 -923.667 L 761.5 -977 L 772.5 -1030.333 L 781.833 -1066 L 789.5 -1084 L 797.167 -1102 L 808.167 -1116.667 L 822.5 -1128 L 836.833 -1139.333 L 850.5 -1146.667 L 863.5 -1150 L 876.5 -1153.333 L 891 -1155.667 L 907 -1157 L 923 -1158.333 L 941.667 -1160.333 Z M 499 -1163 L 509.667 -1161 L 514.333 -1155.5 L 513 -1146.5 L 511.667 -1137.5 L 505 -1132.667 L 493 -1132 L 479 -1127.333 L 467.667 -1109.667 L 459 -1079 L 450.333 -1048.333 L 441.333 -1016 L 432 -982 L 409.333 -902.667 L 388.667 -838.333 L 370 -789 L 351.333 -739.667 L 333.667 -705.167 L 317 -685.5 L 300.333 -665.833 L 280 -650.667 L 256 -640 L 220 -624.667 L 184.5 -613.333 L 149.5 -606 L 114.5 -598.667 L 84.333 -595 L 59 -595 L 71.667 -565 L 93 -544 L 123 -532 L 153 -520 L 161.667 -507.333 L 149 -494 L 141.667 -486.667 L 118.5 -496.333 L 79.5 -523 L 40.5 -549.667 L 14 -576 L 0 -602 L 0 -618.667 L 6.667 -625.667 L 20 -623 L 33.333 -620.333 L 48 -618.333 L 64 -617 L 79.333 -616.333 L 95.167 -617.333 L 111.5 -620 L 127.833 -622.667 L 149.667 -631 L 177 -645 L 190.333 -651.667 L 203 -666.833 L 215 -690.5 L 227 -714.167 L 237.667 -740.333 L 247 -769 L 256.333 -797.667 L 264.333 -826.167 L 271 -854.5 L 277.667 -882.833 L 286.5 -923.667 L 297.5 -977 L 308.5 -1030.333 L 317.833 -1066 L 325.5 -1084 L 333.167 -1102 L 344.167 -1116.667 L 358.5 -1128 L 372.833 -1139.333 L 386.667 -1146.667 L 400 -1150 L 413.333 -1153.333 L 427.833 -1155.667 L 443.5 -1157 L 459.167 -1158.333 L 477.667 -1160.333 Z" fill="black" fill-opacity="0.25" stroke="black" stroke-width="4"/>
  <rect x="22" y="-393" width="1340" height="173" fill="none" stroke="red" stroke-width="10" /><rect x="927" y="-715.4" width="339.7" height="223.8" fill="none" stroke="red" stroke-width="10" /><rect x="1154.7" y="-939.2" width="192.1" height="223.8" fill="none" stroke="red" stroke-width="10" /><rect x="1217.7" y="-1163" width="224.6" height="223.8" fill="none" stroke="red" stroke-width="10" /><rect x="463" y="-715.4" width="339.8" height="223.8" fill="none" stroke="red" stroke-width="10" /><rect x="690.7" y="-939.2" width="193.1" height="223.8" fill="none" stroke="red" stroke-width="10" /><rect x="753.7" y="-1163" width="224.6" height="223.8" fill="none" stroke="red" stroke-width="10" /><rect x="0" y="-715.4" width="338.9" height="223.8" fill="none" stroke="red" stroke-width="10" /><rect x="227.5" y="-939.2" width="192.3" height="223.8" fill="none" stroke="red" stroke-width="10" /><rect x="289.7" y="-1163" width="224.6" height="223.8" fill="none" stroke="red" stroke-width="10" />
</svg>
