<svg xmlns="http://www.w3.org/2000/svg"
  viewBox="-50.00005894218928 -770.0 1558.8253946059476 597.5790908845156">
  <rect x="-50.00005894218928" y="-770.0" width="1558.8253946059476" height="597.5790908845156" fill="white"/>
  <path d="M 1071.77734375 -671.0 L 1091.77734375 -671.0 L 1112.77734375 -670.666992188 L 1134.77734375 -670.0 L 1156.77734375 -669.333007812 L 1176.44433594 -667.333007812 L 1193.77734375 -664.0 L 1206.44433594 -664.0 L 1220.77734375 -647.0 L 1236.77734375 -613.0 L 1252.77734375 -579.0 L 1270.44433594 -541.666992188 L 1289.77734375 -501.0 L 1295.11132812 -487.0 L 1301.44433594 -479.0 L 1308.77734375 -477.0 L 1313.44433594 -475.0 L 1317.27734375 -471.5 L 1320.27734375 -466.5 L 1323.27734375 -461.5 L 1320.44433594 -457.0 L 1311.77734375 -453.0 L 1291.77734375 -449.0 L 1271.27734375 -447.333007812 L 1250.27734375 -448.0 L 1229.27734375 -448.666992188 L 1209.77734375 -450.333007812 L 1191.77734375 -453.0 L 1174.44433594 -461.0 L 1159.61132812 -476.0 L 1147.27734375 -498.0 L 1134.94433594 -520.0 L 1118.44433594 -559.666992188 L 1097.77734375 -617.0 L 1095.77734375 -620.333007812 L 1092.11132812 -625.5 L 1086.77734375 -632.5 L 1081.44433594 -639.5 L 1075.44433594 -643.666992188 L 1068.77734375 -645.0 L 1059.44433594 -646.333007812 L 1054.11132812 -651.0 L 1052.77734375 -659.0 L 1051.44433594 -667.0 L 1057.77734375 -671.0 Z M 801.77734375 -671.0 L 821.77734375 -671.0 L 842.77734375 -670.666992188 L 864.77734375 -670.0 L 886.77734375 -669.333007812 L 906.444335938 -667.333007812 L 923.77734375 -664.0 L 936.444335938 -664.0 L 950.77734375 -647.0 L 966.77734375 -613.0 L 982.77734375 -579.0 L 1000.11132812 -541.666992188 L 1018.77734375 -501.0 L 1024.77734375 -487.0 L 1031.11132812 -479.0 L 1037.77734375 -477.0 L 1043.11132812 -475.0 L 1047.27734375 -471.5 L 1050.27734375 -466.5 L 1053.27734375 -461.5 L 1050.44433594 -457.0 L 1041.77734375 -453.0 L 1021.11132812 -449.0 L 1000.44433594 -447.333007812 L 979.77734375 -448.0 L 959.111328125 -448.666992188 L 939.444335938 -450.333007812 L 920.77734375 -453.0 L 903.444335938 -461.0 L 888.77734375 -476.0 L 876.77734375 -498.0 L 864.77734375 -520.0 L 848.444335938 -559.666992188 L 827.77734375 -617.0 L 825.77734375 -620.333007812 L 822.111328125 -625.5 L 816.77734375 -632.5 L 811.444335938 -639.5 L 805.111328125 -643.666992188 L 797.77734375 -645.0 L 788.444335938 -646.333007812 L 783.27734375 -651.0 L 782.27734375 -659.0 L 781.27734375 -667.0 L 787.77734375 -671.0 Z M 483.77734375 -720.0 L 499.111328125 -719.333007812 L 506.27734375 -715.166992188 L 505.27734375 -707.5 L 504.27734375 -699.833007812 L 498.111328125 -695.0 L 486.77734375 -693.0 L 478.111328125 -691.666992188 L 470.77734375 -688.5 L 464.77734375 -683.5 L 458.77734375 -678.5 L 455.111328125 -674.333007812 L 453.77734375 -671.0 L 429.77734375 -619.0 L 411.27734375 -573.666992188 L 398.27734375 -535.0 L 385.27734375 -496.333007812 L 368.77734375 -473.666992188 L 348.77734375 -467.0 L 327.444335938 -465.0 L 304.77734375 -463.5 L 280.77734375 -462.5 L 256.77734375 -461.5 L 233.444335938 -463.0 L 210.77734375 -467.0 L 200.77734375 -470.333007812 L 197.444335938 -474.166992188 L 200.77734375 -478.5 L 204.111328125 -482.833007812 L 208.77734375 -486.0 L 214.77734375 -488.0 L 221.444335938 -490.0 L 228.77734375 -497.0 L 236.77734375 -509.0 L 260.111328125 -546.333007812 L 280.111328125 -589.666992188 L 296.77734375 -639.0 L 313.444335938 -688.333007812 L 329.111328125 -713.0 L 343.77734375 -713.0 L 363.77734375 -715.666992188 L 386.27734375 -717.5 L 411.27734375 -718.5 L 436.27734375 -719.5 L 460.444335938 -720.0 Z M 2.77734375 -384.0 L 6.111328125 -389.333007812 L 9.9443359375 -392.166992188 L 14.27734375 -392.5 L 18.611328125 -392.833007812 L 23.111328125 -391.666992188 L 27.77734375 -389.0 L 32.4443359375 -386.333007812 L 38.4443359375 -383.166992188 L 45.77734375 -379.5 L 53.111328125 -375.833007812 L 62.4443359375 -372.833007812 L 73.77734375 -370.5 L 85.111328125 -368.166992188 L 101.111328125 -367.0 L 121.77734375 -367.0 L 1267.77734375 -367.0 L 1286.44433594 -367.0 L 1303.44433594 -365.5 L 1318.77734375 -362.5 L 1334.11132812 -359.5 L 1348.11132812 -354.666992188 L 1360.77734375 -348.0 L 1373.44433594 -341.333007812 L 1383.27734375 -335.333007812 L 1390.27734375 -330.0 L 1397.27734375 -324.666992188 L 1406.94433594 -315.5 L 1419.27734375 -302.5 L 1431.61132812 -289.5 L 1442.11132812 -277.0 L 1450.77734375 -265.0 L 1459.44433594 -253.0 L 1461.11132812 -241.333007812 L 1455.77734375 -230.0 L 1450.44433594 -222.0 L 1444.27734375 -220.333007812 L 1437.27734375 -225.0 L 1430.27734375 -229.666992188 L 1422.11132812 -233.666992188 L 1412.77734375 -237.0 L 1403.44433594 -240.333007812 L 1393.27734375 -242.666992188 L 1382.27734375 -244.0 L 1371.27734375 -245.333007812 L 1354.11132812 -246.0 L 1330.77734375 -246.0 L 199.77734375 -246.0 L 184.444335938 -246.0 L 170.444335938 -247.0 L 157.77734375 -249.0 L 145.111328125 -251.0 L 135.27734375 -253.166992188 L 128.27734375 -255.5 L 121.27734375 -257.833007812 L 113.77734375 -261.0 L 105.77734375 -265.0 L 97.77734375 -269.0 L 89.4443359375 -273.833007812 L 80.77734375 -279.5 L 72.111328125 -285.166992188 L 62.611328125 -293.166992188 L 52.27734375 -303.5 L 41.9443359375 -313.833007812 L 31.611328125 -325.833007812 L 21.27734375 -339.5 L 10.9443359375 -353.166992188 L 4.4443359375 -362.666992188 L 1.77734375 -368.0 L -0.888671875 -373.333007812 L -0.5556640625 -378.666992188 Z" fill="black" fill-opacity="0.25" stroke="black" stroke-width="4.0"/>
  <rect x="1051.0" y="-671.0" width="272.0" height="224.00000000000003" fill="none" stroke="red" stroke-width="10.0" /><rect x="781.0" y="-671.0" width="271.9999999999999" height="224.00000000000003" fill="none" stroke="red" stroke-width="10.0" /><rect x="197.0" y="-720.0" width="309.0" height="257.99999999999994" fill="none" stroke="red" stroke-width="10.0" /><rect x="-1.0" y="-393.0" width="1462.0" height="173.00000000000003" fill="none" stroke="red" stroke-width="10.0" />
</svg>
