<svg xmlns="http://www.w3.org/2000/svg"
  viewBox="-50 -1388 1541.222 1215.579">
  <rect x="-50" y="-1388" width="1541.222" height="1215.579" fill="white"/>
  <path d="M 402 -697 L 422 -697 L 443 -696.667 L 465 -696 L 487 -695.333 L 506.667 -693.333 L 524 -690 L 536.667 -690 L 550.167 -668.667 L 564.5 -626 L 578.833 -583.333 L 595.333 -541.667 L 614 -501 L 619.333 -487 L 625.667 -479 L 633 -477 L 637.667 -475 L 641.5 -471.5 L 644.5 -466.5 L 647.5 -461.5 L 644.667 -457 L 636 -453 L 616 -449 L 595.667 -447.333 L 575 -448 L 554.333 -448.667 L 534.667 -450.333 L 516 -453 L 498.667 -461 L 485 -480.167 L 475 -510.5 L 465 -540.833 L 449.667 -585 L 429 -643 L 427 -646.333 L 423.333 -651.5 L 418 -658.5 L 412.667 -665.5 L 406.333 -669.667 L 399 -671 L 389.667 -672.333 L 384.333 -676.833 L 383 -684.5 L 381.667 -692.167 L 388 -696.333 Z M 672 -697 L 692 -697 L 713.167 -696.667 L 735.5 -696 L 757.833 -695.333 L 777.667 -693.333 L 795 -690 L 807.667 -690 L 821 -668.667 L 835 -626 L 849 -583.333 L 865.333 -541.667 L 884 -501 L 890 -487 L 896.333 -479 L 903 -477 L 908.333 -475 L 912.5 -471.5 L 915.5 -466.5 L 918.5 -461.5 L 915.667 -457 L 907 -453 L 886.333 -449 L 865.667 -447.333 L 845 -448 L 824.333 -448.667 L 804.667 -450.333 L 786 -453 L 768 -461 L 754.167 -480.167 L 744.5 -510.5 L 734.833 -540.833 L 719.667 -585 L 699 -643 L 697.667 -646.333 L 694.167 -651.5 L 688.5 -658.5 L 682.833 -665.5 L 676.667 -669.667 L 670 -671 L 660.667 -672.333 L 655.167 -676.833 L 653.5 -684.5 L 651.833 -692.167 L 658 -696.333 Z M 26 -384 L 29.333 -389.333 L 33.167 -392.167 L 37.5 -392.5 L 41.833 -392.833 L 46.333 -391.667 L 51 -389 L 55.667 -386.333 L 61.667 -383.167 L 69 -379.5 L 76.333 -375.833 L 85.667 -372.833 L 97 -370.5 L 108.333 -368.167 L 124.333 -367 L 145 -367 L 1169 -367 L 1187.667 -367 L 1204.667 -365.5 L 1220 -362.5 L 1235.333 -359.5 L 1249.333 -354.667 L 1262 -348 L 1274.667 -341.333 L 1284.5 -335.333 L 1291.5 -330 L 1298.5 -324.667 L 1308 -315.5 L 1320 -302.5 L 1332 -289.5 L 1342.5 -277 L 1351.5 -265 L 1360.5 -253 L 1362.333 -241.333 L 1357 -230 L 1351.667 -222 L 1345.5 -220.333 L 1338.5 -225 L 1331.5 -229.667 L 1323.333 -233.667 L 1314 -237 L 1304.667 -240.333 L 1294.5 -242.667 L 1283.5 -244 L 1272.5 -245.333 L 1255.333 -246 L 1232 -246 L 223 -246 L 207.667 -246 L 193.667 -247 L 181 -249 L 168.333 -251 L 158.5 -253.167 L 151.5 -255.5 L 144.5 -257.833 L 137 -261 L 129 -265 L 121 -269 L 112.5 -273.833 L 103.5 -279.5 L 94.5 -285.167 L 85 -293.167 L 75 -303.5 L 65 -313.833 L 54.833 -325.833 L 44.5 -339.5 L 34.167 -353.167 L 27.667 -362.667 L 25 -368 L 22.333 -373.333 L 22.667 -378.667 Z M 1427 -1163 L 1437.667 -1161 L 1442.333 -1155.5 L 1441 -1146.5 L 1439.667 -1137.5 L 1432.667 -1132.667 L 1420 -1132 L 1406 -1127.333 L 1394.833 -1109.667 L 1386.5 -1079 L 1378.167 -1048.333 L 1369 -1016 L 1359 -982 L 1336.333 -902.667 L 1315.833 -838.333 L 1297.5 -789 L 1279.167 -739.667 L 1261.5 -705.167 L 1244.5 -685.5 L 1227.5 -665.833 L 1207.333 -650.667 L 1184 -640 L 1148 -624.667 L 1112.5 -613.333 L 1077.5 -606 L 1042.5 -598.667 L 1012 -595 L 986 -595 L 998.667 -565 L 1020 -544 L 1050 -532 L 1080 -520 L 1088.667 -507.333 L 1076 -494 L 1068.667 -486.667 L 1045.667 -496.333 L 1007 -523 L 968.333 -549.667 L 941.667 -576 L 927 -602 L 927 -618.667 L 933.833 -625.667 L 947.5 -623 L 961.167 -620.333 L 975.667 -618.333 L 991 -617 L 1006.333 -616.333 L 1022.333 -617.333 L 1039 -620 L 1055.667 -622.667 L 1077.667 -631 L 1105 -645 L 1118.333 -651.667 L 1130.833 -666.833 L 1142.5 -690.5 L 1154.167 -714.167 L 1164.833 -740.333 L 1174.5 -769 L 1184.167 -797.667 L 1192.333 -826.167 L 1199 -854.5 L 1205.667 -882.833 L 1214.5 -923.667 L 1225.5 -977 L 1236.5 -1030.333 L 1245.833 -1066 L 1253.5 -1084 L 1261.167 -1102 L 1272.167 -1116.667 L 1286.5 -1128 L 1300.833 -1139.333 L 1314.5 -1146.667 L 1327.5 -1150 L 1340.5 -1153.333 L 1355 -1155.667 L 1371 -1157 L 1387 -1158.333 L 1405.667 -1160.333 Z M 499 -1163 L 509.667 -1161 L 514.333 -1155.5 L 513 -1146.5 L 511.667 -1137.5 L 505 -1132.667 L 493 -1132 L 479 -1127.333 L 467.667 -1109.667 L 459 -1079 L 450.333 -1048.333 L 441.333 -1016 L 432 -982 L 409.333 -902.667 L 388.667 -838.333 L 370 -789 L 351.333 -739.667 L 333.667 -705.167 L 317 -685.5 L 300.333 -665.833 L 280 -650.667 L 256 -640 L 220 -624.667 L 184.5 -613.333 L 149.5 -606 L 114.5 -598.667 L 84.333 -595 L 59 -595 L 71.667 -565 L 93 -544 L 123 -532 L 153 -520 L 161.667 -507.333 L 149 -494 L 141.667 -486.667 L 118.5 -496.333 L 79.5 -523 L 40.5 -549.667 L 14 -576 L 0 -602 L 0 -618.667 L 6.667 -625.667 L 20 -623 L 33.333 -620.333 L 48 -618.333 L 64 -617 L 79.333 -616.333 L 95.167 -617.333 L 111.5 -620 L 127.833 -622.667 L 149.667 -631 L 177 -645 L 190.333 -651.667 L 203 -666.833 L 215 -690.5 L 227 -714.167 L 237.667 -740.333 L 247 -769 L 256.333 -797.667 L 264.333 -826.167 L 271 -854.5 L 277.667 -882.833 L 286.5 -923.667 L 297.5 -977 L 308.5 -1030.333 L 317.833 -1066 L 325.5 -1084 L 333.167 -1102 L 344.167 -1116.667 L 358.5 -1128 L 372.833 -1139.333 L 386.667 -1146.667 L 400 -1150 L 413.333 -1153.333 L 427.833 -1155.667 L 443.5 -1157 L 459.167 -1158.333 L 477.667 -1160.333 Z M 941 -1338 L 951 -1336.667 L 955.333 -1332.167 L 954 -1324.5 L 952.667 -1316.833 L 946.333 -1312.333 L 935 -1311 L 922.333 -1307 L 912 -1292.167 L 904 -1266.5 L 896 -1240.833 L 887.667 -1213.667 L 879 -1185 L 858.333 -1117.667 L 839.167 -1063.333 L 821.5 -1022 L 803.833 -980.667 L 787.333 -951.667 L 772 -935 L 756.667 -918.333 L 738.333 -905.667 L 717 -897 L 683.667 -883.667 L 650.667 -874 L 618 -868 L 585.333 -862 L 557.333 -859 L 534 -859 L 546 -833 L 565.667 -815.167 L 593 -805.5 L 620.333 -795.833 L 628.333 -785.333 L 617 -774 L 610.333 -768 L 589 -776.167 L 553 -798.5 L 517 -820.833 L 492.333 -843 L 479 -865 L 479 -879 L 485.333 -884.833 L 498 -882.5 L 510.667 -880.167 L 524 -878.667 L 538 -878 L 552.667 -877.333 L 567.5 -878 L 582.5 -880 L 597.5 -882 L 617.667 -889 L 643 -901 L 655.667 -907 L 667.333 -919.833 L 678 -939.5 L 688.667 -959.167 L 698.5 -981.167 L 707.5 -1005.5 L 716.5 -1029.833 L 724.167 -1054 L 730.5 -1078 L 736.833 -1102 L 745 -1136.333 L 755 -1181 L 765 -1225.667 L 773.667 -1255.667 L 781 -1271 L 788.333 -1286.333 L 798.5 -1298.833 L 811.5 -1308.5 L 824.5 -1318.167 L 837 -1324.333 L 849 -1327 L 861 -1329.667 L 874.5 -1331.667 L 889.5 -1333 L 904.5 -1334.333 L 921.667 -1336 Z" fill="black" fill-opacity="0.25" stroke="black" stroke-width="4"/>
  <rect x="382" y="-697" width="265" height="250" fill="none" stroke="red" stroke-width="10" /><rect x="652" y="-697" width="266" height="250" fill="none" stroke="red" stroke-width="10" /><rect x="22" y="-393" width="1340" height="173" fill="none" stroke="red" stroke-width="10" /><rect x="927" y="-715.4" width="339.7" height="223.8" fill="none" stroke="red" stroke-width="10" /><rect x="1154.7" y="-939.2" width="192.1" height="223.8" fill="none" stroke="red" stroke-width="10" /><rect x="1217.7" y="-1163" width="224.6" height="223.8" fill="none" stroke="red" stroke-width="10" /><rect x="0" y="-715.4" width="338.9" height="223.8" fill="none" stroke="red" stroke-width="10" /><rect x="227.5" y="-939.2" width="192.3" height="223.8" fill="none" stroke="red" stroke-width="10" /><rect x="289.7" y="-1163" width="224.6" height="223.8" fill="none" stroke="red" stroke-width="10" /><rect x="479" y="-960.7" width="313.5" height="188.6" fill="none" stroke="red" stroke-width="10" /><rect x="689.4" y="-1149.4" width="178.7" height="188.7" fill="none" stroke="red" stroke-width="10" /><rect x="747.9" y="-1338" width="207.4" height="188.6" fill="none" stroke="red" stroke-width="10" />
</svg>
