<svg xmlns="http://www.w3.org/2000/svg"
  viewBox="-50.00005894218928 -889.4704125292188 1436.7544334076463 717.0495034137344">
  <rect x="-50.00005894218928" y="-889.4704125292188" width="1436.7544334076463" height="717.0495034137344" fill="white"/>
  <path d="M 2.77734375 -384.0 L 6.111328125 -389.333007812 L 9.9443359375 -392.166992188 L 14.27734375 -392.5 L 18.611328125 -392.833007812 L 23.111328125 -391.666992188 L 27.77734375 -389.0 L 32.4443359375 -386.333007812 L 38.4443359375 -383.166992188 L 45.77734375 -379.5 L 53.111328125 -375.833007812 L 62.4443359375 -372.833007812 L 73.77734375 -370.5 L 85.111328125 -368.166992188 L 101.111328125 -367.0 L 121.77734375 -367.0 L 1145.77734375 -367.0 L 1164.44433594 -367.0 L 1181.44433594 -365.5 L 1196.77734375 -362.5 L 1212.11132812 -359.5 L 1226.11132812 -354.666992188 L 1238.77734375 -348.0 L 1251.44433594 -341.333007812 L 1261.27734375 -335.333007812 L 1268.27734375 -330.0 L 1275.27734375 -324.666992188 L 1284.77734375 -315.5 L 1296.77734375 -302.5 L 1308.77734375 -289.5 L 1319.27734375 -277.0 L 1328.27734375 -265.0 L 1337.27734375 -253.0 L 1339.11132812 -241.333007812 L 1333.77734375 -230.0 L 1328.44433594 -222.0 L 1322.27734375 -220.333007812 L 1315.27734375 -225.0 L 1308.27734375 -229.666992188 L 1300.11132812 -233.666992188 L 1290.77734375 -237.0 L 1281.44433594 -240.333007812 L 1271.27734375 -242.666992188 L 1260.27734375 -244.0 L 1249.27734375 -245.333007812 L 1232.11132812 -246.0 L 1208.77734375 -246.0 L 199.77734375 -246.0 L 184.444335938 -246.0 L 170.444335938 -247.0 L 157.77734375 -249.0 L 145.111328125 -251.0 L 135.27734375 -253.166992188 L 128.27734375 -255.5 L 121.27734375 -257.833007812 L 113.77734375 -261.0 L 105.77734375 -265.0 L 97.77734375 -269.0 L 89.27734375 -273.833007812 L 80.27734375 -279.5 L 71.27734375 -285.166992188 L 61.77734375 -293.166992188 L 51.77734375 -303.5 L 41.77734375 -313.833007812 L 31.611328125 -325.833007812 L 21.27734375 -339.5 L 10.9443359375 -353.166992188 L 4.4443359375 -362.666992188 L 1.77734375 -368.0 L -0.888671875 -373.333007812 L -0.5556640625 -378.666992188 Z M 46.77734375 -668.0 L 24.77734375 -714.0 L 18.77734375 -753.333007812 L 28.77734375 -786.0 L 38.77734375 -818.666992188 L 57.111328125 -836.333007812 L 83.77734375 -839.0 L 101.111328125 -840.333007812 L 114.27734375 -838.833007812 L 123.27734375 -834.5 L 132.27734375 -830.166992188 L 140.111328125 -825.833007812 L 146.77734375 -821.5 L 153.444335938 -817.166992188 L 159.944335938 -812.5 L 166.27734375 -807.5 L 172.611328125 -802.5 L 178.444335938 -797.166992188 L 183.77734375 -791.5 L 189.111328125 -785.833007812 L 192.77734375 -781.0 L 194.77734375 -777.0 L 196.77734375 -773.0 L 197.77734375 -769.166992188 L 197.77734375 -765.5 L 197.77734375 -761.833007812 L 196.611328125 -759.166992188 L 194.27734375 -757.5 L 191.944335938 -755.833007812 L 185.611328125 -752.666992188 L 175.27734375 -748.0 L 164.944335938 -743.333007812 L 151.611328125 -735.833007812 L 135.27734375 -725.5 L 118.944335938 -715.166992188 L 111.111328125 -698.0 L 111.77734375 -674.0 L 111.77734375 -648.666992188 L 134.944335938 -624.833007812 L 181.27734375 -602.5 L 227.611328125 -580.166992188 L 296.444335938 -571.0 L 387.77734375 -575.0 L 1032.77734375 -594.0 L 1052.11132812 -594.0 L 1067.61132812 -592.5 L 1079.27734375 -589.5 L 1090.94433594 -586.5 L 1101.44433594 -582.666992188 L 1110.77734375 -578.0 L 1120.11132812 -573.333007812 L 1127.94433594 -568.666992188 L 1134.27734375 -564.0 L 1140.61132812 -559.333007812 L 1148.11132812 -552.666992188 L 1156.77734375 -544.0 L 1165.44433594 -535.333007812 L 1175.61132812 -524.0 L 1187.27734375 -510.0 L 1198.94433594 -496.0 L 1206.61132812 -485.666992188 L 1210.27734375 -479.0 L 1213.94433594 -472.333007812 L 1215.77734375 -465.833007812 L 1215.77734375 -459.5 L 1215.77734375 -453.166992188 L 1213.94433594 -449.0 L 1210.27734375 -447.0 L 1206.61132812 -445.0 L 1202.61132812 -444.0 L 1198.27734375 -444.0 L 1193.94433594 -444.0 L 1189.44433594 -445.0 L 1184.77734375 -447.0 L 1180.11132812 -449.0 L 1174.44433594 -451.166992188 L 1167.77734375 -453.5 L 1161.11132812 -455.833007812 L 1153.61132812 -458.5 L 1145.27734375 -461.5 L 1136.94433594 -464.5 L 1129.44433594 -466.666992188 L 1122.77734375 -468.0 L 1116.11132812 -469.333007812 L 1106.44433594 -470.0 L 1093.77734375 -470.0 L 746.77734375 -476.0 L 692.77734375 -476.0 L 636.111328125 -478.5 L 576.77734375 -483.5 L 517.444335938 -488.5 L 461.444335938 -495.0 L 408.77734375 -503.0 L 356.111328125 -511.0 L 309.77734375 -519.833007812 L 269.77734375 -529.5 L 229.77734375 -539.166992188 L 202.444335938 -547.0 L 187.77734375 -553.0 L 162.444335938 -565.0 L 140.111328125 -576.833007812 L 120.77734375 -588.5 L 101.444335938 -600.166992188 L 76.77734375 -626.666992188 Z" fill="black" fill-opacity="0.25" stroke="black" stroke-width="4.0"/>
  <rect x="-1.0" y="-393.0" width="1339.9999999999998" height="173.00000000000003" fill="none" stroke="red" stroke-width="10.0" /><rect x="19.0" y="-840.0" width="1197.0" height="395.99999999999994" fill="none" stroke="red" stroke-width="10.0" />
</svg>
