<svg xmlns="http://www.w3.org/2000/svg"
  viewBox="-50 -1213 1459 1040.579">
  <rect x="-50" y="-1213" width="1459" height="1040.579" fill="white"/>
  <path d="M 510.777 -783 L 533.444 -783 L 557.444 -782.833 L 582.777 -782.5 L 608.111 -782.167 L 630.777 -780.333 L 650.777 -777 L 664.777 -777 L 680.277 -749.5 L 697.277 -694.5 L 714.277 -639.5 L 734.444 -591 L 757.777 -549 L 765.777 -535 L 773.111 -527.333 L 779.777 -526 L 785.777 -524 L 790.277 -520.5 L 793.277 -515.5 L 796.277 -510.5 L 793.111 -506 L 783.777 -502 L 760.444 -498 L 736.944 -496.333 L 713.277 -497 L 689.611 -497.667 L 667.111 -499.333 L 645.777 -502 L 625.777 -510 L 609.277 -535.5 L 596.277 -578.5 L 583.277 -621.5 L 565.111 -672 L 541.777 -730 L 539.777 -733.333 L 535.611 -737.833 L 529.277 -743.5 L 522.944 -749.167 L 515.777 -753 L 507.777 -755 L 497.111 -757 L 490.944 -762.167 L 489.277 -770.5 L 487.611 -778.833 L 494.777 -783 Z M 2.777 -384 L 6.111 -389.333 L 9.944 -392.167 L 14.277 -392.5 L 18.611 -392.833 L 23.111 -391.667 L 27.777 -389 L 32.444 -386.333 L 38.444 -383.167 L 45.777 -379.5 L 53.111 -375.833 L 62.444 -372.833 L 73.777 -370.5 L 85.111 -368.167 L 101.111 -367 L 121.777 -367 L 1145.777 -367 L 1164.444 -367 L 1181.444 -365.5 L 1196.777 -362.5 L 1212.111 -359.5 L 1226.111 -354.667 L 1238.777 -348 L 1251.444 -341.333 L 1261.277 -335.333 L 1268.277 -330 L 1275.277 -324.667 L 1284.777 -315.5 L 1296.777 -302.5 L 1308.777 -289.5 L 1319.277 -277 L 1328.277 -265 L 1337.277 -253 L 1339.111 -241.333 L 1333.777 -230 L 1328.444 -222 L 1322.277 -220.333 L 1315.277 -225 L 1308.277 -229.667 L 1300.111 -233.667 L 1290.777 -237 L 1281.444 -240.333 L 1271.277 -242.667 L 1260.277 -244 L 1249.277 -245.333 L 1232.111 -246 L 1208.777 -246 L 199.777 -246 L 184.444 -246 L 170.444 -247 L 157.777 -249 L 145.111 -251 L 135.277 -253.167 L 128.277 -255.5 L 121.277 -257.833 L 113.777 -261 L 105.777 -265 L 97.777 -269 L 89.277 -273.833 L 80.277 -279.5 L 71.277 -285.167 L 61.777 -293.167 L 51.777 -303.5 L 41.777 -313.833 L 31.611 -325.833 L 21.277 -339.5 L 10.944 -353.167 L 4.444 -362.667 L 1.777 -368 L -0.889 -373.333 L -0.556 -378.667 Z M 1344.777 -1163 L 1355.444 -1161 L 1360.111 -1155.5 L 1358.777 -1146.5 L 1357.444 -1137.5 L 1350.777 -1132.667 L 1338.777 -1132 L 1324.777 -1127.333 L 1313.611 -1109.667 L 1305.277 -1079 L 1296.944 -1048.333 L 1287.777 -1016 L 1277.777 -982 L 1255.111 -902.667 L 1234.444 -838.333 L 1215.777 -789 L 1197.111 -739.667 L 1179.444 -705.167 L 1162.777 -685.5 L 1146.111 -665.833 L 1126.111 -650.667 L 1102.777 -640 L 1066.777 -624.667 L 1031.111 -613.333 L 995.777 -606 L 960.444 -598.667 L 930.111 -595 L 904.777 -595 L 917.444 -565 L 938.777 -544 L 968.777 -532 L 998.777 -520 L 1007.444 -507.333 L 994.777 -494 L 987.444 -486.667 L 964.277 -496.333 L 925.277 -523 L 886.277 -549.667 L 859.777 -576 L 845.777 -602 L 845.777 -618.667 L 852.444 -625.667 L 865.777 -623 L 879.111 -620.333 L 893.777 -618.333 L 909.777 -617 L 925.111 -616.333 L 940.944 -617.333 L 957.277 -620 L 973.611 -622.667 L 995.444 -631 L 1022.777 -645 L 1036.111 -651.667 L 1048.777 -666.833 L 1060.777 -690.5 L 1072.777 -714.167 L 1083.444 -740.333 L 1092.777 -769 L 1102.111 -797.667 L 1110.111 -826.167 L 1116.777 -854.5 L 1123.444 -882.833 L 1132.277 -923.667 L 1143.277 -977 L 1154.277 -1030.333 L 1163.777 -1066 L 1171.777 -1084 L 1179.777 -1102 L 1190.944 -1116.667 L 1205.277 -1128 L 1219.611 -1139.333 L 1233.277 -1146.667 L 1246.277 -1150 L 1259.277 -1153.333 L 1273.611 -1155.667 L 1289.277 -1157 L 1304.944 -1158.333 L 1323.444 -1160.333 Z" fill="black" fill-opacity="0.25" stroke="black" stroke-width="4"/>
  <rect x="488" y="-783" width="308" height="287" fill="none" stroke="red" stroke-width="10" /><rect x="-1" y="-393" width="1340" height="173" fill="none" stroke="red" stroke-width="10" /><rect x="845.8" y="-715.4" width="338.9" height="223.8" fill="none" stroke="red" stroke-width="10" /><rect x="1073.3" y="-939.2" width="192.3" height="223.8" fill="none" stroke="red" stroke-width="10" /><rect x="1135.5" y="-1163" width="224.6" height="223.8" fill="none" stroke="red" stroke-width="10" />
</svg>
