<svg xmlns="http://www.w3.org/2000/svg"
  viewBox="-50 -985.909 1436.754 813.488">
  <rect x="-50" y="-985.909" width="1436.754" height="813.488" fill="white"/>
  <path d="M 906.777 -530 L 915.777 -492 L 916.444 -489.333 L 920.111 -482.833 L 926.777 -472.5 L 933.444 -462.167 L 936.777 -455.667 L 936.777 -453 L 936.777 -450.333 L 931.277 -448 L 920.277 -446 L 909.277 -444 L 901.777 -443 L 897.777 -443 L 836.777 -443 L 828.777 -443 L 821.277 -448.667 L 814.277 -460 L 807.277 -471.333 L 802.777 -482 L 800.777 -492 L 792.777 -531 L 714.777 -531 L 643.111 -534 L 577.777 -540 L 512.444 -546 L 466.111 -551.333 L 438.777 -556 L 388.111 -564 L 346.277 -578 L 313.277 -598 L 280.277 -618 L 258.444 -640.667 L 247.777 -666 L 242.444 -678.667 L 232.777 -697.5 L 218.777 -722.5 L 204.777 -747.5 L 190.111 -772.667 L 174.777 -798 L 159.444 -823.333 L 144.944 -846 L 131.277 -866 L 117.611 -886 L 108.111 -897.333 L 102.777 -900 L 75.444 -909.333 L 69.444 -919.333 L 84.777 -930 L 118.777 -932.667 L 150.944 -934.5 L 181.277 -935.5 L 211.611 -936.5 L 242.777 -935.667 L 274.777 -933 L 306.777 -931 L 329.777 -912.667 L 343.777 -878 L 357.777 -843.333 L 371.444 -798 L 384.777 -742 L 398.777 -686 L 416.111 -647.833 L 436.777 -627.5 L 457.444 -607.167 L 492.777 -590.333 L 542.777 -577 L 570.777 -569 L 604.611 -564 L 644.277 -562 L 683.944 -560 L 732.444 -559.333 L 789.777 -560 L 776.777 -629 L 776.111 -632.333 L 772.777 -636.833 L 766.777 -642.5 L 760.777 -648.167 L 757.777 -652.333 L 757.777 -655 L 757.777 -659 L 763.277 -661.667 L 774.277 -663 L 785.277 -664.333 L 792.777 -665 L 796.777 -665 L 857.777 -665 L 865.111 -665 L 872.277 -659.833 L 879.277 -649.5 L 886.277 -639.167 L 891.111 -628 L 893.777 -616 L 903.777 -561 L 948.444 -561.667 L 978.944 -563.167 L 995.277 -565.5 L 1011.611 -567.833 L 1028.777 -570.333 L 1046.777 -573 L 1054.111 -572.333 L 1058.611 -569 L 1060.277 -563 L 1061.944 -557 L 1060.444 -551.667 L 1055.777 -547 L 1049.111 -541.667 L 1035.444 -537.5 L 1014.777 -534.5 L 994.111 -531.5 L 958.111 -530 Z M 2.777 -384 L 6.111 -389.333 L 9.944 -392.167 L 14.277 -392.5 L 18.611 -392.833 L 23.111 -391.667 L 27.777 -389 L 32.444 -386.333 L 38.444 -383.167 L 45.777 -379.5 L 53.111 -375.833 L 62.444 -372.833 L 73.777 -370.5 L 85.111 -368.167 L 101.111 -367 L 121.777 -367 L 1145.777 -367 L 1164.444 -367 L 1181.444 -365.5 L 1196.777 -362.5 L 1212.111 -359.5 L 1226.111 -354.667 L 1238.777 -348 L 1251.444 -341.333 L 1261.277 -335.333 L 1268.277 -330 L 1275.277 -324.667 L 1284.777 -315.5 L 1296.777 -302.5 L 1308.777 -289.5 L 1319.277 -277 L 1328.277 -265 L 1337.277 -253 L 1339.111 -241.333 L 1333.777 -230 L 1328.444 -222 L 1322.277 -220.333 L 1315.277 -225 L 1308.277 -229.667 L 1300.111 -233.667 L 1290.777 -237 L 1281.444 -240.333 L 1271.277 -242.667 L 1260.277 -244 L 1249.277 -245.333 L 1232.111 -246 L 1208.777 -246 L 199.777 -246 L 184.444 -246 L 170.444 -247 L 157.777 -249 L 145.111 -251 L 135.277 -253.167 L 128.277 -255.5 L 121.277 -257.833 L 113.777 -261 L 105.777 -265 L 97.777 -269 L 89.277 -273.833 L 80.277 -279.5 L 71.277 -285.167 L 61.777 -293.167 L 51.777 -303.5 L 41.777 -313.833 L 31.611 -325.833 L 21.277 -339.5 L 10.944 -353.167 L 4.444 -362.667 L 1.777 -368 L -0.889 -373.333 L -0.556 -378.667 Z" fill="black" fill-opacity="0.25" stroke="black" stroke-width="4"/>
  <rect x="69" y="-936" width="993" height="493" fill="none" stroke="red" stroke-width="10" /><rect x="-1" y="-393" width="1340" height="173" fill="none" stroke="red" stroke-width="10" />
</svg>
