<svg xmlns="http://www.w3.org/2000/svg"
  viewBox="-50.00005894218928 -786.6956666222262 1436.7544334076463 614.2747575067418">
  <rect x="-50.00005894218928" y="-786.6956666222262" width="1436.7544334076463" height="614.2747575067418" fill="white"/>
  <path d="M 979.77734375 -735.0 L 995.111328125 -735.0 L 1002.61132812 -730.333007812 L 1002.27734375 -721.0 L 1001.94433594 -711.666992188 L 996.444335938 -706.0 L 985.77734375 -704.0 L 968.444335938 -700.0 L 956.444335938 -692.333007812 L 949.77734375 -681.0 L 925.77734375 -623.666992188 L 907.444335938 -573.5 L 894.77734375 -530.5 L 882.111328125 -487.5 L 865.444335938 -461.666992188 L 844.77734375 -453.0 L 823.444335938 -450.333007812 L 800.944335938 -448.833007812 L 777.27734375 -448.5 L 753.611328125 -448.166992188 L 730.444335938 -449.666992188 L 707.77734375 -453.0 L 697.77734375 -457.0 L 694.27734375 -461.5 L 697.27734375 -466.5 L 700.27734375 -471.5 L 705.111328125 -475.0 L 711.77734375 -477.0 L 718.444335938 -478.333007812 L 725.444335938 -486.333007812 L 732.77734375 -501.0 L 756.111328125 -542.333007812 L 775.611328125 -589.166992188 L 791.27734375 -641.5 L 806.944335938 -693.833007812 L 823.444335938 -722.666992188 L 840.77734375 -728.0 L 863.444335938 -734.666992188 L 886.444335938 -737.5 L 909.77734375 -736.5 L 933.111328125 -735.5 L 956.444335938 -735.0 Z M 2.77734375 -384.0 L 6.111328125 -389.333007812 L 9.9443359375 -392.166992188 L 14.27734375 -392.5 L 18.611328125 -392.833007812 L 23.111328125 -391.666992188 L 27.77734375 -389.0 L 32.4443359375 -386.333007812 L 38.4443359375 -383.166992188 L 45.77734375 -379.5 L 53.111328125 -375.833007812 L 62.4443359375 -372.833007812 L 73.77734375 -370.5 L 85.111328125 -368.166992188 L 101.111328125 -367.0 L 121.77734375 -367.0 L 1145.77734375 -367.0 L 1164.44433594 -367.0 L 1181.44433594 -365.5 L 1196.77734375 -362.5 L 1212.11132812 -359.5 L 1226.11132812 -354.666992188 L 1238.77734375 -348.0 L 1251.44433594 -341.333007812 L 1261.27734375 -335.333007812 L 1268.27734375 -330.0 L 1275.27734375 -324.666992188 L 1284.77734375 -315.5 L 1296.77734375 -302.5 L 1308.77734375 -289.5 L 1319.27734375 -277.0 L 1328.27734375 -265.0 L 1337.27734375 -253.0 L 1339.11132812 -241.333007812 L 1333.77734375 -230.0 L 1328.44433594 -222.0 L 1322.27734375 -220.333007812 L 1315.27734375 -225.0 L 1308.27734375 -229.666992188 L 1300.11132812 -233.666992188 L 1290.77734375 -237.0 L 1281.44433594 -240.333007812 L 1271.27734375 -242.666992188 L 1260.27734375 -244.0 L 1249.27734375 -245.333007812 L 1232.11132812 -246.0 L 1208.77734375 -246.0 L 199.77734375 -246.0 L 184.444335938 -246.0 L 170.444335938 -247.0 L 157.77734375 -249.0 L 145.111328125 -251.0 L 135.27734375 -253.166992188 L 128.27734375 -255.5 L 121.27734375 -257.833007812 L 113.77734375 -261.0 L 105.77734375 -265.0 L 97.77734375 -269.0 L 89.27734375 -273.833007812 L 80.27734375 -279.5 L 71.27734375 -285.166992188 L 61.77734375 -293.166992188 L 51.77734375 -303.5 L 41.77734375 -313.833007812 L 31.611328125 -325.833007812 L 21.27734375 -339.5 L 10.9443359375 -353.166992188 L 4.4443359375 -362.666992188 L 1.77734375 -368.0 L -0.888671875 -373.333007812 L -0.5556640625 -378.666992188 Z" fill="black" fill-opacity="0.25" stroke="black" stroke-width="4.0"/>
  <rect x="694.0" y="-738.0" width="308.99999999999994" height="290.0" fill="none" stroke="red" stroke-width="10.0" /><rect x="-1.0" y="-393.0" width="1339.9999999999998" height="173.00000000000003" fill="none" stroke="red" stroke-width="10.0" />
</svg>
