<svg xmlns="http://www.w3.org/2000/svg"
  viewBox="-50 -442.555 1436.754 513.722">
  <rect x="-50" y="-442.555" width="1436.754" height="513.722" fill="white"/>
  <path d="M 780.777 -180 L 803.444 -180 L 827.444 -179.833 L 852.777 -179.5 L 878.111 -179.167 L 900.777 -177.667 L 920.777 -175 L 934.777 -175 L 948.111 -158 L 960.777 -124 L 973.444 -90 L 991.444 -56 L 1014.777 -22 L 1022.777 -10 L 1030.111 -3.333 L 1036.777 -2 L 1042.777 -0.667 L 1047.444 2 L 1050.777 6 L 1054.111 10 L 1050.777 13.667 L 1040.777 17 L 1017.444 20.333 L 993.944 21.667 L 970.277 21 L 946.611 20.333 L 924.111 19 L 902.777 17 L 882.777 10.333 L 868.444 -5.167 L 859.777 -29.5 L 851.111 -53.833 L 835.111 -89.667 L 811.777 -137 L 804.444 -148.333 L 793.111 -155 L 777.777 -157 L 767.111 -158.333 L 760.944 -162.5 L 759.277 -169.5 L 757.611 -176.5 L 764.777 -180 Z M 2.777 -384 L 6.111 -389.333 L 9.944 -392.167 L 14.277 -392.5 L 18.611 -392.833 L 23.111 -391.667 L 27.777 -389 L 32.444 -386.333 L 38.444 -383.167 L 45.777 -379.5 L 53.111 -375.833 L 62.444 -372.833 L 73.777 -370.5 L 85.111 -368.167 L 101.111 -367 L 121.777 -367 L 1145.777 -367 L 1164.444 -367 L 1181.444 -365.5 L 1196.777 -362.5 L 1212.111 -359.5 L 1226.111 -354.667 L 1238.777 -348 L 1251.444 -341.333 L 1261.277 -335.333 L 1268.277 -330 L 1275.277 -324.667 L 1284.777 -315.5 L 1296.777 -302.5 L 1308.777 -289.5 L 1319.277 -277 L 1328.277 -265 L 1337.277 -253 L 1339.111 -241.333 L 1333.777 -230 L 1328.444 -222 L 1322.277 -220.333 L 1315.277 -225 L 1308.277 -229.667 L 1300.111 -233.667 L 1290.777 -237 L 1281.444 -240.333 L 1271.277 -242.667 L 1260.277 -244 L 1249.277 -245.333 L 1232.111 -246 L 1208.777 -246 L 199.777 -246 L 184.444 -246 L 170.444 -247 L 157.777 -249 L 145.111 -251 L 135.277 -253.167 L 128.277 -255.5 L 121.277 -257.833 L 113.777 -261 L 105.777 -265 L 97.777 -269 L 89.277 -273.833 L 80.277 -279.5 L 71.277 -285.167 L 61.777 -293.167 L 51.777 -303.5 L 41.777 -313.833 L 31.611 -325.833 L 21.277 -339.5 L 10.944 -353.167 L 4.444 -362.667 L 1.777 -368 L -0.889 -373.333 L -0.556 -378.667 Z" fill="black" fill-opacity="0.25" stroke="black" stroke-width="4"/>
  <rect x="758" y="-180" width="296" height="202" fill="none" stroke="red" stroke-width="10" /><rect x="-1" y="-393" width="1340" height="173" fill="none" stroke="red" stroke-width="10" />
</svg>
