<svg xmlns="http://www.w3.org/2000/svg"
  viewBox="-50 -883.47 1885.066 711.05">
  <rect x="-50" y="-883.47" width="1885.066" height="711.05" fill="white"/>
  <path d="M 1153.018 -671 L 1173.018 -671 L 1194.018 -670.667 L 1216.018 -670 L 1238.018 -669.333 L 1257.685 -667.333 L 1275.018 -664 L 1287.685 -664 L 1302.018 -647 L 1318.018 -613 L 1334.018 -579 L 1351.685 -541.667 L 1371.018 -501 L 1376.352 -487 L 1382.685 -479 L 1390.018 -477 L 1394.685 -475 L 1398.518 -471.5 L 1401.518 -466.5 L 1404.518 -461.5 L 1401.685 -457 L 1393.018 -453 L 1373.018 -449 L 1352.518 -447.333 L 1331.518 -448 L 1310.518 -448.667 L 1290.685 -450.333 L 1272.018 -453 L 1254.685 -461 L 1240.018 -476 L 1228.018 -498 L 1216.018 -520 L 1199.685 -559.667 L 1179.018 -617 L 1177.018 -620.333 L 1173.352 -625.5 L 1168.018 -632.5 L 1162.685 -639.5 L 1156.352 -643.667 L 1149.018 -645 L 1139.685 -646.333 L 1134.518 -651 L 1133.518 -659 L 1132.518 -667 L 1139.018 -671 Z M 1423.018 -671 L 1443.018 -671 L 1464.018 -670.667 L 1486.018 -670 L 1508.018 -669.333 L 1527.685 -667.333 L 1545.018 -664 L 1557.685 -664 L 1572.018 -647 L 1588.018 -613 L 1604.018 -579 L 1621.685 -541.667 L 1641.018 -501 L 1647.018 -487 L 1653.352 -479 L 1660.018 -477 L 1665.352 -475 L 1669.352 -471.5 L 1672.018 -466.5 L 1674.685 -461.5 L 1672.018 -457 L 1664.018 -453 L 1643.352 -449 L 1622.685 -447.333 L 1602.018 -448 L 1581.352 -448.667 L 1561.352 -450.333 L 1542.018 -453 L 1524.685 -461 L 1510.018 -476 L 1498.018 -498 L 1486.018 -520 L 1470.018 -559.667 L 1450.018 -617 L 1448.018 -620.333 L 1444.185 -625.5 L 1438.518 -632.5 L 1432.852 -639.5 L 1426.685 -643.667 L 1420.018 -645 L 1410.685 -646.333 L 1405.352 -651 L 1404.018 -659 L 1402.685 -667 L 1409.018 -671 Z M 89.518 -384 L 93.185 -389.333 L 97.018 -392.167 L 101.018 -392.5 L 105.018 -392.833 L 109.518 -391.667 L 114.518 -389 L 119.518 -386.333 L 125.685 -383.167 L 133.018 -379.5 L 140.352 -375.833 L 149.685 -372.833 L 161.018 -370.5 L 172.352 -368.167 L 188.352 -367 L 209.018 -367 L 1594.018 -367 L 1612.685 -367 L 1629.685 -365.5 L 1645.018 -362.5 L 1660.352 -359.5 L 1674.352 -354.667 L 1687.018 -348 L 1699.685 -341.333 L 1709.518 -335.333 L 1716.518 -330 L 1723.518 -324.667 L 1733.185 -315.5 L 1745.518 -302.5 L 1757.852 -289.5 L 1768.352 -277 L 1777.018 -265 L 1785.685 -253 L 1787.352 -241.333 L 1782.018 -230 L 1776.685 -222 L 1770.518 -220.333 L 1763.518 -225 L 1756.518 -229.667 L 1748.352 -233.667 L 1739.018 -237 L 1729.685 -240.333 L 1719.518 -242.667 L 1708.518 -244 L 1697.518 -245.333 L 1680.352 -246 L 1657.018 -246 L 287.018 -246 L 271.685 -246 L 257.685 -247 L 245.018 -249 L 232.352 -251 L 222.518 -253.167 L 215.518 -255.5 L 208.518 -257.833 L 201.018 -261 L 193.018 -265 L 185.018 -269 L 176.518 -273.833 L 167.518 -279.5 L 158.518 -285.167 L 149.018 -293.167 L 139.018 -303.5 L 129.018 -313.833 L 118.852 -325.833 L 108.518 -339.5 L 98.185 -353.167 L 91.518 -362.667 L 88.518 -368 L 85.518 -373.333 L 85.852 -378.667 Z M 26.018 -662 L 0.685 -708 L -6.148 -747.333 L 5.518 -780 L 17.185 -812.667 L 38.018 -830.333 L 68.018 -833 L 87.352 -834.333 L 102.185 -832.833 L 112.518 -828.5 L 122.852 -824.167 L 132.018 -819.833 L 140.018 -815.5 L 148.018 -811.167 L 155.518 -806.5 L 162.518 -801.5 L 169.518 -796.5 L 176.018 -791.333 L 182.018 -786 L 188.018 -780.667 L 192.352 -775.833 L 195.018 -771.5 L 197.685 -767.167 L 198.852 -763.167 L 198.518 -759.5 L 198.185 -755.833 L 196.685 -753.167 L 194.018 -751.5 L 191.352 -749.833 L 184.185 -746.833 L 172.518 -742.5 L 160.852 -738.167 L 145.852 -730.667 L 127.518 -720 L 109.185 -709.333 L 100.352 -692 L 101.018 -668 L 101.018 -642.667 L 127.352 -618.833 L 180.018 -596.5 L 232.685 -574.167 L 311.018 -565 L 415.018 -569 L 861.018 -593 L 883.018 -593 L 900.518 -591.5 L 913.518 -588.5 L 926.518 -585.5 L 938.352 -581.667 L 949.018 -577 L 959.685 -572.333 L 968.685 -567.667 L 976.018 -563 L 983.352 -558.333 L 992.185 -551.667 L 1002.518 -543 L 1012.852 -534.333 L 1024.518 -523 L 1037.518 -509 L 1050.518 -495 L 1059.018 -484.667 L 1063.018 -478 L 1067.018 -471.333 L 1069.018 -464.833 L 1069.018 -458.5 L 1069.018 -452.167 L 1067.018 -448 L 1063.018 -446 L 1059.018 -444 L 1054.518 -443 L 1049.518 -443 L 1044.518 -443 L 1039.352 -444 L 1034.018 -446 L 1028.685 -448 L 1022.185 -450.167 L 1014.518 -452.5 L 1006.852 -454.833 L 998.352 -457.5 L 989.018 -460.5 L 979.685 -463.5 L 971.018 -465.667 L 963.018 -467 L 955.018 -468.333 L 944.352 -469.333 L 931.018 -470 L 872.018 -475 L 778.018 -471.667 L 697.185 -472.667 L 629.518 -478 L 561.852 -483.333 L 498.185 -490 L 438.518 -498 L 378.852 -506 L 326.185 -514.667 L 280.518 -524 L 234.852 -533.333 L 203.685 -541 L 187.018 -547 L 158.352 -559 L 132.852 -570.833 L 110.518 -582.5 L 88.185 -594.167 L 60.018 -620.667 Z" fill="black" fill-opacity="0.25" stroke="black" stroke-width="4"/>
  <rect x="1133" y="-671" width="272" height="224" fill="none" stroke="red" stroke-width="10" /><rect x="1403" y="-671" width="272" height="224" fill="none" stroke="red" stroke-width="10" /><rect x="86" y="-393" width="1701" height="173" fill="none" stroke="red" stroke-width="10" /><rect x="-6" y="-834" width="1075" height="391" fill="none" stroke="red" stroke-width="10" />
</svg>
