<svg xmlns="http://www.w3.org/2000/svg"
  viewBox="-50.00005894218928 -856.0 1568.7544334076463 683.5790908845156">
  <rect x="-50.00005894218928" y="-856.0" width="1568.7544334076463" height="683.5790908845156" fill="white"/>
  <path d="M 330.77734375 -458.0 L 323.444335938 -464.0 L 323.111328125 -469.5 L 329.77734375 -474.5 L 336.444335938 -479.5 L 344.77734375 -482.0 L 354.77734375 -482.0 L 365.444335938 -482.0 L 380.444335938 -491.833007812 L 399.77734375 -511.5 L 419.111328125 -531.166992188 L 432.111328125 -555.333007812 L 438.77734375 -584.0 L 448.77734375 -632.666992188 L 423.111328125 -672.333007812 L 361.77734375 -703.0 L 338.444335938 -714.333007812 L 309.111328125 -724.5 L 273.77734375 -733.5 L 238.444335938 -742.5 L 203.444335938 -750.333007812 L 168.77734375 -757.0 L 134.111328125 -763.666992188 L 103.611328125 -769.166992188 L 77.27734375 -773.5 L 50.9443359375 -778.5 L 35.4443359375 -781.666992188 L 30.77734375 -783.0 L 21.4443359375 -786.333007812 L 17.9443359375 -791.0 L 20.27734375 -797.0 L 22.611328125 -803.0 L 27.4443359375 -806.0 L 34.77734375 -806.0 L 38.77734375 -806.0 L 53.77734375 -804.5 L 79.77734375 -801.5 L 105.77734375 -798.5 L 136.77734375 -794.0 L 172.77734375 -788.0 L 208.77734375 -782.0 L 246.944335938 -774.166992188 L 287.27734375 -764.5 L 327.611328125 -754.833007812 L 364.444335938 -743.666992188 L 397.77734375 -731.0 L 437.111328125 -715.666992188 L 468.444335938 -700.333007812 L 491.77734375 -685.0 L 515.111328125 -669.666992188 L 536.444335938 -649.0 L 555.77734375 -623.0 L 575.111328125 -597.0 L 583.27734375 -571.0 L 580.27734375 -545.0 L 577.27734375 -519.0 L 566.111328125 -498.666992188 L 546.77734375 -484.0 L 528.77734375 -470.666992188 L 508.27734375 -461.666992188 L 485.27734375 -457.0 L 462.27734375 -452.333007812 L 440.111328125 -450.0 L 418.77734375 -450.0 L 386.77734375 -450.0 L 386.77734375 -450.0 L 374.77734375 -450.0 L 366.77734375 -450.0 L 352.111328125 -452.666992188 Z M 1071.77734375 -671.0 L 1091.77734375 -671.0 L 1112.77734375 -670.666992188 L 1134.77734375 -670.0 L 1156.77734375 -669.333007812 L 1176.44433594 -667.333007812 L 1193.77734375 -664.0 L 1206.44433594 -664.0 L 1220.77734375 -647.0 L 1236.77734375 -613.0 L 1252.77734375 -579.0 L 1270.44433594 -541.666992188 L 1289.77734375 -501.0 L 1295.11132812 -487.0 L 1301.44433594 -479.0 L 1308.77734375 -477.0 L 1313.44433594 -475.0 L 1317.27734375 -471.5 L 1320.27734375 -466.5 L 1323.27734375 -461.5 L 1320.44433594 -457.0 L 1311.77734375 -453.0 L 1291.77734375 -449.0 L 1271.27734375 -447.333007812 L 1250.27734375 -448.0 L 1229.27734375 -448.666992188 L 1209.77734375 -450.333007812 L 1191.77734375 -453.0 L 1174.44433594 -461.0 L 1159.61132812 -476.0 L 1147.27734375 -498.0 L 1134.94433594 -520.0 L 1118.44433594 -559.666992188 L 1097.77734375 -617.0 L 1095.77734375 -620.333007812 L 1092.11132812 -625.5 L 1086.77734375 -632.5 L 1081.44433594 -639.5 L 1075.44433594 -643.666992188 L 1068.77734375 -645.0 L 1059.44433594 -646.333007812 L 1054.11132812 -651.0 L 1052.77734375 -659.0 L 1051.44433594 -667.0 L 1057.77734375 -671.0 Z M 801.77734375 -671.0 L 821.77734375 -671.0 L 842.77734375 -670.666992188 L 864.77734375 -670.0 L 886.77734375 -669.333007812 L 906.444335938 -667.333007812 L 923.77734375 -664.0 L 936.444335938 -664.0 L 950.77734375 -647.0 L 966.77734375 -613.0 L 982.77734375 -579.0 L 1000.11132812 -541.666992188 L 1018.77734375 -501.0 L 1024.77734375 -487.0 L 1031.11132812 -479.0 L 1037.77734375 -477.0 L 1043.11132812 -475.0 L 1047.27734375 -471.5 L 1050.27734375 -466.5 L 1053.27734375 -461.5 L 1050.44433594 -457.0 L 1041.77734375 -453.0 L 1021.11132812 -449.0 L 1000.44433594 -447.333007812 L 979.77734375 -448.0 L 959.111328125 -448.666992188 L 939.444335938 -450.333007812 L 920.77734375 -453.0 L 903.444335938 -461.0 L 888.77734375 -476.0 L 876.77734375 -498.0 L 864.77734375 -520.0 L 848.444335938 -559.666992188 L 827.77734375 -617.0 L 825.77734375 -620.333007812 L 822.111328125 -625.5 L 816.77734375 -632.5 L 811.444335938 -639.5 L 805.111328125 -643.666992188 L 797.77734375 -645.0 L 788.444335938 -646.333007812 L 783.27734375 -651.0 L 782.27734375 -659.0 L 781.27734375 -667.0 L 787.77734375 -671.0 Z M 2.77734375 -384.0 L 6.111328125 -389.333007812 L 9.9443359375 -392.166992188 L 14.27734375 -392.5 L 18.611328125 -392.833007812 L 23.111328125 -391.666992188 L 27.77734375 -389.0 L 32.4443359375 -386.333007812 L 38.4443359375 -383.166992188 L 45.77734375 -379.5 L 53.111328125 -375.833007812 L 62.4443359375 -372.833007812 L 73.77734375 -370.5 L 85.111328125 -368.166992188 L 101.111328125 -367.0 L 121.77734375 -367.0 L 1276.77734375 -367.0 L 1295.44433594 -367.0 L 1312.61132812 -365.5 L 1328.27734375 -362.5 L 1343.94433594 -359.5 L 1358.11132812 -354.666992188 L 1370.77734375 -348.0 L 1383.44433594 -341.333007812 L 1393.27734375 -335.333007812 L 1400.27734375 -330.0 L 1407.27734375 -324.666992188 L 1416.77734375 -315.5 L 1428.77734375 -302.5 L 1440.77734375 -289.5 L 1451.27734375 -277.0 L 1460.27734375 -265.0 L 1469.27734375 -253.0 L 1471.11132812 -241.333007812 L 1465.77734375 -230.0 L 1460.44433594 -222.0 L 1454.27734375 -220.333007812 L 1447.27734375 -225.0 L 1440.27734375 -229.666992188 L 1432.11132812 -233.666992188 L 1422.77734375 -237.0 L 1413.44433594 -240.333007812 L 1403.27734375 -242.666992188 L 1392.27734375 -244.0 L 1381.27734375 -245.333007812 L 1364.11132812 -246.0 L 1340.77734375 -246.0 L 199.77734375 -246.0 L 184.444335938 -246.0 L 170.444335938 -247.0 L 157.77734375 -249.0 L 145.111328125 -251.0 L 135.27734375 -253.166992188 L 128.27734375 -255.5 L 121.27734375 -257.833007812 L 113.77734375 -261.0 L 105.77734375 -265.0 L 97.77734375 -269.0 L 89.4443359375 -273.833007812 L 80.77734375 -279.5 L 72.111328125 -285.166992188 L 62.611328125 -293.166992188 L 52.27734375 -303.5 L 41.9443359375 -313.833007812 L 31.611328125 -325.833007812 L 21.27734375 -339.5 L 10.9443359375 -353.166992188 L 4.4443359375 -362.666992188 L 1.77734375 -368.0 L -0.888671875 -373.333007812 L -0.5556640625 -378.666992188 Z" fill="black" fill-opacity="0.25" stroke="black" stroke-width="4.0"/>
  <rect x="18.0" y="-806.0" width="565.0" height="356.00000000000006" fill="none" stroke="red" stroke-width="10.0" /><rect x="1051.0" y="-671.0" width="272.0" height="224.00000000000003" fill="none" stroke="red" stroke-width="10.0" /><rect x="781.0" y="-671.0" width="271.9999999999999" height="224.00000000000003" fill="none" stroke="red" stroke-width="10.0" /><rect x="-1.0" y="-393.0" width="1472.0" height="173.00000000000003" fill="none" stroke="red" stroke-width="10.0" />
</svg>
