<svg xmlns="http://www.w3.org/2000/svg"
  viewBox="-50 -901.522 1992.226 729.101">
  <rect x="-50" y="-901.522" width="1992.226" height="729.101" fill="white"/>
  <path d="M 1242.25 -671 L 1262.25 -671 L 1283.25 -670.667 L 1305.25 -670 L 1327.25 -669.333 L 1346.917 -667.333 L 1364.25 -664 L 1376.917 -664 L 1391.25 -647 L 1407.25 -613 L 1423.25 -579 L 1440.583 -541.667 L 1459.25 -501 L 1465.25 -487 L 1471.583 -479 L 1478.25 -477 L 1483.583 -475 L 1487.75 -471.5 L 1490.75 -466.5 L 1493.75 -461.5 L 1490.917 -457 L 1482.25 -453 L 1461.583 -449 L 1440.917 -447.333 L 1420.25 -448 L 1399.583 -448.667 L 1379.917 -450.333 L 1361.25 -453 L 1343.25 -461 L 1328.417 -476 L 1316.75 -498 L 1305.083 -520 L 1288.917 -559.667 L 1268.25 -617 L 1266.25 -620.333 L 1262.583 -625.5 L 1257.25 -632.5 L 1251.917 -639.5 L 1245.583 -643.667 L 1238.25 -645 L 1228.917 -646.333 L 1223.75 -651 L 1222.75 -659 L 1221.75 -667 L 1228.25 -671 Z M 1512.25 -671 L 1532.25 -671 L 1553.25 -670.667 L 1575.25 -670 L 1597.25 -669.333 L 1616.917 -667.333 L 1634.25 -664 L 1646.917 -664 L 1661.25 -647 L 1677.25 -613 L 1693.25 -579 L 1710.917 -541.667 L 1730.25 -501 L 1736.25 -487 L 1742.583 -479 L 1749.25 -477 L 1753.917 -475 L 1757.75 -471.5 L 1760.75 -466.5 L 1763.75 -461.5 L 1760.917 -457 L 1752.25 -453 L 1732.25 -449 L 1711.75 -447.333 L 1690.75 -448 L 1669.75 -448.667 L 1649.917 -450.333 L 1631.25 -453 L 1613.917 -461 L 1599.25 -476 L 1587.25 -498 L 1575.25 -520 L 1558.917 -559.667 L 1538.25 -617 L 1536.917 -620.333 L 1533.417 -625.5 L 1527.75 -632.5 L 1522.083 -639.5 L 1515.917 -643.667 L 1509.25 -645 L 1499.917 -646.333 L 1494.583 -651 L 1493.25 -659 L 1491.917 -667 L 1498.25 -671 Z M 89.25 -384 L 92.583 -389.333 L 96.417 -392.167 L 100.75 -392.5 L 105.083 -392.833 L 109.583 -391.667 L 114.25 -389 L 118.917 -386.333 L 124.917 -383.167 L 132.25 -379.5 L 139.583 -375.833 L 148.917 -372.833 L 160.25 -370.5 L 171.583 -368.167 L 187.583 -367 L 208.25 -367 L 1700.25 -367 L 1718.917 -367 L 1736.083 -365.5 L 1751.75 -362.5 L 1767.417 -359.5 L 1781.583 -354.667 L 1794.25 -348 L 1806.917 -341.333 L 1816.75 -335.333 L 1823.75 -330 L 1830.75 -324.667 L 1840.25 -315.5 L 1852.25 -302.5 L 1864.25 -289.5 L 1874.75 -277 L 1883.75 -265 L 1892.75 -253 L 1894.583 -241.333 L 1889.25 -230 L 1883.917 -222 L 1877.75 -220.333 L 1870.75 -225 L 1863.75 -229.667 L 1855.583 -233.667 L 1846.25 -237 L 1836.917 -240.333 L 1826.583 -242.667 L 1815.25 -244 L 1803.917 -245.333 L 1786.917 -246 L 1764.25 -246 L 286.25 -246 L 270.917 -246 L 256.917 -247 L 244.25 -249 L 231.583 -251 L 221.75 -253.167 L 214.75 -255.5 L 207.75 -257.833 L 200.25 -261 L 192.25 -265 L 184.25 -269 L 175.75 -273.833 L 166.75 -279.5 L 157.75 -285.167 L 148.25 -293.167 L 138.25 -303.5 L 128.25 -313.833 L 118.083 -325.833 L 107.75 -339.5 L 97.417 -353.167 L 90.917 -362.667 L 88.25 -368 L 85.583 -373.333 L 85.917 -378.667 Z M 296.25 -487 L 270.917 -477.667 L 227.917 -478.333 L 167.25 -489 L 131.917 -497.667 L 100.75 -509.333 L 73.75 -524 L 46.75 -538.667 L 25.917 -564.333 L 11.25 -601 L 1.25 -636.333 L -2.083 -664.5 L 1.25 -685.5 L 4.583 -706.5 L 16.25 -731 L 36.25 -759 L 55.583 -782.333 L 78.083 -799.833 L 103.75 -811.5 L 129.417 -823.167 L 160.917 -833 L 198.25 -841 L 235.583 -848.333 L 265.917 -851.833 L 289.25 -851.5 L 312.583 -851.167 L 337.917 -850.667 L 365.25 -850 L 391.917 -848.667 L 416.75 -846.5 L 439.75 -843.5 L 462.75 -840.5 L 490.583 -834 L 523.25 -824 L 577.25 -809.333 L 630.583 -788.667 L 683.25 -762 L 712.583 -747.333 L 743.75 -731.667 L 776.75 -715 L 809.75 -698.333 L 846.583 -678.333 L 887.25 -655 L 905.917 -643.667 L 926.417 -631.5 L 948.75 -618.5 L 971.083 -605.5 L 994.917 -592.333 L 1020.25 -579 L 1039.583 -567 L 1058.75 -555 L 1077.75 -543 L 1096.75 -531 L 1104.75 -518.833 L 1101.75 -506.5 L 1098.75 -494.167 L 1091.583 -488.333 L 1080.25 -489 L 1068.917 -489.667 L 1033.083 -489.333 L 972.75 -488 L 912.417 -486.667 L 859.917 -486.333 L 815.25 -487 L 797.25 -500.333 L 797.417 -509.833 L 815.75 -515.5 L 834.083 -521.167 L 847.917 -528.333 L 857.25 -537 L 873.917 -554.333 L 881.25 -568.167 L 879.25 -578.5 L 877.25 -588.833 L 874.417 -596.833 L 870.75 -602.5 L 867.083 -608.167 L 861.583 -614.167 L 854.25 -620.5 L 846.917 -626.833 L 828.75 -640 L 799.75 -660 L 770.75 -680 L 734.917 -701 L 692.25 -723 L 653.583 -739.667 L 623.25 -753.333 L 601.25 -764 L 579.25 -774.667 L 543.583 -786.667 L 494.25 -800 L 457.583 -807.333 L 420.25 -811.833 L 382.25 -813.5 L 344.25 -815.167 L 305.583 -809.667 L 266.25 -797 L 238.917 -785 L 219.75 -774.667 L 208.75 -766 L 197.75 -757.333 L 185.25 -742.667 L 171.25 -722 L 159.25 -702 L 152.417 -685 L 150.75 -671 L 149.083 -657 L 148.917 -641 L 150.25 -623 L 150.917 -604.333 L 153.083 -590.833 L 156.75 -582.5 L 160.417 -574.167 L 165.083 -565.667 L 170.75 -557 L 176.417 -548.333 L 183.75 -540.5 L 192.75 -533.5 L 201.75 -526.5 L 215.583 -521.5 L 234.25 -518.5 L 252.917 -515.5 L 271.25 -513.333 L 289.25 -512 L 297.25 -510.667 L 302.417 -507.333 L 304.75 -502 L 307.083 -496.667 L 304.25 -491.667 Z M 502.25 -426 L 495.583 -431.333 L 495.083 -436.333 L 500.75 -441 L 506.417 -445.667 L 513.917 -448 L 523.25 -448 L 533.25 -448 L 546.917 -456.667 L 564.25 -474 L 581.583 -491.333 L 593.25 -513.333 L 599.25 -540 L 608.583 -584 L 585.583 -620 L 530.25 -648 L 508.917 -658 L 482.25 -667 L 450.25 -675 L 418.25 -683 L 386.583 -690.167 L 355.25 -696.5 L 323.917 -702.833 L 296.25 -707.833 L 272.25 -711.5 L 248.25 -715.167 L 234.25 -718 L 230.25 -720 L 221.583 -723.333 L 218.25 -727.667 L 220.25 -733 L 222.25 -738.333 L 226.583 -741 L 233.25 -741 L 236.583 -741 L 250.083 -739.667 L 273.75 -737 L 297.417 -734.333 L 325.75 -730.167 L 358.75 -724.5 L 391.75 -718.833 L 426.417 -711.833 L 462.75 -703.5 L 499.083 -695.167 L 532.25 -685 L 562.25 -673 L 597.583 -659 L 625.917 -645 L 647.25 -631 L 668.583 -617 L 687.917 -598.333 L 705.25 -575 L 722.583 -551 L 729.917 -527.333 L 727.25 -504 L 724.583 -480.667 L 714.583 -462.333 L 697.25 -449 L 681.25 -437 L 662.583 -429 L 641.25 -425 L 619.917 -421 L 599.917 -419 L 581.25 -419 L 562.583 -419 L 549.417 -419.167 L 541.75 -419.5 L 534.083 -419.833 L 520.917 -422 Z" fill="black" fill-opacity="0.25" stroke="black" stroke-width="4"/>
  <rect x="1222" y="-671" width="272" height="224" fill="none" stroke="red" stroke-width="10" /><rect x="1492" y="-671" width="272" height="224" fill="none" stroke="red" stroke-width="10" /><rect x="86" y="-393" width="1809" height="173" fill="none" stroke="red" stroke-width="10" /><rect x="-2" y="-852" width="1107" height="374" fill="none" stroke="red" stroke-width="10" /><rect x="218" y="-741" width="512" height="322" fill="none" stroke="red" stroke-width="10" />
</svg>
