<svg xmlns="http://www.w3.org/2000/svg"
  viewBox="-50.000243786175126 -841.5237694651898 2191.690813824313 669.1028603497055">
  <rect x="-50.000243786175126" y="-841.5237694651898" width="2191.690813824313" height="669.1028603497055" fill="white"/>
  <path d="M 252.642578125 -462.0 L 245.9765625 -466.666992188 L 245.4765625 -471.333007812 L 251.142578125 -476.0 L 256.809570312 -480.666992188 L 263.9765625 -483.0 L 272.642578125 -483.0 L 281.9765625 -483.0 L 294.9765625 -491.333007812 L 311.642578125 -508.0 L 328.309570312 -524.666992188 L 339.309570312 -545.333007812 L 344.642578125 -570.0 L 353.309570312 -611.333007812 L 331.642578125 -645.333007812 L 279.642578125 -672.0 L 240.309570312 -691.333007812 L 187.142578125 -706.333007812 L 120.142578125 -717.0 L 53.142578125 -727.666992188 L 15.9765625 -734.333007812 L 8.642578125 -737.0 L 1.3095703125 -739.666992188 L -1.357421875 -743.833007812 L 0.642578125 -749.5 L 2.642578125 -755.166992188 L 6.3095703125 -758.0 L 11.642578125 -758.0 L 17.642578125 -758.0 L 54.8095703125 -753.0 L 123.142578125 -743.0 L 191.4765625 -733.0 L 253.642578125 -717.333007812 L 309.642578125 -696.0 L 342.9765625 -682.666992188 L 369.642578125 -669.5 L 389.642578125 -656.5 L 409.642578125 -643.5 L 428.309570312 -625.666992188 L 445.642578125 -603.0 L 462.309570312 -580.333007812 L 469.142578125 -558.0 L 466.142578125 -536.0 L 463.142578125 -514.0 L 453.309570312 -497.0 L 436.642578125 -485.0 L 421.309570312 -473.666992188 L 403.809570312 -466.0 L 384.142578125 -462.0 L 364.4765625 -458.0 L 345.642578125 -456.0 L 327.642578125 -456.0 L 300.642578125 -456.0 L 300.642578125 -456.0 L 290.142578125 -456.0 L 283.142578125 -456.0 L 270.642578125 -458.0 Z M 1523.64257812 -671.0 L 1543.64257812 -671.0 L 1564.64257812 -670.666992188 L 1586.64257812 -670.0 L 1608.64257812 -669.333007812 L 1628.30957031 -667.333007812 L 1645.64257812 -664.0 L 1658.30957031 -664.0 L 1672.80957031 -647.0 L 1689.14257812 -613.0 L 1705.4765625 -579.0 L 1722.9765625 -541.666992188 L 1741.64257812 -501.0 L 1747.64257812 -487.0 L 1753.9765625 -479.0 L 1760.64257812 -477.0 L 1765.30957031 -475.0 L 1769.30957031 -471.5 L 1772.64257812 -466.5 L 1775.9765625 -461.5 L 1772.9765625 -457.0 L 1763.64257812 -453.0 L 1743.64257812 -449.0 L 1723.30957031 -447.333007812 L 1702.64257812 -448.0 L 1681.9765625 -448.666992188 L 1662.30957031 -450.333007812 L 1643.64257812 -453.0 L 1626.30957031 -461.0 L 1611.4765625 -476.0 L 1599.14257812 -498.0 L 1586.80957031 -520.0 L 1570.64257812 -559.666992188 L 1550.64257812 -617.0 L 1549.30957031 -620.333007812 L 1545.64257812 -625.5 L 1539.64257812 -632.5 L 1533.64257812 -639.5 L 1527.30957031 -643.666992188 L 1520.64257812 -645.0 L 1511.30957031 -646.333007812 L 1505.9765625 -651.0 L 1504.64257812 -659.0 L 1503.30957031 -667.0 L 1509.64257812 -671.0 Z M 1794.64257812 -671.0 L 1814.64257812 -671.0 L 1835.4765625 -670.666992188 L 1857.14257812 -670.0 L 1878.80957031 -669.333007812 L 1898.64257812 -667.333007812 L 1916.64257812 -664.0 L 1929.30957031 -664.0 L 1943.64257812 -647.0 L 1959.64257812 -613.0 L 1975.64257812 -579.0 L 1992.9765625 -541.666992188 L 2011.64257812 -501.0 L 2017.64257812 -487.0 L 2023.9765625 -479.0 L 2030.64257812 -477.0 L 2035.9765625 -475.0 L 2040.14257812 -471.5 L 2043.14257812 -466.5 L 2046.14257812 -461.5 L 2043.30957031 -457.0 L 2034.64257812 -453.0 L 2013.9765625 -449.0 L 1993.30957031 -447.333007812 L 1972.64257812 -448.0 L 1951.9765625 -448.666992188 L 1932.30957031 -450.333007812 L 1913.64257812 -453.0 L 1895.64257812 -461.0 L 1880.80957031 -476.0 L 1869.14257812 -498.0 L 1857.4765625 -520.0 L 1841.30957031 -559.666992188 L 1820.64257812 -617.0 L 1818.64257812 -620.333007812 L 1814.80957031 -625.5 L 1809.14257812 -632.5 L 1803.4765625 -639.5 L 1797.30957031 -643.666992188 L 1790.64257812 -645.0 L 1781.30957031 -646.333007812 L 1776.14257812 -651.0 L 1775.14257812 -659.0 L 1774.14257812 -667.0 L 1780.64257812 -671.0 Z M 274.142578125 -384.0 L 277.809570312 -389.333007812 L 281.642578125 -392.166992188 L 285.642578125 -392.5 L 289.642578125 -392.833007812 L 294.142578125 -391.666992188 L 299.142578125 -389.0 L 304.142578125 -386.333007812 L 310.142578125 -383.166992188 L 317.142578125 -379.5 L 324.142578125 -375.833007812 L 333.4765625 -372.833007812 L 345.142578125 -370.5 L 356.809570312 -368.166992188 L 372.642578125 -367.0 L 392.642578125 -367.0 L 1900.64257812 -367.0 L 1919.30957031 -367.0 L 1936.30957031 -365.5 L 1951.64257812 -362.5 L 1966.9765625 -359.5 L 1980.9765625 -354.666992188 L 1993.64257812 -348.0 L 2006.30957031 -341.333007812 L 2016.14257812 -335.333007812 L 2023.14257812 -330.0 L 2030.14257812 -324.666992188 L 2039.80957031 -315.5 L 2052.14257812 -302.5 L 2064.4765625 -289.5 L 2074.9765625 -277.0 L 2083.64257812 -265.0 L 2092.30957031 -253.0 L 2093.9765625 -241.333007812 L 2088.64257812 -230.0 L 2083.30957031 -222.0 L 2077.14257812 -220.333007812 L 2070.14257812 -225.0 L 2063.14257812 -229.666992188 L 2054.9765625 -233.666992188 L 2045.64257812 -237.0 L 2036.30957031 -240.333007812 L 2026.14257812 -242.666992188 L 2015.14257812 -244.0 L 2004.14257812 -245.333007812 L 1986.9765625 -246.0 L 1963.64257812 -246.0 L 470.642578125 -246.0 L 455.309570312 -246.0 L 441.4765625 -247.0 L 429.142578125 -249.0 L 416.809570312 -251.0 L 406.9765625 -253.166992188 L 399.642578125 -255.5 L 392.309570312 -257.833007812 L 384.809570312 -261.0 L 377.142578125 -265.0 L 369.4765625 -269.0 L 361.142578125 -273.833007812 L 352.142578125 -279.5 L 343.142578125 -285.166992188 L 333.642578125 -293.166992188 L 323.642578125 -303.5 L 313.642578125 -313.833007812 L 303.4765625 -325.833007812 L 293.142578125 -339.5 L 282.809570312 -353.166992188 L 276.142578125 -362.666992188 L 273.142578125 -368.0 L 270.142578125 -373.333007812 L 270.4765625 -378.666992188 Z M 740.642578125 -465.0 L 717.9765625 -456.333007812 L 679.642578125 -457.0 L 625.642578125 -467.0 L 594.309570312 -475.0 L 566.4765625 -485.5 L 542.142578125 -498.5 L 517.809570312 -511.5 L 499.309570312 -534.333007812 L 486.642578125 -567.0 L 477.9765625 -598.333007812 L 474.9765625 -623.5 L 477.642578125 -642.5 L 480.309570312 -661.5 L 490.642578125 -683.333007812 L 508.642578125 -708.0 L 525.9765625 -728.666992188 L 546.142578125 -744.333007812 L 569.142578125 -755.0 L 592.142578125 -765.666992188 L 620.309570312 -774.666992188 L 653.642578125 -782.0 L 686.9765625 -788.666992188 L 713.9765625 -791.833007812 L 734.642578125 -791.5 L 755.309570312 -791.166992188 L 777.642578125 -790.333007812 L 801.642578125 -789.0 L 825.642578125 -788.333007812 L 847.9765625 -786.666992188 L 868.642578125 -784.0 L 889.309570312 -781.333007812 L 914.309570312 -775.333007812 L 943.642578125 -766.0 L 992.309570312 -752.666992188 L 1039.9765625 -734.333007812 L 1086.64257812 -711.0 L 1113.30957031 -697.666992188 L 1141.30957031 -683.5 L 1170.64257812 -668.5 L 1199.9765625 -653.5 L 1232.9765625 -636.0 L 1269.64257812 -616.0 L 1286.30957031 -606.0 L 1304.4765625 -595.166992188 L 1324.14257812 -583.5 L 1343.80957031 -571.833007812 L 1364.9765625 -560.0 L 1387.64257812 -548.0 L 1404.9765625 -537.333007812 L 1422.14257812 -526.5 L 1439.14257812 -515.5 L 1456.14257812 -504.5 L 1463.30957031 -493.5 L 1460.64257812 -482.5 L 1457.9765625 -471.5 L 1451.4765625 -466.333007812 L 1441.14257812 -467.0 L 1430.80957031 -467.666992188 L 1398.80957031 -467.333007812 L 1345.14257812 -466.0 L 1291.4765625 -464.666992188 L 1244.64257812 -464.333007812 L 1204.64257812 -465.0 L 1188.64257812 -477.0 L 1188.80957031 -485.5 L 1205.14257812 -490.5 L 1221.4765625 -495.5 L 1233.64257812 -502.0 L 1241.64257812 -510.0 L 1256.30957031 -525.333007812 L 1262.80957031 -537.5 L 1261.14257812 -546.5 L 1259.4765625 -555.5 L 1257.14257812 -562.5 L 1254.14257812 -567.5 L 1251.14257812 -572.5 L 1246.30957031 -578.0 L 1239.64257812 -584.0 L 1232.9765625 -590.0 L 1216.80957031 -601.833007812 L 1191.14257812 -619.5 L 1165.4765625 -637.166992188 L 1133.30957031 -656.0 L 1094.64257812 -676.0 L 1060.64257812 -691.333007812 L 1033.64257812 -703.666992188 L 1013.64257812 -713.0 L 993.642578125 -722.333007812 L 961.642578125 -733.0 L 917.642578125 -745.0 L 884.9765625 -751.666992188 L 851.642578125 -755.666992188 L 817.642578125 -757.0 L 783.642578125 -758.333007812 L 749.309570312 -753.333007812 L 714.642578125 -742.0 L 689.9765625 -731.333007812 L 672.642578125 -722.166992188 L 662.642578125 -714.5 L 652.642578125 -706.833007812 L 641.642578125 -693.666992188 L 629.642578125 -675.0 L 618.9765625 -657.0 L 612.809570312 -641.833007812 L 611.142578125 -629.5 L 609.4765625 -617.166992188 L 608.9765625 -603.0 L 609.642578125 -587.0 L 610.309570312 -570.333007812 L 612.309570312 -558.166992188 L 615.642578125 -550.5 L 618.9765625 -542.833007812 L 623.309570312 -535.166992188 L 628.642578125 -527.5 L 633.9765625 -519.833007812 L 640.642578125 -513.0 L 648.642578125 -507.0 L 656.642578125 -501.0 L 668.9765625 -496.666992188 L 685.642578125 -494.0 L 702.309570312 -491.333007812 L 718.642578125 -489.0 L 734.642578125 -487.0 L 741.309570312 -485.666992188 L 745.642578125 -482.666992188 L 747.642578125 -478.0 L 749.642578125 -473.333007812 L 747.309570312 -469.0 Z" fill="black" fill-opacity="0.25" stroke="black" stroke-width="4.0"/>
  <rect x="-1.0" y="-758.0" width="470.0" height="302.0" fill="none" stroke="red" stroke-width="10.0" /><rect x="1503.0" y="-671.0" width="273.0000000000001" height="224.00000000000003" fill="none" stroke="red" stroke-width="10.0" /><rect x="1774.0" y="-671.0" width="271.9999999999998" height="224.00000000000003" fill="none" stroke="red" stroke-width="10.0" /><rect x="270.0" y="-393.0" width="1823.9999999999998" height="173.00000000000003" fill="none" stroke="red" stroke-width="10.0" /><rect x="475.0" y="-792.0" width="988.0000000000001" height="336.0" fill="none" stroke="red" stroke-width="10.0" />
</svg>
