<svg xmlns="http://www.w3.org/2000/svg"
  viewBox="-50 -833.55 1402.825 515.105">
  <rect x="-50" y="-833.55" width="1402.825" height="515.105" fill="white"/>
  <path d="M 991.777 -549 L 1012.444 -549 L 1033.944 -548.833 L 1056.277 -548.5 L 1078.611 -548.167 L 1098.777 -546.667 L 1116.777 -544 L 1129.444 -544 L 1141.444 -528.667 L 1152.777 -498 L 1164.111 -467.333 L 1180.444 -437 L 1201.777 -407 L 1209.111 -396.333 L 1215.444 -390.333 L 1220.777 -389 L 1226.111 -387.667 L 1230.277 -385.167 L 1233.277 -381.5 L 1236.277 -377.833 L 1233.444 -374.667 L 1224.777 -372 L 1204.111 -369.333 L 1183.111 -368.167 L 1161.777 -368.5 L 1140.444 -368.833 L 1120.111 -370 L 1100.777 -372 L 1082.777 -378 L 1069.944 -391.833 L 1062.277 -413.5 L 1054.611 -435.167 L 1039.777 -467.333 L 1017.777 -510 L 1010.444 -520 L 1000.444 -526 L 987.777 -528 L 977.777 -528.667 L 972.444 -532.333 L 971.777 -539 L 971.111 -545.667 L 977.777 -549 Z M 717.777 -552 L 735.777 -552 L 754.611 -551.833 L 774.277 -551.5 L 793.944 -551.167 L 811.444 -549.667 L 826.777 -547 L 838.111 -547 L 850.111 -531.167 L 862.777 -499.5 L 875.444 -467.167 L 890.444 -436.333 L 907.777 -407 L 912.444 -396.333 L 918.111 -390.667 L 924.777 -390 L 929.444 -388.667 L 932.944 -386.167 L 935.277 -382.5 L 937.611 -378.833 L 935.111 -375.333 L 927.777 -372 L 909.777 -369.333 L 891.444 -368.167 L 872.777 -368.5 L 854.111 -368.833 L 836.111 -370 L 818.777 -372 L 802.777 -378 L 790.444 -392.167 L 781.777 -414.5 L 773.111 -436.833 L 759.444 -469.333 L 740.777 -512 L 739.444 -514 L 736.277 -517.833 L 731.277 -523.5 L 726.277 -529.167 L 720.777 -532.333 L 714.777 -533 L 706.111 -533.667 L 701.277 -537 L 700.277 -543 L 699.277 -549 L 705.111 -552 Z M 2.777 -775 L 6.111 -780.333 L 9.777 -783.167 L 13.777 -783.5 L 17.777 -783.833 L 22.277 -782.5 L 27.277 -779.5 L 32.277 -776.5 L 38.277 -773.333 L 45.277 -770 L 52.277 -766.667 L 61.277 -763.833 L 72.277 -761.5 L 83.277 -759.167 L 98.777 -758 L 118.777 -758 L 1116.777 -758 L 1135.444 -758 L 1152.111 -756.5 L 1166.777 -753.5 L 1181.444 -750.5 L 1194.944 -745.833 L 1207.277 -739.5 L 1219.611 -733.167 L 1229.111 -727.333 L 1235.777 -722 L 1242.444 -716.667 L 1251.777 -707.833 L 1263.777 -695.5 L 1275.777 -683.167 L 1286.111 -671 L 1294.777 -659 L 1303.444 -647 L 1305.111 -635.667 L 1299.777 -625 L 1295.111 -617 L 1289.277 -615.167 L 1282.277 -619.5 L 1275.277 -623.833 L 1267.111 -627.833 L 1257.777 -631.5 L 1248.444 -635.167 L 1238.444 -637.5 L 1227.777 -638.5 L 1217.111 -639.5 L 1200.777 -640 L 1178.777 -640 L 194.777 -640 L 179.444 -640 L 165.777 -641.167 L 153.777 -643.5 L 141.777 -645.833 L 132.277 -648.167 L 125.277 -650.5 L 118.277 -652.833 L 110.944 -655.667 L 103.277 -659 L 95.611 -662.333 L 87.444 -666.833 L 78.777 -672.5 L 70.111 -678.167 L 60.777 -686.167 L 50.777 -696.5 L 40.777 -706.833 L 30.777 -718.5 L 20.777 -731.5 L 10.777 -744.5 L 4.444 -753.667 L 1.777 -759 L -0.889 -764.333 L -0.556 -769.667 Z" fill="black" fill-opacity="0.25" stroke="black" stroke-width="4"/>
  <rect x="971" y="-549" width="265" height="181" fill="none" stroke="red" stroke-width="10" /><rect x="699" y="-552" width="239" height="184" fill="none" stroke="red" stroke-width="10" /><rect x="-1" y="-784" width="1306" height="169" fill="none" stroke="red" stroke-width="10" />
</svg>
