<svg xmlns="http://www.w3.org/2000/svg"
  viewBox="-50 -747 1416.825 574.579">
  <rect x="-50" y="-747" width="1416.825" height="574.579" fill="white"/>
  <path d="M 709.777 -697 L 729.777 -697 L 750.611 -696.667 L 772.277 -696 L 793.944 -695.333 L 813.777 -693.333 L 831.777 -690 L 844.444 -690 L 857.611 -668.667 L 871.277 -626 L 884.944 -583.333 L 901.111 -541.667 L 919.777 -501 L 926.444 -487 L 932.777 -479 L 938.777 -477 L 944.111 -475 L 948.277 -471.5 L 951.277 -466.5 L 954.277 -461.5 L 951.444 -457 L 942.777 -453 L 922.111 -449 L 901.611 -447.333 L 881.277 -448 L 860.944 -448.667 L 841.444 -450.333 L 822.777 -453 L 804.777 -461 L 790.944 -480.167 L 781.277 -510.5 L 771.611 -540.833 L 756.444 -585 L 735.777 -643 L 733.777 -646.333 L 730.111 -651.5 L 724.777 -658.5 L 719.444 -665.5 L 713.111 -669.667 L 705.777 -671 L 695.777 -672.333 L 690.444 -676.833 L 689.777 -684.5 L 689.111 -692.167 L 695.777 -696.333 Z M 438.777 -697 L 458.777 -697 L 479.777 -696.667 L 501.777 -696 L 523.777 -695.333 L 543.444 -693.333 L 560.777 -690 L 573.444 -690 L 586.777 -668.667 L 600.777 -626 L 614.777 -583.333 L 631.111 -541.667 L 649.777 -501 L 655.777 -487 L 662.111 -479 L 668.777 -477 L 674.111 -475 L 678.277 -471.5 L 681.277 -466.5 L 684.277 -461.5 L 681.444 -457 L 672.777 -453 L 652.777 -449 L 632.277 -447.333 L 611.277 -448 L 590.277 -448.667 L 570.444 -450.333 L 551.777 -453 L 534.444 -461 L 520.777 -480.167 L 510.777 -510.5 L 500.777 -540.833 L 485.444 -585 L 464.777 -643 L 462.777 -646.333 L 459.111 -651.5 L 453.777 -658.5 L 448.444 -665.5 L 442.444 -669.667 L 435.777 -671 L 426.444 -672.333 L 421.111 -676.833 L 419.777 -684.5 L 418.444 -692.167 L 424.777 -696.333 Z M 2.777 -384 L 6.111 -389.333 L 9.944 -392.167 L 14.277 -392.5 L 18.611 -392.833 L 23.111 -391.667 L 27.777 -389 L 32.444 -386.333 L 38.444 -383.167 L 45.777 -379.5 L 53.111 -375.833 L 62.444 -372.833 L 73.777 -370.5 L 85.111 -368.167 L 101.111 -367 L 121.777 -367 L 1125.777 -367 L 1144.444 -367 L 1161.444 -365.5 L 1176.777 -362.5 L 1192.111 -359.5 L 1206.111 -354.667 L 1218.777 -348 L 1231.444 -341.333 L 1241.277 -335.333 L 1248.277 -330 L 1255.277 -324.667 L 1264.944 -315.5 L 1277.277 -302.5 L 1289.611 -289.5 L 1300.111 -277 L 1308.777 -265 L 1317.444 -253 L 1319.111 -241.333 L 1313.777 -230 L 1308.444 -222 L 1302.444 -220.333 L 1295.777 -225 L 1289.111 -229.667 L 1280.944 -233.667 L 1271.277 -237 L 1261.611 -240.333 L 1251.277 -242.667 L 1240.277 -244 L 1229.277 -245.333 L 1212.111 -246 L 1188.777 -246 L 199.777 -246 L 184.444 -246 L 170.444 -247 L 157.777 -249 L 145.111 -251 L 135.277 -253.167 L 128.277 -255.5 L 121.277 -257.833 L 113.777 -261 L 105.777 -265 L 97.777 -269 L 89.277 -273.833 L 80.277 -279.5 L 71.277 -285.167 L 61.777 -293.167 L 51.777 -303.5 L 41.777 -313.833 L 31.611 -325.833 L 21.277 -339.5 L 10.944 -353.167 L 4.444 -362.667 L 1.777 -368 L -0.889 -373.333 L -0.556 -378.667 Z" fill="black" fill-opacity="0.25" stroke="black" stroke-width="4"/>
  <rect x="689" y="-697" width="265" height="250" fill="none" stroke="red" stroke-width="10" /><rect x="418" y="-697" width="266" height="250" fill="none" stroke="red" stroke-width="10" /><rect x="-1" y="-393" width="1320" height="173" fill="none" stroke="red" stroke-width="10" />
</svg>
