<svg xmlns="http://www.w3.org/2000/svg"
  viewBox="-50 -1388 1459.977 1215.579">
  <rect x="-50" y="-1388" width="1459.977" height="1215.579" fill="white"/>
  <path d="M 598 -697 L 618 -697 L 638.833 -696.667 L 660.5 -696 L 682.167 -695.333 L 702 -693.333 L 720 -690 L 732.667 -690 L 745.833 -668.667 L 759.5 -626 L 773.167 -583.333 L 789.667 -541.667 L 809 -501 L 815 -487 L 821.333 -479 L 828 -477 L 833.333 -475 L 837.333 -471.5 L 840 -466.5 L 842.667 -461.5 L 840 -457 L 832 -453 L 812 -449 L 791.5 -447.333 L 770.5 -448 L 749.5 -448.667 L 729.667 -450.333 L 711 -453 L 693.667 -461 L 680 -480.167 L 670 -510.5 L 660 -540.833 L 644.667 -585 L 624 -643 L 622 -646.333 L 618.333 -651.5 L 613 -658.5 L 607.667 -665.5 L 601.333 -669.667 L 594 -671 L 584.667 -672.333 L 579.5 -676.833 L 578.5 -684.5 L 577.5 -692.167 L 584 -696.333 Z M 26 -384 L 29.333 -389.333 L 33.167 -392.167 L 37.5 -392.5 L 41.833 -392.833 L 46.333 -391.667 L 51 -389 L 55.667 -386.333 L 61.667 -383.167 L 69 -379.5 L 76.333 -375.833 L 85.667 -372.833 L 97 -370.5 L 108.333 -368.167 L 124.333 -367 L 145 -367 L 1169 -367 L 1187.667 -367 L 1204.667 -365.5 L 1220 -362.5 L 1235.333 -359.5 L 1249.333 -354.667 L 1262 -348 L 1274.667 -341.333 L 1284.5 -335.333 L 1291.5 -330 L 1298.5 -324.667 L 1308 -315.5 L 1320 -302.5 L 1332 -289.5 L 1342.5 -277 L 1351.5 -265 L 1360.5 -253 L 1362.333 -241.333 L 1357 -230 L 1351.667 -222 L 1345.5 -220.333 L 1338.5 -225 L 1331.5 -229.667 L 1323.333 -233.667 L 1314 -237 L 1304.667 -240.333 L 1294.5 -242.667 L 1283.5 -244 L 1272.5 -245.333 L 1255.333 -246 L 1232 -246 L 223 -246 L 207.667 -246 L 193.667 -247 L 181 -249 L 168.333 -251 L 158.5 -253.167 L 151.5 -255.5 L 144.5 -257.833 L 137 -261 L 129 -265 L 121 -269 L 112.5 -273.833 L 103.5 -279.5 L 94.5 -285.167 L 85 -293.167 L 75 -303.5 L 65 -313.833 L 54.833 -325.833 L 44.5 -339.5 L 34.167 -353.167 L 27.667 -362.667 L 25 -368 L 22.333 -373.333 L 22.667 -378.667 Z M 499 -1163 L 509.667 -1161 L 514.333 -1155.5 L 513 -1146.5 L 511.667 -1137.5 L 505 -1132.667 L 493 -1132 L 479 -1127.333 L 467.667 -1109.667 L 459 -1079 L 450.333 -1048.333 L 441.333 -1016 L 432 -982 L 409.333 -902.667 L 388.667 -838.333 L 370 -789 L 351.333 -739.667 L 333.667 -705.167 L 317 -685.5 L 300.333 -665.833 L 280 -650.667 L 256 -640 L 220 -624.667 L 184.5 -613.333 L 149.5 -606 L 114.5 -598.667 L 84.333 -595 L 59 -595 L 71.667 -565 L 93 -544 L 123 -532 L 153 -520 L 161.667 -507.333 L 149 -494 L 141.667 -486.667 L 118.5 -496.333 L 79.5 -523 L 40.5 -549.667 L 14 -576 L 0 -602 L 0 -618.667 L 6.667 -625.667 L 20 -623 L 33.333 -620.333 L 48 -618.333 L 64 -617 L 79.333 -616.333 L 95.167 -617.333 L 111.5 -620 L 127.833 -622.667 L 149.667 -631 L 177 -645 L 190.333 -651.667 L 203 -666.833 L 215 -690.5 L 227 -714.167 L 237.667 -740.333 L 247 -769 L 256.333 -797.667 L 264.333 -826.167 L 271 -854.5 L 277.667 -882.833 L 286.5 -923.667 L 297.5 -977 L 308.5 -1030.333 L 317.833 -1066 L 325.5 -1084 L 333.167 -1102 L 344.167 -1116.667 L 358.5 -1128 L 372.833 -1139.333 L 386.667 -1146.667 L 400 -1150 L 413.333 -1153.333 L 427.833 -1155.667 L 443.5 -1157 L 459.167 -1158.333 L 477.667 -1160.333 Z M 1004 -1338 L 1014 -1336.667 L 1018.5 -1332.167 L 1017.5 -1324.5 L 1016.5 -1316.833 L 1010.333 -1312.333 L 999 -1311 L 986.333 -1307 L 976 -1292.167 L 968 -1266.5 L 960 -1240.833 L 951.333 -1213.667 L 942 -1185 L 921.333 -1117.667 L 902.333 -1063.333 L 885 -1022 L 867.667 -980.667 L 851.333 -951.667 L 836 -935 L 820.667 -918.333 L 802 -905.667 L 780 -897 L 746.667 -883.667 L 713.833 -874 L 681.5 -868 L 649.167 -862 L 621 -859 L 597 -859 L 609 -833 L 628.833 -815.167 L 656.5 -805.5 L 684.167 -795.833 L 692 -785.333 L 680 -774 L 673.333 -768 L 652.167 -776.167 L 616.5 -798.5 L 580.833 -820.833 L 556.333 -843 L 543 -865 L 543 -879 L 549.167 -884.833 L 561.5 -882.5 L 573.833 -880.167 L 587.333 -878.667 L 602 -878 L 616.667 -877.333 L 631.5 -878 L 646.5 -880 L 661.5 -882 L 681.667 -889 L 707 -901 L 719.667 -907 L 731.333 -919.833 L 742 -939.5 L 752.667 -959.167 L 762.5 -981.167 L 771.5 -1005.5 L 780.5 -1029.833 L 788 -1054 L 794 -1078 L 800 -1102 L 808 -1136.333 L 818 -1181 L 828 -1225.667 L 836.667 -1255.667 L 844 -1271 L 851.333 -1286.333 L 861.667 -1298.833 L 875 -1308.5 L 888.333 -1318.167 L 901 -1324.333 L 913 -1327 L 925 -1329.667 L 938.333 -1331.667 L 953 -1333 L 967.667 -1334.333 L 984.667 -1336 Z" fill="black" fill-opacity="0.25" stroke="black" stroke-width="4"/>
  <rect x="578" y="-697" width="265" height="250" fill="none" stroke="red" stroke-width="10" /><rect x="22" y="-393" width="1340" height="173" fill="none" stroke="red" stroke-width="10" /><rect x="0" y="-715.4" width="338.9" height="223.8" fill="none" stroke="red" stroke-width="10" /><rect x="227.5" y="-939.2" width="192.3" height="223.8" fill="none" stroke="red" stroke-width="10" /><rect x="289.7" y="-1163" width="224.6" height="223.8" fill="none" stroke="red" stroke-width="10" /><rect x="543" y="-960.7" width="313.4" height="188.6" fill="none" stroke="red" stroke-width="10" /><rect x="753.4" y="-1149.4" width="177.7" height="188.7" fill="none" stroke="red" stroke-width="10" /><rect x="810.9" y="-1338" width="207.6" height="188.6" fill="none" stroke="red" stroke-width="10" />
</svg>
