<svg xmlns="http://www.w3.org/2000/svg"
  viewBox="-50 -1388 1518 1215.579">
  <rect x="-50" y="-1388" width="1518" height="1215.579" fill="white"/>
  <path d="M 409.777 -697 L 429.777 -697 L 450.611 -696.667 L 472.277 -696 L 493.944 -695.333 L 513.777 -693.333 L 531.777 -690 L 544.444 -690 L 557.611 -668.667 L 571.277 -626 L 584.944 -583.333 L 601.444 -541.667 L 620.777 -501 L 626.777 -487 L 633.111 -479 L 639.777 -477 L 645.111 -475 L 649.111 -471.5 L 651.777 -466.5 L 654.444 -461.5 L 651.777 -457 L 643.777 -453 L 623.111 -449 L 602.444 -447.333 L 581.777 -448 L 561.111 -448.667 L 541.444 -450.333 L 522.777 -453 L 504.777 -461 L 490.944 -480.167 L 481.277 -510.5 L 471.611 -540.833 L 456.444 -585 L 435.777 -643 L 433.777 -646.333 L 430.111 -651.5 L 424.777 -658.5 L 419.444 -665.5 L 413.111 -669.667 L 405.777 -671 L 396.444 -672.333 L 391.277 -676.833 L 390.277 -684.5 L 389.277 -692.167 L 395.777 -696.333 Z M 2.777 -384 L 6.111 -389.333 L 9.944 -392.167 L 14.277 -392.5 L 18.611 -392.833 L 23.111 -391.667 L 27.777 -389 L 32.444 -386.333 L 38.444 -383.167 L 45.777 -379.5 L 53.111 -375.833 L 62.444 -372.833 L 73.777 -370.5 L 85.111 -368.167 L 101.111 -367 L 121.777 -367 L 1145.777 -367 L 1164.444 -367 L 1181.444 -365.5 L 1196.777 -362.5 L 1212.111 -359.5 L 1226.111 -354.667 L 1238.777 -348 L 1251.444 -341.333 L 1261.277 -335.333 L 1268.277 -330 L 1275.277 -324.667 L 1284.777 -315.5 L 1296.777 -302.5 L 1308.777 -289.5 L 1319.277 -277 L 1328.277 -265 L 1337.277 -253 L 1339.111 -241.333 L 1333.777 -230 L 1328.444 -222 L 1322.277 -220.333 L 1315.277 -225 L 1308.277 -229.667 L 1300.111 -233.667 L 1290.777 -237 L 1281.444 -240.333 L 1271.277 -242.667 L 1260.277 -244 L 1249.277 -245.333 L 1232.111 -246 L 1208.777 -246 L 199.777 -246 L 184.444 -246 L 170.444 -247 L 157.777 -249 L 145.111 -251 L 135.277 -253.167 L 128.277 -255.5 L 121.277 -257.833 L 113.777 -261 L 105.777 -265 L 97.777 -269 L 89.277 -273.833 L 80.277 -279.5 L 71.277 -285.167 L 61.777 -293.167 L 51.777 -303.5 L 41.777 -313.833 L 31.611 -325.833 L 21.277 -339.5 L 10.944 -353.167 L 4.444 -362.667 L 1.777 -368 L -0.889 -373.333 L -0.556 -378.667 Z M 1403.777 -1163 L 1414.444 -1161 L 1419.111 -1155.5 L 1417.777 -1146.5 L 1416.444 -1137.5 L 1409.444 -1132.667 L 1396.777 -1132 L 1382.777 -1127.333 L 1371.611 -1109.667 L 1363.277 -1079 L 1354.944 -1048.333 L 1345.777 -1016 L 1335.777 -982 L 1313.111 -902.667 L 1292.611 -838.333 L 1274.277 -789 L 1255.944 -739.667 L 1238.277 -705.167 L 1221.277 -685.5 L 1204.277 -665.833 L 1184.111 -650.667 L 1160.777 -640 L 1124.777 -624.667 L 1089.277 -613.333 L 1054.277 -606 L 1019.277 -598.667 L 988.777 -595 L 962.777 -595 L 975.444 -565 L 996.777 -544 L 1026.777 -532 L 1056.777 -520 L 1065.444 -507.333 L 1052.777 -494 L 1045.444 -486.667 L 1022.444 -496.333 L 983.777 -523 L 945.111 -549.667 L 918.444 -576 L 903.777 -602 L 903.777 -618.667 L 910.611 -625.667 L 924.277 -623 L 937.944 -620.333 L 952.444 -618.333 L 967.777 -617 L 983.111 -616.333 L 999.111 -617.333 L 1015.777 -620 L 1032.444 -622.667 L 1054.444 -631 L 1081.777 -645 L 1095.111 -651.667 L 1107.611 -666.833 L 1119.277 -690.5 L 1130.944 -714.167 L 1141.611 -740.333 L 1151.277 -769 L 1160.944 -797.667 L 1169.111 -826.167 L 1175.777 -854.5 L 1182.444 -882.833 L 1191.277 -923.667 L 1202.277 -977 L 1213.277 -1030.333 L 1222.611 -1066 L 1230.277 -1084 L 1237.944 -1102 L 1248.944 -1116.667 L 1263.277 -1128 L 1277.611 -1139.333 L 1291.277 -1146.667 L 1304.277 -1150 L 1317.277 -1153.333 L 1331.777 -1155.667 L 1347.777 -1157 L 1363.777 -1158.333 L 1382.444 -1160.333 Z M 814.777 -1338 L 824.777 -1336.667 L 829.277 -1332.167 L 828.277 -1324.5 L 827.277 -1316.833 L 821.111 -1312.333 L 809.777 -1311 L 797.111 -1307 L 786.777 -1292.167 L 778.777 -1266.5 L 770.777 -1240.833 L 762.111 -1213.667 L 752.777 -1185 L 732.111 -1117.667 L 713.111 -1063.333 L 695.777 -1022 L 678.444 -980.667 L 662.111 -951.667 L 646.777 -935 L 631.444 -918.333 L 612.777 -905.667 L 590.777 -897 L 557.444 -883.667 L 524.611 -874 L 492.277 -868 L 459.944 -862 L 431.777 -859 L 407.777 -859 L 419.777 -833 L 439.611 -815.167 L 467.277 -805.5 L 494.944 -795.833 L 502.777 -785.333 L 490.777 -774 L 484.111 -768 L 462.944 -776.167 L 427.277 -798.5 L 391.611 -820.833 L 367.111 -843 L 353.777 -865 L 353.777 -879 L 359.944 -884.833 L 372.277 -882.5 L 384.611 -880.167 L 398.111 -878.667 L 412.777 -878 L 427.444 -877.333 L 442.277 -878 L 457.277 -880 L 472.277 -882 L 492.444 -889 L 517.777 -901 L 530.444 -907 L 542.111 -919.833 L 552.777 -939.5 L 563.444 -959.167 L 573.277 -981.167 L 582.277 -1005.5 L 591.277 -1029.833 L 598.777 -1054 L 604.777 -1078 L 610.777 -1102 L 618.777 -1136.333 L 628.777 -1181 L 638.777 -1225.667 L 647.444 -1255.667 L 654.777 -1271 L 662.111 -1286.333 L 672.444 -1298.833 L 685.777 -1308.5 L 699.111 -1318.167 L 711.777 -1324.333 L 723.777 -1327 L 735.777 -1329.667 L 749.111 -1331.667 L 763.777 -1333 L 778.444 -1334.333 L 795.444 -1336 Z" fill="black" fill-opacity="0.25" stroke="black" stroke-width="4"/>
  <rect x="389" y="-697" width="265" height="250" fill="none" stroke="red" stroke-width="10" /><rect x="-1" y="-393" width="1340" height="173" fill="none" stroke="red" stroke-width="10" /><rect x="903.8" y="-715.4" width="339.7" height="223.8" fill="none" stroke="red" stroke-width="10" /><rect x="1131.5" y="-939.2" width="192.1" height="223.8" fill="none" stroke="red" stroke-width="10" /><rect x="1194.5" y="-1163" width="224.6" height="223.8" fill="none" stroke="red" stroke-width="10" /><rect x="353.8" y="-960.7" width="313.4" height="188.6" fill="none" stroke="red" stroke-width="10" /><rect x="564.1" y="-1149.4" width="177.7" height="188.7" fill="none" stroke="red" stroke-width="10" /><rect x="621.7" y="-1338" width="207.6" height="188.6" fill="none" stroke="red" stroke-width="10" />
</svg>
