<svg xmlns="http://www.w3.org/2000/svg"
  viewBox="-50 -889.47 1436.754 717.05">
  <rect x="-50" y="-889.47" width="1436.754" height="717.05" fill="white"/>
  <path d="M 2.777 -384 L 6.111 -389.333 L 9.944 -392.167 L 14.277 -392.5 L 18.611 -392.833 L 23.111 -391.667 L 27.777 -389 L 32.444 -386.333 L 38.444 -383.167 L 45.777 -379.5 L 53.111 -375.833 L 62.444 -372.833 L 73.777 -370.5 L 85.111 -368.167 L 101.111 -367 L 121.777 -367 L 1145.777 -367 L 1164.444 -367 L 1181.444 -365.5 L 1196.777 -362.5 L 1212.111 -359.5 L 1226.111 -354.667 L 1238.777 -348 L 1251.444 -341.333 L 1261.277 -335.333 L 1268.277 -330 L 1275.277 -324.667 L 1284.777 -315.5 L 1296.777 -302.5 L 1308.777 -289.5 L 1319.277 -277 L 1328.277 -265 L 1337.277 -253 L 1339.111 -241.333 L 1333.777 -230 L 1328.444 -222 L 1322.277 -220.333 L 1315.277 -225 L 1308.277 -229.667 L 1300.111 -233.667 L 1290.777 -237 L 1281.444 -240.333 L 1271.277 -242.667 L 1260.277 -244 L 1249.277 -245.333 L 1232.111 -246 L 1208.777 -246 L 199.777 -246 L 184.444 -246 L 170.444 -247 L 157.777 -249 L 145.111 -251 L 135.277 -253.167 L 128.277 -255.5 L 121.277 -257.833 L 113.777 -261 L 105.777 -265 L 97.777 -269 L 89.277 -273.833 L 80.277 -279.5 L 71.277 -285.167 L 61.777 -293.167 L 51.777 -303.5 L 41.777 -313.833 L 31.611 -325.833 L 21.277 -339.5 L 10.944 -353.167 L 4.444 -362.667 L 1.777 -368 L -0.889 -373.333 L -0.556 -378.667 Z M 46.777 -668 L 24.777 -714 L 18.777 -753.333 L 28.777 -786 L 38.777 -818.667 L 57.111 -836.333 L 83.777 -839 L 101.111 -840.333 L 114.277 -838.833 L 123.277 -834.5 L 132.277 -830.167 L 140.111 -825.833 L 146.777 -821.5 L 153.444 -817.167 L 159.944 -812.5 L 166.277 -807.5 L 172.611 -802.5 L 178.444 -797.167 L 183.777 -791.5 L 189.111 -785.833 L 192.777 -781 L 194.777 -777 L 196.777 -773 L 197.777 -769.167 L 197.777 -765.5 L 197.777 -761.833 L 196.611 -759.167 L 194.277 -757.5 L 191.944 -755.833 L 185.611 -752.667 L 175.277 -748 L 164.944 -743.333 L 151.611 -735.833 L 135.277 -725.5 L 118.944 -715.167 L 111.111 -698 L 111.777 -674 L 111.777 -648.667 L 134.944 -624.833 L 181.277 -602.5 L 227.611 -580.167 L 296.444 -571 L 387.777 -575 L 1032.777 -594 L 1052.111 -594 L 1067.611 -592.5 L 1079.277 -589.5 L 1090.944 -586.5 L 1101.444 -582.667 L 1110.777 -578 L 1120.111 -573.333 L 1127.944 -568.667 L 1134.277 -564 L 1140.611 -559.333 L 1148.111 -552.667 L 1156.777 -544 L 1165.444 -535.333 L 1175.611 -524 L 1187.277 -510 L 1198.944 -496 L 1206.611 -485.667 L 1210.277 -479 L 1213.944 -472.333 L 1215.777 -465.833 L 1215.777 -459.5 L 1215.777 -453.167 L 1213.944 -449 L 1210.277 -447 L 1206.611 -445 L 1202.611 -444 L 1198.277 -444 L 1193.944 -444 L 1189.444 -445 L 1184.777 -447 L 1180.111 -449 L 1174.444 -451.167 L 1167.777 -453.5 L 1161.111 -455.833 L 1153.611 -458.5 L 1145.277 -461.5 L 1136.944 -464.5 L 1129.444 -466.667 L 1122.777 -468 L 1116.111 -469.333 L 1106.444 -470 L 1093.777 -470 L 746.777 -476 L 692.777 -476 L 636.111 -478.5 L 576.777 -483.5 L 517.444 -488.5 L 461.444 -495 L 408.777 -503 L 356.111 -511 L 309.777 -519.833 L 269.777 -529.5 L 229.777 -539.167 L 202.444 -547 L 187.777 -553 L 162.444 -565 L 140.111 -576.833 L 120.777 -588.5 L 101.444 -600.167 L 76.777 -626.667 Z" fill="black" fill-opacity="0.25" stroke="black" stroke-width="4"/>
  <rect x="-1" y="-393" width="1340" height="173" fill="none" stroke="red" stroke-width="10" /><rect x="19" y="-840" width="1197" height="396" fill="none" stroke="red" stroke-width="10" />
</svg>
