<svg xmlns="http://www.w3.org/2000/svg"
  viewBox="-50.0 -1388.0 1459.9766009193181 1215.5790908845156">
  <rect x="-50.0" y="-1388.0" width="1459.9766009193181" height="1215.5790908845156" fill="white"/>
  <path d="M 598.0 -697.0 L 618.0 -697.0 L 638.833007812 -696.666992188 L 660.5 -696.0 L 682.166992188 -695.333007812 L 702.0 -693.333007812 L 720.0 -690.0 L 732.666992188 -690.0 L 745.833007812 -668.666992188 L 759.5 -626.0 L 773.166992188 -583.333007812 L 789.666992188 -541.666992188 L 809.0 -501.0 L 815.0 -487.0 L 821.333007812 -479.0 L 828.0 -477.0 L 833.333007812 -475.0 L 837.333007812 -471.5 L 840.0 -466.5 L 842.666992188 -461.5 L 840.0 -457.0 L 832.0 -453.0 L 812.0 -449.0 L 791.5 -447.333007812 L 770.5 -448.0 L 749.5 -448.666992188 L 729.666992188 -450.333007812 L 711.0 -453.0 L 693.666992188 -461.0 L 680.0 -480.166992188 L 670.0 -510.5 L 660.0 -540.833007812 L 644.666992188 -585.0 L 624.0 -643.0 L 622.0 -646.333007812 L 618.333007812 -651.5 L 613.0 -658.5 L 607.666992188 -665.5 L 601.333007812 -669.666992188 L 594.0 -671.0 L 584.666992188 -672.333007812 L 579.5 -676.833007812 L 578.5 -684.5 L 577.5 -692.166992188 L 584.0 -696.333007812 Z M 26.0 -384.0 L 29.3330078125 -389.333007812 L 33.1669921875 -392.166992188 L 37.5 -392.5 L 41.8330078125 -392.833007812 L 46.3330078125 -391.666992188 L 51.0 -389.0 L 55.6669921875 -386.333007812 L 61.6669921875 -383.166992188 L 69.0 -379.5 L 76.3330078125 -375.833007812 L 85.6669921875 -372.833007812 L 97.0 -370.5 L 108.333007812 -368.166992188 L 124.333007812 -367.0 L 145.0 -367.0 L 1169.0 -367.0 L 1187.66699219 -367.0 L 1204.66699219 -365.5 L 1220.0 -362.5 L 1235.33300781 -359.5 L 1249.33300781 -354.666992188 L 1262.0 -348.0 L 1274.66699219 -341.333007812 L 1284.5 -335.333007812 L 1291.5 -330.0 L 1298.5 -324.666992188 L 1308.0 -315.5 L 1320.0 -302.5 L 1332.0 -289.5 L 1342.5 -277.0 L 1351.5 -265.0 L 1360.5 -253.0 L 1362.33300781 -241.333007812 L 1357.0 -230.0 L 1351.66699219 -222.0 L 1345.5 -220.333007812 L 1338.5 -225.0 L 1331.5 -229.666992188 L 1323.33300781 -233.666992188 L 1314.0 -237.0 L 1304.66699219 -240.333007812 L 1294.5 -242.666992188 L 1283.5 -244.0 L 1272.5 -245.333007812 L 1255.33300781 -246.0 L 1232.0 -246.0 L 223.0 -246.0 L 207.666992188 -246.0 L 193.666992188 -247.0 L 181.0 -249.0 L 168.333007812 -251.0 L 158.5 -253.166992188 L 151.5 -255.5 L 144.5 -257.833007812 L 137.0 -261.0 L 129.0 -265.0 L 121.0 -269.0 L 112.5 -273.833007812 L 103.5 -279.5 L 94.5 -285.166992188 L 85.0 -293.166992188 L 75.0 -303.5 L 65.0 -313.833007812 L 54.8330078125 -325.833007812 L 44.5 -339.5 L 34.1669921875 -353.166992188 L 27.6669921875 -362.666992188 L 25.0 -368.0 L 22.3330078125 -373.333007812 L 22.6669921875 -378.666992188 Z M 499.0 -1163.0 L 509.666992188 -1161.0 L 514.333007812 -1155.5 L 513.0 -1146.5 L 511.666992188 -1137.5 L 505.0 -1132.66699219 L 493.0 -1132.0 L 479.0 -1127.33300781 L 467.666992188 -1109.66699219 L 459.0 -1079.0 L 450.333007812 -1048.33300781 L 441.333007812 -1016.0 L 432.0 -982.0 L 409.333007812 -902.666992188 L 388.666992188 -838.333007812 L 370.0 -789.0 L 351.333007812 -739.666992188 L 333.666992188 -705.166992188 L 317.0 -685.5 L 300.333007812 -665.833007812 L 280.0 -650.666992188 L 256.0 -640.0 L 220.0 -624.666992188 L 184.5 -613.333007812 L 149.5 -606.0 L 114.5 -598.666992188 L 84.3330078125 -595.0 L 59.0 -595.0 L 71.6669921875 -565.0 L 93.0 -544.0 L 123.0 -532.0 L 153.0 -520.0 L 161.666992188 -507.333007812 L 149.0 -494.0 L 141.666992188 -486.666992188 L 118.5 -496.333007812 L 79.5 -523.0 L 40.5 -549.666992188 L 14.0 -576.0 L 0.0 -602.0 L 0.0 -618.666992188 L 6.6669921875 -625.666992188 L 20.0 -623.0 L 33.3330078125 -620.333007812 L 48.0 -618.333007812 L 64.0 -617.0 L 79.3330078125 -616.333007812 L 95.1669921875 -617.333007812 L 111.5 -620.0 L 127.833007812 -622.666992188 L 149.666992188 -631.0 L 177.0 -645.0 L 190.333007812 -651.666992188 L 203.0 -666.833007812 L 215.0 -690.5 L 227.0 -714.166992188 L 237.666992188 -740.333007812 L 247.0 -769.0 L 256.333007812 -797.666992188 L 264.333007812 -826.166992188 L 271.0 -854.5 L 277.666992188 -882.833007812 L 286.5 -923.666992188 L 297.5 -977.0 L 308.5 -1030.33300781 L 317.833007812 -1066.0 L 325.5 -1084.0 L 333.166992188 -1102.0 L 344.166992188 -1116.66699219 L 358.5 -1128.0 L 372.833007812 -1139.33300781 L 386.666992188 -1146.66699219 L 400.0 -1150.0 L 413.333007812 -1153.33300781 L 427.833007812 -1155.66699219 L 443.5 -1157.0 L 459.166992188 -1158.33300781 L 477.666992188 -1160.33300781 Z M 1004.0 -1338.0 L 1014.0 -1336.66699219 L 1018.5 -1332.16699219 L 1017.5 -1324.5 L 1016.5 -1316.83300781 L 1010.33300781 -1312.33300781 L 999.0 -1311.0 L 986.333007812 -1307.0 L 976.0 -1292.16699219 L 968.0 -1266.5 L 960.0 -1240.83300781 L 951.333007812 -1213.66699219 L 942.0 -1185.0 L 921.333007812 -1117.66699219 L 902.333007812 -1063.33300781 L 885.0 -1022.0 L 867.666992188 -980.666992188 L 851.333007812 -951.666992188 L 836.0 -935.0 L 820.666992188 -918.333007812 L 802.0 -905.666992188 L 780.0 -897.0 L 746.666992188 -883.666992188 L 713.833007812 -874.0 L 681.5 -868.0 L 649.166992188 -862.0 L 621.0 -859.0 L 597.0 -859.0 L 609.0 -833.0 L 628.833007812 -815.166992188 L 656.5 -805.5 L 684.166992188 -795.833007812 L 692.0 -785.333007812 L 680.0 -774.0 L 673.333007812 -768.0 L 652.166992188 -776.166992188 L 616.5 -798.5 L 580.833007812 -820.833007812 L 556.333007812 -843.0 L 543.0 -865.0 L 543.0 -879.0 L 549.166992188 -884.833007812 L 561.5 -882.5 L 573.833007812 -880.166992188 L 587.333007812 -878.666992188 L 602.0 -878.0 L 616.666992188 -877.333007812 L 631.5 -878.0 L 646.5 -880.0 L 661.5 -882.0 L 681.666992188 -889.0 L 707.0 -901.0 L 719.666992188 -907.0 L 731.333007812 -919.833007812 L 742.0 -939.5 L 752.666992188 -959.166992188 L 762.5 -981.166992188 L 771.5 -1005.5 L 780.5 -1029.83300781 L 788.0 -1054.0 L 794.0 -1078.0 L 800.0 -1102.0 L 808.0 -1136.33300781 L 818.0 -1181.0 L 828.0 -1225.66699219 L 836.666992188 -1255.66699219 L 844.0 -1271.0 L 851.333007812 -1286.33300781 L 861.666992188 -1298.83300781 L 875.0 -1308.5 L 888.333007812 -1318.16699219 L 901.0 -1324.33300781 L 913.0 -1327.0 L 925.0 -1329.66699219 L 938.333007812 -1331.66699219 L 953.0 -1333.0 L 967.666992188 -1334.33300781 L 984.666992188 -1336.0 Z" fill="black" fill-opacity="0.25" stroke="black" stroke-width="4.0"/>
  <rect x="578.0" y="-697.0" width="265.0" height="249.99999999999994" fill="none" stroke="red" stroke-width="10.0" /><rect x="22.0" y="-393.0" width="1340.0" height="173.00000000000003" fill="none" stroke="red" stroke-width="10.0" /><rect x="0.0" y="-1163.0" width="514.0" height="676.0" fill="none" stroke="red" stroke-width="10.0" /><rect x="543.0" y="-1338.0" width="475.0" height="570.0000000000001" fill="none" stroke="red" stroke-width="10.0" />
</svg>
