<svg xmlns="http://www.w3.org/2000/svg"
  viewBox="-50.00008470894536 -883.4704125292188 1885.0656547470833 711.0495034137344">
  <rect x="-50.00008470894536" y="-883.4704125292188" width="1885.0656547470833" height="711.0495034137344" fill="white"/>
  <path d="M 1153.01757812 -671.0 L 1173.01757812 -671.0 L 1194.01757812 -670.666992188 L 1216.01757812 -670.0 L 1238.01757812 -669.333007812 L 1257.68457031 -667.333007812 L 1275.01757812 -664.0 L 1287.68457031 -664.0 L 1302.01757812 -647.0 L 1318.01757812 -613.0 L 1334.01757812 -579.0 L 1351.68457031 -541.666992188 L 1371.01757812 -501.0 L 1376.3515625 -487.0 L 1382.68457031 -479.0 L 1390.01757812 -477.0 L 1394.68457031 -475.0 L 1398.51757812 -471.5 L 1401.51757812 -466.5 L 1404.51757812 -461.5 L 1401.68457031 -457.0 L 1393.01757812 -453.0 L 1373.01757812 -449.0 L 1352.51757812 -447.333007812 L 1331.51757812 -448.0 L 1310.51757812 -448.666992188 L 1290.68457031 -450.333007812 L 1272.01757812 -453.0 L 1254.68457031 -461.0 L 1240.01757812 -476.0 L 1228.01757812 -498.0 L 1216.01757812 -520.0 L 1199.68457031 -559.666992188 L 1179.01757812 -617.0 L 1177.01757812 -620.333007812 L 1173.3515625 -625.5 L 1168.01757812 -632.5 L 1162.68457031 -639.5 L 1156.3515625 -643.666992188 L 1149.01757812 -645.0 L 1139.68457031 -646.333007812 L 1134.51757812 -651.0 L 1133.51757812 -659.0 L 1132.51757812 -667.0 L 1139.01757812 -671.0 Z M 1423.01757812 -671.0 L 1443.01757812 -671.0 L 1464.01757812 -670.666992188 L 1486.01757812 -670.0 L 1508.01757812 -669.333007812 L 1527.68457031 -667.333007812 L 1545.01757812 -664.0 L 1557.68457031 -664.0 L 1572.01757812 -647.0 L 1588.01757812 -613.0 L 1604.01757812 -579.0 L 1621.68457031 -541.666992188 L 1641.01757812 -501.0 L 1647.01757812 -487.0 L 1653.3515625 -479.0 L 1660.01757812 -477.0 L 1665.3515625 -475.0 L 1669.3515625 -471.5 L 1672.01757812 -466.5 L 1674.68457031 -461.5 L 1672.01757812 -457.0 L 1664.01757812 -453.0 L 1643.3515625 -449.0 L 1622.68457031 -447.333007812 L 1602.01757812 -448.0 L 1581.3515625 -448.666992188 L 1561.3515625 -450.333007812 L 1542.01757812 -453.0 L 1524.68457031 -461.0 L 1510.01757812 -476.0 L 1498.01757812 -498.0 L 1486.01757812 -520.0 L 1470.01757812 -559.666992188 L 1450.01757812 -617.0 L 1448.01757812 -620.333007812 L 1444.18457031 -625.5 L 1438.51757812 -632.5 L 1432.8515625 -639.5 L 1426.68457031 -643.666992188 L 1420.01757812 -645.0 L 1410.68457031 -646.333007812 L 1405.3515625 -651.0 L 1404.01757812 -659.0 L 1402.68457031 -667.0 L 1409.01757812 -671.0 Z M 89.517578125 -384.0 L 93.1845703125 -389.333007812 L 97.017578125 -392.166992188 L 101.017578125 -392.5 L 105.017578125 -392.833007812 L 109.517578125 -391.666992188 L 114.517578125 -389.0 L 119.517578125 -386.333007812 L 125.684570312 -383.166992188 L 133.017578125 -379.5 L 140.3515625 -375.833007812 L 149.684570312 -372.833007812 L 161.017578125 -370.5 L 172.3515625 -368.166992188 L 188.3515625 -367.0 L 209.017578125 -367.0 L 1594.01757812 -367.0 L 1612.68457031 -367.0 L 1629.68457031 -365.5 L 1645.01757812 -362.5 L 1660.3515625 -359.5 L 1674.3515625 -354.666992188 L 1687.01757812 -348.0 L 1699.68457031 -341.333007812 L 1709.51757812 -335.333007812 L 1716.51757812 -330.0 L 1723.51757812 -324.666992188 L 1733.18457031 -315.5 L 1745.51757812 -302.5 L 1757.8515625 -289.5 L 1768.3515625 -277.0 L 1777.01757812 -265.0 L 1785.68457031 -253.0 L 1787.3515625 -241.333007812 L 1782.01757812 -230.0 L 1776.68457031 -222.0 L 1770.51757812 -220.333007812 L 1763.51757812 -225.0 L 1756.51757812 -229.666992188 L 1748.3515625 -233.666992188 L 1739.01757812 -237.0 L 1729.68457031 -240.333007812 L 1719.51757812 -242.666992188 L 1708.51757812 -244.0 L 1697.51757812 -245.333007812 L 1680.3515625 -246.0 L 1657.01757812 -246.0 L 287.017578125 -246.0 L 271.684570312 -246.0 L 257.684570312 -247.0 L 245.017578125 -249.0 L 232.3515625 -251.0 L 222.517578125 -253.166992188 L 215.517578125 -255.5 L 208.517578125 -257.833007812 L 201.017578125 -261.0 L 193.017578125 -265.0 L 185.017578125 -269.0 L 176.517578125 -273.833007812 L 167.517578125 -279.5 L 158.517578125 -285.166992188 L 149.017578125 -293.166992188 L 139.017578125 -303.5 L 129.017578125 -313.833007812 L 118.8515625 -325.833007812 L 108.517578125 -339.5 L 98.1845703125 -353.166992188 L 91.517578125 -362.666992188 L 88.517578125 -368.0 L 85.517578125 -373.333007812 L 85.8515625 -378.666992188 Z M 26.017578125 -662.0 L 0.6845703125 -708.0 L -6.1484375 -747.333007812 L 5.517578125 -780.0 L 17.1845703125 -812.666992188 L 38.017578125 -830.333007812 L 68.017578125 -833.0 L 87.3515625 -834.333007812 L 102.184570312 -832.833007812 L 112.517578125 -828.5 L 122.8515625 -824.166992188 L 132.017578125 -819.833007812 L 140.017578125 -815.5 L 148.017578125 -811.166992188 L 155.517578125 -806.5 L 162.517578125 -801.5 L 169.517578125 -796.5 L 176.017578125 -791.333007812 L 182.017578125 -786.0 L 188.017578125 -780.666992188 L 192.3515625 -775.833007812 L 195.017578125 -771.5 L 197.684570312 -767.166992188 L 198.8515625 -763.166992188 L 198.517578125 -759.5 L 198.184570312 -755.833007812 L 196.684570312 -753.166992188 L 194.017578125 -751.5 L 191.3515625 -749.833007812 L 184.184570312 -746.833007812 L 172.517578125 -742.5 L 160.8515625 -738.166992188 L 145.8515625 -730.666992188 L 127.517578125 -720.0 L 109.184570312 -709.333007812 L 100.3515625 -692.0 L 101.017578125 -668.0 L 101.017578125 -642.666992188 L 127.3515625 -618.833007812 L 180.017578125 -596.5 L 232.684570312 -574.166992188 L 311.017578125 -565.0 L 415.017578125 -569.0 L 861.017578125 -593.0 L 883.017578125 -593.0 L 900.517578125 -591.5 L 913.517578125 -588.5 L 926.517578125 -585.5 L 938.3515625 -581.666992188 L 949.017578125 -577.0 L 959.684570312 -572.333007812 L 968.684570312 -567.666992188 L 976.017578125 -563.0 L 983.3515625 -558.333007812 L 992.184570312 -551.666992188 L 1002.51757812 -543.0 L 1012.8515625 -534.333007812 L 1024.51757812 -523.0 L 1037.51757812 -509.0 L 1050.51757812 -495.0 L 1059.01757812 -484.666992188 L 1063.01757812 -478.0 L 1067.01757812 -471.333007812 L 1069.01757812 -464.833007812 L 1069.01757812 -458.5 L 1069.01757812 -452.166992188 L 1067.01757812 -448.0 L 1063.01757812 -446.0 L 1059.01757812 -444.0 L 1054.51757812 -443.0 L 1049.51757812 -443.0 L 1044.51757812 -443.0 L 1039.3515625 -444.0 L 1034.01757812 -446.0 L 1028.68457031 -448.0 L 1022.18457031 -450.166992188 L 1014.51757812 -452.5 L 1006.8515625 -454.833007812 L 998.3515625 -457.5 L 989.017578125 -460.5 L 979.684570312 -463.5 L 971.017578125 -465.666992188 L 963.017578125 -467.0 L 955.017578125 -468.333007812 L 944.3515625 -469.333007812 L 931.017578125 -470.0 L 872.017578125 -475.0 L 778.017578125 -471.666992188 L 697.184570312 -472.666992188 L 629.517578125 -478.0 L 561.8515625 -483.333007812 L 498.184570312 -490.0 L 438.517578125 -498.0 L 378.8515625 -506.0 L 326.184570312 -514.666992188 L 280.517578125 -524.0 L 234.8515625 -533.333007812 L 203.684570312 -541.0 L 187.017578125 -547.0 L 158.3515625 -559.0 L 132.8515625 -570.833007812 L 110.517578125 -582.5 L 88.1845703125 -594.166992188 L 60.017578125 -620.666992188 Z" fill="black" fill-opacity="0.25" stroke="black" stroke-width="4.0"/>
  <rect x="1133.0" y="-671.0" width="272.0" height="224.00000000000003" fill="none" stroke="red" stroke-width="10.0" /><rect x="1403.0" y="-671.0" width="272.0" height="224.00000000000003" fill="none" stroke="red" stroke-width="10.0" /><rect x="86.0" y="-393.0" width="1700.9999999999998" height="173.00000000000003" fill="none" stroke="red" stroke-width="10.0" /><rect x="-6.0" y="-834.0" width="1075.0" height="390.99999999999994" fill="none" stroke="red" stroke-width="10.0" />
</svg>
