<svg xmlns="http://www.w3.org/2000/svg"
  viewBox="-49.99977517157459 -985.9091437404975 1923.7156223423224 813.4882346250131">
  <rect x="-49.99977517157459" y="-985.9091437404975" width="1923.7156223423224" height="813.4882346250131" fill="white"/>
  <path d="M 830.265625 -530.0 L 839.265625 -492.0 L 839.265625 -489.333007812 L 842.765625 -482.833007812 L 849.765625 -472.5 L 856.765625 -462.166992188 L 860.265625 -455.666992188 L 860.265625 -453.0 L 860.265625 -450.333007812 L 854.765625 -448.0 L 843.765625 -446.0 L 832.765625 -444.0 L 825.265625 -443.0 L 821.265625 -443.0 L 760.265625 -443.0 L 752.265625 -443.0 L 744.765625 -448.666992188 L 737.765625 -460.0 L 730.765625 -471.333007812 L 726.265625 -482.0 L 724.265625 -492.0 L 716.265625 -531.0 L 638.265625 -531.0 L 566.598632812 -534.0 L 501.265625 -540.0 L 435.932617188 -546.0 L 389.598632812 -551.333007812 L 362.265625 -556.0 L 311.598632812 -564.0 L 269.765625 -578.0 L 236.765625 -598.0 L 203.765625 -618.0 L 181.932617188 -640.666992188 L 171.265625 -666.0 L 165.932617188 -678.666992188 L 156.265625 -697.5 L 142.265625 -722.5 L 128.265625 -747.5 L 113.598632812 -772.666992188 L 98.265625 -798.0 L 82.9326171875 -823.333007812 L 68.4326171875 -846.0 L 54.765625 -866.0 L 41.0986328125 -886.0 L 31.5986328125 -897.333007812 L 26.265625 -900.0 L -1.0673828125 -909.333007812 L -7.0673828125 -919.333007812 L 8.265625 -930.0 L 41.5986328125 -932.666992188 L 73.5986328125 -934.5 L 104.265625 -935.5 L 134.932617188 -936.5 L 166.265625 -935.666992188 L 198.265625 -933.0 L 230.265625 -931.0 L 253.098632812 -912.666992188 L 266.765625 -878.0 L 280.432617188 -843.333007812 L 294.265625 -798.0 L 308.265625 -742.0 L 322.265625 -686.0 L 339.432617188 -647.833007812 L 359.765625 -627.5 L 380.098632812 -607.166992188 L 415.265625 -590.333007812 L 465.265625 -577.0 L 493.265625 -569.0 L 527.265625 -564.0 L 567.265625 -562.0 L 607.265625 -560.0 L 655.598632812 -559.333007812 L 712.265625 -560.0 L 700.265625 -629.0 L 699.598632812 -632.333007812 L 696.265625 -636.833007812 L 690.265625 -642.5 L 684.265625 -648.166992188 L 681.265625 -652.333007812 L 681.265625 -655.0 L 681.265625 -659.0 L 686.598632812 -661.666992188 L 697.265625 -663.0 L 707.932617188 -664.333007812 L 715.598632812 -665.0 L 720.265625 -665.0 L 781.265625 -665.0 L 788.598632812 -665.0 L 795.765625 -659.833007812 L 802.765625 -649.5 L 809.765625 -639.166992188 L 814.598632812 -628.0 L 817.265625 -616.0 L 827.265625 -561.0 L 871.932617188 -561.666992188 L 902.265625 -563.166992188 L 918.265625 -565.5 L 934.265625 -567.833007812 L 951.932617188 -570.333007812 L 971.265625 -573.0 L 978.598632812 -572.333007812 L 982.932617188 -569.0 L 984.265625 -563.0 L 985.598632812 -557.0 L 983.932617188 -551.666992188 L 979.265625 -547.0 L 972.598632812 -541.666992188 L 958.932617188 -537.5 L 938.265625 -534.5 L 917.598632812 -531.5 L 881.598632812 -530.0 Z M 1437.265625 -671.0 L 1457.265625 -671.0 L 1478.265625 -670.666992188 L 1500.265625 -670.0 L 1522.265625 -669.333007812 L 1541.93261719 -667.333007812 L 1559.265625 -664.0 L 1571.93261719 -664.0 L 1586.265625 -647.0 L 1602.265625 -613.0 L 1618.265625 -579.0 L 1635.93261719 -541.666992188 L 1655.265625 -501.0 L 1661.265625 -487.0 L 1667.59863281 -479.0 L 1674.265625 -477.0 L 1679.59863281 -475.0 L 1683.59863281 -471.5 L 1686.265625 -466.5 L 1688.93261719 -461.5 L 1686.265625 -457.0 L 1678.265625 -453.0 L 1657.59863281 -449.0 L 1636.93261719 -447.333007812 L 1616.265625 -448.0 L 1595.59863281 -448.666992188 L 1575.59863281 -450.333007812 L 1556.265625 -453.0 L 1538.93261719 -461.0 L 1524.265625 -476.0 L 1512.265625 -498.0 L 1500.265625 -520.0 L 1484.265625 -559.666992188 L 1464.265625 -617.0 L 1462.265625 -620.333007812 L 1458.43261719 -625.5 L 1452.765625 -632.5 L 1447.09863281 -639.5 L 1440.93261719 -643.666992188 L 1434.265625 -645.0 L 1424.93261719 -646.333007812 L 1419.59863281 -651.0 L 1418.265625 -659.0 L 1416.93261719 -667.0 L 1423.265625 -671.0 Z M 1167.265625 -671.0 L 1187.265625 -671.0 L 1208.265625 -670.666992188 L 1230.265625 -670.0 L 1252.265625 -669.333007812 L 1271.93261719 -667.333007812 L 1289.265625 -664.0 L 1301.93261719 -664.0 L 1316.265625 -647.0 L 1332.265625 -613.0 L 1348.265625 -579.0 L 1365.93261719 -541.666992188 L 1385.265625 -501.0 L 1390.59863281 -487.0 L 1396.93261719 -479.0 L 1404.265625 -477.0 L 1408.93261719 -475.0 L 1412.765625 -471.5 L 1415.765625 -466.5 L 1418.765625 -461.5 L 1415.93261719 -457.0 L 1407.265625 -453.0 L 1387.265625 -449.0 L 1366.765625 -447.333007812 L 1345.765625 -448.0 L 1324.765625 -448.666992188 L 1304.93261719 -450.333007812 L 1286.265625 -453.0 L 1268.93261719 -461.0 L 1254.265625 -476.0 L 1242.265625 -498.0 L 1230.265625 -520.0 L 1213.93261719 -559.666992188 L 1193.265625 -617.0 L 1191.265625 -620.333007812 L 1187.59863281 -625.5 L 1182.265625 -632.5 L 1176.93261719 -639.5 L 1170.59863281 -643.666992188 L 1163.265625 -645.0 L 1153.93261719 -646.333007812 L 1148.765625 -651.0 L 1147.765625 -659.0 L 1146.765625 -667.0 L 1153.265625 -671.0 Z M 103.765625 -384.0 L 107.432617188 -389.333007812 L 111.265625 -392.166992188 L 115.265625 -392.5 L 119.265625 -392.833007812 L 123.765625 -391.666992188 L 128.765625 -389.0 L 133.765625 -386.333007812 L 139.932617188 -383.166992188 L 147.265625 -379.5 L 154.598632812 -375.833007812 L 163.932617188 -372.833007812 L 175.265625 -370.5 L 186.598632812 -368.166992188 L 202.598632812 -367.0 L 223.265625 -367.0 L 1632.265625 -367.0 L 1650.93261719 -367.0 L 1667.93261719 -365.5 L 1683.265625 -362.5 L 1698.59863281 -359.5 L 1712.59863281 -354.666992188 L 1725.265625 -348.0 L 1737.93261719 -341.333007812 L 1747.765625 -335.333007812 L 1754.765625 -330.0 L 1761.765625 -324.666992188 L 1771.43261719 -315.5 L 1783.765625 -302.5 L 1796.09863281 -289.5 L 1806.59863281 -277.0 L 1815.265625 -265.0 L 1823.93261719 -253.0 L 1825.93261719 -241.333007812 L 1821.265625 -230.0 L 1815.93261719 -222.0 L 1809.765625 -220.333007812 L 1802.765625 -225.0 L 1795.765625 -229.666992188 L 1787.59863281 -233.666992188 L 1778.265625 -237.0 L 1768.93261719 -240.333007812 L 1758.59863281 -242.666992188 L 1747.265625 -244.0 L 1735.93261719 -245.333007812 L 1718.93261719 -246.0 L 1696.265625 -246.0 L 301.265625 -246.0 L 285.932617188 -246.0 L 271.932617188 -247.0 L 259.265625 -249.0 L 246.598632812 -251.0 L 236.765625 -253.166992188 L 229.765625 -255.5 L 222.765625 -257.833007812 L 215.265625 -261.0 L 207.265625 -265.0 L 199.265625 -269.0 L 190.765625 -273.833007812 L 181.765625 -279.5 L 172.765625 -285.166992188 L 163.265625 -293.166992188 L 153.265625 -303.5 L 143.265625 -313.833007812 L 133.098632812 -325.833007812 L 122.765625 -339.5 L 112.432617188 -353.166992188 L 105.765625 -362.666992188 L 102.765625 -368.0 L 99.765625 -373.333007812 L 100.098632812 -378.666992188 Z" fill="black" fill-opacity="0.25" stroke="black" stroke-width="4.0"/>
  <rect x="-7.0" y="-936.0" width="993.0" height="493.00000000000006" fill="none" stroke="red" stroke-width="10.0" /><rect x="1417.0" y="-671.0" width="272.0" height="224.00000000000003" fill="none" stroke="red" stroke-width="10.0" /><rect x="1147.0" y="-671.0" width="272.0" height="224.00000000000003" fill="none" stroke="red" stroke-width="10.0" /><rect x="100.0" y="-393.0" width="1726.0" height="173.00000000000003" fill="none" stroke="red" stroke-width="10.0" />
</svg>
