<svg xmlns="http://www.w3.org/2000/svg"
  viewBox="-50 -985.909 1923.716 813.488">
  <rect x="-50" y="-985.909" width="1923.716" height="813.488" fill="white"/>
  <path d="M 830.266 -530 L 839.266 -492 L 839.266 -489.333 L 842.766 -482.833 L 849.766 -472.5 L 856.766 -462.167 L 860.266 -455.667 L 860.266 -453 L 860.266 -450.333 L 854.766 -448 L 843.766 -446 L 832.766 -444 L 825.266 -443 L 821.266 -443 L 760.266 -443 L 752.266 -443 L 744.766 -448.667 L 737.766 -460 L 730.766 -471.333 L 726.266 -482 L 724.266 -492 L 716.266 -531 L 638.266 -531 L 566.599 -534 L 501.266 -540 L 435.933 -546 L 389.599 -551.333 L 362.266 -556 L 311.599 -564 L 269.766 -578 L 236.766 -598 L 203.766 -618 L 181.933 -640.667 L 171.266 -666 L 165.933 -678.667 L 156.266 -697.5 L 142.266 -722.5 L 128.266 -747.5 L 113.599 -772.667 L 98.266 -798 L 82.933 -823.333 L 68.433 -846 L 54.766 -866 L 41.099 -886 L 31.599 -897.333 L 26.266 -900 L -1.067 -909.333 L -7.067 -919.333 L 8.266 -930 L 41.599 -932.667 L 73.599 -934.5 L 104.266 -935.5 L 134.933 -936.5 L 166.266 -935.667 L 198.266 -933 L 230.266 -931 L 253.099 -912.667 L 266.766 -878 L 280.433 -843.333 L 294.266 -798 L 308.266 -742 L 322.266 -686 L 339.433 -647.833 L 359.766 -627.5 L 380.099 -607.167 L 415.266 -590.333 L 465.266 -577 L 493.266 -569 L 527.266 -564 L 567.266 -562 L 607.266 -560 L 655.599 -559.333 L 712.266 -560 L 700.266 -629 L 699.599 -632.333 L 696.266 -636.833 L 690.266 -642.5 L 684.266 -648.167 L 681.266 -652.333 L 681.266 -655 L 681.266 -659 L 686.599 -661.667 L 697.266 -663 L 707.933 -664.333 L 715.599 -665 L 720.266 -665 L 781.266 -665 L 788.599 -665 L 795.766 -659.833 L 802.766 -649.5 L 809.766 -639.167 L 814.599 -628 L 817.266 -616 L 827.266 -561 L 871.933 -561.667 L 902.266 -563.167 L 918.266 -565.5 L 934.266 -567.833 L 951.933 -570.333 L 971.266 -573 L 978.599 -572.333 L 982.933 -569 L 984.266 -563 L 985.599 -557 L 983.933 -551.667 L 979.266 -547 L 972.599 -541.667 L 958.933 -537.5 L 938.266 -534.5 L 917.599 -531.5 L 881.599 -530 Z M 1437.266 -671 L 1457.266 -671 L 1478.266 -670.667 L 1500.266 -670 L 1522.266 -669.333 L 1541.933 -667.333 L 1559.266 -664 L 1571.933 -664 L 1586.266 -647 L 1602.266 -613 L 1618.266 -579 L 1635.933 -541.667 L 1655.266 -501 L 1661.266 -487 L 1667.599 -479 L 1674.266 -477 L 1679.599 -475 L 1683.599 -471.5 L 1686.266 -466.5 L 1688.933 -461.5 L 1686.266 -457 L 1678.266 -453 L 1657.599 -449 L 1636.933 -447.333 L 1616.266 -448 L 1595.599 -448.667 L 1575.599 -450.333 L 1556.266 -453 L 1538.933 -461 L 1524.266 -476 L 1512.266 -498 L 1500.266 -520 L 1484.266 -559.667 L 1464.266 -617 L 1462.266 -620.333 L 1458.433 -625.5 L 1452.766 -632.5 L 1447.099 -639.5 L 1440.933 -643.667 L 1434.266 -645 L 1424.933 -646.333 L 1419.599 -651 L 1418.266 -659 L 1416.933 -667 L 1423.266 -671 Z M 1167.266 -671 L 1187.266 -671 L 1208.266 -670.667 L 1230.266 -670 L 1252.266 -669.333 L 1271.933 -667.333 L 1289.266 -664 L 1301.933 -664 L 1316.266 -647 L 1332.266 -613 L 1348.266 -579 L 1365.933 -541.667 L 1385.266 -501 L 1390.599 -487 L 1396.933 -479 L 1404.266 -477 L 1408.933 -475 L 1412.766 -471.5 L 1415.766 -466.5 L 1418.766 -461.5 L 1415.933 -457 L 1407.266 -453 L 1387.266 -449 L 1366.766 -447.333 L 1345.766 -448 L 1324.766 -448.667 L 1304.933 -450.333 L 1286.266 -453 L 1268.933 -461 L 1254.266 -476 L 1242.266 -498 L 1230.266 -520 L 1213.933 -559.667 L 1193.266 -617 L 1191.266 -620.333 L 1187.599 -625.5 L 1182.266 -632.5 L 1176.933 -639.5 L 1170.599 -643.667 L 1163.266 -645 L 1153.933 -646.333 L 1148.766 -651 L 1147.766 -659 L 1146.766 -667 L 1153.266 -671 Z M 103.766 -384 L 107.433 -389.333 L 111.266 -392.167 L 115.266 -392.5 L 119.266 -392.833 L 123.766 -391.667 L 128.766 -389 L 133.766 -386.333 L 139.933 -383.167 L 147.266 -379.5 L 154.599 -375.833 L 163.933 -372.833 L 175.266 -370.5 L 186.599 -368.167 L 202.599 -367 L 223.266 -367 L 1632.266 -367 L 1650.933 -367 L 1667.933 -365.5 L 1683.266 -362.5 L 1698.599 -359.5 L 1712.599 -354.667 L 1725.266 -348 L 1737.933 -341.333 L 1747.766 -335.333 L 1754.766 -330 L 1761.766 -324.667 L 1771.433 -315.5 L 1783.766 -302.5 L 1796.099 -289.5 L 1806.599 -277 L 1815.266 -265 L 1823.933 -253 L 1825.933 -241.333 L 1821.266 -230 L 1815.933 -222 L 1809.766 -220.333 L 1802.766 -225 L 1795.766 -229.667 L 1787.599 -233.667 L 1778.266 -237 L 1768.933 -240.333 L 1758.599 -242.667 L 1747.266 -244 L 1735.933 -245.333 L 1718.933 -246 L 1696.266 -246 L 301.266 -246 L 285.933 -246 L 271.933 -247 L 259.266 -249 L 246.599 -251 L 236.766 -253.167 L 229.766 -255.5 L 222.766 -257.833 L 215.266 -261 L 207.266 -265 L 199.266 -269 L 190.766 -273.833 L 181.766 -279.5 L 172.766 -285.167 L 163.266 -293.167 L 153.266 -303.5 L 143.266 -313.833 L 133.099 -325.833 L 122.766 -339.5 L 112.433 -353.167 L 105.766 -362.667 L 102.766 -368 L 99.766 -373.333 L 100.099 -378.667 Z" fill="black" fill-opacity="0.25" stroke="black" stroke-width="4"/>
  <rect x="-7" y="-936" width="993" height="493" fill="none" stroke="red" stroke-width="10" /><rect x="1417" y="-671" width="272" height="224" fill="none" stroke="red" stroke-width="10" /><rect x="1147" y="-671" width="272" height="224" fill="none" stroke="red" stroke-width="10" /><rect x="100" y="-393" width="1726" height="173" fill="none" stroke="red" stroke-width="10" />
</svg>
