<svg xmlns="http://www.w3.org/2000/svg"
  viewBox="-50 -903.522 1991.226 731.101">
  <rect x="-50" y="-903.522" width="1991.226" height="731.101" fill="white"/>
  <path d="M 1511.25 -671 L 1531.25 -671 L 1552.25 -670.667 L 1574.25 -670 L 1596.25 -669.333 L 1615.917 -667.333 L 1633.25 -664 L 1645.917 -664 L 1660.25 -647 L 1676.25 -613 L 1692.25 -579 L 1709.917 -541.667 L 1729.25 -501 L 1735.25 -487 L 1741.583 -479 L 1748.25 -477 L 1752.917 -475 L 1756.75 -471.5 L 1759.75 -466.5 L 1762.75 -461.5 L 1759.917 -457 L 1751.25 -453 L 1731.25 -449 L 1710.75 -447.333 L 1689.75 -448 L 1668.75 -448.667 L 1648.917 -450.333 L 1630.25 -453 L 1612.917 -461 L 1598.25 -476 L 1586.25 -498 L 1574.25 -520 L 1557.917 -559.667 L 1537.25 -617 L 1535.917 -620.333 L 1532.417 -625.5 L 1526.75 -632.5 L 1521.083 -639.5 L 1514.917 -643.667 L 1508.25 -645 L 1498.917 -646.333 L 1493.583 -651 L 1492.25 -659 L 1490.917 -667 L 1497.25 -671 Z M 1241.25 -671 L 1261.25 -671 L 1282.25 -670.667 L 1304.25 -670 L 1326.25 -669.333 L 1345.917 -667.333 L 1363.25 -664 L 1375.917 -664 L 1390.25 -647 L 1406.25 -613 L 1422.25 -579 L 1439.583 -541.667 L 1458.25 -501 L 1464.25 -487 L 1470.583 -479 L 1477.25 -477 L 1482.583 -475 L 1486.75 -471.5 L 1489.75 -466.5 L 1492.75 -461.5 L 1489.917 -457 L 1481.25 -453 L 1460.583 -449 L 1439.917 -447.333 L 1419.25 -448 L 1398.583 -448.667 L 1378.917 -450.333 L 1360.25 -453 L 1342.25 -461 L 1327.417 -476 L 1315.75 -498 L 1304.083 -520 L 1287.917 -559.667 L 1267.25 -617 L 1265.25 -620.333 L 1261.583 -625.5 L 1256.25 -632.5 L 1250.917 -639.5 L 1244.583 -643.667 L 1237.25 -645 L 1227.917 -646.333 L 1222.75 -651 L 1221.75 -659 L 1220.75 -667 L 1227.25 -671 Z M 92.75 -384 L 96.417 -389.333 L 100.25 -392.167 L 104.25 -392.5 L 108.25 -392.833 L 112.75 -391.667 L 117.75 -389 L 122.75 -386.333 L 128.917 -383.167 L 136.25 -379.5 L 143.583 -375.833 L 152.917 -372.833 L 164.25 -370.5 L 175.583 -368.167 L 191.583 -367 L 212.25 -367 L 1699.25 -367 L 1717.917 -367 L 1735.083 -365.5 L 1750.75 -362.5 L 1766.417 -359.5 L 1780.583 -354.667 L 1793.25 -348 L 1805.917 -341.333 L 1815.75 -335.333 L 1822.75 -330 L 1829.75 -324.667 L 1839.25 -315.5 L 1851.25 -302.5 L 1863.25 -289.5 L 1873.75 -277 L 1882.75 -265 L 1891.75 -253 L 1893.583 -241.333 L 1888.25 -230 L 1882.917 -222 L 1876.75 -220.333 L 1869.75 -225 L 1862.75 -229.667 L 1854.583 -233.667 L 1845.25 -237 L 1835.917 -240.333 L 1825.583 -242.667 L 1814.25 -244 L 1802.917 -245.333 L 1785.917 -246 L 1763.25 -246 L 290.25 -246 L 274.917 -246 L 260.917 -247 L 248.25 -249 L 235.583 -251 L 225.75 -253.167 L 218.75 -255.5 L 211.75 -257.833 L 204.25 -261 L 196.25 -265 L 188.25 -269 L 179.75 -273.833 L 170.75 -279.5 L 161.75 -285.167 L 152.25 -293.167 L 142.25 -303.5 L 132.25 -313.833 L 122.083 -325.833 L 111.75 -339.5 L 101.417 -353.167 L 94.75 -362.667 L 91.75 -368 L 88.75 -373.333 L 89.083 -378.667 Z M 296.25 -489 L 270.917 -479.667 L 228.25 -480 L 168.25 -490 L 132.917 -498.667 L 101.583 -510.333 L 74.25 -525 L 46.917 -539.667 L 25.917 -565.333 L 11.25 -602 L 1.25 -637.333 L -2.083 -665.667 L 1.25 -687 L 4.583 -708.333 L 16.583 -732.667 L 37.25 -760 L 56.583 -783.333 L 79.083 -801 L 104.75 -813 L 130.417 -825 L 161.917 -835 L 199.25 -843 L 236.583 -850.333 L 266.917 -853.833 L 290.25 -853.5 L 313.583 -853.167 L 338.583 -852.333 L 365.25 -851 L 391.917 -849.667 L 416.75 -847.5 L 439.75 -844.5 L 462.75 -841.5 L 490.583 -835 L 523.25 -825 L 577.25 -810.333 L 630.583 -790 L 683.25 -764 L 712.583 -749.333 L 743.917 -733.5 L 777.25 -716.5 L 810.583 -699.5 L 847.583 -679.667 L 888.25 -657 L 906.917 -645.667 L 927.25 -633.5 L 949.25 -620.5 L 971.25 -607.5 L 995.25 -594.333 L 1021.25 -581 L 1040.583 -569 L 1059.583 -556.833 L 1078.25 -544.5 L 1096.917 -532.167 L 1104.75 -519.833 L 1101.75 -507.5 L 1098.75 -495.167 L 1091.583 -489.333 L 1080.25 -490 L 1068.917 -490.667 L 1033.25 -490.333 L 973.25 -489 L 913.25 -487.667 L 860.917 -487.667 L 816.25 -489 L 798.25 -502.333 L 798.417 -511.833 L 816.75 -517.5 L 835.083 -523.167 L 848.583 -530.333 L 857.25 -539 L 873.917 -556.333 L 881.417 -570 L 879.75 -580 L 878.083 -590 L 875.417 -597.833 L 871.75 -603.5 L 868.083 -609.167 L 862.583 -615.333 L 855.25 -622 L 847.917 -628.667 L 829.75 -641.833 L 800.75 -661.5 L 771.75 -681.167 L 735.583 -702 L 692.25 -724 L 653.583 -740.667 L 623.25 -754.5 L 601.25 -765.5 L 579.25 -776.5 L 543.583 -788.667 L 494.25 -802 L 457.583 -809.333 L 420.25 -813.667 L 382.25 -815 L 344.25 -816.333 L 305.917 -810.667 L 267.25 -798 L 239.917 -786 L 220.583 -775.833 L 209.25 -767.5 L 197.917 -759.167 L 185.25 -744.333 L 171.25 -723 L 159.25 -703 L 152.417 -686.167 L 150.75 -672.5 L 149.083 -658.833 L 148.917 -642.667 L 150.25 -624 L 150.917 -605.333 L 153.083 -592 L 156.75 -584 L 160.417 -576 L 165.25 -567.667 L 171.25 -559 L 177.25 -550.333 L 184.75 -542.5 L 193.75 -535.5 L 202.75 -528.5 L 216.417 -523.5 L 234.75 -520.5 L 253.083 -517.5 L 271.583 -515 L 290.25 -513 L 298.25 -511.667 L 303.25 -508.5 L 305.25 -503.5 L 307.25 -498.5 L 304.25 -493.667 Z" fill="black" fill-opacity="0.25" stroke="black" stroke-width="4"/>
  <rect x="1491" y="-671" width="272" height="224" fill="none" stroke="red" stroke-width="10" /><rect x="1221" y="-671" width="272" height="224" fill="none" stroke="red" stroke-width="10" /><rect x="89" y="-393" width="1805" height="173" fill="none" stroke="red" stroke-width="10" /><rect x="-2" y="-854" width="1107" height="374" fill="none" stroke="red" stroke-width="10" />
</svg>
