<svg xmlns="http://www.w3.org/2000/svg"
  viewBox="-50 -874 1436.754 701.579">
  <rect x="-50" y="-874" width="1436.754" height="701.579" fill="white"/>
  <path d="M 607.777 -475 L 599.777 -481 L 599.111 -486.5 L 605.777 -491.5 L 612.444 -496.5 L 620.777 -499 L 630.777 -499 L 641.444 -499 L 656.611 -508.833 L 676.277 -528.5 L 695.944 -548.167 L 708.777 -572.333 L 714.777 -601 L 724.777 -649.667 L 699.444 -689.667 L 638.777 -721 L 615.444 -732.333 L 586.111 -742.333 L 550.777 -751 L 515.444 -759.667 L 480.444 -767.333 L 445.777 -774 L 411.111 -780.667 L 380.444 -786.167 L 353.777 -790.5 L 327.111 -794.833 L 311.777 -798 L 307.777 -800 L 298.444 -803.333 L 294.777 -808.167 L 296.777 -814.5 L 298.777 -820.833 L 303.777 -824 L 311.777 -824 L 315.777 -824 L 330.611 -822.333 L 356.277 -819 L 381.944 -815.667 L 412.944 -811 L 449.277 -805 L 485.611 -799 L 523.944 -791.333 L 564.277 -782 L 604.611 -772.667 L 641.111 -761.667 L 673.777 -749 L 713.111 -733.667 L 744.444 -718.167 L 767.777 -702.5 L 791.111 -686.833 L 812.777 -666 L 832.777 -640 L 852.111 -613.333 L 860.277 -587.167 L 857.277 -561.5 L 854.277 -535.833 L 842.777 -515.667 L 822.777 -501 L 804.777 -487.667 L 784.277 -478.833 L 761.277 -474.5 L 738.277 -470.167 L 716.444 -468 L 695.777 -468 L 663.777 -468 L 663.777 -468 L 651.277 -468 L 642.944 -468 L 628.444 -470.333 Z M 2.777 -384 L 6.111 -389.333 L 9.944 -392.167 L 14.277 -392.5 L 18.611 -392.833 L 23.111 -391.667 L 27.777 -389 L 32.444 -386.333 L 38.444 -383.167 L 45.777 -379.5 L 53.111 -375.833 L 62.444 -372.833 L 73.777 -370.5 L 85.111 -368.167 L 101.111 -367 L 121.777 -367 L 1145.777 -367 L 1164.444 -367 L 1181.444 -365.5 L 1196.777 -362.5 L 1212.111 -359.5 L 1226.111 -354.667 L 1238.777 -348 L 1251.444 -341.333 L 1261.277 -335.333 L 1268.277 -330 L 1275.277 -324.667 L 1284.777 -315.5 L 1296.777 -302.5 L 1308.777 -289.5 L 1319.277 -277 L 1328.277 -265 L 1337.277 -253 L 1339.111 -241.333 L 1333.777 -230 L 1328.444 -222 L 1322.277 -220.333 L 1315.277 -225 L 1308.277 -229.667 L 1300.111 -233.667 L 1290.777 -237 L 1281.444 -240.333 L 1271.277 -242.667 L 1260.277 -244 L 1249.277 -245.333 L 1232.111 -246 L 1208.777 -246 L 199.777 -246 L 184.444 -246 L 170.444 -247 L 157.777 -249 L 145.111 -251 L 135.277 -253.167 L 128.277 -255.5 L 121.277 -257.833 L 113.777 -261 L 105.777 -265 L 97.777 -269 L 89.277 -273.833 L 80.277 -279.5 L 71.277 -285.167 L 61.777 -293.167 L 51.777 -303.5 L 41.777 -313.833 L 31.611 -325.833 L 21.277 -339.5 L 10.944 -353.167 L 4.444 -362.667 L 1.777 -368 L -0.889 -373.333 L -0.556 -378.667 Z" fill="black" fill-opacity="0.25" stroke="black" stroke-width="4"/>
  <rect x="295" y="-824" width="565" height="356" fill="none" stroke="red" stroke-width="10" /><rect x="-1" y="-393" width="1340" height="173" fill="none" stroke="red" stroke-width="10" />
</svg>
