<svg xmlns="http://www.w3.org/2000/svg"
  viewBox="-50.00005894218928 -712.0 1392.8253946059476 539.5790908845156">
  <rect x="-50.00005894218928" y="-712.0" width="1392.8253946059476" height="539.5790908845156" fill="white"/>
  <path d="M 670.77734375 -660.0 L 693.444335938 -660.0 L 717.27734375 -659.833007812 L 742.27734375 -659.5 L 767.27734375 -659.166992188 L 790.111328125 -657.666992188 L 810.77734375 -655.0 L 824.77734375 -655.0 L 838.111328125 -638.0 L 850.77734375 -604.0 L 863.444335938 -570.0 L 881.111328125 -536.0 L 903.77734375 -502.0 L 911.77734375 -490.0 L 919.111328125 -483.666992188 L 925.77734375 -483.0 L 931.77734375 -481.666992188 L 936.444335938 -478.833007812 L 939.77734375 -474.5 L 943.111328125 -470.166992188 L 939.77734375 -466.333007812 L 929.77734375 -463.0 L 906.444335938 -459.666992188 L 883.111328125 -458.333007812 L 859.77734375 -459.0 L 836.444335938 -459.666992188 L 814.111328125 -461.0 L 792.77734375 -463.0 L 772.111328125 -469.666992188 L 757.444335938 -485.166992188 L 748.77734375 -509.5 L 740.111328125 -533.833007812 L 724.111328125 -569.666992188 L 700.77734375 -617.0 L 694.111328125 -627.666992188 L 682.77734375 -634.333007812 L 666.77734375 -637.0 L 656.111328125 -638.333007812 L 650.111328125 -642.5 L 648.77734375 -649.5 L 647.444335938 -656.5 L 654.77734375 -660.0 Z M 421.77734375 -662.0 L 441.77734375 -662.0 L 462.77734375 -661.666992188 L 484.77734375 -661.0 L 506.77734375 -660.333007812 L 526.444335938 -658.666992188 L 543.77734375 -656.0 L 556.444335938 -656.0 L 569.77734375 -638.5 L 583.77734375 -603.5 L 597.77734375 -568.5 L 614.111328125 -534.333007812 L 632.77734375 -501.0 L 639.444335938 -489.0 L 645.77734375 -482.333007812 L 651.77734375 -481.0 L 657.111328125 -479.666992188 L 661.27734375 -477.0 L 664.27734375 -473.0 L 667.27734375 -469.0 L 664.444335938 -465.333007812 L 655.77734375 -462.0 L 635.111328125 -458.666992188 L 614.611328125 -457.333007812 L 594.27734375 -458.0 L 573.944335938 -458.666992188 L 554.444335938 -460.0 L 535.77734375 -462.0 L 518.444335938 -468.666992188 L 504.77734375 -484.333007812 L 494.77734375 -509.0 L 484.77734375 -533.666992188 L 469.444335938 -570.0 L 448.77734375 -618.0 L 446.77734375 -620.666992188 L 443.111328125 -624.833007812 L 437.77734375 -630.5 L 432.444335938 -636.166992188 L 426.111328125 -639.666992188 L 418.77734375 -641.0 L 409.444335938 -642.333007812 L 404.111328125 -646.0 L 402.77734375 -652.0 L 401.444335938 -658.0 L 407.77734375 -661.333007812 Z M 2.77734375 -384.0 L 6.111328125 -389.333007812 L 9.9443359375 -392.166992188 L 14.27734375 -392.5 L 18.611328125 -392.833007812 L 23.111328125 -391.666992188 L 27.77734375 -389.0 L 32.4443359375 -386.333007812 L 38.4443359375 -383.166992188 L 45.77734375 -379.5 L 53.111328125 -375.833007812 L 62.4443359375 -372.833007812 L 73.77734375 -370.5 L 85.111328125 -368.166992188 L 101.111328125 -367.0 L 121.77734375 -367.0 L 1101.77734375 -367.0 L 1120.44433594 -367.0 L 1137.44433594 -365.5 L 1152.77734375 -362.5 L 1168.11132812 -359.5 L 1182.11132812 -354.666992188 L 1194.77734375 -348.0 L 1207.44433594 -341.333007812 L 1217.27734375 -335.333007812 L 1224.27734375 -330.0 L 1231.27734375 -324.666992188 L 1240.94433594 -315.5 L 1253.27734375 -302.5 L 1265.61132812 -289.5 L 1276.11132812 -277.0 L 1284.77734375 -265.0 L 1293.44433594 -253.0 L 1295.11132812 -241.333007812 L 1289.77734375 -230.0 L 1284.44433594 -222.0 L 1278.27734375 -220.333007812 L 1271.27734375 -225.0 L 1264.27734375 -229.666992188 L 1256.11132812 -233.666992188 L 1246.77734375 -237.0 L 1237.44433594 -240.333007812 L 1227.27734375 -242.666992188 L 1216.27734375 -244.0 L 1205.27734375 -245.333007812 L 1188.11132812 -246.0 L 1164.77734375 -246.0 L 199.77734375 -246.0 L 184.444335938 -246.0 L 170.444335938 -247.0 L 157.77734375 -249.0 L 145.111328125 -251.0 L 135.27734375 -253.166992188 L 128.27734375 -255.5 L 121.27734375 -257.833007812 L 113.77734375 -261.0 L 105.77734375 -265.0 L 97.77734375 -269.0 L 89.27734375 -273.833007812 L 80.27734375 -279.5 L 71.27734375 -285.166992188 L 61.77734375 -293.166992188 L 51.77734375 -303.5 L 41.77734375 -313.833007812 L 31.611328125 -325.833007812 L 21.27734375 -339.5 L 10.9443359375 -353.166992188 L 4.4443359375 -362.666992188 L 1.77734375 -368.0 L -0.888671875 -373.333007812 L -0.5556640625 -378.666992188 Z" fill="black" fill-opacity="0.25" stroke="black" stroke-width="4.0"/>
  <rect x="647.0" y="-660.0" width="295.99999999999994" height="202.0" fill="none" stroke="red" stroke-width="10.0" /><rect x="401.0" y="-662.0" width="266.0" height="205.00000000000003" fill="none" stroke="red" stroke-width="10.0" /><rect x="-1.0" y="-393.0" width="1295.9999999999998" height="173.00000000000003" fill="none" stroke="red" stroke-width="10.0" />
</svg>
