<svg xmlns="http://www.w3.org/2000/svg"
  viewBox="-50 -916.522 1436.754 744.101">
  <rect x="-50" y="-916.522" width="1436.754" height="744.101" fill="white"/>
  <path d="M 2.777 -384 L 6.111 -389.333 L 9.944 -392.167 L 14.277 -392.5 L 18.611 -392.833 L 23.111 -391.667 L 27.777 -389 L 32.444 -386.333 L 38.444 -383.167 L 45.777 -379.5 L 53.111 -375.833 L 62.444 -372.833 L 73.777 -370.5 L 85.111 -368.167 L 101.111 -367 L 121.777 -367 L 1145.777 -367 L 1164.444 -367 L 1181.444 -365.5 L 1196.777 -362.5 L 1212.111 -359.5 L 1226.111 -354.667 L 1238.777 -348 L 1251.444 -341.333 L 1261.277 -335.333 L 1268.277 -330 L 1275.277 -324.667 L 1284.777 -315.5 L 1296.777 -302.5 L 1308.777 -289.5 L 1319.277 -277 L 1328.277 -265 L 1337.277 -253 L 1339.111 -241.333 L 1333.777 -230 L 1328.444 -222 L 1322.277 -220.333 L 1315.277 -225 L 1308.277 -229.667 L 1300.111 -233.667 L 1290.777 -237 L 1281.444 -240.333 L 1271.277 -242.667 L 1260.277 -244 L 1249.277 -245.333 L 1232.111 -246 L 1208.777 -246 L 199.777 -246 L 184.444 -246 L 170.444 -247 L 157.777 -249 L 145.111 -251 L 135.277 -253.167 L 128.277 -255.5 L 121.277 -257.833 L 113.777 -261 L 105.777 -265 L 97.777 -269 L 89.277 -273.833 L 80.277 -279.5 L 71.277 -285.167 L 61.777 -293.167 L 51.777 -303.5 L 41.777 -313.833 L 31.611 -325.833 L 21.277 -339.5 L 10.944 -353.167 L 4.444 -362.667 L 1.777 -368 L -0.889 -373.333 L -0.556 -378.667 Z M 350.777 -502 L 325.444 -492.667 L 282.777 -493 L 222.777 -503 L 187.444 -511.667 L 156.111 -523.333 L 128.777 -538 L 101.444 -552.667 L 80.444 -578.667 L 65.777 -616 L 55.777 -651.333 L 52.611 -679.5 L 56.277 -700.5 L 59.944 -721.5 L 71.777 -745.667 L 91.777 -773 L 111.111 -796.333 L 133.611 -814 L 159.277 -826 L 184.944 -838 L 216.444 -848 L 253.777 -856 L 291.111 -863.333 L 321.444 -866.833 L 344.777 -866.5 L 368.111 -866.167 L 393.111 -865.667 L 419.777 -865 L 446.444 -863.667 L 471.277 -861.333 L 494.277 -858 L 517.277 -854.667 L 545.111 -848 L 577.777 -838 L 631.777 -823.333 L 685.111 -803 L 737.777 -777 L 767.111 -762.333 L 798.444 -746.5 L 831.777 -729.5 L 865.111 -712.5 L 902.111 -692.667 L 942.777 -670 L 961.444 -658.667 L 981.777 -646.5 L 1003.777 -633.5 L 1025.777 -620.5 L 1049.777 -607.333 L 1075.777 -594 L 1095.111 -582 L 1114.111 -569.833 L 1132.777 -557.5 L 1151.444 -545.167 L 1159.277 -532.833 L 1156.277 -520.5 L 1153.277 -508.167 L 1146.111 -502.333 L 1134.777 -503 L 1123.444 -503.667 L 1087.777 -503.333 L 1027.777 -502 L 967.777 -500.667 L 915.444 -500.667 L 870.777 -502 L 852.777 -515.333 L 852.944 -524.833 L 871.277 -530.5 L 889.611 -536.167 L 903.111 -543.333 L 911.777 -552 L 928.444 -569.333 L 935.944 -583 L 934.277 -593 L 932.611 -603 L 929.944 -610.833 L 926.277 -616.5 L 922.611 -622.167 L 917.111 -628.333 L 909.777 -635 L 902.444 -641.667 L 884.277 -654.833 L 855.277 -674.5 L 826.277 -694.167 L 790.444 -715.333 L 747.777 -738 L 709.111 -754.667 L 678.777 -768.333 L 656.777 -779 L 634.777 -789.667 L 598.777 -801.667 L 548.777 -815 L 512.111 -822.333 L 474.777 -826.667 L 436.777 -828 L 398.777 -829.333 L 360.444 -823.667 L 321.777 -811 L 294.444 -799 L 275.111 -788.833 L 263.777 -780.5 L 252.444 -772.167 L 240.111 -757.667 L 226.777 -737 L 214.777 -717 L 207.777 -700 L 205.777 -686 L 203.777 -672 L 203.444 -655.667 L 204.777 -637 L 205.444 -618.333 L 207.611 -605 L 211.277 -597 L 214.944 -589 L 219.777 -580.667 L 225.777 -572 L 231.777 -563.333 L 239.277 -555.5 L 248.277 -548.5 L 257.277 -541.5 L 270.944 -536.5 L 289.277 -533.5 L 307.611 -530.5 L 326.111 -528 L 344.777 -526 L 352.777 -524.667 L 357.777 -521.5 L 359.777 -516.5 L 361.777 -511.5 L 358.777 -506.667 Z M 557.777 -449 L 551.777 -453.667 L 551.277 -458.333 L 556.277 -463 L 561.277 -467.667 L 568.111 -470 L 576.777 -470 L 585.444 -470 L 597.944 -478 L 614.277 -494 L 630.611 -510 L 641.444 -529.667 L 646.777 -553 L 655.444 -593.667 L 634.111 -627 L 582.777 -653 L 564.111 -662.333 L 540.111 -670.5 L 510.777 -677.5 L 481.444 -684.5 L 452.444 -690.833 L 423.777 -696.5 L 395.111 -702.167 L 369.777 -706.667 L 347.777 -710 L 325.777 -713.333 L 313.111 -716 L 309.777 -718 L 302.444 -720.667 L 299.611 -724.5 L 301.277 -729.5 L 302.944 -734.5 L 306.777 -737 L 312.777 -737 L 316.111 -737 L 328.444 -735.667 L 349.777 -733 L 371.111 -730.333 L 396.777 -726.667 L 426.777 -722 L 456.777 -717.333 L 488.444 -711 L 521.777 -703 L 555.111 -695 L 585.444 -686 L 612.777 -676 L 644.777 -662.667 L 670.444 -649.667 L 689.777 -637 L 709.111 -624.333 L 726.777 -607.333 L 742.777 -586 L 758.777 -564 L 765.611 -542.333 L 763.277 -521 L 760.944 -499.667 L 751.444 -483 L 734.777 -471 L 720.111 -459.667 L 703.277 -452.167 L 684.277 -448.5 L 665.277 -444.833 L 647.111 -443 L 629.777 -443 L 603.777 -443 L 603.777 -443 L 593.777 -443 L 587.111 -443 L 575.111 -445 Z" fill="black" fill-opacity="0.25" stroke="black" stroke-width="4"/>
  <rect x="-1" y="-393" width="1340" height="173" fill="none" stroke="red" stroke-width="10" /><rect x="53" y="-867" width="1106" height="374" fill="none" stroke="red" stroke-width="10" /><rect x="300" y="-737" width="466" height="294" fill="none" stroke="red" stroke-width="10" />
</svg>
