<svg xmlns="http://www.w3.org/2000/svg"
  viewBox="-50.00005894218928 -442.55548054709203 1436.8253946059476 515.1008544139257">
  <rect x="-50.00005894218928" y="-442.55548054709203" width="1436.8253946059476" height="515.1008544139257" fill="white"/>
  <path d="M 795.77734375 -180.0 L 818.444335938 -180.0 L 842.444335938 -179.833007812 L 867.77734375 -179.5 L 893.111328125 -179.166992188 L 915.77734375 -177.666992188 L 935.77734375 -175.0 L 949.77734375 -175.0 L 963.111328125 -158.0 L 975.77734375 -124.0 L 988.444335938 -90.0 L 1006.44433594 -56.0 L 1029.77734375 -22.0 L 1037.77734375 -10.0 L 1045.11132812 -3.3330078125 L 1051.77734375 -2.0 L 1057.77734375 -0.6669921875 L 1062.44433594 2.0 L 1065.77734375 6.0 L 1069.11132812 10.0 L 1065.77734375 13.6669921875 L 1055.77734375 17.0 L 1032.44433594 20.3330078125 L 1008.94433594 21.6669921875 L 985.27734375 21.0 L 961.611328125 20.3330078125 L 939.111328125 19.0 L 917.77734375 17.0 L 897.77734375 10.3330078125 L 883.444335938 -5.1669921875 L 874.77734375 -29.5 L 866.111328125 -53.8330078125 L 850.111328125 -89.6669921875 L 826.77734375 -137.0 L 819.444335938 -148.333007812 L 808.111328125 -155.0 L 792.77734375 -157.0 L 782.111328125 -158.333007812 L 775.944335938 -162.5 L 774.27734375 -169.5 L 772.611328125 -176.5 L 779.77734375 -180.0 Z M 547.77734375 -181.0 L 567.77734375 -181.0 L 588.611328125 -180.833007812 L 610.27734375 -180.5 L 631.944335938 -180.166992188 L 651.77734375 -178.666992188 L 669.77734375 -176.0 L 682.444335938 -176.0 L 695.611328125 -158.5 L 709.27734375 -123.5 L 722.944335938 -88.5 L 739.444335938 -54.0 L 758.77734375 -20.0 L 764.77734375 -8.0 L 771.111328125 -1.6669921875 L 777.77734375 -1.0 L 783.111328125 0.3330078125 L 787.111328125 3.0 L 789.77734375 7.0 L 792.444335938 11.0 L 789.77734375 14.6669921875 L 781.77734375 18.0 L 761.77734375 21.3330078125 L 741.27734375 22.8330078125 L 720.27734375 22.5 L 699.27734375 22.1669921875 L 679.444335938 20.6669921875 L 660.77734375 18.0 L 643.444335938 11.3330078125 L 629.77734375 -4.3330078125 L 619.77734375 -29.0 L 609.77734375 -53.6669921875 L 594.444335938 -89.6669921875 L 573.77734375 -137.0 L 571.77734375 -139.666992188 L 568.111328125 -144.0 L 562.77734375 -150.0 L 557.444335938 -156.0 L 551.111328125 -159.666992188 L 543.77734375 -161.0 L 534.444335938 -162.333007812 L 529.27734375 -166.0 L 528.27734375 -172.0 L 527.27734375 -178.0 L 533.77734375 -181.0 Z M 2.77734375 -384.0 L 6.111328125 -389.333007812 L 9.9443359375 -392.166992188 L 14.27734375 -392.5 L 18.611328125 -392.833007812 L 23.27734375 -391.666992188 L 28.27734375 -389.0 L 33.27734375 -386.333007812 L 39.27734375 -383.166992188 L 46.27734375 -379.5 L 53.27734375 -375.833007812 L 62.4443359375 -372.833007812 L 73.77734375 -370.5 L 85.111328125 -368.166992188 L 101.111328125 -367.0 L 121.77734375 -367.0 L 1145.77734375 -367.0 L 1164.44433594 -367.0 L 1181.44433594 -365.5 L 1196.77734375 -362.5 L 1212.11132812 -359.5 L 1226.11132812 -354.666992188 L 1238.77734375 -348.0 L 1251.44433594 -341.333007812 L 1261.27734375 -335.333007812 L 1268.27734375 -330.0 L 1275.27734375 -324.666992188 L 1284.94433594 -315.5 L 1297.27734375 -302.5 L 1309.61132812 -289.5 L 1320.11132812 -277.0 L 1328.77734375 -265.0 L 1337.44433594 -253.0 L 1339.11132812 -241.333007812 L 1333.77734375 -230.0 L 1328.44433594 -222.0 L 1322.44433594 -220.333007812 L 1315.77734375 -225.0 L 1309.11132812 -229.666992188 L 1300.94433594 -233.666992188 L 1291.27734375 -237.0 L 1281.61132812 -240.333007812 L 1271.27734375 -242.666992188 L 1260.27734375 -244.0 L 1249.27734375 -245.333007812 L 1232.11132812 -246.0 L 1208.77734375 -246.0 L 199.77734375 -246.0 L 184.444335938 -246.0 L 170.611328125 -247.0 L 158.27734375 -249.0 L 145.944335938 -251.0 L 136.111328125 -253.166992188 L 128.77734375 -255.5 L 121.444335938 -257.833007812 L 113.944335938 -261.0 L 106.27734375 -265.0 L 98.611328125 -269.0 L 90.27734375 -273.833007812 L 81.27734375 -279.5 L 72.27734375 -285.166992188 L 62.611328125 -293.166992188 L 52.27734375 -303.5 L 41.9443359375 -313.833007812 L 31.611328125 -325.833007812 L 21.27734375 -339.5 L 10.9443359375 -353.166992188 L 4.4443359375 -362.666992188 L 1.77734375 -368.0 L -0.888671875 -373.333007812 L -0.5556640625 -378.666992188 Z" fill="black" fill-opacity="0.25" stroke="black" stroke-width="4.0"/>
  <rect x="773.0" y="-180.0" width="295.99999999999994" height="201.99999999999997" fill="none" stroke="red" stroke-width="10.0" /><rect x="527.0" y="-181.0" width="265.0" height="204.0" fill="none" stroke="red" stroke-width="10.0" /><rect x="-1.0" y="-393.0" width="1339.9999999999998" height="173.00000000000003" fill="none" stroke="red" stroke-width="10.0" />
</svg>
