<svg xmlns="http://www.w3.org/2000/svg"
  viewBox="-50.00005894218928 -833.0 1436.7544334076463 660.5790908845156">
  <rect x="-50.00005894218928" y="-833.0" width="1436.7544334076463" height="660.5790908845156" fill="white"/>
  <path d="M 510.77734375 -783.0 L 533.444335938 -783.0 L 557.444335938 -782.833007812 L 582.77734375 -782.5 L 608.111328125 -782.166992188 L 630.77734375 -780.333007812 L 650.77734375 -777.0 L 664.77734375 -777.0 L 680.27734375 -749.5 L 697.27734375 -694.5 L 714.27734375 -639.5 L 734.444335938 -591.0 L 757.77734375 -549.0 L 765.77734375 -535.0 L 773.111328125 -527.333007812 L 779.77734375 -526.0 L 785.77734375 -524.0 L 790.27734375 -520.5 L 793.27734375 -515.5 L 796.27734375 -510.5 L 793.111328125 -506.0 L 783.77734375 -502.0 L 760.444335938 -498.0 L 736.944335938 -496.333007812 L 713.27734375 -497.0 L 689.611328125 -497.666992188 L 667.111328125 -499.333007812 L 645.77734375 -502.0 L 625.77734375 -510.0 L 609.27734375 -535.5 L 596.27734375 -578.5 L 583.27734375 -621.5 L 565.111328125 -672.0 L 541.77734375 -730.0 L 539.77734375 -733.333007812 L 535.611328125 -737.833007812 L 529.27734375 -743.5 L 522.944335938 -749.166992188 L 515.77734375 -753.0 L 507.77734375 -755.0 L 497.111328125 -757.0 L 490.944335938 -762.166992188 L 489.27734375 -770.5 L 487.611328125 -778.833007812 L 494.77734375 -783.0 Z M 2.77734375 -384.0 L 6.111328125 -389.333007812 L 9.9443359375 -392.166992188 L 14.27734375 -392.5 L 18.611328125 -392.833007812 L 23.111328125 -391.666992188 L 27.77734375 -389.0 L 32.4443359375 -386.333007812 L 38.4443359375 -383.166992188 L 45.77734375 -379.5 L 53.111328125 -375.833007812 L 62.4443359375 -372.833007812 L 73.77734375 -370.5 L 85.111328125 -368.166992188 L 101.111328125 -367.0 L 121.77734375 -367.0 L 1145.77734375 -367.0 L 1164.44433594 -367.0 L 1181.44433594 -365.5 L 1196.77734375 -362.5 L 1212.11132812 -359.5 L 1226.11132812 -354.666992188 L 1238.77734375 -348.0 L 1251.44433594 -341.333007812 L 1261.27734375 -335.333007812 L 1268.27734375 -330.0 L 1275.27734375 -324.666992188 L 1284.77734375 -315.5 L 1296.77734375 -302.5 L 1308.77734375 -289.5 L 1319.27734375 -277.0 L 1328.27734375 -265.0 L 1337.27734375 -253.0 L 1339.11132812 -241.333007812 L 1333.77734375 -230.0 L 1328.44433594 -222.0 L 1322.27734375 -220.333007812 L 1315.27734375 -225.0 L 1308.27734375 -229.666992188 L 1300.11132812 -233.666992188 L 1290.77734375 -237.0 L 1281.44433594 -240.333007812 L 1271.27734375 -242.666992188 L 1260.27734375 -244.0 L 1249.27734375 -245.333007812 L 1232.11132812 -246.0 L 1208.77734375 -246.0 L 199.77734375 -246.0 L 184.444335938 -246.0 L 170.444335938 -247.0 L 157.77734375 -249.0 L 145.111328125 -251.0 L 135.27734375 -253.166992188 L 128.27734375 -255.5 L 121.27734375 -257.833007812 L 113.77734375 -261.0 L 105.77734375 -265.0 L 97.77734375 -269.0 L 89.27734375 -273.833007812 L 80.27734375 -279.5 L 71.27734375 -285.166992188 L 61.77734375 -293.166992188 L 51.77734375 -303.5 L 41.77734375 -313.833007812 L 31.611328125 -325.833007812 L 21.27734375 -339.5 L 10.9443359375 -353.166992188 L 4.4443359375 -362.666992188 L 1.77734375 -368.0 L -0.888671875 -373.333007812 L -0.5556640625 -378.666992188 Z" fill="black" fill-opacity="0.25" stroke="black" stroke-width="4.0"/>
  <rect x="488.0" y="-783.0" width="308.00000000000006" height="287.00000000000006" fill="none" stroke="red" stroke-width="10.0" /><rect x="-1.0" y="-393.0" width="1339.9999999999998" height="173.00000000000003" fill="none" stroke="red" stroke-width="10.0" />
</svg>
