<svg xmlns="http://www.w3.org/2000/svg"
  viewBox="-50.0 -1388.0 1541.222147206698 1215.5790908845156">
  <rect x="-50.0" y="-1388.0" width="1541.222147206698" height="1215.5790908845156" fill="white"/>
  <path d="M 402.0 -697.0 L 422.0 -697.0 L 443.0 -696.666992188 L 465.0 -696.0 L 487.0 -695.333007812 L 506.666992188 -693.333007812 L 524.0 -690.0 L 536.666992188 -690.0 L 550.166992188 -668.666992188 L 564.5 -626.0 L 578.833007812 -583.333007812 L 595.333007812 -541.666992188 L 614.0 -501.0 L 619.333007812 -487.0 L 625.666992188 -479.0 L 633.0 -477.0 L 637.666992188 -475.0 L 641.5 -471.5 L 644.5 -466.5 L 647.5 -461.5 L 644.666992188 -457.0 L 636.0 -453.0 L 616.0 -449.0 L 595.666992188 -447.333007812 L 575.0 -448.0 L 554.333007812 -448.666992188 L 534.666992188 -450.333007812 L 516.0 -453.0 L 498.666992188 -461.0 L 485.0 -480.166992188 L 475.0 -510.5 L 465.0 -540.833007812 L 449.666992188 -585.0 L 429.0 -643.0 L 427.0 -646.333007812 L 423.333007812 -651.5 L 418.0 -658.5 L 412.666992188 -665.5 L 406.333007812 -669.666992188 L 399.0 -671.0 L 389.666992188 -672.333007812 L 384.333007812 -676.833007812 L 383.0 -684.5 L 381.666992188 -692.166992188 L 388.0 -696.333007812 Z M 672.0 -697.0 L 692.0 -697.0 L 713.166992188 -696.666992188 L 735.5 -696.0 L 757.833007812 -695.333007812 L 777.666992188 -693.333007812 L 795.0 -690.0 L 807.666992188 -690.0 L 821.0 -668.666992188 L 835.0 -626.0 L 849.0 -583.333007812 L 865.333007812 -541.666992188 L 884.0 -501.0 L 890.0 -487.0 L 896.333007812 -479.0 L 903.0 -477.0 L 908.333007812 -475.0 L 912.5 -471.5 L 915.5 -466.5 L 918.5 -461.5 L 915.666992188 -457.0 L 907.0 -453.0 L 886.333007812 -449.0 L 865.666992188 -447.333007812 L 845.0 -448.0 L 824.333007812 -448.666992188 L 804.666992188 -450.333007812 L 786.0 -453.0 L 768.0 -461.0 L 754.166992188 -480.166992188 L 744.5 -510.5 L 734.833007812 -540.833007812 L 719.666992188 -585.0 L 699.0 -643.0 L 697.666992188 -646.333007812 L 694.166992188 -651.5 L 688.5 -658.5 L 682.833007812 -665.5 L 676.666992188 -669.666992188 L 670.0 -671.0 L 660.666992188 -672.333007812 L 655.166992188 -676.833007812 L 653.5 -684.5 L 651.833007812 -692.166992188 L 658.0 -696.333007812 Z M 26.0 -384.0 L 29.3330078125 -389.333007812 L 33.1669921875 -392.166992188 L 37.5 -392.5 L 41.8330078125 -392.833007812 L 46.3330078125 -391.666992188 L 51.0 -389.0 L 55.6669921875 -386.333007812 L 61.6669921875 -383.166992188 L 69.0 -379.5 L 76.3330078125 -375.833007812 L 85.6669921875 -372.833007812 L 97.0 -370.5 L 108.333007812 -368.166992188 L 124.333007812 -367.0 L 145.0 -367.0 L 1169.0 -367.0 L 1187.66699219 -367.0 L 1204.66699219 -365.5 L 1220.0 -362.5 L 1235.33300781 -359.5 L 1249.33300781 -354.666992188 L 1262.0 -348.0 L 1274.66699219 -341.333007812 L 1284.5 -335.333007812 L 1291.5 -330.0 L 1298.5 -324.666992188 L 1308.0 -315.5 L 1320.0 -302.5 L 1332.0 -289.5 L 1342.5 -277.0 L 1351.5 -265.0 L 1360.5 -253.0 L 1362.33300781 -241.333007812 L 1357.0 -230.0 L 1351.66699219 -222.0 L 1345.5 -220.333007812 L 1338.5 -225.0 L 1331.5 -229.666992188 L 1323.33300781 -233.666992188 L 1314.0 -237.0 L 1304.66699219 -240.333007812 L 1294.5 -242.666992188 L 1283.5 -244.0 L 1272.5 -245.333007812 L 1255.33300781 -246.0 L 1232.0 -246.0 L 223.0 -246.0 L 207.666992188 -246.0 L 193.666992188 -247.0 L 181.0 -249.0 L 168.333007812 -251.0 L 158.5 -253.166992188 L 151.5 -255.5 L 144.5 -257.833007812 L 137.0 -261.0 L 129.0 -265.0 L 121.0 -269.0 L 112.5 -273.833007812 L 103.5 -279.5 L 94.5 -285.166992188 L 85.0 -293.166992188 L 75.0 -303.5 L 65.0 -313.833007812 L 54.8330078125 -325.833007812 L 44.5 -339.5 L 34.1669921875 -353.166992188 L 27.6669921875 -362.666992188 L 25.0 -368.0 L 22.3330078125 -373.333007812 L 22.6669921875 -378.666992188 Z M 1427.0 -1163.0 L 1437.66699219 -1161.0 L 1442.33300781 -1155.5 L 1441.0 -1146.5 L 1439.66699219 -1137.5 L 1432.66699219 -1132.66699219 L 1420.0 -1132.0 L 1406.0 -1127.33300781 L 1394.83300781 -1109.66699219 L 1386.5 -1079.0 L 1378.16699219 -1048.33300781 L 1369.0 -1016.0 L 1359.0 -982.0 L 1336.33300781 -902.666992188 L 1315.83300781 -838.333007812 L 1297.5 -789.0 L 1279.16699219 -739.666992188 L 1261.5 -705.166992188 L 1244.5 -685.5 L 1227.5 -665.833007812 L 1207.33300781 -650.666992188 L 1184.0 -640.0 L 1148.0 -624.666992188 L 1112.5 -613.333007812 L 1077.5 -606.0 L 1042.5 -598.666992188 L 1012.0 -595.0 L 986.0 -595.0 L 998.666992188 -565.0 L 1020.0 -544.0 L 1050.0 -532.0 L 1080.0 -520.0 L 1088.66699219 -507.333007812 L 1076.0 -494.0 L 1068.66699219 -486.666992188 L 1045.66699219 -496.333007812 L 1007.0 -523.0 L 968.333007812 -549.666992188 L 941.666992188 -576.0 L 927.0 -602.0 L 927.0 -618.666992188 L 933.833007812 -625.666992188 L 947.5 -623.0 L 961.166992188 -620.333007812 L 975.666992188 -618.333007812 L 991.0 -617.0 L 1006.33300781 -616.333007812 L 1022.33300781 -617.333007812 L 1039.0 -620.0 L 1055.66699219 -622.666992188 L 1077.66699219 -631.0 L 1105.0 -645.0 L 1118.33300781 -651.666992188 L 1130.83300781 -666.833007812 L 1142.5 -690.5 L 1154.16699219 -714.166992188 L 1164.83300781 -740.333007812 L 1174.5 -769.0 L 1184.16699219 -797.666992188 L 1192.33300781 -826.166992188 L 1199.0 -854.5 L 1205.66699219 -882.833007812 L 1214.5 -923.666992188 L 1225.5 -977.0 L 1236.5 -1030.33300781 L 1245.83300781 -1066.0 L 1253.5 -1084.0 L 1261.16699219 -1102.0 L 1272.16699219 -1116.66699219 L 1286.5 -1128.0 L 1300.83300781 -1139.33300781 L 1314.5 -1146.66699219 L 1327.5 -1150.0 L 1340.5 -1153.33300781 L 1355.0 -1155.66699219 L 1371.0 -1157.0 L 1387.0 -1158.33300781 L 1405.66699219 -1160.33300781 Z M 499.0 -1163.0 L 509.666992188 -1161.0 L 514.333007812 -1155.5 L 513.0 -1146.5 L 511.666992188 -1137.5 L 505.0 -1132.66699219 L 493.0 -1132.0 L 479.0 -1127.33300781 L 467.666992188 -1109.66699219 L 459.0 -1079.0 L 450.333007812 -1048.33300781 L 441.333007812 -1016.0 L 432.0 -982.0 L 409.333007812 -902.666992188 L 388.666992188 -838.333007812 L 370.0 -789.0 L 351.333007812 -739.666992188 L 333.666992188 -705.166992188 L 317.0 -685.5 L 300.333007812 -665.833007812 L 280.0 -650.666992188 L 256.0 -640.0 L 220.0 -624.666992188 L 184.5 -613.333007812 L 149.5 -606.0 L 114.5 -598.666992188 L 84.3330078125 -595.0 L 59.0 -595.0 L 71.6669921875 -565.0 L 93.0 -544.0 L 123.0 -532.0 L 153.0 -520.0 L 161.666992188 -507.333007812 L 149.0 -494.0 L 141.666992188 -486.666992188 L 118.5 -496.333007812 L 79.5 -523.0 L 40.5 -549.666992188 L 14.0 -576.0 L 0.0 -602.0 L 0.0 -618.666992188 L 6.6669921875 -625.666992188 L 20.0 -623.0 L 33.3330078125 -620.333007812 L 48.0 -618.333007812 L 64.0 -617.0 L 79.3330078125 -616.333007812 L 95.1669921875 -617.333007812 L 111.5 -620.0 L 127.833007812 -622.666992188 L 149.666992188 -631.0 L 177.0 -645.0 L 190.333007812 -651.666992188 L 203.0 -666.833007812 L 215.0 -690.5 L 227.0 -714.166992188 L 237.666992188 -740.333007812 L 247.0 -769.0 L 256.333007812 -797.666992188 L 264.333007812 -826.166992188 L 271.0 -854.5 L 277.666992188 -882.833007812 L 286.5 -923.666992188 L 297.5 -977.0 L 308.5 -1030.33300781 L 317.833007812 -1066.0 L 325.5 -1084.0 L 333.166992188 -1102.0 L 344.166992188 -1116.66699219 L 358.5 -1128.0 L 372.833007812 -1139.33300781 L 386.666992188 -1146.66699219 L 400.0 -1150.0 L 413.333007812 -1153.33300781 L 427.833007812 -1155.66699219 L 443.5 -1157.0 L 459.166992188 -1158.33300781 L 477.666992188 -1160.33300781 Z M 941.0 -1338.0 L 951.0 -1336.66699219 L 955.333007812 -1332.16699219 L 954.0 -1324.5 L 952.666992188 -1316.83300781 L 946.333007812 -1312.33300781 L 935.0 -1311.0 L 922.333007812 -1307.0 L 912.0 -1292.16699219 L 904.0 -1266.5 L 896.0 -1240.83300781 L 887.666992188 -1213.66699219 L 879.0 -1185.0 L 858.333007812 -1117.66699219 L 839.166992188 -1063.33300781 L 821.5 -1022.0 L 803.833007812 -980.666992188 L 787.333007812 -951.666992188 L 772.0 -935.0 L 756.666992188 -918.333007812 L 738.333007812 -905.666992188 L 717.0 -897.0 L 683.666992188 -883.666992188 L 650.666992188 -874.0 L 618.0 -868.0 L 585.333007812 -862.0 L 557.333007812 -859.0 L 534.0 -859.0 L 546.0 -833.0 L 565.666992188 -815.166992188 L 593.0 -805.5 L 620.333007812 -795.833007812 L 628.333007812 -785.333007812 L 617.0 -774.0 L 610.333007812 -768.0 L 589.0 -776.166992188 L 553.0 -798.5 L 517.0 -820.833007812 L 492.333007812 -843.0 L 479.0 -865.0 L 479.0 -879.0 L 485.333007812 -884.833007812 L 498.0 -882.5 L 510.666992188 -880.166992188 L 524.0 -878.666992188 L 538.0 -878.0 L 552.666992188 -877.333007812 L 567.5 -878.0 L 582.5 -880.0 L 597.5 -882.0 L 617.666992188 -889.0 L 643.0 -901.0 L 655.666992188 -907.0 L 667.333007812 -919.833007812 L 678.0 -939.5 L 688.666992188 -959.166992188 L 698.5 -981.166992188 L 707.5 -1005.5 L 716.5 -1029.83300781 L 724.166992188 -1054.0 L 730.5 -1078.0 L 736.833007812 -1102.0 L 745.0 -1136.33300781 L 755.0 -1181.0 L 765.0 -1225.66699219 L 773.666992188 -1255.66699219 L 781.0 -1271.0 L 788.333007812 -1286.33300781 L 798.5 -1298.83300781 L 811.5 -1308.5 L 824.5 -1318.16699219 L 837.0 -1324.33300781 L 849.0 -1327.0 L 861.0 -1329.66699219 L 874.5 -1331.66699219 L 889.5 -1333.0 L 904.5 -1334.33300781 L 921.666992188 -1336.0 Z" fill="black" fill-opacity="0.25" stroke="black" stroke-width="4.0"/>
  <rect x="382.0" y="-697.0" width="265.0" height="249.99999999999994" fill="none" stroke="red" stroke-width="10.0" /><rect x="652.0" y="-697.0" width="266.0" height="249.99999999999994" fill="none" stroke="red" stroke-width="10.0" /><rect x="22.0" y="-393.0" width="1340.0" height="173.00000000000003" fill="none" stroke="red" stroke-width="10.0" /><rect x="927.0" y="-1163.0" width="514.9999999999999" height="676.0" fill="none" stroke="red" stroke-width="10.0" /><rect x="0.0" y="-1163.0" width="514.0" height="676.0" fill="none" stroke="red" stroke-width="10.0" /><rect x="479.0" y="-1338.0" width="476.0" height="570.0000000000001" fill="none" stroke="red" stroke-width="10.0" />
</svg>
