<svg xmlns="http://www.w3.org/2000/svg"
  viewBox="-50 -786.696 1436.754 614.275">
  <rect x="-50" y="-786.696" width="1436.754" height="614.275" fill="white"/>
  <path d="M 979.777 -735 L 995.111 -735 L 1002.611 -730.333 L 1002.277 -721 L 1001.944 -711.667 L 996.444 -706 L 985.777 -704 L 968.444 -700 L 956.444 -692.333 L 949.777 -681 L 925.777 -623.667 L 907.444 -573.5 L 894.777 -530.5 L 882.111 -487.5 L 865.444 -461.667 L 844.777 -453 L 823.444 -450.333 L 800.944 -448.833 L 777.277 -448.5 L 753.611 -448.167 L 730.444 -449.667 L 707.777 -453 L 697.777 -457 L 694.277 -461.5 L 697.277 -466.5 L 700.277 -471.5 L 705.111 -475 L 711.777 -477 L 718.444 -478.333 L 725.444 -486.333 L 732.777 -501 L 756.111 -542.333 L 775.611 -589.167 L 791.277 -641.5 L 806.944 -693.833 L 823.444 -722.667 L 840.777 -728 L 863.444 -734.667 L 886.444 -737.5 L 909.777 -736.5 L 933.111 -735.5 L 956.444 -735 Z M 2.777 -384 L 6.111 -389.333 L 9.944 -392.167 L 14.277 -392.5 L 18.611 -392.833 L 23.111 -391.667 L 27.777 -389 L 32.444 -386.333 L 38.444 -383.167 L 45.777 -379.5 L 53.111 -375.833 L 62.444 -372.833 L 73.777 -370.5 L 85.111 -368.167 L 101.111 -367 L 121.777 -367 L 1145.777 -367 L 1164.444 -367 L 1181.444 -365.5 L 1196.777 -362.5 L 1212.111 -359.5 L 1226.111 -354.667 L 1238.777 -348 L 1251.444 -341.333 L 1261.277 -335.333 L 1268.277 -330 L 1275.277 -324.667 L 1284.777 -315.5 L 1296.777 -302.5 L 1308.777 -289.5 L 1319.277 -277 L 1328.277 -265 L 1337.277 -253 L 1339.111 -241.333 L 1333.777 -230 L 1328.444 -222 L 1322.277 -220.333 L 1315.277 -225 L 1308.277 -229.667 L 1300.111 -233.667 L 1290.777 -237 L 1281.444 -240.333 L 1271.277 -242.667 L 1260.277 -244 L 1249.277 -245.333 L 1232.111 -246 L 1208.777 -246 L 199.777 -246 L 184.444 -246 L 170.444 -247 L 157.777 -249 L 145.111 -251 L 135.277 -253.167 L 128.277 -255.5 L 121.277 -257.833 L 113.777 -261 L 105.777 -265 L 97.777 -269 L 89.277 -273.833 L 80.277 -279.5 L 71.277 -285.167 L 61.777 -293.167 L 51.777 -303.5 L 41.777 -313.833 L 31.611 -325.833 L 21.277 -339.5 L 10.944 -353.167 L 4.444 -362.667 L 1.777 -368 L -0.889 -373.333 L -0.556 -378.667 Z" fill="black" fill-opacity="0.25" stroke="black" stroke-width="4"/>
  <rect x="694" y="-738" width="309" height="290" fill="none" stroke="red" stroke-width="10" /><rect x="-1" y="-393" width="1340" height="173" fill="none" stroke="red" stroke-width="10" />
</svg>
