<svg xmlns="http://www.w3.org/2000/svg"
  viewBox="-49.99986267131756 -901.5216985344719 1992.2264635906356 729.1007894189875">
  <rect x="-49.99986267131756" y="-901.5216985344719" width="1992.2264635906356" height="729.1007894189875" fill="white"/>
  <path d="M 1242.25 -671.0 L 1262.25 -671.0 L 1283.25 -670.666992188 L 1305.25 -670.0 L 1327.25 -669.333007812 L 1346.91699219 -667.333007812 L 1364.25 -664.0 L 1376.91699219 -664.0 L 1391.25 -647.0 L 1407.25 -613.0 L 1423.25 -579.0 L 1440.58300781 -541.666992188 L 1459.25 -501.0 L 1465.25 -487.0 L 1471.58300781 -479.0 L 1478.25 -477.0 L 1483.58300781 -475.0 L 1487.75 -471.5 L 1490.75 -466.5 L 1493.75 -461.5 L 1490.91699219 -457.0 L 1482.25 -453.0 L 1461.58300781 -449.0 L 1440.91699219 -447.333007812 L 1420.25 -448.0 L 1399.58300781 -448.666992188 L 1379.91699219 -450.333007812 L 1361.25 -453.0 L 1343.25 -461.0 L 1328.41699219 -476.0 L 1316.75 -498.0 L 1305.08300781 -520.0 L 1288.91699219 -559.666992188 L 1268.25 -617.0 L 1266.25 -620.333007812 L 1262.58300781 -625.5 L 1257.25 -632.5 L 1251.91699219 -639.5 L 1245.58300781 -643.666992188 L 1238.25 -645.0 L 1228.91699219 -646.333007812 L 1223.75 -651.0 L 1222.75 -659.0 L 1221.75 -667.0 L 1228.25 -671.0 Z M 1512.25 -671.0 L 1532.25 -671.0 L 1553.25 -670.666992188 L 1575.25 -670.0 L 1597.25 -669.333007812 L 1616.91699219 -667.333007812 L 1634.25 -664.0 L 1646.91699219 -664.0 L 1661.25 -647.0 L 1677.25 -613.0 L 1693.25 -579.0 L 1710.91699219 -541.666992188 L 1730.25 -501.0 L 1736.25 -487.0 L 1742.58300781 -479.0 L 1749.25 -477.0 L 1753.91699219 -475.0 L 1757.75 -471.5 L 1760.75 -466.5 L 1763.75 -461.5 L 1760.91699219 -457.0 L 1752.25 -453.0 L 1732.25 -449.0 L 1711.75 -447.333007812 L 1690.75 -448.0 L 1669.75 -448.666992188 L 1649.91699219 -450.333007812 L 1631.25 -453.0 L 1613.91699219 -461.0 L 1599.25 -476.0 L 1587.25 -498.0 L 1575.25 -520.0 L 1558.91699219 -559.666992188 L 1538.25 -617.0 L 1536.91699219 -620.333007812 L 1533.41699219 -625.5 L 1527.75 -632.5 L 1522.08300781 -639.5 L 1515.91699219 -643.666992188 L 1509.25 -645.0 L 1499.91699219 -646.333007812 L 1494.58300781 -651.0 L 1493.25 -659.0 L 1491.91699219 -667.0 L 1498.25 -671.0 Z M 89.25 -384.0 L 92.5830078125 -389.333007812 L 96.4169921875 -392.166992188 L 100.75 -392.5 L 105.083007812 -392.833007812 L 109.583007812 -391.666992188 L 114.25 -389.0 L 118.916992188 -386.333007812 L 124.916992188 -383.166992188 L 132.25 -379.5 L 139.583007812 -375.833007812 L 148.916992188 -372.833007812 L 160.25 -370.5 L 171.583007812 -368.166992188 L 187.583007812 -367.0 L 208.25 -367.0 L 1700.25 -367.0 L 1718.91699219 -367.0 L 1736.08300781 -365.5 L 1751.75 -362.5 L 1767.41699219 -359.5 L 1781.58300781 -354.666992188 L 1794.25 -348.0 L 1806.91699219 -341.333007812 L 1816.75 -335.333007812 L 1823.75 -330.0 L 1830.75 -324.666992188 L 1840.25 -315.5 L 1852.25 -302.5 L 1864.25 -289.5 L 1874.75 -277.0 L 1883.75 -265.0 L 1892.75 -253.0 L 1894.58300781 -241.333007812 L 1889.25 -230.0 L 1883.91699219 -222.0 L 1877.75 -220.333007812 L 1870.75 -225.0 L 1863.75 -229.666992188 L 1855.58300781 -233.666992188 L 1846.25 -237.0 L 1836.91699219 -240.333007812 L 1826.58300781 -242.666992188 L 1815.25 -244.0 L 1803.91699219 -245.333007812 L 1786.91699219 -246.0 L 1764.25 -246.0 L 286.25 -246.0 L 270.916992188 -246.0 L 256.916992188 -247.0 L 244.25 -249.0 L 231.583007812 -251.0 L 221.75 -253.166992188 L 214.75 -255.5 L 207.75 -257.833007812 L 200.25 -261.0 L 192.25 -265.0 L 184.25 -269.0 L 175.75 -273.833007812 L 166.75 -279.5 L 157.75 -285.166992188 L 148.25 -293.166992188 L 138.25 -303.5 L 128.25 -313.833007812 L 118.083007812 -325.833007812 L 107.75 -339.5 L 97.4169921875 -353.166992188 L 90.9169921875 -362.666992188 L 88.25 -368.0 L 85.5830078125 -373.333007812 L 85.9169921875 -378.666992188 Z M 296.25 -487.0 L 270.916992188 -477.666992188 L 227.916992188 -478.333007812 L 167.25 -489.0 L 131.916992188 -497.666992188 L 100.75 -509.333007812 L 73.75 -524.0 L 46.75 -538.666992188 L 25.9169921875 -564.333007812 L 11.25 -601.0 L 1.25 -636.333007812 L -2.0830078125 -664.5 L 1.25 -685.5 L 4.5830078125 -706.5 L 16.25 -731.0 L 36.25 -759.0 L 55.5830078125 -782.333007812 L 78.0830078125 -799.833007812 L 103.75 -811.5 L 129.416992188 -823.166992188 L 160.916992188 -833.0 L 198.25 -841.0 L 235.583007812 -848.333007812 L 265.916992188 -851.833007812 L 289.25 -851.5 L 312.583007812 -851.166992188 L 337.916992188 -850.666992188 L 365.25 -850.0 L 391.916992188 -848.666992188 L 416.75 -846.5 L 439.75 -843.5 L 462.75 -840.5 L 490.583007812 -834.0 L 523.25 -824.0 L 577.25 -809.333007812 L 630.583007812 -788.666992188 L 683.25 -762.0 L 712.583007812 -747.333007812 L 743.75 -731.666992188 L 776.75 -715.0 L 809.75 -698.333007812 L 846.583007812 -678.333007812 L 887.25 -655.0 L 905.916992188 -643.666992188 L 926.416992188 -631.5 L 948.75 -618.5 L 971.083007812 -605.5 L 994.916992188 -592.333007812 L 1020.25 -579.0 L 1039.58300781 -567.0 L 1058.75 -555.0 L 1077.75 -543.0 L 1096.75 -531.0 L 1104.75 -518.833007812 L 1101.75 -506.5 L 1098.75 -494.166992188 L 1091.58300781 -488.333007812 L 1080.25 -489.0 L 1068.91699219 -489.666992188 L 1033.08300781 -489.333007812 L 972.75 -488.0 L 912.416992188 -486.666992188 L 859.916992188 -486.333007812 L 815.25 -487.0 L 797.25 -500.333007812 L 797.416992188 -509.833007812 L 815.75 -515.5 L 834.083007812 -521.166992188 L 847.916992188 -528.333007812 L 857.25 -537.0 L 873.916992188 -554.333007812 L 881.25 -568.166992188 L 879.25 -578.5 L 877.25 -588.833007812 L 874.416992188 -596.833007812 L 870.75 -602.5 L 867.083007812 -608.166992188 L 861.583007812 -614.166992188 L 854.25 -620.5 L 846.916992188 -626.833007812 L 828.75 -640.0 L 799.75 -660.0 L 770.75 -680.0 L 734.916992188 -701.0 L 692.25 -723.0 L 653.583007812 -739.666992188 L 623.25 -753.333007812 L 601.25 -764.0 L 579.25 -774.666992188 L 543.583007812 -786.666992188 L 494.25 -800.0 L 457.583007812 -807.333007812 L 420.25 -811.833007812 L 382.25 -813.5 L 344.25 -815.166992188 L 305.583007812 -809.666992188 L 266.25 -797.0 L 238.916992188 -785.0 L 219.75 -774.666992188 L 208.75 -766.0 L 197.75 -757.333007812 L 185.25 -742.666992188 L 171.25 -722.0 L 159.25 -702.0 L 152.416992188 -685.0 L 150.75 -671.0 L 149.083007812 -657.0 L 148.916992188 -641.0 L 150.25 -623.0 L 150.916992188 -604.333007812 L 153.083007812 -590.833007812 L 156.75 -582.5 L 160.416992188 -574.166992188 L 165.083007812 -565.666992188 L 170.75 -557.0 L 176.416992188 -548.333007812 L 183.75 -540.5 L 192.75 -533.5 L 201.75 -526.5 L 215.583007812 -521.5 L 234.25 -518.5 L 252.916992188 -515.5 L 271.25 -513.333007812 L 289.25 -512.0 L 297.25 -510.666992188 L 302.416992188 -507.333007812 L 304.75 -502.0 L 307.083007812 -496.666992188 L 304.25 -491.666992188 Z M 502.25 -426.0 L 495.583007812 -431.333007812 L 495.083007812 -436.333007812 L 500.75 -441.0 L 506.416992188 -445.666992188 L 513.916992188 -448.0 L 523.25 -448.0 L 533.25 -448.0 L 546.916992188 -456.666992188 L 564.25 -474.0 L 581.583007812 -491.333007812 L 593.25 -513.333007812 L 599.25 -540.0 L 608.583007812 -584.0 L 585.583007812 -620.0 L 530.25 -648.0 L 508.916992188 -658.0 L 482.25 -667.0 L 450.25 -675.0 L 418.25 -683.0 L 386.583007812 -690.166992188 L 355.25 -696.5 L 323.916992188 -702.833007812 L 296.25 -707.833007812 L 272.25 -711.5 L 248.25 -715.166992188 L 234.25 -718.0 L 230.25 -720.0 L 221.583007812 -723.333007812 L 218.25 -727.666992188 L 220.25 -733.0 L 222.25 -738.333007812 L 226.583007812 -741.0 L 233.25 -741.0 L 236.583007812 -741.0 L 250.083007812 -739.666992188 L 273.75 -737.0 L 297.416992188 -734.333007812 L 325.75 -730.166992188 L 358.75 -724.5 L 391.75 -718.833007812 L 426.416992188 -711.833007812 L 462.75 -703.5 L 499.083007812 -695.166992188 L 532.25 -685.0 L 562.25 -673.0 L 597.583007812 -659.0 L 625.916992188 -645.0 L 647.25 -631.0 L 668.583007812 -617.0 L 687.916992188 -598.333007812 L 705.25 -575.0 L 722.583007812 -551.0 L 729.916992188 -527.333007812 L 727.25 -504.0 L 724.583007812 -480.666992188 L 714.583007812 -462.333007812 L 697.25 -449.0 L 681.25 -437.0 L 662.583007812 -429.0 L 641.25 -425.0 L 619.916992188 -421.0 L 599.916992188 -419.0 L 581.25 -419.0 L 562.583007812 -419.0 L 549.416992188 -419.166992188 L 541.75 -419.5 L 534.083007812 -419.833007812 L 520.916992188 -422.0 Z" fill="black" fill-opacity="0.25" stroke="black" stroke-width="4.0"/>
  <rect x="1222.0" y="-671.0" width="272.0" height="224.00000000000003" fill="none" stroke="red" stroke-width="10.0" /><rect x="1492.0" y="-671.0" width="272.0" height="224.00000000000003" fill="none" stroke="red" stroke-width="10.0" /><rect x="86.0" y="-393.0" width="1809.0" height="173.00000000000003" fill="none" stroke="red" stroke-width="10.0" /><rect x="-2.0" y="-852.0" width="1107.0" height="374.0" fill="none" stroke="red" stroke-width="10.0" /><rect x="218.0" y="-741.0" width="512.0" height="322.0" fill="none" stroke="red" stroke-width="10.0" />
</svg>
