<svg xmlns="http://www.w3.org/2000/svg"
  viewBox="-50.00005894218928 -874.0 1436.7544334076463 701.5790908845156">
  <rect x="-50.00005894218928" y="-874.0" width="1436.7544334076463" height="701.5790908845156" fill="white"/>
  <path d="M 607.77734375 -475.0 L 599.77734375 -481.0 L 599.111328125 -486.5 L 605.77734375 -491.5 L 612.444335938 -496.5 L 620.77734375 -499.0 L 630.77734375 -499.0 L 641.444335938 -499.0 L 656.611328125 -508.833007812 L 676.27734375 -528.5 L 695.944335938 -548.166992188 L 708.77734375 -572.333007812 L 714.77734375 -601.0 L 724.77734375 -649.666992188 L 699.444335938 -689.666992188 L 638.77734375 -721.0 L 615.444335938 -732.333007812 L 586.111328125 -742.333007812 L 550.77734375 -751.0 L 515.444335938 -759.666992188 L 480.444335938 -767.333007812 L 445.77734375 -774.0 L 411.111328125 -780.666992188 L 380.444335938 -786.166992188 L 353.77734375 -790.5 L 327.111328125 -794.833007812 L 311.77734375 -798.0 L 307.77734375 -800.0 L 298.444335938 -803.333007812 L 294.77734375 -808.166992188 L 296.77734375 -814.5 L 298.77734375 -820.833007812 L 303.77734375 -824.0 L 311.77734375 -824.0 L 315.77734375 -824.0 L 330.611328125 -822.333007812 L 356.27734375 -819.0 L 381.944335938 -815.666992188 L 412.944335938 -811.0 L 449.27734375 -805.0 L 485.611328125 -799.0 L 523.944335938 -791.333007812 L 564.27734375 -782.0 L 604.611328125 -772.666992188 L 641.111328125 -761.666992188 L 673.77734375 -749.0 L 713.111328125 -733.666992188 L 744.444335938 -718.166992188 L 767.77734375 -702.5 L 791.111328125 -686.833007812 L 812.77734375 -666.0 L 832.77734375 -640.0 L 852.111328125 -613.333007812 L 860.27734375 -587.166992188 L 857.27734375 -561.5 L 854.27734375 -535.833007812 L 842.77734375 -515.666992188 L 822.77734375 -501.0 L 804.77734375 -487.666992188 L 784.27734375 -478.833007812 L 761.27734375 -474.5 L 738.27734375 -470.166992188 L 716.444335938 -468.0 L 695.77734375 -468.0 L 663.77734375 -468.0 L 663.77734375 -468.0 L 651.27734375 -468.0 L 642.944335938 -468.0 L 628.444335938 -470.333007812 Z M 2.77734375 -384.0 L 6.111328125 -389.333007812 L 9.9443359375 -392.166992188 L 14.27734375 -392.5 L 18.611328125 -392.833007812 L 23.111328125 -391.666992188 L 27.77734375 -389.0 L 32.4443359375 -386.333007812 L 38.4443359375 -383.166992188 L 45.77734375 -379.5 L 53.111328125 -375.833007812 L 62.4443359375 -372.833007812 L 73.77734375 -370.5 L 85.111328125 -368.166992188 L 101.111328125 -367.0 L 121.77734375 -367.0 L 1145.77734375 -367.0 L 1164.44433594 -367.0 L 1181.44433594 -365.5 L 1196.77734375 -362.5 L 1212.11132812 -359.5 L 1226.11132812 -354.666992188 L 1238.77734375 -348.0 L 1251.44433594 -341.333007812 L 1261.27734375 -335.333007812 L 1268.27734375 -330.0 L 1275.27734375 -324.666992188 L 1284.77734375 -315.5 L 1296.77734375 -302.5 L 1308.77734375 -289.5 L 1319.27734375 -277.0 L 1328.27734375 -265.0 L 1337.27734375 -253.0 L 1339.11132812 -241.333007812 L 1333.77734375 -230.0 L 1328.44433594 -222.0 L 1322.27734375 -220.333007812 L 1315.27734375 -225.0 L 1308.27734375 -229.666992188 L 1300.11132812 -233.666992188 L 1290.77734375 -237.0 L 1281.44433594 -240.333007812 L 1271.27734375 -242.666992188 L 1260.27734375 -244.0 L 1249.27734375 -245.333007812 L 1232.11132812 -246.0 L 1208.77734375 -246.0 L 199.77734375 -246.0 L 184.444335938 -246.0 L 170.444335938 -247.0 L 157.77734375 -249.0 L 145.111328125 -251.0 L 135.27734375 -253.166992188 L 128.27734375 -255.5 L 121.27734375 -257.833007812 L 113.77734375 -261.0 L 105.77734375 -265.0 L 97.77734375 -269.0 L 89.27734375 -273.833007812 L 80.27734375 -279.5 L 71.27734375 -285.166992188 L 61.77734375 -293.166992188 L 51.77734375 -303.5 L 41.77734375 -313.833007812 L 31.611328125 -325.833007812 L 21.27734375 -339.5 L 10.9443359375 -353.166992188 L 4.4443359375 -362.666992188 L 1.77734375 -368.0 L -0.888671875 -373.333007812 L -0.5556640625 -378.666992188 Z" fill="black" fill-opacity="0.25" stroke="black" stroke-width="4.0"/>
  <rect x="295.0" y="-824.0" width="565.0" height="355.99999999999994" fill="none" stroke="red" stroke-width="10.0" /><rect x="-1.0" y="-393.0" width="1339.9999999999998" height="173.00000000000003" fill="none" stroke="red" stroke-width="10.0" />
</svg>
