<svg xmlns="http://www.w3.org/2000/svg"
  viewBox="-50 -770 1558.825 597.579">
  <rect x="-50" y="-770" width="1558.825" height="597.579" fill="white"/>
  <path d="M 1071.777 -671 L 1091.777 -671 L 1112.777 -670.667 L 1134.777 -670 L 1156.777 -669.333 L 1176.444 -667.333 L 1193.777 -664 L 1206.444 -664 L 1220.777 -647 L 1236.777 -613 L 1252.777 -579 L 1270.444 -541.667 L 1289.777 -501 L 1295.111 -487 L 1301.444 -479 L 1308.777 -477 L 1313.444 -475 L 1317.277 -471.5 L 1320.277 -466.5 L 1323.277 -461.5 L 1320.444 -457 L 1311.777 -453 L 1291.777 -449 L 1271.277 -447.333 L 1250.277 -448 L 1229.277 -448.667 L 1209.777 -450.333 L 1191.777 -453 L 1174.444 -461 L 1159.611 -476 L 1147.277 -498 L 1134.944 -520 L 1118.444 -559.667 L 1097.777 -617 L 1095.777 -620.333 L 1092.111 -625.5 L 1086.777 -632.5 L 1081.444 -639.5 L 1075.444 -643.667 L 1068.777 -645 L 1059.444 -646.333 L 1054.111 -651 L 1052.777 -659 L 1051.444 -667 L 1057.777 -671 Z M 801.777 -671 L 821.777 -671 L 842.777 -670.667 L 864.777 -670 L 886.777 -669.333 L 906.444 -667.333 L 923.777 -664 L 936.444 -664 L 950.777 -647 L 966.777 -613 L 982.777 -579 L 1000.111 -541.667 L 1018.777 -501 L 1024.777 -487 L 1031.111 -479 L 1037.777 -477 L 1043.111 -475 L 1047.277 -471.5 L 1050.277 -466.5 L 1053.277 -461.5 L 1050.444 -457 L 1041.777 -453 L 1021.111 -449 L 1000.444 -447.333 L 979.777 -448 L 959.111 -448.667 L 939.444 -450.333 L 920.777 -453 L 903.444 -461 L 888.777 -476 L 876.777 -498 L 864.777 -520 L 848.444 -559.667 L 827.777 -617 L 825.777 -620.333 L 822.111 -625.5 L 816.777 -632.5 L 811.444 -639.5 L 805.111 -643.667 L 797.777 -645 L 788.444 -646.333 L 783.277 -651 L 782.277 -659 L 781.277 -667 L 787.777 -671 Z M 483.777 -720 L 499.111 -719.333 L 506.277 -715.167 L 505.277 -707.5 L 504.277 -699.833 L 498.111 -695 L 486.777 -693 L 478.111 -691.667 L 470.777 -688.5 L 464.777 -683.5 L 458.777 -678.5 L 455.111 -674.333 L 453.777 -671 L 429.777 -619 L 411.277 -573.667 L 398.277 -535 L 385.277 -496.333 L 368.777 -473.667 L 348.777 -467 L 327.444 -465 L 304.777 -463.5 L 280.777 -462.5 L 256.777 -461.5 L 233.444 -463 L 210.777 -467 L 200.777 -470.333 L 197.444 -474.167 L 200.777 -478.5 L 204.111 -482.833 L 208.777 -486 L 214.777 -488 L 221.444 -490 L 228.777 -497 L 236.777 -509 L 260.111 -546.333 L 280.111 -589.667 L 296.777 -639 L 313.444 -688.333 L 329.111 -713 L 343.777 -713 L 363.777 -715.667 L 386.277 -717.5 L 411.277 -718.5 L 436.277 -719.5 L 460.444 -720 Z M 2.777 -384 L 6.111 -389.333 L 9.944 -392.167 L 14.277 -392.5 L 18.611 -392.833 L 23.111 -391.667 L 27.777 -389 L 32.444 -386.333 L 38.444 -383.167 L 45.777 -379.5 L 53.111 -375.833 L 62.444 -372.833 L 73.777 -370.5 L 85.111 -368.167 L 101.111 -367 L 121.777 -367 L 1267.777 -367 L 1286.444 -367 L 1303.444 -365.5 L 1318.777 -362.5 L 1334.111 -359.5 L 1348.111 -354.667 L 1360.777 -348 L 1373.444 -341.333 L 1383.277 -335.333 L 1390.277 -330 L 1397.277 -324.667 L 1406.944 -315.5 L 1419.277 -302.5 L 1431.611 -289.5 L 1442.111 -277 L 1450.777 -265 L 1459.444 -253 L 1461.111 -241.333 L 1455.777 -230 L 1450.444 -222 L 1444.277 -220.333 L 1437.277 -225 L 1430.277 -229.667 L 1422.111 -233.667 L 1412.777 -237 L 1403.444 -240.333 L 1393.277 -242.667 L 1382.277 -244 L 1371.277 -245.333 L 1354.111 -246 L 1330.777 -246 L 199.777 -246 L 184.444 -246 L 170.444 -247 L 157.777 -249 L 145.111 -251 L 135.277 -253.167 L 128.277 -255.5 L 121.277 -257.833 L 113.777 -261 L 105.777 -265 L 97.777 -269 L 89.444 -273.833 L 80.777 -279.5 L 72.111 -285.167 L 62.611 -293.167 L 52.277 -303.5 L 41.944 -313.833 L 31.611 -325.833 L 21.277 -339.5 L 10.944 -353.167 L 4.444 -362.667 L 1.777 -368 L -0.889 -373.333 L -0.556 -378.667 Z" fill="black" fill-opacity="0.25" stroke="black" stroke-width="4"/>
  <rect x="1051" y="-671" width="272" height="224" fill="none" stroke="red" stroke-width="10" /><rect x="781" y="-671" width="272" height="224" fill="none" stroke="red" stroke-width="10" /><rect x="197" y="-720" width="309" height="258" fill="none" stroke="red" stroke-width="10" /><rect x="-1" y="-393" width="1462" height="173" fill="none" stroke="red" stroke-width="10" />
</svg>
