<svg xmlns="http://www.w3.org/2000/svg"
  viewBox="-50 -841.524 2191.691 669.103">
  <rect x="-50" y="-841.524" width="2191.691" height="669.103" fill="white"/>
  <path d="M 252.643 -462 L 245.977 -466.667 L 245.477 -471.333 L 251.143 -476 L 256.81 -480.667 L 263.977 -483 L 272.643 -483 L 281.977 -483 L 294.977 -491.333 L 311.643 -508 L 328.31 -524.667 L 339.31 -545.333 L 344.643 -570 L 353.31 -611.333 L 331.643 -645.333 L 279.643 -672 L 240.31 -691.333 L 187.143 -706.333 L 120.143 -717 L 53.143 -727.667 L 15.977 -734.333 L 8.643 -737 L 1.31 -739.667 L -1.357 -743.833 L 0.643 -749.5 L 2.643 -755.167 L 6.31 -758 L 11.643 -758 L 17.643 -758 L 54.81 -753 L 123.143 -743 L 191.477 -733 L 253.643 -717.333 L 309.643 -696 L 342.977 -682.667 L 369.643 -669.5 L 389.643 -656.5 L 409.643 -643.5 L 428.31 -625.667 L 445.643 -603 L 462.31 -580.333 L 469.143 -558 L 466.143 -536 L 463.143 -514 L 453.31 -497 L 436.643 -485 L 421.31 -473.667 L 403.81 -466 L 384.143 -462 L 364.477 -458 L 345.643 -456 L 327.643 -456 L 300.643 -456 L 300.643 -456 L 290.143 -456 L 283.143 -456 L 270.643 -458 Z M 1523.643 -671 L 1543.643 -671 L 1564.643 -670.667 L 1586.643 -670 L 1608.643 -669.333 L 1628.31 -667.333 L 1645.643 -664 L 1658.31 -664 L 1672.81 -647 L 1689.143 -613 L 1705.477 -579 L 1722.977 -541.667 L 1741.643 -501 L 1747.643 -487 L 1753.977 -479 L 1760.643 -477 L 1765.31 -475 L 1769.31 -471.5 L 1772.643 -466.5 L 1775.977 -461.5 L 1772.977 -457 L 1763.643 -453 L 1743.643 -449 L 1723.31 -447.333 L 1702.643 -448 L 1681.977 -448.667 L 1662.31 -450.333 L 1643.643 -453 L 1626.31 -461 L 1611.477 -476 L 1599.143 -498 L 1586.81 -520 L 1570.643 -559.667 L 1550.643 -617 L 1549.31 -620.333 L 1545.643 -625.5 L 1539.643 -632.5 L 1533.643 -639.5 L 1527.31 -643.667 L 1520.643 -645 L 1511.31 -646.333 L 1505.977 -651 L 1504.643 -659 L 1503.31 -667 L 1509.643 -671 Z M 1794.643 -671 L 1814.643 -671 L 1835.477 -670.667 L 1857.143 -670 L 1878.81 -669.333 L 1898.643 -667.333 L 1916.643 -664 L 1929.31 -664 L 1943.643 -647 L 1959.643 -613 L 1975.643 -579 L 1992.977 -541.667 L 2011.643 -501 L 2017.643 -487 L 2023.977 -479 L 2030.643 -477 L 2035.977 -475 L 2040.143 -471.5 L 2043.143 -466.5 L 2046.143 -461.5 L 2043.31 -457 L 2034.643 -453 L 2013.977 -449 L 1993.31 -447.333 L 1972.643 -448 L 1951.977 -448.667 L 1932.31 -450.333 L 1913.643 -453 L 1895.643 -461 L 1880.81 -476 L 1869.143 -498 L 1857.477 -520 L 1841.31 -559.667 L 1820.643 -617 L 1818.643 -620.333 L 1814.81 -625.5 L 1809.143 -632.5 L 1803.477 -639.5 L 1797.31 -643.667 L 1790.643 -645 L 1781.31 -646.333 L 1776.143 -651 L 1775.143 -659 L 1774.143 -667 L 1780.643 -671 Z M 274.143 -384 L 277.81 -389.333 L 281.643 -392.167 L 285.643 -392.5 L 289.643 -392.833 L 294.143 -391.667 L 299.143 -389 L 304.143 -386.333 L 310.143 -383.167 L 317.143 -379.5 L 324.143 -375.833 L 333.477 -372.833 L 345.143 -370.5 L 356.81 -368.167 L 372.643 -367 L 392.643 -367 L 1900.643 -367 L 1919.31 -367 L 1936.31 -365.5 L 1951.643 -362.5 L 1966.977 -359.5 L 1980.977 -354.667 L 1993.643 -348 L 2006.31 -341.333 L 2016.143 -335.333 L 2023.143 -330 L 2030.143 -324.667 L 2039.81 -315.5 L 2052.143 -302.5 L 2064.477 -289.5 L 2074.977 -277 L 2083.643 -265 L 2092.31 -253 L 2093.977 -241.333 L 2088.643 -230 L 2083.31 -222 L 2077.143 -220.333 L 2070.143 -225 L 2063.143 -229.667 L 2054.977 -233.667 L 2045.643 -237 L 2036.31 -240.333 L 2026.143 -242.667 L 2015.143 -244 L 2004.143 -245.333 L 1986.977 -246 L 1963.643 -246 L 470.643 -246 L 455.31 -246 L 441.477 -247 L 429.143 -249 L 416.81 -251 L 406.977 -253.167 L 399.643 -255.5 L 392.31 -257.833 L 384.81 -261 L 377.143 -265 L 369.477 -269 L 361.143 -273.833 L 352.143 -279.5 L 343.143 -285.167 L 333.643 -293.167 L 323.643 -303.5 L 313.643 -313.833 L 303.477 -325.833 L 293.143 -339.5 L 282.81 -353.167 L 276.143 -362.667 L 273.143 -368 L 270.143 -373.333 L 270.477 -378.667 Z M 740.643 -465 L 717.977 -456.333 L 679.643 -457 L 625.643 -467 L 594.31 -475 L 566.477 -485.5 L 542.143 -498.5 L 517.81 -511.5 L 499.31 -534.333 L 486.643 -567 L 477.977 -598.333 L 474.977 -623.5 L 477.643 -642.5 L 480.31 -661.5 L 490.643 -683.333 L 508.643 -708 L 525.977 -728.667 L 546.143 -744.333 L 569.143 -755 L 592.143 -765.667 L 620.31 -774.667 L 653.643 -782 L 686.977 -788.667 L 713.977 -791.833 L 734.643 -791.5 L 755.31 -791.167 L 777.643 -790.333 L 801.643 -789 L 825.643 -788.333 L 847.977 -786.667 L 868.643 -784 L 889.31 -781.333 L 914.31 -775.333 L 943.643 -766 L 992.31 -752.667 L 1039.977 -734.333 L 1086.643 -711 L 1113.31 -697.667 L 1141.31 -683.5 L 1170.643 -668.5 L 1199.977 -653.5 L 1232.977 -636 L 1269.643 -616 L 1286.31 -606 L 1304.477 -595.167 L 1324.143 -583.5 L 1343.81 -571.833 L 1364.977 -560 L 1387.643 -548 L 1404.977 -537.333 L 1422.143 -526.5 L 1439.143 -515.5 L 1456.143 -504.5 L 1463.31 -493.5 L 1460.643 -482.5 L 1457.977 -471.5 L 1451.477 -466.333 L 1441.143 -467 L 1430.81 -467.667 L 1398.81 -467.333 L 1345.143 -466 L 1291.477 -464.667 L 1244.643 -464.333 L 1204.643 -465 L 1188.643 -477 L 1188.81 -485.5 L 1205.143 -490.5 L 1221.477 -495.5 L 1233.643 -502 L 1241.643 -510 L 1256.31 -525.333 L 1262.81 -537.5 L 1261.143 -546.5 L 1259.477 -555.5 L 1257.143 -562.5 L 1254.143 -567.5 L 1251.143 -572.5 L 1246.31 -578 L 1239.643 -584 L 1232.977 -590 L 1216.81 -601.833 L 1191.143 -619.5 L 1165.477 -637.167 L 1133.31 -656 L 1094.643 -676 L 1060.643 -691.333 L 1033.643 -703.667 L 1013.643 -713 L 993.643 -722.333 L 961.643 -733 L 917.643 -745 L 884.977 -751.667 L 851.643 -755.667 L 817.643 -757 L 783.643 -758.333 L 749.31 -753.333 L 714.643 -742 L 689.977 -731.333 L 672.643 -722.167 L 662.643 -714.5 L 652.643 -706.833 L 641.643 -693.667 L 629.643 -675 L 618.977 -657 L 612.81 -641.833 L 611.143 -629.5 L 609.477 -617.167 L 608.977 -603 L 609.643 -587 L 610.31 -570.333 L 612.31 -558.167 L 615.643 -550.5 L 618.977 -542.833 L 623.31 -535.167 L 628.643 -527.5 L 633.977 -519.833 L 640.643 -513 L 648.643 -507 L 656.643 -501 L 668.977 -496.667 L 685.643 -494 L 702.31 -491.333 L 718.643 -489 L 734.643 -487 L 741.31 -485.667 L 745.643 -482.667 L 747.643 -478 L 749.643 -473.333 L 747.31 -469 Z" fill="black" fill-opacity="0.25" stroke="black" stroke-width="4"/>
  <rect x="-1" y="-758" width="470" height="302" fill="none" stroke="red" stroke-width="10" /><rect x="1503" y="-671" width="273" height="224" fill="none" stroke="red" stroke-width="10" /><rect x="1774" y="-671" width="272" height="224" fill="none" stroke="red" stroke-width="10" /><rect x="270" y="-393" width="1824" height="173" fill="none" stroke="red" stroke-width="10" /><rect x="475" y="-792" width="988" height="336" fill="none" stroke="red" stroke-width="10" />
</svg>
