<svg xmlns="http://www.w3.org/2000/svg"
  viewBox="-49.99986267131756 -903.5216985344719 1991.2264635906356 731.1007894189875">
  <rect x="-49.99986267131756" y="-903.5216985344719" width="1991.2264635906356" height="731.1007894189875" fill="white"/>
  <path d="M 1511.25 -671.0 L 1531.25 -671.0 L 1552.25 -670.666992188 L 1574.25 -670.0 L 1596.25 -669.333007812 L 1615.91699219 -667.333007812 L 1633.25 -664.0 L 1645.91699219 -664.0 L 1660.25 -647.0 L 1676.25 -613.0 L 1692.25 -579.0 L 1709.91699219 -541.666992188 L 1729.25 -501.0 L 1735.25 -487.0 L 1741.58300781 -479.0 L 1748.25 -477.0 L 1752.91699219 -475.0 L 1756.75 -471.5 L 1759.75 -466.5 L 1762.75 -461.5 L 1759.91699219 -457.0 L 1751.25 -453.0 L 1731.25 -449.0 L 1710.75 -447.333007812 L 1689.75 -448.0 L 1668.75 -448.666992188 L 1648.91699219 -450.333007812 L 1630.25 -453.0 L 1612.91699219 -461.0 L 1598.25 -476.0 L 1586.25 -498.0 L 1574.25 -520.0 L 1557.91699219 -559.666992188 L 1537.25 -617.0 L 1535.91699219 -620.333007812 L 1532.41699219 -625.5 L 1526.75 -632.5 L 1521.08300781 -639.5 L 1514.91699219 -643.666992188 L 1508.25 -645.0 L 1498.91699219 -646.333007812 L 1493.58300781 -651.0 L 1492.25 -659.0 L 1490.91699219 -667.0 L 1497.25 -671.0 Z M 1241.25 -671.0 L 1261.25 -671.0 L 1282.25 -670.666992188 L 1304.25 -670.0 L 1326.25 -669.333007812 L 1345.91699219 -667.333007812 L 1363.25 -664.0 L 1375.91699219 -664.0 L 1390.25 -647.0 L 1406.25 -613.0 L 1422.25 -579.0 L 1439.58300781 -541.666992188 L 1458.25 -501.0 L 1464.25 -487.0 L 1470.58300781 -479.0 L 1477.25 -477.0 L 1482.58300781 -475.0 L 1486.75 -471.5 L 1489.75 -466.5 L 1492.75 -461.5 L 1489.91699219 -457.0 L 1481.25 -453.0 L 1460.58300781 -449.0 L 1439.91699219 -447.333007812 L 1419.25 -448.0 L 1398.58300781 -448.666992188 L 1378.91699219 -450.333007812 L 1360.25 -453.0 L 1342.25 -461.0 L 1327.41699219 -476.0 L 1315.75 -498.0 L 1304.08300781 -520.0 L 1287.91699219 -559.666992188 L 1267.25 -617.0 L 1265.25 -620.333007812 L 1261.58300781 -625.5 L 1256.25 -632.5 L 1250.91699219 -639.5 L 1244.58300781 -643.666992188 L 1237.25 -645.0 L 1227.91699219 -646.333007812 L 1222.75 -651.0 L 1221.75 -659.0 L 1220.75 -667.0 L 1227.25 -671.0 Z M 92.75 -384.0 L 96.4169921875 -389.333007812 L 100.25 -392.166992188 L 104.25 -392.5 L 108.25 -392.833007812 L 112.75 -391.666992188 L 117.75 -389.0 L 122.75 -386.333007812 L 128.916992188 -383.166992188 L 136.25 -379.5 L 143.583007812 -375.833007812 L 152.916992188 -372.833007812 L 164.25 -370.5 L 175.583007812 -368.166992188 L 191.583007812 -367.0 L 212.25 -367.0 L 1699.25 -367.0 L 1717.91699219 -367.0 L 1735.08300781 -365.5 L 1750.75 -362.5 L 1766.41699219 -359.5 L 1780.58300781 -354.666992188 L 1793.25 -348.0 L 1805.91699219 -341.333007812 L 1815.75 -335.333007812 L 1822.75 -330.0 L 1829.75 -324.666992188 L 1839.25 -315.5 L 1851.25 -302.5 L 1863.25 -289.5 L 1873.75 -277.0 L 1882.75 -265.0 L 1891.75 -253.0 L 1893.58300781 -241.333007812 L 1888.25 -230.0 L 1882.91699219 -222.0 L 1876.75 -220.333007812 L 1869.75 -225.0 L 1862.75 -229.666992188 L 1854.58300781 -233.666992188 L 1845.25 -237.0 L 1835.91699219 -240.333007812 L 1825.58300781 -242.666992188 L 1814.25 -244.0 L 1802.91699219 -245.333007812 L 1785.91699219 -246.0 L 1763.25 -246.0 L 290.25 -246.0 L 274.916992188 -246.0 L 260.916992188 -247.0 L 248.25 -249.0 L 235.583007812 -251.0 L 225.75 -253.166992188 L 218.75 -255.5 L 211.75 -257.833007812 L 204.25 -261.0 L 196.25 -265.0 L 188.25 -269.0 L 179.75 -273.833007812 L 170.75 -279.5 L 161.75 -285.166992188 L 152.25 -293.166992188 L 142.25 -303.5 L 132.25 -313.833007812 L 122.083007812 -325.833007812 L 111.75 -339.5 L 101.416992188 -353.166992188 L 94.75 -362.666992188 L 91.75 -368.0 L 88.75 -373.333007812 L 89.0830078125 -378.666992188 Z M 296.25 -489.0 L 270.916992188 -479.666992188 L 228.25 -480.0 L 168.25 -490.0 L 132.916992188 -498.666992188 L 101.583007812 -510.333007812 L 74.25 -525.0 L 46.9169921875 -539.666992188 L 25.9169921875 -565.333007812 L 11.25 -602.0 L 1.25 -637.333007812 L -2.0830078125 -665.666992188 L 1.25 -687.0 L 4.5830078125 -708.333007812 L 16.5830078125 -732.666992188 L 37.25 -760.0 L 56.5830078125 -783.333007812 L 79.0830078125 -801.0 L 104.75 -813.0 L 130.416992188 -825.0 L 161.916992188 -835.0 L 199.25 -843.0 L 236.583007812 -850.333007812 L 266.916992188 -853.833007812 L 290.25 -853.5 L 313.583007812 -853.166992188 L 338.583007812 -852.333007812 L 365.25 -851.0 L 391.916992188 -849.666992188 L 416.75 -847.5 L 439.75 -844.5 L 462.75 -841.5 L 490.583007812 -835.0 L 523.25 -825.0 L 577.25 -810.333007812 L 630.583007812 -790.0 L 683.25 -764.0 L 712.583007812 -749.333007812 L 743.916992188 -733.5 L 777.25 -716.5 L 810.583007812 -699.5 L 847.583007812 -679.666992188 L 888.25 -657.0 L 906.916992188 -645.666992188 L 927.25 -633.5 L 949.25 -620.5 L 971.25 -607.5 L 995.25 -594.333007812 L 1021.25 -581.0 L 1040.58300781 -569.0 L 1059.58300781 -556.833007812 L 1078.25 -544.5 L 1096.91699219 -532.166992188 L 1104.75 -519.833007812 L 1101.75 -507.5 L 1098.75 -495.166992188 L 1091.58300781 -489.333007812 L 1080.25 -490.0 L 1068.91699219 -490.666992188 L 1033.25 -490.333007812 L 973.25 -489.0 L 913.25 -487.666992188 L 860.916992188 -487.666992188 L 816.25 -489.0 L 798.25 -502.333007812 L 798.416992188 -511.833007812 L 816.75 -517.5 L 835.083007812 -523.166992188 L 848.583007812 -530.333007812 L 857.25 -539.0 L 873.916992188 -556.333007812 L 881.416992188 -570.0 L 879.75 -580.0 L 878.083007812 -590.0 L 875.416992188 -597.833007812 L 871.75 -603.5 L 868.083007812 -609.166992188 L 862.583007812 -615.333007812 L 855.25 -622.0 L 847.916992188 -628.666992188 L 829.75 -641.833007812 L 800.75 -661.5 L 771.75 -681.166992188 L 735.583007812 -702.0 L 692.25 -724.0 L 653.583007812 -740.666992188 L 623.25 -754.5 L 601.25 -765.5 L 579.25 -776.5 L 543.583007812 -788.666992188 L 494.25 -802.0 L 457.583007812 -809.333007812 L 420.25 -813.666992188 L 382.25 -815.0 L 344.25 -816.333007812 L 305.916992188 -810.666992188 L 267.25 -798.0 L 239.916992188 -786.0 L 220.583007812 -775.833007812 L 209.25 -767.5 L 197.916992188 -759.166992188 L 185.25 -744.333007812 L 171.25 -723.0 L 159.25 -703.0 L 152.416992188 -686.166992188 L 150.75 -672.5 L 149.083007812 -658.833007812 L 148.916992188 -642.666992188 L 150.25 -624.0 L 150.916992188 -605.333007812 L 153.083007812 -592.0 L 156.75 -584.0 L 160.416992188 -576.0 L 165.25 -567.666992188 L 171.25 -559.0 L 177.25 -550.333007812 L 184.75 -542.5 L 193.75 -535.5 L 202.75 -528.5 L 216.416992188 -523.5 L 234.75 -520.5 L 253.083007812 -517.5 L 271.583007812 -515.0 L 290.25 -513.0 L 298.25 -511.666992188 L 303.25 -508.5 L 305.25 -503.5 L 307.25 -498.5 L 304.25 -493.666992188 Z" fill="black" fill-opacity="0.25" stroke="black" stroke-width="4.0"/>
  <rect x="1491.0" y="-671.0" width="271.9999999999998" height="224.00000000000003" fill="none" stroke="red" stroke-width="10.0" /><rect x="1221.0" y="-671.0" width="272.0" height="224.00000000000003" fill="none" stroke="red" stroke-width="10.0" /><rect x="89.0" y="-393.0" width="1805.0" height="173.00000000000003" fill="none" stroke="red" stroke-width="10.0" /><rect x="-2.0" y="-854.0" width="1107.0" height="374.0" fill="none" stroke="red" stroke-width="10.0" />
</svg>
