<svg xmlns="http://www.w3.org/2000/svg"
  viewBox="-50.00005894218928 -916.5216985344719 1436.7544334076463 744.1007894189875">
  <rect x="-50.00005894218928" y="-916.5216985344719" width="1436.7544334076463" height="744.1007894189875" fill="white"/>
  <path d="M 2.77734375 -384.0 L 6.111328125 -389.333007812 L 9.9443359375 -392.166992188 L 14.27734375 -392.5 L 18.611328125 -392.833007812 L 23.111328125 -391.666992188 L 27.77734375 -389.0 L 32.4443359375 -386.333007812 L 38.4443359375 -383.166992188 L 45.77734375 -379.5 L 53.111328125 -375.833007812 L 62.4443359375 -372.833007812 L 73.77734375 -370.5 L 85.111328125 -368.166992188 L 101.111328125 -367.0 L 121.77734375 -367.0 L 1145.77734375 -367.0 L 1164.44433594 -367.0 L 1181.44433594 -365.5 L 1196.77734375 -362.5 L 1212.11132812 -359.5 L 1226.11132812 -354.666992188 L 1238.77734375 -348.0 L 1251.44433594 -341.333007812 L 1261.27734375 -335.333007812 L 1268.27734375 -330.0 L 1275.27734375 -324.666992188 L 1284.77734375 -315.5 L 1296.77734375 -302.5 L 1308.77734375 -289.5 L 1319.27734375 -277.0 L 1328.27734375 -265.0 L 1337.27734375 -253.0 L 1339.11132812 -241.333007812 L 1333.77734375 -230.0 L 1328.44433594 -222.0 L 1322.27734375 -220.333007812 L 1315.27734375 -225.0 L 1308.27734375 -229.666992188 L 1300.11132812 -233.666992188 L 1290.77734375 -237.0 L 1281.44433594 -240.333007812 L 1271.27734375 -242.666992188 L 1260.27734375 -244.0 L 1249.27734375 -245.333007812 L 1232.11132812 -246.0 L 1208.77734375 -246.0 L 199.77734375 -246.0 L 184.444335938 -246.0 L 170.444335938 -247.0 L 157.77734375 -249.0 L 145.111328125 -251.0 L 135.27734375 -253.166992188 L 128.27734375 -255.5 L 121.27734375 -257.833007812 L 113.77734375 -261.0 L 105.77734375 -265.0 L 97.77734375 -269.0 L 89.27734375 -273.833007812 L 80.27734375 -279.5 L 71.27734375 -285.166992188 L 61.77734375 -293.166992188 L 51.77734375 -303.5 L 41.77734375 -313.833007812 L 31.611328125 -325.833007812 L 21.27734375 -339.5 L 10.9443359375 -353.166992188 L 4.4443359375 -362.666992188 L 1.77734375 -368.0 L -0.888671875 -373.333007812 L -0.5556640625 -378.666992188 Z M 350.77734375 -502.0 L 325.444335938 -492.666992188 L 282.77734375 -493.0 L 222.77734375 -503.0 L 187.444335938 -511.666992188 L 156.111328125 -523.333007812 L 128.77734375 -538.0 L 101.444335938 -552.666992188 L 80.4443359375 -578.666992188 L 65.77734375 -616.0 L 55.77734375 -651.333007812 L 52.611328125 -679.5 L 56.27734375 -700.5 L 59.9443359375 -721.5 L 71.77734375 -745.666992188 L 91.77734375 -773.0 L 111.111328125 -796.333007812 L 133.611328125 -814.0 L 159.27734375 -826.0 L 184.944335938 -838.0 L 216.444335938 -848.0 L 253.77734375 -856.0 L 291.111328125 -863.333007812 L 321.444335938 -866.833007812 L 344.77734375 -866.5 L 368.111328125 -866.166992188 L 393.111328125 -865.666992188 L 419.77734375 -865.0 L 446.444335938 -863.666992188 L 471.27734375 -861.333007812 L 494.27734375 -858.0 L 517.27734375 -854.666992188 L 545.111328125 -848.0 L 577.77734375 -838.0 L 631.77734375 -823.333007812 L 685.111328125 -803.0 L 737.77734375 -777.0 L 767.111328125 -762.333007812 L 798.444335938 -746.5 L 831.77734375 -729.5 L 865.111328125 -712.5 L 902.111328125 -692.666992188 L 942.77734375 -670.0 L 961.444335938 -658.666992188 L 981.77734375 -646.5 L 1003.77734375 -633.5 L 1025.77734375 -620.5 L 1049.77734375 -607.333007812 L 1075.77734375 -594.0 L 1095.11132812 -582.0 L 1114.11132812 -569.833007812 L 1132.77734375 -557.5 L 1151.44433594 -545.166992188 L 1159.27734375 -532.833007812 L 1156.27734375 -520.5 L 1153.27734375 -508.166992188 L 1146.11132812 -502.333007812 L 1134.77734375 -503.0 L 1123.44433594 -503.666992188 L 1087.77734375 -503.333007812 L 1027.77734375 -502.0 L 967.77734375 -500.666992188 L 915.444335938 -500.666992188 L 870.77734375 -502.0 L 852.77734375 -515.333007812 L 852.944335938 -524.833007812 L 871.27734375 -530.5 L 889.611328125 -536.166992188 L 903.111328125 -543.333007812 L 911.77734375 -552.0 L 928.444335938 -569.333007812 L 935.944335938 -583.0 L 934.27734375 -593.0 L 932.611328125 -603.0 L 929.944335938 -610.833007812 L 926.27734375 -616.5 L 922.611328125 -622.166992188 L 917.111328125 -628.333007812 L 909.77734375 -635.0 L 902.444335938 -641.666992188 L 884.27734375 -654.833007812 L 855.27734375 -674.5 L 826.27734375 -694.166992188 L 790.444335938 -715.333007812 L 747.77734375 -738.0 L 709.111328125 -754.666992188 L 678.77734375 -768.333007812 L 656.77734375 -779.0 L 634.77734375 -789.666992188 L 598.77734375 -801.666992188 L 548.77734375 -815.0 L 512.111328125 -822.333007812 L 474.77734375 -826.666992188 L 436.77734375 -828.0 L 398.77734375 -829.333007812 L 360.444335938 -823.666992188 L 321.77734375 -811.0 L 294.444335938 -799.0 L 275.111328125 -788.833007812 L 263.77734375 -780.5 L 252.444335938 -772.166992188 L 240.111328125 -757.666992188 L 226.77734375 -737.0 L 214.77734375 -717.0 L 207.77734375 -700.0 L 205.77734375 -686.0 L 203.77734375 -672.0 L 203.444335938 -655.666992188 L 204.77734375 -637.0 L 205.444335938 -618.333007812 L 207.611328125 -605.0 L 211.27734375 -597.0 L 214.944335938 -589.0 L 219.77734375 -580.666992188 L 225.77734375 -572.0 L 231.77734375 -563.333007812 L 239.27734375 -555.5 L 248.27734375 -548.5 L 257.27734375 -541.5 L 270.944335938 -536.5 L 289.27734375 -533.5 L 307.611328125 -530.5 L 326.111328125 -528.0 L 344.77734375 -526.0 L 352.77734375 -524.666992188 L 357.77734375 -521.5 L 359.77734375 -516.5 L 361.77734375 -511.5 L 358.77734375 -506.666992188 Z" fill="black" fill-opacity="0.25" stroke="black" stroke-width="4.0"/>
  <rect x="-1.0" y="-393.0" width="1339.9999999999998" height="173.00000000000003" fill="none" stroke="red" stroke-width="10.0" /><rect x="53.0" y="-867.0" width="1106.0" height="374.0" fill="none" stroke="red" stroke-width="10.0" />
</svg>
