<svg xmlns="http://www.w3.org/2000/svg"
  viewBox="-50 -856 1568.754 683.579">
  <rect x="-50" y="-856" width="1568.754" height="683.579" fill="white"/>
  <path d="M 330.777 -458 L 323.444 -464 L 323.111 -469.5 L 329.777 -474.5 L 336.444 -479.5 L 344.777 -482 L 354.777 -482 L 365.444 -482 L 380.444 -491.833 L 399.777 -511.5 L 419.111 -531.167 L 432.111 -555.333 L 438.777 -584 L 448.777 -632.667 L 423.111 -672.333 L 361.777 -703 L 338.444 -714.333 L 309.111 -724.5 L 273.777 -733.5 L 238.444 -742.5 L 203.444 -750.333 L 168.777 -757 L 134.111 -763.667 L 103.611 -769.167 L 77.277 -773.5 L 50.944 -778.5 L 35.444 -781.667 L 30.777 -783 L 21.444 -786.333 L 17.944 -791 L 20.277 -797 L 22.611 -803 L 27.444 -806 L 34.777 -806 L 38.777 -806 L 53.777 -804.5 L 79.777 -801.5 L 105.777 -798.5 L 136.777 -794 L 172.777 -788 L 208.777 -782 L 246.944 -774.167 L 287.277 -764.5 L 327.611 -754.833 L 364.444 -743.667 L 397.777 -731 L 437.111 -715.667 L 468.444 -700.333 L 491.777 -685 L 515.111 -669.667 L 536.444 -649 L 555.777 -623 L 575.111 -597 L 583.277 -571 L 580.277 -545 L 577.277 -519 L 566.111 -498.667 L 546.777 -484 L 528.777 -470.667 L 508.277 -461.667 L 485.277 -457 L 462.277 -452.333 L 440.111 -450 L 418.777 -450 L 386.777 -450 L 386.777 -450 L 374.777 -450 L 366.777 -450 L 352.111 -452.667 Z M 1071.777 -671 L 1091.777 -671 L 1112.777 -670.667 L 1134.777 -670 L 1156.777 -669.333 L 1176.444 -667.333 L 1193.777 -664 L 1206.444 -664 L 1220.777 -647 L 1236.777 -613 L 1252.777 -579 L 1270.444 -541.667 L 1289.777 -501 L 1295.111 -487 L 1301.444 -479 L 1308.777 -477 L 1313.444 -475 L 1317.277 -471.5 L 1320.277 -466.5 L 1323.277 -461.5 L 1320.444 -457 L 1311.777 -453 L 1291.777 -449 L 1271.277 -447.333 L 1250.277 -448 L 1229.277 -448.667 L 1209.777 -450.333 L 1191.777 -453 L 1174.444 -461 L 1159.611 -476 L 1147.277 -498 L 1134.944 -520 L 1118.444 -559.667 L 1097.777 -617 L 1095.777 -620.333 L 1092.111 -625.5 L 1086.777 -632.5 L 1081.444 -639.5 L 1075.444 -643.667 L 1068.777 -645 L 1059.444 -646.333 L 1054.111 -651 L 1052.777 -659 L 1051.444 -667 L 1057.777 -671 Z M 801.777 -671 L 821.777 -671 L 842.777 -670.667 L 864.777 -670 L 886.777 -669.333 L 906.444 -667.333 L 923.777 -664 L 936.444 -664 L 950.777 -647 L 966.777 -613 L 982.777 -579 L 1000.111 -541.667 L 1018.777 -501 L 1024.777 -487 L 1031.111 -479 L 1037.777 -477 L 1043.111 -475 L 1047.277 -471.5 L 1050.277 -466.5 L 1053.277 -461.5 L 1050.444 -457 L 1041.777 -453 L 1021.111 -449 L 1000.444 -447.333 L 979.777 -448 L 959.111 -448.667 L 939.444 -450.333 L 920.777 -453 L 903.444 -461 L 888.777 -476 L 876.777 -498 L 864.777 -520 L 848.444 -559.667 L 827.777 -617 L 825.777 -620.333 L 822.111 -625.5 L 816.777 -632.5 L 811.444 -639.5 L 805.111 -643.667 L 797.777 -645 L 788.444 -646.333 L 783.277 -651 L 782.277 -659 L 781.277 -667 L 787.777 -671 Z M 2.777 -384 L 6.111 -389.333 L 9.944 -392.167 L 14.277 -392.5 L 18.611 -392.833 L 23.111 -391.667 L 27.777 -389 L 32.444 -386.333 L 38.444 -383.167 L 45.777 -379.5 L 53.111 -375.833 L 62.444 -372.833 L 73.777 -370.5 L 85.111 -368.167 L 101.111 -367 L 121.777 -367 L 1276.777 -367 L 1295.444 -367 L 1312.611 -365.5 L 1328.277 -362.5 L 1343.944 -359.5 L 1358.111 -354.667 L 1370.777 -348 L 1383.444 -341.333 L 1393.277 -335.333 L 1400.277 -330 L 1407.277 -324.667 L 1416.777 -315.5 L 1428.777 -302.5 L 1440.777 -289.5 L 1451.277 -277 L 1460.277 -265 L 1469.277 -253 L 1471.111 -241.333 L 1465.777 -230 L 1460.444 -222 L 1454.277 -220.333 L 1447.277 -225 L 1440.277 -229.667 L 1432.111 -233.667 L 1422.777 -237 L 1413.444 -240.333 L 1403.277 -242.667 L 1392.277 -244 L 1381.277 -245.333 L 1364.111 -246 L 1340.777 -246 L 199.777 -246 L 184.444 -246 L 170.444 -247 L 157.777 -249 L 145.111 -251 L 135.277 -253.167 L 128.277 -255.5 L 121.277 -257.833 L 113.777 -261 L 105.777 -265 L 97.777 -269 L 89.444 -273.833 L 80.777 -279.5 L 72.111 -285.167 L 62.611 -293.167 L 52.277 -303.5 L 41.944 -313.833 L 31.611 -325.833 L 21.277 -339.5 L 10.944 -353.167 L 4.444 -362.667 L 1.777 -368 L -0.889 -373.333 L -0.556 -378.667 Z" fill="black" fill-opacity="0.25" stroke="black" stroke-width="4"/>
  <rect x="18" y="-806" width="565" height="356" fill="none" stroke="red" stroke-width="10" /><rect x="1051" y="-671" width="272" height="224" fill="none" stroke="red" stroke-width="10" /><rect x="781" y="-671" width="272" height="224" fill="none" stroke="red" stroke-width="10" /><rect x="-1" y="-393" width="1472" height="173" fill="none" stroke="red" stroke-width="10" />
</svg>
