<svg xmlns="http://www.w3.org/2000/svg"
  viewBox="-50 -861 1202.364 777.522">
  <rect x="-50" y="-861" width="1202.364" height="777.522" fill="white"/>
  <path d="M 459.113 -463 L 451.78 -469 L 451.447 -474.5 L 458.113 -479.5 L 464.78 -484.5 L 473.113 -487 L 483.113 -487 L 493.78 -487 L 508.947 -496.667 L 528.613 -516 L 548.28 -535.333 L 561.113 -559.667 L 567.113 -589 L 577.113 -638.333 L 551.447 -678 L 490.113 -708 L 466.78 -719.333 L 437.447 -729.5 L 402.113 -738.5 L 366.78 -747.5 L 331.78 -755.333 L 297.113 -762 L 262.447 -768.667 L 231.947 -774 L 205.613 -778 L 179.28 -782 L 163.78 -785 L 159.113 -787 L 149.78 -790.333 L 146.28 -795.167 L 148.613 -801.5 L 150.947 -807.833 L 156.113 -811 L 164.113 -811 L 167.447 -811 L 182.113 -809.5 L 208.113 -806.5 L 234.113 -803.5 L 265.113 -798.833 L 301.113 -792.5 L 337.113 -786.167 L 375.447 -778.333 L 416.113 -769 L 456.78 -759.667 L 493.447 -748.667 L 526.113 -736 L 565.447 -720.667 L 596.78 -705.167 L 620.113 -689.5 L 643.447 -673.833 L 664.78 -653.333 L 684.113 -628 L 703.447 -601.333 L 711.613 -575 L 708.613 -549 L 705.613 -523 L 694.447 -503 L 675.113 -489 L 657.78 -475.667 L 637.447 -466.667 L 614.113 -462 L 590.78 -457.333 L 568.78 -455 L 548.113 -455 L 526.78 -455 L 511.947 -455.167 L 503.613 -455.5 L 495.28 -455.833 L 480.447 -458.333 Z M 806.113 -498 L 831.447 -507.333 L 874.447 -506.667 L 935.113 -496 L 970.447 -486.667 L 1001.613 -474.833 L 1028.613 -460.5 L 1055.613 -446.167 L 1076.447 -420.667 L 1091.113 -384 L 1101.113 -348.667 L 1104.447 -320.333 L 1101.113 -299 L 1097.78 -277.667 L 1086.113 -253.333 L 1066.113 -226 L 1046.78 -202.667 L 1024.28 -185.167 L 998.613 -173.5 L 972.947 -161.833 L 941.447 -152 L 904.113 -144 L 866.78 -136.667 L 836.447 -133.167 L 813.113 -133.5 L 789.78 -133.833 L 764.447 -134.333 L 737.113 -135 L 710.447 -136.333 L 685.613 -138.5 L 662.613 -141.5 L 639.613 -144.5 L 611.78 -151 L 579.113 -161 L 525.113 -175.667 L 471.78 -196 L 419.113 -222 L 389.78 -236.667 L 358.613 -252.5 L 325.613 -269.5 L 292.613 -286.5 L 255.78 -306.667 L 215.113 -330 L 196.447 -341.333 L 175.947 -353.5 L 153.613 -366.5 L 131.28 -379.5 L 107.447 -392.667 L 82.113 -406 L 62.78 -418 L 43.613 -430.167 L 24.613 -442.5 L 5.613 -454.833 L -2.387 -467.167 L 0.613 -479.5 L 3.613 -491.833 L 10.78 -497.667 L 22.113 -497 L 33.447 -496.333 L 69.113 -496.5 L 129.113 -497.5 L 189.113 -498.5 L 241.78 -498.667 L 287.113 -498 L 305.113 -484.667 L 304.947 -475.167 L 286.613 -469.5 L 268.28 -463.833 L 254.447 -456.667 L 245.113 -448 L 228.447 -430.667 L 221.113 -416.833 L 223.113 -406.5 L 225.113 -396.167 L 227.947 -388.167 L 231.613 -382.5 L 235.28 -376.833 L 240.78 -370.833 L 248.113 -364.5 L 255.447 -358.167 L 273.447 -345 L 302.113 -325 L 330.78 -305 L 366.78 -284 L 410.113 -262 L 448.78 -245.333 L 479.113 -231.667 L 501.113 -221 L 523.113 -210.333 L 558.78 -198.333 L 608.113 -185 L 644.78 -177.667 L 682.113 -173.167 L 720.113 -171.5 L 758.113 -169.833 L 796.78 -175.333 L 836.113 -188 L 863.447 -200 L 882.613 -210.333 L 893.613 -219 L 904.613 -227.667 L 917.113 -242.333 L 931.113 -263 L 943.113 -283 L 949.947 -300 L 951.613 -314 L 953.28 -328 L 953.447 -344 L 952.113 -362 L 951.447 -380.667 L 949.28 -394.167 L 945.613 -402.5 L 941.947 -410.833 L 937.28 -419.333 L 931.613 -428 L 925.947 -436.667 L 918.613 -444.5 L 909.613 -451.5 L 900.613 -458.5 L 886.78 -463.333 L 868.113 -466 L 849.447 -468.667 L 831.113 -471 L 813.113 -473 L 805.113 -474.333 L 799.947 -477.667 L 797.613 -483 L 795.28 -488.333 L 798.113 -493.333 Z" fill="black" fill-opacity="0.25" stroke="black" stroke-width="4"/>
  <rect x="146" y="-811" width="566" height="356" fill="none" stroke="red" stroke-width="10" /><rect x="-2" y="-507" width="1106" height="374" fill="none" stroke="red" stroke-width="10" />
</svg>
