<svg xmlns="http://www.w3.org/2000/svg"
  viewBox="-50 -906 1605.904 829">
  <rect x="-50" y="-906" width="1605.904" height="829" fill="white"/>
  <path d="M 251.963 -537 L 245.296 -541.667 L 244.963 -546.167 L 250.963 -550.5 L 256.963 -554.833 L 263.963 -557 L 271.963 -557 L 281.296 -557 L 294.296 -565.5 L 310.963 -582.5 L 327.63 -599.5 L 338.963 -620.333 L 344.963 -645 L 353.63 -686.333 L 331.63 -720.333 L 278.963 -747 L 239.63 -766.333 L 186.63 -781.167 L 119.963 -791.5 L 53.296 -801.833 L 16.296 -808.667 L 8.963 -812 L 1.63 -814.667 L -1.204 -818.667 L 0.463 -824 L 2.13 -829.333 L 5.963 -832 L 11.963 -832 L 17.963 -832 L 54.963 -827.167 L 122.963 -817.5 L 190.963 -807.833 L 252.963 -792.333 L 308.963 -771 L 342.296 -757.667 L 369.13 -744.333 L 389.463 -731 L 409.796 -717.667 L 428.296 -700 L 444.963 -678 L 461.63 -655.333 L 468.63 -632.833 L 465.963 -610.5 L 463.296 -588.167 L 453.63 -571 L 436.963 -559 L 421.63 -547.667 L 404.13 -540 L 384.463 -536 L 364.796 -532 L 345.963 -530 L 327.963 -530 L 309.963 -530 L 297.296 -530.167 L 289.963 -530.5 L 282.63 -530.833 L 269.963 -533 Z M 1237.963 -459 L 1261.296 -467.667 L 1299.963 -467 L 1353.963 -457 L 1385.963 -449 L 1414.296 -438.5 L 1438.963 -425.5 L 1463.63 -412.5 L 1482.63 -389 L 1495.963 -355 L 1504.63 -323 L 1507.63 -297.5 L 1504.963 -278.5 L 1502.296 -259.5 L 1491.63 -237.333 L 1472.963 -212 L 1455.63 -191.333 L 1435.296 -175.333 L 1411.963 -164 L 1388.63 -152.667 L 1359.963 -143.667 L 1325.963 -137 L 1292.63 -130.333 L 1265.296 -127 L 1243.963 -127 L 1222.63 -127 L 1199.63 -127.667 L 1174.963 -129 L 1150.963 -129.667 L 1128.463 -131.5 L 1107.463 -134.5 L 1086.463 -137.5 L 1060.963 -143.667 L 1030.963 -153 L 981.63 -167 L 933.296 -185.333 L 885.963 -208 L 858.63 -221.333 L 829.963 -235.667 L 799.963 -251 L 769.963 -266.333 L 736.63 -284.333 L 699.963 -305 L 682.63 -315.667 L 663.963 -326.833 L 643.963 -338.5 L 623.963 -350.167 L 602.296 -362 L 578.963 -374 L 560.963 -384.667 L 543.463 -395.667 L 526.463 -407 L 509.463 -418.333 L 502.296 -429.667 L 504.963 -441 L 507.63 -452.333 L 514.13 -457.667 L 524.463 -457 L 534.796 -456.333 L 567.296 -456.667 L 621.963 -458 L 676.63 -459.333 L 724.296 -459.333 L 764.963 -458 L 780.963 -446 L 780.796 -437.5 L 764.463 -432.5 L 748.13 -427.5 L 735.63 -420.667 L 726.963 -412 L 712.296 -396.667 L 705.796 -384.5 L 707.463 -375.5 L 709.13 -366.5 L 711.463 -359.333 L 714.463 -354 L 717.463 -348.667 L 722.463 -343 L 729.463 -337 L 736.463 -331 L 753.13 -319 L 779.463 -301 L 805.796 -283 L 838.296 -264 L 876.963 -244 L 911.63 -228.667 L 939.13 -216.167 L 959.463 -206.5 L 979.796 -196.833 L 1012.296 -186 L 1056.963 -174 L 1090.296 -168 L 1124.296 -164.167 L 1158.963 -162.5 L 1193.63 -160.833 L 1228.963 -165.667 L 1264.963 -177 L 1289.63 -188.333 L 1306.963 -197.833 L 1316.963 -205.5 L 1326.963 -213.167 L 1338.296 -226.333 L 1350.963 -245 L 1361.63 -263.667 L 1367.796 -279.167 L 1369.463 -291.5 L 1371.13 -303.833 L 1371.296 -318.333 L 1369.963 -335 L 1369.296 -351.667 L 1367.296 -363.833 L 1363.963 -371.5 L 1360.63 -379.167 L 1356.296 -387 L 1350.963 -395 L 1345.63 -403 L 1338.963 -410.167 L 1330.963 -416.5 L 1322.963 -422.833 L 1310.463 -427.333 L 1293.463 -430 L 1276.463 -432.667 L 1259.963 -434.667 L 1243.963 -436 L 1236.63 -437.333 L 1231.963 -440.5 L 1229.963 -445.5 L 1227.963 -450.5 L 1230.63 -455 Z M 751.963 -525 L 728.63 -516.333 L 689.63 -516.667 L 634.963 -526 L 602.963 -534 L 574.63 -544.667 L 549.963 -558 L 525.296 -571.333 L 506.296 -594.667 L 492.963 -628 L 484.296 -660 L 481.463 -685.667 L 484.463 -705 L 487.463 -724.333 L 497.963 -746.333 L 515.963 -771 L 533.296 -792.333 L 553.796 -808.5 L 577.463 -819.5 L 601.13 -830.5 L 629.63 -839.333 L 662.963 -846 L 696.963 -852.667 L 724.63 -856 L 745.963 -856 L 767.296 -856 L 790.296 -855.333 L 814.963 -854 L 839.63 -853.333 L 862.296 -851.5 L 882.963 -848.5 L 903.63 -845.5 L 928.63 -839.333 L 957.963 -830 L 1007.296 -816 L 1055.963 -797.667 L 1103.963 -775 L 1131.296 -761.667 L 1159.796 -747.333 L 1189.463 -732 L 1219.13 -716.667 L 1252.63 -698.333 L 1289.963 -677 L 1307.296 -667 L 1325.796 -656.167 L 1345.463 -644.5 L 1365.13 -632.833 L 1386.63 -621 L 1409.963 -609 L 1427.963 -597.667 L 1445.463 -586.5 L 1462.463 -575.5 L 1479.463 -564.5 L 1486.63 -553.333 L 1483.963 -542 L 1481.296 -530.667 L 1474.796 -525.333 L 1464.463 -526 L 1454.13 -526.667 L 1421.63 -526.333 L 1366.963 -525 L 1312.296 -523.667 L 1264.63 -523.667 L 1223.963 -525 L 1207.963 -537 L 1208.296 -545.5 L 1224.963 -550.5 L 1241.63 -555.5 L 1253.963 -562 L 1261.963 -570 L 1276.63 -586 L 1283.296 -598.5 L 1281.963 -607.5 L 1280.63 -616.5 L 1278.296 -623.667 L 1274.963 -629 L 1271.63 -634.333 L 1266.63 -640 L 1259.963 -646 L 1253.296 -652 L 1236.796 -664 L 1210.463 -682 L 1184.13 -700 L 1151.296 -719 L 1111.963 -739 L 1077.296 -754.333 L 1049.796 -766.833 L 1029.463 -776.5 L 1009.13 -786.167 L 976.63 -797 L 931.963 -809 L 898.63 -815.667 L 864.796 -819.833 L 830.463 -821.5 L 796.13 -823.167 L 760.963 -818 L 724.963 -806 L 700.296 -795.333 L 682.796 -786 L 672.463 -778 L 662.13 -770 L 650.963 -756.667 L 638.963 -738 L 628.296 -720 L 622.13 -704.667 L 620.463 -692 L 618.796 -679.333 L 618.296 -664.667 L 618.963 -648 L 619.63 -631.333 L 621.63 -619.167 L 624.963 -611.5 L 628.296 -603.833 L 632.63 -596 L 637.963 -588 L 643.296 -580 L 650.13 -572.833 L 658.463 -566.5 L 666.796 -560.167 L 679.296 -555.833 L 695.963 -553.5 L 712.63 -551.167 L 729.296 -549 L 745.963 -547 L 753.296 -545.667 L 757.963 -542.667 L 759.963 -538 L 761.963 -533.333 L 759.296 -529 Z" fill="black" fill-opacity="0.25" stroke="black" stroke-width="4"/>
  <rect x="-1" y="-832" width="470" height="302" fill="none" stroke="red" stroke-width="10" /><rect x="502" y="-468" width="1006" height="341" fill="none" stroke="red" stroke-width="10" /><rect x="481" y="-856" width="1006" height="340" fill="none" stroke="red" stroke-width="10" />
</svg>
