<svg xmlns="http://www.w3.org/2000/svg"
  viewBox="-50.0 -1393.0 1232.249862670263 1309.5216985344719">
  <rect x="-50.0" y="-1393.0" width="1232.249862670263" height="1309.5216985344719" fill="white"/>
  <path d="M 487.0 -707.0 L 507.0 -707.0 L 528.0 -706.666992188 L 550.0 -706.0 L 572.0 -705.333007812 L 591.666992188 -703.333007812 L 609.0 -700.0 L 621.666992188 -700.0 L 635.0 -678.666992188 L 649.0 -636.0 L 663.0 -593.333007812 L 679.333007812 -552.0 L 698.0 -512.0 L 704.0 -498.0 L 710.333007812 -490.0 L 717.0 -488.0 L 722.333007812 -486.666992188 L 726.5 -483.333007812 L 729.5 -478.0 L 732.5 -472.666992188 L 729.666992188 -468.0 L 721.0 -464.0 L 700.333007812 -460.0 L 679.666992188 -458.333007812 L 659.0 -459.0 L 638.333007812 -459.666992188 L 619.0 -461.333007812 L 601.0 -464.0 L 583.0 -472.0 L 569.0 -491.166992188 L 559.0 -521.5 L 549.0 -551.833007812 L 534.0 -596.0 L 514.0 -654.0 L 512.0 -657.333007812 L 508.166992188 -662.333007812 L 502.5 -669.0 L 496.833007812 -675.666992188 L 490.666992188 -679.666992188 L 484.0 -681.0 L 474.666992188 -683.0 L 469.333007812 -687.833007812 L 468.0 -695.5 L 466.666992188 -703.166992188 L 473.0 -707.0 Z M 836.0 -498.0 L 861.333007812 -507.333007812 L 904.333007812 -506.666992188 L 965.0 -496.0 L 1000.33300781 -487.333007812 L 1031.5 -475.666992188 L 1058.5 -461.0 L 1085.5 -446.333007812 L 1106.33300781 -420.666992188 L 1121.0 -384.0 L 1131.0 -348.666992188 L 1134.33300781 -320.5 L 1131.0 -299.5 L 1127.66699219 -278.5 L 1116.0 -254.0 L 1096.0 -226.0 L 1076.66699219 -202.666992188 L 1054.16699219 -185.166992188 L 1028.5 -173.5 L 1002.83300781 -161.833007812 L 971.333007812 -152.0 L 934.0 -144.0 L 896.666992188 -136.666992188 L 866.333007812 -133.166992188 L 843.0 -133.5 L 819.666992188 -133.833007812 L 794.333007812 -134.333007812 L 767.0 -135.0 L 740.333007812 -136.333007812 L 715.5 -138.5 L 692.5 -141.5 L 669.5 -144.5 L 641.666992188 -151.0 L 609.0 -161.0 L 555.0 -175.666992188 L 501.666992188 -196.0 L 449.0 -222.0 L 419.666992188 -236.666992188 L 388.5 -252.5 L 355.5 -269.5 L 322.5 -286.5 L 285.666992188 -306.666992188 L 245.0 -330.0 L 226.333007812 -341.333007812 L 205.833007812 -353.5 L 183.5 -366.5 L 161.166992188 -379.5 L 137.333007812 -392.666992188 L 112.0 -406.0 L 92.6669921875 -418.0 L 73.5 -430.0 L 54.5 -442.0 L 35.5 -454.0 L 27.5 -466.166992188 L 30.5 -478.5 L 33.5 -490.833007812 L 40.6669921875 -496.666992188 L 52.0 -496.0 L 63.3330078125 -495.333007812 L 99.0 -495.666992188 L 159.0 -497.0 L 219.0 -498.333007812 L 271.666992188 -498.666992188 L 317.0 -498.0 L 335.0 -484.666992188 L 334.833007812 -475.166992188 L 316.5 -469.5 L 298.166992188 -463.833007812 L 284.333007812 -456.666992188 L 275.0 -448.0 L 258.333007812 -430.666992188 L 251.0 -416.833007812 L 253.0 -406.5 L 255.0 -396.166992188 L 257.833007812 -388.166992188 L 261.5 -382.5 L 265.166992188 -376.833007812 L 270.666992188 -370.833007812 L 278.0 -364.5 L 285.333007812 -358.166992188 L 303.333007812 -345.0 L 332.0 -325.0 L 360.666992188 -305.0 L 396.666992188 -284.0 L 440.0 -262.0 L 478.666992188 -245.333007812 L 509.0 -231.666992188 L 531.0 -221.0 L 553.0 -210.333007812 L 588.666992188 -198.333007812 L 638.0 -185.0 L 674.666992188 -177.666992188 L 712.0 -173.166992188 L 750.0 -171.5 L 788.0 -169.833007812 L 826.666992188 -175.333007812 L 866.0 -188.0 L 893.333007812 -200.0 L 912.5 -210.333007812 L 923.5 -219.0 L 934.5 -227.666992188 L 947.0 -242.333007812 L 961.0 -263.0 L 973.0 -283.0 L 979.833007812 -300.0 L 981.5 -314.0 L 983.166992188 -328.0 L 983.333007812 -344.0 L 982.0 -362.0 L 981.333007812 -380.666992188 L 979.166992188 -394.166992188 L 975.5 -402.5 L 971.833007812 -410.833007812 L 967.166992188 -419.333007812 L 961.5 -428.0 L 955.833007812 -436.666992188 L 948.5 -444.5 L 939.5 -451.5 L 930.5 -458.5 L 916.666992188 -463.333007812 L 898.0 -466.0 L 879.333007812 -468.666992188 L 861.0 -471.0 L 843.0 -473.0 L 835.0 -474.333007812 L 829.833007812 -477.666992188 L 827.5 -483.0 L 825.166992188 -488.333007812 L 828.0 -493.333007812 Z M 499.0 -1222.0 L 509.666992188 -1220.0 L 514.5 -1214.5 L 513.5 -1205.5 L 512.5 -1196.5 L 505.666992188 -1191.33300781 L 493.0 -1190.0 L 479.0 -1185.33300781 L 467.833007812 -1167.83300781 L 459.5 -1137.5 L 451.166992188 -1107.16699219 L 442.0 -1075.0 L 432.0 -1041.0 L 409.333007812 -961.666992188 L 388.666992188 -897.333007812 L 370.0 -848.0 L 351.333007812 -798.666992188 L 333.666992188 -764.0 L 317.0 -744.0 L 300.333007812 -724.0 L 280.333007812 -709.0 L 257.0 -699.0 L 221.0 -683.666992188 L 185.5 -672.166992188 L 150.5 -664.5 L 115.5 -656.833007812 L 85.0 -653.0 L 59.0 -653.0 L 71.6669921875 -623.0 L 93.0 -602.166992188 L 123.0 -590.5 L 153.0 -578.833007812 L 161.666992188 -566.333007812 L 149.0 -553.0 L 141.666992188 -545.666992188 L 118.5 -555.333007812 L 79.5 -582.0 L 40.5 -608.666992188 L 14.0 -635.0 L 0.0 -661.0 L 0.0 -677.666992188 L 6.6669921875 -684.666992188 L 20.0 -682.0 L 33.3330078125 -679.333007812 L 48.0 -677.333007812 L 64.0 -676.0 L 79.3330078125 -675.333007812 L 95.1669921875 -676.166992188 L 111.5 -678.5 L 127.833007812 -680.833007812 L 149.666992188 -689.0 L 177.0 -703.0 L 190.333007812 -709.666992188 L 203.0 -724.833007812 L 215.0 -748.5 L 227.0 -772.166992188 L 237.833007812 -798.5 L 247.5 -827.5 L 257.166992188 -856.5 L 265.333007812 -885.166992188 L 272.0 -913.5 L 278.666992188 -941.833007812 L 287.333007812 -982.666992188 L 298.0 -1036.0 L 308.666992188 -1089.33300781 L 318.0 -1125.0 L 326.0 -1143.0 L 334.0 -1161.0 L 345.166992188 -1175.5 L 359.5 -1186.5 L 373.833007812 -1197.5 L 387.5 -1204.66699219 L 400.5 -1208.0 L 413.5 -1211.33300781 L 427.833007812 -1213.83300781 L 443.5 -1215.5 L 459.166992188 -1217.16699219 L 477.666992188 -1219.33300781 Z M 966.0 -1343.0 L 976.0 -1341.66699219 L 980.333007812 -1337.16699219 L 979.0 -1329.5 L 977.666992188 -1321.83300781 L 971.333007812 -1317.33300781 L 960.0 -1316.0 L 947.333007812 -1312.0 L 937.0 -1297.16699219 L 929.0 -1271.5 L 921.0 -1245.83300781 L 912.666992188 -1218.66699219 L 904.0 -1190.0 L 883.333007812 -1122.66699219 L 864.166992188 -1068.33300781 L 846.5 -1027.0 L 828.833007812 -985.666992188 L 812.333007812 -956.666992188 L 797.0 -940.0 L 781.666992188 -923.333007812 L 763.333007812 -910.666992188 L 742.0 -902.0 L 708.666992188 -888.666992188 L 675.666992188 -879.0 L 643.0 -873.0 L 610.333007812 -867.0 L 582.333007812 -864.0 L 559.0 -864.0 L 571.0 -838.0 L 590.666992188 -820.166992188 L 618.0 -810.5 L 645.333007812 -800.833007812 L 653.333007812 -790.333007812 L 642.0 -779.0 L 635.333007812 -773.0 L 614.0 -781.166992188 L 578.0 -803.5 L 542.0 -825.833007812 L 517.333007812 -848.0 L 504.0 -870.0 L 504.0 -884.0 L 510.166992188 -889.833007812 L 522.5 -887.5 L 534.833007812 -885.166992188 L 548.333007812 -883.666992188 L 563.0 -883.0 L 577.666992188 -882.333007812 L 592.5 -883.0 L 607.5 -885.0 L 622.5 -887.0 L 642.666992188 -894.0 L 668.0 -906.0 L 680.666992188 -912.0 L 692.333007812 -924.833007812 L 703.0 -944.5 L 713.666992188 -964.166992188 L 723.5 -986.166992188 L 732.5 -1010.5 L 741.5 -1034.83300781 L 749.166992188 -1058.83300781 L 755.5 -1082.5 L 761.833007812 -1106.16699219 L 769.833007812 -1140.5 L 779.5 -1185.5 L 789.166992188 -1230.5 L 797.666992188 -1260.66699219 L 805.0 -1276.0 L 812.333007812 -1291.33300781 L 822.666992188 -1303.66699219 L 836.0 -1313.0 L 849.333007812 -1322.33300781 L 862.0 -1328.5 L 874.0 -1331.5 L 886.0 -1334.5 L 899.5 -1336.66699219 L 914.5 -1338.0 L 929.5 -1339.33300781 L 946.666992188 -1341.0 Z" fill="black" fill-opacity="0.25" stroke="black" stroke-width="4.0"/>
  <rect x="467.0" y="-707.0" width="265.99999999999994" height="248.99999999999994" fill="none" stroke="red" stroke-width="10.0" /><rect x="28.0" y="-507.0" width="1105.9999999999998" height="374.0" fill="none" stroke="red" stroke-width="10.0" /><rect x="0.0" y="-774.4" width="339.0" height="223.8" fill="none" stroke="red" stroke-width="10.0" /><rect x="227.89999999999998" y="-998.1999999999999" width="191.9" height="223.8" fill="none" stroke="red" stroke-width="10.0" /><rect x="290.4" y="-1222.0" width="224.09999999999997" height="223.8" fill="none" stroke="red" stroke-width="10.0" /><rect x="504.0" y="-965.7" width="313.5" height="188.6" fill="none" stroke="red" stroke-width="10.0" /><rect x="714.4000000000001" y="-1154.4" width="178.69999999999996" height="188.7000000000001" fill="none" stroke="red" stroke-width="10.0" /><rect x="772.8000000000001" y="-1343.0" width="207.49999999999991" height="188.59999999999988" fill="none" stroke="red" stroke-width="10.0" />
</svg>
