<svg xmlns="http://www.w3.org/2000/svg"
  viewBox="-50.0 -1398.0 1497.222147206698 1314.5216985344719">
  <rect x="-50.0" y="-1398.0" width="1497.222147206698" height="1314.5216985344719" fill="white"/>
  <path d="M 515.0 -707.0 L 535.0 -707.0 L 556.0 -706.666992188 L 578.0 -706.0 L 600.0 -705.333007812 L 619.666992188 -703.333007812 L 637.0 -700.0 L 649.666992188 -700.0 L 663.0 -678.666992188 L 677.0 -636.0 L 691.0 -593.333007812 L 707.333007812 -552.0 L 726.0 -512.0 L 731.333007812 -498.0 L 737.666992188 -490.0 L 745.0 -488.0 L 749.666992188 -486.666992188 L 753.666992188 -483.333007812 L 757.0 -478.0 L 760.333007812 -472.666992188 L 757.666992188 -468.0 L 749.0 -464.0 L 729.0 -460.0 L 708.5 -458.333007812 L 687.5 -459.0 L 666.5 -459.666992188 L 646.666992188 -461.333007812 L 628.0 -464.0 L 610.666992188 -472.0 L 597.0 -491.166992188 L 587.0 -521.5 L 577.0 -551.833007812 L 561.666992188 -596.0 L 541.0 -654.0 L 539.0 -657.333007812 L 535.333007812 -662.333007812 L 530.0 -669.0 L 524.666992188 -675.666992188 L 518.333007812 -679.666992188 L 511.0 -681.0 L 501.666992188 -683.0 L 496.5 -687.833007812 L 495.5 -695.5 L 494.5 -703.166992188 L 501.0 -707.0 Z M 909.0 -498.0 L 934.333007812 -507.333007812 L 977.333007812 -506.666992188 L 1038.0 -496.0 L 1073.33300781 -487.333007812 L 1104.5 -475.666992188 L 1131.5 -461.0 L 1158.5 -446.333007812 L 1179.33300781 -420.666992188 L 1194.0 -384.0 L 1204.0 -348.666992188 L 1207.33300781 -320.5 L 1204.0 -299.5 L 1200.66699219 -278.5 L 1189.0 -254.0 L 1169.0 -226.0 L 1149.66699219 -202.666992188 L 1127.16699219 -185.166992188 L 1101.5 -173.5 L 1075.83300781 -161.833007812 L 1044.33300781 -152.0 L 1007.0 -144.0 L 969.666992188 -136.666992188 L 939.333007812 -133.166992188 L 916.0 -133.5 L 892.666992188 -133.833007812 L 867.333007812 -134.333007812 L 840.0 -135.0 L 813.333007812 -136.333007812 L 788.5 -138.5 L 765.5 -141.5 L 742.5 -144.5 L 714.666992188 -151.0 L 682.0 -161.0 L 628.0 -175.666992188 L 574.666992188 -196.0 L 522.0 -222.0 L 492.666992188 -236.666992188 L 461.5 -252.5 L 428.5 -269.5 L 395.5 -286.5 L 358.666992188 -306.666992188 L 318.0 -330.0 L 299.333007812 -341.333007812 L 278.833007812 -353.5 L 256.5 -366.5 L 234.166992188 -379.5 L 210.333007812 -392.666992188 L 185.0 -406.0 L 165.666992188 -418.0 L 146.5 -430.0 L 127.5 -442.0 L 108.5 -454.0 L 100.5 -466.166992188 L 103.5 -478.5 L 106.5 -490.833007812 L 113.666992188 -496.666992188 L 125.0 -496.0 L 136.333007812 -495.333007812 L 172.0 -495.666992188 L 232.0 -497.0 L 292.0 -498.333007812 L 344.666992188 -498.666992188 L 390.0 -498.0 L 408.0 -484.666992188 L 407.833007812 -475.166992188 L 389.5 -469.5 L 371.166992188 -463.833007812 L 357.333007812 -456.666992188 L 348.0 -448.0 L 331.333007812 -430.666992188 L 324.0 -416.833007812 L 326.0 -406.5 L 328.0 -396.166992188 L 330.833007812 -388.166992188 L 334.5 -382.5 L 338.166992188 -376.833007812 L 343.666992188 -370.833007812 L 351.0 -364.5 L 358.333007812 -358.166992188 L 376.333007812 -345.0 L 405.0 -325.0 L 433.666992188 -305.0 L 469.666992188 -284.0 L 513.0 -262.0 L 551.666992188 -245.333007812 L 582.0 -231.666992188 L 604.0 -221.0 L 626.0 -210.333007812 L 661.666992188 -198.333007812 L 711.0 -185.0 L 747.666992188 -177.666992188 L 785.0 -173.166992188 L 823.0 -171.5 L 861.0 -169.833007812 L 899.666992188 -175.333007812 L 939.0 -188.0 L 966.333007812 -200.0 L 985.5 -210.333007812 L 996.5 -219.0 L 1007.5 -227.666992188 L 1020.0 -242.333007812 L 1034.0 -263.0 L 1046.0 -283.0 L 1052.83300781 -300.0 L 1054.5 -314.0 L 1056.16699219 -328.0 L 1056.33300781 -344.0 L 1055.0 -362.0 L 1054.33300781 -380.666992188 L 1052.16699219 -394.166992188 L 1048.5 -402.5 L 1044.83300781 -410.833007812 L 1040.16699219 -419.333007812 L 1034.5 -428.0 L 1028.83300781 -436.666992188 L 1021.5 -444.5 L 1012.5 -451.5 L 1003.5 -458.5 L 989.666992188 -463.333007812 L 971.0 -466.0 L 952.333007812 -468.666992188 L 934.0 -471.0 L 916.0 -473.0 L 908.0 -474.333007812 L 902.833007812 -477.666992188 L 900.5 -483.0 L 898.166992188 -488.333007812 L 901.0 -493.333007812 Z M 1383.0 -1222.0 L 1393.66699219 -1220.0 L 1398.33300781 -1214.5 L 1397.0 -1205.5 L 1395.66699219 -1196.5 L 1389.0 -1191.33300781 L 1377.0 -1190.0 L 1363.0 -1185.33300781 L 1351.66699219 -1167.83300781 L 1343.0 -1137.5 L 1334.33300781 -1107.16699219 L 1325.33300781 -1075.0 L 1316.0 -1041.0 L 1293.33300781 -961.666992188 L 1272.66699219 -897.333007812 L 1254.0 -848.0 L 1235.33300781 -798.666992188 L 1217.5 -764.0 L 1200.5 -744.0 L 1183.5 -724.0 L 1163.33300781 -709.0 L 1140.0 -699.0 L 1104.0 -683.666992188 L 1068.5 -672.166992188 L 1033.5 -664.5 L 998.5 -656.833007812 L 968.333007812 -653.0 L 943.0 -653.0 L 955.666992188 -623.0 L 976.833007812 -602.166992188 L 1006.5 -590.5 L 1036.16699219 -578.833007812 L 1044.66699219 -566.333007812 L 1032.0 -553.0 L 1024.66699219 -545.666992188 L 1001.66699219 -555.333007812 L 963.0 -582.0 L 924.333007812 -608.666992188 L 897.666992188 -635.0 L 883.0 -661.0 L 883.0 -677.666992188 L 889.833007812 -684.666992188 L 903.5 -682.0 L 917.166992188 -679.333007812 L 931.666992188 -677.333007812 L 947.0 -676.0 L 962.333007812 -675.333007812 L 978.333007812 -676.166992188 L 995.0 -678.5 L 1011.66699219 -680.833007812 L 1033.66699219 -689.0 L 1061.0 -703.0 L 1074.33300781 -709.666992188 L 1086.83300781 -724.833007812 L 1098.5 -748.5 L 1110.16699219 -772.166992188 L 1120.83300781 -798.5 L 1130.5 -827.5 L 1140.16699219 -856.5 L 1148.33300781 -885.166992188 L 1155.0 -913.5 L 1161.66699219 -941.833007812 L 1170.5 -982.666992188 L 1181.5 -1036.0 L 1192.5 -1089.33300781 L 1201.83300781 -1125.0 L 1209.5 -1143.0 L 1217.16699219 -1161.0 L 1228.16699219 -1175.5 L 1242.5 -1186.5 L 1256.83300781 -1197.5 L 1270.5 -1204.66699219 L 1283.5 -1208.0 L 1296.5 -1211.33300781 L 1311.0 -1213.83300781 L 1327.0 -1215.5 L 1343.0 -1217.16699219 L 1361.66699219 -1219.33300781 Z M 499.0 -1222.0 L 509.666992188 -1220.0 L 514.333007812 -1214.5 L 513.0 -1205.5 L 511.666992188 -1196.5 L 505.0 -1191.33300781 L 493.0 -1190.0 L 479.0 -1185.33300781 L 467.666992188 -1167.83300781 L 459.0 -1137.5 L 450.333007812 -1107.16699219 L 441.333007812 -1075.0 L 432.0 -1041.0 L 409.333007812 -961.666992188 L 388.666992188 -897.333007812 L 370.0 -848.0 L 351.333007812 -798.666992188 L 333.666992188 -764.0 L 317.0 -744.0 L 300.333007812 -724.0 L 280.333007812 -709.0 L 257.0 -699.0 L 221.0 -683.666992188 L 185.333007812 -672.166992188 L 150.0 -664.5 L 114.666992188 -656.833007812 L 84.3330078125 -653.0 L 59.0 -653.0 L 71.6669921875 -623.0 L 93.0 -602.166992188 L 123.0 -590.5 L 153.0 -578.833007812 L 161.666992188 -566.333007812 L 149.0 -553.0 L 141.666992188 -545.666992188 L 118.5 -555.333007812 L 79.5 -582.0 L 40.5 -608.666992188 L 14.0 -635.0 L 0.0 -661.0 L 0.0 -677.666992188 L 6.6669921875 -684.666992188 L 20.0 -682.0 L 33.3330078125 -679.333007812 L 48.0 -677.333007812 L 64.0 -676.0 L 79.3330078125 -675.333007812 L 95.1669921875 -676.166992188 L 111.5 -678.5 L 127.833007812 -680.833007812 L 149.666992188 -689.0 L 177.0 -703.0 L 190.333007812 -709.666992188 L 203.0 -724.833007812 L 215.0 -748.5 L 227.0 -772.166992188 L 237.666992188 -798.5 L 247.0 -827.5 L 256.333007812 -856.5 L 264.333007812 -885.166992188 L 271.0 -913.5 L 277.666992188 -941.833007812 L 286.5 -982.666992188 L 297.5 -1036.0 L 308.5 -1089.33300781 L 318.0 -1125.0 L 326.0 -1143.0 L 334.0 -1161.0 L 345.166992188 -1175.5 L 359.5 -1186.5 L 373.833007812 -1197.5 L 387.5 -1204.66699219 L 400.5 -1208.0 L 413.5 -1211.33300781 L 427.833007812 -1213.83300781 L 443.5 -1215.5 L 459.166992188 -1217.16699219 L 477.666992188 -1219.33300781 Z M 995.0 -1348.0 L 1005.0 -1346.66699219 L 1009.33300781 -1342.16699219 L 1008.0 -1334.5 L 1006.66699219 -1326.83300781 L 1000.33300781 -1322.33300781 L 989.0 -1321.0 L 976.333007812 -1317.0 L 966.0 -1302.16699219 L 958.0 -1276.5 L 950.0 -1250.83300781 L 941.666992188 -1223.66699219 L 933.0 -1195.0 L 912.333007812 -1127.66699219 L 893.166992188 -1073.33300781 L 875.5 -1032.0 L 857.833007812 -990.666992188 L 841.333007812 -961.666992188 L 826.0 -945.0 L 810.666992188 -928.333007812 L 792.333007812 -915.666992188 L 771.0 -907.0 L 737.666992188 -893.666992188 L 704.666992188 -883.833007812 L 672.0 -877.5 L 639.333007812 -871.166992188 L 611.333007812 -868.0 L 588.0 -868.0 L 600.0 -842.0 L 619.666992188 -824.333007812 L 647.0 -815.0 L 674.333007812 -805.666992188 L 682.333007812 -795.0 L 671.0 -783.0 L 664.333007812 -777.0 L 643.0 -785.333007812 L 607.0 -808.0 L 571.0 -830.666992188 L 546.333007812 -853.0 L 533.0 -875.0 L 533.0 -889.0 L 539.333007812 -894.833007812 L 552.0 -892.5 L 564.666992188 -890.166992188 L 578.0 -888.333007812 L 592.0 -887.0 L 606.666992188 -886.333007812 L 621.5 -887.166992188 L 636.5 -889.5 L 651.5 -891.833007812 L 671.666992188 -898.666992188 L 697.0 -910.0 L 709.666992188 -916.0 L 721.333007812 -929.0 L 732.0 -949.0 L 742.666992188 -969.0 L 752.5 -991.166992188 L 761.5 -1015.5 L 770.5 -1039.83300781 L 778.166992188 -1063.83300781 L 784.5 -1087.5 L 790.833007812 -1111.16699219 L 798.833007812 -1145.5 L 808.5 -1190.5 L 818.166992188 -1235.5 L 826.666992188 -1265.66699219 L 834.0 -1281.0 L 841.333007812 -1296.33300781 L 851.666992188 -1308.66699219 L 865.0 -1318.0 L 878.333007812 -1327.33300781 L 891.0 -1333.5 L 903.0 -1336.5 L 915.0 -1339.5 L 928.5 -1341.66699219 L 943.5 -1343.0 L 958.5 -1344.33300781 L 975.666992188 -1346.0 Z" fill="black" fill-opacity="0.25" stroke="black" stroke-width="4.0"/>
  <rect x="494.0" y="-707.0" width="266.0" height="248.99999999999994" fill="none" stroke="red" stroke-width="10.0" /><rect x="101.0" y="-507.0" width="1106.0" height="374.0" fill="none" stroke="red" stroke-width="10.0" /><rect x="883.0" y="-1222.0" width="514.9999999999999" height="675.9999999999999" fill="none" stroke="red" stroke-width="10.0" /><rect x="0.0" y="-1222.0" width="514.0" height="675.9999999999999" fill="none" stroke="red" stroke-width="10.0" /><rect x="533.0" y="-1348.0" width="475.9999999999999" height="571.0000000000001" fill="none" stroke="red" stroke-width="10.0" />
</svg>
