<svg xmlns="http://www.w3.org/2000/svg"
  viewBox="-50.00035511363637 -1272.0 1202.3639110214062 1188.5216985344719">
  <rect x="-50.00035511363637" y="-1272.0" width="1202.3639110214062" height="1188.5216985344719" fill="white"/>
  <path d="M 806.11328125 -498.0 L 831.447265625 -507.333007812 L 874.447265625 -506.666992188 L 935.11328125 -496.0 L 970.447265625 -486.666992188 L 1001.61328125 -474.833007812 L 1028.61328125 -460.5 L 1055.61328125 -446.166992188 L 1076.44726562 -420.666992188 L 1091.11328125 -384.0 L 1101.11328125 -348.666992188 L 1104.44726562 -320.333007812 L 1101.11328125 -299.0 L 1097.78027344 -277.666992188 L 1086.11328125 -253.333007812 L 1066.11328125 -226.0 L 1046.78027344 -202.666992188 L 1024.28027344 -185.166992188 L 998.61328125 -173.5 L 972.947265625 -161.833007812 L 941.447265625 -152.0 L 904.11328125 -144.0 L 866.780273438 -136.666992188 L 836.447265625 -133.166992188 L 813.11328125 -133.5 L 789.780273438 -133.833007812 L 764.447265625 -134.333007812 L 737.11328125 -135.0 L 710.447265625 -136.333007812 L 685.61328125 -138.5 L 662.61328125 -141.5 L 639.61328125 -144.5 L 611.780273438 -151.0 L 579.11328125 -161.0 L 525.11328125 -175.666992188 L 471.780273438 -196.0 L 419.11328125 -222.0 L 389.780273438 -236.666992188 L 358.61328125 -252.5 L 325.61328125 -269.5 L 292.61328125 -286.5 L 255.780273438 -306.666992188 L 215.11328125 -330.0 L 196.447265625 -341.333007812 L 175.947265625 -353.5 L 153.61328125 -366.5 L 131.280273438 -379.5 L 107.447265625 -392.666992188 L 82.11328125 -406.0 L 62.7802734375 -418.0 L 43.61328125 -430.166992188 L 24.61328125 -442.5 L 5.61328125 -454.833007812 L -2.38671875 -467.166992188 L 0.61328125 -479.5 L 3.61328125 -491.833007812 L 10.7802734375 -497.666992188 L 22.11328125 -497.0 L 33.447265625 -496.333007812 L 69.11328125 -496.5 L 129.11328125 -497.5 L 189.11328125 -498.5 L 241.780273438 -498.666992188 L 287.11328125 -498.0 L 305.11328125 -484.666992188 L 304.947265625 -475.166992188 L 286.61328125 -469.5 L 268.280273438 -463.833007812 L 254.447265625 -456.666992188 L 245.11328125 -448.0 L 228.447265625 -430.666992188 L 221.11328125 -416.833007812 L 223.11328125 -406.5 L 225.11328125 -396.166992188 L 227.947265625 -388.166992188 L 231.61328125 -382.5 L 235.280273438 -376.833007812 L 240.780273438 -370.833007812 L 248.11328125 -364.5 L 255.447265625 -358.166992188 L 273.447265625 -345.0 L 302.11328125 -325.0 L 330.780273438 -305.0 L 366.780273438 -284.0 L 410.11328125 -262.0 L 448.780273438 -245.333007812 L 479.11328125 -231.666992188 L 501.11328125 -221.0 L 523.11328125 -210.333007812 L 558.780273438 -198.333007812 L 608.11328125 -185.0 L 644.780273438 -177.666992188 L 682.11328125 -173.166992188 L 720.11328125 -171.5 L 758.11328125 -169.833007812 L 796.780273438 -175.333007812 L 836.11328125 -188.0 L 863.447265625 -200.0 L 882.61328125 -210.333007812 L 893.61328125 -219.0 L 904.61328125 -227.666992188 L 917.11328125 -242.333007812 L 931.11328125 -263.0 L 943.11328125 -283.0 L 949.947265625 -300.0 L 951.61328125 -314.0 L 953.280273438 -328.0 L 953.447265625 -344.0 L 952.11328125 -362.0 L 951.447265625 -380.666992188 L 949.280273438 -394.166992188 L 945.61328125 -402.5 L 941.947265625 -410.833007812 L 937.280273438 -419.333007812 L 931.61328125 -428.0 L 925.947265625 -436.666992188 L 918.61328125 -444.5 L 909.61328125 -451.5 L 900.61328125 -458.5 L 886.780273438 -463.333007812 L 868.11328125 -466.0 L 849.447265625 -468.666992188 L 831.11328125 -471.0 L 813.11328125 -473.0 L 805.11328125 -474.333007812 L 799.947265625 -477.666992188 L 797.61328125 -483.0 L 795.280273438 -488.333007812 L 798.11328125 -493.333007812 Z M 592.11328125 -1222.0 L 602.780273438 -1220.0 L 607.447265625 -1214.5 L 606.11328125 -1205.5 L 604.780273438 -1196.5 L 597.780273438 -1191.33300781 L 585.11328125 -1190.0 L 571.11328125 -1185.33300781 L 559.947265625 -1167.83300781 L 551.61328125 -1137.5 L 543.280273438 -1107.16699219 L 534.11328125 -1075.0 L 524.11328125 -1041.0 L 501.447265625 -961.666992188 L 480.780273438 -897.333007812 L 462.11328125 -848.0 L 443.447265625 -798.666992188 L 425.780273438 -764.0 L 409.11328125 -744.0 L 392.447265625 -724.0 L 372.447265625 -709.0 L 349.11328125 -699.0 L 313.11328125 -683.666992188 L 277.61328125 -672.166992188 L 242.61328125 -664.5 L 207.61328125 -656.833007812 L 177.11328125 -653.0 L 151.11328125 -653.0 L 163.780273438 -623.0 L 185.11328125 -602.166992188 L 215.11328125 -590.5 L 245.11328125 -578.833007812 L 253.780273438 -566.333007812 L 241.11328125 -553.0 L 233.780273438 -545.666992188 L 210.780273438 -555.333007812 L 172.11328125 -582.0 L 133.447265625 -608.666992188 L 106.780273438 -635.0 L 92.11328125 -661.0 L 92.11328125 -677.666992188 L 98.947265625 -684.666992188 L 112.61328125 -682.0 L 126.280273438 -679.333007812 L 140.780273438 -677.333007812 L 156.11328125 -676.0 L 171.447265625 -675.333007812 L 187.280273438 -676.166992188 L 203.61328125 -678.5 L 219.947265625 -680.833007812 L 241.780273438 -689.0 L 269.11328125 -703.0 L 282.447265625 -709.666992188 L 295.11328125 -724.833007812 L 307.11328125 -748.5 L 319.11328125 -772.166992188 L 329.947265625 -798.5 L 339.61328125 -827.5 L 349.280273438 -856.5 L 357.447265625 -885.166992188 L 364.11328125 -913.5 L 370.780273438 -941.833007812 L 379.447265625 -982.666992188 L 390.11328125 -1036.0 L 400.780273438 -1089.33300781 L 410.11328125 -1125.0 L 418.11328125 -1143.0 L 426.11328125 -1161.0 L 437.280273438 -1175.5 L 451.61328125 -1186.5 L 465.947265625 -1197.5 L 479.61328125 -1204.66699219 L 492.61328125 -1208.0 L 505.61328125 -1211.33300781 L 520.11328125 -1213.83300781 L 536.11328125 -1215.5 L 552.11328125 -1217.16699219 L 570.780273438 -1219.33300781 Z" fill="black" fill-opacity="0.25" stroke="black" stroke-width="4.0"/>
  <rect x="-2.0" y="-507.0" width="1106.0" height="374.0" fill="none" stroke="red" stroke-width="10.0" /><rect x="92.0" y="-1222.0" width="515.0" height="675.9999999999999" fill="none" stroke="red" stroke-width="10.0" />
</svg>
