<svg xmlns="http://www.w3.org/2000/svg"
  viewBox="-50.00005894218928 -824.555480547092 1333.3564935775867 741.0771790815638">
  <rect x="-50.00005894218928" y="-824.555480547092" width="1333.3564935775867" height="741.0771790815638" fill="white"/>
  <path d="M 2.77734375 -766.5 L 6.111328125 -771.5 L 9.611328125 -774.166992188 L 13.27734375 -774.5 L 16.9443359375 -774.833007812 L 21.111328125 -773.666992188 L 25.77734375 -771.0 L 30.4443359375 -768.333007812 L 36.111328125 -765.333007812 L 42.77734375 -762.0 L 49.4443359375 -758.666992188 L 58.27734375 -755.833007812 L 69.27734375 -753.5 L 80.27734375 -751.166992188 L 95.4443359375 -750.0 L 114.77734375 -750.0 L 1052.77734375 -750.0 L 1070.77734375 -750.0 L 1086.94433594 -748.5 L 1101.27734375 -745.5 L 1115.61132812 -742.5 L 1128.77734375 -737.833007812 L 1140.77734375 -731.5 L 1152.77734375 -725.166992188 L 1162.11132812 -719.5 L 1168.77734375 -714.5 L 1175.44433594 -709.5 L 1184.61132812 -701.166992188 L 1196.27734375 -689.5 L 1207.94433594 -677.833007812 L 1217.77734375 -666.166992188 L 1225.77734375 -654.5 L 1233.77734375 -642.833007812 L 1235.44433594 -631.666992188 L 1230.77734375 -621.0 L 1226.11132812 -613.0 L 1220.44433594 -611.333007812 L 1213.77734375 -616.0 L 1207.11132812 -620.666992188 L 1199.27734375 -624.666992188 L 1190.27734375 -628.0 L 1181.27734375 -631.333007812 L 1171.61132812 -633.5 L 1161.27734375 -634.5 L 1150.94433594 -635.5 L 1135.11132812 -636.0 L 1113.77734375 -636.0 L 187.77734375 -636.0 L 173.111328125 -636.0 L 159.944335938 -637.0 L 148.27734375 -639.0 L 136.611328125 -641.0 L 127.444335938 -643.166992188 L 120.77734375 -645.5 L 114.111328125 -647.833007812 L 107.111328125 -650.666992188 L 99.77734375 -654.0 L 92.4443359375 -657.333007812 L 84.611328125 -661.833007812 L 76.27734375 -667.5 L 67.9443359375 -673.166992188 L 58.9443359375 -680.833007812 L 49.27734375 -690.5 L 39.611328125 -700.166992188 L 29.9443359375 -711.333007812 L 20.27734375 -724.0 L 10.611328125 -736.666992188 L 4.4443359375 -745.666992188 L 1.77734375 -751.0 L -0.888671875 -756.333007812 L -0.5556640625 -761.5 Z M 885.77734375 -498.0 L 911.111328125 -507.333007812 L 954.111328125 -506.666992188 L 1014.77734375 -496.0 L 1050.11132812 -486.666992188 L 1081.27734375 -474.833007812 L 1108.27734375 -460.5 L 1135.27734375 -446.166992188 L 1156.11132812 -420.666992188 L 1170.77734375 -384.0 L 1180.77734375 -348.666992188 L 1184.11132812 -320.333007812 L 1180.77734375 -299.0 L 1177.44433594 -277.666992188 L 1165.77734375 -253.333007812 L 1145.77734375 -226.0 L 1126.44433594 -202.666992188 L 1103.94433594 -185.166992188 L 1078.27734375 -173.5 L 1052.61132812 -161.833007812 L 1021.11132812 -152.0 L 983.77734375 -144.0 L 946.444335938 -136.666992188 L 916.111328125 -133.166992188 L 892.77734375 -133.5 L 869.444335938 -133.833007812 L 844.111328125 -134.333007812 L 816.77734375 -135.0 L 790.111328125 -136.333007812 L 765.27734375 -138.5 L 742.27734375 -141.5 L 719.27734375 -144.5 L 691.444335938 -151.0 L 658.77734375 -161.0 L 604.77734375 -175.666992188 L 551.444335938 -196.0 L 498.77734375 -222.0 L 469.444335938 -236.666992188 L 438.27734375 -252.5 L 405.27734375 -269.5 L 372.27734375 -286.5 L 335.444335938 -306.666992188 L 294.77734375 -330.0 L 276.111328125 -341.333007812 L 255.611328125 -353.5 L 233.27734375 -366.5 L 210.944335938 -379.5 L 187.111328125 -392.666992188 L 161.77734375 -406.0 L 142.444335938 -418.0 L 123.27734375 -430.166992188 L 104.27734375 -442.5 L 85.27734375 -454.833007812 L 77.27734375 -467.166992188 L 80.27734375 -479.5 L 83.27734375 -491.833007812 L 90.4443359375 -497.666992188 L 101.77734375 -497.0 L 113.111328125 -496.333007812 L 148.944335938 -496.5 L 209.27734375 -497.5 L 269.611328125 -498.5 L 322.111328125 -498.666992188 L 366.77734375 -498.0 L 384.77734375 -484.666992188 L 384.611328125 -475.166992188 L 366.27734375 -469.5 L 347.944335938 -463.833007812 L 334.111328125 -456.666992188 L 324.77734375 -448.0 L 308.111328125 -430.666992188 L 300.77734375 -416.833007812 L 302.77734375 -406.5 L 304.77734375 -396.166992188 L 307.611328125 -388.166992188 L 311.27734375 -382.5 L 314.944335938 -376.833007812 L 320.444335938 -370.833007812 L 327.77734375 -364.5 L 335.111328125 -358.166992188 L 353.27734375 -345.0 L 382.27734375 -325.0 L 411.27734375 -305.0 L 447.111328125 -284.0 L 489.77734375 -262.0 L 528.444335938 -245.333007812 L 558.77734375 -231.666992188 L 580.77734375 -221.0 L 602.77734375 -210.333007812 L 638.444335938 -198.333007812 L 687.77734375 -185.0 L 724.444335938 -177.666992188 L 761.77734375 -173.166992188 L 799.77734375 -171.5 L 837.77734375 -169.833007812 L 876.444335938 -175.333007812 L 915.77734375 -188.0 L 943.111328125 -200.0 L 962.27734375 -210.333007812 L 973.27734375 -219.0 L 984.27734375 -227.666992188 L 996.77734375 -242.333007812 L 1010.77734375 -263.0 L 1022.77734375 -283.0 L 1029.61132812 -300.0 L 1031.27734375 -314.0 L 1032.94433594 -328.0 L 1033.11132812 -344.0 L 1031.77734375 -362.0 L 1031.11132812 -380.666992188 L 1028.94433594 -394.166992188 L 1025.27734375 -402.5 L 1021.61132812 -410.833007812 L 1016.94433594 -419.333007812 L 1011.27734375 -428.0 L 1005.61132812 -436.666992188 L 998.27734375 -444.5 L 989.27734375 -451.5 L 980.27734375 -458.5 L 966.444335938 -463.333007812 L 947.77734375 -466.0 L 929.111328125 -468.666992188 L 910.77734375 -471.0 L 892.77734375 -473.0 L 884.77734375 -474.333007812 L 879.611328125 -477.666992188 L 877.27734375 -483.0 L 874.944335938 -488.333007812 L 877.77734375 -493.333007812 Z" fill="black" fill-opacity="0.25" stroke="black" stroke-width="4.0"/>
  <rect x="-1.0" y="-775.0" width="1236.0" height="164.00000000000003" fill="none" stroke="red" stroke-width="10.0" /><rect x="77.0" y="-507.0" width="1107.0" height="374.0" fill="none" stroke="red" stroke-width="10.0" />
</svg>
