<svg xmlns="http://www.w3.org/2000/svg"
  viewBox="-50.00035511363637 -1393.0 1277.3360407939933 1309.5216985344719">
  <rect x="-50.00035511363637" y="-1393.0" width="1277.3360407939933" height="1309.5216985344719" fill="white"/>
  <path d="M 382.11328125 -707.0 L 402.11328125 -707.0 L 423.11328125 -706.666992188 L 445.11328125 -706.0 L 467.11328125 -705.333007812 L 486.780273438 -703.333007812 L 504.11328125 -700.0 L 516.780273438 -700.0 L 530.11328125 -678.666992188 L 544.11328125 -636.0 L 558.11328125 -593.333007812 L 574.447265625 -552.0 L 593.11328125 -512.0 L 599.11328125 -498.0 L 605.447265625 -490.0 L 612.11328125 -488.0 L 617.447265625 -486.666992188 L 621.61328125 -483.333007812 L 624.61328125 -478.0 L 627.61328125 -472.666992188 L 624.780273438 -468.0 L 616.11328125 -464.0 L 595.447265625 -460.0 L 574.780273438 -458.333007812 L 554.11328125 -459.0 L 533.447265625 -459.666992188 L 513.780273438 -461.333007812 L 495.11328125 -464.0 L 477.780273438 -472.0 L 464.11328125 -491.166992188 L 454.11328125 -521.5 L 444.11328125 -551.833007812 L 428.780273438 -596.0 L 408.11328125 -654.0 L 406.780273438 -657.333007812 L 403.280273438 -662.333007812 L 397.61328125 -669.0 L 391.947265625 -675.666992188 L 385.780273438 -679.666992188 L 379.11328125 -681.0 L 369.780273438 -683.0 L 364.447265625 -687.833007812 L 363.11328125 -695.5 L 361.780273438 -703.166992188 L 368.11328125 -707.0 Z M 806.11328125 -498.0 L 831.447265625 -507.333007812 L 874.447265625 -506.666992188 L 935.11328125 -496.0 L 970.447265625 -487.333007812 L 1001.61328125 -475.666992188 L 1028.61328125 -461.0 L 1055.61328125 -446.333007812 L 1076.44726562 -420.666992188 L 1091.11328125 -384.0 L 1101.11328125 -348.666992188 L 1104.44726562 -320.5 L 1101.11328125 -299.5 L 1097.78027344 -278.5 L 1086.11328125 -254.0 L 1066.11328125 -226.0 L 1046.78027344 -202.666992188 L 1024.28027344 -185.166992188 L 998.61328125 -173.5 L 972.947265625 -161.833007812 L 941.447265625 -152.0 L 904.11328125 -144.0 L 866.780273438 -136.666992188 L 836.447265625 -133.166992188 L 813.11328125 -133.5 L 789.780273438 -133.833007812 L 764.447265625 -134.333007812 L 737.11328125 -135.0 L 710.447265625 -136.333007812 L 685.61328125 -138.5 L 662.61328125 -141.5 L 639.61328125 -144.5 L 611.780273438 -151.0 L 579.11328125 -161.0 L 525.11328125 -175.666992188 L 471.780273438 -196.0 L 419.11328125 -222.0 L 389.780273438 -236.666992188 L 358.61328125 -252.5 L 325.61328125 -269.5 L 292.61328125 -286.5 L 255.780273438 -306.666992188 L 215.11328125 -330.0 L 196.447265625 -341.333007812 L 175.947265625 -353.5 L 153.61328125 -366.5 L 131.280273438 -379.5 L 107.447265625 -392.666992188 L 82.11328125 -406.0 L 62.7802734375 -418.0 L 43.61328125 -430.0 L 24.61328125 -442.0 L 5.61328125 -454.0 L -2.38671875 -466.166992188 L 0.61328125 -478.5 L 3.61328125 -490.833007812 L 10.7802734375 -496.666992188 L 22.11328125 -496.0 L 33.447265625 -495.333007812 L 69.11328125 -495.666992188 L 129.11328125 -497.0 L 189.11328125 -498.333007812 L 241.780273438 -498.666992188 L 287.11328125 -498.0 L 305.11328125 -484.666992188 L 304.947265625 -475.166992188 L 286.61328125 -469.5 L 268.280273438 -463.833007812 L 254.447265625 -456.666992188 L 245.11328125 -448.0 L 228.447265625 -430.666992188 L 221.11328125 -416.833007812 L 223.11328125 -406.5 L 225.11328125 -396.166992188 L 227.947265625 -388.166992188 L 231.61328125 -382.5 L 235.280273438 -376.833007812 L 240.780273438 -370.833007812 L 248.11328125 -364.5 L 255.447265625 -358.166992188 L 273.447265625 -345.0 L 302.11328125 -325.0 L 330.780273438 -305.0 L 366.780273438 -284.0 L 410.11328125 -262.0 L 448.780273438 -245.333007812 L 479.11328125 -231.666992188 L 501.11328125 -221.0 L 523.11328125 -210.333007812 L 558.780273438 -198.333007812 L 608.11328125 -185.0 L 644.780273438 -177.666992188 L 682.11328125 -173.166992188 L 720.11328125 -171.5 L 758.11328125 -169.833007812 L 796.780273438 -175.333007812 L 836.11328125 -188.0 L 863.447265625 -200.0 L 882.61328125 -210.333007812 L 893.61328125 -219.0 L 904.61328125 -227.666992188 L 917.11328125 -242.333007812 L 931.11328125 -263.0 L 943.11328125 -283.0 L 949.947265625 -300.0 L 951.61328125 -314.0 L 953.280273438 -328.0 L 953.447265625 -344.0 L 952.11328125 -362.0 L 951.447265625 -380.666992188 L 949.280273438 -394.166992188 L 945.61328125 -402.5 L 941.947265625 -410.833007812 L 937.280273438 -419.333007812 L 931.61328125 -428.0 L 925.947265625 -436.666992188 L 918.61328125 -444.5 L 909.61328125 -451.5 L 900.61328125 -458.5 L 886.780273438 -463.333007812 L 868.11328125 -466.0 L 849.447265625 -468.666992188 L 831.11328125 -471.0 L 813.11328125 -473.0 L 805.11328125 -474.333007812 L 799.947265625 -477.666992188 L 797.61328125 -483.0 L 795.280273438 -488.333007812 L 798.11328125 -493.333007812 Z M 1163.11328125 -1222.0 L 1173.78027344 -1220.0 L 1178.44726562 -1214.5 L 1177.11328125 -1205.5 L 1175.78027344 -1196.5 L 1168.78027344 -1191.33300781 L 1156.11328125 -1190.0 L 1142.11328125 -1185.33300781 L 1130.94726562 -1167.83300781 L 1122.61328125 -1137.5 L 1114.28027344 -1107.16699219 L 1105.11328125 -1075.0 L 1095.11328125 -1041.0 L 1072.44726562 -961.666992188 L 1051.94726562 -897.333007812 L 1033.61328125 -848.0 L 1015.28027344 -798.666992188 L 997.61328125 -764.0 L 980.61328125 -744.0 L 963.61328125 -724.0 L 943.447265625 -709.0 L 920.11328125 -699.0 L 884.11328125 -683.666992188 L 848.61328125 -672.166992188 L 813.61328125 -664.5 L 778.61328125 -656.833007812 L 748.11328125 -653.0 L 722.11328125 -653.0 L 734.780273438 -623.0 L 756.11328125 -602.166992188 L 786.11328125 -590.5 L 816.11328125 -578.833007812 L 824.780273438 -566.333007812 L 812.11328125 -553.0 L 804.780273438 -545.666992188 L 781.780273438 -555.333007812 L 743.11328125 -582.0 L 704.447265625 -608.666992188 L 677.780273438 -635.0 L 663.11328125 -661.0 L 663.11328125 -677.666992188 L 669.947265625 -684.666992188 L 683.61328125 -682.0 L 697.280273438 -679.333007812 L 711.780273438 -677.333007812 L 727.11328125 -676.0 L 742.447265625 -675.333007812 L 758.447265625 -676.166992188 L 775.11328125 -678.5 L 791.780273438 -680.833007812 L 813.780273438 -689.0 L 841.11328125 -703.0 L 854.447265625 -709.666992188 L 866.947265625 -724.833007812 L 878.61328125 -748.5 L 890.280273438 -772.166992188 L 900.947265625 -798.5 L 910.61328125 -827.5 L 920.280273438 -856.5 L 928.447265625 -885.166992188 L 935.11328125 -913.5 L 941.780273438 -941.833007812 L 950.61328125 -982.666992188 L 961.61328125 -1036.0 L 972.61328125 -1089.33300781 L 981.947265625 -1125.0 L 989.61328125 -1143.0 L 997.280273438 -1161.0 L 1008.28027344 -1175.5 L 1022.61328125 -1186.5 L 1036.94726562 -1197.5 L 1050.61328125 -1204.66699219 L 1063.61328125 -1208.0 L 1076.61328125 -1211.33300781 L 1091.11328125 -1213.83300781 L 1107.11328125 -1215.5 L 1123.11328125 -1217.16699219 L 1141.78027344 -1219.33300781 Z M 789.11328125 -1343.0 L 799.11328125 -1341.66699219 L 803.61328125 -1337.16699219 L 802.61328125 -1329.5 L 801.61328125 -1321.83300781 L 795.11328125 -1317.33300781 L 783.11328125 -1316.0 L 770.447265625 -1312.0 L 760.11328125 -1297.16699219 L 752.11328125 -1271.5 L 744.11328125 -1245.83300781 L 735.780273438 -1218.66699219 L 727.11328125 -1190.0 L 706.447265625 -1122.66699219 L 687.447265625 -1068.33300781 L 670.11328125 -1027.0 L 652.780273438 -985.666992188 L 636.280273438 -956.666992188 L 620.61328125 -940.0 L 604.947265625 -923.333007812 L 586.447265625 -910.666992188 L 565.11328125 -902.0 L 531.780273438 -888.666992188 L 498.947265625 -879.0 L 466.61328125 -873.0 L 434.280273438 -867.0 L 406.11328125 -864.0 L 382.11328125 -864.0 L 394.11328125 -838.0 L 413.947265625 -820.166992188 L 441.61328125 -810.5 L 469.280273438 -800.833007812 L 477.11328125 -790.333007812 L 465.11328125 -779.0 L 458.447265625 -773.0 L 437.11328125 -781.166992188 L 401.11328125 -803.5 L 365.11328125 -825.833007812 L 340.447265625 -848.0 L 327.11328125 -870.0 L 327.11328125 -884.0 L 333.447265625 -889.833007812 L 346.11328125 -887.5 L 358.780273438 -885.166992188 L 372.11328125 -883.666992188 L 386.11328125 -883.0 L 400.780273438 -882.333007812 L 415.61328125 -883.0 L 430.61328125 -885.0 L 445.61328125 -887.0 L 465.780273438 -894.0 L 491.11328125 -906.0 L 503.780273438 -912.0 L 515.61328125 -924.833007812 L 526.61328125 -944.5 L 537.61328125 -964.166992188 L 547.61328125 -986.166992188 L 556.61328125 -1010.5 L 565.61328125 -1034.83300781 L 573.11328125 -1058.83300781 L 579.11328125 -1082.5 L 585.11328125 -1106.16699219 L 593.11328125 -1140.5 L 603.11328125 -1185.5 L 613.11328125 -1230.5 L 621.780273438 -1260.66699219 L 629.11328125 -1276.0 L 636.447265625 -1291.33300781 L 646.61328125 -1303.66699219 L 659.61328125 -1313.0 L 672.61328125 -1322.33300781 L 685.280273438 -1328.5 L 697.61328125 -1331.5 L 709.947265625 -1334.5 L 723.447265625 -1336.66699219 L 738.11328125 -1338.0 L 752.780273438 -1339.33300781 L 769.780273438 -1341.0 Z" fill="black" fill-opacity="0.25" stroke="black" stroke-width="4.0"/>
  <rect x="362.0" y="-707.0" width="266.0" height="248.99999999999994" fill="none" stroke="red" stroke-width="10.0" /><rect x="-2.0" y="-507.0" width="1106.0" height="374.0" fill="none" stroke="red" stroke-width="10.0" /><rect x="663.1" y="-774.4" width="339.7999999999999" height="223.8" fill="none" stroke="red" stroke-width="10.0" /><rect x="891.2" y="-998.1999999999999" width="191.7" height="223.8" fill="none" stroke="red" stroke-width="10.0" /><rect x="953.8" y="-1222.0" width="224.5999999999999" height="223.8" fill="none" stroke="red" stroke-width="10.0" /><rect x="327.1" y="-965.7" width="314.29999999999995" height="188.6" fill="none" stroke="red" stroke-width="10.0" /><rect x="538.3" y="-1154.4" width="177.89999999999995" height="188.7000000000001" fill="none" stroke="red" stroke-width="10.0" /><rect x="596.1999999999999" y="-1343.0" width="207.40000000000003" height="188.59999999999988" fill="none" stroke="red" stroke-width="10.0" />
</svg>
