<svg xmlns="http://www.w3.org/2000/svg"
  viewBox="-50 -1398 1497.222 1314.522">
  <rect x="-50" y="-1398" width="1497.222" height="1314.522" fill="white"/>
  <path d="M 515 -707 L 535 -707 L 556 -706.667 L 578 -706 L 600 -705.333 L 619.667 -703.333 L 637 -700 L 649.667 -700 L 663 -678.667 L 677 -636 L 691 -593.333 L 707.333 -552 L 726 -512 L 731.333 -498 L 737.667 -490 L 745 -488 L 749.667 -486.667 L 753.667 -483.333 L 757 -478 L 760.333 -472.667 L 757.667 -468 L 749 -464 L 729 -460 L 708.5 -458.333 L 687.5 -459 L 666.5 -459.667 L 646.667 -461.333 L 628 -464 L 610.667 -472 L 597 -491.167 L 587 -521.5 L 577 -551.833 L 561.667 -596 L 541 -654 L 539 -657.333 L 535.333 -662.333 L 530 -669 L 524.667 -675.667 L 518.333 -679.667 L 511 -681 L 501.667 -683 L 496.5 -687.833 L 495.5 -695.5 L 494.5 -703.167 L 501 -707 Z M 909 -498 L 934.333 -507.333 L 977.333 -506.667 L 1038 -496 L 1073.333 -487.333 L 1104.5 -475.667 L 1131.5 -461 L 1158.5 -446.333 L 1179.333 -420.667 L 1194 -384 L 1204 -348.667 L 1207.333 -320.5 L 1204 -299.5 L 1200.667 -278.5 L 1189 -254 L 1169 -226 L 1149.667 -202.667 L 1127.167 -185.167 L 1101.5 -173.5 L 1075.833 -161.833 L 1044.333 -152 L 1007 -144 L 969.667 -136.667 L 939.333 -133.167 L 916 -133.5 L 892.667 -133.833 L 867.333 -134.333 L 840 -135 L 813.333 -136.333 L 788.5 -138.5 L 765.5 -141.5 L 742.5 -144.5 L 714.667 -151 L 682 -161 L 628 -175.667 L 574.667 -196 L 522 -222 L 492.667 -236.667 L 461.5 -252.5 L 428.5 -269.5 L 395.5 -286.5 L 358.667 -306.667 L 318 -330 L 299.333 -341.333 L 278.833 -353.5 L 256.5 -366.5 L 234.167 -379.5 L 210.333 -392.667 L 185 -406 L 165.667 -418 L 146.5 -430 L 127.5 -442 L 108.5 -454 L 100.5 -466.167 L 103.5 -478.5 L 106.5 -490.833 L 113.667 -496.667 L 125 -496 L 136.333 -495.333 L 172 -495.667 L 232 -497 L 292 -498.333 L 344.667 -498.667 L 390 -498 L 408 -484.667 L 407.833 -475.167 L 389.5 -469.5 L 371.167 -463.833 L 357.333 -456.667 L 348 -448 L 331.333 -430.667 L 324 -416.833 L 326 -406.5 L 328 -396.167 L 330.833 -388.167 L 334.5 -382.5 L 338.167 -376.833 L 343.667 -370.833 L 351 -364.5 L 358.333 -358.167 L 376.333 -345 L 405 -325 L 433.667 -305 L 469.667 -284 L 513 -262 L 551.667 -245.333 L 582 -231.667 L 604 -221 L 626 -210.333 L 661.667 -198.333 L 711 -185 L 747.667 -177.667 L 785 -173.167 L 823 -171.5 L 861 -169.833 L 899.667 -175.333 L 939 -188 L 966.333 -200 L 985.5 -210.333 L 996.5 -219 L 1007.5 -227.667 L 1020 -242.333 L 1034 -263 L 1046 -283 L 1052.833 -300 L 1054.5 -314 L 1056.167 -328 L 1056.333 -344 L 1055 -362 L 1054.333 -380.667 L 1052.167 -394.167 L 1048.5 -402.5 L 1044.833 -410.833 L 1040.167 -419.333 L 1034.5 -428 L 1028.833 -436.667 L 1021.5 -444.5 L 1012.5 -451.5 L 1003.5 -458.5 L 989.667 -463.333 L 971 -466 L 952.333 -468.667 L 934 -471 L 916 -473 L 908 -474.333 L 902.833 -477.667 L 900.5 -483 L 898.167 -488.333 L 901 -493.333 Z M 1383 -1222 L 1393.667 -1220 L 1398.333 -1214.5 L 1397 -1205.5 L 1395.667 -1196.5 L 1389 -1191.333 L 1377 -1190 L 1363 -1185.333 L 1351.667 -1167.833 L 1343 -1137.5 L 1334.333 -1107.167 L 1325.333 -1075 L 1316 -1041 L 1293.333 -961.667 L 1272.667 -897.333 L 1254 -848 L 1235.333 -798.667 L 1217.5 -764 L 1200.5 -744 L 1183.5 -724 L 1163.333 -709 L 1140 -699 L 1104 -683.667 L 1068.5 -672.167 L 1033.5 -664.5 L 998.5 -656.833 L 968.333 -653 L 943 -653 L 955.667 -623 L 976.833 -602.167 L 1006.5 -590.5 L 1036.167 -578.833 L 1044.667 -566.333 L 1032 -553 L 1024.667 -545.667 L 1001.667 -555.333 L 963 -582 L 924.333 -608.667 L 897.667 -635 L 883 -661 L 883 -677.667 L 889.833 -684.667 L 903.5 -682 L 917.167 -679.333 L 931.667 -677.333 L 947 -676 L 962.333 -675.333 L 978.333 -676.167 L 995 -678.5 L 1011.667 -680.833 L 1033.667 -689 L 1061 -703 L 1074.333 -709.667 L 1086.833 -724.833 L 1098.5 -748.5 L 1110.167 -772.167 L 1120.833 -798.5 L 1130.5 -827.5 L 1140.167 -856.5 L 1148.333 -885.167 L 1155 -913.5 L 1161.667 -941.833 L 1170.5 -982.667 L 1181.5 -1036 L 1192.5 -1089.333 L 1201.833 -1125 L 1209.5 -1143 L 1217.167 -1161 L 1228.167 -1175.5 L 1242.5 -1186.5 L 1256.833 -1197.5 L 1270.5 -1204.667 L 1283.5 -1208 L 1296.5 -1211.333 L 1311 -1213.833 L 1327 -1215.5 L 1343 -1217.167 L 1361.667 -1219.333 Z M 499 -1222 L 509.667 -1220 L 514.333 -1214.5 L 513 -1205.5 L 511.667 -1196.5 L 505 -1191.333 L 493 -1190 L 479 -1185.333 L 467.667 -1167.833 L 459 -1137.5 L 450.333 -1107.167 L 441.333 -1075 L 432 -1041 L 409.333 -961.667 L 388.667 -897.333 L 370 -848 L 351.333 -798.667 L 333.667 -764 L 317 -744 L 300.333 -724 L 280.333 -709 L 257 -699 L 221 -683.667 L 185.333 -672.167 L 150 -664.5 L 114.667 -656.833 L 84.333 -653 L 59 -653 L 71.667 -623 L 93 -602.167 L 123 -590.5 L 153 -578.833 L 161.667 -566.333 L 149 -553 L 141.667 -545.667 L 118.5 -555.333 L 79.5 -582 L 40.5 -608.667 L 14 -635 L 0 -661 L 0 -677.667 L 6.667 -684.667 L 20 -682 L 33.333 -679.333 L 48 -677.333 L 64 -676 L 79.333 -675.333 L 95.167 -676.167 L 111.5 -678.5 L 127.833 -680.833 L 149.667 -689 L 177 -703 L 190.333 -709.667 L 203 -724.833 L 215 -748.5 L 227 -772.167 L 237.667 -798.5 L 247 -827.5 L 256.333 -856.5 L 264.333 -885.167 L 271 -913.5 L 277.667 -941.833 L 286.5 -982.667 L 297.5 -1036 L 308.5 -1089.333 L 318 -1125 L 326 -1143 L 334 -1161 L 345.167 -1175.5 L 359.5 -1186.5 L 373.833 -1197.5 L 387.5 -1204.667 L 400.5 -1208 L 413.5 -1211.333 L 427.833 -1213.833 L 443.5 -1215.5 L 459.167 -1217.167 L 477.667 -1219.333 Z M 995 -1348 L 1005 -1346.667 L 1009.333 -1342.167 L 1008 -1334.5 L 1006.667 -1326.833 L 1000.333 -1322.333 L 989 -1321 L 976.333 -1317 L 966 -1302.167 L 958 -1276.5 L 950 -1250.833 L 941.667 -1223.667 L 933 -1195 L 912.333 -1127.667 L 893.167 -1073.333 L 875.5 -1032 L 857.833 -990.667 L 841.333 -961.667 L 826 -945 L 810.667 -928.333 L 792.333 -915.667 L 771 -907 L 737.667 -893.667 L 704.667 -883.833 L 672 -877.5 L 639.333 -871.167 L 611.333 -868 L 588 -868 L 600 -842 L 619.667 -824.333 L 647 -815 L 674.333 -805.667 L 682.333 -795 L 671 -783 L 664.333 -777 L 643 -785.333 L 607 -808 L 571 -830.667 L 546.333 -853 L 533 -875 L 533 -889 L 539.333 -894.833 L 552 -892.5 L 564.667 -890.167 L 578 -888.333 L 592 -887 L 606.667 -886.333 L 621.5 -887.167 L 636.5 -889.5 L 651.5 -891.833 L 671.667 -898.667 L 697 -910 L 709.667 -916 L 721.333 -929 L 732 -949 L 742.667 -969 L 752.5 -991.167 L 761.5 -1015.5 L 770.5 -1039.833 L 778.167 -1063.833 L 784.5 -1087.5 L 790.833 -1111.167 L 798.833 -1145.5 L 808.5 -1190.5 L 818.167 -1235.5 L 826.667 -1265.667 L 834 -1281 L 841.333 -1296.333 L 851.667 -1308.667 L 865 -1318 L 878.333 -1327.333 L 891 -1333.5 L 903 -1336.5 L 915 -1339.5 L 928.5 -1341.667 L 943.5 -1343 L 958.5 -1344.333 L 975.667 -1346 Z" fill="black" fill-opacity="0.25" stroke="black" stroke-width="4"/>
  <rect x="494" y="-707" width="266" height="249" fill="none" stroke="red" stroke-width="10" /><rect x="101" y="-507" width="1106" height="374" fill="none" stroke="red" stroke-width="10" /><rect x="883" y="-774.4" width="339.9" height="223.8" fill="none" stroke="red" stroke-width="10" /><rect x="1111.1" y="-998.2" width="192.7" height="223.8" fill="none" stroke="red" stroke-width="10" /><rect x="1173.7" y="-1222" width="224.6" height="223.8" fill="none" stroke="red" stroke-width="10" /><rect x="0" y="-774.4" width="339" height="223.8" fill="none" stroke="red" stroke-width="10" /><rect x="227.9" y="-998.2" width="191.9" height="223.8" fill="none" stroke="red" stroke-width="10" /><rect x="289.7" y="-1222" width="224.6" height="223.8" fill="none" stroke="red" stroke-width="10" /><rect x="533" y="-970.1" width="313.1" height="189" fill="none" stroke="red" stroke-width="10" /><rect x="743.1" y="-1159" width="178.9" height="188.9" fill="none" stroke="red" stroke-width="10" /><rect x="801.7" y="-1348" width="207.6" height="189" fill="none" stroke="red" stroke-width="10" />
</svg>
