<svg xmlns="http://www.w3.org/2000/svg"
  viewBox="-50.0 -1272.0 1351.222147206698 1188.5216985344719">
  <rect x="-50.0" y="-1272.0" width="1351.222147206698" height="1188.5216985344719" fill="white"/>
  <path d="M 836.0 -498.0 L 861.333007812 -507.333007812 L 904.333007812 -506.666992188 L 965.0 -496.0 L 1000.33300781 -487.333007812 L 1031.5 -475.666992188 L 1058.5 -461.0 L 1085.5 -446.333007812 L 1106.33300781 -420.666992188 L 1121.0 -384.0 L 1131.0 -348.666992188 L 1134.33300781 -320.5 L 1131.0 -299.5 L 1127.66699219 -278.5 L 1116.0 -254.0 L 1096.0 -226.0 L 1076.66699219 -202.666992188 L 1054.16699219 -185.166992188 L 1028.5 -173.5 L 1002.83300781 -161.833007812 L 971.333007812 -152.0 L 934.0 -144.0 L 896.666992188 -136.666992188 L 866.333007812 -133.166992188 L 843.0 -133.5 L 819.666992188 -133.833007812 L 794.333007812 -134.333007812 L 767.0 -135.0 L 740.333007812 -136.333007812 L 715.5 -138.5 L 692.5 -141.5 L 669.5 -144.5 L 641.666992188 -151.0 L 609.0 -161.0 L 555.0 -175.666992188 L 501.666992188 -196.0 L 449.0 -222.0 L 419.666992188 -236.666992188 L 388.5 -252.5 L 355.5 -269.5 L 322.5 -286.5 L 285.666992188 -306.666992188 L 245.0 -330.0 L 226.333007812 -341.333007812 L 205.833007812 -353.5 L 183.5 -366.5 L 161.166992188 -379.5 L 137.333007812 -392.666992188 L 112.0 -406.0 L 92.6669921875 -418.0 L 73.5 -430.0 L 54.5 -442.0 L 35.5 -454.0 L 27.5 -466.166992188 L 30.5 -478.5 L 33.5 -490.833007812 L 40.6669921875 -496.666992188 L 52.0 -496.0 L 63.3330078125 -495.333007812 L 99.0 -495.666992188 L 159.0 -497.0 L 219.0 -498.333007812 L 271.666992188 -498.666992188 L 317.0 -498.0 L 335.0 -484.666992188 L 334.833007812 -475.166992188 L 316.5 -469.5 L 298.166992188 -463.833007812 L 284.333007812 -456.666992188 L 275.0 -448.0 L 258.333007812 -430.666992188 L 251.0 -416.833007812 L 253.0 -406.5 L 255.0 -396.166992188 L 257.833007812 -388.166992188 L 261.5 -382.5 L 265.166992188 -376.833007812 L 270.666992188 -370.833007812 L 278.0 -364.5 L 285.333007812 -358.166992188 L 303.333007812 -345.0 L 332.0 -325.0 L 360.666992188 -305.0 L 396.666992188 -284.0 L 440.0 -262.0 L 478.666992188 -245.333007812 L 509.0 -231.666992188 L 531.0 -221.0 L 553.0 -210.333007812 L 588.666992188 -198.333007812 L 638.0 -185.0 L 674.666992188 -177.666992188 L 712.0 -173.166992188 L 750.0 -171.5 L 788.0 -169.833007812 L 826.666992188 -175.333007812 L 866.0 -188.0 L 893.333007812 -200.0 L 912.5 -210.333007812 L 923.5 -219.0 L 934.5 -227.666992188 L 947.0 -242.333007812 L 961.0 -263.0 L 973.0 -283.0 L 979.833007812 -300.0 L 981.5 -314.0 L 983.166992188 -328.0 L 983.333007812 -344.0 L 982.0 -362.0 L 981.333007812 -380.666992188 L 979.166992188 -394.166992188 L 975.5 -402.5 L 971.833007812 -410.833007812 L 967.166992188 -419.333007812 L 961.5 -428.0 L 955.833007812 -436.666992188 L 948.5 -444.5 L 939.5 -451.5 L 930.5 -458.5 L 916.666992188 -463.333007812 L 898.0 -466.0 L 879.333007812 -468.666992188 L 861.0 -471.0 L 843.0 -473.0 L 835.0 -474.333007812 L 829.833007812 -477.666992188 L 827.5 -483.0 L 825.166992188 -488.333007812 L 828.0 -493.333007812 Z M 1237.0 -1222.0 L 1247.66699219 -1220.0 L 1252.33300781 -1214.5 L 1251.0 -1205.5 L 1249.66699219 -1196.5 L 1242.66699219 -1191.33300781 L 1230.0 -1190.0 L 1216.0 -1185.33300781 L 1204.83300781 -1167.83300781 L 1196.5 -1137.5 L 1188.16699219 -1107.16699219 L 1179.0 -1075.0 L 1169.0 -1041.0 L 1146.33300781 -961.666992188 L 1125.83300781 -897.333007812 L 1107.5 -848.0 L 1089.16699219 -798.666992188 L 1071.5 -764.0 L 1054.5 -744.0 L 1037.5 -724.0 L 1017.33300781 -709.0 L 994.0 -699.0 L 958.0 -683.666992188 L 922.5 -672.166992188 L 887.5 -664.5 L 852.5 -656.833007812 L 822.0 -653.0 L 796.0 -653.0 L 808.666992188 -623.0 L 830.0 -602.166992188 L 860.0 -590.5 L 890.0 -578.833007812 L 898.666992188 -566.333007812 L 886.0 -553.0 L 878.666992188 -545.666992188 L 855.666992188 -555.333007812 L 817.0 -582.0 L 778.333007812 -608.666992188 L 751.666992188 -635.0 L 737.0 -661.0 L 737.0 -677.666992188 L 743.833007812 -684.666992188 L 757.5 -682.0 L 771.166992188 -679.333007812 L 785.666992188 -677.333007812 L 801.0 -676.0 L 816.333007812 -675.333007812 L 832.166992188 -676.166992188 L 848.5 -678.5 L 864.833007812 -680.833007812 L 886.666992188 -689.0 L 914.0 -703.0 L 927.333007812 -709.666992188 L 940.0 -724.833007812 L 952.0 -748.5 L 964.0 -772.166992188 L 974.833007812 -798.5 L 984.5 -827.5 L 994.166992188 -856.5 L 1002.33300781 -885.166992188 L 1009.0 -913.5 L 1015.66699219 -941.833007812 L 1024.5 -982.666992188 L 1035.5 -1036.0 L 1046.5 -1089.33300781 L 1055.83300781 -1125.0 L 1063.5 -1143.0 L 1071.16699219 -1161.0 L 1082.16699219 -1175.5 L 1096.5 -1186.5 L 1110.83300781 -1197.5 L 1124.5 -1204.66699219 L 1137.5 -1208.0 L 1150.5 -1211.33300781 L 1165.0 -1213.83300781 L 1181.0 -1215.5 L 1197.0 -1217.16699219 L 1215.66699219 -1219.33300781 Z M 861.0 -1222.0 L 871.666992188 -1220.0 L 876.333007812 -1214.5 L 875.0 -1205.5 L 873.666992188 -1196.5 L 866.666992188 -1191.33300781 L 854.0 -1190.0 L 840.0 -1185.33300781 L 828.833007812 -1167.83300781 L 820.5 -1137.5 L 812.166992188 -1107.16699219 L 803.0 -1075.0 L 793.0 -1041.0 L 770.333007812 -961.666992188 L 749.833007812 -897.333007812 L 731.5 -848.0 L 713.166992188 -798.666992188 L 695.5 -764.0 L 678.5 -744.0 L 661.5 -724.0 L 641.333007812 -709.0 L 618.0 -699.0 L 582.0 -683.666992188 L 546.5 -672.166992188 L 511.5 -664.5 L 476.5 -656.833007812 L 446.0 -653.0 L 420.0 -653.0 L 432.666992188 -623.0 L 454.0 -602.166992188 L 484.0 -590.5 L 514.0 -578.833007812 L 522.666992188 -566.333007812 L 510.0 -553.0 L 502.666992188 -545.666992188 L 479.666992188 -555.333007812 L 441.0 -582.0 L 402.333007812 -608.666992188 L 375.666992188 -635.0 L 361.0 -661.0 L 361.0 -677.666992188 L 367.833007812 -684.666992188 L 381.5 -682.0 L 395.166992188 -679.333007812 L 409.666992188 -677.333007812 L 425.0 -676.0 L 440.333007812 -675.333007812 L 456.333007812 -676.166992188 L 473.0 -678.5 L 489.666992188 -680.833007812 L 511.666992188 -689.0 L 539.0 -703.0 L 552.333007812 -709.666992188 L 564.833007812 -724.833007812 L 576.5 -748.5 L 588.166992188 -772.166992188 L 598.833007812 -798.5 L 608.5 -827.5 L 618.166992188 -856.5 L 626.333007812 -885.166992188 L 633.0 -913.5 L 639.666992188 -941.833007812 L 648.5 -982.666992188 L 659.5 -1036.0 L 670.5 -1089.33300781 L 679.833007812 -1125.0 L 687.5 -1143.0 L 695.166992188 -1161.0 L 706.166992188 -1175.5 L 720.5 -1186.5 L 734.833007812 -1197.5 L 748.5 -1204.66699219 L 761.5 -1208.0 L 774.5 -1211.33300781 L 789.0 -1213.83300781 L 805.0 -1215.5 L 821.0 -1217.16699219 L 839.666992188 -1219.33300781 Z M 499.0 -1222.0 L 509.666992188 -1220.0 L 514.5 -1214.5 L 513.5 -1205.5 L 512.5 -1196.5 L 505.666992188 -1191.33300781 L 493.0 -1190.0 L 479.0 -1185.33300781 L 467.833007812 -1167.83300781 L 459.5 -1137.5 L 451.166992188 -1107.16699219 L 442.0 -1075.0 L 432.0 -1041.0 L 409.333007812 -961.666992188 L 388.666992188 -897.333007812 L 370.0 -848.0 L 351.333007812 -798.666992188 L 333.666992188 -764.0 L 317.0 -744.0 L 300.333007812 -724.0 L 280.333007812 -709.0 L 257.0 -699.0 L 221.0 -683.666992188 L 185.5 -672.166992188 L 150.5 -664.5 L 115.5 -656.833007812 L 85.0 -653.0 L 59.0 -653.0 L 71.6669921875 -623.0 L 93.0 -602.166992188 L 123.0 -590.5 L 153.0 -578.833007812 L 161.666992188 -566.333007812 L 149.0 -553.0 L 141.666992188 -545.666992188 L 118.5 -555.333007812 L 79.5 -582.0 L 40.5 -608.666992188 L 14.0 -635.0 L 0.0 -661.0 L 0.0 -677.666992188 L 6.6669921875 -684.666992188 L 20.0 -682.0 L 33.3330078125 -679.333007812 L 48.0 -677.333007812 L 64.0 -676.0 L 79.3330078125 -675.333007812 L 95.1669921875 -676.166992188 L 111.5 -678.5 L 127.833007812 -680.833007812 L 149.666992188 -689.0 L 177.0 -703.0 L 190.333007812 -709.666992188 L 203.0 -724.833007812 L 215.0 -748.5 L 227.0 -772.166992188 L 237.833007812 -798.5 L 247.5 -827.5 L 257.166992188 -856.5 L 265.333007812 -885.166992188 L 272.0 -913.5 L 278.666992188 -941.833007812 L 287.333007812 -982.666992188 L 298.0 -1036.0 L 308.666992188 -1089.33300781 L 318.0 -1125.0 L 326.0 -1143.0 L 334.0 -1161.0 L 345.166992188 -1175.5 L 359.5 -1186.5 L 373.833007812 -1197.5 L 387.5 -1204.66699219 L 400.5 -1208.0 L 413.5 -1211.33300781 L 427.833007812 -1213.83300781 L 443.5 -1215.5 L 459.166992188 -1217.16699219 L 477.666992188 -1219.33300781 Z" fill="black" fill-opacity="0.25" stroke="black" stroke-width="4.0"/>
  <rect x="28.0" y="-507.0" width="1105.9999999999998" height="374.0" fill="none" stroke="red" stroke-width="10.0" /><rect x="737.0" y="-774.4" width="339.8" height="223.8" fill="none" stroke="red" stroke-width="10.0" /><rect x="964.9" y="-998.1999999999999" width="191.90000000000006" height="223.8" fill="none" stroke="red" stroke-width="10.0" /><rect x="1027.7" y="-1222.0" width="224.5999999999999" height="223.8" fill="none" stroke="red" stroke-width="10.0" /><rect x="361.0" y="-774.4" width="339.8" height="223.8" fill="none" stroke="red" stroke-width="10.0" /><rect x="589.0999999999999" y="-998.1999999999999" width="191.7000000000001" height="223.8" fill="none" stroke="red" stroke-width="10.0" /><rect x="651.6999999999999" y="-1222.0" width="224.60000000000002" height="223.8" fill="none" stroke="red" stroke-width="10.0" /><rect x="0.0" y="-774.4" width="339.0" height="223.8" fill="none" stroke="red" stroke-width="10.0" /><rect x="227.89999999999998" y="-998.1999999999999" width="191.9" height="223.8" fill="none" stroke="red" stroke-width="10.0" /><rect x="290.4" y="-1222.0" width="224.09999999999997" height="223.8" fill="none" stroke="red" stroke-width="10.0" />
</svg>
