<svg xmlns="http://www.w3.org/2000/svg"
  viewBox="-50.00035511363637 -1320.0 1202.3639110214062 1236.5216985344719">
  <rect x="-50.00035511363637" y="-1320.0" width="1202.3639110214062" height="1236.5216985344719" fill="white"/>
  <path d="M 425.11328125 -667.0 L 447.780273438 -667.0 L 471.447265625 -666.666992188 L 496.11328125 -666.0 L 520.780273438 -665.333007812 L 543.447265625 -663.666992188 L 564.11328125 -661.0 L 578.11328125 -661.0 L 593.61328125 -636.0 L 610.61328125 -586.0 L 627.61328125 -536.0 L 647.780273438 -492.0 L 671.11328125 -454.0 L 679.11328125 -441.333007812 L 686.447265625 -434.0 L 693.11328125 -432.0 L 699.11328125 -430.0 L 703.780273438 -426.833007812 L 707.11328125 -422.5 L 710.447265625 -418.166992188 L 707.11328125 -414.333007812 L 697.11328125 -411.0 L 673.780273438 -407.0 L 650.447265625 -405.333007812 L 627.11328125 -406.0 L 603.780273438 -406.666992188 L 581.11328125 -408.333007812 L 559.11328125 -411.0 L 538.447265625 -418.333007812 L 521.780273438 -441.666992188 L 509.11328125 -481.0 L 496.447265625 -520.333007812 L 478.11328125 -566.333007812 L 454.11328125 -619.0 L 452.11328125 -621.666992188 L 448.11328125 -625.5 L 442.11328125 -630.5 L 436.11328125 -635.5 L 429.11328125 -639.0 L 421.11328125 -641.0 L 410.447265625 -642.333007812 L 404.447265625 -647.0 L 403.11328125 -655.0 L 401.780273438 -663.0 L 409.11328125 -667.0 Z M 806.11328125 -498.0 L 831.447265625 -507.333007812 L 874.447265625 -506.666992188 L 935.11328125 -496.0 L 970.447265625 -486.666992188 L 1001.61328125 -474.833007812 L 1028.61328125 -460.5 L 1055.61328125 -446.166992188 L 1076.44726562 -420.666992188 L 1091.11328125 -384.0 L 1101.11328125 -348.666992188 L 1104.44726562 -320.333007812 L 1101.11328125 -299.0 L 1097.78027344 -277.666992188 L 1086.11328125 -253.333007812 L 1066.11328125 -226.0 L 1046.78027344 -202.666992188 L 1024.28027344 -185.166992188 L 998.61328125 -173.5 L 972.947265625 -161.833007812 L 941.447265625 -152.0 L 904.11328125 -144.0 L 866.780273438 -136.666992188 L 836.447265625 -133.166992188 L 813.11328125 -133.5 L 789.780273438 -133.833007812 L 764.447265625 -134.333007812 L 737.11328125 -135.0 L 710.447265625 -136.333007812 L 685.61328125 -138.5 L 662.61328125 -141.5 L 639.61328125 -144.5 L 611.780273438 -151.0 L 579.11328125 -161.0 L 525.11328125 -175.666992188 L 471.780273438 -196.0 L 419.11328125 -222.0 L 389.780273438 -236.666992188 L 358.61328125 -252.5 L 325.61328125 -269.5 L 292.61328125 -286.5 L 255.780273438 -306.666992188 L 215.11328125 -330.0 L 196.447265625 -341.333007812 L 175.947265625 -353.5 L 153.61328125 -366.5 L 131.280273438 -379.5 L 107.447265625 -392.666992188 L 82.11328125 -406.0 L 62.7802734375 -418.0 L 43.61328125 -430.166992188 L 24.61328125 -442.5 L 5.61328125 -454.833007812 L -2.38671875 -467.166992188 L 0.61328125 -479.5 L 3.61328125 -491.833007812 L 10.7802734375 -497.666992188 L 22.11328125 -497.0 L 33.447265625 -496.333007812 L 69.11328125 -496.5 L 129.11328125 -497.5 L 189.11328125 -498.5 L 241.780273438 -498.666992188 L 287.11328125 -498.0 L 305.11328125 -484.666992188 L 304.947265625 -475.166992188 L 286.61328125 -469.5 L 268.280273438 -463.833007812 L 254.447265625 -456.666992188 L 245.11328125 -448.0 L 228.447265625 -430.666992188 L 221.11328125 -416.833007812 L 223.11328125 -406.5 L 225.11328125 -396.166992188 L 227.947265625 -388.166992188 L 231.61328125 -382.5 L 235.280273438 -376.833007812 L 240.780273438 -370.833007812 L 248.11328125 -364.5 L 255.447265625 -358.166992188 L 273.447265625 -345.0 L 302.11328125 -325.0 L 330.780273438 -305.0 L 366.780273438 -284.0 L 410.11328125 -262.0 L 448.780273438 -245.333007812 L 479.11328125 -231.666992188 L 501.11328125 -221.0 L 523.11328125 -210.333007812 L 558.780273438 -198.333007812 L 608.11328125 -185.0 L 644.780273438 -177.666992188 L 682.11328125 -173.166992188 L 720.11328125 -171.5 L 758.11328125 -169.833007812 L 796.780273438 -175.333007812 L 836.11328125 -188.0 L 863.447265625 -200.0 L 882.61328125 -210.333007812 L 893.61328125 -219.0 L 904.61328125 -227.666992188 L 917.11328125 -242.333007812 L 931.11328125 -263.0 L 943.11328125 -283.0 L 949.947265625 -300.0 L 951.61328125 -314.0 L 953.280273438 -328.0 L 953.447265625 -344.0 L 952.11328125 -362.0 L 951.447265625 -380.666992188 L 949.280273438 -394.166992188 L 945.61328125 -402.5 L 941.947265625 -410.833007812 L 937.280273438 -419.333007812 L 931.61328125 -428.0 L 925.947265625 -436.666992188 L 918.61328125 -444.5 L 909.61328125 -451.5 L 900.61328125 -458.5 L 886.780273438 -463.333007812 L 868.11328125 -466.0 L 849.447265625 -468.666992188 L 831.11328125 -471.0 L 813.11328125 -473.0 L 805.11328125 -474.333007812 L 799.947265625 -477.666992188 L 797.61328125 -483.0 L 795.280273438 -488.333007812 L 798.11328125 -493.333007812 Z M 892.11328125 -1270.0 L 902.11328125 -1268.66699219 L 906.447265625 -1264.0 L 905.11328125 -1256.0 L 903.780273438 -1248.0 L 897.447265625 -1243.66699219 L 886.11328125 -1243.0 L 873.447265625 -1239.0 L 863.11328125 -1224.16699219 L 855.11328125 -1198.5 L 847.11328125 -1172.83300781 L 838.780273438 -1145.66699219 L 830.11328125 -1117.0 L 809.447265625 -1049.66699219 L 790.280273438 -995.166992188 L 772.61328125 -953.5 L 754.947265625 -911.833007812 L 738.447265625 -882.833007812 L 723.11328125 -866.5 L 707.780273438 -850.166992188 L 689.447265625 -837.666992188 L 668.11328125 -829.0 L 634.780273438 -815.666992188 L 601.780273438 -805.833007812 L 569.11328125 -799.5 L 536.447265625 -793.166992188 L 508.447265625 -790.0 L 485.11328125 -790.0 L 497.11328125 -764.0 L 516.780273438 -746.166992188 L 544.11328125 -736.5 L 571.447265625 -726.833007812 L 579.447265625 -716.333007812 L 568.11328125 -705.0 L 561.447265625 -699.0 L 540.11328125 -707.333007812 L 504.11328125 -730.0 L 468.11328125 -752.666992188 L 443.447265625 -775.0 L 430.11328125 -797.0 L 430.11328125 -811.0 L 436.447265625 -816.833007812 L 449.11328125 -814.5 L 461.780273438 -812.166992188 L 475.11328125 -810.333007812 L 489.11328125 -809.0 L 503.780273438 -808.333007812 L 518.61328125 -809.166992188 L 533.61328125 -811.5 L 548.61328125 -813.833007812 L 568.780273438 -820.666992188 L 594.11328125 -832.0 L 606.780273438 -838.0 L 618.447265625 -851.0 L 629.11328125 -871.0 L 639.780273438 -891.0 L 649.61328125 -913.166992188 L 658.61328125 -937.5 L 667.61328125 -961.833007812 L 675.280273438 -985.833007812 L 681.61328125 -1009.5 L 687.947265625 -1033.16699219 L 695.947265625 -1067.5 L 705.61328125 -1112.5 L 715.280273438 -1157.5 L 723.780273438 -1187.66699219 L 731.11328125 -1203.0 L 738.447265625 -1218.33300781 L 748.780273438 -1230.66699219 L 762.11328125 -1240.0 L 775.447265625 -1249.33300781 L 788.11328125 -1255.33300781 L 800.11328125 -1258.0 L 812.11328125 -1260.66699219 L 825.61328125 -1262.83300781 L 840.61328125 -1264.5 L 855.61328125 -1266.16699219 L 872.780273438 -1268.0 Z" fill="black" fill-opacity="0.25" stroke="black" stroke-width="4.0"/>
  <rect x="402.0" y="-667.0" width="307.99999999999994" height="262.0" fill="none" stroke="red" stroke-width="10.0" /><rect x="-2.0" y="-507.0" width="1106.0" height="374.0" fill="none" stroke="red" stroke-width="10.0" /><rect x="430.0" y="-1270.0" width="476.00000000000006" height="571.0000000000001" fill="none" stroke="red" stroke-width="10.0" />
</svg>
