<svg xmlns="http://www.w3.org/2000/svg"
  viewBox="-50 -1275 1288.336 1191.522">
  <rect x="-50" y="-1275" width="1288.336" height="1191.522" fill="white"/>
  <path d="M 379.113 -829 L 401.78 -829 L 425.613 -828.667 L 450.613 -828 L 475.613 -827.333 L 498.447 -825.333 L 519.113 -822 L 533.113 -822 L 548.613 -794.5 L 565.613 -739.5 L 582.613 -684.5 L 602.78 -636.333 L 626.113 -595 L 633.447 -581 L 640.78 -573 L 648.113 -571 L 654.113 -569 L 658.78 -565.5 L 662.113 -560.5 L 665.447 -555.5 L 662.113 -551 L 652.113 -547 L 628.78 -543 L 605.28 -541.333 L 581.613 -542 L 557.947 -542.667 L 535.447 -544.333 L 514.113 -547 L 494.113 -555 L 477.613 -580.667 L 464.613 -624 L 451.613 -667.333 L 433.113 -717.667 L 409.113 -775 L 407.113 -778.333 L 403.113 -782.833 L 397.113 -788.5 L 391.113 -794.167 L 384.113 -798 L 376.113 -800 L 365.447 -802 L 359.28 -807.167 L 357.613 -815.5 L 355.947 -823.833 L 363.113 -828.333 Z M 806.113 -498 L 831.447 -507.333 L 874.447 -506.667 L 935.113 -496 L 970.447 -486.667 L 1001.613 -474.833 L 1028.613 -460.5 L 1055.613 -446.167 L 1076.447 -420.667 L 1091.113 -384 L 1101.113 -348.667 L 1104.447 -320.333 L 1101.113 -299 L 1097.78 -277.667 L 1086.113 -253.333 L 1066.113 -226 L 1046.78 -202.667 L 1024.28 -185.167 L 998.613 -173.5 L 972.947 -161.833 L 941.447 -152 L 904.113 -144 L 866.78 -136.667 L 836.447 -133.167 L 813.113 -133.5 L 789.78 -133.833 L 764.447 -134.333 L 737.113 -135 L 710.447 -136.333 L 685.613 -138.5 L 662.613 -141.5 L 639.613 -144.5 L 611.78 -151 L 579.113 -161 L 525.113 -175.667 L 471.78 -196 L 419.113 -222 L 389.78 -236.667 L 358.613 -252.5 L 325.613 -269.5 L 292.613 -286.5 L 255.78 -306.667 L 215.113 -330 L 196.447 -341.333 L 175.947 -353.5 L 153.613 -366.5 L 131.28 -379.5 L 107.447 -392.667 L 82.113 -406 L 62.78 -418 L 43.613 -430.167 L 24.613 -442.5 L 5.613 -454.833 L -2.387 -467.167 L 0.613 -479.5 L 3.613 -491.833 L 10.78 -497.667 L 22.113 -497 L 33.447 -496.333 L 69.113 -496.5 L 129.113 -497.5 L 189.113 -498.5 L 241.78 -498.667 L 287.113 -498 L 305.113 -484.667 L 304.947 -475.167 L 286.613 -469.5 L 268.28 -463.833 L 254.447 -456.667 L 245.113 -448 L 228.447 -430.667 L 221.113 -416.833 L 223.113 -406.5 L 225.113 -396.167 L 227.947 -388.167 L 231.613 -382.5 L 235.28 -376.833 L 240.78 -370.833 L 248.113 -364.5 L 255.447 -358.167 L 273.447 -345 L 302.113 -325 L 330.78 -305 L 366.78 -284 L 410.113 -262 L 448.78 -245.333 L 479.113 -231.667 L 501.113 -221 L 523.113 -210.333 L 558.78 -198.333 L 608.113 -185 L 644.78 -177.667 L 682.113 -173.167 L 720.113 -171.5 L 758.113 -169.833 L 796.78 -175.333 L 836.113 -188 L 863.447 -200 L 882.613 -210.333 L 893.613 -219 L 904.613 -227.667 L 917.113 -242.333 L 931.113 -263 L 943.113 -283 L 949.947 -300 L 951.613 -314 L 953.28 -328 L 953.447 -344 L 952.113 -362 L 951.447 -380.667 L 949.28 -394.167 L 945.613 -402.5 L 941.947 -410.833 L 937.28 -419.333 L 931.613 -428 L 925.947 -436.667 L 918.613 -444.5 L 909.613 -451.5 L 900.613 -458.5 L 886.78 -463.333 L 868.113 -466 L 849.447 -468.667 L 831.113 -471 L 813.113 -473 L 805.113 -474.333 L 799.947 -477.667 L 797.613 -483 L 795.28 -488.333 L 798.113 -493.333 Z M 1174.113 -1225 L 1184.78 -1223 L 1189.447 -1217.833 L 1188.113 -1209.5 L 1186.78 -1201.167 L 1180.113 -1196.333 L 1168.113 -1195 L 1154.78 -1190.333 L 1144.113 -1173.5 L 1136.113 -1144.5 L 1128.113 -1115.5 L 1119.447 -1085 L 1110.113 -1053 L 1088.78 -977 L 1069.113 -915.333 L 1051.113 -868 L 1033.113 -820.667 L 1016.113 -787.667 L 1000.113 -769 L 984.113 -750.333 L 965.113 -736 L 943.113 -726 L 908.447 -711.333 L 874.447 -700.333 L 841.113 -693 L 807.78 -685.667 L 778.78 -682 L 754.113 -682 L 766.78 -653.333 L 787.28 -633.5 L 815.613 -622.5 L 843.947 -611.5 L 852.113 -599.667 L 840.113 -587 L 832.78 -579.667 L 810.613 -588.833 L 773.613 -614.5 L 736.613 -640.167 L 711.113 -665.333 L 697.113 -690 L 697.113 -705.333 L 703.613 -711.833 L 716.613 -709.5 L 729.613 -707.167 L 743.78 -705.333 L 759.113 -704 L 773.78 -703.333 L 788.78 -704.333 L 804.113 -707 L 819.447 -709.667 L 840.113 -717.667 L 866.113 -731 L 879.447 -737.667 L 891.78 -752.167 L 903.113 -774.5 L 914.447 -796.833 L 924.613 -821.667 L 933.613 -849 L 942.613 -876.333 L 950.447 -903.5 L 957.113 -930.5 L 963.78 -957.5 L 972.113 -996.5 L 982.113 -1047.5 L 992.113 -1098.5 L 1000.947 -1132.667 L 1008.613 -1150 L 1016.28 -1167.333 L 1026.947 -1181.333 L 1040.613 -1192 L 1054.28 -1202.667 L 1067.28 -1209.5 L 1079.613 -1212.5 L 1091.947 -1215.5 L 1105.78 -1217.667 L 1121.113 -1219 L 1136.447 -1220.333 L 1154.113 -1222.333 Z" fill="black" fill-opacity="0.25" stroke="black" stroke-width="4"/>
  <rect x="356" y="-829" width="309" height="288" fill="none" stroke="red" stroke-width="10" /><rect x="-2" y="-507" width="1106" height="374" fill="none" stroke="red" stroke-width="10" /><rect x="697.1" y="-798" width="324.4" height="213.4" fill="none" stroke="red" stroke-width="10" /><rect x="914.9" y="-1011.5" width="183.6" height="213.5" fill="none" stroke="red" stroke-width="10" /><rect x="975.1" y="-1225" width="214.3" height="213.5" fill="none" stroke="red" stroke-width="10" />
</svg>
