<svg xmlns="http://www.w3.org/2000/svg"
  viewBox="-49.99973366477273 -1150.9091437408222 1207.9771353992544 1067.430842275294">
  <rect x="-49.99973366477273" y="-1150.9091437408222" width="1207.9771353992544" height="1067.430842275294" fill="white"/>
  <path d="M 523.727539062 -320.0 L 517.060546875 -325.333007812 L 516.560546875 -330.333007812 L 522.227539062 -335.0 L 527.893554688 -339.666992188 L 535.060546875 -342.0 L 543.727539062 -342.0 L 553.727539062 -342.0 L 567.560546875 -350.833007812 L 585.227539062 -368.5 L 602.893554688 -386.166992188 L 614.393554688 -407.666992188 L 619.727539062 -433.0 L 629.060546875 -477.0 L 606.393554688 -513.0 L 551.727539062 -541.0 L 531.060546875 -551.0 L 504.560546875 -560.0 L 472.227539062 -568.0 L 439.893554688 -576.0 L 408.227539062 -583.0 L 377.227539062 -589.0 L 346.227539062 -595.0 L 318.893554688 -599.833007812 L 295.227539062 -603.5 L 271.560546875 -607.166992188 L 257.727539062 -610.0 L 253.727539062 -612.0 L 245.060546875 -615.333007812 L 241.727539062 -619.833007812 L 243.727539062 -625.5 L 245.727539062 -631.166992188 L 250.060546875 -634.0 L 256.727539062 -634.0 L 263.393554688 -634.0 L 304.727539062 -628.5 L 380.727539062 -617.5 L 456.727539062 -606.5 L 524.060546875 -589.333007812 L 582.727539062 -566.0 L 618.060546875 -552.0 L 646.393554688 -538.0 L 667.727539062 -524.0 L 689.060546875 -510.0 L 708.393554688 -491.666992188 L 725.727539062 -469.0 L 743.060546875 -445.666992188 L 750.393554688 -422.166992188 L 747.727539062 -398.5 L 745.060546875 -374.833007812 L 735.060546875 -356.666992188 L 717.727539062 -344.0 L 701.727539062 -332.0 L 683.227539062 -323.833007812 L 662.227539062 -319.5 L 641.227539062 -315.166992188 L 621.393554688 -313.0 L 602.727539062 -313.0 L 574.727539062 -313.0 L 574.727539062 -313.0 L 563.227539062 -313.0 L 555.560546875 -313.0 L 542.393554688 -315.333007812 Z M 830.727539062 -696.0 L 839.727539062 -657.0 L 839.727539062 -654.333007812 L 843.227539062 -648.0 L 850.227539062 -638.0 L 857.227539062 -628.0 L 860.727539062 -621.666992188 L 860.727539062 -619.0 L 860.727539062 -616.333007812 L 855.227539062 -613.833007812 L 844.227539062 -611.5 L 833.227539062 -609.166992188 L 825.727539062 -608.0 L 821.727539062 -608.0 L 760.727539062 -608.0 L 752.727539062 -608.0 L 745.227539062 -613.666992188 L 738.227539062 -625.0 L 731.227539062 -635.666992188 L 726.727539062 -646.333007812 L 724.727539062 -657.0 L 716.727539062 -696.0 L 638.727539062 -696.0 L 567.060546875 -699.0 L 501.727539062 -705.0 L 436.393554688 -711.0 L 390.060546875 -716.333007812 L 362.727539062 -721.0 L 312.060546875 -729.0 L 270.227539062 -743.0 L 237.227539062 -763.0 L 204.227539062 -783.0 L 182.393554688 -805.666992188 L 171.727539062 -831.0 L 166.393554688 -843.666992188 L 156.727539062 -862.5 L 142.727539062 -887.5 L 128.727539062 -912.5 L 114.060546875 -937.666992188 L 98.7275390625 -963.0 L 83.3935546875 -988.333007812 L 68.8935546875 -1011.0 L 55.2275390625 -1031.0 L 41.560546875 -1051.0 L 32.060546875 -1062.33300781 L 26.7275390625 -1065.0 L -1.2724609375 -1074.33300781 L -7.2724609375 -1084.33300781 L 8.7275390625 -1095.0 L 42.060546875 -1097.66699219 L 74.060546875 -1099.5 L 104.727539062 -1100.5 L 135.393554688 -1101.5 L 166.727539062 -1100.66699219 L 198.727539062 -1098.0 L 230.727539062 -1096.0 L 253.560546875 -1077.66699219 L 267.227539062 -1043.0 L 280.893554688 -1008.33300781 L 294.727539062 -963.0 L 308.727539062 -907.0 L 322.727539062 -850.333007812 L 339.893554688 -812.0 L 360.227539062 -792.0 L 380.560546875 -772.0 L 415.727539062 -755.333007812 L 465.727539062 -742.0 L 516.393554688 -728.0 L 598.727539062 -722.333007812 L 712.727539062 -725.0 L 700.727539062 -794.0 L 700.060546875 -797.333007812 L 696.727539062 -801.833007812 L 690.727539062 -807.5 L 684.727539062 -813.166992188 L 681.727539062 -817.666992188 L 681.727539062 -821.0 L 681.727539062 -825.0 L 687.060546875 -827.666992188 L 697.727539062 -829.0 L 708.393554688 -830.333007812 L 716.060546875 -831.0 L 720.727539062 -831.0 L 781.727539062 -831.0 L 789.060546875 -831.0 L 796.227539062 -825.833007812 L 803.227539062 -815.5 L 810.227539062 -805.166992188 L 815.060546875 -794.0 L 817.727539062 -782.0 L 827.727539062 -726.0 L 872.393554688 -726.666992188 L 902.727539062 -728.166992188 L 918.727539062 -730.5 L 934.727539062 -732.833007812 L 952.393554688 -735.333007812 L 971.727539062 -738.0 L 979.060546875 -737.333007812 L 983.393554688 -734.0 L 984.727539062 -728.0 L 986.060546875 -722.0 L 984.393554688 -716.666992188 L 979.727539062 -712.0 L 973.060546875 -706.666992188 L 959.393554688 -702.666992188 L 938.727539062 -700.0 L 918.060546875 -697.333007812 L 882.060546875 -696.0 Z M 811.727539062 -498.0 L 837.060546875 -507.333007812 L 880.060546875 -506.666992188 L 940.727539062 -496.0 L 976.060546875 -487.333007812 L 1007.22753906 -475.666992188 L 1034.22753906 -461.0 L 1061.22753906 -446.333007812 L 1082.06054688 -420.666992188 L 1096.72753906 -384.0 L 1106.72753906 -348.666992188 L 1110.06054688 -320.5 L 1106.72753906 -299.5 L 1103.39355469 -278.5 L 1091.72753906 -254.0 L 1071.72753906 -226.0 L 1052.39355469 -202.666992188 L 1029.89355469 -185.166992188 L 1004.22753906 -173.5 L 978.560546875 -161.833007812 L 947.060546875 -152.0 L 909.727539062 -144.0 L 872.393554688 -136.666992188 L 842.060546875 -133.166992188 L 818.727539062 -133.5 L 795.393554688 -133.833007812 L 770.060546875 -134.333007812 L 742.727539062 -135.0 L 716.060546875 -136.333007812 L 691.227539062 -138.5 L 668.227539062 -141.5 L 645.227539062 -144.5 L 617.393554688 -151.0 L 584.727539062 -161.0 L 530.727539062 -175.666992188 L 477.393554688 -196.0 L 424.727539062 -222.0 L 395.393554688 -236.666992188 L 364.227539062 -252.5 L 331.227539062 -269.5 L 298.227539062 -286.5 L 261.393554688 -306.666992188 L 220.727539062 -330.0 L 202.060546875 -341.333007812 L 181.560546875 -353.5 L 159.227539062 -366.5 L 136.893554688 -379.5 L 113.060546875 -392.666992188 L 87.7275390625 -406.0 L 68.3935546875 -418.0 L 49.2275390625 -430.0 L 30.2275390625 -442.0 L 11.2275390625 -454.0 L 3.2275390625 -466.166992188 L 6.2275390625 -478.5 L 9.2275390625 -490.833007812 L 16.3935546875 -496.666992188 L 27.7275390625 -496.0 L 39.060546875 -495.333007812 L 74.7275390625 -495.666992188 L 134.727539062 -497.0 L 194.727539062 -498.333007812 L 247.393554688 -498.666992188 L 292.727539062 -498.0 L 310.727539062 -484.666992188 L 310.560546875 -475.166992188 L 292.227539062 -469.5 L 273.893554688 -463.833007812 L 260.060546875 -456.666992188 L 250.727539062 -448.0 L 234.060546875 -430.666992188 L 226.727539062 -416.833007812 L 228.727539062 -406.5 L 230.727539062 -396.166992188 L 233.560546875 -388.166992188 L 237.227539062 -382.5 L 240.893554688 -376.833007812 L 246.393554688 -370.833007812 L 253.727539062 -364.5 L 261.060546875 -358.166992188 L 279.060546875 -345.0 L 307.727539062 -325.0 L 336.393554688 -305.0 L 372.393554688 -284.0 L 415.727539062 -262.0 L 454.393554688 -245.333007812 L 484.727539062 -231.666992188 L 506.727539062 -221.0 L 528.727539062 -210.333007812 L 564.393554688 -198.333007812 L 613.727539062 -185.0 L 650.393554688 -177.666992188 L 687.727539062 -173.166992188 L 725.727539062 -171.5 L 763.727539062 -169.833007812 L 802.393554688 -175.333007812 L 841.727539062 -188.0 L 869.060546875 -200.0 L 888.227539062 -210.333007812 L 899.227539062 -219.0 L 910.227539062 -227.666992188 L 922.727539062 -242.333007812 L 936.727539062 -263.0 L 948.727539062 -283.0 L 955.560546875 -300.0 L 957.227539062 -314.0 L 958.893554688 -328.0 L 959.060546875 -344.0 L 957.727539062 -362.0 L 957.060546875 -380.666992188 L 954.893554688 -394.166992188 L 951.227539062 -402.5 L 947.560546875 -410.833007812 L 942.893554688 -419.333007812 L 937.227539062 -428.0 L 931.560546875 -436.666992188 L 924.227539062 -444.5 L 915.227539062 -451.5 L 906.227539062 -458.5 L 892.393554688 -463.333007812 L 873.727539062 -466.0 L 855.060546875 -468.666992188 L 836.727539062 -471.0 L 818.727539062 -473.0 L 810.727539062 -474.333007812 L 805.560546875 -477.666992188 L 803.227539062 -483.0 L 800.893554688 -488.333007812 L 803.727539062 -493.333007812 Z" fill="black" fill-opacity="0.25" stroke="black" stroke-width="4.0"/>
  <rect x="242.0" y="-634.0" width="508.0" height="321.0" fill="none" stroke="red" stroke-width="10.0" /><rect x="-7.0" y="-1101.0" width="993.0" height="493.0" fill="none" stroke="red" stroke-width="10.0" /><rect x="3.0" y="-507.0" width="1107.0000000000002" height="374.0" fill="none" stroke="red" stroke-width="10.0" />
</svg>
