<svg xmlns="http://www.w3.org/2000/svg"
  viewBox="-50 -1398 1394.336 1314.522">
  <rect x="-50" y="-1398" width="1394.336" height="1314.522" fill="white"/>
  <path d="M 532.113 -707 L 552.113 -707 L 573.113 -706.667 L 595.113 -706 L 617.113 -705.333 L 636.78 -704 L 654.113 -702 L 666.78 -702 L 680.113 -685.667 L 694.113 -653 L 708.113 -620.333 L 724.447 -588.333 L 743.113 -557 L 749.113 -545.667 L 755.447 -539.667 L 762.113 -539 L 766.78 -537.667 L 770.78 -535.167 L 774.113 -531.5 L 777.447 -527.833 L 774.78 -524.333 L 766.113 -521 L 746.113 -517.667 L 725.613 -516.333 L 704.613 -517 L 683.613 -517.667 L 663.78 -519 L 645.113 -521 L 627.78 -527 L 614.113 -541.667 L 604.113 -565 L 594.113 -588.333 L 578.78 -622 L 558.113 -666 L 556.78 -668 L 553.28 -671.833 L 547.613 -677.5 L 541.947 -683.167 L 535.78 -686.333 L 529.113 -687 L 519.113 -688.333 L 513.613 -692 L 512.613 -698 L 511.613 -704 L 518.113 -707 Z M 262.113 -707 L 282.113 -707 L 303.113 -706.667 L 325.113 -706 L 347.113 -705.333 L 366.78 -704 L 384.113 -702 L 396.78 -702 L 410.113 -685.667 L 424.113 -653 L 438.113 -620.333 L 454.447 -588.333 L 473.113 -557 L 479.113 -545.667 L 485.447 -539.667 L 492.113 -539 L 497.447 -537.667 L 501.613 -535.167 L 504.613 -531.5 L 507.613 -527.833 L 504.78 -524.333 L 496.113 -521 L 475.447 -517.667 L 454.78 -516.333 L 434.113 -517 L 413.447 -517.667 L 393.78 -519 L 375.113 -521 L 357.78 -527 L 344.113 -541.667 L 334.113 -565 L 324.113 -588.333 L 308.78 -622 L 288.113 -666 L 286.113 -668 L 282.447 -671.833 L 277.113 -677.5 L 271.78 -683.167 L 265.78 -686.333 L 259.113 -687 L 249.78 -688.333 L 244.447 -692 L 243.113 -698 L 241.78 -704 L 248.113 -707 Z M 806.113 -498 L 831.447 -507.333 L 874.447 -506.667 L 935.113 -496 L 970.447 -487.333 L 1001.613 -475.667 L 1028.613 -461 L 1055.613 -446.333 L 1076.447 -420.667 L 1091.113 -384 L 1101.113 -348.667 L 1104.447 -320.5 L 1101.113 -299.5 L 1097.78 -278.5 L 1086.113 -254 L 1066.113 -226 L 1046.78 -202.667 L 1024.28 -185.167 L 998.613 -173.5 L 972.947 -161.833 L 941.447 -152 L 904.113 -144 L 866.78 -136.667 L 836.447 -133.167 L 813.113 -133.5 L 789.78 -133.833 L 764.447 -134.333 L 737.113 -135 L 710.447 -136.333 L 685.613 -138.5 L 662.613 -141.5 L 639.613 -144.5 L 611.78 -151 L 579.113 -161 L 525.113 -175.667 L 471.78 -196 L 419.113 -222 L 389.78 -236.667 L 358.613 -252.5 L 325.613 -269.5 L 292.613 -286.5 L 255.78 -306.667 L 215.113 -330 L 196.447 -341.333 L 175.947 -353.5 L 153.613 -366.5 L 131.28 -379.5 L 107.447 -392.667 L 82.113 -406 L 62.78 -418 L 43.613 -430 L 24.613 -442 L 5.613 -454 L -2.387 -466.167 L 0.613 -478.5 L 3.613 -490.833 L 10.78 -496.667 L 22.113 -496 L 33.447 -495.333 L 69.113 -495.667 L 129.113 -497 L 189.113 -498.333 L 241.78 -498.667 L 287.113 -498 L 305.113 -484.667 L 304.947 -475.167 L 286.613 -469.5 L 268.28 -463.833 L 254.447 -456.667 L 245.113 -448 L 228.447 -430.667 L 221.113 -416.833 L 223.113 -406.5 L 225.113 -396.167 L 227.947 -388.167 L 231.613 -382.5 L 235.28 -376.833 L 240.78 -370.833 L 248.113 -364.5 L 255.447 -358.167 L 273.447 -345 L 302.113 -325 L 330.78 -305 L 366.78 -284 L 410.113 -262 L 448.78 -245.333 L 479.113 -231.667 L 501.113 -221 L 523.113 -210.333 L 558.78 -198.333 L 608.113 -185 L 644.78 -177.667 L 682.113 -173.167 L 720.113 -171.5 L 758.113 -169.833 L 796.78 -175.333 L 836.113 -188 L 863.447 -200 L 882.613 -210.333 L 893.613 -219 L 904.613 -227.667 L 917.113 -242.333 L 931.113 -263 L 943.113 -283 L 949.947 -300 L 951.613 -314 L 953.28 -328 L 953.447 -344 L 952.113 -362 L 951.447 -380.667 L 949.28 -394.167 L 945.613 -402.5 L 941.947 -410.833 L 937.28 -419.333 L 931.613 -428 L 925.947 -436.667 L 918.613 -444.5 L 909.613 -451.5 L 900.613 -458.5 L 886.78 -463.333 L 868.113 -466 L 849.447 -468.667 L 831.113 -471 L 813.113 -473 L 805.113 -474.333 L 799.947 -477.667 L 797.613 -483 L 795.28 -488.333 L 798.113 -493.333 Z M 1280.113 -1222 L 1290.78 -1220 L 1295.447 -1214.5 L 1294.113 -1205.5 L 1292.78 -1196.5 L 1286.113 -1191.333 L 1274.113 -1190 L 1260.113 -1185.333 L 1248.78 -1167.833 L 1240.113 -1137.5 L 1231.447 -1107.167 L 1222.447 -1075 L 1213.113 -1041 L 1190.447 -961.667 L 1169.78 -897.333 L 1151.113 -848 L 1132.447 -798.667 L 1114.613 -764 L 1097.613 -744 L 1080.613 -724 L 1060.447 -709 L 1037.113 -699 L 1001.113 -683.667 L 965.613 -672.167 L 930.613 -664.5 L 895.613 -656.833 L 865.447 -653 L 840.113 -653 L 852.78 -623 L 873.947 -602.167 L 903.613 -590.5 L 933.28 -578.833 L 941.78 -566.333 L 929.113 -553 L 921.78 -545.667 L 898.78 -555.333 L 860.113 -582 L 821.447 -608.667 L 794.78 -635 L 780.113 -661 L 780.113 -677.667 L 786.947 -684.667 L 800.613 -682 L 814.28 -679.333 L 828.78 -677.333 L 844.113 -676 L 859.447 -675.333 L 875.447 -676.167 L 892.113 -678.5 L 908.78 -680.833 L 930.78 -689 L 958.113 -703 L 971.447 -709.667 L 983.947 -724.833 L 995.613 -748.5 L 1007.28 -772.167 L 1017.947 -798.5 L 1027.613 -827.5 L 1037.28 -856.5 L 1045.447 -885.167 L 1052.113 -913.5 L 1058.78 -941.833 L 1067.613 -982.667 L 1078.613 -1036 L 1089.613 -1089.333 L 1098.947 -1125 L 1106.613 -1143 L 1114.28 -1161 L 1125.28 -1175.5 L 1139.613 -1186.5 L 1153.947 -1197.5 L 1167.613 -1204.667 L 1180.613 -1208 L 1193.613 -1211.333 L 1208.113 -1213.833 L 1224.113 -1215.5 L 1240.113 -1217.167 L 1258.78 -1219.333 Z M 833.113 -1348 L 843.113 -1346.667 L 847.447 -1342.167 L 846.113 -1334.5 L 844.78 -1326.833 L 838.447 -1322.333 L 827.113 -1321 L 814.447 -1317 L 804.113 -1302.167 L 796.113 -1276.5 L 788.113 -1250.833 L 779.78 -1223.667 L 771.113 -1195 L 750.447 -1127.667 L 731.447 -1073.333 L 714.113 -1032 L 696.78 -990.667 L 680.28 -961.667 L 664.613 -945 L 648.947 -928.333 L 630.447 -915.667 L 609.113 -907 L 575.78 -893.667 L 542.947 -883.833 L 510.613 -877.5 L 478.28 -871.167 L 450.113 -868 L 426.113 -868 L 438.113 -842 L 457.947 -824.333 L 485.613 -815 L 513.28 -805.667 L 521.113 -795 L 509.113 -783 L 502.447 -777 L 481.113 -785.333 L 445.113 -808 L 409.113 -830.667 L 384.447 -853 L 371.113 -875 L 371.113 -889 L 377.447 -894.833 L 390.113 -892.5 L 402.78 -890.167 L 416.113 -888.333 L 430.113 -887 L 444.78 -886.333 L 459.613 -887.167 L 474.613 -889.5 L 489.613 -891.833 L 509.78 -898.667 L 535.113 -910 L 547.78 -916 L 559.613 -929 L 570.613 -949 L 581.613 -969 L 591.613 -991.167 L 600.613 -1015.5 L 609.613 -1039.833 L 617.113 -1063.833 L 623.113 -1087.5 L 629.113 -1111.167 L 637.113 -1145.5 L 647.113 -1190.5 L 657.113 -1235.5 L 665.78 -1265.667 L 673.113 -1281 L 680.447 -1296.333 L 690.613 -1308.667 L 703.613 -1318 L 716.613 -1327.333 L 729.113 -1333.5 L 741.113 -1336.5 L 753.113 -1339.5 L 766.613 -1341.667 L 781.613 -1343 L 796.613 -1344.333 L 813.78 -1346 Z" fill="black" fill-opacity="0.25" stroke="black" stroke-width="4"/>
  <rect x="512" y="-707" width="265" height="191" fill="none" stroke="red" stroke-width="10" /><rect x="242" y="-707" width="266" height="191" fill="none" stroke="red" stroke-width="10" /><rect x="-2" y="-507" width="1106" height="374" fill="none" stroke="red" stroke-width="10" /><rect x="780.1" y="-774.4" width="339.9" height="223.8" fill="none" stroke="red" stroke-width="10" /><rect x="1008.2" y="-998.2" width="192.7" height="223.8" fill="none" stroke="red" stroke-width="10" /><rect x="1070.8" y="-1222" width="224.6" height="223.8" fill="none" stroke="red" stroke-width="10" /><rect x="371.1" y="-970.1" width="314" height="189" fill="none" stroke="red" stroke-width="10" /><rect x="582.1" y="-1159" width="178" height="188.9" fill="none" stroke="red" stroke-width="10" /><rect x="640.1" y="-1348" width="207.3" height="189" fill="none" stroke="red" stroke-width="10" />
</svg>
