<svg xmlns="http://www.w3.org/2000/svg"
  viewBox="-50 -1150.909 1207.977 1067.431">
  <rect x="-50" y="-1150.909" width="1207.977" height="1067.431" fill="white"/>
  <path d="M 830.728 -696 L 839.728 -657 L 839.728 -654.333 L 843.228 -648 L 850.228 -638 L 857.228 -628 L 860.728 -621.667 L 860.728 -619 L 860.728 -616.333 L 855.228 -613.833 L 844.228 -611.5 L 833.228 -609.167 L 825.728 -608 L 821.728 -608 L 760.728 -608 L 752.728 -608 L 745.228 -613.667 L 738.228 -625 L 731.228 -635.667 L 726.728 -646.333 L 724.728 -657 L 716.728 -696 L 638.728 -696 L 567.061 -699 L 501.728 -705 L 436.394 -711 L 390.061 -716.333 L 362.728 -721 L 312.061 -729 L 270.228 -743 L 237.228 -763 L 204.228 -783 L 182.394 -805.667 L 171.728 -831 L 166.394 -843.667 L 156.728 -862.5 L 142.728 -887.5 L 128.728 -912.5 L 114.061 -937.667 L 98.728 -963 L 83.394 -988.333 L 68.894 -1011 L 55.228 -1031 L 41.561 -1051 L 32.061 -1062.333 L 26.728 -1065 L -1.272 -1074.333 L -7.272 -1084.333 L 8.728 -1095 L 42.061 -1097.667 L 74.061 -1099.5 L 104.728 -1100.5 L 135.394 -1101.5 L 166.728 -1100.667 L 198.728 -1098 L 230.728 -1096 L 253.561 -1077.667 L 267.228 -1043 L 280.894 -1008.333 L 294.728 -963 L 308.728 -907 L 322.728 -850.333 L 339.894 -812 L 360.228 -792 L 380.561 -772 L 415.728 -755.333 L 465.728 -742 L 516.394 -728 L 598.728 -722.333 L 712.728 -725 L 700.728 -794 L 700.061 -797.333 L 696.728 -801.833 L 690.728 -807.5 L 684.728 -813.167 L 681.728 -817.667 L 681.728 -821 L 681.728 -825 L 687.061 -827.667 L 697.728 -829 L 708.394 -830.333 L 716.061 -831 L 720.728 -831 L 781.728 -831 L 789.061 -831 L 796.228 -825.833 L 803.228 -815.5 L 810.228 -805.167 L 815.061 -794 L 817.728 -782 L 827.728 -726 L 872.394 -726.667 L 902.728 -728.167 L 918.728 -730.5 L 934.728 -732.833 L 952.394 -735.333 L 971.728 -738 L 979.061 -737.333 L 983.394 -734 L 984.728 -728 L 986.061 -722 L 984.394 -716.667 L 979.728 -712 L 973.061 -706.667 L 959.394 -702.667 L 938.728 -700 L 918.061 -697.333 L 882.061 -696 Z M 811.728 -498 L 837.061 -507.333 L 880.061 -506.667 L 940.728 -496 L 976.061 -487.333 L 1007.228 -475.667 L 1034.228 -461 L 1061.228 -446.333 L 1082.061 -420.667 L 1096.728 -384 L 1106.728 -348.667 L 1110.061 -320.5 L 1106.728 -299.5 L 1103.394 -278.5 L 1091.728 -254 L 1071.728 -226 L 1052.394 -202.667 L 1029.894 -185.167 L 1004.228 -173.5 L 978.561 -161.833 L 947.061 -152 L 909.728 -144 L 872.394 -136.667 L 842.061 -133.167 L 818.728 -133.5 L 795.394 -133.833 L 770.061 -134.333 L 742.728 -135 L 716.061 -136.333 L 691.228 -138.5 L 668.228 -141.5 L 645.228 -144.5 L 617.394 -151 L 584.728 -161 L 530.728 -175.667 L 477.394 -196 L 424.728 -222 L 395.394 -236.667 L 364.228 -252.5 L 331.228 -269.5 L 298.228 -286.5 L 261.394 -306.667 L 220.728 -330 L 202.061 -341.333 L 181.561 -353.5 L 159.228 -366.5 L 136.894 -379.5 L 113.061 -392.667 L 87.728 -406 L 68.394 -418 L 49.228 -430 L 30.228 -442 L 11.228 -454 L 3.228 -466.167 L 6.228 -478.5 L 9.228 -490.833 L 16.394 -496.667 L 27.728 -496 L 39.061 -495.333 L 74.728 -495.667 L 134.728 -497 L 194.728 -498.333 L 247.394 -498.667 L 292.728 -498 L 310.728 -484.667 L 310.561 -475.167 L 292.228 -469.5 L 273.894 -463.833 L 260.061 -456.667 L 250.728 -448 L 234.061 -430.667 L 226.728 -416.833 L 228.728 -406.5 L 230.728 -396.167 L 233.561 -388.167 L 237.228 -382.5 L 240.894 -376.833 L 246.394 -370.833 L 253.728 -364.5 L 261.061 -358.167 L 279.061 -345 L 307.728 -325 L 336.394 -305 L 372.394 -284 L 415.728 -262 L 454.394 -245.333 L 484.728 -231.667 L 506.728 -221 L 528.728 -210.333 L 564.394 -198.333 L 613.728 -185 L 650.394 -177.667 L 687.728 -173.167 L 725.728 -171.5 L 763.728 -169.833 L 802.394 -175.333 L 841.728 -188 L 869.061 -200 L 888.228 -210.333 L 899.228 -219 L 910.228 -227.667 L 922.728 -242.333 L 936.728 -263 L 948.728 -283 L 955.561 -300 L 957.228 -314 L 958.894 -328 L 959.061 -344 L 957.728 -362 L 957.061 -380.667 L 954.894 -394.167 L 951.228 -402.5 L 947.561 -410.833 L 942.894 -419.333 L 937.228 -428 L 931.561 -436.667 L 924.228 -444.5 L 915.228 -451.5 L 906.228 -458.5 L 892.394 -463.333 L 873.728 -466 L 855.061 -468.667 L 836.728 -471 L 818.728 -473 L 810.728 -474.333 L 805.561 -477.667 L 803.228 -483 L 800.894 -488.333 L 803.728 -493.333 Z" fill="black" fill-opacity="0.25" stroke="black" stroke-width="4"/>
  <rect x="-7" y="-1101" width="993" height="493" fill="none" stroke="red" stroke-width="10" /><rect x="3" y="-507" width="1107" height="374" fill="none" stroke="red" stroke-width="10" />
</svg>
