<svg xmlns="http://www.w3.org/2000/svg"
  viewBox="-50 -1398 1497.222 1314.522">
  <rect x="-50" y="-1398" width="1497.222" height="1314.522" fill="white"/>
  <path d="M 635 -707 L 655 -707 L 676 -706.667 L 698 -706 L 720 -705.333 L 739.667 -704 L 757 -702 L 769.667 -702 L 783 -685.667 L 797 -653 L 811 -620.333 L 827.333 -588.333 L 846 -557 L 852 -545.667 L 858.333 -539.667 L 865 -539 L 869.667 -537.667 L 873.667 -535.167 L 877 -531.5 L 880.333 -527.833 L 877.667 -524.333 L 869 -521 L 849 -517.667 L 828.5 -516.333 L 807.5 -517 L 786.5 -517.667 L 766.667 -519 L 748 -521 L 730.667 -527 L 717 -541.667 L 707 -565 L 697 -588.333 L 681.667 -622 L 661 -666 L 659.667 -668 L 656.167 -671.833 L 650.5 -677.5 L 644.833 -683.167 L 638.667 -686.333 L 632 -687 L 622 -688.333 L 616.5 -692 L 615.5 -698 L 614.5 -704 L 621 -707 Z M 365 -707 L 385 -707 L 406 -706.667 L 428 -706 L 450 -705.333 L 469.667 -704 L 487 -702 L 499.667 -702 L 513 -685.667 L 527 -653 L 541 -620.333 L 557.333 -588.333 L 576 -557 L 582 -545.667 L 588.333 -539.667 L 595 -539 L 600.333 -537.667 L 604.5 -535.167 L 607.5 -531.5 L 610.5 -527.833 L 607.667 -524.333 L 599 -521 L 578.333 -517.667 L 557.667 -516.333 L 537 -517 L 516.333 -517.667 L 496.667 -519 L 478 -521 L 460.667 -527 L 447 -541.667 L 437 -565 L 427 -588.333 L 411.667 -622 L 391 -666 L 389 -668 L 385.333 -671.833 L 380 -677.5 L 374.667 -683.167 L 368.667 -686.333 L 362 -687 L 352.667 -688.333 L 347.333 -692 L 346 -698 L 344.667 -704 L 351 -707 Z M 909 -498 L 934.333 -507.333 L 977.333 -506.667 L 1038 -496 L 1073.333 -487.333 L 1104.5 -475.667 L 1131.5 -461 L 1158.5 -446.333 L 1179.333 -420.667 L 1194 -384 L 1204 -348.667 L 1207.333 -320.5 L 1204 -299.5 L 1200.667 -278.5 L 1189 -254 L 1169 -226 L 1149.667 -202.667 L 1127.167 -185.167 L 1101.5 -173.5 L 1075.833 -161.833 L 1044.333 -152 L 1007 -144 L 969.667 -136.667 L 939.333 -133.167 L 916 -133.5 L 892.667 -133.833 L 867.333 -134.333 L 840 -135 L 813.333 -136.333 L 788.5 -138.5 L 765.5 -141.5 L 742.5 -144.5 L 714.667 -151 L 682 -161 L 628 -175.667 L 574.667 -196 L 522 -222 L 492.667 -236.667 L 461.5 -252.5 L 428.5 -269.5 L 395.5 -286.5 L 358.667 -306.667 L 318 -330 L 299.333 -341.333 L 278.833 -353.5 L 256.5 -366.5 L 234.167 -379.5 L 210.333 -392.667 L 185 -406 L 165.667 -418 L 146.5 -430 L 127.5 -442 L 108.5 -454 L 100.5 -466.167 L 103.5 -478.5 L 106.5 -490.833 L 113.667 -496.667 L 125 -496 L 136.333 -495.333 L 172 -495.667 L 232 -497 L 292 -498.333 L 344.667 -498.667 L 390 -498 L 408 -484.667 L 407.833 -475.167 L 389.5 -469.5 L 371.167 -463.833 L 357.333 -456.667 L 348 -448 L 331.333 -430.667 L 324 -416.833 L 326 -406.5 L 328 -396.167 L 330.833 -388.167 L 334.5 -382.5 L 338.167 -376.833 L 343.667 -370.833 L 351 -364.5 L 358.333 -358.167 L 376.333 -345 L 405 -325 L 433.667 -305 L 469.667 -284 L 513 -262 L 551.667 -245.333 L 582 -231.667 L 604 -221 L 626 -210.333 L 661.667 -198.333 L 711 -185 L 747.667 -177.667 L 785 -173.167 L 823 -171.5 L 861 -169.833 L 899.667 -175.333 L 939 -188 L 966.333 -200 L 985.5 -210.333 L 996.5 -219 L 1007.5 -227.667 L 1020 -242.333 L 1034 -263 L 1046 -283 L 1052.833 -300 L 1054.5 -314 L 1056.167 -328 L 1056.333 -344 L 1055 -362 L 1054.333 -380.667 L 1052.167 -394.167 L 1048.5 -402.5 L 1044.833 -410.833 L 1040.167 -419.333 L 1034.5 -428 L 1028.833 -436.667 L 1021.5 -444.5 L 1012.5 -451.5 L 1003.5 -458.5 L 989.667 -463.333 L 971 -466 L 952.333 -468.667 L 934 -471 L 916 -473 L 908 -474.333 L 902.833 -477.667 L 900.5 -483 L 898.167 -488.333 L 901 -493.333 Z M 1383 -1222 L 1393.667 -1220 L 1398.333 -1214.5 L 1397 -1205.5 L 1395.667 -1196.5 L 1389 -1191.333 L 1377 -1190 L 1363 -1185.333 L 1351.667 -1167.833 L 1343 -1137.5 L 1334.333 -1107.167 L 1325.333 -1075 L 1316 -1041 L 1293.333 -961.667 L 1272.667 -897.333 L 1254 -848 L 1235.333 -798.667 L 1217.5 -764 L 1200.5 -744 L 1183.5 -724 L 1163.333 -709 L 1140 -699 L 1104 -683.667 L 1068.5 -672.167 L 1033.5 -664.5 L 998.5 -656.833 L 968.333 -653 L 943 -653 L 955.667 -623 L 976.833 -602.167 L 1006.5 -590.5 L 1036.167 -578.833 L 1044.667 -566.333 L 1032 -553 L 1024.667 -545.667 L 1001.667 -555.333 L 963 -582 L 924.333 -608.667 L 897.667 -635 L 883 -661 L 883 -677.667 L 889.833 -684.667 L 903.5 -682 L 917.167 -679.333 L 931.667 -677.333 L 947 -676 L 962.333 -675.333 L 978.333 -676.167 L 995 -678.5 L 1011.667 -680.833 L 1033.667 -689 L 1061 -703 L 1074.333 -709.667 L 1086.833 -724.833 L 1098.5 -748.5 L 1110.167 -772.167 L 1120.833 -798.5 L 1130.5 -827.5 L 1140.167 -856.5 L 1148.333 -885.167 L 1155 -913.5 L 1161.667 -941.833 L 1170.5 -982.667 L 1181.5 -1036 L 1192.5 -1089.333 L 1201.833 -1125 L 1209.5 -1143 L 1217.167 -1161 L 1228.167 -1175.5 L 1242.5 -1186.5 L 1256.833 -1197.5 L 1270.5 -1204.667 L 1283.5 -1208 L 1296.5 -1211.333 L 1311 -1213.833 L 1327 -1215.5 L 1343 -1217.167 L 1361.667 -1219.333 Z M 499 -1222 L 509.667 -1220 L 514.333 -1214.5 L 513 -1205.5 L 511.667 -1196.5 L 505 -1191.333 L 493 -1190 L 479 -1185.333 L 467.667 -1167.833 L 459 -1137.5 L 450.333 -1107.167 L 441.333 -1075 L 432 -1041 L 409.333 -961.667 L 388.667 -897.333 L 370 -848 L 351.333 -798.667 L 333.667 -764 L 317 -744 L 300.333 -724 L 280.333 -709 L 257 -699 L 221 -683.667 L 185.333 -672.167 L 150 -664.5 L 114.667 -656.833 L 84.333 -653 L 59 -653 L 71.667 -623 L 93 -602.167 L 123 -590.5 L 153 -578.833 L 161.667 -566.333 L 149 -553 L 141.667 -545.667 L 118.5 -555.333 L 79.5 -582 L 40.5 -608.667 L 14 -635 L 0 -661 L 0 -677.667 L 6.667 -684.667 L 20 -682 L 33.333 -679.333 L 48 -677.333 L 64 -676 L 79.333 -675.333 L 95.167 -676.167 L 111.5 -678.5 L 127.833 -680.833 L 149.667 -689 L 177 -703 L 190.333 -709.667 L 203 -724.833 L 215 -748.5 L 227 -772.167 L 237.667 -798.5 L 247 -827.5 L 256.333 -856.5 L 264.333 -885.167 L 271 -913.5 L 277.667 -941.833 L 286.5 -982.667 L 297.5 -1036 L 308.5 -1089.333 L 318 -1125 L 326 -1143 L 334 -1161 L 345.167 -1175.5 L 359.5 -1186.5 L 373.833 -1197.5 L 387.5 -1204.667 L 400.5 -1208 L 413.5 -1211.333 L 427.833 -1213.833 L 443.5 -1215.5 L 459.167 -1217.167 L 477.667 -1219.333 Z M 936 -1348 L 946 -1346.667 L 950.333 -1342.167 L 949 -1334.5 L 947.667 -1326.833 L 941.333 -1322.333 L 930 -1321 L 917.333 -1317 L 907 -1302.167 L 899 -1276.5 L 891 -1250.833 L 882.667 -1223.667 L 874 -1195 L 853.333 -1127.667 L 834.333 -1073.333 L 817 -1032 L 799.667 -990.667 L 783.167 -961.667 L 767.5 -945 L 751.833 -928.333 L 733.333 -915.667 L 712 -907 L 678.667 -893.667 L 645.833 -883.833 L 613.5 -877.5 L 581.167 -871.167 L 553 -868 L 529 -868 L 541 -842 L 560.833 -824.333 L 588.5 -815 L 616.167 -805.667 L 624 -795 L 612 -783 L 605.333 -777 L 584 -785.333 L 548 -808 L 512 -830.667 L 487.333 -853 L 474 -875 L 474 -889 L 480.333 -894.833 L 493 -892.5 L 505.667 -890.167 L 519 -888.333 L 533 -887 L 547.667 -886.333 L 562.5 -887.167 L 577.5 -889.5 L 592.5 -891.833 L 612.667 -898.667 L 638 -910 L 650.667 -916 L 662.5 -929 L 673.5 -949 L 684.5 -969 L 694.5 -991.167 L 703.5 -1015.5 L 712.5 -1039.833 L 720 -1063.833 L 726 -1087.5 L 732 -1111.167 L 740 -1145.5 L 750 -1190.5 L 760 -1235.5 L 768.667 -1265.667 L 776 -1281 L 783.333 -1296.333 L 793.5 -1308.667 L 806.5 -1318 L 819.5 -1327.333 L 832 -1333.5 L 844 -1336.5 L 856 -1339.5 L 869.5 -1341.667 L 884.5 -1343 L 899.5 -1344.333 L 916.667 -1346 Z" fill="black" fill-opacity="0.25" stroke="black" stroke-width="4"/>
  <rect x="615" y="-707" width="265" height="191" fill="none" stroke="red" stroke-width="10" /><rect x="345" y="-707" width="266" height="191" fill="none" stroke="red" stroke-width="10" /><rect x="101" y="-507" width="1106" height="374" fill="none" stroke="red" stroke-width="10" /><rect x="883" y="-774.4" width="339.9" height="223.8" fill="none" stroke="red" stroke-width="10" /><rect x="1111.1" y="-998.2" width="192.7" height="223.8" fill="none" stroke="red" stroke-width="10" /><rect x="1173.7" y="-1222" width="224.6" height="223.8" fill="none" stroke="red" stroke-width="10" /><rect x="0" y="-774.4" width="339" height="223.8" fill="none" stroke="red" stroke-width="10" /><rect x="227.9" y="-998.2" width="191.9" height="223.8" fill="none" stroke="red" stroke-width="10" /><rect x="289.7" y="-1222" width="224.6" height="223.8" fill="none" stroke="red" stroke-width="10" /><rect x="474" y="-970.1" width="314" height="189" fill="none" stroke="red" stroke-width="10" /><rect x="685" y="-1159" width="178" height="188.9" fill="none" stroke="red" stroke-width="10" /><rect x="743" y="-1348" width="207.3" height="189" fill="none" stroke="red" stroke-width="10" />
</svg>
