<svg xmlns="http://www.w3.org/2000/svg"
  viewBox="-50 -724.696 1125.191 640.219">
  <rect x="-50" y="-724.696" width="1125.191" height="640.219" fill="white"/>
  <path d="M 694.533 -673 L 709.866 -673 L 717.2 -668.333 L 716.533 -659 L 715.866 -649.667 L 710.533 -644 L 700.533 -642 L 682.533 -638.667 L 670.533 -631 L 664.533 -619 L 640.533 -561 L 622.033 -510.667 L 609.033 -468 L 596.033 -425.333 L 579.533 -399.667 L 559.533 -391 L 538.2 -388.333 L 515.7 -386.833 L 492.033 -386.5 L 468.366 -386.167 L 445.2 -387.667 L 422.533 -391 L 412.533 -395 L 409.033 -399.5 L 412.033 -404.5 L 415.033 -409.5 L 419.866 -413 L 426.533 -415 L 432.533 -417 L 439.533 -425 L 447.533 -439 L 470.866 -480.333 L 490.2 -527 L 505.533 -579 L 520.866 -631 L 537.533 -660 L 555.533 -666 L 578.2 -672.667 L 601.2 -675.5 L 624.533 -674.5 L 647.866 -673.5 L 671.2 -673 Z M 750.533 -474 L 774.533 -482.667 L 814.2 -482 L 869.533 -472 L 902.2 -463.333 L 931.2 -452.333 L 956.533 -439 L 981.866 -425.667 L 1001.533 -401.667 L 1015.533 -367 L 1024.2 -334.333 L 1027.033 -308.333 L 1024.033 -289 L 1021.033 -269.667 L 1010.2 -247 L 991.533 -221 L 973.533 -199.667 L 952.533 -183.333 L 928.533 -172 L 904.533 -160.667 L 875.2 -151.333 L 840.533 -144 L 805.866 -137.333 L 777.7 -134.167 L 756.033 -134.5 L 734.366 -134.833 L 710.866 -135.333 L 685.533 -136 L 660.2 -137.333 L 637.033 -139.5 L 616.033 -142.5 L 595.033 -145.5 L 569.2 -151.667 L 538.533 -161 L 488.533 -175 L 438.866 -194 L 389.533 -218 L 361.533 -232 L 332.366 -246.667 L 302.033 -262 L 271.7 -277.333 L 237.533 -296 L 199.533 -318 L 182.2 -328.667 L 163.2 -340 L 142.533 -352 L 121.866 -364 L 99.533 -376 L 75.533 -388 L 57.533 -399.333 L 39.866 -410.667 L 22.533 -422 L 5.2 -433.333 L -2.134 -444.833 L 0.533 -456.5 L 3.2 -468.167 L 9.866 -473.667 L 20.533 -473 L 31.2 -472.333 L 64.533 -472.5 L 120.533 -473.5 L 176.533 -474.5 L 225.2 -474.667 L 266.533 -474 L 283.2 -462 L 283.033 -453.333 L 266.033 -448 L 249.033 -442.667 L 236.533 -436 L 228.533 -428 L 213.2 -412 L 206.366 -399.167 L 208.033 -389.5 L 209.7 -379.833 L 212.033 -372.333 L 215.033 -367 L 218.033 -361.667 L 223.033 -356 L 230.033 -350 L 237.033 -344 L 254.033 -331.667 L 281.033 -313 L 308.033 -294.333 L 341.2 -275 L 380.533 -255 L 416.533 -239 L 444.866 -226 L 465.533 -216 L 486.2 -206 L 519.533 -194.667 L 565.533 -182 L 599.533 -175.333 L 634.2 -171.333 L 669.533 -170 L 704.866 -168.667 L 740.866 -174 L 777.533 -186 L 802.866 -197.333 L 820.7 -206.833 L 831.033 -214.5 L 841.366 -222.167 L 852.866 -235.667 L 865.533 -255 L 876.866 -273.667 L 883.366 -289.5 L 885.033 -302.5 L 886.7 -315.5 L 886.866 -330.333 L 885.533 -347 L 884.866 -364.333 L 882.866 -376.833 L 879.533 -384.5 L 876.2 -392.167 L 871.866 -400.167 L 866.533 -408.5 L 861.2 -416.833 L 854.366 -424.167 L 846.033 -430.5 L 837.7 -436.833 L 824.866 -441.333 L 807.533 -444 L 790.2 -446.667 L 772.866 -449 L 755.533 -451 L 748.2 -452.333 L 743.7 -455.5 L 742.033 -460.5 L 740.366 -465.5 L 743.2 -470 Z" fill="black" fill-opacity="0.25" stroke="black" stroke-width="4"/>
  <rect x="409" y="-675" width="308" height="289" fill="none" stroke="red" stroke-width="10" /><rect x="-2" y="-483" width="1029" height="349" fill="none" stroke="red" stroke-width="10" />
</svg>
