<svg xmlns="http://www.w3.org/2000/svg"
  viewBox="-49.999899398166875 -1279.5713260758816 1218.2673401926486 1333.0930246104158">
  <rect x="-49.999899398166875" y="-1279.5713260758816" width="1218.2673401926486" height="1333.0930246104158" fill="white"/>
  <path d="M 534.017578125 -185.0 L 527.350585938 -190.333007812 L 526.850585938 -195.333007812 L 532.517578125 -200.0 L 538.184570312 -204.666992188 L 545.350585938 -207.0 L 554.017578125 -207.0 L 564.017578125 -207.0 L 577.850585938 -215.833007812 L 595.517578125 -233.5 L 613.184570312 -251.166992188 L 624.684570312 -272.666992188 L 630.017578125 -298.0 L 639.350585938 -342.0 L 616.684570312 -378.0 L 562.017578125 -406.0 L 541.350585938 -416.0 L 514.850585938 -425.166992188 L 482.517578125 -433.5 L 450.184570312 -441.833007812 L 418.517578125 -448.833007812 L 387.517578125 -454.5 L 356.517578125 -460.166992188 L 329.184570312 -464.833007812 L 305.517578125 -468.5 L 281.850585938 -472.166992188 L 268.017578125 -475.0 L 264.017578125 -477.0 L 255.350585938 -479.666992188 L 252.017578125 -483.833007812 L 254.017578125 -489.5 L 256.017578125 -495.166992188 L 260.350585938 -498.0 L 267.017578125 -498.0 L 273.684570312 -498.0 L 315.017578125 -492.666992188 L 391.017578125 -482.0 L 467.017578125 -471.333007812 L 534.350585938 -454.333007812 L 593.017578125 -431.0 L 628.350585938 -417.0 L 656.684570312 -403.0 L 678.017578125 -389.0 L 699.350585938 -375.0 L 718.684570312 -356.666992188 L 736.017578125 -334.0 L 753.350585938 -310.0 L 760.684570312 -286.166992188 L 758.017578125 -262.5 L 755.350585938 -238.833007812 L 745.350585938 -220.666992188 L 728.017578125 -208.0 L 712.017578125 -196.0 L 693.517578125 -188.0 L 672.517578125 -184.0 L 651.517578125 -180.0 L 631.684570312 -178.0 L 613.017578125 -178.0 L 585.017578125 -178.0 L 585.017578125 -178.0 L 573.517578125 -178.0 L 565.850585938 -178.0 L 552.684570312 -180.333007812 Z M 747.017578125 -553.0 L 755.017578125 -521.0 L 755.684570312 -518.333007812 L 759.017578125 -512.666992188 L 765.017578125 -504.0 L 771.017578125 -495.333007812 L 774.017578125 -490.0 L 774.017578125 -488.0 L 774.017578125 -486.0 L 769.017578125 -484.0 L 759.017578125 -482.0 L 749.017578125 -480.0 L 742.350585938 -479.0 L 739.017578125 -479.0 L 685.017578125 -479.0 L 678.350585938 -479.0 L 671.517578125 -483.833007812 L 664.517578125 -493.5 L 657.517578125 -503.166992188 L 653.350585938 -512.333007812 L 652.017578125 -521.0 L 644.017578125 -553.0 L 574.017578125 -553.0 L 509.684570312 -555.833007812 L 451.017578125 -561.5 L 392.350585938 -567.166992188 L 350.684570312 -571.666992188 L 326.017578125 -575.0 L 232.684570312 -589.0 L 175.350585938 -620.666992188 L 154.017578125 -670.0 L 149.350585938 -680.666992188 L 140.684570312 -696.666992188 L 128.017578125 -718.0 L 115.350585938 -739.333007812 L 102.184570312 -760.833007812 L 88.517578125 -782.5 L 74.8505859375 -804.166992188 L 61.8505859375 -823.5 L 49.517578125 -840.5 L 37.1845703125 -857.5 L 28.6845703125 -867.0 L 24.017578125 -869.0 L -0.6494140625 -877.0 L -6.3154296875 -885.666992188 L 7.017578125 -895.0 L 70.3505859375 -900.333007812 L 127.350585938 -901.333007812 L 178.017578125 -898.0 L 206.684570312 -896.666992188 L 227.350585938 -881.0 L 240.017578125 -851.0 L 252.684570312 -821.0 L 265.350585938 -782.333007812 L 278.017578125 -735.0 L 290.017578125 -687.0 L 305.350585938 -654.166992188 L 324.017578125 -636.5 L 342.684570312 -618.833007812 L 374.350585938 -604.666992188 L 419.017578125 -594.0 L 465.684570312 -582.666992188 L 539.684570312 -577.666992188 L 641.017578125 -579.0 L 630.017578125 -638.0 L 629.350585938 -640.666992188 L 626.350585938 -644.5 L 621.017578125 -649.5 L 615.684570312 -654.5 L 613.017578125 -658.0 L 613.017578125 -660.0 L 613.017578125 -663.333007812 L 617.850585938 -665.666992188 L 627.517578125 -667.0 L 637.184570312 -668.333007812 L 644.017578125 -669.0 L 648.017578125 -669.0 L 703.017578125 -669.0 L 709.684570312 -669.0 L 716.184570312 -664.5 L 722.517578125 -655.5 L 728.850585938 -646.5 L 733.017578125 -637.0 L 735.017578125 -627.0 L 745.017578125 -579.0 L 785.017578125 -579.666992188 L 812.184570312 -581.166992188 L 826.517578125 -583.5 L 840.850585938 -585.833007812 L 856.684570312 -588.0 L 874.017578125 -590.0 L 892.017578125 -588.0 L 894.350585938 -580.666992188 L 881.017578125 -568.0 L 875.017578125 -563.333007812 L 862.684570312 -559.666992188 L 844.017578125 -557.0 L 825.350585938 -554.333007812 L 793.017578125 -553.0 Z M 747.017578125 -883.0 L 755.017578125 -850.0 L 755.684570312 -848.0 L 759.017578125 -842.666992188 L 765.017578125 -834.0 L 771.017578125 -825.333007812 L 774.017578125 -820.0 L 774.017578125 -818.0 L 774.017578125 -816.0 L 769.017578125 -813.833007812 L 759.017578125 -811.5 L 749.017578125 -809.166992188 L 742.350585938 -808.0 L 739.017578125 -808.0 L 685.017578125 -808.0 L 678.350585938 -808.0 L 671.517578125 -812.833007812 L 664.517578125 -822.5 L 657.517578125 -832.166992188 L 653.350585938 -841.333007812 L 652.017578125 -850.0 L 644.017578125 -883.0 L 574.017578125 -883.0 L 509.684570312 -885.666992188 L 451.017578125 -891.0 L 392.350585938 -896.333007812 L 350.684570312 -901.0 L 326.017578125 -905.0 L 232.684570312 -919.0 L 175.350585938 -950.333007812 L 154.017578125 -999.0 L 149.350585938 -1009.66699219 L 140.684570312 -1025.66699219 L 128.017578125 -1047.0 L 115.350585938 -1068.33300781 L 102.184570312 -1089.83300781 L 88.517578125 -1111.5 L 74.8505859375 -1133.16699219 L 61.8505859375 -1152.66699219 L 49.517578125 -1170.0 L 37.1845703125 -1187.33300781 L 28.6845703125 -1197.0 L 24.017578125 -1199.0 L -0.6494140625 -1207.0 L -6.3154296875 -1215.66699219 L 7.017578125 -1225.0 L 70.3505859375 -1230.33300781 L 127.350585938 -1231.0 L 178.017578125 -1227.0 L 206.684570312 -1225.66699219 L 227.350585938 -1210.16699219 L 240.017578125 -1180.5 L 252.684570312 -1150.83300781 L 265.350585938 -1112.0 L 278.017578125 -1064.0 L 290.017578125 -1016.0 L 305.350585938 -983.333007812 L 324.017578125 -966.0 L 342.684570312 -948.666992188 L 374.350585938 -934.333007812 L 419.017578125 -923.0 L 463.017578125 -911.666992188 L 537.017578125 -906.666992188 L 641.017578125 -908.0 L 630.017578125 -968.0 L 629.350585938 -970.666992188 L 626.350585938 -974.333007812 L 621.017578125 -979.0 L 615.684570312 -983.666992188 L 613.017578125 -987.333007812 L 613.017578125 -990.0 L 613.017578125 -993.333007812 L 617.850585938 -995.666992188 L 627.517578125 -997.0 L 637.184570312 -998.333007812 L 644.017578125 -999.0 L 648.017578125 -999.0 L 703.017578125 -999.0 L 709.684570312 -999.0 L 716.184570312 -994.5 L 722.517578125 -985.5 L 728.850585938 -976.5 L 733.017578125 -967.0 L 735.017578125 -957.0 L 745.017578125 -909.0 L 785.017578125 -909.666992188 L 812.184570312 -911.0 L 826.517578125 -913.0 L 840.850585938 -915.0 L 856.684570312 -917.333007812 L 874.017578125 -920.0 L 891.350585938 -918.0 L 893.684570312 -910.333007812 L 881.017578125 -897.0 L 875.017578125 -892.333007812 L 862.684570312 -888.833007812 L 844.017578125 -886.5 L 825.350585938 -884.166992188 L 793.017578125 -883.0 Z M 822.017578125 -361.0 L 847.350585938 -370.333007812 L 890.350585938 -370.0 L 951.017578125 -360.0 L 986.350585938 -351.333007812 L 1017.51757812 -339.666992188 L 1044.51757812 -325.0 L 1071.51757812 -310.333007812 L 1092.35058594 -284.333007812 L 1107.01757812 -247.0 L 1117.01757812 -211.666992188 L 1120.35058594 -183.5 L 1117.01757812 -162.5 L 1113.68457031 -141.5 L 1102.01757812 -117.333007812 L 1082.01757812 -90.0 L 1062.68457031 -66.6669921875 L 1040.18457031 -49.0 L 1014.51757812 -37.0 L 988.850585938 -25.0 L 957.350585938 -15.0 L 920.017578125 -7.0 L 882.684570312 0.3330078125 L 852.350585938 3.8330078125 L 829.017578125 3.5 L 805.684570312 3.1669921875 L 780.350585938 2.6669921875 L 753.017578125 2.0 L 726.350585938 0.6669921875 L 701.517578125 -1.6669921875 L 678.517578125 -5.0 L 655.517578125 -8.3330078125 L 627.684570312 -15.0 L 595.017578125 -25.0 L 541.017578125 -39.6669921875 L 487.684570312 -60.0 L 435.017578125 -86.0 L 405.684570312 -100.666992188 L 374.517578125 -116.333007812 L 341.517578125 -133.0 L 308.517578125 -149.666992188 L 271.684570312 -169.666992188 L 231.017578125 -193.0 L 212.350585938 -204.333007812 L 191.850585938 -216.5 L 169.517578125 -229.5 L 147.184570312 -242.5 L 123.350585938 -255.666992188 L 98.017578125 -269.0 L 78.6845703125 -281.0 L 59.517578125 -293.166992188 L 40.517578125 -305.5 L 21.517578125 -317.833007812 L 13.517578125 -330.166992188 L 16.517578125 -342.5 L 19.517578125 -354.833007812 L 26.6845703125 -360.666992188 L 38.017578125 -360.0 L 49.3505859375 -359.333007812 L 85.017578125 -359.666992188 L 145.017578125 -361.0 L 205.017578125 -362.333007812 L 257.684570312 -362.333007812 L 303.017578125 -361.0 L 321.017578125 -347.666992188 L 320.850585938 -338.166992188 L 302.517578125 -332.5 L 284.184570312 -326.833007812 L 270.350585938 -319.666992188 L 261.017578125 -311.0 L 244.350585938 -293.666992188 L 237.017578125 -280.0 L 239.017578125 -270.0 L 241.017578125 -260.0 L 243.850585938 -252.166992188 L 247.517578125 -246.5 L 251.184570312 -240.833007812 L 256.684570312 -234.666992188 L 264.017578125 -228.0 L 271.350585938 -221.333007812 L 289.350585938 -208.0 L 318.017578125 -188.0 L 346.684570312 -168.0 L 382.684570312 -147.0 L 426.017578125 -125.0 L 464.684570312 -108.333007812 L 495.017578125 -94.6669921875 L 517.017578125 -84.0 L 539.017578125 -73.3330078125 L 574.684570312 -61.3330078125 L 624.017578125 -48.0 L 660.684570312 -40.6669921875 L 698.017578125 -36.3330078125 L 736.017578125 -35.0 L 774.017578125 -33.6669921875 L 812.684570312 -39.3330078125 L 852.017578125 -52.0 L 879.350585938 -64.0 L 898.517578125 -74.1669921875 L 909.517578125 -82.5 L 920.517578125 -90.8330078125 L 933.017578125 -105.333007812 L 947.017578125 -126.0 L 959.017578125 -146.0 L 965.850585938 -163.0 L 967.517578125 -177.0 L 969.184570312 -191.0 L 969.350585938 -207.0 L 968.017578125 -225.0 L 967.350585938 -243.666992188 L 965.184570312 -257.166992188 L 961.517578125 -265.5 L 957.850585938 -273.833007812 L 953.184570312 -282.333007812 L 947.517578125 -291.0 L 941.850585938 -299.666992188 L 934.517578125 -307.5 L 925.517578125 -314.5 L 916.517578125 -321.5 L 902.684570312 -326.5 L 884.017578125 -329.5 L 865.350585938 -332.5 L 847.017578125 -335.0 L 829.017578125 -337.0 L 821.017578125 -338.333007812 L 815.850585938 -341.5 L 813.517578125 -346.5 L 811.184570312 -351.5 L 814.017578125 -356.333007812 Z" fill="black" fill-opacity="0.25" stroke="black" stroke-width="4.0"/>
  <rect x="252.0" y="-498.0" width="509.0" height="320.0" fill="none" stroke="red" stroke-width="10.0" /><rect x="-6.0" y="-901.0" width="900.0" height="422.00000000000006" fill="none" stroke="red" stroke-width="10.0" /><rect x="-6.0" y="-1231.0" width="900.0" height="423.00000000000006" fill="none" stroke="red" stroke-width="10.0" /><rect x="14.0" y="-370.0" width="1106.0" height="374.0" fill="none" stroke="red" stroke-width="10.0" />
</svg>
