<svg xmlns="http://www.w3.org/2000/svg"
  viewBox="-50 -1009.522 1202.5 926.043">
  <rect x="-50" y="-1009.522" width="1202.5" height="926.043" fill="white"/>
  <path d="M 296.25 -595 L 270.917 -585.667 L 227.917 -586 L 167.25 -596 L 131.917 -604.667 L 100.75 -616.333 L 73.75 -631 L 46.75 -645.667 L 25.917 -671.333 L 11.25 -708 L 1.25 -743.333 L -2.083 -771.5 L 1.25 -792.5 L 4.583 -813.5 L 16.25 -838 L 36.25 -866 L 55.583 -889.333 L 78.083 -907 L 103.75 -919 L 129.417 -931 L 160.917 -941 L 198.25 -949 L 235.583 -956.333 L 265.917 -959.833 L 289.25 -959.5 L 312.583 -959.167 L 337.917 -958.333 L 365.25 -957 L 391.917 -955.667 L 416.75 -953.5 L 439.75 -950.5 L 462.75 -947.5 L 490.583 -941 L 523.25 -931 L 577.25 -916.333 L 630.583 -896 L 683.25 -870 L 712.583 -855.333 L 743.75 -839.5 L 776.75 -822.5 L 809.75 -805.5 L 846.583 -785.333 L 887.25 -762 L 905.917 -750.667 L 926.417 -738.667 L 948.75 -726 L 971.083 -713.333 L 994.917 -700.333 L 1020.25 -687 L 1039.583 -675 L 1058.75 -662.833 L 1077.75 -650.5 L 1096.75 -638.167 L 1104.75 -625.833 L 1101.75 -613.5 L 1098.75 -601.167 L 1091.583 -595.333 L 1080.25 -596 L 1068.917 -596.667 L 1033.083 -596.333 L 972.75 -595 L 912.417 -593.667 L 859.917 -593.667 L 815.25 -595 L 797.25 -608.333 L 797.417 -617.833 L 815.75 -623.5 L 834.083 -629.167 L 847.917 -636.333 L 857.25 -645 L 873.917 -662.333 L 881.25 -676 L 879.25 -686 L 877.25 -696 L 874.417 -703.833 L 870.75 -709.5 L 867.083 -715.167 L 861.583 -721.333 L 854.25 -728 L 846.917 -734.667 L 828.75 -747.833 L 799.75 -767.5 L 770.75 -787.167 L 734.917 -808 L 692.25 -830 L 653.583 -846.667 L 623.25 -860.333 L 601.25 -871 L 579.25 -881.667 L 543.583 -893.667 L 494.25 -907 L 457.583 -914.333 L 420.25 -918.833 L 382.25 -920.5 L 344.25 -922.167 L 305.583 -916.667 L 266.25 -904 L 238.917 -892 L 219.75 -881.833 L 208.75 -873.5 L 197.75 -865.167 L 185.25 -850.333 L 171.25 -829 L 159.25 -809 L 152.417 -792.167 L 150.75 -778.5 L 149.083 -764.833 L 148.917 -748.667 L 150.25 -730 L 150.917 -711.333 L 153.083 -698 L 156.75 -690 L 160.417 -682 L 165.083 -673.667 L 170.75 -665 L 176.417 -656.333 L 183.75 -648.5 L 192.75 -641.5 L 201.75 -634.5 L 215.583 -629.5 L 234.25 -626.5 L 252.917 -623.5 L 271.25 -621 L 289.25 -619 L 297.25 -617.667 L 302.417 -614.5 L 304.75 -609.5 L 307.083 -604.5 L 304.25 -599.667 Z M 806.25 -498 L 831.583 -507.333 L 874.583 -506.667 L 935.25 -496 L 970.583 -487.333 L 1001.75 -475.667 L 1028.75 -461 L 1055.75 -446.333 L 1076.583 -420.667 L 1091.25 -384 L 1101.25 -348 L 1104.583 -319.667 L 1101.25 -299 L 1097.917 -278.333 L 1086.25 -254 L 1066.25 -226 L 1046.917 -202.667 L 1024.417 -185.167 L 998.75 -173.5 L 973.083 -161.833 L 941.25 -152 L 903.25 -144 L 865.917 -136.667 L 835.583 -133.167 L 812.25 -133.5 L 788.917 -133.833 L 763.917 -134.333 L 737.25 -135 L 710.583 -136.333 L 685.75 -138.5 L 662.75 -141.5 L 639.75 -144.5 L 611.917 -151 L 579.25 -161 L 525.25 -175.667 L 471.917 -196 L 419.25 -222 L 389.917 -236.667 L 358.583 -252.5 L 325.25 -269.5 L 291.917 -286.5 L 254.917 -306.667 L 214.25 -330 L 195.583 -341.333 L 175.25 -353.5 L 153.25 -366.5 L 131.25 -379.5 L 107.583 -392.667 L 82.25 -406 L 62.917 -418 L 43.75 -430.167 L 24.75 -442.5 L 5.75 -454.833 L -2.25 -467 L 0.75 -479 L 3.75 -491 L 10.917 -496.667 L 22.25 -496 L 33.583 -495.333 L 69.25 -495.667 L 129.25 -497 L 189.25 -498.333 L 241.917 -498.667 L 287.25 -498 L 305.25 -484.667 L 304.917 -475.167 L 286.25 -469.5 L 267.583 -463.833 L 253.917 -456.667 L 245.25 -448 L 228.583 -430.667 L 221.25 -416.833 L 223.25 -406.5 L 225.25 -396.167 L 227.917 -388.167 L 231.25 -382.5 L 234.583 -376.833 L 239.917 -370.833 L 247.25 -364.5 L 254.583 -358.167 L 272.75 -345 L 301.75 -325 L 330.75 -305 L 366.917 -284 L 410.25 -262 L 448.917 -245.333 L 479.25 -231.667 L 501.25 -221 L 523.25 -210.333 L 558.917 -198.333 L 608.25 -185 L 644.917 -177.667 L 682.25 -173.167 L 720.25 -171.5 L 758.25 -169.833 L 796.917 -175.333 L 836.25 -188 L 863.583 -200 L 882.75 -210.333 L 893.75 -219 L 904.75 -227.667 L 917.25 -242.333 L 931.25 -263 L 943.25 -283 L 950.083 -300 L 951.75 -314 L 953.417 -328 L 953.583 -344 L 952.25 -362 L 951.583 -380.667 L 949.417 -394.167 L 945.75 -402.5 L 942.083 -410.833 L 937.25 -419.333 L 931.25 -428 L 925.25 -436.667 L 917.917 -444.5 L 909.25 -451.5 L 900.583 -458.5 L 886.917 -463.333 L 868.25 -466 L 849.583 -468.667 L 831.25 -471 L 813.25 -473 L 805.25 -474.333 L 800.083 -477.667 L 797.75 -483 L 795.417 -488.333 L 798.25 -493.333 Z" fill="black" fill-opacity="0.25" stroke="black" stroke-width="4"/>
  <rect x="-2" y="-960" width="1107" height="374" fill="none" stroke="red" stroke-width="10" /><rect x="-2" y="-507" width="1107" height="374" fill="none" stroke="red" stroke-width="10" />
</svg>
