<svg xmlns="http://www.w3.org/2000/svg"
  viewBox="-50.00008470894536 -1025.4998626717354 1279.2675255034271 942.0215612062073">
  <rect x="-50.00008470894536" y="-1025.4998626717354" width="1279.2675255034271" height="942.0215612062073" fill="white"/>
  <path d="M 883.017578125 -498.0 L 908.350585938 -507.333007812 L 951.350585938 -506.666992188 L 1012.01757812 -496.0 L 1047.35058594 -486.666992188 L 1078.51757812 -474.833007812 L 1105.51757812 -460.5 L 1132.51757812 -446.166992188 L 1153.35058594 -420.666992188 L 1168.01757812 -384.0 L 1178.01757812 -348.666992188 L 1181.35058594 -320.333007812 L 1178.01757812 -299.0 L 1174.68457031 -277.666992188 L 1163.01757812 -253.333007812 L 1143.01757812 -226.0 L 1123.68457031 -202.666992188 L 1101.18457031 -185.166992188 L 1075.51757812 -173.5 L 1049.85058594 -161.833007812 L 1018.01757812 -152.0 L 980.017578125 -144.0 L 942.684570312 -136.666992188 L 912.350585938 -133.166992188 L 889.017578125 -133.5 L 865.684570312 -133.833007812 L 840.684570312 -134.333007812 L 814.017578125 -135.0 L 787.350585938 -136.333007812 L 762.517578125 -138.5 L 739.517578125 -141.5 L 716.517578125 -144.5 L 688.684570312 -151.0 L 656.017578125 -161.0 L 602.017578125 -175.666992188 L 548.684570312 -196.0 L 496.017578125 -222.0 L 466.684570312 -236.666992188 L 435.350585938 -252.5 L 402.017578125 -269.5 L 368.684570312 -286.5 L 331.684570312 -306.666992188 L 291.017578125 -330.0 L 272.350585938 -341.333007812 L 252.017578125 -353.5 L 230.017578125 -366.5 L 208.017578125 -379.5 L 184.350585938 -392.666992188 L 159.017578125 -406.0 L 139.684570312 -418.0 L 120.517578125 -430.166992188 L 101.517578125 -442.5 L 82.517578125 -454.833007812 L 74.517578125 -467.166992188 L 77.517578125 -479.5 L 80.517578125 -491.833007812 L 87.6845703125 -497.666992188 L 99.017578125 -497.0 L 110.350585938 -496.333007812 L 146.017578125 -496.5 L 206.017578125 -497.5 L 266.017578125 -498.5 L 318.684570312 -498.666992188 L 364.017578125 -498.0 L 382.017578125 -484.666992188 L 381.684570312 -475.166992188 L 363.017578125 -469.5 L 344.350585938 -463.833007812 L 330.684570312 -456.666992188 L 322.017578125 -448.0 L 305.350585938 -430.666992188 L 298.017578125 -416.833007812 L 300.017578125 -406.5 L 302.017578125 -396.166992188 L 304.684570312 -388.166992188 L 308.017578125 -382.5 L 311.350585938 -376.833007812 L 316.684570312 -370.833007812 L 324.017578125 -364.5 L 331.350585938 -358.166992188 L 349.517578125 -345.0 L 378.517578125 -325.0 L 407.517578125 -305.0 L 443.684570312 -284.0 L 487.017578125 -262.0 L 525.684570312 -245.333007812 L 556.017578125 -231.666992188 L 578.017578125 -221.0 L 600.017578125 -210.333007812 L 635.684570312 -198.333007812 L 685.017578125 -185.0 L 721.684570312 -177.666992188 L 759.017578125 -173.166992188 L 797.017578125 -171.5 L 835.017578125 -169.833007812 L 873.684570312 -175.333007812 L 913.017578125 -188.0 L 940.350585938 -200.0 L 959.517578125 -210.333007812 L 970.517578125 -219.0 L 981.517578125 -227.666992188 L 994.017578125 -242.333007812 L 1008.01757812 -263.0 L 1020.01757812 -283.0 L 1026.85058594 -300.0 L 1028.51757812 -314.0 L 1030.18457031 -328.0 L 1030.35058594 -344.0 L 1029.01757812 -362.0 L 1028.35058594 -380.666992188 L 1026.18457031 -394.166992188 L 1022.51757812 -402.5 L 1018.85058594 -410.833007812 L 1014.01757812 -419.333007812 L 1008.01757812 -428.0 L 1002.01757812 -436.666992188 L 994.684570312 -444.5 L 986.017578125 -451.5 L 977.350585938 -458.5 L 963.684570312 -463.333007812 L 945.017578125 -466.0 L 926.350585938 -468.666992188 L 908.017578125 -471.0 L 890.017578125 -473.0 L 882.017578125 -474.333007812 L 876.850585938 -477.666992188 L 874.517578125 -483.0 L 872.184570312 -488.333007812 L 875.017578125 -493.333007812 Z M 26.017578125 -804.0 L 0.6845703125 -850.0 L -6.1484375 -889.5 L 5.517578125 -922.5 L 17.1845703125 -955.5 L 38.017578125 -973.0 L 68.017578125 -975.0 L 87.3515625 -976.333007812 L 102.184570312 -975.0 L 112.517578125 -971.0 L 122.8515625 -967.0 L 132.017578125 -962.666992188 L 140.017578125 -958.0 L 148.017578125 -953.333007812 L 155.517578125 -948.5 L 162.517578125 -943.5 L 169.517578125 -938.5 L 176.017578125 -933.333007812 L 182.017578125 -928.0 L 188.017578125 -922.666992188 L 192.184570312 -917.833007812 L 194.517578125 -913.5 L 196.8515625 -909.166992188 L 197.8515625 -905.333007812 L 197.517578125 -902.0 L 197.184570312 -898.666992188 L 195.8515625 -896.166992188 L 193.517578125 -894.5 L 191.184570312 -892.833007812 L 184.184570312 -889.666992188 L 172.517578125 -885.0 L 160.8515625 -880.333007812 L 145.684570312 -872.833007812 L 127.017578125 -862.5 L 108.3515625 -852.166992188 L 99.3515625 -834.666992188 L 100.017578125 -810.0 L 100.017578125 -784.666992188 L 126.3515625 -760.833007812 L 179.017578125 -738.5 L 231.684570312 -716.166992188 L 310.017578125 -707.333007812 L 414.017578125 -712.0 L 963.017578125 -730.0 L 985.017578125 -730.0 L 1002.51757812 -728.5 L 1015.51757812 -725.5 L 1028.51757812 -722.5 L 1040.3515625 -718.833007812 L 1051.01757812 -714.5 L 1061.68457031 -710.166992188 L 1070.8515625 -705.666992188 L 1078.51757812 -701.0 L 1086.18457031 -696.333007812 L 1094.8515625 -689.5 L 1104.51757812 -680.5 L 1114.18457031 -671.5 L 1125.68457031 -660.0 L 1139.01757812 -646.0 L 1152.3515625 -632.0 L 1161.01757812 -621.666992188 L 1165.01757812 -615.0 L 1169.01757812 -608.333007812 L 1171.01757812 -602.0 L 1171.01757812 -596.0 L 1171.01757812 -590.0 L 1169.01757812 -585.833007812 L 1165.01757812 -583.5 L 1161.01757812 -581.166992188 L 1156.51757812 -580.0 L 1151.51757812 -580.0 L 1146.51757812 -580.0 L 1141.3515625 -581.166992188 L 1136.01757812 -583.5 L 1130.68457031 -585.833007812 L 1124.3515625 -588.166992188 L 1117.01757812 -590.5 L 1109.68457031 -592.833007812 L 1101.18457031 -595.333007812 L 1091.51757812 -598.0 L 1081.8515625 -600.666992188 L 1073.18457031 -602.666992188 L 1065.51757812 -604.0 L 1057.8515625 -605.333007812 L 1047.01757812 -606.333007812 L 1033.01757812 -607.0 L 823.017578125 -613.0 L 761.684570312 -613.0 L 697.184570312 -615.5 L 629.517578125 -620.5 L 561.8515625 -625.5 L 498.017578125 -632.0 L 438.017578125 -640.0 L 378.017578125 -648.0 L 325.3515625 -656.666992188 L 280.017578125 -666.0 L 234.684570312 -675.333007812 L 203.684570312 -683.333007812 L 187.017578125 -690.0 L 158.3515625 -702.0 L 132.8515625 -713.666992188 L 110.517578125 -725.0 L 88.1845703125 -736.333007812 L 60.017578125 -762.666992188 Z" fill="black" fill-opacity="0.25" stroke="black" stroke-width="4.0"/>
  <rect x="75.0" y="-507.0" width="1106.0" height="374.0" fill="none" stroke="red" stroke-width="10.0" /><rect x="-6.0" y="-976.0" width="1177.0" height="396.0" fill="none" stroke="red" stroke-width="10.0" />
</svg>
