<svg xmlns="http://www.w3.org/2000/svg"
  viewBox="-50 -1279.571 1218.267 1333.093">
  <rect x="-50" y="-1279.571" width="1218.267" height="1333.093" fill="white"/>
  <path d="M 534.018 -185 L 527.351 -190.333 L 526.851 -195.333 L 532.518 -200 L 538.185 -204.667 L 545.351 -207 L 554.018 -207 L 564.018 -207 L 577.851 -215.833 L 595.518 -233.5 L 613.185 -251.167 L 624.685 -272.667 L 630.018 -298 L 639.351 -342 L 616.685 -378 L 562.018 -406 L 541.351 -416 L 514.851 -425.167 L 482.518 -433.5 L 450.185 -441.833 L 418.518 -448.833 L 387.518 -454.5 L 356.518 -460.167 L 329.185 -464.833 L 305.518 -468.5 L 281.851 -472.167 L 268.018 -475 L 264.018 -477 L 255.351 -479.667 L 252.018 -483.833 L 254.018 -489.5 L 256.018 -495.167 L 260.351 -498 L 267.018 -498 L 273.685 -498 L 315.018 -492.667 L 391.018 -482 L 467.018 -471.333 L 534.351 -454.333 L 593.018 -431 L 628.351 -417 L 656.685 -403 L 678.018 -389 L 699.351 -375 L 718.685 -356.667 L 736.018 -334 L 753.351 -310 L 760.685 -286.167 L 758.018 -262.5 L 755.351 -238.833 L 745.351 -220.667 L 728.018 -208 L 712.018 -196 L 693.518 -188 L 672.518 -184 L 651.518 -180 L 631.685 -178 L 613.018 -178 L 585.018 -178 L 585.018 -178 L 573.518 -178 L 565.851 -178 L 552.685 -180.333 Z M 747.018 -553 L 755.018 -521 L 755.685 -518.333 L 759.018 -512.667 L 765.018 -504 L 771.018 -495.333 L 774.018 -490 L 774.018 -488 L 774.018 -486 L 769.018 -484 L 759.018 -482 L 749.018 -480 L 742.351 -479 L 739.018 -479 L 685.018 -479 L 678.351 -479 L 671.518 -483.833 L 664.518 -493.5 L 657.518 -503.167 L 653.351 -512.333 L 652.018 -521 L 644.018 -553 L 574.018 -553 L 509.685 -555.833 L 451.018 -561.5 L 392.351 -567.167 L 350.685 -571.667 L 326.018 -575 L 232.685 -589 L 175.351 -620.667 L 154.018 -670 L 149.351 -680.667 L 140.685 -696.667 L 128.018 -718 L 115.351 -739.333 L 102.185 -760.833 L 88.518 -782.5 L 74.851 -804.167 L 61.851 -823.5 L 49.518 -840.5 L 37.185 -857.5 L 28.685 -867 L 24.018 -869 L -0.649 -877 L -6.315 -885.667 L 7.018 -895 L 70.351 -900.333 L 127.351 -901.333 L 178.018 -898 L 206.685 -896.667 L 227.351 -881 L 240.018 -851 L 252.685 -821 L 265.351 -782.333 L 278.018 -735 L 290.018 -687 L 305.351 -654.167 L 324.018 -636.5 L 342.685 -618.833 L 374.351 -604.667 L 419.018 -594 L 465.685 -582.667 L 539.685 -577.667 L 641.018 -579 L 630.018 -638 L 629.351 -640.667 L 626.351 -644.5 L 621.018 -649.5 L 615.685 -654.5 L 613.018 -658 L 613.018 -660 L 613.018 -663.333 L 617.851 -665.667 L 627.518 -667 L 637.185 -668.333 L 644.018 -669 L 648.018 -669 L 703.018 -669 L 709.685 -669 L 716.185 -664.5 L 722.518 -655.5 L 728.851 -646.5 L 733.018 -637 L 735.018 -627 L 745.018 -579 L 785.018 -579.667 L 812.185 -581.167 L 826.518 -583.5 L 840.851 -585.833 L 856.685 -588 L 874.018 -590 L 892.018 -588 L 894.351 -580.667 L 881.018 -568 L 875.018 -563.333 L 862.685 -559.667 L 844.018 -557 L 825.351 -554.333 L 793.018 -553 Z M 747.018 -883 L 755.018 -850 L 755.685 -848 L 759.018 -842.667 L 765.018 -834 L 771.018 -825.333 L 774.018 -820 L 774.018 -818 L 774.018 -816 L 769.018 -813.833 L 759.018 -811.5 L 749.018 -809.167 L 742.351 -808 L 739.018 -808 L 685.018 -808 L 678.351 -808 L 671.518 -812.833 L 664.518 -822.5 L 657.518 -832.167 L 653.351 -841.333 L 652.018 -850 L 644.018 -883 L 574.018 -883 L 509.685 -885.667 L 451.018 -891 L 392.351 -896.333 L 350.685 -901 L 326.018 -905 L 232.685 -919 L 175.351 -950.333 L 154.018 -999 L 149.351 -1009.667 L 140.685 -1025.667 L 128.018 -1047 L 115.351 -1068.333 L 102.185 -1089.833 L 88.518 -1111.5 L 74.851 -1133.167 L 61.851 -1152.667 L 49.518 -1170 L 37.185 -1187.333 L 28.685 -1197 L 24.018 -1199 L -0.649 -1207 L -6.315 -1215.667 L 7.018 -1225 L 70.351 -1230.333 L 127.351 -1231 L 178.018 -1227 L 206.685 -1225.667 L 227.351 -1210.167 L 240.018 -1180.5 L 252.685 -1150.833 L 265.351 -1112 L 278.018 -1064 L 290.018 -1016 L 305.351 -983.333 L 324.018 -966 L 342.685 -948.667 L 374.351 -934.333 L 419.018 -923 L 463.018 -911.667 L 537.018 -906.667 L 641.018 -908 L 630.018 -968 L 629.351 -970.667 L 626.351 -974.333 L 621.018 -979 L 615.685 -983.667 L 613.018 -987.333 L 613.018 -990 L 613.018 -993.333 L 617.851 -995.667 L 627.518 -997 L 637.185 -998.333 L 644.018 -999 L 648.018 -999 L 703.018 -999 L 709.685 -999 L 716.185 -994.5 L 722.518 -985.5 L 728.851 -976.5 L 733.018 -967 L 735.018 -957 L 745.018 -909 L 785.018 -909.667 L 812.185 -911 L 826.518 -913 L 840.851 -915 L 856.685 -917.333 L 874.018 -920 L 891.351 -918 L 893.685 -910.333 L 881.018 -897 L 875.018 -892.333 L 862.685 -888.833 L 844.018 -886.5 L 825.351 -884.167 L 793.018 -883 Z M 822.018 -361 L 847.351 -370.333 L 890.351 -370 L 951.018 -360 L 986.351 -351.333 L 1017.518 -339.667 L 1044.518 -325 L 1071.518 -310.333 L 1092.351 -284.333 L 1107.018 -247 L 1117.018 -211.667 L 1120.351 -183.5 L 1117.018 -162.5 L 1113.685 -141.5 L 1102.018 -117.333 L 1082.018 -90 L 1062.685 -66.667 L 1040.185 -49 L 1014.518 -37 L 988.851 -25 L 957.351 -15 L 920.018 -7 L 882.685 0.333 L 852.351 3.833 L 829.018 3.5 L 805.685 3.167 L 780.351 2.667 L 753.018 2 L 726.351 0.667 L 701.518 -1.667 L 678.518 -5 L 655.518 -8.333 L 627.685 -15 L 595.018 -25 L 541.018 -39.667 L 487.685 -60 L 435.018 -86 L 405.685 -100.667 L 374.518 -116.333 L 341.518 -133 L 308.518 -149.667 L 271.685 -169.667 L 231.018 -193 L 212.351 -204.333 L 191.851 -216.5 L 169.518 -229.5 L 147.185 -242.5 L 123.351 -255.667 L 98.018 -269 L 78.685 -281 L 59.518 -293.167 L 40.518 -305.5 L 21.518 -317.833 L 13.518 -330.167 L 16.518 -342.5 L 19.518 -354.833 L 26.685 -360.667 L 38.018 -360 L 49.351 -359.333 L 85.018 -359.667 L 145.018 -361 L 205.018 -362.333 L 257.685 -362.333 L 303.018 -361 L 321.018 -347.667 L 320.851 -338.167 L 302.518 -332.5 L 284.185 -326.833 L 270.351 -319.667 L 261.018 -311 L 244.351 -293.667 L 237.018 -280 L 239.018 -270 L 241.018 -260 L 243.851 -252.167 L 247.518 -246.5 L 251.185 -240.833 L 256.685 -234.667 L 264.018 -228 L 271.351 -221.333 L 289.351 -208 L 318.018 -188 L 346.685 -168 L 382.685 -147 L 426.018 -125 L 464.685 -108.333 L 495.018 -94.667 L 517.018 -84 L 539.018 -73.333 L 574.685 -61.333 L 624.018 -48 L 660.685 -40.667 L 698.018 -36.333 L 736.018 -35 L 774.018 -33.667 L 812.685 -39.333 L 852.018 -52 L 879.351 -64 L 898.518 -74.167 L 909.518 -82.5 L 920.518 -90.833 L 933.018 -105.333 L 947.018 -126 L 959.018 -146 L 965.851 -163 L 967.518 -177 L 969.185 -191 L 969.351 -207 L 968.018 -225 L 967.351 -243.667 L 965.185 -257.167 L 961.518 -265.5 L 957.851 -273.833 L 953.185 -282.333 L 947.518 -291 L 941.851 -299.667 L 934.518 -307.5 L 925.518 -314.5 L 916.518 -321.5 L 902.685 -326.5 L 884.018 -329.5 L 865.351 -332.5 L 847.018 -335 L 829.018 -337 L 821.018 -338.333 L 815.851 -341.5 L 813.518 -346.5 L 811.185 -351.5 L 814.018 -356.333 Z" fill="black" fill-opacity="0.25" stroke="black" stroke-width="4"/>
  <rect x="252" y="-498" width="509" height="320" fill="none" stroke="red" stroke-width="10" /><rect x="-6" y="-901" width="900" height="422" fill="none" stroke="red" stroke-width="10" /><rect x="-6" y="-1231" width="900" height="423" fill="none" stroke="red" stroke-width="10" /><rect x="14" y="-370" width="1106" height="374" fill="none" stroke="red" stroke-width="10" />
</svg>
