<svg xmlns="http://www.w3.org/2000/svg"
  viewBox="-50.000165117264324 -906.0 1605.9044079268003 829.0">
  <rect x="-50.000165117264324" y="-906.0" width="1605.9044079268003" height="829.0" fill="white"/>
  <path d="M 251.962890625 -537.0 L 245.295898438 -541.666992188 L 244.962890625 -546.166992188 L 250.962890625 -550.5 L 256.962890625 -554.833007812 L 263.962890625 -557.0 L 271.962890625 -557.0 L 281.295898438 -557.0 L 294.295898438 -565.5 L 310.962890625 -582.5 L 327.629882812 -599.5 L 338.962890625 -620.333007812 L 344.962890625 -645.0 L 353.629882812 -686.333007812 L 331.629882812 -720.333007812 L 278.962890625 -747.0 L 239.629882812 -766.333007812 L 186.629882812 -781.166992188 L 119.962890625 -791.5 L 53.2958984375 -801.833007812 L 16.2958984375 -808.666992188 L 8.962890625 -812.0 L 1.6298828125 -814.666992188 L -1.2041015625 -818.666992188 L 0.462890625 -824.0 L 2.1298828125 -829.333007812 L 5.962890625 -832.0 L 11.962890625 -832.0 L 17.962890625 -832.0 L 54.962890625 -827.166992188 L 122.962890625 -817.5 L 190.962890625 -807.833007812 L 252.962890625 -792.333007812 L 308.962890625 -771.0 L 342.295898438 -757.666992188 L 369.129882812 -744.333007812 L 389.462890625 -731.0 L 409.795898438 -717.666992188 L 428.295898438 -700.0 L 444.962890625 -678.0 L 461.629882812 -655.333007812 L 468.629882812 -632.833007812 L 465.962890625 -610.5 L 463.295898438 -588.166992188 L 453.629882812 -571.0 L 436.962890625 -559.0 L 421.629882812 -547.666992188 L 404.129882812 -540.0 L 384.462890625 -536.0 L 364.795898438 -532.0 L 345.962890625 -530.0 L 327.962890625 -530.0 L 309.962890625 -530.0 L 297.295898438 -530.166992188 L 289.962890625 -530.5 L 282.629882812 -530.833007812 L 269.962890625 -533.0 Z M 1237.96289062 -459.0 L 1261.29589844 -467.666992188 L 1299.96289062 -467.0 L 1353.96289062 -457.0 L 1385.96289062 -449.0 L 1414.29589844 -438.5 L 1438.96289062 -425.5 L 1463.62988281 -412.5 L 1482.62988281 -389.0 L 1495.96289062 -355.0 L 1504.62988281 -323.0 L 1507.62988281 -297.5 L 1504.96289062 -278.5 L 1502.29589844 -259.5 L 1491.62988281 -237.333007812 L 1472.96289062 -212.0 L 1455.62988281 -191.333007812 L 1435.29589844 -175.333007812 L 1411.96289062 -164.0 L 1388.62988281 -152.666992188 L 1359.96289062 -143.666992188 L 1325.96289062 -137.0 L 1292.62988281 -130.333007812 L 1265.29589844 -127.0 L 1243.96289062 -127.0 L 1222.62988281 -127.0 L 1199.62988281 -127.666992188 L 1174.96289062 -129.0 L 1150.96289062 -129.666992188 L 1128.46289062 -131.5 L 1107.46289062 -134.5 L 1086.46289062 -137.5 L 1060.96289062 -143.666992188 L 1030.96289062 -153.0 L 981.629882812 -167.0 L 933.295898438 -185.333007812 L 885.962890625 -208.0 L 858.629882812 -221.333007812 L 829.962890625 -235.666992188 L 799.962890625 -251.0 L 769.962890625 -266.333007812 L 736.629882812 -284.333007812 L 699.962890625 -305.0 L 682.629882812 -315.666992188 L 663.962890625 -326.833007812 L 643.962890625 -338.5 L 623.962890625 -350.166992188 L 602.295898438 -362.0 L 578.962890625 -374.0 L 560.962890625 -384.666992188 L 543.462890625 -395.666992188 L 526.462890625 -407.0 L 509.462890625 -418.333007812 L 502.295898438 -429.666992188 L 504.962890625 -441.0 L 507.629882812 -452.333007812 L 514.129882812 -457.666992188 L 524.462890625 -457.0 L 534.795898438 -456.333007812 L 567.295898438 -456.666992188 L 621.962890625 -458.0 L 676.629882812 -459.333007812 L 724.295898438 -459.333007812 L 764.962890625 -458.0 L 780.962890625 -446.0 L 780.795898438 -437.5 L 764.462890625 -432.5 L 748.129882812 -427.5 L 735.629882812 -420.666992188 L 726.962890625 -412.0 L 712.295898438 -396.666992188 L 705.795898438 -384.5 L 707.462890625 -375.5 L 709.129882812 -366.5 L 711.462890625 -359.333007812 L 714.462890625 -354.0 L 717.462890625 -348.666992188 L 722.462890625 -343.0 L 729.462890625 -337.0 L 736.462890625 -331.0 L 753.129882812 -319.0 L 779.462890625 -301.0 L 805.795898438 -283.0 L 838.295898438 -264.0 L 876.962890625 -244.0 L 911.629882812 -228.666992188 L 939.129882812 -216.166992188 L 959.462890625 -206.5 L 979.795898438 -196.833007812 L 1012.29589844 -186.0 L 1056.96289062 -174.0 L 1090.29589844 -168.0 L 1124.29589844 -164.166992188 L 1158.96289062 -162.5 L 1193.62988281 -160.833007812 L 1228.96289062 -165.666992188 L 1264.96289062 -177.0 L 1289.62988281 -188.333007812 L 1306.96289062 -197.833007812 L 1316.96289062 -205.5 L 1326.96289062 -213.166992188 L 1338.29589844 -226.333007812 L 1350.96289062 -245.0 L 1361.62988281 -263.666992188 L 1367.79589844 -279.166992188 L 1369.46289062 -291.5 L 1371.12988281 -303.833007812 L 1371.29589844 -318.333007812 L 1369.96289062 -335.0 L 1369.29589844 -351.666992188 L 1367.29589844 -363.833007812 L 1363.96289062 -371.5 L 1360.62988281 -379.166992188 L 1356.29589844 -387.0 L 1350.96289062 -395.0 L 1345.62988281 -403.0 L 1338.96289062 -410.166992188 L 1330.96289062 -416.5 L 1322.96289062 -422.833007812 L 1310.46289062 -427.333007812 L 1293.46289062 -430.0 L 1276.46289062 -432.666992188 L 1259.96289062 -434.666992188 L 1243.96289062 -436.0 L 1236.62988281 -437.333007812 L 1231.96289062 -440.5 L 1229.96289062 -445.5 L 1227.96289062 -450.5 L 1230.62988281 -455.0 Z M 751.962890625 -525.0 L 728.629882812 -516.333007812 L 689.629882812 -516.666992188 L 634.962890625 -526.0 L 602.962890625 -534.0 L 574.629882812 -544.666992188 L 549.962890625 -558.0 L 525.295898438 -571.333007812 L 506.295898438 -594.666992188 L 492.962890625 -628.0 L 484.295898438 -660.0 L 481.462890625 -685.666992188 L 484.462890625 -705.0 L 487.462890625 -724.333007812 L 497.962890625 -746.333007812 L 515.962890625 -771.0 L 533.295898438 -792.333007812 L 553.795898438 -808.5 L 577.462890625 -819.5 L 601.129882812 -830.5 L 629.629882812 -839.333007812 L 662.962890625 -846.0 L 696.962890625 -852.666992188 L 724.629882812 -856.0 L 745.962890625 -856.0 L 767.295898438 -856.0 L 790.295898438 -855.333007812 L 814.962890625 -854.0 L 839.629882812 -853.333007812 L 862.295898438 -851.5 L 882.962890625 -848.5 L 903.629882812 -845.5 L 928.629882812 -839.333007812 L 957.962890625 -830.0 L 1007.29589844 -816.0 L 1055.96289062 -797.666992188 L 1103.96289062 -775.0 L 1131.29589844 -761.666992188 L 1159.79589844 -747.333007812 L 1189.46289062 -732.0 L 1219.12988281 -716.666992188 L 1252.62988281 -698.333007812 L 1289.96289062 -677.0 L 1307.29589844 -667.0 L 1325.79589844 -656.166992188 L 1345.46289062 -644.5 L 1365.12988281 -632.833007812 L 1386.62988281 -621.0 L 1409.96289062 -609.0 L 1427.96289062 -597.666992188 L 1445.46289062 -586.5 L 1462.46289062 -575.5 L 1479.46289062 -564.5 L 1486.62988281 -553.333007812 L 1483.96289062 -542.0 L 1481.29589844 -530.666992188 L 1474.79589844 -525.333007812 L 1464.46289062 -526.0 L 1454.12988281 -526.666992188 L 1421.62988281 -526.333007812 L 1366.96289062 -525.0 L 1312.29589844 -523.666992188 L 1264.62988281 -523.666992188 L 1223.96289062 -525.0 L 1207.96289062 -537.0 L 1208.29589844 -545.5 L 1224.96289062 -550.5 L 1241.62988281 -555.5 L 1253.96289062 -562.0 L 1261.96289062 -570.0 L 1276.62988281 -586.0 L 1283.29589844 -598.5 L 1281.96289062 -607.5 L 1280.62988281 -616.5 L 1278.29589844 -623.666992188 L 1274.96289062 -629.0 L 1271.62988281 -634.333007812 L 1266.62988281 -640.0 L 1259.96289062 -646.0 L 1253.29589844 -652.0 L 1236.79589844 -664.0 L 1210.46289062 -682.0 L 1184.12988281 -700.0 L 1151.29589844 -719.0 L 1111.96289062 -739.0 L 1077.29589844 -754.333007812 L 1049.79589844 -766.833007812 L 1029.46289062 -776.5 L 1009.12988281 -786.166992188 L 976.629882812 -797.0 L 931.962890625 -809.0 L 898.629882812 -815.666992188 L 864.795898438 -819.833007812 L 830.462890625 -821.5 L 796.129882812 -823.166992188 L 760.962890625 -818.0 L 724.962890625 -806.0 L 700.295898438 -795.333007812 L 682.795898438 -786.0 L 672.462890625 -778.0 L 662.129882812 -770.0 L 650.962890625 -756.666992188 L 638.962890625 -738.0 L 628.295898438 -720.0 L 622.129882812 -704.666992188 L 620.462890625 -692.0 L 618.795898438 -679.333007812 L 618.295898438 -664.666992188 L 618.962890625 -648.0 L 619.629882812 -631.333007812 L 621.629882812 -619.166992188 L 624.962890625 -611.5 L 628.295898438 -603.833007812 L 632.629882812 -596.0 L 637.962890625 -588.0 L 643.295898438 -580.0 L 650.129882812 -572.833007812 L 658.462890625 -566.5 L 666.795898438 -560.166992188 L 679.295898438 -555.833007812 L 695.962890625 -553.5 L 712.629882812 -551.166992188 L 729.295898438 -549.0 L 745.962890625 -547.0 L 753.295898438 -545.666992188 L 757.962890625 -542.666992188 L 759.962890625 -538.0 L 761.962890625 -533.333007812 L 759.295898438 -529.0 Z" fill="black" fill-opacity="0.25" stroke="black" stroke-width="4.0"/>
  <rect x="-1.0" y="-832.0" width="470.0" height="301.99999999999994" fill="none" stroke="red" stroke-width="10.0" /><rect x="502.0" y="-468.0" width="1006.0" height="341.0" fill="none" stroke="red" stroke-width="10.0" /><rect x="481.0" y="-856.0" width="1006.0000000000002" height="339.99999999999994" fill="none" stroke="red" stroke-width="10.0" />
</svg>
