<svg xmlns="http://www.w3.org/2000/svg"
  viewBox="-50.00002789605631 -555.0 1745.6856209495602 474.0">
  <rect x="-50.00002789605631" y="-555.0" width="1745.6856209495602" height="474.0" fill="white"/>
  <path d="M 282.5625 -138.0 L 275.229492188 -143.333007812 L 274.729492188 -148.5 L 281.0625 -153.5 L 287.395507812 -158.5 L 295.5625 -161.0 L 305.5625 -161.0 L 316.229492188 -161.0 L 330.729492188 -170.5 L 349.0625 -189.5 L 367.395507812 -208.5 L 379.5625 -231.666992188 L 385.5625 -259.0 L 394.895507812 -305.0 L 370.5625 -343.0 L 312.5625 -373.0 L 290.5625 -383.666992188 L 263.229492188 -393.166992188 L 230.5625 -401.5 L 197.895507812 -409.833007812 L 165.895507812 -416.833007812 L 134.5625 -422.5 L 103.229492188 -428.166992188 L 75.7294921875 -433.0 L 52.0625 -437.0 L 28.3955078125 -441.0 L 14.5625 -443.666992188 L 10.5625 -445.0 L 1.8955078125 -448.333007812 L -1.4375 -453.0 L 0.5625 -459.0 L 2.5625 -465.0 L 7.2294921875 -468.0 L 14.5625 -468.0 L 21.8955078125 -468.0 L 63.3955078125 -462.5 L 139.0625 -451.5 L 214.729492188 -440.5 L 283.895507812 -423.0 L 346.5625 -399.0 L 383.895507812 -384.333007812 L 413.729492188 -369.666992188 L 436.0625 -355.0 L 458.395507812 -340.333007812 L 478.895507812 -320.666992188 L 497.5625 -296.0 L 516.229492188 -271.333007812 L 524.0625 -246.5 L 521.0625 -221.5 L 518.0625 -196.5 L 507.229492188 -177.0 L 488.5625 -163.0 L 471.229492188 -150.333007812 L 451.5625 -141.833007812 L 429.5625 -137.5 L 407.5625 -133.166992188 L 386.5625 -131.0 L 366.5625 -131.0 L 336.5625 -131.0 L 336.5625 -131.0 L 324.5625 -131.0 L 316.5625 -131.0 L 302.5625 -133.333007812 Z M 839.5625 -140.0 L 814.229492188 -130.666992188 L 771.5625 -131.333007812 L 711.5625 -142.0 L 676.229492188 -150.666992188 L 645.0625 -162.333007812 L 618.0625 -177.0 L 591.0625 -191.666992188 L 570.229492188 -217.333007812 L 555.5625 -254.0 L 545.5625 -289.333007812 L 542.229492188 -317.5 L 545.5625 -338.5 L 548.895507812 -359.5 L 560.5625 -384.0 L 580.5625 -412.0 L 599.895507812 -435.333007812 L 622.395507812 -453.0 L 648.0625 -465.0 L 673.729492188 -477.0 L 705.229492188 -486.666992188 L 742.5625 -494.0 L 779.895507812 -501.333007812 L 810.229492188 -505.0 L 833.5625 -505.0 L 856.895507812 -505.0 L 882.229492188 -504.333007812 L 909.5625 -503.0 L 936.229492188 -501.666992188 L 960.895507812 -499.5 L 983.5625 -496.5 L 1006.22949219 -493.5 L 1033.89550781 -487.0 L 1066.5625 -477.0 L 1120.5625 -462.333007812 L 1173.89550781 -442.0 L 1226.5625 -416.0 L 1255.89550781 -401.333007812 L 1287.22949219 -385.5 L 1320.5625 -368.5 L 1353.89550781 -351.5 L 1390.89550781 -331.333007812 L 1431.5625 -308.0 L 1450.22949219 -296.666992188 L 1470.5625 -284.666992188 L 1492.5625 -272.0 L 1514.5625 -259.333007812 L 1538.5625 -246.333007812 L 1564.5625 -233.0 L 1583.89550781 -221.0 L 1602.89550781 -208.833007812 L 1621.5625 -196.5 L 1640.22949219 -184.166992188 L 1648.0625 -171.833007812 L 1645.0625 -159.5 L 1642.0625 -147.166992188 L 1634.89550781 -141.333007812 L 1623.5625 -142.0 L 1612.22949219 -142.666992188 L 1576.5625 -142.333007812 L 1516.5625 -141.0 L 1456.5625 -139.666992188 L 1404.22949219 -139.333007812 L 1359.5625 -140.0 L 1341.5625 -153.333007812 L 1341.72949219 -163.0 L 1360.0625 -169.0 L 1378.39550781 -175.0 L 1391.89550781 -182.333007812 L 1400.5625 -191.0 L 1417.22949219 -208.333007812 L 1424.72949219 -222.0 L 1423.0625 -232.0 L 1421.39550781 -242.0 L 1418.72949219 -249.833007812 L 1415.0625 -255.5 L 1411.39550781 -261.166992188 L 1405.89550781 -267.166992188 L 1398.5625 -273.5 L 1391.22949219 -279.833007812 L 1373.0625 -293.0 L 1344.0625 -313.0 L 1315.0625 -333.0 L 1279.22949219 -354.0 L 1236.5625 -376.0 L 1197.89550781 -392.666992188 L 1167.5625 -406.333007812 L 1145.5625 -417.0 L 1123.5625 -427.666992188 L 1087.5625 -439.666992188 L 1037.5625 -453.0 L 1000.89550781 -460.333007812 L 963.729492188 -464.833007812 L 926.0625 -466.5 L 888.395507812 -468.166992188 L 849.895507812 -462.666992188 L 810.5625 -450.0 L 783.229492188 -438.0 L 763.895507812 -427.833007812 L 752.5625 -419.5 L 741.229492188 -411.166992188 L 728.895507812 -396.333007812 L 715.5625 -375.0 L 703.5625 -355.0 L 696.5625 -338.0 L 694.5625 -324.0 L 692.5625 -310.0 L 692.229492188 -294.0 L 693.5625 -276.0 L 694.229492188 -257.333007812 L 696.395507812 -243.833007812 L 700.0625 -235.5 L 703.729492188 -227.166992188 L 708.5625 -218.833007812 L 714.5625 -210.5 L 720.5625 -202.166992188 L 728.0625 -194.5 L 737.0625 -187.5 L 746.0625 -180.5 L 759.895507812 -175.5 L 778.5625 -172.5 L 797.229492188 -169.5 L 815.5625 -167.0 L 833.5625 -165.0 L 841.5625 -163.666992188 L 846.5625 -160.333007812 L 848.5625 -155.0 L 850.5625 -149.666992188 L 847.5625 -144.666992188 Z" fill="black" fill-opacity="0.25" stroke="black" stroke-width="4.0"/>
  <rect x="-1.0" y="-468.0" width="525.0" height="337.0" fill="none" stroke="red" stroke-width="10.0" /><rect x="542.0" y="-505.0" width="1105.9999999999998" height="374.0" fill="none" stroke="red" stroke-width="10.0" />
</svg>
