<svg xmlns="http://www.w3.org/2000/svg"
  viewBox="-50 -555 1745.686 474">
  <rect x="-50" y="-555" width="1745.686" height="474" fill="white"/>
  <path d="M 282.562 -138 L 275.229 -143.333 L 274.729 -148.5 L 281.062 -153.5 L 287.396 -158.5 L 295.562 -161 L 305.562 -161 L 316.229 -161 L 330.729 -170.5 L 349.062 -189.5 L 367.396 -208.5 L 379.562 -231.667 L 385.562 -259 L 394.896 -305 L 370.562 -343 L 312.562 -373 L 290.562 -383.667 L 263.229 -393.167 L 230.562 -401.5 L 197.896 -409.833 L 165.896 -416.833 L 134.562 -422.5 L 103.229 -428.167 L 75.729 -433 L 52.062 -437 L 28.396 -441 L 14.562 -443.667 L 10.562 -445 L 1.896 -448.333 L -1.438 -453 L 0.562 -459 L 2.562 -465 L 7.229 -468 L 14.562 -468 L 21.896 -468 L 63.396 -462.5 L 139.062 -451.5 L 214.729 -440.5 L 283.896 -423 L 346.562 -399 L 383.896 -384.333 L 413.729 -369.667 L 436.062 -355 L 458.396 -340.333 L 478.896 -320.667 L 497.562 -296 L 516.229 -271.333 L 524.062 -246.5 L 521.062 -221.5 L 518.062 -196.5 L 507.229 -177 L 488.562 -163 L 471.229 -150.333 L 451.562 -141.833 L 429.562 -137.5 L 407.562 -133.167 L 386.562 -131 L 366.562 -131 L 336.562 -131 L 336.562 -131 L 324.562 -131 L 316.562 -131 L 302.562 -133.333 Z M 839.562 -140 L 814.229 -130.667 L 771.562 -131.333 L 711.562 -142 L 676.229 -150.667 L 645.062 -162.333 L 618.062 -177 L 591.062 -191.667 L 570.229 -217.333 L 555.562 -254 L 545.562 -289.333 L 542.229 -317.5 L 545.562 -338.5 L 548.896 -359.5 L 560.562 -384 L 580.562 -412 L 599.896 -435.333 L 622.396 -453 L 648.062 -465 L 673.729 -477 L 705.229 -486.667 L 742.562 -494 L 779.896 -501.333 L 810.229 -505 L 833.562 -505 L 856.896 -505 L 882.229 -504.333 L 909.562 -503 L 936.229 -501.667 L 960.896 -499.5 L 983.562 -496.5 L 1006.229 -493.5 L 1033.896 -487 L 1066.562 -477 L 1120.562 -462.333 L 1173.896 -442 L 1226.562 -416 L 1255.896 -401.333 L 1287.229 -385.5 L 1320.562 -368.5 L 1353.896 -351.5 L 1390.896 -331.333 L 1431.562 -308 L 1450.229 -296.667 L 1470.562 -284.667 L 1492.562 -272 L 1514.562 -259.333 L 1538.562 -246.333 L 1564.562 -233 L 1583.896 -221 L 1602.896 -208.833 L 1621.562 -196.5 L 1640.229 -184.167 L 1648.062 -171.833 L 1645.062 -159.5 L 1642.062 -147.167 L 1634.896 -141.333 L 1623.562 -142 L 1612.229 -142.667 L 1576.562 -142.333 L 1516.562 -141 L 1456.562 -139.667 L 1404.229 -139.333 L 1359.562 -140 L 1341.562 -153.333 L 1341.729 -163 L 1360.062 -169 L 1378.396 -175 L 1391.896 -182.333 L 1400.562 -191 L 1417.229 -208.333 L 1424.729 -222 L 1423.062 -232 L 1421.396 -242 L 1418.729 -249.833 L 1415.062 -255.5 L 1411.396 -261.167 L 1405.896 -267.167 L 1398.562 -273.5 L 1391.229 -279.833 L 1373.062 -293 L 1344.062 -313 L 1315.062 -333 L 1279.229 -354 L 1236.562 -376 L 1197.896 -392.667 L 1167.562 -406.333 L 1145.562 -417 L 1123.562 -427.667 L 1087.562 -439.667 L 1037.562 -453 L 1000.896 -460.333 L 963.729 -464.833 L 926.062 -466.5 L 888.396 -468.167 L 849.896 -462.667 L 810.562 -450 L 783.229 -438 L 763.896 -427.833 L 752.562 -419.5 L 741.229 -411.167 L 728.896 -396.333 L 715.562 -375 L 703.562 -355 L 696.562 -338 L 694.562 -324 L 692.562 -310 L 692.229 -294 L 693.562 -276 L 694.229 -257.333 L 696.396 -243.833 L 700.062 -235.5 L 703.729 -227.167 L 708.562 -218.833 L 714.562 -210.5 L 720.562 -202.167 L 728.062 -194.5 L 737.062 -187.5 L 746.062 -180.5 L 759.896 -175.5 L 778.562 -172.5 L 797.229 -169.5 L 815.562 -167 L 833.562 -165 L 841.562 -163.667 L 846.562 -160.333 L 848.562 -155 L 850.562 -149.667 L 847.562 -144.667 Z" fill="black" fill-opacity="0.25" stroke="black" stroke-width="4"/>
  <rect x="-1" y="-468" width="525" height="337" fill="none" stroke="red" stroke-width="10" /><rect x="542" y="-505" width="1106" height="374" fill="none" stroke="red" stroke-width="10" />
</svg>
