<svg xmlns="http://www.w3.org/2000/svg"
  viewBox="-437.0 -1251.0 1060.7270467487456 492.33340567493906">
  <rect x="-437.0" y="-1251.0" width="1060.7270467487456" height="492.33340567493906" fill="white"/>
  <path d="M -136.0 -1065.0 L -136.0 -1073.66699219 L -132.666992188 -1078.66699219 L -126.0 -1080.0 L -86.6669921875 -1080.0 L -47.3330078125 -1080.16699219 L -8.0 -1080.5 L 31.3330078125 -1080.83300781 L 70.6669921875 -1081.33300781 L 110.0 -1082.0 L 110.666992188 -1106.66699219 L 111.0 -1122.83300781 L 111.0 -1130.5 L 111.0 -1142.0 L 111.0 -1142.0 L 111.0 -1184.0 L 111.0 -1192.66699219 L 114.0 -1197.66699219 L 120.0 -1199.0 L 169.333007812 -1199.0 L 218.833007812 -1199.16699219 L 268.5 -1199.5 L 318.166992188 -1199.83300781 L 367.333007812 -1200.33300781 L 416.0 -1201.0 L 419.333007812 -1196.33300781 L 420.666992188 -1190.33300781 L 420.0 -1183.0 L 419.333007812 -1175.66699219 L 418.333007812 -1169.66699219 L 417.0 -1165.0 L 407.0 -1162.33300781 L 374.166992188 -1161.16699219 L 318.5 -1161.5 L 262.833007812 -1161.83300781 L 214.666992188 -1162.0 L 174.0 -1162.0 L 174.0 -1128.0 L 174.666992188 -1100.83300781 L 176.0 -1080.5 L 177.333007812 -1060.16699219 L 176.333007812 -1049.66699219 L 173.0 -1049.0 L 167.666992188 -1048.33300781 L 162.333007812 -1047.33300781 L 157.0 -1046.0 L 151.666992188 -1044.66699219 L 136.333007812 -1044.66699219 L 111.0 -1046.0 L 84.3330078125 -1045.33300781 L 53.5 -1044.5 L 18.5 -1043.5 L -16.5 -1042.5 L -47.0 -1042.0 L -73.0 -1042.0 L -73.0 -1038.0 L -73.0 -1038.0 L -73.0 -1035.0 L -73.0 -1032.0 L -73.0 -1032.0 L -73.0 -1029.0 L -72.3330078125 -963.0 L -72.6669921875 -930.0 L -74.0 -930.0 L -79.3330078125 -929.333007812 L -84.5 -928.333007812 L -89.5 -927.0 L -94.5 -925.666992188 L -110.0 -925.333007812 L -136.0 -926.0 L -162.666992188 -925.333007812 L -193.333007812 -924.666992188 L -228.0 -924.0 L -262.666992188 -923.333007812 L -293.333007812 -923.0 L -320.0 -923.0 L -320.0 -849.0 L -320.666992188 -812.0 L -322.0 -812.0 L -332.0 -812.0 L -342.833007812 -811.166992188 L -354.5 -809.5 L -366.166992188 -807.833007812 L -376.333007812 -808.666992188 L -385.0 -812.0 L -386.333007812 -812.0 L -387.0 -815.333007812 L -387.0 -822.0 L -387.0 -822.0 L -387.0 -822.0 L -386.0 -822.5 L -385.333007812 -822.833007812 L -385.0 -823.333007812 L -385.0 -824.0 L -385.0 -859.333007812 L -384.666992188 -879.5 L -384.0 -884.5 L -383.333007812 -889.5 L -383.0 -909.666992188 L -383.0 -945.0 L -383.0 -953.666992188 L -379.666992188 -958.666992188 L -373.0 -960.0 L -333.666992188 -960.0 L -294.333007812 -960.166992188 L -255.0 -960.5 L -215.666992188 -960.833007812 L -176.333007812 -961.333007812 L -137.0 -962.0 L -137.0 -979.333007812 L -136.833007812 -996.5 L -136.5 -1013.5 L -136.166992188 -1030.5 L -136.0 -1047.66699219 Z M 509.0 -1181.0 L 551.0 -1181.0 L 553.0 -1181.0 L 556.666992188 -1180.83300781 L 562.0 -1180.5 L 567.333007812 -1180.16699219 L 571.0 -1179.33300781 L 573.0 -1178.0 L 574.333007812 -1176.0 L 573.833007812 -1175.0 L 571.5 -1175.0 L 569.166992188 -1175.0 L 567.333007812 -1169.66699219 L 566.0 -1159.0 L 561.0 -1125.0 L 559.0 -1111.0 L 552.333007812 -1103.66699219 L 541.0 -1103.0 L 499.0 -1103.0 L 496.333007812 -1103.0 L 491.833007812 -1103.16699219 L 485.5 -1103.5 L 479.166992188 -1103.83300781 L 476.0 -1105.0 L 476.0 -1107.0 L 476.0 -1109.66699219 L 477.0 -1111.5 L 479.0 -1112.5 L 481.0 -1113.5 L 482.666992188 -1117.66699219 L 484.0 -1125.0 L 488.0 -1159.0 L 490.0 -1173.66699219 L 497.0 -1181.0 Z" fill="black" fill-opacity="0.25" stroke="black" stroke-width="4.0"/>
  <rect x="-387.0" y="-939.4" width="314.40000000000003" height="130.70000000000005" fill="none" stroke="red" stroke-width="10.0" /><rect x="-383.0" y="-1070.2" width="560.3000000000001" height="130.80000000000004" fill="none" stroke="red" stroke-width="10.0" /><rect x="-136.0" y="-1201.0" width="710.3000000000001" height="130.80000000000004" fill="none" stroke="red" stroke-width="10.0" />
</svg>
