<svg xmlns="http://www.w3.org/2000/svg"
  viewBox="-431.0 -1253.0 907.1667570903627 492.33340567493906">
  <rect x="-431.0" y="-1253.0" width="907.1667570903627" height="492.33340567493906" fill="white"/>
  <path d="M -130.0 -1067.0 L -130.0 -1075.66699219 L -126.666992188 -1080.66699219 L -120.0 -1082.0 L -80.6669921875 -1082.0 L -41.3330078125 -1082.16699219 L -2.0 -1082.5 L 37.3330078125 -1082.83300781 L 76.6669921875 -1083.33300781 L 116.0 -1084.0 L 116.666992188 -1108.66699219 L 117.0 -1124.83300781 L 117.0 -1132.5 L 117.0 -1144.0 L 117.0 -1144.0 L 117.0 -1186.0 L 117.0 -1194.66699219 L 120.0 -1199.66699219 L 126.0 -1201.0 L 175.333007812 -1201.0 L 224.833007812 -1201.16699219 L 274.5 -1201.5 L 324.166992188 -1201.83300781 L 373.333007812 -1202.33300781 L 422.0 -1203.0 L 425.333007812 -1198.33300781 L 426.666992188 -1192.33300781 L 426.0 -1185.0 L 425.333007812 -1177.66699219 L 424.333007812 -1171.66699219 L 423.0 -1167.0 L 413.0 -1164.33300781 L 380.166992188 -1163.16699219 L 324.5 -1163.5 L 268.833007812 -1163.83300781 L 220.666992188 -1164.0 L 180.0 -1164.0 L 180.0 -1130.0 L 180.666992188 -1102.83300781 L 182.0 -1082.5 L 183.333007812 -1062.16699219 L 182.333007812 -1051.66699219 L 179.0 -1051.0 L 173.666992188 -1050.33300781 L 168.333007812 -1049.33300781 L 163.0 -1048.0 L 157.666992188 -1046.66699219 L 142.333007812 -1046.66699219 L 117.0 -1048.0 L 90.3330078125 -1047.33300781 L 59.5 -1046.5 L 24.5 -1045.5 L -10.5 -1044.5 L -41.0 -1044.0 L -67.0 -1044.0 L -67.0 -1040.0 L -67.0 -1040.0 L -67.0 -1037.0 L -67.0 -1034.0 L -67.0 -1034.0 L -67.0 -1031.0 L -66.3330078125 -965.0 L -66.6669921875 -932.0 L -68.0 -932.0 L -73.3330078125 -931.333007812 L -78.5 -930.333007812 L -83.5 -929.0 L -88.5 -927.666992188 L -104.0 -927.333007812 L -130.0 -928.0 L -156.666992188 -927.333007812 L -187.333007812 -926.666992188 L -222.0 -926.0 L -256.666992188 -925.333007812 L -287.333007812 -925.0 L -314.0 -925.0 L -314.0 -851.0 L -314.666992188 -814.0 L -316.0 -814.0 L -326.0 -814.0 L -336.833007812 -813.166992188 L -348.5 -811.5 L -360.166992188 -809.833007812 L -370.333007812 -810.666992188 L -379.0 -814.0 L -380.333007812 -814.0 L -381.0 -817.333007812 L -381.0 -824.0 L -381.0 -824.0 L -381.0 -824.0 L -380.0 -824.5 L -379.333007812 -824.833007812 L -379.0 -825.333007812 L -379.0 -826.0 L -379.0 -861.333007812 L -378.666992188 -881.5 L -378.0 -886.5 L -377.333007812 -891.5 L -377.0 -911.666992188 L -377.0 -947.0 L -377.0 -955.666992188 L -373.666992188 -960.666992188 L -367.0 -962.0 L -327.666992188 -962.0 L -288.333007812 -962.166992188 L -249.0 -962.5 L -209.666992188 -962.833007812 L -170.333007812 -963.333007812 L -131.0 -964.0 L -131.0 -981.333007812 L -130.833007812 -998.5 L -130.5 -1015.5 L -130.166992188 -1032.5 L -130.0 -1049.66699219 Z" fill="black" fill-opacity="0.25" stroke="black" stroke-width="4.0"/>
  <rect x="-381.0" y="-941.4" width="314.40000000000003" height="130.70000000000005" fill="none" stroke="red" stroke-width="10.0" /><rect x="-377.0" y="-1072.2" width="560.3000000000001" height="130.80000000000004" fill="none" stroke="red" stroke-width="10.0" /><rect x="-130.0" y="-1203.0" width="556.6999999999999" height="130.80000000000004" fill="none" stroke="red" stroke-width="10.0" />
</svg>
