<svg xmlns="http://www.w3.org/2000/svg"
  viewBox="-596.0 -1252.0 1070.1667570903628 492.33340567493906">
  <rect x="-596.0" y="-1252.0" width="1070.1667570903628" height="492.33340567493906" fill="white"/>
  <path d="M -132.0 -1066.0 L -132.0 -1074.66699219 L -128.666992188 -1079.66699219 L -122.0 -1081.0 L -82.6669921875 -1081.0 L -43.3330078125 -1081.16699219 L -4.0 -1081.5 L 35.3330078125 -1081.83300781 L 74.6669921875 -1082.33300781 L 114.0 -1083.0 L 114.666992188 -1107.66699219 L 115.0 -1123.83300781 L 115.0 -1131.5 L 115.0 -1143.0 L 115.0 -1143.0 L 115.0 -1185.0 L 115.0 -1193.66699219 L 118.0 -1198.66699219 L 124.0 -1200.0 L 173.333007812 -1200.0 L 222.833007812 -1200.16699219 L 272.5 -1200.5 L 322.166992188 -1200.83300781 L 371.333007812 -1201.33300781 L 420.0 -1202.0 L 423.333007812 -1197.33300781 L 424.666992188 -1191.33300781 L 424.0 -1184.0 L 423.333007812 -1176.66699219 L 422.333007812 -1170.66699219 L 421.0 -1166.0 L 411.0 -1163.33300781 L 378.166992188 -1162.16699219 L 322.5 -1162.5 L 266.833007812 -1162.83300781 L 218.666992188 -1163.0 L 178.0 -1163.0 L 178.0 -1129.0 L 178.833007812 -1101.83300781 L 180.5 -1081.5 L 182.166992188 -1061.16699219 L 181.0 -1050.66699219 L 177.0 -1050.0 L 171.666992188 -1049.33300781 L 166.333007812 -1048.33300781 L 161.0 -1047.0 L 155.666992188 -1045.66699219 L 140.333007812 -1045.66699219 L 115.0 -1047.0 L 88.3330078125 -1046.33300781 L 57.6669921875 -1045.5 L 23.0 -1044.5 L -11.6669921875 -1043.5 L -42.3330078125 -1043.0 L -69.0 -1043.0 L -69.0 -1039.0 L -69.0 -1039.0 L -69.0 -1036.0 L -69.0 -1033.0 L -69.0 -1033.0 L -69.0 -1030.0 L -68.3330078125 -964.0 L -68.6669921875 -931.0 L -70.0 -931.0 L -75.3330078125 -930.333007812 L -80.5 -929.333007812 L -85.5 -928.0 L -90.5 -926.666992188 L -105.666992188 -926.333007812 L -131.0 -927.0 L -157.666992188 -926.333007812 L -188.5 -925.666992188 L -223.5 -925.0 L -258.5 -924.333007812 L -289.0 -924.0 L -315.0 -924.0 L -315.0 -850.0 L -316.0 -813.0 L -318.0 -813.0 L -328.0 -813.0 L -338.833007812 -812.166992188 L -350.5 -810.5 L -362.166992188 -808.833007812 L -372.0 -809.666992188 L -380.0 -813.0 L -381.333007812 -813.0 L -382.0 -816.333007812 L -382.0 -823.0 L -382.0 -823.0 L -382.0 -823.0 L -381.0 -823.5 L -380.333007812 -823.833007812 L -380.0 -824.333007812 L -380.0 -825.0 L -380.0 -860.333007812 L -379.666992188 -880.5 L -379.0 -885.5 L -378.333007812 -890.5 L -378.0 -910.666992188 L -378.0 -946.0 L -378.0 -954.666992188 L -375.0 -959.666992188 L -369.0 -961.0 L -329.666992188 -961.0 L -290.166992188 -961.166992188 L -250.5 -961.5 L -210.833007812 -961.833007812 L -171.666992188 -962.333007812 L -133.0 -963.0 L -133.0 -980.333007812 L -132.833007812 -997.5 L -132.5 -1014.5 L -132.166992188 -1031.5 L -132.0 -1048.66699219 Z M -513.0 -938.0 L -471.0 -938.0 L -467.0 -938.0 L -467.0 -938.0 L -459.0 -938.0 L -453.666992188 -938.0 L -450.333007812 -937.333007812 L -449.0 -936.0 L -447.0 -934.0 L -447.333007812 -932.833007812 L -450.0 -932.5 L -452.666992188 -932.166992188 L -454.666992188 -926.666992188 L -456.0 -916.0 L -461.0 -882.0 L -462.333007812 -867.333007812 L -469.0 -860.0 L -481.0 -860.0 L -523.0 -860.0 L -525.0 -860.0 L -529.333007812 -860.166992188 L -536.0 -860.5 L -542.666992188 -860.833007812 L -546.0 -862.333007812 L -546.0 -865.0 L -546.0 -867.666992188 L -545.0 -869.5 L -543.0 -870.5 L -541.0 -871.5 L -539.666992188 -875.333007812 L -539.0 -882.0 L -534.0 -916.0 L -532.0 -930.666992188 L -525.0 -938.0 Z" fill="black" fill-opacity="0.25" stroke="black" stroke-width="4.0"/>
  <rect x="-546.0" y="-940.4" width="477.40000000000003" height="130.70000000000005" fill="none" stroke="red" stroke-width="10.0" /><rect x="-378.0" y="-1071.1999999999998" width="560.2" height="130.79999999999993" fill="none" stroke="red" stroke-width="10.0" /><rect x="-132.0" y="-1202.0" width="556.6999999999999" height="130.80000000000004" fill="none" stroke="red" stroke-width="10.0" />
</svg>
