<svg xmlns="http://www.w3.org/2000/svg"
  viewBox="-431 -1253 907.167 492.333">
  <rect x="-431" y="-1253" width="907.167" height="492.333" fill="white"/>
  <path d="M -130 -1067 L -130 -1075.667 L -126.667 -1080.667 L -120 -1082 L -80.667 -1082 L -41.333 -1082.167 L -2 -1082.5 L 37.333 -1082.833 L 76.667 -1083.333 L 116 -1084 L 116.667 -1108.667 L 117 -1124.833 L 117 -1132.5 L 117 -1144 L 117 -1144 L 117 -1186 L 117 -1194.667 L 120 -1199.667 L 126 -1201 L 175.333 -1201 L 224.833 -1201.167 L 274.5 -1201.5 L 324.167 -1201.833 L 373.333 -1202.333 L 422 -1203 L 425.333 -1198.333 L 426.667 -1192.333 L 426 -1185 L 425.333 -1177.667 L 424.333 -1171.667 L 423 -1167 L 413 -1164.333 L 380.167 -1163.167 L 324.5 -1163.5 L 268.833 -1163.833 L 220.667 -1164 L 180 -1164 L 180 -1130 L 180.667 -1102.833 L 182 -1082.5 L 183.333 -1062.167 L 182.333 -1051.667 L 179 -1051 L 173.667 -1050.333 L 168.333 -1049.333 L 163 -1048 L 157.667 -1046.667 L 142.333 -1046.667 L 117 -1048 L 90.333 -1047.333 L 59.5 -1046.5 L 24.5 -1045.5 L -10.5 -1044.5 L -41 -1044 L -67 -1044 L -67 -1040 L -67 -1040 L -67 -1037 L -67 -1034 L -67 -1034 L -67 -1031 L -66.333 -965 L -66.667 -932 L -68 -932 L -73.333 -931.333 L -78.5 -930.333 L -83.5 -929 L -88.5 -927.667 L -104 -927.333 L -130 -928 L -156.667 -927.333 L -187.333 -926.667 L -222 -926 L -256.667 -925.333 L -287.333 -925 L -314 -925 L -314 -851 L -314.667 -814 L -316 -814 L -326 -814 L -336.833 -813.167 L -348.5 -811.5 L -360.167 -809.833 L -370.333 -810.667 L -379 -814 L -380.333 -814 L -381 -817.333 L -381 -824 L -381 -824 L -381 -824 L -380 -824.5 L -379.333 -824.833 L -379 -825.333 L -379 -826 L -379 -861.333 L -378.667 -881.5 L -378 -886.5 L -377.333 -891.5 L -377 -911.667 L -377 -947 L -377 -955.667 L -373.667 -960.667 L -367 -962 L -327.667 -962 L -288.333 -962.167 L -249 -962.5 L -209.667 -962.833 L -170.333 -963.333 L -131 -964 L -131 -981.333 L -130.833 -998.5 L -130.5 -1015.5 L -130.167 -1032.5 L -130 -1049.667 Z" fill="black" fill-opacity="0.25" stroke="black" stroke-width="4"/>
  <rect x="-381" y="-941.4" width="314.4" height="130.7" fill="none" stroke="red" stroke-width="10" /><rect x="-377" y="-1072.2" width="560.3" height="130.8" fill="none" stroke="red" stroke-width="10" /><rect x="-130" y="-1203" width="556.7" height="130.8" fill="none" stroke="red" stroke-width="10" />
</svg>
