<svg xmlns="http://www.w3.org/2000/svg"
  viewBox="-434 -1273 907.167 513.333">
  <rect x="-434" y="-1273" width="907.167" height="513.333" fill="white"/>
  <path d="M -133 -1066 L -133 -1074.667 L -129.667 -1079.667 L -123 -1081 L -83.667 -1081 L -44.333 -1081.167 L -5 -1081.5 L 34.333 -1081.833 L 73.667 -1082.333 L 113 -1083 L 113.667 -1107.667 L 114 -1123.833 L 114 -1131.5 L 114 -1143 L 114 -1143 L 114 -1185 L 114 -1193.667 L 117 -1198.667 L 123 -1200 L 172.333 -1200 L 221.833 -1200.167 L 271.5 -1200.5 L 321.167 -1200.833 L 370.333 -1201.333 L 419 -1202 L 422.333 -1197.333 L 423.667 -1191.333 L 423 -1184 L 422.333 -1176.667 L 421.333 -1170.667 L 420 -1166 L 410 -1163.333 L 377.167 -1162.167 L 321.5 -1162.5 L 265.833 -1162.833 L 217.667 -1163 L 177 -1163 L 177 -1129 L 177.667 -1101.833 L 179 -1081.5 L 180.333 -1061.167 L 179.333 -1050.667 L 176 -1050 L 170.667 -1049.333 L 165.333 -1048.333 L 160 -1047 L 154.667 -1045.667 L 139.333 -1045.667 L 114 -1047 L 87.333 -1046.333 L 56.5 -1045.5 L 21.5 -1044.5 L -13.5 -1043.5 L -44 -1043 L -70 -1043 L -70 -1039 L -70 -1039 L -70 -1036 L -70 -1033 L -70 -1033 L -70 -1030 L -69.333 -964 L -69.667 -931 L -71 -931 L -76.333 -930.333 L -81.5 -929.333 L -86.5 -928 L -91.5 -926.667 L -107 -926.333 L -133 -927 L -159.667 -926.333 L -190.333 -925.667 L -225 -925 L -259.667 -924.333 L -290.333 -924 L -317 -924 L -317 -850 L -317.667 -813 L -319 -813 L -329 -813 L -339.833 -812.167 L -351.5 -810.5 L -363.167 -808.833 L -373.333 -809.667 L -382 -813 L -383.333 -813 L -384 -816.333 L -384 -823 L -384 -823 L -384 -823 L -383 -823.5 L -382.333 -823.833 L -382 -824.333 L -382 -825 L -382 -860.333 L -381.667 -880.5 L -381 -885.5 L -380.333 -890.5 L -380 -910.667 L -380 -946 L -380 -954.667 L -376.667 -959.667 L -370 -961 L -330.667 -961 L -291.333 -961.167 L -252 -961.5 L -212.667 -961.833 L -173.333 -962.333 L -134 -963 L -134 -980.333 L -133.833 -997.5 L -133.5 -1014.5 L -133.167 -1031.5 L -133 -1048.667 Z M -34 -1223 L 8 -1223 L 12 -1223 L 12 -1223 L 20 -1223 L 25.333 -1223 L 28.667 -1222.333 L 30 -1221 L 32 -1219 L 31.667 -1217.833 L 29 -1217.5 L 26.333 -1217.167 L 24.333 -1211.667 L 23 -1201 L 18 -1167 L 16.667 -1152.333 L 9.667 -1145.333 L -3 -1146 L -45 -1146 L -48 -1146 L -48 -1146 L -57.5 -1146 L -63.833 -1146 L -67.333 -1147.333 L -68 -1150 L -68 -1152.667 L -66.833 -1154.5 L -64.5 -1155.5 L -62.167 -1156.5 L -60.667 -1160.333 L -60 -1167 L -55 -1201 L -53 -1215.667 L -46 -1223 Z" fill="black" fill-opacity="0.25" stroke="black" stroke-width="4"/>
  <rect x="-384" y="-947.4" width="314.5" height="137.7" fill="none" stroke="red" stroke-width="10" /><rect x="-380" y="-1085.2" width="560.3" height="137.8" fill="none" stroke="red" stroke-width="10" /><rect x="-68" y="-1223" width="491.7" height="137.8" fill="none" stroke="red" stroke-width="10" />
</svg>
