<svg xmlns="http://www.w3.org/2000/svg"
  viewBox="-183 -1039.2 394 500.467">
  <rect x="-183" y="-1039.2" width="394" height="500.467" fill="white"/>
  <path d="M -11.5 -988 L -29.833 -986 L -51 -978.833 L -75 -966.5 L -99 -954.167 L -118.333 -934 L -133 -906 L -127 -903 L -95.667 -928.333 L -70.667 -944 L -52 -950 L -33.333 -956 L -17.333 -959.333 L -4 -960 L 9.333 -960.667 L 23.667 -960.333 L 39 -959 L 54.333 -957.667 L 70.667 -953.333 L 88 -946 L 105.333 -938.667 L 127.333 -924.333 L 154 -903 L 161 -907 L 143.667 -937 L 123.833 -957 L 101.5 -967 L 79.167 -977 L 59.333 -983.5 L 42 -986.5 L 24.667 -989.5 L 6.833 -990 Z M 0 -883 L 0.667 -891.667 L 6 -895.667 L 16 -895 L 26 -894.333 L 31.333 -890.333 L 32 -883 L 32 -615 L 32 -615 L 32 -615 L 32 -600 L 28 -591.333 L 21.667 -587.667 L 13 -589 L 4.333 -590.333 L 0 -594 L 0 -600 L 0 -868 L 0 -868 L 0 -868 Z" fill="black" fill-opacity="0.25" stroke="black" stroke-width="4"/>
  <rect x="-133" y="-990" width="294" height="87" fill="none" stroke="red" stroke-width="10" /><rect x="0" y="-896" width="32" height="308" fill="none" stroke="red" stroke-width="10" />
</svg>
