<svg xmlns="http://www.w3.org/2000/svg"
  viewBox="-242.0 -862.0 507.0 908.266583913532">
  <rect x="-242.0" y="-862.0" width="507.0" height="908.266583913532" fill="white"/>
  <path d="M -1.0 -248.0 Z M 15.0 -812.0 L -35.6669921875 -810.0 L -76.1669921875 -801.5 L -106.5 -786.5 L -136.833007812 -771.5 L -165.333007812 -746.666992188 L -192.0 -712.0 L -182.0 -703.0 L -142.0 -740.333007812 L -107.0 -762.666992188 L -77.0 -770.0 L -47.0 -777.333007812 L -16.3330078125 -781.666992188 L 15.0 -783.0 L 57.0 -780.333007812 L 91.3330078125 -774.0 L 118.0 -764.0 L 144.666992188 -754.0 L 173.666992188 -733.666992188 L 205.0 -703.0 L 215.0 -714.0 L 182.333007812 -753.333007812 L 151.333007812 -778.833007812 L 122.0 -790.5 L 92.6669921875 -802.166992188 L 57.0 -809.333007812 Z M 0.0 -693.0 L 0.6669921875 -701.666992188 L 6.0 -705.666992188 L 16.0 -705.0 L 26.0 -704.333007812 L 31.3330078125 -700.333007812 L 32.0 -693.0 L 32.0 -30.0 L 32.0 -15.0 L 32.0 -15.0 L 32.0 -15.0 L 28.0 -6.3330078125 L 21.6669921875 -2.6669921875 L 13.0 -4.0 L 4.3330078125 -5.3330078125 L 0.0 -9.0 L 0.0 -15.0 L 0.0 -678.0 L 0.0 -693.0 L 0.0 -693.0 Z" fill="black" fill-opacity="0.25" stroke="black" stroke-width="4.0"/>
  <rect x="-192.0" y="-812.0" width="407.0" height="109.0000000000001" fill="none" stroke="red" stroke-width="10.0" /><rect x="0.0" y="-706.0" width="32.0" height="703.0" fill="none" stroke="red" stroke-width="10.0" />
</svg>
