<svg xmlns="http://www.w3.org/2000/svg"
  viewBox="-50 -870.2 1087.423 717.2">
  <rect x="-50" y="-870.2" width="1087.423" height="717.2" fill="white"/>
  <path d="M 833.266 -290 L 842.266 -252 L 842.933 -249.333 L 846.599 -242.833 L 853.266 -232.5 L 859.933 -222.167 L 863.266 -215.667 L 863.266 -213 L 863.266 -210.333 L 857.766 -208 L 846.766 -206 L 835.766 -204 L 828.266 -203 L 824.266 -203 L 763.266 -203 L 755.266 -203 L 747.766 -208.667 L 740.766 -220 L 733.766 -231.333 L 729.266 -242 L 727.266 -252 L 719.266 -290 L 641.266 -290 L 569.766 -293.167 L 504.766 -299.5 L 440.433 -305.833 L 394.266 -311.333 L 366.266 -316 L 263.599 -332 L 199.599 -368.667 L 174.266 -426 L 168.266 -438.667 L 158.266 -464 L 144.266 -502 L 130.266 -540 L 115.433 -579.333 L 99.766 -620 L 84.099 -660.667 L 69.266 -697.5 L 55.266 -730.5 L 41.266 -763.5 L 31.599 -781.333 L 26.266 -784 L -1.067 -793.333 L -7.067 -803.667 L 8.266 -815 L 42.266 -817.667 L 74.433 -819.333 L 104.766 -820 L 135.099 -820.667 L 166.599 -819.667 L 199.266 -817 L 215.266 -816.333 L 228.766 -804.667 L 239.766 -782 L 250.766 -759.333 L 260.433 -732 L 268.766 -700 L 277.099 -668 L 284.599 -634 L 291.266 -598 L 297.933 -562 L 304.599 -530 L 311.266 -502 L 325.266 -446 L 342.599 -407.833 L 363.266 -387.5 L 383.933 -367.167 L 419.266 -350.333 L 469.266 -337 L 519.933 -323.667 L 602.266 -318 L 716.266 -320 L 703.266 -389 L 702.599 -392.333 L 699.266 -396.667 L 693.266 -402 L 687.266 -407.333 L 684.266 -411.667 L 684.266 -415 L 684.266 -419 L 689.766 -421.667 L 700.766 -423 L 711.766 -424.333 L 719.266 -425 L 723.266 -425 L 784.266 -425 L 791.599 -425 L 798.766 -419.833 L 805.766 -409.5 L 812.766 -399.167 L 817.599 -388 L 820.266 -376 L 830.266 -321 L 874.933 -321.667 L 905.433 -323.167 L 921.766 -325.5 L 938.099 -327.833 L 955.266 -330.333 L 973.266 -333 L 980.599 -332.333 L 985.099 -329 L 986.766 -323 L 988.433 -317 L 986.933 -311.333 L 982.266 -306 L 975.599 -300.667 L 961.933 -296.667 L 941.266 -294 L 920.599 -291.333 L 884.599 -290 Z" fill="black" fill-opacity="0.25" stroke="black" stroke-width="4"/>
  <rect x="-7" y="-821" width="995" height="618" fill="none" stroke="red" stroke-width="10" />
</svg>
