<svg xmlns="http://www.w3.org/2000/svg"
  viewBox="-50 -1170.4 1202.363 1192.4">
  <rect x="-50" y="-1170.4" width="1202.363" height="1192.4" fill="white"/>
  <path d="M 857.25 -591 L 865.25 -553 L 865.25 -550.333 L 868.75 -543.833 L 875.75 -533.5 L 882.75 -523.167 L 886.25 -516.667 L 886.25 -514 L 886.25 -511.333 L 880.75 -509 L 869.75 -507 L 858.75 -505 L 851.25 -504 L 847.25 -504 L 786.25 -504 L 778.25 -504 L 770.75 -509.5 L 763.75 -520.5 L 756.75 -531.5 L 752.25 -542.333 L 750.25 -553 L 741.25 -591 L 663.25 -591 L 591.75 -594.167 L 526.75 -600.5 L 461.75 -606.833 L 415.583 -612 L 388.25 -616 L 337.583 -624 L 295.75 -638 L 262.75 -658 L 229.75 -678 L 207.917 -700.667 L 197.25 -726 L 191.25 -738.667 L 181.25 -764 L 167.25 -802 L 153.25 -840 L 138.417 -879.5 L 122.75 -920.5 L 107.083 -961.5 L 92.25 -998.5 L 78.25 -1031.5 L 64.25 -1064.5 L 54.583 -1082.333 L 49.25 -1085 L 21.917 -1094.333 L 15.917 -1104.333 L 31.25 -1115 L 99.917 -1121 L 163.25 -1122 L 221.25 -1118 L 237.25 -1117.333 L 250.75 -1105.667 L 261.75 -1083 L 272.75 -1060.333 L 282.583 -1033 L 291.25 -1001 L 299.917 -969 L 307.583 -935 L 314.25 -899 L 320.917 -863 L 327.917 -831 L 335.25 -803 L 349.25 -746.333 L 366.417 -707.833 L 386.75 -687.5 L 407.083 -667.167 L 441.917 -650.333 L 491.25 -637 L 540.583 -623.667 L 622.917 -618.333 L 738.25 -621 L 726.25 -689 L 725.583 -692.333 L 722.25 -696.833 L 716.25 -702.5 L 710.25 -708.167 L 707.25 -712.667 L 707.25 -716 L 707.25 -720 L 712.583 -722.667 L 723.25 -724 L 733.917 -725.333 L 741.583 -726 L 746.25 -726 L 807.25 -726 L 814.583 -726 L 821.75 -720.833 L 828.75 -710.5 L 835.75 -700.167 L 840.583 -689 L 843.25 -677 L 853.25 -621 L 897.917 -621.667 L 928.25 -623.333 L 944.25 -626 L 960.25 -628.667 L 977.917 -631 L 997.25 -633 L 1004.583 -632.333 L 1008.917 -629.167 L 1010.25 -623.5 L 1011.583 -617.833 L 1009.917 -612.333 L 1005.25 -607 L 998.583 -601 L 985.083 -596.833 L 964.75 -594.5 L 944.417 -592.167 L 908.583 -591 Z M 296.25 -140 L 270.917 -130.667 L 227.917 -131.333 L 167.25 -142 L 131.917 -150.667 L 100.75 -162.333 L 73.75 -177 L 46.75 -191.667 L 25.917 -217.333 L 11.25 -254 L 1.25 -289.333 L -2.083 -317.5 L 1.25 -338.5 L 4.583 -359.5 L 16.25 -384 L 36.25 -412 L 55.583 -435.333 L 78.083 -453 L 103.75 -465 L 129.417 -477 L 160.917 -486.667 L 198.25 -494 L 235.583 -501.333 L 265.917 -505 L 289.25 -505 L 312.583 -505 L 337.917 -504.333 L 365.25 -503 L 391.917 -501.667 L 416.75 -499.5 L 439.75 -496.5 L 462.75 -493.5 L 490.583 -487 L 523.25 -477 L 577.25 -462.333 L 630.583 -442 L 683.25 -416 L 712.583 -401.333 L 743.75 -385.5 L 776.75 -368.5 L 809.75 -351.5 L 846.583 -331.333 L 887.25 -308 L 905.917 -296.667 L 926.417 -284.667 L 948.75 -272 L 971.083 -259.333 L 994.917 -246.333 L 1020.25 -233 L 1039.583 -221 L 1058.75 -208.833 L 1077.75 -196.5 L 1096.75 -184.167 L 1104.75 -171.833 L 1101.75 -159.5 L 1098.75 -147.167 L 1091.583 -141.333 L 1080.25 -142 L 1068.917 -142.667 L 1033.083 -142.333 L 972.75 -141 L 912.417 -139.667 L 859.917 -139.333 L 815.25 -140 L 797.25 -153.333 L 797.417 -163 L 815.75 -169 L 834.083 -175 L 847.917 -182.333 L 857.25 -191 L 873.917 -208.333 L 881.25 -222 L 879.25 -232 L 877.25 -242 L 874.417 -249.833 L 870.75 -255.5 L 867.083 -261.167 L 861.583 -267.167 L 854.25 -273.5 L 846.917 -279.833 L 828.75 -293 L 799.75 -313 L 770.75 -333 L 734.917 -354 L 692.25 -376 L 653.583 -392.667 L 623.25 -406.333 L 601.25 -417 L 579.25 -427.667 L 543.583 -439.667 L 494.25 -453 L 457.583 -460.333 L 420.25 -464.833 L 382.25 -466.5 L 344.25 -468.167 L 305.583 -462.667 L 266.25 -450 L 238.917 -438 L 219.75 -427.833 L 208.75 -419.5 L 197.75 -411.167 L 185.25 -396.333 L 171.25 -375 L 159.25 -355 L 152.417 -338 L 150.75 -324 L 149.083 -310 L 148.917 -294 L 150.25 -276 L 150.917 -257.333 L 153.083 -243.833 L 156.75 -235.5 L 160.417 -227.167 L 165.083 -218.833 L 170.75 -210.5 L 176.417 -202.167 L 183.75 -194.5 L 192.75 -187.5 L 201.75 -180.5 L 215.583 -175.5 L 234.25 -172.5 L 252.917 -169.5 L 271.25 -167 L 289.25 -165 L 297.25 -163.667 L 302.417 -160.333 L 304.75 -155 L 307.083 -149.667 L 304.25 -144.667 Z M 502.25 -35 L 495.583 -40.333 L 495.083 -45.333 L 500.75 -50 L 506.417 -54.667 L 513.917 -57 L 523.25 -57 L 533.25 -57 L 546.917 -65.833 L 564.25 -83.5 L 581.583 -101.167 L 593.25 -123 L 599.25 -149 L 608.583 -193 L 585.583 -229.333 L 530.25 -258 L 508.917 -268 L 482.25 -277 L 450.25 -285 L 418.25 -293 L 386.583 -300 L 355.25 -306 L 323.917 -312 L 296.25 -316.833 L 272.25 -320.5 L 248.25 -324.167 L 234.25 -327 L 230.25 -329 L 221.583 -332.333 L 218.25 -336.667 L 220.25 -342 L 222.25 -347.333 L 226.583 -350 L 233.25 -350 L 236.583 -350 L 250.083 -348.667 L 273.75 -346 L 297.417 -343.333 L 325.75 -339.167 L 358.75 -333.5 L 391.75 -327.833 L 426.417 -320.833 L 462.75 -312.5 L 499.083 -304.833 L 532.25 -295 L 562.25 -283 L 597.583 -269 L 625.917 -255 L 647.25 -241 L 668.583 -227 L 687.917 -208 L 705.25 -184 L 722.583 -160 L 729.917 -136.333 L 727.25 -113 L 724.583 -89.667 L 714.583 -71.333 L 697.25 -58 L 681.25 -46 L 662.583 -38 L 641.25 -34 L 619.917 -30 L 599.917 -28 L 581.25 -28 L 562.583 -28 L 549.417 -28.167 L 541.75 -28.5 L 534.083 -28.833 L 520.917 -31 Z" fill="black" fill-opacity="0.25" stroke="black" stroke-width="4"/>
  <rect x="16" y="-1122" width="996" height="618" fill="none" stroke="red" stroke-width="10" /><rect x="-2" y="-505" width="1107" height="374" fill="none" stroke="red" stroke-width="10" /><rect x="218" y="-350" width="512" height="322" fill="none" stroke="red" stroke-width="10" />
</svg>
