<svg xmlns="http://www.w3.org/2000/svg"
  viewBox="-49.99977517157459 -870.2001562674028 1087.4234842754877 717.2001562674028">
  <rect x="-49.99977517157459" y="-870.2001562674028" width="1087.4234842754877" height="717.2001562674028" fill="white"/>
  <path d="M 833.265625 -290.0 L 842.265625 -252.0 L 842.932617188 -249.333007812 L 846.598632812 -242.833007812 L 853.265625 -232.5 L 859.932617188 -222.166992188 L 863.265625 -215.666992188 L 863.265625 -213.0 L 863.265625 -210.333007812 L 857.765625 -208.0 L 846.765625 -206.0 L 835.765625 -204.0 L 828.265625 -203.0 L 824.265625 -203.0 L 763.265625 -203.0 L 755.265625 -203.0 L 747.765625 -208.666992188 L 740.765625 -220.0 L 733.765625 -231.333007812 L 729.265625 -242.0 L 727.265625 -252.0 L 719.265625 -290.0 L 641.265625 -290.0 L 569.765625 -293.166992188 L 504.765625 -299.5 L 440.432617188 -305.833007812 L 394.265625 -311.333007812 L 366.265625 -316.0 L 263.598632812 -332.0 L 199.598632812 -368.666992188 L 174.265625 -426.0 L 168.265625 -438.666992188 L 158.265625 -464.0 L 144.265625 -502.0 L 130.265625 -540.0 L 115.432617188 -579.333007812 L 99.765625 -620.0 L 84.0986328125 -660.666992188 L 69.265625 -697.5 L 55.265625 -730.5 L 41.265625 -763.5 L 31.5986328125 -781.333007812 L 26.265625 -784.0 L -1.0673828125 -793.333007812 L -7.0673828125 -803.666992188 L 8.265625 -815.0 L 42.265625 -817.666992188 L 74.4326171875 -819.333007812 L 104.765625 -820.0 L 135.098632812 -820.666992188 L 166.598632812 -819.666992188 L 199.265625 -817.0 L 215.265625 -816.333007812 L 228.765625 -804.666992188 L 239.765625 -782.0 L 250.765625 -759.333007812 L 260.432617188 -732.0 L 268.765625 -700.0 L 277.098632812 -668.0 L 284.598632812 -634.0 L 291.265625 -598.0 L 297.932617188 -562.0 L 304.598632812 -530.0 L 311.265625 -502.0 L 325.265625 -446.0 L 342.598632812 -407.833007812 L 363.265625 -387.5 L 383.932617188 -367.166992188 L 419.265625 -350.333007812 L 469.265625 -337.0 L 519.932617188 -323.666992188 L 602.265625 -318.0 L 716.265625 -320.0 L 703.265625 -389.0 L 702.598632812 -392.333007812 L 699.265625 -396.666992188 L 693.265625 -402.0 L 687.265625 -407.333007812 L 684.265625 -411.666992188 L 684.265625 -415.0 L 684.265625 -419.0 L 689.765625 -421.666992188 L 700.765625 -423.0 L 711.765625 -424.333007812 L 719.265625 -425.0 L 723.265625 -425.0 L 784.265625 -425.0 L 791.598632812 -425.0 L 798.765625 -419.833007812 L 805.765625 -409.5 L 812.765625 -399.166992188 L 817.598632812 -388.0 L 820.265625 -376.0 L 830.265625 -321.0 L 874.932617188 -321.666992188 L 905.432617188 -323.166992188 L 921.765625 -325.5 L 938.098632812 -327.833007812 L 955.265625 -330.333007812 L 973.265625 -333.0 L 980.598632812 -332.333007812 L 985.098632812 -329.0 L 986.765625 -323.0 L 988.432617188 -317.0 L 986.932617188 -311.333007812 L 982.265625 -306.0 L 975.598632812 -300.666992188 L 961.932617188 -296.666992188 L 941.265625 -294.0 L 920.598632812 -291.333007812 L 884.598632812 -290.0 Z" fill="black" fill-opacity="0.25" stroke="black" stroke-width="4.0"/>
  <rect x="-7.0" y="-821.0" width="995.0" height="617.9999999999999" fill="none" stroke="red" stroke-width="10.0" />
</svg>
