<svg xmlns="http://www.w3.org/2000/svg"
  viewBox="-49.99973366477273 -1166.2001562683631 1085.171510893605 1013.2001562683631">
  <rect x="-49.99973366477273" y="-1166.2001562683631" width="1085.171510893605" height="1013.2001562683631" fill="white"/>
  <path d="M 830.727539062 -290.0 L 839.727539062 -252.0 L 839.727539062 -249.333007812 L 843.227539062 -242.833007812 L 850.227539062 -232.5 L 857.227539062 -222.166992188 L 860.727539062 -215.666992188 L 860.727539062 -213.0 L 860.727539062 -210.333007812 L 855.227539062 -208.0 L 844.227539062 -206.0 L 833.227539062 -204.0 L 825.727539062 -203.0 L 821.727539062 -203.0 L 760.727539062 -203.0 L 752.727539062 -203.0 L 745.227539062 -208.666992188 L 738.227539062 -220.0 L 731.227539062 -231.333007812 L 726.727539062 -242.0 L 724.727539062 -252.0 L 716.727539062 -290.0 L 638.727539062 -290.0 L 567.060546875 -293.166992188 L 501.727539062 -299.5 L 436.393554688 -305.833007812 L 390.060546875 -311.333007812 L 362.727539062 -316.0 L 312.060546875 -324.0 L 270.227539062 -338.0 L 237.227539062 -358.0 L 204.227539062 -378.0 L 182.393554688 -400.666992188 L 171.727539062 -426.0 L 166.393554688 -438.666992188 L 156.727539062 -457.5 L 142.727539062 -482.5 L 128.727539062 -507.5 L 114.060546875 -532.666992188 L 98.7275390625 -558.0 L 83.3935546875 -583.333007812 L 68.8935546875 -606.0 L 55.2275390625 -626.0 L 41.560546875 -646.0 L 32.060546875 -657.0 L 26.7275390625 -659.0 L -0.6064453125 -668.333007812 L -6.6064453125 -678.666992188 L 8.7275390625 -690.0 L 42.060546875 -692.666992188 L 74.060546875 -694.5 L 104.727539062 -695.5 L 135.393554688 -696.5 L 166.727539062 -695.666992188 L 198.727539062 -693.0 L 230.727539062 -691.0 L 253.560546875 -672.666992188 L 267.227539062 -638.0 L 280.893554688 -603.333007812 L 294.727539062 -558.0 L 308.727539062 -502.0 L 322.727539062 -446.0 L 339.893554688 -407.833007812 L 360.227539062 -387.5 L 380.560546875 -367.166992188 L 415.727539062 -350.333007812 L 465.727539062 -337.0 L 516.393554688 -323.0 L 598.727539062 -317.333007812 L 712.727539062 -320.0 L 700.727539062 -389.0 L 700.060546875 -392.333007812 L 696.727539062 -396.666992188 L 690.727539062 -402.0 L 684.727539062 -407.333007812 L 681.727539062 -411.666992188 L 681.727539062 -415.0 L 681.727539062 -419.0 L 687.060546875 -421.666992188 L 697.727539062 -423.0 L 708.393554688 -424.333007812 L 716.060546875 -425.0 L 720.727539062 -425.0 L 781.727539062 -425.0 L 789.060546875 -425.0 L 796.227539062 -419.833007812 L 803.227539062 -409.5 L 810.227539062 -399.166992188 L 815.060546875 -388.0 L 817.727539062 -376.0 L 827.727539062 -321.0 L 872.393554688 -321.666992188 L 902.727539062 -323.166992188 L 918.727539062 -325.5 L 934.727539062 -327.833007812 L 952.393554688 -330.333007812 L 971.727539062 -333.0 L 979.060546875 -332.333007812 L 983.393554688 -329.0 L 984.727539062 -323.0 L 986.060546875 -317.0 L 984.393554688 -311.333007812 L 979.727539062 -306.0 L 973.060546875 -300.666992188 L 959.393554688 -296.666992188 L 938.727539062 -294.0 L 918.060546875 -291.333007812 L 882.060546875 -290.0 Z M 830.727539062 -711.0 L 839.727539062 -673.0 L 839.727539062 -670.333007812 L 843.227539062 -663.833007812 L 850.227539062 -653.5 L 857.227539062 -643.166992188 L 860.727539062 -636.666992188 L 860.727539062 -634.0 L 860.727539062 -631.333007812 L 855.227539062 -628.833007812 L 844.227539062 -626.5 L 833.227539062 -624.166992188 L 825.727539062 -623.0 L 821.727539062 -623.0 L 760.727539062 -623.0 L 752.727539062 -623.0 L 745.227539062 -628.666992188 L 738.227539062 -640.0 L 731.227539062 -651.333007812 L 726.727539062 -662.333007812 L 724.727539062 -673.0 L 716.727539062 -711.0 L 638.727539062 -711.0 L 567.060546875 -714.0 L 501.727539062 -720.0 L 436.393554688 -726.0 L 390.060546875 -731.333007812 L 362.727539062 -736.0 L 312.060546875 -744.0 L 270.227539062 -758.0 L 237.227539062 -778.0 L 204.227539062 -798.0 L 182.393554688 -820.666992188 L 171.727539062 -846.0 L 166.393554688 -858.666992188 L 156.727539062 -877.5 L 142.727539062 -902.5 L 128.727539062 -927.5 L 114.060546875 -952.666992188 L 98.7275390625 -978.0 L 83.3935546875 -1003.33300781 L 68.8935546875 -1026.0 L 55.2275390625 -1046.0 L 41.560546875 -1066.0 L 32.060546875 -1077.33300781 L 26.7275390625 -1080.0 L -1.2724609375 -1089.33300781 L -7.2724609375 -1099.66699219 L 8.7275390625 -1111.0 L 42.060546875 -1113.66699219 L 74.060546875 -1115.33300781 L 104.727539062 -1116.0 L 135.393554688 -1116.66699219 L 166.727539062 -1115.66699219 L 198.727539062 -1113.0 L 230.727539062 -1111.0 L 253.560546875 -1092.83300781 L 267.227539062 -1058.5 L 280.893554688 -1024.16699219 L 294.727539062 -979.0 L 308.727539062 -923.0 L 322.727539062 -866.333007812 L 339.893554688 -827.833007812 L 360.227539062 -807.5 L 380.560546875 -787.166992188 L 415.727539062 -770.666992188 L 465.727539062 -758.0 L 516.393554688 -744.0 L 598.727539062 -738.333007812 L 712.727539062 -741.0 L 700.727539062 -809.0 L 700.060546875 -812.333007812 L 696.727539062 -816.833007812 L 690.727539062 -822.5 L 684.727539062 -828.166992188 L 681.727539062 -832.666992188 L 681.727539062 -836.0 L 681.727539062 -840.0 L 687.060546875 -842.666992188 L 697.727539062 -844.0 L 708.393554688 -845.333007812 L 716.060546875 -846.0 L 720.727539062 -846.0 L 781.727539062 -846.0 L 789.060546875 -846.0 L 796.227539062 -840.833007812 L 803.227539062 -830.5 L 810.227539062 -820.166992188 L 815.060546875 -809.0 L 817.727539062 -797.0 L 827.727539062 -741.0 L 872.393554688 -741.666992188 L 902.727539062 -743.166992188 L 918.727539062 -745.5 L 934.727539062 -747.833007812 L 952.393554688 -750.333007812 L 971.727539062 -753.0 L 979.060546875 -752.333007812 L 983.393554688 -749.0 L 984.727539062 -743.0 L 986.060546875 -737.0 L 984.393554688 -731.666992188 L 979.727539062 -727.0 L 973.060546875 -721.666992188 L 959.393554688 -717.666992188 L 938.727539062 -715.0 L 918.060546875 -712.333007812 L 882.060546875 -711.0 Z" fill="black" fill-opacity="0.25" stroke="black" stroke-width="4.0"/>
  <rect x="-7.0" y="-697.0" width="993.0" height="493.99999999999994" fill="none" stroke="red" stroke-width="10.0" /><rect x="-7.0" y="-1117.0" width="993.0" height="494.0" fill="none" stroke="red" stroke-width="10.0" />
</svg>
