<svg xmlns="http://www.w3.org/2000/svg"
  viewBox="-49.99986267131756 -555.0 1202.3634990349537 577.0">
  <rect x="-49.99986267131756" y="-555.0" width="1202.3634990349537" height="577.0" fill="white"/>
  <path d="M 296.25 -140.0 L 270.916992188 -130.666992188 L 227.916992188 -131.333007812 L 167.25 -142.0 L 131.916992188 -150.666992188 L 100.75 -162.333007812 L 73.75 -177.0 L 46.75 -191.666992188 L 25.9169921875 -217.333007812 L 11.25 -254.0 L 1.25 -289.333007812 L -2.0830078125 -317.5 L 1.25 -338.5 L 4.5830078125 -359.5 L 16.25 -384.0 L 36.25 -412.0 L 55.5830078125 -435.333007812 L 78.0830078125 -453.0 L 103.75 -465.0 L 129.416992188 -477.0 L 160.916992188 -486.666992188 L 198.25 -494.0 L 235.583007812 -501.333007812 L 265.916992188 -505.0 L 289.25 -505.0 L 312.583007812 -505.0 L 337.916992188 -504.333007812 L 365.25 -503.0 L 391.916992188 -501.666992188 L 416.75 -499.5 L 439.75 -496.5 L 462.75 -493.5 L 490.583007812 -487.0 L 523.25 -477.0 L 577.25 -462.333007812 L 630.583007812 -442.0 L 683.25 -416.0 L 712.583007812 -401.333007812 L 743.75 -385.5 L 776.75 -368.5 L 809.75 -351.5 L 846.583007812 -331.333007812 L 887.25 -308.0 L 905.916992188 -296.666992188 L 926.416992188 -284.666992188 L 948.75 -272.0 L 971.083007812 -259.333007812 L 994.916992188 -246.333007812 L 1020.25 -233.0 L 1039.58300781 -221.0 L 1058.75 -208.833007812 L 1077.75 -196.5 L 1096.75 -184.166992188 L 1104.75 -171.833007812 L 1101.75 -159.5 L 1098.75 -147.166992188 L 1091.58300781 -141.333007812 L 1080.25 -142.0 L 1068.91699219 -142.666992188 L 1033.08300781 -142.333007812 L 972.75 -141.0 L 912.416992188 -139.666992188 L 859.916992188 -139.333007812 L 815.25 -140.0 L 797.25 -153.333007812 L 797.416992188 -163.0 L 815.75 -169.0 L 834.083007812 -175.0 L 847.916992188 -182.333007812 L 857.25 -191.0 L 873.916992188 -208.333007812 L 881.25 -222.0 L 879.25 -232.0 L 877.25 -242.0 L 874.416992188 -249.833007812 L 870.75 -255.5 L 867.083007812 -261.166992188 L 861.583007812 -267.166992188 L 854.25 -273.5 L 846.916992188 -279.833007812 L 828.75 -293.0 L 799.75 -313.0 L 770.75 -333.0 L 734.916992188 -354.0 L 692.25 -376.0 L 653.583007812 -392.666992188 L 623.25 -406.333007812 L 601.25 -417.0 L 579.25 -427.666992188 L 543.583007812 -439.666992188 L 494.25 -453.0 L 457.583007812 -460.333007812 L 420.25 -464.833007812 L 382.25 -466.5 L 344.25 -468.166992188 L 305.583007812 -462.666992188 L 266.25 -450.0 L 238.916992188 -438.0 L 219.75 -427.833007812 L 208.75 -419.5 L 197.75 -411.166992188 L 185.25 -396.333007812 L 171.25 -375.0 L 159.25 -355.0 L 152.416992188 -338.0 L 150.75 -324.0 L 149.083007812 -310.0 L 148.916992188 -294.0 L 150.25 -276.0 L 150.916992188 -257.333007812 L 153.083007812 -243.833007812 L 156.75 -235.5 L 160.416992188 -227.166992188 L 165.083007812 -218.833007812 L 170.75 -210.5 L 176.416992188 -202.166992188 L 183.75 -194.5 L 192.75 -187.5 L 201.75 -180.5 L 215.583007812 -175.5 L 234.25 -172.5 L 252.916992188 -169.5 L 271.25 -167.0 L 289.25 -165.0 L 297.25 -163.666992188 L 302.416992188 -160.333007812 L 304.75 -155.0 L 307.083007812 -149.666992188 L 304.25 -144.666992188 Z M 502.25 -35.0 L 495.583007812 -40.3330078125 L 495.083007812 -45.3330078125 L 500.75 -50.0 L 506.416992188 -54.6669921875 L 513.916992188 -57.0 L 523.25 -57.0 L 533.25 -57.0 L 546.916992188 -65.8330078125 L 564.25 -83.5 L 581.583007812 -101.166992188 L 593.25 -123.0 L 599.25 -149.0 L 608.583007812 -193.0 L 585.583007812 -229.333007812 L 530.25 -258.0 L 508.916992188 -268.0 L 482.25 -277.0 L 450.25 -285.0 L 418.25 -293.0 L 386.583007812 -300.0 L 355.25 -306.0 L 323.916992188 -312.0 L 296.25 -316.833007812 L 272.25 -320.5 L 248.25 -324.166992188 L 234.25 -327.0 L 230.25 -329.0 L 221.583007812 -332.333007812 L 218.25 -336.666992188 L 220.25 -342.0 L 222.25 -347.333007812 L 226.583007812 -350.0 L 233.25 -350.0 L 236.583007812 -350.0 L 250.083007812 -348.666992188 L 273.75 -346.0 L 297.416992188 -343.333007812 L 325.75 -339.166992188 L 358.75 -333.5 L 391.75 -327.833007812 L 426.416992188 -320.833007812 L 462.75 -312.5 L 499.083007812 -304.833007812 L 532.25 -295.0 L 562.25 -283.0 L 597.583007812 -269.0 L 625.916992188 -255.0 L 647.25 -241.0 L 668.583007812 -227.0 L 687.916992188 -208.0 L 705.25 -184.0 L 722.583007812 -160.0 L 729.916992188 -136.333007812 L 727.25 -113.0 L 724.583007812 -89.6669921875 L 714.583007812 -71.3330078125 L 697.25 -58.0 L 681.25 -46.0 L 662.583007812 -38.0 L 641.25 -34.0 L 619.916992188 -30.0 L 599.916992188 -28.0 L 581.25 -28.0 L 562.583007812 -28.0 L 549.416992188 -28.1669921875 L 541.75 -28.5 L 534.083007812 -28.8330078125 L 520.916992188 -31.0 Z" fill="black" fill-opacity="0.25" stroke="black" stroke-width="4.0"/>
  <rect x="-2.0" y="-505.0" width="1107.0" height="374.0" fill="none" stroke="red" stroke-width="10.0" /><rect x="218.0" y="-350.0" width="512.0" height="321.99999999999994" fill="none" stroke="red" stroke-width="10.0" />
</svg>
