<svg xmlns="http://www.w3.org/2000/svg"
  viewBox="-50 -664.47 1416.753 940.47">
  <rect x="-50" y="-664.47" width="1416.753" height="940.47" fill="white"/>
  <path d="M 1067.018 218 L 1059.685 212 L 1059.185 206.5 L 1065.518 201.5 L 1071.852 196.5 L 1080.018 194 L 1090.018 194 L 1100.685 194 L 1115.852 184.167 L 1135.518 164.5 L 1155.185 144.833 L 1168.018 121 L 1174.018 93 L 1184.018 44.333 L 1158.685 4.333 L 1098.018 -27 L 1032.018 -59.667 L 947.018 -81.333 L 843.018 -92 L 825.685 -93.333 L 806.185 -94 L 784.518 -94 L 762.852 -94 L 750.685 -94.333 L 748.018 -95 L 738.685 -98.333 L 735.018 -104 L 737.018 -112 L 739.018 -120 L 744.018 -124.667 L 752.018 -126 L 759.352 -126 L 777.352 -125.167 L 806.018 -123.5 L 834.685 -121.833 L 866.352 -118.667 L 901.018 -114 L 940.352 -108 L 980.185 -100 L 1020.518 -90 L 1060.852 -80 L 1098.352 -68.333 L 1133.018 -55 L 1172.352 -39.667 L 1203.685 -24.167 L 1227.018 -8.5 L 1250.352 7.167 L 1272.018 27.667 L 1292.018 53 L 1311.352 79.667 L 1319.352 106 L 1316.018 132 L 1312.685 158 L 1301.352 178 L 1282.018 192 L 1264.685 205.333 L 1244.352 214.333 L 1221.018 219 L 1197.685 223.667 L 1175.352 226 L 1154.018 226 L 1122.018 226 L 1122.018 226 L 1110.518 226 L 1102.852 226 L 1088.352 223.333 Z M 26.018 -443 L 0.685 -489 L -6.148 -528.5 L 5.518 -561.5 L 17.185 -594.5 L 38.018 -612 L 68.018 -614 L 87.352 -615.333 L 102.185 -613.833 L 112.518 -609.5 L 122.852 -605.167 L 132.018 -600.833 L 140.018 -596.5 L 148.018 -592.167 L 155.518 -587.5 L 162.518 -582.5 L 169.518 -577.5 L 176.018 -572.333 L 182.018 -567 L 188.018 -561.667 L 192.185 -556.833 L 194.518 -552.5 L 196.852 -548.167 L 197.852 -544.167 L 197.518 -540.5 L 197.185 -536.833 L 195.852 -534.333 L 193.518 -533 L 191.185 -531.667 L 184.185 -528.667 L 172.518 -524 L 160.852 -519.333 L 145.685 -511.833 L 127.018 -501.5 L 108.352 -491.167 L 99.352 -473.667 L 100.018 -449 L 100.018 -423.667 L 126.352 -399.833 L 179.018 -377.5 L 231.685 -355.167 L 310.018 -346 L 414.018 -350 L 861.018 -369 L 883.018 -369 L 900.518 -367.5 L 913.518 -364.5 L 926.518 -361.5 L 938.352 -357.667 L 949.018 -353 L 959.685 -348.333 L 968.685 -343.833 L 976.018 -339.5 L 983.352 -335.167 L 992.018 -328.5 L 1002.018 -319.5 L 1012.018 -310.5 L 1023.518 -299 L 1036.518 -285 L 1049.518 -271 L 1058.185 -260.667 L 1062.518 -254 L 1066.852 -247.333 L 1069.018 -240.833 L 1069.018 -234.5 L 1069.018 -228.167 L 1066.852 -224 L 1062.518 -222 L 1058.185 -220 L 1053.685 -219 L 1049.018 -219 L 1044.352 -219 L 1039.352 -220 L 1034.018 -222 L 1028.685 -224 L 1022.185 -226.333 L 1014.518 -229 L 1006.852 -231.667 L 998.352 -234.333 L 989.018 -237 L 979.685 -239.667 L 971.018 -241.667 L 963.018 -243 L 955.018 -244.333 L 944.018 -245.333 L 930.018 -246 L 823.018 -252 L 761.685 -252 L 697.185 -254.5 L 629.518 -259.5 L 561.852 -264.5 L 498.018 -271 L 438.018 -279 L 378.018 -287 L 325.352 -295.667 L 280.018 -305 L 234.685 -314.333 L 203.685 -322 L 187.018 -328 L 158.352 -340 L 132.852 -351.833 L 110.518 -363.5 L 88.185 -375.167 L 60.018 -401.667 Z" fill="black" fill-opacity="0.25" stroke="black" stroke-width="4"/>
  <rect x="735" y="-126" width="584" height="352" fill="none" stroke="red" stroke-width="10" /><rect x="-6" y="-615" width="1075" height="396" fill="none" stroke="red" stroke-width="10" />
</svg>
