<svg xmlns="http://www.w3.org/2000/svg"
  viewBox="-49.99977188172939 -497.0 404.40979080283597 386.5383975491237">
  <rect x="-49.99977188172939" y="-497.0" width="404.40979080283597" height="386.5383975491237" fill="white"/>
  <path d="M 21.16015625 -447.0 L 43.8271484375 -447.0 L 67.66015625 -446.666992188 L 92.66015625 -446.0 L 117.66015625 -445.333007812 L 140.16015625 -443.666992188 L 160.16015625 -441.0 L 174.16015625 -441.0 L 189.66015625 -413.333007812 L 206.66015625 -358.0 L 223.66015625 -302.666992188 L 243.827148438 -254.333007812 L 267.16015625 -213.0 L 275.16015625 -199.0 L 282.493164062 -191.0 L 289.16015625 -189.0 L 295.16015625 -187.0 L 299.827148438 -183.666992188 L 303.16015625 -179.0 L 306.493164062 -174.333007812 L 303.16015625 -170.0 L 293.16015625 -166.0 L 269.827148438 -162.0 L 246.493164062 -160.166992188 L 223.16015625 -160.5 L 199.827148438 -160.833007812 L 177.16015625 -162.666992188 L 155.16015625 -166.0 L 135.16015625 -174.0 L 118.66015625 -199.5 L 105.66015625 -242.5 L 92.66015625 -285.5 L 74.4931640625 -336.0 L 51.16015625 -394.0 L 49.16015625 -397.333007812 L 45.16015625 -401.833007812 L 39.16015625 -407.5 L 33.16015625 -413.166992188 L 26.16015625 -416.666992188 L 18.16015625 -418.0 L 7.4931640625 -420.0 L 1.4931640625 -425.333007812 L 0.16015625 -434.0 L -1.1728515625 -442.666992188 L 5.8271484375 -447.0 Z" fill="black" fill-opacity="0.25" stroke="black" stroke-width="4.0"/>
  <rect x="-1.0" y="-447.0" width="307.0" height="287.00000000000006" fill="none" stroke="red" stroke-width="10.0" />
</svg>
