<svg xmlns="http://www.w3.org/2000/svg"
  viewBox="-50 -1213 1436.754 1040.579">
  <rect x="-50" y="-1213" width="1436.754" height="1040.579" fill="white"/>
  <path d="M 841.777 -711 L 861.777 -711 L 882.777 -710.667 L 904.777 -710 L 926.777 -709.333 L 946.444 -707.333 L 963.777 -704 L 976.444 -704 L 989.611 -682.833 L 1003.277 -640.5 L 1016.944 -598.167 L 1033.444 -556.333 L 1052.777 -515 L 1058.777 -501 L 1065.111 -493.333 L 1071.777 -492 L 1077.111 -490 L 1081.277 -486.5 L 1084.277 -481.5 L 1087.277 -476.5 L 1084.444 -472.333 L 1075.777 -469 L 1055.777 -465 L 1035.277 -463.167 L 1014.277 -463.5 L 993.277 -463.833 L 973.444 -465.667 L 954.777 -469 L 937.444 -477 L 923.777 -496 L 913.777 -526 L 903.777 -556 L 888.444 -600 L 867.777 -658 L 866.444 -661.333 L 862.944 -666.333 L 857.277 -673 L 851.611 -679.667 L 845.111 -684 L 837.777 -686 L 828.444 -688 L 823.277 -692.667 L 822.277 -700 L 821.277 -707.333 L 827.777 -711 Z M 571.777 -711 L 591.777 -711 L 612.777 -710.667 L 634.777 -710 L 656.777 -709.333 L 676.444 -707.333 L 693.777 -704 L 706.444 -704 L 719.611 -682.833 L 733.277 -640.5 L 746.944 -598.167 L 763.444 -556.333 L 782.777 -515 L 789.444 -501 L 795.777 -493.333 L 801.777 -492 L 807.111 -490 L 811.111 -486.5 L 813.777 -481.5 L 816.444 -476.5 L 813.777 -472.333 L 805.777 -469 L 785.111 -465 L 764.444 -463.167 L 743.777 -463.5 L 723.111 -463.833 L 703.444 -465.667 L 684.777 -469 L 666.777 -477 L 652.944 -496 L 643.277 -526 L 633.611 -556 L 618.444 -600 L 597.777 -658 L 595.777 -661.333 L 592.111 -666.333 L 586.777 -673 L 581.444 -679.667 L 575.111 -684 L 567.777 -686 L 557.777 -688 L 552.444 -692.667 L 551.777 -700 L 551.111 -707.333 L 557.777 -711 Z M 2.777 -384 L 6.111 -389.333 L 9.944 -392.167 L 14.277 -392.5 L 18.611 -392.833 L 23.111 -391.667 L 27.777 -389 L 32.444 -386.333 L 38.444 -383.167 L 45.777 -379.5 L 53.111 -375.833 L 62.444 -372.833 L 73.777 -370.5 L 85.111 -368.167 L 101.111 -367 L 121.777 -367 L 1145.777 -367 L 1164.444 -367 L 1181.444 -365.5 L 1196.777 -362.5 L 1212.111 -359.5 L 1226.111 -354.667 L 1238.777 -348 L 1251.444 -341.333 L 1261.277 -335.333 L 1268.277 -330 L 1275.277 -324.667 L 1284.777 -315.5 L 1296.777 -302.5 L 1308.777 -289.5 L 1319.277 -277 L 1328.277 -265 L 1337.277 -253 L 1339.111 -241.333 L 1333.777 -230 L 1328.444 -222 L 1322.277 -220.333 L 1315.277 -225 L 1308.277 -229.667 L 1300.111 -233.667 L 1290.777 -237 L 1281.444 -240.333 L 1271.277 -242.667 L 1260.277 -244 L 1249.277 -245.333 L 1232.111 -246 L 1208.777 -246 L 199.777 -246 L 184.444 -246 L 170.444 -247 L 157.777 -249 L 145.111 -251 L 135.277 -253.167 L 128.277 -255.5 L 121.277 -257.833 L 113.777 -261 L 105.777 -265 L 97.777 -269 L 89.277 -273.833 L 80.277 -279.5 L 71.277 -285.167 L 61.777 -293.167 L 51.777 -303.5 L 41.777 -313.833 L 31.611 -325.833 L 21.277 -339.5 L 10.944 -353.167 L 4.444 -362.667 L 1.777 -368 L -0.889 -373.333 L -0.556 -378.667 Z M 563.777 -1163 L 574.444 -1161 L 579.111 -1155.5 L 577.777 -1146.5 L 576.444 -1137.5 L 569.777 -1132.667 L 557.777 -1132 L 543.777 -1127.333 L 532.444 -1109.667 L 523.777 -1079 L 515.111 -1048.333 L 506.111 -1016 L 496.777 -982 L 474.111 -902.667 L 453.444 -838.333 L 434.777 -789 L 416.111 -739.667 L 398.277 -705.167 L 381.277 -685.5 L 364.277 -665.833 L 344.111 -650.667 L 320.777 -640 L 284.777 -624.667 L 249.277 -613.333 L 214.277 -606 L 179.277 -598.667 L 149.111 -595 L 123.777 -595 L 136.444 -565 L 157.611 -544 L 187.277 -532 L 216.944 -520 L 225.444 -507.333 L 212.777 -494 L 205.444 -486.667 L 182.444 -496.333 L 143.777 -523 L 105.111 -549.667 L 78.444 -576 L 63.777 -602 L 63.777 -618.667 L 70.611 -625.667 L 84.277 -623 L 97.944 -620.333 L 112.444 -618.333 L 127.777 -617 L 143.111 -616.333 L 159.111 -617.333 L 175.777 -620 L 192.444 -622.667 L 214.444 -631 L 241.777 -645 L 255.111 -651.667 L 267.611 -666.833 L 279.277 -690.5 L 290.944 -714.167 L 301.611 -740.333 L 311.277 -769 L 320.944 -797.667 L 329.111 -826.167 L 335.777 -854.5 L 342.444 -882.833 L 351.277 -923.667 L 362.277 -977 L 373.277 -1030.333 L 382.611 -1066 L 390.277 -1084 L 397.944 -1102 L 408.944 -1116.667 L 423.277 -1128 L 437.611 -1139.333 L 451.277 -1146.667 L 464.277 -1150 L 477.277 -1153.333 L 491.777 -1155.667 L 507.777 -1157 L 523.777 -1158.333 L 542.444 -1160.333 Z" fill="black" fill-opacity="0.25" stroke="black" stroke-width="4"/>
  <rect x="821" y="-711" width="266" height="248" fill="none" stroke="red" stroke-width="10" /><rect x="551" y="-711" width="265" height="248" fill="none" stroke="red" stroke-width="10" /><rect x="-1" y="-393" width="1340" height="173" fill="none" stroke="red" stroke-width="10" /><rect x="63.8" y="-715.4" width="339.8" height="223.8" fill="none" stroke="red" stroke-width="10" /><rect x="291.5" y="-939.2" width="193.1" height="223.8" fill="none" stroke="red" stroke-width="10" /><rect x="354.5" y="-1163" width="224.6" height="223.8" fill="none" stroke="red" stroke-width="10" />
</svg>
