<svg xmlns="http://www.w3.org/2000/svg"
  viewBox="-50.00046082575694 -497.0 1795.02766724602 386.5383975491237">
  <rect x="-50.00046082575694" y="-497.0" width="1795.02766724602" height="386.5383975491237" fill="white"/>
  <path d="M 2.77734375 -384.0 L 6.1103515625 -389.333007812 L 9.9443359375 -392.166992188 L 14.27734375 -392.5 L 18.6103515625 -392.833007812 L 23.1103515625 -391.666992188 L 27.77734375 -389.0 L 32.4443359375 -386.333007812 L 38.4443359375 -383.166992188 L 45.77734375 -379.5 L 53.1103515625 -375.833007812 L 62.4443359375 -372.833007812 L 73.77734375 -370.5 L 85.1103515625 -368.166992188 L 101.110351562 -367.0 L 121.77734375 -367.0 L 1145.77734375 -367.0 L 1164.44433594 -367.0 L 1181.44433594 -365.5 L 1196.77734375 -362.5 L 1212.11035156 -359.5 L 1226.11035156 -354.666992188 L 1238.77734375 -348.0 L 1251.44433594 -341.333007812 L 1261.27734375 -335.333007812 L 1268.27734375 -330.0 L 1275.27734375 -324.666992188 L 1284.77734375 -315.5 L 1296.77734375 -302.5 L 1308.77734375 -289.5 L 1319.27734375 -277.0 L 1328.27734375 -265.0 L 1337.27734375 -253.0 L 1339.11035156 -241.333007812 L 1333.77734375 -230.0 L 1328.44433594 -222.0 L 1322.27734375 -220.333007812 L 1315.27734375 -225.0 L 1308.27734375 -229.666992188 L 1300.11035156 -233.666992188 L 1290.77734375 -237.0 L 1281.44433594 -240.333007812 L 1271.27734375 -242.666992188 L 1260.27734375 -244.0 L 1249.27734375 -245.333007812 L 1232.11035156 -246.0 L 1208.77734375 -246.0 L 199.77734375 -246.0 L 184.444335938 -246.0 L 170.444335938 -247.0 L 157.77734375 -249.0 L 145.110351562 -251.0 L 135.27734375 -253.166992188 L 128.27734375 -255.5 L 121.27734375 -257.833007812 L 113.77734375 -261.0 L 105.77734375 -265.0 L 97.77734375 -269.0 L 89.27734375 -273.833007812 L 80.27734375 -279.5 L 71.27734375 -285.166992188 L 61.77734375 -293.166992188 L 51.77734375 -303.5 L 41.77734375 -313.833007812 L 31.6103515625 -325.833007812 L 21.27734375 -339.5 L 10.9443359375 -353.166992188 L 4.4443359375 -362.666992188 L 1.77734375 -368.0 L -0.8896484375 -373.333007812 L -0.5556640625 -378.666992188 Z M 1411.77734375 -447.0 L 1434.44433594 -447.0 L 1458.27734375 -446.666992188 L 1483.27734375 -446.0 L 1508.27734375 -445.333007812 L 1530.77734375 -443.666992188 L 1550.77734375 -441.0 L 1564.77734375 -441.0 L 1580.27734375 -413.333007812 L 1597.27734375 -358.0 L 1614.27734375 -302.666992188 L 1634.44433594 -254.333007812 L 1657.77734375 -213.0 L 1665.77734375 -199.0 L 1673.11035156 -191.0 L 1679.77734375 -189.0 L 1685.77734375 -187.0 L 1690.44433594 -183.666992188 L 1693.77734375 -179.0 L 1697.11035156 -174.333007812 L 1693.77734375 -170.0 L 1683.77734375 -166.0 L 1660.44433594 -162.0 L 1637.11035156 -160.166992188 L 1613.77734375 -160.5 L 1590.44433594 -160.833007812 L 1567.77734375 -162.666992188 L 1545.77734375 -166.0 L 1525.77734375 -174.0 L 1509.27734375 -199.5 L 1496.27734375 -242.5 L 1483.27734375 -285.5 L 1465.11035156 -336.0 L 1441.77734375 -394.0 L 1439.77734375 -397.333007812 L 1435.77734375 -401.833007812 L 1429.77734375 -407.5 L 1423.77734375 -413.166992188 L 1416.77734375 -416.666992188 L 1408.77734375 -418.0 L 1398.11035156 -420.0 L 1392.11035156 -425.333007812 L 1390.77734375 -434.0 L 1389.44433594 -442.666992188 L 1396.44433594 -447.0 Z" fill="black" fill-opacity="0.25" stroke="black" stroke-width="4.0"/>
  <rect x="-1.0" y="-393.0" width="1339.9999999999998" height="173.00000000000003" fill="none" stroke="red" stroke-width="10.0" /><rect x="1389.0" y="-447.0" width="308.00000000000006" height="287.00000000000006" fill="none" stroke="red" stroke-width="10.0" />
</svg>
