<svg xmlns="http://www.w3.org/2000/svg"
  viewBox="-50.00005894218928 -856.0 1568.7544334076463 683.5790908845156">
  <rect x="-50.00005894218928" y="-856.0" width="1568.7544334076463" height="683.5790908845156" fill="white"/>
  <path d="M 1100.77734375 -458.0 L 1093.44433594 -464.0 L 1093.11035156 -469.5 L 1099.77734375 -474.5 L 1106.44433594 -479.5 L 1114.77734375 -482.0 L 1124.77734375 -482.0 L 1135.44433594 -482.0 L 1150.44433594 -491.833007812 L 1169.77734375 -511.5 L 1189.11035156 -531.166992188 L 1202.11035156 -555.333007812 L 1208.77734375 -584.0 L 1218.77734375 -632.666992188 L 1193.11035156 -672.333007812 L 1131.77734375 -703.0 L 1108.44433594 -714.333007812 L 1079.11035156 -724.5 L 1043.77734375 -733.5 L 1008.44433594 -742.5 L 973.444335938 -750.333007812 L 938.77734375 -757.0 L 904.110351562 -763.666992188 L 873.610351562 -769.166992188 L 847.27734375 -773.5 L 820.944335938 -778.5 L 805.444335938 -781.666992188 L 800.77734375 -783.0 L 791.444335938 -786.333007812 L 787.944335938 -791.0 L 790.27734375 -797.0 L 792.610351562 -803.0 L 797.444335938 -806.0 L 804.77734375 -806.0 L 808.77734375 -806.0 L 823.77734375 -804.5 L 849.77734375 -801.5 L 875.77734375 -798.5 L 906.77734375 -794.0 L 942.77734375 -788.0 L 978.77734375 -782.0 L 1016.94433594 -774.166992188 L 1057.27734375 -764.5 L 1097.61035156 -754.833007812 L 1134.44433594 -743.666992188 L 1167.77734375 -731.0 L 1207.11035156 -715.666992188 L 1238.44433594 -700.333007812 L 1261.77734375 -685.0 L 1285.11035156 -669.666992188 L 1306.44433594 -649.0 L 1325.77734375 -623.0 L 1345.11035156 -597.0 L 1353.27734375 -571.0 L 1350.27734375 -545.0 L 1347.27734375 -519.0 L 1336.11035156 -498.666992188 L 1316.77734375 -484.0 L 1298.77734375 -470.666992188 L 1278.27734375 -461.666992188 L 1255.27734375 -457.0 L 1232.27734375 -452.333007812 L 1210.11035156 -450.0 L 1188.77734375 -450.0 L 1156.77734375 -450.0 L 1156.77734375 -450.0 L 1144.77734375 -450.0 L 1136.77734375 -450.0 L 1122.11035156 -452.666992188 Z M 336.77734375 -710.0 L 356.77734375 -710.0 L 377.77734375 -709.666992188 L 399.77734375 -709.0 L 421.77734375 -708.333007812 L 441.444335938 -706.333007812 L 458.77734375 -703.0 L 471.444335938 -703.0 L 485.77734375 -686.0 L 501.77734375 -652.0 L 517.77734375 -618.0 L 535.444335938 -580.666992188 L 554.77734375 -540.0 L 560.110351562 -526.0 L 566.444335938 -518.0 L 573.77734375 -516.0 L 578.444335938 -514.0 L 582.27734375 -510.5 L 585.27734375 -505.5 L 588.27734375 -500.5 L 585.444335938 -496.0 L 576.77734375 -492.0 L 556.77734375 -488.0 L 536.27734375 -486.333007812 L 515.27734375 -487.0 L 494.27734375 -487.666992188 L 474.77734375 -489.333007812 L 456.77734375 -492.0 L 439.444335938 -500.0 L 424.610351562 -515.0 L 412.27734375 -537.0 L 399.944335938 -559.0 L 383.444335938 -598.666992188 L 362.77734375 -656.0 L 360.77734375 -659.333007812 L 357.110351562 -664.5 L 351.77734375 -671.5 L 346.444335938 -678.5 L 340.444335938 -682.666992188 L 333.77734375 -684.0 L 324.444335938 -685.333007812 L 319.110351562 -690.0 L 317.77734375 -698.0 L 316.444335938 -706.0 L 322.77734375 -710.0 Z M 66.77734375 -710.0 L 86.77734375 -710.0 L 107.77734375 -709.666992188 L 129.77734375 -709.0 L 151.77734375 -708.333007812 L 171.444335938 -706.333007812 L 188.77734375 -703.0 L 201.444335938 -703.0 L 215.77734375 -686.0 L 231.77734375 -652.0 L 247.77734375 -618.0 L 265.110351562 -580.666992188 L 283.77734375 -540.0 L 289.77734375 -526.0 L 296.110351562 -518.0 L 302.77734375 -516.0 L 308.110351562 -514.0 L 312.27734375 -510.5 L 315.27734375 -505.5 L 318.27734375 -500.5 L 315.444335938 -496.0 L 306.77734375 -492.0 L 286.110351562 -488.0 L 265.444335938 -486.333007812 L 244.77734375 -487.0 L 224.110351562 -487.666992188 L 204.444335938 -489.333007812 L 185.77734375 -492.0 L 168.444335938 -500.0 L 153.77734375 -515.0 L 141.77734375 -537.0 L 129.77734375 -559.0 L 113.444335938 -598.666992188 L 92.77734375 -656.0 L 90.77734375 -659.333007812 L 87.1103515625 -664.5 L 81.77734375 -671.5 L 76.4443359375 -678.5 L 70.1103515625 -682.666992188 L 62.77734375 -684.0 L 53.4443359375 -685.333007812 L 48.27734375 -690.0 L 47.27734375 -698.0 L 46.27734375 -706.0 L 52.77734375 -710.0 Z M 2.77734375 -384.0 L 6.111328125 -389.333007812 L 9.9443359375 -392.166992188 L 14.27734375 -392.5 L 18.611328125 -392.833007812 L 23.111328125 -391.666992188 L 27.77734375 -389.0 L 32.4443359375 -386.333007812 L 38.4443359375 -383.166992188 L 45.77734375 -379.5 L 53.111328125 -375.833007812 L 62.4443359375 -372.833007812 L 73.77734375 -370.5 L 85.111328125 -368.166992188 L 101.111328125 -367.0 L 121.77734375 -367.0 L 1276.77734375 -367.0 L 1295.44433594 -367.0 L 1312.61132812 -365.5 L 1328.27734375 -362.5 L 1343.94433594 -359.5 L 1358.11132812 -354.666992188 L 1370.77734375 -348.0 L 1383.44433594 -341.333007812 L 1393.27734375 -335.333007812 L 1400.27734375 -330.0 L 1407.27734375 -324.666992188 L 1416.77734375 -315.5 L 1428.77734375 -302.5 L 1440.77734375 -289.5 L 1451.27734375 -277.0 L 1460.27734375 -265.0 L 1469.27734375 -253.0 L 1471.11132812 -241.333007812 L 1465.77734375 -230.0 L 1460.44433594 -222.0 L 1454.27734375 -220.333007812 L 1447.27734375 -225.0 L 1440.27734375 -229.666992188 L 1432.11132812 -233.666992188 L 1422.77734375 -237.0 L 1413.44433594 -240.333007812 L 1403.27734375 -242.666992188 L 1392.27734375 -244.0 L 1381.27734375 -245.333007812 L 1364.11132812 -246.0 L 1340.77734375 -246.0 L 199.77734375 -246.0 L 184.444335938 -246.0 L 170.444335938 -247.0 L 157.77734375 -249.0 L 145.111328125 -251.0 L 135.27734375 -253.166992188 L 128.27734375 -255.5 L 121.27734375 -257.833007812 L 113.77734375 -261.0 L 105.77734375 -265.0 L 97.77734375 -269.0 L 89.4443359375 -273.833007812 L 80.77734375 -279.5 L 72.111328125 -285.166992188 L 62.611328125 -293.166992188 L 52.27734375 -303.5 L 41.9443359375 -313.833007812 L 31.611328125 -325.833007812 L 21.27734375 -339.5 L 10.9443359375 -353.166992188 L 4.4443359375 -362.666992188 L 1.77734375 -368.0 L -0.888671875 -373.333007812 L -0.5556640625 -378.666992188 Z" fill="black" fill-opacity="0.25" stroke="black" stroke-width="4.0"/>
  <rect x="788.0" y="-806.0" width="565.0" height="356.00000000000006" fill="none" stroke="red" stroke-width="10.0" /><rect x="316.0" y="-710.0" width="271.99999999999994" height="223.99999999999997" fill="none" stroke="red" stroke-width="10.0" /><rect x="46.0" y="-710.0" width="272.0" height="223.99999999999997" fill="none" stroke="red" stroke-width="10.0" /><rect x="-1.0" y="-393.0" width="1472.0" height="173.00000000000003" fill="none" stroke="red" stroke-width="10.0" />
</svg>
