<svg xmlns="http://www.w3.org/2000/svg"
  viewBox="-50 -442.555 1436.754 553.094">
  <rect x="-50" y="-442.555" width="1436.754" height="553.094" fill="white"/>
  <path d="M 742.777 -187 L 762.777 -187 L 783.777 -186.667 L 805.777 -186 L 827.777 -185.333 L 847.444 -183.333 L 864.777 -180 L 877.444 -180 L 890.777 -158.833 L 904.777 -116.5 L 918.777 -74.167 L 935.111 -32.333 L 953.777 9 L 959.777 23 L 966.111 30.667 L 972.777 32 L 978.111 34 L 982.277 37.5 L 985.277 42.5 L 988.277 47.5 L 985.444 51.667 L 976.777 55 L 956.111 59 L 935.444 60.833 L 914.777 60.5 L 894.111 60.167 L 874.444 58.333 L 855.777 55 L 837.777 47 L 823.944 28 L 814.277 -2 L 804.611 -32 L 789.777 -76 L 769.777 -134 L 767.777 -137.333 L 764.111 -142.333 L 758.777 -149 L 753.444 -155.667 L 747.111 -160 L 739.777 -162 L 729.777 -164 L 724.277 -168.667 L 723.277 -176 L 722.277 -183.333 L 728.777 -187 Z M 1012.777 -187 L 1032.777 -187 L 1053.777 -186.667 L 1075.777 -186 L 1097.777 -185.333 L 1117.444 -183.333 L 1134.777 -180 L 1147.444 -180 L 1160.777 -158.833 L 1174.777 -116.5 L 1188.777 -74.167 L 1205.444 -32.333 L 1224.777 9 L 1230.777 23 L 1237.111 30.667 L 1243.777 32 L 1249.111 34 L 1253.111 37.5 L 1255.777 42.5 L 1258.444 47.5 L 1255.444 51.667 L 1246.777 55 L 1226.777 59 L 1206.277 60.833 L 1185.277 60.5 L 1164.277 60.167 L 1144.444 58.333 L 1125.777 55 L 1108.444 47 L 1094.777 28 L 1084.777 -2 L 1074.777 -32 L 1059.777 -76 L 1039.777 -134 L 1037.777 -137.333 L 1034.111 -142.333 L 1028.777 -149 L 1023.444 -155.667 L 1017.111 -160 L 1009.777 -162 L 1000.444 -164 L 995.111 -168.667 L 993.777 -176 L 992.444 -183.333 L 998.777 -187 Z M 2.777 -384 L 6.111 -389.333 L 9.944 -392.167 L 14.277 -392.5 L 18.611 -392.833 L 23.111 -391.667 L 27.777 -389 L 32.444 -386.333 L 38.444 -383.167 L 45.777 -379.5 L 53.111 -375.833 L 62.444 -372.833 L 73.777 -370.5 L 85.111 -368.167 L 101.111 -367 L 121.777 -367 L 1145.777 -367 L 1164.444 -367 L 1181.444 -365.5 L 1196.777 -362.5 L 1212.111 -359.5 L 1226.111 -354.667 L 1238.777 -348 L 1251.444 -341.333 L 1261.277 -335.333 L 1268.277 -330 L 1275.277 -324.667 L 1284.777 -315.5 L 1296.777 -302.5 L 1308.777 -289.5 L 1319.277 -277 L 1328.277 -265 L 1337.277 -253 L 1339.111 -241.333 L 1333.777 -230 L 1328.444 -222 L 1322.277 -220.333 L 1315.277 -225 L 1308.277 -229.667 L 1300.111 -233.667 L 1290.777 -237 L 1281.444 -240.333 L 1271.277 -242.667 L 1260.277 -244 L 1249.277 -245.333 L 1232.111 -246 L 1208.777 -246 L 199.777 -246 L 184.444 -246 L 170.444 -247 L 157.777 -249 L 145.111 -251 L 135.277 -253.167 L 128.277 -255.5 L 121.277 -257.833 L 113.777 -261 L 105.777 -265 L 97.777 -269 L 89.277 -273.833 L 80.277 -279.5 L 71.277 -285.167 L 61.777 -293.167 L 51.777 -303.5 L 41.777 -313.833 L 31.611 -325.833 L 21.277 -339.5 L 10.944 -353.167 L 4.444 -362.667 L 1.777 -368 L -0.889 -373.333 L -0.556 -378.667 Z" fill="black" fill-opacity="0.25" stroke="black" stroke-width="4"/>
  <rect x="722" y="-187" width="266" height="248" fill="none" stroke="red" stroke-width="10" /><rect x="992" y="-187" width="266" height="248" fill="none" stroke="red" stroke-width="10" /><rect x="-1" y="-393" width="1340" height="173" fill="none" stroke="red" stroke-width="10" />
</svg>
