<svg xmlns="http://www.w3.org/2000/svg"
  viewBox="-50.0 -1213.0 1541.222147206698 1040.5790908845156">
  <rect x="-50.0" y="-1213.0" width="1541.222147206698" height="1040.5790908845156" fill="white"/>
  <path d="M 26.0 -384.0 L 29.3330078125 -389.333007812 L 33.1669921875 -392.166992188 L 37.5 -392.5 L 41.8330078125 -392.833007812 L 46.3330078125 -391.666992188 L 51.0 -389.0 L 55.6669921875 -386.333007812 L 61.6669921875 -383.166992188 L 69.0 -379.5 L 76.3330078125 -375.833007812 L 85.6669921875 -372.833007812 L 97.0 -370.5 L 108.333007812 -368.166992188 L 124.333007812 -367.0 L 145.0 -367.0 L 1169.0 -367.0 L 1187.66699219 -367.0 L 1204.66699219 -365.5 L 1220.0 -362.5 L 1235.33300781 -359.5 L 1249.33300781 -354.666992188 L 1262.0 -348.0 L 1274.66699219 -341.333007812 L 1284.5 -335.333007812 L 1291.5 -330.0 L 1298.5 -324.666992188 L 1308.0 -315.5 L 1320.0 -302.5 L 1332.0 -289.5 L 1342.5 -277.0 L 1351.5 -265.0 L 1360.5 -253.0 L 1362.33300781 -241.333007812 L 1357.0 -230.0 L 1351.66699219 -222.0 L 1345.5 -220.333007812 L 1338.5 -225.0 L 1331.5 -229.666992188 L 1323.33300781 -233.666992188 L 1314.0 -237.0 L 1304.66699219 -240.333007812 L 1294.5 -242.666992188 L 1283.5 -244.0 L 1272.5 -245.333007812 L 1255.33300781 -246.0 L 1232.0 -246.0 L 223.0 -246.0 L 207.666992188 -246.0 L 193.666992188 -247.0 L 181.0 -249.0 L 168.333007812 -251.0 L 158.5 -253.166992188 L 151.5 -255.5 L 144.5 -257.833007812 L 137.0 -261.0 L 129.0 -265.0 L 121.0 -269.0 L 112.5 -273.833007812 L 103.5 -279.5 L 94.5 -285.166992188 L 85.0 -293.166992188 L 75.0 -303.5 L 65.0 -313.833007812 L 54.8330078125 -325.833007812 L 44.5 -339.5 L 34.1669921875 -353.166992188 L 27.6669921875 -362.666992188 L 25.0 -368.0 L 22.3330078125 -373.333007812 L 22.6669921875 -378.666992188 Z M 1427.0 -1163.0 L 1437.66699219 -1161.0 L 1442.33300781 -1155.5 L 1441.0 -1146.5 L 1439.66699219 -1137.5 L 1432.66699219 -1132.66699219 L 1420.0 -1132.0 L 1406.0 -1127.33300781 L 1394.83300781 -1109.66699219 L 1386.5 -1079.0 L 1378.16699219 -1048.33300781 L 1369.0 -1016.0 L 1359.0 -982.0 L 1336.33300781 -902.666992188 L 1315.83300781 -838.333007812 L 1297.5 -789.0 L 1279.16699219 -739.666992188 L 1261.5 -705.166992188 L 1244.5 -685.5 L 1227.5 -665.833007812 L 1207.33300781 -650.666992188 L 1184.0 -640.0 L 1148.0 -624.666992188 L 1112.5 -613.333007812 L 1077.5 -606.0 L 1042.5 -598.666992188 L 1012.0 -595.0 L 986.0 -595.0 L 998.666992188 -565.0 L 1020.0 -544.0 L 1050.0 -532.0 L 1080.0 -520.0 L 1088.66699219 -507.333007812 L 1076.0 -494.0 L 1068.66699219 -486.666992188 L 1045.66699219 -496.333007812 L 1007.0 -523.0 L 968.333007812 -549.666992188 L 941.666992188 -576.0 L 927.0 -602.0 L 927.0 -618.666992188 L 933.833007812 -625.666992188 L 947.5 -623.0 L 961.166992188 -620.333007812 L 975.666992188 -618.333007812 L 991.0 -617.0 L 1006.33300781 -616.333007812 L 1022.33300781 -617.333007812 L 1039.0 -620.0 L 1055.66699219 -622.666992188 L 1077.66699219 -631.0 L 1105.0 -645.0 L 1118.33300781 -651.666992188 L 1130.83300781 -666.833007812 L 1142.5 -690.5 L 1154.16699219 -714.166992188 L 1164.83300781 -740.333007812 L 1174.5 -769.0 L 1184.16699219 -797.666992188 L 1192.33300781 -826.166992188 L 1199.0 -854.5 L 1205.66699219 -882.833007812 L 1214.5 -923.666992188 L 1225.5 -977.0 L 1236.5 -1030.33300781 L 1245.83300781 -1066.0 L 1253.5 -1084.0 L 1261.16699219 -1102.0 L 1272.16699219 -1116.66699219 L 1286.5 -1128.0 L 1300.83300781 -1139.33300781 L 1314.5 -1146.66699219 L 1327.5 -1150.0 L 1340.5 -1153.33300781 L 1355.0 -1155.66699219 L 1371.0 -1157.0 L 1387.0 -1158.33300781 L 1405.66699219 -1160.33300781 Z M 963.0 -1163.0 L 973.666992188 -1161.0 L 978.333007812 -1155.5 L 977.0 -1146.5 L 975.666992188 -1137.5 L 969.0 -1132.66699219 L 957.0 -1132.0 L 943.0 -1127.33300781 L 931.666992188 -1109.66699219 L 923.0 -1079.0 L 914.333007812 -1048.33300781 L 905.333007812 -1016.0 L 896.0 -982.0 L 873.333007812 -902.666992188 L 852.666992188 -838.333007812 L 834.0 -789.0 L 815.333007812 -739.666992188 L 797.5 -705.166992188 L 780.5 -685.5 L 763.5 -665.833007812 L 743.333007812 -650.666992188 L 720.0 -640.0 L 684.0 -624.666992188 L 648.5 -613.333007812 L 613.5 -606.0 L 578.5 -598.666992188 L 548.333007812 -595.0 L 523.0 -595.0 L 535.666992188 -565.0 L 556.833007812 -544.0 L 586.5 -532.0 L 616.166992188 -520.0 L 624.666992188 -507.333007812 L 612.0 -494.0 L 604.666992188 -486.666992188 L 581.666992188 -496.333007812 L 543.0 -523.0 L 504.333007812 -549.666992188 L 477.666992188 -576.0 L 463.0 -602.0 L 463.0 -618.666992188 L 469.833007812 -625.666992188 L 483.5 -623.0 L 497.166992188 -620.333007812 L 511.666992188 -618.333007812 L 527.0 -617.0 L 542.333007812 -616.333007812 L 558.333007812 -617.333007812 L 575.0 -620.0 L 591.666992188 -622.666992188 L 613.666992188 -631.0 L 641.0 -645.0 L 654.333007812 -651.666992188 L 666.833007812 -666.833007812 L 678.5 -690.5 L 690.166992188 -714.166992188 L 700.833007812 -740.333007812 L 710.5 -769.0 L 720.166992188 -797.666992188 L 728.333007812 -826.166992188 L 735.0 -854.5 L 741.666992188 -882.833007812 L 750.5 -923.666992188 L 761.5 -977.0 L 772.5 -1030.33300781 L 781.833007812 -1066.0 L 789.5 -1084.0 L 797.166992188 -1102.0 L 808.166992188 -1116.66699219 L 822.5 -1128.0 L 836.833007812 -1139.33300781 L 850.5 -1146.66699219 L 863.5 -1150.0 L 876.5 -1153.33300781 L 891.0 -1155.66699219 L 907.0 -1157.0 L 923.0 -1158.33300781 L 941.666992188 -1160.33300781 Z M 499.0 -1163.0 L 509.666992188 -1161.0 L 514.333007812 -1155.5 L 513.0 -1146.5 L 511.666992188 -1137.5 L 505.0 -1132.66699219 L 493.0 -1132.0 L 479.0 -1127.33300781 L 467.666992188 -1109.66699219 L 459.0 -1079.0 L 450.333007812 -1048.33300781 L 441.333007812 -1016.0 L 432.0 -982.0 L 409.333007812 -902.666992188 L 388.666992188 -838.333007812 L 370.0 -789.0 L 351.333007812 -739.666992188 L 333.666992188 -705.166992188 L 317.0 -685.5 L 300.333007812 -665.833007812 L 280.0 -650.666992188 L 256.0 -640.0 L 220.0 -624.666992188 L 184.5 -613.333007812 L 149.5 -606.0 L 114.5 -598.666992188 L 84.3330078125 -595.0 L 59.0 -595.0 L 71.6669921875 -565.0 L 93.0 -544.0 L 123.0 -532.0 L 153.0 -520.0 L 161.666992188 -507.333007812 L 149.0 -494.0 L 141.666992188 -486.666992188 L 118.5 -496.333007812 L 79.5 -523.0 L 40.5 -549.666992188 L 14.0 -576.0 L 0.0 -602.0 L 0.0 -618.666992188 L 6.6669921875 -625.666992188 L 20.0 -623.0 L 33.3330078125 -620.333007812 L 48.0 -618.333007812 L 64.0 -617.0 L 79.3330078125 -616.333007812 L 95.1669921875 -617.333007812 L 111.5 -620.0 L 127.833007812 -622.666992188 L 149.666992188 -631.0 L 177.0 -645.0 L 190.333007812 -651.666992188 L 203.0 -666.833007812 L 215.0 -690.5 L 227.0 -714.166992188 L 237.666992188 -740.333007812 L 247.0 -769.0 L 256.333007812 -797.666992188 L 264.333007812 -826.166992188 L 271.0 -854.5 L 277.666992188 -882.833007812 L 286.5 -923.666992188 L 297.5 -977.0 L 308.5 -1030.33300781 L 317.833007812 -1066.0 L 325.5 -1084.0 L 333.166992188 -1102.0 L 344.166992188 -1116.66699219 L 358.5 -1128.0 L 372.833007812 -1139.33300781 L 386.666992188 -1146.66699219 L 400.0 -1150.0 L 413.333007812 -1153.33300781 L 427.833007812 -1155.66699219 L 443.5 -1157.0 L 459.166992188 -1158.33300781 L 477.666992188 -1160.33300781 Z" fill="black" fill-opacity="0.25" stroke="black" stroke-width="4.0"/>
  <rect x="22.0" y="-393.0" width="1340.0" height="173.00000000000003" fill="none" stroke="red" stroke-width="10.0" /><rect x="927.0" y="-1163.0" width="514.9999999999999" height="676.0" fill="none" stroke="red" stroke-width="10.0" /><rect x="463.0" y="-1163.0" width="514.9999999999999" height="676.0" fill="none" stroke="red" stroke-width="10.0" /><rect x="0.0" y="-1163.0" width="514.0" height="676.0" fill="none" stroke="red" stroke-width="10.0" />
</svg>
