<svg xmlns="http://www.w3.org/2000/svg"
  viewBox="-50 -1213 1518 1040.579">
  <rect x="-50" y="-1213" width="1518" height="1040.579" fill="white"/>
  <path d="M 559.777 -697 L 579.777 -697 L 600.611 -696.667 L 622.277 -696 L 643.944 -695.333 L 663.777 -693.333 L 681.777 -690 L 694.444 -690 L 707.611 -668.667 L 721.277 -626 L 734.944 -583.333 L 751.444 -541.667 L 770.777 -501 L 776.777 -487 L 783.111 -479 L 789.777 -477 L 795.111 -475 L 799.111 -471.5 L 801.777 -466.5 L 804.444 -461.5 L 801.444 -457 L 792.777 -453 L 772.777 -449 L 752.444 -447.333 L 731.777 -448 L 711.111 -448.667 L 691.444 -450.333 L 672.777 -453 L 655.444 -461 L 641.777 -480.167 L 631.777 -510.5 L 621.777 -540.833 L 606.444 -585 L 585.777 -643 L 583.777 -646.333 L 579.944 -651.5 L 574.277 -658.5 L 568.611 -665.5 L 562.444 -669.667 L 555.777 -671 L 546.444 -672.333 L 541.277 -676.833 L 540.277 -684.5 L 539.277 -692.167 L 545.777 -696.333 Z M 288.777 -697 L 308.777 -697 L 329.777 -696.667 L 351.777 -696 L 373.777 -695.333 L 393.444 -693.333 L 410.777 -690 L 423.444 -690 L 436.777 -668.667 L 450.777 -626 L 464.777 -583.333 L 481.444 -541.667 L 500.777 -501 L 506.777 -487 L 513.111 -479 L 519.777 -477 L 525.111 -475 L 529.111 -471.5 L 531.777 -466.5 L 534.444 -461.5 L 531.444 -457 L 522.777 -453 L 502.777 -449 L 482.277 -447.333 L 461.277 -448 L 440.277 -448.667 L 420.444 -450.333 L 401.777 -453 L 384.444 -461 L 370.777 -480.167 L 360.777 -510.5 L 350.777 -540.833 L 335.444 -585 L 314.777 -643 L 313.444 -646.333 L 309.944 -651.5 L 304.277 -658.5 L 298.611 -665.5 L 292.444 -669.667 L 285.777 -671 L 276.444 -672.333 L 271.111 -676.833 L 269.777 -684.5 L 268.444 -692.167 L 274.777 -696.333 Z M 2.777 -384 L 6.111 -389.333 L 9.944 -392.167 L 14.277 -392.5 L 18.611 -392.833 L 23.111 -391.667 L 27.777 -389 L 32.444 -386.333 L 38.444 -383.167 L 45.777 -379.5 L 53.111 -375.833 L 62.444 -372.833 L 73.777 -370.5 L 85.111 -368.167 L 101.111 -367 L 121.777 -367 L 1145.777 -367 L 1164.444 -367 L 1181.444 -365.5 L 1196.777 -362.5 L 1212.111 -359.5 L 1226.111 -354.667 L 1238.777 -348 L 1251.444 -341.333 L 1261.277 -335.333 L 1268.277 -330 L 1275.277 -324.667 L 1284.777 -315.5 L 1296.777 -302.5 L 1308.777 -289.5 L 1319.277 -277 L 1328.277 -265 L 1337.277 -253 L 1339.111 -241.333 L 1333.777 -230 L 1328.444 -222 L 1322.277 -220.333 L 1315.277 -225 L 1308.277 -229.667 L 1300.111 -233.667 L 1290.777 -237 L 1281.444 -240.333 L 1271.277 -242.667 L 1260.277 -244 L 1249.277 -245.333 L 1232.111 -246 L 1208.777 -246 L 199.777 -246 L 184.444 -246 L 170.444 -247 L 157.777 -249 L 145.111 -251 L 135.277 -253.167 L 128.277 -255.5 L 121.277 -257.833 L 113.777 -261 L 105.777 -265 L 97.777 -269 L 89.277 -273.833 L 80.277 -279.5 L 71.277 -285.167 L 61.777 -293.167 L 51.777 -303.5 L 41.777 -313.833 L 31.611 -325.833 L 21.277 -339.5 L 10.944 -353.167 L 4.444 -362.667 L 1.777 -368 L -0.889 -373.333 L -0.556 -378.667 Z M 1403.777 -1163 L 1414.444 -1161 L 1419.111 -1155.5 L 1417.777 -1146.5 L 1416.444 -1137.5 L 1409.444 -1132.667 L 1396.777 -1132 L 1382.777 -1127.333 L 1371.611 -1109.667 L 1363.277 -1079 L 1354.944 -1048.333 L 1345.777 -1016 L 1335.777 -982 L 1313.111 -902.667 L 1292.611 -838.333 L 1274.277 -789 L 1255.944 -739.667 L 1238.277 -705.167 L 1221.277 -685.5 L 1204.277 -665.833 L 1184.111 -650.667 L 1160.777 -640 L 1124.777 -624.667 L 1089.277 -613.333 L 1054.277 -606 L 1019.277 -598.667 L 988.777 -595 L 962.777 -595 L 975.444 -565 L 996.777 -544 L 1026.777 -532 L 1056.777 -520 L 1065.444 -507.333 L 1052.777 -494 L 1045.444 -486.667 L 1022.444 -496.333 L 983.777 -523 L 945.111 -549.667 L 918.444 -576 L 903.777 -602 L 903.777 -618.667 L 910.611 -625.667 L 924.277 -623 L 937.944 -620.333 L 952.444 -618.333 L 967.777 -617 L 983.111 -616.333 L 999.111 -617.333 L 1015.777 -620 L 1032.444 -622.667 L 1054.444 -631 L 1081.777 -645 L 1095.111 -651.667 L 1107.611 -666.833 L 1119.277 -690.5 L 1130.944 -714.167 L 1141.611 -740.333 L 1151.277 -769 L 1160.944 -797.667 L 1169.111 -826.167 L 1175.777 -854.5 L 1182.444 -882.833 L 1191.277 -923.667 L 1202.277 -977 L 1213.277 -1030.333 L 1222.611 -1066 L 1230.277 -1084 L 1237.944 -1102 L 1248.944 -1116.667 L 1263.277 -1128 L 1277.611 -1139.333 L 1291.277 -1146.667 L 1304.277 -1150 L 1317.277 -1153.333 L 1331.777 -1155.667 L 1347.777 -1157 L 1363.777 -1158.333 L 1382.444 -1160.333 Z" fill="black" fill-opacity="0.25" stroke="black" stroke-width="4"/>
  <rect x="539" y="-697" width="265" height="250" fill="none" stroke="red" stroke-width="10" /><rect x="268" y="-697" width="266" height="250" fill="none" stroke="red" stroke-width="10" /><rect x="-1" y="-393" width="1340" height="173" fill="none" stroke="red" stroke-width="10" /><rect x="903.8" y="-715.4" width="339.7" height="223.8" fill="none" stroke="red" stroke-width="10" /><rect x="1131.5" y="-939.2" width="192.1" height="223.8" fill="none" stroke="red" stroke-width="10" /><rect x="1194.5" y="-1163" width="224.6" height="223.8" fill="none" stroke="red" stroke-width="10" />
</svg>
