<svg xmlns="http://www.w3.org/2000/svg"
  viewBox="-50 -901.522 1911.577 729.101">
  <rect x="-50" y="-901.522" width="1911.577" height="729.101" fill="white"/>
  <path d="M 19.6 -729 L 39.6 -729 L 60.6 -728.667 L 82.6 -728 L 104.6 -727.333 L 124.267 -725.333 L 141.6 -722 L 154.267 -722 L 168.6 -705 L 184.6 -671 L 200.6 -637 L 217.933 -599.667 L 236.6 -559 L 242.6 -545 L 248.933 -537 L 255.6 -535 L 260.933 -533 L 265.1 -529.5 L 268.1 -524.5 L 271.1 -519.5 L 268.267 -515 L 259.6 -511 L 238.933 -507 L 218.267 -505.333 L 197.6 -506 L 176.933 -506.667 L 157.267 -508.333 L 138.6 -511 L 120.6 -519 L 105.767 -534 L 94.1 -556 L 82.433 -578 L 66.267 -617.667 L 45.6 -675 L 43.6 -678.333 L 39.933 -683.5 L 34.6 -690.5 L 29.267 -697.5 L 22.933 -701.667 L 15.6 -703 L 6.267 -704.333 L 1.1 -709 L 0.1 -717 L -0.9 -725 L 5.6 -729 Z M 289.6 -729 L 309.6 -729 L 330.6 -728.667 L 352.6 -728 L 374.6 -727.333 L 394.267 -725.333 L 411.6 -722 L 424.267 -722 L 438.6 -705 L 454.6 -671 L 470.6 -637 L 488.267 -599.667 L 507.6 -559 L 513.6 -545 L 519.933 -537 L 526.6 -535 L 531.267 -533 L 535.1 -529.5 L 538.1 -524.5 L 541.1 -519.5 L 538.267 -515 L 529.6 -511 L 509.6 -507 L 489.1 -505.333 L 468.1 -506 L 447.1 -506.667 L 427.267 -508.333 L 408.6 -511 L 391.267 -519 L 376.6 -534 L 364.6 -556 L 352.6 -578 L 336.267 -617.667 L 315.6 -675 L 314.267 -678.333 L 310.767 -683.5 L 305.1 -690.5 L 299.433 -697.5 L 293.267 -701.667 L 286.6 -703 L 277.267 -704.333 L 271.933 -709 L 270.6 -717 L 269.267 -725 L 275.6 -729 Z M 8.6 -384 L 11.934 -389.333 L 15.767 -392.167 L 20.1 -392.5 L 24.434 -392.833 L 28.934 -391.667 L 33.6 -389 L 38.267 -386.333 L 44.267 -383.167 L 51.6 -379.5 L 58.934 -375.833 L 68.267 -372.833 L 79.6 -370.5 L 90.934 -368.167 L 106.934 -367 L 127.6 -367 L 1619.6 -367 L 1638.267 -367 L 1655.434 -365.5 L 1671.1 -362.5 L 1686.767 -359.5 L 1700.934 -354.667 L 1713.6 -348 L 1726.267 -341.333 L 1736.1 -335.333 L 1743.1 -330 L 1750.1 -324.667 L 1759.6 -315.5 L 1771.6 -302.5 L 1783.6 -289.5 L 1794.1 -277 L 1803.1 -265 L 1812.1 -253 L 1813.934 -241.333 L 1808.6 -230 L 1803.267 -222 L 1797.1 -220.333 L 1790.1 -225 L 1783.1 -229.667 L 1774.934 -233.667 L 1765.6 -237 L 1756.267 -240.333 L 1745.934 -242.667 L 1734.6 -244 L 1723.267 -245.333 L 1706.267 -246 L 1683.6 -246 L 205.6 -246 L 190.267 -246 L 176.267 -247 L 163.6 -249 L 150.934 -251 L 141.1 -253.167 L 134.1 -255.5 L 127.1 -257.833 L 119.6 -261 L 111.6 -265 L 103.6 -269 L 95.1 -273.833 L 86.1 -279.5 L 77.1 -285.167 L 67.6 -293.167 L 57.6 -303.5 L 47.6 -313.833 L 37.434 -325.833 L 27.1 -339.5 L 16.767 -353.167 L 10.267 -362.667 L 7.6 -368 L 4.934 -373.333 L 5.267 -378.667 Z M 915.6 -487 L 890.267 -477.667 L 847.267 -478.333 L 786.6 -489 L 751.267 -497.667 L 720.1 -509.333 L 693.1 -524 L 666.1 -538.667 L 645.267 -564.333 L 630.6 -601 L 620.6 -636.333 L 617.267 -664.5 L 620.6 -685.5 L 623.933 -706.5 L 635.6 -731 L 655.6 -759 L 674.933 -782.333 L 697.433 -799.833 L 723.1 -811.5 L 748.767 -823.167 L 780.267 -833 L 817.6 -841 L 854.933 -848.333 L 885.267 -851.833 L 908.6 -851.5 L 931.933 -851.167 L 957.267 -850.667 L 984.6 -850 L 1011.267 -848.667 L 1036.1 -846.5 L 1059.1 -843.5 L 1082.1 -840.5 L 1109.933 -834 L 1142.6 -824 L 1196.6 -809.333 L 1249.933 -788.667 L 1302.6 -762 L 1331.933 -747.333 L 1363.1 -731.667 L 1396.1 -715 L 1429.1 -698.333 L 1465.933 -678.333 L 1506.6 -655 L 1525.267 -643.667 L 1545.767 -631.5 L 1568.1 -618.5 L 1590.433 -605.5 L 1614.267 -592.333 L 1639.6 -579 L 1658.933 -567 L 1678.1 -555 L 1697.1 -543 L 1716.1 -531 L 1724.1 -518.833 L 1721.1 -506.5 L 1718.1 -494.167 L 1710.933 -488.333 L 1699.6 -489 L 1688.267 -489.667 L 1652.433 -489.333 L 1592.1 -488 L 1531.767 -486.667 L 1479.267 -486.333 L 1434.6 -487 L 1416.6 -500.333 L 1416.767 -509.833 L 1435.1 -515.5 L 1453.433 -521.167 L 1467.267 -528.333 L 1476.6 -537 L 1493.267 -554.333 L 1500.6 -568.167 L 1498.6 -578.5 L 1496.6 -588.833 L 1493.767 -596.833 L 1490.1 -602.5 L 1486.433 -608.167 L 1480.933 -614.167 L 1473.6 -620.5 L 1466.267 -626.833 L 1448.1 -640 L 1419.1 -660 L 1390.1 -680 L 1354.267 -701 L 1311.6 -723 L 1272.933 -739.667 L 1242.6 -753.333 L 1220.6 -764 L 1198.6 -774.667 L 1162.933 -786.667 L 1113.6 -800 L 1076.933 -807.333 L 1039.6 -811.833 L 1001.6 -813.5 L 963.6 -815.167 L 924.933 -809.667 L 885.6 -797 L 858.267 -785 L 839.1 -774.667 L 828.1 -766 L 817.1 -757.333 L 804.6 -742.667 L 790.6 -722 L 778.6 -702 L 771.767 -685 L 770.1 -671 L 768.433 -657 L 768.267 -641 L 769.6 -623 L 770.267 -604.333 L 772.433 -590.833 L 776.1 -582.5 L 779.767 -574.167 L 784.433 -565.667 L 790.1 -557 L 795.767 -548.333 L 803.1 -540.5 L 812.1 -533.5 L 821.1 -526.5 L 834.933 -521.5 L 853.6 -518.5 L 872.267 -515.5 L 890.6 -513.333 L 908.6 -512 L 916.6 -510.667 L 921.767 -507.333 L 924.1 -502 L 926.433 -496.667 L 923.6 -491.667 Z M 1121.6 -426 L 1114.933 -431.333 L 1114.433 -436.333 L 1120.1 -441 L 1125.767 -445.667 L 1133.267 -448 L 1142.6 -448 L 1152.6 -448 L 1166.267 -456.667 L 1183.6 -474 L 1200.933 -491.333 L 1212.6 -513.333 L 1218.6 -540 L 1227.933 -584 L 1204.933 -620 L 1149.6 -648 L 1128.267 -658 L 1101.6 -667 L 1069.6 -675 L 1037.6 -683 L 1005.933 -690.167 L 974.6 -696.5 L 943.267 -702.833 L 915.6 -707.833 L 891.6 -711.5 L 867.6 -715.167 L 853.6 -718 L 849.6 -720 L 840.933 -723.333 L 837.6 -727.667 L 839.6 -733 L 841.6 -738.333 L 845.933 -741 L 852.6 -741 L 855.933 -741 L 869.433 -739.667 L 893.1 -737 L 916.767 -734.333 L 945.1 -730.167 L 978.1 -724.5 L 1011.1 -718.833 L 1045.767 -711.833 L 1082.1 -703.5 L 1118.433 -695.167 L 1151.6 -685 L 1181.6 -673 L 1216.933 -659 L 1245.267 -645 L 1266.6 -631 L 1287.933 -617 L 1307.267 -598.333 L 1324.6 -575 L 1341.933 -551 L 1349.267 -527.333 L 1346.6 -504 L 1343.933 -480.667 L 1333.933 -462.333 L 1316.6 -449 L 1300.6 -437 L 1281.933 -429 L 1260.6 -425 L 1239.267 -421 L 1219.267 -419 L 1200.6 -419 L 1181.933 -419 L 1168.767 -419.167 L 1161.1 -419.5 L 1153.433 -419.833 L 1140.267 -422 Z" fill="black" fill-opacity="0.25" stroke="black" stroke-width="4"/>
  <rect x="-1" y="-729" width="272" height="224" fill="none" stroke="red" stroke-width="10" /><rect x="269" y="-729" width="272" height="224" fill="none" stroke="red" stroke-width="10" /><rect x="5" y="-393" width="1809" height="173" fill="none" stroke="red" stroke-width="10" /><rect x="617" y="-852" width="1107" height="374" fill="none" stroke="red" stroke-width="10" /><rect x="838" y="-741" width="511" height="322" fill="none" stroke="red" stroke-width="10" />
</svg>
