<svg xmlns="http://www.w3.org/2000/svg"
  viewBox="-50 -985.909 1822.975 813.488">
  <rect x="-50" y="-985.909" width="1822.975" height="813.488" fill="white"/>
  <path d="M 1439.525 -530 L 1448.525 -492 L 1448.525 -489.333 L 1452.025 -482.833 L 1459.025 -472.5 L 1466.025 -462.167 L 1469.525 -455.667 L 1469.525 -453 L 1469.525 -450.333 L 1464.025 -448 L 1453.025 -446 L 1442.025 -444 L 1434.525 -443 L 1430.525 -443 L 1369.525 -443 L 1361.525 -443 L 1354.025 -448.667 L 1347.025 -460 L 1340.025 -471.333 L 1335.525 -482 L 1333.525 -492 L 1325.525 -531 L 1247.525 -531 L 1175.858 -534 L 1110.525 -540 L 1045.192 -546 L 998.858 -551.333 L 971.525 -556 L 920.858 -564 L 879.025 -578 L 846.025 -598 L 813.025 -618 L 791.192 -640.667 L 780.525 -666 L 775.192 -678.667 L 765.525 -697.5 L 751.525 -722.5 L 737.525 -747.5 L 722.858 -772.667 L 707.525 -798 L 692.192 -823.333 L 677.692 -846 L 664.025 -866 L 650.358 -886 L 640.858 -897.333 L 635.525 -900 L 608.192 -909.333 L 602.192 -919.333 L 617.525 -930 L 650.858 -932.667 L 682.858 -934.5 L 713.525 -935.5 L 744.192 -936.5 L 775.525 -935.667 L 807.525 -933 L 839.525 -931 L 862.358 -912.667 L 876.025 -878 L 889.692 -843.333 L 903.525 -798 L 917.525 -742 L 931.525 -686 L 948.692 -647.833 L 969.025 -627.5 L 989.358 -607.167 L 1024.525 -590.333 L 1074.525 -577 L 1102.525 -569 L 1136.525 -564 L 1176.525 -562 L 1216.525 -560 L 1264.858 -559.333 L 1321.525 -560 L 1309.525 -629 L 1308.858 -632.333 L 1305.525 -636.833 L 1299.525 -642.5 L 1293.525 -648.167 L 1290.525 -652.333 L 1290.525 -655 L 1290.525 -659 L 1295.858 -661.667 L 1306.525 -663 L 1317.192 -664.333 L 1324.858 -665 L 1329.525 -665 L 1390.525 -665 L 1397.858 -665 L 1405.025 -659.833 L 1412.025 -649.5 L 1419.025 -639.167 L 1423.858 -628 L 1426.525 -616 L 1436.525 -561 L 1481.192 -561.667 L 1511.525 -563.167 L 1527.525 -565.5 L 1543.525 -567.833 L 1561.192 -570.333 L 1580.525 -573 L 1587.858 -572.333 L 1592.192 -569 L 1593.525 -563 L 1594.858 -557 L 1593.192 -551.667 L 1588.525 -547 L 1581.858 -541.667 L 1568.192 -537.5 L 1547.525 -534.5 L 1526.858 -531.5 L 1490.858 -530 Z M 306.525 -761 L 326.525 -761 L 347.525 -760.667 L 369.525 -760 L 391.525 -759.333 L 411.192 -757.333 L 428.525 -754 L 441.192 -754 L 455.525 -737 L 471.525 -703 L 487.525 -669 L 505.192 -631.667 L 524.525 -591 L 530.525 -577 L 536.858 -569 L 543.525 -567 L 548.858 -565 L 552.858 -561.5 L 555.525 -556.5 L 558.192 -551.5 L 555.525 -547 L 547.525 -543 L 526.858 -539 L 506.192 -537.333 L 485.525 -538 L 464.858 -538.667 L 444.858 -540.333 L 425.525 -543 L 408.192 -551 L 393.525 -566 L 381.525 -588 L 369.525 -610 L 353.525 -649.667 L 333.525 -707 L 331.525 -710.333 L 327.692 -715.5 L 322.025 -722.5 L 316.358 -729.5 L 310.192 -733.667 L 303.525 -735 L 294.192 -736.333 L 288.858 -741 L 287.525 -749 L 286.192 -757 L 292.525 -761 Z M 36.525 -761 L 56.525 -761 L 77.525 -760.667 L 99.525 -760 L 121.525 -759.333 L 141.192 -757.333 L 158.525 -754 L 171.192 -754 L 185.525 -737 L 201.525 -703 L 217.525 -669 L 235.192 -631.667 L 254.525 -591 L 259.858 -577 L 266.192 -569 L 273.525 -567 L 278.192 -565 L 282.025 -561.5 L 285.025 -556.5 L 288.025 -551.5 L 285.192 -547 L 276.525 -543 L 256.525 -539 L 236.025 -537.333 L 215.025 -538 L 194.025 -538.667 L 174.192 -540.333 L 155.525 -543 L 138.192 -551 L 123.525 -566 L 111.525 -588 L 99.525 -610 L 83.192 -649.667 L 62.525 -707 L 60.525 -710.333 L 56.858 -715.5 L 51.525 -722.5 L 46.192 -729.5 L 39.858 -733.667 L 32.525 -735 L 23.192 -736.333 L 18.025 -741 L 17.025 -749 L 16.025 -757 L 22.525 -761 Z M 3.025 -384 L 6.691 -389.333 L 10.525 -392.167 L 14.525 -392.5 L 18.525 -392.833 L 23.025 -391.667 L 28.025 -389 L 33.025 -386.333 L 39.191 -383.167 L 46.525 -379.5 L 53.858 -375.833 L 63.191 -372.833 L 74.525 -370.5 L 85.858 -368.167 L 101.858 -367 L 122.525 -367 L 1531.525 -367 L 1550.191 -367 L 1567.191 -365.5 L 1582.525 -362.5 L 1597.858 -359.5 L 1611.858 -354.667 L 1624.525 -348 L 1637.191 -341.333 L 1647.025 -335.333 L 1654.025 -330 L 1661.025 -324.667 L 1670.691 -315.5 L 1683.025 -302.5 L 1695.358 -289.5 L 1705.858 -277 L 1714.525 -265 L 1723.191 -253 L 1725.191 -241.333 L 1720.525 -230 L 1715.191 -222 L 1709.025 -220.333 L 1702.025 -225 L 1695.025 -229.667 L 1686.858 -233.667 L 1677.525 -237 L 1668.191 -240.333 L 1657.858 -242.667 L 1646.525 -244 L 1635.191 -245.333 L 1618.191 -246 L 1595.525 -246 L 200.525 -246 L 185.191 -246 L 171.191 -247 L 158.525 -249 L 145.858 -251 L 136.025 -253.167 L 129.025 -255.5 L 122.025 -257.833 L 114.525 -261 L 106.525 -265 L 98.525 -269 L 90.025 -273.833 L 81.025 -279.5 L 72.025 -285.167 L 62.525 -293.167 L 52.525 -303.5 L 42.525 -313.833 L 32.358 -325.833 L 22.025 -339.5 L 11.691 -353.167 L 5.025 -362.667 L 2.025 -368 L -0.975 -373.333 L -0.642 -378.667 Z" fill="black" fill-opacity="0.25" stroke="black" stroke-width="4"/>
  <rect x="602" y="-936" width="993" height="493" fill="none" stroke="red" stroke-width="10" /><rect x="286" y="-761" width="272" height="224" fill="none" stroke="red" stroke-width="10" /><rect x="16" y="-761" width="272" height="224" fill="none" stroke="red" stroke-width="10" /><rect x="-1" y="-393" width="1726" height="173" fill="none" stroke="red" stroke-width="10" />
</svg>
