<svg xmlns="http://www.w3.org/2000/svg"
  viewBox="-50 -712 1392.825 539.579">
  <rect x="-50" y="-712" width="1392.825" height="539.579" fill="white"/>
  <path d="M 670.777 -660 L 693.444 -660 L 717.277 -659.833 L 742.277 -659.5 L 767.277 -659.167 L 790.111 -657.667 L 810.777 -655 L 824.777 -655 L 838.111 -638 L 850.777 -604 L 863.444 -570 L 881.111 -536 L 903.777 -502 L 911.777 -490 L 919.111 -483.667 L 925.777 -483 L 931.777 -481.667 L 936.444 -478.833 L 939.777 -474.5 L 943.111 -470.167 L 939.777 -466.333 L 929.777 -463 L 906.444 -459.667 L 883.111 -458.333 L 859.777 -459 L 836.444 -459.667 L 814.111 -461 L 792.777 -463 L 772.111 -469.667 L 757.444 -485.167 L 748.777 -509.5 L 740.111 -533.833 L 724.111 -569.667 L 700.777 -617 L 694.111 -627.667 L 682.777 -634.333 L 666.777 -637 L 656.111 -638.333 L 650.111 -642.5 L 648.777 -649.5 L 647.444 -656.5 L 654.777 -660 Z M 421.777 -662 L 441.777 -662 L 462.777 -661.667 L 484.777 -661 L 506.777 -660.333 L 526.444 -658.667 L 543.777 -656 L 556.444 -656 L 569.777 -638.5 L 583.777 -603.5 L 597.777 -568.5 L 614.111 -534.333 L 632.777 -501 L 639.444 -489 L 645.777 -482.333 L 651.777 -481 L 657.111 -479.667 L 661.277 -477 L 664.277 -473 L 667.277 -469 L 664.444 -465.333 L 655.777 -462 L 635.111 -458.667 L 614.611 -457.333 L 594.277 -458 L 573.944 -458.667 L 554.444 -460 L 535.777 -462 L 518.444 -468.667 L 504.777 -484.333 L 494.777 -509 L 484.777 -533.667 L 469.444 -570 L 448.777 -618 L 446.777 -620.667 L 443.111 -624.833 L 437.777 -630.5 L 432.444 -636.167 L 426.111 -639.667 L 418.777 -641 L 409.444 -642.333 L 404.111 -646 L 402.777 -652 L 401.444 -658 L 407.777 -661.333 Z M 2.777 -384 L 6.111 -389.333 L 9.944 -392.167 L 14.277 -392.5 L 18.611 -392.833 L 23.111 -391.667 L 27.777 -389 L 32.444 -386.333 L 38.444 -383.167 L 45.777 -379.5 L 53.111 -375.833 L 62.444 -372.833 L 73.777 -370.5 L 85.111 -368.167 L 101.111 -367 L 121.777 -367 L 1101.777 -367 L 1120.444 -367 L 1137.444 -365.5 L 1152.777 -362.5 L 1168.111 -359.5 L 1182.111 -354.667 L 1194.777 -348 L 1207.444 -341.333 L 1217.277 -335.333 L 1224.277 -330 L 1231.277 -324.667 L 1240.944 -315.5 L 1253.277 -302.5 L 1265.611 -289.5 L 1276.111 -277 L 1284.777 -265 L 1293.444 -253 L 1295.111 -241.333 L 1289.777 -230 L 1284.444 -222 L 1278.277 -220.333 L 1271.277 -225 L 1264.277 -229.667 L 1256.111 -233.667 L 1246.777 -237 L 1237.444 -240.333 L 1227.277 -242.667 L 1216.277 -244 L 1205.277 -245.333 L 1188.111 -246 L 1164.777 -246 L 199.777 -246 L 184.444 -246 L 170.444 -247 L 157.777 -249 L 145.111 -251 L 135.277 -253.167 L 128.277 -255.5 L 121.277 -257.833 L 113.777 -261 L 105.777 -265 L 97.777 -269 L 89.277 -273.833 L 80.277 -279.5 L 71.277 -285.167 L 61.777 -293.167 L 51.777 -303.5 L 41.777 -313.833 L 31.611 -325.833 L 21.277 -339.5 L 10.944 -353.167 L 4.444 -362.667 L 1.777 -368 L -0.889 -373.333 L -0.556 -378.667 Z" fill="black" fill-opacity="0.25" stroke="black" stroke-width="4"/>
  <rect x="647" y="-660" width="296" height="202" fill="none" stroke="red" stroke-width="10" /><rect x="401" y="-662" width="266" height="205" fill="none" stroke="red" stroke-width="10" /><rect x="-1" y="-393" width="1296" height="173" fill="none" stroke="red" stroke-width="10" />
</svg>
