<svg xmlns="http://www.w3.org/2000/svg"
  viewBox="-50.00005894218928 -442.55548054709203 1436.7544334076463 553.093878096314">
  <rect x="-50.00005894218928" y="-442.55548054709203" width="1436.7544334076463" height="553.093878096314" fill="white"/>
  <path d="M 742.77734375 -187.0 L 762.77734375 -187.0 L 783.77734375 -186.666992188 L 805.77734375 -186.0 L 827.77734375 -185.333007812 L 847.444335938 -183.333007812 L 864.77734375 -180.0 L 877.444335938 -180.0 L 890.77734375 -158.833007812 L 904.77734375 -116.5 L 918.77734375 -74.1669921875 L 935.111328125 -32.3330078125 L 953.77734375 9.0 L 959.77734375 23.0 L 966.111328125 30.6669921875 L 972.77734375 32.0 L 978.111328125 34.0 L 982.27734375 37.5 L 985.27734375 42.5 L 988.27734375 47.5 L 985.444335938 51.6669921875 L 976.77734375 55.0 L 956.111328125 59.0 L 935.444335938 60.8330078125 L 914.77734375 60.5 L 894.111328125 60.1669921875 L 874.444335938 58.3330078125 L 855.77734375 55.0 L 837.77734375 47.0 L 823.944335938 28.0 L 814.27734375 -2.0 L 804.611328125 -32.0 L 789.77734375 -76.0 L 769.77734375 -134.0 L 767.77734375 -137.333007812 L 764.111328125 -142.333007812 L 758.77734375 -149.0 L 753.444335938 -155.666992188 L 747.111328125 -160.0 L 739.77734375 -162.0 L 729.77734375 -164.0 L 724.27734375 -168.666992188 L 723.27734375 -176.0 L 722.27734375 -183.333007812 L 728.77734375 -187.0 Z M 1012.77734375 -187.0 L 1032.77734375 -187.0 L 1053.77734375 -186.666992188 L 1075.77734375 -186.0 L 1097.77734375 -185.333007812 L 1117.44433594 -183.333007812 L 1134.77734375 -180.0 L 1147.44433594 -180.0 L 1160.77734375 -158.833007812 L 1174.77734375 -116.5 L 1188.77734375 -74.1669921875 L 1205.44433594 -32.3330078125 L 1224.77734375 9.0 L 1230.77734375 23.0 L 1237.11132812 30.6669921875 L 1243.77734375 32.0 L 1249.11132812 34.0 L 1253.11132812 37.5 L 1255.77734375 42.5 L 1258.44433594 47.5 L 1255.44433594 51.6669921875 L 1246.77734375 55.0 L 1226.77734375 59.0 L 1206.27734375 60.8330078125 L 1185.27734375 60.5 L 1164.27734375 60.1669921875 L 1144.44433594 58.3330078125 L 1125.77734375 55.0 L 1108.44433594 47.0 L 1094.77734375 28.0 L 1084.77734375 -2.0 L 1074.77734375 -32.0 L 1059.77734375 -76.0 L 1039.77734375 -134.0 L 1037.77734375 -137.333007812 L 1034.11132812 -142.333007812 L 1028.77734375 -149.0 L 1023.44433594 -155.666992188 L 1017.11132812 -160.0 L 1009.77734375 -162.0 L 1000.44433594 -164.0 L 995.111328125 -168.666992188 L 993.77734375 -176.0 L 992.444335938 -183.333007812 L 998.77734375 -187.0 Z M 2.77734375 -384.0 L 6.111328125 -389.333007812 L 9.9443359375 -392.166992188 L 14.27734375 -392.5 L 18.611328125 -392.833007812 L 23.111328125 -391.666992188 L 27.77734375 -389.0 L 32.4443359375 -386.333007812 L 38.4443359375 -383.166992188 L 45.77734375 -379.5 L 53.111328125 -375.833007812 L 62.4443359375 -372.833007812 L 73.77734375 -370.5 L 85.111328125 -368.166992188 L 101.111328125 -367.0 L 121.77734375 -367.0 L 1145.77734375 -367.0 L 1164.44433594 -367.0 L 1181.44433594 -365.5 L 1196.77734375 -362.5 L 1212.11132812 -359.5 L 1226.11132812 -354.666992188 L 1238.77734375 -348.0 L 1251.44433594 -341.333007812 L 1261.27734375 -335.333007812 L 1268.27734375 -330.0 L 1275.27734375 -324.666992188 L 1284.77734375 -315.5 L 1296.77734375 -302.5 L 1308.77734375 -289.5 L 1319.27734375 -277.0 L 1328.27734375 -265.0 L 1337.27734375 -253.0 L 1339.11132812 -241.333007812 L 1333.77734375 -230.0 L 1328.44433594 -222.0 L 1322.27734375 -220.333007812 L 1315.27734375 -225.0 L 1308.27734375 -229.666992188 L 1300.11132812 -233.666992188 L 1290.77734375 -237.0 L 1281.44433594 -240.333007812 L 1271.27734375 -242.666992188 L 1260.27734375 -244.0 L 1249.27734375 -245.333007812 L 1232.11132812 -246.0 L 1208.77734375 -246.0 L 199.77734375 -246.0 L 184.444335938 -246.0 L 170.444335938 -247.0 L 157.77734375 -249.0 L 145.111328125 -251.0 L 135.27734375 -253.166992188 L 128.27734375 -255.5 L 121.27734375 -257.833007812 L 113.77734375 -261.0 L 105.77734375 -265.0 L 97.77734375 -269.0 L 89.27734375 -273.833007812 L 80.27734375 -279.5 L 71.27734375 -285.166992188 L 61.77734375 -293.166992188 L 51.77734375 -303.5 L 41.77734375 -313.833007812 L 31.611328125 -325.833007812 L 21.27734375 -339.5 L 10.9443359375 -353.166992188 L 4.4443359375 -362.666992188 L 1.77734375 -368.0 L -0.888671875 -373.333007812 L -0.5556640625 -378.666992188 Z" fill="black" fill-opacity="0.25" stroke="black" stroke-width="4.0"/>
  <rect x="722.0" y="-187.0" width="266.0" height="248.0" fill="none" stroke="red" stroke-width="10.0" /><rect x="992.0" y="-187.0" width="266.0" height="248.0" fill="none" stroke="red" stroke-width="10.0" /><rect x="-1.0" y="-393.0" width="1339.9999999999998" height="173.00000000000003" fill="none" stroke="red" stroke-width="10.0" />
</svg>
