<svg xmlns="http://www.w3.org/2000/svg"
  viewBox="-50.00001413104669 -841.5237694651898 2048.3603021870695 669.1028603497055">
  <rect x="-50.00001413104669" y="-841.5237694651898" width="2048.3603021870695" height="669.1028603497055" fill="white"/>
  <path d="M 1734.17382812 -472.0 L 1727.50683594 -476.666992188 L 1727.00683594 -481.333007812 L 1732.67382812 -486.0 L 1738.34082031 -490.666992188 L 1745.50683594 -493.0 L 1754.17382812 -493.0 L 1763.50683594 -493.0 L 1776.50683594 -501.333007812 L 1793.17382812 -518.0 L 1809.84082031 -534.666992188 L 1820.84082031 -555.333007812 L 1826.17382812 -580.0 L 1834.84082031 -621.333007812 L 1813.17382812 -655.333007812 L 1761.17382812 -682.0 L 1721.84082031 -701.333007812 L 1668.67382812 -716.333007812 L 1601.67382812 -727.0 L 1534.67382812 -737.666992188 L 1497.50683594 -744.333007812 L 1490.17382812 -747.0 L 1482.84082031 -749.666992188 L 1480.17382812 -753.833007812 L 1482.17382812 -759.5 L 1484.17382812 -765.166992188 L 1487.84082031 -768.0 L 1493.17382812 -768.0 L 1499.17382812 -768.0 L 1536.34082031 -763.0 L 1604.67382812 -753.0 L 1673.00683594 -743.0 L 1735.17382812 -727.333007812 L 1791.17382812 -706.0 L 1824.50683594 -692.666992188 L 1851.17382812 -679.5 L 1871.17382812 -666.5 L 1891.17382812 -653.5 L 1909.84082031 -635.666992188 L 1927.17382812 -613.0 L 1943.84082031 -590.333007812 L 1950.67382812 -568.0 L 1947.67382812 -546.0 L 1944.67382812 -524.0 L 1934.84082031 -507.0 L 1918.17382812 -495.0 L 1902.84082031 -483.666992188 L 1885.34082031 -476.0 L 1865.67382812 -472.0 L 1846.00683594 -468.0 L 1827.17382812 -466.0 L 1809.17382812 -466.0 L 1782.17382812 -466.0 L 1782.17382812 -466.0 L 1771.67382812 -466.0 L 1764.67382812 -466.0 L 1752.17382812 -468.0 Z M 19.173828125 -723.0 L 39.173828125 -723.0 L 60.173828125 -722.666992188 L 82.173828125 -722.0 L 104.173828125 -721.333007812 L 123.840820312 -719.333007812 L 141.173828125 -716.0 L 153.840820312 -716.0 L 168.340820312 -699.0 L 184.673828125 -665.0 L 201.006835938 -631.0 L 218.506835938 -593.666992188 L 237.173828125 -553.0 L 243.173828125 -539.0 L 249.506835938 -531.0 L 256.173828125 -529.0 L 260.840820312 -527.0 L 264.840820312 -523.5 L 268.173828125 -518.5 L 271.506835938 -513.5 L 268.506835938 -509.0 L 259.173828125 -505.0 L 239.173828125 -501.0 L 218.840820312 -499.333007812 L 198.173828125 -500.0 L 177.506835938 -500.666992188 L 157.840820312 -502.333007812 L 139.173828125 -505.0 L 121.840820312 -513.0 L 107.006835938 -528.0 L 94.673828125 -550.0 L 82.3408203125 -572.0 L 66.173828125 -611.666992188 L 46.173828125 -669.0 L 44.8408203125 -672.333007812 L 41.173828125 -677.5 L 35.173828125 -684.5 L 29.173828125 -691.5 L 22.8408203125 -695.666992188 L 16.173828125 -697.0 L 6.8408203125 -698.333007812 L 1.5068359375 -703.0 L 0.173828125 -711.0 L -1.1591796875 -719.0 L 5.173828125 -723.0 Z M 290.173828125 -723.0 L 310.173828125 -723.0 L 331.006835938 -722.666992188 L 352.673828125 -722.0 L 374.340820312 -721.333007812 L 394.173828125 -719.333007812 L 412.173828125 -716.0 L 424.840820312 -716.0 L 439.173828125 -699.0 L 455.173828125 -665.0 L 471.173828125 -631.0 L 488.506835938 -593.666992188 L 507.173828125 -553.0 L 513.173828125 -539.0 L 519.506835938 -531.0 L 526.173828125 -529.0 L 531.506835938 -527.0 L 535.673828125 -523.5 L 538.673828125 -518.5 L 541.673828125 -513.5 L 538.840820312 -509.0 L 530.173828125 -505.0 L 509.506835938 -501.0 L 488.840820312 -499.333007812 L 468.173828125 -500.0 L 447.506835938 -500.666992188 L 427.840820312 -502.333007812 L 409.173828125 -505.0 L 391.173828125 -513.0 L 376.340820312 -528.0 L 364.673828125 -550.0 L 353.006835938 -572.0 L 336.840820312 -611.666992188 L 316.173828125 -669.0 L 314.173828125 -672.333007812 L 310.340820312 -677.5 L 304.673828125 -684.5 L 299.006835938 -691.5 L 292.840820312 -695.666992188 L 286.173828125 -697.0 L 276.840820312 -698.333007812 L 271.673828125 -703.0 L 270.673828125 -711.0 L 269.673828125 -719.0 L 276.173828125 -723.0 Z M 25.673828125 -384.0 L 29.3408203125 -389.333007812 L 33.173828125 -392.166992188 L 37.173828125 -392.5 L 41.173828125 -392.833007812 L 45.673828125 -391.666992188 L 50.673828125 -389.0 L 55.673828125 -386.333007812 L 61.673828125 -383.166992188 L 68.673828125 -379.5 L 75.673828125 -375.833007812 L 85.0068359375 -372.833007812 L 96.673828125 -370.5 L 108.340820312 -368.166992188 L 124.173828125 -367.0 L 144.173828125 -367.0 L 1652.17382812 -367.0 L 1670.84082031 -367.0 L 1687.84082031 -365.5 L 1703.17382812 -362.5 L 1718.50683594 -359.5 L 1732.50683594 -354.666992188 L 1745.17382812 -348.0 L 1757.84082031 -341.333007812 L 1767.67382812 -335.333007812 L 1774.67382812 -330.0 L 1781.67382812 -324.666992188 L 1791.34082031 -315.5 L 1803.67382812 -302.5 L 1816.00683594 -289.5 L 1826.50683594 -277.0 L 1835.17382812 -265.0 L 1843.84082031 -253.0 L 1845.50683594 -241.333007812 L 1840.17382812 -230.0 L 1834.84082031 -222.0 L 1828.67382812 -220.333007812 L 1821.67382812 -225.0 L 1814.67382812 -229.666992188 L 1806.50683594 -233.666992188 L 1797.17382812 -237.0 L 1787.84082031 -240.333007812 L 1777.67382812 -242.666992188 L 1766.67382812 -244.0 L 1755.67382812 -245.333007812 L 1738.50683594 -246.0 L 1715.17382812 -246.0 L 222.173828125 -246.0 L 206.840820312 -246.0 L 193.006835938 -247.0 L 180.673828125 -249.0 L 168.340820312 -251.0 L 158.506835938 -253.166992188 L 151.173828125 -255.5 L 143.840820312 -257.833007812 L 136.340820312 -261.0 L 128.673828125 -265.0 L 121.006835938 -269.0 L 112.673828125 -273.833007812 L 103.673828125 -279.5 L 94.673828125 -285.166992188 L 85.173828125 -293.166992188 L 75.173828125 -303.5 L 65.173828125 -313.833007812 L 55.0068359375 -325.833007812 L 44.673828125 -339.5 L 34.3408203125 -353.166992188 L 27.673828125 -362.666992188 L 24.673828125 -368.0 L 21.673828125 -373.333007812 L 22.0068359375 -378.666992188 Z M 892.173828125 -465.0 L 869.506835938 -456.333007812 L 831.173828125 -457.0 L 777.173828125 -467.0 L 745.840820312 -475.0 L 718.006835938 -485.5 L 693.673828125 -498.5 L 669.340820312 -511.5 L 650.840820312 -534.333007812 L 638.173828125 -567.0 L 629.506835938 -598.333007812 L 626.506835938 -623.5 L 629.173828125 -642.5 L 631.840820312 -661.5 L 642.173828125 -683.333007812 L 660.173828125 -708.0 L 677.506835938 -728.666992188 L 697.673828125 -744.333007812 L 720.673828125 -755.0 L 743.673828125 -765.666992188 L 771.840820312 -774.666992188 L 805.173828125 -782.0 L 838.506835938 -788.666992188 L 865.506835938 -791.833007812 L 886.173828125 -791.5 L 906.840820312 -791.166992188 L 929.173828125 -790.333007812 L 953.173828125 -789.0 L 977.173828125 -788.333007812 L 999.506835938 -786.666992188 L 1020.17382812 -784.0 L 1040.84082031 -781.333007812 L 1065.84082031 -775.333007812 L 1095.17382812 -766.0 L 1143.84082031 -752.666992188 L 1191.50683594 -734.333007812 L 1238.17382812 -711.0 L 1264.84082031 -697.666992188 L 1292.84082031 -683.5 L 1322.17382812 -668.5 L 1351.50683594 -653.5 L 1384.50683594 -636.0 L 1421.17382812 -616.0 L 1437.84082031 -606.0 L 1456.00683594 -595.166992188 L 1475.67382812 -583.5 L 1495.34082031 -571.833007812 L 1516.50683594 -560.0 L 1539.17382812 -548.0 L 1556.50683594 -537.333007812 L 1573.67382812 -526.5 L 1590.67382812 -515.5 L 1607.67382812 -504.5 L 1614.84082031 -493.5 L 1612.17382812 -482.5 L 1609.50683594 -471.5 L 1603.00683594 -466.333007812 L 1592.67382812 -467.0 L 1582.34082031 -467.666992188 L 1550.34082031 -467.333007812 L 1496.67382812 -466.0 L 1443.00683594 -464.666992188 L 1396.17382812 -464.333007812 L 1356.17382812 -465.0 L 1340.17382812 -477.0 L 1340.34082031 -485.5 L 1356.67382812 -490.5 L 1373.00683594 -495.5 L 1385.17382812 -502.0 L 1393.17382812 -510.0 L 1407.84082031 -525.333007812 L 1414.34082031 -537.5 L 1412.67382812 -546.5 L 1411.00683594 -555.5 L 1408.67382812 -562.5 L 1405.67382812 -567.5 L 1402.67382812 -572.5 L 1397.84082031 -578.0 L 1391.17382812 -584.0 L 1384.50683594 -590.0 L 1368.34082031 -601.833007812 L 1342.67382812 -619.5 L 1317.00683594 -637.166992188 L 1284.84082031 -656.0 L 1246.17382812 -676.0 L 1212.17382812 -691.333007812 L 1185.17382812 -703.666992188 L 1165.17382812 -713.0 L 1145.17382812 -722.333007812 L 1113.17382812 -733.0 L 1069.17382812 -745.0 L 1036.50683594 -751.666992188 L 1003.17382812 -755.666992188 L 969.173828125 -757.0 L 935.173828125 -758.333007812 L 900.840820312 -753.333007812 L 866.173828125 -742.0 L 841.506835938 -731.333007812 L 824.173828125 -722.166992188 L 814.173828125 -714.5 L 804.173828125 -706.833007812 L 793.173828125 -693.666992188 L 781.173828125 -675.0 L 770.506835938 -657.0 L 764.340820312 -641.833007812 L 762.673828125 -629.5 L 761.006835938 -617.166992188 L 760.506835938 -603.0 L 761.173828125 -587.0 L 761.840820312 -570.333007812 L 763.840820312 -558.166992188 L 767.173828125 -550.5 L 770.506835938 -542.833007812 L 774.840820312 -535.166992188 L 780.173828125 -527.5 L 785.506835938 -519.833007812 L 792.173828125 -513.0 L 800.173828125 -507.0 L 808.173828125 -501.0 L 820.506835938 -496.666992188 L 837.173828125 -494.0 L 853.840820312 -491.333007812 L 870.173828125 -489.0 L 886.173828125 -487.0 L 892.840820312 -485.666992188 L 897.173828125 -482.666992188 L 899.173828125 -478.0 L 901.173828125 -473.333007812 L 898.840820312 -469.0 Z" fill="black" fill-opacity="0.25" stroke="black" stroke-width="4.0"/>
  <rect x="1480.0" y="-768.0" width="471.0000000000001" height="302.0" fill="none" stroke="red" stroke-width="10.0" /><rect x="-1.0" y="-723.0" width="273.0" height="223.99999999999997" fill="none" stroke="red" stroke-width="10.0" /><rect x="270.0" y="-723.0" width="272.0" height="223.99999999999997" fill="none" stroke="red" stroke-width="10.0" /><rect x="22.0" y="-393.0" width="1824.0" height="173.00000000000003" fill="none" stroke="red" stroke-width="10.0" /><rect x="627.0" y="-792.0" width="988.0" height="336.0" fill="none" stroke="red" stroke-width="10.0" />
</svg>
