<svg xmlns="http://www.w3.org/2000/svg"
  viewBox="-50.000390625 -901.5216985344719 1911.5770307204568 729.1007894189875">
  <rect x="-50.000390625" y="-901.5216985344719" width="1911.5770307204568" height="729.1007894189875" fill="white"/>
  <path d="M 19.599609375 -729.0 L 39.599609375 -729.0 L 60.599609375 -728.666992188 L 82.599609375 -728.0 L 104.599609375 -727.333007812 L 124.266601562 -725.333007812 L 141.599609375 -722.0 L 154.266601562 -722.0 L 168.599609375 -705.0 L 184.599609375 -671.0 L 200.599609375 -637.0 L 217.932617188 -599.666992188 L 236.599609375 -559.0 L 242.599609375 -545.0 L 248.932617188 -537.0 L 255.599609375 -535.0 L 260.932617188 -533.0 L 265.099609375 -529.5 L 268.099609375 -524.5 L 271.099609375 -519.5 L 268.266601562 -515.0 L 259.599609375 -511.0 L 238.932617188 -507.0 L 218.266601562 -505.333007812 L 197.599609375 -506.0 L 176.932617188 -506.666992188 L 157.266601562 -508.333007812 L 138.599609375 -511.0 L 120.599609375 -519.0 L 105.766601562 -534.0 L 94.099609375 -556.0 L 82.4326171875 -578.0 L 66.2666015625 -617.666992188 L 45.599609375 -675.0 L 43.599609375 -678.333007812 L 39.9326171875 -683.5 L 34.599609375 -690.5 L 29.2666015625 -697.5 L 22.9326171875 -701.666992188 L 15.599609375 -703.0 L 6.2666015625 -704.333007812 L 1.099609375 -709.0 L 0.099609375 -717.0 L -0.900390625 -725.0 L 5.599609375 -729.0 Z M 289.599609375 -729.0 L 309.599609375 -729.0 L 330.599609375 -728.666992188 L 352.599609375 -728.0 L 374.599609375 -727.333007812 L 394.266601562 -725.333007812 L 411.599609375 -722.0 L 424.266601562 -722.0 L 438.599609375 -705.0 L 454.599609375 -671.0 L 470.599609375 -637.0 L 488.266601562 -599.666992188 L 507.599609375 -559.0 L 513.599609375 -545.0 L 519.932617188 -537.0 L 526.599609375 -535.0 L 531.266601562 -533.0 L 535.099609375 -529.5 L 538.099609375 -524.5 L 541.099609375 -519.5 L 538.266601562 -515.0 L 529.599609375 -511.0 L 509.599609375 -507.0 L 489.099609375 -505.333007812 L 468.099609375 -506.0 L 447.099609375 -506.666992188 L 427.266601562 -508.333007812 L 408.599609375 -511.0 L 391.266601562 -519.0 L 376.599609375 -534.0 L 364.599609375 -556.0 L 352.599609375 -578.0 L 336.266601562 -617.666992188 L 315.599609375 -675.0 L 314.266601562 -678.333007812 L 310.766601562 -683.5 L 305.099609375 -690.5 L 299.432617188 -697.5 L 293.266601562 -701.666992188 L 286.599609375 -703.0 L 277.266601562 -704.333007812 L 271.932617188 -709.0 L 270.599609375 -717.0 L 269.266601562 -725.0 L 275.599609375 -729.0 Z M 8.599609375 -384.0 L 11.93359375 -389.333007812 L 15.7666015625 -392.166992188 L 20.099609375 -392.5 L 24.43359375 -392.833007812 L 28.93359375 -391.666992188 L 33.599609375 -389.0 L 38.2666015625 -386.333007812 L 44.2666015625 -383.166992188 L 51.599609375 -379.5 L 58.93359375 -375.833007812 L 68.2666015625 -372.833007812 L 79.599609375 -370.5 L 90.93359375 -368.166992188 L 106.93359375 -367.0 L 127.599609375 -367.0 L 1619.59960938 -367.0 L 1638.26660156 -367.0 L 1655.43359375 -365.5 L 1671.09960938 -362.5 L 1686.76660156 -359.5 L 1700.93359375 -354.666992188 L 1713.59960938 -348.0 L 1726.26660156 -341.333007812 L 1736.09960938 -335.333007812 L 1743.09960938 -330.0 L 1750.09960938 -324.666992188 L 1759.59960938 -315.5 L 1771.59960938 -302.5 L 1783.59960938 -289.5 L 1794.09960938 -277.0 L 1803.09960938 -265.0 L 1812.09960938 -253.0 L 1813.93359375 -241.333007812 L 1808.59960938 -230.0 L 1803.26660156 -222.0 L 1797.09960938 -220.333007812 L 1790.09960938 -225.0 L 1783.09960938 -229.666992188 L 1774.93359375 -233.666992188 L 1765.59960938 -237.0 L 1756.26660156 -240.333007812 L 1745.93359375 -242.666992188 L 1734.59960938 -244.0 L 1723.26660156 -245.333007812 L 1706.26660156 -246.0 L 1683.59960938 -246.0 L 205.599609375 -246.0 L 190.266601562 -246.0 L 176.266601562 -247.0 L 163.599609375 -249.0 L 150.93359375 -251.0 L 141.099609375 -253.166992188 L 134.099609375 -255.5 L 127.099609375 -257.833007812 L 119.599609375 -261.0 L 111.599609375 -265.0 L 103.599609375 -269.0 L 95.099609375 -273.833007812 L 86.099609375 -279.5 L 77.099609375 -285.166992188 L 67.599609375 -293.166992188 L 57.599609375 -303.5 L 47.599609375 -313.833007812 L 37.43359375 -325.833007812 L 27.099609375 -339.5 L 16.7666015625 -353.166992188 L 10.2666015625 -362.666992188 L 7.599609375 -368.0 L 4.93359375 -373.333007812 L 5.2666015625 -378.666992188 Z M 915.599609375 -487.0 L 890.266601562 -477.666992188 L 847.266601562 -478.333007812 L 786.599609375 -489.0 L 751.266601562 -497.666992188 L 720.099609375 -509.333007812 L 693.099609375 -524.0 L 666.099609375 -538.666992188 L 645.266601562 -564.333007812 L 630.599609375 -601.0 L 620.599609375 -636.333007812 L 617.266601562 -664.5 L 620.599609375 -685.5 L 623.932617188 -706.5 L 635.599609375 -731.0 L 655.599609375 -759.0 L 674.932617188 -782.333007812 L 697.432617188 -799.833007812 L 723.099609375 -811.5 L 748.766601562 -823.166992188 L 780.266601562 -833.0 L 817.599609375 -841.0 L 854.932617188 -848.333007812 L 885.266601562 -851.833007812 L 908.599609375 -851.5 L 931.932617188 -851.166992188 L 957.266601562 -850.666992188 L 984.599609375 -850.0 L 1011.26660156 -848.666992188 L 1036.09960938 -846.5 L 1059.09960938 -843.5 L 1082.09960938 -840.5 L 1109.93261719 -834.0 L 1142.59960938 -824.0 L 1196.59960938 -809.333007812 L 1249.93261719 -788.666992188 L 1302.59960938 -762.0 L 1331.93261719 -747.333007812 L 1363.09960938 -731.666992188 L 1396.09960938 -715.0 L 1429.09960938 -698.333007812 L 1465.93261719 -678.333007812 L 1506.59960938 -655.0 L 1525.26660156 -643.666992188 L 1545.76660156 -631.5 L 1568.09960938 -618.5 L 1590.43261719 -605.5 L 1614.26660156 -592.333007812 L 1639.59960938 -579.0 L 1658.93261719 -567.0 L 1678.09960938 -555.0 L 1697.09960938 -543.0 L 1716.09960938 -531.0 L 1724.09960938 -518.833007812 L 1721.09960938 -506.5 L 1718.09960938 -494.166992188 L 1710.93261719 -488.333007812 L 1699.59960938 -489.0 L 1688.26660156 -489.666992188 L 1652.43261719 -489.333007812 L 1592.09960938 -488.0 L 1531.76660156 -486.666992188 L 1479.26660156 -486.333007812 L 1434.59960938 -487.0 L 1416.59960938 -500.333007812 L 1416.76660156 -509.833007812 L 1435.09960938 -515.5 L 1453.43261719 -521.166992188 L 1467.26660156 -528.333007812 L 1476.59960938 -537.0 L 1493.26660156 -554.333007812 L 1500.59960938 -568.166992188 L 1498.59960938 -578.5 L 1496.59960938 -588.833007812 L 1493.76660156 -596.833007812 L 1490.09960938 -602.5 L 1486.43261719 -608.166992188 L 1480.93261719 -614.166992188 L 1473.59960938 -620.5 L 1466.26660156 -626.833007812 L 1448.09960938 -640.0 L 1419.09960938 -660.0 L 1390.09960938 -680.0 L 1354.26660156 -701.0 L 1311.59960938 -723.0 L 1272.93261719 -739.666992188 L 1242.59960938 -753.333007812 L 1220.59960938 -764.0 L 1198.59960938 -774.666992188 L 1162.93261719 -786.666992188 L 1113.59960938 -800.0 L 1076.93261719 -807.333007812 L 1039.59960938 -811.833007812 L 1001.59960938 -813.5 L 963.599609375 -815.166992188 L 924.932617188 -809.666992188 L 885.599609375 -797.0 L 858.266601562 -785.0 L 839.099609375 -774.666992188 L 828.099609375 -766.0 L 817.099609375 -757.333007812 L 804.599609375 -742.666992188 L 790.599609375 -722.0 L 778.599609375 -702.0 L 771.766601562 -685.0 L 770.099609375 -671.0 L 768.432617188 -657.0 L 768.266601562 -641.0 L 769.599609375 -623.0 L 770.266601562 -604.333007812 L 772.432617188 -590.833007812 L 776.099609375 -582.5 L 779.766601562 -574.166992188 L 784.432617188 -565.666992188 L 790.099609375 -557.0 L 795.766601562 -548.333007812 L 803.099609375 -540.5 L 812.099609375 -533.5 L 821.099609375 -526.5 L 834.932617188 -521.5 L 853.599609375 -518.5 L 872.266601562 -515.5 L 890.599609375 -513.333007812 L 908.599609375 -512.0 L 916.599609375 -510.666992188 L 921.766601562 -507.333007812 L 924.099609375 -502.0 L 926.432617188 -496.666992188 L 923.599609375 -491.666992188 Z M 1121.59960938 -426.0 L 1114.93261719 -431.333007812 L 1114.43261719 -436.333007812 L 1120.09960938 -441.0 L 1125.76660156 -445.666992188 L 1133.26660156 -448.0 L 1142.59960938 -448.0 L 1152.59960938 -448.0 L 1166.26660156 -456.666992188 L 1183.59960938 -474.0 L 1200.93261719 -491.333007812 L 1212.59960938 -513.333007812 L 1218.59960938 -540.0 L 1227.93261719 -584.0 L 1204.93261719 -620.0 L 1149.59960938 -648.0 L 1128.26660156 -658.0 L 1101.59960938 -667.0 L 1069.59960938 -675.0 L 1037.59960938 -683.0 L 1005.93261719 -690.166992188 L 974.599609375 -696.5 L 943.266601562 -702.833007812 L 915.599609375 -707.833007812 L 891.599609375 -711.5 L 867.599609375 -715.166992188 L 853.599609375 -718.0 L 849.599609375 -720.0 L 840.932617188 -723.333007812 L 837.599609375 -727.666992188 L 839.599609375 -733.0 L 841.599609375 -738.333007812 L 845.932617188 -741.0 L 852.599609375 -741.0 L 855.932617188 -741.0 L 869.432617188 -739.666992188 L 893.099609375 -737.0 L 916.766601562 -734.333007812 L 945.099609375 -730.166992188 L 978.099609375 -724.5 L 1011.09960938 -718.833007812 L 1045.76660156 -711.833007812 L 1082.09960938 -703.5 L 1118.43261719 -695.166992188 L 1151.59960938 -685.0 L 1181.59960938 -673.0 L 1216.93261719 -659.0 L 1245.26660156 -645.0 L 1266.59960938 -631.0 L 1287.93261719 -617.0 L 1307.26660156 -598.333007812 L 1324.59960938 -575.0 L 1341.93261719 -551.0 L 1349.26660156 -527.333007812 L 1346.59960938 -504.0 L 1343.93261719 -480.666992188 L 1333.93261719 -462.333007812 L 1316.59960938 -449.0 L 1300.59960938 -437.0 L 1281.93261719 -429.0 L 1260.59960938 -425.0 L 1239.26660156 -421.0 L 1219.26660156 -419.0 L 1200.59960938 -419.0 L 1181.93261719 -419.0 L 1168.76660156 -419.166992188 L 1161.09960938 -419.5 L 1153.43261719 -419.833007812 L 1140.26660156 -422.0 Z" fill="black" fill-opacity="0.25" stroke="black" stroke-width="4.0"/>
  <rect x="-1.0" y="-729.0" width="272.0" height="223.99999999999997" fill="none" stroke="red" stroke-width="10.0" /><rect x="269.0" y="-729.0" width="272.0" height="223.99999999999997" fill="none" stroke="red" stroke-width="10.0" /><rect x="5.0" y="-393.0" width="1809.0000000000002" height="173.00000000000003" fill="none" stroke="red" stroke-width="10.0" /><rect x="617.0" y="-852.0" width="1107.0" height="374.0" fill="none" stroke="red" stroke-width="10.0" /><rect x="838.0" y="-741.0" width="511.0" height="322.0" fill="none" stroke="red" stroke-width="10.0" />
</svg>
