<svg xmlns="http://www.w3.org/2000/svg"
  viewBox="-49.999718141688184 -985.9091437404975 1822.974664433455 813.4882346250131">
  <rect x="-49.999718141688184" y="-985.9091437404975" width="1822.974664433455" height="813.4882346250131" fill="white"/>
  <path d="M 1439.52539062 -530.0 L 1448.52539062 -492.0 L 1448.52539062 -489.333007812 L 1452.02539062 -482.833007812 L 1459.02539062 -472.5 L 1466.02539062 -462.166992188 L 1469.52539062 -455.666992188 L 1469.52539062 -453.0 L 1469.52539062 -450.333007812 L 1464.02539062 -448.0 L 1453.02539062 -446.0 L 1442.02539062 -444.0 L 1434.52539062 -443.0 L 1430.52539062 -443.0 L 1369.52539062 -443.0 L 1361.52539062 -443.0 L 1354.02539062 -448.666992188 L 1347.02539062 -460.0 L 1340.02539062 -471.333007812 L 1335.52539062 -482.0 L 1333.52539062 -492.0 L 1325.52539062 -531.0 L 1247.52539062 -531.0 L 1175.85839844 -534.0 L 1110.52539062 -540.0 L 1045.19238281 -546.0 L 998.858398438 -551.333007812 L 971.525390625 -556.0 L 920.858398438 -564.0 L 879.025390625 -578.0 L 846.025390625 -598.0 L 813.025390625 -618.0 L 791.192382812 -640.666992188 L 780.525390625 -666.0 L 775.192382812 -678.666992188 L 765.525390625 -697.5 L 751.525390625 -722.5 L 737.525390625 -747.5 L 722.858398438 -772.666992188 L 707.525390625 -798.0 L 692.192382812 -823.333007812 L 677.692382812 -846.0 L 664.025390625 -866.0 L 650.358398438 -886.0 L 640.858398438 -897.333007812 L 635.525390625 -900.0 L 608.192382812 -909.333007812 L 602.192382812 -919.333007812 L 617.525390625 -930.0 L 650.858398438 -932.666992188 L 682.858398438 -934.5 L 713.525390625 -935.5 L 744.192382812 -936.5 L 775.525390625 -935.666992188 L 807.525390625 -933.0 L 839.525390625 -931.0 L 862.358398438 -912.666992188 L 876.025390625 -878.0 L 889.692382812 -843.333007812 L 903.525390625 -798.0 L 917.525390625 -742.0 L 931.525390625 -686.0 L 948.692382812 -647.833007812 L 969.025390625 -627.5 L 989.358398438 -607.166992188 L 1024.52539062 -590.333007812 L 1074.52539062 -577.0 L 1102.52539062 -569.0 L 1136.52539062 -564.0 L 1176.52539062 -562.0 L 1216.52539062 -560.0 L 1264.85839844 -559.333007812 L 1321.52539062 -560.0 L 1309.52539062 -629.0 L 1308.85839844 -632.333007812 L 1305.52539062 -636.833007812 L 1299.52539062 -642.5 L 1293.52539062 -648.166992188 L 1290.52539062 -652.333007812 L 1290.52539062 -655.0 L 1290.52539062 -659.0 L 1295.85839844 -661.666992188 L 1306.52539062 -663.0 L 1317.19238281 -664.333007812 L 1324.85839844 -665.0 L 1329.52539062 -665.0 L 1390.52539062 -665.0 L 1397.85839844 -665.0 L 1405.02539062 -659.833007812 L 1412.02539062 -649.5 L 1419.02539062 -639.166992188 L 1423.85839844 -628.0 L 1426.52539062 -616.0 L 1436.52539062 -561.0 L 1481.19238281 -561.666992188 L 1511.52539062 -563.166992188 L 1527.52539062 -565.5 L 1543.52539062 -567.833007812 L 1561.19238281 -570.333007812 L 1580.52539062 -573.0 L 1587.85839844 -572.333007812 L 1592.19238281 -569.0 L 1593.52539062 -563.0 L 1594.85839844 -557.0 L 1593.19238281 -551.666992188 L 1588.52539062 -547.0 L 1581.85839844 -541.666992188 L 1568.19238281 -537.5 L 1547.52539062 -534.5 L 1526.85839844 -531.5 L 1490.85839844 -530.0 Z M 306.525390625 -761.0 L 326.525390625 -761.0 L 347.525390625 -760.666992188 L 369.525390625 -760.0 L 391.525390625 -759.333007812 L 411.192382812 -757.333007812 L 428.525390625 -754.0 L 441.192382812 -754.0 L 455.525390625 -737.0 L 471.525390625 -703.0 L 487.525390625 -669.0 L 505.192382812 -631.666992188 L 524.525390625 -591.0 L 530.525390625 -577.0 L 536.858398438 -569.0 L 543.525390625 -567.0 L 548.858398438 -565.0 L 552.858398438 -561.5 L 555.525390625 -556.5 L 558.192382812 -551.5 L 555.525390625 -547.0 L 547.525390625 -543.0 L 526.858398438 -539.0 L 506.192382812 -537.333007812 L 485.525390625 -538.0 L 464.858398438 -538.666992188 L 444.858398438 -540.333007812 L 425.525390625 -543.0 L 408.192382812 -551.0 L 393.525390625 -566.0 L 381.525390625 -588.0 L 369.525390625 -610.0 L 353.525390625 -649.666992188 L 333.525390625 -707.0 L 331.525390625 -710.333007812 L 327.692382812 -715.5 L 322.025390625 -722.5 L 316.358398438 -729.5 L 310.192382812 -733.666992188 L 303.525390625 -735.0 L 294.192382812 -736.333007812 L 288.858398438 -741.0 L 287.525390625 -749.0 L 286.192382812 -757.0 L 292.525390625 -761.0 Z M 36.525390625 -761.0 L 56.525390625 -761.0 L 77.525390625 -760.666992188 L 99.525390625 -760.0 L 121.525390625 -759.333007812 L 141.192382812 -757.333007812 L 158.525390625 -754.0 L 171.192382812 -754.0 L 185.525390625 -737.0 L 201.525390625 -703.0 L 217.525390625 -669.0 L 235.192382812 -631.666992188 L 254.525390625 -591.0 L 259.858398438 -577.0 L 266.192382812 -569.0 L 273.525390625 -567.0 L 278.192382812 -565.0 L 282.025390625 -561.5 L 285.025390625 -556.5 L 288.025390625 -551.5 L 285.192382812 -547.0 L 276.525390625 -543.0 L 256.525390625 -539.0 L 236.025390625 -537.333007812 L 215.025390625 -538.0 L 194.025390625 -538.666992188 L 174.192382812 -540.333007812 L 155.525390625 -543.0 L 138.192382812 -551.0 L 123.525390625 -566.0 L 111.525390625 -588.0 L 99.525390625 -610.0 L 83.1923828125 -649.666992188 L 62.525390625 -707.0 L 60.525390625 -710.333007812 L 56.8583984375 -715.5 L 51.525390625 -722.5 L 46.1923828125 -729.5 L 39.8583984375 -733.666992188 L 32.525390625 -735.0 L 23.1923828125 -736.333007812 L 18.025390625 -741.0 L 17.025390625 -749.0 L 16.025390625 -757.0 L 22.525390625 -761.0 Z M 3.025390625 -384.0 L 6.69140625 -389.333007812 L 10.525390625 -392.166992188 L 14.525390625 -392.5 L 18.525390625 -392.833007812 L 23.025390625 -391.666992188 L 28.025390625 -389.0 L 33.025390625 -386.333007812 L 39.19140625 -383.166992188 L 46.525390625 -379.5 L 53.8583984375 -375.833007812 L 63.19140625 -372.833007812 L 74.525390625 -370.5 L 85.8583984375 -368.166992188 L 101.858398438 -367.0 L 122.525390625 -367.0 L 1531.52539062 -367.0 L 1550.19140625 -367.0 L 1567.19140625 -365.5 L 1582.52539062 -362.5 L 1597.85839844 -359.5 L 1611.85839844 -354.666992188 L 1624.52539062 -348.0 L 1637.19140625 -341.333007812 L 1647.02539062 -335.333007812 L 1654.02539062 -330.0 L 1661.02539062 -324.666992188 L 1670.69140625 -315.5 L 1683.02539062 -302.5 L 1695.35839844 -289.5 L 1705.85839844 -277.0 L 1714.52539062 -265.0 L 1723.19140625 -253.0 L 1725.19140625 -241.333007812 L 1720.52539062 -230.0 L 1715.19140625 -222.0 L 1709.02539062 -220.333007812 L 1702.02539062 -225.0 L 1695.02539062 -229.666992188 L 1686.85839844 -233.666992188 L 1677.52539062 -237.0 L 1668.19140625 -240.333007812 L 1657.85839844 -242.666992188 L 1646.52539062 -244.0 L 1635.19140625 -245.333007812 L 1618.19140625 -246.0 L 1595.52539062 -246.0 L 200.525390625 -246.0 L 185.19140625 -246.0 L 171.19140625 -247.0 L 158.525390625 -249.0 L 145.858398438 -251.0 L 136.025390625 -253.166992188 L 129.025390625 -255.5 L 122.025390625 -257.833007812 L 114.525390625 -261.0 L 106.525390625 -265.0 L 98.525390625 -269.0 L 90.025390625 -273.833007812 L 81.025390625 -279.5 L 72.025390625 -285.166992188 L 62.525390625 -293.166992188 L 52.525390625 -303.5 L 42.525390625 -313.833007812 L 32.3583984375 -325.833007812 L 22.025390625 -339.5 L 11.69140625 -353.166992188 L 5.025390625 -362.666992188 L 2.025390625 -368.0 L -0.974609375 -373.333007812 L -0.6416015625 -378.666992188 Z" fill="black" fill-opacity="0.25" stroke="black" stroke-width="4.0"/>
  <rect x="602.0" y="-936.0" width="993.0" height="493.00000000000006" fill="none" stroke="red" stroke-width="10.0" /><rect x="286.0" y="-761.0" width="272.00000000000006" height="223.99999999999997" fill="none" stroke="red" stroke-width="10.0" /><rect x="16.0" y="-761.0" width="271.99999999999994" height="223.99999999999997" fill="none" stroke="red" stroke-width="10.0" /><rect x="-1.0" y="-393.0" width="1726.0" height="173.00000000000003" fill="none" stroke="red" stroke-width="10.0" />
</svg>
