<svg xmlns="http://www.w3.org/2000/svg"
  viewBox="-50.00005894218928 -1388.0 1517.9998071225464 1215.5790908845156">
  <rect x="-50.00005894218928" y="-1388.0" width="1517.9998071225464" height="1215.5790908845156" fill="white"/>
  <path d="M 409.77734375 -697.0 L 429.77734375 -697.0 L 450.611328125 -696.666992188 L 472.27734375 -696.0 L 493.944335938 -695.333007812 L 513.77734375 -693.333007812 L 531.77734375 -690.0 L 544.444335938 -690.0 L 557.611328125 -668.666992188 L 571.27734375 -626.0 L 584.944335938 -583.333007812 L 601.444335938 -541.666992188 L 620.77734375 -501.0 L 626.77734375 -487.0 L 633.111328125 -479.0 L 639.77734375 -477.0 L 645.111328125 -475.0 L 649.111328125 -471.5 L 651.77734375 -466.5 L 654.444335938 -461.5 L 651.77734375 -457.0 L 643.77734375 -453.0 L 623.111328125 -449.0 L 602.444335938 -447.333007812 L 581.77734375 -448.0 L 561.111328125 -448.666992188 L 541.444335938 -450.333007812 L 522.77734375 -453.0 L 504.77734375 -461.0 L 490.944335938 -480.166992188 L 481.27734375 -510.5 L 471.611328125 -540.833007812 L 456.444335938 -585.0 L 435.77734375 -643.0 L 433.77734375 -646.333007812 L 430.111328125 -651.5 L 424.77734375 -658.5 L 419.444335938 -665.5 L 413.111328125 -669.666992188 L 405.77734375 -671.0 L 396.444335938 -672.333007812 L 391.27734375 -676.833007812 L 390.27734375 -684.5 L 389.27734375 -692.166992188 L 395.77734375 -696.333007812 Z M 2.77734375 -384.0 L 6.111328125 -389.333007812 L 9.9443359375 -392.166992188 L 14.27734375 -392.5 L 18.611328125 -392.833007812 L 23.111328125 -391.666992188 L 27.77734375 -389.0 L 32.4443359375 -386.333007812 L 38.4443359375 -383.166992188 L 45.77734375 -379.5 L 53.111328125 -375.833007812 L 62.4443359375 -372.833007812 L 73.77734375 -370.5 L 85.111328125 -368.166992188 L 101.111328125 -367.0 L 121.77734375 -367.0 L 1145.77734375 -367.0 L 1164.44433594 -367.0 L 1181.44433594 -365.5 L 1196.77734375 -362.5 L 1212.11132812 -359.5 L 1226.11132812 -354.666992188 L 1238.77734375 -348.0 L 1251.44433594 -341.333007812 L 1261.27734375 -335.333007812 L 1268.27734375 -330.0 L 1275.27734375 -324.666992188 L 1284.77734375 -315.5 L 1296.77734375 -302.5 L 1308.77734375 -289.5 L 1319.27734375 -277.0 L 1328.27734375 -265.0 L 1337.27734375 -253.0 L 1339.11132812 -241.333007812 L 1333.77734375 -230.0 L 1328.44433594 -222.0 L 1322.27734375 -220.333007812 L 1315.27734375 -225.0 L 1308.27734375 -229.666992188 L 1300.11132812 -233.666992188 L 1290.77734375 -237.0 L 1281.44433594 -240.333007812 L 1271.27734375 -242.666992188 L 1260.27734375 -244.0 L 1249.27734375 -245.333007812 L 1232.11132812 -246.0 L 1208.77734375 -246.0 L 199.77734375 -246.0 L 184.444335938 -246.0 L 170.444335938 -247.0 L 157.77734375 -249.0 L 145.111328125 -251.0 L 135.27734375 -253.166992188 L 128.27734375 -255.5 L 121.27734375 -257.833007812 L 113.77734375 -261.0 L 105.77734375 -265.0 L 97.77734375 -269.0 L 89.27734375 -273.833007812 L 80.27734375 -279.5 L 71.27734375 -285.166992188 L 61.77734375 -293.166992188 L 51.77734375 -303.5 L 41.77734375 -313.833007812 L 31.611328125 -325.833007812 L 21.27734375 -339.5 L 10.9443359375 -353.166992188 L 4.4443359375 -362.666992188 L 1.77734375 -368.0 L -0.888671875 -373.333007812 L -0.5556640625 -378.666992188 Z M 1403.77734375 -1163.0 L 1414.44433594 -1161.0 L 1419.11132812 -1155.5 L 1417.77734375 -1146.5 L 1416.44433594 -1137.5 L 1409.44433594 -1132.66699219 L 1396.77734375 -1132.0 L 1382.77734375 -1127.33300781 L 1371.61132812 -1109.66699219 L 1363.27734375 -1079.0 L 1354.94433594 -1048.33300781 L 1345.77734375 -1016.0 L 1335.77734375 -982.0 L 1313.11132812 -902.666992188 L 1292.61132812 -838.333007812 L 1274.27734375 -789.0 L 1255.94433594 -739.666992188 L 1238.27734375 -705.166992188 L 1221.27734375 -685.5 L 1204.27734375 -665.833007812 L 1184.11132812 -650.666992188 L 1160.77734375 -640.0 L 1124.77734375 -624.666992188 L 1089.27734375 -613.333007812 L 1054.27734375 -606.0 L 1019.27734375 -598.666992188 L 988.77734375 -595.0 L 962.77734375 -595.0 L 975.444335938 -565.0 L 996.77734375 -544.0 L 1026.77734375 -532.0 L 1056.77734375 -520.0 L 1065.44433594 -507.333007812 L 1052.77734375 -494.0 L 1045.44433594 -486.666992188 L 1022.44433594 -496.333007812 L 983.77734375 -523.0 L 945.111328125 -549.666992188 L 918.444335938 -576.0 L 903.77734375 -602.0 L 903.77734375 -618.666992188 L 910.611328125 -625.666992188 L 924.27734375 -623.0 L 937.944335938 -620.333007812 L 952.444335938 -618.333007812 L 967.77734375 -617.0 L 983.111328125 -616.333007812 L 999.111328125 -617.333007812 L 1015.77734375 -620.0 L 1032.44433594 -622.666992188 L 1054.44433594 -631.0 L 1081.77734375 -645.0 L 1095.11132812 -651.666992188 L 1107.61132812 -666.833007812 L 1119.27734375 -690.5 L 1130.94433594 -714.166992188 L 1141.61132812 -740.333007812 L 1151.27734375 -769.0 L 1160.94433594 -797.666992188 L 1169.11132812 -826.166992188 L 1175.77734375 -854.5 L 1182.44433594 -882.833007812 L 1191.27734375 -923.666992188 L 1202.27734375 -977.0 L 1213.27734375 -1030.33300781 L 1222.61132812 -1066.0 L 1230.27734375 -1084.0 L 1237.94433594 -1102.0 L 1248.94433594 -1116.66699219 L 1263.27734375 -1128.0 L 1277.61132812 -1139.33300781 L 1291.27734375 -1146.66699219 L 1304.27734375 -1150.0 L 1317.27734375 -1153.33300781 L 1331.77734375 -1155.66699219 L 1347.77734375 -1157.0 L 1363.77734375 -1158.33300781 L 1382.44433594 -1160.33300781 Z M 814.77734375 -1338.0 L 824.77734375 -1336.66699219 L 829.27734375 -1332.16699219 L 828.27734375 -1324.5 L 827.27734375 -1316.83300781 L 821.111328125 -1312.33300781 L 809.77734375 -1311.0 L 797.111328125 -1307.0 L 786.77734375 -1292.16699219 L 778.77734375 -1266.5 L 770.77734375 -1240.83300781 L 762.111328125 -1213.66699219 L 752.77734375 -1185.0 L 732.111328125 -1117.66699219 L 713.111328125 -1063.33300781 L 695.77734375 -1022.0 L 678.444335938 -980.666992188 L 662.111328125 -951.666992188 L 646.77734375 -935.0 L 631.444335938 -918.333007812 L 612.77734375 -905.666992188 L 590.77734375 -897.0 L 557.444335938 -883.666992188 L 524.611328125 -874.0 L 492.27734375 -868.0 L 459.944335938 -862.0 L 431.77734375 -859.0 L 407.77734375 -859.0 L 419.77734375 -833.0 L 439.611328125 -815.166992188 L 467.27734375 -805.5 L 494.944335938 -795.833007812 L 502.77734375 -785.333007812 L 490.77734375 -774.0 L 484.111328125 -768.0 L 462.944335938 -776.166992188 L 427.27734375 -798.5 L 391.611328125 -820.833007812 L 367.111328125 -843.0 L 353.77734375 -865.0 L 353.77734375 -879.0 L 359.944335938 -884.833007812 L 372.27734375 -882.5 L 384.611328125 -880.166992188 L 398.111328125 -878.666992188 L 412.77734375 -878.0 L 427.444335938 -877.333007812 L 442.27734375 -878.0 L 457.27734375 -880.0 L 472.27734375 -882.0 L 492.444335938 -889.0 L 517.77734375 -901.0 L 530.444335938 -907.0 L 542.111328125 -919.833007812 L 552.77734375 -939.5 L 563.444335938 -959.166992188 L 573.27734375 -981.166992188 L 582.27734375 -1005.5 L 591.27734375 -1029.83300781 L 598.77734375 -1054.0 L 604.77734375 -1078.0 L 610.77734375 -1102.0 L 618.77734375 -1136.33300781 L 628.77734375 -1181.0 L 638.77734375 -1225.66699219 L 647.444335938 -1255.66699219 L 654.77734375 -1271.0 L 662.111328125 -1286.33300781 L 672.444335938 -1298.83300781 L 685.77734375 -1308.5 L 699.111328125 -1318.16699219 L 711.77734375 -1324.33300781 L 723.77734375 -1327.0 L 735.77734375 -1329.66699219 L 749.111328125 -1331.66699219 L 763.77734375 -1333.0 L 778.444335938 -1334.33300781 L 795.444335938 -1336.0 Z" fill="black" fill-opacity="0.25" stroke="black" stroke-width="4.0"/>
  <rect x="389.0" y="-697.0" width="265.0" height="249.99999999999994" fill="none" stroke="red" stroke-width="10.0" /><rect x="-1.0" y="-393.0" width="1339.9999999999998" height="173.00000000000003" fill="none" stroke="red" stroke-width="10.0" /><rect x="904.0" y="-1163.0" width="515.0" height="676.0" fill="none" stroke="red" stroke-width="10.0" /><rect x="354.0" y="-1338.0" width="475.0" height="570.0000000000001" fill="none" stroke="red" stroke-width="10.0" />
</svg>
