<svg xmlns="http://www.w3.org/2000/svg"
  viewBox="-50.000390625 -903.5216985344719 1909.5770307204568 731.1007894189875">
  <rect x="-50.000390625" y="-903.5216985344719" width="1909.5770307204568" height="731.1007894189875" fill="white"/>
  <path d="M 289.599609375 -717.0 L 309.599609375 -717.0 L 330.599609375 -716.666992188 L 352.599609375 -716.0 L 374.599609375 -715.333007812 L 394.266601562 -713.333007812 L 411.599609375 -710.0 L 424.266601562 -710.0 L 438.599609375 -693.0 L 454.599609375 -659.0 L 470.599609375 -625.0 L 488.266601562 -587.666992188 L 507.599609375 -547.0 L 513.599609375 -533.0 L 519.932617188 -525.0 L 526.599609375 -523.0 L 531.266601562 -521.0 L 535.099609375 -517.5 L 538.099609375 -512.5 L 541.099609375 -507.5 L 538.266601562 -503.0 L 529.599609375 -499.0 L 509.599609375 -495.0 L 489.099609375 -493.333007812 L 468.099609375 -494.0 L 447.099609375 -494.666992188 L 427.266601562 -496.333007812 L 408.599609375 -499.0 L 391.266601562 -507.0 L 376.599609375 -522.0 L 364.599609375 -544.0 L 352.599609375 -566.0 L 336.266601562 -605.666992188 L 315.599609375 -663.0 L 314.266601562 -666.333007812 L 310.766601562 -671.5 L 305.099609375 -678.5 L 299.432617188 -685.5 L 293.266601562 -689.666992188 L 286.599609375 -691.0 L 277.266601562 -692.333007812 L 271.932617188 -697.0 L 270.599609375 -705.0 L 269.266601562 -713.0 L 275.599609375 -717.0 Z M 19.599609375 -717.0 L 39.599609375 -717.0 L 60.599609375 -716.666992188 L 82.599609375 -716.0 L 104.599609375 -715.333007812 L 124.266601562 -713.333007812 L 141.599609375 -710.0 L 154.266601562 -710.0 L 168.599609375 -693.0 L 184.599609375 -659.0 L 200.599609375 -625.0 L 217.932617188 -587.666992188 L 236.599609375 -547.0 L 242.599609375 -533.0 L 248.932617188 -525.0 L 255.599609375 -523.0 L 260.932617188 -521.0 L 265.099609375 -517.5 L 268.099609375 -512.5 L 271.099609375 -507.5 L 268.266601562 -503.0 L 259.599609375 -499.0 L 238.932617188 -495.0 L 218.266601562 -493.333007812 L 197.599609375 -494.0 L 176.932617188 -494.666992188 L 157.266601562 -496.333007812 L 138.599609375 -499.0 L 120.599609375 -507.0 L 105.766601562 -522.0 L 94.099609375 -544.0 L 82.4326171875 -566.0 L 66.2666015625 -605.666992188 L 45.599609375 -663.0 L 43.599609375 -666.333007812 L 39.9326171875 -671.5 L 34.599609375 -678.5 L 29.2666015625 -685.5 L 22.9326171875 -689.666992188 L 15.599609375 -691.0 L 6.2666015625 -692.333007812 L 1.099609375 -697.0 L 0.099609375 -705.0 L -0.900390625 -713.0 L 5.599609375 -717.0 Z M 11.099609375 -384.0 L 14.7666015625 -389.333007812 L 18.599609375 -392.166992188 L 22.599609375 -392.5 L 26.599609375 -392.833007812 L 31.099609375 -391.666992188 L 36.099609375 -389.0 L 41.099609375 -386.333007812 L 47.2666015625 -383.166992188 L 54.599609375 -379.5 L 61.93359375 -375.833007812 L 71.2666015625 -372.833007812 L 82.599609375 -370.5 L 93.93359375 -368.166992188 L 109.93359375 -367.0 L 130.599609375 -367.0 L 1617.59960938 -367.0 L 1636.26660156 -367.0 L 1653.43359375 -365.5 L 1669.09960938 -362.5 L 1684.76660156 -359.5 L 1698.93359375 -354.666992188 L 1711.59960938 -348.0 L 1724.26660156 -341.333007812 L 1734.09960938 -335.333007812 L 1741.09960938 -330.0 L 1748.09960938 -324.666992188 L 1757.59960938 -315.5 L 1769.59960938 -302.5 L 1781.59960938 -289.5 L 1792.09960938 -277.0 L 1801.09960938 -265.0 L 1810.09960938 -253.0 L 1811.93359375 -241.333007812 L 1806.59960938 -230.0 L 1801.26660156 -222.0 L 1795.09960938 -220.333007812 L 1788.09960938 -225.0 L 1781.09960938 -229.666992188 L 1772.93359375 -233.666992188 L 1763.59960938 -237.0 L 1754.26660156 -240.333007812 L 1743.93359375 -242.666992188 L 1732.59960938 -244.0 L 1721.26660156 -245.333007812 L 1704.26660156 -246.0 L 1681.59960938 -246.0 L 208.599609375 -246.0 L 193.266601562 -246.0 L 179.266601562 -247.0 L 166.599609375 -249.0 L 153.93359375 -251.0 L 144.099609375 -253.166992188 L 137.099609375 -255.5 L 130.099609375 -257.833007812 L 122.599609375 -261.0 L 114.599609375 -265.0 L 106.599609375 -269.0 L 98.099609375 -273.833007812 L 89.099609375 -279.5 L 80.099609375 -285.166992188 L 70.599609375 -293.166992188 L 60.599609375 -303.5 L 50.599609375 -313.833007812 L 40.43359375 -325.833007812 L 30.099609375 -339.5 L 19.7666015625 -353.166992188 L 13.099609375 -362.666992188 L 10.099609375 -368.0 L 7.099609375 -373.333007812 L 7.43359375 -378.666992188 Z M 914.599609375 -489.0 L 889.266601562 -479.666992188 L 846.599609375 -480.0 L 786.599609375 -490.0 L 751.266601562 -498.666992188 L 719.932617188 -510.333007812 L 692.599609375 -525.0 L 665.266601562 -539.666992188 L 644.266601562 -565.333007812 L 629.599609375 -602.0 L 619.599609375 -637.333007812 L 616.266601562 -665.666992188 L 619.599609375 -687.0 L 622.932617188 -708.333007812 L 634.932617188 -732.666992188 L 655.599609375 -760.0 L 674.932617188 -783.333007812 L 697.432617188 -801.0 L 723.099609375 -813.0 L 748.766601562 -825.0 L 780.266601562 -835.0 L 817.599609375 -843.0 L 854.932617188 -850.333007812 L 885.266601562 -853.833007812 L 908.599609375 -853.5 L 931.932617188 -853.166992188 L 956.932617188 -852.333007812 L 983.599609375 -851.0 L 1010.26660156 -849.666992188 L 1035.09960938 -847.5 L 1058.09960938 -844.5 L 1081.09960938 -841.5 L 1108.93261719 -835.0 L 1141.59960938 -825.0 L 1195.59960938 -810.333007812 L 1248.93261719 -790.0 L 1301.59960938 -764.0 L 1330.93261719 -749.333007812 L 1362.26660156 -733.5 L 1395.59960938 -716.5 L 1428.93261719 -699.5 L 1465.93261719 -679.666992188 L 1506.59960938 -657.0 L 1525.26660156 -645.666992188 L 1545.59960938 -633.5 L 1567.59960938 -620.5 L 1589.59960938 -607.5 L 1613.59960938 -594.333007812 L 1639.59960938 -581.0 L 1658.93261719 -569.0 L 1677.93261719 -556.833007812 L 1696.59960938 -544.5 L 1715.26660156 -532.166992188 L 1723.09960938 -519.833007812 L 1720.09960938 -507.5 L 1717.09960938 -495.166992188 L 1709.93261719 -489.333007812 L 1698.59960938 -490.0 L 1687.26660156 -490.666992188 L 1651.59960938 -490.333007812 L 1591.59960938 -489.0 L 1531.59960938 -487.666992188 L 1479.26660156 -487.666992188 L 1434.59960938 -489.0 L 1416.59960938 -502.333007812 L 1416.76660156 -511.833007812 L 1435.09960938 -517.5 L 1453.43261719 -523.166992188 L 1466.93261719 -530.333007812 L 1475.59960938 -539.0 L 1492.26660156 -556.333007812 L 1499.76660156 -570.0 L 1498.09960938 -580.0 L 1496.43261719 -590.0 L 1493.76660156 -597.833007812 L 1490.09960938 -603.5 L 1486.43261719 -609.166992188 L 1480.93261719 -615.333007812 L 1473.59960938 -622.0 L 1466.26660156 -628.666992188 L 1448.09960938 -641.833007812 L 1419.09960938 -661.5 L 1390.09960938 -681.166992188 L 1353.93261719 -702.0 L 1310.59960938 -724.0 L 1271.93261719 -740.666992188 L 1241.59960938 -754.5 L 1219.59960938 -765.5 L 1197.59960938 -776.5 L 1161.93261719 -788.666992188 L 1112.59960938 -802.0 L 1075.93261719 -809.333007812 L 1038.59960938 -813.666992188 L 1000.59960938 -815.0 L 962.599609375 -816.333007812 L 924.266601562 -810.666992188 L 885.599609375 -798.0 L 858.266601562 -786.0 L 838.932617188 -775.833007812 L 827.599609375 -767.5 L 816.266601562 -759.166992188 L 803.599609375 -744.333007812 L 789.599609375 -723.0 L 777.599609375 -703.0 L 770.766601562 -686.166992188 L 769.099609375 -672.5 L 767.432617188 -658.833007812 L 767.266601562 -642.666992188 L 768.599609375 -624.0 L 769.266601562 -605.333007812 L 771.432617188 -592.0 L 775.099609375 -584.0 L 778.766601562 -576.0 L 783.599609375 -567.666992188 L 789.599609375 -559.0 L 795.599609375 -550.333007812 L 803.099609375 -542.5 L 812.099609375 -535.5 L 821.099609375 -528.5 L 834.766601562 -523.5 L 853.099609375 -520.5 L 871.432617188 -517.5 L 889.932617188 -515.0 L 908.599609375 -513.0 L 916.599609375 -511.666992188 L 921.599609375 -508.5 L 923.599609375 -503.5 L 925.599609375 -498.5 L 922.599609375 -493.666992188 Z" fill="black" fill-opacity="0.25" stroke="black" stroke-width="4.0"/>
  <rect x="269.0" y="-717.0" width="272.0" height="223.99999999999997" fill="none" stroke="red" stroke-width="10.0" /><rect x="-1.0" y="-717.0" width="272.0" height="223.99999999999997" fill="none" stroke="red" stroke-width="10.0" /><rect x="7.0" y="-393.0" width="1805.0000000000002" height="173.00000000000003" fill="none" stroke="red" stroke-width="10.0" /><rect x="616.0" y="-854.0" width="1107.0000000000002" height="374.0" fill="none" stroke="red" stroke-width="10.0" />
</svg>
