<svg xmlns="http://www.w3.org/2000/svg"
  viewBox="-50 -1320 1436.754 1147.579">
  <rect x="-50" y="-1320" width="1436.754" height="1147.579" fill="white"/>
  <path d="M 557.777 -667 L 578.444 -667 L 599.777 -666.833 L 621.777 -666.5 L 643.777 -666.167 L 663.777 -664.667 L 681.777 -662 L 694.444 -662 L 707.277 -640.5 L 720.277 -597.5 L 733.277 -554.5 L 749.444 -516.333 L 768.777 -483 L 774.777 -471.667 L 780.777 -465.667 L 786.777 -465 L 792.111 -463.667 L 796.111 -460.833 L 798.777 -456.5 L 801.444 -452.167 L 798.444 -448.667 L 789.777 -446 L 768.444 -442.667 L 747.277 -441.333 L 726.277 -442 L 705.277 -442.667 L 685.444 -444 L 666.777 -446 L 648.777 -452.667 L 634.777 -472.833 L 624.777 -506.5 L 614.777 -540.167 L 600.444 -579.667 L 581.777 -625 L 575.777 -635.667 L 566.111 -642.333 L 552.777 -645 L 542.777 -646.333 L 537.611 -650.333 L 537.277 -657 L 536.944 -663.667 L 543.777 -667 Z M 2.777 -384 L 6.111 -389.333 L 9.944 -392.167 L 14.277 -392.5 L 18.611 -392.833 L 23.111 -391.667 L 27.777 -389 L 32.444 -386.333 L 38.444 -383.167 L 45.777 -379.5 L 53.111 -375.833 L 62.444 -372.833 L 73.777 -370.5 L 85.111 -368.167 L 101.111 -367 L 121.777 -367 L 1145.777 -367 L 1164.444 -367 L 1181.444 -365.5 L 1196.777 -362.5 L 1212.111 -359.5 L 1226.111 -354.667 L 1238.777 -348 L 1251.444 -341.333 L 1261.277 -335.333 L 1268.277 -330 L 1275.277 -324.667 L 1284.777 -315.5 L 1296.777 -302.5 L 1308.777 -289.5 L 1319.277 -277 L 1328.277 -265 L 1337.277 -253 L 1339.111 -241.333 L 1333.777 -230 L 1328.444 -222 L 1322.277 -220.333 L 1315.277 -225 L 1308.277 -229.667 L 1300.111 -233.667 L 1290.777 -237 L 1281.444 -240.333 L 1271.277 -242.667 L 1260.277 -244 L 1249.277 -245.333 L 1232.111 -246 L 1208.777 -246 L 199.777 -246 L 184.444 -246 L 170.444 -247 L 157.777 -249 L 145.111 -251 L 135.277 -253.167 L 128.277 -255.5 L 121.277 -257.833 L 113.777 -261 L 105.777 -265 L 97.777 -269 L 89.277 -273.833 L 80.277 -279.5 L 71.277 -285.167 L 61.777 -293.167 L 51.777 -303.5 L 41.777 -313.833 L 31.611 -325.833 L 21.277 -339.5 L 10.944 -353.167 L 4.444 -362.667 L 1.777 -368 L -0.889 -373.333 L -0.556 -378.667 Z M 995.777 -1270 L 1005.777 -1268.667 L 1010.111 -1264 L 1008.777 -1256 L 1007.444 -1248 L 1001.111 -1243.667 L 989.777 -1243 L 977.111 -1239 L 966.777 -1224.167 L 958.777 -1198.5 L 950.777 -1172.833 L 942.444 -1145.667 L 933.777 -1117 L 913.111 -1049.667 L 894.111 -995.167 L 876.777 -953.5 L 859.444 -911.833 L 842.944 -882.833 L 827.277 -866.5 L 811.611 -850.167 L 793.111 -837.667 L 771.777 -829 L 738.444 -815.667 L 705.611 -805.833 L 673.277 -799.5 L 640.944 -793.167 L 612.777 -790 L 588.777 -790 L 600.777 -764 L 620.444 -746.167 L 647.777 -736.5 L 675.111 -726.833 L 683.111 -716.333 L 671.777 -705 L 665.111 -699 L 643.777 -707.333 L 607.777 -730 L 571.777 -752.667 L 547.111 -775 L 533.777 -797 L 533.777 -811 L 540.111 -816.833 L 552.777 -814.5 L 565.444 -812.167 L 578.777 -810.333 L 592.777 -809 L 607.444 -808.333 L 622.277 -809.167 L 637.277 -811.5 L 652.277 -813.833 L 672.444 -820.667 L 697.777 -832 L 710.444 -838 L 722.277 -851 L 733.277 -871 L 744.277 -891 L 754.111 -913.167 L 762.777 -937.5 L 771.444 -961.833 L 778.944 -985.833 L 785.277 -1009.5 L 791.611 -1033.167 L 799.777 -1067.5 L 809.777 -1112.5 L 819.777 -1157.5 L 828.444 -1187.667 L 835.777 -1203 L 843.111 -1218.333 L 853.277 -1230.667 L 866.277 -1240 L 879.277 -1249.333 L 891.777 -1255.333 L 903.777 -1258 L 915.777 -1260.667 L 929.277 -1262.833 L 944.277 -1264.5 L 959.277 -1266.167 L 976.444 -1268 Z" fill="black" fill-opacity="0.25" stroke="black" stroke-width="4"/>
  <rect x="537" y="-667" width="264" height="226" fill="none" stroke="red" stroke-width="10" /><rect x="-1" y="-393" width="1340" height="173" fill="none" stroke="red" stroke-width="10" /><rect x="533.8" y="-892.1" width="314.4" height="189" fill="none" stroke="red" stroke-width="10" /><rect x="744.8" y="-1081" width="177.9" height="188.9" fill="none" stroke="red" stroke-width="10" /><rect x="802.8" y="-1270" width="207.3" height="189" fill="none" stroke="red" stroke-width="10" />
</svg>
