<svg xmlns="http://www.w3.org/2000/svg"
  viewBox="-50 -442.555 1436.825 515.101">
  <rect x="-50" y="-442.555" width="1436.825" height="515.101" fill="white"/>
  <path d="M 795.777 -180 L 818.444 -180 L 842.444 -179.833 L 867.777 -179.5 L 893.111 -179.167 L 915.777 -177.667 L 935.777 -175 L 949.777 -175 L 963.111 -158 L 975.777 -124 L 988.444 -90 L 1006.444 -56 L 1029.777 -22 L 1037.777 -10 L 1045.111 -3.333 L 1051.777 -2 L 1057.777 -0.667 L 1062.444 2 L 1065.777 6 L 1069.111 10 L 1065.777 13.667 L 1055.777 17 L 1032.444 20.333 L 1008.944 21.667 L 985.277 21 L 961.611 20.333 L 939.111 19 L 917.777 17 L 897.777 10.333 L 883.444 -5.167 L 874.777 -29.5 L 866.111 -53.833 L 850.111 -89.667 L 826.777 -137 L 819.444 -148.333 L 808.111 -155 L 792.777 -157 L 782.111 -158.333 L 775.944 -162.5 L 774.277 -169.5 L 772.611 -176.5 L 779.777 -180 Z M 547.777 -181 L 567.777 -181 L 588.611 -180.833 L 610.277 -180.5 L 631.944 -180.167 L 651.777 -178.667 L 669.777 -176 L 682.444 -176 L 695.611 -158.5 L 709.277 -123.5 L 722.944 -88.5 L 739.444 -54 L 758.777 -20 L 764.777 -8 L 771.111 -1.667 L 777.777 -1 L 783.111 0.333 L 787.111 3 L 789.777 7 L 792.444 11 L 789.777 14.667 L 781.777 18 L 761.777 21.333 L 741.277 22.833 L 720.277 22.5 L 699.277 22.167 L 679.444 20.667 L 660.777 18 L 643.444 11.333 L 629.777 -4.333 L 619.777 -29 L 609.777 -53.667 L 594.444 -89.667 L 573.777 -137 L 571.777 -139.667 L 568.111 -144 L 562.777 -150 L 557.444 -156 L 551.111 -159.667 L 543.777 -161 L 534.444 -162.333 L 529.277 -166 L 528.277 -172 L 527.277 -178 L 533.777 -181 Z M 2.777 -384 L 6.111 -389.333 L 9.944 -392.167 L 14.277 -392.5 L 18.611 -392.833 L 23.277 -391.667 L 28.277 -389 L 33.277 -386.333 L 39.277 -383.167 L 46.277 -379.5 L 53.277 -375.833 L 62.444 -372.833 L 73.777 -370.5 L 85.111 -368.167 L 101.111 -367 L 121.777 -367 L 1145.777 -367 L 1164.444 -367 L 1181.444 -365.5 L 1196.777 -362.5 L 1212.111 -359.5 L 1226.111 -354.667 L 1238.777 -348 L 1251.444 -341.333 L 1261.277 -335.333 L 1268.277 -330 L 1275.277 -324.667 L 1284.944 -315.5 L 1297.277 -302.5 L 1309.611 -289.5 L 1320.111 -277 L 1328.777 -265 L 1337.444 -253 L 1339.111 -241.333 L 1333.777 -230 L 1328.444 -222 L 1322.444 -220.333 L 1315.777 -225 L 1309.111 -229.667 L 1300.944 -233.667 L 1291.277 -237 L 1281.611 -240.333 L 1271.277 -242.667 L 1260.277 -244 L 1249.277 -245.333 L 1232.111 -246 L 1208.777 -246 L 199.777 -246 L 184.444 -246 L 170.611 -247 L 158.277 -249 L 145.944 -251 L 136.111 -253.167 L 128.777 -255.5 L 121.444 -257.833 L 113.944 -261 L 106.277 -265 L 98.611 -269 L 90.277 -273.833 L 81.277 -279.5 L 72.277 -285.167 L 62.611 -293.167 L 52.277 -303.5 L 41.944 -313.833 L 31.611 -325.833 L 21.277 -339.5 L 10.944 -353.167 L 4.444 -362.667 L 1.777 -368 L -0.889 -373.333 L -0.556 -378.667 Z" fill="black" fill-opacity="0.25" stroke="black" stroke-width="4"/>
  <rect x="773" y="-180" width="296" height="202" fill="none" stroke="red" stroke-width="10" /><rect x="527" y="-181" width="265" height="204" fill="none" stroke="red" stroke-width="10" /><rect x="-1" y="-393" width="1340" height="173" fill="none" stroke="red" stroke-width="10" />
</svg>
