<svg xmlns="http://www.w3.org/2000/svg"
  viewBox="-50.000390625 -883.4704125292188 1861.647991916063 711.0495034137344">
  <rect x="-50.000390625" y="-883.4704125292188" width="1861.647991916063" height="711.0495034137344" fill="white"/>
  <path d="M 19.599609375 -712.0 L 39.599609375 -712.0 L 60.599609375 -711.666992188 L 82.599609375 -711.0 L 104.599609375 -710.333007812 L 124.266601562 -708.333007812 L 141.599609375 -705.0 L 154.266601562 -705.0 L 168.599609375 -688.0 L 184.599609375 -654.0 L 200.599609375 -620.0 L 218.266601562 -582.666992188 L 237.599609375 -542.0 L 242.932617188 -528.0 L 249.266601562 -520.0 L 256.599609375 -518.0 L 261.266601562 -516.0 L 265.099609375 -512.5 L 268.099609375 -507.5 L 271.099609375 -502.5 L 268.266601562 -498.0 L 259.599609375 -494.0 L 239.599609375 -490.0 L 219.099609375 -488.333007812 L 198.099609375 -489.0 L 177.099609375 -489.666992188 L 157.266601562 -491.333007812 L 138.599609375 -494.0 L 121.266601562 -502.0 L 106.599609375 -517.0 L 94.599609375 -539.0 L 82.599609375 -561.0 L 66.2666015625 -600.666992188 L 45.599609375 -658.0 L 43.599609375 -661.333007812 L 39.9326171875 -666.5 L 34.599609375 -673.5 L 29.2666015625 -680.5 L 22.9326171875 -684.666992188 L 15.599609375 -686.0 L 6.2666015625 -687.333007812 L 1.099609375 -692.0 L 0.099609375 -700.0 L -0.900390625 -708.0 L 5.599609375 -712.0 Z M 289.599609375 -712.0 L 309.599609375 -712.0 L 330.599609375 -711.666992188 L 352.599609375 -711.0 L 374.599609375 -710.333007812 L 394.266601562 -708.333007812 L 411.599609375 -705.0 L 424.266601562 -705.0 L 438.599609375 -688.0 L 454.599609375 -654.0 L 470.599609375 -620.0 L 488.266601562 -582.666992188 L 507.599609375 -542.0 L 513.599609375 -528.0 L 519.932617188 -520.0 L 526.599609375 -518.0 L 531.932617188 -516.0 L 535.932617188 -512.5 L 538.599609375 -507.5 L 541.266601562 -502.5 L 538.599609375 -498.0 L 530.599609375 -494.0 L 509.932617188 -490.0 L 489.266601562 -488.333007812 L 468.599609375 -489.0 L 447.932617188 -489.666992188 L 427.932617188 -491.333007812 L 408.599609375 -494.0 L 391.266601562 -502.0 L 376.599609375 -517.0 L 364.599609375 -539.0 L 352.599609375 -561.0 L 336.599609375 -600.666992188 L 316.599609375 -658.0 L 314.599609375 -661.333007812 L 310.766601562 -666.5 L 305.099609375 -673.5 L 299.432617188 -680.5 L 293.266601562 -684.666992188 L 286.599609375 -686.0 L 277.266601562 -687.333007812 L 271.932617188 -692.0 L 270.599609375 -700.0 L 269.266601562 -708.0 L 275.599609375 -712.0 Z M 66.099609375 -384.0 L 69.7666015625 -389.333007812 L 73.599609375 -392.166992188 L 77.599609375 -392.5 L 81.599609375 -392.833007812 L 86.099609375 -391.666992188 L 91.099609375 -389.0 L 96.099609375 -386.333007812 L 102.266601562 -383.166992188 L 109.599609375 -379.5 L 116.93359375 -375.833007812 L 126.266601562 -372.833007812 L 137.599609375 -370.5 L 148.93359375 -368.166992188 L 164.93359375 -367.0 L 185.599609375 -367.0 L 1570.59960938 -367.0 L 1589.26660156 -367.0 L 1606.26660156 -365.5 L 1621.59960938 -362.5 L 1636.93359375 -359.5 L 1650.93359375 -354.666992188 L 1663.59960938 -348.0 L 1676.26660156 -341.333007812 L 1686.09960938 -335.333007812 L 1693.09960938 -330.0 L 1700.09960938 -324.666992188 L 1709.76660156 -315.5 L 1722.09960938 -302.5 L 1734.43359375 -289.5 L 1744.93359375 -277.0 L 1753.59960938 -265.0 L 1762.26660156 -253.0 L 1763.93359375 -241.333007812 L 1758.59960938 -230.0 L 1753.26660156 -222.0 L 1747.09960938 -220.333007812 L 1740.09960938 -225.0 L 1733.09960938 -229.666992188 L 1724.93359375 -233.666992188 L 1715.59960938 -237.0 L 1706.26660156 -240.333007812 L 1696.09960938 -242.666992188 L 1685.09960938 -244.0 L 1674.09960938 -245.333007812 L 1656.93359375 -246.0 L 1633.59960938 -246.0 L 263.599609375 -246.0 L 248.266601562 -246.0 L 234.266601562 -247.0 L 221.599609375 -249.0 L 208.93359375 -251.0 L 199.099609375 -253.166992188 L 192.099609375 -255.5 L 185.099609375 -257.833007812 L 177.599609375 -261.0 L 169.599609375 -265.0 L 161.599609375 -269.0 L 153.099609375 -273.833007812 L 144.099609375 -279.5 L 135.099609375 -285.166992188 L 125.599609375 -293.166992188 L 115.599609375 -303.5 L 105.599609375 -313.833007812 L 95.43359375 -325.833007812 L 85.099609375 -339.5 L 74.7666015625 -353.166992188 L 68.099609375 -362.666992188 L 65.099609375 -368.0 L 62.099609375 -373.333007812 L 62.43359375 -378.666992188 Z M 672.599609375 -662.0 L 647.266601562 -708.0 L 640.432617188 -747.333007812 L 652.099609375 -780.0 L 663.766601562 -812.666992188 L 684.599609375 -830.333007812 L 714.599609375 -833.0 L 733.932617188 -834.333007812 L 748.766601562 -832.833007812 L 759.099609375 -828.5 L 769.432617188 -824.166992188 L 778.599609375 -819.833007812 L 786.599609375 -815.5 L 794.599609375 -811.166992188 L 802.099609375 -806.5 L 809.099609375 -801.5 L 816.099609375 -796.5 L 822.599609375 -791.333007812 L 828.599609375 -786.0 L 834.599609375 -780.666992188 L 838.932617188 -775.833007812 L 841.599609375 -771.5 L 844.266601562 -767.166992188 L 845.432617188 -763.166992188 L 845.099609375 -759.5 L 844.766601562 -755.833007812 L 843.266601562 -753.166992188 L 840.599609375 -751.5 L 837.932617188 -749.833007812 L 830.766601562 -746.833007812 L 819.099609375 -742.5 L 807.432617188 -738.166992188 L 792.432617188 -730.666992188 L 774.099609375 -720.0 L 755.766601562 -709.333007812 L 746.932617188 -692.0 L 747.599609375 -668.0 L 747.599609375 -642.666992188 L 773.932617188 -618.833007812 L 826.599609375 -596.5 L 879.266601562 -574.166992188 L 957.599609375 -565.0 L 1061.59960938 -569.0 L 1507.59960938 -593.0 L 1529.59960938 -593.0 L 1547.09960938 -591.5 L 1560.09960938 -588.5 L 1573.09960938 -585.5 L 1584.93261719 -581.666992188 L 1595.59960938 -577.0 L 1606.26660156 -572.333007812 L 1615.26660156 -567.666992188 L 1622.59960938 -563.0 L 1629.93261719 -558.333007812 L 1638.76660156 -551.666992188 L 1649.09960938 -543.0 L 1659.43261719 -534.333007812 L 1671.09960938 -523.0 L 1684.09960938 -509.0 L 1697.09960938 -495.0 L 1705.59960938 -484.666992188 L 1709.59960938 -478.0 L 1713.59960938 -471.333007812 L 1715.59960938 -464.833007812 L 1715.59960938 -458.5 L 1715.59960938 -452.166992188 L 1713.59960938 -448.0 L 1709.59960938 -446.0 L 1705.59960938 -444.0 L 1701.09960938 -443.0 L 1696.09960938 -443.0 L 1691.09960938 -443.0 L 1685.93261719 -444.0 L 1680.59960938 -446.0 L 1675.26660156 -448.0 L 1668.76660156 -450.166992188 L 1661.09960938 -452.5 L 1653.43261719 -454.833007812 L 1644.93261719 -457.5 L 1635.59960938 -460.5 L 1626.26660156 -463.5 L 1617.59960938 -465.666992188 L 1609.59960938 -467.0 L 1601.59960938 -468.333007812 L 1590.93261719 -469.333007812 L 1577.59960938 -470.0 L 1518.59960938 -475.0 L 1424.59960938 -471.666992188 L 1343.76660156 -472.666992188 L 1276.09960938 -478.0 L 1208.43261719 -483.333007812 L 1144.76660156 -490.0 L 1085.09960938 -498.0 L 1025.43261719 -506.0 L 972.766601562 -514.666992188 L 927.099609375 -524.0 L 881.432617188 -533.333007812 L 850.266601562 -541.0 L 833.599609375 -547.0 L 804.932617188 -559.0 L 779.432617188 -570.833007812 L 757.099609375 -582.5 L 734.766601562 -594.166992188 L 706.599609375 -620.666992188 Z" fill="black" fill-opacity="0.25" stroke="black" stroke-width="4.0"/>
  <rect x="-1.0" y="-712.0" width="272.0" height="223.99999999999997" fill="none" stroke="red" stroke-width="10.0" /><rect x="269.0" y="-712.0" width="272.0" height="223.99999999999997" fill="none" stroke="red" stroke-width="10.0" /><rect x="62.0" y="-393.0" width="1702.0" height="173.00000000000003" fill="none" stroke="red" stroke-width="10.0" /><rect x="640.0" y="-834.0" width="1076.0" height="390.99999999999994" fill="none" stroke="red" stroke-width="10.0" />
</svg>
