<svg xmlns="http://www.w3.org/2000/svg"
  viewBox="-50 -841.524 2048.36 669.103">
  <rect x="-50" y="-841.524" width="2048.36" height="669.103" fill="white"/>
  <path d="M 1734.174 -472 L 1727.507 -476.667 L 1727.007 -481.333 L 1732.674 -486 L 1738.341 -490.667 L 1745.507 -493 L 1754.174 -493 L 1763.507 -493 L 1776.507 -501.333 L 1793.174 -518 L 1809.841 -534.667 L 1820.841 -555.333 L 1826.174 -580 L 1834.841 -621.333 L 1813.174 -655.333 L 1761.174 -682 L 1721.841 -701.333 L 1668.674 -716.333 L 1601.674 -727 L 1534.674 -737.667 L 1497.507 -744.333 L 1490.174 -747 L 1482.841 -749.667 L 1480.174 -753.833 L 1482.174 -759.5 L 1484.174 -765.167 L 1487.841 -768 L 1493.174 -768 L 1499.174 -768 L 1536.341 -763 L 1604.674 -753 L 1673.007 -743 L 1735.174 -727.333 L 1791.174 -706 L 1824.507 -692.667 L 1851.174 -679.5 L 1871.174 -666.5 L 1891.174 -653.5 L 1909.841 -635.667 L 1927.174 -613 L 1943.841 -590.333 L 1950.674 -568 L 1947.674 -546 L 1944.674 -524 L 1934.841 -507 L 1918.174 -495 L 1902.841 -483.667 L 1885.341 -476 L 1865.674 -472 L 1846.007 -468 L 1827.174 -466 L 1809.174 -466 L 1782.174 -466 L 1782.174 -466 L 1771.674 -466 L 1764.674 -466 L 1752.174 -468 Z M 19.174 -723 L 39.174 -723 L 60.174 -722.667 L 82.174 -722 L 104.174 -721.333 L 123.841 -719.333 L 141.174 -716 L 153.841 -716 L 168.341 -699 L 184.674 -665 L 201.007 -631 L 218.507 -593.667 L 237.174 -553 L 243.174 -539 L 249.507 -531 L 256.174 -529 L 260.841 -527 L 264.841 -523.5 L 268.174 -518.5 L 271.507 -513.5 L 268.507 -509 L 259.174 -505 L 239.174 -501 L 218.841 -499.333 L 198.174 -500 L 177.507 -500.667 L 157.841 -502.333 L 139.174 -505 L 121.841 -513 L 107.007 -528 L 94.674 -550 L 82.341 -572 L 66.174 -611.667 L 46.174 -669 L 44.841 -672.333 L 41.174 -677.5 L 35.174 -684.5 L 29.174 -691.5 L 22.841 -695.667 L 16.174 -697 L 6.841 -698.333 L 1.507 -703 L 0.174 -711 L -1.159 -719 L 5.174 -723 Z M 290.174 -723 L 310.174 -723 L 331.007 -722.667 L 352.674 -722 L 374.341 -721.333 L 394.174 -719.333 L 412.174 -716 L 424.841 -716 L 439.174 -699 L 455.174 -665 L 471.174 -631 L 488.507 -593.667 L 507.174 -553 L 513.174 -539 L 519.507 -531 L 526.174 -529 L 531.507 -527 L 535.674 -523.5 L 538.674 -518.5 L 541.674 -513.5 L 538.841 -509 L 530.174 -505 L 509.507 -501 L 488.841 -499.333 L 468.174 -500 L 447.507 -500.667 L 427.841 -502.333 L 409.174 -505 L 391.174 -513 L 376.341 -528 L 364.674 -550 L 353.007 -572 L 336.841 -611.667 L 316.174 -669 L 314.174 -672.333 L 310.341 -677.5 L 304.674 -684.5 L 299.007 -691.5 L 292.841 -695.667 L 286.174 -697 L 276.841 -698.333 L 271.674 -703 L 270.674 -711 L 269.674 -719 L 276.174 -723 Z M 25.674 -384 L 29.341 -389.333 L 33.174 -392.167 L 37.174 -392.5 L 41.174 -392.833 L 45.674 -391.667 L 50.674 -389 L 55.674 -386.333 L 61.674 -383.167 L 68.674 -379.5 L 75.674 -375.833 L 85.007 -372.833 L 96.674 -370.5 L 108.341 -368.167 L 124.174 -367 L 144.174 -367 L 1652.174 -367 L 1670.841 -367 L 1687.841 -365.5 L 1703.174 -362.5 L 1718.507 -359.5 L 1732.507 -354.667 L 1745.174 -348 L 1757.841 -341.333 L 1767.674 -335.333 L 1774.674 -330 L 1781.674 -324.667 L 1791.341 -315.5 L 1803.674 -302.5 L 1816.007 -289.5 L 1826.507 -277 L 1835.174 -265 L 1843.841 -253 L 1845.507 -241.333 L 1840.174 -230 L 1834.841 -222 L 1828.674 -220.333 L 1821.674 -225 L 1814.674 -229.667 L 1806.507 -233.667 L 1797.174 -237 L 1787.841 -240.333 L 1777.674 -242.667 L 1766.674 -244 L 1755.674 -245.333 L 1738.507 -246 L 1715.174 -246 L 222.174 -246 L 206.841 -246 L 193.007 -247 L 180.674 -249 L 168.341 -251 L 158.507 -253.167 L 151.174 -255.5 L 143.841 -257.833 L 136.341 -261 L 128.674 -265 L 121.007 -269 L 112.674 -273.833 L 103.674 -279.5 L 94.674 -285.167 L 85.174 -293.167 L 75.174 -303.5 L 65.174 -313.833 L 55.007 -325.833 L 44.674 -339.5 L 34.341 -353.167 L 27.674 -362.667 L 24.674 -368 L 21.674 -373.333 L 22.007 -378.667 Z M 892.174 -465 L 869.507 -456.333 L 831.174 -457 L 777.174 -467 L 745.841 -475 L 718.007 -485.5 L 693.674 -498.5 L 669.341 -511.5 L 650.841 -534.333 L 638.174 -567 L 629.507 -598.333 L 626.507 -623.5 L 629.174 -642.5 L 631.841 -661.5 L 642.174 -683.333 L 660.174 -708 L 677.507 -728.667 L 697.674 -744.333 L 720.674 -755 L 743.674 -765.667 L 771.841 -774.667 L 805.174 -782 L 838.507 -788.667 L 865.507 -791.833 L 886.174 -791.5 L 906.841 -791.167 L 929.174 -790.333 L 953.174 -789 L 977.174 -788.333 L 999.507 -786.667 L 1020.174 -784 L 1040.841 -781.333 L 1065.841 -775.333 L 1095.174 -766 L 1143.841 -752.667 L 1191.507 -734.333 L 1238.174 -711 L 1264.841 -697.667 L 1292.841 -683.5 L 1322.174 -668.5 L 1351.507 -653.5 L 1384.507 -636 L 1421.174 -616 L 1437.841 -606 L 1456.007 -595.167 L 1475.674 -583.5 L 1495.341 -571.833 L 1516.507 -560 L 1539.174 -548 L 1556.507 -537.333 L 1573.674 -526.5 L 1590.674 -515.5 L 1607.674 -504.5 L 1614.841 -493.5 L 1612.174 -482.5 L 1609.507 -471.5 L 1603.007 -466.333 L 1592.674 -467 L 1582.341 -467.667 L 1550.341 -467.333 L 1496.674 -466 L 1443.007 -464.667 L 1396.174 -464.333 L 1356.174 -465 L 1340.174 -477 L 1340.341 -485.5 L 1356.674 -490.5 L 1373.007 -495.5 L 1385.174 -502 L 1393.174 -510 L 1407.841 -525.333 L 1414.341 -537.5 L 1412.674 -546.5 L 1411.007 -555.5 L 1408.674 -562.5 L 1405.674 -567.5 L 1402.674 -572.5 L 1397.841 -578 L 1391.174 -584 L 1384.507 -590 L 1368.341 -601.833 L 1342.674 -619.5 L 1317.007 -637.167 L 1284.841 -656 L 1246.174 -676 L 1212.174 -691.333 L 1185.174 -703.667 L 1165.174 -713 L 1145.174 -722.333 L 1113.174 -733 L 1069.174 -745 L 1036.507 -751.667 L 1003.174 -755.667 L 969.174 -757 L 935.174 -758.333 L 900.841 -753.333 L 866.174 -742 L 841.507 -731.333 L 824.174 -722.167 L 814.174 -714.5 L 804.174 -706.833 L 793.174 -693.667 L 781.174 -675 L 770.507 -657 L 764.341 -641.833 L 762.674 -629.5 L 761.007 -617.167 L 760.507 -603 L 761.174 -587 L 761.841 -570.333 L 763.841 -558.167 L 767.174 -550.5 L 770.507 -542.833 L 774.841 -535.167 L 780.174 -527.5 L 785.507 -519.833 L 792.174 -513 L 800.174 -507 L 808.174 -501 L 820.507 -496.667 L 837.174 -494 L 853.841 -491.333 L 870.174 -489 L 886.174 -487 L 892.841 -485.667 L 897.174 -482.667 L 899.174 -478 L 901.174 -473.333 L 898.841 -469 Z" fill="black" fill-opacity="0.25" stroke="black" stroke-width="4"/>
  <rect x="1480" y="-768" width="471" height="302" fill="none" stroke="red" stroke-width="10" /><rect x="-1" y="-723" width="273" height="224" fill="none" stroke="red" stroke-width="10" /><rect x="270" y="-723" width="272" height="224" fill="none" stroke="red" stroke-width="10" /><rect x="22" y="-393" width="1824" height="173" fill="none" stroke="red" stroke-width="10" /><rect x="627" y="-792" width="988" height="336" fill="none" stroke="red" stroke-width="10" />
</svg>
