<svg xmlns="http://www.w3.org/2000/svg"
  viewBox="-50 -770 1558.825 597.579">
  <rect x="-50" y="-770" width="1558.825" height="597.579" fill="white"/>
  <path d="M 331.777 -711 L 351.777 -711 L 372.777 -710.667 L 394.777 -710 L 416.777 -709.333 L 436.444 -707.333 L 453.777 -704 L 466.444 -704 L 480.777 -687 L 496.777 -653 L 512.777 -619 L 530.444 -581.667 L 549.777 -541 L 555.11 -527 L 561.444 -519 L 568.777 -517 L 573.444 -515 L 577.277 -511.5 L 580.277 -506.5 L 583.277 -501.5 L 580.444 -497 L 571.777 -493 L 551.777 -489 L 531.277 -487.333 L 510.277 -488 L 489.277 -488.667 L 469.777 -490.333 L 451.777 -493 L 434.444 -501 L 419.61 -516 L 407.277 -538 L 394.944 -560 L 378.444 -599.667 L 357.777 -657 L 355.777 -660.333 L 352.11 -665.5 L 346.777 -672.5 L 341.444 -679.5 L 335.444 -683.667 L 328.777 -685 L 319.444 -686.333 L 314.11 -691 L 312.777 -699 L 311.444 -707 L 317.777 -711 Z M 61.777 -711 L 81.777 -711 L 102.777 -710.667 L 124.777 -710 L 146.777 -709.333 L 166.444 -707.333 L 183.777 -704 L 196.444 -704 L 210.777 -687 L 226.777 -653 L 242.777 -619 L 260.11 -581.667 L 278.777 -541 L 284.777 -527 L 291.11 -519 L 297.777 -517 L 303.11 -515 L 307.277 -511.5 L 310.277 -506.5 L 313.277 -501.5 L 310.444 -497 L 301.777 -493 L 281.11 -489 L 260.444 -487.333 L 239.777 -488 L 219.11 -488.667 L 199.444 -490.333 L 180.777 -493 L 163.444 -501 L 148.777 -516 L 136.777 -538 L 124.777 -560 L 108.444 -599.667 L 87.777 -657 L 85.777 -660.333 L 82.11 -665.5 L 76.777 -672.5 L 71.444 -679.5 L 65.11 -683.667 L 57.777 -685 L 48.444 -686.333 L 43.277 -691 L 42.277 -699 L 41.277 -707 L 47.777 -711 Z M 1293.777 -720 L 1309.11 -719.333 L 1316.277 -715.167 L 1315.277 -707.5 L 1314.277 -699.833 L 1308.11 -695 L 1296.777 -693 L 1288.11 -691.667 L 1280.777 -688.5 L 1274.777 -683.5 L 1268.777 -678.5 L 1265.11 -674.333 L 1263.777 -671 L 1239.777 -619 L 1221.277 -573.667 L 1208.277 -535 L 1195.277 -496.333 L 1178.777 -473.667 L 1158.777 -467 L 1137.444 -465 L 1114.777 -463.5 L 1090.777 -462.5 L 1066.777 -461.5 L 1043.444 -463 L 1020.777 -467 L 1010.777 -470.333 L 1007.444 -474.167 L 1010.777 -478.5 L 1014.11 -482.833 L 1018.777 -486 L 1024.777 -488 L 1031.444 -490 L 1038.777 -497 L 1046.777 -509 L 1070.11 -546.333 L 1090.11 -589.667 L 1106.777 -639 L 1123.444 -688.333 L 1139.11 -713 L 1153.777 -713 L 1173.777 -715.667 L 1196.277 -717.5 L 1221.277 -718.5 L 1246.277 -719.5 L 1270.444 -720 Z M 2.777 -384 L 6.111 -389.333 L 9.944 -392.167 L 14.277 -392.5 L 18.611 -392.833 L 23.111 -391.667 L 27.777 -389 L 32.444 -386.333 L 38.444 -383.167 L 45.777 -379.5 L 53.111 -375.833 L 62.444 -372.833 L 73.777 -370.5 L 85.111 -368.167 L 101.111 -367 L 121.777 -367 L 1267.777 -367 L 1286.444 -367 L 1303.444 -365.5 L 1318.777 -362.5 L 1334.111 -359.5 L 1348.111 -354.667 L 1360.777 -348 L 1373.444 -341.333 L 1383.277 -335.333 L 1390.277 -330 L 1397.277 -324.667 L 1406.944 -315.5 L 1419.277 -302.5 L 1431.611 -289.5 L 1442.111 -277 L 1450.777 -265 L 1459.444 -253 L 1461.111 -241.333 L 1455.777 -230 L 1450.444 -222 L 1444.277 -220.333 L 1437.277 -225 L 1430.277 -229.667 L 1422.111 -233.667 L 1412.777 -237 L 1403.444 -240.333 L 1393.277 -242.667 L 1382.277 -244 L 1371.277 -245.333 L 1354.111 -246 L 1330.777 -246 L 199.777 -246 L 184.444 -246 L 170.444 -247 L 157.777 -249 L 145.111 -251 L 135.277 -253.167 L 128.277 -255.5 L 121.277 -257.833 L 113.777 -261 L 105.777 -265 L 97.777 -269 L 89.444 -273.833 L 80.777 -279.5 L 72.111 -285.167 L 62.611 -293.167 L 52.277 -303.5 L 41.944 -313.833 L 31.611 -325.833 L 21.277 -339.5 L 10.944 -353.167 L 4.444 -362.667 L 1.777 -368 L -0.889 -373.333 L -0.556 -378.667 Z" fill="black" fill-opacity="0.25" stroke="black" stroke-width="4"/>
  <rect x="311" y="-711" width="272" height="224" fill="none" stroke="red" stroke-width="10" /><rect x="41" y="-711" width="272" height="224" fill="none" stroke="red" stroke-width="10" /><rect x="1007" y="-720" width="309" height="258" fill="none" stroke="red" stroke-width="10" /><rect x="-1" y="-393" width="1462" height="173" fill="none" stroke="red" stroke-width="10" />
</svg>
