<svg xmlns="http://www.w3.org/2000/svg"
  viewBox="-50.00005894218928 -747.0 1416.8253946059476 574.5790908845156">
  <rect x="-50.00005894218928" y="-747.0" width="1416.8253946059476" height="574.5790908845156" fill="white"/>
  <path d="M 709.77734375 -697.0 L 729.77734375 -697.0 L 750.611328125 -696.666992188 L 772.27734375 -696.0 L 793.944335938 -695.333007812 L 813.77734375 -693.333007812 L 831.77734375 -690.0 L 844.444335938 -690.0 L 857.611328125 -668.666992188 L 871.27734375 -626.0 L 884.944335938 -583.333007812 L 901.111328125 -541.666992188 L 919.77734375 -501.0 L 926.444335938 -487.0 L 932.77734375 -479.0 L 938.77734375 -477.0 L 944.111328125 -475.0 L 948.27734375 -471.5 L 951.27734375 -466.5 L 954.27734375 -461.5 L 951.444335938 -457.0 L 942.77734375 -453.0 L 922.111328125 -449.0 L 901.611328125 -447.333007812 L 881.27734375 -448.0 L 860.944335938 -448.666992188 L 841.444335938 -450.333007812 L 822.77734375 -453.0 L 804.77734375 -461.0 L 790.944335938 -480.166992188 L 781.27734375 -510.5 L 771.611328125 -540.833007812 L 756.444335938 -585.0 L 735.77734375 -643.0 L 733.77734375 -646.333007812 L 730.111328125 -651.5 L 724.77734375 -658.5 L 719.444335938 -665.5 L 713.111328125 -669.666992188 L 705.77734375 -671.0 L 695.77734375 -672.333007812 L 690.444335938 -676.833007812 L 689.77734375 -684.5 L 689.111328125 -692.166992188 L 695.77734375 -696.333007812 Z M 438.77734375 -697.0 L 458.77734375 -697.0 L 479.77734375 -696.666992188 L 501.77734375 -696.0 L 523.77734375 -695.333007812 L 543.444335938 -693.333007812 L 560.77734375 -690.0 L 573.444335938 -690.0 L 586.77734375 -668.666992188 L 600.77734375 -626.0 L 614.77734375 -583.333007812 L 631.111328125 -541.666992188 L 649.77734375 -501.0 L 655.77734375 -487.0 L 662.111328125 -479.0 L 668.77734375 -477.0 L 674.111328125 -475.0 L 678.27734375 -471.5 L 681.27734375 -466.5 L 684.27734375 -461.5 L 681.444335938 -457.0 L 672.77734375 -453.0 L 652.77734375 -449.0 L 632.27734375 -447.333007812 L 611.27734375 -448.0 L 590.27734375 -448.666992188 L 570.444335938 -450.333007812 L 551.77734375 -453.0 L 534.444335938 -461.0 L 520.77734375 -480.166992188 L 510.77734375 -510.5 L 500.77734375 -540.833007812 L 485.444335938 -585.0 L 464.77734375 -643.0 L 462.77734375 -646.333007812 L 459.111328125 -651.5 L 453.77734375 -658.5 L 448.444335938 -665.5 L 442.444335938 -669.666992188 L 435.77734375 -671.0 L 426.444335938 -672.333007812 L 421.111328125 -676.833007812 L 419.77734375 -684.5 L 418.444335938 -692.166992188 L 424.77734375 -696.333007812 Z M 2.77734375 -384.0 L 6.111328125 -389.333007812 L 9.9443359375 -392.166992188 L 14.27734375 -392.5 L 18.611328125 -392.833007812 L 23.111328125 -391.666992188 L 27.77734375 -389.0 L 32.4443359375 -386.333007812 L 38.4443359375 -383.166992188 L 45.77734375 -379.5 L 53.111328125 -375.833007812 L 62.4443359375 -372.833007812 L 73.77734375 -370.5 L 85.111328125 -368.166992188 L 101.111328125 -367.0 L 121.77734375 -367.0 L 1125.77734375 -367.0 L 1144.44433594 -367.0 L 1161.44433594 -365.5 L 1176.77734375 -362.5 L 1192.11132812 -359.5 L 1206.11132812 -354.666992188 L 1218.77734375 -348.0 L 1231.44433594 -341.333007812 L 1241.27734375 -335.333007812 L 1248.27734375 -330.0 L 1255.27734375 -324.666992188 L 1264.94433594 -315.5 L 1277.27734375 -302.5 L 1289.61132812 -289.5 L 1300.11132812 -277.0 L 1308.77734375 -265.0 L 1317.44433594 -253.0 L 1319.11132812 -241.333007812 L 1313.77734375 -230.0 L 1308.44433594 -222.0 L 1302.44433594 -220.333007812 L 1295.77734375 -225.0 L 1289.11132812 -229.666992188 L 1280.94433594 -233.666992188 L 1271.27734375 -237.0 L 1261.61132812 -240.333007812 L 1251.27734375 -242.666992188 L 1240.27734375 -244.0 L 1229.27734375 -245.333007812 L 1212.11132812 -246.0 L 1188.77734375 -246.0 L 199.77734375 -246.0 L 184.444335938 -246.0 L 170.444335938 -247.0 L 157.77734375 -249.0 L 145.111328125 -251.0 L 135.27734375 -253.166992188 L 128.27734375 -255.5 L 121.27734375 -257.833007812 L 113.77734375 -261.0 L 105.77734375 -265.0 L 97.77734375 -269.0 L 89.27734375 -273.833007812 L 80.27734375 -279.5 L 71.27734375 -285.166992188 L 61.77734375 -293.166992188 L 51.77734375 -303.5 L 41.77734375 -313.833007812 L 31.611328125 -325.833007812 L 21.27734375 -339.5 L 10.9443359375 -353.166992188 L 4.4443359375 -362.666992188 L 1.77734375 -368.0 L -0.888671875 -373.333007812 L -0.5556640625 -378.666992188 Z" fill="black" fill-opacity="0.25" stroke="black" stroke-width="4.0"/>
  <rect x="689.0" y="-697.0" width="265.0" height="249.99999999999994" fill="none" stroke="red" stroke-width="10.0" /><rect x="418.0" y="-697.0" width="266.00000000000006" height="249.99999999999994" fill="none" stroke="red" stroke-width="10.0" /><rect x="-1.0" y="-393.0" width="1319.9999999999998" height="173.00000000000003" fill="none" stroke="red" stroke-width="10.0" />
</svg>
