<svg xmlns="http://www.w3.org/2000/svg"
  viewBox="-50 -1322 1513 1149.579">
  <rect x="-50" y="-1322" width="1513" height="1149.579" fill="white"/>
  <path d="M 288.777 -697 L 308.777 -697 L 329.777 -696.667 L 351.777 -696 L 373.777 -695.333 L 393.444 -693.333 L 410.777 -690 L 423.444 -690 L 436.777 -668.667 L 450.777 -626 L 464.777 -583.333 L 481.444 -541.667 L 500.777 -501 L 506.777 -487 L 513.111 -479 L 519.777 -477 L 525.111 -475 L 529.111 -471.5 L 531.777 -466.5 L 534.444 -461.5 L 531.444 -457 L 522.777 -453 L 502.777 -449 L 482.277 -447.333 L 461.277 -448 L 440.277 -448.667 L 420.444 -450.333 L 401.777 -453 L 384.444 -461 L 370.777 -480.167 L 360.777 -510.5 L 350.777 -540.833 L 335.444 -585 L 314.777 -643 L 313.444 -646.333 L 309.944 -651.5 L 304.277 -658.5 L 298.611 -665.5 L 292.444 -669.667 L 285.777 -671 L 276.444 -672.333 L 271.111 -676.833 L 269.777 -684.5 L 268.444 -692.167 L 274.777 -696.333 Z M 559.777 -697 L 579.777 -697 L 600.611 -696.667 L 622.277 -696 L 643.944 -695.333 L 663.777 -693.333 L 681.777 -690 L 694.444 -690 L 707.611 -668.667 L 721.277 -626 L 734.944 -583.333 L 751.444 -541.667 L 770.777 -501 L 776.777 -487 L 783.111 -479 L 789.777 -477 L 795.111 -475 L 799.111 -471.5 L 801.777 -466.5 L 804.444 -461.5 L 801.444 -457 L 792.777 -453 L 772.777 -449 L 752.444 -447.333 L 731.777 -448 L 711.111 -448.667 L 691.444 -450.333 L 672.777 -453 L 655.444 -461 L 641.777 -480.167 L 631.777 -510.5 L 621.777 -540.833 L 606.444 -585 L 585.777 -643 L 583.777 -646.333 L 579.944 -651.5 L 574.277 -658.5 L 568.611 -665.5 L 562.444 -669.667 L 555.777 -671 L 546.444 -672.333 L 541.277 -676.833 L 540.277 -684.5 L 539.277 -692.167 L 545.777 -696.333 Z M 2.777 -384 L 6.111 -389.333 L 9.944 -392.167 L 14.277 -392.5 L 18.611 -392.833 L 23.111 -391.667 L 27.777 -389 L 32.444 -386.333 L 38.444 -383.167 L 45.777 -379.5 L 53.111 -375.833 L 62.444 -372.833 L 73.777 -370.5 L 85.111 -368.167 L 101.111 -367 L 121.777 -367 L 1145.777 -367 L 1164.444 -367 L 1181.444 -365.5 L 1196.777 -362.5 L 1212.111 -359.5 L 1226.111 -354.667 L 1238.777 -348 L 1251.444 -341.333 L 1261.277 -335.333 L 1268.277 -330 L 1275.277 -324.667 L 1284.777 -315.5 L 1296.777 -302.5 L 1308.777 -289.5 L 1319.277 -277 L 1328.277 -265 L 1337.277 -253 L 1339.111 -241.333 L 1333.777 -230 L 1328.444 -222 L 1322.277 -220.333 L 1315.277 -225 L 1308.277 -229.667 L 1300.111 -233.667 L 1290.777 -237 L 1281.444 -240.333 L 1271.277 -242.667 L 1260.277 -244 L 1249.277 -245.333 L 1232.111 -246 L 1208.777 -246 L 199.777 -246 L 184.444 -246 L 170.444 -247 L 157.777 -249 L 145.111 -251 L 135.277 -253.167 L 128.277 -255.5 L 121.277 -257.833 L 113.777 -261 L 105.777 -265 L 97.777 -269 L 89.277 -273.833 L 80.277 -279.5 L 71.277 -285.167 L 61.777 -293.167 L 51.777 -303.5 L 41.777 -313.833 L 31.611 -325.833 L 21.277 -339.5 L 10.944 -353.167 L 4.444 -362.667 L 1.777 -368 L -0.889 -373.333 L -0.556 -378.667 Z M 1398.777 -1163 L 1409.444 -1161 L 1414.111 -1155.5 L 1412.777 -1146.5 L 1411.444 -1137.5 L 1404.777 -1132.667 L 1392.777 -1132 L 1378.777 -1127.333 L 1367.444 -1109.667 L 1358.777 -1079 L 1350.111 -1048.333 L 1341.111 -1016 L 1331.777 -982 L 1309.111 -902.667 L 1288.444 -838.333 L 1269.777 -789 L 1251.111 -739.667 L 1233.277 -705.167 L 1216.277 -685.5 L 1199.277 -665.833 L 1179.111 -650.667 L 1155.777 -640 L 1119.777 -624.667 L 1084.277 -613.333 L 1049.277 -606 L 1014.277 -598.667 L 984.111 -595 L 958.777 -595 L 971.444 -565 L 992.611 -544 L 1022.277 -532 L 1051.944 -520 L 1060.444 -507.333 L 1047.777 -494 L 1040.444 -486.667 L 1017.444 -496.333 L 978.777 -523 L 940.111 -549.667 L 913.444 -576 L 898.777 -602 L 898.777 -618.667 L 905.611 -625.667 L 919.277 -623 L 932.944 -620.333 L 947.444 -618.333 L 962.777 -617 L 978.111 -616.333 L 994.111 -617.333 L 1010.777 -620 L 1027.444 -622.667 L 1049.444 -631 L 1076.777 -645 L 1090.111 -651.667 L 1102.611 -666.833 L 1114.277 -690.5 L 1125.944 -714.167 L 1136.611 -740.333 L 1146.277 -769 L 1155.944 -797.667 L 1164.111 -826.167 L 1170.777 -854.5 L 1177.444 -882.833 L 1186.277 -923.667 L 1197.277 -977 L 1208.277 -1030.333 L 1217.611 -1066 L 1225.277 -1084 L 1232.944 -1102 L 1243.944 -1116.667 L 1258.277 -1128 L 1272.611 -1139.333 L 1286.277 -1146.667 L 1299.277 -1150 L 1312.277 -1153.333 L 1326.777 -1155.667 L 1342.777 -1157 L 1358.777 -1158.333 L 1377.444 -1160.333 Z M 791.777 -1272 L 801.111 -1270.667 L 805.277 -1266.5 L 804.277 -1259.5 L 803.277 -1252.5 L 797.111 -1248.667 L 785.777 -1248 L 773.777 -1244 L 763.944 -1230.833 L 756.277 -1208.5 L 748.611 -1186.167 L 740.444 -1162.333 L 731.777 -1137 L 711.777 -1077.667 L 693.611 -1029.667 L 677.277 -993 L 660.944 -956.333 L 645.444 -930.667 L 630.777 -916 L 616.111 -901.333 L 598.444 -890 L 577.777 -882 L 545.777 -870.667 L 514.444 -862.167 L 483.777 -856.5 L 453.111 -850.833 L 426.444 -848 L 403.777 -848 L 415.111 -825.333 L 433.944 -809.667 L 460.277 -801 L 486.611 -792.333 L 494.111 -783 L 482.777 -773 L 476.111 -767.667 L 455.777 -775 L 421.777 -795 L 387.777 -815 L 364.444 -834.667 L 351.777 -854 L 351.777 -866.667 L 357.611 -871.833 L 369.277 -869.5 L 380.944 -867.167 L 393.777 -865.667 L 407.777 -865 L 421.777 -864.333 L 435.944 -865 L 450.277 -867 L 464.611 -869 L 483.777 -875.333 L 507.777 -886 L 519.777 -891.333 L 530.944 -902.667 L 541.277 -920 L 551.611 -937.333 L 560.944 -956.833 L 569.277 -978.5 L 577.611 -1000.167 L 584.777 -1021.5 L 590.777 -1042.5 L 596.777 -1063.5 L 604.444 -1093.833 L 613.777 -1133.5 L 623.111 -1173.167 L 631.277 -1199.667 L 638.277 -1213 L 645.277 -1226.333 L 655.111 -1237.167 L 667.777 -1245.5 L 680.444 -1253.833 L 692.611 -1259.167 L 704.277 -1261.5 L 715.944 -1263.833 L 728.777 -1265.667 L 742.777 -1267 L 756.777 -1268.333 L 773.111 -1270 Z" fill="black" fill-opacity="0.25" stroke="black" stroke-width="4"/>
  <rect x="268" y="-697" width="266" height="250" fill="none" stroke="red" stroke-width="10" /><rect x="539" y="-697" width="265" height="250" fill="none" stroke="red" stroke-width="10" /><rect x="-1" y="-393" width="1340" height="173" fill="none" stroke="red" stroke-width="10" /><rect x="898.8" y="-715.4" width="339.8" height="223.8" fill="none" stroke="red" stroke-width="10" /><rect x="1126.5" y="-939.2" width="193.1" height="223.8" fill="none" stroke="red" stroke-width="10" /><rect x="1189.5" y="-1163" width="224.6" height="223.8" fill="none" stroke="red" stroke-width="10" /><rect x="351.8" y="-938.2" width="298.2" height="166.9" fill="none" stroke="red" stroke-width="10" /><rect x="552" y="-1105.1" width="169" height="166.9" fill="none" stroke="red" stroke-width="10" /><rect x="607.1" y="-1272" width="198.2" height="166.9" fill="none" stroke="red" stroke-width="10" />
</svg>
