<svg xmlns="http://www.w3.org/2000/svg"
  viewBox="-50.00005894218928 -1213.0 1458.9998071225464 1040.5790908845156">
  <rect x="-50.00005894218928" y="-1213.0" width="1458.9998071225464" height="1040.5790908845156" fill="white"/>
  <path d="M 2.77734375 -384.0 L 6.111328125 -389.333007812 L 9.9443359375 -392.166992188 L 14.27734375 -392.5 L 18.611328125 -392.833007812 L 23.111328125 -391.666992188 L 27.77734375 -389.0 L 32.4443359375 -386.333007812 L 38.4443359375 -383.166992188 L 45.77734375 -379.5 L 53.111328125 -375.833007812 L 62.4443359375 -372.833007812 L 73.77734375 -370.5 L 85.111328125 -368.166992188 L 101.111328125 -367.0 L 121.77734375 -367.0 L 1145.77734375 -367.0 L 1164.44433594 -367.0 L 1181.44433594 -365.5 L 1196.77734375 -362.5 L 1212.11132812 -359.5 L 1226.11132812 -354.666992188 L 1238.77734375 -348.0 L 1251.44433594 -341.333007812 L 1261.27734375 -335.333007812 L 1268.27734375 -330.0 L 1275.27734375 -324.666992188 L 1284.77734375 -315.5 L 1296.77734375 -302.5 L 1308.77734375 -289.5 L 1319.27734375 -277.0 L 1328.27734375 -265.0 L 1337.27734375 -253.0 L 1339.11132812 -241.333007812 L 1333.77734375 -230.0 L 1328.44433594 -222.0 L 1322.27734375 -220.333007812 L 1315.27734375 -225.0 L 1308.27734375 -229.666992188 L 1300.11132812 -233.666992188 L 1290.77734375 -237.0 L 1281.44433594 -240.333007812 L 1271.27734375 -242.666992188 L 1260.27734375 -244.0 L 1249.27734375 -245.333007812 L 1232.11132812 -246.0 L 1208.77734375 -246.0 L 199.77734375 -246.0 L 184.444335938 -246.0 L 170.444335938 -247.0 L 157.77734375 -249.0 L 145.111328125 -251.0 L 135.27734375 -253.166992188 L 128.27734375 -255.5 L 121.27734375 -257.833007812 L 113.77734375 -261.0 L 105.77734375 -265.0 L 97.77734375 -269.0 L 89.27734375 -273.833007812 L 80.27734375 -279.5 L 71.27734375 -285.166992188 L 61.77734375 -293.166992188 L 51.77734375 -303.5 L 41.77734375 -313.833007812 L 31.611328125 -325.833007812 L 21.27734375 -339.5 L 10.9443359375 -353.166992188 L 4.4443359375 -362.666992188 L 1.77734375 -368.0 L -0.888671875 -373.333007812 L -0.5556640625 -378.666992188 Z M 1344.77734375 -1163.0 L 1355.44433594 -1161.0 L 1360.11132812 -1155.5 L 1358.77734375 -1146.5 L 1357.44433594 -1137.5 L 1350.77734375 -1132.66699219 L 1338.77734375 -1132.0 L 1324.77734375 -1127.33300781 L 1313.61132812 -1109.66699219 L 1305.27734375 -1079.0 L 1296.94433594 -1048.33300781 L 1287.77734375 -1016.0 L 1277.77734375 -982.0 L 1255.11132812 -902.666992188 L 1234.44433594 -838.333007812 L 1215.77734375 -789.0 L 1197.11132812 -739.666992188 L 1179.44433594 -705.166992188 L 1162.77734375 -685.5 L 1146.11132812 -665.833007812 L 1126.11132812 -650.666992188 L 1102.77734375 -640.0 L 1066.77734375 -624.666992188 L 1031.11132812 -613.333007812 L 995.77734375 -606.0 L 960.444335938 -598.666992188 L 930.111328125 -595.0 L 904.77734375 -595.0 L 917.444335938 -565.0 L 938.77734375 -544.0 L 968.77734375 -532.0 L 998.77734375 -520.0 L 1007.44433594 -507.333007812 L 994.77734375 -494.0 L 987.444335938 -486.666992188 L 964.27734375 -496.333007812 L 925.27734375 -523.0 L 886.27734375 -549.666992188 L 859.77734375 -576.0 L 845.77734375 -602.0 L 845.77734375 -618.666992188 L 852.444335938 -625.666992188 L 865.77734375 -623.0 L 879.111328125 -620.333007812 L 893.77734375 -618.333007812 L 909.77734375 -617.0 L 925.111328125 -616.333007812 L 940.944335938 -617.333007812 L 957.27734375 -620.0 L 973.611328125 -622.666992188 L 995.444335938 -631.0 L 1022.77734375 -645.0 L 1036.11132812 -651.666992188 L 1048.77734375 -666.833007812 L 1060.77734375 -690.5 L 1072.77734375 -714.166992188 L 1083.44433594 -740.333007812 L 1092.77734375 -769.0 L 1102.11132812 -797.666992188 L 1110.11132812 -826.166992188 L 1116.77734375 -854.5 L 1123.44433594 -882.833007812 L 1132.27734375 -923.666992188 L 1143.27734375 -977.0 L 1154.27734375 -1030.33300781 L 1163.77734375 -1066.0 L 1171.77734375 -1084.0 L 1179.77734375 -1102.0 L 1190.94433594 -1116.66699219 L 1205.27734375 -1128.0 L 1219.61132812 -1139.33300781 L 1233.27734375 -1146.66699219 L 1246.27734375 -1150.0 L 1259.27734375 -1153.33300781 L 1273.61132812 -1155.66699219 L 1289.27734375 -1157.0 L 1304.94433594 -1158.33300781 L 1323.44433594 -1160.33300781 Z M 578.77734375 -1163.0 L 589.444335938 -1161.0 L 594.111328125 -1155.5 L 592.77734375 -1146.5 L 591.444335938 -1137.5 L 584.444335938 -1132.66699219 L 571.77734375 -1132.0 L 557.77734375 -1127.33300781 L 546.611328125 -1109.66699219 L 538.27734375 -1079.0 L 529.944335938 -1048.33300781 L 520.77734375 -1016.0 L 510.77734375 -982.0 L 488.111328125 -902.666992188 L 467.444335938 -838.333007812 L 448.77734375 -789.0 L 430.111328125 -739.666992188 L 412.444335938 -705.166992188 L 395.77734375 -685.5 L 379.111328125 -665.833007812 L 359.111328125 -650.666992188 L 335.77734375 -640.0 L 299.77734375 -624.666992188 L 264.27734375 -613.333007812 L 229.27734375 -606.0 L 194.27734375 -598.666992188 L 163.77734375 -595.0 L 137.77734375 -595.0 L 150.444335938 -565.0 L 171.77734375 -544.0 L 201.77734375 -532.0 L 231.77734375 -520.0 L 240.444335938 -507.333007812 L 227.77734375 -494.0 L 220.444335938 -486.666992188 L 197.444335938 -496.333007812 L 158.77734375 -523.0 L 120.111328125 -549.666992188 L 93.4443359375 -576.0 L 78.77734375 -602.0 L 78.77734375 -618.666992188 L 85.611328125 -625.666992188 L 99.27734375 -623.0 L 112.944335938 -620.333007812 L 127.444335938 -618.333007812 L 142.77734375 -617.0 L 158.111328125 -616.333007812 L 173.944335938 -617.333007812 L 190.27734375 -620.0 L 206.611328125 -622.666992188 L 228.444335938 -631.0 L 255.77734375 -645.0 L 269.111328125 -651.666992188 L 281.77734375 -666.833007812 L 293.77734375 -690.5 L 305.77734375 -714.166992188 L 316.611328125 -740.333007812 L 326.27734375 -769.0 L 335.944335938 -797.666992188 L 344.111328125 -826.166992188 L 350.77734375 -854.5 L 357.444335938 -882.833007812 L 366.27734375 -923.666992188 L 377.27734375 -977.0 L 388.27734375 -1030.33300781 L 397.611328125 -1066.0 L 405.27734375 -1084.0 L 412.944335938 -1102.0 L 423.944335938 -1116.66699219 L 438.27734375 -1128.0 L 452.611328125 -1139.33300781 L 466.27734375 -1146.66699219 L 479.27734375 -1150.0 L 492.27734375 -1153.33300781 L 506.77734375 -1155.66699219 L 522.77734375 -1157.0 L 538.77734375 -1158.33300781 L 557.444335938 -1160.33300781 Z" fill="black" fill-opacity="0.25" stroke="black" stroke-width="4.0"/>
  <rect x="-1.0" y="-393.0" width="1339.9999999999998" height="173.00000000000003" fill="none" stroke="red" stroke-width="10.0" /><rect x="846.0" y="-1163.0" width="514.0000000000001" height="676.0" fill="none" stroke="red" stroke-width="10.0" /><rect x="79.0" y="-1163.0" width="515.0" height="676.0" fill="none" stroke="red" stroke-width="10.0" />
</svg>
