<svg xmlns="http://www.w3.org/2000/svg"
  viewBox="-50 -856 1568.754 683.579">
  <rect x="-50" y="-856" width="1568.754" height="683.579" fill="white"/>
  <path d="M 1100.777 -458 L 1093.444 -464 L 1093.11 -469.5 L 1099.777 -474.5 L 1106.444 -479.5 L 1114.777 -482 L 1124.777 -482 L 1135.444 -482 L 1150.444 -491.833 L 1169.777 -511.5 L 1189.11 -531.167 L 1202.11 -555.333 L 1208.777 -584 L 1218.777 -632.667 L 1193.11 -672.333 L 1131.777 -703 L 1108.444 -714.333 L 1079.11 -724.5 L 1043.777 -733.5 L 1008.444 -742.5 L 973.444 -750.333 L 938.777 -757 L 904.11 -763.667 L 873.61 -769.167 L 847.277 -773.5 L 820.944 -778.5 L 805.444 -781.667 L 800.777 -783 L 791.444 -786.333 L 787.944 -791 L 790.277 -797 L 792.61 -803 L 797.444 -806 L 804.777 -806 L 808.777 -806 L 823.777 -804.5 L 849.777 -801.5 L 875.777 -798.5 L 906.777 -794 L 942.777 -788 L 978.777 -782 L 1016.944 -774.167 L 1057.277 -764.5 L 1097.61 -754.833 L 1134.444 -743.667 L 1167.777 -731 L 1207.11 -715.667 L 1238.444 -700.333 L 1261.777 -685 L 1285.11 -669.667 L 1306.444 -649 L 1325.777 -623 L 1345.11 -597 L 1353.277 -571 L 1350.277 -545 L 1347.277 -519 L 1336.11 -498.667 L 1316.777 -484 L 1298.777 -470.667 L 1278.277 -461.667 L 1255.277 -457 L 1232.277 -452.333 L 1210.11 -450 L 1188.777 -450 L 1156.777 -450 L 1156.777 -450 L 1144.777 -450 L 1136.777 -450 L 1122.11 -452.667 Z M 336.777 -710 L 356.777 -710 L 377.777 -709.667 L 399.777 -709 L 421.777 -708.333 L 441.444 -706.333 L 458.777 -703 L 471.444 -703 L 485.777 -686 L 501.777 -652 L 517.777 -618 L 535.444 -580.667 L 554.777 -540 L 560.11 -526 L 566.444 -518 L 573.777 -516 L 578.444 -514 L 582.277 -510.5 L 585.277 -505.5 L 588.277 -500.5 L 585.444 -496 L 576.777 -492 L 556.777 -488 L 536.277 -486.333 L 515.277 -487 L 494.277 -487.667 L 474.777 -489.333 L 456.777 -492 L 439.444 -500 L 424.61 -515 L 412.277 -537 L 399.944 -559 L 383.444 -598.667 L 362.777 -656 L 360.777 -659.333 L 357.11 -664.5 L 351.777 -671.5 L 346.444 -678.5 L 340.444 -682.667 L 333.777 -684 L 324.444 -685.333 L 319.11 -690 L 317.777 -698 L 316.444 -706 L 322.777 -710 Z M 66.777 -710 L 86.777 -710 L 107.777 -709.667 L 129.777 -709 L 151.777 -708.333 L 171.444 -706.333 L 188.777 -703 L 201.444 -703 L 215.777 -686 L 231.777 -652 L 247.777 -618 L 265.11 -580.667 L 283.777 -540 L 289.777 -526 L 296.11 -518 L 302.777 -516 L 308.11 -514 L 312.277 -510.5 L 315.277 -505.5 L 318.277 -500.5 L 315.444 -496 L 306.777 -492 L 286.11 -488 L 265.444 -486.333 L 244.777 -487 L 224.11 -487.667 L 204.444 -489.333 L 185.777 -492 L 168.444 -500 L 153.777 -515 L 141.777 -537 L 129.777 -559 L 113.444 -598.667 L 92.777 -656 L 90.777 -659.333 L 87.11 -664.5 L 81.777 -671.5 L 76.444 -678.5 L 70.11 -682.667 L 62.777 -684 L 53.444 -685.333 L 48.277 -690 L 47.277 -698 L 46.277 -706 L 52.777 -710 Z M 2.777 -384 L 6.111 -389.333 L 9.944 -392.167 L 14.277 -392.5 L 18.611 -392.833 L 23.111 -391.667 L 27.777 -389 L 32.444 -386.333 L 38.444 -383.167 L 45.777 -379.5 L 53.111 -375.833 L 62.444 -372.833 L 73.777 -370.5 L 85.111 -368.167 L 101.111 -367 L 121.777 -367 L 1276.777 -367 L 1295.444 -367 L 1312.611 -365.5 L 1328.277 -362.5 L 1343.944 -359.5 L 1358.111 -354.667 L 1370.777 -348 L 1383.444 -341.333 L 1393.277 -335.333 L 1400.277 -330 L 1407.277 -324.667 L 1416.777 -315.5 L 1428.777 -302.5 L 1440.777 -289.5 L 1451.277 -277 L 1460.277 -265 L 1469.277 -253 L 1471.111 -241.333 L 1465.777 -230 L 1460.444 -222 L 1454.277 -220.333 L 1447.277 -225 L 1440.277 -229.667 L 1432.111 -233.667 L 1422.777 -237 L 1413.444 -240.333 L 1403.277 -242.667 L 1392.277 -244 L 1381.277 -245.333 L 1364.111 -246 L 1340.777 -246 L 199.777 -246 L 184.444 -246 L 170.444 -247 L 157.777 -249 L 145.111 -251 L 135.277 -253.167 L 128.277 -255.5 L 121.277 -257.833 L 113.777 -261 L 105.777 -265 L 97.777 -269 L 89.444 -273.833 L 80.777 -279.5 L 72.111 -285.167 L 62.611 -293.167 L 52.277 -303.5 L 41.944 -313.833 L 31.611 -325.833 L 21.277 -339.5 L 10.944 -353.167 L 4.444 -362.667 L 1.777 -368 L -0.889 -373.333 L -0.556 -378.667 Z" fill="black" fill-opacity="0.25" stroke="black" stroke-width="4"/>
  <rect x="788" y="-806" width="565" height="356" fill="none" stroke="red" stroke-width="10" /><rect x="316" y="-710" width="272" height="224" fill="none" stroke="red" stroke-width="10" /><rect x="46" y="-710" width="272" height="224" fill="none" stroke="red" stroke-width="10" /><rect x="-1" y="-393" width="1472" height="173" fill="none" stroke="red" stroke-width="10" />
</svg>
