<svg xmlns="http://www.w3.org/2000/svg"
  viewBox="-50 -883.47 1861.648 711.05">
  <rect x="-50" y="-883.47" width="1861.648" height="711.05" fill="white"/>
  <path d="M 19.6 -712 L 39.6 -712 L 60.6 -711.667 L 82.6 -711 L 104.6 -710.333 L 124.267 -708.333 L 141.6 -705 L 154.267 -705 L 168.6 -688 L 184.6 -654 L 200.6 -620 L 218.267 -582.667 L 237.6 -542 L 242.933 -528 L 249.267 -520 L 256.6 -518 L 261.267 -516 L 265.1 -512.5 L 268.1 -507.5 L 271.1 -502.5 L 268.267 -498 L 259.6 -494 L 239.6 -490 L 219.1 -488.333 L 198.1 -489 L 177.1 -489.667 L 157.267 -491.333 L 138.6 -494 L 121.267 -502 L 106.6 -517 L 94.6 -539 L 82.6 -561 L 66.267 -600.667 L 45.6 -658 L 43.6 -661.333 L 39.933 -666.5 L 34.6 -673.5 L 29.267 -680.5 L 22.933 -684.667 L 15.6 -686 L 6.267 -687.333 L 1.1 -692 L 0.1 -700 L -0.9 -708 L 5.6 -712 Z M 289.6 -712 L 309.6 -712 L 330.6 -711.667 L 352.6 -711 L 374.6 -710.333 L 394.267 -708.333 L 411.6 -705 L 424.267 -705 L 438.6 -688 L 454.6 -654 L 470.6 -620 L 488.267 -582.667 L 507.6 -542 L 513.6 -528 L 519.933 -520 L 526.6 -518 L 531.933 -516 L 535.933 -512.5 L 538.6 -507.5 L 541.267 -502.5 L 538.6 -498 L 530.6 -494 L 509.933 -490 L 489.267 -488.333 L 468.6 -489 L 447.933 -489.667 L 427.933 -491.333 L 408.6 -494 L 391.267 -502 L 376.6 -517 L 364.6 -539 L 352.6 -561 L 336.6 -600.667 L 316.6 -658 L 314.6 -661.333 L 310.767 -666.5 L 305.1 -673.5 L 299.433 -680.5 L 293.267 -684.667 L 286.6 -686 L 277.267 -687.333 L 271.933 -692 L 270.6 -700 L 269.267 -708 L 275.6 -712 Z M 66.1 -384 L 69.767 -389.333 L 73.6 -392.167 L 77.6 -392.5 L 81.6 -392.833 L 86.1 -391.667 L 91.1 -389 L 96.1 -386.333 L 102.267 -383.167 L 109.6 -379.5 L 116.934 -375.833 L 126.267 -372.833 L 137.6 -370.5 L 148.934 -368.167 L 164.934 -367 L 185.6 -367 L 1570.6 -367 L 1589.267 -367 L 1606.267 -365.5 L 1621.6 -362.5 L 1636.934 -359.5 L 1650.934 -354.667 L 1663.6 -348 L 1676.267 -341.333 L 1686.1 -335.333 L 1693.1 -330 L 1700.1 -324.667 L 1709.767 -315.5 L 1722.1 -302.5 L 1734.434 -289.5 L 1744.934 -277 L 1753.6 -265 L 1762.267 -253 L 1763.934 -241.333 L 1758.6 -230 L 1753.267 -222 L 1747.1 -220.333 L 1740.1 -225 L 1733.1 -229.667 L 1724.934 -233.667 L 1715.6 -237 L 1706.267 -240.333 L 1696.1 -242.667 L 1685.1 -244 L 1674.1 -245.333 L 1656.934 -246 L 1633.6 -246 L 263.6 -246 L 248.267 -246 L 234.267 -247 L 221.6 -249 L 208.934 -251 L 199.1 -253.167 L 192.1 -255.5 L 185.1 -257.833 L 177.6 -261 L 169.6 -265 L 161.6 -269 L 153.1 -273.833 L 144.1 -279.5 L 135.1 -285.167 L 125.6 -293.167 L 115.6 -303.5 L 105.6 -313.833 L 95.434 -325.833 L 85.1 -339.5 L 74.767 -353.167 L 68.1 -362.667 L 65.1 -368 L 62.1 -373.333 L 62.434 -378.667 Z M 672.6 -662 L 647.267 -708 L 640.433 -747.333 L 652.1 -780 L 663.767 -812.667 L 684.6 -830.333 L 714.6 -833 L 733.933 -834.333 L 748.767 -832.833 L 759.1 -828.5 L 769.433 -824.167 L 778.6 -819.833 L 786.6 -815.5 L 794.6 -811.167 L 802.1 -806.5 L 809.1 -801.5 L 816.1 -796.5 L 822.6 -791.333 L 828.6 -786 L 834.6 -780.667 L 838.933 -775.833 L 841.6 -771.5 L 844.267 -767.167 L 845.433 -763.167 L 845.1 -759.5 L 844.767 -755.833 L 843.267 -753.167 L 840.6 -751.5 L 837.933 -749.833 L 830.767 -746.833 L 819.1 -742.5 L 807.433 -738.167 L 792.433 -730.667 L 774.1 -720 L 755.767 -709.333 L 746.933 -692 L 747.6 -668 L 747.6 -642.667 L 773.933 -618.833 L 826.6 -596.5 L 879.267 -574.167 L 957.6 -565 L 1061.6 -569 L 1507.6 -593 L 1529.6 -593 L 1547.1 -591.5 L 1560.1 -588.5 L 1573.1 -585.5 L 1584.933 -581.667 L 1595.6 -577 L 1606.267 -572.333 L 1615.267 -567.667 L 1622.6 -563 L 1629.933 -558.333 L 1638.767 -551.667 L 1649.1 -543 L 1659.433 -534.333 L 1671.1 -523 L 1684.1 -509 L 1697.1 -495 L 1705.6 -484.667 L 1709.6 -478 L 1713.6 -471.333 L 1715.6 -464.833 L 1715.6 -458.5 L 1715.6 -452.167 L 1713.6 -448 L 1709.6 -446 L 1705.6 -444 L 1701.1 -443 L 1696.1 -443 L 1691.1 -443 L 1685.933 -444 L 1680.6 -446 L 1675.267 -448 L 1668.767 -450.167 L 1661.1 -452.5 L 1653.433 -454.833 L 1644.933 -457.5 L 1635.6 -460.5 L 1626.267 -463.5 L 1617.6 -465.667 L 1609.6 -467 L 1601.6 -468.333 L 1590.933 -469.333 L 1577.6 -470 L 1518.6 -475 L 1424.6 -471.667 L 1343.767 -472.667 L 1276.1 -478 L 1208.433 -483.333 L 1144.767 -490 L 1085.1 -498 L 1025.433 -506 L 972.767 -514.667 L 927.1 -524 L 881.433 -533.333 L 850.267 -541 L 833.6 -547 L 804.933 -559 L 779.433 -570.833 L 757.1 -582.5 L 734.767 -594.167 L 706.6 -620.667 Z" fill="black" fill-opacity="0.25" stroke="black" stroke-width="4"/>
  <rect x="-1" y="-712" width="272" height="224" fill="none" stroke="red" stroke-width="10" /><rect x="269" y="-712" width="272" height="224" fill="none" stroke="red" stroke-width="10" /><rect x="62" y="-393" width="1702" height="173" fill="none" stroke="red" stroke-width="10" /><rect x="640" y="-834" width="1076" height="391" fill="none" stroke="red" stroke-width="10" />
</svg>
