<svg xmlns="http://www.w3.org/2000/svg"
  viewBox="-50.00005894218928 -770.0 1558.8253946059476 597.5790908845156">
  <rect x="-50.00005894218928" y="-770.0" width="1558.8253946059476" height="597.5790908845156" fill="white"/>
  <path d="M 331.77734375 -711.0 L 351.77734375 -711.0 L 372.77734375 -710.666992188 L 394.77734375 -710.0 L 416.77734375 -709.333007812 L 436.444335938 -707.333007812 L 453.77734375 -704.0 L 466.444335938 -704.0 L 480.77734375 -687.0 L 496.77734375 -653.0 L 512.77734375 -619.0 L 530.444335938 -581.666992188 L 549.77734375 -541.0 L 555.110351562 -527.0 L 561.444335938 -519.0 L 568.77734375 -517.0 L 573.444335938 -515.0 L 577.27734375 -511.5 L 580.27734375 -506.5 L 583.27734375 -501.5 L 580.444335938 -497.0 L 571.77734375 -493.0 L 551.77734375 -489.0 L 531.27734375 -487.333007812 L 510.27734375 -488.0 L 489.27734375 -488.666992188 L 469.77734375 -490.333007812 L 451.77734375 -493.0 L 434.444335938 -501.0 L 419.610351562 -516.0 L 407.27734375 -538.0 L 394.944335938 -560.0 L 378.444335938 -599.666992188 L 357.77734375 -657.0 L 355.77734375 -660.333007812 L 352.110351562 -665.5 L 346.77734375 -672.5 L 341.444335938 -679.5 L 335.444335938 -683.666992188 L 328.77734375 -685.0 L 319.444335938 -686.333007812 L 314.110351562 -691.0 L 312.77734375 -699.0 L 311.444335938 -707.0 L 317.77734375 -711.0 Z M 61.77734375 -711.0 L 81.77734375 -711.0 L 102.77734375 -710.666992188 L 124.77734375 -710.0 L 146.77734375 -709.333007812 L 166.444335938 -707.333007812 L 183.77734375 -704.0 L 196.444335938 -704.0 L 210.77734375 -687.0 L 226.77734375 -653.0 L 242.77734375 -619.0 L 260.110351562 -581.666992188 L 278.77734375 -541.0 L 284.77734375 -527.0 L 291.110351562 -519.0 L 297.77734375 -517.0 L 303.110351562 -515.0 L 307.27734375 -511.5 L 310.27734375 -506.5 L 313.27734375 -501.5 L 310.444335938 -497.0 L 301.77734375 -493.0 L 281.110351562 -489.0 L 260.444335938 -487.333007812 L 239.77734375 -488.0 L 219.110351562 -488.666992188 L 199.444335938 -490.333007812 L 180.77734375 -493.0 L 163.444335938 -501.0 L 148.77734375 -516.0 L 136.77734375 -538.0 L 124.77734375 -560.0 L 108.444335938 -599.666992188 L 87.77734375 -657.0 L 85.77734375 -660.333007812 L 82.1103515625 -665.5 L 76.77734375 -672.5 L 71.4443359375 -679.5 L 65.1103515625 -683.666992188 L 57.77734375 -685.0 L 48.4443359375 -686.333007812 L 43.27734375 -691.0 L 42.27734375 -699.0 L 41.27734375 -707.0 L 47.77734375 -711.0 Z M 1293.77734375 -720.0 L 1309.11035156 -719.333007812 L 1316.27734375 -715.166992188 L 1315.27734375 -707.5 L 1314.27734375 -699.833007812 L 1308.11035156 -695.0 L 1296.77734375 -693.0 L 1288.11035156 -691.666992188 L 1280.77734375 -688.5 L 1274.77734375 -683.5 L 1268.77734375 -678.5 L 1265.11035156 -674.333007812 L 1263.77734375 -671.0 L 1239.77734375 -619.0 L 1221.27734375 -573.666992188 L 1208.27734375 -535.0 L 1195.27734375 -496.333007812 L 1178.77734375 -473.666992188 L 1158.77734375 -467.0 L 1137.44433594 -465.0 L 1114.77734375 -463.5 L 1090.77734375 -462.5 L 1066.77734375 -461.5 L 1043.44433594 -463.0 L 1020.77734375 -467.0 L 1010.77734375 -470.333007812 L 1007.44433594 -474.166992188 L 1010.77734375 -478.5 L 1014.11035156 -482.833007812 L 1018.77734375 -486.0 L 1024.77734375 -488.0 L 1031.44433594 -490.0 L 1038.77734375 -497.0 L 1046.77734375 -509.0 L 1070.11035156 -546.333007812 L 1090.11035156 -589.666992188 L 1106.77734375 -639.0 L 1123.44433594 -688.333007812 L 1139.11035156 -713.0 L 1153.77734375 -713.0 L 1173.77734375 -715.666992188 L 1196.27734375 -717.5 L 1221.27734375 -718.5 L 1246.27734375 -719.5 L 1270.44433594 -720.0 Z M 2.77734375 -384.0 L 6.111328125 -389.333007812 L 9.9443359375 -392.166992188 L 14.27734375 -392.5 L 18.611328125 -392.833007812 L 23.111328125 -391.666992188 L 27.77734375 -389.0 L 32.4443359375 -386.333007812 L 38.4443359375 -383.166992188 L 45.77734375 -379.5 L 53.111328125 -375.833007812 L 62.4443359375 -372.833007812 L 73.77734375 -370.5 L 85.111328125 -368.166992188 L 101.111328125 -367.0 L 121.77734375 -367.0 L 1267.77734375 -367.0 L 1286.44433594 -367.0 L 1303.44433594 -365.5 L 1318.77734375 -362.5 L 1334.11132812 -359.5 L 1348.11132812 -354.666992188 L 1360.77734375 -348.0 L 1373.44433594 -341.333007812 L 1383.27734375 -335.333007812 L 1390.27734375 -330.0 L 1397.27734375 -324.666992188 L 1406.94433594 -315.5 L 1419.27734375 -302.5 L 1431.61132812 -289.5 L 1442.11132812 -277.0 L 1450.77734375 -265.0 L 1459.44433594 -253.0 L 1461.11132812 -241.333007812 L 1455.77734375 -230.0 L 1450.44433594 -222.0 L 1444.27734375 -220.333007812 L 1437.27734375 -225.0 L 1430.27734375 -229.666992188 L 1422.11132812 -233.666992188 L 1412.77734375 -237.0 L 1403.44433594 -240.333007812 L 1393.27734375 -242.666992188 L 1382.27734375 -244.0 L 1371.27734375 -245.333007812 L 1354.11132812 -246.0 L 1330.77734375 -246.0 L 199.77734375 -246.0 L 184.444335938 -246.0 L 170.444335938 -247.0 L 157.77734375 -249.0 L 145.111328125 -251.0 L 135.27734375 -253.166992188 L 128.27734375 -255.5 L 121.27734375 -257.833007812 L 113.77734375 -261.0 L 105.77734375 -265.0 L 97.77734375 -269.0 L 89.4443359375 -273.833007812 L 80.77734375 -279.5 L 72.111328125 -285.166992188 L 62.611328125 -293.166992188 L 52.27734375 -303.5 L 41.9443359375 -313.833007812 L 31.611328125 -325.833007812 L 21.27734375 -339.5 L 10.9443359375 -353.166992188 L 4.4443359375 -362.666992188 L 1.77734375 -368.0 L -0.888671875 -373.333007812 L -0.5556640625 -378.666992188 Z" fill="black" fill-opacity="0.25" stroke="black" stroke-width="4.0"/>
  <rect x="311.0" y="-711.0" width="271.99999999999994" height="223.99999999999997" fill="none" stroke="red" stroke-width="10.0" /><rect x="41.0" y="-711.0" width="272.0" height="223.99999999999997" fill="none" stroke="red" stroke-width="10.0" /><rect x="1006.9999999999999" y="-720.0" width="309.00000000000017" height="257.99999999999994" fill="none" stroke="red" stroke-width="10.0" /><rect x="-1.0" y="-393.0" width="1462.0" height="173.00000000000003" fill="none" stroke="red" stroke-width="10.0" />
</svg>
