<svg xmlns="http://www.w3.org/2000/svg"
  viewBox="-50.00005894218928 -1320.0 1436.7544334076463 1147.5790908845156">
  <rect x="-50.00005894218928" y="-1320.0" width="1436.7544334076463" height="1147.5790908845156" fill="white"/>
  <path d="M 557.77734375 -667.0 L 578.444335938 -667.0 L 599.77734375 -666.833007812 L 621.77734375 -666.5 L 643.77734375 -666.166992188 L 663.77734375 -664.666992188 L 681.77734375 -662.0 L 694.444335938 -662.0 L 707.27734375 -640.5 L 720.27734375 -597.5 L 733.27734375 -554.5 L 749.444335938 -516.333007812 L 768.77734375 -483.0 L 774.77734375 -471.666992188 L 780.77734375 -465.666992188 L 786.77734375 -465.0 L 792.111328125 -463.666992188 L 796.111328125 -460.833007812 L 798.77734375 -456.5 L 801.444335938 -452.166992188 L 798.444335938 -448.666992188 L 789.77734375 -446.0 L 768.444335938 -442.666992188 L 747.27734375 -441.333007812 L 726.27734375 -442.0 L 705.27734375 -442.666992188 L 685.444335938 -444.0 L 666.77734375 -446.0 L 648.77734375 -452.666992188 L 634.77734375 -472.833007812 L 624.77734375 -506.5 L 614.77734375 -540.166992188 L 600.444335938 -579.666992188 L 581.77734375 -625.0 L 575.77734375 -635.666992188 L 566.111328125 -642.333007812 L 552.77734375 -645.0 L 542.77734375 -646.333007812 L 537.611328125 -650.333007812 L 537.27734375 -657.0 L 536.944335938 -663.666992188 L 543.77734375 -667.0 Z M 2.77734375 -384.0 L 6.111328125 -389.333007812 L 9.9443359375 -392.166992188 L 14.27734375 -392.5 L 18.611328125 -392.833007812 L 23.111328125 -391.666992188 L 27.77734375 -389.0 L 32.4443359375 -386.333007812 L 38.4443359375 -383.166992188 L 45.77734375 -379.5 L 53.111328125 -375.833007812 L 62.4443359375 -372.833007812 L 73.77734375 -370.5 L 85.111328125 -368.166992188 L 101.111328125 -367.0 L 121.77734375 -367.0 L 1145.77734375 -367.0 L 1164.44433594 -367.0 L 1181.44433594 -365.5 L 1196.77734375 -362.5 L 1212.11132812 -359.5 L 1226.11132812 -354.666992188 L 1238.77734375 -348.0 L 1251.44433594 -341.333007812 L 1261.27734375 -335.333007812 L 1268.27734375 -330.0 L 1275.27734375 -324.666992188 L 1284.77734375 -315.5 L 1296.77734375 -302.5 L 1308.77734375 -289.5 L 1319.27734375 -277.0 L 1328.27734375 -265.0 L 1337.27734375 -253.0 L 1339.11132812 -241.333007812 L 1333.77734375 -230.0 L 1328.44433594 -222.0 L 1322.27734375 -220.333007812 L 1315.27734375 -225.0 L 1308.27734375 -229.666992188 L 1300.11132812 -233.666992188 L 1290.77734375 -237.0 L 1281.44433594 -240.333007812 L 1271.27734375 -242.666992188 L 1260.27734375 -244.0 L 1249.27734375 -245.333007812 L 1232.11132812 -246.0 L 1208.77734375 -246.0 L 199.77734375 -246.0 L 184.444335938 -246.0 L 170.444335938 -247.0 L 157.77734375 -249.0 L 145.111328125 -251.0 L 135.27734375 -253.166992188 L 128.27734375 -255.5 L 121.27734375 -257.833007812 L 113.77734375 -261.0 L 105.77734375 -265.0 L 97.77734375 -269.0 L 89.27734375 -273.833007812 L 80.27734375 -279.5 L 71.27734375 -285.166992188 L 61.77734375 -293.166992188 L 51.77734375 -303.5 L 41.77734375 -313.833007812 L 31.611328125 -325.833007812 L 21.27734375 -339.5 L 10.9443359375 -353.166992188 L 4.4443359375 -362.666992188 L 1.77734375 -368.0 L -0.888671875 -373.333007812 L -0.5556640625 -378.666992188 Z M 995.77734375 -1270.0 L 1005.77734375 -1268.66699219 L 1010.11132812 -1264.0 L 1008.77734375 -1256.0 L 1007.44433594 -1248.0 L 1001.11132812 -1243.66699219 L 989.77734375 -1243.0 L 977.111328125 -1239.0 L 966.77734375 -1224.16699219 L 958.77734375 -1198.5 L 950.77734375 -1172.83300781 L 942.444335938 -1145.66699219 L 933.77734375 -1117.0 L 913.111328125 -1049.66699219 L 894.111328125 -995.166992188 L 876.77734375 -953.5 L 859.444335938 -911.833007812 L 842.944335938 -882.833007812 L 827.27734375 -866.5 L 811.611328125 -850.166992188 L 793.111328125 -837.666992188 L 771.77734375 -829.0 L 738.444335938 -815.666992188 L 705.611328125 -805.833007812 L 673.27734375 -799.5 L 640.944335938 -793.166992188 L 612.77734375 -790.0 L 588.77734375 -790.0 L 600.77734375 -764.0 L 620.444335938 -746.166992188 L 647.77734375 -736.5 L 675.111328125 -726.833007812 L 683.111328125 -716.333007812 L 671.77734375 -705.0 L 665.111328125 -699.0 L 643.77734375 -707.333007812 L 607.77734375 -730.0 L 571.77734375 -752.666992188 L 547.111328125 -775.0 L 533.77734375 -797.0 L 533.77734375 -811.0 L 540.111328125 -816.833007812 L 552.77734375 -814.5 L 565.444335938 -812.166992188 L 578.77734375 -810.333007812 L 592.77734375 -809.0 L 607.444335938 -808.333007812 L 622.27734375 -809.166992188 L 637.27734375 -811.5 L 652.27734375 -813.833007812 L 672.444335938 -820.666992188 L 697.77734375 -832.0 L 710.444335938 -838.0 L 722.27734375 -851.0 L 733.27734375 -871.0 L 744.27734375 -891.0 L 754.111328125 -913.166992188 L 762.77734375 -937.5 L 771.444335938 -961.833007812 L 778.944335938 -985.833007812 L 785.27734375 -1009.5 L 791.611328125 -1033.16699219 L 799.77734375 -1067.5 L 809.77734375 -1112.5 L 819.77734375 -1157.5 L 828.444335938 -1187.66699219 L 835.77734375 -1203.0 L 843.111328125 -1218.33300781 L 853.27734375 -1230.66699219 L 866.27734375 -1240.0 L 879.27734375 -1249.33300781 L 891.77734375 -1255.33300781 L 903.77734375 -1258.0 L 915.77734375 -1260.66699219 L 929.27734375 -1262.83300781 L 944.27734375 -1264.5 L 959.27734375 -1266.16699219 L 976.444335938 -1268.0 Z" fill="black" fill-opacity="0.25" stroke="black" stroke-width="4.0"/>
  <rect x="537.0" y="-667.0" width="264.0" height="226.00000000000003" fill="none" stroke="red" stroke-width="10.0" /><rect x="-1.0" y="-393.0" width="1339.9999999999998" height="173.00000000000003" fill="none" stroke="red" stroke-width="10.0" /><rect x="533.8000000000001" y="-892.1" width="314.3999999999999" height="189.00000000000006" fill="none" stroke="red" stroke-width="10.0" /><rect x="744.8000000000001" y="-1081.0" width="177.89999999999995" height="188.89999999999995" fill="none" stroke="red" stroke-width="10.0" /><rect x="802.8" y="-1270.0" width="207.30000000000004" height="189.00000000000006" fill="none" stroke="red" stroke-width="10.0" />
</svg>
