<svg xmlns="http://www.w3.org/2000/svg"
  viewBox="-50 -903.522 1909.577 731.101">
  <rect x="-50" y="-903.522" width="1909.577" height="731.101" fill="white"/>
  <path d="M 289.6 -717 L 309.6 -717 L 330.6 -716.667 L 352.6 -716 L 374.6 -715.333 L 394.267 -713.333 L 411.6 -710 L 424.267 -710 L 438.6 -693 L 454.6 -659 L 470.6 -625 L 488.267 -587.667 L 507.6 -547 L 513.6 -533 L 519.933 -525 L 526.6 -523 L 531.267 -521 L 535.1 -517.5 L 538.1 -512.5 L 541.1 -507.5 L 538.267 -503 L 529.6 -499 L 509.6 -495 L 489.1 -493.333 L 468.1 -494 L 447.1 -494.667 L 427.267 -496.333 L 408.6 -499 L 391.267 -507 L 376.6 -522 L 364.6 -544 L 352.6 -566 L 336.267 -605.667 L 315.6 -663 L 314.267 -666.333 L 310.767 -671.5 L 305.1 -678.5 L 299.433 -685.5 L 293.267 -689.667 L 286.6 -691 L 277.267 -692.333 L 271.933 -697 L 270.6 -705 L 269.267 -713 L 275.6 -717 Z M 19.6 -717 L 39.6 -717 L 60.6 -716.667 L 82.6 -716 L 104.6 -715.333 L 124.267 -713.333 L 141.6 -710 L 154.267 -710 L 168.6 -693 L 184.6 -659 L 200.6 -625 L 217.933 -587.667 L 236.6 -547 L 242.6 -533 L 248.933 -525 L 255.6 -523 L 260.933 -521 L 265.1 -517.5 L 268.1 -512.5 L 271.1 -507.5 L 268.267 -503 L 259.6 -499 L 238.933 -495 L 218.267 -493.333 L 197.6 -494 L 176.933 -494.667 L 157.267 -496.333 L 138.6 -499 L 120.6 -507 L 105.767 -522 L 94.1 -544 L 82.433 -566 L 66.267 -605.667 L 45.6 -663 L 43.6 -666.333 L 39.933 -671.5 L 34.6 -678.5 L 29.267 -685.5 L 22.933 -689.667 L 15.6 -691 L 6.267 -692.333 L 1.1 -697 L 0.1 -705 L -0.9 -713 L 5.6 -717 Z M 11.1 -384 L 14.767 -389.333 L 18.6 -392.167 L 22.6 -392.5 L 26.6 -392.833 L 31.1 -391.667 L 36.1 -389 L 41.1 -386.333 L 47.267 -383.167 L 54.6 -379.5 L 61.934 -375.833 L 71.267 -372.833 L 82.6 -370.5 L 93.934 -368.167 L 109.934 -367 L 130.6 -367 L 1617.6 -367 L 1636.267 -367 L 1653.434 -365.5 L 1669.1 -362.5 L 1684.767 -359.5 L 1698.934 -354.667 L 1711.6 -348 L 1724.267 -341.333 L 1734.1 -335.333 L 1741.1 -330 L 1748.1 -324.667 L 1757.6 -315.5 L 1769.6 -302.5 L 1781.6 -289.5 L 1792.1 -277 L 1801.1 -265 L 1810.1 -253 L 1811.934 -241.333 L 1806.6 -230 L 1801.267 -222 L 1795.1 -220.333 L 1788.1 -225 L 1781.1 -229.667 L 1772.934 -233.667 L 1763.6 -237 L 1754.267 -240.333 L 1743.934 -242.667 L 1732.6 -244 L 1721.267 -245.333 L 1704.267 -246 L 1681.6 -246 L 208.6 -246 L 193.267 -246 L 179.267 -247 L 166.6 -249 L 153.934 -251 L 144.1 -253.167 L 137.1 -255.5 L 130.1 -257.833 L 122.6 -261 L 114.6 -265 L 106.6 -269 L 98.1 -273.833 L 89.1 -279.5 L 80.1 -285.167 L 70.6 -293.167 L 60.6 -303.5 L 50.6 -313.833 L 40.434 -325.833 L 30.1 -339.5 L 19.767 -353.167 L 13.1 -362.667 L 10.1 -368 L 7.1 -373.333 L 7.434 -378.667 Z M 914.6 -489 L 889.267 -479.667 L 846.6 -480 L 786.6 -490 L 751.267 -498.667 L 719.933 -510.333 L 692.6 -525 L 665.267 -539.667 L 644.267 -565.333 L 629.6 -602 L 619.6 -637.333 L 616.267 -665.667 L 619.6 -687 L 622.933 -708.333 L 634.933 -732.667 L 655.6 -760 L 674.933 -783.333 L 697.433 -801 L 723.1 -813 L 748.767 -825 L 780.267 -835 L 817.6 -843 L 854.933 -850.333 L 885.267 -853.833 L 908.6 -853.5 L 931.933 -853.167 L 956.933 -852.333 L 983.6 -851 L 1010.267 -849.667 L 1035.1 -847.5 L 1058.1 -844.5 L 1081.1 -841.5 L 1108.933 -835 L 1141.6 -825 L 1195.6 -810.333 L 1248.933 -790 L 1301.6 -764 L 1330.933 -749.333 L 1362.267 -733.5 L 1395.6 -716.5 L 1428.933 -699.5 L 1465.933 -679.667 L 1506.6 -657 L 1525.267 -645.667 L 1545.6 -633.5 L 1567.6 -620.5 L 1589.6 -607.5 L 1613.6 -594.333 L 1639.6 -581 L 1658.933 -569 L 1677.933 -556.833 L 1696.6 -544.5 L 1715.267 -532.167 L 1723.1 -519.833 L 1720.1 -507.5 L 1717.1 -495.167 L 1709.933 -489.333 L 1698.6 -490 L 1687.267 -490.667 L 1651.6 -490.333 L 1591.6 -489 L 1531.6 -487.667 L 1479.267 -487.667 L 1434.6 -489 L 1416.6 -502.333 L 1416.767 -511.833 L 1435.1 -517.5 L 1453.433 -523.167 L 1466.933 -530.333 L 1475.6 -539 L 1492.267 -556.333 L 1499.767 -570 L 1498.1 -580 L 1496.433 -590 L 1493.767 -597.833 L 1490.1 -603.5 L 1486.433 -609.167 L 1480.933 -615.333 L 1473.6 -622 L 1466.267 -628.667 L 1448.1 -641.833 L 1419.1 -661.5 L 1390.1 -681.167 L 1353.933 -702 L 1310.6 -724 L 1271.933 -740.667 L 1241.6 -754.5 L 1219.6 -765.5 L 1197.6 -776.5 L 1161.933 -788.667 L 1112.6 -802 L 1075.933 -809.333 L 1038.6 -813.667 L 1000.6 -815 L 962.6 -816.333 L 924.267 -810.667 L 885.6 -798 L 858.267 -786 L 838.933 -775.833 L 827.6 -767.5 L 816.267 -759.167 L 803.6 -744.333 L 789.6 -723 L 777.6 -703 L 770.767 -686.167 L 769.1 -672.5 L 767.433 -658.833 L 767.267 -642.667 L 768.6 -624 L 769.267 -605.333 L 771.433 -592 L 775.1 -584 L 778.767 -576 L 783.6 -567.667 L 789.6 -559 L 795.6 -550.333 L 803.1 -542.5 L 812.1 -535.5 L 821.1 -528.5 L 834.767 -523.5 L 853.1 -520.5 L 871.433 -517.5 L 889.933 -515 L 908.6 -513 L 916.6 -511.667 L 921.6 -508.5 L 923.6 -503.5 L 925.6 -498.5 L 922.6 -493.667 Z" fill="black" fill-opacity="0.25" stroke="black" stroke-width="4"/>
  <rect x="269" y="-717" width="272" height="224" fill="none" stroke="red" stroke-width="10" /><rect x="-1" y="-717" width="272" height="224" fill="none" stroke="red" stroke-width="10" /><rect x="7" y="-393" width="1805" height="173" fill="none" stroke="red" stroke-width="10" /><rect x="616" y="-854" width="1107" height="374" fill="none" stroke="red" stroke-width="10" />
</svg>
