<svg xmlns="http://www.w3.org/2000/svg"
  viewBox="-50.00035511363637 -1398.0 1394.3360407939933 1314.5216985344719">
  <rect x="-50.00035511363637" y="-1398.0" width="1394.3360407939933" height="1314.5216985344719" fill="white"/>
  <path d="M 532.11328125 -707.0 L 552.11328125 -707.0 L 573.11328125 -706.666992188 L 595.11328125 -706.0 L 617.11328125 -705.333007812 L 636.780273438 -704.0 L 654.11328125 -702.0 L 666.780273438 -702.0 L 680.11328125 -685.666992188 L 694.11328125 -653.0 L 708.11328125 -620.333007812 L 724.447265625 -588.333007812 L 743.11328125 -557.0 L 749.11328125 -545.666992188 L 755.447265625 -539.666992188 L 762.11328125 -539.0 L 766.780273438 -537.666992188 L 770.780273438 -535.166992188 L 774.11328125 -531.5 L 777.447265625 -527.833007812 L 774.780273438 -524.333007812 L 766.11328125 -521.0 L 746.11328125 -517.666992188 L 725.61328125 -516.333007812 L 704.61328125 -517.0 L 683.61328125 -517.666992188 L 663.780273438 -519.0 L 645.11328125 -521.0 L 627.780273438 -527.0 L 614.11328125 -541.666992188 L 604.11328125 -565.0 L 594.11328125 -588.333007812 L 578.780273438 -622.0 L 558.11328125 -666.0 L 556.780273438 -668.0 L 553.280273438 -671.833007812 L 547.61328125 -677.5 L 541.947265625 -683.166992188 L 535.780273438 -686.333007812 L 529.11328125 -687.0 L 519.11328125 -688.333007812 L 513.61328125 -692.0 L 512.61328125 -698.0 L 511.61328125 -704.0 L 518.11328125 -707.0 Z M 262.11328125 -707.0 L 282.11328125 -707.0 L 303.11328125 -706.666992188 L 325.11328125 -706.0 L 347.11328125 -705.333007812 L 366.780273438 -704.0 L 384.11328125 -702.0 L 396.780273438 -702.0 L 410.11328125 -685.666992188 L 424.11328125 -653.0 L 438.11328125 -620.333007812 L 454.447265625 -588.333007812 L 473.11328125 -557.0 L 479.11328125 -545.666992188 L 485.447265625 -539.666992188 L 492.11328125 -539.0 L 497.447265625 -537.666992188 L 501.61328125 -535.166992188 L 504.61328125 -531.5 L 507.61328125 -527.833007812 L 504.780273438 -524.333007812 L 496.11328125 -521.0 L 475.447265625 -517.666992188 L 454.780273438 -516.333007812 L 434.11328125 -517.0 L 413.447265625 -517.666992188 L 393.780273438 -519.0 L 375.11328125 -521.0 L 357.780273438 -527.0 L 344.11328125 -541.666992188 L 334.11328125 -565.0 L 324.11328125 -588.333007812 L 308.780273438 -622.0 L 288.11328125 -666.0 L 286.11328125 -668.0 L 282.447265625 -671.833007812 L 277.11328125 -677.5 L 271.780273438 -683.166992188 L 265.780273438 -686.333007812 L 259.11328125 -687.0 L 249.780273438 -688.333007812 L 244.447265625 -692.0 L 243.11328125 -698.0 L 241.780273438 -704.0 L 248.11328125 -707.0 Z M 806.11328125 -498.0 L 831.447265625 -507.333007812 L 874.447265625 -506.666992188 L 935.11328125 -496.0 L 970.447265625 -487.333007812 L 1001.61328125 -475.666992188 L 1028.61328125 -461.0 L 1055.61328125 -446.333007812 L 1076.44726562 -420.666992188 L 1091.11328125 -384.0 L 1101.11328125 -348.666992188 L 1104.44726562 -320.5 L 1101.11328125 -299.5 L 1097.78027344 -278.5 L 1086.11328125 -254.0 L 1066.11328125 -226.0 L 1046.78027344 -202.666992188 L 1024.28027344 -185.166992188 L 998.61328125 -173.5 L 972.947265625 -161.833007812 L 941.447265625 -152.0 L 904.11328125 -144.0 L 866.780273438 -136.666992188 L 836.447265625 -133.166992188 L 813.11328125 -133.5 L 789.780273438 -133.833007812 L 764.447265625 -134.333007812 L 737.11328125 -135.0 L 710.447265625 -136.333007812 L 685.61328125 -138.5 L 662.61328125 -141.5 L 639.61328125 -144.5 L 611.780273438 -151.0 L 579.11328125 -161.0 L 525.11328125 -175.666992188 L 471.780273438 -196.0 L 419.11328125 -222.0 L 389.780273438 -236.666992188 L 358.61328125 -252.5 L 325.61328125 -269.5 L 292.61328125 -286.5 L 255.780273438 -306.666992188 L 215.11328125 -330.0 L 196.447265625 -341.333007812 L 175.947265625 -353.5 L 153.61328125 -366.5 L 131.280273438 -379.5 L 107.447265625 -392.666992188 L 82.11328125 -406.0 L 62.7802734375 -418.0 L 43.61328125 -430.0 L 24.61328125 -442.0 L 5.61328125 -454.0 L -2.38671875 -466.166992188 L 0.61328125 -478.5 L 3.61328125 -490.833007812 L 10.7802734375 -496.666992188 L 22.11328125 -496.0 L 33.447265625 -495.333007812 L 69.11328125 -495.666992188 L 129.11328125 -497.0 L 189.11328125 -498.333007812 L 241.780273438 -498.666992188 L 287.11328125 -498.0 L 305.11328125 -484.666992188 L 304.947265625 -475.166992188 L 286.61328125 -469.5 L 268.280273438 -463.833007812 L 254.447265625 -456.666992188 L 245.11328125 -448.0 L 228.447265625 -430.666992188 L 221.11328125 -416.833007812 L 223.11328125 -406.5 L 225.11328125 -396.166992188 L 227.947265625 -388.166992188 L 231.61328125 -382.5 L 235.280273438 -376.833007812 L 240.780273438 -370.833007812 L 248.11328125 -364.5 L 255.447265625 -358.166992188 L 273.447265625 -345.0 L 302.11328125 -325.0 L 330.780273438 -305.0 L 366.780273438 -284.0 L 410.11328125 -262.0 L 448.780273438 -245.333007812 L 479.11328125 -231.666992188 L 501.11328125 -221.0 L 523.11328125 -210.333007812 L 558.780273438 -198.333007812 L 608.11328125 -185.0 L 644.780273438 -177.666992188 L 682.11328125 -173.166992188 L 720.11328125 -171.5 L 758.11328125 -169.833007812 L 796.780273438 -175.333007812 L 836.11328125 -188.0 L 863.447265625 -200.0 L 882.61328125 -210.333007812 L 893.61328125 -219.0 L 904.61328125 -227.666992188 L 917.11328125 -242.333007812 L 931.11328125 -263.0 L 943.11328125 -283.0 L 949.947265625 -300.0 L 951.61328125 -314.0 L 953.280273438 -328.0 L 953.447265625 -344.0 L 952.11328125 -362.0 L 951.447265625 -380.666992188 L 949.280273438 -394.166992188 L 945.61328125 -402.5 L 941.947265625 -410.833007812 L 937.280273438 -419.333007812 L 931.61328125 -428.0 L 925.947265625 -436.666992188 L 918.61328125 -444.5 L 909.61328125 -451.5 L 900.61328125 -458.5 L 886.780273438 -463.333007812 L 868.11328125 -466.0 L 849.447265625 -468.666992188 L 831.11328125 -471.0 L 813.11328125 -473.0 L 805.11328125 -474.333007812 L 799.947265625 -477.666992188 L 797.61328125 -483.0 L 795.280273438 -488.333007812 L 798.11328125 -493.333007812 Z M 1280.11328125 -1222.0 L 1290.78027344 -1220.0 L 1295.44726562 -1214.5 L 1294.11328125 -1205.5 L 1292.78027344 -1196.5 L 1286.11328125 -1191.33300781 L 1274.11328125 -1190.0 L 1260.11328125 -1185.33300781 L 1248.78027344 -1167.83300781 L 1240.11328125 -1137.5 L 1231.44726562 -1107.16699219 L 1222.44726562 -1075.0 L 1213.11328125 -1041.0 L 1190.44726562 -961.666992188 L 1169.78027344 -897.333007812 L 1151.11328125 -848.0 L 1132.44726562 -798.666992188 L 1114.61328125 -764.0 L 1097.61328125 -744.0 L 1080.61328125 -724.0 L 1060.44726562 -709.0 L 1037.11328125 -699.0 L 1001.11328125 -683.666992188 L 965.61328125 -672.166992188 L 930.61328125 -664.5 L 895.61328125 -656.833007812 L 865.447265625 -653.0 L 840.11328125 -653.0 L 852.780273438 -623.0 L 873.947265625 -602.166992188 L 903.61328125 -590.5 L 933.280273438 -578.833007812 L 941.780273438 -566.333007812 L 929.11328125 -553.0 L 921.780273438 -545.666992188 L 898.780273438 -555.333007812 L 860.11328125 -582.0 L 821.447265625 -608.666992188 L 794.780273438 -635.0 L 780.11328125 -661.0 L 780.11328125 -677.666992188 L 786.947265625 -684.666992188 L 800.61328125 -682.0 L 814.280273438 -679.333007812 L 828.780273438 -677.333007812 L 844.11328125 -676.0 L 859.447265625 -675.333007812 L 875.447265625 -676.166992188 L 892.11328125 -678.5 L 908.780273438 -680.833007812 L 930.780273438 -689.0 L 958.11328125 -703.0 L 971.447265625 -709.666992188 L 983.947265625 -724.833007812 L 995.61328125 -748.5 L 1007.28027344 -772.166992188 L 1017.94726562 -798.5 L 1027.61328125 -827.5 L 1037.28027344 -856.5 L 1045.44726562 -885.166992188 L 1052.11328125 -913.5 L 1058.78027344 -941.833007812 L 1067.61328125 -982.666992188 L 1078.61328125 -1036.0 L 1089.61328125 -1089.33300781 L 1098.94726562 -1125.0 L 1106.61328125 -1143.0 L 1114.28027344 -1161.0 L 1125.28027344 -1175.5 L 1139.61328125 -1186.5 L 1153.94726562 -1197.5 L 1167.61328125 -1204.66699219 L 1180.61328125 -1208.0 L 1193.61328125 -1211.33300781 L 1208.11328125 -1213.83300781 L 1224.11328125 -1215.5 L 1240.11328125 -1217.16699219 L 1258.78027344 -1219.33300781 Z M 833.11328125 -1348.0 L 843.11328125 -1346.66699219 L 847.447265625 -1342.16699219 L 846.11328125 -1334.5 L 844.780273438 -1326.83300781 L 838.447265625 -1322.33300781 L 827.11328125 -1321.0 L 814.447265625 -1317.0 L 804.11328125 -1302.16699219 L 796.11328125 -1276.5 L 788.11328125 -1250.83300781 L 779.780273438 -1223.66699219 L 771.11328125 -1195.0 L 750.447265625 -1127.66699219 L 731.447265625 -1073.33300781 L 714.11328125 -1032.0 L 696.780273438 -990.666992188 L 680.280273438 -961.666992188 L 664.61328125 -945.0 L 648.947265625 -928.333007812 L 630.447265625 -915.666992188 L 609.11328125 -907.0 L 575.780273438 -893.666992188 L 542.947265625 -883.833007812 L 510.61328125 -877.5 L 478.280273438 -871.166992188 L 450.11328125 -868.0 L 426.11328125 -868.0 L 438.11328125 -842.0 L 457.947265625 -824.333007812 L 485.61328125 -815.0 L 513.280273438 -805.666992188 L 521.11328125 -795.0 L 509.11328125 -783.0 L 502.447265625 -777.0 L 481.11328125 -785.333007812 L 445.11328125 -808.0 L 409.11328125 -830.666992188 L 384.447265625 -853.0 L 371.11328125 -875.0 L 371.11328125 -889.0 L 377.447265625 -894.833007812 L 390.11328125 -892.5 L 402.780273438 -890.166992188 L 416.11328125 -888.333007812 L 430.11328125 -887.0 L 444.780273438 -886.333007812 L 459.61328125 -887.166992188 L 474.61328125 -889.5 L 489.61328125 -891.833007812 L 509.780273438 -898.666992188 L 535.11328125 -910.0 L 547.780273438 -916.0 L 559.61328125 -929.0 L 570.61328125 -949.0 L 581.61328125 -969.0 L 591.61328125 -991.166992188 L 600.61328125 -1015.5 L 609.61328125 -1039.83300781 L 617.11328125 -1063.83300781 L 623.11328125 -1087.5 L 629.11328125 -1111.16699219 L 637.11328125 -1145.5 L 647.11328125 -1190.5 L 657.11328125 -1235.5 L 665.780273438 -1265.66699219 L 673.11328125 -1281.0 L 680.447265625 -1296.33300781 L 690.61328125 -1308.66699219 L 703.61328125 -1318.0 L 716.61328125 -1327.33300781 L 729.11328125 -1333.5 L 741.11328125 -1336.5 L 753.11328125 -1339.5 L 766.61328125 -1341.66699219 L 781.61328125 -1343.0 L 796.61328125 -1344.33300781 L 813.780273438 -1346.0 Z" fill="black" fill-opacity="0.25" stroke="black" stroke-width="4.0"/>
  <rect x="512.0" y="-707.0" width="265.0" height="190.99999999999994" fill="none" stroke="red" stroke-width="10.0" /><rect x="242.0" y="-707.0" width="266.0" height="190.99999999999994" fill="none" stroke="red" stroke-width="10.0" /><rect x="-2.0" y="-507.0" width="1106.0" height="374.0" fill="none" stroke="red" stroke-width="10.0" /><rect x="780.0" y="-1222.0" width="514.9999999999999" height="675.9999999999999" fill="none" stroke="red" stroke-width="10.0" /><rect x="371.0" y="-1348.0" width="476.0" height="571.0000000000001" fill="none" stroke="red" stroke-width="10.0" />
</svg>
