<svg xmlns="http://www.w3.org/2000/svg"
  viewBox="-50.000212963710304 -724.6956666222262 1125.1906069108759 640.219436087416">
  <rect x="-50.000212963710304" y="-724.6956666222262" width="1125.1906069108759" height="640.219436087416" fill="white"/>
  <path d="M 694.533203125 -673.0 L 709.866210938 -673.0 L 717.200195312 -668.333007812 L 716.533203125 -659.0 L 715.866210938 -649.666992188 L 710.533203125 -644.0 L 700.533203125 -642.0 L 682.533203125 -638.666992188 L 670.533203125 -631.0 L 664.533203125 -619.0 L 640.533203125 -561.0 L 622.033203125 -510.666992188 L 609.033203125 -468.0 L 596.033203125 -425.333007812 L 579.533203125 -399.666992188 L 559.533203125 -391.0 L 538.200195312 -388.333007812 L 515.700195312 -386.833007812 L 492.033203125 -386.5 L 468.366210938 -386.166992188 L 445.200195312 -387.666992188 L 422.533203125 -391.0 L 412.533203125 -395.0 L 409.033203125 -399.5 L 412.033203125 -404.5 L 415.033203125 -409.5 L 419.866210938 -413.0 L 426.533203125 -415.0 L 432.533203125 -417.0 L 439.533203125 -425.0 L 447.533203125 -439.0 L 470.866210938 -480.333007812 L 490.200195312 -527.0 L 505.533203125 -579.0 L 520.866210938 -631.0 L 537.533203125 -660.0 L 555.533203125 -666.0 L 578.200195312 -672.666992188 L 601.200195312 -675.5 L 624.533203125 -674.5 L 647.866210938 -673.5 L 671.200195312 -673.0 Z M 750.533203125 -474.0 L 774.533203125 -482.666992188 L 814.200195312 -482.0 L 869.533203125 -472.0 L 902.200195312 -463.333007812 L 931.200195312 -452.333007812 L 956.533203125 -439.0 L 981.866210938 -425.666992188 L 1001.53320312 -401.666992188 L 1015.53320312 -367.0 L 1024.20019531 -334.333007812 L 1027.03320312 -308.333007812 L 1024.03320312 -289.0 L 1021.03320312 -269.666992188 L 1010.20019531 -247.0 L 991.533203125 -221.0 L 973.533203125 -199.666992188 L 952.533203125 -183.333007812 L 928.533203125 -172.0 L 904.533203125 -160.666992188 L 875.200195312 -151.333007812 L 840.533203125 -144.0 L 805.866210938 -137.333007812 L 777.700195312 -134.166992188 L 756.033203125 -134.5 L 734.366210938 -134.833007812 L 710.866210938 -135.333007812 L 685.533203125 -136.0 L 660.200195312 -137.333007812 L 637.033203125 -139.5 L 616.033203125 -142.5 L 595.033203125 -145.5 L 569.200195312 -151.666992188 L 538.533203125 -161.0 L 488.533203125 -175.0 L 438.866210938 -194.0 L 389.533203125 -218.0 L 361.533203125 -232.0 L 332.366210938 -246.666992188 L 302.033203125 -262.0 L 271.700195312 -277.333007812 L 237.533203125 -296.0 L 199.533203125 -318.0 L 182.200195312 -328.666992188 L 163.200195312 -340.0 L 142.533203125 -352.0 L 121.866210938 -364.0 L 99.533203125 -376.0 L 75.533203125 -388.0 L 57.533203125 -399.333007812 L 39.8662109375 -410.666992188 L 22.533203125 -422.0 L 5.2001953125 -433.333007812 L -2.1337890625 -444.833007812 L 0.533203125 -456.5 L 3.2001953125 -468.166992188 L 9.8662109375 -473.666992188 L 20.533203125 -473.0 L 31.2001953125 -472.333007812 L 64.533203125 -472.5 L 120.533203125 -473.5 L 176.533203125 -474.5 L 225.200195312 -474.666992188 L 266.533203125 -474.0 L 283.200195312 -462.0 L 283.033203125 -453.333007812 L 266.033203125 -448.0 L 249.033203125 -442.666992188 L 236.533203125 -436.0 L 228.533203125 -428.0 L 213.200195312 -412.0 L 206.366210938 -399.166992188 L 208.033203125 -389.5 L 209.700195312 -379.833007812 L 212.033203125 -372.333007812 L 215.033203125 -367.0 L 218.033203125 -361.666992188 L 223.033203125 -356.0 L 230.033203125 -350.0 L 237.033203125 -344.0 L 254.033203125 -331.666992188 L 281.033203125 -313.0 L 308.033203125 -294.333007812 L 341.200195312 -275.0 L 380.533203125 -255.0 L 416.533203125 -239.0 L 444.866210938 -226.0 L 465.533203125 -216.0 L 486.200195312 -206.0 L 519.533203125 -194.666992188 L 565.533203125 -182.0 L 599.533203125 -175.333007812 L 634.200195312 -171.333007812 L 669.533203125 -170.0 L 704.866210938 -168.666992188 L 740.866210938 -174.0 L 777.533203125 -186.0 L 802.866210938 -197.333007812 L 820.700195312 -206.833007812 L 831.033203125 -214.5 L 841.366210938 -222.166992188 L 852.866210938 -235.666992188 L 865.533203125 -255.0 L 876.866210938 -273.666992188 L 883.366210938 -289.5 L 885.033203125 -302.5 L 886.700195312 -315.5 L 886.866210938 -330.333007812 L 885.533203125 -347.0 L 884.866210938 -364.333007812 L 882.866210938 -376.833007812 L 879.533203125 -384.5 L 876.200195312 -392.166992188 L 871.866210938 -400.166992188 L 866.533203125 -408.5 L 861.200195312 -416.833007812 L 854.366210938 -424.166992188 L 846.033203125 -430.5 L 837.700195312 -436.833007812 L 824.866210938 -441.333007812 L 807.533203125 -444.0 L 790.200195312 -446.666992188 L 772.866210938 -449.0 L 755.533203125 -451.0 L 748.200195312 -452.333007812 L 743.700195312 -455.5 L 742.033203125 -460.5 L 740.366210938 -465.5 L 743.200195312 -470.0 Z" fill="black" fill-opacity="0.25" stroke="black" stroke-width="4.0"/>
  <rect x="409.0" y="-675.0" width="308.0" height="289.00000000000006" fill="none" stroke="red" stroke-width="10.0" /><rect x="-2.0" y="-483.0" width="1029.0" height="349.0" fill="none" stroke="red" stroke-width="10.0" />
</svg>
