<svg xmlns="http://www.w3.org/2000/svg"
  viewBox="-50 -1004.522 1202.5 921.043">
  <rect x="-50" y="-1004.522" width="1202.5" height="921.043" fill="white"/>
  <path d="M 296.25 -590 L 270.917 -580.667 L 227.917 -581 L 167.25 -591 L 131.917 -599.667 L 100.75 -611.333 L 73.75 -626 L 46.75 -640.667 L 25.917 -666.333 L 11.25 -703 L 1.25 -738.333 L -2.083 -766.667 L 1.25 -788 L 4.583 -809.333 L 16.25 -833.667 L 36.25 -861 L 55.583 -884.333 L 78.083 -902 L 103.75 -914 L 129.417 -926 L 160.917 -936 L 198.25 -944 L 235.583 -951.333 L 265.917 -954.833 L 289.25 -954.5 L 312.583 -954.167 L 337.917 -953.333 L 365.25 -952 L 391.917 -950.667 L 416.75 -948.5 L 439.75 -945.5 L 462.75 -942.5 L 490.583 -936 L 523.25 -926 L 577.25 -911.333 L 630.583 -891 L 683.25 -865 L 712.583 -850.333 L 743.75 -834.5 L 776.75 -817.5 L 809.75 -800.5 L 846.583 -780.667 L 887.25 -758 L 905.917 -746.667 L 926.417 -734.5 L 948.75 -721.5 L 971.083 -708.5 L 994.917 -695.333 L 1020.25 -682 L 1039.583 -670 L 1058.75 -657.833 L 1077.75 -645.5 L 1096.75 -633.167 L 1104.75 -620.833 L 1101.75 -608.5 L 1098.75 -596.167 L 1091.583 -590.333 L 1080.25 -591 L 1068.917 -591.667 L 1033.083 -591.333 L 972.75 -590 L 912.417 -588.667 L 859.917 -588.667 L 815.25 -590 L 797.25 -603.333 L 797.417 -612.833 L 815.75 -618.5 L 834.083 -624.167 L 847.917 -631.333 L 857.25 -640 L 873.917 -657.333 L 881.25 -671 L 879.25 -681 L 877.25 -691 L 874.417 -698.833 L 870.75 -704.5 L 867.083 -710.167 L 861.583 -716.333 L 854.25 -723 L 846.917 -729.667 L 828.75 -742.833 L 799.75 -762.5 L 770.75 -782.167 L 734.917 -803 L 692.25 -825 L 653.583 -841.667 L 623.25 -855.5 L 601.25 -866.5 L 579.25 -877.5 L 543.583 -889.667 L 494.25 -903 L 457.583 -910.333 L 420.25 -914.667 L 382.25 -916 L 344.25 -917.333 L 305.583 -911.667 L 266.25 -899 L 238.917 -887 L 219.75 -876.833 L 208.75 -868.5 L 197.75 -860.167 L 185.25 -845.333 L 171.25 -824 L 159.25 -804 L 152.417 -787.167 L 150.75 -773.5 L 149.083 -759.833 L 148.917 -743.667 L 150.25 -725 L 150.917 -706.333 L 153.083 -693 L 156.75 -685 L 160.417 -677 L 165.083 -668.667 L 170.75 -660 L 176.417 -651.333 L 183.75 -643.5 L 192.75 -636.5 L 201.75 -629.5 L 215.583 -624.5 L 234.25 -621.5 L 252.917 -618.5 L 271.25 -616 L 289.25 -614 L 297.25 -612.667 L 302.417 -609.5 L 304.75 -604.5 L 307.083 -599.5 L 304.25 -594.667 Z M 806.25 -498 L 831.583 -507.333 L 874.583 -506.667 L 935.25 -496 L 970.583 -486.667 L 1001.75 -474.833 L 1028.75 -460.5 L 1055.75 -446.167 L 1076.583 -420.667 L 1091.25 -384 L 1101.25 -348.667 L 1104.583 -320.333 L 1101.25 -299 L 1097.917 -277.667 L 1086.25 -253.333 L 1066.25 -226 L 1046.917 -202.667 L 1024.417 -185.167 L 998.75 -173.5 L 973.083 -161.833 L 941.25 -152 L 903.25 -144 L 865.917 -136.667 L 835.583 -133.167 L 812.25 -133.5 L 788.917 -133.833 L 763.917 -134.333 L 737.25 -135 L 710.583 -136.333 L 685.75 -138.5 L 662.75 -141.5 L 639.75 -144.5 L 611.917 -151 L 579.25 -161 L 525.25 -175.667 L 471.917 -196 L 419.25 -222 L 389.917 -236.667 L 358.583 -252.5 L 325.25 -269.5 L 291.917 -286.5 L 254.917 -306.667 L 214.25 -330 L 195.583 -341.333 L 175.25 -353.5 L 153.25 -366.5 L 131.25 -379.5 L 107.583 -392.667 L 82.25 -406 L 62.917 -418 L 43.75 -430.167 L 24.75 -442.5 L 5.75 -454.833 L -2.25 -467.167 L 0.75 -479.5 L 3.75 -491.833 L 10.917 -497.667 L 22.25 -497 L 33.583 -496.333 L 69.25 -496.5 L 129.25 -497.5 L 189.25 -498.5 L 241.917 -498.667 L 287.25 -498 L 305.25 -484.667 L 304.917 -475.167 L 286.25 -469.5 L 267.583 -463.833 L 253.917 -456.667 L 245.25 -448 L 228.583 -430.667 L 221.25 -416.833 L 223.25 -406.5 L 225.25 -396.167 L 227.917 -388.167 L 231.25 -382.5 L 234.583 -376.833 L 239.917 -370.833 L 247.25 -364.5 L 254.583 -358.167 L 272.75 -345 L 301.75 -325 L 330.75 -305 L 366.917 -284 L 410.25 -262 L 448.917 -245.333 L 479.25 -231.667 L 501.25 -221 L 523.25 -210.333 L 558.917 -198.333 L 608.25 -185 L 644.917 -177.667 L 682.25 -173.167 L 720.25 -171.5 L 758.25 -169.833 L 796.917 -175.333 L 836.25 -188 L 863.583 -200 L 882.75 -210.333 L 893.75 -219 L 904.75 -227.667 L 917.25 -242.333 L 931.25 -263 L 943.25 -283 L 950.083 -300 L 951.75 -314 L 953.417 -328 L 953.583 -344 L 952.25 -362 L 951.583 -380.667 L 949.417 -394.167 L 945.75 -402.5 L 942.083 -410.833 L 937.25 -419.333 L 931.25 -428 L 925.25 -436.667 L 917.917 -444.5 L 909.25 -451.5 L 900.583 -458.5 L 886.917 -463.333 L 868.25 -466 L 849.583 -468.667 L 831.25 -471 L 813.25 -473 L 805.25 -474.333 L 800.083 -477.667 L 797.75 -483 L 795.417 -488.333 L 798.25 -493.333 Z M 502.25 -489 L 495.583 -494.333 L 495.083 -499.333 L 500.75 -504 L 506.417 -508.667 L 513.917 -511 L 523.25 -511 L 533.25 -511 L 546.917 -519.833 L 564.25 -537.5 L 581.583 -555.167 L 593.25 -577 L 599.25 -603 L 608.583 -647 L 585.583 -683.333 L 530.25 -712 L 508.917 -722 L 482.25 -731 L 450.25 -739 L 418.25 -747 L 386.583 -754 L 355.25 -760 L 323.917 -766 L 296.25 -770.833 L 272.25 -774.5 L 248.25 -778.167 L 234.25 -781 L 230.25 -783 L 221.583 -786.333 L 218.25 -790.667 L 220.25 -796 L 222.25 -801.333 L 226.583 -804 L 233.25 -804 L 236.583 -804 L 250.083 -802.667 L 273.75 -800 L 297.417 -797.333 L 325.75 -793.333 L 358.75 -788 L 391.75 -782.667 L 426.417 -775.667 L 462.75 -767 L 499.083 -758.333 L 532.25 -748.333 L 562.25 -737 L 597.583 -723 L 625.917 -709 L 647.25 -695 L 668.583 -681 L 687.917 -662 L 705.25 -638 L 722.583 -614 L 729.917 -590.333 L 727.25 -567 L 724.583 -543.667 L 714.583 -525.333 L 697.25 -512 L 681.25 -500 L 662.583 -492 L 641.25 -488 L 619.917 -484 L 599.917 -482 L 581.25 -482 L 562.583 -482 L 549.417 -482.167 L 541.75 -482.5 L 534.083 -482.833 L 520.917 -485 Z" fill="black" fill-opacity="0.25" stroke="black" stroke-width="4"/>
  <rect x="-2" y="-955" width="1107" height="374" fill="none" stroke="red" stroke-width="10" /><rect x="-2" y="-507" width="1107" height="374" fill="none" stroke="red" stroke-width="10" /><rect x="218" y="-804" width="512" height="322" fill="none" stroke="red" stroke-width="10" />
</svg>
