<svg xmlns="http://www.w3.org/2000/svg"
  viewBox="-50 -1272 1351.222 1188.522">
  <rect x="-50" y="-1272" width="1351.222" height="1188.522" fill="white"/>
  <path d="M 836 -498 L 861.333 -507.333 L 904.333 -506.667 L 965 -496 L 1000.333 -487.333 L 1031.5 -475.667 L 1058.5 -461 L 1085.5 -446.333 L 1106.333 -420.667 L 1121 -384 L 1131 -348.667 L 1134.333 -320.5 L 1131 -299.5 L 1127.667 -278.5 L 1116 -254 L 1096 -226 L 1076.667 -202.667 L 1054.167 -185.167 L 1028.5 -173.5 L 1002.833 -161.833 L 971.333 -152 L 934 -144 L 896.667 -136.667 L 866.333 -133.167 L 843 -133.5 L 819.667 -133.833 L 794.333 -134.333 L 767 -135 L 740.333 -136.333 L 715.5 -138.5 L 692.5 -141.5 L 669.5 -144.5 L 641.667 -151 L 609 -161 L 555 -175.667 L 501.667 -196 L 449 -222 L 419.667 -236.667 L 388.5 -252.5 L 355.5 -269.5 L 322.5 -286.5 L 285.667 -306.667 L 245 -330 L 226.333 -341.333 L 205.833 -353.5 L 183.5 -366.5 L 161.167 -379.5 L 137.333 -392.667 L 112 -406 L 92.667 -418 L 73.5 -430 L 54.5 -442 L 35.5 -454 L 27.5 -466.167 L 30.5 -478.5 L 33.5 -490.833 L 40.667 -496.667 L 52 -496 L 63.333 -495.333 L 99 -495.667 L 159 -497 L 219 -498.333 L 271.667 -498.667 L 317 -498 L 335 -484.667 L 334.833 -475.167 L 316.5 -469.5 L 298.167 -463.833 L 284.333 -456.667 L 275 -448 L 258.333 -430.667 L 251 -416.833 L 253 -406.5 L 255 -396.167 L 257.833 -388.167 L 261.5 -382.5 L 265.167 -376.833 L 270.667 -370.833 L 278 -364.5 L 285.333 -358.167 L 303.333 -345 L 332 -325 L 360.667 -305 L 396.667 -284 L 440 -262 L 478.667 -245.333 L 509 -231.667 L 531 -221 L 553 -210.333 L 588.667 -198.333 L 638 -185 L 674.667 -177.667 L 712 -173.167 L 750 -171.5 L 788 -169.833 L 826.667 -175.333 L 866 -188 L 893.333 -200 L 912.5 -210.333 L 923.5 -219 L 934.5 -227.667 L 947 -242.333 L 961 -263 L 973 -283 L 979.833 -300 L 981.5 -314 L 983.167 -328 L 983.333 -344 L 982 -362 L 981.333 -380.667 L 979.167 -394.167 L 975.5 -402.5 L 971.833 -410.833 L 967.167 -419.333 L 961.5 -428 L 955.833 -436.667 L 948.5 -444.5 L 939.5 -451.5 L 930.5 -458.5 L 916.667 -463.333 L 898 -466 L 879.333 -468.667 L 861 -471 L 843 -473 L 835 -474.333 L 829.833 -477.667 L 827.5 -483 L 825.167 -488.333 L 828 -493.333 Z M 1237 -1222 L 1247.667 -1220 L 1252.333 -1214.5 L 1251 -1205.5 L 1249.667 -1196.5 L 1242.667 -1191.333 L 1230 -1190 L 1216 -1185.333 L 1204.833 -1167.833 L 1196.5 -1137.5 L 1188.167 -1107.167 L 1179 -1075 L 1169 -1041 L 1146.333 -961.667 L 1125.833 -897.333 L 1107.5 -848 L 1089.167 -798.667 L 1071.5 -764 L 1054.5 -744 L 1037.5 -724 L 1017.333 -709 L 994 -699 L 958 -683.667 L 922.5 -672.167 L 887.5 -664.5 L 852.5 -656.833 L 822 -653 L 796 -653 L 808.667 -623 L 830 -602.167 L 860 -590.5 L 890 -578.833 L 898.667 -566.333 L 886 -553 L 878.667 -545.667 L 855.667 -555.333 L 817 -582 L 778.333 -608.667 L 751.667 -635 L 737 -661 L 737 -677.667 L 743.833 -684.667 L 757.5 -682 L 771.167 -679.333 L 785.667 -677.333 L 801 -676 L 816.333 -675.333 L 832.167 -676.167 L 848.5 -678.5 L 864.833 -680.833 L 886.667 -689 L 914 -703 L 927.333 -709.667 L 940 -724.833 L 952 -748.5 L 964 -772.167 L 974.833 -798.5 L 984.5 -827.5 L 994.167 -856.5 L 1002.333 -885.167 L 1009 -913.5 L 1015.667 -941.833 L 1024.5 -982.667 L 1035.5 -1036 L 1046.5 -1089.333 L 1055.833 -1125 L 1063.5 -1143 L 1071.167 -1161 L 1082.167 -1175.5 L 1096.5 -1186.5 L 1110.833 -1197.5 L 1124.5 -1204.667 L 1137.5 -1208 L 1150.5 -1211.333 L 1165 -1213.833 L 1181 -1215.5 L 1197 -1217.167 L 1215.667 -1219.333 Z M 861 -1222 L 871.667 -1220 L 876.333 -1214.5 L 875 -1205.5 L 873.667 -1196.5 L 866.667 -1191.333 L 854 -1190 L 840 -1185.333 L 828.833 -1167.833 L 820.5 -1137.5 L 812.167 -1107.167 L 803 -1075 L 793 -1041 L 770.333 -961.667 L 749.833 -897.333 L 731.5 -848 L 713.167 -798.667 L 695.5 -764 L 678.5 -744 L 661.5 -724 L 641.333 -709 L 618 -699 L 582 -683.667 L 546.5 -672.167 L 511.5 -664.5 L 476.5 -656.833 L 446 -653 L 420 -653 L 432.667 -623 L 454 -602.167 L 484 -590.5 L 514 -578.833 L 522.667 -566.333 L 510 -553 L 502.667 -545.667 L 479.667 -555.333 L 441 -582 L 402.333 -608.667 L 375.667 -635 L 361 -661 L 361 -677.667 L 367.833 -684.667 L 381.5 -682 L 395.167 -679.333 L 409.667 -677.333 L 425 -676 L 440.333 -675.333 L 456.333 -676.167 L 473 -678.5 L 489.667 -680.833 L 511.667 -689 L 539 -703 L 552.333 -709.667 L 564.833 -724.833 L 576.5 -748.5 L 588.167 -772.167 L 598.833 -798.5 L 608.5 -827.5 L 618.167 -856.5 L 626.333 -885.167 L 633 -913.5 L 639.667 -941.833 L 648.5 -982.667 L 659.5 -1036 L 670.5 -1089.333 L 679.833 -1125 L 687.5 -1143 L 695.167 -1161 L 706.167 -1175.5 L 720.5 -1186.5 L 734.833 -1197.5 L 748.5 -1204.667 L 761.5 -1208 L 774.5 -1211.333 L 789 -1213.833 L 805 -1215.5 L 821 -1217.167 L 839.667 -1219.333 Z M 499 -1222 L 509.667 -1220 L 514.5 -1214.5 L 513.5 -1205.5 L 512.5 -1196.5 L 505.667 -1191.333 L 493 -1190 L 479 -1185.333 L 467.833 -1167.833 L 459.5 -1137.5 L 451.167 -1107.167 L 442 -1075 L 432 -1041 L 409.333 -961.667 L 388.667 -897.333 L 370 -848 L 351.333 -798.667 L 333.667 -764 L 317 -744 L 300.333 -724 L 280.333 -709 L 257 -699 L 221 -683.667 L 185.5 -672.167 L 150.5 -664.5 L 115.5 -656.833 L 85 -653 L 59 -653 L 71.667 -623 L 93 -602.167 L 123 -590.5 L 153 -578.833 L 161.667 -566.333 L 149 -553 L 141.667 -545.667 L 118.5 -555.333 L 79.5 -582 L 40.5 -608.667 L 14 -635 L 0 -661 L 0 -677.667 L 6.667 -684.667 L 20 -682 L 33.333 -679.333 L 48 -677.333 L 64 -676 L 79.333 -675.333 L 95.167 -676.167 L 111.5 -678.5 L 127.833 -680.833 L 149.667 -689 L 177 -703 L 190.333 -709.667 L 203 -724.833 L 215 -748.5 L 227 -772.167 L 237.833 -798.5 L 247.5 -827.5 L 257.167 -856.5 L 265.333 -885.167 L 272 -913.5 L 278.667 -941.833 L 287.333 -982.667 L 298 -1036 L 308.667 -1089.333 L 318 -1125 L 326 -1143 L 334 -1161 L 345.167 -1175.5 L 359.5 -1186.5 L 373.833 -1197.5 L 387.5 -1204.667 L 400.5 -1208 L 413.5 -1211.333 L 427.833 -1213.833 L 443.5 -1215.5 L 459.167 -1217.167 L 477.667 -1219.333 Z" fill="black" fill-opacity="0.25" stroke="black" stroke-width="4"/>
  <rect x="28" y="-507" width="1106" height="374" fill="none" stroke="red" stroke-width="10" /><rect x="737" y="-774.4" width="339.8" height="223.8" fill="none" stroke="red" stroke-width="10" /><rect x="964.9" y="-998.2" width="191.9" height="223.8" fill="none" stroke="red" stroke-width="10" /><rect x="1027.7" y="-1222" width="224.6" height="223.8" fill="none" stroke="red" stroke-width="10" /><rect x="361" y="-774.4" width="339.8" height="223.8" fill="none" stroke="red" stroke-width="10" /><rect x="589.1" y="-998.2" width="191.7" height="223.8" fill="none" stroke="red" stroke-width="10" /><rect x="651.7" y="-1222" width="224.6" height="223.8" fill="none" stroke="red" stroke-width="10" /><rect x="0" y="-774.4" width="339" height="223.8" fill="none" stroke="red" stroke-width="10" /><rect x="227.9" y="-998.2" width="191.9" height="223.8" fill="none" stroke="red" stroke-width="10" /><rect x="290.4" y="-1222" width="224.1" height="223.8" fill="none" stroke="red" stroke-width="10" />
</svg>
