<svg xmlns="http://www.w3.org/2000/svg"
  viewBox="-50 -1421.063 1226.5 1337.584">
  <rect x="-50" y="-1421.063" width="1226.5" height="1337.584" fill="white"/>
  <path d="M 849.25 -966 L 858.25 -928 L 858.25 -925.333 L 861.75 -918.833 L 868.75 -908.5 L 875.75 -898.167 L 879.25 -891.667 L 879.25 -889 L 879.25 -886.333 L 873.75 -884 L 862.75 -882 L 851.75 -880 L 844.25 -879 L 840.25 -879 L 779.25 -879 L 771.25 -879 L 763.75 -884.667 L 756.75 -896 L 749.75 -907.333 L 745.25 -918 L 743.25 -928 L 735.25 -966 L 657.25 -966 L 585.583 -969.167 L 520.25 -975.5 L 454.917 -981.833 L 408.583 -987 L 381.25 -991 L 277.917 -1007 L 214.25 -1043.667 L 190.25 -1101 L 184.917 -1113.667 L 175.25 -1132.5 L 161.25 -1157.5 L 147.25 -1182.5 L 132.583 -1207.667 L 117.25 -1233 L 101.917 -1258.333 L 87.417 -1281 L 73.75 -1301 L 60.083 -1321 L 50.583 -1332.333 L 45.25 -1335 L 17.917 -1344.333 L 11.917 -1354.667 L 27.25 -1366 L 96.583 -1372 L 159.917 -1372.667 L 217.25 -1368 L 249.25 -1366 L 272.083 -1347.833 L 285.75 -1313.5 L 299.417 -1279.167 L 313.25 -1234 L 327.25 -1178 L 341.25 -1122 L 358.417 -1083.667 L 378.75 -1063 L 399.083 -1042.333 L 434.25 -1025.333 L 484.25 -1012 L 533.583 -998.667 L 615.917 -993.333 L 731.25 -996 L 719.25 -1065 L 718.583 -1068.333 L 715.25 -1072.667 L 709.25 -1078 L 703.25 -1083.333 L 700.25 -1087.667 L 700.25 -1091 L 700.25 -1095 L 705.583 -1097.667 L 716.25 -1099 L 726.917 -1100.333 L 734.583 -1101 L 739.25 -1101 L 800.25 -1101 L 807.583 -1101 L 814.75 -1095.833 L 821.75 -1085.5 L 828.75 -1075.167 L 833.583 -1064 L 836.25 -1052 L 846.25 -996 L 890.917 -996 L 921.25 -997.5 L 937.25 -1000.5 L 953.25 -1003.5 L 970.917 -1006.333 L 990.25 -1009 L 997.583 -1008.333 L 1001.917 -1005 L 1003.25 -999 L 1004.583 -993 L 1002.917 -987.333 L 998.25 -982 L 991.583 -976 L 977.917 -971.833 L 957.25 -969.5 L 936.583 -967.167 L 900.583 -966 Z M 295.25 -560 L 269.917 -550.667 L 227.25 -551.333 L 167.25 -562 L 131.917 -570.667 L 100.75 -582.333 L 73.75 -597 L 46.75 -611.667 L 25.917 -637.333 L 11.25 -674 L 1.25 -709.333 L -2.083 -737.5 L 1.25 -758.5 L 4.583 -779.5 L 16.25 -804 L 36.25 -832 L 55.583 -855.333 L 78.083 -873 L 103.75 -885 L 129.417 -897 L 160.917 -906.667 L 198.25 -914 L 235.583 -921.333 L 265.917 -925 L 289.25 -925 L 312.583 -925 L 337.917 -924.333 L 365.25 -923 L 391.917 -921.667 L 416.583 -919.5 L 439.25 -916.5 L 461.917 -913.5 L 489.583 -907 L 522.25 -897 L 576.25 -882.333 L 629.583 -862 L 682.25 -836 L 711.583 -821.333 L 742.917 -805.5 L 776.25 -788.5 L 809.583 -771.5 L 846.583 -751.333 L 887.25 -728 L 905.917 -716.667 L 926.25 -704.667 L 948.25 -692 L 970.25 -679.333 L 994.25 -666.333 L 1020.25 -653 L 1039.583 -641 L 1058.583 -628.833 L 1077.25 -616.5 L 1095.917 -604.167 L 1103.75 -591.833 L 1100.75 -579.5 L 1097.75 -567.167 L 1090.583 -561.333 L 1079.25 -562 L 1067.917 -562.667 L 1032.25 -562.333 L 972.25 -561 L 912.25 -559.667 L 859.917 -559.333 L 815.25 -560 L 797.25 -573.333 L 797.417 -582.833 L 815.75 -588.5 L 834.083 -594.167 L 847.583 -601.667 L 856.25 -611 L 872.917 -628.333 L 880.417 -642 L 878.75 -652 L 877.083 -662 L 874.417 -669.833 L 870.75 -675.5 L 867.083 -681.167 L 861.583 -687.167 L 854.25 -693.5 L 846.917 -699.833 L 828.75 -713 L 799.75 -733 L 770.75 -753 L 734.917 -774 L 692.25 -796 L 653.583 -812.667 L 623.25 -826.333 L 601.25 -837 L 579.25 -847.667 L 543.25 -859.667 L 493.25 -873 L 456.583 -880.333 L 419.417 -884.833 L 381.75 -886.5 L 344.083 -888.167 L 305.583 -882.667 L 266.25 -870 L 238.917 -858 L 219.583 -847.667 L 208.25 -839 L 196.917 -830.333 L 184.583 -815.667 L 171.25 -795 L 159.25 -775 L 152.25 -758 L 150.25 -744 L 148.25 -730 L 147.917 -714 L 149.25 -696 L 149.917 -677.333 L 152.083 -663.833 L 155.75 -655.5 L 159.417 -647.167 L 164.25 -638.667 L 170.25 -630 L 176.25 -621.333 L 183.75 -613.5 L 192.75 -606.5 L 201.75 -599.5 L 215.583 -594.667 L 234.25 -592 L 252.917 -589.333 L 271.25 -587 L 289.25 -585 L 297.25 -583.667 L 302.25 -580.333 L 304.25 -575 L 306.25 -569.667 L 303.25 -564.667 Z M 830.25 -498 L 855.583 -507.333 L 898.583 -506.667 L 959.25 -496 L 994.583 -487.333 L 1025.75 -475.667 L 1052.75 -461 L 1079.75 -446.333 L 1100.583 -420.667 L 1115.25 -384 L 1125.25 -348.667 L 1128.583 -320.5 L 1125.25 -299.5 L 1121.917 -278.5 L 1110.25 -254 L 1090.25 -226 L 1070.917 -202.667 L 1048.417 -185.167 L 1022.75 -173.5 L 997.083 -161.833 L 965.583 -152 L 928.25 -144 L 890.917 -136.667 L 860.583 -133.167 L 837.25 -133.5 L 813.917 -133.833 L 788.583 -134.333 L 761.25 -135 L 734.583 -136.333 L 709.75 -138.5 L 686.75 -141.5 L 663.75 -144.5 L 635.917 -151 L 603.25 -161 L 549.25 -175.667 L 495.917 -196 L 443.25 -222 L 413.917 -236.667 L 382.75 -252.5 L 349.75 -269.5 L 316.75 -286.5 L 279.917 -306.667 L 239.25 -330 L 220.583 -341.333 L 200.083 -353.5 L 177.75 -366.5 L 155.417 -379.5 L 131.583 -392.667 L 106.25 -406 L 86.917 -418 L 67.75 -430 L 48.75 -442 L 29.75 -454 L 21.75 -466.167 L 24.75 -478.5 L 27.75 -490.833 L 34.917 -496.667 L 46.25 -496 L 57.583 -495.333 L 93.25 -495.667 L 153.25 -497 L 213.25 -498.333 L 265.917 -498.667 L 311.25 -498 L 329.25 -484.667 L 329.083 -475.167 L 310.75 -469.5 L 292.417 -463.833 L 278.583 -456.667 L 269.25 -448 L 252.583 -430.667 L 245.25 -416.833 L 247.25 -406.5 L 249.25 -396.167 L 252.083 -388.167 L 255.75 -382.5 L 259.417 -376.833 L 264.917 -370.833 L 272.25 -364.5 L 279.583 -358.167 L 297.583 -345 L 326.25 -325 L 354.917 -305 L 390.917 -284 L 434.25 -262 L 472.917 -245.333 L 503.25 -231.667 L 525.25 -221 L 547.25 -210.333 L 582.917 -198.333 L 632.25 -185 L 668.917 -177.667 L 706.25 -173.167 L 744.25 -171.5 L 782.25 -169.833 L 820.917 -175.333 L 860.25 -188 L 887.583 -200 L 906.75 -210.333 L 917.75 -219 L 928.75 -227.667 L 941.25 -242.333 L 955.25 -263 L 967.25 -283 L 974.083 -300 L 975.75 -314 L 977.417 -328 L 977.583 -344 L 976.25 -362 L 975.583 -380.667 L 973.417 -394.167 L 969.75 -402.5 L 966.083 -410.833 L 961.417 -419.333 L 955.75 -428 L 950.083 -436.667 L 942.75 -444.5 L 933.75 -451.5 L 924.75 -458.5 L 910.917 -463.333 L 892.25 -466 L 873.583 -468.667 L 855.25 -471 L 837.25 -473 L 829.25 -474.333 L 824.083 -477.667 L 821.75 -483 L 819.417 -488.333 L 822.25 -493.333 Z" fill="black" fill-opacity="0.25" stroke="black" stroke-width="4"/>
  <rect x="12" y="-1373" width="993" height="494" fill="none" stroke="red" stroke-width="10" /><rect x="-2" y="-925" width="1106" height="374" fill="none" stroke="red" stroke-width="10" /><rect x="22" y="-507" width="1107" height="374" fill="none" stroke="red" stroke-width="10" />
</svg>
