<svg xmlns="http://www.w3.org/2000/svg"
  viewBox="-50 -1393 1232.25 1309.522">
  <rect x="-50" y="-1393" width="1232.25" height="1309.522" fill="white"/>
  <path d="M 487 -707 L 507 -707 L 528 -706.667 L 550 -706 L 572 -705.333 L 591.667 -703.333 L 609 -700 L 621.667 -700 L 635 -678.667 L 649 -636 L 663 -593.333 L 679.333 -552 L 698 -512 L 704 -498 L 710.333 -490 L 717 -488 L 722.333 -486.667 L 726.5 -483.333 L 729.5 -478 L 732.5 -472.667 L 729.667 -468 L 721 -464 L 700.333 -460 L 679.667 -458.333 L 659 -459 L 638.333 -459.667 L 619 -461.333 L 601 -464 L 583 -472 L 569 -491.167 L 559 -521.5 L 549 -551.833 L 534 -596 L 514 -654 L 512 -657.333 L 508.167 -662.333 L 502.5 -669 L 496.833 -675.667 L 490.667 -679.667 L 484 -681 L 474.667 -683 L 469.333 -687.833 L 468 -695.5 L 466.667 -703.167 L 473 -707 Z M 836 -498 L 861.333 -507.333 L 904.333 -506.667 L 965 -496 L 1000.333 -487.333 L 1031.5 -475.667 L 1058.5 -461 L 1085.5 -446.333 L 1106.333 -420.667 L 1121 -384 L 1131 -348.667 L 1134.333 -320.5 L 1131 -299.5 L 1127.667 -278.5 L 1116 -254 L 1096 -226 L 1076.667 -202.667 L 1054.167 -185.167 L 1028.5 -173.5 L 1002.833 -161.833 L 971.333 -152 L 934 -144 L 896.667 -136.667 L 866.333 -133.167 L 843 -133.5 L 819.667 -133.833 L 794.333 -134.333 L 767 -135 L 740.333 -136.333 L 715.5 -138.5 L 692.5 -141.5 L 669.5 -144.5 L 641.667 -151 L 609 -161 L 555 -175.667 L 501.667 -196 L 449 -222 L 419.667 -236.667 L 388.5 -252.5 L 355.5 -269.5 L 322.5 -286.5 L 285.667 -306.667 L 245 -330 L 226.333 -341.333 L 205.833 -353.5 L 183.5 -366.5 L 161.167 -379.5 L 137.333 -392.667 L 112 -406 L 92.667 -418 L 73.5 -430 L 54.5 -442 L 35.5 -454 L 27.5 -466.167 L 30.5 -478.5 L 33.5 -490.833 L 40.667 -496.667 L 52 -496 L 63.333 -495.333 L 99 -495.667 L 159 -497 L 219 -498.333 L 271.667 -498.667 L 317 -498 L 335 -484.667 L 334.833 -475.167 L 316.5 -469.5 L 298.167 -463.833 L 284.333 -456.667 L 275 -448 L 258.333 -430.667 L 251 -416.833 L 253 -406.5 L 255 -396.167 L 257.833 -388.167 L 261.5 -382.5 L 265.167 -376.833 L 270.667 -370.833 L 278 -364.5 L 285.333 -358.167 L 303.333 -345 L 332 -325 L 360.667 -305 L 396.667 -284 L 440 -262 L 478.667 -245.333 L 509 -231.667 L 531 -221 L 553 -210.333 L 588.667 -198.333 L 638 -185 L 674.667 -177.667 L 712 -173.167 L 750 -171.5 L 788 -169.833 L 826.667 -175.333 L 866 -188 L 893.333 -200 L 912.5 -210.333 L 923.5 -219 L 934.5 -227.667 L 947 -242.333 L 961 -263 L 973 -283 L 979.833 -300 L 981.5 -314 L 983.167 -328 L 983.333 -344 L 982 -362 L 981.333 -380.667 L 979.167 -394.167 L 975.5 -402.5 L 971.833 -410.833 L 967.167 -419.333 L 961.5 -428 L 955.833 -436.667 L 948.5 -444.5 L 939.5 -451.5 L 930.5 -458.5 L 916.667 -463.333 L 898 -466 L 879.333 -468.667 L 861 -471 L 843 -473 L 835 -474.333 L 829.833 -477.667 L 827.5 -483 L 825.167 -488.333 L 828 -493.333 Z M 499 -1222 L 509.667 -1220 L 514.5 -1214.5 L 513.5 -1205.5 L 512.5 -1196.5 L 505.667 -1191.333 L 493 -1190 L 479 -1185.333 L 467.833 -1167.833 L 459.5 -1137.5 L 451.167 -1107.167 L 442 -1075 L 432 -1041 L 409.333 -961.667 L 388.667 -897.333 L 370 -848 L 351.333 -798.667 L 333.667 -764 L 317 -744 L 300.333 -724 L 280.333 -709 L 257 -699 L 221 -683.667 L 185.5 -672.167 L 150.5 -664.5 L 115.5 -656.833 L 85 -653 L 59 -653 L 71.667 -623 L 93 -602.167 L 123 -590.5 L 153 -578.833 L 161.667 -566.333 L 149 -553 L 141.667 -545.667 L 118.5 -555.333 L 79.5 -582 L 40.5 -608.667 L 14 -635 L 0 -661 L 0 -677.667 L 6.667 -684.667 L 20 -682 L 33.333 -679.333 L 48 -677.333 L 64 -676 L 79.333 -675.333 L 95.167 -676.167 L 111.5 -678.5 L 127.833 -680.833 L 149.667 -689 L 177 -703 L 190.333 -709.667 L 203 -724.833 L 215 -748.5 L 227 -772.167 L 237.833 -798.5 L 247.5 -827.5 L 257.167 -856.5 L 265.333 -885.167 L 272 -913.5 L 278.667 -941.833 L 287.333 -982.667 L 298 -1036 L 308.667 -1089.333 L 318 -1125 L 326 -1143 L 334 -1161 L 345.167 -1175.5 L 359.5 -1186.5 L 373.833 -1197.5 L 387.5 -1204.667 L 400.5 -1208 L 413.5 -1211.333 L 427.833 -1213.833 L 443.5 -1215.5 L 459.167 -1217.167 L 477.667 -1219.333 Z M 966 -1343 L 976 -1341.667 L 980.333 -1337.167 L 979 -1329.5 L 977.667 -1321.833 L 971.333 -1317.333 L 960 -1316 L 947.333 -1312 L 937 -1297.167 L 929 -1271.5 L 921 -1245.833 L 912.667 -1218.667 L 904 -1190 L 883.333 -1122.667 L 864.167 -1068.333 L 846.5 -1027 L 828.833 -985.667 L 812.333 -956.667 L 797 -940 L 781.667 -923.333 L 763.333 -910.667 L 742 -902 L 708.667 -888.667 L 675.667 -879 L 643 -873 L 610.333 -867 L 582.333 -864 L 559 -864 L 571 -838 L 590.667 -820.167 L 618 -810.5 L 645.333 -800.833 L 653.333 -790.333 L 642 -779 L 635.333 -773 L 614 -781.167 L 578 -803.5 L 542 -825.833 L 517.333 -848 L 504 -870 L 504 -884 L 510.167 -889.833 L 522.5 -887.5 L 534.833 -885.167 L 548.333 -883.667 L 563 -883 L 577.667 -882.333 L 592.5 -883 L 607.5 -885 L 622.5 -887 L 642.667 -894 L 668 -906 L 680.667 -912 L 692.333 -924.833 L 703 -944.5 L 713.667 -964.167 L 723.5 -986.167 L 732.5 -1010.5 L 741.5 -1034.833 L 749.167 -1058.833 L 755.5 -1082.5 L 761.833 -1106.167 L 769.833 -1140.5 L 779.5 -1185.5 L 789.167 -1230.5 L 797.667 -1260.667 L 805 -1276 L 812.333 -1291.333 L 822.667 -1303.667 L 836 -1313 L 849.333 -1322.333 L 862 -1328.5 L 874 -1331.5 L 886 -1334.5 L 899.5 -1336.667 L 914.5 -1338 L 929.5 -1339.333 L 946.667 -1341 Z" fill="black" fill-opacity="0.25" stroke="black" stroke-width="4"/>
  <rect x="467" y="-707" width="266" height="249" fill="none" stroke="red" stroke-width="10" /><rect x="28" y="-507" width="1106" height="374" fill="none" stroke="red" stroke-width="10" /><rect x="0" y="-774.4" width="339" height="223.8" fill="none" stroke="red" stroke-width="10" /><rect x="227.9" y="-998.2" width="191.9" height="223.8" fill="none" stroke="red" stroke-width="10" /><rect x="290.4" y="-1222" width="224.1" height="223.8" fill="none" stroke="red" stroke-width="10" /><rect x="504" y="-965.7" width="313.5" height="188.6" fill="none" stroke="red" stroke-width="10" /><rect x="714.4" y="-1154.4" width="178.7" height="188.7" fill="none" stroke="red" stroke-width="10" /><rect x="772.8" y="-1343" width="207.5" height="188.6" fill="none" stroke="red" stroke-width="10" />
</svg>
