<svg xmlns="http://www.w3.org/2000/svg"
  viewBox="-49.99986267131756 -1009.5216985344719 1202.4997253415804 926.0433970689437">
  <rect x="-49.99986267131756" y="-1009.5216985344719" width="1202.4997253415804" height="926.0433970689437" fill="white"/>
  <path d="M 296.25 -595.0 L 270.916992188 -585.666992188 L 227.916992188 -586.0 L 167.25 -596.0 L 131.916992188 -604.666992188 L 100.75 -616.333007812 L 73.75 -631.0 L 46.75 -645.666992188 L 25.9169921875 -671.333007812 L 11.25 -708.0 L 1.25 -743.333007812 L -2.0830078125 -771.5 L 1.25 -792.5 L 4.5830078125 -813.5 L 16.25 -838.0 L 36.25 -866.0 L 55.5830078125 -889.333007812 L 78.0830078125 -907.0 L 103.75 -919.0 L 129.416992188 -931.0 L 160.916992188 -941.0 L 198.25 -949.0 L 235.583007812 -956.333007812 L 265.916992188 -959.833007812 L 289.25 -959.5 L 312.583007812 -959.166992188 L 337.916992188 -958.333007812 L 365.25 -957.0 L 391.916992188 -955.666992188 L 416.75 -953.5 L 439.75 -950.5 L 462.75 -947.5 L 490.583007812 -941.0 L 523.25 -931.0 L 577.25 -916.333007812 L 630.583007812 -896.0 L 683.25 -870.0 L 712.583007812 -855.333007812 L 743.75 -839.5 L 776.75 -822.5 L 809.75 -805.5 L 846.583007812 -785.333007812 L 887.25 -762.0 L 905.916992188 -750.666992188 L 926.416992188 -738.666992188 L 948.75 -726.0 L 971.083007812 -713.333007812 L 994.916992188 -700.333007812 L 1020.25 -687.0 L 1039.58300781 -675.0 L 1058.75 -662.833007812 L 1077.75 -650.5 L 1096.75 -638.166992188 L 1104.75 -625.833007812 L 1101.75 -613.5 L 1098.75 -601.166992188 L 1091.58300781 -595.333007812 L 1080.25 -596.0 L 1068.91699219 -596.666992188 L 1033.08300781 -596.333007812 L 972.75 -595.0 L 912.416992188 -593.666992188 L 859.916992188 -593.666992188 L 815.25 -595.0 L 797.25 -608.333007812 L 797.416992188 -617.833007812 L 815.75 -623.5 L 834.083007812 -629.166992188 L 847.916992188 -636.333007812 L 857.25 -645.0 L 873.916992188 -662.333007812 L 881.25 -676.0 L 879.25 -686.0 L 877.25 -696.0 L 874.416992188 -703.833007812 L 870.75 -709.5 L 867.083007812 -715.166992188 L 861.583007812 -721.333007812 L 854.25 -728.0 L 846.916992188 -734.666992188 L 828.75 -747.833007812 L 799.75 -767.5 L 770.75 -787.166992188 L 734.916992188 -808.0 L 692.25 -830.0 L 653.583007812 -846.666992188 L 623.25 -860.333007812 L 601.25 -871.0 L 579.25 -881.666992188 L 543.583007812 -893.666992188 L 494.25 -907.0 L 457.583007812 -914.333007812 L 420.25 -918.833007812 L 382.25 -920.5 L 344.25 -922.166992188 L 305.583007812 -916.666992188 L 266.25 -904.0 L 238.916992188 -892.0 L 219.75 -881.833007812 L 208.75 -873.5 L 197.75 -865.166992188 L 185.25 -850.333007812 L 171.25 -829.0 L 159.25 -809.0 L 152.416992188 -792.166992188 L 150.75 -778.5 L 149.083007812 -764.833007812 L 148.916992188 -748.666992188 L 150.25 -730.0 L 150.916992188 -711.333007812 L 153.083007812 -698.0 L 156.75 -690.0 L 160.416992188 -682.0 L 165.083007812 -673.666992188 L 170.75 -665.0 L 176.416992188 -656.333007812 L 183.75 -648.5 L 192.75 -641.5 L 201.75 -634.5 L 215.583007812 -629.5 L 234.25 -626.5 L 252.916992188 -623.5 L 271.25 -621.0 L 289.25 -619.0 L 297.25 -617.666992188 L 302.416992188 -614.5 L 304.75 -609.5 L 307.083007812 -604.5 L 304.25 -599.666992188 Z M 806.25 -498.0 L 831.583007812 -507.333007812 L 874.583007812 -506.666992188 L 935.25 -496.0 L 970.583007812 -487.333007812 L 1001.75 -475.666992188 L 1028.75 -461.0 L 1055.75 -446.333007812 L 1076.58300781 -420.666992188 L 1091.25 -384.0 L 1101.25 -348.0 L 1104.58300781 -319.666992188 L 1101.25 -299.0 L 1097.91699219 -278.333007812 L 1086.25 -254.0 L 1066.25 -226.0 L 1046.91699219 -202.666992188 L 1024.41699219 -185.166992188 L 998.75 -173.5 L 973.083007812 -161.833007812 L 941.25 -152.0 L 903.25 -144.0 L 865.916992188 -136.666992188 L 835.583007812 -133.166992188 L 812.25 -133.5 L 788.916992188 -133.833007812 L 763.916992188 -134.333007812 L 737.25 -135.0 L 710.583007812 -136.333007812 L 685.75 -138.5 L 662.75 -141.5 L 639.75 -144.5 L 611.916992188 -151.0 L 579.25 -161.0 L 525.25 -175.666992188 L 471.916992188 -196.0 L 419.25 -222.0 L 389.916992188 -236.666992188 L 358.583007812 -252.5 L 325.25 -269.5 L 291.916992188 -286.5 L 254.916992188 -306.666992188 L 214.25 -330.0 L 195.583007812 -341.333007812 L 175.25 -353.5 L 153.25 -366.5 L 131.25 -379.5 L 107.583007812 -392.666992188 L 82.25 -406.0 L 62.9169921875 -418.0 L 43.75 -430.166992188 L 24.75 -442.5 L 5.75 -454.833007812 L -2.25 -467.0 L 0.75 -479.0 L 3.75 -491.0 L 10.9169921875 -496.666992188 L 22.25 -496.0 L 33.5830078125 -495.333007812 L 69.25 -495.666992188 L 129.25 -497.0 L 189.25 -498.333007812 L 241.916992188 -498.666992188 L 287.25 -498.0 L 305.25 -484.666992188 L 304.916992188 -475.166992188 L 286.25 -469.5 L 267.583007812 -463.833007812 L 253.916992188 -456.666992188 L 245.25 -448.0 L 228.583007812 -430.666992188 L 221.25 -416.833007812 L 223.25 -406.5 L 225.25 -396.166992188 L 227.916992188 -388.166992188 L 231.25 -382.5 L 234.583007812 -376.833007812 L 239.916992188 -370.833007812 L 247.25 -364.5 L 254.583007812 -358.166992188 L 272.75 -345.0 L 301.75 -325.0 L 330.75 -305.0 L 366.916992188 -284.0 L 410.25 -262.0 L 448.916992188 -245.333007812 L 479.25 -231.666992188 L 501.25 -221.0 L 523.25 -210.333007812 L 558.916992188 -198.333007812 L 608.25 -185.0 L 644.916992188 -177.666992188 L 682.25 -173.166992188 L 720.25 -171.5 L 758.25 -169.833007812 L 796.916992188 -175.333007812 L 836.25 -188.0 L 863.583007812 -200.0 L 882.75 -210.333007812 L 893.75 -219.0 L 904.75 -227.666992188 L 917.25 -242.333007812 L 931.25 -263.0 L 943.25 -283.0 L 950.083007812 -300.0 L 951.75 -314.0 L 953.416992188 -328.0 L 953.583007812 -344.0 L 952.25 -362.0 L 951.583007812 -380.666992188 L 949.416992188 -394.166992188 L 945.75 -402.5 L 942.083007812 -410.833007812 L 937.25 -419.333007812 L 931.25 -428.0 L 925.25 -436.666992188 L 917.916992188 -444.5 L 909.25 -451.5 L 900.583007812 -458.5 L 886.916992188 -463.333007812 L 868.25 -466.0 L 849.583007812 -468.666992188 L 831.25 -471.0 L 813.25 -473.0 L 805.25 -474.333007812 L 800.083007812 -477.666992188 L 797.75 -483.0 L 795.416992188 -488.333007812 L 798.25 -493.333007812 Z" fill="black" fill-opacity="0.25" stroke="black" stroke-width="4.0"/>
  <rect x="-2.0" y="-960.0" width="1107.0" height="374.0" fill="none" stroke="red" stroke-width="10.0" /><rect x="-2.0" y="-507.0" width="1107.0" height="374.0" fill="none" stroke="red" stroke-width="10.0" />
</svg>
