<svg xmlns="http://www.w3.org/2000/svg"
  viewBox="-49.99986267131756 -1004.5216985344719 1202.4997253415804 921.0433970689437">
  <rect x="-49.99986267131756" y="-1004.5216985344719" width="1202.4997253415804" height="921.0433970689437" fill="white"/>
  <path d="M 296.25 -590.0 L 270.916992188 -580.666992188 L 227.916992188 -581.0 L 167.25 -591.0 L 131.916992188 -599.666992188 L 100.75 -611.333007812 L 73.75 -626.0 L 46.75 -640.666992188 L 25.9169921875 -666.333007812 L 11.25 -703.0 L 1.25 -738.333007812 L -2.0830078125 -766.666992188 L 1.25 -788.0 L 4.5830078125 -809.333007812 L 16.25 -833.666992188 L 36.25 -861.0 L 55.5830078125 -884.333007812 L 78.0830078125 -902.0 L 103.75 -914.0 L 129.416992188 -926.0 L 160.916992188 -936.0 L 198.25 -944.0 L 235.583007812 -951.333007812 L 265.916992188 -954.833007812 L 289.25 -954.5 L 312.583007812 -954.166992188 L 337.916992188 -953.333007812 L 365.25 -952.0 L 391.916992188 -950.666992188 L 416.75 -948.5 L 439.75 -945.5 L 462.75 -942.5 L 490.583007812 -936.0 L 523.25 -926.0 L 577.25 -911.333007812 L 630.583007812 -891.0 L 683.25 -865.0 L 712.583007812 -850.333007812 L 743.75 -834.5 L 776.75 -817.5 L 809.75 -800.5 L 846.583007812 -780.666992188 L 887.25 -758.0 L 905.916992188 -746.666992188 L 926.416992188 -734.5 L 948.75 -721.5 L 971.083007812 -708.5 L 994.916992188 -695.333007812 L 1020.25 -682.0 L 1039.58300781 -670.0 L 1058.75 -657.833007812 L 1077.75 -645.5 L 1096.75 -633.166992188 L 1104.75 -620.833007812 L 1101.75 -608.5 L 1098.75 -596.166992188 L 1091.58300781 -590.333007812 L 1080.25 -591.0 L 1068.91699219 -591.666992188 L 1033.08300781 -591.333007812 L 972.75 -590.0 L 912.416992188 -588.666992188 L 859.916992188 -588.666992188 L 815.25 -590.0 L 797.25 -603.333007812 L 797.416992188 -612.833007812 L 815.75 -618.5 L 834.083007812 -624.166992188 L 847.916992188 -631.333007812 L 857.25 -640.0 L 873.916992188 -657.333007812 L 881.25 -671.0 L 879.25 -681.0 L 877.25 -691.0 L 874.416992188 -698.833007812 L 870.75 -704.5 L 867.083007812 -710.166992188 L 861.583007812 -716.333007812 L 854.25 -723.0 L 846.916992188 -729.666992188 L 828.75 -742.833007812 L 799.75 -762.5 L 770.75 -782.166992188 L 734.916992188 -803.0 L 692.25 -825.0 L 653.583007812 -841.666992188 L 623.25 -855.5 L 601.25 -866.5 L 579.25 -877.5 L 543.583007812 -889.666992188 L 494.25 -903.0 L 457.583007812 -910.333007812 L 420.25 -914.666992188 L 382.25 -916.0 L 344.25 -917.333007812 L 305.583007812 -911.666992188 L 266.25 -899.0 L 238.916992188 -887.0 L 219.75 -876.833007812 L 208.75 -868.5 L 197.75 -860.166992188 L 185.25 -845.333007812 L 171.25 -824.0 L 159.25 -804.0 L 152.416992188 -787.166992188 L 150.75 -773.5 L 149.083007812 -759.833007812 L 148.916992188 -743.666992188 L 150.25 -725.0 L 150.916992188 -706.333007812 L 153.083007812 -693.0 L 156.75 -685.0 L 160.416992188 -677.0 L 165.083007812 -668.666992188 L 170.75 -660.0 L 176.416992188 -651.333007812 L 183.75 -643.5 L 192.75 -636.5 L 201.75 -629.5 L 215.583007812 -624.5 L 234.25 -621.5 L 252.916992188 -618.5 L 271.25 -616.0 L 289.25 -614.0 L 297.25 -612.666992188 L 302.416992188 -609.5 L 304.75 -604.5 L 307.083007812 -599.5 L 304.25 -594.666992188 Z M 806.25 -498.0 L 831.583007812 -507.333007812 L 874.583007812 -506.666992188 L 935.25 -496.0 L 970.583007812 -486.666992188 L 1001.75 -474.833007812 L 1028.75 -460.5 L 1055.75 -446.166992188 L 1076.58300781 -420.666992188 L 1091.25 -384.0 L 1101.25 -348.666992188 L 1104.58300781 -320.333007812 L 1101.25 -299.0 L 1097.91699219 -277.666992188 L 1086.25 -253.333007812 L 1066.25 -226.0 L 1046.91699219 -202.666992188 L 1024.41699219 -185.166992188 L 998.75 -173.5 L 973.083007812 -161.833007812 L 941.25 -152.0 L 903.25 -144.0 L 865.916992188 -136.666992188 L 835.583007812 -133.166992188 L 812.25 -133.5 L 788.916992188 -133.833007812 L 763.916992188 -134.333007812 L 737.25 -135.0 L 710.583007812 -136.333007812 L 685.75 -138.5 L 662.75 -141.5 L 639.75 -144.5 L 611.916992188 -151.0 L 579.25 -161.0 L 525.25 -175.666992188 L 471.916992188 -196.0 L 419.25 -222.0 L 389.916992188 -236.666992188 L 358.583007812 -252.5 L 325.25 -269.5 L 291.916992188 -286.5 L 254.916992188 -306.666992188 L 214.25 -330.0 L 195.583007812 -341.333007812 L 175.25 -353.5 L 153.25 -366.5 L 131.25 -379.5 L 107.583007812 -392.666992188 L 82.25 -406.0 L 62.9169921875 -418.0 L 43.75 -430.166992188 L 24.75 -442.5 L 5.75 -454.833007812 L -2.25 -467.166992188 L 0.75 -479.5 L 3.75 -491.833007812 L 10.9169921875 -497.666992188 L 22.25 -497.0 L 33.5830078125 -496.333007812 L 69.25 -496.5 L 129.25 -497.5 L 189.25 -498.5 L 241.916992188 -498.666992188 L 287.25 -498.0 L 305.25 -484.666992188 L 304.916992188 -475.166992188 L 286.25 -469.5 L 267.583007812 -463.833007812 L 253.916992188 -456.666992188 L 245.25 -448.0 L 228.583007812 -430.666992188 L 221.25 -416.833007812 L 223.25 -406.5 L 225.25 -396.166992188 L 227.916992188 -388.166992188 L 231.25 -382.5 L 234.583007812 -376.833007812 L 239.916992188 -370.833007812 L 247.25 -364.5 L 254.583007812 -358.166992188 L 272.75 -345.0 L 301.75 -325.0 L 330.75 -305.0 L 366.916992188 -284.0 L 410.25 -262.0 L 448.916992188 -245.333007812 L 479.25 -231.666992188 L 501.25 -221.0 L 523.25 -210.333007812 L 558.916992188 -198.333007812 L 608.25 -185.0 L 644.916992188 -177.666992188 L 682.25 -173.166992188 L 720.25 -171.5 L 758.25 -169.833007812 L 796.916992188 -175.333007812 L 836.25 -188.0 L 863.583007812 -200.0 L 882.75 -210.333007812 L 893.75 -219.0 L 904.75 -227.666992188 L 917.25 -242.333007812 L 931.25 -263.0 L 943.25 -283.0 L 950.083007812 -300.0 L 951.75 -314.0 L 953.416992188 -328.0 L 953.583007812 -344.0 L 952.25 -362.0 L 951.583007812 -380.666992188 L 949.416992188 -394.166992188 L 945.75 -402.5 L 942.083007812 -410.833007812 L 937.25 -419.333007812 L 931.25 -428.0 L 925.25 -436.666992188 L 917.916992188 -444.5 L 909.25 -451.5 L 900.583007812 -458.5 L 886.916992188 -463.333007812 L 868.25 -466.0 L 849.583007812 -468.666992188 L 831.25 -471.0 L 813.25 -473.0 L 805.25 -474.333007812 L 800.083007812 -477.666992188 L 797.75 -483.0 L 795.416992188 -488.333007812 L 798.25 -493.333007812 Z M 502.25 -489.0 L 495.583007812 -494.333007812 L 495.083007812 -499.333007812 L 500.75 -504.0 L 506.416992188 -508.666992188 L 513.916992188 -511.0 L 523.25 -511.0 L 533.25 -511.0 L 546.916992188 -519.833007812 L 564.25 -537.5 L 581.583007812 -555.166992188 L 593.25 -577.0 L 599.25 -603.0 L 608.583007812 -647.0 L 585.583007812 -683.333007812 L 530.25 -712.0 L 508.916992188 -722.0 L 482.25 -731.0 L 450.25 -739.0 L 418.25 -747.0 L 386.583007812 -754.0 L 355.25 -760.0 L 323.916992188 -766.0 L 296.25 -770.833007812 L 272.25 -774.5 L 248.25 -778.166992188 L 234.25 -781.0 L 230.25 -783.0 L 221.583007812 -786.333007812 L 218.25 -790.666992188 L 220.25 -796.0 L 222.25 -801.333007812 L 226.583007812 -804.0 L 233.25 -804.0 L 236.583007812 -804.0 L 250.083007812 -802.666992188 L 273.75 -800.0 L 297.416992188 -797.333007812 L 325.75 -793.333007812 L 358.75 -788.0 L 391.75 -782.666992188 L 426.416992188 -775.666992188 L 462.75 -767.0 L 499.083007812 -758.333007812 L 532.25 -748.333007812 L 562.25 -737.0 L 597.583007812 -723.0 L 625.916992188 -709.0 L 647.25 -695.0 L 668.583007812 -681.0 L 687.916992188 -662.0 L 705.25 -638.0 L 722.583007812 -614.0 L 729.916992188 -590.333007812 L 727.25 -567.0 L 724.583007812 -543.666992188 L 714.583007812 -525.333007812 L 697.25 -512.0 L 681.25 -500.0 L 662.583007812 -492.0 L 641.25 -488.0 L 619.916992188 -484.0 L 599.916992188 -482.0 L 581.25 -482.0 L 562.583007812 -482.0 L 549.416992188 -482.166992188 L 541.75 -482.5 L 534.083007812 -482.833007812 L 520.916992188 -485.0 Z" fill="black" fill-opacity="0.25" stroke="black" stroke-width="4.0"/>
  <rect x="-2.0" y="-955.0" width="1107.0" height="374.0" fill="none" stroke="red" stroke-width="10.0" /><rect x="-2.0" y="-507.0" width="1107.0" height="374.0" fill="none" stroke="red" stroke-width="10.0" /><rect x="218.0" y="-804.0" width="512.0" height="322.00000000000006" fill="none" stroke="red" stroke-width="10.0" />
</svg>
