<svg xmlns="http://www.w3.org/2000/svg"
  viewBox="-50 -1025.5 1279.268 942.022">
  <rect x="-50" y="-1025.5" width="1279.268" height="942.022" fill="white"/>
  <path d="M 883.018 -498 L 908.351 -507.333 L 951.351 -506.667 L 1012.018 -496 L 1047.351 -486.667 L 1078.518 -474.833 L 1105.518 -460.5 L 1132.518 -446.167 L 1153.351 -420.667 L 1168.018 -384 L 1178.018 -348.667 L 1181.351 -320.333 L 1178.018 -299 L 1174.685 -277.667 L 1163.018 -253.333 L 1143.018 -226 L 1123.685 -202.667 L 1101.185 -185.167 L 1075.518 -173.5 L 1049.851 -161.833 L 1018.018 -152 L 980.018 -144 L 942.685 -136.667 L 912.351 -133.167 L 889.018 -133.5 L 865.685 -133.833 L 840.685 -134.333 L 814.018 -135 L 787.351 -136.333 L 762.518 -138.5 L 739.518 -141.5 L 716.518 -144.5 L 688.685 -151 L 656.018 -161 L 602.018 -175.667 L 548.685 -196 L 496.018 -222 L 466.685 -236.667 L 435.351 -252.5 L 402.018 -269.5 L 368.685 -286.5 L 331.685 -306.667 L 291.018 -330 L 272.351 -341.333 L 252.018 -353.5 L 230.018 -366.5 L 208.018 -379.5 L 184.351 -392.667 L 159.018 -406 L 139.685 -418 L 120.518 -430.167 L 101.518 -442.5 L 82.518 -454.833 L 74.518 -467.167 L 77.518 -479.5 L 80.518 -491.833 L 87.685 -497.667 L 99.018 -497 L 110.351 -496.333 L 146.018 -496.5 L 206.018 -497.5 L 266.018 -498.5 L 318.685 -498.667 L 364.018 -498 L 382.018 -484.667 L 381.685 -475.167 L 363.018 -469.5 L 344.351 -463.833 L 330.685 -456.667 L 322.018 -448 L 305.351 -430.667 L 298.018 -416.833 L 300.018 -406.5 L 302.018 -396.167 L 304.685 -388.167 L 308.018 -382.5 L 311.351 -376.833 L 316.685 -370.833 L 324.018 -364.5 L 331.351 -358.167 L 349.518 -345 L 378.518 -325 L 407.518 -305 L 443.685 -284 L 487.018 -262 L 525.685 -245.333 L 556.018 -231.667 L 578.018 -221 L 600.018 -210.333 L 635.685 -198.333 L 685.018 -185 L 721.685 -177.667 L 759.018 -173.167 L 797.018 -171.5 L 835.018 -169.833 L 873.685 -175.333 L 913.018 -188 L 940.351 -200 L 959.518 -210.333 L 970.518 -219 L 981.518 -227.667 L 994.018 -242.333 L 1008.018 -263 L 1020.018 -283 L 1026.851 -300 L 1028.518 -314 L 1030.185 -328 L 1030.351 -344 L 1029.018 -362 L 1028.351 -380.667 L 1026.185 -394.167 L 1022.518 -402.5 L 1018.851 -410.833 L 1014.018 -419.333 L 1008.018 -428 L 1002.018 -436.667 L 994.685 -444.5 L 986.018 -451.5 L 977.351 -458.5 L 963.685 -463.333 L 945.018 -466 L 926.351 -468.667 L 908.018 -471 L 890.018 -473 L 882.018 -474.333 L 876.851 -477.667 L 874.518 -483 L 872.185 -488.333 L 875.018 -493.333 Z M 26.018 -804 L 0.685 -850 L -6.148 -889.5 L 5.518 -922.5 L 17.185 -955.5 L 38.018 -973 L 68.018 -975 L 87.352 -976.333 L 102.185 -975 L 112.518 -971 L 122.852 -967 L 132.018 -962.667 L 140.018 -958 L 148.018 -953.333 L 155.518 -948.5 L 162.518 -943.5 L 169.518 -938.5 L 176.018 -933.333 L 182.018 -928 L 188.018 -922.667 L 192.185 -917.833 L 194.518 -913.5 L 196.852 -909.167 L 197.852 -905.333 L 197.518 -902 L 197.185 -898.667 L 195.852 -896.167 L 193.518 -894.5 L 191.185 -892.833 L 184.185 -889.667 L 172.518 -885 L 160.852 -880.333 L 145.685 -872.833 L 127.018 -862.5 L 108.352 -852.167 L 99.352 -834.667 L 100.018 -810 L 100.018 -784.667 L 126.352 -760.833 L 179.018 -738.5 L 231.685 -716.167 L 310.018 -707.333 L 414.018 -712 L 963.018 -730 L 985.018 -730 L 1002.518 -728.5 L 1015.518 -725.5 L 1028.518 -722.5 L 1040.352 -718.833 L 1051.018 -714.5 L 1061.685 -710.167 L 1070.852 -705.667 L 1078.518 -701 L 1086.185 -696.333 L 1094.852 -689.5 L 1104.518 -680.5 L 1114.185 -671.5 L 1125.685 -660 L 1139.018 -646 L 1152.352 -632 L 1161.018 -621.667 L 1165.018 -615 L 1169.018 -608.333 L 1171.018 -602 L 1171.018 -596 L 1171.018 -590 L 1169.018 -585.833 L 1165.018 -583.5 L 1161.018 -581.167 L 1156.518 -580 L 1151.518 -580 L 1146.518 -580 L 1141.352 -581.167 L 1136.018 -583.5 L 1130.685 -585.833 L 1124.352 -588.167 L 1117.018 -590.5 L 1109.685 -592.833 L 1101.185 -595.333 L 1091.518 -598 L 1081.852 -600.667 L 1073.185 -602.667 L 1065.518 -604 L 1057.852 -605.333 L 1047.018 -606.333 L 1033.018 -607 L 823.018 -613 L 761.685 -613 L 697.185 -615.5 L 629.518 -620.5 L 561.852 -625.5 L 498.018 -632 L 438.018 -640 L 378.018 -648 L 325.352 -656.667 L 280.018 -666 L 234.685 -675.333 L 203.685 -683.333 L 187.018 -690 L 158.352 -702 L 132.852 -713.667 L 110.518 -725 L 88.185 -736.333 L 60.018 -762.667 Z" fill="black" fill-opacity="0.25" stroke="black" stroke-width="4"/>
  <rect x="75" y="-507" width="1106" height="374" fill="none" stroke="red" stroke-width="10" /><rect x="-6" y="-976" width="1177" height="396" fill="none" stroke="red" stroke-width="10" />
</svg>
