<svg xmlns="http://www.w3.org/2000/svg"
  viewBox="-50 -1393 1277.336 1309.522">
  <rect x="-50" y="-1393" width="1277.336" height="1309.522" fill="white"/>
  <path d="M 382.113 -707 L 402.113 -707 L 423.113 -706.667 L 445.113 -706 L 467.113 -705.333 L 486.78 -703.333 L 504.113 -700 L 516.78 -700 L 530.113 -678.667 L 544.113 -636 L 558.113 -593.333 L 574.447 -552 L 593.113 -512 L 599.113 -498 L 605.447 -490 L 612.113 -488 L 617.447 -486.667 L 621.613 -483.333 L 624.613 -478 L 627.613 -472.667 L 624.78 -468 L 616.113 -464 L 595.447 -460 L 574.78 -458.333 L 554.113 -459 L 533.447 -459.667 L 513.78 -461.333 L 495.113 -464 L 477.78 -472 L 464.113 -491.167 L 454.113 -521.5 L 444.113 -551.833 L 428.78 -596 L 408.113 -654 L 406.78 -657.333 L 403.28 -662.333 L 397.613 -669 L 391.947 -675.667 L 385.78 -679.667 L 379.113 -681 L 369.78 -683 L 364.447 -687.833 L 363.113 -695.5 L 361.78 -703.167 L 368.113 -707 Z M 806.113 -498 L 831.447 -507.333 L 874.447 -506.667 L 935.113 -496 L 970.447 -487.333 L 1001.613 -475.667 L 1028.613 -461 L 1055.613 -446.333 L 1076.447 -420.667 L 1091.113 -384 L 1101.113 -348.667 L 1104.447 -320.5 L 1101.113 -299.5 L 1097.78 -278.5 L 1086.113 -254 L 1066.113 -226 L 1046.78 -202.667 L 1024.28 -185.167 L 998.613 -173.5 L 972.947 -161.833 L 941.447 -152 L 904.113 -144 L 866.78 -136.667 L 836.447 -133.167 L 813.113 -133.5 L 789.78 -133.833 L 764.447 -134.333 L 737.113 -135 L 710.447 -136.333 L 685.613 -138.5 L 662.613 -141.5 L 639.613 -144.5 L 611.78 -151 L 579.113 -161 L 525.113 -175.667 L 471.78 -196 L 419.113 -222 L 389.78 -236.667 L 358.613 -252.5 L 325.613 -269.5 L 292.613 -286.5 L 255.78 -306.667 L 215.113 -330 L 196.447 -341.333 L 175.947 -353.5 L 153.613 -366.5 L 131.28 -379.5 L 107.447 -392.667 L 82.113 -406 L 62.78 -418 L 43.613 -430 L 24.613 -442 L 5.613 -454 L -2.387 -466.167 L 0.613 -478.5 L 3.613 -490.833 L 10.78 -496.667 L 22.113 -496 L 33.447 -495.333 L 69.113 -495.667 L 129.113 -497 L 189.113 -498.333 L 241.78 -498.667 L 287.113 -498 L 305.113 -484.667 L 304.947 -475.167 L 286.613 -469.5 L 268.28 -463.833 L 254.447 -456.667 L 245.113 -448 L 228.447 -430.667 L 221.113 -416.833 L 223.113 -406.5 L 225.113 -396.167 L 227.947 -388.167 L 231.613 -382.5 L 235.28 -376.833 L 240.78 -370.833 L 248.113 -364.5 L 255.447 -358.167 L 273.447 -345 L 302.113 -325 L 330.78 -305 L 366.78 -284 L 410.113 -262 L 448.78 -245.333 L 479.113 -231.667 L 501.113 -221 L 523.113 -210.333 L 558.78 -198.333 L 608.113 -185 L 644.78 -177.667 L 682.113 -173.167 L 720.113 -171.5 L 758.113 -169.833 L 796.78 -175.333 L 836.113 -188 L 863.447 -200 L 882.613 -210.333 L 893.613 -219 L 904.613 -227.667 L 917.113 -242.333 L 931.113 -263 L 943.113 -283 L 949.947 -300 L 951.613 -314 L 953.28 -328 L 953.447 -344 L 952.113 -362 L 951.447 -380.667 L 949.28 -394.167 L 945.613 -402.5 L 941.947 -410.833 L 937.28 -419.333 L 931.613 -428 L 925.947 -436.667 L 918.613 -444.5 L 909.613 -451.5 L 900.613 -458.5 L 886.78 -463.333 L 868.113 -466 L 849.447 -468.667 L 831.113 -471 L 813.113 -473 L 805.113 -474.333 L 799.947 -477.667 L 797.613 -483 L 795.28 -488.333 L 798.113 -493.333 Z M 1163.113 -1222 L 1173.78 -1220 L 1178.447 -1214.5 L 1177.113 -1205.5 L 1175.78 -1196.5 L 1168.78 -1191.333 L 1156.113 -1190 L 1142.113 -1185.333 L 1130.947 -1167.833 L 1122.613 -1137.5 L 1114.28 -1107.167 L 1105.113 -1075 L 1095.113 -1041 L 1072.447 -961.667 L 1051.947 -897.333 L 1033.613 -848 L 1015.28 -798.667 L 997.613 -764 L 980.613 -744 L 963.613 -724 L 943.447 -709 L 920.113 -699 L 884.113 -683.667 L 848.613 -672.167 L 813.613 -664.5 L 778.613 -656.833 L 748.113 -653 L 722.113 -653 L 734.78 -623 L 756.113 -602.167 L 786.113 -590.5 L 816.113 -578.833 L 824.78 -566.333 L 812.113 -553 L 804.78 -545.667 L 781.78 -555.333 L 743.113 -582 L 704.447 -608.667 L 677.78 -635 L 663.113 -661 L 663.113 -677.667 L 669.947 -684.667 L 683.613 -682 L 697.28 -679.333 L 711.78 -677.333 L 727.113 -676 L 742.447 -675.333 L 758.447 -676.167 L 775.113 -678.5 L 791.78 -680.833 L 813.78 -689 L 841.113 -703 L 854.447 -709.667 L 866.947 -724.833 L 878.613 -748.5 L 890.28 -772.167 L 900.947 -798.5 L 910.613 -827.5 L 920.28 -856.5 L 928.447 -885.167 L 935.113 -913.5 L 941.78 -941.833 L 950.613 -982.667 L 961.613 -1036 L 972.613 -1089.333 L 981.947 -1125 L 989.613 -1143 L 997.28 -1161 L 1008.28 -1175.5 L 1022.613 -1186.5 L 1036.947 -1197.5 L 1050.613 -1204.667 L 1063.613 -1208 L 1076.613 -1211.333 L 1091.113 -1213.833 L 1107.113 -1215.5 L 1123.113 -1217.167 L 1141.78 -1219.333 Z M 789.113 -1343 L 799.113 -1341.667 L 803.613 -1337.167 L 802.613 -1329.5 L 801.613 -1321.833 L 795.113 -1317.333 L 783.113 -1316 L 770.447 -1312 L 760.113 -1297.167 L 752.113 -1271.5 L 744.113 -1245.833 L 735.78 -1218.667 L 727.113 -1190 L 706.447 -1122.667 L 687.447 -1068.333 L 670.113 -1027 L 652.78 -985.667 L 636.28 -956.667 L 620.613 -940 L 604.947 -923.333 L 586.447 -910.667 L 565.113 -902 L 531.78 -888.667 L 498.947 -879 L 466.613 -873 L 434.28 -867 L 406.113 -864 L 382.113 -864 L 394.113 -838 L 413.947 -820.167 L 441.613 -810.5 L 469.28 -800.833 L 477.113 -790.333 L 465.113 -779 L 458.447 -773 L 437.113 -781.167 L 401.113 -803.5 L 365.113 -825.833 L 340.447 -848 L 327.113 -870 L 327.113 -884 L 333.447 -889.833 L 346.113 -887.5 L 358.78 -885.167 L 372.113 -883.667 L 386.113 -883 L 400.78 -882.333 L 415.613 -883 L 430.613 -885 L 445.613 -887 L 465.78 -894 L 491.113 -906 L 503.78 -912 L 515.613 -924.833 L 526.613 -944.5 L 537.613 -964.167 L 547.613 -986.167 L 556.613 -1010.5 L 565.613 -1034.833 L 573.113 -1058.833 L 579.113 -1082.5 L 585.113 -1106.167 L 593.113 -1140.5 L 603.113 -1185.5 L 613.113 -1230.5 L 621.78 -1260.667 L 629.113 -1276 L 636.447 -1291.333 L 646.613 -1303.667 L 659.613 -1313 L 672.613 -1322.333 L 685.28 -1328.5 L 697.613 -1331.5 L 709.947 -1334.5 L 723.447 -1336.667 L 738.113 -1338 L 752.78 -1339.333 L 769.78 -1341 Z" fill="black" fill-opacity="0.25" stroke="black" stroke-width="4"/>
  <rect x="362" y="-707" width="266" height="249" fill="none" stroke="red" stroke-width="10" /><rect x="-2" y="-507" width="1106" height="374" fill="none" stroke="red" stroke-width="10" /><rect x="663.1" y="-774.4" width="339.8" height="223.8" fill="none" stroke="red" stroke-width="10" /><rect x="891.2" y="-998.2" width="191.7" height="223.8" fill="none" stroke="red" stroke-width="10" /><rect x="953.8" y="-1222" width="224.6" height="223.8" fill="none" stroke="red" stroke-width="10" /><rect x="327.1" y="-965.7" width="314.3" height="188.6" fill="none" stroke="red" stroke-width="10" /><rect x="538.3" y="-1154.4" width="177.9" height="188.7" fill="none" stroke="red" stroke-width="10" /><rect x="596.2" y="-1343" width="207.4" height="188.6" fill="none" stroke="red" stroke-width="10" />
</svg>
