<svg xmlns="http://www.w3.org/2000/svg"
  viewBox="-50 -906 1463.209 829">
  <rect x="-50" y="-906" width="1463.209" height="829" fill="white"/>
  <path d="M 1148.657 -541 L 1141.99 -545.667 L 1141.657 -550.167 L 1147.657 -554.5 L 1153.657 -558.833 L 1160.657 -561 L 1168.657 -561 L 1177.99 -561 L 1190.99 -569.5 L 1207.657 -586.5 L 1224.324 -603.5 L 1235.657 -624.333 L 1241.657 -649 L 1250.324 -690.333 L 1228.324 -724.333 L 1175.657 -751 L 1136.324 -770.333 L 1083.324 -785.167 L 1016.657 -795.5 L 949.99 -805.833 L 912.99 -812.667 L 905.657 -816 L 898.324 -818.667 L 895.49 -822.667 L 897.157 -828 L 898.824 -833.333 L 902.657 -836 L 908.657 -836 L 914.657 -836 L 951.657 -831.167 L 1019.657 -821.5 L 1087.657 -811.833 L 1149.657 -796.333 L 1205.657 -775 L 1238.99 -761.667 L 1265.824 -748.333 L 1286.157 -735 L 1306.49 -721.667 L 1324.99 -704 L 1341.657 -682 L 1358.324 -659.333 L 1365.324 -636.833 L 1362.657 -614.5 L 1359.99 -592.167 L 1350.324 -575 L 1333.657 -563 L 1318.324 -551.667 L 1300.824 -544 L 1281.157 -540 L 1261.49 -536 L 1242.657 -534 L 1224.657 -534 L 1206.657 -534 L 1193.99 -534.167 L 1186.657 -534.5 L 1179.324 -534.833 L 1166.657 -537 Z M 754.657 -459 L 777.99 -467.667 L 816.657 -467 L 870.657 -457 L 902.657 -449 L 930.99 -438.5 L 955.657 -425.5 L 980.324 -412.5 L 999.324 -389 L 1012.657 -355 L 1021.324 -323 L 1024.324 -297.5 L 1021.657 -278.5 L 1018.99 -259.5 L 1008.324 -237.333 L 989.657 -212 L 972.324 -191.333 L 951.99 -175.333 L 928.657 -164 L 905.324 -152.667 L 876.657 -143.667 L 842.657 -137 L 809.324 -130.333 L 781.99 -127 L 760.657 -127 L 739.324 -127 L 716.324 -127.667 L 691.657 -129 L 667.657 -129.667 L 645.157 -131.5 L 624.157 -134.5 L 603.157 -137.5 L 577.657 -143.667 L 547.657 -153 L 498.324 -167 L 449.99 -185.333 L 402.657 -208 L 375.324 -221.333 L 346.657 -235.667 L 316.657 -251 L 286.657 -266.333 L 253.324 -284.333 L 216.657 -305 L 199.324 -315.667 L 180.657 -326.833 L 160.657 -338.5 L 140.657 -350.167 L 118.99 -362 L 95.657 -374 L 77.657 -384.667 L 60.157 -395.667 L 43.157 -407 L 26.157 -418.333 L 18.99 -429.667 L 21.657 -441 L 24.324 -452.333 L 30.824 -457.667 L 41.157 -457 L 51.49 -456.333 L 83.99 -456.667 L 138.657 -458 L 193.324 -459.333 L 240.99 -459.333 L 281.657 -458 L 297.657 -446 L 297.49 -437.5 L 281.157 -432.5 L 264.824 -427.5 L 252.324 -420.667 L 243.657 -412 L 228.99 -396.667 L 222.49 -384.5 L 224.157 -375.5 L 225.824 -366.5 L 228.157 -359.333 L 231.157 -354 L 234.157 -348.667 L 239.157 -343 L 246.157 -337 L 253.157 -331 L 269.824 -319 L 296.157 -301 L 322.49 -283 L 354.99 -264 L 393.657 -244 L 428.324 -228.667 L 455.824 -216.167 L 476.157 -206.5 L 496.49 -196.833 L 528.99 -186 L 573.657 -174 L 606.99 -168 L 640.99 -164.167 L 675.657 -162.5 L 710.324 -160.833 L 745.657 -165.667 L 781.657 -177 L 806.324 -188.333 L 823.657 -197.833 L 833.657 -205.5 L 843.657 -213.167 L 854.99 -226.333 L 867.657 -245 L 878.324 -263.667 L 884.49 -279.167 L 886.157 -291.5 L 887.824 -303.833 L 887.99 -318.333 L 886.657 -335 L 885.99 -351.667 L 883.99 -363.833 L 880.657 -371.5 L 877.324 -379.167 L 872.99 -387 L 867.657 -395 L 862.324 -403 L 855.657 -410.167 L 847.657 -416.5 L 839.657 -422.833 L 827.157 -427.333 L 810.157 -430 L 793.157 -432.667 L 776.657 -434.667 L 760.657 -436 L 753.324 -437.333 L 748.657 -440.5 L 746.657 -445.5 L 744.657 -450.5 L 747.324 -455 Z M 268.657 -525 L 245.324 -516.333 L 206.324 -516.667 L 151.657 -526 L 119.657 -534 L 91.324 -544.667 L 66.657 -558 L 41.99 -571.333 L 22.99 -594.667 L 9.657 -628 L 0.99 -660 L -1.843 -685.667 L 1.157 -705 L 4.157 -724.333 L 14.657 -746.333 L 32.657 -771 L 49.99 -792.333 L 70.49 -808.5 L 94.157 -819.5 L 117.824 -830.5 L 146.324 -839.333 L 179.657 -846 L 213.657 -852.667 L 241.324 -856 L 262.657 -856 L 283.99 -856 L 306.99 -855.333 L 331.657 -854 L 356.324 -853.333 L 378.99 -851.5 L 399.657 -848.5 L 420.324 -845.5 L 445.324 -839.333 L 474.657 -830 L 523.99 -816 L 572.657 -797.667 L 620.657 -775 L 647.99 -761.667 L 676.49 -747.333 L 706.157 -732 L 735.824 -716.667 L 769.324 -698.333 L 806.657 -677 L 823.99 -667 L 842.49 -656.167 L 862.157 -644.5 L 881.824 -632.833 L 903.324 -621 L 926.657 -609 L 944.657 -597.667 L 962.157 -586.5 L 979.157 -575.5 L 996.157 -564.5 L 1003.324 -553.333 L 1000.657 -542 L 997.99 -530.667 L 991.49 -525.333 L 981.157 -526 L 970.824 -526.667 L 938.324 -526.333 L 883.657 -525 L 828.99 -523.667 L 781.324 -523.667 L 740.657 -525 L 724.657 -537 L 724.99 -545.5 L 741.657 -550.5 L 758.324 -555.5 L 770.657 -562 L 778.657 -570 L 793.324 -586 L 799.99 -598.5 L 798.657 -607.5 L 797.324 -616.5 L 794.99 -623.667 L 791.657 -629 L 788.324 -634.333 L 783.324 -640 L 776.657 -646 L 769.99 -652 L 753.49 -664 L 727.157 -682 L 700.824 -700 L 667.99 -719 L 628.657 -739 L 593.99 -754.333 L 566.49 -766.833 L 546.157 -776.5 L 525.824 -786.167 L 493.324 -797 L 448.657 -809 L 415.324 -815.667 L 381.49 -819.833 L 347.157 -821.5 L 312.824 -823.167 L 277.657 -818 L 241.657 -806 L 216.99 -795.333 L 199.49 -786 L 189.157 -778 L 178.824 -770 L 167.657 -756.667 L 155.657 -738 L 144.99 -720 L 138.824 -704.667 L 137.157 -692 L 135.49 -679.333 L 134.99 -664.667 L 135.657 -648 L 136.324 -631.333 L 138.324 -619.167 L 141.657 -611.5 L 144.99 -603.833 L 149.324 -596 L 154.657 -588 L 159.99 -580 L 166.824 -572.833 L 175.157 -566.5 L 183.49 -560.167 L 195.99 -555.833 L 212.657 -553.5 L 229.324 -551.167 L 245.99 -549 L 262.657 -547 L 269.99 -545.667 L 274.657 -542.667 L 276.657 -538 L 278.657 -533.333 L 275.99 -529 Z" fill="black" fill-opacity="0.25" stroke="black" stroke-width="4"/>
  <rect x="895" y="-836" width="470" height="302" fill="none" stroke="red" stroke-width="10" /><rect x="19" y="-468" width="1005" height="341" fill="none" stroke="red" stroke-width="10" /><rect x="-2" y="-856" width="1005" height="340" fill="none" stroke="red" stroke-width="10" />
</svg>
