<svg xmlns="http://www.w3.org/2000/svg"
  viewBox="-50 -824.555 1333.356 741.077">
  <rect x="-50" y="-824.555" width="1333.356" height="741.077" fill="white"/>
  <path d="M 2.777 -766.5 L 6.111 -771.5 L 9.611 -774.167 L 13.277 -774.5 L 16.944 -774.833 L 21.111 -773.667 L 25.777 -771 L 30.444 -768.333 L 36.111 -765.333 L 42.777 -762 L 49.444 -758.667 L 58.277 -755.833 L 69.277 -753.5 L 80.277 -751.167 L 95.444 -750 L 114.777 -750 L 1052.777 -750 L 1070.777 -750 L 1086.944 -748.5 L 1101.277 -745.5 L 1115.611 -742.5 L 1128.777 -737.833 L 1140.777 -731.5 L 1152.777 -725.167 L 1162.111 -719.5 L 1168.777 -714.5 L 1175.444 -709.5 L 1184.611 -701.167 L 1196.277 -689.5 L 1207.944 -677.833 L 1217.777 -666.167 L 1225.777 -654.5 L 1233.777 -642.833 L 1235.444 -631.667 L 1230.777 -621 L 1226.111 -613 L 1220.444 -611.333 L 1213.777 -616 L 1207.111 -620.667 L 1199.277 -624.667 L 1190.277 -628 L 1181.277 -631.333 L 1171.611 -633.5 L 1161.277 -634.5 L 1150.944 -635.5 L 1135.111 -636 L 1113.777 -636 L 187.777 -636 L 173.111 -636 L 159.944 -637 L 148.277 -639 L 136.611 -641 L 127.444 -643.167 L 120.777 -645.5 L 114.111 -647.833 L 107.111 -650.667 L 99.777 -654 L 92.444 -657.333 L 84.611 -661.833 L 76.277 -667.5 L 67.944 -673.167 L 58.944 -680.833 L 49.277 -690.5 L 39.611 -700.167 L 29.944 -711.333 L 20.277 -724 L 10.611 -736.667 L 4.444 -745.667 L 1.777 -751 L -0.889 -756.333 L -0.556 -761.5 Z M 885.777 -498 L 911.111 -507.333 L 954.111 -506.667 L 1014.777 -496 L 1050.111 -486.667 L 1081.277 -474.833 L 1108.277 -460.5 L 1135.277 -446.167 L 1156.111 -420.667 L 1170.777 -384 L 1180.777 -348.667 L 1184.111 -320.333 L 1180.777 -299 L 1177.444 -277.667 L 1165.777 -253.333 L 1145.777 -226 L 1126.444 -202.667 L 1103.944 -185.167 L 1078.277 -173.5 L 1052.611 -161.833 L 1021.111 -152 L 983.777 -144 L 946.444 -136.667 L 916.111 -133.167 L 892.777 -133.5 L 869.444 -133.833 L 844.111 -134.333 L 816.777 -135 L 790.111 -136.333 L 765.277 -138.5 L 742.277 -141.5 L 719.277 -144.5 L 691.444 -151 L 658.777 -161 L 604.777 -175.667 L 551.444 -196 L 498.777 -222 L 469.444 -236.667 L 438.277 -252.5 L 405.277 -269.5 L 372.277 -286.5 L 335.444 -306.667 L 294.777 -330 L 276.111 -341.333 L 255.611 -353.5 L 233.277 -366.5 L 210.944 -379.5 L 187.111 -392.667 L 161.777 -406 L 142.444 -418 L 123.277 -430.167 L 104.277 -442.5 L 85.277 -454.833 L 77.277 -467.167 L 80.277 -479.5 L 83.277 -491.833 L 90.444 -497.667 L 101.777 -497 L 113.111 -496.333 L 148.944 -496.5 L 209.277 -497.5 L 269.611 -498.5 L 322.111 -498.667 L 366.777 -498 L 384.777 -484.667 L 384.611 -475.167 L 366.277 -469.5 L 347.944 -463.833 L 334.111 -456.667 L 324.777 -448 L 308.111 -430.667 L 300.777 -416.833 L 302.777 -406.5 L 304.777 -396.167 L 307.611 -388.167 L 311.277 -382.5 L 314.944 -376.833 L 320.444 -370.833 L 327.777 -364.5 L 335.111 -358.167 L 353.277 -345 L 382.277 -325 L 411.277 -305 L 447.111 -284 L 489.777 -262 L 528.444 -245.333 L 558.777 -231.667 L 580.777 -221 L 602.777 -210.333 L 638.444 -198.333 L 687.777 -185 L 724.444 -177.667 L 761.777 -173.167 L 799.777 -171.5 L 837.777 -169.833 L 876.444 -175.333 L 915.777 -188 L 943.111 -200 L 962.277 -210.333 L 973.277 -219 L 984.277 -227.667 L 996.777 -242.333 L 1010.777 -263 L 1022.777 -283 L 1029.611 -300 L 1031.277 -314 L 1032.944 -328 L 1033.111 -344 L 1031.777 -362 L 1031.111 -380.667 L 1028.944 -394.167 L 1025.277 -402.5 L 1021.611 -410.833 L 1016.944 -419.333 L 1011.277 -428 L 1005.611 -436.667 L 998.277 -444.5 L 989.277 -451.5 L 980.277 -458.5 L 966.444 -463.333 L 947.777 -466 L 929.111 -468.667 L 910.777 -471 L 892.777 -473 L 884.777 -474.333 L 879.611 -477.667 L 877.277 -483 L 874.944 -488.333 L 877.777 -493.333 Z" fill="black" fill-opacity="0.25" stroke="black" stroke-width="4"/>
  <rect x="-1" y="-775" width="1236" height="164" fill="none" stroke="red" stroke-width="10" /><rect x="77" y="-507" width="1107" height="374" fill="none" stroke="red" stroke-width="10" />
</svg>
