<svg xmlns="http://www.w3.org/2000/svg"
  viewBox="-49.99986267131756 -1421.062635184833 1226.4997253415804 1337.5843337193048">
  <rect x="-49.99986267131756" y="-1421.062635184833" width="1226.4997253415804" height="1337.5843337193048" fill="white"/>
  <path d="M 849.25 -966.0 L 858.25 -928.0 L 858.25 -925.333007812 L 861.75 -918.833007812 L 868.75 -908.5 L 875.75 -898.166992188 L 879.25 -891.666992188 L 879.25 -889.0 L 879.25 -886.333007812 L 873.75 -884.0 L 862.75 -882.0 L 851.75 -880.0 L 844.25 -879.0 L 840.25 -879.0 L 779.25 -879.0 L 771.25 -879.0 L 763.75 -884.666992188 L 756.75 -896.0 L 749.75 -907.333007812 L 745.25 -918.0 L 743.25 -928.0 L 735.25 -966.0 L 657.25 -966.0 L 585.583007812 -969.166992188 L 520.25 -975.5 L 454.916992188 -981.833007812 L 408.583007812 -987.0 L 381.25 -991.0 L 277.916992188 -1007.0 L 214.25 -1043.66699219 L 190.25 -1101.0 L 184.916992188 -1113.66699219 L 175.25 -1132.5 L 161.25 -1157.5 L 147.25 -1182.5 L 132.583007812 -1207.66699219 L 117.25 -1233.0 L 101.916992188 -1258.33300781 L 87.4169921875 -1281.0 L 73.75 -1301.0 L 60.0830078125 -1321.0 L 50.5830078125 -1332.33300781 L 45.25 -1335.0 L 17.9169921875 -1344.33300781 L 11.9169921875 -1354.66699219 L 27.25 -1366.0 L 96.5830078125 -1372.0 L 159.916992188 -1372.66699219 L 217.25 -1368.0 L 249.25 -1366.0 L 272.083007812 -1347.83300781 L 285.75 -1313.5 L 299.416992188 -1279.16699219 L 313.25 -1234.0 L 327.25 -1178.0 L 341.25 -1122.0 L 358.416992188 -1083.66699219 L 378.75 -1063.0 L 399.083007812 -1042.33300781 L 434.25 -1025.33300781 L 484.25 -1012.0 L 533.583007812 -998.666992188 L 615.916992188 -993.333007812 L 731.25 -996.0 L 719.25 -1065.0 L 718.583007812 -1068.33300781 L 715.25 -1072.66699219 L 709.25 -1078.0 L 703.25 -1083.33300781 L 700.25 -1087.66699219 L 700.25 -1091.0 L 700.25 -1095.0 L 705.583007812 -1097.66699219 L 716.25 -1099.0 L 726.916992188 -1100.33300781 L 734.583007812 -1101.0 L 739.25 -1101.0 L 800.25 -1101.0 L 807.583007812 -1101.0 L 814.75 -1095.83300781 L 821.75 -1085.5 L 828.75 -1075.16699219 L 833.583007812 -1064.0 L 836.25 -1052.0 L 846.25 -996.0 L 890.916992188 -996.0 L 921.25 -997.5 L 937.25 -1000.5 L 953.25 -1003.5 L 970.916992188 -1006.33300781 L 990.25 -1009.0 L 997.583007812 -1008.33300781 L 1001.91699219 -1005.0 L 1003.25 -999.0 L 1004.58300781 -993.0 L 1002.91699219 -987.333007812 L 998.25 -982.0 L 991.583007812 -976.0 L 977.916992188 -971.833007812 L 957.25 -969.5 L 936.583007812 -967.166992188 L 900.583007812 -966.0 Z M 295.25 -560.0 L 269.916992188 -550.666992188 L 227.25 -551.333007812 L 167.25 -562.0 L 131.916992188 -570.666992188 L 100.75 -582.333007812 L 73.75 -597.0 L 46.75 -611.666992188 L 25.9169921875 -637.333007812 L 11.25 -674.0 L 1.25 -709.333007812 L -2.0830078125 -737.5 L 1.25 -758.5 L 4.5830078125 -779.5 L 16.25 -804.0 L 36.25 -832.0 L 55.5830078125 -855.333007812 L 78.0830078125 -873.0 L 103.75 -885.0 L 129.416992188 -897.0 L 160.916992188 -906.666992188 L 198.25 -914.0 L 235.583007812 -921.333007812 L 265.916992188 -925.0 L 289.25 -925.0 L 312.583007812 -925.0 L 337.916992188 -924.333007812 L 365.25 -923.0 L 391.916992188 -921.666992188 L 416.583007812 -919.5 L 439.25 -916.5 L 461.916992188 -913.5 L 489.583007812 -907.0 L 522.25 -897.0 L 576.25 -882.333007812 L 629.583007812 -862.0 L 682.25 -836.0 L 711.583007812 -821.333007812 L 742.916992188 -805.5 L 776.25 -788.5 L 809.583007812 -771.5 L 846.583007812 -751.333007812 L 887.25 -728.0 L 905.916992188 -716.666992188 L 926.25 -704.666992188 L 948.25 -692.0 L 970.25 -679.333007812 L 994.25 -666.333007812 L 1020.25 -653.0 L 1039.58300781 -641.0 L 1058.58300781 -628.833007812 L 1077.25 -616.5 L 1095.91699219 -604.166992188 L 1103.75 -591.833007812 L 1100.75 -579.5 L 1097.75 -567.166992188 L 1090.58300781 -561.333007812 L 1079.25 -562.0 L 1067.91699219 -562.666992188 L 1032.25 -562.333007812 L 972.25 -561.0 L 912.25 -559.666992188 L 859.916992188 -559.333007812 L 815.25 -560.0 L 797.25 -573.333007812 L 797.416992188 -582.833007812 L 815.75 -588.5 L 834.083007812 -594.166992188 L 847.583007812 -601.666992188 L 856.25 -611.0 L 872.916992188 -628.333007812 L 880.416992188 -642.0 L 878.75 -652.0 L 877.083007812 -662.0 L 874.416992188 -669.833007812 L 870.75 -675.5 L 867.083007812 -681.166992188 L 861.583007812 -687.166992188 L 854.25 -693.5 L 846.916992188 -699.833007812 L 828.75 -713.0 L 799.75 -733.0 L 770.75 -753.0 L 734.916992188 -774.0 L 692.25 -796.0 L 653.583007812 -812.666992188 L 623.25 -826.333007812 L 601.25 -837.0 L 579.25 -847.666992188 L 543.25 -859.666992188 L 493.25 -873.0 L 456.583007812 -880.333007812 L 419.416992188 -884.833007812 L 381.75 -886.5 L 344.083007812 -888.166992188 L 305.583007812 -882.666992188 L 266.25 -870.0 L 238.916992188 -858.0 L 219.583007812 -847.666992188 L 208.25 -839.0 L 196.916992188 -830.333007812 L 184.583007812 -815.666992188 L 171.25 -795.0 L 159.25 -775.0 L 152.25 -758.0 L 150.25 -744.0 L 148.25 -730.0 L 147.916992188 -714.0 L 149.25 -696.0 L 149.916992188 -677.333007812 L 152.083007812 -663.833007812 L 155.75 -655.5 L 159.416992188 -647.166992188 L 164.25 -638.666992188 L 170.25 -630.0 L 176.25 -621.333007812 L 183.75 -613.5 L 192.75 -606.5 L 201.75 -599.5 L 215.583007812 -594.666992188 L 234.25 -592.0 L 252.916992188 -589.333007812 L 271.25 -587.0 L 289.25 -585.0 L 297.25 -583.666992188 L 302.25 -580.333007812 L 304.25 -575.0 L 306.25 -569.666992188 L 303.25 -564.666992188 Z M 830.25 -498.0 L 855.583007812 -507.333007812 L 898.583007812 -506.666992188 L 959.25 -496.0 L 994.583007812 -487.333007812 L 1025.75 -475.666992188 L 1052.75 -461.0 L 1079.75 -446.333007812 L 1100.58300781 -420.666992188 L 1115.25 -384.0 L 1125.25 -348.666992188 L 1128.58300781 -320.5 L 1125.25 -299.5 L 1121.91699219 -278.5 L 1110.25 -254.0 L 1090.25 -226.0 L 1070.91699219 -202.666992188 L 1048.41699219 -185.166992188 L 1022.75 -173.5 L 997.083007812 -161.833007812 L 965.583007812 -152.0 L 928.25 -144.0 L 890.916992188 -136.666992188 L 860.583007812 -133.166992188 L 837.25 -133.5 L 813.916992188 -133.833007812 L 788.583007812 -134.333007812 L 761.25 -135.0 L 734.583007812 -136.333007812 L 709.75 -138.5 L 686.75 -141.5 L 663.75 -144.5 L 635.916992188 -151.0 L 603.25 -161.0 L 549.25 -175.666992188 L 495.916992188 -196.0 L 443.25 -222.0 L 413.916992188 -236.666992188 L 382.75 -252.5 L 349.75 -269.5 L 316.75 -286.5 L 279.916992188 -306.666992188 L 239.25 -330.0 L 220.583007812 -341.333007812 L 200.083007812 -353.5 L 177.75 -366.5 L 155.416992188 -379.5 L 131.583007812 -392.666992188 L 106.25 -406.0 L 86.9169921875 -418.0 L 67.75 -430.0 L 48.75 -442.0 L 29.75 -454.0 L 21.75 -466.166992188 L 24.75 -478.5 L 27.75 -490.833007812 L 34.9169921875 -496.666992188 L 46.25 -496.0 L 57.5830078125 -495.333007812 L 93.25 -495.666992188 L 153.25 -497.0 L 213.25 -498.333007812 L 265.916992188 -498.666992188 L 311.25 -498.0 L 329.25 -484.666992188 L 329.083007812 -475.166992188 L 310.75 -469.5 L 292.416992188 -463.833007812 L 278.583007812 -456.666992188 L 269.25 -448.0 L 252.583007812 -430.666992188 L 245.25 -416.833007812 L 247.25 -406.5 L 249.25 -396.166992188 L 252.083007812 -388.166992188 L 255.75 -382.5 L 259.416992188 -376.833007812 L 264.916992188 -370.833007812 L 272.25 -364.5 L 279.583007812 -358.166992188 L 297.583007812 -345.0 L 326.25 -325.0 L 354.916992188 -305.0 L 390.916992188 -284.0 L 434.25 -262.0 L 472.916992188 -245.333007812 L 503.25 -231.666992188 L 525.25 -221.0 L 547.25 -210.333007812 L 582.916992188 -198.333007812 L 632.25 -185.0 L 668.916992188 -177.666992188 L 706.25 -173.166992188 L 744.25 -171.5 L 782.25 -169.833007812 L 820.916992188 -175.333007812 L 860.25 -188.0 L 887.583007812 -200.0 L 906.75 -210.333007812 L 917.75 -219.0 L 928.75 -227.666992188 L 941.25 -242.333007812 L 955.25 -263.0 L 967.25 -283.0 L 974.083007812 -300.0 L 975.75 -314.0 L 977.416992188 -328.0 L 977.583007812 -344.0 L 976.25 -362.0 L 975.583007812 -380.666992188 L 973.416992188 -394.166992188 L 969.75 -402.5 L 966.083007812 -410.833007812 L 961.416992188 -419.333007812 L 955.75 -428.0 L 950.083007812 -436.666992188 L 942.75 -444.5 L 933.75 -451.5 L 924.75 -458.5 L 910.916992188 -463.333007812 L 892.25 -466.0 L 873.583007812 -468.666992188 L 855.25 -471.0 L 837.25 -473.0 L 829.25 -474.333007812 L 824.083007812 -477.666992188 L 821.75 -483.0 L 819.416992188 -488.333007812 L 822.25 -493.333007812 Z" fill="black" fill-opacity="0.25" stroke="black" stroke-width="4.0"/>
  <rect x="12.0" y="-1373.0" width="992.9999999999999" height="494.0" fill="none" stroke="red" stroke-width="10.0" /><rect x="-2.0" y="-925.0" width="1106.0" height="374.0" fill="none" stroke="red" stroke-width="10.0" /><rect x="22.0" y="-507.0" width="1107.0" height="374.0" fill="none" stroke="red" stroke-width="10.0" />
</svg>
