<svg xmlns="http://www.w3.org/2000/svg"
  viewBox="-50 -1320 1202.364 1236.522">
  <rect x="-50" y="-1320" width="1202.364" height="1236.522" fill="white"/>
  <path d="M 425.113 -667 L 447.78 -667 L 471.447 -666.667 L 496.113 -666 L 520.78 -665.333 L 543.447 -663.667 L 564.113 -661 L 578.113 -661 L 593.613 -636 L 610.613 -586 L 627.613 -536 L 647.78 -492 L 671.113 -454 L 679.113 -441.333 L 686.447 -434 L 693.113 -432 L 699.113 -430 L 703.78 -426.833 L 707.113 -422.5 L 710.447 -418.167 L 707.113 -414.333 L 697.113 -411 L 673.78 -407 L 650.447 -405.333 L 627.113 -406 L 603.78 -406.667 L 581.113 -408.333 L 559.113 -411 L 538.447 -418.333 L 521.78 -441.667 L 509.113 -481 L 496.447 -520.333 L 478.113 -566.333 L 454.113 -619 L 452.113 -621.667 L 448.113 -625.5 L 442.113 -630.5 L 436.113 -635.5 L 429.113 -639 L 421.113 -641 L 410.447 -642.333 L 404.447 -647 L 403.113 -655 L 401.78 -663 L 409.113 -667 Z M 806.113 -498 L 831.447 -507.333 L 874.447 -506.667 L 935.113 -496 L 970.447 -486.667 L 1001.613 -474.833 L 1028.613 -460.5 L 1055.613 -446.167 L 1076.447 -420.667 L 1091.113 -384 L 1101.113 -348.667 L 1104.447 -320.333 L 1101.113 -299 L 1097.78 -277.667 L 1086.113 -253.333 L 1066.113 -226 L 1046.78 -202.667 L 1024.28 -185.167 L 998.613 -173.5 L 972.947 -161.833 L 941.447 -152 L 904.113 -144 L 866.78 -136.667 L 836.447 -133.167 L 813.113 -133.5 L 789.78 -133.833 L 764.447 -134.333 L 737.113 -135 L 710.447 -136.333 L 685.613 -138.5 L 662.613 -141.5 L 639.613 -144.5 L 611.78 -151 L 579.113 -161 L 525.113 -175.667 L 471.78 -196 L 419.113 -222 L 389.78 -236.667 L 358.613 -252.5 L 325.613 -269.5 L 292.613 -286.5 L 255.78 -306.667 L 215.113 -330 L 196.447 -341.333 L 175.947 -353.5 L 153.613 -366.5 L 131.28 -379.5 L 107.447 -392.667 L 82.113 -406 L 62.78 -418 L 43.613 -430.167 L 24.613 -442.5 L 5.613 -454.833 L -2.387 -467.167 L 0.613 -479.5 L 3.613 -491.833 L 10.78 -497.667 L 22.113 -497 L 33.447 -496.333 L 69.113 -496.5 L 129.113 -497.5 L 189.113 -498.5 L 241.78 -498.667 L 287.113 -498 L 305.113 -484.667 L 304.947 -475.167 L 286.613 -469.5 L 268.28 -463.833 L 254.447 -456.667 L 245.113 -448 L 228.447 -430.667 L 221.113 -416.833 L 223.113 -406.5 L 225.113 -396.167 L 227.947 -388.167 L 231.613 -382.5 L 235.28 -376.833 L 240.78 -370.833 L 248.113 -364.5 L 255.447 -358.167 L 273.447 -345 L 302.113 -325 L 330.78 -305 L 366.78 -284 L 410.113 -262 L 448.78 -245.333 L 479.113 -231.667 L 501.113 -221 L 523.113 -210.333 L 558.78 -198.333 L 608.113 -185 L 644.78 -177.667 L 682.113 -173.167 L 720.113 -171.5 L 758.113 -169.833 L 796.78 -175.333 L 836.113 -188 L 863.447 -200 L 882.613 -210.333 L 893.613 -219 L 904.613 -227.667 L 917.113 -242.333 L 931.113 -263 L 943.113 -283 L 949.947 -300 L 951.613 -314 L 953.28 -328 L 953.447 -344 L 952.113 -362 L 951.447 -380.667 L 949.28 -394.167 L 945.613 -402.5 L 941.947 -410.833 L 937.28 -419.333 L 931.613 -428 L 925.947 -436.667 L 918.613 -444.5 L 909.613 -451.5 L 900.613 -458.5 L 886.78 -463.333 L 868.113 -466 L 849.447 -468.667 L 831.113 -471 L 813.113 -473 L 805.113 -474.333 L 799.947 -477.667 L 797.613 -483 L 795.28 -488.333 L 798.113 -493.333 Z M 892.113 -1270 L 902.113 -1268.667 L 906.447 -1264 L 905.113 -1256 L 903.78 -1248 L 897.447 -1243.667 L 886.113 -1243 L 873.447 -1239 L 863.113 -1224.167 L 855.113 -1198.5 L 847.113 -1172.833 L 838.78 -1145.667 L 830.113 -1117 L 809.447 -1049.667 L 790.28 -995.167 L 772.613 -953.5 L 754.947 -911.833 L 738.447 -882.833 L 723.113 -866.5 L 707.78 -850.167 L 689.447 -837.667 L 668.113 -829 L 634.78 -815.667 L 601.78 -805.833 L 569.113 -799.5 L 536.447 -793.167 L 508.447 -790 L 485.113 -790 L 497.113 -764 L 516.78 -746.167 L 544.113 -736.5 L 571.447 -726.833 L 579.447 -716.333 L 568.113 -705 L 561.447 -699 L 540.113 -707.333 L 504.113 -730 L 468.113 -752.667 L 443.447 -775 L 430.113 -797 L 430.113 -811 L 436.447 -816.833 L 449.113 -814.5 L 461.78 -812.167 L 475.113 -810.333 L 489.113 -809 L 503.78 -808.333 L 518.613 -809.167 L 533.613 -811.5 L 548.613 -813.833 L 568.78 -820.667 L 594.113 -832 L 606.78 -838 L 618.447 -851 L 629.113 -871 L 639.78 -891 L 649.613 -913.167 L 658.613 -937.5 L 667.613 -961.833 L 675.28 -985.833 L 681.613 -1009.5 L 687.947 -1033.167 L 695.947 -1067.5 L 705.613 -1112.5 L 715.28 -1157.5 L 723.78 -1187.667 L 731.113 -1203 L 738.447 -1218.333 L 748.78 -1230.667 L 762.113 -1240 L 775.447 -1249.333 L 788.113 -1255.333 L 800.113 -1258 L 812.113 -1260.667 L 825.613 -1262.833 L 840.613 -1264.5 L 855.613 -1266.167 L 872.78 -1268 Z" fill="black" fill-opacity="0.25" stroke="black" stroke-width="4"/>
  <rect x="402" y="-667" width="308" height="262" fill="none" stroke="red" stroke-width="10" /><rect x="-2" y="-507" width="1106" height="374" fill="none" stroke="red" stroke-width="10" /><rect x="430.1" y="-892.1" width="313.6" height="189" fill="none" stroke="red" stroke-width="10" /><rect x="640.3" y="-1081" width="178.8" height="188.9" fill="none" stroke="red" stroke-width="10" /><rect x="698.9" y="-1270" width="207.5" height="189" fill="none" stroke="red" stroke-width="10" />
</svg>
