<svg xmlns="http://www.w3.org/2000/svg"
  viewBox="-50.00035511363637 -879.0 1202.3639110214062 795.5216985344719">
  <rect x="-50.00035511363637" y="-879.0" width="1202.3639110214062" height="795.5216985344719" fill="white"/>
  <path d="M 806.11328125 -498.0 L 831.447265625 -507.333007812 L 874.447265625 -506.666992188 L 935.11328125 -496.0 L 970.447265625 -486.666992188 L 1001.61328125 -474.833007812 L 1028.61328125 -460.5 L 1055.61328125 -446.166992188 L 1076.44726562 -420.666992188 L 1091.11328125 -384.0 L 1101.11328125 -348.666992188 L 1104.44726562 -320.333007812 L 1101.11328125 -299.0 L 1097.78027344 -277.666992188 L 1086.11328125 -253.333007812 L 1066.11328125 -226.0 L 1046.78027344 -202.666992188 L 1024.28027344 -185.166992188 L 998.61328125 -173.5 L 972.947265625 -161.833007812 L 941.11328125 -152.0 L 903.11328125 -144.0 L 865.780273438 -136.666992188 L 835.447265625 -133.166992188 L 812.11328125 -133.5 L 788.780273438 -133.833007812 L 763.780273438 -134.333007812 L 737.11328125 -135.0 L 710.447265625 -136.333007812 L 685.61328125 -138.5 L 662.61328125 -141.5 L 639.61328125 -144.5 L 611.780273438 -151.0 L 579.11328125 -161.0 L 525.11328125 -175.666992188 L 471.780273438 -196.0 L 419.11328125 -222.0 L 389.780273438 -236.666992188 L 358.447265625 -252.5 L 325.11328125 -269.5 L 291.780273438 -286.5 L 254.780273438 -306.666992188 L 214.11328125 -330.0 L 195.447265625 -341.333007812 L 175.11328125 -353.5 L 153.11328125 -366.5 L 131.11328125 -379.5 L 107.447265625 -392.666992188 L 82.11328125 -406.0 L 62.7802734375 -418.0 L 43.61328125 -430.166992188 L 24.61328125 -442.5 L 5.61328125 -454.833007812 L -2.38671875 -467.166992188 L 0.61328125 -479.5 L 3.61328125 -491.833007812 L 10.7802734375 -497.666992188 L 22.11328125 -497.0 L 33.447265625 -496.333007812 L 69.11328125 -496.5 L 129.11328125 -497.5 L 189.11328125 -498.5 L 241.780273438 -498.666992188 L 287.11328125 -498.0 L 305.11328125 -484.666992188 L 304.780273438 -475.166992188 L 286.11328125 -469.5 L 267.447265625 -463.833007812 L 253.780273438 -456.666992188 L 245.11328125 -448.0 L 228.447265625 -430.666992188 L 221.11328125 -416.833007812 L 223.11328125 -406.5 L 225.11328125 -396.166992188 L 227.780273438 -388.166992188 L 231.11328125 -382.5 L 234.447265625 -376.833007812 L 239.780273438 -370.833007812 L 247.11328125 -364.5 L 254.447265625 -358.166992188 L 272.61328125 -345.0 L 301.61328125 -325.0 L 330.61328125 -305.0 L 366.780273438 -284.0 L 410.11328125 -262.0 L 448.780273438 -245.333007812 L 479.11328125 -231.666992188 L 501.11328125 -221.0 L 523.11328125 -210.333007812 L 558.780273438 -198.333007812 L 608.11328125 -185.0 L 644.780273438 -177.666992188 L 682.11328125 -173.166992188 L 720.11328125 -171.5 L 758.11328125 -169.833007812 L 796.780273438 -175.333007812 L 836.11328125 -188.0 L 863.447265625 -200.0 L 882.61328125 -210.333007812 L 893.61328125 -219.0 L 904.61328125 -227.666992188 L 917.11328125 -242.333007812 L 931.11328125 -263.0 L 943.11328125 -283.0 L 949.947265625 -300.0 L 951.61328125 -314.0 L 953.280273438 -328.0 L 953.447265625 -344.0 L 952.11328125 -362.0 L 951.447265625 -380.666992188 L 949.280273438 -394.166992188 L 945.61328125 -402.5 L 941.947265625 -410.833007812 L 937.11328125 -419.333007812 L 931.11328125 -428.0 L 925.11328125 -436.666992188 L 917.780273438 -444.5 L 909.11328125 -451.5 L 900.447265625 -458.5 L 886.780273438 -463.333007812 L 868.11328125 -466.0 L 849.447265625 -468.666992188 L 831.11328125 -471.0 L 813.11328125 -473.0 L 805.11328125 -474.333007812 L 799.947265625 -477.666992188 L 797.61328125 -483.0 L 795.280273438 -488.333007812 L 798.11328125 -493.333007812 Z M 374.11328125 -829.0 L 396.780273438 -829.0 L 420.61328125 -828.666992188 L 445.61328125 -828.0 L 470.61328125 -827.333007812 L 493.447265625 -825.333007812 L 514.11328125 -822.0 L 528.11328125 -822.0 L 543.61328125 -794.5 L 560.61328125 -739.5 L 577.61328125 -684.5 L 597.780273438 -636.333007812 L 621.11328125 -595.0 L 628.447265625 -581.0 L 635.780273438 -573.0 L 643.11328125 -571.0 L 649.11328125 -569.0 L 653.780273438 -565.5 L 657.11328125 -560.5 L 660.447265625 -555.5 L 657.11328125 -551.0 L 647.11328125 -547.0 L 623.780273438 -543.0 L 600.280273438 -541.333007812 L 576.61328125 -542.0 L 552.947265625 -542.666992188 L 530.447265625 -544.333007812 L 509.11328125 -547.0 L 489.11328125 -555.0 L 472.61328125 -580.666992188 L 459.61328125 -624.0 L 446.61328125 -667.333007812 L 428.11328125 -717.666992188 L 404.11328125 -775.0 L 402.11328125 -778.333007812 L 398.11328125 -782.833007812 L 392.11328125 -788.5 L 386.11328125 -794.166992188 L 379.11328125 -798.0 L 371.11328125 -800.0 L 360.447265625 -802.0 L 354.280273438 -807.166992188 L 352.61328125 -815.5 L 350.947265625 -823.833007812 L 358.11328125 -828.333007812 Z" fill="black" fill-opacity="0.25" stroke="black" stroke-width="4.0"/>
  <rect x="-2.0" y="-507.0" width="1106.0" height="374.0" fill="none" stroke="red" stroke-width="10.0" /><rect x="351.0" y="-829.0" width="309.00000000000006" height="287.99999999999994" fill="none" stroke="red" stroke-width="10.0" />
</svg>
