<svg xmlns="http://www.w3.org/2000/svg"
  viewBox="-50.00035511363637 -1275.0 1288.3360407939933 1191.5216985344719">
  <rect x="-50.00035511363637" y="-1275.0" width="1288.3360407939933" height="1191.5216985344719" fill="white"/>
  <path d="M 806.11328125 -498.0 L 831.447265625 -507.333007812 L 874.447265625 -506.666992188 L 935.11328125 -496.0 L 970.447265625 -486.666992188 L 1001.61328125 -474.833007812 L 1028.61328125 -460.5 L 1055.61328125 -446.166992188 L 1076.44726562 -420.666992188 L 1091.11328125 -384.0 L 1101.11328125 -348.666992188 L 1104.44726562 -320.333007812 L 1101.11328125 -299.0 L 1097.78027344 -277.666992188 L 1086.11328125 -253.333007812 L 1066.11328125 -226.0 L 1046.78027344 -202.666992188 L 1024.28027344 -185.166992188 L 998.61328125 -173.5 L 972.947265625 -161.833007812 L 941.447265625 -152.0 L 904.11328125 -144.0 L 866.780273438 -136.666992188 L 836.447265625 -133.166992188 L 813.11328125 -133.5 L 789.780273438 -133.833007812 L 764.447265625 -134.333007812 L 737.11328125 -135.0 L 710.447265625 -136.333007812 L 685.61328125 -138.5 L 662.61328125 -141.5 L 639.61328125 -144.5 L 611.780273438 -151.0 L 579.11328125 -161.0 L 525.11328125 -175.666992188 L 471.780273438 -196.0 L 419.11328125 -222.0 L 389.780273438 -236.666992188 L 358.61328125 -252.5 L 325.61328125 -269.5 L 292.61328125 -286.5 L 255.780273438 -306.666992188 L 215.11328125 -330.0 L 196.447265625 -341.333007812 L 175.947265625 -353.5 L 153.61328125 -366.5 L 131.280273438 -379.5 L 107.447265625 -392.666992188 L 82.11328125 -406.0 L 62.7802734375 -418.0 L 43.61328125 -430.166992188 L 24.61328125 -442.5 L 5.61328125 -454.833007812 L -2.38671875 -467.166992188 L 0.61328125 -479.5 L 3.61328125 -491.833007812 L 10.7802734375 -497.666992188 L 22.11328125 -497.0 L 33.447265625 -496.333007812 L 69.11328125 -496.5 L 129.11328125 -497.5 L 189.11328125 -498.5 L 241.780273438 -498.666992188 L 287.11328125 -498.0 L 305.11328125 -484.666992188 L 304.947265625 -475.166992188 L 286.61328125 -469.5 L 268.280273438 -463.833007812 L 254.447265625 -456.666992188 L 245.11328125 -448.0 L 228.447265625 -430.666992188 L 221.11328125 -416.833007812 L 223.11328125 -406.5 L 225.11328125 -396.166992188 L 227.947265625 -388.166992188 L 231.61328125 -382.5 L 235.280273438 -376.833007812 L 240.780273438 -370.833007812 L 248.11328125 -364.5 L 255.447265625 -358.166992188 L 273.447265625 -345.0 L 302.11328125 -325.0 L 330.780273438 -305.0 L 366.780273438 -284.0 L 410.11328125 -262.0 L 448.780273438 -245.333007812 L 479.11328125 -231.666992188 L 501.11328125 -221.0 L 523.11328125 -210.333007812 L 558.780273438 -198.333007812 L 608.11328125 -185.0 L 644.780273438 -177.666992188 L 682.11328125 -173.166992188 L 720.11328125 -171.5 L 758.11328125 -169.833007812 L 796.780273438 -175.333007812 L 836.11328125 -188.0 L 863.447265625 -200.0 L 882.61328125 -210.333007812 L 893.61328125 -219.0 L 904.61328125 -227.666992188 L 917.11328125 -242.333007812 L 931.11328125 -263.0 L 943.11328125 -283.0 L 949.947265625 -300.0 L 951.61328125 -314.0 L 953.280273438 -328.0 L 953.447265625 -344.0 L 952.11328125 -362.0 L 951.447265625 -380.666992188 L 949.280273438 -394.166992188 L 945.61328125 -402.5 L 941.947265625 -410.833007812 L 937.280273438 -419.333007812 L 931.61328125 -428.0 L 925.947265625 -436.666992188 L 918.61328125 -444.5 L 909.61328125 -451.5 L 900.61328125 -458.5 L 886.780273438 -463.333007812 L 868.11328125 -466.0 L 849.447265625 -468.666992188 L 831.11328125 -471.0 L 813.11328125 -473.0 L 805.11328125 -474.333007812 L 799.947265625 -477.666992188 L 797.61328125 -483.0 L 795.280273438 -488.333007812 L 798.11328125 -493.333007812 Z M 1174.11328125 -1225.0 L 1184.78027344 -1223.0 L 1189.44726562 -1217.83300781 L 1188.11328125 -1209.5 L 1186.78027344 -1201.16699219 L 1180.11328125 -1196.33300781 L 1168.11328125 -1195.0 L 1154.78027344 -1190.33300781 L 1144.11328125 -1173.5 L 1136.11328125 -1144.5 L 1128.11328125 -1115.5 L 1119.44726562 -1085.0 L 1110.11328125 -1053.0 L 1088.78027344 -977.0 L 1069.11328125 -915.333007812 L 1051.11328125 -868.0 L 1033.11328125 -820.666992188 L 1016.11328125 -787.666992188 L 1000.11328125 -769.0 L 984.11328125 -750.333007812 L 965.11328125 -736.0 L 943.11328125 -726.0 L 908.447265625 -711.333007812 L 874.447265625 -700.333007812 L 841.11328125 -693.0 L 807.780273438 -685.666992188 L 778.780273438 -682.0 L 754.11328125 -682.0 L 766.780273438 -653.333007812 L 787.280273438 -633.5 L 815.61328125 -622.5 L 843.947265625 -611.5 L 852.11328125 -599.666992188 L 840.11328125 -587.0 L 832.780273438 -579.666992188 L 810.61328125 -588.833007812 L 773.61328125 -614.5 L 736.61328125 -640.166992188 L 711.11328125 -665.333007812 L 697.11328125 -690.0 L 697.11328125 -705.333007812 L 703.61328125 -711.833007812 L 716.61328125 -709.5 L 729.61328125 -707.166992188 L 743.780273438 -705.333007812 L 759.11328125 -704.0 L 773.780273438 -703.333007812 L 788.780273438 -704.333007812 L 804.11328125 -707.0 L 819.447265625 -709.666992188 L 840.11328125 -717.666992188 L 866.11328125 -731.0 L 879.447265625 -737.666992188 L 891.780273438 -752.166992188 L 903.11328125 -774.5 L 914.447265625 -796.833007812 L 924.61328125 -821.666992188 L 933.61328125 -849.0 L 942.61328125 -876.333007812 L 950.447265625 -903.5 L 957.11328125 -930.5 L 963.780273438 -957.5 L 972.11328125 -996.5 L 982.11328125 -1047.5 L 992.11328125 -1098.5 L 1000.94726562 -1132.66699219 L 1008.61328125 -1150.0 L 1016.28027344 -1167.33300781 L 1026.94726562 -1181.33300781 L 1040.61328125 -1192.0 L 1054.28027344 -1202.66699219 L 1067.28027344 -1209.5 L 1079.61328125 -1212.5 L 1091.94726562 -1215.5 L 1105.78027344 -1217.66699219 L 1121.11328125 -1219.0 L 1136.44726562 -1220.33300781 L 1154.11328125 -1222.33300781 Z M 573.11328125 -1225.0 L 583.780273438 -1223.0 L 588.447265625 -1217.83300781 L 587.11328125 -1209.5 L 585.780273438 -1201.16699219 L 579.447265625 -1196.33300781 L 568.11328125 -1195.0 L 554.780273438 -1190.33300781 L 543.947265625 -1173.5 L 535.61328125 -1144.5 L 527.280273438 -1115.5 L 518.447265625 -1085.0 L 509.11328125 -1053.0 L 487.780273438 -977.0 L 468.280273438 -915.333007812 L 450.61328125 -868.0 L 432.947265625 -820.666992188 L 416.11328125 -787.666992188 L 400.11328125 -769.0 L 384.11328125 -750.333007812 L 364.780273438 -736.0 L 342.11328125 -726.0 L 307.447265625 -711.333007812 L 273.447265625 -700.333007812 L 240.11328125 -693.0 L 206.780273438 -685.666992188 L 177.780273438 -682.0 L 153.11328125 -682.0 L 165.780273438 -653.333007812 L 186.280273438 -633.5 L 214.61328125 -622.5 L 242.947265625 -611.5 L 251.11328125 -599.666992188 L 239.11328125 -587.0 L 231.780273438 -579.666992188 L 209.61328125 -588.833007812 L 172.61328125 -614.5 L 135.61328125 -640.166992188 L 110.447265625 -665.333007812 L 97.11328125 -690.0 L 97.11328125 -705.333007812 L 103.447265625 -711.833007812 L 116.11328125 -709.5 L 128.780273438 -707.166992188 L 142.780273438 -705.333007812 L 158.11328125 -704.0 L 172.780273438 -703.333007812 L 187.947265625 -704.333007812 L 203.61328125 -707.0 L 219.280273438 -709.666992188 L 240.11328125 -717.666992188 L 266.11328125 -731.0 L 279.447265625 -737.666992188 L 291.61328125 -752.166992188 L 302.61328125 -774.5 L 313.61328125 -796.833007812 L 323.780273438 -821.666992188 L 333.11328125 -849.0 L 342.447265625 -876.333007812 L 350.280273438 -903.5 L 356.61328125 -930.5 L 362.947265625 -957.5 L 371.280273438 -996.5 L 381.61328125 -1047.5 L 391.947265625 -1098.5 L 400.780273438 -1132.66699219 L 408.11328125 -1150.0 L 415.447265625 -1167.33300781 L 425.947265625 -1181.33300781 L 439.61328125 -1192.0 L 453.280273438 -1202.66699219 L 466.447265625 -1209.5 L 479.11328125 -1212.5 L 491.780273438 -1215.5 L 505.61328125 -1217.66699219 L 520.61328125 -1219.0 L 535.61328125 -1220.33300781 L 553.11328125 -1222.33300781 Z" fill="black" fill-opacity="0.25" stroke="black" stroke-width="4.0"/>
  <rect x="-2.0" y="-507.0" width="1106.0" height="374.0" fill="none" stroke="red" stroke-width="10.0" /><rect x="697.1" y="-798.0" width="324.40000000000003" height="213.40000000000003" fill="none" stroke="red" stroke-width="10.0" /><rect x="914.9000000000001" y="-1011.5000000000001" width="183.6" height="213.50000000000003" fill="none" stroke="red" stroke-width="10.0" /><rect x="975.1" y="-1225.0" width="214.30000000000004" height="213.50000000000003" fill="none" stroke="red" stroke-width="10.0" /><rect x="97.10000000000001" y="-798.0" width="324.29999999999995" height="213.40000000000003" fill="none" stroke="red" stroke-width="10.0" /><rect x="314.09999999999997" y="-1011.5000000000001" width="183.4" height="213.50000000000003" fill="none" stroke="red" stroke-width="10.0" /><rect x="374.3" y="-1225.0" width="214.10000000000002" height="213.50000000000003" fill="none" stroke="red" stroke-width="10.0" />
</svg>
