<svg xmlns="http://www.w3.org/2000/svg"
  viewBox="-50 -554.533 1202.364 471.055">
  <rect x="-50" y="-554.533" width="1202.364" height="471.055" fill="white"/>
  <path d="M 806.113 -498 L 831.447 -507.333 L 874.447 -506.667 L 935.113 -496 L 970.447 -486.667 L 1001.613 -474.833 L 1028.613 -460.5 L 1055.613 -446.167 L 1076.447 -420.667 L 1091.113 -384 L 1101.113 -348.667 L 1104.447 -320.333 L 1101.113 -299 L 1097.78 -277.667 L 1086.113 -253.333 L 1066.113 -226 L 1046.78 -202.667 L 1024.28 -185.167 L 998.613 -173.5 L 972.947 -161.833 L 941.113 -152 L 903.113 -144 L 865.78 -136.667 L 835.447 -133.167 L 812.113 -133.5 L 788.78 -133.833 L 763.78 -134.333 L 737.113 -135 L 710.447 -136.333 L 685.613 -138.5 L 662.613 -141.5 L 639.613 -144.5 L 611.78 -151 L 579.113 -161 L 525.113 -175.667 L 471.78 -196 L 419.113 -222 L 389.78 -236.667 L 358.447 -252.5 L 325.113 -269.5 L 291.78 -286.5 L 254.78 -306.667 L 214.113 -330 L 195.447 -341.333 L 175.113 -353.5 L 153.113 -366.5 L 131.113 -379.5 L 107.447 -392.667 L 82.113 -406 L 62.78 -418 L 43.613 -430.167 L 24.613 -442.5 L 5.613 -454.833 L -2.387 -467.167 L 0.613 -479.5 L 3.613 -491.833 L 10.78 -497.667 L 22.113 -497 L 33.447 -496.333 L 69.113 -496.5 L 129.113 -497.5 L 189.113 -498.5 L 241.78 -498.667 L 287.113 -498 L 305.113 -484.667 L 304.78 -475.167 L 286.113 -469.5 L 267.447 -463.833 L 253.78 -456.667 L 245.113 -448 L 228.447 -430.667 L 221.113 -416.833 L 223.113 -406.5 L 225.113 -396.167 L 227.78 -388.167 L 231.113 -382.5 L 234.447 -376.833 L 239.78 -370.833 L 247.113 -364.5 L 254.447 -358.167 L 272.613 -345 L 301.613 -325 L 330.613 -305 L 366.78 -284 L 410.113 -262 L 448.78 -245.333 L 479.113 -231.667 L 501.113 -221 L 523.113 -210.333 L 558.78 -198.333 L 608.113 -185 L 644.78 -177.667 L 682.113 -173.167 L 720.113 -171.5 L 758.113 -169.833 L 796.78 -175.333 L 836.113 -188 L 863.447 -200 L 882.613 -210.333 L 893.613 -219 L 904.613 -227.667 L 917.113 -242.333 L 931.113 -263 L 943.113 -283 L 949.947 -300 L 951.613 -314 L 953.28 -328 L 953.447 -344 L 952.113 -362 L 951.447 -380.667 L 949.28 -394.167 L 945.613 -402.5 L 941.947 -410.833 L 937.113 -419.333 L 931.113 -428 L 925.113 -436.667 L 917.78 -444.5 L 909.113 -451.5 L 900.447 -458.5 L 886.78 -463.333 L 868.113 -466 L 849.447 -468.667 L 831.113 -471 L 813.113 -473 L 805.113 -474.333 L 799.947 -477.667 L 797.613 -483 L 795.28 -488.333 L 798.113 -493.333 Z" fill="black" fill-opacity="0.25" stroke="black" stroke-width="4"/>
  <rect x="-2" y="-507" width="1106" height="374" fill="none" stroke="red" stroke-width="10" />
</svg>
