<svg xmlns="http://www.w3.org/2000/svg"
  viewBox="-50.00035511363637 -861.0 1202.3639110214062 777.5216985344719">
  <rect x="-50.00035511363637" y="-861.0" width="1202.3639110214062" height="777.5216985344719" fill="white"/>
  <path d="M 459.11328125 -463.0 L 451.780273438 -469.0 L 451.447265625 -474.5 L 458.11328125 -479.5 L 464.780273438 -484.5 L 473.11328125 -487.0 L 483.11328125 -487.0 L 493.780273438 -487.0 L 508.947265625 -496.666992188 L 528.61328125 -516.0 L 548.280273438 -535.333007812 L 561.11328125 -559.666992188 L 567.11328125 -589.0 L 577.11328125 -638.333007812 L 551.447265625 -678.0 L 490.11328125 -708.0 L 466.780273438 -719.333007812 L 437.447265625 -729.5 L 402.11328125 -738.5 L 366.780273438 -747.5 L 331.780273438 -755.333007812 L 297.11328125 -762.0 L 262.447265625 -768.666992188 L 231.947265625 -774.0 L 205.61328125 -778.0 L 179.280273438 -782.0 L 163.780273438 -785.0 L 159.11328125 -787.0 L 149.780273438 -790.333007812 L 146.280273438 -795.166992188 L 148.61328125 -801.5 L 150.947265625 -807.833007812 L 156.11328125 -811.0 L 164.11328125 -811.0 L 167.447265625 -811.0 L 182.11328125 -809.5 L 208.11328125 -806.5 L 234.11328125 -803.5 L 265.11328125 -798.833007812 L 301.11328125 -792.5 L 337.11328125 -786.166992188 L 375.447265625 -778.333007812 L 416.11328125 -769.0 L 456.780273438 -759.666992188 L 493.447265625 -748.666992188 L 526.11328125 -736.0 L 565.447265625 -720.666992188 L 596.780273438 -705.166992188 L 620.11328125 -689.5 L 643.447265625 -673.833007812 L 664.780273438 -653.333007812 L 684.11328125 -628.0 L 703.447265625 -601.333007812 L 711.61328125 -575.0 L 708.61328125 -549.0 L 705.61328125 -523.0 L 694.447265625 -503.0 L 675.11328125 -489.0 L 657.780273438 -475.666992188 L 637.447265625 -466.666992188 L 614.11328125 -462.0 L 590.780273438 -457.333007812 L 568.780273438 -455.0 L 548.11328125 -455.0 L 526.780273438 -455.0 L 511.947265625 -455.166992188 L 503.61328125 -455.5 L 495.280273438 -455.833007812 L 480.447265625 -458.333007812 Z M 806.11328125 -498.0 L 831.447265625 -507.333007812 L 874.447265625 -506.666992188 L 935.11328125 -496.0 L 970.447265625 -486.666992188 L 1001.61328125 -474.833007812 L 1028.61328125 -460.5 L 1055.61328125 -446.166992188 L 1076.44726562 -420.666992188 L 1091.11328125 -384.0 L 1101.11328125 -348.666992188 L 1104.44726562 -320.333007812 L 1101.11328125 -299.0 L 1097.78027344 -277.666992188 L 1086.11328125 -253.333007812 L 1066.11328125 -226.0 L 1046.78027344 -202.666992188 L 1024.28027344 -185.166992188 L 998.61328125 -173.5 L 972.947265625 -161.833007812 L 941.447265625 -152.0 L 904.11328125 -144.0 L 866.780273438 -136.666992188 L 836.447265625 -133.166992188 L 813.11328125 -133.5 L 789.780273438 -133.833007812 L 764.447265625 -134.333007812 L 737.11328125 -135.0 L 710.447265625 -136.333007812 L 685.61328125 -138.5 L 662.61328125 -141.5 L 639.61328125 -144.5 L 611.780273438 -151.0 L 579.11328125 -161.0 L 525.11328125 -175.666992188 L 471.780273438 -196.0 L 419.11328125 -222.0 L 389.780273438 -236.666992188 L 358.61328125 -252.5 L 325.61328125 -269.5 L 292.61328125 -286.5 L 255.780273438 -306.666992188 L 215.11328125 -330.0 L 196.447265625 -341.333007812 L 175.947265625 -353.5 L 153.61328125 -366.5 L 131.280273438 -379.5 L 107.447265625 -392.666992188 L 82.11328125 -406.0 L 62.7802734375 -418.0 L 43.61328125 -430.166992188 L 24.61328125 -442.5 L 5.61328125 -454.833007812 L -2.38671875 -467.166992188 L 0.61328125 -479.5 L 3.61328125 -491.833007812 L 10.7802734375 -497.666992188 L 22.11328125 -497.0 L 33.447265625 -496.333007812 L 69.11328125 -496.5 L 129.11328125 -497.5 L 189.11328125 -498.5 L 241.780273438 -498.666992188 L 287.11328125 -498.0 L 305.11328125 -484.666992188 L 304.947265625 -475.166992188 L 286.61328125 -469.5 L 268.280273438 -463.833007812 L 254.447265625 -456.666992188 L 245.11328125 -448.0 L 228.447265625 -430.666992188 L 221.11328125 -416.833007812 L 223.11328125 -406.5 L 225.11328125 -396.166992188 L 227.947265625 -388.166992188 L 231.61328125 -382.5 L 235.280273438 -376.833007812 L 240.780273438 -370.833007812 L 248.11328125 -364.5 L 255.447265625 -358.166992188 L 273.447265625 -345.0 L 302.11328125 -325.0 L 330.780273438 -305.0 L 366.780273438 -284.0 L 410.11328125 -262.0 L 448.780273438 -245.333007812 L 479.11328125 -231.666992188 L 501.11328125 -221.0 L 523.11328125 -210.333007812 L 558.780273438 -198.333007812 L 608.11328125 -185.0 L 644.780273438 -177.666992188 L 682.11328125 -173.166992188 L 720.11328125 -171.5 L 758.11328125 -169.833007812 L 796.780273438 -175.333007812 L 836.11328125 -188.0 L 863.447265625 -200.0 L 882.61328125 -210.333007812 L 893.61328125 -219.0 L 904.61328125 -227.666992188 L 917.11328125 -242.333007812 L 931.11328125 -263.0 L 943.11328125 -283.0 L 949.947265625 -300.0 L 951.61328125 -314.0 L 953.280273438 -328.0 L 953.447265625 -344.0 L 952.11328125 -362.0 L 951.447265625 -380.666992188 L 949.280273438 -394.166992188 L 945.61328125 -402.5 L 941.947265625 -410.833007812 L 937.280273438 -419.333007812 L 931.61328125 -428.0 L 925.947265625 -436.666992188 L 918.61328125 -444.5 L 909.61328125 -451.5 L 900.61328125 -458.5 L 886.780273438 -463.333007812 L 868.11328125 -466.0 L 849.447265625 -468.666992188 L 831.11328125 -471.0 L 813.11328125 -473.0 L 805.11328125 -474.333007812 L 799.947265625 -477.666992188 L 797.61328125 -483.0 L 795.280273438 -488.333007812 L 798.11328125 -493.333007812 Z" fill="black" fill-opacity="0.25" stroke="black" stroke-width="4.0"/>
  <rect x="146.0" y="-811.0" width="566.0" height="356.00000000000006" fill="none" stroke="red" stroke-width="10.0" /><rect x="-2.0" y="-507.0" width="1106.0" height="374.0" fill="none" stroke="red" stroke-width="10.0" />
</svg>
