<svg xmlns="http://www.w3.org/2000/svg"
  viewBox="-49.99996426429706 -906.0 1463.2090310866342 829.0">
  <rect x="-49.99996426429706" y="-906.0" width="1463.2090310866342" height="829.0" fill="white"/>
  <path d="M 1148.65722656 -541.0 L 1141.99023438 -545.666992188 L 1141.65722656 -550.166992188 L 1147.65722656 -554.5 L 1153.65722656 -558.833007812 L 1160.65722656 -561.0 L 1168.65722656 -561.0 L 1177.99023438 -561.0 L 1190.99023438 -569.5 L 1207.65722656 -586.5 L 1224.32421875 -603.5 L 1235.65722656 -624.333007812 L 1241.65722656 -649.0 L 1250.32421875 -690.333007812 L 1228.32421875 -724.333007812 L 1175.65722656 -751.0 L 1136.32421875 -770.333007812 L 1083.32421875 -785.166992188 L 1016.65722656 -795.5 L 949.990234375 -805.833007812 L 912.990234375 -812.666992188 L 905.657226562 -816.0 L 898.32421875 -818.666992188 L 895.490234375 -822.666992188 L 897.157226562 -828.0 L 898.82421875 -833.333007812 L 902.657226562 -836.0 L 908.657226562 -836.0 L 914.657226562 -836.0 L 951.657226562 -831.166992188 L 1019.65722656 -821.5 L 1087.65722656 -811.833007812 L 1149.65722656 -796.333007812 L 1205.65722656 -775.0 L 1238.99023438 -761.666992188 L 1265.82421875 -748.333007812 L 1286.15722656 -735.0 L 1306.49023438 -721.666992188 L 1324.99023438 -704.0 L 1341.65722656 -682.0 L 1358.32421875 -659.333007812 L 1365.32421875 -636.833007812 L 1362.65722656 -614.5 L 1359.99023438 -592.166992188 L 1350.32421875 -575.0 L 1333.65722656 -563.0 L 1318.32421875 -551.666992188 L 1300.82421875 -544.0 L 1281.15722656 -540.0 L 1261.49023438 -536.0 L 1242.65722656 -534.0 L 1224.65722656 -534.0 L 1206.65722656 -534.0 L 1193.99023438 -534.166992188 L 1186.65722656 -534.5 L 1179.32421875 -534.833007812 L 1166.65722656 -537.0 Z M 754.657226562 -459.0 L 777.990234375 -467.666992188 L 816.657226562 -467.0 L 870.657226562 -457.0 L 902.657226562 -449.0 L 930.990234375 -438.5 L 955.657226562 -425.5 L 980.32421875 -412.5 L 999.32421875 -389.0 L 1012.65722656 -355.0 L 1021.32421875 -323.0 L 1024.32421875 -297.5 L 1021.65722656 -278.5 L 1018.99023438 -259.5 L 1008.32421875 -237.333007812 L 989.657226562 -212.0 L 972.32421875 -191.333007812 L 951.990234375 -175.333007812 L 928.657226562 -164.0 L 905.32421875 -152.666992188 L 876.657226562 -143.666992188 L 842.657226562 -137.0 L 809.32421875 -130.333007812 L 781.990234375 -127.0 L 760.657226562 -127.0 L 739.32421875 -127.0 L 716.32421875 -127.666992188 L 691.657226562 -129.0 L 667.657226562 -129.666992188 L 645.157226562 -131.5 L 624.157226562 -134.5 L 603.157226562 -137.5 L 577.657226562 -143.666992188 L 547.657226562 -153.0 L 498.32421875 -167.0 L 449.990234375 -185.333007812 L 402.657226562 -208.0 L 375.32421875 -221.333007812 L 346.657226562 -235.666992188 L 316.657226562 -251.0 L 286.657226562 -266.333007812 L 253.32421875 -284.333007812 L 216.657226562 -305.0 L 199.32421875 -315.666992188 L 180.657226562 -326.833007812 L 160.657226562 -338.5 L 140.657226562 -350.166992188 L 118.990234375 -362.0 L 95.6572265625 -374.0 L 77.6572265625 -384.666992188 L 60.1572265625 -395.666992188 L 43.1572265625 -407.0 L 26.1572265625 -418.333007812 L 18.990234375 -429.666992188 L 21.6572265625 -441.0 L 24.32421875 -452.333007812 L 30.82421875 -457.666992188 L 41.1572265625 -457.0 L 51.490234375 -456.333007812 L 83.990234375 -456.666992188 L 138.657226562 -458.0 L 193.32421875 -459.333007812 L 240.990234375 -459.333007812 L 281.657226562 -458.0 L 297.657226562 -446.0 L 297.490234375 -437.5 L 281.157226562 -432.5 L 264.82421875 -427.5 L 252.32421875 -420.666992188 L 243.657226562 -412.0 L 228.990234375 -396.666992188 L 222.490234375 -384.5 L 224.157226562 -375.5 L 225.82421875 -366.5 L 228.157226562 -359.333007812 L 231.157226562 -354.0 L 234.157226562 -348.666992188 L 239.157226562 -343.0 L 246.157226562 -337.0 L 253.157226562 -331.0 L 269.82421875 -319.0 L 296.157226562 -301.0 L 322.490234375 -283.0 L 354.990234375 -264.0 L 393.657226562 -244.0 L 428.32421875 -228.666992188 L 455.82421875 -216.166992188 L 476.157226562 -206.5 L 496.490234375 -196.833007812 L 528.990234375 -186.0 L 573.657226562 -174.0 L 606.990234375 -168.0 L 640.990234375 -164.166992188 L 675.657226562 -162.5 L 710.32421875 -160.833007812 L 745.657226562 -165.666992188 L 781.657226562 -177.0 L 806.32421875 -188.333007812 L 823.657226562 -197.833007812 L 833.657226562 -205.5 L 843.657226562 -213.166992188 L 854.990234375 -226.333007812 L 867.657226562 -245.0 L 878.32421875 -263.666992188 L 884.490234375 -279.166992188 L 886.157226562 -291.5 L 887.82421875 -303.833007812 L 887.990234375 -318.333007812 L 886.657226562 -335.0 L 885.990234375 -351.666992188 L 883.990234375 -363.833007812 L 880.657226562 -371.5 L 877.32421875 -379.166992188 L 872.990234375 -387.0 L 867.657226562 -395.0 L 862.32421875 -403.0 L 855.657226562 -410.166992188 L 847.657226562 -416.5 L 839.657226562 -422.833007812 L 827.157226562 -427.333007812 L 810.157226562 -430.0 L 793.157226562 -432.666992188 L 776.657226562 -434.666992188 L 760.657226562 -436.0 L 753.32421875 -437.333007812 L 748.657226562 -440.5 L 746.657226562 -445.5 L 744.657226562 -450.5 L 747.32421875 -455.0 Z M 268.657226562 -525.0 L 245.32421875 -516.333007812 L 206.32421875 -516.666992188 L 151.657226562 -526.0 L 119.657226562 -534.0 L 91.32421875 -544.666992188 L 66.6572265625 -558.0 L 41.990234375 -571.333007812 L 22.990234375 -594.666992188 L 9.6572265625 -628.0 L 0.990234375 -660.0 L -1.8427734375 -685.666992188 L 1.1572265625 -705.0 L 4.1572265625 -724.333007812 L 14.6572265625 -746.333007812 L 32.6572265625 -771.0 L 49.990234375 -792.333007812 L 70.490234375 -808.5 L 94.1572265625 -819.5 L 117.82421875 -830.5 L 146.32421875 -839.333007812 L 179.657226562 -846.0 L 213.657226562 -852.666992188 L 241.32421875 -856.0 L 262.657226562 -856.0 L 283.990234375 -856.0 L 306.990234375 -855.333007812 L 331.657226562 -854.0 L 356.32421875 -853.333007812 L 378.990234375 -851.5 L 399.657226562 -848.5 L 420.32421875 -845.5 L 445.32421875 -839.333007812 L 474.657226562 -830.0 L 523.990234375 -816.0 L 572.657226562 -797.666992188 L 620.657226562 -775.0 L 647.990234375 -761.666992188 L 676.490234375 -747.333007812 L 706.157226562 -732.0 L 735.82421875 -716.666992188 L 769.32421875 -698.333007812 L 806.657226562 -677.0 L 823.990234375 -667.0 L 842.490234375 -656.166992188 L 862.157226562 -644.5 L 881.82421875 -632.833007812 L 903.32421875 -621.0 L 926.657226562 -609.0 L 944.657226562 -597.666992188 L 962.157226562 -586.5 L 979.157226562 -575.5 L 996.157226562 -564.5 L 1003.32421875 -553.333007812 L 1000.65722656 -542.0 L 997.990234375 -530.666992188 L 991.490234375 -525.333007812 L 981.157226562 -526.0 L 970.82421875 -526.666992188 L 938.32421875 -526.333007812 L 883.657226562 -525.0 L 828.990234375 -523.666992188 L 781.32421875 -523.666992188 L 740.657226562 -525.0 L 724.657226562 -537.0 L 724.990234375 -545.5 L 741.657226562 -550.5 L 758.32421875 -555.5 L 770.657226562 -562.0 L 778.657226562 -570.0 L 793.32421875 -586.0 L 799.990234375 -598.5 L 798.657226562 -607.5 L 797.32421875 -616.5 L 794.990234375 -623.666992188 L 791.657226562 -629.0 L 788.32421875 -634.333007812 L 783.32421875 -640.0 L 776.657226562 -646.0 L 769.990234375 -652.0 L 753.490234375 -664.0 L 727.157226562 -682.0 L 700.82421875 -700.0 L 667.990234375 -719.0 L 628.657226562 -739.0 L 593.990234375 -754.333007812 L 566.490234375 -766.833007812 L 546.157226562 -776.5 L 525.82421875 -786.166992188 L 493.32421875 -797.0 L 448.657226562 -809.0 L 415.32421875 -815.666992188 L 381.490234375 -819.833007812 L 347.157226562 -821.5 L 312.82421875 -823.166992188 L 277.657226562 -818.0 L 241.657226562 -806.0 L 216.990234375 -795.333007812 L 199.490234375 -786.0 L 189.157226562 -778.0 L 178.82421875 -770.0 L 167.657226562 -756.666992188 L 155.657226562 -738.0 L 144.990234375 -720.0 L 138.82421875 -704.666992188 L 137.157226562 -692.0 L 135.490234375 -679.333007812 L 134.990234375 -664.666992188 L 135.657226562 -648.0 L 136.32421875 -631.333007812 L 138.32421875 -619.166992188 L 141.657226562 -611.5 L 144.990234375 -603.833007812 L 149.32421875 -596.0 L 154.657226562 -588.0 L 159.990234375 -580.0 L 166.82421875 -572.833007812 L 175.157226562 -566.5 L 183.490234375 -560.166992188 L 195.990234375 -555.833007812 L 212.657226562 -553.5 L 229.32421875 -551.166992188 L 245.990234375 -549.0 L 262.657226562 -547.0 L 269.990234375 -545.666992188 L 274.657226562 -542.666992188 L 276.657226562 -538.0 L 278.657226562 -533.333007812 L 275.990234375 -529.0 Z" fill="black" fill-opacity="0.25" stroke="black" stroke-width="4.0"/>
  <rect x="895.0" y="-836.0" width="470.0" height="301.99999999999994" fill="none" stroke="red" stroke-width="10.0" /><rect x="19.0" y="-468.0" width="1005.0000000000001" height="341.0" fill="none" stroke="red" stroke-width="10.0" /><rect x="-2.0" y="-856.0" width="1004.9999999999999" height="339.99999999999994" fill="none" stroke="red" stroke-width="10.0" />
</svg>
