<svg xmlns="http://www.w3.org/2000/svg"
  viewBox="-50 -1272 1202.364 1188.522">
  <rect x="-50" y="-1272" width="1202.364" height="1188.522" fill="white"/>
  <path d="M 806.113 -498 L 831.447 -507.333 L 874.447 -506.667 L 935.113 -496 L 970.447 -486.667 L 1001.613 -474.833 L 1028.613 -460.5 L 1055.613 -446.167 L 1076.447 -420.667 L 1091.113 -384 L 1101.113 -348.667 L 1104.447 -320.333 L 1101.113 -299 L 1097.78 -277.667 L 1086.113 -253.333 L 1066.113 -226 L 1046.78 -202.667 L 1024.28 -185.167 L 998.613 -173.5 L 972.947 -161.833 L 941.447 -152 L 904.113 -144 L 866.78 -136.667 L 836.447 -133.167 L 813.113 -133.5 L 789.78 -133.833 L 764.447 -134.333 L 737.113 -135 L 710.447 -136.333 L 685.613 -138.5 L 662.613 -141.5 L 639.613 -144.5 L 611.78 -151 L 579.113 -161 L 525.113 -175.667 L 471.78 -196 L 419.113 -222 L 389.78 -236.667 L 358.613 -252.5 L 325.613 -269.5 L 292.613 -286.5 L 255.78 -306.667 L 215.113 -330 L 196.447 -341.333 L 175.947 -353.5 L 153.613 -366.5 L 131.28 -379.5 L 107.447 -392.667 L 82.113 -406 L 62.78 -418 L 43.613 -430.167 L 24.613 -442.5 L 5.613 -454.833 L -2.387 -467.167 L 0.613 -479.5 L 3.613 -491.833 L 10.78 -497.667 L 22.113 -497 L 33.447 -496.333 L 69.113 -496.5 L 129.113 -497.5 L 189.113 -498.5 L 241.78 -498.667 L 287.113 -498 L 305.113 -484.667 L 304.947 -475.167 L 286.613 -469.5 L 268.28 -463.833 L 254.447 -456.667 L 245.113 -448 L 228.447 -430.667 L 221.113 -416.833 L 223.113 -406.5 L 225.113 -396.167 L 227.947 -388.167 L 231.613 -382.5 L 235.28 -376.833 L 240.78 -370.833 L 248.113 -364.5 L 255.447 -358.167 L 273.447 -345 L 302.113 -325 L 330.78 -305 L 366.78 -284 L 410.113 -262 L 448.78 -245.333 L 479.113 -231.667 L 501.113 -221 L 523.113 -210.333 L 558.78 -198.333 L 608.113 -185 L 644.78 -177.667 L 682.113 -173.167 L 720.113 -171.5 L 758.113 -169.833 L 796.78 -175.333 L 836.113 -188 L 863.447 -200 L 882.613 -210.333 L 893.613 -219 L 904.613 -227.667 L 917.113 -242.333 L 931.113 -263 L 943.113 -283 L 949.947 -300 L 951.613 -314 L 953.28 -328 L 953.447 -344 L 952.113 -362 L 951.447 -380.667 L 949.28 -394.167 L 945.613 -402.5 L 941.947 -410.833 L 937.28 -419.333 L 931.613 -428 L 925.947 -436.667 L 918.613 -444.5 L 909.613 -451.5 L 900.613 -458.5 L 886.78 -463.333 L 868.113 -466 L 849.447 -468.667 L 831.113 -471 L 813.113 -473 L 805.113 -474.333 L 799.947 -477.667 L 797.613 -483 L 795.28 -488.333 L 798.113 -493.333 Z M 592.113 -1222 L 602.78 -1220 L 607.447 -1214.5 L 606.113 -1205.5 L 604.78 -1196.5 L 597.78 -1191.333 L 585.113 -1190 L 571.113 -1185.333 L 559.947 -1167.833 L 551.613 -1137.5 L 543.28 -1107.167 L 534.113 -1075 L 524.113 -1041 L 501.447 -961.667 L 480.78 -897.333 L 462.113 -848 L 443.447 -798.667 L 425.78 -764 L 409.113 -744 L 392.447 -724 L 372.447 -709 L 349.113 -699 L 313.113 -683.667 L 277.613 -672.167 L 242.613 -664.5 L 207.613 -656.833 L 177.113 -653 L 151.113 -653 L 163.78 -623 L 185.113 -602.167 L 215.113 -590.5 L 245.113 -578.833 L 253.78 -566.333 L 241.113 -553 L 233.78 -545.667 L 210.78 -555.333 L 172.113 -582 L 133.447 -608.667 L 106.78 -635 L 92.113 -661 L 92.113 -677.667 L 98.947 -684.667 L 112.613 -682 L 126.28 -679.333 L 140.78 -677.333 L 156.113 -676 L 171.447 -675.333 L 187.28 -676.167 L 203.613 -678.5 L 219.947 -680.833 L 241.78 -689 L 269.113 -703 L 282.447 -709.667 L 295.113 -724.833 L 307.113 -748.5 L 319.113 -772.167 L 329.947 -798.5 L 339.613 -827.5 L 349.28 -856.5 L 357.447 -885.167 L 364.113 -913.5 L 370.78 -941.833 L 379.447 -982.667 L 390.113 -1036 L 400.78 -1089.333 L 410.113 -1125 L 418.113 -1143 L 426.113 -1161 L 437.28 -1175.5 L 451.613 -1186.5 L 465.947 -1197.5 L 479.613 -1204.667 L 492.613 -1208 L 505.613 -1211.333 L 520.113 -1213.833 L 536.113 -1215.5 L 552.113 -1217.167 L 570.78 -1219.333 Z" fill="black" fill-opacity="0.25" stroke="black" stroke-width="4"/>
  <rect x="-2" y="-507" width="1106" height="374" fill="none" stroke="red" stroke-width="10" /><rect x="92.1" y="-774.4" width="339" height="223.8" fill="none" stroke="red" stroke-width="10" /><rect x="320" y="-998.2" width="191.9" height="223.8" fill="none" stroke="red" stroke-width="10" /><rect x="382.6" y="-1222" width="224.8" height="223.8" fill="none" stroke="red" stroke-width="10" />
</svg>
