<svg xmlns="http://www.w3.org/2000/svg"
  viewBox="-50 -555 1591.373 471.533">
  <rect x="-50" y="-555" width="1591.373" height="471.533" fill="white"/>
  <path d="M 1252.25 -146 L 1244.917 -151.333 L 1244.417 -156.5 L 1250.75 -161.5 L 1257.083 -166.5 L 1265.25 -169 L 1275.25 -169 L 1285.917 -169 L 1300.417 -178.5 L 1318.75 -197.5 L 1337.083 -216.5 L 1349.25 -239.667 L 1355.25 -267 L 1364.583 -313 L 1340.25 -351 L 1282.25 -381 L 1260.25 -391.667 L 1232.917 -401.167 L 1200.25 -409.5 L 1167.583 -417.833 L 1135.583 -424.833 L 1104.25 -430.5 L 1072.917 -436.167 L 1045.417 -441 L 1021.75 -445 L 998.083 -449 L 984.25 -451.667 L 980.25 -453 L 971.583 -456.333 L 968.25 -461 L 970.25 -467 L 972.25 -473 L 976.917 -476 L 984.25 -476 L 991.583 -476 L 1033.083 -470.5 L 1108.75 -459.5 L 1184.417 -448.5 L 1253.583 -431 L 1316.25 -407 L 1353.583 -392.333 L 1383.417 -377.667 L 1405.75 -363 L 1428.083 -348.333 L 1448.583 -328.667 L 1467.25 -304 L 1485.917 -279.333 L 1493.75 -254.5 L 1490.75 -229.5 L 1487.75 -204.5 L 1476.917 -185 L 1458.25 -171 L 1440.917 -158.333 L 1421.25 -149.833 L 1399.25 -145.5 L 1377.25 -141.167 L 1356.25 -139 L 1336.25 -139 L 1306.25 -139 L 1306.25 -139 L 1294.25 -139 L 1286.25 -139 L 1272.25 -141.333 Z M 295.25 -140 L 269.917 -130.667 L 227.25 -131.333 L 167.25 -142 L 131.917 -150.667 L 100.75 -162.333 L 73.75 -177 L 46.75 -191.667 L 25.917 -217.333 L 11.25 -254 L 1.25 -289.333 L -2.083 -317.5 L 1.25 -338.5 L 4.583 -359.5 L 16.25 -384 L 36.25 -412 L 55.583 -435.333 L 78.083 -453 L 103.75 -465 L 129.417 -477 L 160.917 -486.667 L 198.25 -494 L 235.583 -501.333 L 265.917 -505 L 289.25 -505 L 312.583 -505 L 337.917 -504.333 L 365.25 -503 L 391.917 -501.667 L 416.583 -499.5 L 439.25 -496.5 L 461.917 -493.5 L 489.583 -487 L 522.25 -477 L 576.25 -462.333 L 629.583 -442 L 682.25 -416 L 711.583 -401.333 L 742.917 -385.5 L 776.25 -368.5 L 809.583 -351.5 L 846.583 -331.333 L 887.25 -308 L 905.917 -296.667 L 926.25 -284.667 L 948.25 -272 L 970.25 -259.333 L 994.25 -246.333 L 1020.25 -233 L 1039.583 -221 L 1058.583 -208.833 L 1077.25 -196.5 L 1095.917 -184.167 L 1103.75 -171.833 L 1100.75 -159.5 L 1097.75 -147.167 L 1090.583 -141.333 L 1079.25 -142 L 1067.917 -142.667 L 1032.25 -142.333 L 972.25 -141 L 912.25 -139.667 L 859.917 -139.333 L 815.25 -140 L 797.25 -153.333 L 797.417 -163 L 815.75 -169 L 834.083 -175 L 847.583 -182.333 L 856.25 -191 L 872.917 -208.333 L 880.417 -222 L 878.75 -232 L 877.083 -242 L 874.417 -249.833 L 870.75 -255.5 L 867.083 -261.167 L 861.583 -267.167 L 854.25 -273.5 L 846.917 -279.833 L 828.75 -293 L 799.75 -313 L 770.75 -333 L 734.917 -354 L 692.25 -376 L 653.583 -392.667 L 623.25 -406.333 L 601.25 -417 L 579.25 -427.667 L 543.25 -439.667 L 493.25 -453 L 456.583 -460.333 L 419.417 -464.833 L 381.75 -466.5 L 344.083 -468.167 L 305.583 -462.667 L 266.25 -450 L 238.917 -438 L 219.583 -427.833 L 208.25 -419.5 L 196.917 -411.167 L 184.583 -396.333 L 171.25 -375 L 159.25 -355 L 152.25 -338 L 150.25 -324 L 148.25 -310 L 147.917 -294 L 149.25 -276 L 149.917 -257.333 L 152.083 -243.833 L 155.75 -235.5 L 159.417 -227.167 L 164.25 -218.833 L 170.25 -210.5 L 176.25 -202.167 L 183.75 -194.5 L 192.75 -187.5 L 201.75 -180.5 L 215.583 -175.5 L 234.25 -172.5 L 252.917 -169.5 L 271.25 -167 L 289.25 -165 L 297.25 -163.667 L 302.25 -160.333 L 304.25 -155 L 306.25 -149.667 L 303.25 -144.667 Z" fill="black" fill-opacity="0.25" stroke="black" stroke-width="4"/>
  <rect x="968" y="-476" width="526" height="337" fill="none" stroke="red" stroke-width="10" /><rect x="-2" y="-505" width="1106" height="374" fill="none" stroke="red" stroke-width="10" />
</svg>
