<svg xmlns="http://www.w3.org/2000/svg"
  viewBox="-49.99986267131756 -555.0 1591.3729557248214 471.533317131539">
  <rect x="-49.99986267131756" y="-555.0" width="1591.3729557248214" height="471.533317131539" fill="white"/>
  <path d="M 1252.25 -146.0 L 1244.91699219 -151.333007812 L 1244.41699219 -156.5 L 1250.75 -161.5 L 1257.08300781 -166.5 L 1265.25 -169.0 L 1275.25 -169.0 L 1285.91699219 -169.0 L 1300.41699219 -178.5 L 1318.75 -197.5 L 1337.08300781 -216.5 L 1349.25 -239.666992188 L 1355.25 -267.0 L 1364.58300781 -313.0 L 1340.25 -351.0 L 1282.25 -381.0 L 1260.25 -391.666992188 L 1232.91699219 -401.166992188 L 1200.25 -409.5 L 1167.58300781 -417.833007812 L 1135.58300781 -424.833007812 L 1104.25 -430.5 L 1072.91699219 -436.166992188 L 1045.41699219 -441.0 L 1021.75 -445.0 L 998.083007812 -449.0 L 984.25 -451.666992188 L 980.25 -453.0 L 971.583007812 -456.333007812 L 968.25 -461.0 L 970.25 -467.0 L 972.25 -473.0 L 976.916992188 -476.0 L 984.25 -476.0 L 991.583007812 -476.0 L 1033.08300781 -470.5 L 1108.75 -459.5 L 1184.41699219 -448.5 L 1253.58300781 -431.0 L 1316.25 -407.0 L 1353.58300781 -392.333007812 L 1383.41699219 -377.666992188 L 1405.75 -363.0 L 1428.08300781 -348.333007812 L 1448.58300781 -328.666992188 L 1467.25 -304.0 L 1485.91699219 -279.333007812 L 1493.75 -254.5 L 1490.75 -229.5 L 1487.75 -204.5 L 1476.91699219 -185.0 L 1458.25 -171.0 L 1440.91699219 -158.333007812 L 1421.25 -149.833007812 L 1399.25 -145.5 L 1377.25 -141.166992188 L 1356.25 -139.0 L 1336.25 -139.0 L 1306.25 -139.0 L 1306.25 -139.0 L 1294.25 -139.0 L 1286.25 -139.0 L 1272.25 -141.333007812 Z M 295.25 -140.0 L 269.916992188 -130.666992188 L 227.25 -131.333007812 L 167.25 -142.0 L 131.916992188 -150.666992188 L 100.75 -162.333007812 L 73.75 -177.0 L 46.75 -191.666992188 L 25.9169921875 -217.333007812 L 11.25 -254.0 L 1.25 -289.333007812 L -2.0830078125 -317.5 L 1.25 -338.5 L 4.5830078125 -359.5 L 16.25 -384.0 L 36.25 -412.0 L 55.5830078125 -435.333007812 L 78.0830078125 -453.0 L 103.75 -465.0 L 129.416992188 -477.0 L 160.916992188 -486.666992188 L 198.25 -494.0 L 235.583007812 -501.333007812 L 265.916992188 -505.0 L 289.25 -505.0 L 312.583007812 -505.0 L 337.916992188 -504.333007812 L 365.25 -503.0 L 391.916992188 -501.666992188 L 416.583007812 -499.5 L 439.25 -496.5 L 461.916992188 -493.5 L 489.583007812 -487.0 L 522.25 -477.0 L 576.25 -462.333007812 L 629.583007812 -442.0 L 682.25 -416.0 L 711.583007812 -401.333007812 L 742.916992188 -385.5 L 776.25 -368.5 L 809.583007812 -351.5 L 846.583007812 -331.333007812 L 887.25 -308.0 L 905.916992188 -296.666992188 L 926.25 -284.666992188 L 948.25 -272.0 L 970.25 -259.333007812 L 994.25 -246.333007812 L 1020.25 -233.0 L 1039.58300781 -221.0 L 1058.58300781 -208.833007812 L 1077.25 -196.5 L 1095.91699219 -184.166992188 L 1103.75 -171.833007812 L 1100.75 -159.5 L 1097.75 -147.166992188 L 1090.58300781 -141.333007812 L 1079.25 -142.0 L 1067.91699219 -142.666992188 L 1032.25 -142.333007812 L 972.25 -141.0 L 912.25 -139.666992188 L 859.916992188 -139.333007812 L 815.25 -140.0 L 797.25 -153.333007812 L 797.416992188 -163.0 L 815.75 -169.0 L 834.083007812 -175.0 L 847.583007812 -182.333007812 L 856.25 -191.0 L 872.916992188 -208.333007812 L 880.416992188 -222.0 L 878.75 -232.0 L 877.083007812 -242.0 L 874.416992188 -249.833007812 L 870.75 -255.5 L 867.083007812 -261.166992188 L 861.583007812 -267.166992188 L 854.25 -273.5 L 846.916992188 -279.833007812 L 828.75 -293.0 L 799.75 -313.0 L 770.75 -333.0 L 734.916992188 -354.0 L 692.25 -376.0 L 653.583007812 -392.666992188 L 623.25 -406.333007812 L 601.25 -417.0 L 579.25 -427.666992188 L 543.25 -439.666992188 L 493.25 -453.0 L 456.583007812 -460.333007812 L 419.416992188 -464.833007812 L 381.75 -466.5 L 344.083007812 -468.166992188 L 305.583007812 -462.666992188 L 266.25 -450.0 L 238.916992188 -438.0 L 219.583007812 -427.833007812 L 208.25 -419.5 L 196.916992188 -411.166992188 L 184.583007812 -396.333007812 L 171.25 -375.0 L 159.25 -355.0 L 152.25 -338.0 L 150.25 -324.0 L 148.25 -310.0 L 147.916992188 -294.0 L 149.25 -276.0 L 149.916992188 -257.333007812 L 152.083007812 -243.833007812 L 155.75 -235.5 L 159.416992188 -227.166992188 L 164.25 -218.833007812 L 170.25 -210.5 L 176.25 -202.166992188 L 183.75 -194.5 L 192.75 -187.5 L 201.75 -180.5 L 215.583007812 -175.5 L 234.25 -172.5 L 252.916992188 -169.5 L 271.25 -167.0 L 289.25 -165.0 L 297.25 -163.666992188 L 302.25 -160.333007812 L 304.25 -155.0 L 306.25 -149.666992188 L 303.25 -144.666992188 Z" fill="black" fill-opacity="0.25" stroke="black" stroke-width="4.0"/>
  <rect x="968.0" y="-476.0" width="526.0" height="336.99999999999994" fill="none" stroke="red" stroke-width="10.0" /><rect x="-2.0" y="-505.0" width="1106.0" height="374.0" fill="none" stroke="red" stroke-width="10.0" />
</svg>
