<svg xmlns="http://www.w3.org/2000/svg"
  viewBox="-434.0 -1273.0 907.1667570903627 513.3334056749391">
  <rect x="-434.0" y="-1273.0" width="907.1667570903627" height="513.3334056749391" fill="white"/>
  <path d="M -133.0 -1066.0 L -133.0 -1074.66699219 L -129.666992188 -1079.66699219 L -123.0 -1081.0 L -83.6669921875 -1081.0 L -44.3330078125 -1081.16699219 L -5.0 -1081.5 L 34.3330078125 -1081.83300781 L 73.6669921875 -1082.33300781 L 113.0 -1083.0 L 113.666992188 -1107.66699219 L 114.0 -1123.83300781 L 114.0 -1131.5 L 114.0 -1143.0 L 114.0 -1143.0 L 114.0 -1185.0 L 114.0 -1193.66699219 L 117.0 -1198.66699219 L 123.0 -1200.0 L 172.333007812 -1200.0 L 221.833007812 -1200.16699219 L 271.5 -1200.5 L 321.166992188 -1200.83300781 L 370.333007812 -1201.33300781 L 419.0 -1202.0 L 422.333007812 -1197.33300781 L 423.666992188 -1191.33300781 L 423.0 -1184.0 L 422.333007812 -1176.66699219 L 421.333007812 -1170.66699219 L 420.0 -1166.0 L 410.0 -1163.33300781 L 377.166992188 -1162.16699219 L 321.5 -1162.5 L 265.833007812 -1162.83300781 L 217.666992188 -1163.0 L 177.0 -1163.0 L 177.0 -1129.0 L 177.666992188 -1101.83300781 L 179.0 -1081.5 L 180.333007812 -1061.16699219 L 179.333007812 -1050.66699219 L 176.0 -1050.0 L 170.666992188 -1049.33300781 L 165.333007812 -1048.33300781 L 160.0 -1047.0 L 154.666992188 -1045.66699219 L 139.333007812 -1045.66699219 L 114.0 -1047.0 L 87.3330078125 -1046.33300781 L 56.5 -1045.5 L 21.5 -1044.5 L -13.5 -1043.5 L -44.0 -1043.0 L -70.0 -1043.0 L -70.0 -1039.0 L -70.0 -1039.0 L -70.0 -1036.0 L -70.0 -1033.0 L -70.0 -1033.0 L -70.0 -1030.0 L -69.3330078125 -964.0 L -69.6669921875 -931.0 L -71.0 -931.0 L -76.3330078125 -930.333007812 L -81.5 -929.333007812 L -86.5 -928.0 L -91.5 -926.666992188 L -107.0 -926.333007812 L -133.0 -927.0 L -159.666992188 -926.333007812 L -190.333007812 -925.666992188 L -225.0 -925.0 L -259.666992188 -924.333007812 L -290.333007812 -924.0 L -317.0 -924.0 L -317.0 -850.0 L -317.666992188 -813.0 L -319.0 -813.0 L -329.0 -813.0 L -339.833007812 -812.166992188 L -351.5 -810.5 L -363.166992188 -808.833007812 L -373.333007812 -809.666992188 L -382.0 -813.0 L -383.333007812 -813.0 L -384.0 -816.333007812 L -384.0 -823.0 L -384.0 -823.0 L -384.0 -823.0 L -383.0 -823.5 L -382.333007812 -823.833007812 L -382.0 -824.333007812 L -382.0 -825.0 L -382.0 -860.333007812 L -381.666992188 -880.5 L -381.0 -885.5 L -380.333007812 -890.5 L -380.0 -910.666992188 L -380.0 -946.0 L -380.0 -954.666992188 L -376.666992188 -959.666992188 L -370.0 -961.0 L -330.666992188 -961.0 L -291.333007812 -961.166992188 L -252.0 -961.5 L -212.666992188 -961.833007812 L -173.333007812 -962.333007812 L -134.0 -963.0 L -134.0 -980.333007812 L -133.833007812 -997.5 L -133.5 -1014.5 L -133.166992188 -1031.5 L -133.0 -1048.66699219 Z M -34.0 -1223.0 L 8.0 -1223.0 L 12.0 -1223.0 L 12.0 -1223.0 L 20.0 -1223.0 L 25.3330078125 -1223.0 L 28.6669921875 -1222.33300781 L 30.0 -1221.0 L 32.0 -1219.0 L 31.6669921875 -1217.83300781 L 29.0 -1217.5 L 26.3330078125 -1217.16699219 L 24.3330078125 -1211.66699219 L 23.0 -1201.0 L 18.0 -1167.0 L 16.6669921875 -1152.33300781 L 9.6669921875 -1145.33300781 L -3.0 -1146.0 L -45.0 -1146.0 L -48.0 -1146.0 L -48.0 -1146.0 L -57.5 -1146.0 L -63.8330078125 -1146.0 L -67.3330078125 -1147.33300781 L -68.0 -1150.0 L -68.0 -1152.66699219 L -66.8330078125 -1154.5 L -64.5 -1155.5 L -62.1669921875 -1156.5 L -60.6669921875 -1160.33300781 L -60.0 -1167.0 L -55.0 -1201.0 L -53.0 -1215.66699219 L -46.0 -1223.0 Z" fill="black" fill-opacity="0.25" stroke="black" stroke-width="4.0"/>
  <rect x="-384.0" y="-947.4" width="314.5" height="137.70000000000005" fill="none" stroke="red" stroke-width="10.0" /><rect x="-380.0" y="-1085.2" width="560.3000000000001" height="137.79999999999993" fill="none" stroke="red" stroke-width="10.0" /><rect x="-68.0" y="-1223.0" width="491.70000000000005" height="137.80000000000015" fill="none" stroke="red" stroke-width="10.0" />
</svg>
