<svg xmlns="http://www.w3.org/2000/svg"
  viewBox="-49.999899398166875 -1279.5713260758816 989.5279786814258 1179.5713260758816">
  <rect x="-49.999899398166875" y="-1279.5713260758816" width="989.5279786814258" height="1179.5713260758816" fill="white"/>
  <path d="M 747.017578125 -883.0 L 755.017578125 -850.0 L 755.684570312 -848.0 L 759.017578125 -842.666992188 L 765.017578125 -834.0 L 771.017578125 -825.333007812 L 774.017578125 -820.0 L 774.017578125 -818.0 L 774.017578125 -816.0 L 769.017578125 -813.833007812 L 759.017578125 -811.5 L 749.017578125 -809.166992188 L 742.350585938 -808.0 L 739.017578125 -808.0 L 685.017578125 -808.0 L 678.350585938 -808.0 L 671.517578125 -812.833007812 L 664.517578125 -822.5 L 657.517578125 -832.166992188 L 653.350585938 -841.333007812 L 652.017578125 -850.0 L 644.017578125 -883.0 L 574.017578125 -883.0 L 509.684570312 -885.666992188 L 451.017578125 -891.0 L 392.350585938 -896.333007812 L 350.684570312 -901.0 L 326.017578125 -905.0 L 232.684570312 -919.0 L 175.350585938 -950.333007812 L 154.017578125 -999.0 L 149.350585938 -1009.66699219 L 140.684570312 -1025.66699219 L 128.017578125 -1047.0 L 115.350585938 -1068.33300781 L 102.184570312 -1089.83300781 L 88.517578125 -1111.5 L 74.8505859375 -1133.16699219 L 61.8505859375 -1152.66699219 L 49.517578125 -1170.0 L 37.1845703125 -1187.33300781 L 28.6845703125 -1197.0 L 24.017578125 -1199.0 L -0.6494140625 -1207.0 L -6.3154296875 -1215.66699219 L 7.017578125 -1225.0 L 70.3505859375 -1230.33300781 L 127.350585938 -1231.0 L 178.017578125 -1227.0 L 206.684570312 -1225.66699219 L 227.350585938 -1210.16699219 L 240.017578125 -1180.5 L 252.684570312 -1150.83300781 L 265.350585938 -1112.0 L 278.017578125 -1064.0 L 290.017578125 -1016.0 L 305.350585938 -983.333007812 L 324.017578125 -966.0 L 342.684570312 -948.666992188 L 374.350585938 -934.333007812 L 419.017578125 -923.0 L 463.017578125 -911.666992188 L 537.017578125 -906.666992188 L 641.017578125 -908.0 L 630.017578125 -968.0 L 629.350585938 -970.666992188 L 626.350585938 -974.333007812 L 621.017578125 -979.0 L 615.684570312 -983.666992188 L 613.017578125 -987.333007812 L 613.017578125 -990.0 L 613.017578125 -993.333007812 L 617.850585938 -995.666992188 L 627.517578125 -997.0 L 637.184570312 -998.333007812 L 644.017578125 -999.0 L 648.017578125 -999.0 L 703.017578125 -999.0 L 709.684570312 -999.0 L 716.184570312 -994.5 L 722.517578125 -985.5 L 728.850585938 -976.5 L 733.017578125 -967.0 L 735.017578125 -957.0 L 745.017578125 -909.0 L 785.017578125 -909.666992188 L 812.184570312 -911.0 L 826.517578125 -913.0 L 840.850585938 -915.0 L 856.684570312 -917.333007812 L 874.017578125 -920.0 L 891.350585938 -918.0 L 893.684570312 -910.333007812 L 881.017578125 -897.0 L 875.017578125 -892.333007812 L 862.684570312 -888.833007812 L 844.017578125 -886.5 L 825.350585938 -884.166992188 L 793.017578125 -883.0 Z M 747.017578125 -553.0 L 755.017578125 -521.0 L 755.684570312 -518.333007812 L 759.017578125 -512.666992188 L 765.017578125 -504.0 L 771.017578125 -495.333007812 L 774.017578125 -490.0 L 774.017578125 -488.0 L 774.017578125 -486.0 L 769.017578125 -484.0 L 759.017578125 -482.0 L 749.017578125 -480.0 L 742.350585938 -479.0 L 739.017578125 -479.0 L 685.017578125 -479.0 L 678.350585938 -479.0 L 671.517578125 -483.833007812 L 664.517578125 -493.5 L 657.517578125 -503.166992188 L 653.350585938 -512.333007812 L 652.017578125 -521.0 L 644.017578125 -553.0 L 574.017578125 -553.0 L 509.684570312 -555.833007812 L 451.017578125 -561.5 L 392.350585938 -567.166992188 L 350.684570312 -571.666992188 L 326.017578125 -575.0 L 232.684570312 -589.0 L 175.350585938 -620.666992188 L 154.017578125 -670.0 L 149.350585938 -680.666992188 L 140.684570312 -696.666992188 L 128.017578125 -718.0 L 115.350585938 -739.333007812 L 102.184570312 -760.833007812 L 88.517578125 -782.5 L 74.8505859375 -804.166992188 L 61.8505859375 -823.5 L 49.517578125 -840.5 L 37.1845703125 -857.5 L 28.6845703125 -867.0 L 24.017578125 -869.0 L -0.6494140625 -877.0 L -6.3154296875 -885.666992188 L 7.017578125 -895.0 L 70.3505859375 -900.333007812 L 127.350585938 -901.333007812 L 178.017578125 -898.0 L 206.684570312 -896.666992188 L 227.350585938 -881.0 L 240.017578125 -851.0 L 252.684570312 -821.0 L 265.350585938 -782.333007812 L 278.017578125 -735.0 L 290.017578125 -687.0 L 305.350585938 -654.166992188 L 324.017578125 -636.5 L 342.684570312 -618.833007812 L 374.350585938 -604.666992188 L 419.017578125 -594.0 L 465.684570312 -582.666992188 L 539.684570312 -577.666992188 L 641.017578125 -579.0 L 630.017578125 -638.0 L 629.350585938 -640.666992188 L 626.350585938 -644.5 L 621.017578125 -649.5 L 615.684570312 -654.5 L 613.017578125 -658.0 L 613.017578125 -660.0 L 613.017578125 -663.333007812 L 617.850585938 -665.666992188 L 627.517578125 -667.0 L 637.184570312 -668.333007812 L 644.017578125 -669.0 L 648.017578125 -669.0 L 703.017578125 -669.0 L 709.684570312 -669.0 L 716.184570312 -664.5 L 722.517578125 -655.5 L 728.850585938 -646.5 L 733.017578125 -637.0 L 735.017578125 -627.0 L 745.017578125 -579.0 L 785.017578125 -579.666992188 L 812.184570312 -581.166992188 L 826.517578125 -583.5 L 840.850585938 -585.833007812 L 856.684570312 -588.0 L 874.017578125 -590.0 L 892.017578125 -588.0 L 894.350585938 -580.666992188 L 881.017578125 -568.0 L 875.017578125 -563.333007812 L 862.684570312 -559.666992188 L 844.017578125 -557.0 L 825.350585938 -554.333007812 L 793.017578125 -553.0 Z M 747.017578125 -224.0 L 755.017578125 -192.0 L 755.684570312 -189.333007812 L 759.017578125 -183.666992188 L 765.017578125 -175.0 L 771.017578125 -166.333007812 L 774.017578125 -160.666992188 L 774.017578125 -158.0 L 774.017578125 -156.0 L 769.017578125 -154.166992188 L 759.017578125 -152.5 L 749.017578125 -150.833007812 L 742.350585938 -150.0 L 739.017578125 -150.0 L 685.017578125 -150.0 L 678.350585938 -150.0 L 671.517578125 -154.666992188 L 664.517578125 -164.0 L 657.517578125 -173.333007812 L 653.350585938 -182.666992188 L 652.017578125 -192.0 L 644.017578125 -224.0 L 574.017578125 -224.0 L 509.684570312 -226.833007812 L 451.017578125 -232.5 L 392.350585938 -238.166992188 L 350.684570312 -242.666992188 L 326.017578125 -246.0 L 232.684570312 -260.0 L 175.350585938 -291.666992188 L 154.017578125 -341.0 L 149.350585938 -351.666992188 L 140.684570312 -367.5 L 128.017578125 -388.5 L 115.350585938 -409.5 L 102.184570312 -431.0 L 88.517578125 -453.0 L 74.8505859375 -475.0 L 61.8505859375 -494.333007812 L 49.517578125 -511.0 L 37.1845703125 -527.666992188 L 28.6845703125 -537.333007812 L 24.017578125 -540.0 L 0.017578125 -548.0 L -5.6494140625 -556.666992188 L 7.017578125 -566.0 L 37.017578125 -568.0 L 65.8505859375 -569.333007812 L 93.517578125 -570.0 L 121.184570312 -570.666992188 L 149.350585938 -570.0 L 178.017578125 -568.0 L 206.684570312 -566.666992188 L 227.350585938 -551.166992188 L 240.017578125 -521.5 L 252.684570312 -491.833007812 L 265.350585938 -453.333007812 L 278.017578125 -406.0 L 290.017578125 -357.333007812 L 305.350585938 -324.333007812 L 324.017578125 -307.0 L 342.684570312 -289.666992188 L 374.350585938 -275.333007812 L 419.017578125 -264.0 L 463.017578125 -252.666992188 L 537.017578125 -248.0 L 641.017578125 -250.0 L 630.017578125 -309.0 L 629.350585938 -311.666992188 L 626.350585938 -315.333007812 L 621.017578125 -320.0 L 615.684570312 -324.666992188 L 613.017578125 -328.333007812 L 613.017578125 -331.0 L 613.017578125 -334.333007812 L 617.850585938 -336.666992188 L 627.517578125 -338.0 L 637.184570312 -339.333007812 L 644.017578125 -340.0 L 648.017578125 -340.0 L 703.017578125 -340.0 L 709.684570312 -340.0 L 716.184570312 -335.5 L 722.517578125 -326.5 L 728.850585938 -317.5 L 733.017578125 -308.0 L 735.017578125 -298.0 L 745.017578125 -250.0 L 785.017578125 -250.0 L 812.184570312 -251.333007812 L 826.517578125 -254.0 L 840.850585938 -256.666992188 L 856.684570312 -259.0 L 874.017578125 -261.0 L 880.684570312 -260.333007812 L 884.517578125 -257.333007812 L 885.517578125 -252.0 L 886.517578125 -246.666992188 L 885.017578125 -242.333007812 L 881.017578125 -239.0 L 875.017578125 -234.333007812 L 862.684570312 -230.666992188 L 844.017578125 -228.0 L 825.350585938 -225.333007812 L 793.017578125 -224.0 Z" fill="black" fill-opacity="0.25" stroke="black" stroke-width="4.0"/>
  <rect x="-6.0" y="-1231.0" width="900.0" height="423.00000000000006" fill="none" stroke="red" stroke-width="10.0" /><rect x="-6.0" y="-901.0" width="900.0" height="422.00000000000006" fill="none" stroke="red" stroke-width="10.0" /><rect x="-6.0" y="-571.0" width="893.0" height="420.99999999999994" fill="none" stroke="red" stroke-width="10.0" />
</svg>
