<svg xmlns="http://www.w3.org/2000/svg"
  viewBox="-50 -1279.571 989.528 1179.571">
  <rect x="-50" y="-1279.571" width="989.528" height="1179.571" fill="white"/>
  <path d="M 747.018 -883 L 755.018 -850 L 755.685 -848 L 759.018 -842.667 L 765.018 -834 L 771.018 -825.333 L 774.018 -820 L 774.018 -818 L 774.018 -816 L 769.018 -813.833 L 759.018 -811.5 L 749.018 -809.167 L 742.351 -808 L 739.018 -808 L 685.018 -808 L 678.351 -808 L 671.518 -812.833 L 664.518 -822.5 L 657.518 -832.167 L 653.351 -841.333 L 652.018 -850 L 644.018 -883 L 574.018 -883 L 509.685 -885.667 L 451.018 -891 L 392.351 -896.333 L 350.685 -901 L 326.018 -905 L 232.685 -919 L 175.351 -950.333 L 154.018 -999 L 149.351 -1009.667 L 140.685 -1025.667 L 128.018 -1047 L 115.351 -1068.333 L 102.185 -1089.833 L 88.518 -1111.5 L 74.851 -1133.167 L 61.851 -1152.667 L 49.518 -1170 L 37.185 -1187.333 L 28.685 -1197 L 24.018 -1199 L -0.649 -1207 L -6.315 -1215.667 L 7.018 -1225 L 70.351 -1230.333 L 127.351 -1231 L 178.018 -1227 L 206.685 -1225.667 L 227.351 -1210.167 L 240.018 -1180.5 L 252.685 -1150.833 L 265.351 -1112 L 278.018 -1064 L 290.018 -1016 L 305.351 -983.333 L 324.018 -966 L 342.685 -948.667 L 374.351 -934.333 L 419.018 -923 L 463.018 -911.667 L 537.018 -906.667 L 641.018 -908 L 630.018 -968 L 629.351 -970.667 L 626.351 -974.333 L 621.018 -979 L 615.685 -983.667 L 613.018 -987.333 L 613.018 -990 L 613.018 -993.333 L 617.851 -995.667 L 627.518 -997 L 637.185 -998.333 L 644.018 -999 L 648.018 -999 L 703.018 -999 L 709.685 -999 L 716.185 -994.5 L 722.518 -985.5 L 728.851 -976.5 L 733.018 -967 L 735.018 -957 L 745.018 -909 L 785.018 -909.667 L 812.185 -911 L 826.518 -913 L 840.851 -915 L 856.685 -917.333 L 874.018 -920 L 891.351 -918 L 893.685 -910.333 L 881.018 -897 L 875.018 -892.333 L 862.685 -888.833 L 844.018 -886.5 L 825.351 -884.167 L 793.018 -883 Z M 747.018 -553 L 755.018 -521 L 755.685 -518.333 L 759.018 -512.667 L 765.018 -504 L 771.018 -495.333 L 774.018 -490 L 774.018 -488 L 774.018 -486 L 769.018 -484 L 759.018 -482 L 749.018 -480 L 742.351 -479 L 739.018 -479 L 685.018 -479 L 678.351 -479 L 671.518 -483.833 L 664.518 -493.5 L 657.518 -503.167 L 653.351 -512.333 L 652.018 -521 L 644.018 -553 L 574.018 -553 L 509.685 -555.833 L 451.018 -561.5 L 392.351 -567.167 L 350.685 -571.667 L 326.018 -575 L 232.685 -589 L 175.351 -620.667 L 154.018 -670 L 149.351 -680.667 L 140.685 -696.667 L 128.018 -718 L 115.351 -739.333 L 102.185 -760.833 L 88.518 -782.5 L 74.851 -804.167 L 61.851 -823.5 L 49.518 -840.5 L 37.185 -857.5 L 28.685 -867 L 24.018 -869 L -0.649 -877 L -6.315 -885.667 L 7.018 -895 L 70.351 -900.333 L 127.351 -901.333 L 178.018 -898 L 206.685 -896.667 L 227.351 -881 L 240.018 -851 L 252.685 -821 L 265.351 -782.333 L 278.018 -735 L 290.018 -687 L 305.351 -654.167 L 324.018 -636.5 L 342.685 -618.833 L 374.351 -604.667 L 419.018 -594 L 465.685 -582.667 L 539.685 -577.667 L 641.018 -579 L 630.018 -638 L 629.351 -640.667 L 626.351 -644.5 L 621.018 -649.5 L 615.685 -654.5 L 613.018 -658 L 613.018 -660 L 613.018 -663.333 L 617.851 -665.667 L 627.518 -667 L 637.185 -668.333 L 644.018 -669 L 648.018 -669 L 703.018 -669 L 709.685 -669 L 716.185 -664.5 L 722.518 -655.5 L 728.851 -646.5 L 733.018 -637 L 735.018 -627 L 745.018 -579 L 785.018 -579.667 L 812.185 -581.167 L 826.518 -583.5 L 840.851 -585.833 L 856.685 -588 L 874.018 -590 L 892.018 -588 L 894.351 -580.667 L 881.018 -568 L 875.018 -563.333 L 862.685 -559.667 L 844.018 -557 L 825.351 -554.333 L 793.018 -553 Z M 747.018 -224 L 755.018 -192 L 755.685 -189.333 L 759.018 -183.667 L 765.018 -175 L 771.018 -166.333 L 774.018 -160.667 L 774.018 -158 L 774.018 -156 L 769.018 -154.167 L 759.018 -152.5 L 749.018 -150.833 L 742.351 -150 L 739.018 -150 L 685.018 -150 L 678.351 -150 L 671.518 -154.667 L 664.518 -164 L 657.518 -173.333 L 653.351 -182.667 L 652.018 -192 L 644.018 -224 L 574.018 -224 L 509.685 -226.833 L 451.018 -232.5 L 392.351 -238.167 L 350.685 -242.667 L 326.018 -246 L 232.685 -260 L 175.351 -291.667 L 154.018 -341 L 149.351 -351.667 L 140.685 -367.5 L 128.018 -388.5 L 115.351 -409.5 L 102.185 -431 L 88.518 -453 L 74.851 -475 L 61.851 -494.333 L 49.518 -511 L 37.185 -527.667 L 28.685 -537.333 L 24.018 -540 L 0.018 -548 L -5.649 -556.667 L 7.018 -566 L 37.018 -568 L 65.851 -569.333 L 93.518 -570 L 121.185 -570.667 L 149.351 -570 L 178.018 -568 L 206.685 -566.667 L 227.351 -551.167 L 240.018 -521.5 L 252.685 -491.833 L 265.351 -453.333 L 278.018 -406 L 290.018 -357.333 L 305.351 -324.333 L 324.018 -307 L 342.685 -289.667 L 374.351 -275.333 L 419.018 -264 L 463.018 -252.667 L 537.018 -248 L 641.018 -250 L 630.018 -309 L 629.351 -311.667 L 626.351 -315.333 L 621.018 -320 L 615.685 -324.667 L 613.018 -328.333 L 613.018 -331 L 613.018 -334.333 L 617.851 -336.667 L 627.518 -338 L 637.185 -339.333 L 644.018 -340 L 648.018 -340 L 703.018 -340 L 709.685 -340 L 716.185 -335.5 L 722.518 -326.5 L 728.851 -317.5 L 733.018 -308 L 735.018 -298 L 745.018 -250 L 785.018 -250 L 812.185 -251.333 L 826.518 -254 L 840.851 -256.667 L 856.685 -259 L 874.018 -261 L 880.685 -260.333 L 884.518 -257.333 L 885.518 -252 L 886.518 -246.667 L 885.018 -242.333 L 881.018 -239 L 875.018 -234.333 L 862.685 -230.667 L 844.018 -228 L 825.351 -225.333 L 793.018 -224 Z" fill="black" fill-opacity="0.25" stroke="black" stroke-width="4"/>
  <rect x="-6" y="-1231" width="900" height="423" fill="none" stroke="red" stroke-width="10" /><rect x="-6" y="-901" width="900" height="422" fill="none" stroke="red" stroke-width="10" /><rect x="-6" y="-571" width="893" height="421" fill="none" stroke="red" stroke-width="10" />
</svg>
