<svg xmlns="http://www.w3.org/2000/svg"
  viewBox="-49.99986267131756 -499.3332429112927 406.76048064261744 388.47620255883214">
  <rect x="-49.99986267131756" y="-499.3332429112927" width="406.76048064261744" height="388.47620255883214" fill="white"/>
  <path d="M 284.25 -447.0 L 299.583007812 -447.0 L 307.083007812 -442.333007812 L 306.75 -433.0 L 306.416992188 -423.666992188 L 300.916992188 -418.333007812 L 290.25 -417.0 L 272.25 -413.0 L 260.25 -405.333007812 L 254.25 -394.0 L 230.25 -336.666992188 L 211.75 -286.333007812 L 198.75 -243.0 L 185.75 -199.666992188 L 169.25 -174.0 L 149.25 -166.0 L 127.916992188 -163.333007812 L 105.416992188 -161.666992188 L 81.75 -161.0 L 58.0830078125 -160.333007812 L 34.5830078125 -162.0 L 11.25 -166.0 L 1.25 -170.0 L -2.0830078125 -174.333007812 L 1.25 -179.0 L 4.5830078125 -183.666992188 L 9.5830078125 -187.0 L 16.25 -189.0 L 22.9169921875 -190.333007812 L 29.9169921875 -198.333007812 L 37.25 -213.0 L 60.5830078125 -254.333007812 L 80.0830078125 -301.166992188 L 95.75 -353.5 L 111.416992188 -405.833007812 L 127.916992188 -435.0 L 145.25 -441.0 L 167.916992188 -447.666992188 L 190.916992188 -450.333007812 L 214.25 -449.0 L 237.583007812 -447.666992188 L 260.916992188 -447.0 Z" fill="black" fill-opacity="0.25" stroke="black" stroke-width="4.0"/>
  <rect x="-2.0" y="-450.0" width="309.0" height="290.00000000000006" fill="none" stroke="red" stroke-width="10.0" />
</svg>
