<svg xmlns="http://www.w3.org/2000/svg"
  viewBox="-50 -499.333 406.76 388.476">
  <rect x="-50" y="-499.333" width="406.76" height="388.476" fill="white"/>
  <path d="M 284.25 -447 L 299.583 -447 L 307.083 -442.333 L 306.75 -433 L 306.417 -423.667 L 300.917 -418.333 L 290.25 -417 L 272.25 -413 L 260.25 -405.333 L 254.25 -394 L 230.25 -336.667 L 211.75 -286.333 L 198.75 -243 L 185.75 -199.667 L 169.25 -174 L 149.25 -166 L 127.917 -163.333 L 105.417 -161.667 L 81.75 -161 L 58.083 -160.333 L 34.583 -162 L 11.25 -166 L 1.25 -170 L -2.083 -174.333 L 1.25 -179 L 4.583 -183.667 L 9.583 -187 L 16.25 -189 L 22.917 -190.333 L 29.917 -198.333 L 37.25 -213 L 60.583 -254.333 L 80.083 -301.167 L 95.75 -353.5 L 111.417 -405.833 L 127.917 -435 L 145.25 -441 L 167.917 -447.667 L 190.917 -450.333 L 214.25 -449 L 237.583 -447.667 L 260.917 -447 Z" fill="black" fill-opacity="0.25" stroke="black" stroke-width="4"/>
  <rect x="-2" y="-450" width="309" height="290" fill="none" stroke="red" stroke-width="10" />
</svg>
