<svg xmlns="http://www.w3.org/2000/svg"
  viewBox="2 -471 811 374.111">
  <rect x="2" y="-471" width="811" height="374.111" fill="white"/>
  <path d="M 110 -416 L 161 -421 L 275 -421 L 311 -421 L 351 -417 L 391 -413 L 435 -403 L 461 -397 L 486 -390.5 L 511 -384 L 537 -377 L 635 -352 L 699 -305 L 762 -258 L 763 -205 L 763 -174 L 748 -154 L 742 -146 L 713 -147 L 672 -147 L 594 -162 L 581 -164 L 562.5 -167 L 544 -170 L 521 -176 L 546 -187 L 563 -213 L 580 -237 L 574 -250 L 562 -278 L 516.5 -304 L 471 -330 L 391 -345 L 307 -362 L 221.5 -373 L 136 -384 L 52 -397 Z" fill="black" fill-opacity="0.25" stroke="black" stroke-width="4"/>
  <rect x="52" y="-421" width="711" height="275" fill="none" stroke="red" stroke-width="10" />
</svg>
