<svg xmlns="http://www.w3.org/2000/svg"
  viewBox="-170 -511 1528 648">
  <rect x="-170" y="-511" width="1528" height="648" fill="white"/>
  <path d="M -62 -457 L -10 -461 L 103 -461 L 139 -461 L 179 -457.5 L 219 -454 L 263 -444 L 289 -438 L 314.5 -432 L 340 -426 L 365 -418 L 464 -393 L 527 -345 L 590 -298 L 591 -246 L 591 -215 L 576 -196 L 570 -189 L 541 -188 L 500 -188 L 422 -203 L 410 -205 L 391 -208 L 372 -211 L 349 -218 L 374 -229 L 391 -254 L 408 -278 L 402 -291 L 390 -319 L 344.5 -344.5 L 299 -370 L 219 -386 L 135 -403 L 50 -414.5 L -35 -426 L -120 -438 Z M 654 -181 L 706 -186 L 822 -186 L 858 -186 L 897 -182.5 L 936 -179 L 980 -169 L 1006 -163 L 1031 -156.5 L 1056 -150 L 1082 -142 L 1180 -117 L 1244 -71 L 1308 -24 L 1308 30 L 1308 61 L 1292 79 L 1286 87 L 1258 87 L 1218 87 L 1140 72 L 1128 70 L 1109 67 L 1090 64 L 1068 57 L 1092 44 L 1108 22 L 1124 -2 L 1120 -16 L 1108 -44 L 1062 -69.5 L 1016 -95 L 936 -111 L 852 -128 L 767 -139 L 682 -150 L 598 -163 Z" fill="black" fill-opacity="0.25" stroke="black" stroke-width="4"/>
  <rect x="-120" y="-461" width="711" height="273" fill="none" stroke="red" stroke-width="10" /><rect x="598" y="-186" width="710" height="273" fill="none" stroke="red" stroke-width="10" />
</svg>
