<svg xmlns="http://www.w3.org/2000/svg"
  viewBox="-170.0 -511.0 1528.0 648.0">
  <rect x="-170.0" y="-511.0" width="1528.0" height="648.0" fill="white"/>
  <path d="M -62.0 -457.0 L -10.0 -461.0 L 103.0 -461.0 L 139.0 -461.0 L 179.0 -457.5 L 219.0 -454.0 L 263.0 -444.0 L 289.0 -438.0 L 314.5 -432.0 L 340.0 -426.0 L 365.0 -418.0 L 464.0 -393.0 L 527.0 -345.0 L 590.0 -298.0 L 591.0 -246.0 L 591.0 -215.0 L 576.0 -196.0 L 570.0 -189.0 L 541.0 -188.0 L 500.0 -188.0 L 422.0 -203.0 L 410.0 -205.0 L 391.0 -208.0 L 372.0 -211.0 L 349.0 -218.0 L 374.0 -229.0 L 391.0 -254.0 L 408.0 -278.0 L 402.0 -291.0 L 390.0 -319.0 L 344.5 -344.5 L 299.0 -370.0 L 219.0 -386.0 L 135.0 -403.0 L 50.0 -414.5 L -35.0 -426.0 L -120.0 -438.0 Z M 654.0 -181.0 L 706.0 -186.0 L 822.0 -186.0 L 858.0 -186.0 L 897.0 -182.5 L 936.0 -179.0 L 980.0 -169.0 L 1006.0 -163.0 L 1031.0 -156.5 L 1056.0 -150.0 L 1082.0 -142.0 L 1180.0 -117.0 L 1244.0 -71.0 L 1308.0 -24.0 L 1308.0 30.0 L 1308.0 61.0 L 1292.0 79.0 L 1286.0 87.0 L 1258.0 87.0 L 1218.0 87.0 L 1140.0 72.0 L 1128.0 70.0 L 1109.0 67.0 L 1090.0 64.0 L 1068.0 57.0 L 1092.0 44.0 L 1108.0 22.0 L 1124.0 -2.0 L 1120.0 -16.0 L 1108.0 -44.0 L 1062.0 -69.5 L 1016.0 -95.0 L 936.0 -111.0 L 852.0 -128.0 L 767.0 -139.0 L 682.0 -150.0 L 598.0 -163.0 Z" fill="black" fill-opacity="0.25" stroke="black" stroke-width="4.0"/>
  <rect x="-120.0" y="-461.0" width="711.0" height="273.0" fill="none" stroke="red" stroke-width="10.0" /><rect x="598.0" y="-186.0" width="710.0000000000001" height="273.0" fill="none" stroke="red" stroke-width="10.0" />
</svg>
