<svg xmlns="http://www.w3.org/2000/svg"
  viewBox="2.0 -471.0 811.0 374.1111111111111">
  <rect x="2.0" y="-471.0" width="811.0" height="374.1111111111111" fill="white"/>
  <path d="M 110.0 -416.0 L 161.0 -421.0 L 275.0 -421.0 L 311.0 -421.0 L 351.0 -417.0 L 391.0 -413.0 L 435.0 -403.0 L 461.0 -397.0 L 486.0 -390.5 L 511.0 -384.0 L 537.0 -377.0 L 635.0 -352.0 L 699.0 -305.0 L 762.0 -258.0 L 763.0 -205.0 L 763.0 -174.0 L 748.0 -154.0 L 742.0 -146.0 L 713.0 -147.0 L 672.0 -147.0 L 594.0 -162.0 L 581.0 -164.0 L 562.5 -167.0 L 544.0 -170.0 L 521.0 -176.0 L 546.0 -187.0 L 563.0 -213.0 L 580.0 -237.0 L 574.0 -250.0 L 562.0 -278.0 L 516.5 -304.0 L 471.0 -330.0 L 391.0 -345.0 L 307.0 -362.0 L 221.5 -373.0 L 136.0 -384.0 L 52.0 -397.0 Z" fill="black" fill-opacity="0.25" stroke="black" stroke-width="4.0"/>
  <rect x="52.0" y="-421.0" width="711.0" height="275.0" fill="none" stroke="red" stroke-width="10.0" />
</svg>
