<svg xmlns="http://www.w3.org/2000/svg"
  viewBox="-184 -1004.19 518 397.19">
  <rect x="-184" y="-1004.19" width="518" height="397.19" fill="white"/>
  <path d="M 280 -827 L 250 -852 L 219 -870 L 188 -888 L 158 -899 L 128 -910 L 103 -915.5 L 78 -921 L 56 -920 L -8 -917 L -58 -874 L -128 -812 L -134 -845 L -40 -920 L 12 -953 L 60 -954 L 114 -956 L 164 -937 L 220 -916 L 284 -857 Z M 46 -851 L 98 -857 L 96 -844 L 94 -833.5 L 92 -823 L 92 -815 L 88 -792 L 88 -772 L 88 -752 L 88 -735 L 90 -696 L 100 -682 L 106 -675 L 106 -668 L 108 -657 L 92 -657 L 76 -657 L 72 -659 L 66 -661 L 61 -662 L 56 -663 L 50 -666 Z" fill="black" fill-opacity="0.25" stroke="black" stroke-width="4"/>
  <rect x="-134" y="-956" width="418" height="144" fill="none" stroke="red" stroke-width="10" /><rect x="46" y="-857" width="62" height="200" fill="none" stroke="red" stroke-width="10" />
</svg>
