<svg xmlns="http://www.w3.org/2000/svg"
  viewBox="-184.0 -1004.1904761904761 518.0 397.19047619047615">
  <rect x="-184.0" y="-1004.1904761904761" width="518.0" height="397.19047619047615" fill="white"/>
  <path d="M 280.0 -827.0 L 250.0 -852.0 L 219.0 -870.0 L 188.0 -888.0 L 158.0 -899.0 L 128.0 -910.0 L 103.0 -915.5 L 78.0 -921.0 L 56.0 -920.0 L -8.0 -917.0 L -58.0 -874.0 L -128.0 -812.0 L -134.0 -845.0 L -40.0 -920.0 L 12.0 -953.0 L 60.0 -954.0 L 114.0 -956.0 L 164.0 -937.0 L 220.0 -916.0 L 284.0 -857.0 Z M 46.0 -851.0 L 98.0 -857.0 L 96.0 -844.0 L 94.0 -833.5 L 92.0 -823.0 L 92.0 -815.0 L 88.0 -792.0 L 88.0 -772.0 L 88.0 -752.0 L 88.0 -735.0 L 90.0 -696.0 L 100.0 -682.0 L 106.0 -675.0 L 106.0 -668.0 L 108.0 -657.0 L 92.0 -657.0 L 76.0 -657.0 L 72.0 -659.0 L 66.0 -661.0 L 61.0 -662.0 L 56.0 -663.0 L 50.0 -666.0 Z" fill="black" fill-opacity="0.25" stroke="black" stroke-width="4.0"/>
  <rect x="-134.0" y="-956.0" width="418.0" height="143.99999999999991" fill="none" stroke="red" stroke-width="10.0" /><rect x="46.0" y="-857.0" width="62.0" height="199.99999999999994" fill="none" stroke="red" stroke-width="10.0" />
</svg>
