<svg xmlns="http://www.w3.org/2000/svg"
  viewBox="-148 -860.053 517 909.053">
  <rect x="-148" y="-860.053" width="517" height="909.053" fill="white"/>
  <path d="M 316 -683 L 285 -708 L 254.5 -726 L 224 -744 L 194 -755 L 164 -766 L 139 -771.5 L 114 -777 L 92 -776 L 28 -773 L -23 -730 L -92 -668 L -98 -700 L -5 -776 L 47 -809 L 95 -810 L 150 -811 L 200 -793 L 256 -772 L 319 -713 Z M 83 -691 L 134 -713 L 131 -668 L 129.5 -629 L 128 -590 L 127 -562 L 124 -479 L 124 -409.5 L 124 -340 L 124 -279 L 124 -142 L 136 -90 L 141 -64 L 142 -39 L 143 -1 L 129 -1 L 112 -1 L 108 -7 L 102 -14 L 97 -19 L 92 -24 L 86 -34 Z" fill="black" fill-opacity="0.25" stroke="black" stroke-width="4"/>
  <rect x="-98" y="-811" width="417" height="143" fill="none" stroke="red" stroke-width="10" /><rect x="83" y="-713" width="60" height="712" fill="none" stroke="red" stroke-width="10" />
</svg>
