<svg xmlns="http://www.w3.org/2000/svg"
  viewBox="-148.0 -860.0526315789474 517.0 909.0526315789474">
  <rect x="-148.0" y="-860.0526315789474" width="517.0" height="909.0526315789474" fill="white"/>
  <path d="M 316.0 -683.0 L 285.0 -708.0 L 254.5 -726.0 L 224.0 -744.0 L 194.0 -755.0 L 164.0 -766.0 L 139.0 -771.5 L 114.0 -777.0 L 92.0 -776.0 L 28.0 -773.0 L -23.0 -730.0 L -92.0 -668.0 L -98.0 -700.0 L -5.0 -776.0 L 47.0 -809.0 L 95.0 -810.0 L 150.0 -811.0 L 200.0 -793.0 L 256.0 -772.0 L 319.0 -713.0 Z M 83.0 -691.0 L 134.0 -713.0 L 131.0 -668.0 L 129.5 -629.0 L 128.0 -590.0 L 127.0 -562.0 L 124.0 -479.0 L 124.0 -409.5 L 124.0 -340.0 L 124.0 -279.0 L 124.0 -142.0 L 136.0 -90.0 L 141.0 -64.0 L 142.0 -39.0 L 143.0 -1.0 L 129.0 -1.0 L 112.0 -1.0 L 108.0 -7.0 L 102.0 -14.0 L 97.0 -19.0 L 92.0 -24.0 L 86.0 -34.0 Z" fill="black" fill-opacity="0.25" stroke="black" stroke-width="4.0"/>
  <rect x="-98.0" y="-811.0" width="417.00000000000006" height="143.00000000000003" fill="none" stroke="red" stroke-width="10.0" /><rect x="83.0" y="-713.0" width="59.999999999999986" height="712.0" fill="none" stroke="red" stroke-width="10.0" />
</svg>
