<svg xmlns="http://www.w3.org/2000/svg"
  viewBox="-8 -709 1206 907">
  <rect x="-8" y="-709" width="1206" height="907" fill="white"/>
  <path d="M 112 -121 L 164 -126 L 277 -126 L 313 -126 L 353 -122 L 393 -118 L 437 -108 L 463 -102 L 488.5 -96 L 514 -90 L 539 -82 L 637 -58 L 701 -10 L 764 36 L 765 90 L 765 121 L 750 140 L 743 148 L 715 148 L 674 148 L 596 132 L 584 130 L 565 127 L 546 124 L 523 118 L 548 106 L 565 82 L 582 58 L 576 44 L 564 15 L 518.5 -10 L 473 -35 L 393 -51 L 309 -68 L 224 -79 L 139 -90 L 54 -102 Z M 759 -429 L 753 -417 L 746.5 -398 L 740 -379 L 734 -354 L 871 -348 L 1102 -339 L 1148 -293 L 1006 -293 L 899.5 -293 L 793 -293 L 713 -294 L 696 -256 L 668 -228 L 657 -214 L 625 -204 L 608 -199 L 593 -198 L 578 -197 L 563 -196 L 541 -196 L 532 -199 L 519 -204 L 527 -213 L 552 -249 L 568 -299 L 556 -299 L 356 -308 L 257 -357 L 173 -396 L 71 -521 L 63 -535 L 59 -561 L 46 -635 L 42 -644 L 73 -648 L 110 -654 L 148 -659 L 164 -659 L 207 -658 L 235 -640 L 242 -636 L 243 -615 L 240 -569 L 240 -555 L 245 -549 L 337 -418 L 548 -376 L 556 -373 L 566 -372 L 576 -371 L 588 -370 L 593 -386 L 598 -398 L 603 -410 L 609 -421 L 617 -438 L 646 -438 L 707 -432 L 720 -431 L 733 -430 L 746 -429 Z" fill="black" fill-opacity="0.25" stroke="black" stroke-width="4"/>
  <rect x="54" y="-126" width="711" height="274" fill="none" stroke="red" stroke-width="10" /><rect x="42" y="-659" width="1106" height="463" fill="none" stroke="red" stroke-width="10" />
</svg>
