<svg xmlns="http://www.w3.org/2000/svg"
  viewBox="-21 -724 1206 563">
  <rect x="-21" y="-724" width="1206" height="563" fill="white"/>
  <path d="M 746 -444 L 740 -432 L 734 -413 L 728 -394 L 721 -369 L 858 -363 L 1089 -354 L 1135 -308 L 993 -308 L 886.5 -308 L 780 -308 L 701 -309 L 684 -271 L 655 -242 L 644 -228 L 612 -219 L 595 -214 L 580 -212.5 L 565 -211 L 551 -211 L 529 -211 L 520 -214 L 507 -218 L 515 -228 L 540 -264 L 556 -314 L 543 -314 L 343 -323 L 245 -372 L 161 -411 L 59 -536 L 51 -550 L 46 -577 L 33 -651 L 29 -660 L 60 -664 L 98 -669 L 136 -674 L 151 -674 L 194 -672 L 223 -655 L 231 -650 L 230 -630 L 228 -584 L 228 -570 L 232 -564 L 324 -433 L 535 -391 L 543 -388 L 553 -387 L 563 -386 L 576 -385 L 581 -401 L 586 -413 L 591 -425 L 596 -436 L 605 -453 L 634 -453 L 694 -447 L 707 -445 L 720 -444.5 L 733 -444 Z" fill="black" fill-opacity="0.25" stroke="black" stroke-width="4"/>
  <rect x="29" y="-674" width="1106" height="463" fill="none" stroke="red" stroke-width="10" />
</svg>
