<svg xmlns="http://www.w3.org/2000/svg"
  viewBox="-21.0 -724.0 1206.0 563.0">
  <rect x="-21.0" y="-724.0" width="1206.0" height="563.0" fill="white"/>
  <path d="M 746.0 -444.0 L 740.0 -432.0 L 734.0 -413.0 L 728.0 -394.0 L 721.0 -369.0 L 858.0 -363.0 L 1089.0 -354.0 L 1135.0 -308.0 L 993.0 -308.0 L 886.5 -308.0 L 780.0 -308.0 L 701.0 -309.0 L 684.0 -271.0 L 655.0 -242.0 L 644.0 -228.0 L 612.0 -219.0 L 595.0 -214.0 L 580.0 -212.5 L 565.0 -211.0 L 551.0 -211.0 L 529.0 -211.0 L 520.0 -214.0 L 507.0 -218.0 L 515.0 -228.0 L 540.0 -264.0 L 556.0 -314.0 L 543.0 -314.0 L 343.0 -323.0 L 245.0 -372.0 L 161.0 -411.0 L 59.0 -536.0 L 51.0 -550.0 L 46.0 -577.0 L 33.0 -651.0 L 29.0 -660.0 L 60.0 -664.0 L 98.0 -669.0 L 136.0 -674.0 L 151.0 -674.0 L 194.0 -672.0 L 223.0 -655.0 L 231.0 -650.0 L 230.0 -630.0 L 228.0 -584.0 L 228.0 -570.0 L 232.0 -564.0 L 324.0 -433.0 L 535.0 -391.0 L 543.0 -388.0 L 553.0 -387.0 L 563.0 -386.0 L 576.0 -385.0 L 581.0 -401.0 L 586.0 -413.0 L 591.0 -425.0 L 596.0 -436.0 L 605.0 -453.0 L 634.0 -453.0 L 694.0 -447.0 L 707.0 -445.0 L 720.0 -444.5 L 733.0 -444.0 Z" fill="black" fill-opacity="0.25" stroke="black" stroke-width="4.0"/>
  <rect x="29.0" y="-674.0" width="1106.0" height="463.00000000000006" fill="none" stroke="red" stroke-width="10.0" />
</svg>
