<svg xmlns="http://www.w3.org/2000/svg"
  viewBox="13.0 -1008.0 1226.0 975.0">
  <rect x="13.0" y="-1008.0" width="1226.0" height="975.0" fill="white"/>
  <path d="M 63.0 -344.0 L 63.0 -372.0 L 76.5 -391.5 L 90.0 -411.0 L 112.5 -424.5 L 135.0 -438.0 L 163.0 -445.0 L 191.0 -452.0 L 220.0 -456.0 L 249.0 -460.0 L 276.0 -461.0 L 303.0 -462.0 L 322.0 -462.0 L 440.0 -459.0 L 553.5 -436.0 L 667.0 -413.0 L 779.0 -377.0 L 899.0 -338.0 L 1042.0 -241.0 L 1185.0 -143.0 L 1185.0 -100.0 L 1185.0 -83.0 L 1149.0 -83.0 L 1102.0 -83.0 L 1051.5 -91.0 L 1001.0 -99.0 L 955.0 -112.0 L 969.0 -213.0 L 794.0 -301.0 L 709.0 -342.0 L 622.5 -364.0 L 536.0 -386.0 L 442.0 -386.0 L 416.0 -386.0 L 385.0 -383.0 L 354.0 -380.0 L 327.0 -369.5 L 300.0 -359.0 L 280.5 -339.5 L 261.0 -320.0 L 258.0 -286.0 L 256.0 -253.0 L 302.0 -218.0 L 363.0 -171.0 L 366.0 -171.0 L 296.0 -173.0 L 244.5 -181.5 L 193.0 -190.0 L 157.0 -205.0 L 112.0 -225.0 L 80.0 -274.0 L 63.0 -314.0 Z M 83.0 -944.0 L 99.0 -946.0 L 116.0 -948.5 L 133.0 -951.0 L 152.0 -954.0 L 165.0 -956.0 L 178.0 -957.0 L 191.0 -958.0 L 205.0 -958.0 L 248.0 -957.0 L 277.0 -940.0 L 285.0 -935.0 L 285.0 -915.0 L 282.0 -869.0 L 282.0 -856.0 L 287.0 -849.0 L 380.0 -717.0 L 589.0 -676.0 L 597.0 -673.0 L 607.5 -672.0 L 618.0 -671.0 L 630.0 -669.0 L 634.0 -685.0 L 639.5 -697.0 L 645.0 -709.0 L 650.0 -721.0 L 658.0 -738.0 L 688.0 -738.0 L 749.0 -732.0 L 761.0 -731.0 L 774.5 -730.0 L 788.0 -729.0 L 800.0 -729.0 L 794.0 -716.0 L 788.0 -697.0 L 782.0 -678.0 L 775.0 -654.0 L 913.0 -647.0 L 1144.0 -638.0 L 1189.0 -593.0 L 1039.0 -593.0 L 951.0 -593.0 L 882.0 -593.0 L 813.0 -593.0 L 755.0 -594.0 L 737.0 -557.0 L 710.0 -527.0 L 703.0 -517.0 L 688.5 -511.0 L 674.0 -505.0 L 658.0 -501.5 L 642.0 -498.0 L 626.0 -497.0 L 610.0 -496.0 L 598.0 -496.0 L 582.0 -496.0 L 574.0 -499.0 L 561.0 -504.0 L 569.0 -513.0 L 582.0 -531.0 L 592.0 -552.5 L 602.0 -574.0 L 610.0 -599.0 L 597.0 -599.0 L 496.0 -604.0 L 422.5 -618.0 L 349.0 -632.0 L 299.0 -657.0 L 215.0 -696.0 L 113.0 -821.0 L 105.0 -835.0 L 101.0 -862.0 L 95.0 -899.0 L 90.0 -919.0 L 85.0 -939.0 Z" fill="black" fill-opacity="0.25" stroke="black" stroke-width="4.0"/>
  <rect x="63.0" y="-462.0" width="1122.0" height="379.0" fill="none" stroke="red" stroke-width="10.0" /><rect x="83.0" y="-958.0" width="1106.0" height="461.99999999999994" fill="none" stroke="red" stroke-width="10.0" />
</svg>
