<svg xmlns="http://www.w3.org/2000/svg"
  viewBox="-8.0 -1008.0 1228.0 1042.0">
  <rect x="-8.0" y="-1008.0" width="1228.0" height="1042.0" fill="white"/>
  <path d="M 782.0 -728.0 L 776.0 -716.0 L 769.5 -697.0 L 763.0 -678.0 L 756.0 -653.0 L 894.0 -647.0 L 1125.0 -638.0 L 1170.0 -592.0 L 1028.0 -592.0 L 922.0 -592.0 L 816.0 -592.0 L 736.0 -594.0 L 719.0 -556.0 L 691.0 -526.0 L 680.0 -512.0 L 647.0 -503.0 L 630.0 -498.0 L 615.0 -497.0 L 600.0 -496.0 L 586.0 -495.0 L 564.0 -495.0 L 555.0 -499.0 L 542.0 -504.0 L 550.0 -513.0 L 575.0 -549.0 L 591.0 -599.0 L 578.0 -599.0 L 378.0 -608.0 L 280.0 -656.0 L 196.0 -695.0 L 94.0 -820.0 L 86.0 -834.0 L 82.0 -861.0 L 69.0 -935.0 L 64.0 -944.0 L 95.0 -948.0 L 133.0 -953.0 L 171.0 -958.0 L 186.0 -958.0 L 229.0 -957.0 L 258.0 -939.0 L 265.0 -934.0 L 266.0 -914.0 L 263.0 -869.0 L 263.0 -855.0 L 268.0 -849.0 L 360.0 -718.0 L 570.0 -675.0 L 578.0 -672.0 L 588.5 -671.0 L 599.0 -670.0 L 611.0 -669.0 L 615.0 -685.0 L 620.5 -697.5 L 626.0 -710.0 L 631.0 -720.0 L 639.0 -737.0 L 669.0 -737.0 L 730.0 -732.0 L 743.0 -730.0 L 756.0 -729.0 L 769.0 -728.0 Z M 938.0 -128.0 L 948.0 -232.0 L 774.0 -315.0 L 606.0 -396.0 L 435.0 -396.0 L 345.0 -396.0 L 295.0 -370.0 L 240.0 -342.0 L 238.0 -292.0 L 237.0 -261.0 L 283.0 -225.0 L 345.0 -178.0 L 347.0 -178.0 L 208.0 -178.0 L 138.0 -208.0 L 92.0 -227.0 L 60.0 -276.0 L 43.0 -315.0 L 42.0 -345.0 L 42.0 -406.0 L 111.0 -438.0 L 176.0 -468.0 L 299.0 -467.0 L 354.0 -467.0 L 412.5 -461.5 L 471.0 -456.0 L 519.0 -448.0 L 578.0 -439.0 L 637.0 -424.0 L 696.0 -409.0 L 756.0 -392.0 L 873.0 -359.0 L 1022.0 -261.0 L 1168.0 -165.0 L 1167.0 -124.0 L 1167.0 -105.0 L 1131.0 -105.0 L 1108.0 -105.0 L 1076.5 -107.0 L 1045.0 -109.0 L 1008.0 -116.0 L 995.0 -118.0 L 977.0 -121.0 L 959.0 -124.0 Z M 327.0 -219.0 L 340.0 -222.0 L 350.5 -227.0 L 361.0 -232.0 L 374.0 -234.0 L 396.0 -235.0 L 430.0 -236.0 L 464.0 -237.0 L 511.0 -237.0 L 567.0 -237.0 L 641.0 -224.0 L 662.0 -220.0 L 683.5 -213.5 L 705.0 -207.0 L 725.0 -202.0 L 806.0 -181.0 L 860.0 -144.0 L 913.0 -107.0 L 913.0 -63.0 L 913.0 -41.0 L 899.0 -22.0 L 894.0 -16.0 L 871.0 -16.0 L 854.0 -16.0 L 829.5 -18.5 L 805.0 -21.0 L 772.0 -28.0 L 761.0 -30.0 L 746.0 -33.0 L 731.0 -36.0 L 713.0 -41.0 L 733.0 -50.0 L 747.0 -69.0 L 762.0 -88.0 L 756.0 -100.0 L 746.0 -123.0 L 708.0 -144.0 L 670.0 -165.0 L 605.0 -177.0 L 535.0 -190.0 L 466.0 -199.0 L 397.0 -208.0 Z" fill="black" fill-opacity="0.25" stroke="black" stroke-width="4.0"/>
  <rect x="64.0" y="-958.0" width="1105.9999999999998" height="462.99999999999994" fill="none" stroke="red" stroke-width="10.0" /><rect x="42.0" y="-468.0" width="1126.0" height="363.00000000000006" fill="none" stroke="red" stroke-width="10.0" /><rect x="327.0" y="-237.0" width="586.0000000000001" height="220.99999999999997" fill="none" stroke="red" stroke-width="10.0" />
</svg>
