<svg xmlns="http://www.w3.org/2000/svg"
  viewBox="-8.0 -709.0 1206.0 907.0">
  <rect x="-8.0" y="-709.0" width="1206.0" height="907.0" fill="white"/>
  <path d="M 112.0 -121.0 L 164.0 -126.0 L 277.0 -126.0 L 313.0 -126.0 L 353.0 -122.0 L 393.0 -118.0 L 437.0 -108.0 L 463.0 -102.0 L 488.5 -96.0 L 514.0 -90.0 L 539.0 -82.0 L 637.0 -58.0 L 701.0 -10.0 L 764.0 36.0 L 765.0 90.0 L 765.0 121.0 L 750.0 140.0 L 743.0 148.0 L 715.0 148.0 L 674.0 148.0 L 596.0 132.0 L 584.0 130.0 L 565.0 127.0 L 546.0 124.0 L 523.0 118.0 L 548.0 106.0 L 565.0 82.0 L 582.0 58.0 L 576.0 44.0 L 564.0 15.0 L 518.5 -10.0 L 473.0 -35.0 L 393.0 -51.0 L 309.0 -68.0 L 224.0 -79.0 L 139.0 -90.0 L 54.0 -102.0 Z M 759.0 -429.0 L 753.0 -417.0 L 746.5 -398.0 L 740.0 -379.0 L 734.0 -354.0 L 871.0 -348.0 L 1102.0 -339.0 L 1148.0 -293.0 L 1006.0 -293.0 L 899.5 -293.0 L 793.0 -293.0 L 713.0 -294.0 L 696.0 -256.0 L 668.0 -228.0 L 657.0 -214.0 L 625.0 -204.0 L 608.0 -199.0 L 593.0 -198.0 L 578.0 -197.0 L 563.0 -196.0 L 541.0 -196.0 L 532.0 -199.0 L 519.0 -204.0 L 527.0 -213.0 L 552.0 -249.0 L 568.0 -299.0 L 556.0 -299.0 L 356.0 -308.0 L 257.0 -357.0 L 173.0 -396.0 L 71.0 -521.0 L 63.0 -535.0 L 59.0 -561.0 L 46.0 -635.0 L 42.0 -644.0 L 73.0 -648.0 L 110.0 -654.0 L 148.0 -659.0 L 164.0 -659.0 L 207.0 -658.0 L 235.0 -640.0 L 242.0 -636.0 L 243.0 -615.0 L 240.0 -569.0 L 240.0 -555.0 L 245.0 -549.0 L 337.0 -418.0 L 548.0 -376.0 L 556.0 -373.0 L 566.0 -372.0 L 576.0 -371.0 L 588.0 -370.0 L 593.0 -386.0 L 598.0 -398.0 L 603.0 -410.0 L 609.0 -421.0 L 617.0 -438.0 L 646.0 -438.0 L 707.0 -432.0 L 720.0 -431.0 L 733.0 -430.0 L 746.0 -429.0 Z" fill="black" fill-opacity="0.25" stroke="black" stroke-width="4.0"/>
  <rect x="54.0" y="-126.0" width="711.0" height="274.0" fill="none" stroke="red" stroke-width="10.0" /><rect x="42.0" y="-659.0" width="1105.9999999999998" height="463.0" fill="none" stroke="red" stroke-width="10.0" />
</svg>
