<svg xmlns="http://www.w3.org/2000/svg"
  viewBox="13 -1008 1226 975">
  <rect x="13" y="-1008" width="1226" height="975" fill="white"/>
  <path d="M 63 -344 L 63 -372 L 76.5 -391.5 L 90 -411 L 112.5 -424.5 L 135 -438 L 163 -445 L 191 -452 L 220 -456 L 249 -460 L 276 -461 L 303 -462 L 322 -462 L 440 -459 L 553.5 -436 L 667 -413 L 779 -377 L 899 -338 L 1042 -241 L 1185 -143 L 1185 -100 L 1185 -83 L 1149 -83 L 1102 -83 L 1051.5 -91 L 1001 -99 L 955 -112 L 969 -213 L 794 -301 L 709 -342 L 622.5 -364 L 536 -386 L 442 -386 L 416 -386 L 385 -383 L 354 -380 L 327 -369.5 L 300 -359 L 280.5 -339.5 L 261 -320 L 258 -286 L 256 -253 L 302 -218 L 363 -171 L 366 -171 L 296 -173 L 244.5 -181.5 L 193 -190 L 157 -205 L 112 -225 L 80 -274 L 63 -314 Z M 83 -944 L 99 -946 L 116 -948.5 L 133 -951 L 152 -954 L 165 -956 L 178 -957 L 191 -958 L 205 -958 L 248 -957 L 277 -940 L 285 -935 L 285 -915 L 282 -869 L 282 -856 L 287 -849 L 380 -717 L 589 -676 L 597 -673 L 607.5 -672 L 618 -671 L 630 -669 L 634 -685 L 639.5 -697 L 645 -709 L 650 -721 L 658 -738 L 688 -738 L 749 -732 L 761 -731 L 774.5 -730 L 788 -729 L 800 -729 L 794 -716 L 788 -697 L 782 -678 L 775 -654 L 913 -647 L 1144 -638 L 1189 -593 L 1039 -593 L 951 -593 L 882 -593 L 813 -593 L 755 -594 L 737 -557 L 710 -527 L 703 -517 L 688.5 -511 L 674 -505 L 658 -501.5 L 642 -498 L 626 -497 L 610 -496 L 598 -496 L 582 -496 L 574 -499 L 561 -504 L 569 -513 L 582 -531 L 592 -552.5 L 602 -574 L 610 -599 L 597 -599 L 496 -604 L 422.5 -618 L 349 -632 L 299 -657 L 215 -696 L 113 -821 L 105 -835 L 101 -862 L 95 -899 L 90 -919 L 85 -939 Z" fill="black" fill-opacity="0.25" stroke="black" stroke-width="4"/>
  <rect x="63" y="-462" width="1122" height="379" fill="none" stroke="red" stroke-width="10" /><rect x="83" y="-958" width="1106" height="462" fill="none" stroke="red" stroke-width="10" />
</svg>
