<svg xmlns="http://www.w3.org/2000/svg"
  viewBox="-8 -1008 1228 1042">
  <rect x="-8" y="-1008" width="1228" height="1042" fill="white"/>
  <path d="M 782 -728 L 776 -716 L 769.5 -697 L 763 -678 L 756 -653 L 894 -647 L 1125 -638 L 1170 -592 L 1028 -592 L 922 -592 L 816 -592 L 736 -594 L 719 -556 L 691 -526 L 680 -512 L 647 -503 L 630 -498 L 615 -497 L 600 -496 L 586 -495 L 564 -495 L 555 -499 L 542 -504 L 550 -513 L 575 -549 L 591 -599 L 578 -599 L 378 -608 L 280 -656 L 196 -695 L 94 -820 L 86 -834 L 82 -861 L 69 -935 L 64 -944 L 95 -948 L 133 -953 L 171 -958 L 186 -958 L 229 -957 L 258 -939 L 265 -934 L 266 -914 L 263 -869 L 263 -855 L 268 -849 L 360 -718 L 570 -675 L 578 -672 L 588.5 -671 L 599 -670 L 611 -669 L 615 -685 L 620.5 -697.5 L 626 -710 L 631 -720 L 639 -737 L 669 -737 L 730 -732 L 743 -730 L 756 -729 L 769 -728 Z M 938 -128 L 948 -232 L 774 -315 L 606 -396 L 435 -396 L 345 -396 L 295 -370 L 240 -342 L 238 -292 L 237 -261 L 283 -225 L 345 -178 L 347 -178 L 208 -178 L 138 -208 L 92 -227 L 60 -276 L 43 -315 L 42 -345 L 42 -406 L 111 -438 L 176 -468 L 299 -467 L 354 -467 L 412.5 -461.5 L 471 -456 L 519 -448 L 578 -439 L 637 -424 L 696 -409 L 756 -392 L 873 -359 L 1022 -261 L 1168 -165 L 1167 -124 L 1167 -105 L 1131 -105 L 1108 -105 L 1076.5 -107 L 1045 -109 L 1008 -116 L 995 -118 L 977 -121 L 959 -124 Z M 327 -219 L 340 -222 L 350.5 -227 L 361 -232 L 374 -234 L 396 -235 L 430 -236 L 464 -237 L 511 -237 L 567 -237 L 641 -224 L 662 -220 L 683.5 -213.5 L 705 -207 L 725 -202 L 806 -181 L 860 -144 L 913 -107 L 913 -63 L 913 -41 L 899 -22 L 894 -16 L 871 -16 L 854 -16 L 829.5 -18.5 L 805 -21 L 772 -28 L 761 -30 L 746 -33 L 731 -36 L 713 -41 L 733 -50 L 747 -69 L 762 -88 L 756 -100 L 746 -123 L 708 -144 L 670 -165 L 605 -177 L 535 -190 L 466 -199 L 397 -208 Z" fill="black" fill-opacity="0.25" stroke="black" stroke-width="4"/>
  <rect x="64" y="-958" width="1106" height="463" fill="none" stroke="red" stroke-width="10" /><rect x="42" y="-468" width="1126" height="363" fill="none" stroke="red" stroke-width="10" /><rect x="327" y="-237" width="586" height="221" fill="none" stroke="red" stroke-width="10" />
</svg>
