<svg xmlns="http://www.w3.org/2000/svg"
  viewBox="-353.0 -1191.0 726.0 350.0666666666667">
  <rect x="-353.0" y="-1191.0" width="726.0" height="350.0666666666667" fill="white"/>
  <path d="M 43.0 -1108.0 L 51.0 -1096.0 L 61.0 -1082.0 L 67.0 -1061.0 L 83.0 -1022.0 L 86.0 -1014.0 L 86.5 -1011.0 L 87.0 -1008.0 L 87.0 -1007.0 L 92.0 -991.0 L -173.0 -994.0 L -167.0 -983.0 L -162.0 -974.0 L -159.0 -966.0 L -156.0 -958.0 L -153.0 -951.0 L -138.0 -913.0 L -133.0 -899.0 L -133.0 -896.0 L -146.0 -896.0 L -154.0 -896.0 L -160.5 -895.0 L -167.0 -894.0 L -177.0 -892.0 L -196.0 -888.0 L -220.0 -899.0 L -228.0 -900.0 L -241.0 -910.0 L -273.0 -985.0 L -283.0 -1002.0 L -300.0 -1010.0 L -303.0 -1025.0 L -267.0 -1024.0 L -220.0 -1024.5 L -173.0 -1025.0 L -116.0 -1024.0 L -28.0 -1022.0 L -61.0 -1097.0 L -70.0 -1115.0 L -89.0 -1124.0 L -92.0 -1141.0 L 104.0 -1138.0 L 233.0 -1137.0 L 281.0 -1137.0 L 298.0 -1137.0 L 311.0 -1132.0 L 319.0 -1125.0 L 323.0 -1105.0 Z" fill="black" fill-opacity="0.25" stroke="black" stroke-width="4.0"/>
  <rect x="-301.20000000000005" y="-1016.0" width="393.2" height="125.1" fill="none" stroke="red" stroke-width="10.0" /><rect x="-303.0" y="-1141.0" width="626.0" height="125.0" fill="none" stroke="red" stroke-width="10.0" />
</svg>
