<svg xmlns="http://www.w3.org/2000/svg"
  viewBox="-487 -1191 847 350.067">
  <rect x="-487" y="-1191" width="847" height="350.067" fill="white"/>
  <path d="M -437 -988 L -437 -1004 L -426 -1014.5 L -415 -1025 L -401 -1025 L -385 -1025 L -374 -1014 L -363 -1003 L -363 -988 L -363 -972 L -374 -961.5 L -385 -951 L -401 -951 L -415 -951 L -426 -961.5 L -437 -972 Z M 30 -1108 L 38 -1095 L 48 -1081 L 54 -1061 L 69 -1022 L 72 -1014 L 73 -1011 L 74 -1008 L 74 -1007 L 79 -991 L -187 -994 L -181 -983 L -176 -974 L -173 -966 L -170 -958 L -167 -950 L -151 -913 L -146 -899 L -146 -896 L -159 -896 L -167 -896 L -174 -895 L -181 -894 L -190 -892 L -209 -888 L -233 -899 L -241 -900 L -254 -910 L -287 -985 L -296 -1002 L -314 -1010 L -316 -1025 L -280 -1024 L -233.5 -1024.5 L -187 -1025 L -129 -1024 L -42 -1022 L -74 -1097 L -84 -1114 L -103 -1124 L -106 -1141 L 91 -1138 L 220 -1136 L 268 -1136 L 285 -1136 L 298 -1132 L 306 -1125 L 310 -1105 Z" fill="black" fill-opacity="0.25" stroke="black" stroke-width="4"/>
  <rect x="-437" y="-1016" width="516" height="125.1" fill="none" stroke="red" stroke-width="10" /><rect x="-424.5" y="-1141" width="734.5" height="125" fill="none" stroke="red" stroke-width="10" />
</svg>
