<svg xmlns="http://www.w3.org/2000/svg"
  viewBox="-8 -1047 1273 1383">
  <rect x="-8" y="-1047" width="1273" height="1383" fill="white"/>
  <path d="M 781 -426 L 775 -414 L 768.5 -395 L 762 -376 L 755 -351 L 893 -345 L 1124 -336 L 1169 -290 L 1027 -290 L 921 -290 L 815 -290 L 735 -292 L 718 -254 L 690 -225 L 679 -211 L 646 -201 L 629 -196 L 614 -195 L 599 -194 L 585 -193 L 563 -193 L 554 -197 L 541 -202 L 549 -211 L 574 -247 L 590 -297 L 577 -297 L 377 -306 L 279 -354 L 195 -393 L 93 -518 L 85 -532 L 81 -559 L 68 -633 L 63 -642 L 94 -646 L 132 -651 L 170 -656 L 185 -656 L 228 -655 L 257 -637 L 264 -632 L 265 -612 L 262 -567 L 262 -553 L 267 -547 L 359 -416 L 569 -373 L 577 -370 L 587.5 -369.5 L 598 -369 L 610 -367 L 614 -383 L 619.5 -395.5 L 625 -408 L 630 -418 L 638 -435 L 668 -435 L 729 -430 L 742 -428 L 755 -427 L 768 -426 Z M 826 -767 L 820 -754 L 813.5 -735.5 L 807 -717 L 801 -692 L 938 -685 L 1169 -676 L 1215 -631 L 1073 -631 L 966.5 -631 L 860 -631 L 781 -633 L 763 -595 L 735 -565 L 724 -551 L 691 -542 L 674 -537 L 659.5 -536 L 645 -535 L 630 -534 L 608 -534 L 599 -537 L 586 -542 L 595 -551 L 620 -587 L 635 -637 L 623 -637 L 423 -646 L 324 -695 L 240 -734 L 138 -859 L 130 -873 L 126 -900 L 113 -973 L 108 -982 L 139 -987 L 177 -992 L 215 -997 L 230 -997 L 274 -996 L 302 -978 L 310 -973 L 310 -953 L 307 -908 L 307 -894 L 312 -887 L 404 -756 L 615 -714 L 623 -711 L 633 -710 L 643 -709 L 656 -707 L 660 -723 L 665 -735 L 670 -747 L 676 -759 L 684 -776 L 713 -776 L 774 -770 L 786 -769 L 800 -768 L 814 -767 Z M 937 174 L 947 70 L 773 -14 L 605 -95 L 434 -94 L 344 -94 L 294 -68 L 239 -40 L 237 10 L 236 41 L 282 77 L 344 124 L 346 124 L 207 124 L 137 94 L 91 75 L 59 25 L 42 -14 L 42 -43 L 42 -104 L 110 -136 L 175 -166 L 298 -165 L 353 -165 L 411.5 -159.5 L 470 -154 L 518 -146 L 577 -137 L 636 -122 L 695 -107 L 755 -90 L 872 -57 L 1021 41 L 1167 137 L 1167 178 L 1167 197 L 1130 197 L 1107 197 L 1075.5 195 L 1044 193 L 1007 186 L 994 184 L 976 181 L 958 178 Z M 326 83 L 339 80 L 349.5 75 L 360 70 L 373 67 L 395 66 L 429 65.5 L 463 65 L 510 65 L 566 65 L 640 78 L 661 82 L 682.5 88.5 L 704 95 L 724 100 L 805 121 L 859 158 L 912 195 L 912 239 L 912 261 L 898 280 L 893 286 L 870 286 L 853 286 L 828.5 283.5 L 804 281 L 771 274 L 760 272 L 745 269 L 730 266 L 712 261 L 732 252 L 746 233 L 761 214 L 755 202 L 745 179 L 707 158 L 669 137 L 604 125 L 534 112 L 465 103 L 396 94 Z" fill="black" fill-opacity="0.25" stroke="black" stroke-width="4"/>
  <rect x="63" y="-656" width="1106" height="463" fill="none" stroke="red" stroke-width="10" /><rect x="108" y="-997" width="1107" height="463" fill="none" stroke="red" stroke-width="10" /><rect x="42" y="-166" width="1125" height="363" fill="none" stroke="red" stroke-width="10" /><rect x="326" y="65" width="586" height="221" fill="none" stroke="red" stroke-width="10" />
</svg>
