<svg xmlns="http://www.w3.org/2000/svg"
  viewBox="-8.0 -1047.0 1273.0 1383.0">
  <rect x="-8.0" y="-1047.0" width="1273.0" height="1383.0" fill="white"/>
  <path d="M 781.0 -426.0 L 775.0 -414.0 L 768.5 -395.0 L 762.0 -376.0 L 755.0 -351.0 L 893.0 -345.0 L 1124.0 -336.0 L 1169.0 -290.0 L 1027.0 -290.0 L 921.0 -290.0 L 815.0 -290.0 L 735.0 -292.0 L 718.0 -254.0 L 690.0 -225.0 L 679.0 -211.0 L 646.0 -201.0 L 629.0 -196.0 L 614.0 -195.0 L 599.0 -194.0 L 585.0 -193.0 L 563.0 -193.0 L 554.0 -197.0 L 541.0 -202.0 L 549.0 -211.0 L 574.0 -247.0 L 590.0 -297.0 L 577.0 -297.0 L 377.0 -306.0 L 279.0 -354.0 L 195.0 -393.0 L 93.0 -518.0 L 85.0 -532.0 L 81.0 -559.0 L 68.0 -633.0 L 63.0 -642.0 L 94.0 -646.0 L 132.0 -651.0 L 170.0 -656.0 L 185.0 -656.0 L 228.0 -655.0 L 257.0 -637.0 L 264.0 -632.0 L 265.0 -612.0 L 262.0 -567.0 L 262.0 -553.0 L 267.0 -547.0 L 359.0 -416.0 L 569.0 -373.0 L 577.0 -370.0 L 587.5 -369.5 L 598.0 -369.0 L 610.0 -367.0 L 614.0 -383.0 L 619.5 -395.5 L 625.0 -408.0 L 630.0 -418.0 L 638.0 -435.0 L 668.0 -435.0 L 729.0 -430.0 L 742.0 -428.0 L 755.0 -427.0 L 768.0 -426.0 Z M 826.0 -767.0 L 820.0 -754.0 L 813.5 -735.5 L 807.0 -717.0 L 801.0 -692.0 L 938.0 -685.0 L 1169.0 -676.0 L 1215.0 -631.0 L 1073.0 -631.0 L 966.5 -631.0 L 860.0 -631.0 L 781.0 -633.0 L 763.0 -595.0 L 735.0 -565.0 L 724.0 -551.0 L 691.0 -542.0 L 674.0 -537.0 L 659.5 -536.0 L 645.0 -535.0 L 630.0 -534.0 L 608.0 -534.0 L 599.0 -537.0 L 586.0 -542.0 L 595.0 -551.0 L 620.0 -587.0 L 635.0 -637.0 L 623.0 -637.0 L 423.0 -646.0 L 324.0 -695.0 L 240.0 -734.0 L 138.0 -859.0 L 130.0 -873.0 L 126.0 -900.0 L 113.0 -973.0 L 108.0 -982.0 L 139.0 -987.0 L 177.0 -992.0 L 215.0 -997.0 L 230.0 -997.0 L 274.0 -996.0 L 302.0 -978.0 L 310.0 -973.0 L 310.0 -953.0 L 307.0 -908.0 L 307.0 -894.0 L 312.0 -887.0 L 404.0 -756.0 L 615.0 -714.0 L 623.0 -711.0 L 633.0 -710.0 L 643.0 -709.0 L 656.0 -707.0 L 660.0 -723.0 L 665.0 -735.0 L 670.0 -747.0 L 676.0 -759.0 L 684.0 -776.0 L 713.0 -776.0 L 774.0 -770.0 L 786.0 -769.0 L 800.0 -768.0 L 814.0 -767.0 Z M 937.0 174.0 L 947.0 70.0 L 773.0 -14.0 L 605.0 -95.0 L 434.0 -94.0 L 344.0 -94.0 L 294.0 -68.0 L 239.0 -40.0 L 237.0 10.0 L 236.0 41.0 L 282.0 77.0 L 344.0 124.0 L 346.0 124.0 L 207.0 124.0 L 137.0 94.0 L 91.0 75.0 L 59.0 25.0 L 42.0 -14.0 L 42.0 -43.0 L 42.0 -104.0 L 110.0 -136.0 L 175.0 -166.0 L 298.0 -165.0 L 353.0 -165.0 L 411.5 -159.5 L 470.0 -154.0 L 518.0 -146.0 L 577.0 -137.0 L 636.0 -122.0 L 695.0 -107.0 L 755.0 -90.0 L 872.0 -57.0 L 1021.0 41.0 L 1167.0 137.0 L 1167.0 178.0 L 1167.0 197.0 L 1130.0 197.0 L 1107.0 197.0 L 1075.5 195.0 L 1044.0 193.0 L 1007.0 186.0 L 994.0 184.0 L 976.0 181.0 L 958.0 178.0 Z M 326.0 83.0 L 339.0 80.0 L 349.5 75.0 L 360.0 70.0 L 373.0 67.0 L 395.0 66.0 L 429.0 65.5 L 463.0 65.0 L 510.0 65.0 L 566.0 65.0 L 640.0 78.0 L 661.0 82.0 L 682.5 88.5 L 704.0 95.0 L 724.0 100.0 L 805.0 121.0 L 859.0 158.0 L 912.0 195.0 L 912.0 239.0 L 912.0 261.0 L 898.0 280.0 L 893.0 286.0 L 870.0 286.0 L 853.0 286.0 L 828.5 283.5 L 804.0 281.0 L 771.0 274.0 L 760.0 272.0 L 745.0 269.0 L 730.0 266.0 L 712.0 261.0 L 732.0 252.0 L 746.0 233.0 L 761.0 214.0 L 755.0 202.0 L 745.0 179.0 L 707.0 158.0 L 669.0 137.0 L 604.0 125.0 L 534.0 112.0 L 465.0 103.0 L 396.0 94.0 Z" fill="black" fill-opacity="0.25" stroke="black" stroke-width="4.0"/>
  <rect x="63.0" y="-656.0" width="1106.0" height="463.0" fill="none" stroke="red" stroke-width="10.0" /><rect x="108.0" y="-997.0" width="1107.0" height="462.99999999999994" fill="none" stroke="red" stroke-width="10.0" /><rect x="42.0" y="-166.0" width="1125.0" height="363.0" fill="none" stroke="red" stroke-width="10.0" /><rect x="326.0" y="65.0" width="586.0000000000001" height="220.99999999999997" fill="none" stroke="red" stroke-width="10.0" />
</svg>
