<svg xmlns="http://www.w3.org/2000/svg"
  viewBox="-11.0 -1052.1666666666665 1251.0 903.3666666666666">
  <rect x="-11.0" y="-1052.1666666666665" width="1251.0" height="903.3666666666666" fill="white"/>
  <path d="M 755.0 -432.0 L 749.0 -419.0 L 743.0 -400.5 L 737.0 -382.0 L 730.0 -357.0 L 868.0 -351.0 L 1099.0 -342.0 L 1145.0 -296.0 L 1003.0 -296.0 L 896.5 -296.0 L 790.0 -296.0 L 710.0 -298.0 L 692.0 -260.0 L 665.0 -230.0 L 654.0 -216.0 L 621.0 -207.0 L 604.0 -202.0 L 589.0 -201.0 L 574.0 -200.0 L 560.0 -199.0 L 538.0 -198.0 L 529.0 -202.0 L 516.0 -207.0 L 524.0 -216.0 L 549.0 -252.0 L 565.0 -302.0 L 552.0 -302.0 L 352.0 -311.0 L 254.0 -360.0 L 170.0 -399.0 L 68.0 -524.0 L 60.0 -538.0 L 56.0 -565.0 L 43.0 -639.0 L 39.0 -647.0 L 70.0 -652.0 L 107.0 -657.0 L 145.0 -662.0 L 160.0 -662.0 L 204.0 -661.0 L 232.0 -643.0 L 240.0 -638.0 L 240.0 -618.0 L 237.0 -573.0 L 237.0 -559.0 L 242.0 -552.0 L 334.0 -421.0 L 544.0 -379.0 L 552.0 -376.0 L 562.5 -375.0 L 573.0 -374.0 L 585.0 -373.0 L 589.0 -389.0 L 594.5 -401.0 L 600.0 -413.0 L 605.0 -424.0 L 613.0 -441.0 L 643.0 -441.0 L 704.0 -435.0 L 716.0 -434.0 L 729.5 -433.0 L 743.0 -432.0 Z M 801.0 -772.0 L 795.0 -760.0 L 788.5 -741.5 L 782.0 -723.0 L 776.0 -698.0 L 914.0 -691.0 L 1145.0 -682.0 L 1190.0 -637.0 L 1048.0 -637.0 L 941.5 -637.0 L 835.0 -637.0 L 755.0 -638.0 L 738.0 -600.0 L 710.0 -571.0 L 699.0 -557.0 L 667.0 -548.0 L 650.0 -543.0 L 635.0 -541.5 L 620.0 -540.0 L 605.0 -540.0 L 583.0 -540.0 L 574.0 -543.0 L 561.0 -548.0 L 570.0 -557.0 L 595.0 -593.0 L 610.0 -643.0 L 598.0 -643.0 L 398.0 -652.0 L 299.0 -701.0 L 215.0 -740.0 L 113.0 -865.0 L 105.0 -880.0 L 101.0 -905.0 L 88.0 -979.0 L 83.0 -988.0 L 114.0 -992.0 L 152.0 -998.0 L 190.0 -1003.0 L 206.0 -1002.0 L 249.0 -1001.0 L 277.0 -983.0 L 284.0 -979.0 L 285.0 -958.0 L 282.0 -913.0 L 282.0 -899.0 L 287.0 -893.0 L 379.0 -762.0 L 590.0 -720.0 L 598.0 -717.0 L 608.0 -716.0 L 618.0 -715.0 L 630.0 -713.0 L 635.0 -729.0 L 640.5 -741.5 L 646.0 -754.0 L 651.0 -765.0 L 660.0 -783.0 L 688.0 -782.0 L 750.0 -776.0 L 762.0 -775.0 L 775.5 -773.5 L 789.0 -772.0 Z" fill="black" fill-opacity="0.25" stroke="black" stroke-width="4.0"/>
  <rect x="39.0" y="-662.0" width="1106.0" height="464.0" fill="none" stroke="red" stroke-width="10.0" /><rect x="83.0" y="-1002.9999999999999" width="1107.0" height="462.99999999999983" fill="none" stroke="red" stroke-width="10.0" />
</svg>
