<svg xmlns="http://www.w3.org/2000/svg"
  viewBox="13 -1045 1272 1315">
  <rect x="13" y="-1045" width="1272" height="1315" fill="white"/>
  <path d="M 63 -41 L 63 -69 L 76.5 -88.5 L 90 -108 L 112.5 -121 L 135 -134 L 163 -141.5 L 191 -149 L 220 -152.5 L 249 -156 L 276 -157 L 303 -158 L 322 -158 L 440 -155 L 553.5 -132 L 667 -109 L 779 -73 L 900 -35 L 1042 63 L 1185 161 L 1185 203 L 1185 220 L 1149 220 L 1102 220 L 1051.5 212.5 L 1001 205 L 955 192 L 969 91 L 794 3 L 709 -38 L 622.5 -60.5 L 536 -83 L 442 -83 L 416 -83 L 385 -79.5 L 354 -76 L 327 -65.5 L 300 -55 L 280.5 -35.5 L 261 -16 L 258 17 L 256 50 L 302 86 L 363 133 L 366 133 L 296 131 L 244.5 122.5 L 193 114 L 157 98 L 112 78 L 80 30 L 63 -11 Z M 83 -640 L 99 -642 L 116 -645 L 133 -648 L 152 -650 L 165 -652 L 178 -653.5 L 191 -655 L 205 -655 L 249 -654 L 277 -636 L 285 -631 L 285 -611 L 282 -566 L 282 -553 L 287 -545 L 380 -413 L 589 -372 L 597 -369 L 607.5 -368 L 618 -367 L 630 -365 L 634 -381 L 639.5 -393.5 L 645 -406 L 650 -417 L 658 -434 L 688 -434 L 749 -428 L 761 -427 L 774.5 -426 L 788 -425 L 800 -425 L 794 -412 L 788 -393.5 L 782 -375 L 775 -350 L 913 -343 L 1144 -334 L 1189 -289 L 1039 -289 L 951 -289 L 882 -289 L 813 -289 L 755 -291 L 737 -254 L 710 -223 L 703 -213 L 688.5 -207 L 674 -201 L 658 -198 L 642 -195 L 626 -193.5 L 610 -192 L 598 -192 L 582 -192 L 574 -195 L 561 -200 L 569 -209 L 582 -227 L 592 -248.5 L 602 -270 L 610 -295 L 597 -295 L 496 -300 L 422.5 -314 L 349 -328 L 299 -353 L 215 -392 L 113 -517 L 105 -531 L 101 -558 L 95 -595 L 90 -615 L 85 -635 Z M 128 -981 L 144 -983 L 161.5 -985.5 L 179 -988 L 197 -990 L 214 -992 L 226.5 -993.5 L 239 -995 L 247 -995 L 267 -995 L 286 -991 L 305 -987 L 322 -976 L 329 -971 L 330 -951 L 327 -906 L 327 -893 L 332 -886 L 425 -755 L 635 -713 L 643 -710 L 653 -709 L 663 -708 L 675 -706 L 680 -722 L 685 -734 L 690 -746 L 696 -758 L 705 -775 L 733 -775 L 794 -769 L 806 -768 L 819.5 -766.5 L 833 -765 L 846 -765 L 840 -753 L 833.5 -734.5 L 827 -716 L 821 -691 L 958 -684 L 1189 -675 L 1235 -630 L 1062 -630 L 982 -630 L 918 -630 L 854 -630 L 800 -631 L 783 -593 L 755 -564 L 747 -554 L 733 -548 L 719 -542 L 703 -538.5 L 687 -535 L 671 -534 L 655 -533 L 643 -533 L 626 -533 L 619 -536 L 606 -541 L 615 -550 L 640 -585 L 655 -636 L 643 -636 L 444 -645 L 344 -694 L 260 -733 L 158 -858 L 150 -871 L 146 -898 L 133 -972 Z" fill="black" fill-opacity="0.25" stroke="black" stroke-width="4"/>
  <rect x="63" y="-158" width="1122" height="378" fill="none" stroke="red" stroke-width="10" /><rect x="83" y="-655" width="1106" height="463" fill="none" stroke="red" stroke-width="10" /><rect x="128" y="-995" width="1107" height="462" fill="none" stroke="red" stroke-width="10" />
</svg>
