<svg xmlns="http://www.w3.org/2000/svg"
  viewBox="-11 -1052.167 1251 903.367">
  <rect x="-11" y="-1052.167" width="1251" height="903.367" fill="white"/>
  <path d="M 755 -432 L 749 -419 L 743 -400.5 L 737 -382 L 730 -357 L 868 -351 L 1099 -342 L 1145 -296 L 1003 -296 L 896.5 -296 L 790 -296 L 710 -298 L 692 -260 L 665 -230 L 654 -216 L 621 -207 L 604 -202 L 589 -201 L 574 -200 L 560 -199 L 538 -198 L 529 -202 L 516 -207 L 524 -216 L 549 -252 L 565 -302 L 552 -302 L 352 -311 L 254 -360 L 170 -399 L 68 -524 L 60 -538 L 56 -565 L 43 -639 L 39 -647 L 70 -652 L 107 -657 L 145 -662 L 160 -662 L 204 -661 L 232 -643 L 240 -638 L 240 -618 L 237 -573 L 237 -559 L 242 -552 L 334 -421 L 544 -379 L 552 -376 L 562.5 -375 L 573 -374 L 585 -373 L 589 -389 L 594.5 -401 L 600 -413 L 605 -424 L 613 -441 L 643 -441 L 704 -435 L 716 -434 L 729.5 -433 L 743 -432 Z M 801 -772 L 795 -760 L 788.5 -741.5 L 782 -723 L 776 -698 L 914 -691 L 1145 -682 L 1190 -637 L 1048 -637 L 941.5 -637 L 835 -637 L 755 -638 L 738 -600 L 710 -571 L 699 -557 L 667 -548 L 650 -543 L 635 -541.5 L 620 -540 L 605 -540 L 583 -540 L 574 -543 L 561 -548 L 570 -557 L 595 -593 L 610 -643 L 598 -643 L 398 -652 L 299 -701 L 215 -740 L 113 -865 L 105 -880 L 101 -905 L 88 -979 L 83 -988 L 114 -992 L 152 -998 L 190 -1003 L 206 -1002 L 249 -1001 L 277 -983 L 284 -979 L 285 -958 L 282 -913 L 282 -899 L 287 -893 L 379 -762 L 590 -720 L 598 -717 L 608 -716 L 618 -715 L 630 -713 L 635 -729 L 640.5 -741.5 L 646 -754 L 651 -765 L 660 -783 L 688 -782 L 750 -776 L 762 -775 L 775.5 -773.5 L 789 -772 Z" fill="black" fill-opacity="0.25" stroke="black" stroke-width="4"/>
  <rect x="39" y="-662" width="1106" height="464" fill="none" stroke="red" stroke-width="10" /><rect x="83" y="-1003" width="1107" height="463" fill="none" stroke="red" stroke-width="10" />
</svg>
