<svg xmlns="http://www.w3.org/2000/svg"
  viewBox="13.0 -1045.0 1272.0 1315.0">
  <rect x="13.0" y="-1045.0" width="1272.0" height="1315.0" fill="white"/>
  <path d="M 63.0 -41.0 L 63.0 -69.0 L 76.5 -88.5 L 90.0 -108.0 L 112.5 -121.0 L 135.0 -134.0 L 163.0 -141.5 L 191.0 -149.0 L 220.0 -152.5 L 249.0 -156.0 L 276.0 -157.0 L 303.0 -158.0 L 322.0 -158.0 L 440.0 -155.0 L 553.5 -132.0 L 667.0 -109.0 L 779.0 -73.0 L 900.0 -35.0 L 1042.0 63.0 L 1185.0 161.0 L 1185.0 203.0 L 1185.0 220.0 L 1149.0 220.0 L 1102.0 220.0 L 1051.5 212.5 L 1001.0 205.0 L 955.0 192.0 L 969.0 91.0 L 794.0 3.0 L 709.0 -38.0 L 622.5 -60.5 L 536.0 -83.0 L 442.0 -83.0 L 416.0 -83.0 L 385.0 -79.5 L 354.0 -76.0 L 327.0 -65.5 L 300.0 -55.0 L 280.5 -35.5 L 261.0 -16.0 L 258.0 17.0 L 256.0 50.0 L 302.0 86.0 L 363.0 133.0 L 366.0 133.0 L 296.0 131.0 L 244.5 122.5 L 193.0 114.0 L 157.0 98.0 L 112.0 78.0 L 80.0 30.0 L 63.0 -11.0 Z M 83.0 -640.0 L 99.0 -642.0 L 116.0 -645.0 L 133.0 -648.0 L 152.0 -650.0 L 165.0 -652.0 L 178.0 -653.5 L 191.0 -655.0 L 205.0 -655.0 L 249.0 -654.0 L 277.0 -636.0 L 285.0 -631.0 L 285.0 -611.0 L 282.0 -566.0 L 282.0 -553.0 L 287.0 -545.0 L 380.0 -413.0 L 589.0 -372.0 L 597.0 -369.0 L 607.5 -368.0 L 618.0 -367.0 L 630.0 -365.0 L 634.0 -381.0 L 639.5 -393.5 L 645.0 -406.0 L 650.0 -417.0 L 658.0 -434.0 L 688.0 -434.0 L 749.0 -428.0 L 761.0 -427.0 L 774.5 -426.0 L 788.0 -425.0 L 800.0 -425.0 L 794.0 -412.0 L 788.0 -393.5 L 782.0 -375.0 L 775.0 -350.0 L 913.0 -343.0 L 1144.0 -334.0 L 1189.0 -289.0 L 1039.0 -289.0 L 951.0 -289.0 L 882.0 -289.0 L 813.0 -289.0 L 755.0 -291.0 L 737.0 -254.0 L 710.0 -223.0 L 703.0 -213.0 L 688.5 -207.0 L 674.0 -201.0 L 658.0 -198.0 L 642.0 -195.0 L 626.0 -193.5 L 610.0 -192.0 L 598.0 -192.0 L 582.0 -192.0 L 574.0 -195.0 L 561.0 -200.0 L 569.0 -209.0 L 582.0 -227.0 L 592.0 -248.5 L 602.0 -270.0 L 610.0 -295.0 L 597.0 -295.0 L 496.0 -300.0 L 422.5 -314.0 L 349.0 -328.0 L 299.0 -353.0 L 215.0 -392.0 L 113.0 -517.0 L 105.0 -531.0 L 101.0 -558.0 L 95.0 -595.0 L 90.0 -615.0 L 85.0 -635.0 Z M 128.0 -981.0 L 144.0 -983.0 L 161.5 -985.5 L 179.0 -988.0 L 197.0 -990.0 L 214.0 -992.0 L 226.5 -993.5 L 239.0 -995.0 L 247.0 -995.0 L 267.0 -995.0 L 286.0 -991.0 L 305.0 -987.0 L 322.0 -976.0 L 329.0 -971.0 L 330.0 -951.0 L 327.0 -906.0 L 327.0 -893.0 L 332.0 -886.0 L 425.0 -755.0 L 635.0 -713.0 L 643.0 -710.0 L 653.0 -709.0 L 663.0 -708.0 L 675.0 -706.0 L 680.0 -722.0 L 685.0 -734.0 L 690.0 -746.0 L 696.0 -758.0 L 705.0 -775.0 L 733.0 -775.0 L 794.0 -769.0 L 806.0 -768.0 L 819.5 -766.5 L 833.0 -765.0 L 846.0 -765.0 L 840.0 -753.0 L 833.5 -734.5 L 827.0 -716.0 L 821.0 -691.0 L 958.0 -684.0 L 1189.0 -675.0 L 1235.0 -630.0 L 1062.0 -630.0 L 982.0 -630.0 L 918.0 -630.0 L 854.0 -630.0 L 800.0 -631.0 L 783.0 -593.0 L 755.0 -564.0 L 747.0 -554.0 L 733.0 -548.0 L 719.0 -542.0 L 703.0 -538.5 L 687.0 -535.0 L 671.0 -534.0 L 655.0 -533.0 L 643.0 -533.0 L 626.0 -533.0 L 619.0 -536.0 L 606.0 -541.0 L 615.0 -550.0 L 640.0 -585.0 L 655.0 -636.0 L 643.0 -636.0 L 444.0 -645.0 L 344.0 -694.0 L 260.0 -733.0 L 158.0 -858.0 L 150.0 -871.0 L 146.0 -898.0 L 133.0 -972.0 Z" fill="black" fill-opacity="0.25" stroke="black" stroke-width="4.0"/>
  <rect x="63.0" y="-158.0" width="1122.0" height="378.0" fill="none" stroke="red" stroke-width="10.0" /><rect x="83.0" y="-655.0" width="1106.0" height="463.0" fill="none" stroke="red" stroke-width="10.0" /><rect x="128.0" y="-995.0" width="1107.0000000000002" height="461.99999999999994" fill="none" stroke="red" stroke-width="10.0" />
</svg>
