<svg xmlns="http://www.w3.org/2000/svg"
  viewBox="-12 -1051.167 1252 1246.167">
  <rect x="-12" y="-1051.167" width="1252" height="1246.167" fill="white"/>
  <path d="M 108 -123 L 160 -128 L 274 -128 L 310 -128 L 350 -124 L 390 -120 L 434 -111 L 460 -105 L 485 -98.5 L 510 -92 L 535 -84 L 634 -60 L 698 -13 L 761 33 L 762 88 L 762 119 L 746 137 L 739 145 L 711 145 L 670 145 L 593 130 L 581 128 L 562 125 L 543 122 L 520 116 L 545 104 L 562 80 L 579 56 L 573 42 L 561 13 L 515 -12 L 469 -37 L 390 -53 L 306 -70 L 220.5 -81 L 135 -92 L 51 -105 Z M 755 -431 L 749 -419 L 743 -400 L 737 -381 L 730 -356 L 868 -350 L 1099 -341 L 1145 -295 L 1003 -295 L 896.5 -295 L 790 -295 L 710 -297 L 693 -259 L 665 -230 L 654 -216 L 621 -206 L 604 -201 L 589 -200 L 574 -199 L 560 -199 L 538 -199 L 529 -202 L 516 -207 L 524 -216 L 549 -252 L 565 -302 L 552 -302 L 352 -311 L 254 -359 L 170 -398 L 68 -523 L 60 -537 L 55 -564 L 42 -638 L 38 -647 L 69 -651 L 107 -656 L 145 -661 L 160 -661 L 203 -660 L 232 -642 L 239 -638 L 240 -617 L 237 -572 L 237 -558 L 241 -552 L 333 -421 L 544 -378 L 552 -375 L 562.5 -374 L 573 -373 L 585 -372 L 590 -388 L 595 -400 L 600 -412 L 605 -423 L 614 -441 L 643 -441 L 704 -434 L 717 -433 L 729.5 -432 L 742 -431 Z M 801 -772 L 795 -759 L 788.5 -740.5 L 782 -722 L 776 -697 L 913 -691 L 1144 -681 L 1190 -636 L 1047 -636 L 941 -636 L 835 -636 L 755 -638 L 738 -600 L 710 -570 L 699 -555 L 667 -547 L 649 -542 L 634.5 -540.5 L 620 -539 L 605 -539 L 583 -539 L 574 -542 L 561 -547 L 569 -556 L 594 -592 L 610 -642 L 598 -642 L 398 -652 L 299 -700 L 215 -739 L 113 -864 L 105 -878 L 101 -905 L 88 -978 L 83 -988 L 114 -993 L 152 -997 L 190 -1002 L 206 -1001 L 249 -1000 L 277 -983 L 285 -978 L 285 -958 L 282 -912 L 282 -898 L 287 -892 L 380 -761 L 590 -719 L 598 -716 L 608 -715 L 618 -714 L 630 -712 L 635 -728 L 640 -740.5 L 645 -753 L 651 -764 L 659 -781 L 688 -781 L 749 -775 L 762 -774 L 775 -773 L 788 -772 Z" fill="black" fill-opacity="0.25" stroke="black" stroke-width="4"/>
  <rect x="51" y="-128" width="711" height="273" fill="none" stroke="red" stroke-width="10" /><rect x="38" y="-661" width="1107" height="462" fill="none" stroke="red" stroke-width="10" /><rect x="83" y="-1002" width="1107" height="463" fill="none" stroke="red" stroke-width="10" />
</svg>
