<svg xmlns="http://www.w3.org/2000/svg"
  viewBox="-12.0 -1051.1666666666665 1252.0 1246.1666666666665">
  <rect x="-12.0" y="-1051.1666666666665" width="1252.0" height="1246.1666666666665" fill="white"/>
  <path d="M 108.0 -123.0 L 160.0 -128.0 L 274.0 -128.0 L 310.0 -128.0 L 350.0 -124.0 L 390.0 -120.0 L 434.0 -111.0 L 460.0 -105.0 L 485.0 -98.5 L 510.0 -92.0 L 535.0 -84.0 L 634.0 -60.0 L 698.0 -13.0 L 761.0 33.0 L 762.0 88.0 L 762.0 119.0 L 746.0 137.0 L 739.0 145.0 L 711.0 145.0 L 670.0 145.0 L 593.0 130.0 L 581.0 128.0 L 562.0 125.0 L 543.0 122.0 L 520.0 116.0 L 545.0 104.0 L 562.0 80.0 L 579.0 56.0 L 573.0 42.0 L 561.0 13.0 L 515.0 -12.0 L 469.0 -37.0 L 390.0 -53.0 L 306.0 -70.0 L 220.5 -81.0 L 135.0 -92.0 L 51.0 -105.0 Z M 755.0 -431.0 L 749.0 -419.0 L 743.0 -400.0 L 737.0 -381.0 L 730.0 -356.0 L 868.0 -350.0 L 1099.0 -341.0 L 1145.0 -295.0 L 1003.0 -295.0 L 896.5 -295.0 L 790.0 -295.0 L 710.0 -297.0 L 693.0 -259.0 L 665.0 -230.0 L 654.0 -216.0 L 621.0 -206.0 L 604.0 -201.0 L 589.0 -200.0 L 574.0 -199.0 L 560.0 -199.0 L 538.0 -199.0 L 529.0 -202.0 L 516.0 -207.0 L 524.0 -216.0 L 549.0 -252.0 L 565.0 -302.0 L 552.0 -302.0 L 352.0 -311.0 L 254.0 -359.0 L 170.0 -398.0 L 68.0 -523.0 L 60.0 -537.0 L 55.0 -564.0 L 42.0 -638.0 L 38.0 -647.0 L 69.0 -651.0 L 107.0 -656.0 L 145.0 -661.0 L 160.0 -661.0 L 203.0 -660.0 L 232.0 -642.0 L 239.0 -638.0 L 240.0 -617.0 L 237.0 -572.0 L 237.0 -558.0 L 241.0 -552.0 L 333.0 -421.0 L 544.0 -378.0 L 552.0 -375.0 L 562.5 -374.0 L 573.0 -373.0 L 585.0 -372.0 L 590.0 -388.0 L 595.0 -400.0 L 600.0 -412.0 L 605.0 -423.0 L 614.0 -441.0 L 643.0 -441.0 L 704.0 -434.0 L 717.0 -433.0 L 729.5 -432.0 L 742.0 -431.0 Z M 801.0 -772.0 L 795.0 -759.0 L 788.5 -740.5 L 782.0 -722.0 L 776.0 -697.0 L 913.0 -691.0 L 1144.0 -681.0 L 1190.0 -636.0 L 1047.0 -636.0 L 941.0 -636.0 L 835.0 -636.0 L 755.0 -638.0 L 738.0 -600.0 L 710.0 -570.0 L 699.0 -555.0 L 667.0 -547.0 L 649.0 -542.0 L 634.5 -540.5 L 620.0 -539.0 L 605.0 -539.0 L 583.0 -539.0 L 574.0 -542.0 L 561.0 -547.0 L 569.0 -556.0 L 594.0 -592.0 L 610.0 -642.0 L 598.0 -642.0 L 398.0 -652.0 L 299.0 -700.0 L 215.0 -739.0 L 113.0 -864.0 L 105.0 -878.0 L 101.0 -905.0 L 88.0 -978.0 L 83.0 -988.0 L 114.0 -993.0 L 152.0 -997.0 L 190.0 -1002.0 L 206.0 -1001.0 L 249.0 -1000.0 L 277.0 -983.0 L 285.0 -978.0 L 285.0 -958.0 L 282.0 -912.0 L 282.0 -898.0 L 287.0 -892.0 L 380.0 -761.0 L 590.0 -719.0 L 598.0 -716.0 L 608.0 -715.0 L 618.0 -714.0 L 630.0 -712.0 L 635.0 -728.0 L 640.0 -740.5 L 645.0 -753.0 L 651.0 -764.0 L 659.0 -781.0 L 688.0 -781.0 L 749.0 -775.0 L 762.0 -774.0 L 775.0 -773.0 L 788.0 -772.0 Z" fill="black" fill-opacity="0.25" stroke="black" stroke-width="4.0"/>
  <rect x="51.0" y="-128.0" width="711.0" height="273.0" fill="none" stroke="red" stroke-width="10.0" /><rect x="38.0" y="-661.0" width="1107.0" height="462.0" fill="none" stroke="red" stroke-width="10.0" /><rect x="83.0" y="-1002.0" width="1107.0" height="462.99999999999994" fill="none" stroke="red" stroke-width="10.0" />
</svg>
