<svg xmlns="http://www.w3.org/2000/svg"
  viewBox="10 -532 1225.007 462">
  <rect x="10" y="-532" width="1225.007" height="462" fill="white"/>
  <path d="M 60 -360 L 60 -388 L 73.5 -408 L 87 -428 L 109 -441 L 131 -454 L 159 -463 L 187 -472 L 215.5 -476 L 244 -480 L 270.5 -481 L 297 -482 L 316 -482 L 376 -482 L 433.5 -476 L 491 -470 L 547.5 -460 L 604 -450 L 660.5 -437 L 717 -424 L 774 -408 L 891 -374 L 1040 -276 L 1186 -178 L 1185 -138 L 1184 -120 L 1149 -120 L 1102 -120 L 1052 -126 L 1002 -132 L 956 -142 L 967 -246 L 792 -330 L 624 -410 L 452 -410 L 435 -410 L 414.5 -409 L 394 -408 L 372.5 -404 L 351 -400 L 330.5 -393 L 310 -386 L 293.5 -374 L 277 -362 L 266.5 -346 L 256 -330 L 255 -306 L 254 -276 L 301 -240 L 361 -194 L 365 -192 L 226 -194 L 155 -222 L 108 -242 L 77 -292 L 60 -332 Z" fill="black" fill-opacity="0.25" stroke="black" stroke-width="4"/>
  <rect x="60" y="-482" width="1126" height="362" fill="none" stroke="red" stroke-width="10" />
</svg>
