<svg xmlns="http://www.w3.org/2000/svg"
  viewBox="32.0 -538.0 1225.0068027210884 552.0">
  <rect x="32.0" y="-538.0" width="1225.0068027210884" height="552.0" fill="white"/>
  <path d="M 82.0 -366.0 L 82.0 -394.0 L 95.5 -414.0 L 109.0 -434.0 L 131.0 -447.5 L 153.0 -461.0 L 180.5 -469.0 L 208.0 -477.0 L 237.0 -481.5 L 266.0 -486.0 L 292.5 -487.0 L 319.0 -488.0 L 338.0 -488.0 L 399.0 -488.0 L 456.5 -482.5 L 514.0 -477.0 L 570.0 -467.0 L 626.0 -457.0 L 682.0 -443.5 L 738.0 -430.0 L 796.0 -413.0 L 914.0 -379.0 L 1062.0 -282.0 L 1208.0 -186.0 L 1207.0 -144.0 L 1207.0 -125.0 L 1171.0 -126.0 L 1124.0 -126.0 L 1074.0 -132.5 L 1024.0 -139.0 L 978.0 -149.0 L 989.0 -253.0 L 813.0 -337.0 L 646.0 -417.0 L 474.0 -416.0 L 457.0 -416.0 L 436.5 -414.5 L 416.0 -413.0 L 394.5 -409.5 L 373.0 -406.0 L 352.5 -398.5 L 332.0 -391.0 L 315.5 -379.5 L 299.0 -368.0 L 288.5 -352.0 L 278.0 -336.0 L 277.0 -313.0 L 276.0 -282.0 L 323.0 -246.0 L 381.0 -201.0 L 386.0 -199.0 L 247.0 -200.0 L 177.0 -229.0 L 130.0 -249.0 L 99.0 -298.0 L 82.0 -337.0 Z M 366.0 -240.0 L 379.0 -243.0 L 390.0 -247.5 L 401.0 -252.0 L 413.0 -255.0 L 449.0 -257.0 L 484.5 -258.0 L 520.0 -259.0 L 556.0 -259.0 L 583.0 -259.0 L 614.0 -255.0 L 645.0 -251.0 L 681.0 -244.0 L 703.0 -240.0 L 723.5 -233.5 L 744.0 -227.0 L 765.0 -222.0 L 780.0 -219.0 L 799.5 -212.5 L 819.0 -206.0 L 840.0 -197.0 L 861.0 -188.0 L 881.5 -176.5 L 902.0 -165.0 L 918.0 -151.0 L 934.0 -137.0 L 943.5 -120.0 L 953.0 -103.0 L 952.0 -83.0 L 952.0 -61.0 L 938.0 -43.0 L 933.0 -37.0 L 910.0 -36.0 L 893.0 -36.0 L 869.0 -39.0 L 845.0 -42.0 L 812.0 -49.0 L 801.0 -51.0 L 786.0 -54.0 L 771.0 -57.0 L 752.0 -61.0 L 772.0 -71.0 L 787.0 -90.0 L 802.0 -108.0 L 796.0 -121.0 L 786.0 -144.0 L 748.0 -164.5 L 710.0 -185.0 L 645.0 -198.0 L 574.0 -211.0 L 505.5 -220.0 L 437.0 -229.0 Z" fill="black" fill-opacity="0.25" stroke="black" stroke-width="4.0"/>
  <rect x="82.0" y="-488.0" width="1126.0" height="363.0" fill="none" stroke="red" stroke-width="10.0" /><rect x="366.0" y="-259.0" width="587.0" height="223.0" fill="none" stroke="red" stroke-width="10.0" />
</svg>
