<svg xmlns="http://www.w3.org/2000/svg"
  viewBox="32 -538 1225.007 552">
  <rect x="32" y="-538" width="1225.007" height="552" fill="white"/>
  <path d="M 82 -366 L 82 -394 L 95.5 -414 L 109 -434 L 131 -447.5 L 153 -461 L 180.5 -469 L 208 -477 L 237 -481.5 L 266 -486 L 292.5 -487 L 319 -488 L 338 -488 L 399 -488 L 456.5 -482.5 L 514 -477 L 570 -467 L 626 -457 L 682 -443.5 L 738 -430 L 796 -413 L 914 -379 L 1062 -282 L 1208 -186 L 1207 -144 L 1207 -125 L 1171 -126 L 1124 -126 L 1074 -132.5 L 1024 -139 L 978 -149 L 989 -253 L 813 -337 L 646 -417 L 474 -416 L 457 -416 L 436.5 -414.5 L 416 -413 L 394.5 -409.5 L 373 -406 L 352.5 -398.5 L 332 -391 L 315.5 -379.5 L 299 -368 L 288.5 -352 L 278 -336 L 277 -313 L 276 -282 L 323 -246 L 381 -201 L 386 -199 L 247 -200 L 177 -229 L 130 -249 L 99 -298 L 82 -337 Z M 366 -240 L 379 -243 L 390 -247.5 L 401 -252 L 413 -255 L 449 -257 L 484.5 -258 L 520 -259 L 556 -259 L 583 -259 L 614 -255 L 645 -251 L 681 -244 L 703 -240 L 723.5 -233.5 L 744 -227 L 765 -222 L 780 -219 L 799.5 -212.5 L 819 -206 L 840 -197 L 861 -188 L 881.5 -176.5 L 902 -165 L 918 -151 L 934 -137 L 943.5 -120 L 953 -103 L 952 -83 L 952 -61 L 938 -43 L 933 -37 L 910 -36 L 893 -36 L 869 -39 L 845 -42 L 812 -49 L 801 -51 L 786 -54 L 771 -57 L 752 -61 L 772 -71 L 787 -90 L 802 -108 L 796 -121 L 786 -144 L 748 -164.5 L 710 -185 L 645 -198 L 574 -211 L 505.5 -220 L 437 -229 Z" fill="black" fill-opacity="0.25" stroke="black" stroke-width="4"/>
  <rect x="82" y="-488" width="1126" height="363" fill="none" stroke="red" stroke-width="10" /><rect x="366" y="-259" width="587" height="223" fill="none" stroke="red" stroke-width="10" />
</svg>
