<svg xmlns="http://www.w3.org/2000/svg"
  viewBox="10.0 -532.0 1225.0068027210884 462.0">
  <rect x="10.0" y="-532.0" width="1225.0068027210884" height="462.0" fill="white"/>
  <path d="M 60.0 -360.0 L 60.0 -388.0 L 73.5 -408.0 L 87.0 -428.0 L 109.0 -441.0 L 131.0 -454.0 L 159.0 -463.0 L 187.0 -472.0 L 215.5 -476.0 L 244.0 -480.0 L 270.5 -481.0 L 297.0 -482.0 L 316.0 -482.0 L 376.0 -482.0 L 433.5 -476.0 L 491.0 -470.0 L 547.5 -460.0 L 604.0 -450.0 L 660.5 -437.0 L 717.0 -424.0 L 774.0 -408.0 L 891.0 -374.0 L 1040.0 -276.0 L 1186.0 -178.0 L 1185.0 -138.0 L 1184.0 -120.0 L 1149.0 -120.0 L 1102.0 -120.0 L 1052.0 -126.0 L 1002.0 -132.0 L 956.0 -142.0 L 967.0 -246.0 L 792.0 -330.0 L 624.0 -410.0 L 452.0 -410.0 L 435.0 -410.0 L 414.5 -409.0 L 394.0 -408.0 L 372.5 -404.0 L 351.0 -400.0 L 330.5 -393.0 L 310.0 -386.0 L 293.5 -374.0 L 277.0 -362.0 L 266.5 -346.0 L 256.0 -330.0 L 255.0 -306.0 L 254.0 -276.0 L 301.0 -240.0 L 361.0 -194.0 L 365.0 -192.0 L 226.0 -194.0 L 155.0 -222.0 L 108.0 -242.0 L 77.0 -292.0 L 60.0 -332.0 Z" fill="black" fill-opacity="0.25" stroke="black" stroke-width="4.0"/>
  <rect x="60.0" y="-482.0" width="1126.0" height="362.0" fill="none" stroke="red" stroke-width="10.0" />
</svg>
