<svg xmlns="http://www.w3.org/2000/svg"
  viewBox="-18.01 -583 1454.01 770">
  <rect x="-18.01" y="-583" width="1454.01" height="770" fill="white"/>
  <path d="M 733 -132 L 784 -137 L 898 -137 L 934 -137 L 974 -133 L 1014 -129 L 1058 -119 L 1084 -113 L 1109 -107 L 1134 -101 L 1160 -93 L 1259 -68 L 1322 -21 L 1386 26 L 1386 79 L 1386 110 L 1371 129 L 1365 137 L 1336 137 L 1296 137 L 1217 122 L 1205 120 L 1186 117 L 1167 114 L 1144 107 L 1169 96 L 1186 71 L 1202 47 L 1197 34 L 1186 6 L 1140 -19.5 L 1094 -45 L 1014 -62 L 930 -79 L 844.5 -90 L 759 -101 L 675 -113 Z M 102 -529 L 109 -532 L 119 -532.5 L 129 -533 L 143 -533 L 186 -533 L 231.5 -519.5 L 277 -506 L 325 -477 L 388 -418 L 379 -418 L 362 -420 L 345 -422 L 318 -425 L 293 -428 L 274.5 -429.5 L 256 -431 L 245 -431 L 222 -431 L 202 -423 L 187 -416 L 187 -400 L 187 -392 L 192 -381 L 199 -367 L 203 -357 L 207 -347 L 211 -345 L 226 -339 L 237 -336 L 248 -333 L 262 -330 L 304 -319 L 311 -317 L 325 -316 L 339 -315 L 360 -315 L 428 -323 L 492 -330.5 L 556 -338 L 617 -345 L 738 -358 L 875 -359 L 965 -359 L 1098 -264 L 1128 -222 L 1109 -227 L 1057 -237 L 977 -247 L 903 -257 L 837 -256 L 798 -253 L 778 -252 L 748.5 -251 L 719 -250 L 681 -247 L 666 -246 L 641 -245.5 L 616 -245 L 581 -245 L 554 -245 L 525.5 -246 L 497 -247 L 467 -249 L 406 -252 L 331 -262 L 279 -269 L 229.5 -292 L 180 -315 L 129 -350 L 31 -417 L 32 -475 L 32 -515 Z" fill="black" fill-opacity="0.25" stroke="black" stroke-width="4"/>
  <rect x="675" y="-137" width="711" height="274" fill="none" stroke="red" stroke-width="10" /><rect x="31" y="-533" width="1097" height="311" fill="none" stroke="red" stroke-width="10" />
</svg>
