<svg xmlns="http://www.w3.org/2000/svg"
  viewBox="-18.010101010101014 -583.0 1454.010101010101 770.0">
  <rect x="-18.010101010101014" y="-583.0" width="1454.010101010101" height="770.0" fill="white"/>
  <path d="M 733.0 -132.0 L 784.0 -137.0 L 898.0 -137.0 L 934.0 -137.0 L 974.0 -133.0 L 1014.0 -129.0 L 1058.0 -119.0 L 1084.0 -113.0 L 1109.0 -107.0 L 1134.0 -101.0 L 1160.0 -93.0 L 1259.0 -68.0 L 1322.0 -21.0 L 1386.0 26.0 L 1386.0 79.0 L 1386.0 110.0 L 1371.0 129.0 L 1365.0 137.0 L 1336.0 137.0 L 1296.0 137.0 L 1217.0 122.0 L 1205.0 120.0 L 1186.0 117.0 L 1167.0 114.0 L 1144.0 107.0 L 1169.0 96.0 L 1186.0 71.0 L 1202.0 47.0 L 1197.0 34.0 L 1186.0 6.0 L 1140.0 -19.5 L 1094.0 -45.0 L 1014.0 -62.0 L 930.0 -79.0 L 844.5 -90.0 L 759.0 -101.0 L 675.0 -113.0 Z M 102.0 -529.0 L 109.0 -532.0 L 119.0 -532.5 L 129.0 -533.0 L 143.0 -533.0 L 186.0 -533.0 L 231.5 -519.5 L 277.0 -506.0 L 325.0 -477.0 L 388.0 -418.0 L 379.0 -418.0 L 362.0 -420.0 L 345.0 -422.0 L 318.0 -425.0 L 293.0 -428.0 L 274.5 -429.5 L 256.0 -431.0 L 245.0 -431.0 L 222.0 -431.0 L 202.0 -423.0 L 187.0 -416.0 L 187.0 -400.0 L 187.0 -392.0 L 192.0 -381.0 L 199.0 -367.0 L 203.0 -357.0 L 207.0 -347.0 L 211.0 -345.0 L 226.0 -339.0 L 237.0 -336.0 L 248.0 -333.0 L 262.0 -330.0 L 304.0 -319.0 L 311.0 -317.0 L 325.0 -316.0 L 339.0 -315.0 L 360.0 -315.0 L 428.0 -323.0 L 492.0 -330.5 L 556.0 -338.0 L 617.0 -345.0 L 738.0 -358.0 L 875.0 -359.0 L 965.0 -359.0 L 1098.0 -264.0 L 1128.0 -222.0 L 1109.0 -227.0 L 1057.0 -237.0 L 977.0 -247.0 L 903.0 -257.0 L 837.0 -256.0 L 798.0 -253.0 L 778.0 -252.0 L 748.5 -251.0 L 719.0 -250.0 L 681.0 -247.0 L 666.0 -246.0 L 641.0 -245.5 L 616.0 -245.0 L 581.0 -245.0 L 554.0 -245.0 L 525.5 -246.0 L 497.0 -247.0 L 467.0 -249.0 L 406.0 -252.0 L 331.0 -262.0 L 279.0 -269.0 L 229.5 -292.0 L 180.0 -315.0 L 129.0 -350.0 L 31.0 -417.0 L 32.0 -475.0 L 32.0 -515.0 Z" fill="black" fill-opacity="0.25" stroke="black" stroke-width="4.0"/>
  <rect x="675.0" y="-137.0" width="710.9999999999999" height="274.0" fill="none" stroke="red" stroke-width="10.0" /><rect x="31.0" y="-533.0" width="1097.0" height="311.00000000000006" fill="none" stroke="red" stroke-width="10.0" />
</svg>
