<svg xmlns="http://www.w3.org/2000/svg"
  viewBox="40.25 -482 695.795 352">
  <rect x="40.25" y="-482" width="695.795" height="352" fill="white"/>
  <path d="M 97 -427 L 101 -432 L 120 -432 L 142 -432 L 178 -427 L 225 -419 L 301 -407 L 319 -307 L 330 -245 L 344 -229 L 358 -213 L 375 -210 L 396 -208 L 396 -207 L 396 -203 L 389 -196 L 373 -180 L 336 -180 L 314 -180 L 288.5 -185.5 L 263 -191 L 231 -202 L 174 -223 L 152 -355 L 143 -411 L 117 -411 L 102 -411 L 93 -411 L 91 -413 L 88 -415 Z M 400 -427 L 400 -431 L 420 -432 L 437 -432 L 470 -427 L 516 -420 L 591 -407 L 609 -307 L 620 -246 L 634 -227 L 645 -212 L 666 -210 L 687 -208 L 686 -205 L 686 -202 L 680 -196 L 664 -181 L 626 -180 L 579 -180 L 523 -202 L 464 -225 L 442 -359 L 432 -416 L 417 -413 L 400 -410 Z" fill="black" fill-opacity="0.25" stroke="black" stroke-width="4"/>
  <rect x="88" y="-432" width="308" height="252" fill="none" stroke="red" stroke-width="10" /><rect x="400" y="-432" width="287" height="252" fill="none" stroke="red" stroke-width="10" />
</svg>
