<svg xmlns="http://www.w3.org/2000/svg"
  viewBox="-94.23076923076923 -479.1666666666667 405.2762237762238 351.1666666666667">
  <rect x="-94.23076923076923" y="-479.1666666666667" width="405.2762237762238" height="351.1666666666667" fill="white"/>
  <path d="M -38.0 -425.0 L -34.0 -430.0 L -14.0 -429.0 L 8.0 -429.0 L 44.0 -425.0 L 91.0 -417.0 L 167.0 -405.0 L 185.0 -304.0 L 196.0 -242.0 L 210.0 -226.0 L 224.0 -210.0 L 241.0 -208.0 L 262.0 -206.0 L 261.0 -204.0 L 261.0 -200.0 L 255.0 -194.0 L 239.0 -178.0 L 202.0 -178.0 L 180.0 -178.0 L 154.5 -183.0 L 129.0 -188.0 L 97.0 -200.0 L 40.0 -221.0 L 18.0 -353.0 L 9.0 -409.0 L -17.0 -409.0 L -33.0 -409.0 L -42.0 -409.0 L -43.0 -411.0 L -47.0 -413.0 Z" fill="black" fill-opacity="0.25" stroke="black" stroke-width="4.0"/>
  <rect x="-47.0" y="-430.0" width="309.0" height="252.0" fill="none" stroke="red" stroke-width="10.0" />
</svg>
