<svg xmlns="http://www.w3.org/2000/svg"
  viewBox="-94.231 -479.167 405.276 351.167">
  <rect x="-94.231" y="-479.167" width="405.276" height="351.167" fill="white"/>
  <path d="M -38 -425 L -34 -430 L -14 -429 L 8 -429 L 44 -425 L 91 -417 L 167 -405 L 185 -304 L 196 -242 L 210 -226 L 224 -210 L 241 -208 L 262 -206 L 261 -204 L 261 -200 L 255 -194 L 239 -178 L 202 -178 L 180 -178 L 154.5 -183 L 129 -188 L 97 -200 L 40 -221 L 18 -353 L 9 -409 L -17 -409 L -33 -409 L -42 -409 L -43 -411 L -47 -413 Z" fill="black" fill-opacity="0.25" stroke="black" stroke-width="4"/>
  <rect x="-47" y="-430" width="309" height="252" fill="none" stroke="red" stroke-width="10" />
</svg>
