<svg xmlns="http://www.w3.org/2000/svg"
  viewBox="40.25 -482.0 695.7954545454545 352.0">
  <rect x="40.25" y="-482.0" width="695.7954545454545" height="352.0" fill="white"/>
  <path d="M 97.0 -427.0 L 101.0 -432.0 L 120.0 -432.0 L 142.0 -432.0 L 178.0 -427.0 L 225.0 -419.0 L 301.0 -407.0 L 319.0 -307.0 L 330.0 -245.0 L 344.0 -229.0 L 358.0 -213.0 L 375.0 -210.0 L 396.0 -208.0 L 396.0 -207.0 L 396.0 -203.0 L 389.0 -196.0 L 373.0 -180.0 L 336.0 -180.0 L 314.0 -180.0 L 288.5 -185.5 L 263.0 -191.0 L 231.0 -202.0 L 174.0 -223.0 L 152.0 -355.0 L 143.0 -411.0 L 117.0 -411.0 L 102.0 -411.0 L 93.0 -411.0 L 91.0 -413.0 L 88.0 -415.0 Z M 400.0 -427.0 L 400.0 -431.0 L 420.0 -432.0 L 437.0 -432.0 L 470.0 -427.0 L 516.0 -420.0 L 591.0 -407.0 L 609.0 -307.0 L 620.0 -246.0 L 634.0 -227.0 L 645.0 -212.0 L 666.0 -210.0 L 687.0 -208.0 L 686.0 -205.0 L 686.0 -202.0 L 680.0 -196.0 L 664.0 -181.0 L 626.0 -180.0 L 579.0 -180.0 L 523.0 -202.0 L 464.0 -225.0 L 442.0 -359.0 L 432.0 -416.0 L 417.0 -413.0 L 400.0 -410.0 Z" fill="black" fill-opacity="0.25" stroke="black" stroke-width="4.0"/>
  <rect x="88.0" y="-432.0" width="308.00000000000006" height="252.0" fill="none" stroke="red" stroke-width="10.0" /><rect x="400.0" y="-432.0" width="287.00000000000006" height="252.0" fill="none" stroke="red" stroke-width="10.0" />
</svg>
