<svg xmlns="http://www.w3.org/2000/svg"
  viewBox="40 -1004 1578.4 825">
  <rect x="40" y="-1004" width="1578.4" height="825" fill="white"/>
  <path d="M 248 -365 L 292 -364 L 345.5 -362.5 L 399 -361 L 470 -361 L 518 -361 L 597 -362.5 L 676 -364 L 790 -366 L 904 -368 L 988.5 -369.5 L 1073 -371 L 1132 -371 L 1239 -371 L 1407 -273 L 1416 -260 L 1426.5 -250 L 1437 -240 L 1446 -229 L 1431 -229 L 1421 -232 L 1391 -236 L 1375.5 -240 L 1360 -244 L 1357 -244 L 1268 -252 L 1226 -255 L 1188 -257.5 L 1150 -260 L 1112 -260 L 1084 -260 L 1025.5 -258 L 967 -256 L 875 -251 L 782 -246 L 714.5 -243.5 L 647 -241 L 601 -241 L 508 -241 L 418.5 -247 L 329 -253 L 237 -268 L 171 -278 L 90 -368 L 90 -395 L 127 -382 L 165.5 -374 L 204 -366 Z M 924 -498 L 924 -499 L 926 -500 L 927 -500 L 930 -501 L 932 -502 L 928 -508 L 924 -513 L 930 -515 L 976 -532 L 1016.5 -545.5 L 1057 -559 L 1091 -570.5 L 1125 -582 L 1152.5 -592 L 1180 -602 L 1201 -612 L 1281 -652 L 1326 -726 L 1333 -738 L 1340.5 -755.5 L 1348 -773 L 1356.5 -796.5 L 1365 -820 L 1376.5 -849.5 L 1388 -879 L 1404 -914 L 1405 -917 L 1408.5 -918.5 L 1412 -920 L 1416 -920.5 L 1420 -921 L 1424.5 -921.5 L 1429 -922 L 1434 -924 L 1446 -931 L 1454 -935.5 L 1462 -940 L 1465 -942 L 1478 -948 L 1486.5 -950.5 L 1495 -953 L 1498 -954 L 1511 -954 L 1516 -954 L 1521 -953.5 L 1526 -953 L 1532 -951 L 1536 -950 L 1540.5 -949.5 L 1545 -949 L 1550 -948 L 1555 -947 L 1559.5 -945.5 L 1564 -944 L 1568 -940 L 1569 -939 L 1567.5 -937.5 L 1566 -936 L 1563.5 -934.5 L 1561 -933 L 1558 -932 L 1555 -931 L 1554 -929 L 1515 -904 L 1513 -897 L 1505 -863 L 1498 -839 L 1491 -815 L 1483 -795 L 1481 -789 L 1476.5 -780.5 L 1472 -772 L 1466 -763 L 1460 -754 L 1454.5 -745.5 L 1449 -737 L 1445 -732 L 1446 -732 L 1446 -732 L 1446 -732 L 1447 -733 L 1449 -733 L 1444 -728 L 1441 -725 L 1440 -724 L 1440 -724 L 1445 -732 L 1441 -730 L 1431 -723 L 1421 -716 L 1407 -705.5 L 1393 -695 L 1377 -682.5 L 1361 -670 L 1345 -657 L 1323 -640 L 1301.5 -623 L 1280 -606 L 1261 -587 L 1261 -587 L 1261 -586 L 1267 -588 L 1271.5 -590.5 L 1276 -593 L 1280 -595 L 1285 -598 L 1286 -598 L 1285 -597 L 1283 -596 L 1282 -595 L 1278.5 -593 L 1275 -591 L 1272 -589.5 L 1269 -588 L 1266 -587 L 1263 -586 L 1262 -586 L 1261 -586 L 1261 -586 L 1249 -580 L 1233 -573 L 1217 -566 L 1200 -559 L 1183 -552 L 1166.5 -546.5 L 1150 -541 L 1137 -539 L 1129 -538 L 1115 -537.5 L 1101 -537 L 1089 -536.5 L 1077 -536 L 1071 -535 L 1065 -534 L 1073 -531 L 1081 -528 L 1089.5 -527 L 1098 -526 L 1107 -526 L 1119 -526 L 1132 -527 L 1145 -528 L 1157 -528 L 1159 -528 L 1162.5 -527.5 L 1166 -527 L 1168 -527 L 1213 -524 L 1248 -498 L 1267 -484 L 1266 -479 L 1269 -471 L 1255 -471 L 1242 -471 L 1231 -472.5 L 1220 -474 L 1207 -476 L 1190 -479 L 1167.5 -482 L 1145 -485 L 1118 -488 L 1092 -492 L 1069 -494 L 1046 -496 L 1024 -496 L 1022 -497 L 1019.5 -497 L 1017 -497 L 1014 -497 L 998 -497 L 983 -496.5 L 968 -496 L 952 -495 L 949 -494 L 944.5 -492 L 940 -490 L 932 -490 L 927 -490 Z M 349 -675 L 351 -678 L 364 -678 L 380 -678 L 389 -678 L 398 -677.5 L 407 -677 L 417 -675 L 459 -668 L 521 -657 L 538 -571 L 549 -515 L 559 -503 L 567 -493 L 576.5 -490 L 586 -487 L 599 -486 L 599 -486 L 603 -485 L 602 -479 L 595.5 -474.5 L 589 -470 L 580.5 -467.5 L 572 -465 L 563.5 -464 L 555 -463 L 550 -463 L 530 -463 L 510 -468 L 490 -473 L 463 -482 L 414 -500 L 396 -613 L 388 -661 L 366 -661 L 354 -661 L 346 -661 L 344 -662 L 341 -664 Z M 570 -676 L 570 -678 L 585 -679 L 608 -679 L 627 -676.5 L 646 -674 L 668 -670 L 730 -657 L 747 -571 L 757 -519 L 770 -505 L 778 -491 L 796 -489 L 800 -488 L 802.5 -487 L 805 -486 L 808 -486 L 812 -486 L 812 -480 L 806 -476 L 800 -472 L 791.5 -469 L 783 -466 L 775 -465 L 767 -464 L 763 -464 L 730 -464 L 674 -484 L 625 -503 L 606 -617 L 599 -663 L 584 -664 L 583 -664 L 577 -664 L 573.5 -665.5 L 570 -667 Z" fill="black" fill-opacity="0.25" stroke="black" stroke-width="4"/>
  <rect x="90" y="-395" width="1356" height="166" fill="none" stroke="red" stroke-width="10" /><rect x="341" y="-678" width="262" height="215" fill="none" stroke="red" stroke-width="10" /><rect x="570" y="-679" width="242" height="215" fill="none" stroke="red" stroke-width="10" /><rect x="924" y="-632" width="388.9" height="161" fill="none" stroke="red" stroke-width="10" /><rect x="1241" y="-793" width="241.3" height="161" fill="none" stroke="red" stroke-width="10" /><rect x="1355.2" y="-954" width="213.8" height="161" fill="none" stroke="red" stroke-width="10" />
</svg>
