<svg xmlns="http://www.w3.org/2000/svg"
  viewBox="20 -438 1457 508">
  <rect x="20" y="-438" width="1457" height="508" fill="white"/>
  <path d="M 217 -262 L 152 -272 L 70 -362 L 70 -388 L 106 -376 L 145.5 -368 L 185 -360 L 228 -360 L 272 -358 L 326 -357 L 380 -356 L 450 -356 L 545 -356 L 771 -362 L 996 -366 L 1113 -366 L 1220 -366 L 1388 -268 L 1397 -254 L 1407 -244 L 1417 -234 L 1427 -224 L 1426 -224 L 1419.5 -224 L 1413 -224 L 1402 -226 L 1372 -232 L 1356.5 -236 L 1341 -240 L 1337 -240 L 1249 -246 L 1208 -250 L 1169 -252 L 1130 -254 L 1092 -254 L 1037 -254 L 855 -246 L 672 -236 L 582 -236 L 535 -236 L 489.5 -238 L 444 -240 L 398 -242 L 353 -244 L 307.5 -250 L 262 -256 Z M 604 -190 L 607 -194 L 626 -196 L 642 -196 L 673 -190 L 689 -188 L 699 -187 L 709 -186 L 715 -186 L 778 -176 L 795 -90 L 805 -36 L 815 -22 L 823 -8 L 843 -6 L 848 -6 L 856 -4 L 859 -4 L 861 -4 L 861 2 L 856 6 L 842 20 L 809 20 L 790 20 L 768.5 15 L 747 10 L 720 0 L 670 -18 L 651 -130 L 645 -178 L 622 -178 L 609 -178 L 601 -178 L 600 -180 L 598 -182 Z M 826 -192 L 826 -198 L 843 -198 L 857 -198 L 886 -192 L 900 -190 L 909 -188 L 918 -186 L 925 -186 L 988 -176 L 1006 -90 L 1016 -38 L 1026 -22 L 1033 -12 L 1053 -8 L 1070 -4 L 1070 -4 L 1070 0 L 1069.5 -1 L 1069 -2 L 1065 4 L 1058 18 L 1020 18 L 1001 18 L 979.5 13 L 958 8 L 931 -2 L 881 -20 L 862 -134 L 854 -184 L 840 -182 L 826 -178 Z" fill="black" fill-opacity="0.25" stroke="black" stroke-width="4"/>
  <rect x="70" y="-388" width="1357" height="164" fill="none" stroke="red" stroke-width="10" /><rect x="598" y="-196" width="263" height="216" fill="none" stroke="red" stroke-width="10" /><rect x="826" y="-198" width="244" height="216" fill="none" stroke="red" stroke-width="10" />
</svg>
