<svg xmlns="http://www.w3.org/2000/svg"
  viewBox="31.0 -904.0 1991.0 728.0">
  <rect x="31.0" y="-904.0" width="1991.0" height="728.0" fill="white"/>
  <path d="M 162.0 -392.0 L 210.0 -379.0 L 262.0 -371.5 L 314.0 -364.0 L 372.0 -362.0 L 431.0 -361.0 L 503.0 -360.0 L 575.0 -359.0 L 669.0 -359.0 L 733.0 -359.0 L 839.0 -360.0 L 945.0 -361.0 L 1097.0 -364.0 L 1248.0 -366.0 L 1361.0 -367.0 L 1474.0 -368.0 L 1553.0 -368.0 L 1697.0 -368.0 L 1919.0 -270.0 L 1931.0 -257.0 L 1945.0 -247.0 L 1959.0 -237.0 L 1972.0 -226.0 L 1954.0 -226.0 L 1938.0 -229.0 L 1898.0 -233.0 L 1877.5 -237.5 L 1857.0 -242.0 L 1853.0 -242.0 L 1734.0 -249.0 L 1679.0 -252.0 L 1627.5 -254.5 L 1576.0 -257.0 L 1525.0 -257.0 L 1488.0 -257.0 L 1410.0 -255.0 L 1332.0 -253.0 L 1209.0 -248.0 L 1086.0 -243.0 L 995.5 -241.0 L 905.0 -239.0 L 844.0 -239.0 L 721.0 -239.0 L 600.0 -244.5 L 479.0 -250.0 L 358.0 -265.0 L 271.0 -275.0 L 162.0 -365.0 Z M 81.0 -732.0 L 81.0 -760.0 L 94.5 -780.0 L 108.0 -800.0 L 130.0 -813.5 L 152.0 -827.0 L 180.0 -835.0 L 208.0 -843.0 L 236.0 -847.0 L 264.0 -851.0 L 290.5 -852.5 L 317.0 -854.0 L 337.0 -854.0 L 389.0 -854.0 L 444.0 -849.5 L 499.0 -845.0 L 558.0 -835.0 L 618.0 -826.0 L 676.0 -811.0 L 734.0 -796.0 L 795.0 -779.0 L 913.0 -745.0 L 1061.0 -648.0 L 1207.0 -552.0 L 1206.0 -510.0 L 1206.0 -491.0 L 1170.0 -492.0 L 1123.0 -492.0 L 1073.0 -498.5 L 1023.0 -505.0 L 977.0 -515.0 L 988.0 -619.0 L 812.0 -702.0 L 644.0 -782.0 L 473.0 -782.0 L 456.0 -782.0 L 435.5 -780.5 L 415.0 -779.0 L 393.5 -775.0 L 372.0 -771.0 L 351.5 -764.0 L 331.0 -757.0 L 314.5 -745.5 L 298.0 -734.0 L 287.5 -717.5 L 277.0 -701.0 L 276.0 -679.0 L 275.0 -648.0 L 322.0 -612.0 L 380.0 -567.0 L 385.0 -565.0 L 246.0 -566.0 L 176.0 -595.0 L 129.0 -615.0 L 98.0 -663.0 L 81.0 -703.0 Z M 365.0 -605.0 L 378.0 -608.0 L 389.0 -613.0 L 400.0 -618.0 L 412.0 -621.0 L 448.0 -623.0 L 484.0 -623.5 L 520.0 -624.0 L 555.0 -624.0 L 582.0 -624.0 L 613.5 -620.5 L 645.0 -617.0 L 680.0 -610.0 L 702.0 -606.0 L 722.5 -599.5 L 743.0 -593.0 L 764.0 -588.0 L 780.0 -584.0 L 799.5 -578.0 L 819.0 -572.0 L 839.5 -563.0 L 860.0 -554.0 L 880.0 -542.5 L 900.0 -531.0 L 916.0 -516.5 L 932.0 -502.0 L 941.5 -485.5 L 951.0 -469.0 L 951.0 -449.0 L 952.0 -427.0 L 938.0 -409.0 L 933.0 -403.0 L 913.0 -402.0 L 887.0 -402.0 L 861.5 -405.5 L 836.0 -409.0 L 811.0 -415.0 L 800.0 -417.0 L 785.0 -420.0 L 770.0 -423.0 L 751.0 -427.0 L 772.0 -438.0 L 786.0 -455.0 L 801.0 -474.0 L 795.0 -487.0 L 785.0 -510.0 L 747.0 -530.5 L 709.0 -551.0 L 644.0 -563.0 L 573.0 -576.0 L 504.5 -585.0 L 436.0 -594.0 Z M 1281.0 -718.0 L 1283.0 -721.0 L 1297.0 -721.0 L 1312.0 -721.0 L 1323.0 -721.0 L 1334.0 -720.5 L 1345.0 -720.0 L 1356.0 -718.0 L 1403.0 -710.0 L 1472.0 -697.0 L 1490.0 -602.0 L 1502.0 -541.0 L 1514.0 -527.0 L 1525.0 -514.0 L 1543.0 -510.0 L 1549.0 -509.0 L 1558.0 -508.0 L 1560.0 -508.0 L 1562.0 -507.0 L 1561.0 -500.0 L 1554.0 -495.0 L 1547.0 -490.0 L 1537.5 -487.0 L 1528.0 -484.0 L 1518.5 -483.0 L 1509.0 -482.0 L 1503.0 -482.0 L 1482.0 -482.0 L 1459.5 -487.5 L 1437.0 -493.0 L 1408.0 -503.0 L 1353.0 -523.0 L 1333.0 -649.0 L 1324.0 -702.0 L 1300.0 -702.0 L 1286.0 -702.0 L 1277.0 -702.0 L 1275.0 -703.0 L 1272.0 -706.0 Z M 1529.0 -722.0 L 1542.0 -722.0 L 1553.5 -721.5 L 1565.0 -721.0 L 1576.0 -719.5 L 1587.0 -718.0 L 1598.0 -716.0 L 1609.0 -714.0 L 1622.0 -711.0 L 1693.0 -697.0 L 1709.0 -602.0 L 1719.0 -544.0 L 1734.0 -529.0 L 1744.0 -514.0 L 1764.0 -511.0 L 1769.0 -510.0 L 1771.0 -509.0 L 1773.0 -508.0 L 1776.0 -508.0 L 1781.0 -508.0 L 1781.0 -501.0 L 1774.5 -496.5 L 1768.0 -492.0 L 1759.0 -489.0 L 1750.0 -486.0 L 1740.5 -484.5 L 1731.0 -483.0 L 1727.0 -483.0 L 1689.0 -483.0 L 1628.0 -505.0 L 1574.0 -526.0 L 1553.0 -654.0 L 1544.0 -705.0 L 1528.0 -705.0 L 1526.0 -705.0 L 1525.0 -705.0 L 1524.5 -704.5 L 1524.0 -704.0 L 1523.0 -704.0 L 1512.0 -704.0 L 1512.0 -719.0 L 1512.0 -722.0 Z" fill="black" fill-opacity="0.25" stroke="black" stroke-width="4.0"/>
  <rect x="162.0" y="-392.0" width="1810.0" height="166.0" fill="none" stroke="red" stroke-width="10.0" /><rect x="81.0" y="-854.0" width="1126.0" height="363.0" fill="none" stroke="red" stroke-width="10.0" /><rect x="365.0" y="-624.0" width="587.0" height="221.99999999999997" fill="none" stroke="red" stroke-width="10.0" /><rect x="1272.0" y="-721.0" width="290.00000000000006" height="239.0" fill="none" stroke="red" stroke-width="10.0" /><rect x="1512.0" y="-722.0" width="268.9999999999999" height="239.0" fill="none" stroke="red" stroke-width="10.0" />
</svg>
