<svg xmlns="http://www.w3.org/2000/svg"
  viewBox="32.22222222222223 -712.0 1392.8253968253969 539.578947368421">
  <rect x="32.22222222222223" y="-712.0" width="1392.8253968253969" height="539.578947368421" fill="white"/>
  <path d="M 753.0 -660.0 L 787.0 -660.0 L 824.0 -659.0 L 862.0 -659.0 L 893.0 -655.0 L 914.0 -655.0 L 933.0 -604.0 L 952.0 -553.0 L 986.0 -502.0 L 998.0 -484.0 L 1008.0 -483.0 L 1017.0 -481.0 L 1022.0 -474.5 L 1027.0 -468.0 L 1012.0 -463.0 L 977.0 -458.0 L 942.0 -459.0 L 907.0 -460.0 L 875.0 -463.0 L 844.0 -473.0 L 831.0 -509.5 L 818.0 -546.0 L 783.0 -617.0 L 773.0 -633.0 L 749.0 -637.0 L 733.0 -639.0 L 731.0 -649.5 L 729.0 -660.0 Z M 504.0 -662.0 L 534.0 -662.0 L 567.0 -661.0 L 600.0 -660.0 L 626.0 -656.0 L 645.0 -656.0 L 666.0 -603.5 L 687.0 -551.0 L 715.0 -501.0 L 725.0 -483.0 L 734.0 -481.0 L 742.0 -479.0 L 746.5 -473.0 L 751.0 -467.0 L 738.0 -462.0 L 707.0 -457.0 L 676.5 -458.0 L 646.0 -459.0 L 618.0 -462.0 L 592.0 -472.0 L 577.0 -509.0 L 562.0 -546.0 L 531.0 -618.0 L 528.0 -622.0 L 520.0 -630.5 L 512.0 -639.0 L 501.0 -641.0 L 487.0 -643.0 L 485.0 -652.0 L 483.0 -661.0 Z M 85.0 -384.0 L 90.0 -392.0 L 96.5 -392.5 L 103.0 -393.0 L 110.0 -389.0 L 117.0 -385.0 L 128.0 -379.5 L 139.0 -374.0 L 156.0 -370.5 L 173.0 -367.0 L 204.0 -367.0 L 1184.0 -367.0 L 1212.0 -367.0 L 1235.0 -362.5 L 1258.0 -358.0 L 1277.0 -348.0 L 1296.0 -338.0 L 1306.5 -330.0 L 1317.0 -322.0 L 1335.5 -302.5 L 1354.0 -283.0 L 1367.0 -265.0 L 1380.0 -247.0 L 1372.0 -230.0 L 1364.0 -218.0 L 1353.5 -225.0 L 1343.0 -232.0 L 1329.0 -237.0 L 1315.0 -242.0 L 1298.5 -244.0 L 1282.0 -246.0 L 1247.0 -246.0 L 282.0 -246.0 L 259.0 -246.0 L 240.0 -249.0 L 221.0 -252.0 L 210.5 -255.5 L 200.0 -259.0 L 188.0 -265.0 L 176.0 -271.0 L 162.5 -279.5 L 149.0 -288.0 L 134.0 -303.5 L 119.0 -319.0 L 103.5 -339.5 L 88.0 -360.0 L 84.0 -368.0 L 80.0 -376.0 Z" fill="black" fill-opacity="0.25" stroke="black" stroke-width="4.0"/>
  <rect x="729.0" y="-660.0" width="297.99999999999994" height="202.0" fill="none" stroke="red" stroke-width="10.0" /><rect x="483.0" y="-662.0" width="268.0" height="205.00000000000003" fill="none" stroke="red" stroke-width="10.0" /><rect x="80.0" y="-393.0" width="1299.9999999999998" height="175.00000000000003" fill="none" stroke="red" stroke-width="10.0" />
</svg>
