<svg xmlns="http://www.w3.org/2000/svg"
  viewBox="-106 -1277 1786.455 1100">
  <rect x="-106" y="-1277" width="1786.455" height="1100" fill="white"/>
  <path d="M 76 -393 L 115 -380 L 153.5 -372.5 L 192 -365 L 234 -363 L 290 -361 L 345 -360.5 L 400 -360 L 456 -360 L 504 -360 L 583.5 -361 L 663 -362 L 776 -365 L 890 -367 L 975 -368 L 1060 -369 L 1119 -369 L 1226 -369 L 1394 -271 L 1399 -265 L 1403.5 -259 L 1408 -253 L 1413 -248 L 1418 -243 L 1423 -237.5 L 1428 -232 L 1433 -227 L 1425 -227 L 1418 -227 L 1408 -230 L 1393 -232 L 1381.5 -234.5 L 1370 -237 L 1362 -239 L 1344 -243 L 1343 -243 L 1254 -250 L 1214 -254 L 1176 -256 L 1138 -258 L 1098 -258 L 1070 -258 L 1011.5 -256 L 953 -254 L 861 -249 L 768 -244 L 700.5 -242 L 633 -240 L 587 -240 L 496 -240 L 405 -246 L 314 -252 L 223 -266 L 157 -276 L 76 -366 Z M -48 -468 L -52 -468 L -56 -475 L -56 -476 L -55 -477 L -53 -477 L -50 -478 L -49 -479 L -53 -485 L -57 -490 L -50 -493 L -6 -510 L 32.5 -523 L 71 -536 L 103 -547 L 138 -558 L 170 -571.5 L 202 -585 L 230 -603 L 258 -621 L 282 -645.5 L 306 -670 L 326 -703 L 333 -715 L 340 -732.5 L 347 -750 L 354 -774 L 370 -821 L 400 -891 L 402 -897 L 412 -897 L 421 -897 L 428 -902 L 433 -905 L 439 -908.5 L 445 -912 L 452 -916 L 459 -920 L 465.5 -923 L 472 -926 L 478 -928 L 482 -929 L 484.5 -930 L 487 -931 L 489 -931 L 493 -931 L 497 -931 L 501 -931 L 505 -932 L 514 -932 L 521 -929 L 528 -926 L 539 -926 L 549 -925 L 556 -917 L 558 -914 L 552 -912 L 549 -911 L 546.5 -909.5 L 544 -908 L 542 -907 L 507 -882 L 504 -874 L 499 -850 L 493.5 -828.5 L 488 -807 L 481 -787.5 L 474 -768 L 464 -749 L 454 -730 L 439 -709 L 439 -709 L 441 -710 L 442 -710 L 438 -705 L 435 -701 L 436 -704 L 437 -705 L 437.5 -706 L 438 -707 L 439 -709 L 438 -708 L 437 -707 L 436 -706 L 434 -705 L 397 -679 L 362.5 -651 L 328 -623 L 294 -593 L 284 -584 L 277 -577.5 L 270 -571 L 266 -567 L 265 -566 L 264.5 -565 L 264 -564 L 264 -563 L 269 -565 L 273.5 -567.5 L 278 -570 L 282 -572 L 285 -574 L 286 -575 L 287 -575 L 287 -575 L 287 -575 L 285 -574 L 284 -573 L 282 -572 L 280 -571 L 278 -569 L 264 -561 L 264 -563 L 225 -542 L 185.5 -527.5 L 146 -513 L 101 -513 L 96 -513 L 91.5 -513 L 87 -513 L 83 -512 L 75 -511 L 85 -508 L 100 -502 L 116 -502 L 119 -502 L 122 -502.5 L 125 -503 L 129 -503 L 137 -504 L 144.5 -504.5 L 152 -505 L 160 -505 L 186 -505 L 208 -498.5 L 230 -492 L 251 -475 L 269 -461 L 269 -456 L 272 -448 L 259 -449 L 235 -449 L 212 -453 L 204 -454 L 195 -456 L 186 -458 L 175 -459 L 164 -460 L 152.5 -462 L 141 -464 L 128 -466 L 106 -469 L 84 -471 L 62 -473 L 39 -473 L 26 -474 L 15 -475 L -8 -475 L -29 -472 L -34 -470 L -38.5 -469 L -43 -468 Z M 1025 -499 L 1021 -499 L 1018 -507 L 1018 -508 L 1020 -508 L 1021 -508 L 1024 -510 L 1025 -511 L 1021 -516 L 1017 -521 L 1024 -524 L 1068 -541 L 1106.5 -554.5 L 1145 -568 L 1177 -578 L 1212 -589 L 1244 -602.5 L 1276 -616 L 1304 -634.5 L 1332 -653 L 1356 -677.5 L 1380 -702 L 1399 -735 L 1406 -747 L 1413 -764.5 L 1420 -782 L 1428 -805 L 1444 -852 L 1474 -922 L 1476 -928 L 1485 -929 L 1494 -929 L 1502 -933 L 1506 -936 L 1512.5 -940 L 1519 -944 L 1526 -947.5 L 1533 -951 L 1539.5 -954 L 1546 -957 L 1552 -959 L 1560 -961 L 1562 -963 L 1566 -963 L 1570 -963 L 1574 -963 L 1579 -963 L 1589 -963 L 1596 -960 L 1603 -957 L 1612 -957 L 1622 -956 L 1629 -949 L 1633 -946 L 1626 -943 L 1623 -942 L 1620.5 -940.5 L 1618 -939 L 1616 -938 L 1581 -913 L 1578 -905 L 1574 -888 L 1570.5 -874 L 1567 -860 L 1563 -847 L 1559 -833 L 1555 -821 L 1551 -809 L 1546.5 -798 L 1542 -787 L 1536 -776.5 L 1530 -766 L 1522 -754 L 1520 -750 L 1517.5 -746.5 L 1515 -743 L 1513 -740 L 1515 -741 L 1516 -741 L 1517 -741 L 1513 -736 L 1509 -732 L 1509 -732 L 1510 -735 L 1511 -736 L 1511.5 -737.5 L 1512 -739 L 1513 -740 L 1512 -739 L 1510.5 -738.5 L 1509 -738 L 1508 -737 L 1471 -711 L 1436.5 -682.5 L 1402 -654 L 1368 -624 L 1367 -623 L 1362 -619 L 1357 -615 L 1351.5 -610 L 1346 -605 L 1342 -600.5 L 1338 -596 L 1338 -595 L 1343 -597 L 1347.5 -599 L 1352 -601 L 1356 -603 L 1359 -605 L 1360 -606 L 1361 -606 L 1361 -606 L 1361 -606 L 1359 -605 L 1358 -604 L 1356 -603 L 1354 -602 L 1352 -600 L 1338 -592 L 1338 -595 L 1326 -589 L 1311 -581.5 L 1296 -574 L 1280 -567 L 1264 -560 L 1248 -555 L 1232 -550 L 1220 -547 L 1209 -545 L 1197.5 -544.5 L 1186 -544 L 1174 -544 L 1169 -544 L 1164.5 -544 L 1160 -544 L 1157 -543 L 1150 -542 L 1159 -539 L 1168 -535 L 1176.5 -534.5 L 1185 -534 L 1194 -534 L 1196 -534 L 1198 -534 L 1200 -534 L 1203 -535 L 1210 -536 L 1217 -536.5 L 1224 -537 L 1230 -537 L 1256 -537 L 1280 -530 L 1304 -523 L 1325 -507 L 1343 -493 L 1343 -488 L 1346 -480 L 1333 -480 L 1310 -480 L 1287 -485 L 1279 -486 L 1269.5 -487.5 L 1260 -489 L 1249 -491 L 1238 -492 L 1226.5 -493.5 L 1215 -495 L 1202 -497 L 1180 -500 L 1158 -502.5 L 1136 -505 L 1113 -505 L 1100 -506 L 1089 -506 L 1067 -506 L 1044 -503 L 1039 -501 L 1034.5 -500 L 1030 -499 Z M 585 -783 L 580 -783 L 578 -789 L 578 -792 L 584 -792 L 587 -793 L 583 -800 L 580 -805 L 585 -808 L 629 -824 L 668 -836 L 707 -848 L 740 -857 L 774 -866 L 807 -878.5 L 840 -891 L 869.5 -909.5 L 899 -928 L 924.5 -951.5 L 950 -975 L 969 -1007 L 976 -1018 L 983.5 -1034.5 L 991 -1051 L 1000 -1074 L 1009 -1096 L 1021 -1125 L 1033 -1154 L 1049 -1189 L 1052 -1195 L 1060 -1196 L 1068 -1196 L 1075 -1201 L 1086 -1208 L 1095 -1211 L 1103 -1214 L 1107 -1218 L 1112 -1220 L 1116.5 -1221.5 L 1121 -1223 L 1125 -1224 L 1132 -1227 L 1138 -1227 L 1154 -1227 L 1169 -1222 L 1174 -1220 L 1183 -1220 L 1188 -1220 L 1193 -1220 L 1197 -1218.5 L 1201 -1217 L 1204 -1213 L 1207 -1209 L 1200 -1206 L 1196 -1205 L 1188 -1200.5 L 1180 -1196 L 1172.5 -1190 L 1165 -1184 L 1158.5 -1178.5 L 1152 -1173 L 1151 -1169 L 1146 -1153 L 1142 -1139 L 1138 -1125 L 1134 -1112 L 1131 -1098 L 1126.5 -1086 L 1122 -1074 L 1116 -1063.5 L 1110 -1053 L 1103.5 -1042.5 L 1097 -1032 L 1089 -1020 L 1085 -1014 L 1082 -1008 L 1085 -1008 L 1080 -1003 L 1078 -1001 L 1077 -1000 L 1077 -1000 L 1076.5 -999.5 L 1076 -999 L 1076 -999 L 1076 -999 L 1077 -1002 L 1078 -1003 L 1079 -1004.5 L 1080 -1006 L 1082 -1008 L 1081 -1008 L 1079 -1007 L 1077 -1006 L 1073 -1004 L 1049 -989 L 1026 -973 L 1003 -957 L 981 -939 L 967 -928 L 954.5 -917.5 L 942 -907 L 932 -899 L 921 -891 L 914 -884 L 907 -877 L 903 -872 L 903 -872 L 902.5 -871 L 902 -870 L 902 -870 L 907 -872 L 911.5 -873.5 L 916 -875 L 919 -876 L 923 -877 L 924 -878 L 926 -878 L 916 -872 L 907 -867 L 902 -867 L 900 -867 L 902 -870 L 883 -862 L 864.5 -854.5 L 846 -847 L 827 -840 L 798 -829 L 782 -825 L 775 -824 L 761 -824 L 736 -824 L 731 -824 L 726.5 -824 L 722 -824 L 719 -823 L 715 -823 L 721 -819 L 728 -815 L 736 -813.5 L 744 -812 L 752 -812 L 755 -812 L 758 -812 L 761 -812 L 764 -813 L 776 -814 L 787 -814 L 815 -814 L 839.5 -806.5 L 864 -799 L 886 -782 L 902 -769 L 902 -760 L 903 -754 L 892 -753 L 845 -758 L 762 -774 L 747 -778 L 729 -781 L 711 -784 L 693 -785.5 L 675 -787 L 657 -788 L 639 -789 L 624 -789 L 619 -789 L 614 -788.5 L 609 -788 L 605 -788 L 601 -785 L 595 -784 L 589 -783 Z M 648 -714 L 650 -717 L 665 -718 L 691 -718 L 705 -718 L 719 -714 L 764 -706 L 829 -694 L 847 -598 L 858 -537 L 870 -524 L 878 -514 L 888 -510 L 898 -506 L 911 -505 L 914 -505 L 916 -503 L 914 -495 L 906.5 -490.5 L 899 -486 L 890.5 -483 L 882 -480 L 873 -479 L 864 -478 L 857 -478 L 835 -478 L 811.5 -485 L 788 -492 L 769 -500 L 717 -521 L 697 -645 L 689 -698 L 666 -699 L 652 -699 L 643 -699 L 642 -700 L 640 -702 Z" fill="black" fill-opacity="0.25" stroke="black" stroke-width="4"/>
  <rect x="76" y="-393" width="1357" height="166" fill="none" stroke="red" stroke-width="10" /><rect x="640" y="-718" width="276" height="240" fill="none" stroke="red" stroke-width="10" /><rect x="-57" y="-609.9" width="370.2" height="161" fill="none" stroke="red" stroke-width="10" /><rect x="240.8" y="-771" width="234.3" height="161.1" fill="none" stroke="red" stroke-width="10" /><rect x="353.1" y="-932" width="204.9" height="161" fill="none" stroke="red" stroke-width="10" /><rect x="1017" y="-641" width="370.3" height="161" fill="none" stroke="red" stroke-width="10" /><rect x="1313.8" y="-802" width="234.3" height="161" fill="none" stroke="red" stroke-width="10" /><rect x="1427" y="-963" width="206" height="161" fill="none" stroke="red" stroke-width="10" /><rect x="578" y="-911" width="368.8" height="158" fill="none" stroke="red" stroke-width="10" /><rect x="871.9" y="-1069" width="247.2" height="158" fill="none" stroke="red" stroke-width="10" /><rect x="998" y="-1227" width="209" height="158" fill="none" stroke="red" stroke-width="10" />
</svg>
