<svg xmlns="http://www.w3.org/2000/svg"
  viewBox="13.0 -1036.0 1480.5 854.0">
  <rect x="13.0" y="-1036.0" width="1480.5" height="854.0" fill="white"/>
  <path d="M 221.0 -368.0 L 265.0 -368.0 L 318.5 -367.0 L 372.0 -366.0 L 443.0 -366.0 L 491.0 -366.0 L 570.0 -367.0 L 649.0 -368.0 L 763.0 -370.0 L 877.0 -372.0 L 961.5 -373.0 L 1046.0 -374.0 L 1105.0 -374.0 L 1212.0 -374.0 L 1380.0 -276.0 L 1389.0 -264.0 L 1399.5 -254.0 L 1410.0 -244.0 L 1419.0 -232.0 L 1405.0 -232.0 L 1395.0 -236.0 L 1365.0 -240.0 L 1349.0 -244.0 L 1333.0 -248.0 L 1330.0 -248.0 L 1241.0 -256.0 L 1199.0 -258.0 L 1161.0 -261.0 L 1123.0 -264.0 L 1085.0 -264.0 L 1057.0 -264.0 L 998.5 -262.0 L 940.0 -260.0 L 848.0 -254.0 L 755.0 -250.0 L 687.5 -247.0 L 620.0 -244.0 L 574.0 -244.0 L 482.0 -244.0 L 391.5 -250.0 L 301.0 -256.0 L 210.0 -272.0 L 144.0 -282.0 L 63.0 -372.0 L 63.0 -398.0 L 100.0 -386.0 L 138.5 -378.0 L 177.0 -370.0 Z M 808.0 -522.0 L 803.0 -522.0 L 800.0 -530.0 L 800.0 -530.0 L 801.0 -532.0 L 802.0 -532.0 L 806.0 -532.0 L 808.0 -534.0 L 804.0 -540.0 L 800.0 -544.0 L 806.0 -546.0 L 853.0 -564.0 L 893.0 -577.0 L 933.0 -590.0 L 967.0 -601.0 L 1001.0 -612.0 L 1028.5 -622.0 L 1056.0 -632.0 L 1076.0 -644.0 L 1156.0 -684.0 L 1201.0 -758.0 L 1208.0 -770.0 L 1215.5 -787.0 L 1223.0 -804.0 L 1232.0 -828.0 L 1241.0 -852.0 L 1252.5 -881.0 L 1264.0 -910.0 L 1279.0 -946.0 L 1280.0 -948.0 L 1284.0 -949.0 L 1288.0 -950.0 L 1292.0 -951.0 L 1296.0 -952.0 L 1300.5 -953.0 L 1305.0 -954.0 L 1309.0 -956.0 L 1321.0 -962.0 L 1329.0 -967.0 L 1337.0 -972.0 L 1340.0 -972.0 L 1353.0 -978.0 L 1361.5 -981.0 L 1370.0 -984.0 L 1373.0 -986.0 L 1386.0 -986.0 L 1391.0 -986.0 L 1396.5 -985.0 L 1402.0 -984.0 L 1407.0 -982.0 L 1411.0 -982.0 L 1415.5 -981.0 L 1420.0 -980.0 L 1425.0 -979.0 L 1430.0 -978.0 L 1434.5 -977.0 L 1439.0 -976.0 L 1443.0 -972.0 L 1444.0 -970.0 L 1443.0 -969.0 L 1442.0 -968.0 L 1439.5 -966.0 L 1437.0 -964.0 L 1434.0 -963.0 L 1431.0 -962.0 L 1429.0 -960.0 L 1392.0 -934.0 L 1389.0 -928.0 L 1381.0 -894.0 L 1373.5 -870.0 L 1366.0 -846.0 L 1359.0 -826.0 L 1357.0 -820.0 L 1352.0 -812.0 L 1347.0 -804.0 L 1341.0 -795.0 L 1335.0 -786.0 L 1329.5 -777.0 L 1324.0 -768.0 L 1320.0 -764.0 L 1320.0 -764.0 L 1322.0 -764.0 L 1324.0 -764.0 L 1320.0 -760.0 L 1317.0 -756.0 L 1316.0 -756.0 L 1316.0 -756.0 L 1320.0 -764.0 L 1316.0 -762.0 L 1306.0 -755.0 L 1296.0 -748.0 L 1282.5 -737.0 L 1269.0 -726.0 L 1252.5 -714.0 L 1236.0 -702.0 L 1220.0 -688.0 L 1204.0 -676.0 L 1191.5 -666.0 L 1179.0 -656.0 L 1168.0 -648.0 L 1157.0 -638.0 L 1150.0 -631.0 L 1143.0 -624.0 L 1139.0 -620.0 L 1139.0 -620.0 L 1137.0 -618.0 L 1137.0 -618.0 L 1136.0 -618.0 L 1142.0 -620.0 L 1146.5 -622.0 L 1151.0 -624.0 L 1155.0 -626.0 L 1160.0 -630.0 L 1161.0 -630.0 L 1161.0 -630.0 L 1159.0 -628.0 L 1158.0 -626.0 L 1154.5 -624.0 L 1151.0 -622.0 L 1148.0 -621.0 L 1145.0 -620.0 L 1142.0 -619.0 L 1139.0 -618.0 L 1137.0 -618.0 L 1136.0 -618.0 L 1136.0 -618.0 L 1124.0 -612.0 L 1108.0 -605.0 L 1092.0 -598.0 L 1075.5 -591.0 L 1059.0 -584.0 L 1042.0 -578.0 L 1025.0 -572.0 L 1012.0 -570.0 L 1003.0 -570.0 L 989.5 -569.0 L 976.0 -568.0 L 964.5 -568.0 L 953.0 -568.0 L 947.0 -567.0 L 941.0 -566.0 L 948.0 -562.0 L 956.0 -560.0 L 965.0 -559.0 L 974.0 -558.0 L 982.0 -558.0 L 994.0 -558.0 L 1006.5 -559.0 L 1019.0 -560.0 L 1031.0 -560.0 L 1034.0 -560.0 L 1037.5 -560.0 L 1041.0 -560.0 L 1043.0 -558.0 L 1088.0 -556.0 L 1123.0 -530.0 L 1142.0 -516.0 L 1142.0 -510.0 L 1145.0 -502.0 L 1131.0 -502.0 L 1118.0 -502.0 L 1106.5 -504.0 L 1095.0 -506.0 L 1083.0 -508.0 L 1066.0 -510.0 L 1043.0 -513.0 L 1020.0 -516.0 L 993.0 -520.0 L 967.0 -524.0 L 944.0 -526.0 L 921.0 -528.0 L 899.0 -528.0 L 895.0 -528.0 L 891.0 -528.0 L 887.0 -528.0 L 883.0 -528.0 L 869.0 -528.0 L 855.5 -528.0 L 842.0 -528.0 L 828.0 -526.0 L 825.0 -526.0 L 820.5 -524.0 L 816.0 -522.0 Z M 340.0 -754.0 L 343.0 -758.0 L 360.0 -758.0 L 376.0 -758.0 L 391.0 -757.0 L 406.0 -756.0 L 422.0 -754.0 L 469.0 -746.0 L 544.0 -734.0 L 562.0 -634.0 L 573.0 -572.0 L 587.0 -556.0 L 601.0 -540.0 L 619.0 -536.0 L 640.0 -534.0 L 639.0 -534.0 L 639.0 -530.0 L 633.0 -522.0 L 617.0 -506.0 L 580.0 -508.0 L 558.0 -508.0 L 532.5 -513.0 L 507.0 -518.0 L 475.0 -530.0 L 418.0 -550.0 L 396.0 -682.0 L 387.0 -738.0 L 361.0 -738.0 L 345.0 -738.0 L 336.0 -738.0 L 334.0 -740.0 L 331.0 -742.0 Z" fill="black" fill-opacity="0.25" stroke="black" stroke-width="4.0"/>
  <rect x="63.0" y="-398.0" width="1356.0" height="166.0" fill="none" stroke="red" stroke-width="10.0" /><rect x="800.0" y="-986.0" width="643.9999999999999" height="484.0" fill="none" stroke="red" stroke-width="10.0" /><rect x="331.0" y="-758.0" width="309.0" height="252.0" fill="none" stroke="red" stroke-width="10.0" />
</svg>
