<svg xmlns="http://www.w3.org/2000/svg"
  viewBox="31.0 -1029.0 1480.5 854.0">
  <rect x="31.0" y="-1029.0" width="1480.5" height="854.0" fill="white"/>
  <path d="M 239.0 -362.0 L 283.0 -361.0 L 336.5 -359.5 L 390.0 -358.0 L 461.0 -358.0 L 509.0 -358.0 L 588.0 -359.5 L 667.0 -361.0 L 781.0 -363.0 L 895.0 -365.0 L 979.5 -366.5 L 1064.0 -368.0 L 1124.0 -368.0 L 1231.0 -368.0 L 1398.0 -269.0 L 1407.0 -256.0 L 1417.5 -246.5 L 1428.0 -237.0 L 1438.0 -225.0 L 1424.0 -225.0 L 1413.0 -229.0 L 1383.0 -233.0 L 1367.5 -237.0 L 1352.0 -241.0 L 1348.0 -241.0 L 1259.0 -249.0 L 1217.0 -252.0 L 1179.0 -254.5 L 1141.0 -257.0 L 1103.0 -257.0 L 1075.0 -257.0 L 1016.5 -254.5 L 958.0 -252.0 L 866.0 -247.0 L 773.0 -242.0 L 705.5 -240.0 L 638.0 -238.0 L 592.0 -238.0 L 500.0 -238.0 L 409.5 -244.0 L 319.0 -250.0 L 228.0 -265.0 L 162.0 -275.0 L 81.0 -365.0 L 81.0 -392.0 L 118.0 -379.0 L 156.5 -371.0 L 195.0 -363.0 Z M 162.0 -507.0 L 157.0 -507.0 L 154.0 -515.0 L 154.0 -516.0 L 155.0 -517.0 L 156.0 -517.0 L 160.0 -518.0 L 162.0 -519.0 L 158.0 -525.0 L 154.0 -530.0 L 160.0 -532.0 L 207.0 -549.0 L 247.0 -562.5 L 287.0 -576.0 L 321.0 -587.5 L 355.0 -599.0 L 382.5 -609.0 L 410.0 -619.0 L 430.0 -629.0 L 510.0 -671.0 L 555.0 -743.0 L 562.0 -755.0 L 569.5 -772.5 L 577.0 -790.0 L 586.0 -813.5 L 595.0 -837.0 L 606.5 -866.0 L 618.0 -895.0 L 633.0 -931.0 L 634.0 -934.0 L 638.0 -935.0 L 642.0 -936.0 L 646.0 -936.5 L 650.0 -937.0 L 654.5 -938.0 L 659.0 -939.0 L 663.0 -941.0 L 675.0 -948.0 L 683.0 -952.5 L 691.0 -957.0 L 694.0 -958.0 L 707.0 -964.0 L 715.5 -967.0 L 724.0 -970.0 L 727.0 -971.0 L 740.0 -971.0 L 745.0 -971.0 L 750.5 -970.5 L 756.0 -970.0 L 761.0 -968.0 L 765.0 -967.0 L 769.5 -966.5 L 774.0 -966.0 L 779.0 -965.0 L 784.0 -964.0 L 788.5 -962.5 L 793.0 -961.0 L 797.0 -957.0 L 800.0 -954.0 L 794.0 -951.5 L 788.0 -949.0 L 783.0 -946.0 L 746.0 -921.0 L 743.0 -913.0 L 738.0 -892.0 L 733.0 -872.5 L 728.0 -853.0 L 721.5 -834.5 L 715.0 -816.0 L 706.0 -798.0 L 697.0 -780.0 L 684.0 -762.0 L 682.0 -758.0 L 679.5 -755.0 L 677.0 -752.0 L 675.0 -748.0 L 675.0 -748.0 L 677.0 -749.0 L 678.0 -749.0 L 674.0 -745.0 L 670.0 -741.0 L 670.0 -741.0 L 675.0 -748.0 L 671.0 -746.0 L 660.5 -739.5 L 650.0 -733.0 L 636.5 -722.5 L 623.0 -712.0 L 606.5 -699.5 L 590.0 -687.0 L 574.0 -674.0 L 558.0 -662.0 L 545.5 -652.0 L 533.0 -642.0 L 522.0 -633.0 L 511.0 -624.0 L 504.0 -617.0 L 497.0 -610.0 L 493.0 -606.0 L 493.0 -605.0 L 491.0 -604.0 L 491.0 -604.0 L 490.0 -603.0 L 496.0 -605.0 L 500.5 -607.5 L 505.0 -610.0 L 509.0 -612.0 L 514.0 -615.0 L 515.0 -615.0 L 515.0 -615.0 L 513.0 -613.0 L 512.0 -612.0 L 508.5 -610.0 L 505.0 -608.0 L 502.0 -606.5 L 499.0 -605.0 L 496.0 -603.5 L 493.0 -602.0 L 491.0 -602.0 L 490.0 -602.0 L 490.0 -603.0 L 478.0 -597.0 L 462.0 -589.5 L 446.0 -582.0 L 429.5 -575.5 L 413.0 -569.0 L 396.0 -563.5 L 379.0 -558.0 L 366.0 -556.0 L 357.0 -555.0 L 343.5 -554.5 L 330.0 -554.0 L 318.5 -553.5 L 307.0 -553.0 L 301.0 -552.0 L 295.0 -551.0 L 302.0 -548.0 L 310.0 -545.0 L 319.0 -544.0 L 328.0 -543.0 L 336.0 -543.0 L 348.0 -543.0 L 360.5 -544.0 L 373.0 -545.0 L 385.0 -545.0 L 388.0 -545.0 L 391.5 -545.0 L 395.0 -545.0 L 397.0 -544.0 L 442.0 -541.0 L 477.0 -515.0 L 496.0 -501.0 L 496.0 -496.0 L 499.0 -488.0 L 485.0 -488.0 L 472.0 -488.0 L 460.5 -489.5 L 449.0 -491.0 L 437.0 -493.0 L 420.0 -496.0 L 397.0 -498.5 L 374.0 -501.0 L 347.0 -505.0 L 321.0 -509.0 L 298.0 -511.0 L 275.0 -513.0 L 253.0 -513.0 L 249.0 -514.0 L 245.0 -514.0 L 241.0 -514.0 L 237.0 -514.0 L 223.0 -514.0 L 209.5 -513.5 L 196.0 -513.0 L 182.0 -512.0 L 179.0 -511.0 L 174.5 -509.0 L 170.0 -507.0 Z M 818.0 -523.0 L 818.0 -524.0 L 819.0 -524.0 L 820.0 -524.0 L 824.0 -526.0 L 826.0 -527.0 L 822.0 -533.0 L 818.0 -538.0 L 824.0 -540.0 L 871.0 -557.0 L 911.0 -570.0 L 951.0 -583.0 L 985.0 -594.5 L 1019.0 -606.0 L 1046.5 -616.0 L 1074.0 -626.0 L 1094.0 -637.0 L 1174.0 -678.0 L 1219.0 -751.0 L 1226.0 -763.0 L 1233.5 -780.5 L 1241.0 -798.0 L 1250.0 -821.5 L 1259.0 -845.0 L 1270.5 -874.0 L 1282.0 -903.0 L 1297.0 -938.0 L 1298.0 -941.0 L 1302.0 -942.5 L 1306.0 -944.0 L 1310.0 -944.5 L 1314.0 -945.0 L 1318.5 -946.0 L 1323.0 -947.0 L 1327.0 -949.0 L 1339.0 -956.0 L 1347.0 -960.5 L 1355.0 -965.0 L 1358.0 -966.0 L 1371.0 -972.0 L 1379.5 -974.5 L 1388.0 -977.0 L 1391.0 -979.0 L 1404.0 -979.0 L 1409.0 -979.0 L 1414.5 -978.5 L 1420.0 -978.0 L 1425.0 -976.0 L 1429.0 -975.0 L 1433.5 -974.5 L 1438.0 -974.0 L 1443.0 -973.0 L 1448.0 -972.0 L 1453.0 -970.5 L 1458.0 -969.0 L 1461.0 -965.0 L 1462.0 -964.0 L 1461.0 -962.0 L 1460.0 -960.0 L 1457.5 -959.0 L 1455.0 -958.0 L 1452.0 -956.5 L 1449.0 -955.0 L 1447.0 -954.0 L 1410.0 -928.0 L 1407.0 -921.0 L 1402.0 -900.0 L 1397.0 -880.5 L 1392.0 -861.0 L 1385.5 -842.5 L 1379.0 -824.0 L 1370.0 -806.0 L 1361.0 -788.0 L 1348.0 -770.0 L 1346.0 -766.0 L 1343.5 -763.0 L 1341.0 -760.0 L 1339.0 -756.0 L 1339.0 -756.0 L 1341.0 -757.0 L 1342.0 -757.0 L 1338.0 -752.0 L 1334.0 -748.0 L 1334.0 -748.0 L 1339.0 -756.0 L 1335.0 -754.0 L 1324.5 -747.5 L 1314.0 -741.0 L 1300.5 -730.5 L 1287.0 -720.0 L 1270.5 -707.5 L 1254.0 -695.0 L 1238.0 -682.0 L 1222.0 -670.0 L 1209.5 -659.5 L 1197.0 -649.0 L 1187.0 -641.0 L 1176.0 -632.0 L 1168.5 -625.0 L 1161.0 -618.0 L 1157.0 -614.0 L 1157.0 -613.0 L 1155.0 -612.0 L 1155.0 -612.0 L 1154.0 -611.0 L 1160.0 -613.0 L 1164.5 -615.5 L 1169.0 -618.0 L 1173.0 -620.0 L 1178.0 -623.0 L 1179.0 -622.0 L 1179.0 -622.0 L 1177.0 -621.0 L 1176.0 -620.0 L 1172.5 -618.0 L 1169.0 -616.0 L 1166.0 -614.5 L 1163.0 -613.0 L 1160.0 -611.5 L 1157.0 -610.0 L 1155.0 -610.0 L 1154.0 -610.0 L 1154.0 -611.0 L 1142.0 -605.0 L 1126.0 -597.5 L 1110.0 -590.0 L 1093.5 -583.5 L 1077.0 -577.0 L 1060.0 -571.5 L 1043.0 -566.0 L 1030.0 -563.0 L 1021.0 -562.0 L 1007.5 -561.5 L 994.0 -561.0 L 982.5 -560.5 L 971.0 -560.0 L 965.0 -559.0 L 959.0 -558.0 L 966.0 -556.0 L 974.0 -553.0 L 983.0 -552.0 L 992.0 -551.0 L 1000.0 -551.0 L 1012.0 -551.0 L 1024.5 -552.0 L 1037.0 -553.0 L 1049.0 -553.0 L 1052.0 -553.0 L 1055.5 -553.0 L 1059.0 -553.0 L 1062.0 -552.0 L 1107.0 -549.0 L 1141.0 -523.0 L 1160.0 -509.0 L 1160.0 -504.0 L 1163.0 -496.0 L 1149.0 -496.0 L 1136.0 -496.0 L 1124.5 -497.0 L 1113.0 -498.0 L 1101.0 -501.0 L 1084.0 -504.0 L 1061.0 -506.5 L 1038.0 -509.0 L 1011.0 -513.0 L 985.0 -517.0 L 962.0 -519.0 L 939.0 -521.0 L 917.0 -521.0 L 913.0 -522.0 L 909.0 -522.0 L 905.0 -522.0 L 901.0 -522.0 L 887.0 -522.0 L 873.5 -521.5 L 860.0 -521.0 L 846.0 -519.0 L 843.0 -518.0 L 838.0 -516.5 L 833.0 -515.0 L 826.0 -515.0 L 821.0 -515.0 Z" fill="black" fill-opacity="0.25" stroke="black" stroke-width="4.0"/>
  <rect x="81.0" y="-392.0" width="1357.0" height="167.0" fill="none" stroke="red" stroke-width="10.0" /><rect x="154.0" y="-649.0" width="387.69999999999993" height="161.00000000000003" fill="none" stroke="red" stroke-width="10.0" /><rect x="468.1" y="-810.0" width="243.89999999999995" height="161.00000000000003" fill="none" stroke="red" stroke-width="10.0" /><rect x="584.7" y="-971.0" width="215.30000000000004" height="160.99999999999991" fill="none" stroke="red" stroke-width="10.0" /><rect x="818.0" y="-657.0" width="388.49999999999994" height="161.00000000000003" fill="none" stroke="red" stroke-width="10.0" /><rect x="1133.0" y="-818.0" width="242.9999999999999" height="160.99999999999991" fill="none" stroke="red" stroke-width="10.0" /><rect x="1248.6999999999998" y="-979.0" width="213.30000000000004" height="161.00000000000003" fill="none" stroke="red" stroke-width="10.0" />
</svg>
