<svg xmlns="http://www.w3.org/2000/svg"
  viewBox="58.0 -912.0 1972.0 737.0">
  <rect x="58.0" y="-912.0" width="1972.0" height="737.0" fill="white"/>
  <path d="M 171.0 -391.0 L 220.0 -378.0 L 271.5 -370.5 L 323.0 -363.0 L 381.0 -361.0 L 440.0 -360.0 L 512.0 -359.0 L 584.0 -358.0 L 678.0 -358.0 L 742.0 -358.0 L 848.0 -359.0 L 954.0 -360.0 L 1105.0 -363.0 L 1256.0 -365.0 L 1369.5 -366.0 L 1483.0 -367.0 L 1562.0 -367.0 L 1707.0 -367.0 L 1928.0 -269.0 L 1940.0 -256.0 L 1954.0 -246.0 L 1968.0 -236.0 L 1980.0 -225.0 L 1971.0 -225.0 L 1963.0 -225.5 L 1955.0 -226.0 L 1947.0 -228.0 L 1907.0 -232.0 L 1886.5 -236.0 L 1866.0 -240.0 L 1862.0 -240.0 L 1743.0 -248.0 L 1688.0 -251.0 L 1636.0 -253.5 L 1584.0 -256.0 L 1534.0 -256.0 L 1497.0 -256.0 L 1418.5 -254.0 L 1340.0 -252.0 L 1218.0 -247.0 L 1095.0 -242.0 L 1004.5 -240.0 L 914.0 -238.0 L 853.0 -238.0 L 729.0 -238.0 L 609.0 -243.5 L 489.0 -249.0 L 367.0 -264.0 L 280.0 -274.0 L 171.0 -364.0 Z M 108.0 -744.0 L 108.0 -772.0 L 122.0 -791.5 L 136.0 -811.0 L 158.5 -824.5 L 181.0 -838.0 L 209.0 -845.0 L 237.0 -852.0 L 265.5 -856.0 L 294.0 -860.0 L 321.0 -861.0 L 348.0 -862.0 L 368.0 -862.0 L 486.0 -859.0 L 599.0 -836.0 L 712.0 -813.0 L 824.0 -777.0 L 945.0 -738.0 L 1088.0 -641.0 L 1231.0 -543.0 L 1230.0 -500.0 L 1230.0 -483.0 L 1194.0 -483.0 L 1147.0 -483.0 L 1096.5 -491.0 L 1046.0 -499.0 L 1000.0 -511.0 L 1014.0 -612.0 L 840.0 -700.0 L 755.0 -741.0 L 668.5 -763.5 L 582.0 -786.0 L 487.0 -786.0 L 461.0 -786.0 L 430.5 -783.0 L 400.0 -780.0 L 372.5 -769.5 L 345.0 -759.0 L 326.0 -739.0 L 307.0 -719.0 L 304.0 -686.0 L 301.0 -653.0 L 348.0 -617.0 L 409.0 -570.0 L 412.0 -571.0 L 342.0 -573.0 L 290.5 -581.5 L 239.0 -590.0 L 202.0 -605.0 L 157.0 -625.0 L 125.0 -674.0 L 108.0 -714.0 Z M 1290.0 -717.0 L 1292.0 -720.0 L 1306.0 -719.0 L 1312.0 -719.0 L 1323.0 -719.0 L 1334.0 -719.0 L 1344.0 -718.5 L 1354.0 -718.0 L 1365.0 -717.0 L 1412.0 -709.0 L 1481.0 -696.0 L 1499.0 -601.0 L 1511.0 -540.0 L 1522.0 -526.0 L 1533.0 -513.0 L 1552.0 -509.0 L 1557.0 -509.0 L 1566.0 -507.0 L 1569.0 -507.0 L 1571.0 -506.0 L 1570.0 -499.0 L 1563.0 -494.0 L 1556.0 -489.0 L 1546.5 -486.0 L 1537.0 -483.0 L 1527.5 -482.0 L 1518.0 -481.0 L 1512.0 -481.0 L 1490.0 -481.0 L 1468.0 -486.5 L 1446.0 -492.0 L 1417.0 -502.0 L 1362.0 -522.0 L 1341.0 -648.0 L 1332.0 -701.0 L 1309.0 -701.0 L 1294.0 -701.0 L 1285.0 -701.0 L 1284.0 -702.0 L 1281.0 -705.0 Z M 1538.0 -721.0 L 1551.0 -721.0 L 1562.5 -720.0 L 1574.0 -719.0 L 1585.0 -718.0 L 1596.0 -717.0 L 1607.0 -715.0 L 1618.0 -713.0 L 1630.0 -710.0 L 1700.0 -696.0 L 1718.0 -601.0 L 1728.0 -543.0 L 1743.0 -528.0 L 1753.0 -513.0 L 1772.0 -510.0 L 1777.0 -509.0 L 1779.5 -508.0 L 1782.0 -507.0 L 1785.0 -507.0 L 1790.0 -507.0 L 1790.0 -500.0 L 1783.0 -495.0 L 1776.0 -490.0 L 1767.0 -487.5 L 1758.0 -485.0 L 1749.0 -483.5 L 1740.0 -482.0 L 1735.0 -482.0 L 1697.0 -482.0 L 1637.0 -504.0 L 1583.0 -525.0 L 1562.0 -653.0 L 1553.0 -704.0 L 1537.0 -704.0 L 1535.0 -704.0 L 1527.0 -704.0 L 1524.0 -706.5 L 1521.0 -709.0 L 1521.0 -718.0 L 1521.0 -721.0 Z" fill="black" fill-opacity="0.25" stroke="black" stroke-width="4.0"/>
  <rect x="171.0" y="-391.0" width="1809.0" height="166.0" fill="none" stroke="red" stroke-width="10.0" /><rect x="108.0" y="-862.0" width="1123.0" height="379.0" fill="none" stroke="red" stroke-width="10.0" /><rect x="1281.0" y="-720.0" width="290.00000000000006" height="239.0" fill="none" stroke="red" stroke-width="10.0" /><rect x="1521.0" y="-721.0" width="269.0000000000001" height="239.0" fill="none" stroke="red" stroke-width="10.0" />
</svg>
