<svg xmlns="http://www.w3.org/2000/svg"
  viewBox="26.0 -910.0 1456.0 731.0">
  <rect x="26.0" y="-910.0" width="1456.0" height="731.0" fill="white"/>
  <path d="M 120.0 -738.0 L 120.0 -766.0 L 133.5 -786.0 L 147.0 -806.0 L 169.0 -819.0 L 191.0 -832.0 L 219.0 -841.0 L 247.0 -850.0 L 275.5 -854.0 L 304.0 -858.0 L 330.5 -859.0 L 357.0 -860.0 L 376.0 -860.0 L 436.0 -860.0 L 493.5 -854.0 L 551.0 -848.0 L 607.5 -838.0 L 664.0 -828.0 L 720.5 -815.0 L 777.0 -802.0 L 834.0 -786.0 L 951.0 -752.0 L 1100.0 -654.0 L 1246.0 -556.0 L 1245.0 -516.0 L 1244.0 -498.0 L 1209.0 -498.0 L 1162.0 -498.0 L 1112.0 -504.0 L 1062.0 -510.0 L 1016.0 -520.0 L 1027.0 -624.0 L 852.0 -708.0 L 684.0 -788.0 L 512.0 -788.0 L 495.0 -788.0 L 474.5 -787.0 L 454.0 -786.0 L 432.5 -782.0 L 411.0 -778.0 L 390.5 -771.0 L 370.0 -764.0 L 353.5 -752.0 L 337.0 -740.0 L 326.5 -724.0 L 316.0 -708.0 L 315.0 -684.0 L 314.0 -654.0 L 361.0 -618.0 L 421.0 -572.0 L 425.0 -570.0 L 286.0 -572.0 L 215.0 -600.0 L 168.0 -620.0 L 137.0 -670.0 L 120.0 -710.0 Z M 76.0 -395.0 L 113.0 -382.0 L 151.0 -374.0 L 189.0 -366.0 L 233.0 -365.0 L 277.0 -364.0 L 331.0 -363.0 L 385.0 -362.0 L 456.0 -362.0 L 504.0 -362.0 L 583.5 -363.0 L 663.0 -364.0 L 776.0 -366.0 L 889.0 -368.0 L 974.0 -369.5 L 1059.0 -371.0 L 1118.0 -371.0 L 1225.0 -371.0 L 1393.0 -273.0 L 1402.0 -260.0 L 1412.5 -250.0 L 1423.0 -240.0 L 1432.0 -229.0 L 1419.0 -229.0 L 1407.0 -232.0 L 1377.0 -236.0 L 1361.5 -240.0 L 1346.0 -244.0 L 1343.0 -244.0 L 1254.0 -252.0 L 1213.0 -255.0 L 1174.5 -257.5 L 1136.0 -260.0 L 1098.0 -260.0 L 1070.0 -260.0 L 1011.0 -258.0 L 952.0 -256.0 L 860.0 -251.0 L 768.0 -246.0 L 700.0 -243.5 L 632.0 -241.0 L 587.0 -241.0 L 495.0 -241.0 L 404.0 -247.0 L 313.0 -253.0 L 223.0 -268.0 L 157.0 -278.0 L 76.0 -368.0 Z" fill="black" fill-opacity="0.25" stroke="black" stroke-width="4.0"/>
  <rect x="120.0" y="-860.0" width="1126.0" height="362.0" fill="none" stroke="red" stroke-width="10.0" /><rect x="76.0" y="-395.0" width="1355.9999999999998" height="166.0" fill="none" stroke="red" stroke-width="10.0" />
</svg>
