<svg xmlns="http://www.w3.org/2000/svg"
  viewBox="37.0 -960.1666666666666 1457.0 781.1666666666666">
  <rect x="37.0" y="-960.1666666666666" width="1457.0" height="781.1666666666666" fill="white"/>
  <path d="M 234.0 -268.0 L 169.0 -278.0 L 87.0 -368.0 L 87.0 -395.0 L 123.0 -382.0 L 162.5 -374.5 L 202.0 -367.0 L 245.0 -366.0 L 289.0 -365.0 L 343.0 -363.5 L 397.0 -362.0 L 467.0 -362.0 L 562.0 -362.0 L 788.0 -367.0 L 1013.0 -372.0 L 1130.0 -372.0 L 1237.0 -372.0 L 1405.0 -273.0 L 1414.0 -260.0 L 1424.5 -250.5 L 1435.0 -241.0 L 1444.0 -229.0 L 1443.0 -229.0 L 1436.5 -229.0 L 1430.0 -229.0 L 1419.0 -233.0 L 1389.0 -237.0 L 1373.5 -241.0 L 1358.0 -245.0 L 1354.0 -245.0 L 1266.0 -253.0 L 1225.0 -256.0 L 1186.0 -258.5 L 1147.0 -261.0 L 1109.0 -261.0 L 1054.0 -261.0 L 872.0 -251.0 L 689.0 -242.0 L 599.0 -242.0 L 552.0 -242.0 L 506.5 -243.5 L 461.0 -245.0 L 416.0 -248.0 L 371.0 -251.0 L 325.0 -256.0 L 279.0 -261.0 Z M 844.0 -680.0 L 838.0 -668.0 L 832.0 -649.5 L 826.0 -631.0 L 819.0 -606.0 L 957.0 -599.0 L 1188.0 -590.0 L 1233.0 -545.0 L 1091.0 -545.0 L 985.0 -545.0 L 879.0 -545.0 L 799.0 -546.0 L 782.0 -508.0 L 754.0 -479.0 L 743.0 -465.0 L 710.0 -455.0 L 693.0 -450.0 L 678.0 -449.0 L 663.0 -448.0 L 649.0 -448.0 L 627.0 -448.0 L 618.0 -451.0 L 605.0 -457.0 L 613.0 -465.0 L 638.0 -501.0 L 654.0 -551.0 L 641.0 -551.0 L 441.0 -560.0 L 343.0 -609.0 L 259.0 -648.0 L 157.0 -773.0 L 149.0 -787.0 L 145.0 -813.0 L 132.0 -887.0 L 127.0 -896.0 L 158.0 -900.0 L 196.0 -906.0 L 234.0 -911.0 L 249.0 -910.0 L 292.0 -909.0 L 321.0 -891.0 L 328.0 -887.0 L 329.0 -866.0 L 326.0 -821.0 L 326.0 -807.0 L 330.0 -801.0 L 422.0 -670.0 L 633.0 -627.0 L 641.0 -624.0 L 651.5 -623.5 L 662.0 -623.0 L 674.0 -621.0 L 679.0 -637.0 L 683.5 -649.0 L 688.0 -661.0 L 694.0 -673.0 L 702.0 -690.0 L 732.0 -690.0 L 793.0 -684.0 L 805.0 -682.0 L 818.5 -681.0 L 832.0 -680.0 Z" fill="black" fill-opacity="0.25" stroke="black" stroke-width="4.0"/>
  <rect x="87.0" y="-395.0" width="1357.0" height="166.0" fill="none" stroke="red" stroke-width="10.0" /><rect x="127.0" y="-911.0" width="1106.0" height="463.0" fill="none" stroke="red" stroke-width="10.0" />
</svg>
