<svg xmlns="http://www.w3.org/2000/svg"
  viewBox="-1 -941 1940 767">
  <rect x="-1" y="-941" width="1940" height="767" fill="white"/>
  <path d="M 352 -263 L 269 -273 L 166 -363 L 166 -390 L 212 -377 L 261.5 -369.5 L 311 -362 L 366 -360 L 422 -359 L 490.5 -358 L 559 -357 L 648 -357 L 769 -357 L 1056 -362 L 1342 -367 L 1490 -367 L 1627 -367 L 1839 -268 L 1851 -255 L 1864 -245 L 1877 -235 L 1889 -224 L 1887 -224 L 1879 -224 L 1871 -224 L 1857 -227 L 1819 -231 L 1799.5 -235.5 L 1780 -240 L 1776 -240 L 1663 -247 L 1611 -250 L 1561.5 -252.5 L 1512 -255 L 1464 -255 L 1395 -255 L 1163 -246 L 930 -237 L 815 -237 L 755 -237 L 698 -238.5 L 641 -240 L 583 -243 L 525 -246 L 467.5 -251 L 410 -256 Z M 1214 -677 L 1216 -680 L 1236 -680 L 1247 -680 L 1259.5 -680 L 1272 -680 L 1290 -677 L 1336 -669 L 1405 -656 L 1424 -561 L 1436 -500 L 1447 -486 L 1458 -473 L 1477 -469 L 1482 -468 L 1491 -467 L 1494 -467 L 1496 -466 L 1496 -463 L 1490 -456 L 1475 -441 L 1439 -441 L 1418 -441 L 1394.5 -446.5 L 1371 -452 L 1341 -462 L 1286 -482 L 1266 -608 L 1257 -661 L 1233 -661 L 1219 -661 L 1210 -661 L 1208 -663 L 1205 -665 Z M 1446 -678 L 1446 -681 L 1463 -681 L 1473 -681 L 1484.5 -681 L 1496 -681 L 1512 -678 L 1528 -675 L 1538.5 -673 L 1549 -671 L 1555 -670 L 1625 -656 L 1643 -561 L 1654 -503 L 1668 -488 L 1677 -472 L 1697 -470 L 1702 -469 L 1704.5 -468 L 1707 -467 L 1710 -467 L 1715 -467 L 1715 -463 L 1710 -458 L 1694 -442 L 1660 -442 L 1622 -442 L 1562 -464 L 1508 -485 L 1486 -613 L 1477 -667 L 1460 -664 L 1446 -661 Z M 767 -661 L 761 -649 L 754.5 -630 L 748 -611 L 742 -586 L 879 -580 L 1110 -571 L 1156 -525 L 1014 -525 L 907.5 -525 L 801 -525 L 721 -526 L 704 -488 L 676 -459 L 665 -445 L 662 -436 L 654 -415 L 634.5 -421.5 L 615 -428 L 601 -428 L 578 -428 L 569 -431 L 555 -437 L 536 -445 L 561 -481 L 576 -531 L 563 -531 L 363 -540 L 265 -589 L 181 -628 L 79 -753 L 71 -767 L 67 -793 L 54 -867 L 49 -876 L 81 -880 L 118 -886 L 156 -891 L 171 -891 L 214 -891 L 243 -872 L 250 -867 L 251 -847 L 248 -801 L 248 -787 L 252 -781 L 344 -650 L 556 -608 L 564 -605 L 574 -604 L 584 -603 L 596 -601 L 601 -617 L 606 -629.5 L 611 -642 L 617 -653 L 625 -670 L 654 -670 L 715 -664 L 728 -663 L 741 -662 L 754 -661 Z" fill="black" fill-opacity="0.25" stroke="black" stroke-width="4"/>
  <rect x="166" y="-390" width="1723" height="166" fill="none" stroke="red" stroke-width="10" /><rect x="1205" y="-680" width="291" height="239" fill="none" stroke="red" stroke-width="10" /><rect x="1446" y="-681" width="269" height="239" fill="none" stroke="red" stroke-width="10" /><rect x="49" y="-891" width="1107" height="476" fill="none" stroke="red" stroke-width="10" />
</svg>
