<svg xmlns="http://www.w3.org/2000/svg"
  viewBox="36.0 -762.2747252747253 1456.0 581.2747252747253">
  <rect x="36.0" y="-762.2747252747253" width="1456.0" height="581.2747252747253" fill="white"/>
  <path d="M 233.0 -270.0 L 168.0 -280.0 L 86.0 -370.0 L 86.0 -396.0 L 122.0 -383.0 L 161.0 -375.5 L 200.0 -368.0 L 244.0 -367.0 L 288.0 -366.0 L 342.0 -365.0 L 396.0 -364.0 L 466.0 -364.0 L 561.0 -364.0 L 786.0 -368.0 L 1011.0 -373.0 L 1128.0 -373.0 L 1235.0 -373.0 L 1403.0 -274.0 L 1412.0 -262.0 L 1422.5 -252.0 L 1433.0 -242.0 L 1442.0 -231.0 L 1441.0 -231.0 L 1434.5 -231.0 L 1428.0 -231.0 L 1417.0 -234.0 L 1387.0 -239.0 L 1371.5 -242.5 L 1356.0 -246.0 L 1353.0 -246.0 L 1264.0 -254.0 L 1223.0 -257.0 L 1184.5 -259.5 L 1146.0 -262.0 L 1108.0 -262.0 L 1053.0 -262.0 L 871.0 -253.0 L 688.0 -243.0 L 597.0 -243.0 L 550.0 -243.0 L 504.5 -244.5 L 459.0 -246.0 L 414.0 -249.0 L 369.0 -252.0 L 323.5 -257.5 L 278.0 -263.0 Z M 636.0 -704.0 L 681.0 -709.0 L 724.0 -712.0 L 792.0 -717.0 L 828.0 -631.0 L 850.0 -580.0 L 864.0 -567.0 L 877.0 -555.0 L 896.0 -557.0 L 915.0 -560.0 L 914.0 -557.0 L 914.0 -554.0 L 911.0 -548.0 L 900.0 -530.0 L 867.0 -523.0 L 828.0 -514.0 L 772.0 -523.0 L 716.0 -532.0 L 670.0 -645.0 L 651.0 -692.0 L 636.0 -687.0 Z" fill="black" fill-opacity="0.25" stroke="black" stroke-width="4.0"/>
  <rect x="86.0" y="-396.0" width="1355.9999999999998" height="165.0" fill="none" stroke="red" stroke-width="10.0" /><rect x="636.0" y="-717.0" width="279.0" height="202.99999999999997" fill="none" stroke="red" stroke-width="10.0" />
</svg>
