<svg xmlns="http://www.w3.org/2000/svg"
  viewBox="40.0 -1350.0 1500.4 1174.0">
  <rect x="40.0" y="-1350.0" width="1500.4" height="1174.0" fill="white"/>
  <path d="M 248.0 -362.0 L 292.0 -361.0 L 345.5 -360.0 L 399.0 -359.0 L 470.0 -359.0 L 518.0 -359.0 L 597.0 -360.0 L 676.0 -361.0 L 790.0 -364.0 L 904.0 -366.0 L 988.5 -367.5 L 1073.0 -369.0 L 1132.0 -369.0 L 1239.0 -369.0 L 1407.0 -270.0 L 1416.0 -257.0 L 1426.5 -247.0 L 1437.0 -237.0 L 1446.0 -226.0 L 1432.0 -226.0 L 1421.0 -230.0 L 1391.0 -234.0 L 1375.5 -238.0 L 1360.0 -242.0 L 1357.0 -242.0 L 1268.0 -250.0 L 1226.0 -253.0 L 1188.0 -255.0 L 1150.0 -257.0 L 1112.0 -257.0 L 1084.0 -257.0 L 1025.5 -255.0 L 967.0 -253.0 L 875.0 -248.0 L 782.0 -243.0 L 714.5 -241.0 L 647.0 -239.0 L 601.0 -239.0 L 509.0 -239.0 L 418.5 -245.0 L 328.0 -251.0 L 237.0 -265.0 L 171.0 -275.0 L 90.0 -365.0 L 90.0 -392.0 L 127.0 -379.0 L 165.5 -371.0 L 204.0 -363.0 Z M 219.0 -844.0 L 219.0 -845.0 L 220.0 -846.0 L 221.0 -846.0 L 225.0 -847.0 L 227.0 -848.0 L 223.0 -854.0 L 219.0 -859.0 L 225.0 -861.0 L 272.0 -878.0 L 312.0 -891.5 L 352.0 -905.0 L 386.0 -916.5 L 420.0 -928.0 L 447.5 -938.0 L 475.0 -948.0 L 495.0 -958.0 L 575.0 -998.0 L 620.0 -1072.0 L 627.0 -1084.0 L 634.5 -1101.5 L 642.0 -1119.0 L 651.0 -1142.5 L 660.0 -1166.0 L 671.5 -1195.5 L 683.0 -1225.0 L 698.0 -1260.0 L 699.0 -1263.0 L 703.0 -1264.5 L 707.0 -1266.0 L 711.0 -1266.5 L 715.0 -1267.0 L 719.5 -1267.5 L 724.0 -1268.0 L 728.0 -1271.0 L 740.0 -1278.0 L 748.0 -1282.0 L 756.0 -1286.0 L 759.0 -1288.0 L 772.0 -1294.0 L 780.5 -1296.5 L 789.0 -1299.0 L 792.0 -1300.0 L 805.0 -1300.0 L 810.0 -1300.0 L 815.5 -1299.5 L 821.0 -1299.0 L 826.0 -1298.0 L 830.0 -1297.0 L 834.5 -1296.0 L 839.0 -1295.0 L 844.0 -1294.5 L 849.0 -1294.0 L 853.5 -1292.0 L 858.0 -1290.0 L 862.0 -1286.0 L 863.0 -1285.0 L 862.0 -1283.5 L 861.0 -1282.0 L 858.5 -1280.5 L 856.0 -1279.0 L 853.0 -1278.0 L 850.0 -1277.0 L 848.0 -1276.0 L 810.0 -1250.0 L 808.0 -1243.0 L 802.0 -1218.0 L 796.5 -1196.5 L 791.0 -1175.0 L 783.5 -1155.5 L 776.0 -1136.0 L 765.5 -1117.0 L 755.0 -1098.0 L 740.0 -1078.0 L 741.0 -1078.0 L 741.0 -1078.0 L 741.0 -1078.0 L 741.0 -1078.0 L 742.0 -1079.0 L 744.0 -1079.0 L 739.0 -1074.0 L 735.0 -1070.0 L 735.0 -1070.0 L 735.0 -1070.5 L 735.0 -1071.0 L 736.0 -1072.0 L 737.0 -1073.0 L 738.0 -1074.5 L 739.0 -1076.0 L 740.0 -1078.0 L 736.0 -1076.0 L 725.5 -1069.0 L 715.0 -1062.0 L 701.5 -1052.0 L 688.0 -1042.0 L 671.5 -1029.0 L 655.0 -1016.0 L 639.0 -1004.0 L 623.0 -992.0 L 610.5 -981.5 L 598.0 -971.0 L 587.0 -962.0 L 576.0 -953.0 L 569.0 -946.5 L 562.0 -940.0 L 558.0 -936.0 L 558.0 -935.0 L 556.0 -933.0 L 556.0 -933.0 L 555.0 -932.0 L 561.0 -934.0 L 565.5 -936.5 L 570.0 -939.0 L 574.0 -941.0 L 579.0 -944.0 L 580.0 -944.0 L 580.0 -944.0 L 578.0 -943.0 L 577.0 -942.0 L 573.5 -940.0 L 570.0 -938.0 L 566.5 -936.0 L 563.0 -934.0 L 560.5 -933.0 L 558.0 -932.0 L 556.0 -932.0 L 555.0 -932.0 L 555.0 -932.0 L 543.0 -926.0 L 527.0 -919.0 L 511.0 -912.0 L 494.5 -905.0 L 478.0 -898.0 L 461.0 -892.5 L 444.0 -887.0 L 431.0 -885.0 L 422.0 -884.0 L 408.5 -883.5 L 395.0 -883.0 L 383.5 -882.5 L 372.0 -882.0 L 366.0 -881.0 L 360.0 -880.0 L 367.0 -877.0 L 375.0 -874.0 L 384.0 -873.0 L 393.0 -872.0 L 402.0 -872.0 L 414.0 -872.0 L 426.5 -873.0 L 439.0 -874.0 L 452.0 -874.0 L 454.0 -874.0 L 457.0 -874.0 L 460.0 -874.0 L 462.0 -874.0 L 507.0 -871.0 L 542.0 -844.0 L 561.0 -830.0 L 561.0 -825.0 L 564.0 -817.0 L 550.0 -818.0 L 537.0 -818.0 L 525.5 -819.0 L 514.0 -820.0 L 501.0 -822.0 L 484.0 -825.0 L 461.5 -828.0 L 439.0 -831.0 L 412.0 -835.0 L 386.0 -839.0 L 363.0 -840.5 L 340.0 -842.0 L 318.0 -842.0 L 314.0 -843.0 L 310.0 -843.0 L 306.0 -843.0 L 302.0 -843.0 L 288.0 -843.0 L 274.5 -842.5 L 261.0 -842.0 L 247.0 -841.0 L 244.0 -840.0 L 239.0 -838.5 L 234.0 -837.0 L 227.0 -837.0 L 222.0 -836.0 Z M 846.0 -591.0 L 846.0 -592.0 L 848.0 -592.0 L 849.0 -592.0 L 852.0 -594.0 L 854.0 -595.0 L 850.0 -601.0 L 846.0 -606.0 L 852.0 -608.0 L 898.0 -625.0 L 938.5 -638.5 L 979.0 -652.0 L 1013.0 -663.0 L 1047.0 -674.0 L 1074.5 -684.0 L 1102.0 -694.0 L 1123.0 -705.0 L 1203.0 -745.0 L 1248.0 -819.0 L 1255.0 -831.0 L 1262.5 -848.5 L 1270.0 -866.0 L 1278.5 -889.5 L 1287.0 -913.0 L 1298.5 -942.0 L 1310.0 -971.0 L 1326.0 -1007.0 L 1327.0 -1010.0 L 1330.0 -1011.0 L 1333.0 -1012.0 L 1337.5 -1012.5 L 1342.0 -1013.0 L 1346.5 -1014.0 L 1351.0 -1015.0 L 1355.0 -1017.0 L 1367.0 -1024.0 L 1375.5 -1028.5 L 1384.0 -1033.0 L 1387.0 -1034.0 L 1400.0 -1040.0 L 1408.5 -1043.0 L 1417.0 -1046.0 L 1419.0 -1047.0 L 1433.0 -1047.0 L 1438.0 -1047.0 L 1443.0 -1046.5 L 1448.0 -1046.0 L 1454.0 -1044.0 L 1458.0 -1043.0 L 1462.5 -1042.5 L 1467.0 -1042.0 L 1472.0 -1041.0 L 1477.0 -1040.0 L 1481.5 -1038.5 L 1486.0 -1037.0 L 1490.0 -1033.0 L 1491.0 -1032.0 L 1489.5 -1030.0 L 1488.0 -1028.0 L 1485.5 -1027.0 L 1483.0 -1026.0 L 1480.0 -1025.0 L 1477.0 -1024.0 L 1476.0 -1022.0 L 1438.0 -997.0 L 1435.0 -989.0 L 1427.0 -955.0 L 1420.0 -931.0 L 1413.0 -907.0 L 1405.0 -888.0 L 1403.0 -882.0 L 1398.5 -873.5 L 1394.0 -865.0 L 1388.0 -856.0 L 1382.0 -847.0 L 1376.5 -838.5 L 1371.0 -830.0 L 1367.0 -824.0 L 1368.0 -824.0 L 1368.0 -825.0 L 1368.0 -825.0 L 1368.0 -825.0 L 1369.0 -825.0 L 1371.0 -825.0 L 1366.0 -820.0 L 1363.0 -817.0 L 1362.0 -817.0 L 1362.0 -817.0 L 1367.0 -824.0 L 1363.0 -822.0 L 1353.0 -815.5 L 1343.0 -809.0 L 1329.0 -798.5 L 1315.0 -788.0 L 1299.0 -775.5 L 1283.0 -763.0 L 1267.0 -750.0 L 1251.0 -738.0 L 1238.5 -727.5 L 1226.0 -717.0 L 1215.0 -709.0 L 1204.0 -700.0 L 1196.5 -693.0 L 1189.0 -686.0 L 1185.0 -682.0 L 1185.0 -681.0 L 1183.0 -680.0 L 1183.0 -680.0 L 1183.0 -679.0 L 1189.0 -681.0 L 1193.5 -683.5 L 1198.0 -686.0 L 1202.0 -688.0 L 1207.0 -691.0 L 1208.0 -691.0 L 1208.0 -691.0 L 1205.0 -689.0 L 1204.0 -688.0 L 1200.5 -686.0 L 1197.0 -684.0 L 1194.0 -682.5 L 1191.0 -681.0 L 1188.0 -679.5 L 1185.0 -678.0 L 1184.0 -678.0 L 1183.0 -678.0 L 1183.0 -679.0 L 1171.0 -673.0 L 1155.0 -665.5 L 1139.0 -658.0 L 1122.0 -651.5 L 1105.0 -645.0 L 1088.5 -639.5 L 1072.0 -634.0 L 1059.0 -632.0 L 1051.0 -631.0 L 1036.5 -630.5 L 1022.0 -630.0 L 1010.5 -629.5 L 999.0 -629.0 L 993.0 -628.0 L 987.0 -627.0 L 995.0 -624.0 L 1003.0 -621.0 L 1011.5 -620.0 L 1020.0 -619.0 L 1029.0 -619.0 L 1041.0 -619.0 L 1053.5 -620.0 L 1066.0 -621.0 L 1079.0 -621.0 L 1081.0 -621.0 L 1084.0 -620.5 L 1087.0 -620.0 L 1090.0 -620.0 L 1135.0 -617.0 L 1169.0 -591.0 L 1188.0 -577.0 L 1188.0 -572.0 L 1191.0 -564.0 L 1177.0 -564.0 L 1164.0 -564.0 L 1153.0 -565.5 L 1142.0 -567.0 L 1129.0 -569.0 L 1112.0 -572.0 L 1089.0 -574.5 L 1066.0 -577.0 L 1040.0 -581.0 L 1014.0 -585.0 L 991.0 -587.0 L 968.0 -589.0 L 946.0 -589.0 L 942.0 -590.0 L 938.0 -590.0 L 934.0 -590.0 L 930.0 -590.0 L 916.0 -590.0 L 902.0 -589.5 L 888.0 -589.0 L 874.0 -588.0 L 871.0 -587.0 L 866.5 -585.0 L 862.0 -583.0 L 854.0 -583.0 L 849.0 -583.0 Z M 233.0 -711.0 L 235.0 -714.0 L 250.0 -714.0 L 255.0 -714.0 L 267.0 -714.0 L 278.0 -714.0 L 288.0 -713.5 L 298.0 -713.0 L 309.0 -711.0 L 355.0 -703.0 L 424.0 -690.0 L 443.0 -595.0 L 455.0 -534.0 L 466.0 -520.0 L 477.0 -507.0 L 496.0 -503.0 L 501.0 -503.0 L 510.0 -501.0 L 513.0 -501.0 L 515.0 -500.0 L 515.0 -497.0 L 509.0 -490.0 L 499.0 -480.0 L 484.0 -477.5 L 469.0 -475.0 L 456.0 -475.0 L 434.0 -475.0 L 412.0 -480.5 L 390.0 -486.0 L 360.0 -496.0 L 305.0 -516.0 L 285.0 -642.0 L 276.0 -695.0 L 252.0 -695.0 L 238.0 -695.0 L 229.0 -695.0 L 228.0 -696.0 L 224.0 -699.0 Z M 465.0 -712.0 L 465.0 -715.0 L 482.0 -715.0 L 495.0 -715.0 L 506.5 -714.5 L 518.0 -714.0 L 529.0 -712.5 L 540.0 -711.0 L 551.0 -709.0 L 562.0 -707.0 L 574.0 -704.0 L 644.0 -690.0 L 662.0 -595.0 L 673.0 -538.0 L 687.0 -522.0 L 697.0 -507.0 L 716.0 -504.0 L 721.0 -503.0 L 723.5 -502.0 L 726.0 -501.0 L 729.0 -501.0 L 734.0 -501.0 L 734.0 -494.0 L 727.0 -489.5 L 720.0 -485.0 L 711.0 -482.0 L 702.0 -479.0 L 693.0 -477.5 L 684.0 -476.0 L 679.0 -476.0 L 641.0 -476.0 L 581.0 -498.0 L 526.0 -519.0 L 505.0 -647.0 L 497.0 -698.0 L 481.0 -698.0 L 479.0 -698.0 L 471.0 -698.0 L 468.0 -700.0 L 465.0 -702.0 Z" fill="black" fill-opacity="0.25" stroke="black" stroke-width="4.0"/>
  <rect x="90.0" y="-392.0" width="1355.9999999999998" height="166.0" fill="none" stroke="red" stroke-width="10.0" /><rect x="224.0" y="-714.0" width="291.00000000000006" height="239.0" fill="none" stroke="red" stroke-width="10.0" /><rect x="465.0" y="-715.0" width="268.99999999999994" height="239.0" fill="none" stroke="red" stroke-width="10.0" /><rect x="219.0" y="-978.6" width="388.0" height="160.70000000000007" fill="none" stroke="red" stroke-width="10.0" /><rect x="536.2" y="-1139.3" width="241.1" height="160.69999999999996" fill="none" stroke="red" stroke-width="10.0" /><rect x="649.8000000000001" y="-1300.0" width="213.19999999999993" height="160.70000000000007" fill="none" stroke="red" stroke-width="10.0" /><rect x="846.0" y="-725.0" width="389.50000000000006" height="161.00000000000003" fill="none" stroke="red" stroke-width="10.0" /><rect x="1163.0" y="-886.0" width="241.30000000000007" height="161.00000000000003" fill="none" stroke="red" stroke-width="10.0" /><rect x="1277.1999999999998" y="-1047.0" width="213.8000000000002" height="160.99999999999991" fill="none" stroke="red" stroke-width="10.0" />
</svg>
