<svg xmlns="http://www.w3.org/2000/svg"
  viewBox="6.0 -1028.0 1488.0 850.0">
  <rect x="6.0" y="-1028.0" width="1488.0" height="850.0" fill="white"/>
  <path d="M 88.0 -367.0 L 88.0 -393.0 L 125.0 -381.0 L 163.0 -373.0 L 201.0 -365.0 L 246.0 -364.0 L 290.0 -362.0 L 343.5 -361.5 L 397.0 -361.0 L 468.0 -361.0 L 516.0 -361.0 L 595.0 -362.0 L 674.0 -363.0 L 788.0 -366.0 L 1013.0 -370.0 L 1130.0 -370.0 L 1237.0 -370.0 L 1405.0 -272.0 L 1414.0 -259.0 L 1424.5 -249.0 L 1435.0 -239.0 L 1444.0 -228.0 L 1437.0 -228.0 L 1431.5 -228.5 L 1426.0 -229.0 L 1419.0 -231.0 L 1389.0 -236.0 L 1373.5 -239.5 L 1358.0 -243.0 L 1355.0 -243.0 L 1266.0 -251.0 L 1224.0 -254.0 L 1186.0 -256.5 L 1148.0 -259.0 L 1110.0 -259.0 L 1082.0 -259.0 L 1023.5 -257.0 L 965.0 -255.0 L 873.0 -250.0 L 780.0 -245.0 L 712.5 -243.0 L 645.0 -241.0 L 599.0 -241.0 L 506.0 -241.0 L 416.5 -247.0 L 327.0 -253.0 L 235.0 -267.0 L 169.0 -277.0 Z M 64.0 -514.0 L 59.0 -514.0 L 56.0 -522.0 L 56.0 -523.0 L 58.0 -523.0 L 59.0 -523.0 L 62.0 -525.0 L 64.0 -526.0 L 60.0 -532.0 L 56.0 -537.0 L 62.0 -539.0 L 109.0 -556.0 L 149.0 -569.0 L 189.0 -582.0 L 223.5 -593.0 L 258.0 -604.0 L 285.0 -614.5 L 312.0 -625.0 L 333.0 -636.0 L 413.0 -677.0 L 458.0 -750.0 L 465.0 -762.0 L 472.0 -779.5 L 479.0 -797.0 L 488.0 -820.5 L 497.0 -844.0 L 508.5 -873.0 L 520.0 -902.0 L 536.0 -937.0 L 537.0 -940.0 L 540.5 -941.5 L 544.0 -943.0 L 548.0 -943.5 L 552.0 -944.0 L 557.0 -945.0 L 562.0 -946.0 L 565.0 -948.0 L 577.0 -955.0 L 585.0 -959.5 L 593.0 -964.0 L 597.0 -965.0 L 609.0 -971.0 L 617.5 -973.5 L 626.0 -976.0 L 629.0 -978.0 L 643.0 -978.0 L 648.0 -978.0 L 653.0 -977.5 L 658.0 -977.0 L 664.0 -975.0 L 668.0 -974.0 L 672.5 -973.0 L 677.0 -972.0 L 682.0 -971.5 L 687.0 -971.0 L 691.5 -969.5 L 696.0 -968.0 L 700.0 -964.0 L 701.0 -963.0 L 700.0 -961.5 L 699.0 -960.0 L 696.0 -958.5 L 693.0 -957.0 L 690.5 -955.5 L 688.0 -954.0 L 686.0 -953.0 L 649.0 -929.0 L 645.0 -920.0 L 637.0 -886.0 L 630.0 -862.0 L 623.0 -838.0 L 615.0 -819.0 L 613.0 -813.0 L 608.5 -804.5 L 604.0 -796.0 L 598.0 -787.0 L 592.0 -778.0 L 586.5 -769.5 L 581.0 -761.0 L 577.0 -755.0 L 578.0 -755.0 L 578.0 -756.0 L 578.0 -756.0 L 579.0 -756.0 L 581.0 -756.0 L 576.0 -751.0 L 573.0 -748.0 L 572.0 -748.0 L 572.0 -748.0 L 577.0 -755.0 L 573.0 -753.0 L 563.0 -746.5 L 553.0 -740.0 L 539.0 -729.5 L 525.0 -719.0 L 509.0 -706.5 L 493.0 -694.0 L 477.0 -681.0 L 455.0 -664.0 L 433.5 -647.0 L 412.0 -630.0 L 393.0 -611.0 L 393.0 -611.0 L 393.0 -610.0 L 399.0 -612.0 L 403.5 -614.5 L 408.0 -617.0 L 412.0 -618.0 L 417.0 -621.0 L 417.0 -621.0 L 416.0 -620.0 L 415.0 -620.0 L 414.0 -619.0 L 410.5 -617.0 L 407.0 -615.0 L 404.0 -613.5 L 401.0 -612.0 L 398.0 -610.5 L 395.0 -609.0 L 394.0 -609.0 L 393.0 -609.0 L 393.0 -610.0 L 381.0 -604.0 L 365.0 -596.5 L 349.0 -589.0 L 332.0 -582.0 L 315.0 -575.0 L 298.5 -570.0 L 282.0 -565.0 L 269.0 -562.0 L 260.0 -561.0 L 246.0 -560.5 L 232.0 -560.0 L 220.5 -559.5 L 209.0 -559.0 L 203.0 -558.0 L 197.0 -557.0 L 205.0 -554.0 L 213.0 -551.0 L 221.5 -550.5 L 230.0 -550.0 L 239.0 -550.0 L 251.0 -550.0 L 263.0 -551.0 L 275.0 -552.0 L 288.0 -552.0 L 291.0 -552.0 L 294.0 -552.0 L 297.0 -552.0 L 300.0 -551.0 L 345.0 -548.0 L 379.0 -522.0 L 398.0 -508.0 L 398.0 -503.0 L 401.0 -495.0 L 387.0 -495.0 L 374.0 -495.0 L 363.0 -496.0 L 352.0 -497.0 L 339.0 -500.0 L 322.0 -503.0 L 299.0 -505.5 L 276.0 -508.0 L 250.0 -512.0 L 224.0 -516.0 L 201.0 -518.0 L 178.0 -520.0 L 156.0 -520.0 L 154.0 -521.0 L 151.0 -521.0 L 148.0 -521.0 L 146.0 -521.0 L 130.0 -521.0 L 115.0 -520.5 L 100.0 -520.0 L 84.0 -518.0 L 81.0 -517.0 L 76.5 -515.5 L 72.0 -514.0 Z M 661.0 -695.0 L 662.0 -696.0 L 666.0 -697.5 L 670.0 -699.0 L 674.0 -699.5 L 678.0 -700.0 L 681.5 -700.0 L 685.0 -700.0 L 687.0 -700.0 L 702.0 -700.0 L 730.0 -695.0 L 746.0 -693.0 L 756.0 -692.0 L 766.0 -691.0 L 772.0 -690.0 L 835.0 -680.0 L 852.0 -594.0 L 862.0 -541.0 L 872.0 -526.0 L 880.0 -512.0 L 900.0 -511.0 L 905.0 -510.0 L 913.0 -509.0 L 916.0 -509.0 L 917.0 -508.0 L 917.0 -503.0 L 913.0 -498.0 L 899.0 -484.0 L 866.0 -484.0 L 847.0 -484.0 L 825.0 -489.0 L 803.0 -494.0 L 777.0 -504.0 L 727.0 -522.0 L 708.0 -634.0 L 702.0 -682.0 L 678.0 -682.0 L 666.0 -682.0 L 658.0 -682.0 L 656.0 -684.0 L 655.0 -686.0 Z M 883.0 -697.0 L 883.0 -702.0 L 896.0 -701.0 L 900.0 -701.0 L 907.0 -701.0 L 917.5 -700.0 L 928.0 -699.0 L 942.0 -697.0 L 957.0 -695.0 L 966.0 -693.0 L 975.0 -691.0 L 981.0 -690.0 L 1044.0 -681.0 L 1062.0 -594.0 L 1072.0 -542.0 L 1083.0 -526.0 L 1090.0 -516.0 L 1109.0 -512.0 L 1127.0 -508.0 L 1126.0 -508.0 L 1126.0 -505.0 L 1125.5 -505.5 L 1125.0 -506.0 L 1122.0 -500.0 L 1115.0 -486.0 L 1077.0 -486.0 L 1058.0 -486.0 L 1036.0 -491.0 L 1014.0 -496.0 L 988.0 -506.0 L 938.0 -524.0 L 919.0 -639.0 L 912.0 -686.0 L 898.0 -686.0 L 897.0 -686.0 L 896.0 -686.0 L 892.0 -685.0 L 883.0 -686.0 Z" fill="black" fill-opacity="0.25" stroke="black" stroke-width="4.0"/>
  <rect x="88.0" y="-393.0" width="1355.9999999999998" height="165.0" fill="none" stroke="red" stroke-width="10.0" /><rect x="56.0" y="-978.0" width="644.9999999999999" height="483.0" fill="none" stroke="red" stroke-width="10.0" /><rect x="655.0" y="-700.0" width="262.0" height="215.99999999999997" fill="none" stroke="red" stroke-width="10.0" /><rect x="883.0" y="-702.0" width="244.0" height="215.99999999999997" fill="none" stroke="red" stroke-width="10.0" />
</svg>
