<svg xmlns="http://www.w3.org/2000/svg"
  viewBox="39 -766 1443 587">
  <rect x="39" y="-766" width="1443" height="587" fill="white"/>
  <path d="M 1063 -479 L 1051 -464 L 1029 -458 L 1006 -452 L 976 -452 L 954 -452 L 935 -454 L 916 -456 L 893 -460 L 872 -463 L 858.5 -467.5 L 845 -472 L 837 -475 L 792 -494 L 760 -510 L 757 -514 L 755 -518 L 760 -521 L 761 -522 L 773 -522 L 781 -522 L 789.5 -522 L 798 -522 L 810 -519 L 876 -509 L 888 -510 L 907 -510 L 915 -518 L 921 -523 L 921 -535 L 921 -552 L 895 -597 L 869 -642 L 868 -666 L 868 -687 L 884 -702 L 890 -707 L 918 -713 L 931 -716 L 945.5 -716 L 960 -716 L 976 -716 L 993 -716 L 1011 -716 L 1029 -716 L 1048 -713 L 1084 -708 L 1085 -707 L 1094 -690 L 1095 -680 L 1095 -667 L 1076 -666 L 1066 -666 L 1048 -671 L 1028 -676 L 1021 -676 L 1015 -676 L 1015 -671 L 1015 -653 L 1048 -600 L 1080 -549 L 1081 -521 L 1081 -500 Z M 235 -268 L 170 -278 L 89 -368 L 89 -395 L 125 -382 L 163.5 -374 L 202 -366 L 245 -365 L 288 -364 L 342 -363 L 396 -362 L 465 -362 L 559 -362 L 783 -366 L 1006 -371 L 1122 -371 L 1228 -371 L 1394 -273 L 1403 -260 L 1413 -250 L 1423 -240 L 1432 -229 L 1431 -229 L 1424.5 -229 L 1418 -229 L 1408 -232 L 1379 -236 L 1363 -240 L 1347 -244 L 1344 -244 L 1255 -252 L 1215 -255 L 1176.5 -257.5 L 1138 -260 L 1101 -260 L 1047 -260 L 866 -251 L 684 -242 L 596 -241 L 549 -241 L 504 -242.5 L 459 -244 L 414 -248 L 369 -251 L 324.5 -256 L 280 -261 Z" fill="black" fill-opacity="0.25" stroke="black" stroke-width="4"/>
  <rect x="755" y="-716" width="340" height="264" fill="none" stroke="red" stroke-width="10" /><rect x="89" y="-395" width="1343" height="166" fill="none" stroke="red" stroke-width="10" />
</svg>
