<svg xmlns="http://www.w3.org/2000/svg"
  viewBox="36 -762.275 1456 581.275">
  <rect x="36" y="-762.275" width="1456" height="581.275" fill="white"/>
  <path d="M 233 -270 L 168 -280 L 86 -370 L 86 -396 L 122 -383 L 161 -375.5 L 200 -368 L 244 -367 L 288 -366 L 342 -365 L 396 -364 L 466 -364 L 561 -364 L 786 -368 L 1011 -373 L 1128 -373 L 1235 -373 L 1403 -274 L 1412 -262 L 1422.5 -252 L 1433 -242 L 1442 -231 L 1441 -231 L 1434.5 -231 L 1428 -231 L 1417 -234 L 1387 -239 L 1371.5 -242.5 L 1356 -246 L 1353 -246 L 1264 -254 L 1223 -257 L 1184.5 -259.5 L 1146 -262 L 1108 -262 L 1053 -262 L 871 -253 L 688 -243 L 597 -243 L 550 -243 L 504.5 -244.5 L 459 -246 L 414 -249 L 369 -252 L 323.5 -257.5 L 278 -263 Z M 636 -704 L 681 -709 L 724 -712 L 792 -717 L 828 -631 L 850 -580 L 864 -567 L 877 -555 L 896 -557 L 915 -560 L 914 -557 L 914 -554 L 911 -548 L 900 -530 L 867 -523 L 828 -514 L 772 -523 L 716 -532 L 670 -645 L 651 -692 L 636 -687 Z" fill="black" fill-opacity="0.25" stroke="black" stroke-width="4"/>
  <rect x="86" y="-396" width="1356" height="165" fill="none" stroke="red" stroke-width="10" /><rect x="636" y="-717" width="279" height="203" fill="none" stroke="red" stroke-width="10" />
</svg>
