<svg xmlns="http://www.w3.org/2000/svg"
  viewBox="22.0 -438.0 1456.0 493.0">
  <rect x="22.0" y="-438.0" width="1456.0" height="493.0" fill="white"/>
  <path d="M 219.0 -262.0 L 154.0 -272.0 L 72.0 -362.0 L 72.0 -388.0 L 108.0 -376.0 L 147.0 -368.0 L 186.0 -360.0 L 230.0 -359.0 L 274.0 -357.0 L 327.5 -356.5 L 381.0 -356.0 L 452.0 -356.0 L 547.0 -356.0 L 772.0 -361.0 L 997.0 -365.0 L 1114.0 -365.0 L 1221.0 -365.0 L 1389.0 -267.0 L 1398.0 -254.0 L 1408.5 -244.0 L 1419.0 -234.0 L 1428.0 -223.0 L 1427.0 -223.0 L 1420.5 -223.0 L 1414.0 -223.0 L 1403.0 -226.0 L 1373.0 -231.0 L 1357.5 -235.0 L 1342.0 -239.0 L 1339.0 -239.0 L 1250.0 -246.0 L 1209.0 -249.0 L 1170.0 -251.5 L 1131.0 -254.0 L 1094.0 -254.0 L 1039.0 -254.0 L 857.0 -245.0 L 674.0 -236.0 L 583.0 -236.0 L 536.0 -236.0 L 490.5 -237.5 L 445.0 -239.0 L 400.0 -241.0 L 355.0 -244.0 L 309.5 -249.5 L 264.0 -255.0 Z M 944.0 -206.0 L 946.0 -210.0 L 966.0 -210.0 L 982.0 -210.0 L 1013.0 -206.0 L 1029.0 -204.0 L 1038.5 -203.0 L 1048.0 -202.0 L 1055.0 -201.0 L 1118.0 -191.0 L 1134.0 -104.0 L 1144.0 -51.0 L 1155.0 -37.0 L 1163.0 -23.0 L 1183.0 -21.0 L 1188.0 -20.0 L 1195.0 -20.0 L 1198.0 -20.0 L 1200.0 -18.0 L 1200.0 -13.0 L 1195.0 -9.0 L 1181.0 5.0 L 1149.0 5.0 L 1130.0 5.0 L 1108.0 -0.0 L 1086.0 -5.0 L 1060.0 -15.0 L 1010.0 -34.0 L 991.0 -145.0 L 985.0 -193.0 L 961.0 -193.0 L 948.0 -193.0 L 940.0 -193.0 L 939.0 -195.0 L 938.0 -196.0 Z M 1166.0 -207.0 L 1166.0 -212.0 L 1183.0 -212.0 L 1197.0 -212.0 L 1225.0 -207.0 L 1239.0 -205.0 L 1248.5 -203.5 L 1258.0 -202.0 L 1264.0 -201.0 L 1328.0 -191.0 L 1345.0 -104.0 L 1355.0 -51.0 L 1366.0 -37.0 L 1373.0 -27.0 L 1392.0 -23.0 L 1409.0 -20.0 L 1409.0 -18.0 L 1409.0 -15.0 L 1408.5 -16.0 L 1408.0 -17.0 L 1405.0 -10.0 L 1398.0 4.0 L 1359.0 4.0 L 1340.0 4.0 L 1318.5 -1.5 L 1297.0 -7.0 L 1271.0 -17.0 L 1221.0 -36.0 L 1202.0 -150.0 L 1194.0 -200.0 L 1180.0 -197.0 L 1166.0 -193.0 Z" fill="black" fill-opacity="0.25" stroke="black" stroke-width="4.0"/>
  <rect x="72.0" y="-388.0" width="1355.9999999999998" height="165.0" fill="none" stroke="red" stroke-width="10.0" /><rect x="938.0" y="-210.0" width="262.0" height="215.0" fill="none" stroke="red" stroke-width="10.0" /><rect x="1166.0" y="-212.0" width="243.0000000000001" height="216.0" fill="none" stroke="red" stroke-width="10.0" />
</svg>
