<svg xmlns="http://www.w3.org/2000/svg"
  viewBox="32.222 -712 1392.825 539.579">
  <rect x="32.222" y="-712" width="1392.825" height="539.579" fill="white"/>
  <path d="M 753 -660 L 787 -660 L 824 -659 L 862 -659 L 893 -655 L 914 -655 L 933 -604 L 952 -553 L 986 -502 L 998 -484 L 1008 -483 L 1017 -481 L 1022 -474.5 L 1027 -468 L 1012 -463 L 977 -458 L 942 -459 L 907 -460 L 875 -463 L 844 -473 L 831 -509.5 L 818 -546 L 783 -617 L 773 -633 L 749 -637 L 733 -639 L 731 -649.5 L 729 -660 Z M 504 -662 L 534 -662 L 567 -661 L 600 -660 L 626 -656 L 645 -656 L 666 -603.5 L 687 -551 L 715 -501 L 725 -483 L 734 -481 L 742 -479 L 746.5 -473 L 751 -467 L 738 -462 L 707 -457 L 676.5 -458 L 646 -459 L 618 -462 L 592 -472 L 577 -509 L 562 -546 L 531 -618 L 528 -622 L 520 -630.5 L 512 -639 L 501 -641 L 487 -643 L 485 -652 L 483 -661 Z M 85 -384 L 90 -392 L 96.5 -392.5 L 103 -393 L 110 -389 L 117 -385 L 128 -379.5 L 139 -374 L 156 -370.5 L 173 -367 L 204 -367 L 1184 -367 L 1212 -367 L 1235 -362.5 L 1258 -358 L 1277 -348 L 1296 -338 L 1306.5 -330 L 1317 -322 L 1335.5 -302.5 L 1354 -283 L 1367 -265 L 1380 -247 L 1372 -230 L 1364 -218 L 1353.5 -225 L 1343 -232 L 1329 -237 L 1315 -242 L 1298.5 -244 L 1282 -246 L 1247 -246 L 282 -246 L 259 -246 L 240 -249 L 221 -252 L 210.5 -255.5 L 200 -259 L 188 -265 L 176 -271 L 162.5 -279.5 L 149 -288 L 134 -303.5 L 119 -319 L 103.5 -339.5 L 88 -360 L 84 -368 L 80 -376 Z" fill="black" fill-opacity="0.25" stroke="black" stroke-width="4"/>
  <rect x="729" y="-660" width="298" height="202" fill="none" stroke="red" stroke-width="10" /><rect x="483" y="-662" width="268" height="205" fill="none" stroke="red" stroke-width="10" /><rect x="80" y="-393" width="1300" height="175" fill="none" stroke="red" stroke-width="10" />
</svg>
