<svg xmlns="http://www.w3.org/2000/svg"
  viewBox="12.0 -1335.0 1468.0 1152.0">
  <rect x="12.0" y="-1335.0" width="1468.0" height="1152.0" fill="white"/>
  <path d="M 231.0 -369.0 L 275.0 -368.0 L 329.0 -367.0 L 383.0 -366.0 L 454.0 -366.0 L 502.0 -366.0 L 581.0 -367.0 L 660.0 -368.0 L 774.0 -370.0 L 888.0 -372.0 L 972.5 -373.5 L 1057.0 -375.0 L 1116.0 -375.0 L 1223.0 -375.0 L 1391.0 -277.0 L 1400.0 -264.0 L 1410.5 -254.0 L 1421.0 -244.0 L 1430.0 -233.0 L 1416.0 -233.0 L 1405.0 -236.0 L 1375.0 -240.0 L 1359.5 -244.0 L 1344.0 -248.0 L 1341.0 -248.0 L 1252.0 -256.0 L 1210.0 -259.0 L 1172.0 -261.5 L 1134.0 -264.0 L 1096.0 -264.0 L 1068.0 -264.0 L 1009.5 -262.0 L 951.0 -260.0 L 858.0 -255.0 L 765.0 -250.0 L 698.0 -247.5 L 631.0 -245.0 L 585.0 -245.0 L 493.0 -245.0 L 402.5 -251.0 L 312.0 -257.0 L 221.0 -272.0 L 155.0 -282.0 L 74.0 -372.0 L 74.0 -399.0 L 111.0 -386.0 L 149.0 -378.0 L 187.0 -370.0 Z M 708.0 -828.0 L 708.0 -829.0 L 709.0 -830.0 L 710.0 -830.0 L 714.0 -831.0 L 716.0 -832.0 L 711.0 -838.0 L 707.0 -843.0 L 714.0 -846.0 L 760.0 -863.0 L 800.5 -876.5 L 841.0 -890.0 L 875.0 -901.0 L 909.0 -912.0 L 936.5 -922.0 L 964.0 -932.0 L 984.0 -942.0 L 1064.0 -983.0 L 1109.0 -1056.0 L 1116.0 -1068.0 L 1123.5 -1085.5 L 1131.0 -1103.0 L 1140.0 -1126.5 L 1149.0 -1150.0 L 1160.5 -1179.5 L 1172.0 -1209.0 L 1188.0 -1244.0 L 1189.0 -1247.0 L 1192.5 -1248.5 L 1196.0 -1250.0 L 1200.0 -1250.5 L 1204.0 -1251.0 L 1208.5 -1251.5 L 1213.0 -1252.0 L 1217.0 -1255.0 L 1229.0 -1262.0 L 1237.5 -1266.0 L 1246.0 -1270.0 L 1249.0 -1272.0 L 1262.0 -1278.0 L 1270.0 -1280.5 L 1278.0 -1283.0 L 1281.0 -1285.0 L 1294.0 -1285.0 L 1299.0 -1285.0 L 1304.5 -1284.5 L 1310.0 -1284.0 L 1315.0 -1282.0 L 1319.0 -1281.0 L 1324.0 -1280.0 L 1329.0 -1279.0 L 1333.5 -1278.5 L 1338.0 -1278.0 L 1343.0 -1276.0 L 1348.0 -1274.0 L 1352.0 -1270.0 L 1353.0 -1269.0 L 1352.0 -1267.5 L 1351.0 -1266.0 L 1348.0 -1265.0 L 1345.0 -1264.0 L 1342.0 -1262.5 L 1339.0 -1261.0 L 1337.0 -1260.0 L 1299.0 -1234.0 L 1297.0 -1227.0 L 1289.0 -1193.0 L 1281.5 -1169.0 L 1274.0 -1145.0 L 1267.0 -1125.0 L 1265.0 -1119.0 L 1260.0 -1110.5 L 1255.0 -1102.0 L 1249.5 -1093.0 L 1244.0 -1084.0 L 1238.0 -1076.0 L 1232.0 -1068.0 L 1229.0 -1062.0 L 1230.0 -1062.0 L 1229.0 -1062.0 L 1230.0 -1062.0 L 1230.0 -1062.0 L 1230.0 -1063.0 L 1232.0 -1063.0 L 1228.0 -1058.0 L 1225.0 -1055.0 L 1224.0 -1055.0 L 1224.0 -1055.0 L 1229.0 -1062.0 L 1225.0 -1060.0 L 1215.0 -1053.0 L 1205.0 -1046.0 L 1191.0 -1036.0 L 1177.0 -1026.0 L 1161.0 -1013.5 L 1145.0 -1001.0 L 1128.0 -988.0 L 1112.0 -976.0 L 1099.5 -965.5 L 1087.0 -955.0 L 1077.0 -946.0 L 1066.0 -937.0 L 1058.5 -930.5 L 1051.0 -924.0 L 1047.0 -920.0 L 1047.0 -919.0 L 1045.0 -917.0 L 1045.0 -917.0 L 1044.0 -916.0 L 1050.0 -918.0 L 1055.0 -920.5 L 1060.0 -923.0 L 1063.0 -925.0 L 1068.0 -928.0 L 1069.0 -928.0 L 1069.0 -928.0 L 1067.0 -927.0 L 1066.0 -926.0 L 1062.5 -924.0 L 1059.0 -922.0 L 1056.0 -920.0 L 1053.0 -918.0 L 1050.0 -917.0 L 1047.0 -916.0 L 1045.0 -916.0 L 1044.0 -916.0 L 1044.0 -916.0 L 1032.0 -910.0 L 1016.0 -903.0 L 1000.0 -896.0 L 983.5 -889.0 L 967.0 -882.0 L 950.5 -876.5 L 934.0 -871.0 L 920.0 -869.0 L 911.0 -868.0 L 897.5 -867.5 L 884.0 -867.0 L 872.5 -866.5 L 861.0 -866.0 L 855.0 -865.0 L 849.0 -864.0 L 856.0 -861.0 L 864.0 -858.0 L 873.0 -857.0 L 882.0 -856.0 L 891.0 -856.0 L 903.0 -856.0 L 915.0 -857.0 L 927.0 -858.0 L 939.0 -858.0 L 942.0 -858.0 L 945.5 -858.0 L 949.0 -858.0 L 952.0 -858.0 L 997.0 -855.0 L 1031.0 -828.0 L 1050.0 -814.0 L 1050.0 -809.0 L 1053.0 -801.0 L 1039.0 -802.0 L 1026.0 -802.0 L 1014.5 -803.0 L 1003.0 -804.0 L 991.0 -806.0 L 974.0 -809.0 L 951.0 -812.0 L 928.0 -815.0 L 901.0 -819.0 L 875.0 -823.0 L 852.5 -825.0 L 830.0 -827.0 L 808.0 -827.0 L 804.0 -828.0 L 799.5 -827.5 L 795.0 -827.0 L 792.0 -827.0 L 778.0 -827.0 L 764.0 -827.0 L 750.0 -827.0 L 736.0 -825.0 L 733.0 -824.0 L 728.5 -822.5 L 724.0 -821.0 L 716.0 -821.0 L 711.0 -820.0 Z M 70.0 -575.0 L 64.0 -575.0 L 62.0 -583.0 L 62.0 -584.0 L 64.0 -584.0 L 65.0 -584.0 L 68.0 -586.0 L 70.0 -587.0 L 66.0 -593.0 L 62.0 -598.0 L 68.0 -600.0 L 114.0 -617.0 L 154.5 -630.5 L 195.0 -644.0 L 229.5 -655.0 L 264.0 -666.0 L 291.0 -676.0 L 318.0 -686.0 L 339.0 -697.0 L 419.0 -738.0 L 464.0 -811.0 L 471.0 -823.0 L 478.5 -840.5 L 486.0 -858.0 L 494.5 -881.5 L 503.0 -905.0 L 514.5 -934.0 L 526.0 -963.0 L 542.0 -998.0 L 543.0 -1001.0 L 546.5 -1002.5 L 550.0 -1004.0 L 554.5 -1004.5 L 559.0 -1005.0 L 563.5 -1006.0 L 568.0 -1007.0 L 572.0 -1009.0 L 584.0 -1016.0 L 592.0 -1020.5 L 600.0 -1025.0 L 603.0 -1026.0 L 616.0 -1032.0 L 624.5 -1034.5 L 633.0 -1037.0 L 636.0 -1039.0 L 649.0 -1039.0 L 654.0 -1039.0 L 659.5 -1038.5 L 665.0 -1038.0 L 670.0 -1036.0 L 674.0 -1035.0 L 678.5 -1034.5 L 683.0 -1034.0 L 688.0 -1033.0 L 693.0 -1032.0 L 697.5 -1030.5 L 702.0 -1029.0 L 706.0 -1025.0 L 707.0 -1024.0 L 706.0 -1022.5 L 705.0 -1021.0 L 702.5 -1019.5 L 700.0 -1018.0 L 697.0 -1016.5 L 694.0 -1015.0 L 692.0 -1014.0 L 654.0 -988.0 L 651.0 -981.0 L 643.0 -947.0 L 636.0 -923.0 L 629.0 -899.0 L 622.0 -880.0 L 620.0 -874.0 L 615.0 -865.5 L 610.0 -857.0 L 604.0 -848.0 L 598.0 -839.0 L 592.5 -830.5 L 587.0 -822.0 L 583.0 -816.0 L 584.0 -816.0 L 584.0 -817.0 L 584.0 -817.0 L 584.0 -817.0 L 585.0 -817.0 L 587.0 -817.0 L 583.0 -812.0 L 580.0 -809.0 L 579.0 -809.0 L 579.0 -809.0 L 583.0 -816.0 L 579.0 -814.0 L 569.0 -807.5 L 559.0 -801.0 L 545.0 -790.5 L 531.0 -780.0 L 515.0 -767.5 L 499.0 -755.0 L 483.0 -742.0 L 467.0 -730.0 L 454.5 -719.5 L 442.0 -709.0 L 431.0 -701.0 L 420.0 -692.0 L 412.5 -685.0 L 405.0 -678.0 L 401.0 -674.0 L 401.0 -673.0 L 399.0 -672.0 L 399.0 -672.0 L 399.0 -671.0 L 387.0 -665.0 L 371.0 -657.5 L 355.0 -650.0 L 338.0 -643.5 L 321.0 -637.0 L 304.5 -631.5 L 288.0 -626.0 L 275.0 -623.0 L 266.0 -622.0 L 252.5 -621.5 L 239.0 -621.0 L 227.0 -620.5 L 215.0 -620.0 L 209.5 -619.5 L 204.0 -619.0 L 211.0 -616.0 L 219.0 -613.0 L 227.5 -612.0 L 236.0 -611.0 L 245.0 -611.0 L 257.0 -611.0 L 269.0 -612.0 L 281.0 -613.0 L 294.0 -613.0 L 297.0 -613.0 L 300.0 -613.0 L 303.0 -613.0 L 306.0 -612.0 L 351.0 -609.0 L 386.0 -583.0 L 405.0 -569.0 L 404.0 -564.0 L 407.0 -556.0 L 394.0 -556.0 L 381.0 -556.0 L 369.5 -557.0 L 358.0 -558.0 L 345.0 -561.0 L 328.0 -564.0 L 305.5 -566.5 L 283.0 -569.0 L 256.0 -573.0 L 230.0 -577.0 L 207.0 -579.0 L 184.0 -581.0 L 162.0 -581.0 L 158.0 -582.0 L 154.0 -582.0 L 150.0 -582.0 L 146.0 -582.0 L 132.0 -582.0 L 118.0 -581.5 L 104.0 -581.0 L 90.0 -579.0 L 87.0 -578.0 L 82.5 -576.5 L 78.0 -575.0 Z M 824.0 -726.0 L 827.0 -731.0 L 843.0 -731.0 L 859.0 -731.0 L 874.5 -729.5 L 890.0 -728.0 L 905.0 -726.0 L 952.0 -718.0 L 1028.0 -706.0 L 1046.0 -606.0 L 1057.0 -544.0 L 1071.0 -528.0 L 1085.0 -512.0 L 1102.0 -509.0 L 1123.0 -507.0 L 1123.0 -506.0 L 1123.0 -502.0 L 1116.0 -495.0 L 1100.0 -479.0 L 1063.0 -479.0 L 1041.0 -479.0 L 1016.0 -484.5 L 991.0 -490.0 L 958.0 -501.0 L 901.0 -522.0 L 879.0 -654.0 L 870.0 -710.0 L 844.0 -710.0 L 829.0 -710.0 L 820.0 -710.0 L 818.0 -712.0 L 815.0 -714.0 Z" fill="black" fill-opacity="0.25" stroke="black" stroke-width="4.0"/>
  <rect x="74.0" y="-399.0" width="1355.9999999999998" height="166.0" fill="none" stroke="red" stroke-width="10.0" /><rect x="815.0" y="-731.0" width="308.00000000000006" height="252.0" fill="none" stroke="red" stroke-width="10.0" /><rect x="707.0" y="-962.9" width="389.4000000000001" height="161.00000000000003" fill="none" stroke="red" stroke-width="10.0" /><rect x="1024.8" y="-1124.0" width="241.9" height="161.10000000000014" fill="none" stroke="red" stroke-width="10.0" /><rect x="1139.0" y="-1285.0" width="213.99999999999997" height="160.9999999999998" fill="none" stroke="red" stroke-width="10.0" /><rect x="62.0" y="-717.0" width="389.5" height="160.99999999999991" fill="none" stroke="red" stroke-width="10.0" /><rect x="378.0" y="-878.0" width="243.29999999999995" height="161.00000000000003" fill="none" stroke="red" stroke-width="10.0" /><rect x="493.20000000000005" y="-1039.0" width="213.79999999999993" height="160.99999999999991" fill="none" stroke="red" stroke-width="10.0" />
</svg>
