<svg xmlns="http://www.w3.org/2000/svg"
  viewBox="34 -1088 1595.4 909">
  <rect x="34" y="-1088" width="1595.4" height="909" fill="white"/>
  <path d="M 84 -395 L 121 -382 L 159.5 -374.5 L 198 -367 L 242 -366 L 286 -365 L 340 -363.5 L 394 -362 L 464 -362 L 512 -362 L 591.5 -363.5 L 671 -365 L 785 -367 L 899 -369 L 983.5 -370.5 L 1068 -372 L 1127 -372 L 1234 -372 L 1402 -273 L 1411 -260 L 1421.5 -250.5 L 1432 -241 L 1441 -229 L 1427 -229 L 1416 -233 L 1386 -237 L 1370.5 -241 L 1355 -245 L 1352 -245 L 1263 -253 L 1221 -256 L 1183 -258.5 L 1145 -261 L 1106 -261 L 1078 -261 L 1019.5 -258.5 L 961 -256 L 869 -251 L 776 -246 L 709 -244 L 642 -242 L 596 -242 L 504 -242 L 413.5 -248 L 323 -254 L 231 -268 L 165 -278 L 84 -369 Z M 84 -582 L 84 -583 L 86 -583 L 87 -583 L 90 -585 L 92 -586 L 88 -592 L 84 -597 L 90 -599 L 136 -616 L 176.5 -629.5 L 217 -643 L 251.5 -654 L 286 -665 L 313 -675 L 340 -685 L 361 -696 L 441 -738 L 486 -810 L 493 -822 L 500.5 -839.5 L 508 -857 L 516.5 -880.5 L 525 -904 L 536.5 -933 L 548 -962 L 564 -997 L 565 -1000 L 568.5 -1001.5 L 572 -1003 L 576.5 -1003.5 L 581 -1004 L 585.5 -1005 L 590 -1006 L 594 -1008 L 606 -1015 L 614 -1019.5 L 622 -1024 L 625 -1025 L 638 -1031 L 646.5 -1033.5 L 655 -1036 L 658 -1038 L 671 -1038 L 676 -1038 L 681.5 -1037.5 L 687 -1037 L 692 -1035 L 696 -1034 L 700.5 -1033.5 L 705 -1033 L 710 -1032 L 715 -1031 L 719.5 -1029.5 L 724 -1028 L 728 -1024 L 729 -1023 L 728 -1021 L 727 -1019 L 724.5 -1018 L 722 -1017 L 719 -1016 L 716 -1015 L 714 -1013 L 676 -987 L 673 -980 L 667 -955 L 662 -934 L 657 -913 L 649.5 -893.5 L 642 -874 L 631.5 -855 L 621 -836 L 605 -815 L 606 -815 L 606 -816 L 607 -816 L 607 -816 L 607 -816 L 609 -816 L 604 -811 L 601 -807 L 601 -807 L 601 -808 L 601 -809 L 602 -809 L 603 -810 L 603.5 -811.5 L 604 -813 L 605 -815 L 601 -813 L 591 -806.5 L 581 -800 L 567 -789.5 L 553 -779 L 537 -766.5 L 521 -754 L 505 -741 L 489 -729 L 476.5 -718.5 L 464 -708 L 453 -700 L 442 -691 L 434.5 -684 L 427 -677 L 423 -673 L 423 -672 L 421 -671 L 421 -671 L 421 -670 L 427 -672 L 431.5 -674.5 L 436 -677 L 440 -679 L 445 -682 L 446 -681 L 446 -681 L 443 -680 L 442 -679 L 439 -677 L 436 -675 L 432.5 -673.5 L 429 -672 L 426 -670.5 L 423 -669 L 422 -669 L 421 -669 L 421 -670 L 409 -664 L 393 -656.5 L 377 -649 L 360 -642.5 L 343 -636 L 326.5 -630.5 L 310 -625 L 297 -622 L 288 -621 L 274.5 -620.5 L 261 -620 L 249 -619.5 L 237 -619 L 231.5 -618.5 L 226 -618 L 233 -615 L 241 -612 L 249.5 -611 L 258 -610 L 267 -610 L 279 -610 L 291 -611 L 303 -612 L 316 -612 L 319 -612 L 322 -612 L 325 -612 L 328 -611 L 373 -608 L 408 -582 L 427 -568 L 426 -563 L 429 -555 L 416 -555 L 403 -555 L 391.5 -556 L 380 -557 L 367 -560 L 350 -563 L 327.5 -565.5 L 305 -568 L 278 -572 L 252 -576 L 229 -578 L 206 -580 L 184 -580 L 180 -581 L 176 -581 L 172 -581 L 168 -581 L 154 -581 L 140 -580.5 L 126 -580 L 112 -578 L 109 -577 L 104.5 -575.5 L 100 -574 L 92 -574 L 87 -574 Z M 510 -582 L 510 -583 L 511 -583 L 512 -583 L 516 -585 L 518 -586 L 513 -592 L 509 -597 L 516 -599 L 562 -616 L 602.5 -629.5 L 643 -643 L 677 -654 L 711 -665 L 738.5 -675 L 766 -685 L 786 -696 L 866 -737 L 911 -810 L 918 -822 L 925.5 -839.5 L 933 -857 L 942 -880.5 L 951 -904 L 962.5 -933 L 974 -962 L 989 -997 L 990 -1000 L 994 -1001.5 L 998 -1003 L 1002 -1003.5 L 1006 -1004 L 1010.5 -1005 L 1015 -1006 L 1019 -1008 L 1031 -1015 L 1039 -1019.5 L 1047 -1024 L 1050 -1025 L 1063 -1031 L 1071.5 -1033.5 L 1080 -1036 L 1083 -1038 L 1096 -1038 L 1101 -1038 L 1106.5 -1037.5 L 1112 -1037 L 1117 -1035 L 1121 -1034 L 1125.5 -1033.5 L 1130 -1033 L 1135 -1032 L 1140 -1031 L 1144.5 -1029.5 L 1149 -1028 L 1153 -1024 L 1154 -1023 L 1153 -1021 L 1152 -1019 L 1149.5 -1018 L 1147 -1017 L 1144 -1016 L 1141 -1015 L 1139 -1013 L 1101 -987 L 1099 -980 L 1091 -946 L 1083.5 -922 L 1076 -898 L 1069 -879 L 1067 -873 L 1062 -864.5 L 1057 -856 L 1051 -847 L 1045 -838 L 1039.5 -829.5 L 1034 -821 L 1030 -815 L 1031 -815 L 1031 -816 L 1032 -816 L 1032 -816 L 1032 -816 L 1034 -816 L 1030 -811 L 1027 -808 L 1026 -808 L 1026 -808 L 1030 -815 L 1026 -813 L 1016 -806.5 L 1006 -800 L 992.5 -789.5 L 979 -779 L 962.5 -766.5 L 946 -754 L 930 -741 L 914 -729 L 901.5 -718.5 L 889 -708 L 878 -700 L 867 -691 L 860 -684 L 853 -677 L 849 -673 L 849 -672 L 847 -671 L 847 -671 L 846 -670 L 852 -672 L 856.5 -674.5 L 861 -677 L 865 -679 L 870 -682 L 871 -681 L 871 -681 L 869 -680 L 868 -679 L 864.5 -677 L 861 -675 L 857.5 -673.5 L 854 -672 L 851.5 -670.5 L 849 -669 L 847 -669 L 846 -669 L 846 -670 L 834 -664 L 818 -656.5 L 802 -649 L 785.5 -642.5 L 769 -636 L 752 -630.5 L 735 -625 L 722 -622 L 713 -621 L 699.5 -620.5 L 686 -620 L 674.5 -619.5 L 663 -619 L 657 -618.5 L 651 -618 L 658 -615 L 666 -612 L 675 -611 L 684 -610 L 692 -610 L 704 -610 L 716.5 -611 L 729 -612 L 741 -612 L 744 -612 L 747 -612 L 750 -612 L 753 -611 L 798 -608 L 833 -582 L 852 -568 L 852 -563 L 855 -555 L 841 -555 L 828 -555 L 816.5 -556 L 805 -557 L 792 -560 L 775 -563 L 752.5 -565.5 L 730 -568 L 703 -572 L 677 -576 L 654 -578 L 631 -580 L 609 -580 L 605 -581 L 601 -581 L 597 -581 L 593 -581 L 579 -581 L 565.5 -580.5 L 552 -580 L 538 -578 L 535 -577 L 530 -575.5 L 525 -574 L 518 -574 L 513 -574 Z M 943 -574 L 938 -574 L 935 -582 L 935 -583 L 937 -583 L 938 -583 L 941 -585 L 943 -586 L 938 -592 L 934 -597 L 941 -599 L 987 -616 L 1027.5 -629.5 L 1068 -643 L 1102 -654 L 1136 -665 L 1163.5 -675 L 1191 -685 L 1211 -696 L 1291 -736 L 1336 -810 L 1343 -822 L 1350.5 -839.5 L 1358 -857 L 1367 -880.5 L 1376 -904 L 1387.5 -933 L 1399 -962 L 1415 -997 L 1416 -1001 L 1419 -1002 L 1422 -1003 L 1426.5 -1003.5 L 1431 -1004 L 1435.5 -1004.5 L 1440 -1005 L 1444 -1008 L 1456 -1015 L 1464.5 -1019.5 L 1473 -1024 L 1476 -1025 L 1489 -1031 L 1497 -1033.5 L 1505 -1036 L 1508 -1038 L 1521 -1038 L 1526 -1038 L 1531.5 -1037.5 L 1537 -1037 L 1542 -1035 L 1546 -1034 L 1551 -1033.5 L 1556 -1033 L 1560.5 -1032 L 1565 -1031 L 1570 -1029.5 L 1575 -1028 L 1579 -1024 L 1580 -1023 L 1578.5 -1021 L 1577 -1019 L 1574.5 -1017.5 L 1572 -1016 L 1569 -1015 L 1566 -1014 L 1564 -1013 L 1526 -987 L 1524 -980 L 1516 -946 L 1508.5 -922 L 1501 -898 L 1494 -879 L 1492 -873 L 1487.5 -864.5 L 1483 -856 L 1477 -847 L 1471 -838 L 1465 -829.5 L 1459 -821 L 1456 -815 L 1456 -815 L 1458 -816 L 1460 -816 L 1455 -811 L 1451 -807 L 1451 -807 L 1456 -815 L 1452 -813 L 1441.5 -806.5 L 1431 -800 L 1417 -789.5 L 1403 -779 L 1387.5 -766.5 L 1372 -754 L 1355 -741 L 1339 -729 L 1326.5 -718.5 L 1314 -708 L 1304 -700 L 1293 -691 L 1285.5 -684 L 1278 -677 L 1274 -673 L 1274 -672 L 1272 -671 L 1272 -671 L 1271 -670 L 1277 -672 L 1282 -674.5 L 1287 -677 L 1291 -679 L 1296 -682 L 1296 -681 L 1296 -681 L 1294 -680 L 1293 -679 L 1289.5 -677 L 1286 -675 L 1283 -673.5 L 1280 -672 L 1277 -670.5 L 1274 -669 L 1272 -669 L 1271 -669 L 1271 -670 L 1259 -664 L 1243.5 -656.5 L 1228 -649 L 1211 -642.5 L 1194 -636 L 1177.5 -630.5 L 1161 -625 L 1147 -622 L 1139 -621 L 1125 -620.5 L 1111 -620 L 1099 -619.5 L 1087 -619 L 1081.5 -618.5 L 1076 -618 L 1083 -615 L 1091 -612 L 1099.5 -611 L 1108 -610 L 1117 -610 L 1129 -610 L 1141 -611 L 1153 -612 L 1166 -612 L 1169 -612 L 1172.5 -612 L 1176 -612 L 1179 -611 L 1224 -608 L 1258 -582 L 1277 -568 L 1277 -563 L 1280 -555 L 1266 -555 L 1253 -555 L 1241.5 -556 L 1230 -557 L 1218 -560 L 1201 -563 L 1178 -565.5 L 1155 -568 L 1128 -572 L 1102 -576 L 1079.5 -578 L 1057 -580 L 1035 -580 L 1031 -581 L 1026.5 -581 L 1022 -581 L 1019 -581 L 1005 -581 L 991 -580.5 L 977 -580 L 963 -578 L 960 -577 L 955.5 -575.5 L 951 -574 Z" fill="black" fill-opacity="0.25" stroke="black" stroke-width="4"/>
  <rect x="84" y="-395" width="1357" height="166" fill="none" stroke="red" stroke-width="10" /><rect x="84" y="-716" width="389.5" height="161" fill="none" stroke="red" stroke-width="10" /><rect x="399.1" y="-877" width="244.1" height="161" fill="none" stroke="red" stroke-width="10" /><rect x="515.2" y="-1038" width="213.8" height="161" fill="none" stroke="red" stroke-width="10" /><rect x="509" y="-716" width="389.5" height="161" fill="none" stroke="red" stroke-width="10" /><rect x="825" y="-877" width="243.3" height="161" fill="none" stroke="red" stroke-width="10" /><rect x="940.7" y="-1038" width="213.3" height="161" fill="none" stroke="red" stroke-width="10" /><rect x="934" y="-716" width="389.5" height="161" fill="none" stroke="red" stroke-width="10" /><rect x="1251" y="-877" width="242.3" height="161" fill="none" stroke="red" stroke-width="10" /><rect x="1365.7" y="-1038" width="214.3" height="161" fill="none" stroke="red" stroke-width="10" />
</svg>
