<svg xmlns="http://www.w3.org/2000/svg"
  viewBox="13.0 -461.0444444444444 1834.0 298.76666666666665">
  <rect x="13.0" y="-461.0444444444444" width="1834.0" height="298.76666666666665" fill="white"/>
  <path d="M 214.0 -262.0 L 145.0 -271.0 L 63.0 -361.0 L 63.0 -388.0 L 101.0 -375.0 L 140.5 -367.5 L 180.0 -360.0 L 224.0 -359.0 L 269.0 -358.0 L 325.0 -357.0 L 381.0 -356.0 L 452.0 -356.0 L 549.0 -356.0 L 780.0 -360.0 L 1010.0 -365.0 L 1130.0 -365.0 L 1240.0 -365.0 L 1412.0 -266.0 L 1422.0 -254.0 L 1431.5 -244.0 L 1441.0 -234.0 L 1451.0 -223.0 L 1449.0 -223.0 L 1442.0 -223.0 L 1435.0 -223.0 L 1425.0 -226.0 L 1395.0 -231.0 L 1379.5 -234.5 L 1364.0 -238.0 L 1361.0 -238.0 L 1270.0 -246.0 L 1227.0 -249.0 L 1187.0 -251.5 L 1147.0 -254.0 L 1108.0 -254.0 L 1051.0 -254.0 L 866.0 -244.0 L 677.0 -234.0 L 586.0 -235.0 L 537.0 -235.0 L 491.0 -236.5 L 445.0 -238.0 L 399.0 -241.0 L 354.0 -244.0 L 307.0 -249.0 L 260.0 -254.0 Z M 1452.0 -406.0 L 1509.0 -409.0 L 1527.0 -410.0 L 1540.0 -410.0 L 1552.0 -411.0 L 1562.0 -411.0 L 1646.0 -413.0 L 1691.0 -325.0 L 1717.0 -274.0 L 1735.0 -259.0 L 1750.0 -246.0 L 1774.0 -249.0 L 1797.0 -250.0 L 1797.0 -248.0 L 1797.0 -245.0 L 1796.5 -243.5 L 1796.0 -242.0 L 1793.0 -238.0 L 1779.0 -221.0 L 1737.0 -215.0 L 1688.0 -208.0 L 1617.0 -219.0 L 1546.0 -230.0 L 1493.0 -346.0 L 1471.0 -395.0 L 1451.0 -389.0 Z" fill="black" fill-opacity="0.25" stroke="black" stroke-width="4.0"/>
  <rect x="63.0" y="-388.0" width="1388.0000000000002" height="165.0" fill="none" stroke="red" stroke-width="10.0" /><rect x="1451.0" y="-413.0" width="345.9999999999999" height="205.0" fill="none" stroke="red" stroke-width="10.0" />
</svg>
