<svg xmlns="http://www.w3.org/2000/svg"
  viewBox="48 -1076 1670.5 897">
  <rect x="48" y="-1076" width="1670.5" height="897" fill="white"/>
  <path d="M 256 -365 L 318 -363 L 379.5 -362.5 L 441 -362 L 504 -362 L 602 -362 L 798 -367 L 911 -369 L 996.5 -370 L 1082 -371 L 1141 -371 L 1249 -371 L 1416 -273 L 1425 -261 L 1435 -250.5 L 1445 -240 L 1455 -229 L 1448 -229 L 1442 -229.5 L 1436 -230 L 1430 -232 L 1400 -237 L 1384.5 -241 L 1369 -245 L 1366 -245 L 1276 -253 L 1235 -256 L 1196.5 -258.5 L 1158 -261 L 1120 -261 L 1092 -261 L 1033.5 -258.5 L 975 -256 L 883 -251 L 791 -246 L 723 -244 L 655 -242 L 609 -242 L 517 -242 L 426.5 -248 L 336 -254 L 245 -268 L 179 -278 L 98 -368 L 98 -395 L 135 -382 L 173.5 -374 L 212 -366 Z M 1031 -573 L 1032 -574 L 1031 -575.5 L 1030 -577 L 1029 -579.5 L 1028 -582 L 1028 -584 L 1028 -586 L 1031 -587 L 1078 -604 L 1118.5 -617.5 L 1159 -631 L 1193 -642 L 1227 -653 L 1254 -663.5 L 1281 -674 L 1301 -684 L 1382 -726 L 1426 -798 L 1433 -810 L 1440.5 -827.5 L 1448 -845 L 1456.5 -868.5 L 1465 -892 L 1476.5 -921 L 1488 -950 L 1504 -986 L 1505 -989 L 1509 -990 L 1513 -991 L 1517 -991.5 L 1521 -992 L 1525.5 -993 L 1530 -994 L 1534 -996 L 1547 -1004 L 1554.5 -1008.5 L 1562 -1013 L 1565 -1014 L 1578 -1020 L 1586.5 -1022.5 L 1595 -1025 L 1598 -1026 L 1611 -1026 L 1616 -1026 L 1621.5 -1025.5 L 1627 -1025 L 1633 -1023 L 1637 -1022 L 1641.5 -1021.5 L 1646 -1021 L 1650.5 -1020 L 1655 -1019 L 1660 -1017.5 L 1665 -1016 L 1668 -1012 L 1669 -1011 L 1668 -1009.5 L 1667 -1008 L 1665 -1006.5 L 1663 -1005 L 1659.5 -1004 L 1656 -1003 L 1655 -1001 L 1617 -975 L 1614 -969 L 1606 -936 L 1599 -911 L 1592 -886 L 1584 -867 L 1582 -861 L 1577 -852.5 L 1572 -844 L 1566 -834.5 L 1560 -825 L 1554.5 -816.5 L 1549 -808 L 1545 -803 L 1547 -804 L 1548 -804 L 1549 -804 L 1545 -800 L 1542 -797 L 1542 -796 L 1542 -796 L 1545 -803 L 1541 -801 L 1531 -793.5 L 1521 -786 L 1507 -776 L 1493 -766 L 1477 -754 L 1461 -742 L 1445 -729 L 1430 -717 L 1417.5 -707 L 1405 -697 L 1394 -688 L 1372 -670 L 1364 -661 L 1362 -658 L 1361 -658 L 1373 -663 L 1380 -667 L 1385 -670 L 1386 -670 L 1385 -670 L 1384 -668 L 1382 -667 L 1376 -664 L 1361 -656 L 1361 -658 L 1348 -652 L 1332 -644.5 L 1316 -637 L 1299.5 -630 L 1283 -623 L 1266.5 -618 L 1250 -613 L 1237 -611 L 1229 -610 L 1215.5 -609 L 1202 -608 L 1190 -608 L 1178 -608 L 1172 -607 L 1166 -606 L 1173 -603 L 1181 -600 L 1189.5 -599 L 1198 -598 L 1206 -598 L 1219 -598 L 1231.5 -599 L 1244 -600 L 1257 -600 L 1282 -600 L 1305.5 -592.5 L 1329 -585 L 1348 -570 L 1367 -556 L 1367 -551 L 1370 -543 L 1356 -543 L 1343 -543 L 1331.5 -544.5 L 1320 -546 L 1308 -548 L 1291 -551 L 1268 -554 L 1245 -557 L 1219 -561 L 1192 -565 L 1169.5 -567 L 1147 -569 L 1125 -569 L 1118 -569 L 1111.5 -569.5 L 1105 -570 L 1099 -570 L 1086 -570 L 1075.5 -569 L 1065 -568 L 1053 -567 L 1050 -566 L 1045.5 -564 L 1041 -562 L 1033 -562 L 1028 -562 L 1025 -570 L 1025 -571 L 1026 -572 L 1028 -572 Z" fill="black" fill-opacity="0.25" stroke="black" stroke-width="4"/>
  <rect x="98" y="-395" width="1357" height="166" fill="none" stroke="red" stroke-width="10" /><rect x="1025" y="-704" width="388.8" height="161" fill="none" stroke="red" stroke-width="10" /><rect x="1339.6" y="-865" width="243.7" height="161" fill="none" stroke="red" stroke-width="10" /><rect x="1455.2" y="-1026" width="213.8" height="161" fill="none" stroke="red" stroke-width="10" />
</svg>
