<svg xmlns="http://www.w3.org/2000/svg"
  viewBox="26 -910 1456 731">
  <rect x="26" y="-910" width="1456" height="731" fill="white"/>
  <path d="M 120 -738 L 120 -766 L 133.5 -786 L 147 -806 L 169 -819 L 191 -832 L 219 -841 L 247 -850 L 275.5 -854 L 304 -858 L 330.5 -859 L 357 -860 L 376 -860 L 436 -860 L 493.5 -854 L 551 -848 L 607.5 -838 L 664 -828 L 720.5 -815 L 777 -802 L 834 -786 L 951 -752 L 1100 -654 L 1246 -556 L 1245 -516 L 1244 -498 L 1209 -498 L 1162 -498 L 1112 -504 L 1062 -510 L 1016 -520 L 1027 -624 L 852 -708 L 684 -788 L 512 -788 L 495 -788 L 474.5 -787 L 454 -786 L 432.5 -782 L 411 -778 L 390.5 -771 L 370 -764 L 353.5 -752 L 337 -740 L 326.5 -724 L 316 -708 L 315 -684 L 314 -654 L 361 -618 L 421 -572 L 425 -570 L 286 -572 L 215 -600 L 168 -620 L 137 -670 L 120 -710 Z M 76 -395 L 113 -382 L 151 -374 L 189 -366 L 233 -365 L 277 -364 L 331 -363 L 385 -362 L 456 -362 L 504 -362 L 583.5 -363 L 663 -364 L 776 -366 L 889 -368 L 974 -369.5 L 1059 -371 L 1118 -371 L 1225 -371 L 1393 -273 L 1402 -260 L 1412.5 -250 L 1423 -240 L 1432 -229 L 1419 -229 L 1407 -232 L 1377 -236 L 1361.5 -240 L 1346 -244 L 1343 -244 L 1254 -252 L 1213 -255 L 1174.5 -257.5 L 1136 -260 L 1098 -260 L 1070 -260 L 1011 -258 L 952 -256 L 860 -251 L 768 -246 L 700 -243.5 L 632 -241 L 587 -241 L 495 -241 L 404 -247 L 313 -253 L 223 -268 L 157 -278 L 76 -368 Z" fill="black" fill-opacity="0.25" stroke="black" stroke-width="4"/>
  <rect x="120" y="-860" width="1126" height="362" fill="none" stroke="red" stroke-width="10" /><rect x="76" y="-395" width="1356" height="166" fill="none" stroke="red" stroke-width="10" />
</svg>
