<svg xmlns="http://www.w3.org/2000/svg"
  viewBox="-332.0 -866.0 2540.0 726.0">
  <rect x="-332.0" y="-866.0" width="2540.0" height="726.0" fill="white"/>
  <path d="M 168.0 -329.0 L 168.0 -356.0 L 221.0 -343.0 L 278.0 -335.5 L 335.0 -328.0 L 399.0 -326.0 L 431.0 -326.0 L 466.5 -325.0 L 502.0 -324.0 L 542.5 -323.5 L 583.0 -323.0 L 628.5 -323.0 L 674.0 -323.0 L 725.0 -323.0 L 795.0 -323.0 L 912.5 -324.0 L 1030.0 -325.0 L 1196.0 -328.0 L 1362.0 -330.0 L 1486.5 -331.0 L 1611.0 -332.0 L 1698.0 -332.0 L 1857.0 -332.0 L 2101.0 -234.0 L 2114.0 -221.0 L 2129.5 -211.0 L 2145.0 -201.0 L 2158.0 -190.0 L 2138.0 -190.0 L 2121.0 -193.0 L 2077.0 -197.0 L 2054.5 -201.5 L 2032.0 -206.0 L 2028.0 -206.0 L 1897.0 -213.0 L 1837.0 -216.0 L 1780.0 -218.5 L 1723.0 -221.0 L 1667.0 -221.0 L 1627.0 -221.0 L 1540.5 -219.0 L 1454.0 -217.0 L 1319.0 -212.0 L 1184.0 -207.0 L 1084.5 -205.0 L 985.0 -203.0 L 918.0 -203.0 L 784.0 -203.0 L 650.5 -208.5 L 517.0 -214.0 L 383.0 -229.0 L 287.0 -239.0 Z M 381.0 -694.0 L 381.0 -722.0 L 394.0 -742.5 L 407.0 -763.0 L 429.0 -776.0 L 451.0 -789.0 L 479.0 -797.5 L 507.0 -806.0 L 535.5 -810.0 L 564.0 -814.0 L 590.5 -815.0 L 617.0 -816.0 L 637.0 -816.0 L 698.0 -816.0 L 755.0 -810.5 L 812.0 -805.0 L 868.5 -795.0 L 925.0 -785.0 L 981.0 -771.5 L 1037.0 -758.0 L 1095.0 -741.0 L 1154.0 -724.0 L 1220.0 -691.5 L 1286.0 -659.0 L 1360.0 -610.0 L 1506.0 -514.0 L 1506.0 -473.0 L 1506.0 -454.0 L 1470.0 -454.0 L 1423.0 -454.0 L 1373.0 -460.5 L 1323.0 -467.0 L 1276.0 -477.0 L 1287.0 -581.0 L 1112.0 -665.0 L 944.0 -745.0 L 773.0 -745.0 L 756.0 -745.0 L 735.5 -743.5 L 715.0 -742.0 L 693.0 -738.0 L 671.0 -734.0 L 650.5 -727.0 L 630.0 -720.0 L 613.5 -708.5 L 597.0 -697.0 L 587.0 -680.5 L 577.0 -664.0 L 576.0 -642.0 L 575.0 -611.0 L 621.0 -574.0 L 679.0 -529.0 L 685.0 -527.0 L 546.0 -528.0 L 476.0 -557.0 L 429.0 -577.0 L 398.0 -626.0 L 381.0 -665.0 Z M -282.0 -733.0 L -269.0 -736.0 L -258.5 -741.0 L -248.0 -746.0 L -236.0 -748.0 L -200.0 -750.0 L -164.0 -751.0 L -128.0 -752.0 L -93.0 -752.0 L -66.0 -752.0 L -34.5 -748.5 L -3.0 -745.0 L 32.0 -738.0 L 54.0 -734.0 L 74.5 -727.5 L 95.0 -721.0 L 116.0 -716.0 L 131.0 -712.0 L 151.0 -705.5 L 171.0 -699.0 L 192.0 -690.5 L 213.0 -682.0 L 233.0 -670.0 L 253.0 -658.0 L 269.0 -644.0 L 285.0 -630.0 L 294.5 -613.0 L 304.0 -596.0 L 303.0 -577.0 L 303.0 -555.0 L 290.0 -536.0 L 285.0 -530.0 L 265.0 -530.0 L 224.0 -530.0 L 183.5 -537.5 L 143.0 -545.0 L 104.0 -555.0 L 125.0 -566.0 L 138.0 -583.0 L 153.0 -601.0 L 147.0 -614.0 L 137.0 -638.0 L 99.5 -658.5 L 62.0 -679.0 L -4.0 -691.0 L -75.0 -704.0 L -143.0 -713.0 L -211.0 -722.0 Z M 1566.0 -682.0 L 1568.0 -685.0 L 1582.0 -685.0 L 1597.0 -685.0 L 1608.0 -685.0 L 1619.0 -684.5 L 1630.0 -684.0 L 1641.0 -682.0 L 1688.0 -674.0 L 1757.0 -661.0 L 1775.0 -566.0 L 1787.0 -505.0 L 1799.0 -491.0 L 1810.0 -478.0 L 1828.0 -474.0 L 1834.0 -473.0 L 1843.0 -472.0 L 1846.0 -472.0 L 1847.0 -471.0 L 1846.0 -464.0 L 1839.0 -459.0 L 1832.0 -454.0 L 1822.5 -451.0 L 1813.0 -448.0 L 1803.5 -447.0 L 1794.0 -446.0 L 1788.0 -446.0 L 1767.0 -446.0 L 1744.0 -451.5 L 1721.0 -457.0 L 1693.0 -467.0 L 1638.0 -487.0 L 1617.0 -613.0 L 1608.0 -666.0 L 1585.0 -666.0 L 1571.0 -666.0 L 1562.0 -666.0 L 1560.0 -667.0 L 1557.0 -669.0 Z M 1797.0 -683.0 L 1797.0 -686.0 L 1814.0 -686.0 L 1827.0 -686.0 L 1838.5 -685.5 L 1850.0 -685.0 L 1861.0 -683.5 L 1872.0 -682.0 L 1883.0 -680.0 L 1894.0 -678.0 L 1907.0 -675.0 L 1978.0 -661.0 L 1994.0 -566.0 L 2004.0 -508.0 L 2019.0 -493.0 L 2029.0 -478.0 L 2049.0 -475.0 L 2054.0 -474.0 L 2056.0 -473.0 L 2058.0 -472.0 L 2061.0 -472.0 L 2066.0 -472.0 L 2066.0 -465.0 L 2059.5 -460.5 L 2053.0 -456.0 L 2043.5 -453.0 L 2034.0 -450.0 L 2025.0 -448.0 L 2015.0 -447.0 L 2011.0 -447.0 L 1973.0 -447.0 L 1913.0 -469.0 L 1859.0 -490.0 L 1838.0 -618.0 L 1829.0 -669.0 L 1813.0 -669.0 L 1811.0 -669.0 L 1810.0 -669.0 L 1809.5 -668.5 L 1809.0 -668.0 L 1808.0 -668.0 L 1797.0 -668.0 Z" fill="black" fill-opacity="0.25" stroke="black" stroke-width="4.0"/>
  <rect x="168.0" y="-356.0" width="1990.0" height="165.99999999999997" fill="none" stroke="red" stroke-width="10.0" /><rect x="381.0" y="-816.0" width="1125.0" height="361.99999999999994" fill="none" stroke="red" stroke-width="10.0" /><rect x="-282.0" y="-752.0" width="586.0" height="221.99999999999997" fill="none" stroke="red" stroke-width="10.0" /><rect x="1557.0" y="-685.0" width="290.00000000000006" height="239.00000000000006" fill="none" stroke="red" stroke-width="10.0" /><rect x="1797.0" y="-686.0" width="268.9999999999999" height="239.00000000000006" fill="none" stroke="red" stroke-width="10.0" />
</svg>
