<svg xmlns="http://www.w3.org/2000/svg"
  viewBox="310.222 -833.55 1402.825 515.106">
  <rect x="310.222" y="-833.55" width="1402.825" height="515.106" fill="white"/>
  <path d="M 1352 -549 L 1383 -549 L 1416.5 -548.5 L 1450 -548 L 1477 -544 L 1496 -544 L 1513 -498 L 1530 -452 L 1562 -407 L 1573 -391 L 1581 -389 L 1589 -387 L 1593.5 -381.5 L 1598 -376 L 1585 -372 L 1554 -368 L 1522 -368.5 L 1490 -369 L 1461 -372 L 1434 -381 L 1422.5 -413.5 L 1411 -446 L 1378 -510 L 1367 -525 L 1348 -528 L 1333 -529 L 1332 -539 L 1331 -549 Z M 1078 -552 L 1105 -552 L 1134.5 -551.5 L 1164 -551 L 1187 -547 L 1204 -547 L 1223 -500 L 1242 -451 L 1268 -407 L 1275 -391 L 1285 -390 L 1292 -388 L 1295.5 -382.5 L 1299 -377 L 1288 -372 L 1261 -368 L 1233 -368.5 L 1205 -369 L 1179 -372 L 1155 -381 L 1142 -414.5 L 1129 -448 L 1101 -512 L 1099 -515 L 1091.5 -523.5 L 1084 -532 L 1075 -533 L 1062 -534 L 1060.5 -543 L 1059 -552 Z M 363 -775 L 368 -783 L 374 -783.5 L 380 -784 L 387.5 -779.5 L 395 -775 L 405.5 -770 L 416 -765 L 432.5 -761.5 L 449 -758 L 479 -758 L 1477 -758 L 1505 -758 L 1527 -753.5 L 1549 -749 L 1567.5 -739.5 L 1586 -730 L 1596 -722 L 1606 -714 L 1624 -695.5 L 1642 -677 L 1655 -659 L 1668 -641 L 1660 -625 L 1653 -613 L 1642.5 -619.5 L 1632 -626 L 1618 -631.5 L 1604 -637 L 1588 -638.5 L 1572 -640 L 1539 -640 L 555 -640 L 532 -640 L 514 -643.5 L 496 -647 L 485.5 -650.5 L 475 -654 L 463.5 -659 L 452 -664 L 439 -672.5 L 426 -681 L 411 -696.5 L 396 -712 L 381 -731.5 L 366 -751 L 362 -759 L 358 -767 Z" fill="black" fill-opacity="0.25" stroke="black" stroke-width="4"/>
  <rect x="1331" y="-549" width="267" height="181" fill="none" stroke="red" stroke-width="10" /><rect x="1059" y="-552" width="240" height="184" fill="none" stroke="red" stroke-width="10" /><rect x="358" y="-784" width="1310" height="171" fill="none" stroke="red" stroke-width="10" />
</svg>
