<svg xmlns="http://www.w3.org/2000/svg"
  viewBox="26 -716 1456 538">
  <rect x="26" y="-716" width="1456" height="538" fill="white"/>
  <path d="M 351 -647 L 364 -650 L 375 -655 L 386 -660 L 398 -663 L 420 -664 L 454.5 -665 L 489 -666 L 536 -666 L 592 -666 L 666 -652 L 687 -648 L 708 -641.5 L 729 -635 L 750 -630 L 831 -610 L 884 -572 L 937 -534 L 937 -491 L 937 -469 L 923 -450 L 918 -444 L 895 -444 L 878 -444 L 854 -447 L 830 -450 L 796 -457 L 785 -459 L 770.5 -462 L 756 -465 L 737 -469 L 757 -479 L 771 -497 L 786 -516 L 781 -529 L 771 -552 L 733 -572.5 L 695 -593 L 629 -605 L 559 -618 L 490 -627 L 421 -636 Z M 223 -267 L 158 -277 L 76 -367 L 76 -394 L 112 -381 L 151 -373 L 190 -365 L 233 -364 L 277 -363 L 331 -362 L 385 -361 L 456 -361 L 551 -361 L 776 -365 L 1001 -370 L 1118 -370 L 1225 -370 L 1393 -272 L 1402 -259 L 1412.5 -249 L 1423 -239 L 1432 -228 L 1431 -228 L 1424.5 -228 L 1418 -228 L 1407 -231 L 1377 -235 L 1361.5 -239 L 1346 -243 L 1343 -243 L 1254 -251 L 1213 -254 L 1174 -256.5 L 1135 -259 L 1098 -259 L 1043 -259 L 860 -250 L 677 -241 L 587 -240 L 540 -240 L 494.5 -241.5 L 449 -243 L 404 -247 L 359 -250 L 313.5 -255 L 268 -260 Z" fill="black" fill-opacity="0.25" stroke="black" stroke-width="4"/>
  <rect x="351" y="-666" width="586" height="222" fill="none" stroke="red" stroke-width="10" /><rect x="76" y="-394" width="1356" height="166" fill="none" stroke="red" stroke-width="10" />
</svg>
