<svg xmlns="http://www.w3.org/2000/svg"
  viewBox="39.0 -766.0 1443.0 587.0">
  <rect x="39.0" y="-766.0" width="1443.0" height="587.0" fill="white"/>
  <path d="M 1063.0 -479.0 L 1051.0 -464.0 L 1029.0 -458.0 L 1006.0 -452.0 L 976.0 -452.0 L 954.0 -452.0 L 935.0 -454.0 L 916.0 -456.0 L 893.0 -460.0 L 872.0 -463.0 L 858.5 -467.5 L 845.0 -472.0 L 837.0 -475.0 L 792.0 -494.0 L 760.0 -510.0 L 757.0 -514.0 L 755.0 -518.0 L 760.0 -521.0 L 761.0 -522.0 L 773.0 -522.0 L 781.0 -522.0 L 789.5 -522.0 L 798.0 -522.0 L 810.0 -519.0 L 876.0 -509.0 L 888.0 -510.0 L 907.0 -510.0 L 915.0 -518.0 L 921.0 -523.0 L 921.0 -535.0 L 921.0 -552.0 L 895.0 -597.0 L 869.0 -642.0 L 868.0 -666.0 L 868.0 -687.0 L 884.0 -702.0 L 890.0 -707.0 L 918.0 -713.0 L 931.0 -716.0 L 945.5 -716.0 L 960.0 -716.0 L 976.0 -716.0 L 993.0 -716.0 L 1011.0 -716.0 L 1029.0 -716.0 L 1048.0 -713.0 L 1084.0 -708.0 L 1085.0 -707.0 L 1094.0 -690.0 L 1095.0 -680.0 L 1095.0 -667.0 L 1076.0 -666.0 L 1066.0 -666.0 L 1048.0 -671.0 L 1028.0 -676.0 L 1021.0 -676.0 L 1015.0 -676.0 L 1015.0 -671.0 L 1015.0 -653.0 L 1048.0 -600.0 L 1080.0 -549.0 L 1081.0 -521.0 L 1081.0 -500.0 Z M 235.0 -268.0 L 170.0 -278.0 L 89.0 -368.0 L 89.0 -395.0 L 125.0 -382.0 L 163.5 -374.0 L 202.0 -366.0 L 245.0 -365.0 L 288.0 -364.0 L 342.0 -363.0 L 396.0 -362.0 L 465.0 -362.0 L 559.0 -362.0 L 783.0 -366.0 L 1006.0 -371.0 L 1122.0 -371.0 L 1228.0 -371.0 L 1394.0 -273.0 L 1403.0 -260.0 L 1413.0 -250.0 L 1423.0 -240.0 L 1432.0 -229.0 L 1431.0 -229.0 L 1424.5 -229.0 L 1418.0 -229.0 L 1408.0 -232.0 L 1379.0 -236.0 L 1363.0 -240.0 L 1347.0 -244.0 L 1344.0 -244.0 L 1255.0 -252.0 L 1215.0 -255.0 L 1176.5 -257.5 L 1138.0 -260.0 L 1101.0 -260.0 L 1047.0 -260.0 L 866.0 -251.0 L 684.0 -242.0 L 596.0 -241.0 L 549.0 -241.0 L 504.0 -242.5 L 459.0 -244.0 L 414.0 -248.0 L 369.0 -251.0 L 324.5 -256.0 L 280.0 -261.0 Z" fill="black" fill-opacity="0.25" stroke="black" stroke-width="4.0"/>
  <rect x="755.0" y="-716.0" width="339.99999999999994" height="263.99999999999994" fill="none" stroke="red" stroke-width="10.0" /><rect x="89.0" y="-395.0" width="1343.0" height="166.0" fill="none" stroke="red" stroke-width="10.0" />
</svg>
