<svg xmlns="http://www.w3.org/2000/svg"
  viewBox="31 -904 1991 728">
  <rect x="31" y="-904" width="1991" height="728" fill="white"/>
  <path d="M 162 -392 L 210 -379 L 262 -371.5 L 314 -364 L 372 -362 L 431 -361 L 503 -360 L 575 -359 L 669 -359 L 733 -359 L 839 -360 L 945 -361 L 1097 -364 L 1248 -366 L 1361 -367 L 1474 -368 L 1553 -368 L 1697 -368 L 1919 -270 L 1931 -257 L 1945 -247 L 1959 -237 L 1972 -226 L 1954 -226 L 1938 -229 L 1898 -233 L 1877.5 -237.5 L 1857 -242 L 1853 -242 L 1734 -249 L 1679 -252 L 1627.5 -254.5 L 1576 -257 L 1525 -257 L 1488 -257 L 1410 -255 L 1332 -253 L 1209 -248 L 1086 -243 L 995.5 -241 L 905 -239 L 844 -239 L 721 -239 L 600 -244.5 L 479 -250 L 358 -265 L 271 -275 L 162 -365 Z M 81 -732 L 81 -760 L 94.5 -780 L 108 -800 L 130 -813.5 L 152 -827 L 180 -835 L 208 -843 L 236 -847 L 264 -851 L 290.5 -852.5 L 317 -854 L 337 -854 L 389 -854 L 444 -849.5 L 499 -845 L 558 -835 L 618 -826 L 676 -811 L 734 -796 L 795 -779 L 913 -745 L 1061 -648 L 1207 -552 L 1206 -510 L 1206 -491 L 1170 -492 L 1123 -492 L 1073 -498.5 L 1023 -505 L 977 -515 L 988 -619 L 812 -702 L 644 -782 L 473 -782 L 456 -782 L 435.5 -780.5 L 415 -779 L 393.5 -775 L 372 -771 L 351.5 -764 L 331 -757 L 314.5 -745.5 L 298 -734 L 287.5 -717.5 L 277 -701 L 276 -679 L 275 -648 L 322 -612 L 380 -567 L 385 -565 L 246 -566 L 176 -595 L 129 -615 L 98 -663 L 81 -703 Z M 365 -605 L 378 -608 L 389 -613 L 400 -618 L 412 -621 L 448 -623 L 484 -623.5 L 520 -624 L 555 -624 L 582 -624 L 613.5 -620.5 L 645 -617 L 680 -610 L 702 -606 L 722.5 -599.5 L 743 -593 L 764 -588 L 780 -584 L 799.5 -578 L 819 -572 L 839.5 -563 L 860 -554 L 880 -542.5 L 900 -531 L 916 -516.5 L 932 -502 L 941.5 -485.5 L 951 -469 L 951 -449 L 952 -427 L 938 -409 L 933 -403 L 913 -402 L 887 -402 L 861.5 -405.5 L 836 -409 L 811 -415 L 800 -417 L 785 -420 L 770 -423 L 751 -427 L 772 -438 L 786 -455 L 801 -474 L 795 -487 L 785 -510 L 747 -530.5 L 709 -551 L 644 -563 L 573 -576 L 504.5 -585 L 436 -594 Z M 1281 -718 L 1283 -721 L 1297 -721 L 1312 -721 L 1323 -721 L 1334 -720.5 L 1345 -720 L 1356 -718 L 1403 -710 L 1472 -697 L 1490 -602 L 1502 -541 L 1514 -527 L 1525 -514 L 1543 -510 L 1549 -509 L 1558 -508 L 1560 -508 L 1562 -507 L 1561 -500 L 1554 -495 L 1547 -490 L 1537.5 -487 L 1528 -484 L 1518.5 -483 L 1509 -482 L 1503 -482 L 1482 -482 L 1459.5 -487.5 L 1437 -493 L 1408 -503 L 1353 -523 L 1333 -649 L 1324 -702 L 1300 -702 L 1286 -702 L 1277 -702 L 1275 -703 L 1272 -706 Z M 1529 -722 L 1542 -722 L 1553.5 -721.5 L 1565 -721 L 1576 -719.5 L 1587 -718 L 1598 -716 L 1609 -714 L 1622 -711 L 1693 -697 L 1709 -602 L 1719 -544 L 1734 -529 L 1744 -514 L 1764 -511 L 1769 -510 L 1771 -509 L 1773 -508 L 1776 -508 L 1781 -508 L 1781 -501 L 1774.5 -496.5 L 1768 -492 L 1759 -489 L 1750 -486 L 1740.5 -484.5 L 1731 -483 L 1727 -483 L 1689 -483 L 1628 -505 L 1574 -526 L 1553 -654 L 1544 -705 L 1528 -705 L 1526 -705 L 1525 -705 L 1524.5 -704.5 L 1524 -704 L 1523 -704 L 1512 -704 L 1512 -719 L 1512 -722 Z" fill="black" fill-opacity="0.25" stroke="black" stroke-width="4"/>
  <rect x="162" y="-392" width="1810" height="166" fill="none" stroke="red" stroke-width="10" /><rect x="81" y="-854" width="1126" height="363" fill="none" stroke="red" stroke-width="10" /><rect x="365" y="-624" width="587" height="222" fill="none" stroke="red" stroke-width="10" /><rect x="1272" y="-721" width="290" height="239" fill="none" stroke="red" stroke-width="10" /><rect x="1512" y="-722" width="269" height="239" fill="none" stroke="red" stroke-width="10" />
</svg>
