<svg xmlns="http://www.w3.org/2000/svg"
  viewBox="-332 -866 2540 726">
  <rect x="-332" y="-866" width="2540" height="726" fill="white"/>
  <path d="M 168 -329 L 168 -356 L 221 -343 L 278 -335.5 L 335 -328 L 399 -326 L 431 -326 L 466.5 -325 L 502 -324 L 542.5 -323.5 L 583 -323 L 628.5 -323 L 674 -323 L 725 -323 L 795 -323 L 912.5 -324 L 1030 -325 L 1196 -328 L 1362 -330 L 1486.5 -331 L 1611 -332 L 1698 -332 L 1857 -332 L 2101 -234 L 2114 -221 L 2129.5 -211 L 2145 -201 L 2158 -190 L 2138 -190 L 2121 -193 L 2077 -197 L 2054.5 -201.5 L 2032 -206 L 2028 -206 L 1897 -213 L 1837 -216 L 1780 -218.5 L 1723 -221 L 1667 -221 L 1627 -221 L 1540.5 -219 L 1454 -217 L 1319 -212 L 1184 -207 L 1084.5 -205 L 985 -203 L 918 -203 L 784 -203 L 650.5 -208.5 L 517 -214 L 383 -229 L 287 -239 Z M 381 -694 L 381 -722 L 394 -742.5 L 407 -763 L 429 -776 L 451 -789 L 479 -797.5 L 507 -806 L 535.5 -810 L 564 -814 L 590.5 -815 L 617 -816 L 637 -816 L 698 -816 L 755 -810.5 L 812 -805 L 868.5 -795 L 925 -785 L 981 -771.5 L 1037 -758 L 1095 -741 L 1154 -724 L 1220 -691.5 L 1286 -659 L 1360 -610 L 1506 -514 L 1506 -473 L 1506 -454 L 1470 -454 L 1423 -454 L 1373 -460.5 L 1323 -467 L 1276 -477 L 1287 -581 L 1112 -665 L 944 -745 L 773 -745 L 756 -745 L 735.5 -743.5 L 715 -742 L 693 -738 L 671 -734 L 650.5 -727 L 630 -720 L 613.5 -708.5 L 597 -697 L 587 -680.5 L 577 -664 L 576 -642 L 575 -611 L 621 -574 L 679 -529 L 685 -527 L 546 -528 L 476 -557 L 429 -577 L 398 -626 L 381 -665 Z M -282 -733 L -269 -736 L -258.5 -741 L -248 -746 L -236 -748 L -200 -750 L -164 -751 L -128 -752 L -93 -752 L -66 -752 L -34.5 -748.5 L -3 -745 L 32 -738 L 54 -734 L 74.5 -727.5 L 95 -721 L 116 -716 L 131 -712 L 151 -705.5 L 171 -699 L 192 -690.5 L 213 -682 L 233 -670 L 253 -658 L 269 -644 L 285 -630 L 294.5 -613 L 304 -596 L 303 -577 L 303 -555 L 290 -536 L 285 -530 L 265 -530 L 224 -530 L 183.5 -537.5 L 143 -545 L 104 -555 L 125 -566 L 138 -583 L 153 -601 L 147 -614 L 137 -638 L 99.5 -658.5 L 62 -679 L -4 -691 L -75 -704 L -143 -713 L -211 -722 Z M 1566 -682 L 1568 -685 L 1582 -685 L 1597 -685 L 1608 -685 L 1619 -684.5 L 1630 -684 L 1641 -682 L 1688 -674 L 1757 -661 L 1775 -566 L 1787 -505 L 1799 -491 L 1810 -478 L 1828 -474 L 1834 -473 L 1843 -472 L 1846 -472 L 1847 -471 L 1846 -464 L 1839 -459 L 1832 -454 L 1822.5 -451 L 1813 -448 L 1803.5 -447 L 1794 -446 L 1788 -446 L 1767 -446 L 1744 -451.5 L 1721 -457 L 1693 -467 L 1638 -487 L 1617 -613 L 1608 -666 L 1585 -666 L 1571 -666 L 1562 -666 L 1560 -667 L 1557 -669 Z M 1797 -683 L 1797 -686 L 1814 -686 L 1827 -686 L 1838.5 -685.5 L 1850 -685 L 1861 -683.5 L 1872 -682 L 1883 -680 L 1894 -678 L 1907 -675 L 1978 -661 L 1994 -566 L 2004 -508 L 2019 -493 L 2029 -478 L 2049 -475 L 2054 -474 L 2056 -473 L 2058 -472 L 2061 -472 L 2066 -472 L 2066 -465 L 2059.5 -460.5 L 2053 -456 L 2043.5 -453 L 2034 -450 L 2025 -448 L 2015 -447 L 2011 -447 L 1973 -447 L 1913 -469 L 1859 -490 L 1838 -618 L 1829 -669 L 1813 -669 L 1811 -669 L 1810 -669 L 1809.5 -668.5 L 1809 -668 L 1808 -668 L 1797 -668 Z" fill="black" fill-opacity="0.25" stroke="black" stroke-width="4"/>
  <rect x="168" y="-356" width="1990" height="166" fill="none" stroke="red" stroke-width="10" /><rect x="381" y="-816" width="1125" height="362" fill="none" stroke="red" stroke-width="10" /><rect x="-282" y="-752" width="586" height="222" fill="none" stroke="red" stroke-width="10" /><rect x="1557" y="-685" width="290" height="239" fill="none" stroke="red" stroke-width="10" /><rect x="1797" y="-686" width="269" height="239" fill="none" stroke="red" stroke-width="10" />
</svg>
