<svg xmlns="http://www.w3.org/2000/svg"
  viewBox="12 -1335 1468 1152">
  <rect x="12" y="-1335" width="1468" height="1152" fill="white"/>
  <path d="M 231 -369 L 275 -368 L 329 -367 L 383 -366 L 454 -366 L 502 -366 L 581 -367 L 660 -368 L 774 -370 L 888 -372 L 972.5 -373.5 L 1057 -375 L 1116 -375 L 1223 -375 L 1391 -277 L 1400 -264 L 1410.5 -254 L 1421 -244 L 1430 -233 L 1416 -233 L 1405 -236 L 1375 -240 L 1359.5 -244 L 1344 -248 L 1341 -248 L 1252 -256 L 1210 -259 L 1172 -261.5 L 1134 -264 L 1096 -264 L 1068 -264 L 1009.5 -262 L 951 -260 L 858 -255 L 765 -250 L 698 -247.5 L 631 -245 L 585 -245 L 493 -245 L 402.5 -251 L 312 -257 L 221 -272 L 155 -282 L 74 -372 L 74 -399 L 111 -386 L 149 -378 L 187 -370 Z M 708 -828 L 708 -829 L 709 -830 L 710 -830 L 714 -831 L 716 -832 L 711 -838 L 707 -843 L 714 -846 L 760 -863 L 800.5 -876.5 L 841 -890 L 875 -901 L 909 -912 L 936.5 -922 L 964 -932 L 984 -942 L 1064 -983 L 1109 -1056 L 1116 -1068 L 1123.5 -1085.5 L 1131 -1103 L 1140 -1126.5 L 1149 -1150 L 1160.5 -1179.5 L 1172 -1209 L 1188 -1244 L 1189 -1247 L 1192.5 -1248.5 L 1196 -1250 L 1200 -1250.5 L 1204 -1251 L 1208.5 -1251.5 L 1213 -1252 L 1217 -1255 L 1229 -1262 L 1237.5 -1266 L 1246 -1270 L 1249 -1272 L 1262 -1278 L 1270 -1280.5 L 1278 -1283 L 1281 -1285 L 1294 -1285 L 1299 -1285 L 1304.5 -1284.5 L 1310 -1284 L 1315 -1282 L 1319 -1281 L 1324 -1280 L 1329 -1279 L 1333.5 -1278.5 L 1338 -1278 L 1343 -1276 L 1348 -1274 L 1352 -1270 L 1353 -1269 L 1352 -1267.5 L 1351 -1266 L 1348 -1265 L 1345 -1264 L 1342 -1262.5 L 1339 -1261 L 1337 -1260 L 1299 -1234 L 1297 -1227 L 1289 -1193 L 1281.5 -1169 L 1274 -1145 L 1267 -1125 L 1265 -1119 L 1260 -1110.5 L 1255 -1102 L 1249.5 -1093 L 1244 -1084 L 1238 -1076 L 1232 -1068 L 1229 -1062 L 1230 -1062 L 1229 -1062 L 1230 -1062 L 1230 -1062 L 1230 -1063 L 1232 -1063 L 1228 -1058 L 1225 -1055 L 1224 -1055 L 1224 -1055 L 1229 -1062 L 1225 -1060 L 1215 -1053 L 1205 -1046 L 1191 -1036 L 1177 -1026 L 1161 -1013.5 L 1145 -1001 L 1128 -988 L 1112 -976 L 1099.5 -965.5 L 1087 -955 L 1077 -946 L 1066 -937 L 1058.5 -930.5 L 1051 -924 L 1047 -920 L 1047 -919 L 1045 -917 L 1045 -917 L 1044 -916 L 1050 -918 L 1055 -920.5 L 1060 -923 L 1063 -925 L 1068 -928 L 1069 -928 L 1069 -928 L 1067 -927 L 1066 -926 L 1062.5 -924 L 1059 -922 L 1056 -920 L 1053 -918 L 1050 -917 L 1047 -916 L 1045 -916 L 1044 -916 L 1044 -916 L 1032 -910 L 1016 -903 L 1000 -896 L 983.5 -889 L 967 -882 L 950.5 -876.5 L 934 -871 L 920 -869 L 911 -868 L 897.5 -867.5 L 884 -867 L 872.5 -866.5 L 861 -866 L 855 -865 L 849 -864 L 856 -861 L 864 -858 L 873 -857 L 882 -856 L 891 -856 L 903 -856 L 915 -857 L 927 -858 L 939 -858 L 942 -858 L 945.5 -858 L 949 -858 L 952 -858 L 997 -855 L 1031 -828 L 1050 -814 L 1050 -809 L 1053 -801 L 1039 -802 L 1026 -802 L 1014.5 -803 L 1003 -804 L 991 -806 L 974 -809 L 951 -812 L 928 -815 L 901 -819 L 875 -823 L 852.5 -825 L 830 -827 L 808 -827 L 804 -828 L 799.5 -827.5 L 795 -827 L 792 -827 L 778 -827 L 764 -827 L 750 -827 L 736 -825 L 733 -824 L 728.5 -822.5 L 724 -821 L 716 -821 L 711 -820 Z M 70 -575 L 64 -575 L 62 -583 L 62 -584 L 64 -584 L 65 -584 L 68 -586 L 70 -587 L 66 -593 L 62 -598 L 68 -600 L 114 -617 L 154.5 -630.5 L 195 -644 L 229.5 -655 L 264 -666 L 291 -676 L 318 -686 L 339 -697 L 419 -738 L 464 -811 L 471 -823 L 478.5 -840.5 L 486 -858 L 494.5 -881.5 L 503 -905 L 514.5 -934 L 526 -963 L 542 -998 L 543 -1001 L 546.5 -1002.5 L 550 -1004 L 554.5 -1004.5 L 559 -1005 L 563.5 -1006 L 568 -1007 L 572 -1009 L 584 -1016 L 592 -1020.5 L 600 -1025 L 603 -1026 L 616 -1032 L 624.5 -1034.5 L 633 -1037 L 636 -1039 L 649 -1039 L 654 -1039 L 659.5 -1038.5 L 665 -1038 L 670 -1036 L 674 -1035 L 678.5 -1034.5 L 683 -1034 L 688 -1033 L 693 -1032 L 697.5 -1030.5 L 702 -1029 L 706 -1025 L 707 -1024 L 706 -1022.5 L 705 -1021 L 702.5 -1019.5 L 700 -1018 L 697 -1016.5 L 694 -1015 L 692 -1014 L 654 -988 L 651 -981 L 643 -947 L 636 -923 L 629 -899 L 622 -880 L 620 -874 L 615 -865.5 L 610 -857 L 604 -848 L 598 -839 L 592.5 -830.5 L 587 -822 L 583 -816 L 584 -816 L 584 -817 L 584 -817 L 584 -817 L 585 -817 L 587 -817 L 583 -812 L 580 -809 L 579 -809 L 579 -809 L 583 -816 L 579 -814 L 569 -807.5 L 559 -801 L 545 -790.5 L 531 -780 L 515 -767.5 L 499 -755 L 483 -742 L 467 -730 L 454.5 -719.5 L 442 -709 L 431 -701 L 420 -692 L 412.5 -685 L 405 -678 L 401 -674 L 401 -673 L 399 -672 L 399 -672 L 399 -671 L 387 -665 L 371 -657.5 L 355 -650 L 338 -643.5 L 321 -637 L 304.5 -631.5 L 288 -626 L 275 -623 L 266 -622 L 252.5 -621.5 L 239 -621 L 227 -620.5 L 215 -620 L 209.5 -619.5 L 204 -619 L 211 -616 L 219 -613 L 227.5 -612 L 236 -611 L 245 -611 L 257 -611 L 269 -612 L 281 -613 L 294 -613 L 297 -613 L 300 -613 L 303 -613 L 306 -612 L 351 -609 L 386 -583 L 405 -569 L 404 -564 L 407 -556 L 394 -556 L 381 -556 L 369.5 -557 L 358 -558 L 345 -561 L 328 -564 L 305.5 -566.5 L 283 -569 L 256 -573 L 230 -577 L 207 -579 L 184 -581 L 162 -581 L 158 -582 L 154 -582 L 150 -582 L 146 -582 L 132 -582 L 118 -581.5 L 104 -581 L 90 -579 L 87 -578 L 82.5 -576.5 L 78 -575 Z M 824 -726 L 827 -731 L 843 -731 L 859 -731 L 874.5 -729.5 L 890 -728 L 905 -726 L 952 -718 L 1028 -706 L 1046 -606 L 1057 -544 L 1071 -528 L 1085 -512 L 1102 -509 L 1123 -507 L 1123 -506 L 1123 -502 L 1116 -495 L 1100 -479 L 1063 -479 L 1041 -479 L 1016 -484.5 L 991 -490 L 958 -501 L 901 -522 L 879 -654 L 870 -710 L 844 -710 L 829 -710 L 820 -710 L 818 -712 L 815 -714 Z" fill="black" fill-opacity="0.25" stroke="black" stroke-width="4"/>
  <rect x="74" y="-399" width="1356" height="166" fill="none" stroke="red" stroke-width="10" /><rect x="815" y="-731" width="308" height="252" fill="none" stroke="red" stroke-width="10" /><rect x="707" y="-962.9" width="389.4" height="161" fill="none" stroke="red" stroke-width="10" /><rect x="1024.8" y="-1124" width="241.9" height="161.1" fill="none" stroke="red" stroke-width="10" /><rect x="1139" y="-1285" width="214" height="161" fill="none" stroke="red" stroke-width="10" /><rect x="62" y="-717" width="389.5" height="161" fill="none" stroke="red" stroke-width="10" /><rect x="378" y="-878" width="243.3" height="161" fill="none" stroke="red" stroke-width="10" /><rect x="493.2" y="-1039" width="213.8" height="161" fill="none" stroke="red" stroke-width="10" />
</svg>
