<svg xmlns="http://www.w3.org/2000/svg"
  viewBox="54.0 -1316.0 1456.0 1135.0">
  <rect x="54.0" y="-1316.0" width="1456.0" height="1135.0" fill="white"/>
  <path d="M 104.0 -371.0 L 104.0 -397.0 L 143.0 -384.0 L 181.5 -376.5 L 220.0 -369.0 L 261.0 -367.0 L 310.0 -365.0 L 357.5 -364.5 L 405.0 -364.0 L 454.0 -364.0 L 542.0 -364.0 L 629.0 -365.5 L 716.0 -367.0 L 804.0 -369.0 L 918.0 -371.0 L 1002.5 -372.0 L 1087.0 -373.0 L 1146.0 -373.0 L 1253.0 -373.0 L 1421.0 -275.0 L 1426.0 -269.0 L 1431.0 -263.5 L 1436.0 -258.0 L 1440.0 -252.0 L 1445.0 -247.0 L 1450.0 -242.0 L 1455.0 -237.0 L 1460.0 -231.0 L 1452.0 -231.0 L 1446.0 -231.0 L 1435.0 -234.0 L 1405.0 -239.0 L 1390.0 -243.0 L 1372.0 -247.0 L 1371.0 -247.0 L 1282.0 -255.0 L 1261.0 -256.0 L 1241.5 -257.5 L 1222.0 -259.0 L 1202.0 -260.0 L 1182.0 -261.0 L 1163.0 -262.0 L 1144.0 -263.0 L 1125.0 -263.0 L 1097.0 -263.0 L 1038.5 -260.5 L 980.0 -258.0 L 888.0 -253.0 L 795.0 -248.0 L 728.0 -246.0 L 661.0 -244.0 L 615.0 -244.0 L 522.0 -244.0 L 432.5 -250.5 L 343.0 -257.0 L 250.0 -270.0 L 185.0 -281.0 Z M 527.0 -828.0 L 527.0 -831.0 L 533.0 -831.0 L 536.0 -832.0 L 533.0 -839.0 L 530.0 -844.0 L 535.0 -847.0 L 582.0 -863.0 L 622.5 -875.0 L 663.0 -887.0 L 698.0 -896.0 L 733.0 -905.0 L 767.0 -917.5 L 801.0 -930.0 L 832.5 -948.0 L 864.0 -966.0 L 891.0 -990.0 L 918.0 -1014.0 L 938.0 -1045.0 L 945.0 -1056.0 L 953.0 -1072.5 L 961.0 -1089.0 L 971.0 -1113.0 L 981.0 -1135.0 L 993.5 -1164.0 L 1006.0 -1193.0 L 1022.0 -1228.0 L 1025.0 -1234.0 L 1034.0 -1234.0 L 1042.0 -1234.0 L 1050.0 -1239.0 L 1056.0 -1243.0 L 1061.5 -1245.5 L 1067.0 -1248.0 L 1072.0 -1250.0 L 1080.0 -1253.0 L 1083.0 -1256.0 L 1088.0 -1257.0 L 1093.0 -1259.0 L 1098.0 -1261.0 L 1102.0 -1263.0 L 1107.0 -1265.0 L 1111.0 -1265.5 L 1115.0 -1266.0 L 1120.0 -1266.0 L 1134.0 -1266.0 L 1149.0 -1261.0 L 1154.0 -1260.0 L 1159.5 -1259.5 L 1165.0 -1259.0 L 1170.0 -1259.0 L 1180.0 -1259.0 L 1185.0 -1251.0 L 1189.0 -1247.0 L 1181.0 -1245.0 L 1174.0 -1243.0 L 1171.0 -1241.0 L 1133.0 -1217.0 L 1130.0 -1208.0 L 1120.0 -1177.0 L 1113.0 -1151.0 L 1107.0 -1132.0 L 1100.5 -1116.0 L 1094.0 -1100.0 L 1083.0 -1084.0 L 1078.0 -1077.0 L 1073.0 -1070.5 L 1068.0 -1064.0 L 1064.0 -1059.0 L 1062.0 -1056.0 L 1060.5 -1052.5 L 1059.0 -1049.0 L 1057.0 -1047.0 L 1060.0 -1048.0 L 1055.0 -1042.0 L 1050.0 -1038.0 L 1051.0 -1039.0 L 1051.0 -1039.0 L 1051.5 -1039.5 L 1052.0 -1040.0 L 1052.0 -1040.0 L 1053.0 -1043.0 L 1057.0 -1047.0 L 1054.0 -1047.0 L 1046.0 -1042.5 L 1038.0 -1038.0 L 1027.5 -1031.0 L 1017.0 -1024.0 L 1005.0 -1015.5 L 993.0 -1007.0 L 982.5 -999.5 L 972.0 -992.0 L 963.5 -986.0 L 955.0 -980.0 L 952.0 -977.0 L 946.0 -972.0 L 933.5 -964.0 L 921.0 -956.0 L 908.5 -946.0 L 896.0 -936.0 L 885.0 -926.5 L 874.0 -917.0 L 870.0 -911.0 L 869.0 -910.0 L 868.0 -909.0 L 873.0 -911.0 L 877.5 -912.5 L 882.0 -914.0 L 886.0 -915.0 L 890.0 -916.0 L 892.0 -917.0 L 894.0 -917.0 L 882.0 -911.0 L 873.0 -906.0 L 869.0 -906.0 L 867.0 -906.0 L 868.0 -909.0 L 859.0 -906.0 L 846.0 -900.0 L 819.0 -889.0 L 789.0 -878.0 L 771.0 -872.0 L 754.5 -867.5 L 738.0 -863.0 L 719.0 -863.0 L 693.0 -863.0 L 687.0 -863.0 L 683.0 -863.0 L 679.0 -863.0 L 675.0 -862.0 L 669.0 -862.0 L 677.0 -858.0 L 692.0 -852.0 L 710.0 -852.0 L 713.0 -852.0 L 716.0 -852.0 L 719.0 -852.0 L 722.0 -852.0 L 727.0 -852.0 L 733.0 -852.5 L 739.0 -853.0 L 744.0 -853.0 L 772.0 -853.0 L 800.0 -846.0 L 828.0 -839.0 L 851.0 -820.0 L 867.0 -807.0 L 868.0 -798.0 L 869.0 -792.0 L 857.0 -792.0 L 808.0 -797.0 L 721.0 -812.0 L 687.0 -820.0 L 650.5 -824.0 L 614.0 -828.0 L 579.0 -828.0 L 573.0 -828.0 L 567.0 -827.5 L 561.0 -827.0 L 555.0 -827.0 L 553.0 -826.0 L 547.0 -824.0 L 543.0 -822.0 L 535.0 -822.0 L 529.0 -822.0 Z M 691.0 -709.0 L 733.0 -712.0 L 735.0 -712.0 L 737.0 -712.5 L 739.0 -713.0 L 741.0 -713.0 L 803.0 -713.0 L 838.0 -631.0 L 859.0 -580.0 L 874.0 -567.0 L 884.0 -557.0 L 898.0 -558.0 L 899.0 -558.0 L 901.0 -558.0 L 903.0 -558.0 L 905.0 -558.0 L 915.0 -559.0 L 919.0 -560.0 L 924.0 -560.0 L 924.0 -558.0 L 925.0 -554.0 L 921.0 -548.0 L 915.0 -539.0 L 904.5 -533.5 L 894.0 -528.0 L 881.5 -524.5 L 869.0 -521.0 L 856.5 -520.0 L 844.0 -519.0 L 833.0 -519.0 L 821.0 -519.0 L 808.5 -520.0 L 796.0 -521.0 L 782.0 -523.0 L 726.0 -532.0 L 680.0 -645.0 L 663.0 -687.0 L 649.0 -688.0 L 647.0 -688.0 L 646.0 -687.0 L 646.0 -705.0 Z" fill="black" fill-opacity="0.25" stroke="black" stroke-width="4.0"/>
  <rect x="104.0" y="-397.0" width="1355.9999999999998" height="166.0" fill="none" stroke="red" stroke-width="10.0" /><rect x="527.0" y="-1266.0" width="662.0" height="474.0" fill="none" stroke="red" stroke-width="10.0" /><rect x="646.0" y="-713.0" width="279.0" height="193.99999999999994" fill="none" stroke="red" stroke-width="10.0" />
</svg>
