<svg xmlns="http://www.w3.org/2000/svg"
  viewBox="43 -1334 1486.5 1153">
  <rect x="43" y="-1334" width="1486.5" height="1153" fill="white"/>
  <path d="M 93 -397 L 130 -384 L 168 -376 L 206 -368 L 250 -367 L 294 -366 L 348 -365 L 402 -364 L 473 -364 L 521 -364 L 600 -365 L 679 -366 L 793 -368 L 907 -370 L 991.5 -371.5 L 1076 -373 L 1135 -373 L 1242 -373 L 1410 -275 L 1419 -262 L 1429.5 -252 L 1440 -242 L 1449 -231 L 1435 -231 L 1424 -234 L 1394 -238 L 1378.5 -242 L 1363 -246 L 1360 -246 L 1271 -254 L 1229 -257 L 1191 -259.5 L 1153 -262 L 1115 -262 L 1087 -262 L 1028.5 -260 L 970 -258 L 877 -253 L 784 -248 L 717 -245.5 L 650 -243 L 604 -243 L 512 -243 L 421.5 -249 L 331 -255 L 240 -270 L 174 -280 L 93 -370 Z M 843 -573 L 838 -573 L 835 -581 L 835 -582 L 837 -582 L 838 -582 L 841 -584 L 843 -585 L 839 -591 L 835 -596 L 841 -598 L 887 -615 L 927.5 -628.5 L 968 -642 L 1002.5 -653 L 1037 -664 L 1064 -674 L 1091 -684 L 1112 -695 L 1192 -736 L 1237 -809 L 1244 -821 L 1251.5 -838.5 L 1259 -856 L 1267.5 -879.5 L 1276 -903 L 1287.5 -932 L 1299 -961 L 1315 -996 L 1316 -999 L 1319.5 -1000.5 L 1323 -1002 L 1327.5 -1002.5 L 1332 -1003 L 1336.5 -1004 L 1341 -1005 L 1345 -1007 L 1357 -1014 L 1365 -1018.5 L 1373 -1023 L 1376 -1024 L 1389 -1030 L 1397.5 -1032.5 L 1406 -1035 L 1409 -1037 L 1422 -1037 L 1427 -1037 L 1432.5 -1036.5 L 1438 -1036 L 1443 -1034 L 1447 -1033 L 1451.5 -1032.5 L 1456 -1032 L 1461 -1031 L 1466 -1030 L 1470.5 -1028.5 L 1475 -1027 L 1479 -1023 L 1480 -1022 L 1479 -1020 L 1478 -1018 L 1475.5 -1017 L 1473 -1016 L 1470 -1014.5 L 1467 -1013 L 1465 -1012 L 1427 -986 L 1424 -979 L 1416 -945 L 1409 -921 L 1402 -897 L 1395 -878 L 1393 -872 L 1388 -863.5 L 1383 -855 L 1377 -846 L 1371 -837 L 1365.5 -828.5 L 1360 -820 L 1356 -814 L 1357 -814 L 1357 -815 L 1357 -815 L 1357 -815 L 1358 -815 L 1360 -815 L 1355 -810 L 1352 -807 L 1352 -807 L 1352 -807 L 1356 -814 L 1352 -812 L 1342 -805.5 L 1332 -799 L 1318 -788.5 L 1304 -778 L 1288 -765.5 L 1272 -753 L 1256 -740 L 1240 -728 L 1227.5 -717.5 L 1215 -707 L 1204 -698 L 1193 -689 L 1185.5 -682.5 L 1178 -676 L 1174 -672 L 1174 -671 L 1172 -670 L 1172 -670 L 1172 -669 L 1178 -671 L 1182.5 -673.5 L 1187 -676 L 1191 -677 L 1196 -680 L 1197 -680 L 1197 -680 L 1194 -679 L 1193 -678 L 1190 -676 L 1187 -674 L 1183.5 -672.5 L 1180 -671 L 1177 -669.5 L 1174 -668 L 1173 -668 L 1172 -668 L 1172 -669 L 1160 -663 L 1144 -655.5 L 1128 -648 L 1111 -641.5 L 1094 -635 L 1077.5 -629.5 L 1061 -624 L 1048 -621 L 1039 -620 L 1025.5 -619.5 L 1012 -619 L 1000 -618.5 L 988 -618 L 982.5 -617 L 977 -616 L 984 -614 L 992 -611 L 1000.5 -610 L 1009 -609 L 1018 -609 L 1030 -609 L 1042 -610 L 1054 -611 L 1067 -611 L 1070 -611 L 1073 -611 L 1076 -611 L 1079 -610 L 1124 -607 L 1159 -581 L 1178 -567 L 1177 -562 L 1180 -554 L 1167 -554 L 1154 -554 L 1142.5 -555 L 1131 -556 L 1118 -559 L 1101 -562 L 1078.5 -564.5 L 1056 -567 L 1029 -571 L 1003 -575 L 980 -577 L 957 -579 L 935 -579 L 931 -580 L 927 -580 L 923 -580 L 919 -580 L 905 -580 L 891 -579.5 L 877 -579 L 863 -577 L 860 -576 L 855.5 -574.5 L 851 -573 Z M 222 -828 L 222 -829 L 224 -829 L 225 -829 L 228 -831 L 230 -832 L 226 -838 L 222 -843 L 228 -845 L 274 -862 L 314.5 -875.5 L 355 -889 L 389 -900 L 423 -911 L 450.5 -921 L 478 -931 L 499 -942 L 579 -983 L 624 -1056 L 631 -1068 L 638.5 -1085.5 L 646 -1103 L 654.5 -1126.5 L 663 -1150 L 674.5 -1179 L 686 -1208 L 702 -1243 L 703 -1246 L 706.5 -1247.5 L 710 -1249 L 714 -1249.5 L 718 -1250 L 723 -1251 L 728 -1252 L 731 -1254 L 743 -1261 L 751.5 -1265.5 L 760 -1270 L 763 -1271 L 776 -1277 L 784 -1279.5 L 792 -1282 L 795 -1284 L 809 -1284 L 814 -1284 L 819 -1283.5 L 824 -1283 L 830 -1281 L 834 -1280 L 838.5 -1279.5 L 843 -1279 L 848 -1278 L 853 -1277 L 857.5 -1275.5 L 862 -1274 L 866 -1270 L 867 -1269 L 866 -1267 L 865 -1265 L 862 -1264 L 859 -1263 L 856.5 -1262 L 854 -1261 L 852 -1259 L 814 -1233 L 811 -1226 L 803 -1192 L 796 -1168 L 789 -1144 L 781 -1125 L 779 -1119 L 774.5 -1110.5 L 770 -1102 L 764 -1093 L 758 -1084 L 752.5 -1075.5 L 747 -1067 L 743 -1061 L 744 -1061 L 744 -1062 L 744 -1062 L 744 -1062 L 745 -1062 L 747 -1062 L 742 -1057 L 739 -1054 L 738 -1054 L 738 -1054 L 743 -1061 L 739 -1059 L 729 -1052.5 L 719 -1046 L 705 -1035.5 L 691 -1025 L 675 -1012.5 L 659 -1000 L 643 -987 L 627 -975 L 614.5 -964.5 L 602 -954 L 591 -946 L 580 -937 L 572.5 -930 L 565 -923 L 561 -919 L 561 -918 L 559 -917 L 559 -917 L 559 -916 L 565 -918 L 569.5 -920.5 L 574 -923 L 578 -925 L 583 -928 L 583 -927 L 583 -927 L 581 -926 L 580 -925 L 576.5 -923 L 573 -921 L 570 -919.5 L 567 -918 L 564 -916.5 L 561 -915 L 560 -915 L 559 -915 L 559 -916 L 547 -910 L 531 -902.5 L 515 -895 L 498 -888.5 L 481 -882 L 464.5 -876.5 L 448 -871 L 435 -868 L 426 -867 L 412 -866.5 L 398 -866 L 386.5 -865.5 L 375 -865 L 369 -864.5 L 363 -864 L 371 -861 L 379 -858 L 387.5 -857 L 396 -856 L 405 -856 L 417 -856 L 429 -857 L 441 -858 L 454 -858 L 457 -858 L 460 -858 L 463 -858 L 466 -857 L 511 -854 L 545 -828 L 564 -814 L 564 -809 L 567 -801 L 553 -801 L 540 -801 L 529 -802 L 518 -803 L 505 -806 L 488 -809 L 465 -811.5 L 442 -814 L 416 -818 L 390 -822 L 367 -824 L 344 -826 L 322 -826 L 318 -827 L 314 -827 L 310 -827 L 306 -827 L 292 -827 L 278 -826.5 L 264 -826 L 250 -824 L 247 -823 L 242.5 -821.5 L 238 -820 L 230 -820 L 225 -820 Z M 338 -725 L 341 -730 L 357 -730 L 373 -730 L 388.5 -728.5 L 404 -727 L 419 -725 L 466 -718 L 542 -706 L 560 -605 L 571 -543 L 585 -527 L 599 -511 L 616 -509 L 637 -507 L 637 -505 L 637 -501 L 630 -494 L 614 -478 L 577 -479 L 555 -479 L 530 -484 L 505 -489 L 473 -501 L 416 -522 L 393 -654 L 384 -710 L 358 -710 L 343 -710 L 334 -710 L 332 -712 L 329 -713 Z" fill="black" fill-opacity="0.25" stroke="black" stroke-width="4"/>
  <rect x="93" y="-397" width="1356" height="166" fill="none" stroke="red" stroke-width="10" /><rect x="329" y="-730" width="308" height="252" fill="none" stroke="red" stroke-width="10" /><rect x="835" y="-715" width="389.5" height="161" fill="none" stroke="red" stroke-width="10" /><rect x="1151" y="-876" width="243.3" height="161" fill="none" stroke="red" stroke-width="10" /><rect x="1266.2" y="-1037" width="213.8" height="161" fill="none" stroke="red" stroke-width="10" /><rect x="222" y="-962" width="389.5" height="161" fill="none" stroke="red" stroke-width="10" /><rect x="538" y="-1123" width="242.3" height="161" fill="none" stroke="red" stroke-width="10" /><rect x="653.2" y="-1284" width="213.8" height="161" fill="none" stroke="red" stroke-width="10" />
</svg>
