<svg xmlns="http://www.w3.org/2000/svg"
  viewBox="26 -914 1456 737">
  <rect x="26" y="-914" width="1456" height="737" fill="white"/>
  <path d="M 76 -366 L 76 -393 L 113 -380 L 151 -372 L 189 -364 L 233 -363 L 277 -362 L 331 -361 L 385 -360 L 456 -360 L 504 -360 L 583.5 -361 L 663 -362 L 776 -364 L 889 -366 L 974 -367.5 L 1059 -369 L 1118 -369 L 1225 -369 L 1393 -271 L 1402 -258 L 1412.5 -248 L 1423 -238 L 1432 -227 L 1419 -227 L 1407 -230 L 1377 -234 L 1361.5 -238 L 1346 -242 L 1343 -242 L 1254 -250 L 1213 -253 L 1174.5 -255.5 L 1136 -258 L 1098 -258 L 1070 -258 L 1011 -256 L 952 -254 L 860 -249 L 768 -244 L 700 -241.5 L 632 -239 L 587 -239 L 495 -239 L 404 -245 L 313 -251 L 223 -266 L 157 -276 Z M 138 -742 L 138 -770 L 151.5 -790 L 165 -810 L 187 -823.5 L 209 -837 L 237 -845 L 265 -853 L 293.5 -857.5 L 322 -862 L 348.5 -863 L 375 -864 L 395 -864 L 447 -864 L 501.5 -859.5 L 556 -855 L 615 -845 L 675 -836 L 733 -821 L 791 -806 L 852 -789 L 911 -772 L 977 -739.5 L 1043 -707 L 1118 -658 L 1264 -562 L 1263 -520 L 1263 -501 L 1227 -502 L 1180 -502 L 1130 -508.5 L 1080 -515 L 1034 -525 L 1046 -629 L 870 -713 L 703 -793 L 530 -792 L 513 -792 L 492.5 -790.5 L 472 -789 L 450.5 -785 L 429 -781 L 408.5 -774 L 388 -767 L 371.5 -755.5 L 355 -744 L 344.5 -728 L 334 -712 L 333 -689 L 332 -658 L 379 -622 L 437 -577 L 442 -575 L 303 -576 L 233 -605 L 186 -625 L 155 -674 L 138 -713 Z M 415 -643 L 428 -646 L 439 -651 L 450 -656 L 462 -659 L 498 -661 L 533.5 -661.5 L 569 -662 L 605 -662 L 632 -662 L 663 -658.5 L 694 -655 L 729 -648 L 751 -644 L 772 -637.5 L 793 -631 L 813 -626 L 828 -623 L 848 -616.5 L 868 -610 L 889 -601 L 910 -592 L 930.5 -580.5 L 951 -569 L 966.5 -554.5 L 982 -540 L 991.5 -523.5 L 1001 -507 L 1001 -487 L 1000 -465 L 987 -446 L 982 -440 L 959 -440 L 942 -440 L 918 -443 L 894 -446 L 860 -453 L 849 -455 L 834.5 -458 L 820 -461 L 801 -465 L 811 -470 L 819.5 -477 L 828 -484 L 835 -493 L 850 -511 L 845 -525 L 835 -548 L 797 -568.5 L 759 -589 L 693 -601 L 622 -614 L 554 -623 L 486 -632 Z" fill="black" fill-opacity="0.25" stroke="black" stroke-width="4"/>
  <rect x="76" y="-393" width="1356" height="166" fill="none" stroke="red" stroke-width="10" /><rect x="138" y="-864" width="1126" height="363" fill="none" stroke="red" stroke-width="10" /><rect x="415" y="-662" width="586" height="222" fill="none" stroke="red" stroke-width="10" />
</svg>
