<svg xmlns="http://www.w3.org/2000/svg"
  viewBox="37 -960.167 1457 781.167">
  <rect x="37" y="-960.167" width="1457" height="781.167" fill="white"/>
  <path d="M 234 -268 L 169 -278 L 87 -368 L 87 -395 L 123 -382 L 162.5 -374.5 L 202 -367 L 245 -366 L 289 -365 L 343 -363.5 L 397 -362 L 467 -362 L 562 -362 L 788 -367 L 1013 -372 L 1130 -372 L 1237 -372 L 1405 -273 L 1414 -260 L 1424.5 -250.5 L 1435 -241 L 1444 -229 L 1443 -229 L 1436.5 -229 L 1430 -229 L 1419 -233 L 1389 -237 L 1373.5 -241 L 1358 -245 L 1354 -245 L 1266 -253 L 1225 -256 L 1186 -258.5 L 1147 -261 L 1109 -261 L 1054 -261 L 872 -251 L 689 -242 L 599 -242 L 552 -242 L 506.5 -243.5 L 461 -245 L 416 -248 L 371 -251 L 325 -256 L 279 -261 Z M 844 -680 L 838 -668 L 832 -649.5 L 826 -631 L 819 -606 L 957 -599 L 1188 -590 L 1233 -545 L 1091 -545 L 985 -545 L 879 -545 L 799 -546 L 782 -508 L 754 -479 L 743 -465 L 710 -455 L 693 -450 L 678 -449 L 663 -448 L 649 -448 L 627 -448 L 618 -451 L 605 -457 L 613 -465 L 638 -501 L 654 -551 L 641 -551 L 441 -560 L 343 -609 L 259 -648 L 157 -773 L 149 -787 L 145 -813 L 132 -887 L 127 -896 L 158 -900 L 196 -906 L 234 -911 L 249 -910 L 292 -909 L 321 -891 L 328 -887 L 329 -866 L 326 -821 L 326 -807 L 330 -801 L 422 -670 L 633 -627 L 641 -624 L 651.5 -623.5 L 662 -623 L 674 -621 L 679 -637 L 683.5 -649 L 688 -661 L 694 -673 L 702 -690 L 732 -690 L 793 -684 L 805 -682 L 818.5 -681 L 832 -680 Z" fill="black" fill-opacity="0.25" stroke="black" stroke-width="4"/>
  <rect x="87" y="-395" width="1357" height="166" fill="none" stroke="red" stroke-width="10" /><rect x="127" y="-911" width="1106" height="463" fill="none" stroke="red" stroke-width="10" />
</svg>
