<svg xmlns="http://www.w3.org/2000/svg"
  viewBox="30.0 -745.0 1592.0 568.0">
  <rect x="30.0" y="-745.0" width="1592.0" height="568.0" fill="white"/>
  <path d="M 515.0 -457.0 L 503.0 -443.0 L 480.0 -437.0 L 457.0 -430.0 L 428.0 -430.0 L 406.0 -430.0 L 387.0 -432.5 L 368.0 -435.0 L 345.0 -438.0 L 324.0 -441.0 L 310.0 -446.0 L 296.0 -451.0 L 289.0 -454.0 L 243.0 -473.0 L 211.0 -489.0 L 209.0 -493.0 L 207.0 -497.0 L 212.0 -499.0 L 213.0 -500.0 L 225.0 -501.0 L 233.0 -501.0 L 241.5 -501.0 L 250.0 -501.0 L 262.0 -498.0 L 328.0 -488.0 L 340.0 -489.0 L 359.0 -489.0 L 367.0 -496.0 L 373.0 -502.0 L 373.0 -514.0 L 373.0 -531.0 L 346.0 -576.0 L 320.0 -621.0 L 320.0 -645.0 L 320.0 -667.0 L 335.0 -680.0 L 341.0 -685.0 L 370.0 -692.0 L 383.0 -695.0 L 397.5 -695.0 L 412.0 -695.0 L 428.0 -695.0 L 445.0 -695.0 L 462.5 -695.0 L 480.0 -695.0 L 500.0 -692.0 L 536.0 -687.0 L 537.0 -685.0 L 546.0 -668.0 L 546.0 -659.0 L 546.0 -646.0 L 527.0 -645.0 L 517.0 -645.0 L 500.0 -649.0 L 480.0 -654.0 L 473.0 -654.0 L 467.0 -654.0 L 467.0 -649.0 L 467.0 -631.0 L 500.0 -579.0 L 532.0 -528.0 L 532.0 -499.0 L 533.0 -478.0 Z M 241.0 -266.0 L 169.0 -276.0 L 80.0 -366.0 L 80.0 -393.0 L 120.0 -380.0 L 162.5 -372.5 L 205.0 -365.0 L 253.0 -363.0 L 301.0 -362.0 L 360.5 -361.0 L 420.0 -360.0 L 498.0 -360.0 L 602.0 -360.0 L 850.0 -365.0 L 1098.0 -370.0 L 1227.0 -369.0 L 1345.0 -369.0 L 1529.0 -271.0 L 1539.0 -258.0 L 1550.5 -248.0 L 1562.0 -238.0 L 1572.0 -227.0 L 1571.0 -227.0 L 1563.5 -227.0 L 1556.0 -227.0 L 1544.0 -230.0 L 1511.0 -234.0 L 1494.0 -238.5 L 1477.0 -243.0 L 1474.0 -243.0 L 1375.0 -250.0 L 1331.0 -253.0 L 1288.0 -255.5 L 1245.0 -258.0 L 1204.0 -258.0 L 1144.0 -258.0 L 943.0 -249.0 L 741.0 -240.0 L 642.0 -240.0 L 590.0 -240.0 L 540.5 -241.5 L 491.0 -243.0 L 440.0 -246.0 L 390.0 -249.0 L 340.5 -254.0 L 291.0 -259.0 Z M 782.0 -675.0 L 784.0 -678.0 L 804.0 -678.0 L 815.0 -678.0 L 827.5 -678.0 L 840.0 -678.0 L 857.0 -675.0 L 904.0 -667.0 L 973.0 -654.0 L 991.0 -559.0 L 1003.0 -498.0 L 1015.0 -484.0 L 1026.0 -471.0 L 1044.0 -467.0 L 1049.0 -466.0 L 1059.0 -465.0 L 1062.0 -465.0 L 1063.0 -464.0 L 1063.0 -461.0 L 1057.0 -454.0 L 1042.0 -439.0 L 1007.0 -439.0 L 986.0 -439.0 L 962.0 -444.5 L 938.0 -450.0 L 909.0 -460.0 L 854.0 -480.0 L 833.0 -606.0 L 824.0 -659.0 L 801.0 -659.0 L 787.0 -659.0 L 778.0 -659.0 L 776.0 -660.0 L 773.0 -663.0 Z M 1013.0 -676.0 L 1013.0 -679.0 L 1030.0 -679.0 L 1040.0 -679.0 L 1051.5 -679.0 L 1063.0 -679.0 L 1079.0 -676.0 L 1095.0 -673.0 L 1106.0 -671.0 L 1117.0 -669.0 L 1123.0 -668.0 L 1193.0 -654.0 L 1210.0 -559.0 L 1221.0 -501.0 L 1235.0 -486.0 L 1244.0 -470.0 L 1265.0 -468.0 L 1270.0 -467.0 L 1272.0 -466.0 L 1274.0 -465.0 L 1277.0 -465.0 L 1282.0 -465.0 L 1282.0 -461.0 L 1277.0 -456.0 L 1261.0 -440.0 L 1228.0 -440.0 L 1190.0 -440.0 L 1129.0 -462.0 L 1075.0 -483.0 L 1054.0 -611.0 L 1045.0 -666.0 L 1027.0 -662.0 L 1013.0 -659.0 Z" fill="black" fill-opacity="0.25" stroke="black" stroke-width="4.0"/>
  <rect x="207.0" y="-695.0" width="339.00000000000006" height="264.99999999999994" fill="none" stroke="red" stroke-width="10.0" /><rect x="80.0" y="-393.0" width="1492.0" height="166.0" fill="none" stroke="red" stroke-width="10.0" /><rect x="773.0" y="-678.0" width="289.99999999999994" height="239.00000000000006" fill="none" stroke="red" stroke-width="10.0" /><rect x="1012.9999999999999" y="-679.0" width="269.0000000000001" height="239.00000000000006" fill="none" stroke="red" stroke-width="10.0" />
</svg>
