<svg xmlns="http://www.w3.org/2000/svg"
  viewBox="51 -1082 1457 905">
  <rect x="51" y="-1082" width="1457" height="905" fill="white"/>
  <path d="M 101 -366 L 101 -393 L 138 -380 L 176 -372.5 L 214 -365 L 259 -363 L 303 -362 L 356.5 -361 L 410 -360 L 481 -360 L 529 -360 L 608.5 -361 L 688 -362 L 801 -365 L 915 -367 L 999.5 -368.5 L 1084 -370 L 1144 -370 L 1251 -370 L 1418 -271 L 1427 -258 L 1437.5 -248 L 1448 -238 L 1458 -227 L 1444 -227 L 1433 -231 L 1403 -235 L 1387.5 -239 L 1372 -243 L 1368 -243 L 1279 -251 L 1237 -254 L 1199 -256 L 1161 -258 L 1123 -258 L 1095 -258 L 1036.5 -256 L 978 -254 L 886 -249 L 793 -244 L 725.5 -242 L 658 -240 L 612 -240 L 520 -240 L 429.5 -246 L 339 -252 L 248 -266 L 182 -276 Z M 171 -576 L 171 -577 L 173 -577 L 174 -577 L 177 -579 L 179 -580 L 175 -586 L 171 -591 L 177 -593 L 224 -610 L 264.5 -623 L 305 -636 L 339 -647.5 L 373 -659 L 400 -669 L 427 -679 L 448 -690 L 528 -732 L 573 -804 L 580 -816 L 587.5 -833.5 L 595 -851 L 603.5 -874.5 L 612 -898 L 623.5 -927 L 635 -956 L 651 -991 L 652 -994 L 655.5 -995.5 L 659 -997 L 663 -997.5 L 667 -998 L 672 -999 L 677 -1000 L 681 -1002 L 693 -1009 L 701 -1013.5 L 709 -1018 L 712 -1019 L 725 -1025 L 733.5 -1027.5 L 742 -1030 L 745 -1032 L 758 -1032 L 763 -1032 L 768 -1031.5 L 773 -1031 L 779 -1029 L 783 -1028 L 787.5 -1027.5 L 792 -1027 L 797 -1026 L 802 -1025 L 806.5 -1023.5 L 811 -1022 L 815 -1018 L 816 -1017 L 815 -1015 L 814 -1013 L 811.5 -1012 L 809 -1011 L 806 -1009.5 L 803 -1008 L 801 -1007 L 764 -981 L 760 -974 L 752 -940 L 745 -916 L 738 -892 L 730 -873 L 728 -867 L 723.5 -858.5 L 719 -850 L 713 -841 L 707 -832 L 701.5 -823.5 L 696 -815 L 692 -809 L 692 -809 L 694 -810 L 696 -810 L 691 -805 L 688 -802 L 688 -802 L 688 -802 L 692 -809 L 688 -807 L 678 -800.5 L 668 -794 L 654 -783.5 L 640 -773 L 624 -760.5 L 608 -748 L 592 -735 L 576 -723 L 563.5 -712.5 L 551 -702 L 540 -694 L 529 -685 L 521.5 -678 L 514 -671 L 510 -667 L 510 -666 L 508 -665 L 508 -665 L 508 -664 L 514 -666 L 518.5 -668.5 L 523 -671 L 527 -673 L 532 -676 L 533 -675 L 533 -675 L 530 -674 L 529 -673 L 525.5 -671 L 522 -669 L 519 -667.5 L 516 -666 L 513 -664.5 L 510 -663 L 509 -663 L 508 -663 L 508 -664 L 496 -658 L 480 -650.5 L 464 -643 L 447 -636.5 L 430 -630 L 413.5 -624.5 L 397 -619 L 384 -616 L 375 -615 L 361.5 -614.5 L 348 -614 L 336 -613.5 L 324 -613 L 318 -612.5 L 312 -612 L 320 -609 L 328 -606 L 336.5 -605 L 345 -604 L 354 -604 L 366 -604 L 378 -605 L 390 -606 L 403 -606 L 406 -606 L 409 -606 L 412 -606 L 415 -605 L 460 -602 L 495 -576 L 514 -562 L 513 -557 L 516 -549 L 502 -549 L 489 -549 L 478 -550 L 467 -551 L 454 -554 L 437 -557 L 414.5 -559.5 L 392 -562 L 365 -566 L 339 -570 L 316 -572 L 293 -574 L 271 -574 L 267 -575 L 263 -575 L 259 -575 L 255 -575 L 241 -575 L 227 -574.5 L 213 -574 L 199 -572 L 196 -571 L 191.5 -569.5 L 187 -568 L 179 -568 L 174 -568 Z" fill="black" fill-opacity="0.25" stroke="black" stroke-width="4"/>
  <rect x="101" y="-393" width="1357" height="166" fill="none" stroke="red" stroke-width="10" /><rect x="171" y="-710" width="389.5" height="161" fill="none" stroke="red" stroke-width="10" /><rect x="486.1" y="-871" width="243.2" height="161" fill="none" stroke="red" stroke-width="10" /><rect x="602.2" y="-1032" width="213.8" height="161" fill="none" stroke="red" stroke-width="10" />
</svg>
