<svg xmlns="http://www.w3.org/2000/svg"
  viewBox="-106.0 -1277.0 1786.4545454545455 1100.0">
  <rect x="-106.0" y="-1277.0" width="1786.4545454545455" height="1100.0" fill="white"/>
  <path d="M 76.0 -393.0 L 115.0 -380.0 L 153.5 -372.5 L 192.0 -365.0 L 234.0 -363.0 L 290.0 -361.0 L 345.0 -360.5 L 400.0 -360.0 L 456.0 -360.0 L 504.0 -360.0 L 583.5 -361.0 L 663.0 -362.0 L 776.0 -365.0 L 890.0 -367.0 L 975.0 -368.0 L 1060.0 -369.0 L 1119.0 -369.0 L 1226.0 -369.0 L 1394.0 -271.0 L 1399.0 -265.0 L 1403.5 -259.0 L 1408.0 -253.0 L 1413.0 -248.0 L 1418.0 -243.0 L 1423.0 -237.5 L 1428.0 -232.0 L 1433.0 -227.0 L 1425.0 -227.0 L 1418.0 -227.0 L 1408.0 -230.0 L 1393.0 -232.0 L 1381.5 -234.5 L 1370.0 -237.0 L 1362.0 -239.0 L 1344.0 -243.0 L 1343.0 -243.0 L 1254.0 -250.0 L 1214.0 -254.0 L 1176.0 -256.0 L 1138.0 -258.0 L 1098.0 -258.0 L 1070.0 -258.0 L 1011.5 -256.0 L 953.0 -254.0 L 861.0 -249.0 L 768.0 -244.0 L 700.5 -242.0 L 633.0 -240.0 L 587.0 -240.0 L 496.0 -240.0 L 405.0 -246.0 L 314.0 -252.0 L 223.0 -266.0 L 157.0 -276.0 L 76.0 -366.0 Z M -48.0 -468.0 L -52.0 -468.0 L -56.0 -475.0 L -56.0 -476.0 L -55.0 -477.0 L -53.0 -477.0 L -50.0 -478.0 L -49.0 -479.0 L -53.0 -485.0 L -57.0 -490.0 L -50.0 -493.0 L -6.0 -510.0 L 32.5 -523.0 L 71.0 -536.0 L 103.0 -547.0 L 138.0 -558.0 L 170.0 -571.5 L 202.0 -585.0 L 230.0 -603.0 L 258.0 -621.0 L 282.0 -645.5 L 306.0 -670.0 L 326.0 -703.0 L 333.0 -715.0 L 340.0 -732.5 L 347.0 -750.0 L 354.0 -774.0 L 370.0 -821.0 L 400.0 -891.0 L 402.0 -897.0 L 412.0 -897.0 L 421.0 -897.0 L 428.0 -902.0 L 433.0 -905.0 L 439.0 -908.5 L 445.0 -912.0 L 452.0 -916.0 L 459.0 -920.0 L 465.5 -923.0 L 472.0 -926.0 L 478.0 -928.0 L 482.0 -929.0 L 484.5 -930.0 L 487.0 -931.0 L 489.0 -931.0 L 493.0 -931.0 L 497.0 -931.0 L 501.0 -931.0 L 505.0 -932.0 L 514.0 -932.0 L 521.0 -929.0 L 528.0 -926.0 L 539.0 -926.0 L 549.0 -925.0 L 556.0 -917.0 L 558.0 -914.0 L 552.0 -912.0 L 549.0 -911.0 L 546.5 -909.5 L 544.0 -908.0 L 542.0 -907.0 L 507.0 -882.0 L 504.0 -874.0 L 499.0 -850.0 L 493.5 -828.5 L 488.0 -807.0 L 481.0 -787.5 L 474.0 -768.0 L 464.0 -749.0 L 454.0 -730.0 L 439.0 -709.0 L 439.0 -709.0 L 441.0 -710.0 L 442.0 -710.0 L 438.0 -705.0 L 435.0 -701.0 L 436.0 -704.0 L 437.0 -705.0 L 437.5 -706.0 L 438.0 -707.0 L 439.0 -709.0 L 438.0 -708.0 L 437.0 -707.0 L 436.0 -706.0 L 434.0 -705.0 L 397.0 -679.0 L 362.5 -651.0 L 328.0 -623.0 L 294.0 -593.0 L 284.0 -584.0 L 277.0 -577.5 L 270.0 -571.0 L 266.0 -567.0 L 265.0 -566.0 L 264.5 -565.0 L 264.0 -564.0 L 264.0 -563.0 L 269.0 -565.0 L 273.5 -567.5 L 278.0 -570.0 L 282.0 -572.0 L 285.0 -574.0 L 286.0 -575.0 L 287.0 -575.0 L 287.0 -575.0 L 287.0 -575.0 L 285.0 -574.0 L 284.0 -573.0 L 282.0 -572.0 L 280.0 -571.0 L 278.0 -569.0 L 264.0 -561.0 L 264.0 -563.0 L 225.0 -542.0 L 185.5 -527.5 L 146.0 -513.0 L 101.0 -513.0 L 96.0 -513.0 L 91.5 -513.0 L 87.0 -513.0 L 83.0 -512.0 L 75.0 -511.0 L 85.0 -508.0 L 100.0 -502.0 L 116.0 -502.0 L 119.0 -502.0 L 122.0 -502.5 L 125.0 -503.0 L 129.0 -503.0 L 137.0 -504.0 L 144.5 -504.5 L 152.0 -505.0 L 160.0 -505.0 L 186.0 -505.0 L 208.0 -498.5 L 230.0 -492.0 L 251.0 -475.0 L 269.0 -461.0 L 269.0 -456.0 L 272.0 -448.0 L 259.0 -449.0 L 235.0 -449.0 L 212.0 -453.0 L 204.0 -454.0 L 195.0 -456.0 L 186.0 -458.0 L 175.0 -459.0 L 164.0 -460.0 L 152.5 -462.0 L 141.0 -464.0 L 128.0 -466.0 L 106.0 -469.0 L 84.0 -471.0 L 62.0 -473.0 L 39.0 -473.0 L 26.0 -474.0 L 15.0 -475.0 L -8.0 -475.0 L -29.0 -472.0 L -34.0 -470.0 L -38.5 -469.0 L -43.0 -468.0 Z M 1025.0 -499.0 L 1021.0 -499.0 L 1018.0 -507.0 L 1018.0 -508.0 L 1020.0 -508.0 L 1021.0 -508.0 L 1024.0 -510.0 L 1025.0 -511.0 L 1021.0 -516.0 L 1017.0 -521.0 L 1024.0 -524.0 L 1068.0 -541.0 L 1106.5 -554.5 L 1145.0 -568.0 L 1177.0 -578.0 L 1212.0 -589.0 L 1244.0 -602.5 L 1276.0 -616.0 L 1304.0 -634.5 L 1332.0 -653.0 L 1356.0 -677.5 L 1380.0 -702.0 L 1399.0 -735.0 L 1406.0 -747.0 L 1413.0 -764.5 L 1420.0 -782.0 L 1428.0 -805.0 L 1444.0 -852.0 L 1474.0 -922.0 L 1476.0 -928.0 L 1485.0 -929.0 L 1494.0 -929.0 L 1502.0 -933.0 L 1506.0 -936.0 L 1512.5 -940.0 L 1519.0 -944.0 L 1526.0 -947.5 L 1533.0 -951.0 L 1539.5 -954.0 L 1546.0 -957.0 L 1552.0 -959.0 L 1560.0 -961.0 L 1562.0 -963.0 L 1566.0 -963.0 L 1570.0 -963.0 L 1574.0 -963.0 L 1579.0 -963.0 L 1589.0 -963.0 L 1596.0 -960.0 L 1603.0 -957.0 L 1612.0 -957.0 L 1622.0 -956.0 L 1629.0 -949.0 L 1633.0 -946.0 L 1626.0 -943.0 L 1623.0 -942.0 L 1620.5 -940.5 L 1618.0 -939.0 L 1616.0 -938.0 L 1581.0 -913.0 L 1578.0 -905.0 L 1574.0 -888.0 L 1570.5 -874.0 L 1567.0 -860.0 L 1563.0 -847.0 L 1559.0 -833.0 L 1555.0 -821.0 L 1551.0 -809.0 L 1546.5 -798.0 L 1542.0 -787.0 L 1536.0 -776.5 L 1530.0 -766.0 L 1522.0 -754.0 L 1520.0 -750.0 L 1517.5 -746.5 L 1515.0 -743.0 L 1513.0 -740.0 L 1515.0 -741.0 L 1516.0 -741.0 L 1517.0 -741.0 L 1513.0 -736.0 L 1509.0 -732.0 L 1509.0 -732.0 L 1510.0 -735.0 L 1511.0 -736.0 L 1511.5 -737.5 L 1512.0 -739.0 L 1513.0 -740.0 L 1512.0 -739.0 L 1510.5 -738.5 L 1509.0 -738.0 L 1508.0 -737.0 L 1471.0 -711.0 L 1436.5 -682.5 L 1402.0 -654.0 L 1368.0 -624.0 L 1367.0 -623.0 L 1362.0 -619.0 L 1357.0 -615.0 L 1351.5 -610.0 L 1346.0 -605.0 L 1342.0 -600.5 L 1338.0 -596.0 L 1338.0 -595.0 L 1343.0 -597.0 L 1347.5 -599.0 L 1352.0 -601.0 L 1356.0 -603.0 L 1359.0 -605.0 L 1360.0 -606.0 L 1361.0 -606.0 L 1361.0 -606.0 L 1361.0 -606.0 L 1359.0 -605.0 L 1358.0 -604.0 L 1356.0 -603.0 L 1354.0 -602.0 L 1352.0 -600.0 L 1338.0 -592.0 L 1338.0 -595.0 L 1326.0 -589.0 L 1311.0 -581.5 L 1296.0 -574.0 L 1280.0 -567.0 L 1264.0 -560.0 L 1248.0 -555.0 L 1232.0 -550.0 L 1220.0 -547.0 L 1209.0 -545.0 L 1197.5 -544.5 L 1186.0 -544.0 L 1174.0 -544.0 L 1169.0 -544.0 L 1164.5 -544.0 L 1160.0 -544.0 L 1157.0 -543.0 L 1150.0 -542.0 L 1159.0 -539.0 L 1168.0 -535.0 L 1176.5 -534.5 L 1185.0 -534.0 L 1194.0 -534.0 L 1196.0 -534.0 L 1198.0 -534.0 L 1200.0 -534.0 L 1203.0 -535.0 L 1210.0 -536.0 L 1217.0 -536.5 L 1224.0 -537.0 L 1230.0 -537.0 L 1256.0 -537.0 L 1280.0 -530.0 L 1304.0 -523.0 L 1325.0 -507.0 L 1343.0 -493.0 L 1343.0 -488.0 L 1346.0 -480.0 L 1333.0 -480.0 L 1310.0 -480.0 L 1287.0 -485.0 L 1279.0 -486.0 L 1269.5 -487.5 L 1260.0 -489.0 L 1249.0 -491.0 L 1238.0 -492.0 L 1226.5 -493.5 L 1215.0 -495.0 L 1202.0 -497.0 L 1180.0 -500.0 L 1158.0 -502.5 L 1136.0 -505.0 L 1113.0 -505.0 L 1100.0 -506.0 L 1089.0 -506.0 L 1067.0 -506.0 L 1044.0 -503.0 L 1039.0 -501.0 L 1034.5 -500.0 L 1030.0 -499.0 Z M 585.0 -783.0 L 580.0 -783.0 L 578.0 -789.0 L 578.0 -792.0 L 584.0 -792.0 L 587.0 -793.0 L 583.0 -800.0 L 580.0 -805.0 L 585.0 -808.0 L 629.0 -824.0 L 668.0 -836.0 L 707.0 -848.0 L 740.0 -857.0 L 774.0 -866.0 L 807.0 -878.5 L 840.0 -891.0 L 869.5 -909.5 L 899.0 -928.0 L 924.5 -951.5 L 950.0 -975.0 L 969.0 -1007.0 L 976.0 -1018.0 L 983.5 -1034.5 L 991.0 -1051.0 L 1000.0 -1074.0 L 1009.0 -1096.0 L 1021.0 -1125.0 L 1033.0 -1154.0 L 1049.0 -1189.0 L 1052.0 -1195.0 L 1060.0 -1196.0 L 1068.0 -1196.0 L 1075.0 -1201.0 L 1086.0 -1208.0 L 1095.0 -1211.0 L 1103.0 -1214.0 L 1107.0 -1218.0 L 1112.0 -1220.0 L 1116.5 -1221.5 L 1121.0 -1223.0 L 1125.0 -1224.0 L 1132.0 -1227.0 L 1138.0 -1227.0 L 1154.0 -1227.0 L 1169.0 -1222.0 L 1174.0 -1220.0 L 1183.0 -1220.0 L 1188.0 -1220.0 L 1193.0 -1220.0 L 1197.0 -1218.5 L 1201.0 -1217.0 L 1204.0 -1213.0 L 1207.0 -1209.0 L 1200.0 -1206.0 L 1196.0 -1205.0 L 1188.0 -1200.5 L 1180.0 -1196.0 L 1172.5 -1190.0 L 1165.0 -1184.0 L 1158.5 -1178.5 L 1152.0 -1173.0 L 1151.0 -1169.0 L 1146.0 -1153.0 L 1142.0 -1139.0 L 1138.0 -1125.0 L 1134.0 -1112.0 L 1131.0 -1098.0 L 1126.5 -1086.0 L 1122.0 -1074.0 L 1116.0 -1063.5 L 1110.0 -1053.0 L 1103.5 -1042.5 L 1097.0 -1032.0 L 1089.0 -1020.0 L 1085.0 -1014.0 L 1082.0 -1008.0 L 1085.0 -1008.0 L 1080.0 -1003.0 L 1078.0 -1001.0 L 1077.0 -1000.0 L 1077.0 -1000.0 L 1076.5 -999.5 L 1076.0 -999.0 L 1076.0 -999.0 L 1076.0 -999.0 L 1077.0 -1002.0 L 1078.0 -1003.0 L 1079.0 -1004.5 L 1080.0 -1006.0 L 1082.0 -1008.0 L 1081.0 -1008.0 L 1079.0 -1007.0 L 1077.0 -1006.0 L 1073.0 -1004.0 L 1049.0 -989.0 L 1026.0 -973.0 L 1003.0 -957.0 L 981.0 -939.0 L 967.0 -928.0 L 954.5 -917.5 L 942.0 -907.0 L 932.0 -899.0 L 921.0 -891.0 L 914.0 -884.0 L 907.0 -877.0 L 903.0 -872.0 L 903.0 -872.0 L 902.5 -871.0 L 902.0 -870.0 L 902.0 -870.0 L 907.0 -872.0 L 911.5 -873.5 L 916.0 -875.0 L 919.0 -876.0 L 923.0 -877.0 L 924.0 -878.0 L 926.0 -878.0 L 916.0 -872.0 L 907.0 -867.0 L 902.0 -867.0 L 900.0 -867.0 L 902.0 -870.0 L 883.0 -862.0 L 864.5 -854.5 L 846.0 -847.0 L 827.0 -840.0 L 798.0 -829.0 L 782.0 -825.0 L 775.0 -824.0 L 761.0 -824.0 L 736.0 -824.0 L 731.0 -824.0 L 726.5 -824.0 L 722.0 -824.0 L 719.0 -823.0 L 715.0 -823.0 L 721.0 -819.0 L 728.0 -815.0 L 736.0 -813.5 L 744.0 -812.0 L 752.0 -812.0 L 755.0 -812.0 L 758.0 -812.0 L 761.0 -812.0 L 764.0 -813.0 L 776.0 -814.0 L 787.0 -814.0 L 815.0 -814.0 L 839.5 -806.5 L 864.0 -799.0 L 886.0 -782.0 L 902.0 -769.0 L 902.0 -760.0 L 903.0 -754.0 L 892.0 -753.0 L 845.0 -758.0 L 762.0 -774.0 L 747.0 -778.0 L 729.0 -781.0 L 711.0 -784.0 L 693.0 -785.5 L 675.0 -787.0 L 657.0 -788.0 L 639.0 -789.0 L 624.0 -789.0 L 619.0 -789.0 L 614.0 -788.5 L 609.0 -788.0 L 605.0 -788.0 L 601.0 -785.0 L 595.0 -784.0 L 589.0 -783.0 Z M 648.0 -714.0 L 650.0 -717.0 L 665.0 -718.0 L 691.0 -718.0 L 705.0 -718.0 L 719.0 -714.0 L 764.0 -706.0 L 829.0 -694.0 L 847.0 -598.0 L 858.0 -537.0 L 870.0 -524.0 L 878.0 -514.0 L 888.0 -510.0 L 898.0 -506.0 L 911.0 -505.0 L 914.0 -505.0 L 916.0 -503.0 L 914.0 -495.0 L 906.5 -490.5 L 899.0 -486.0 L 890.5 -483.0 L 882.0 -480.0 L 873.0 -479.0 L 864.0 -478.0 L 857.0 -478.0 L 835.0 -478.0 L 811.5 -485.0 L 788.0 -492.0 L 769.0 -500.0 L 717.0 -521.0 L 697.0 -645.0 L 689.0 -698.0 L 666.0 -699.0 L 652.0 -699.0 L 643.0 -699.0 L 642.0 -700.0 L 640.0 -702.0 Z" fill="black" fill-opacity="0.25" stroke="black" stroke-width="4.0"/>
  <rect x="76.0" y="-393.0" width="1357.0" height="166.0" fill="none" stroke="red" stroke-width="10.0" /><rect x="640.0" y="-718.0" width="276.0" height="240.0" fill="none" stroke="red" stroke-width="10.0" /><rect x="-57.0" y="-609.9" width="370.2" height="160.99999999999997" fill="none" stroke="red" stroke-width="10.0" /><rect x="240.79999999999998" y="-771.0" width="234.30000000000004" height="161.10000000000002" fill="none" stroke="red" stroke-width="10.0" /><rect x="353.1" y="-932.0" width="204.90000000000003" height="161.00000000000003" fill="none" stroke="red" stroke-width="10.0" /><rect x="1016.9999999999999" y="-641.0" width="370.30000000000007" height="161.00000000000003" fill="none" stroke="red" stroke-width="10.0" /><rect x="1313.8000000000002" y="-802.0" width="234.29999999999995" height="161.00000000000003" fill="none" stroke="red" stroke-width="10.0" /><rect x="1427.0" y="-963.0" width="205.99999999999997" height="160.99999999999991" fill="none" stroke="red" stroke-width="10.0" /><rect x="578.0" y="-911.0" width="368.8" height="158.00000000000003" fill="none" stroke="red" stroke-width="10.0" /><rect x="871.9" y="-1069.0" width="247.2" height="157.99999999999991" fill="none" stroke="red" stroke-width="10.0" /><rect x="998.0" y="-1227.0" width="209.00000000000009" height="158.00000000000014" fill="none" stroke="red" stroke-width="10.0" />
</svg>
