<svg xmlns="http://www.w3.org/2000/svg"
  viewBox="-1.0 -941.0 1940.0 767.0">
  <rect x="-1.0" y="-941.0" width="1940.0" height="767.0" fill="white"/>
  <path d="M 352.0 -263.0 L 269.0 -273.0 L 166.0 -363.0 L 166.0 -390.0 L 212.0 -377.0 L 261.5 -369.5 L 311.0 -362.0 L 366.0 -360.0 L 422.0 -359.0 L 490.5 -358.0 L 559.0 -357.0 L 648.0 -357.0 L 769.0 -357.0 L 1056.0 -362.0 L 1342.0 -367.0 L 1490.0 -367.0 L 1627.0 -367.0 L 1839.0 -268.0 L 1851.0 -255.0 L 1864.0 -245.0 L 1877.0 -235.0 L 1889.0 -224.0 L 1887.0 -224.0 L 1879.0 -224.0 L 1871.0 -224.0 L 1857.0 -227.0 L 1819.0 -231.0 L 1799.5 -235.5 L 1780.0 -240.0 L 1776.0 -240.0 L 1663.0 -247.0 L 1611.0 -250.0 L 1561.5 -252.5 L 1512.0 -255.0 L 1464.0 -255.0 L 1395.0 -255.0 L 1163.0 -246.0 L 930.0 -237.0 L 815.0 -237.0 L 755.0 -237.0 L 698.0 -238.5 L 641.0 -240.0 L 583.0 -243.0 L 525.0 -246.0 L 467.5 -251.0 L 410.0 -256.0 Z M 1214.0 -677.0 L 1216.0 -680.0 L 1236.0 -680.0 L 1247.0 -680.0 L 1259.5 -680.0 L 1272.0 -680.0 L 1290.0 -677.0 L 1336.0 -669.0 L 1405.0 -656.0 L 1424.0 -561.0 L 1436.0 -500.0 L 1447.0 -486.0 L 1458.0 -473.0 L 1477.0 -469.0 L 1482.0 -468.0 L 1491.0 -467.0 L 1494.0 -467.0 L 1496.0 -466.0 L 1496.0 -463.0 L 1490.0 -456.0 L 1475.0 -441.0 L 1439.0 -441.0 L 1418.0 -441.0 L 1394.5 -446.5 L 1371.0 -452.0 L 1341.0 -462.0 L 1286.0 -482.0 L 1266.0 -608.0 L 1257.0 -661.0 L 1233.0 -661.0 L 1219.0 -661.0 L 1210.0 -661.0 L 1208.0 -663.0 L 1205.0 -665.0 Z M 1446.0 -678.0 L 1446.0 -681.0 L 1463.0 -681.0 L 1473.0 -681.0 L 1484.5 -681.0 L 1496.0 -681.0 L 1512.0 -678.0 L 1528.0 -675.0 L 1538.5 -673.0 L 1549.0 -671.0 L 1555.0 -670.0 L 1625.0 -656.0 L 1643.0 -561.0 L 1654.0 -503.0 L 1668.0 -488.0 L 1677.0 -472.0 L 1697.0 -470.0 L 1702.0 -469.0 L 1704.5 -468.0 L 1707.0 -467.0 L 1710.0 -467.0 L 1715.0 -467.0 L 1715.0 -463.0 L 1710.0 -458.0 L 1694.0 -442.0 L 1660.0 -442.0 L 1622.0 -442.0 L 1562.0 -464.0 L 1508.0 -485.0 L 1486.0 -613.0 L 1477.0 -667.0 L 1460.0 -664.0 L 1446.0 -661.0 Z M 767.0 -661.0 L 761.0 -649.0 L 754.5 -630.0 L 748.0 -611.0 L 742.0 -586.0 L 879.0 -580.0 L 1110.0 -571.0 L 1156.0 -525.0 L 1014.0 -525.0 L 907.5 -525.0 L 801.0 -525.0 L 721.0 -526.0 L 704.0 -488.0 L 676.0 -459.0 L 665.0 -445.0 L 662.0 -436.0 L 654.0 -415.0 L 634.5 -421.5 L 615.0 -428.0 L 601.0 -428.0 L 578.0 -428.0 L 569.0 -431.0 L 555.0 -437.0 L 536.0 -445.0 L 561.0 -481.0 L 576.0 -531.0 L 563.0 -531.0 L 363.0 -540.0 L 265.0 -589.0 L 181.0 -628.0 L 79.0 -753.0 L 71.0 -767.0 L 67.0 -793.0 L 54.0 -867.0 L 49.0 -876.0 L 81.0 -880.0 L 118.0 -886.0 L 156.0 -891.0 L 171.0 -891.0 L 214.0 -891.0 L 243.0 -872.0 L 250.0 -867.0 L 251.0 -847.0 L 248.0 -801.0 L 248.0 -787.0 L 252.0 -781.0 L 344.0 -650.0 L 556.0 -608.0 L 564.0 -605.0 L 574.0 -604.0 L 584.0 -603.0 L 596.0 -601.0 L 601.0 -617.0 L 606.0 -629.5 L 611.0 -642.0 L 617.0 -653.0 L 625.0 -670.0 L 654.0 -670.0 L 715.0 -664.0 L 728.0 -663.0 L 741.0 -662.0 L 754.0 -661.0 Z" fill="black" fill-opacity="0.25" stroke="black" stroke-width="4.0"/>
  <rect x="166.0" y="-390.0" width="1723.0" height="166.0" fill="none" stroke="red" stroke-width="10.0" /><rect x="1205.0" y="-680.0" width="290.99999999999994" height="239.00000000000006" fill="none" stroke="red" stroke-width="10.0" /><rect x="1446.0" y="-681.0" width="269.0000000000001" height="239.00000000000006" fill="none" stroke="red" stroke-width="10.0" /><rect x="49.0" y="-891.0" width="1107.0" height="476.00000000000006" fill="none" stroke="red" stroke-width="10.0" />
</svg>
