<svg xmlns="http://www.w3.org/2000/svg"
  viewBox="22 -438 1456 493">
  <rect x="22" y="-438" width="1456" height="493" fill="white"/>
  <path d="M 219 -262 L 154 -272 L 72 -362 L 72 -388 L 108 -376 L 147 -368 L 186 -360 L 230 -359 L 274 -357 L 327.5 -356.5 L 381 -356 L 452 -356 L 547 -356 L 772 -361 L 997 -365 L 1114 -365 L 1221 -365 L 1389 -267 L 1398 -254 L 1408.5 -244 L 1419 -234 L 1428 -223 L 1427 -223 L 1420.5 -223 L 1414 -223 L 1403 -226 L 1373 -231 L 1357.5 -235 L 1342 -239 L 1339 -239 L 1250 -246 L 1209 -249 L 1170 -251.5 L 1131 -254 L 1094 -254 L 1039 -254 L 857 -245 L 674 -236 L 583 -236 L 536 -236 L 490.5 -237.5 L 445 -239 L 400 -241 L 355 -244 L 309.5 -249.5 L 264 -255 Z M 944 -206 L 946 -210 L 966 -210 L 982 -210 L 1013 -206 L 1029 -204 L 1038.5 -203 L 1048 -202 L 1055 -201 L 1118 -191 L 1134 -104 L 1144 -51 L 1155 -37 L 1163 -23 L 1183 -21 L 1188 -20 L 1195 -20 L 1198 -20 L 1200 -18 L 1200 -13 L 1195 -9 L 1181 5 L 1149 5 L 1130 5 L 1108 0 L 1086 -5 L 1060 -15 L 1010 -34 L 991 -145 L 985 -193 L 961 -193 L 948 -193 L 940 -193 L 939 -195 L 938 -196 Z M 1166 -207 L 1166 -212 L 1183 -212 L 1197 -212 L 1225 -207 L 1239 -205 L 1248.5 -203.5 L 1258 -202 L 1264 -201 L 1328 -191 L 1345 -104 L 1355 -51 L 1366 -37 L 1373 -27 L 1392 -23 L 1409 -20 L 1409 -18 L 1409 -15 L 1408.5 -16 L 1408 -17 L 1405 -10 L 1398 4 L 1359 4 L 1340 4 L 1318.5 -1.5 L 1297 -7 L 1271 -17 L 1221 -36 L 1202 -150 L 1194 -200 L 1180 -197 L 1166 -193 Z" fill="black" fill-opacity="0.25" stroke="black" stroke-width="4"/>
  <rect x="72" y="-388" width="1356" height="165" fill="none" stroke="red" stroke-width="10" /><rect x="938" y="-210" width="262" height="215" fill="none" stroke="red" stroke-width="10" /><rect x="1166" y="-212" width="243" height="216" fill="none" stroke="red" stroke-width="10" />
</svg>
