<svg xmlns="http://www.w3.org/2000/svg"
  viewBox="26.0 -716.0 1456.0 538.0">
  <rect x="26.0" y="-716.0" width="1456.0" height="538.0" fill="white"/>
  <path d="M 351.0 -647.0 L 364.0 -650.0 L 375.0 -655.0 L 386.0 -660.0 L 398.0 -663.0 L 420.0 -664.0 L 454.5 -665.0 L 489.0 -666.0 L 536.0 -666.0 L 592.0 -666.0 L 666.0 -652.0 L 687.0 -648.0 L 708.0 -641.5 L 729.0 -635.0 L 750.0 -630.0 L 831.0 -610.0 L 884.0 -572.0 L 937.0 -534.0 L 937.0 -491.0 L 937.0 -469.0 L 923.0 -450.0 L 918.0 -444.0 L 895.0 -444.0 L 878.0 -444.0 L 854.0 -447.0 L 830.0 -450.0 L 796.0 -457.0 L 785.0 -459.0 L 770.5 -462.0 L 756.0 -465.0 L 737.0 -469.0 L 757.0 -479.0 L 771.0 -497.0 L 786.0 -516.0 L 781.0 -529.0 L 771.0 -552.0 L 733.0 -572.5 L 695.0 -593.0 L 629.0 -605.0 L 559.0 -618.0 L 490.0 -627.0 L 421.0 -636.0 Z M 223.0 -267.0 L 158.0 -277.0 L 76.0 -367.0 L 76.0 -394.0 L 112.0 -381.0 L 151.0 -373.0 L 190.0 -365.0 L 233.0 -364.0 L 277.0 -363.0 L 331.0 -362.0 L 385.0 -361.0 L 456.0 -361.0 L 551.0 -361.0 L 776.0 -365.0 L 1001.0 -370.0 L 1118.0 -370.0 L 1225.0 -370.0 L 1393.0 -272.0 L 1402.0 -259.0 L 1412.5 -249.0 L 1423.0 -239.0 L 1432.0 -228.0 L 1431.0 -228.0 L 1424.5 -228.0 L 1418.0 -228.0 L 1407.0 -231.0 L 1377.0 -235.0 L 1361.5 -239.0 L 1346.0 -243.0 L 1343.0 -243.0 L 1254.0 -251.0 L 1213.0 -254.0 L 1174.0 -256.5 L 1135.0 -259.0 L 1098.0 -259.0 L 1043.0 -259.0 L 860.0 -250.0 L 677.0 -241.0 L 587.0 -240.0 L 540.0 -240.0 L 494.5 -241.5 L 449.0 -243.0 L 404.0 -247.0 L 359.0 -250.0 L 313.5 -255.0 L 268.0 -260.0 Z" fill="black" fill-opacity="0.25" stroke="black" stroke-width="4.0"/>
  <rect x="351.0" y="-666.0" width="586.0000000000001" height="222.00000000000003" fill="none" stroke="red" stroke-width="10.0" /><rect x="76.0" y="-394.0" width="1355.9999999999998" height="166.0" fill="none" stroke="red" stroke-width="10.0" />
</svg>
