<svg xmlns="http://www.w3.org/2000/svg"
  viewBox="30 -745 1592 568">
  <rect x="30" y="-745" width="1592" height="568" fill="white"/>
  <path d="M 515 -457 L 503 -443 L 480 -437 L 457 -430 L 428 -430 L 406 -430 L 387 -432.5 L 368 -435 L 345 -438 L 324 -441 L 310 -446 L 296 -451 L 289 -454 L 243 -473 L 211 -489 L 209 -493 L 207 -497 L 212 -499 L 213 -500 L 225 -501 L 233 -501 L 241.5 -501 L 250 -501 L 262 -498 L 328 -488 L 340 -489 L 359 -489 L 367 -496 L 373 -502 L 373 -514 L 373 -531 L 346 -576 L 320 -621 L 320 -645 L 320 -667 L 335 -680 L 341 -685 L 370 -692 L 383 -695 L 397.5 -695 L 412 -695 L 428 -695 L 445 -695 L 462.5 -695 L 480 -695 L 500 -692 L 536 -687 L 537 -685 L 546 -668 L 546 -659 L 546 -646 L 527 -645 L 517 -645 L 500 -649 L 480 -654 L 473 -654 L 467 -654 L 467 -649 L 467 -631 L 500 -579 L 532 -528 L 532 -499 L 533 -478 Z M 241 -266 L 169 -276 L 80 -366 L 80 -393 L 120 -380 L 162.5 -372.5 L 205 -365 L 253 -363 L 301 -362 L 360.5 -361 L 420 -360 L 498 -360 L 602 -360 L 850 -365 L 1098 -370 L 1227 -369 L 1345 -369 L 1529 -271 L 1539 -258 L 1550.5 -248 L 1562 -238 L 1572 -227 L 1571 -227 L 1563.5 -227 L 1556 -227 L 1544 -230 L 1511 -234 L 1494 -238.5 L 1477 -243 L 1474 -243 L 1375 -250 L 1331 -253 L 1288 -255.5 L 1245 -258 L 1204 -258 L 1144 -258 L 943 -249 L 741 -240 L 642 -240 L 590 -240 L 540.5 -241.5 L 491 -243 L 440 -246 L 390 -249 L 340.5 -254 L 291 -259 Z M 782 -675 L 784 -678 L 804 -678 L 815 -678 L 827.5 -678 L 840 -678 L 857 -675 L 904 -667 L 973 -654 L 991 -559 L 1003 -498 L 1015 -484 L 1026 -471 L 1044 -467 L 1049 -466 L 1059 -465 L 1062 -465 L 1063 -464 L 1063 -461 L 1057 -454 L 1042 -439 L 1007 -439 L 986 -439 L 962 -444.5 L 938 -450 L 909 -460 L 854 -480 L 833 -606 L 824 -659 L 801 -659 L 787 -659 L 778 -659 L 776 -660 L 773 -663 Z M 1013 -676 L 1013 -679 L 1030 -679 L 1040 -679 L 1051.5 -679 L 1063 -679 L 1079 -676 L 1095 -673 L 1106 -671 L 1117 -669 L 1123 -668 L 1193 -654 L 1210 -559 L 1221 -501 L 1235 -486 L 1244 -470 L 1265 -468 L 1270 -467 L 1272 -466 L 1274 -465 L 1277 -465 L 1282 -465 L 1282 -461 L 1277 -456 L 1261 -440 L 1228 -440 L 1190 -440 L 1129 -462 L 1075 -483 L 1054 -611 L 1045 -666 L 1027 -662 L 1013 -659 Z" fill="black" fill-opacity="0.25" stroke="black" stroke-width="4"/>
  <rect x="207" y="-695" width="339" height="265" fill="none" stroke="red" stroke-width="10" /><rect x="80" y="-393" width="1492" height="166" fill="none" stroke="red" stroke-width="10" /><rect x="773" y="-678" width="290" height="239" fill="none" stroke="red" stroke-width="10" /><rect x="1013" y="-679" width="269" height="239" fill="none" stroke="red" stroke-width="10" />
</svg>
