<svg xmlns="http://www.w3.org/2000/svg"
  viewBox="34.0 -1088.0 1595.4 909.0">
  <rect x="34.0" y="-1088.0" width="1595.4" height="909.0" fill="white"/>
  <path d="M 84.0 -395.0 L 121.0 -382.0 L 159.5 -374.5 L 198.0 -367.0 L 242.0 -366.0 L 286.0 -365.0 L 340.0 -363.5 L 394.0 -362.0 L 464.0 -362.0 L 512.0 -362.0 L 591.5 -363.5 L 671.0 -365.0 L 785.0 -367.0 L 899.0 -369.0 L 983.5 -370.5 L 1068.0 -372.0 L 1127.0 -372.0 L 1234.0 -372.0 L 1402.0 -273.0 L 1411.0 -260.0 L 1421.5 -250.5 L 1432.0 -241.0 L 1441.0 -229.0 L 1427.0 -229.0 L 1416.0 -233.0 L 1386.0 -237.0 L 1370.5 -241.0 L 1355.0 -245.0 L 1352.0 -245.0 L 1263.0 -253.0 L 1221.0 -256.0 L 1183.0 -258.5 L 1145.0 -261.0 L 1106.0 -261.0 L 1078.0 -261.0 L 1019.5 -258.5 L 961.0 -256.0 L 869.0 -251.0 L 776.0 -246.0 L 709.0 -244.0 L 642.0 -242.0 L 596.0 -242.0 L 504.0 -242.0 L 413.5 -248.0 L 323.0 -254.0 L 231.0 -268.0 L 165.0 -278.0 L 84.0 -369.0 Z M 84.0 -582.0 L 84.0 -583.0 L 86.0 -583.0 L 87.0 -583.0 L 90.0 -585.0 L 92.0 -586.0 L 88.0 -592.0 L 84.0 -597.0 L 90.0 -599.0 L 136.0 -616.0 L 176.5 -629.5 L 217.0 -643.0 L 251.5 -654.0 L 286.0 -665.0 L 313.0 -675.0 L 340.0 -685.0 L 361.0 -696.0 L 441.0 -738.0 L 486.0 -810.0 L 493.0 -822.0 L 500.5 -839.5 L 508.0 -857.0 L 516.5 -880.5 L 525.0 -904.0 L 536.5 -933.0 L 548.0 -962.0 L 564.0 -997.0 L 565.0 -1000.0 L 568.5 -1001.5 L 572.0 -1003.0 L 576.5 -1003.5 L 581.0 -1004.0 L 585.5 -1005.0 L 590.0 -1006.0 L 594.0 -1008.0 L 606.0 -1015.0 L 614.0 -1019.5 L 622.0 -1024.0 L 625.0 -1025.0 L 638.0 -1031.0 L 646.5 -1033.5 L 655.0 -1036.0 L 658.0 -1038.0 L 671.0 -1038.0 L 676.0 -1038.0 L 681.5 -1037.5 L 687.0 -1037.0 L 692.0 -1035.0 L 696.0 -1034.0 L 700.5 -1033.5 L 705.0 -1033.0 L 710.0 -1032.0 L 715.0 -1031.0 L 719.5 -1029.5 L 724.0 -1028.0 L 728.0 -1024.0 L 729.0 -1023.0 L 728.0 -1021.0 L 727.0 -1019.0 L 724.5 -1018.0 L 722.0 -1017.0 L 719.0 -1016.0 L 716.0 -1015.0 L 714.0 -1013.0 L 676.0 -987.0 L 673.0 -980.0 L 667.0 -955.0 L 662.0 -934.0 L 657.0 -913.0 L 649.5 -893.5 L 642.0 -874.0 L 631.5 -855.0 L 621.0 -836.0 L 605.0 -815.0 L 606.0 -815.0 L 606.0 -816.0 L 607.0 -816.0 L 607.0 -816.0 L 607.0 -816.0 L 609.0 -816.0 L 604.0 -811.0 L 601.0 -807.0 L 601.0 -807.0 L 601.0 -808.0 L 601.0 -809.0 L 602.0 -809.0 L 603.0 -810.0 L 603.5 -811.5 L 604.0 -813.0 L 605.0 -815.0 L 601.0 -813.0 L 591.0 -806.5 L 581.0 -800.0 L 567.0 -789.5 L 553.0 -779.0 L 537.0 -766.5 L 521.0 -754.0 L 505.0 -741.0 L 489.0 -729.0 L 476.5 -718.5 L 464.0 -708.0 L 453.0 -700.0 L 442.0 -691.0 L 434.5 -684.0 L 427.0 -677.0 L 423.0 -673.0 L 423.0 -672.0 L 421.0 -671.0 L 421.0 -671.0 L 421.0 -670.0 L 427.0 -672.0 L 431.5 -674.5 L 436.0 -677.0 L 440.0 -679.0 L 445.0 -682.0 L 446.0 -681.0 L 446.0 -681.0 L 443.0 -680.0 L 442.0 -679.0 L 439.0 -677.0 L 436.0 -675.0 L 432.5 -673.5 L 429.0 -672.0 L 426.0 -670.5 L 423.0 -669.0 L 422.0 -669.0 L 421.0 -669.0 L 421.0 -670.0 L 409.0 -664.0 L 393.0 -656.5 L 377.0 -649.0 L 360.0 -642.5 L 343.0 -636.0 L 326.5 -630.5 L 310.0 -625.0 L 297.0 -622.0 L 288.0 -621.0 L 274.5 -620.5 L 261.0 -620.0 L 249.0 -619.5 L 237.0 -619.0 L 231.5 -618.5 L 226.0 -618.0 L 233.0 -615.0 L 241.0 -612.0 L 249.5 -611.0 L 258.0 -610.0 L 267.0 -610.0 L 279.0 -610.0 L 291.0 -611.0 L 303.0 -612.0 L 316.0 -612.0 L 319.0 -612.0 L 322.0 -612.0 L 325.0 -612.0 L 328.0 -611.0 L 373.0 -608.0 L 408.0 -582.0 L 427.0 -568.0 L 426.0 -563.0 L 429.0 -555.0 L 416.0 -555.0 L 403.0 -555.0 L 391.5 -556.0 L 380.0 -557.0 L 367.0 -560.0 L 350.0 -563.0 L 327.5 -565.5 L 305.0 -568.0 L 278.0 -572.0 L 252.0 -576.0 L 229.0 -578.0 L 206.0 -580.0 L 184.0 -580.0 L 180.0 -581.0 L 176.0 -581.0 L 172.0 -581.0 L 168.0 -581.0 L 154.0 -581.0 L 140.0 -580.5 L 126.0 -580.0 L 112.0 -578.0 L 109.0 -577.0 L 104.5 -575.5 L 100.0 -574.0 L 92.0 -574.0 L 87.0 -574.0 Z M 510.0 -582.0 L 510.0 -583.0 L 511.0 -583.0 L 512.0 -583.0 L 516.0 -585.0 L 518.0 -586.0 L 513.0 -592.0 L 509.0 -597.0 L 516.0 -599.0 L 562.0 -616.0 L 602.5 -629.5 L 643.0 -643.0 L 677.0 -654.0 L 711.0 -665.0 L 738.5 -675.0 L 766.0 -685.0 L 786.0 -696.0 L 866.0 -737.0 L 911.0 -810.0 L 918.0 -822.0 L 925.5 -839.5 L 933.0 -857.0 L 942.0 -880.5 L 951.0 -904.0 L 962.5 -933.0 L 974.0 -962.0 L 989.0 -997.0 L 990.0 -1000.0 L 994.0 -1001.5 L 998.0 -1003.0 L 1002.0 -1003.5 L 1006.0 -1004.0 L 1010.5 -1005.0 L 1015.0 -1006.0 L 1019.0 -1008.0 L 1031.0 -1015.0 L 1039.0 -1019.5 L 1047.0 -1024.0 L 1050.0 -1025.0 L 1063.0 -1031.0 L 1071.5 -1033.5 L 1080.0 -1036.0 L 1083.0 -1038.0 L 1096.0 -1038.0 L 1101.0 -1038.0 L 1106.5 -1037.5 L 1112.0 -1037.0 L 1117.0 -1035.0 L 1121.0 -1034.0 L 1125.5 -1033.5 L 1130.0 -1033.0 L 1135.0 -1032.0 L 1140.0 -1031.0 L 1144.5 -1029.5 L 1149.0 -1028.0 L 1153.0 -1024.0 L 1154.0 -1023.0 L 1153.0 -1021.0 L 1152.0 -1019.0 L 1149.5 -1018.0 L 1147.0 -1017.0 L 1144.0 -1016.0 L 1141.0 -1015.0 L 1139.0 -1013.0 L 1101.0 -987.0 L 1099.0 -980.0 L 1091.0 -946.0 L 1083.5 -922.0 L 1076.0 -898.0 L 1069.0 -879.0 L 1067.0 -873.0 L 1062.0 -864.5 L 1057.0 -856.0 L 1051.0 -847.0 L 1045.0 -838.0 L 1039.5 -829.5 L 1034.0 -821.0 L 1030.0 -815.0 L 1031.0 -815.0 L 1031.0 -816.0 L 1032.0 -816.0 L 1032.0 -816.0 L 1032.0 -816.0 L 1034.0 -816.0 L 1030.0 -811.0 L 1027.0 -808.0 L 1026.0 -808.0 L 1026.0 -808.0 L 1030.0 -815.0 L 1026.0 -813.0 L 1016.0 -806.5 L 1006.0 -800.0 L 992.5 -789.5 L 979.0 -779.0 L 962.5 -766.5 L 946.0 -754.0 L 930.0 -741.0 L 914.0 -729.0 L 901.5 -718.5 L 889.0 -708.0 L 878.0 -700.0 L 867.0 -691.0 L 860.0 -684.0 L 853.0 -677.0 L 849.0 -673.0 L 849.0 -672.0 L 847.0 -671.0 L 847.0 -671.0 L 846.0 -670.0 L 852.0 -672.0 L 856.5 -674.5 L 861.0 -677.0 L 865.0 -679.0 L 870.0 -682.0 L 871.0 -681.0 L 871.0 -681.0 L 869.0 -680.0 L 868.0 -679.0 L 864.5 -677.0 L 861.0 -675.0 L 857.5 -673.5 L 854.0 -672.0 L 851.5 -670.5 L 849.0 -669.0 L 847.0 -669.0 L 846.0 -669.0 L 846.0 -670.0 L 834.0 -664.0 L 818.0 -656.5 L 802.0 -649.0 L 785.5 -642.5 L 769.0 -636.0 L 752.0 -630.5 L 735.0 -625.0 L 722.0 -622.0 L 713.0 -621.0 L 699.5 -620.5 L 686.0 -620.0 L 674.5 -619.5 L 663.0 -619.0 L 657.0 -618.5 L 651.0 -618.0 L 658.0 -615.0 L 666.0 -612.0 L 675.0 -611.0 L 684.0 -610.0 L 692.0 -610.0 L 704.0 -610.0 L 716.5 -611.0 L 729.0 -612.0 L 741.0 -612.0 L 744.0 -612.0 L 747.0 -612.0 L 750.0 -612.0 L 753.0 -611.0 L 798.0 -608.0 L 833.0 -582.0 L 852.0 -568.0 L 852.0 -563.0 L 855.0 -555.0 L 841.0 -555.0 L 828.0 -555.0 L 816.5 -556.0 L 805.0 -557.0 L 792.0 -560.0 L 775.0 -563.0 L 752.5 -565.5 L 730.0 -568.0 L 703.0 -572.0 L 677.0 -576.0 L 654.0 -578.0 L 631.0 -580.0 L 609.0 -580.0 L 605.0 -581.0 L 601.0 -581.0 L 597.0 -581.0 L 593.0 -581.0 L 579.0 -581.0 L 565.5 -580.5 L 552.0 -580.0 L 538.0 -578.0 L 535.0 -577.0 L 530.0 -575.5 L 525.0 -574.0 L 518.0 -574.0 L 513.0 -574.0 Z M 943.0 -574.0 L 938.0 -574.0 L 935.0 -582.0 L 935.0 -583.0 L 937.0 -583.0 L 938.0 -583.0 L 941.0 -585.0 L 943.0 -586.0 L 938.0 -592.0 L 934.0 -597.0 L 941.0 -599.0 L 987.0 -616.0 L 1027.5 -629.5 L 1068.0 -643.0 L 1102.0 -654.0 L 1136.0 -665.0 L 1163.5 -675.0 L 1191.0 -685.0 L 1211.0 -696.0 L 1291.0 -736.0 L 1336.0 -810.0 L 1343.0 -822.0 L 1350.5 -839.5 L 1358.0 -857.0 L 1367.0 -880.5 L 1376.0 -904.0 L 1387.5 -933.0 L 1399.0 -962.0 L 1415.0 -997.0 L 1416.0 -1001.0 L 1419.0 -1002.0 L 1422.0 -1003.0 L 1426.5 -1003.5 L 1431.0 -1004.0 L 1435.5 -1004.5 L 1440.0 -1005.0 L 1444.0 -1008.0 L 1456.0 -1015.0 L 1464.5 -1019.5 L 1473.0 -1024.0 L 1476.0 -1025.0 L 1489.0 -1031.0 L 1497.0 -1033.5 L 1505.0 -1036.0 L 1508.0 -1038.0 L 1521.0 -1038.0 L 1526.0 -1038.0 L 1531.5 -1037.5 L 1537.0 -1037.0 L 1542.0 -1035.0 L 1546.0 -1034.0 L 1551.0 -1033.5 L 1556.0 -1033.0 L 1560.5 -1032.0 L 1565.0 -1031.0 L 1570.0 -1029.5 L 1575.0 -1028.0 L 1579.0 -1024.0 L 1580.0 -1023.0 L 1578.5 -1021.0 L 1577.0 -1019.0 L 1574.5 -1017.5 L 1572.0 -1016.0 L 1569.0 -1015.0 L 1566.0 -1014.0 L 1564.0 -1013.0 L 1526.0 -987.0 L 1524.0 -980.0 L 1516.0 -946.0 L 1508.5 -922.0 L 1501.0 -898.0 L 1494.0 -879.0 L 1492.0 -873.0 L 1487.5 -864.5 L 1483.0 -856.0 L 1477.0 -847.0 L 1471.0 -838.0 L 1465.0 -829.5 L 1459.0 -821.0 L 1456.0 -815.0 L 1456.0 -815.0 L 1458.0 -816.0 L 1460.0 -816.0 L 1455.0 -811.0 L 1451.0 -807.0 L 1451.0 -807.0 L 1456.0 -815.0 L 1452.0 -813.0 L 1441.5 -806.5 L 1431.0 -800.0 L 1417.0 -789.5 L 1403.0 -779.0 L 1387.5 -766.5 L 1372.0 -754.0 L 1355.0 -741.0 L 1339.0 -729.0 L 1326.5 -718.5 L 1314.0 -708.0 L 1304.0 -700.0 L 1293.0 -691.0 L 1285.5 -684.0 L 1278.0 -677.0 L 1274.0 -673.0 L 1274.0 -672.0 L 1272.0 -671.0 L 1272.0 -671.0 L 1271.0 -670.0 L 1277.0 -672.0 L 1282.0 -674.5 L 1287.0 -677.0 L 1291.0 -679.0 L 1296.0 -682.0 L 1296.0 -681.0 L 1296.0 -681.0 L 1294.0 -680.0 L 1293.0 -679.0 L 1289.5 -677.0 L 1286.0 -675.0 L 1283.0 -673.5 L 1280.0 -672.0 L 1277.0 -670.5 L 1274.0 -669.0 L 1272.0 -669.0 L 1271.0 -669.0 L 1271.0 -670.0 L 1259.0 -664.0 L 1243.5 -656.5 L 1228.0 -649.0 L 1211.0 -642.5 L 1194.0 -636.0 L 1177.5 -630.5 L 1161.0 -625.0 L 1147.0 -622.0 L 1139.0 -621.0 L 1125.0 -620.5 L 1111.0 -620.0 L 1099.0 -619.5 L 1087.0 -619.0 L 1081.5 -618.5 L 1076.0 -618.0 L 1083.0 -615.0 L 1091.0 -612.0 L 1099.5 -611.0 L 1108.0 -610.0 L 1117.0 -610.0 L 1129.0 -610.0 L 1141.0 -611.0 L 1153.0 -612.0 L 1166.0 -612.0 L 1169.0 -612.0 L 1172.5 -612.0 L 1176.0 -612.0 L 1179.0 -611.0 L 1224.0 -608.0 L 1258.0 -582.0 L 1277.0 -568.0 L 1277.0 -563.0 L 1280.0 -555.0 L 1266.0 -555.0 L 1253.0 -555.0 L 1241.5 -556.0 L 1230.0 -557.0 L 1218.0 -560.0 L 1201.0 -563.0 L 1178.0 -565.5 L 1155.0 -568.0 L 1128.0 -572.0 L 1102.0 -576.0 L 1079.5 -578.0 L 1057.0 -580.0 L 1035.0 -580.0 L 1031.0 -581.0 L 1026.5 -581.0 L 1022.0 -581.0 L 1019.0 -581.0 L 1005.0 -581.0 L 991.0 -580.5 L 977.0 -580.0 L 963.0 -578.0 L 960.0 -577.0 L 955.5 -575.5 L 951.0 -574.0 Z" fill="black" fill-opacity="0.25" stroke="black" stroke-width="4.0"/>
  <rect x="84.0" y="-395.0" width="1357.0" height="166.0" fill="none" stroke="red" stroke-width="10.0" /><rect x="84.0" y="-716.0" width="389.49999999999994" height="160.99999999999991" fill="none" stroke="red" stroke-width="10.0" /><rect x="399.1" y="-877.0" width="244.1" height="161.00000000000003" fill="none" stroke="red" stroke-width="10.0" /><rect x="515.2" y="-1038.0" width="213.79999999999998" height="161.00000000000003" fill="none" stroke="red" stroke-width="10.0" /><rect x="509.0" y="-716.0" width="389.49999999999994" height="160.99999999999991" fill="none" stroke="red" stroke-width="10.0" /><rect x="825.0" y="-877.0" width="243.30000000000007" height="161.00000000000003" fill="none" stroke="red" stroke-width="10.0" /><rect x="940.6999999999999" y="-1038.0" width="213.29999999999993" height="161.00000000000003" fill="none" stroke="red" stroke-width="10.0" /><rect x="934.0" y="-716.0" width="389.49999999999983" height="160.99999999999991" fill="none" stroke="red" stroke-width="10.0" /><rect x="1251.0" y="-877.0" width="242.30000000000018" height="161.00000000000003" fill="none" stroke="red" stroke-width="10.0" /><rect x="1365.6999999999998" y="-1038.0" width="214.30000000000015" height="161.00000000000003" fill="none" stroke="red" stroke-width="10.0" />
</svg>
