<svg xmlns="http://www.w3.org/2000/svg"
  viewBox="20.0 -438.0 1457.0 508.0">
  <rect x="20.0" y="-438.0" width="1457.0" height="508.0" fill="white"/>
  <path d="M 217.0 -262.0 L 152.0 -272.0 L 70.0 -362.0 L 70.0 -388.0 L 106.0 -376.0 L 145.5 -368.0 L 185.0 -360.0 L 228.0 -360.0 L 272.0 -358.0 L 326.0 -357.0 L 380.0 -356.0 L 450.0 -356.0 L 545.0 -356.0 L 771.0 -362.0 L 996.0 -366.0 L 1113.0 -366.0 L 1220.0 -366.0 L 1388.0 -268.0 L 1397.0 -254.0 L 1407.0 -244.0 L 1417.0 -234.0 L 1427.0 -224.0 L 1426.0 -224.0 L 1419.5 -224.0 L 1413.0 -224.0 L 1402.0 -226.0 L 1372.0 -232.0 L 1356.5 -236.0 L 1341.0 -240.0 L 1337.0 -240.0 L 1249.0 -246.0 L 1208.0 -250.0 L 1169.0 -252.0 L 1130.0 -254.0 L 1092.0 -254.0 L 1037.0 -254.0 L 855.0 -246.0 L 672.0 -236.0 L 582.0 -236.0 L 535.0 -236.0 L 489.5 -238.0 L 444.0 -240.0 L 398.0 -242.0 L 353.0 -244.0 L 307.5 -250.0 L 262.0 -256.0 Z M 604.0 -190.0 L 607.0 -194.0 L 626.0 -196.0 L 642.0 -196.0 L 673.0 -190.0 L 689.0 -188.0 L 699.0 -187.0 L 709.0 -186.0 L 715.0 -186.0 L 778.0 -176.0 L 795.0 -90.0 L 805.0 -36.0 L 815.0 -22.0 L 823.0 -8.0 L 843.0 -6.0 L 848.0 -6.0 L 856.0 -4.0 L 859.0 -4.0 L 861.0 -4.0 L 861.0 2.0 L 856.0 6.0 L 842.0 20.0 L 809.0 20.0 L 790.0 20.0 L 768.5 15.0 L 747.0 10.0 L 720.0 -0.0 L 670.0 -18.0 L 651.0 -130.0 L 645.0 -178.0 L 622.0 -178.0 L 609.0 -178.0 L 601.0 -178.0 L 600.0 -180.0 L 598.0 -182.0 Z M 826.0 -192.0 L 826.0 -198.0 L 843.0 -198.0 L 857.0 -198.0 L 886.0 -192.0 L 900.0 -190.0 L 909.0 -188.0 L 918.0 -186.0 L 925.0 -186.0 L 988.0 -176.0 L 1006.0 -90.0 L 1016.0 -38.0 L 1026.0 -22.0 L 1033.0 -12.0 L 1053.0 -8.0 L 1070.0 -4.0 L 1070.0 -4.0 L 1070.0 -0.0 L 1069.5 -1.0 L 1069.0 -2.0 L 1065.0 4.0 L 1058.0 18.0 L 1020.0 18.0 L 1001.0 18.0 L 979.5 13.0 L 958.0 8.0 L 931.0 -2.0 L 881.0 -20.0 L 862.0 -134.0 L 854.0 -184.0 L 840.0 -182.0 L 826.0 -178.0 Z" fill="black" fill-opacity="0.25" stroke="black" stroke-width="4.0"/>
  <rect x="70.0" y="-388.0" width="1357.0" height="164.0" fill="none" stroke="red" stroke-width="10.0" /><rect x="598.0" y="-196.0" width="263.0" height="216.0" fill="none" stroke="red" stroke-width="10.0" /><rect x="826.0" y="-198.0" width="244.0000000000001" height="216.0" fill="none" stroke="red" stroke-width="10.0" />
</svg>
