<svg xmlns="http://www.w3.org/2000/svg"
  viewBox="32 -439 1456 482.8">
  <rect x="32" y="-439" width="1456" height="482.8" fill="white"/>
  <path d="M 962 -163 L 968 -164 L 977.5 -166 L 987 -168 L 1002 -169 L 1015 -170 L 1024 -172.5 L 1033 -175 L 1040 -176 L 1101 -183 L 1139 -108 L 1150 -87 L 1158.5 -73 L 1167 -59 L 1174 -53 L 1186 -43 L 1204 -47 L 1207 -47 L 1210 -48 L 1213 -49 L 1217 -49 L 1220 -49 L 1220 -41 L 1218 -39 L 1209 -23 L 1181 -14 L 1164 -9 L 1143 -7 L 1122 -5 L 1095 -8 L 1044 -13 L 997 -111 L 975 -152 L 963 -147 Z M 229 -263 L 164 -273 L 82 -363 L 82 -389 L 118 -377 L 157 -369 L 196 -361 L 240 -360 L 284 -358 L 338 -357.5 L 392 -357 L 462 -357 L 557 -357 L 782 -362 L 1007 -366 L 1125 -366 L 1232 -366 L 1399 -268 L 1408 -255 L 1418.5 -245 L 1429 -235 L 1438 -224 L 1437 -224 L 1430.5 -224 L 1424 -224 L 1414 -227 L 1384 -232 L 1368.5 -236 L 1353 -240 L 1349 -240 L 1260 -247 L 1219 -250 L 1180.5 -252.5 L 1142 -255 L 1104 -255 L 1049 -255 L 867 -246 L 684 -237 L 593 -237 L 546 -237 L 501 -238.5 L 456 -240 L 410 -242 L 365 -245 L 319.5 -250.5 L 274 -256 Z" fill="black" fill-opacity="0.25" stroke="black" stroke-width="4"/>
  <rect x="962" y="-183" width="258" height="178" fill="none" stroke="red" stroke-width="10" /><rect x="82" y="-389" width="1356" height="165" fill="none" stroke="red" stroke-width="10" />
</svg>
