<svg xmlns="http://www.w3.org/2000/svg"
  viewBox="31 -1029 1480.5 854">
  <rect x="31" y="-1029" width="1480.5" height="854" fill="white"/>
  <path d="M 239 -362 L 283 -361 L 336.5 -359.5 L 390 -358 L 461 -358 L 509 -358 L 588 -359.5 L 667 -361 L 781 -363 L 895 -365 L 979.5 -366.5 L 1064 -368 L 1124 -368 L 1231 -368 L 1398 -269 L 1407 -256 L 1417.5 -246.5 L 1428 -237 L 1438 -225 L 1424 -225 L 1413 -229 L 1383 -233 L 1367.5 -237 L 1352 -241 L 1348 -241 L 1259 -249 L 1217 -252 L 1179 -254.5 L 1141 -257 L 1103 -257 L 1075 -257 L 1016.5 -254.5 L 958 -252 L 866 -247 L 773 -242 L 705.5 -240 L 638 -238 L 592 -238 L 500 -238 L 409.5 -244 L 319 -250 L 228 -265 L 162 -275 L 81 -365 L 81 -392 L 118 -379 L 156.5 -371 L 195 -363 Z M 162 -507 L 157 -507 L 154 -515 L 154 -516 L 155 -517 L 156 -517 L 160 -518 L 162 -519 L 158 -525 L 154 -530 L 160 -532 L 207 -549 L 247 -562.5 L 287 -576 L 321 -587.5 L 355 -599 L 382.5 -609 L 410 -619 L 430 -629 L 510 -671 L 555 -743 L 562 -755 L 569.5 -772.5 L 577 -790 L 586 -813.5 L 595 -837 L 606.5 -866 L 618 -895 L 633 -931 L 634 -934 L 638 -935 L 642 -936 L 646 -936.5 L 650 -937 L 654.5 -938 L 659 -939 L 663 -941 L 675 -948 L 683 -952.5 L 691 -957 L 694 -958 L 707 -964 L 715.5 -967 L 724 -970 L 727 -971 L 740 -971 L 745 -971 L 750.5 -970.5 L 756 -970 L 761 -968 L 765 -967 L 769.5 -966.5 L 774 -966 L 779 -965 L 784 -964 L 788.5 -962.5 L 793 -961 L 797 -957 L 800 -954 L 794 -951.5 L 788 -949 L 783 -946 L 746 -921 L 743 -913 L 738 -892 L 733 -872.5 L 728 -853 L 721.5 -834.5 L 715 -816 L 706 -798 L 697 -780 L 684 -762 L 682 -758 L 679.5 -755 L 677 -752 L 675 -748 L 675 -748 L 677 -749 L 678 -749 L 674 -745 L 670 -741 L 670 -741 L 675 -748 L 671 -746 L 660.5 -739.5 L 650 -733 L 636.5 -722.5 L 623 -712 L 606.5 -699.5 L 590 -687 L 574 -674 L 558 -662 L 545.5 -652 L 533 -642 L 522 -633 L 511 -624 L 504 -617 L 497 -610 L 493 -606 L 493 -605 L 491 -604 L 491 -604 L 490 -603 L 496 -605 L 500.5 -607.5 L 505 -610 L 509 -612 L 514 -615 L 515 -615 L 515 -615 L 513 -613 L 512 -612 L 508.5 -610 L 505 -608 L 502 -606.5 L 499 -605 L 496 -603.5 L 493 -602 L 491 -602 L 490 -602 L 490 -603 L 478 -597 L 462 -589.5 L 446 -582 L 429.5 -575.5 L 413 -569 L 396 -563.5 L 379 -558 L 366 -556 L 357 -555 L 343.5 -554.5 L 330 -554 L 318.5 -553.5 L 307 -553 L 301 -552 L 295 -551 L 302 -548 L 310 -545 L 319 -544 L 328 -543 L 336 -543 L 348 -543 L 360.5 -544 L 373 -545 L 385 -545 L 388 -545 L 391.5 -545 L 395 -545 L 397 -544 L 442 -541 L 477 -515 L 496 -501 L 496 -496 L 499 -488 L 485 -488 L 472 -488 L 460.5 -489.5 L 449 -491 L 437 -493 L 420 -496 L 397 -498.5 L 374 -501 L 347 -505 L 321 -509 L 298 -511 L 275 -513 L 253 -513 L 249 -514 L 245 -514 L 241 -514 L 237 -514 L 223 -514 L 209.5 -513.5 L 196 -513 L 182 -512 L 179 -511 L 174.5 -509 L 170 -507 Z M 818 -523 L 818 -524 L 819 -524 L 820 -524 L 824 -526 L 826 -527 L 822 -533 L 818 -538 L 824 -540 L 871 -557 L 911 -570 L 951 -583 L 985 -594.5 L 1019 -606 L 1046.5 -616 L 1074 -626 L 1094 -637 L 1174 -678 L 1219 -751 L 1226 -763 L 1233.5 -780.5 L 1241 -798 L 1250 -821.5 L 1259 -845 L 1270.5 -874 L 1282 -903 L 1297 -938 L 1298 -941 L 1302 -942.5 L 1306 -944 L 1310 -944.5 L 1314 -945 L 1318.5 -946 L 1323 -947 L 1327 -949 L 1339 -956 L 1347 -960.5 L 1355 -965 L 1358 -966 L 1371 -972 L 1379.5 -974.5 L 1388 -977 L 1391 -979 L 1404 -979 L 1409 -979 L 1414.5 -978.5 L 1420 -978 L 1425 -976 L 1429 -975 L 1433.5 -974.5 L 1438 -974 L 1443 -973 L 1448 -972 L 1453 -970.5 L 1458 -969 L 1461 -965 L 1462 -964 L 1461 -962 L 1460 -960 L 1457.5 -959 L 1455 -958 L 1452 -956.5 L 1449 -955 L 1447 -954 L 1410 -928 L 1407 -921 L 1402 -900 L 1397 -880.5 L 1392 -861 L 1385.5 -842.5 L 1379 -824 L 1370 -806 L 1361 -788 L 1348 -770 L 1346 -766 L 1343.5 -763 L 1341 -760 L 1339 -756 L 1339 -756 L 1341 -757 L 1342 -757 L 1338 -752 L 1334 -748 L 1334 -748 L 1339 -756 L 1335 -754 L 1324.5 -747.5 L 1314 -741 L 1300.5 -730.5 L 1287 -720 L 1270.5 -707.5 L 1254 -695 L 1238 -682 L 1222 -670 L 1209.5 -659.5 L 1197 -649 L 1187 -641 L 1176 -632 L 1168.5 -625 L 1161 -618 L 1157 -614 L 1157 -613 L 1155 -612 L 1155 -612 L 1154 -611 L 1160 -613 L 1164.5 -615.5 L 1169 -618 L 1173 -620 L 1178 -623 L 1179 -622 L 1179 -622 L 1177 -621 L 1176 -620 L 1172.5 -618 L 1169 -616 L 1166 -614.5 L 1163 -613 L 1160 -611.5 L 1157 -610 L 1155 -610 L 1154 -610 L 1154 -611 L 1142 -605 L 1126 -597.5 L 1110 -590 L 1093.5 -583.5 L 1077 -577 L 1060 -571.5 L 1043 -566 L 1030 -563 L 1021 -562 L 1007.5 -561.5 L 994 -561 L 982.5 -560.5 L 971 -560 L 965 -559 L 959 -558 L 966 -556 L 974 -553 L 983 -552 L 992 -551 L 1000 -551 L 1012 -551 L 1024.5 -552 L 1037 -553 L 1049 -553 L 1052 -553 L 1055.5 -553 L 1059 -553 L 1062 -552 L 1107 -549 L 1141 -523 L 1160 -509 L 1160 -504 L 1163 -496 L 1149 -496 L 1136 -496 L 1124.5 -497 L 1113 -498 L 1101 -501 L 1084 -504 L 1061 -506.5 L 1038 -509 L 1011 -513 L 985 -517 L 962 -519 L 939 -521 L 917 -521 L 913 -522 L 909 -522 L 905 -522 L 901 -522 L 887 -522 L 873.5 -521.5 L 860 -521 L 846 -519 L 843 -518 L 838 -516.5 L 833 -515 L 826 -515 L 821 -515 Z" fill="black" fill-opacity="0.25" stroke="black" stroke-width="4"/>
  <rect x="81" y="-392" width="1357" height="167" fill="none" stroke="red" stroke-width="10" /><rect x="154" y="-649" width="387.7" height="161" fill="none" stroke="red" stroke-width="10" /><rect x="468.1" y="-810" width="243.9" height="161" fill="none" stroke="red" stroke-width="10" /><rect x="584.7" y="-971" width="215.3" height="161" fill="none" stroke="red" stroke-width="10" /><rect x="818" y="-657" width="388.5" height="161" fill="none" stroke="red" stroke-width="10" /><rect x="1133" y="-818" width="243" height="161" fill="none" stroke="red" stroke-width="10" /><rect x="1248.7" y="-979" width="213.3" height="161" fill="none" stroke="red" stroke-width="10" />
</svg>
