<svg xmlns="http://www.w3.org/2000/svg"
  viewBox="-36.01 -796 2068.01 634">
  <rect x="-36.01" y="-796" width="2068.01" height="634" fill="white"/>
  <path d="M 84 -743 L 91 -746 L 101 -746 L 111 -746 L 125 -746 L 168 -746 L 214 -732 L 258 -719 L 306 -690 L 369 -632 L 360 -632 L 343.5 -633.5 L 327 -635 L 300 -638 L 275 -641 L 256.5 -642.5 L 238 -644 L 226 -644 L 203 -644 L 184 -637 L 168 -630 L 168 -613 L 168 -605 L 174 -594 L 181 -580 L 184.5 -570 L 188 -560 L 193 -558 L 207 -552 L 218.5 -549 L 230 -546 L 244 -543 L 286 -532 L 293 -530 L 307 -529.5 L 321 -529 L 342 -529 L 410 -537 L 473.5 -544.5 L 537 -552 L 599 -558 L 720 -571 L 857 -573 L 947 -573 L 1080 -477 L 1110 -435 L 1091 -440 L 1038 -451 L 958 -460 L 884 -470 L 819 -470 L 780 -466 L 760 -465 L 730.5 -464 L 701 -463 L 662 -460 L 647 -459 L 622.5 -458.5 L 598 -458 L 562 -458 L 535 -458 L 506.5 -459 L 478 -460 L 449 -462 L 388 -465 L 313 -475 L 261 -482 L 211 -505.5 L 161 -529 L 111 -563 L 13 -630 L 14 -688 L 14 -729 Z M 1218 -677 L 1222 -682 L 1241 -682 L 1263 -682 L 1299 -677 L 1346 -669 L 1422 -657 L 1440 -557 L 1451 -495 L 1465 -479 L 1479 -463 L 1496 -460 L 1517 -458 L 1516 -457 L 1516 -453 L 1510 -446 L 1494 -430 L 1457 -431 L 1435 -431 L 1409.5 -436 L 1384 -441 L 1352 -452 L 1295 -473 L 1273 -605 L 1263 -661 L 1238 -661 L 1223 -661 L 1214 -661 L 1212 -663 L 1209 -666 Z M 1463 -679 L 1463 -683 L 1484 -683 L 1501 -683 L 1534 -679 L 1579 -671 L 1654 -658 L 1673 -558 L 1684 -497 L 1698 -479 L 1709 -464 L 1729 -462 L 1750 -460 L 1749 -457 L 1749 -454 L 1743 -448 L 1727 -433 L 1690 -432 L 1643 -432 L 1587 -454 L 1528 -477 L 1505 -610 L 1495 -667 L 1480 -665 L 1463 -662 Z M 388 -251 L 301 -261 L 194 -351 L 194 -377 L 242 -365 L 293.5 -357 L 345 -349 L 402 -348 L 460 -346 L 531 -345.5 L 602 -345 L 695 -345 L 820 -345 L 1117 -349 L 1413 -353 L 1568 -354 L 1710 -354 L 1930 -256 L 1942 -243 L 1956 -233 L 1970 -223 L 1982 -212 L 1980 -212 L 1971.5 -212 L 1963 -212 L 1949 -215 L 1910 -220 L 1889.5 -223.5 L 1869 -227 L 1864 -227 L 1746 -235 L 1693 -238 L 1641.5 -240.5 L 1590 -243 L 1541 -243 L 1469 -243 L 1228 -234 L 987 -225 L 868 -224 L 806 -224 L 746 -225.5 L 686 -227 L 626 -230 L 566 -233 L 507 -238.5 L 448 -244 Z" fill="black" fill-opacity="0.25" stroke="black" stroke-width="4"/>
  <rect x="13" y="-746" width="1097" height="311" fill="none" stroke="red" stroke-width="10" /><rect x="1209" y="-682" width="308" height="252" fill="none" stroke="red" stroke-width="10" /><rect x="1463" y="-683" width="287" height="251" fill="none" stroke="red" stroke-width="10" /><rect x="194" y="-377" width="1788" height="165" fill="none" stroke="red" stroke-width="10" />
</svg>
