<svg xmlns="http://www.w3.org/2000/svg"
  viewBox="51.0 -1082.0 1457.0 905.0">
  <rect x="51.0" y="-1082.0" width="1457.0" height="905.0" fill="white"/>
  <path d="M 101.0 -366.0 L 101.0 -393.0 L 138.0 -380.0 L 176.0 -372.5 L 214.0 -365.0 L 259.0 -363.0 L 303.0 -362.0 L 356.5 -361.0 L 410.0 -360.0 L 481.0 -360.0 L 529.0 -360.0 L 608.5 -361.0 L 688.0 -362.0 L 801.0 -365.0 L 915.0 -367.0 L 999.5 -368.5 L 1084.0 -370.0 L 1144.0 -370.0 L 1251.0 -370.0 L 1418.0 -271.0 L 1427.0 -258.0 L 1437.5 -248.0 L 1448.0 -238.0 L 1458.0 -227.0 L 1444.0 -227.0 L 1433.0 -231.0 L 1403.0 -235.0 L 1387.5 -239.0 L 1372.0 -243.0 L 1368.0 -243.0 L 1279.0 -251.0 L 1237.0 -254.0 L 1199.0 -256.0 L 1161.0 -258.0 L 1123.0 -258.0 L 1095.0 -258.0 L 1036.5 -256.0 L 978.0 -254.0 L 886.0 -249.0 L 793.0 -244.0 L 725.5 -242.0 L 658.0 -240.0 L 612.0 -240.0 L 520.0 -240.0 L 429.5 -246.0 L 339.0 -252.0 L 248.0 -266.0 L 182.0 -276.0 Z M 171.0 -576.0 L 171.0 -577.0 L 173.0 -577.0 L 174.0 -577.0 L 177.0 -579.0 L 179.0 -580.0 L 175.0 -586.0 L 171.0 -591.0 L 177.0 -593.0 L 224.0 -610.0 L 264.5 -623.0 L 305.0 -636.0 L 339.0 -647.5 L 373.0 -659.0 L 400.0 -669.0 L 427.0 -679.0 L 448.0 -690.0 L 528.0 -732.0 L 573.0 -804.0 L 580.0 -816.0 L 587.5 -833.5 L 595.0 -851.0 L 603.5 -874.5 L 612.0 -898.0 L 623.5 -927.0 L 635.0 -956.0 L 651.0 -991.0 L 652.0 -994.0 L 655.5 -995.5 L 659.0 -997.0 L 663.0 -997.5 L 667.0 -998.0 L 672.0 -999.0 L 677.0 -1000.0 L 681.0 -1002.0 L 693.0 -1009.0 L 701.0 -1013.5 L 709.0 -1018.0 L 712.0 -1019.0 L 725.0 -1025.0 L 733.5 -1027.5 L 742.0 -1030.0 L 745.0 -1032.0 L 758.0 -1032.0 L 763.0 -1032.0 L 768.0 -1031.5 L 773.0 -1031.0 L 779.0 -1029.0 L 783.0 -1028.0 L 787.5 -1027.5 L 792.0 -1027.0 L 797.0 -1026.0 L 802.0 -1025.0 L 806.5 -1023.5 L 811.0 -1022.0 L 815.0 -1018.0 L 816.0 -1017.0 L 815.0 -1015.0 L 814.0 -1013.0 L 811.5 -1012.0 L 809.0 -1011.0 L 806.0 -1009.5 L 803.0 -1008.0 L 801.0 -1007.0 L 764.0 -981.0 L 760.0 -974.0 L 752.0 -940.0 L 745.0 -916.0 L 738.0 -892.0 L 730.0 -873.0 L 728.0 -867.0 L 723.5 -858.5 L 719.0 -850.0 L 713.0 -841.0 L 707.0 -832.0 L 701.5 -823.5 L 696.0 -815.0 L 692.0 -809.0 L 692.0 -809.0 L 694.0 -810.0 L 696.0 -810.0 L 691.0 -805.0 L 688.0 -802.0 L 688.0 -802.0 L 688.0 -802.0 L 692.0 -809.0 L 688.0 -807.0 L 678.0 -800.5 L 668.0 -794.0 L 654.0 -783.5 L 640.0 -773.0 L 624.0 -760.5 L 608.0 -748.0 L 592.0 -735.0 L 576.0 -723.0 L 563.5 -712.5 L 551.0 -702.0 L 540.0 -694.0 L 529.0 -685.0 L 521.5 -678.0 L 514.0 -671.0 L 510.0 -667.0 L 510.0 -666.0 L 508.0 -665.0 L 508.0 -665.0 L 508.0 -664.0 L 514.0 -666.0 L 518.5 -668.5 L 523.0 -671.0 L 527.0 -673.0 L 532.0 -676.0 L 533.0 -675.0 L 533.0 -675.0 L 530.0 -674.0 L 529.0 -673.0 L 525.5 -671.0 L 522.0 -669.0 L 519.0 -667.5 L 516.0 -666.0 L 513.0 -664.5 L 510.0 -663.0 L 509.0 -663.0 L 508.0 -663.0 L 508.0 -664.0 L 496.0 -658.0 L 480.0 -650.5 L 464.0 -643.0 L 447.0 -636.5 L 430.0 -630.0 L 413.5 -624.5 L 397.0 -619.0 L 384.0 -616.0 L 375.0 -615.0 L 361.5 -614.5 L 348.0 -614.0 L 336.0 -613.5 L 324.0 -613.0 L 318.0 -612.5 L 312.0 -612.0 L 320.0 -609.0 L 328.0 -606.0 L 336.5 -605.0 L 345.0 -604.0 L 354.0 -604.0 L 366.0 -604.0 L 378.0 -605.0 L 390.0 -606.0 L 403.0 -606.0 L 406.0 -606.0 L 409.0 -606.0 L 412.0 -606.0 L 415.0 -605.0 L 460.0 -602.0 L 495.0 -576.0 L 514.0 -562.0 L 513.0 -557.0 L 516.0 -549.0 L 502.0 -549.0 L 489.0 -549.0 L 478.0 -550.0 L 467.0 -551.0 L 454.0 -554.0 L 437.0 -557.0 L 414.5 -559.5 L 392.0 -562.0 L 365.0 -566.0 L 339.0 -570.0 L 316.0 -572.0 L 293.0 -574.0 L 271.0 -574.0 L 267.0 -575.0 L 263.0 -575.0 L 259.0 -575.0 L 255.0 -575.0 L 241.0 -575.0 L 227.0 -574.5 L 213.0 -574.0 L 199.0 -572.0 L 196.0 -571.0 L 191.5 -569.5 L 187.0 -568.0 L 179.0 -568.0 L 174.0 -568.0 Z" fill="black" fill-opacity="0.25" stroke="black" stroke-width="4.0"/>
  <rect x="101.0" y="-393.0" width="1357.0" height="166.0" fill="none" stroke="red" stroke-width="10.0" /><rect x="171.0" y="-710.0" width="389.49999999999994" height="160.99999999999991" fill="none" stroke="red" stroke-width="10.0" /><rect x="486.09999999999997" y="-871.0" width="243.19999999999996" height="161.00000000000003" fill="none" stroke="red" stroke-width="10.0" /><rect x="602.1999999999999" y="-1032.0" width="213.79999999999998" height="161.00000000000003" fill="none" stroke="red" stroke-width="10.0" />
</svg>
