<svg xmlns="http://www.w3.org/2000/svg"
  viewBox="310.22222222222223 -833.55 1402.8253968253969 515.1055555555555">
  <rect x="310.22222222222223" y="-833.55" width="1402.8253968253969" height="515.1055555555555" fill="white"/>
  <path d="M 1352.0 -549.0 L 1383.0 -549.0 L 1416.5 -548.5 L 1450.0 -548.0 L 1477.0 -544.0 L 1496.0 -544.0 L 1513.0 -498.0 L 1530.0 -452.0 L 1562.0 -407.0 L 1573.0 -391.0 L 1581.0 -389.0 L 1589.0 -387.0 L 1593.5 -381.5 L 1598.0 -376.0 L 1585.0 -372.0 L 1554.0 -368.0 L 1522.0 -368.5 L 1490.0 -369.0 L 1461.0 -372.0 L 1434.0 -381.0 L 1422.5 -413.5 L 1411.0 -446.0 L 1378.0 -510.0 L 1367.0 -525.0 L 1348.0 -528.0 L 1333.0 -529.0 L 1332.0 -539.0 L 1331.0 -549.0 Z M 1078.0 -552.0 L 1105.0 -552.0 L 1134.5 -551.5 L 1164.0 -551.0 L 1187.0 -547.0 L 1204.0 -547.0 L 1223.0 -500.0 L 1242.0 -451.0 L 1268.0 -407.0 L 1275.0 -391.0 L 1285.0 -390.0 L 1292.0 -388.0 L 1295.5 -382.5 L 1299.0 -377.0 L 1288.0 -372.0 L 1261.0 -368.0 L 1233.0 -368.5 L 1205.0 -369.0 L 1179.0 -372.0 L 1155.0 -381.0 L 1142.0 -414.5 L 1129.0 -448.0 L 1101.0 -512.0 L 1099.0 -515.0 L 1091.5 -523.5 L 1084.0 -532.0 L 1075.0 -533.0 L 1062.0 -534.0 L 1060.5 -543.0 L 1059.0 -552.0 Z M 363.0 -775.0 L 368.0 -783.0 L 374.0 -783.5 L 380.0 -784.0 L 387.5 -779.5 L 395.0 -775.0 L 405.5 -770.0 L 416.0 -765.0 L 432.5 -761.5 L 449.0 -758.0 L 479.0 -758.0 L 1477.0 -758.0 L 1505.0 -758.0 L 1527.0 -753.5 L 1549.0 -749.0 L 1567.5 -739.5 L 1586.0 -730.0 L 1596.0 -722.0 L 1606.0 -714.0 L 1624.0 -695.5 L 1642.0 -677.0 L 1655.0 -659.0 L 1668.0 -641.0 L 1660.0 -625.0 L 1653.0 -613.0 L 1642.5 -619.5 L 1632.0 -626.0 L 1618.0 -631.5 L 1604.0 -637.0 L 1588.0 -638.5 L 1572.0 -640.0 L 1539.0 -640.0 L 555.0 -640.0 L 532.0 -640.0 L 514.0 -643.5 L 496.0 -647.0 L 485.5 -650.5 L 475.0 -654.0 L 463.5 -659.0 L 452.0 -664.0 L 439.0 -672.5 L 426.0 -681.0 L 411.0 -696.5 L 396.0 -712.0 L 381.0 -731.5 L 366.0 -751.0 L 362.0 -759.0 L 358.0 -767.0 Z" fill="black" fill-opacity="0.25" stroke="black" stroke-width="4.0"/>
  <rect x="1331.0" y="-549.0" width="267.0000000000001" height="181.00000000000006" fill="none" stroke="red" stroke-width="10.0" /><rect x="1059.0" y="-552.0" width="240.0" height="184.00000000000006" fill="none" stroke="red" stroke-width="10.0" /><rect x="358.0" y="-784.0" width="1310.0" height="171.00000000000003" fill="none" stroke="red" stroke-width="10.0" />
</svg>
