<svg xmlns="http://www.w3.org/2000/svg"
  viewBox="32.0 -439.0 1456.0 482.8">
  <rect x="32.0" y="-439.0" width="1456.0" height="482.8" fill="white"/>
  <path d="M 962.0 -163.0 L 968.0 -164.0 L 977.5 -166.0 L 987.0 -168.0 L 1002.0 -169.0 L 1015.0 -170.0 L 1024.0 -172.5 L 1033.0 -175.0 L 1040.0 -176.0 L 1101.0 -183.0 L 1139.0 -108.0 L 1150.0 -87.0 L 1158.5 -73.0 L 1167.0 -59.0 L 1174.0 -53.0 L 1186.0 -43.0 L 1204.0 -47.0 L 1207.0 -47.0 L 1210.0 -48.0 L 1213.0 -49.0 L 1217.0 -49.0 L 1220.0 -49.0 L 1220.0 -41.0 L 1218.0 -39.0 L 1209.0 -23.0 L 1181.0 -14.0 L 1164.0 -9.0 L 1143.0 -7.0 L 1122.0 -5.0 L 1095.0 -8.0 L 1044.0 -13.0 L 997.0 -111.0 L 975.0 -152.0 L 963.0 -147.0 Z M 229.0 -263.0 L 164.0 -273.0 L 82.0 -363.0 L 82.0 -389.0 L 118.0 -377.0 L 157.0 -369.0 L 196.0 -361.0 L 240.0 -360.0 L 284.0 -358.0 L 338.0 -357.5 L 392.0 -357.0 L 462.0 -357.0 L 557.0 -357.0 L 782.0 -362.0 L 1007.0 -366.0 L 1125.0 -366.0 L 1232.0 -366.0 L 1399.0 -268.0 L 1408.0 -255.0 L 1418.5 -245.0 L 1429.0 -235.0 L 1438.0 -224.0 L 1437.0 -224.0 L 1430.5 -224.0 L 1424.0 -224.0 L 1414.0 -227.0 L 1384.0 -232.0 L 1368.5 -236.0 L 1353.0 -240.0 L 1349.0 -240.0 L 1260.0 -247.0 L 1219.0 -250.0 L 1180.5 -252.5 L 1142.0 -255.0 L 1104.0 -255.0 L 1049.0 -255.0 L 867.0 -246.0 L 684.0 -237.0 L 593.0 -237.0 L 546.0 -237.0 L 501.0 -238.5 L 456.0 -240.0 L 410.0 -242.0 L 365.0 -245.0 L 319.5 -250.5 L 274.0 -256.0 Z" fill="black" fill-opacity="0.25" stroke="black" stroke-width="4.0"/>
  <rect x="962.0" y="-183.0" width="258.0" height="178.0" fill="none" stroke="red" stroke-width="10.0" /><rect x="82.0" y="-389.0" width="1355.9999999999998" height="165.0" fill="none" stroke="red" stroke-width="10.0" />
</svg>
