<svg xmlns="http://www.w3.org/2000/svg"
  viewBox="26.0 -914.0 1456.0 737.0">
  <rect x="26.0" y="-914.0" width="1456.0" height="737.0" fill="white"/>
  <path d="M 76.0 -366.0 L 76.0 -393.0 L 113.0 -380.0 L 151.0 -372.0 L 189.0 -364.0 L 233.0 -363.0 L 277.0 -362.0 L 331.0 -361.0 L 385.0 -360.0 L 456.0 -360.0 L 504.0 -360.0 L 583.5 -361.0 L 663.0 -362.0 L 776.0 -364.0 L 889.0 -366.0 L 974.0 -367.5 L 1059.0 -369.0 L 1118.0 -369.0 L 1225.0 -369.0 L 1393.0 -271.0 L 1402.0 -258.0 L 1412.5 -248.0 L 1423.0 -238.0 L 1432.0 -227.0 L 1419.0 -227.0 L 1407.0 -230.0 L 1377.0 -234.0 L 1361.5 -238.0 L 1346.0 -242.0 L 1343.0 -242.0 L 1254.0 -250.0 L 1213.0 -253.0 L 1174.5 -255.5 L 1136.0 -258.0 L 1098.0 -258.0 L 1070.0 -258.0 L 1011.0 -256.0 L 952.0 -254.0 L 860.0 -249.0 L 768.0 -244.0 L 700.0 -241.5 L 632.0 -239.0 L 587.0 -239.0 L 495.0 -239.0 L 404.0 -245.0 L 313.0 -251.0 L 223.0 -266.0 L 157.0 -276.0 Z M 138.0 -742.0 L 138.0 -770.0 L 151.5 -790.0 L 165.0 -810.0 L 187.0 -823.5 L 209.0 -837.0 L 237.0 -845.0 L 265.0 -853.0 L 293.5 -857.5 L 322.0 -862.0 L 348.5 -863.0 L 375.0 -864.0 L 395.0 -864.0 L 447.0 -864.0 L 501.5 -859.5 L 556.0 -855.0 L 615.0 -845.0 L 675.0 -836.0 L 733.0 -821.0 L 791.0 -806.0 L 852.0 -789.0 L 911.0 -772.0 L 977.0 -739.5 L 1043.0 -707.0 L 1118.0 -658.0 L 1264.0 -562.0 L 1263.0 -520.0 L 1263.0 -501.0 L 1227.0 -502.0 L 1180.0 -502.0 L 1130.0 -508.5 L 1080.0 -515.0 L 1034.0 -525.0 L 1046.0 -629.0 L 870.0 -713.0 L 703.0 -793.0 L 530.0 -792.0 L 513.0 -792.0 L 492.5 -790.5 L 472.0 -789.0 L 450.5 -785.0 L 429.0 -781.0 L 408.5 -774.0 L 388.0 -767.0 L 371.5 -755.5 L 355.0 -744.0 L 344.5 -728.0 L 334.0 -712.0 L 333.0 -689.0 L 332.0 -658.0 L 379.0 -622.0 L 437.0 -577.0 L 442.0 -575.0 L 303.0 -576.0 L 233.0 -605.0 L 186.0 -625.0 L 155.0 -674.0 L 138.0 -713.0 Z M 415.0 -643.0 L 428.0 -646.0 L 439.0 -651.0 L 450.0 -656.0 L 462.0 -659.0 L 498.0 -661.0 L 533.5 -661.5 L 569.0 -662.0 L 605.0 -662.0 L 632.0 -662.0 L 663.0 -658.5 L 694.0 -655.0 L 729.0 -648.0 L 751.0 -644.0 L 772.0 -637.5 L 793.0 -631.0 L 813.0 -626.0 L 828.0 -623.0 L 848.0 -616.5 L 868.0 -610.0 L 889.0 -601.0 L 910.0 -592.0 L 930.5 -580.5 L 951.0 -569.0 L 966.5 -554.5 L 982.0 -540.0 L 991.5 -523.5 L 1001.0 -507.0 L 1001.0 -487.0 L 1000.0 -465.0 L 987.0 -446.0 L 982.0 -440.0 L 959.0 -440.0 L 942.0 -440.0 L 918.0 -443.0 L 894.0 -446.0 L 860.0 -453.0 L 849.0 -455.0 L 834.5 -458.0 L 820.0 -461.0 L 801.0 -465.0 L 811.0 -470.0 L 819.5 -477.0 L 828.0 -484.0 L 835.0 -493.0 L 850.0 -511.0 L 845.0 -525.0 L 835.0 -548.0 L 797.0 -568.5 L 759.0 -589.0 L 693.0 -601.0 L 622.0 -614.0 L 554.0 -623.0 L 486.0 -632.0 Z" fill="black" fill-opacity="0.25" stroke="black" stroke-width="4.0"/>
  <rect x="76.0" y="-393.0" width="1355.9999999999998" height="166.0" fill="none" stroke="red" stroke-width="10.0" /><rect x="138.0" y="-864.0" width="1126.0" height="363.0" fill="none" stroke="red" stroke-width="10.0" /><rect x="415.0" y="-662.0" width="585.9999999999999" height="222.00000000000003" fill="none" stroke="red" stroke-width="10.0" />
</svg>
