<svg xmlns="http://www.w3.org/2000/svg"
  viewBox="-72 -1300 1893.5 1122">
  <rect x="-72" y="-1300" width="1893.5" height="1122" fill="white"/>
  <path d="M 288 -364 L 325 -363 L 367.5 -362 L 410 -361 L 465 -361 L 510 -361 L 558 -361 L 637 -362 L 716 -363 L 830 -366 L 1055 -370 L 1172 -370 L 1279 -370 L 1447 -272 L 1456 -259 L 1466.5 -249 L 1477 -239 L 1486 -228 L 1479 -228 L 1473.5 -228.5 L 1468 -229 L 1461 -231 L 1431 -236 L 1415.5 -240 L 1400 -244 L 1397 -244 L 1308 -251 L 1266 -254 L 1228 -256.5 L 1190 -259 L 1152 -259 L 1124 -259 L 1065.5 -257 L 1007 -255 L 915 -250 L 822 -245 L 754.5 -243 L 687 -241 L 641 -241 L 548 -241 L 458.5 -247 L 369 -253 L 277 -267 L 211 -277 L 130 -367 L 130 -393 L 167 -381 L 205.5 -373 L 244 -365 Z M -22 -484 L -22 -485 L -21 -485 L -20 -485 L -17 -487 L -15 -488 L -19 -494 L -23 -499 L -17 -501 L 30 -518 L 70.5 -531 L 111 -544 L 145 -555.5 L 179 -567 L 206 -577 L 233 -587 L 254 -598 L 333 -640 L 379 -712 L 386 -724 L 393.5 -741.5 L 401 -759 L 410 -782.5 L 419 -806 L 430.5 -835 L 442 -864 L 458 -899 L 459 -902 L 462 -903.5 L 465 -905 L 469.5 -905.5 L 474 -906 L 478.5 -907 L 483 -908 L 487 -910 L 499 -917 L 507 -921 L 515 -925 L 519 -927 L 531 -933 L 539.5 -935.5 L 548 -938 L 551 -940 L 564 -940 L 569 -940 L 574.5 -939.5 L 580 -939 L 585 -937 L 589 -936 L 594 -935 L 599 -934 L 603.5 -933.5 L 608 -933 L 613 -931.5 L 618 -930 L 622 -926 L 623 -925 L 621.5 -923 L 620 -921 L 617.5 -920 L 615 -919 L 612 -917.5 L 609 -916 L 607 -915 L 569 -889 L 567 -882 L 559 -848 L 551.5 -824 L 544 -800 L 537 -781 L 535 -775 L 530 -766.5 L 525 -758 L 519.5 -749 L 514 -740 L 508 -731.5 L 502 -723 L 499 -717 L 500 -717 L 500 -718 L 500 -718 L 500 -718 L 500 -718 L 502 -718 L 498 -713 L 495 -710 L 494 -710 L 494 -710 L 499 -717 L 495 -715 L 485 -708.5 L 475 -702 L 461 -691.5 L 447 -681 L 431 -668.5 L 415 -656 L 398 -643 L 382 -631 L 369.5 -620.5 L 357 -610 L 347 -601 L 336 -592 L 328.5 -585.5 L 321 -579 L 317 -575 L 317 -574 L 315 -573 L 315 -573 L 314 -572 L 319 -574 L 324 -576.5 L 329 -579 L 333 -580 L 338 -583 L 339 -583 L 340 -583 L 330 -578 L 319 -572 L 315 -571 L 314 -571 L 314 -572 L 302 -566 L 286.5 -558.5 L 271 -551 L 254 -544.5 L 237 -538 L 220.5 -532.5 L 204 -527 L 190 -524 L 182 -523 L 168 -522.5 L 154 -522 L 142 -521.5 L 130 -521 L 124.5 -520 L 119 -519 L 126 -517 L 134 -514 L 142.5 -513 L 151 -512 L 160 -512 L 172 -512 L 184 -513 L 196 -514 L 209 -514 L 234 -514 L 257.5 -506.5 L 281 -499 L 301 -484 L 319 -470 L 320 -465 L 323 -457 L 309 -457 L 296 -457 L 284.5 -458 L 273 -459 L 261 -462 L 243 -465 L 220.5 -467.5 L 198 -470 L 171 -474 L 144 -478 L 122 -480 L 100 -482 L 78 -482 L 74 -483 L 69.5 -483 L 65 -483 L 62 -483 L 48 -483 L 34 -482.5 L 20 -482 L 5 -480 L 2 -479 L -2.5 -477.5 L -7 -476 L -15 -476 L -19 -476 Z M 592 -786 L 587 -786 L 584 -794 L 584 -795 L 585 -795 L 586 -795 L 590 -797 L 592 -798 L 587 -804 L 583 -809 L 590 -811 L 636 -828 L 676.5 -841 L 717 -854 L 751 -865.5 L 785 -877 L 812.5 -887 L 840 -897 L 860 -908 L 939 -950 L 985 -1022 L 992 -1034 L 999.5 -1051.5 L 1007 -1069 L 1016 -1092.5 L 1025 -1116 L 1036.5 -1145 L 1048 -1174 L 1063 -1209 L 1064 -1212 L 1067.5 -1213.5 L 1071 -1215 L 1075.5 -1215.5 L 1080 -1216 L 1084.5 -1217 L 1089 -1218 L 1093 -1220 L 1105 -1227 L 1113 -1231 L 1121 -1235 L 1125 -1237 L 1137 -1243 L 1145.5 -1245.5 L 1154 -1248 L 1157 -1250 L 1170 -1250 L 1175 -1250 L 1180.5 -1249.5 L 1186 -1249 L 1191 -1247 L 1195 -1246 L 1200 -1245.5 L 1205 -1245 L 1209.5 -1244 L 1214 -1243 L 1219 -1241.5 L 1224 -1240 L 1228 -1236 L 1229 -1235 L 1227.5 -1233 L 1226 -1231 L 1223.5 -1230 L 1221 -1229 L 1218 -1227.5 L 1215 -1226 L 1213 -1225 L 1175 -1199 L 1173 -1192 L 1165 -1158 L 1157.5 -1134 L 1150 -1110 L 1143 -1091 L 1141 -1085 L 1136 -1076.5 L 1131 -1068 L 1125.5 -1059 L 1120 -1050 L 1114 -1041.5 L 1108 -1033 L 1104 -1027 L 1105 -1027 L 1105 -1028 L 1106 -1028 L 1106 -1028 L 1106 -1028 L 1108 -1028 L 1104 -1023 L 1101 -1020 L 1100 -1020 L 1100 -1020 L 1104 -1027 L 1100 -1025 L 1090.5 -1018.5 L 1081 -1012 L 1067 -1001.5 L 1053 -991 L 1037 -978.5 L 1021 -966 L 1004 -953 L 988 -941 L 975.5 -930.5 L 963 -920 L 953 -912 L 942 -903 L 934.5 -896 L 927 -889 L 923 -885 L 923 -884 L 921 -883 L 921 -883 L 920 -882 L 925 -884 L 930 -886.5 L 935 -889 L 939 -891 L 944 -894 L 945 -893 L 946 -893 L 936 -888 L 925 -882 L 921 -881 L 920 -881 L 920 -882 L 908 -876 L 892 -868.5 L 876 -861 L 859.5 -854.5 L 843 -848 L 826.5 -842.5 L 810 -837 L 796 -834 L 788 -833 L 774 -832.5 L 760 -832 L 748 -831.5 L 736 -831 L 730.5 -830 L 725 -829 L 732 -827 L 740 -824 L 748.5 -823 L 757 -822 L 766 -822 L 778 -822 L 790 -823 L 802 -824 L 815 -824 L 840 -824 L 863.5 -816.5 L 887 -809 L 907 -794 L 925 -780 L 926 -775 L 929 -767 L 915 -767 L 902 -767 L 890.5 -768 L 879 -769 L 867 -772 L 849 -775 L 826.5 -777.5 L 804 -780 L 777 -784 L 750 -788 L 728 -790 L 706 -792 L 684 -792 L 680 -793 L 675.5 -793 L 671 -793 L 667 -793 L 653 -793 L 639.5 -792.5 L 626 -792 L 612 -790 L 609 -789 L 604.5 -787.5 L 600 -786 Z M 1127 -483 L 1127 -484 L 1129 -484 L 1130 -484 L 1133 -486 L 1135 -487 L 1131 -493 L 1127 -498 L 1133 -500 L 1179 -517 L 1219.5 -530 L 1260 -543 L 1294 -554.5 L 1328 -566 L 1355.5 -576 L 1383 -586 L 1404 -597 L 1483 -639 L 1529 -711 L 1536 -723 L 1543.5 -740.5 L 1551 -758 L 1559.5 -781.5 L 1568 -805 L 1579.5 -834 L 1591 -863 L 1607 -898 L 1608 -901 L 1611.5 -902.5 L 1615 -904 L 1619 -904.5 L 1623 -905 L 1627.5 -906 L 1632 -907 L 1637 -909 L 1649 -916 L 1656.5 -920 L 1664 -924 L 1668 -926 L 1680 -932 L 1689 -934.5 L 1698 -937 L 1701 -939 L 1714 -939 L 1719 -939 L 1724 -938.5 L 1729 -938 L 1735 -936 L 1739 -935 L 1743.5 -934 L 1748 -933 L 1753 -932.5 L 1758 -932 L 1762.5 -930.5 L 1767 -929 L 1771 -925 L 1772 -924 L 1771 -922 L 1770 -920 L 1767 -919 L 1764 -918 L 1761 -916.5 L 1758 -915 L 1757 -914 L 1719 -888 L 1716 -881 L 1708 -847 L 1701 -823 L 1694 -799 L 1687 -780 L 1685 -774 L 1680 -765.5 L 1675 -757 L 1669 -748 L 1663 -739 L 1657.5 -730.5 L 1652 -722 L 1648 -716 L 1649 -716 L 1649 -717 L 1649 -717 L 1649 -717 L 1650 -717 L 1652 -717 L 1647 -712 L 1644 -709 L 1644 -709 L 1644 -709 L 1648 -716 L 1644 -714 L 1634 -707.5 L 1624 -701 L 1610 -690.5 L 1596 -680 L 1580 -667.5 L 1564 -655 L 1548 -642 L 1532 -630 L 1519.5 -619.5 L 1507 -609 L 1496 -600 L 1485 -591 L 1477.5 -584.5 L 1470 -578 L 1466 -574 L 1466 -573 L 1464 -572 L 1464 -572 L 1464 -571 L 1469 -573 L 1474 -575.5 L 1479 -578 L 1482 -579 L 1487 -582 L 1488 -582 L 1489 -582 L 1479 -577 L 1468 -571 L 1465 -570 L 1464 -570 L 1464 -571 L 1452 -565 L 1436 -557.5 L 1420 -550 L 1403 -543.5 L 1386 -537 L 1369.5 -531.5 L 1353 -526 L 1340 -523 L 1332 -522 L 1318 -521.5 L 1304 -521 L 1292 -520.5 L 1280 -520 L 1274 -519 L 1268 -518 L 1276 -516 L 1284 -513 L 1292 -512 L 1300 -511 L 1310 -511 L 1322 -511 L 1334 -512 L 1346 -513 L 1358 -513 L 1383 -513 L 1406.5 -505.5 L 1430 -498 L 1451 -483 L 1469 -469 L 1469 -464 L 1472 -456 L 1458 -456 L 1445 -456 L 1434 -457 L 1423 -458 L 1410 -461 L 1392 -464 L 1369.5 -466.5 L 1347 -469 L 1321 -473 L 1294 -477 L 1271.5 -479 L 1249 -481 L 1227 -481 L 1223 -482 L 1219 -482 L 1215 -482 L 1211 -482 L 1197 -482 L 1183 -481.5 L 1169 -481 L 1155 -479 L 1152 -478 L 1147.5 -476.5 L 1143 -475 L 1135 -475 L 1130 -475 Z M 585 -679 L 586 -680 L 590 -681 L 594 -682 L 598 -682.5 L 602 -683 L 605.5 -683 L 609 -683 L 611 -683 L 626 -683 L 654 -679 L 670 -677 L 679.5 -676 L 689 -675 L 696 -674 L 759 -664 L 776 -577 L 786 -524 L 796 -510 L 804 -496 L 824 -494 L 829 -493 L 837 -493 L 840 -493 L 842 -491 L 841 -484 L 835 -479.5 L 829 -475 L 820.5 -472.5 L 812 -470 L 803.5 -469 L 795 -468 L 790 -468 L 771 -468 L 749.5 -473 L 728 -478 L 701 -488 L 650 -507 L 632 -618 L 626 -666 L 603 -666 L 590 -666 L 582 -666 L 581 -667 L 579 -670 Z M 807 -680 L 807 -685 L 821 -685 L 824 -685 L 831 -685 L 842 -684 L 853 -683 L 867 -680 L 882 -678 L 890.5 -676.5 L 899 -675 L 906 -674 L 969 -665 L 987 -577 L 997 -525 L 1007 -510 L 1013 -500 L 1034 -496 L 1052 -492 L 1051 -491 L 1051 -488 L 1050 -488.5 L 1049 -489 L 1046 -483 L 1039 -469 L 1001 -469 L 982 -469 L 960 -474.5 L 938 -480 L 912 -490 L 861 -509 L 843 -622 L 836 -669 L 823 -669 L 821 -669 L 820 -669 L 816 -669 L 806 -669 Z" fill="black" fill-opacity="0.25" stroke="black" stroke-width="4"/>
  <rect x="130" y="-393" width="1356" height="165" fill="none" stroke="red" stroke-width="10" /><rect x="579" y="-683" width="263" height="215" fill="none" stroke="red" stroke-width="10" /><rect x="806" y="-685" width="246" height="216" fill="none" stroke="red" stroke-width="10" /><rect x="-23" y="-618" width="389.5" height="161" fill="none" stroke="red" stroke-width="10" /><rect x="291.6" y="-779" width="244.7" height="161" fill="none" stroke="red" stroke-width="10" /><rect x="408.7" y="-940" width="214.3" height="161" fill="none" stroke="red" stroke-width="10" /><rect x="583" y="-928" width="389.5" height="161" fill="none" stroke="red" stroke-width="10" /><rect x="897.6" y="-1089" width="244.7" height="161" fill="none" stroke="red" stroke-width="10" /><rect x="1014.7" y="-1250" width="214.3" height="161" fill="none" stroke="red" stroke-width="10" /><rect x="1127" y="-617" width="389.5" height="161" fill="none" stroke="red" stroke-width="10" /><rect x="1441.6" y="-778" width="244.7" height="161" fill="none" stroke="red" stroke-width="10" /><rect x="1558.2" y="-939" width="213.8" height="161" fill="none" stroke="red" stroke-width="10" />
</svg>
