<svg xmlns="http://www.w3.org/2000/svg"
  viewBox="-18 -815 1500 635">
  <rect x="-18" y="-815" width="1500" height="635" fill="white"/>
  <path d="M 223 -269 L 158 -279 L 76 -369 L 76 -396 L 112 -383 L 151 -375 L 190 -367 L 233 -366 L 277 -365 L 331 -364 L 385 -363 L 456 -363 L 551 -363 L 776 -367 L 1001 -372 L 1118 -372 L 1225 -372 L 1393 -274 L 1402 -261 L 1412.5 -251 L 1423 -241 L 1432 -230 L 1431 -230 L 1424.5 -230 L 1418 -230 L 1407 -233 L 1377 -237 L 1361.5 -241 L 1346 -245 L 1343 -245 L 1254 -253 L 1213 -256 L 1174 -258.5 L 1135 -261 L 1098 -261 L 1043 -261 L 860 -252 L 677 -243 L 587 -242 L 540 -242 L 494.5 -243.5 L 449 -245 L 404 -249 L 359 -252 L 313.5 -257 L 268 -262 Z M 120 -762 L 129 -765 L 141.5 -765 L 154 -765 L 171 -765 L 226 -765 L 282 -752 L 338 -739 L 397 -709 L 476 -651 L 465 -651 L 444 -653 L 423 -655 L 390 -657 L 359 -660 L 335.5 -661.5 L 312 -663 L 298 -664 L 268 -664 L 245 -656 L 226 -649 L 226 -633 L 226 -625 L 232 -614 L 240 -600 L 244.5 -590 L 249 -580 L 255 -578 L 272 -572 L 287 -568.5 L 302 -565 L 319 -562 L 371 -552 L 380 -550 L 397.5 -549 L 415 -548 L 441 -548 L 525 -556 L 605 -563.5 L 685 -571 L 762 -578 L 913 -592 L 1083 -592 L 1196 -592 L 1362 -497 L 1399 -454 L 1376 -459 L 1310 -470 L 1210 -479 L 1118 -489 L 1037 -489 L 988 -486 L 963 -485 L 926.5 -484 L 890 -483 L 841 -479 L 822 -478 L 791 -478 L 760 -478 L 716 -478 L 682 -478 L 647 -479 L 612 -480 L 574 -481 L 499 -484 L 405 -495 L 340 -502 L 278 -525.5 L 216 -549 L 154 -583 L 32 -650 L 32 -707 L 32 -748 Z" fill="black" fill-opacity="0.25" stroke="black" stroke-width="4"/>
  <rect x="76" y="-396" width="1356" height="166" fill="none" stroke="red" stroke-width="10" /><rect x="32" y="-765" width="1367" height="311" fill="none" stroke="red" stroke-width="10" />
</svg>
