<svg xmlns="http://www.w3.org/2000/svg"
  viewBox="19.0 -720.1428571428571 1789.0 565.8650793650793">
  <rect x="19.0" y="-720.1428571428571" width="1789.0" height="565.8650793650793" fill="white"/>
  <path d="M 1413.0 -398.0 L 1470.0 -401.0 L 1488.0 -402.0 L 1501.0 -402.0 L 1513.0 -403.0 L 1523.0 -403.0 L 1607.0 -405.0 L 1652.0 -317.0 L 1678.0 -266.0 L 1696.0 -251.0 L 1711.0 -238.0 L 1735.0 -241.0 L 1758.0 -242.0 L 1758.0 -240.0 L 1758.0 -237.0 L 1757.5 -235.5 L 1757.0 -234.0 L 1754.0 -230.0 L 1740.0 -213.0 L 1698.0 -207.0 L 1649.0 -200.0 L 1578.0 -211.0 L 1507.0 -222.0 L 1454.0 -338.0 L 1432.0 -387.0 L 1412.0 -381.0 Z M 216.0 -269.0 L 151.0 -279.0 L 69.0 -369.0 L 69.0 -396.0 L 105.0 -384.0 L 144.0 -375.5 L 183.0 -367.0 L 227.0 -366.0 L 271.0 -364.0 L 325.0 -363.5 L 379.0 -363.0 L 449.0 -363.0 L 544.0 -363.0 L 769.0 -368.0 L 994.0 -372.0 L 1112.0 -372.0 L 1219.0 -372.0 L 1386.0 -274.0 L 1395.0 -261.0 L 1405.5 -251.0 L 1416.0 -241.0 L 1425.0 -230.0 L 1424.0 -230.0 L 1417.5 -230.0 L 1411.0 -230.0 L 1401.0 -233.0 L 1371.0 -238.0 L 1355.5 -242.0 L 1340.0 -246.0 L 1336.0 -246.0 L 1247.0 -254.0 L 1206.0 -257.0 L 1167.5 -259.5 L 1129.0 -262.0 L 1091.0 -262.0 L 1036.0 -262.0 L 854.0 -252.0 L 671.0 -243.0 L 580.0 -243.0 L 533.0 -243.0 L 488.0 -244.5 L 443.0 -246.0 L 397.0 -249.0 L 352.0 -252.0 L 306.5 -257.0 L 261.0 -262.0 Z M 514.0 -663.0 L 517.0 -667.0 L 536.0 -668.0 L 552.0 -668.0 L 583.0 -663.0 L 599.0 -661.0 L 608.5 -660.0 L 618.0 -659.0 L 625.0 -658.0 L 688.0 -648.0 L 704.0 -562.0 L 714.0 -509.0 L 725.0 -494.0 L 733.0 -480.0 L 753.0 -479.0 L 758.0 -478.0 L 765.0 -477.0 L 768.0 -477.0 L 770.0 -476.0 L 770.0 -472.0 L 765.0 -467.0 L 751.0 -453.0 L 718.0 -452.0 L 699.0 -452.0 L 677.5 -457.5 L 656.0 -463.0 L 630.0 -472.0 L 580.0 -491.0 L 561.0 -602.0 L 555.0 -650.0 L 531.0 -651.0 L 518.0 -651.0 L 510.0 -651.0 L 509.0 -652.0 L 508.0 -654.0 Z M 736.0 -665.0 L 736.0 -671.0 L 753.0 -670.0 L 767.0 -670.0 L 795.0 -665.0 L 809.0 -663.0 L 818.5 -661.0 L 828.0 -659.0 L 834.0 -658.0 L 897.0 -648.0 L 915.0 -562.0 L 926.0 -510.0 L 936.0 -494.0 L 942.0 -484.0 L 962.0 -480.0 L 979.0 -476.0 L 979.0 -476.0 L 979.0 -473.0 L 978.5 -473.5 L 978.0 -474.0 L 975.0 -468.0 L 968.0 -454.0 L 929.0 -454.0 L 910.0 -454.0 L 888.5 -459.5 L 867.0 -465.0 L 841.0 -474.0 L 791.0 -493.0 L 772.0 -607.0 L 764.0 -657.0 L 750.0 -654.0 L 736.0 -651.0 Z" fill="black" fill-opacity="0.25" stroke="black" stroke-width="4.0"/>
  <rect x="1412.0" y="-405.0" width="346.0000000000001" height="205.00000000000003" fill="none" stroke="red" stroke-width="10.0" /><rect x="69.0" y="-396.0" width="1356.0" height="166.0" fill="none" stroke="red" stroke-width="10.0" /><rect x="508.0" y="-668.0" width="262.0" height="216.00000000000003" fill="none" stroke="red" stroke-width="10.0" /><rect x="736.0" y="-671.0" width="243.0" height="217.00000000000003" fill="none" stroke="red" stroke-width="10.0" />
</svg>
