<svg xmlns="http://www.w3.org/2000/svg"
  viewBox="43.0 -1334.0 1486.5 1153.0">
  <rect x="43.0" y="-1334.0" width="1486.5" height="1153.0" fill="white"/>
  <path d="M 93.0 -397.0 L 130.0 -384.0 L 168.0 -376.0 L 206.0 -368.0 L 250.0 -367.0 L 294.0 -366.0 L 348.0 -365.0 L 402.0 -364.0 L 473.0 -364.0 L 521.0 -364.0 L 600.0 -365.0 L 679.0 -366.0 L 793.0 -368.0 L 907.0 -370.0 L 991.5 -371.5 L 1076.0 -373.0 L 1135.0 -373.0 L 1242.0 -373.0 L 1410.0 -275.0 L 1419.0 -262.0 L 1429.5 -252.0 L 1440.0 -242.0 L 1449.0 -231.0 L 1435.0 -231.0 L 1424.0 -234.0 L 1394.0 -238.0 L 1378.5 -242.0 L 1363.0 -246.0 L 1360.0 -246.0 L 1271.0 -254.0 L 1229.0 -257.0 L 1191.0 -259.5 L 1153.0 -262.0 L 1115.0 -262.0 L 1087.0 -262.0 L 1028.5 -260.0 L 970.0 -258.0 L 877.0 -253.0 L 784.0 -248.0 L 717.0 -245.5 L 650.0 -243.0 L 604.0 -243.0 L 512.0 -243.0 L 421.5 -249.0 L 331.0 -255.0 L 240.0 -270.0 L 174.0 -280.0 L 93.0 -370.0 Z M 843.0 -573.0 L 838.0 -573.0 L 835.0 -581.0 L 835.0 -582.0 L 837.0 -582.0 L 838.0 -582.0 L 841.0 -584.0 L 843.0 -585.0 L 839.0 -591.0 L 835.0 -596.0 L 841.0 -598.0 L 887.0 -615.0 L 927.5 -628.5 L 968.0 -642.0 L 1002.5 -653.0 L 1037.0 -664.0 L 1064.0 -674.0 L 1091.0 -684.0 L 1112.0 -695.0 L 1192.0 -736.0 L 1237.0 -809.0 L 1244.0 -821.0 L 1251.5 -838.5 L 1259.0 -856.0 L 1267.5 -879.5 L 1276.0 -903.0 L 1287.5 -932.0 L 1299.0 -961.0 L 1315.0 -996.0 L 1316.0 -999.0 L 1319.5 -1000.5 L 1323.0 -1002.0 L 1327.5 -1002.5 L 1332.0 -1003.0 L 1336.5 -1004.0 L 1341.0 -1005.0 L 1345.0 -1007.0 L 1357.0 -1014.0 L 1365.0 -1018.5 L 1373.0 -1023.0 L 1376.0 -1024.0 L 1389.0 -1030.0 L 1397.5 -1032.5 L 1406.0 -1035.0 L 1409.0 -1037.0 L 1422.0 -1037.0 L 1427.0 -1037.0 L 1432.5 -1036.5 L 1438.0 -1036.0 L 1443.0 -1034.0 L 1447.0 -1033.0 L 1451.5 -1032.5 L 1456.0 -1032.0 L 1461.0 -1031.0 L 1466.0 -1030.0 L 1470.5 -1028.5 L 1475.0 -1027.0 L 1479.0 -1023.0 L 1480.0 -1022.0 L 1479.0 -1020.0 L 1478.0 -1018.0 L 1475.5 -1017.0 L 1473.0 -1016.0 L 1470.0 -1014.5 L 1467.0 -1013.0 L 1465.0 -1012.0 L 1427.0 -986.0 L 1424.0 -979.0 L 1416.0 -945.0 L 1409.0 -921.0 L 1402.0 -897.0 L 1395.0 -878.0 L 1393.0 -872.0 L 1388.0 -863.5 L 1383.0 -855.0 L 1377.0 -846.0 L 1371.0 -837.0 L 1365.5 -828.5 L 1360.0 -820.0 L 1356.0 -814.0 L 1357.0 -814.0 L 1357.0 -815.0 L 1357.0 -815.0 L 1357.0 -815.0 L 1358.0 -815.0 L 1360.0 -815.0 L 1355.0 -810.0 L 1352.0 -807.0 L 1352.0 -807.0 L 1352.0 -807.0 L 1356.0 -814.0 L 1352.0 -812.0 L 1342.0 -805.5 L 1332.0 -799.0 L 1318.0 -788.5 L 1304.0 -778.0 L 1288.0 -765.5 L 1272.0 -753.0 L 1256.0 -740.0 L 1240.0 -728.0 L 1227.5 -717.5 L 1215.0 -707.0 L 1204.0 -698.0 L 1193.0 -689.0 L 1185.5 -682.5 L 1178.0 -676.0 L 1174.0 -672.0 L 1174.0 -671.0 L 1172.0 -670.0 L 1172.0 -670.0 L 1172.0 -669.0 L 1178.0 -671.0 L 1182.5 -673.5 L 1187.0 -676.0 L 1191.0 -677.0 L 1196.0 -680.0 L 1197.0 -680.0 L 1197.0 -680.0 L 1194.0 -679.0 L 1193.0 -678.0 L 1190.0 -676.0 L 1187.0 -674.0 L 1183.5 -672.5 L 1180.0 -671.0 L 1177.0 -669.5 L 1174.0 -668.0 L 1173.0 -668.0 L 1172.0 -668.0 L 1172.0 -669.0 L 1160.0 -663.0 L 1144.0 -655.5 L 1128.0 -648.0 L 1111.0 -641.5 L 1094.0 -635.0 L 1077.5 -629.5 L 1061.0 -624.0 L 1048.0 -621.0 L 1039.0 -620.0 L 1025.5 -619.5 L 1012.0 -619.0 L 1000.0 -618.5 L 988.0 -618.0 L 982.5 -617.0 L 977.0 -616.0 L 984.0 -614.0 L 992.0 -611.0 L 1000.5 -610.0 L 1009.0 -609.0 L 1018.0 -609.0 L 1030.0 -609.0 L 1042.0 -610.0 L 1054.0 -611.0 L 1067.0 -611.0 L 1070.0 -611.0 L 1073.0 -611.0 L 1076.0 -611.0 L 1079.0 -610.0 L 1124.0 -607.0 L 1159.0 -581.0 L 1178.0 -567.0 L 1177.0 -562.0 L 1180.0 -554.0 L 1167.0 -554.0 L 1154.0 -554.0 L 1142.5 -555.0 L 1131.0 -556.0 L 1118.0 -559.0 L 1101.0 -562.0 L 1078.5 -564.5 L 1056.0 -567.0 L 1029.0 -571.0 L 1003.0 -575.0 L 980.0 -577.0 L 957.0 -579.0 L 935.0 -579.0 L 931.0 -580.0 L 927.0 -580.0 L 923.0 -580.0 L 919.0 -580.0 L 905.0 -580.0 L 891.0 -579.5 L 877.0 -579.0 L 863.0 -577.0 L 860.0 -576.0 L 855.5 -574.5 L 851.0 -573.0 Z M 222.0 -828.0 L 222.0 -829.0 L 224.0 -829.0 L 225.0 -829.0 L 228.0 -831.0 L 230.0 -832.0 L 226.0 -838.0 L 222.0 -843.0 L 228.0 -845.0 L 274.0 -862.0 L 314.5 -875.5 L 355.0 -889.0 L 389.0 -900.0 L 423.0 -911.0 L 450.5 -921.0 L 478.0 -931.0 L 499.0 -942.0 L 579.0 -983.0 L 624.0 -1056.0 L 631.0 -1068.0 L 638.5 -1085.5 L 646.0 -1103.0 L 654.5 -1126.5 L 663.0 -1150.0 L 674.5 -1179.0 L 686.0 -1208.0 L 702.0 -1243.0 L 703.0 -1246.0 L 706.5 -1247.5 L 710.0 -1249.0 L 714.0 -1249.5 L 718.0 -1250.0 L 723.0 -1251.0 L 728.0 -1252.0 L 731.0 -1254.0 L 743.0 -1261.0 L 751.5 -1265.5 L 760.0 -1270.0 L 763.0 -1271.0 L 776.0 -1277.0 L 784.0 -1279.5 L 792.0 -1282.0 L 795.0 -1284.0 L 809.0 -1284.0 L 814.0 -1284.0 L 819.0 -1283.5 L 824.0 -1283.0 L 830.0 -1281.0 L 834.0 -1280.0 L 838.5 -1279.5 L 843.0 -1279.0 L 848.0 -1278.0 L 853.0 -1277.0 L 857.5 -1275.5 L 862.0 -1274.0 L 866.0 -1270.0 L 867.0 -1269.0 L 866.0 -1267.0 L 865.0 -1265.0 L 862.0 -1264.0 L 859.0 -1263.0 L 856.5 -1262.0 L 854.0 -1261.0 L 852.0 -1259.0 L 814.0 -1233.0 L 811.0 -1226.0 L 803.0 -1192.0 L 796.0 -1168.0 L 789.0 -1144.0 L 781.0 -1125.0 L 779.0 -1119.0 L 774.5 -1110.5 L 770.0 -1102.0 L 764.0 -1093.0 L 758.0 -1084.0 L 752.5 -1075.5 L 747.0 -1067.0 L 743.0 -1061.0 L 744.0 -1061.0 L 744.0 -1062.0 L 744.0 -1062.0 L 744.0 -1062.0 L 745.0 -1062.0 L 747.0 -1062.0 L 742.0 -1057.0 L 739.0 -1054.0 L 738.0 -1054.0 L 738.0 -1054.0 L 743.0 -1061.0 L 739.0 -1059.0 L 729.0 -1052.5 L 719.0 -1046.0 L 705.0 -1035.5 L 691.0 -1025.0 L 675.0 -1012.5 L 659.0 -1000.0 L 643.0 -987.0 L 627.0 -975.0 L 614.5 -964.5 L 602.0 -954.0 L 591.0 -946.0 L 580.0 -937.0 L 572.5 -930.0 L 565.0 -923.0 L 561.0 -919.0 L 561.0 -918.0 L 559.0 -917.0 L 559.0 -917.0 L 559.0 -916.0 L 565.0 -918.0 L 569.5 -920.5 L 574.0 -923.0 L 578.0 -925.0 L 583.0 -928.0 L 583.0 -927.0 L 583.0 -927.0 L 581.0 -926.0 L 580.0 -925.0 L 576.5 -923.0 L 573.0 -921.0 L 570.0 -919.5 L 567.0 -918.0 L 564.0 -916.5 L 561.0 -915.0 L 560.0 -915.0 L 559.0 -915.0 L 559.0 -916.0 L 547.0 -910.0 L 531.0 -902.5 L 515.0 -895.0 L 498.0 -888.5 L 481.0 -882.0 L 464.5 -876.5 L 448.0 -871.0 L 435.0 -868.0 L 426.0 -867.0 L 412.0 -866.5 L 398.0 -866.0 L 386.5 -865.5 L 375.0 -865.0 L 369.0 -864.5 L 363.0 -864.0 L 371.0 -861.0 L 379.0 -858.0 L 387.5 -857.0 L 396.0 -856.0 L 405.0 -856.0 L 417.0 -856.0 L 429.0 -857.0 L 441.0 -858.0 L 454.0 -858.0 L 457.0 -858.0 L 460.0 -858.0 L 463.0 -858.0 L 466.0 -857.0 L 511.0 -854.0 L 545.0 -828.0 L 564.0 -814.0 L 564.0 -809.0 L 567.0 -801.0 L 553.0 -801.0 L 540.0 -801.0 L 529.0 -802.0 L 518.0 -803.0 L 505.0 -806.0 L 488.0 -809.0 L 465.0 -811.5 L 442.0 -814.0 L 416.0 -818.0 L 390.0 -822.0 L 367.0 -824.0 L 344.0 -826.0 L 322.0 -826.0 L 318.0 -827.0 L 314.0 -827.0 L 310.0 -827.0 L 306.0 -827.0 L 292.0 -827.0 L 278.0 -826.5 L 264.0 -826.0 L 250.0 -824.0 L 247.0 -823.0 L 242.5 -821.5 L 238.0 -820.0 L 230.0 -820.0 L 225.0 -820.0 Z M 338.0 -725.0 L 341.0 -730.0 L 357.0 -730.0 L 373.0 -730.0 L 388.5 -728.5 L 404.0 -727.0 L 419.0 -725.0 L 466.0 -718.0 L 542.0 -706.0 L 560.0 -605.0 L 571.0 -543.0 L 585.0 -527.0 L 599.0 -511.0 L 616.0 -509.0 L 637.0 -507.0 L 637.0 -505.0 L 637.0 -501.0 L 630.0 -494.0 L 614.0 -478.0 L 577.0 -479.0 L 555.0 -479.0 L 530.0 -484.0 L 505.0 -489.0 L 473.0 -501.0 L 416.0 -522.0 L 393.0 -654.0 L 384.0 -710.0 L 358.0 -710.0 L 343.0 -710.0 L 334.0 -710.0 L 332.0 -712.0 L 329.0 -713.0 Z" fill="black" fill-opacity="0.25" stroke="black" stroke-width="4.0"/>
  <rect x="93.0" y="-397.0" width="1356.0" height="166.0" fill="none" stroke="red" stroke-width="10.0" /><rect x="329.0" y="-730.0" width="308.0" height="252.0" fill="none" stroke="red" stroke-width="10.0" /><rect x="835.0" y="-715.0" width="389.49999999999994" height="160.99999999999991" fill="none" stroke="red" stroke-width="10.0" /><rect x="1151.0" y="-876.0" width="243.30000000000007" height="161.00000000000003" fill="none" stroke="red" stroke-width="10.0" /><rect x="1266.2" y="-1037.0" width="213.79999999999998" height="160.99999999999991" fill="none" stroke="red" stroke-width="10.0" /><rect x="222.0" y="-962.0" width="389.50000000000006" height="160.99999999999991" fill="none" stroke="red" stroke-width="10.0" /><rect x="538.0" y="-1123.0" width="242.29999999999995" height="161.00000000000003" fill="none" stroke="red" stroke-width="10.0" /><rect x="653.2" y="-1284.0" width="213.79999999999998" height="161.00000000000003" fill="none" stroke="red" stroke-width="10.0" />
</svg>
