<svg xmlns="http://www.w3.org/2000/svg"
  viewBox="-36.01010101010101 -796.0 2068.0101010101007 634.0">
  <rect x="-36.01010101010101" y="-796.0" width="2068.0101010101007" height="634.0" fill="white"/>
  <path d="M 84.0 -743.0 L 91.0 -746.0 L 101.0 -746.0 L 111.0 -746.0 L 125.0 -746.0 L 168.0 -746.0 L 214.0 -732.0 L 258.0 -719.0 L 306.0 -690.0 L 369.0 -632.0 L 360.0 -632.0 L 343.5 -633.5 L 327.0 -635.0 L 300.0 -638.0 L 275.0 -641.0 L 256.5 -642.5 L 238.0 -644.0 L 226.0 -644.0 L 203.0 -644.0 L 184.0 -637.0 L 168.0 -630.0 L 168.0 -613.0 L 168.0 -605.0 L 174.0 -594.0 L 181.0 -580.0 L 184.5 -570.0 L 188.0 -560.0 L 193.0 -558.0 L 207.0 -552.0 L 218.5 -549.0 L 230.0 -546.0 L 244.0 -543.0 L 286.0 -532.0 L 293.0 -530.0 L 307.0 -529.5 L 321.0 -529.0 L 342.0 -529.0 L 410.0 -537.0 L 473.5 -544.5 L 537.0 -552.0 L 599.0 -558.0 L 720.0 -571.0 L 857.0 -573.0 L 947.0 -573.0 L 1080.0 -477.0 L 1110.0 -435.0 L 1091.0 -440.0 L 1038.0 -451.0 L 958.0 -460.0 L 884.0 -470.0 L 819.0 -470.0 L 780.0 -466.0 L 760.0 -465.0 L 730.5 -464.0 L 701.0 -463.0 L 662.0 -460.0 L 647.0 -459.0 L 622.5 -458.5 L 598.0 -458.0 L 562.0 -458.0 L 535.0 -458.0 L 506.5 -459.0 L 478.0 -460.0 L 449.0 -462.0 L 388.0 -465.0 L 313.0 -475.0 L 261.0 -482.0 L 211.0 -505.5 L 161.0 -529.0 L 111.0 -563.0 L 13.0 -630.0 L 14.0 -688.0 L 14.0 -729.0 Z M 1218.0 -677.0 L 1222.0 -682.0 L 1241.0 -682.0 L 1263.0 -682.0 L 1299.0 -677.0 L 1346.0 -669.0 L 1422.0 -657.0 L 1440.0 -557.0 L 1451.0 -495.0 L 1465.0 -479.0 L 1479.0 -463.0 L 1496.0 -460.0 L 1517.0 -458.0 L 1516.0 -457.0 L 1516.0 -453.0 L 1510.0 -446.0 L 1494.0 -430.0 L 1457.0 -431.0 L 1435.0 -431.0 L 1409.5 -436.0 L 1384.0 -441.0 L 1352.0 -452.0 L 1295.0 -473.0 L 1273.0 -605.0 L 1263.0 -661.0 L 1238.0 -661.0 L 1223.0 -661.0 L 1214.0 -661.0 L 1212.0 -663.0 L 1209.0 -666.0 Z M 1463.0 -679.0 L 1463.0 -683.0 L 1484.0 -683.0 L 1501.0 -683.0 L 1534.0 -679.0 L 1579.0 -671.0 L 1654.0 -658.0 L 1673.0 -558.0 L 1684.0 -497.0 L 1698.0 -479.0 L 1709.0 -464.0 L 1729.0 -462.0 L 1750.0 -460.0 L 1749.0 -457.0 L 1749.0 -454.0 L 1743.0 -448.0 L 1727.0 -433.0 L 1690.0 -432.0 L 1643.0 -432.0 L 1587.0 -454.0 L 1528.0 -477.0 L 1505.0 -610.0 L 1495.0 -667.0 L 1480.0 -665.0 L 1463.0 -662.0 Z M 388.0 -251.0 L 301.0 -261.0 L 194.0 -351.0 L 194.0 -377.0 L 242.0 -365.0 L 293.5 -357.0 L 345.0 -349.0 L 402.0 -348.0 L 460.0 -346.0 L 531.0 -345.5 L 602.0 -345.0 L 695.0 -345.0 L 820.0 -345.0 L 1117.0 -349.0 L 1413.0 -353.0 L 1568.0 -354.0 L 1710.0 -354.0 L 1930.0 -256.0 L 1942.0 -243.0 L 1956.0 -233.0 L 1970.0 -223.0 L 1982.0 -212.0 L 1980.0 -212.0 L 1971.5 -212.0 L 1963.0 -212.0 L 1949.0 -215.0 L 1910.0 -220.0 L 1889.5 -223.5 L 1869.0 -227.0 L 1864.0 -227.0 L 1746.0 -235.0 L 1693.0 -238.0 L 1641.5 -240.5 L 1590.0 -243.0 L 1541.0 -243.0 L 1469.0 -243.0 L 1228.0 -234.0 L 987.0 -225.0 L 868.0 -224.0 L 806.0 -224.0 L 746.0 -225.5 L 686.0 -227.0 L 626.0 -230.0 L 566.0 -233.0 L 507.0 -238.5 L 448.0 -244.0 Z" fill="black" fill-opacity="0.25" stroke="black" stroke-width="4.0"/>
  <rect x="13.0" y="-746.0" width="1097.0000000000002" height="311.0" fill="none" stroke="red" stroke-width="10.0" /><rect x="1209.0" y="-682.0" width="307.99999999999983" height="252.00000000000006" fill="none" stroke="red" stroke-width="10.0" /><rect x="1463.0" y="-683.0" width="286.99999999999994" height="251.00000000000006" fill="none" stroke="red" stroke-width="10.0" /><rect x="194.0" y="-377.0" width="1788.0" height="165.0" fill="none" stroke="red" stroke-width="10.0" />
</svg>
