<svg xmlns="http://www.w3.org/2000/svg"
  viewBox="13 -461.044 1834 298.767">
  <rect x="13" y="-461.044" width="1834" height="298.767" fill="white"/>
  <path d="M 214 -262 L 145 -271 L 63 -361 L 63 -388 L 101 -375 L 140.5 -367.5 L 180 -360 L 224 -359 L 269 -358 L 325 -357 L 381 -356 L 452 -356 L 549 -356 L 780 -360 L 1010 -365 L 1130 -365 L 1240 -365 L 1412 -266 L 1422 -254 L 1431.5 -244 L 1441 -234 L 1451 -223 L 1449 -223 L 1442 -223 L 1435 -223 L 1425 -226 L 1395 -231 L 1379.5 -234.5 L 1364 -238 L 1361 -238 L 1270 -246 L 1227 -249 L 1187 -251.5 L 1147 -254 L 1108 -254 L 1051 -254 L 866 -244 L 677 -234 L 586 -235 L 537 -235 L 491 -236.5 L 445 -238 L 399 -241 L 354 -244 L 307 -249 L 260 -254 Z M 1452 -406 L 1509 -409 L 1527 -410 L 1540 -410 L 1552 -411 L 1562 -411 L 1646 -413 L 1691 -325 L 1717 -274 L 1735 -259 L 1750 -246 L 1774 -249 L 1797 -250 L 1797 -248 L 1797 -245 L 1796.5 -243.5 L 1796 -242 L 1793 -238 L 1779 -221 L 1737 -215 L 1688 -208 L 1617 -219 L 1546 -230 L 1493 -346 L 1471 -395 L 1451 -389 Z" fill="black" fill-opacity="0.25" stroke="black" stroke-width="4"/>
  <rect x="63" y="-388" width="1388" height="165" fill="none" stroke="red" stroke-width="10" /><rect x="1451" y="-413" width="346" height="205" fill="none" stroke="red" stroke-width="10" />
</svg>
