<svg xmlns="http://www.w3.org/2000/svg"
  viewBox="23 -442 1456 266">
  <rect x="23" y="-442" width="1456" height="266" fill="white"/>
  <path d="M 220 -265 L 155 -275 L 73 -365 L 73 -392 L 109 -379 L 148 -371.5 L 187 -364 L 230 -362 L 274 -361 L 328 -360 L 382 -359 L 453 -359 L 548 -359 L 773 -364 L 998 -369 L 1115 -368 L 1222 -368 L 1390 -270 L 1399 -257 L 1409.5 -247 L 1420 -237 L 1429 -226 L 1428 -226 L 1421.5 -226 L 1415 -226 L 1404 -229 L 1374 -233 L 1358.5 -237 L 1343 -241 L 1340 -241 L 1251 -249 L 1210 -252 L 1171 -254.5 L 1132 -257 L 1095 -257 L 1040 -257 L 857 -248 L 674 -239 L 584 -239 L 537 -239 L 491.5 -240 L 446 -241 L 401 -245 L 356 -248 L 310.5 -253 L 265 -258 Z" fill="black" fill-opacity="0.25" stroke="black" stroke-width="4"/>
  <rect x="73" y="-392" width="1356" height="166" fill="none" stroke="red" stroke-width="10" />
</svg>
