<svg xmlns="http://www.w3.org/2000/svg"
  viewBox="-18.0 -815.0 1500.0 635.0">
  <rect x="-18.0" y="-815.0" width="1500.0" height="635.0" fill="white"/>
  <path d="M 223.0 -269.0 L 158.0 -279.0 L 76.0 -369.0 L 76.0 -396.0 L 112.0 -383.0 L 151.0 -375.0 L 190.0 -367.0 L 233.0 -366.0 L 277.0 -365.0 L 331.0 -364.0 L 385.0 -363.0 L 456.0 -363.0 L 551.0 -363.0 L 776.0 -367.0 L 1001.0 -372.0 L 1118.0 -372.0 L 1225.0 -372.0 L 1393.0 -274.0 L 1402.0 -261.0 L 1412.5 -251.0 L 1423.0 -241.0 L 1432.0 -230.0 L 1431.0 -230.0 L 1424.5 -230.0 L 1418.0 -230.0 L 1407.0 -233.0 L 1377.0 -237.0 L 1361.5 -241.0 L 1346.0 -245.0 L 1343.0 -245.0 L 1254.0 -253.0 L 1213.0 -256.0 L 1174.0 -258.5 L 1135.0 -261.0 L 1098.0 -261.0 L 1043.0 -261.0 L 860.0 -252.0 L 677.0 -243.0 L 587.0 -242.0 L 540.0 -242.0 L 494.5 -243.5 L 449.0 -245.0 L 404.0 -249.0 L 359.0 -252.0 L 313.5 -257.0 L 268.0 -262.0 Z M 120.0 -762.0 L 129.0 -765.0 L 141.5 -765.0 L 154.0 -765.0 L 171.0 -765.0 L 226.0 -765.0 L 282.0 -752.0 L 338.0 -739.0 L 397.0 -709.0 L 476.0 -651.0 L 465.0 -651.0 L 444.0 -653.0 L 423.0 -655.0 L 390.0 -657.0 L 359.0 -660.0 L 335.5 -661.5 L 312.0 -663.0 L 298.0 -664.0 L 268.0 -664.0 L 245.0 -656.0 L 226.0 -649.0 L 226.0 -633.0 L 226.0 -625.0 L 232.0 -614.0 L 240.0 -600.0 L 244.5 -590.0 L 249.0 -580.0 L 255.0 -578.0 L 272.0 -572.0 L 287.0 -568.5 L 302.0 -565.0 L 319.0 -562.0 L 371.0 -552.0 L 380.0 -550.0 L 397.5 -549.0 L 415.0 -548.0 L 441.0 -548.0 L 525.0 -556.0 L 605.0 -563.5 L 685.0 -571.0 L 762.0 -578.0 L 913.0 -592.0 L 1083.0 -592.0 L 1196.0 -592.0 L 1362.0 -497.0 L 1399.0 -454.0 L 1376.0 -459.0 L 1310.0 -470.0 L 1210.0 -479.0 L 1118.0 -489.0 L 1037.0 -489.0 L 988.0 -486.0 L 963.0 -485.0 L 926.5 -484.0 L 890.0 -483.0 L 841.0 -479.0 L 822.0 -478.0 L 791.0 -478.0 L 760.0 -478.0 L 716.0 -478.0 L 682.0 -478.0 L 647.0 -479.0 L 612.0 -480.0 L 574.0 -481.0 L 499.0 -484.0 L 405.0 -495.0 L 340.0 -502.0 L 278.0 -525.5 L 216.0 -549.0 L 154.0 -583.0 L 32.0 -650.0 L 32.0 -707.0 L 32.0 -748.0 Z" fill="black" fill-opacity="0.25" stroke="black" stroke-width="4.0"/>
  <rect x="76.0" y="-396.0" width="1355.9999999999998" height="166.0" fill="none" stroke="red" stroke-width="10.0" /><rect x="32.0" y="-765.0" width="1367.0" height="311.0" fill="none" stroke="red" stroke-width="10.0" />
</svg>
