<svg xmlns="http://www.w3.org/2000/svg"
  viewBox="58 -912 1972 737">
  <rect x="58" y="-912" width="1972" height="737" fill="white"/>
  <path d="M 171 -391 L 220 -378 L 271.5 -370.5 L 323 -363 L 381 -361 L 440 -360 L 512 -359 L 584 -358 L 678 -358 L 742 -358 L 848 -359 L 954 -360 L 1105 -363 L 1256 -365 L 1369.5 -366 L 1483 -367 L 1562 -367 L 1707 -367 L 1928 -269 L 1940 -256 L 1954 -246 L 1968 -236 L 1980 -225 L 1971 -225 L 1963 -225.5 L 1955 -226 L 1947 -228 L 1907 -232 L 1886.5 -236 L 1866 -240 L 1862 -240 L 1743 -248 L 1688 -251 L 1636 -253.5 L 1584 -256 L 1534 -256 L 1497 -256 L 1418.5 -254 L 1340 -252 L 1218 -247 L 1095 -242 L 1004.5 -240 L 914 -238 L 853 -238 L 729 -238 L 609 -243.5 L 489 -249 L 367 -264 L 280 -274 L 171 -364 Z M 108 -744 L 108 -772 L 122 -791.5 L 136 -811 L 158.5 -824.5 L 181 -838 L 209 -845 L 237 -852 L 265.5 -856 L 294 -860 L 321 -861 L 348 -862 L 368 -862 L 486 -859 L 599 -836 L 712 -813 L 824 -777 L 945 -738 L 1088 -641 L 1231 -543 L 1230 -500 L 1230 -483 L 1194 -483 L 1147 -483 L 1096.5 -491 L 1046 -499 L 1000 -511 L 1014 -612 L 840 -700 L 755 -741 L 668.5 -763.5 L 582 -786 L 487 -786 L 461 -786 L 430.5 -783 L 400 -780 L 372.5 -769.5 L 345 -759 L 326 -739 L 307 -719 L 304 -686 L 301 -653 L 348 -617 L 409 -570 L 412 -571 L 342 -573 L 290.5 -581.5 L 239 -590 L 202 -605 L 157 -625 L 125 -674 L 108 -714 Z M 1290 -717 L 1292 -720 L 1306 -719 L 1312 -719 L 1323 -719 L 1334 -719 L 1344 -718.5 L 1354 -718 L 1365 -717 L 1412 -709 L 1481 -696 L 1499 -601 L 1511 -540 L 1522 -526 L 1533 -513 L 1552 -509 L 1557 -509 L 1566 -507 L 1569 -507 L 1571 -506 L 1570 -499 L 1563 -494 L 1556 -489 L 1546.5 -486 L 1537 -483 L 1527.5 -482 L 1518 -481 L 1512 -481 L 1490 -481 L 1468 -486.5 L 1446 -492 L 1417 -502 L 1362 -522 L 1341 -648 L 1332 -701 L 1309 -701 L 1294 -701 L 1285 -701 L 1284 -702 L 1281 -705 Z M 1538 -721 L 1551 -721 L 1562.5 -720 L 1574 -719 L 1585 -718 L 1596 -717 L 1607 -715 L 1618 -713 L 1630 -710 L 1700 -696 L 1718 -601 L 1728 -543 L 1743 -528 L 1753 -513 L 1772 -510 L 1777 -509 L 1779.5 -508 L 1782 -507 L 1785 -507 L 1790 -507 L 1790 -500 L 1783 -495 L 1776 -490 L 1767 -487.5 L 1758 -485 L 1749 -483.5 L 1740 -482 L 1735 -482 L 1697 -482 L 1637 -504 L 1583 -525 L 1562 -653 L 1553 -704 L 1537 -704 L 1535 -704 L 1527 -704 L 1524 -706.5 L 1521 -709 L 1521 -718 L 1521 -721 Z" fill="black" fill-opacity="0.25" stroke="black" stroke-width="4"/>
  <rect x="171" y="-391" width="1809" height="166" fill="none" stroke="red" stroke-width="10" /><rect x="108" y="-862" width="1123" height="379" fill="none" stroke="red" stroke-width="10" /><rect x="1281" y="-720" width="290" height="239" fill="none" stroke="red" stroke-width="10" /><rect x="1521" y="-721" width="269" height="239" fill="none" stroke="red" stroke-width="10" />
</svg>
