<svg xmlns="http://www.w3.org/2000/svg"
  viewBox="40 -1350 1500.4 1174">
  <rect x="40" y="-1350" width="1500.4" height="1174" fill="white"/>
  <path d="M 248 -362 L 292 -361 L 345.5 -360 L 399 -359 L 470 -359 L 518 -359 L 597 -360 L 676 -361 L 790 -364 L 904 -366 L 988.5 -367.5 L 1073 -369 L 1132 -369 L 1239 -369 L 1407 -270 L 1416 -257 L 1426.5 -247 L 1437 -237 L 1446 -226 L 1432 -226 L 1421 -230 L 1391 -234 L 1375.5 -238 L 1360 -242 L 1357 -242 L 1268 -250 L 1226 -253 L 1188 -255 L 1150 -257 L 1112 -257 L 1084 -257 L 1025.5 -255 L 967 -253 L 875 -248 L 782 -243 L 714.5 -241 L 647 -239 L 601 -239 L 509 -239 L 418.5 -245 L 328 -251 L 237 -265 L 171 -275 L 90 -365 L 90 -392 L 127 -379 L 165.5 -371 L 204 -363 Z M 219 -844 L 219 -845 L 220 -846 L 221 -846 L 225 -847 L 227 -848 L 223 -854 L 219 -859 L 225 -861 L 272 -878 L 312 -891.5 L 352 -905 L 386 -916.5 L 420 -928 L 447.5 -938 L 475 -948 L 495 -958 L 575 -998 L 620 -1072 L 627 -1084 L 634.5 -1101.5 L 642 -1119 L 651 -1142.5 L 660 -1166 L 671.5 -1195.5 L 683 -1225 L 698 -1260 L 699 -1263 L 703 -1264.5 L 707 -1266 L 711 -1266.5 L 715 -1267 L 719.5 -1267.5 L 724 -1268 L 728 -1271 L 740 -1278 L 748 -1282 L 756 -1286 L 759 -1288 L 772 -1294 L 780.5 -1296.5 L 789 -1299 L 792 -1300 L 805 -1300 L 810 -1300 L 815.5 -1299.5 L 821 -1299 L 826 -1298 L 830 -1297 L 834.5 -1296 L 839 -1295 L 844 -1294.5 L 849 -1294 L 853.5 -1292 L 858 -1290 L 862 -1286 L 863 -1285 L 862 -1283.5 L 861 -1282 L 858.5 -1280.5 L 856 -1279 L 853 -1278 L 850 -1277 L 848 -1276 L 810 -1250 L 808 -1243 L 802 -1218 L 796.5 -1196.5 L 791 -1175 L 783.5 -1155.5 L 776 -1136 L 765.5 -1117 L 755 -1098 L 740 -1078 L 741 -1078 L 741 -1078 L 741 -1078 L 741 -1078 L 742 -1079 L 744 -1079 L 739 -1074 L 735 -1070 L 735 -1070 L 735 -1070.5 L 735 -1071 L 736 -1072 L 737 -1073 L 738 -1074.5 L 739 -1076 L 740 -1078 L 736 -1076 L 725.5 -1069 L 715 -1062 L 701.5 -1052 L 688 -1042 L 671.5 -1029 L 655 -1016 L 639 -1004 L 623 -992 L 610.5 -981.5 L 598 -971 L 587 -962 L 576 -953 L 569 -946.5 L 562 -940 L 558 -936 L 558 -935 L 556 -933 L 556 -933 L 555 -932 L 561 -934 L 565.5 -936.5 L 570 -939 L 574 -941 L 579 -944 L 580 -944 L 580 -944 L 578 -943 L 577 -942 L 573.5 -940 L 570 -938 L 566.5 -936 L 563 -934 L 560.5 -933 L 558 -932 L 556 -932 L 555 -932 L 555 -932 L 543 -926 L 527 -919 L 511 -912 L 494.5 -905 L 478 -898 L 461 -892.5 L 444 -887 L 431 -885 L 422 -884 L 408.5 -883.5 L 395 -883 L 383.5 -882.5 L 372 -882 L 366 -881 L 360 -880 L 367 -877 L 375 -874 L 384 -873 L 393 -872 L 402 -872 L 414 -872 L 426.5 -873 L 439 -874 L 452 -874 L 454 -874 L 457 -874 L 460 -874 L 462 -874 L 507 -871 L 542 -844 L 561 -830 L 561 -825 L 564 -817 L 550 -818 L 537 -818 L 525.5 -819 L 514 -820 L 501 -822 L 484 -825 L 461.5 -828 L 439 -831 L 412 -835 L 386 -839 L 363 -840.5 L 340 -842 L 318 -842 L 314 -843 L 310 -843 L 306 -843 L 302 -843 L 288 -843 L 274.5 -842.5 L 261 -842 L 247 -841 L 244 -840 L 239 -838.5 L 234 -837 L 227 -837 L 222 -836 Z M 846 -591 L 846 -592 L 848 -592 L 849 -592 L 852 -594 L 854 -595 L 850 -601 L 846 -606 L 852 -608 L 898 -625 L 938.5 -638.5 L 979 -652 L 1013 -663 L 1047 -674 L 1074.5 -684 L 1102 -694 L 1123 -705 L 1203 -745 L 1248 -819 L 1255 -831 L 1262.5 -848.5 L 1270 -866 L 1278.5 -889.5 L 1287 -913 L 1298.5 -942 L 1310 -971 L 1326 -1007 L 1327 -1010 L 1330 -1011 L 1333 -1012 L 1337.5 -1012.5 L 1342 -1013 L 1346.5 -1014 L 1351 -1015 L 1355 -1017 L 1367 -1024 L 1375.5 -1028.5 L 1384 -1033 L 1387 -1034 L 1400 -1040 L 1408.5 -1043 L 1417 -1046 L 1419 -1047 L 1433 -1047 L 1438 -1047 L 1443 -1046.5 L 1448 -1046 L 1454 -1044 L 1458 -1043 L 1462.5 -1042.5 L 1467 -1042 L 1472 -1041 L 1477 -1040 L 1481.5 -1038.5 L 1486 -1037 L 1490 -1033 L 1491 -1032 L 1489.5 -1030 L 1488 -1028 L 1485.5 -1027 L 1483 -1026 L 1480 -1025 L 1477 -1024 L 1476 -1022 L 1438 -997 L 1435 -989 L 1427 -955 L 1420 -931 L 1413 -907 L 1405 -888 L 1403 -882 L 1398.5 -873.5 L 1394 -865 L 1388 -856 L 1382 -847 L 1376.5 -838.5 L 1371 -830 L 1367 -824 L 1368 -824 L 1368 -825 L 1368 -825 L 1368 -825 L 1369 -825 L 1371 -825 L 1366 -820 L 1363 -817 L 1362 -817 L 1362 -817 L 1367 -824 L 1363 -822 L 1353 -815.5 L 1343 -809 L 1329 -798.5 L 1315 -788 L 1299 -775.5 L 1283 -763 L 1267 -750 L 1251 -738 L 1238.5 -727.5 L 1226 -717 L 1215 -709 L 1204 -700 L 1196.5 -693 L 1189 -686 L 1185 -682 L 1185 -681 L 1183 -680 L 1183 -680 L 1183 -679 L 1189 -681 L 1193.5 -683.5 L 1198 -686 L 1202 -688 L 1207 -691 L 1208 -691 L 1208 -691 L 1205 -689 L 1204 -688 L 1200.5 -686 L 1197 -684 L 1194 -682.5 L 1191 -681 L 1188 -679.5 L 1185 -678 L 1184 -678 L 1183 -678 L 1183 -679 L 1171 -673 L 1155 -665.5 L 1139 -658 L 1122 -651.5 L 1105 -645 L 1088.5 -639.5 L 1072 -634 L 1059 -632 L 1051 -631 L 1036.5 -630.5 L 1022 -630 L 1010.5 -629.5 L 999 -629 L 993 -628 L 987 -627 L 995 -624 L 1003 -621 L 1011.5 -620 L 1020 -619 L 1029 -619 L 1041 -619 L 1053.5 -620 L 1066 -621 L 1079 -621 L 1081 -621 L 1084 -620.5 L 1087 -620 L 1090 -620 L 1135 -617 L 1169 -591 L 1188 -577 L 1188 -572 L 1191 -564 L 1177 -564 L 1164 -564 L 1153 -565.5 L 1142 -567 L 1129 -569 L 1112 -572 L 1089 -574.5 L 1066 -577 L 1040 -581 L 1014 -585 L 991 -587 L 968 -589 L 946 -589 L 942 -590 L 938 -590 L 934 -590 L 930 -590 L 916 -590 L 902 -589.5 L 888 -589 L 874 -588 L 871 -587 L 866.5 -585 L 862 -583 L 854 -583 L 849 -583 Z M 233 -711 L 235 -714 L 250 -714 L 255 -714 L 267 -714 L 278 -714 L 288 -713.5 L 298 -713 L 309 -711 L 355 -703 L 424 -690 L 443 -595 L 455 -534 L 466 -520 L 477 -507 L 496 -503 L 501 -503 L 510 -501 L 513 -501 L 515 -500 L 515 -497 L 509 -490 L 499 -480 L 484 -477.5 L 469 -475 L 456 -475 L 434 -475 L 412 -480.5 L 390 -486 L 360 -496 L 305 -516 L 285 -642 L 276 -695 L 252 -695 L 238 -695 L 229 -695 L 228 -696 L 224 -699 Z M 465 -712 L 465 -715 L 482 -715 L 495 -715 L 506.5 -714.5 L 518 -714 L 529 -712.5 L 540 -711 L 551 -709 L 562 -707 L 574 -704 L 644 -690 L 662 -595 L 673 -538 L 687 -522 L 697 -507 L 716 -504 L 721 -503 L 723.5 -502 L 726 -501 L 729 -501 L 734 -501 L 734 -494 L 727 -489.5 L 720 -485 L 711 -482 L 702 -479 L 693 -477.5 L 684 -476 L 679 -476 L 641 -476 L 581 -498 L 526 -519 L 505 -647 L 497 -698 L 481 -698 L 479 -698 L 471 -698 L 468 -700 L 465 -702 Z" fill="black" fill-opacity="0.25" stroke="black" stroke-width="4"/>
  <rect x="90" y="-392" width="1356" height="166" fill="none" stroke="red" stroke-width="10" /><rect x="224" y="-714" width="291" height="239" fill="none" stroke="red" stroke-width="10" /><rect x="465" y="-715" width="269" height="239" fill="none" stroke="red" stroke-width="10" /><rect x="219" y="-978.6" width="388" height="160.7" fill="none" stroke="red" stroke-width="10" /><rect x="536.2" y="-1139.3" width="241.1" height="160.7" fill="none" stroke="red" stroke-width="10" /><rect x="649.8" y="-1300" width="213.2" height="160.7" fill="none" stroke="red" stroke-width="10" /><rect x="846" y="-725" width="389.5" height="161" fill="none" stroke="red" stroke-width="10" /><rect x="1163" y="-886" width="241.3" height="161" fill="none" stroke="red" stroke-width="10" /><rect x="1277.2" y="-1047" width="213.8" height="161" fill="none" stroke="red" stroke-width="10" />
</svg>
