<svg xmlns="http://www.w3.org/2000/svg"
  viewBox="13 -1036 1480.5 854">
  <rect x="13" y="-1036" width="1480.5" height="854" fill="white"/>
  <path d="M 221 -368 L 265 -368 L 318.5 -367 L 372 -366 L 443 -366 L 491 -366 L 570 -367 L 649 -368 L 763 -370 L 877 -372 L 961.5 -373 L 1046 -374 L 1105 -374 L 1212 -374 L 1380 -276 L 1389 -264 L 1399.5 -254 L 1410 -244 L 1419 -232 L 1405 -232 L 1395 -236 L 1365 -240 L 1349 -244 L 1333 -248 L 1330 -248 L 1241 -256 L 1199 -258 L 1161 -261 L 1123 -264 L 1085 -264 L 1057 -264 L 998.5 -262 L 940 -260 L 848 -254 L 755 -250 L 687.5 -247 L 620 -244 L 574 -244 L 482 -244 L 391.5 -250 L 301 -256 L 210 -272 L 144 -282 L 63 -372 L 63 -398 L 100 -386 L 138.5 -378 L 177 -370 Z M 808 -522 L 803 -522 L 800 -530 L 800 -530 L 801 -532 L 802 -532 L 806 -532 L 808 -534 L 804 -540 L 800 -544 L 806 -546 L 853 -564 L 893 -577 L 933 -590 L 967 -601 L 1001 -612 L 1028.5 -622 L 1056 -632 L 1076 -644 L 1156 -684 L 1201 -758 L 1208 -770 L 1215.5 -787 L 1223 -804 L 1232 -828 L 1241 -852 L 1252.5 -881 L 1264 -910 L 1279 -946 L 1280 -948 L 1284 -949 L 1288 -950 L 1292 -951 L 1296 -952 L 1300.5 -953 L 1305 -954 L 1309 -956 L 1321 -962 L 1329 -967 L 1337 -972 L 1340 -972 L 1353 -978 L 1361.5 -981 L 1370 -984 L 1373 -986 L 1386 -986 L 1391 -986 L 1396.5 -985 L 1402 -984 L 1407 -982 L 1411 -982 L 1415.5 -981 L 1420 -980 L 1425 -979 L 1430 -978 L 1434.5 -977 L 1439 -976 L 1443 -972 L 1444 -970 L 1443 -969 L 1442 -968 L 1439.5 -966 L 1437 -964 L 1434 -963 L 1431 -962 L 1429 -960 L 1392 -934 L 1389 -928 L 1381 -894 L 1373.5 -870 L 1366 -846 L 1359 -826 L 1357 -820 L 1352 -812 L 1347 -804 L 1341 -795 L 1335 -786 L 1329.5 -777 L 1324 -768 L 1320 -764 L 1320 -764 L 1322 -764 L 1324 -764 L 1320 -760 L 1317 -756 L 1316 -756 L 1316 -756 L 1320 -764 L 1316 -762 L 1306 -755 L 1296 -748 L 1282.5 -737 L 1269 -726 L 1252.5 -714 L 1236 -702 L 1220 -688 L 1204 -676 L 1191.5 -666 L 1179 -656 L 1168 -648 L 1157 -638 L 1150 -631 L 1143 -624 L 1139 -620 L 1139 -620 L 1137 -618 L 1137 -618 L 1136 -618 L 1142 -620 L 1146.5 -622 L 1151 -624 L 1155 -626 L 1160 -630 L 1161 -630 L 1161 -630 L 1159 -628 L 1158 -626 L 1154.5 -624 L 1151 -622 L 1148 -621 L 1145 -620 L 1142 -619 L 1139 -618 L 1137 -618 L 1136 -618 L 1136 -618 L 1124 -612 L 1108 -605 L 1092 -598 L 1075.5 -591 L 1059 -584 L 1042 -578 L 1025 -572 L 1012 -570 L 1003 -570 L 989.5 -569 L 976 -568 L 964.5 -568 L 953 -568 L 947 -567 L 941 -566 L 948 -562 L 956 -560 L 965 -559 L 974 -558 L 982 -558 L 994 -558 L 1006.5 -559 L 1019 -560 L 1031 -560 L 1034 -560 L 1037.5 -560 L 1041 -560 L 1043 -558 L 1088 -556 L 1123 -530 L 1142 -516 L 1142 -510 L 1145 -502 L 1131 -502 L 1118 -502 L 1106.5 -504 L 1095 -506 L 1083 -508 L 1066 -510 L 1043 -513 L 1020 -516 L 993 -520 L 967 -524 L 944 -526 L 921 -528 L 899 -528 L 895 -528 L 891 -528 L 887 -528 L 883 -528 L 869 -528 L 855.5 -528 L 842 -528 L 828 -526 L 825 -526 L 820.5 -524 L 816 -522 Z M 340 -754 L 343 -758 L 360 -758 L 376 -758 L 391 -757 L 406 -756 L 422 -754 L 469 -746 L 544 -734 L 562 -634 L 573 -572 L 587 -556 L 601 -540 L 619 -536 L 640 -534 L 639 -534 L 639 -530 L 633 -522 L 617 -506 L 580 -508 L 558 -508 L 532.5 -513 L 507 -518 L 475 -530 L 418 -550 L 396 -682 L 387 -738 L 361 -738 L 345 -738 L 336 -738 L 334 -740 L 331 -742 Z" fill="black" fill-opacity="0.25" stroke="black" stroke-width="4"/>
  <rect x="63" y="-398" width="1356" height="166" fill="none" stroke="red" stroke-width="10" /><rect x="331" y="-758" width="309" height="252" fill="none" stroke="red" stroke-width="10" /><rect x="800" y="-663.3" width="388.2" height="161.3" fill="none" stroke="red" stroke-width="10" /><rect x="1114.7" y="-824.7" width="243.9" height="161.4" fill="none" stroke="red" stroke-width="10" /><rect x="1230.8" y="-986" width="213.2" height="161.3" fill="none" stroke="red" stroke-width="10" />
</svg>
