<svg xmlns="http://www.w3.org/2000/svg"
  viewBox="48.0 -1076.0 1670.5 897.0">
  <rect x="48.0" y="-1076.0" width="1670.5" height="897.0" fill="white"/>
  <path d="M 256.0 -365.0 L 318.0 -363.0 L 379.5 -362.5 L 441.0 -362.0 L 504.0 -362.0 L 602.0 -362.0 L 798.0 -367.0 L 911.0 -369.0 L 996.5 -370.0 L 1082.0 -371.0 L 1141.0 -371.0 L 1249.0 -371.0 L 1416.0 -273.0 L 1425.0 -261.0 L 1435.0 -250.5 L 1445.0 -240.0 L 1455.0 -229.0 L 1448.0 -229.0 L 1442.0 -229.5 L 1436.0 -230.0 L 1430.0 -232.0 L 1400.0 -237.0 L 1384.5 -241.0 L 1369.0 -245.0 L 1366.0 -245.0 L 1276.0 -253.0 L 1235.0 -256.0 L 1196.5 -258.5 L 1158.0 -261.0 L 1120.0 -261.0 L 1092.0 -261.0 L 1033.5 -258.5 L 975.0 -256.0 L 883.0 -251.0 L 791.0 -246.0 L 723.0 -244.0 L 655.0 -242.0 L 609.0 -242.0 L 517.0 -242.0 L 426.5 -248.0 L 336.0 -254.0 L 245.0 -268.0 L 179.0 -278.0 L 98.0 -368.0 L 98.0 -395.0 L 135.0 -382.0 L 173.5 -374.0 L 212.0 -366.0 Z M 1031.0 -573.0 L 1032.0 -574.0 L 1031.0 -575.5 L 1030.0 -577.0 L 1029.0 -579.5 L 1028.0 -582.0 L 1028.0 -584.0 L 1028.0 -586.0 L 1031.0 -587.0 L 1078.0 -604.0 L 1118.5 -617.5 L 1159.0 -631.0 L 1193.0 -642.0 L 1227.0 -653.0 L 1254.0 -663.5 L 1281.0 -674.0 L 1301.0 -684.0 L 1382.0 -726.0 L 1426.0 -798.0 L 1433.0 -810.0 L 1440.5 -827.5 L 1448.0 -845.0 L 1456.5 -868.5 L 1465.0 -892.0 L 1476.5 -921.0 L 1488.0 -950.0 L 1504.0 -986.0 L 1505.0 -989.0 L 1509.0 -990.0 L 1513.0 -991.0 L 1517.0 -991.5 L 1521.0 -992.0 L 1525.5 -993.0 L 1530.0 -994.0 L 1534.0 -996.0 L 1547.0 -1004.0 L 1554.5 -1008.5 L 1562.0 -1013.0 L 1565.0 -1014.0 L 1578.0 -1020.0 L 1586.5 -1022.5 L 1595.0 -1025.0 L 1598.0 -1026.0 L 1611.0 -1026.0 L 1616.0 -1026.0 L 1621.5 -1025.5 L 1627.0 -1025.0 L 1633.0 -1023.0 L 1637.0 -1022.0 L 1641.5 -1021.5 L 1646.0 -1021.0 L 1650.5 -1020.0 L 1655.0 -1019.0 L 1660.0 -1017.5 L 1665.0 -1016.0 L 1668.0 -1012.0 L 1669.0 -1011.0 L 1668.0 -1009.5 L 1667.0 -1008.0 L 1665.0 -1006.5 L 1663.0 -1005.0 L 1659.5 -1004.0 L 1656.0 -1003.0 L 1655.0 -1001.0 L 1617.0 -975.0 L 1614.0 -969.0 L 1606.0 -936.0 L 1599.0 -911.0 L 1592.0 -886.0 L 1584.0 -867.0 L 1582.0 -861.0 L 1577.0 -852.5 L 1572.0 -844.0 L 1566.0 -834.5 L 1560.0 -825.0 L 1554.5 -816.5 L 1549.0 -808.0 L 1545.0 -803.0 L 1547.0 -804.0 L 1548.0 -804.0 L 1549.0 -804.0 L 1545.0 -800.0 L 1542.0 -797.0 L 1542.0 -796.0 L 1542.0 -796.0 L 1545.0 -803.0 L 1541.0 -801.0 L 1531.0 -793.5 L 1521.0 -786.0 L 1507.0 -776.0 L 1493.0 -766.0 L 1477.0 -754.0 L 1461.0 -742.0 L 1445.0 -729.0 L 1430.0 -717.0 L 1417.5 -707.0 L 1405.0 -697.0 L 1394.0 -688.0 L 1372.0 -670.0 L 1364.0 -661.0 L 1362.0 -658.0 L 1361.0 -658.0 L 1373.0 -663.0 L 1380.0 -667.0 L 1385.0 -670.0 L 1386.0 -670.0 L 1385.0 -670.0 L 1384.0 -668.0 L 1382.0 -667.0 L 1376.0 -664.0 L 1361.0 -656.0 L 1361.0 -658.0 L 1348.0 -652.0 L 1332.0 -644.5 L 1316.0 -637.0 L 1299.5 -630.0 L 1283.0 -623.0 L 1266.5 -618.0 L 1250.0 -613.0 L 1237.0 -611.0 L 1229.0 -610.0 L 1215.5 -609.0 L 1202.0 -608.0 L 1190.0 -608.0 L 1178.0 -608.0 L 1172.0 -607.0 L 1166.0 -606.0 L 1173.0 -603.0 L 1181.0 -600.0 L 1189.5 -599.0 L 1198.0 -598.0 L 1206.0 -598.0 L 1219.0 -598.0 L 1231.5 -599.0 L 1244.0 -600.0 L 1257.0 -600.0 L 1282.0 -600.0 L 1305.5 -592.5 L 1329.0 -585.0 L 1348.0 -570.0 L 1367.0 -556.0 L 1367.0 -551.0 L 1370.0 -543.0 L 1356.0 -543.0 L 1343.0 -543.0 L 1331.5 -544.5 L 1320.0 -546.0 L 1308.0 -548.0 L 1291.0 -551.0 L 1268.0 -554.0 L 1245.0 -557.0 L 1219.0 -561.0 L 1192.0 -565.0 L 1169.5 -567.0 L 1147.0 -569.0 L 1125.0 -569.0 L 1118.0 -569.0 L 1111.5 -569.5 L 1105.0 -570.0 L 1099.0 -570.0 L 1086.0 -570.0 L 1075.5 -569.0 L 1065.0 -568.0 L 1053.0 -567.0 L 1050.0 -566.0 L 1045.5 -564.0 L 1041.0 -562.0 L 1033.0 -562.0 L 1028.0 -562.0 L 1025.0 -570.0 L 1025.0 -571.0 L 1026.0 -572.0 L 1028.0 -572.0 Z" fill="black" fill-opacity="0.25" stroke="black" stroke-width="4.0"/>
  <rect x="98.0" y="-395.0" width="1357.0" height="166.0" fill="none" stroke="red" stroke-width="10.0" /><rect x="1025.0" y="-1026.0" width="644.0000000000001" height="483.0" fill="none" stroke="red" stroke-width="10.0" />
</svg>
