<svg xmlns="http://www.w3.org/2000/svg"
  viewBox="19 -720.143 1789 565.865">
  <rect x="19" y="-720.143" width="1789" height="565.865" fill="white"/>
  <path d="M 1413 -398 L 1470 -401 L 1488 -402 L 1501 -402 L 1513 -403 L 1523 -403 L 1607 -405 L 1652 -317 L 1678 -266 L 1696 -251 L 1711 -238 L 1735 -241 L 1758 -242 L 1758 -240 L 1758 -237 L 1757.5 -235.5 L 1757 -234 L 1754 -230 L 1740 -213 L 1698 -207 L 1649 -200 L 1578 -211 L 1507 -222 L 1454 -338 L 1432 -387 L 1412 -381 Z M 216 -269 L 151 -279 L 69 -369 L 69 -396 L 105 -384 L 144 -375.5 L 183 -367 L 227 -366 L 271 -364 L 325 -363.5 L 379 -363 L 449 -363 L 544 -363 L 769 -368 L 994 -372 L 1112 -372 L 1219 -372 L 1386 -274 L 1395 -261 L 1405.5 -251 L 1416 -241 L 1425 -230 L 1424 -230 L 1417.5 -230 L 1411 -230 L 1401 -233 L 1371 -238 L 1355.5 -242 L 1340 -246 L 1336 -246 L 1247 -254 L 1206 -257 L 1167.5 -259.5 L 1129 -262 L 1091 -262 L 1036 -262 L 854 -252 L 671 -243 L 580 -243 L 533 -243 L 488 -244.5 L 443 -246 L 397 -249 L 352 -252 L 306.5 -257 L 261 -262 Z M 514 -663 L 517 -667 L 536 -668 L 552 -668 L 583 -663 L 599 -661 L 608.5 -660 L 618 -659 L 625 -658 L 688 -648 L 704 -562 L 714 -509 L 725 -494 L 733 -480 L 753 -479 L 758 -478 L 765 -477 L 768 -477 L 770 -476 L 770 -472 L 765 -467 L 751 -453 L 718 -452 L 699 -452 L 677.5 -457.5 L 656 -463 L 630 -472 L 580 -491 L 561 -602 L 555 -650 L 531 -651 L 518 -651 L 510 -651 L 509 -652 L 508 -654 Z M 736 -665 L 736 -671 L 753 -670 L 767 -670 L 795 -665 L 809 -663 L 818.5 -661 L 828 -659 L 834 -658 L 897 -648 L 915 -562 L 926 -510 L 936 -494 L 942 -484 L 962 -480 L 979 -476 L 979 -476 L 979 -473 L 978.5 -473.5 L 978 -474 L 975 -468 L 968 -454 L 929 -454 L 910 -454 L 888.5 -459.5 L 867 -465 L 841 -474 L 791 -493 L 772 -607 L 764 -657 L 750 -654 L 736 -651 Z" fill="black" fill-opacity="0.25" stroke="black" stroke-width="4"/>
  <rect x="1412" y="-405" width="346" height="205" fill="none" stroke="red" stroke-width="10" /><rect x="69" y="-396" width="1356" height="166" fill="none" stroke="red" stroke-width="10" /><rect x="508" y="-668" width="262" height="216" fill="none" stroke="red" stroke-width="10" /><rect x="736" y="-671" width="243" height="217" fill="none" stroke="red" stroke-width="10" />
</svg>
