<svg xmlns="http://www.w3.org/2000/svg"
  viewBox="23.0 -442.0 1456.0 266.0">
  <rect x="23.0" y="-442.0" width="1456.0" height="266.0" fill="white"/>
  <path d="M 220.0 -265.0 L 155.0 -275.0 L 73.0 -365.0 L 73.0 -392.0 L 109.0 -379.0 L 148.0 -371.5 L 187.0 -364.0 L 230.0 -362.0 L 274.0 -361.0 L 328.0 -360.0 L 382.0 -359.0 L 453.0 -359.0 L 548.0 -359.0 L 773.0 -364.0 L 998.0 -369.0 L 1115.0 -368.0 L 1222.0 -368.0 L 1390.0 -270.0 L 1399.0 -257.0 L 1409.5 -247.0 L 1420.0 -237.0 L 1429.0 -226.0 L 1428.0 -226.0 L 1421.5 -226.0 L 1415.0 -226.0 L 1404.0 -229.0 L 1374.0 -233.0 L 1358.5 -237.0 L 1343.0 -241.0 L 1340.0 -241.0 L 1251.0 -249.0 L 1210.0 -252.0 L 1171.0 -254.5 L 1132.0 -257.0 L 1095.0 -257.0 L 1040.0 -257.0 L 857.0 -248.0 L 674.0 -239.0 L 584.0 -239.0 L 537.0 -239.0 L 491.5 -240.0 L 446.0 -241.0 L 401.0 -245.0 L 356.0 -248.0 L 310.5 -253.0 L 265.0 -258.0 Z" fill="black" fill-opacity="0.25" stroke="black" stroke-width="4.0"/>
  <rect x="73.0" y="-392.0" width="1356.0" height="166.0" fill="none" stroke="red" stroke-width="10.0" />
</svg>
