<svg xmlns="http://www.w3.org/2000/svg"
  viewBox="-72.0 -1300.0 1893.5 1122.0">
  <rect x="-72.0" y="-1300.0" width="1893.5" height="1122.0" fill="white"/>
  <path d="M 288.0 -364.0 L 325.0 -363.0 L 367.5 -362.0 L 410.0 -361.0 L 465.0 -361.0 L 510.0 -361.0 L 558.0 -361.0 L 637.0 -362.0 L 716.0 -363.0 L 830.0 -366.0 L 1055.0 -370.0 L 1172.0 -370.0 L 1279.0 -370.0 L 1447.0 -272.0 L 1456.0 -259.0 L 1466.5 -249.0 L 1477.0 -239.0 L 1486.0 -228.0 L 1479.0 -228.0 L 1473.5 -228.5 L 1468.0 -229.0 L 1461.0 -231.0 L 1431.0 -236.0 L 1415.5 -240.0 L 1400.0 -244.0 L 1397.0 -244.0 L 1308.0 -251.0 L 1266.0 -254.0 L 1228.0 -256.5 L 1190.0 -259.0 L 1152.0 -259.0 L 1124.0 -259.0 L 1065.5 -257.0 L 1007.0 -255.0 L 915.0 -250.0 L 822.0 -245.0 L 754.5 -243.0 L 687.0 -241.0 L 641.0 -241.0 L 548.0 -241.0 L 458.5 -247.0 L 369.0 -253.0 L 277.0 -267.0 L 211.0 -277.0 L 130.0 -367.0 L 130.0 -393.0 L 167.0 -381.0 L 205.5 -373.0 L 244.0 -365.0 Z M -22.0 -484.0 L -22.0 -485.0 L -21.0 -485.0 L -20.0 -485.0 L -17.0 -487.0 L -15.0 -488.0 L -19.0 -494.0 L -23.0 -499.0 L -17.0 -501.0 L 30.0 -518.0 L 70.5 -531.0 L 111.0 -544.0 L 145.0 -555.5 L 179.0 -567.0 L 206.0 -577.0 L 233.0 -587.0 L 254.0 -598.0 L 333.0 -640.0 L 379.0 -712.0 L 386.0 -724.0 L 393.5 -741.5 L 401.0 -759.0 L 410.0 -782.5 L 419.0 -806.0 L 430.5 -835.0 L 442.0 -864.0 L 458.0 -899.0 L 459.0 -902.0 L 462.0 -903.5 L 465.0 -905.0 L 469.5 -905.5 L 474.0 -906.0 L 478.5 -907.0 L 483.0 -908.0 L 487.0 -910.0 L 499.0 -917.0 L 507.0 -921.0 L 515.0 -925.0 L 519.0 -927.0 L 531.0 -933.0 L 539.5 -935.5 L 548.0 -938.0 L 551.0 -940.0 L 564.0 -940.0 L 569.0 -940.0 L 574.5 -939.5 L 580.0 -939.0 L 585.0 -937.0 L 589.0 -936.0 L 594.0 -935.0 L 599.0 -934.0 L 603.5 -933.5 L 608.0 -933.0 L 613.0 -931.5 L 618.0 -930.0 L 622.0 -926.0 L 623.0 -925.0 L 621.5 -923.0 L 620.0 -921.0 L 617.5 -920.0 L 615.0 -919.0 L 612.0 -917.5 L 609.0 -916.0 L 607.0 -915.0 L 569.0 -889.0 L 567.0 -882.0 L 559.0 -848.0 L 551.5 -824.0 L 544.0 -800.0 L 537.0 -781.0 L 535.0 -775.0 L 530.0 -766.5 L 525.0 -758.0 L 519.5 -749.0 L 514.0 -740.0 L 508.0 -731.5 L 502.0 -723.0 L 499.0 -717.0 L 500.0 -717.0 L 500.0 -718.0 L 500.0 -718.0 L 500.0 -718.0 L 500.0 -718.0 L 502.0 -718.0 L 498.0 -713.0 L 495.0 -710.0 L 494.0 -710.0 L 494.0 -710.0 L 499.0 -717.0 L 495.0 -715.0 L 485.0 -708.5 L 475.0 -702.0 L 461.0 -691.5 L 447.0 -681.0 L 431.0 -668.5 L 415.0 -656.0 L 398.0 -643.0 L 382.0 -631.0 L 369.5 -620.5 L 357.0 -610.0 L 347.0 -601.0 L 336.0 -592.0 L 328.5 -585.5 L 321.0 -579.0 L 317.0 -575.0 L 317.0 -574.0 L 315.0 -573.0 L 315.0 -573.0 L 314.0 -572.0 L 319.0 -574.0 L 324.0 -576.5 L 329.0 -579.0 L 333.0 -580.0 L 338.0 -583.0 L 339.0 -583.0 L 340.0 -583.0 L 330.0 -578.0 L 319.0 -572.0 L 315.0 -571.0 L 314.0 -571.0 L 314.0 -572.0 L 302.0 -566.0 L 286.5 -558.5 L 271.0 -551.0 L 254.0 -544.5 L 237.0 -538.0 L 220.5 -532.5 L 204.0 -527.0 L 190.0 -524.0 L 182.0 -523.0 L 168.0 -522.5 L 154.0 -522.0 L 142.0 -521.5 L 130.0 -521.0 L 124.5 -520.0 L 119.0 -519.0 L 126.0 -517.0 L 134.0 -514.0 L 142.5 -513.0 L 151.0 -512.0 L 160.0 -512.0 L 172.0 -512.0 L 184.0 -513.0 L 196.0 -514.0 L 209.0 -514.0 L 234.0 -514.0 L 257.5 -506.5 L 281.0 -499.0 L 301.0 -484.0 L 319.0 -470.0 L 320.0 -465.0 L 323.0 -457.0 L 309.0 -457.0 L 296.0 -457.0 L 284.5 -458.0 L 273.0 -459.0 L 261.0 -462.0 L 243.0 -465.0 L 220.5 -467.5 L 198.0 -470.0 L 171.0 -474.0 L 144.0 -478.0 L 122.0 -480.0 L 100.0 -482.0 L 78.0 -482.0 L 74.0 -483.0 L 69.5 -483.0 L 65.0 -483.0 L 62.0 -483.0 L 48.0 -483.0 L 34.0 -482.5 L 20.0 -482.0 L 5.0 -480.0 L 2.0 -479.0 L -2.5 -477.5 L -7.0 -476.0 L -15.0 -476.0 L -19.0 -476.0 Z M 592.0 -786.0 L 587.0 -786.0 L 584.0 -794.0 L 584.0 -795.0 L 585.0 -795.0 L 586.0 -795.0 L 590.0 -797.0 L 592.0 -798.0 L 587.0 -804.0 L 583.0 -809.0 L 590.0 -811.0 L 636.0 -828.0 L 676.5 -841.0 L 717.0 -854.0 L 751.0 -865.5 L 785.0 -877.0 L 812.5 -887.0 L 840.0 -897.0 L 860.0 -908.0 L 939.0 -950.0 L 985.0 -1022.0 L 992.0 -1034.0 L 999.5 -1051.5 L 1007.0 -1069.0 L 1016.0 -1092.5 L 1025.0 -1116.0 L 1036.5 -1145.0 L 1048.0 -1174.0 L 1063.0 -1209.0 L 1064.0 -1212.0 L 1067.5 -1213.5 L 1071.0 -1215.0 L 1075.5 -1215.5 L 1080.0 -1216.0 L 1084.5 -1217.0 L 1089.0 -1218.0 L 1093.0 -1220.0 L 1105.0 -1227.0 L 1113.0 -1231.0 L 1121.0 -1235.0 L 1125.0 -1237.0 L 1137.0 -1243.0 L 1145.5 -1245.5 L 1154.0 -1248.0 L 1157.0 -1250.0 L 1170.0 -1250.0 L 1175.0 -1250.0 L 1180.5 -1249.5 L 1186.0 -1249.0 L 1191.0 -1247.0 L 1195.0 -1246.0 L 1200.0 -1245.5 L 1205.0 -1245.0 L 1209.5 -1244.0 L 1214.0 -1243.0 L 1219.0 -1241.5 L 1224.0 -1240.0 L 1228.0 -1236.0 L 1229.0 -1235.0 L 1227.5 -1233.0 L 1226.0 -1231.0 L 1223.5 -1230.0 L 1221.0 -1229.0 L 1218.0 -1227.5 L 1215.0 -1226.0 L 1213.0 -1225.0 L 1175.0 -1199.0 L 1173.0 -1192.0 L 1165.0 -1158.0 L 1157.5 -1134.0 L 1150.0 -1110.0 L 1143.0 -1091.0 L 1141.0 -1085.0 L 1136.0 -1076.5 L 1131.0 -1068.0 L 1125.5 -1059.0 L 1120.0 -1050.0 L 1114.0 -1041.5 L 1108.0 -1033.0 L 1104.0 -1027.0 L 1105.0 -1027.0 L 1105.0 -1028.0 L 1106.0 -1028.0 L 1106.0 -1028.0 L 1106.0 -1028.0 L 1108.0 -1028.0 L 1104.0 -1023.0 L 1101.0 -1020.0 L 1100.0 -1020.0 L 1100.0 -1020.0 L 1104.0 -1027.0 L 1100.0 -1025.0 L 1090.5 -1018.5 L 1081.0 -1012.0 L 1067.0 -1001.5 L 1053.0 -991.0 L 1037.0 -978.5 L 1021.0 -966.0 L 1004.0 -953.0 L 988.0 -941.0 L 975.5 -930.5 L 963.0 -920.0 L 953.0 -912.0 L 942.0 -903.0 L 934.5 -896.0 L 927.0 -889.0 L 923.0 -885.0 L 923.0 -884.0 L 921.0 -883.0 L 921.0 -883.0 L 920.0 -882.0 L 925.0 -884.0 L 930.0 -886.5 L 935.0 -889.0 L 939.0 -891.0 L 944.0 -894.0 L 945.0 -893.0 L 946.0 -893.0 L 936.0 -888.0 L 925.0 -882.0 L 921.0 -881.0 L 920.0 -881.0 L 920.0 -882.0 L 908.0 -876.0 L 892.0 -868.5 L 876.0 -861.0 L 859.5 -854.5 L 843.0 -848.0 L 826.5 -842.5 L 810.0 -837.0 L 796.0 -834.0 L 788.0 -833.0 L 774.0 -832.5 L 760.0 -832.0 L 748.0 -831.5 L 736.0 -831.0 L 730.5 -830.0 L 725.0 -829.0 L 732.0 -827.0 L 740.0 -824.0 L 748.5 -823.0 L 757.0 -822.0 L 766.0 -822.0 L 778.0 -822.0 L 790.0 -823.0 L 802.0 -824.0 L 815.0 -824.0 L 840.0 -824.0 L 863.5 -816.5 L 887.0 -809.0 L 907.0 -794.0 L 925.0 -780.0 L 926.0 -775.0 L 929.0 -767.0 L 915.0 -767.0 L 902.0 -767.0 L 890.5 -768.0 L 879.0 -769.0 L 867.0 -772.0 L 849.0 -775.0 L 826.5 -777.5 L 804.0 -780.0 L 777.0 -784.0 L 750.0 -788.0 L 728.0 -790.0 L 706.0 -792.0 L 684.0 -792.0 L 680.0 -793.0 L 675.5 -793.0 L 671.0 -793.0 L 667.0 -793.0 L 653.0 -793.0 L 639.5 -792.5 L 626.0 -792.0 L 612.0 -790.0 L 609.0 -789.0 L 604.5 -787.5 L 600.0 -786.0 Z M 1127.0 -483.0 L 1127.0 -484.0 L 1129.0 -484.0 L 1130.0 -484.0 L 1133.0 -486.0 L 1135.0 -487.0 L 1131.0 -493.0 L 1127.0 -498.0 L 1133.0 -500.0 L 1179.0 -517.0 L 1219.5 -530.0 L 1260.0 -543.0 L 1294.0 -554.5 L 1328.0 -566.0 L 1355.5 -576.0 L 1383.0 -586.0 L 1404.0 -597.0 L 1483.0 -639.0 L 1529.0 -711.0 L 1536.0 -723.0 L 1543.5 -740.5 L 1551.0 -758.0 L 1559.5 -781.5 L 1568.0 -805.0 L 1579.5 -834.0 L 1591.0 -863.0 L 1607.0 -898.0 L 1608.0 -901.0 L 1611.5 -902.5 L 1615.0 -904.0 L 1619.0 -904.5 L 1623.0 -905.0 L 1627.5 -906.0 L 1632.0 -907.0 L 1637.0 -909.0 L 1649.0 -916.0 L 1656.5 -920.0 L 1664.0 -924.0 L 1668.0 -926.0 L 1680.0 -932.0 L 1689.0 -934.5 L 1698.0 -937.0 L 1701.0 -939.0 L 1714.0 -939.0 L 1719.0 -939.0 L 1724.0 -938.5 L 1729.0 -938.0 L 1735.0 -936.0 L 1739.0 -935.0 L 1743.5 -934.0 L 1748.0 -933.0 L 1753.0 -932.5 L 1758.0 -932.0 L 1762.5 -930.5 L 1767.0 -929.0 L 1771.0 -925.0 L 1772.0 -924.0 L 1771.0 -922.0 L 1770.0 -920.0 L 1767.0 -919.0 L 1764.0 -918.0 L 1761.0 -916.5 L 1758.0 -915.0 L 1757.0 -914.0 L 1719.0 -888.0 L 1716.0 -881.0 L 1708.0 -847.0 L 1701.0 -823.0 L 1694.0 -799.0 L 1687.0 -780.0 L 1685.0 -774.0 L 1680.0 -765.5 L 1675.0 -757.0 L 1669.0 -748.0 L 1663.0 -739.0 L 1657.5 -730.5 L 1652.0 -722.0 L 1648.0 -716.0 L 1649.0 -716.0 L 1649.0 -717.0 L 1649.0 -717.0 L 1649.0 -717.0 L 1650.0 -717.0 L 1652.0 -717.0 L 1647.0 -712.0 L 1644.0 -709.0 L 1644.0 -709.0 L 1644.0 -709.0 L 1648.0 -716.0 L 1644.0 -714.0 L 1634.0 -707.5 L 1624.0 -701.0 L 1610.0 -690.5 L 1596.0 -680.0 L 1580.0 -667.5 L 1564.0 -655.0 L 1548.0 -642.0 L 1532.0 -630.0 L 1519.5 -619.5 L 1507.0 -609.0 L 1496.0 -600.0 L 1485.0 -591.0 L 1477.5 -584.5 L 1470.0 -578.0 L 1466.0 -574.0 L 1466.0 -573.0 L 1464.0 -572.0 L 1464.0 -572.0 L 1464.0 -571.0 L 1469.0 -573.0 L 1474.0 -575.5 L 1479.0 -578.0 L 1482.0 -579.0 L 1487.0 -582.0 L 1488.0 -582.0 L 1489.0 -582.0 L 1479.0 -577.0 L 1468.0 -571.0 L 1465.0 -570.0 L 1464.0 -570.0 L 1464.0 -571.0 L 1452.0 -565.0 L 1436.0 -557.5 L 1420.0 -550.0 L 1403.0 -543.5 L 1386.0 -537.0 L 1369.5 -531.5 L 1353.0 -526.0 L 1340.0 -523.0 L 1332.0 -522.0 L 1318.0 -521.5 L 1304.0 -521.0 L 1292.0 -520.5 L 1280.0 -520.0 L 1274.0 -519.0 L 1268.0 -518.0 L 1276.0 -516.0 L 1284.0 -513.0 L 1292.0 -512.0 L 1300.0 -511.0 L 1310.0 -511.0 L 1322.0 -511.0 L 1334.0 -512.0 L 1346.0 -513.0 L 1358.0 -513.0 L 1383.0 -513.0 L 1406.5 -505.5 L 1430.0 -498.0 L 1451.0 -483.0 L 1469.0 -469.0 L 1469.0 -464.0 L 1472.0 -456.0 L 1458.0 -456.0 L 1445.0 -456.0 L 1434.0 -457.0 L 1423.0 -458.0 L 1410.0 -461.0 L 1392.0 -464.0 L 1369.5 -466.5 L 1347.0 -469.0 L 1321.0 -473.0 L 1294.0 -477.0 L 1271.5 -479.0 L 1249.0 -481.0 L 1227.0 -481.0 L 1223.0 -482.0 L 1219.0 -482.0 L 1215.0 -482.0 L 1211.0 -482.0 L 1197.0 -482.0 L 1183.0 -481.5 L 1169.0 -481.0 L 1155.0 -479.0 L 1152.0 -478.0 L 1147.5 -476.5 L 1143.0 -475.0 L 1135.0 -475.0 L 1130.0 -475.0 Z M 585.0 -679.0 L 586.0 -680.0 L 590.0 -681.0 L 594.0 -682.0 L 598.0 -682.5 L 602.0 -683.0 L 605.5 -683.0 L 609.0 -683.0 L 611.0 -683.0 L 626.0 -683.0 L 654.0 -679.0 L 670.0 -677.0 L 679.5 -676.0 L 689.0 -675.0 L 696.0 -674.0 L 759.0 -664.0 L 776.0 -577.0 L 786.0 -524.0 L 796.0 -510.0 L 804.0 -496.0 L 824.0 -494.0 L 829.0 -493.0 L 837.0 -493.0 L 840.0 -493.0 L 842.0 -491.0 L 841.0 -484.0 L 835.0 -479.5 L 829.0 -475.0 L 820.5 -472.5 L 812.0 -470.0 L 803.5 -469.0 L 795.0 -468.0 L 790.0 -468.0 L 771.0 -468.0 L 749.5 -473.0 L 728.0 -478.0 L 701.0 -488.0 L 650.0 -507.0 L 632.0 -618.0 L 626.0 -666.0 L 603.0 -666.0 L 590.0 -666.0 L 582.0 -666.0 L 581.0 -667.0 L 579.0 -670.0 Z M 807.0 -680.0 L 807.0 -685.0 L 821.0 -685.0 L 824.0 -685.0 L 831.0 -685.0 L 842.0 -684.0 L 853.0 -683.0 L 867.0 -680.0 L 882.0 -678.0 L 890.5 -676.5 L 899.0 -675.0 L 906.0 -674.0 L 969.0 -665.0 L 987.0 -577.0 L 997.0 -525.0 L 1007.0 -510.0 L 1013.0 -500.0 L 1034.0 -496.0 L 1052.0 -492.0 L 1051.0 -491.0 L 1051.0 -488.0 L 1050.0 -488.5 L 1049.0 -489.0 L 1046.0 -483.0 L 1039.0 -469.0 L 1001.0 -469.0 L 982.0 -469.0 L 960.0 -474.5 L 938.0 -480.0 L 912.0 -490.0 L 861.0 -509.0 L 843.0 -622.0 L 836.0 -669.0 L 823.0 -669.0 L 821.0 -669.0 L 820.0 -669.0 L 816.0 -669.0 L 806.0 -669.0 Z" fill="black" fill-opacity="0.25" stroke="black" stroke-width="4.0"/>
  <rect x="130.0" y="-393.0" width="1355.9999999999998" height="165.0" fill="none" stroke="red" stroke-width="10.0" /><rect x="-23.0" y="-940.0" width="646.0" height="482.99999999999994" fill="none" stroke="red" stroke-width="10.0" /><rect x="583.0" y="-1250.0" width="646.0000000000001" height="483.0" fill="none" stroke="red" stroke-width="10.0" /><rect x="1127.0" y="-939.0" width="645.0" height="482.99999999999994" fill="none" stroke="red" stroke-width="10.0" /><rect x="579.0" y="-683.0" width="263.0" height="215.00000000000003" fill="none" stroke="red" stroke-width="10.0" /><rect x="806.0" y="-685.0" width="246.0" height="216.00000000000009" fill="none" stroke="red" stroke-width="10.0" />
</svg>
