<svg xmlns="http://www.w3.org/2000/svg"
  viewBox="40.0 -1004.0 1578.4 825.0">
  <rect x="40.0" y="-1004.0" width="1578.4" height="825.0" fill="white"/>
  <path d="M 248.0 -365.0 L 292.0 -364.0 L 345.5 -362.5 L 399.0 -361.0 L 470.0 -361.0 L 518.0 -361.0 L 597.0 -362.5 L 676.0 -364.0 L 790.0 -366.0 L 904.0 -368.0 L 988.5 -369.5 L 1073.0 -371.0 L 1132.0 -371.0 L 1239.0 -371.0 L 1407.0 -273.0 L 1416.0 -260.0 L 1426.5 -250.0 L 1437.0 -240.0 L 1446.0 -229.0 L 1431.0 -229.0 L 1421.0 -232.0 L 1391.0 -236.0 L 1375.5 -240.0 L 1360.0 -244.0 L 1357.0 -244.0 L 1268.0 -252.0 L 1226.0 -255.0 L 1188.0 -257.5 L 1150.0 -260.0 L 1112.0 -260.0 L 1084.0 -260.0 L 1025.5 -258.0 L 967.0 -256.0 L 875.0 -251.0 L 782.0 -246.0 L 714.5 -243.5 L 647.0 -241.0 L 601.0 -241.0 L 508.0 -241.0 L 418.5 -247.0 L 329.0 -253.0 L 237.0 -268.0 L 171.0 -278.0 L 90.0 -368.0 L 90.0 -395.0 L 127.0 -382.0 L 165.5 -374.0 L 204.0 -366.0 Z M 924.0 -498.0 L 924.0 -499.0 L 926.0 -500.0 L 927.0 -500.0 L 930.0 -501.0 L 932.0 -502.0 L 928.0 -508.0 L 924.0 -513.0 L 930.0 -515.0 L 976.0 -532.0 L 1016.5 -545.5 L 1057.0 -559.0 L 1091.0 -570.5 L 1125.0 -582.0 L 1152.5 -592.0 L 1180.0 -602.0 L 1201.0 -612.0 L 1281.0 -652.0 L 1326.0 -726.0 L 1333.0 -738.0 L 1340.5 -755.5 L 1348.0 -773.0 L 1356.5 -796.5 L 1365.0 -820.0 L 1376.5 -849.5 L 1388.0 -879.0 L 1404.0 -914.0 L 1405.0 -917.0 L 1408.5 -918.5 L 1412.0 -920.0 L 1416.0 -920.5 L 1420.0 -921.0 L 1424.5 -921.5 L 1429.0 -922.0 L 1434.0 -924.0 L 1446.0 -931.0 L 1454.0 -935.5 L 1462.0 -940.0 L 1465.0 -942.0 L 1478.0 -948.0 L 1486.5 -950.5 L 1495.0 -953.0 L 1498.0 -954.0 L 1511.0 -954.0 L 1516.0 -954.0 L 1521.0 -953.5 L 1526.0 -953.0 L 1532.0 -951.0 L 1536.0 -950.0 L 1540.5 -949.5 L 1545.0 -949.0 L 1550.0 -948.0 L 1555.0 -947.0 L 1559.5 -945.5 L 1564.0 -944.0 L 1568.0 -940.0 L 1569.0 -939.0 L 1567.5 -937.5 L 1566.0 -936.0 L 1563.5 -934.5 L 1561.0 -933.0 L 1558.0 -932.0 L 1555.0 -931.0 L 1554.0 -929.0 L 1515.0 -904.0 L 1513.0 -897.0 L 1505.0 -863.0 L 1498.0 -839.0 L 1491.0 -815.0 L 1483.0 -795.0 L 1481.0 -789.0 L 1476.5 -780.5 L 1472.0 -772.0 L 1466.0 -763.0 L 1460.0 -754.0 L 1454.5 -745.5 L 1449.0 -737.0 L 1445.0 -732.0 L 1446.0 -732.0 L 1446.0 -732.0 L 1446.0 -732.0 L 1447.0 -733.0 L 1449.0 -733.0 L 1444.0 -728.0 L 1441.0 -725.0 L 1440.0 -724.0 L 1440.0 -724.0 L 1445.0 -732.0 L 1441.0 -730.0 L 1431.0 -723.0 L 1421.0 -716.0 L 1407.0 -705.5 L 1393.0 -695.0 L 1377.0 -682.5 L 1361.0 -670.0 L 1345.0 -657.0 L 1323.0 -640.0 L 1301.5 -623.0 L 1280.0 -606.0 L 1261.0 -587.0 L 1261.0 -587.0 L 1261.0 -586.0 L 1267.0 -588.0 L 1271.5 -590.5 L 1276.0 -593.0 L 1280.0 -595.0 L 1285.0 -598.0 L 1286.0 -598.0 L 1285.0 -597.0 L 1283.0 -596.0 L 1282.0 -595.0 L 1278.5 -593.0 L 1275.0 -591.0 L 1272.0 -589.5 L 1269.0 -588.0 L 1266.0 -587.0 L 1263.0 -586.0 L 1262.0 -586.0 L 1261.0 -586.0 L 1261.0 -586.0 L 1249.0 -580.0 L 1233.0 -573.0 L 1217.0 -566.0 L 1200.0 -559.0 L 1183.0 -552.0 L 1166.5 -546.5 L 1150.0 -541.0 L 1137.0 -539.0 L 1129.0 -538.0 L 1115.0 -537.5 L 1101.0 -537.0 L 1089.0 -536.5 L 1077.0 -536.0 L 1071.0 -535.0 L 1065.0 -534.0 L 1073.0 -531.0 L 1081.0 -528.0 L 1089.5 -527.0 L 1098.0 -526.0 L 1107.0 -526.0 L 1119.0 -526.0 L 1132.0 -527.0 L 1145.0 -528.0 L 1157.0 -528.0 L 1159.0 -528.0 L 1162.5 -527.5 L 1166.0 -527.0 L 1168.0 -527.0 L 1213.0 -524.0 L 1248.0 -498.0 L 1267.0 -484.0 L 1266.0 -479.0 L 1269.0 -471.0 L 1255.0 -471.0 L 1242.0 -471.0 L 1231.0 -472.5 L 1220.0 -474.0 L 1207.0 -476.0 L 1190.0 -479.0 L 1167.5 -482.0 L 1145.0 -485.0 L 1118.0 -488.0 L 1092.0 -492.0 L 1069.0 -494.0 L 1046.0 -496.0 L 1024.0 -496.0 L 1022.0 -497.0 L 1019.5 -497.0 L 1017.0 -497.0 L 1014.0 -497.0 L 998.0 -497.0 L 983.0 -496.5 L 968.0 -496.0 L 952.0 -495.0 L 949.0 -494.0 L 944.5 -492.0 L 940.0 -490.0 L 932.0 -490.0 L 927.0 -490.0 Z M 349.0 -675.0 L 351.0 -678.0 L 364.0 -678.0 L 380.0 -678.0 L 389.0 -678.0 L 398.0 -677.5 L 407.0 -677.0 L 417.0 -675.0 L 459.0 -668.0 L 521.0 -657.0 L 538.0 -571.0 L 549.0 -515.0 L 559.0 -503.0 L 567.0 -493.0 L 576.5 -490.0 L 586.0 -487.0 L 599.0 -486.0 L 599.0 -486.0 L 603.0 -485.0 L 602.0 -479.0 L 595.5 -474.5 L 589.0 -470.0 L 580.5 -467.5 L 572.0 -465.0 L 563.5 -464.0 L 555.0 -463.0 L 550.0 -463.0 L 530.0 -463.0 L 510.0 -468.0 L 490.0 -473.0 L 463.0 -482.0 L 414.0 -500.0 L 396.0 -613.0 L 388.0 -661.0 L 366.0 -661.0 L 354.0 -661.0 L 346.0 -661.0 L 344.0 -662.0 L 341.0 -664.0 Z M 570.0 -676.0 L 570.0 -678.0 L 585.0 -679.0 L 608.0 -679.0 L 627.0 -676.5 L 646.0 -674.0 L 668.0 -670.0 L 730.0 -657.0 L 747.0 -571.0 L 757.0 -519.0 L 770.0 -505.0 L 778.0 -491.0 L 796.0 -489.0 L 800.0 -488.0 L 802.5 -487.0 L 805.0 -486.0 L 808.0 -486.0 L 812.0 -486.0 L 812.0 -480.0 L 806.0 -476.0 L 800.0 -472.0 L 791.5 -469.0 L 783.0 -466.0 L 775.0 -465.0 L 767.0 -464.0 L 763.0 -464.0 L 730.0 -464.0 L 674.0 -484.0 L 625.0 -503.0 L 606.0 -617.0 L 599.0 -663.0 L 584.0 -664.0 L 583.0 -664.0 L 577.0 -664.0 L 573.5 -665.5 L 570.0 -667.0 Z" fill="black" fill-opacity="0.25" stroke="black" stroke-width="4.0"/>
  <rect x="90.0" y="-395.0" width="1355.9999999999998" height="166.0" fill="none" stroke="red" stroke-width="10.0" /><rect x="341.0" y="-678.0" width="261.99999999999994" height="215.00000000000003" fill="none" stroke="red" stroke-width="10.0" /><rect x="570.0" y="-679.0" width="242.0000000000001" height="215.00000000000003" fill="none" stroke="red" stroke-width="10.0" /><rect x="924.0" y="-632.0" width="388.8999999999999" height="161.00000000000003" fill="none" stroke="red" stroke-width="10.0" /><rect x="1241.0" y="-793.0" width="241.29999999999984" height="161.00000000000003" fill="none" stroke="red" stroke-width="10.0" /><rect x="1355.2" y="-954.0" width="213.79999999999998" height="160.99999999999991" fill="none" stroke="red" stroke-width="10.0" />
</svg>
