<svg xmlns="http://www.w3.org/2000/svg"
  viewBox="6 -1028 1488 850">
  <rect x="6" y="-1028" width="1488" height="850" fill="white"/>
  <path d="M 88 -367 L 88 -393 L 125 -381 L 163 -373 L 201 -365 L 246 -364 L 290 -362 L 343.5 -361.5 L 397 -361 L 468 -361 L 516 -361 L 595 -362 L 674 -363 L 788 -366 L 1013 -370 L 1130 -370 L 1237 -370 L 1405 -272 L 1414 -259 L 1424.5 -249 L 1435 -239 L 1444 -228 L 1437 -228 L 1431.5 -228.5 L 1426 -229 L 1419 -231 L 1389 -236 L 1373.5 -239.5 L 1358 -243 L 1355 -243 L 1266 -251 L 1224 -254 L 1186 -256.5 L 1148 -259 L 1110 -259 L 1082 -259 L 1023.5 -257 L 965 -255 L 873 -250 L 780 -245 L 712.5 -243 L 645 -241 L 599 -241 L 506 -241 L 416.5 -247 L 327 -253 L 235 -267 L 169 -277 Z M 64 -514 L 59 -514 L 56 -522 L 56 -523 L 58 -523 L 59 -523 L 62 -525 L 64 -526 L 60 -532 L 56 -537 L 62 -539 L 109 -556 L 149 -569 L 189 -582 L 223.5 -593 L 258 -604 L 285 -614.5 L 312 -625 L 333 -636 L 413 -677 L 458 -750 L 465 -762 L 472 -779.5 L 479 -797 L 488 -820.5 L 497 -844 L 508.5 -873 L 520 -902 L 536 -937 L 537 -940 L 540.5 -941.5 L 544 -943 L 548 -943.5 L 552 -944 L 557 -945 L 562 -946 L 565 -948 L 577 -955 L 585 -959.5 L 593 -964 L 597 -965 L 609 -971 L 617.5 -973.5 L 626 -976 L 629 -978 L 643 -978 L 648 -978 L 653 -977.5 L 658 -977 L 664 -975 L 668 -974 L 672.5 -973 L 677 -972 L 682 -971.5 L 687 -971 L 691.5 -969.5 L 696 -968 L 700 -964 L 701 -963 L 700 -961.5 L 699 -960 L 696 -958.5 L 693 -957 L 690.5 -955.5 L 688 -954 L 686 -953 L 649 -929 L 645 -920 L 637 -886 L 630 -862 L 623 -838 L 615 -819 L 613 -813 L 608.5 -804.5 L 604 -796 L 598 -787 L 592 -778 L 586.5 -769.5 L 581 -761 L 577 -755 L 578 -755 L 578 -756 L 578 -756 L 579 -756 L 581 -756 L 576 -751 L 573 -748 L 572 -748 L 572 -748 L 577 -755 L 573 -753 L 563 -746.5 L 553 -740 L 539 -729.5 L 525 -719 L 509 -706.5 L 493 -694 L 477 -681 L 455 -664 L 433.5 -647 L 412 -630 L 393 -611 L 393 -611 L 393 -610 L 399 -612 L 403.5 -614.5 L 408 -617 L 412 -618 L 417 -621 L 417 -621 L 416 -620 L 415 -620 L 414 -619 L 410.5 -617 L 407 -615 L 404 -613.5 L 401 -612 L 398 -610.5 L 395 -609 L 394 -609 L 393 -609 L 393 -610 L 381 -604 L 365 -596.5 L 349 -589 L 332 -582 L 315 -575 L 298.5 -570 L 282 -565 L 269 -562 L 260 -561 L 246 -560.5 L 232 -560 L 220.5 -559.5 L 209 -559 L 203 -558 L 197 -557 L 205 -554 L 213 -551 L 221.5 -550.5 L 230 -550 L 239 -550 L 251 -550 L 263 -551 L 275 -552 L 288 -552 L 291 -552 L 294 -552 L 297 -552 L 300 -551 L 345 -548 L 379 -522 L 398 -508 L 398 -503 L 401 -495 L 387 -495 L 374 -495 L 363 -496 L 352 -497 L 339 -500 L 322 -503 L 299 -505.5 L 276 -508 L 250 -512 L 224 -516 L 201 -518 L 178 -520 L 156 -520 L 154 -521 L 151 -521 L 148 -521 L 146 -521 L 130 -521 L 115 -520.5 L 100 -520 L 84 -518 L 81 -517 L 76.5 -515.5 L 72 -514 Z M 661 -695 L 662 -696 L 666 -697.5 L 670 -699 L 674 -699.5 L 678 -700 L 681.5 -700 L 685 -700 L 687 -700 L 702 -700 L 730 -695 L 746 -693 L 756 -692 L 766 -691 L 772 -690 L 835 -680 L 852 -594 L 862 -541 L 872 -526 L 880 -512 L 900 -511 L 905 -510 L 913 -509 L 916 -509 L 917 -508 L 917 -503 L 913 -498 L 899 -484 L 866 -484 L 847 -484 L 825 -489 L 803 -494 L 777 -504 L 727 -522 L 708 -634 L 702 -682 L 678 -682 L 666 -682 L 658 -682 L 656 -684 L 655 -686 Z M 883 -697 L 883 -702 L 896 -701 L 900 -701 L 907 -701 L 917.5 -700 L 928 -699 L 942 -697 L 957 -695 L 966 -693 L 975 -691 L 981 -690 L 1044 -681 L 1062 -594 L 1072 -542 L 1083 -526 L 1090 -516 L 1109 -512 L 1127 -508 L 1126 -508 L 1126 -505 L 1125.5 -505.5 L 1125 -506 L 1122 -500 L 1115 -486 L 1077 -486 L 1058 -486 L 1036 -491 L 1014 -496 L 988 -506 L 938 -524 L 919 -639 L 912 -686 L 898 -686 L 897 -686 L 896 -686 L 892 -685 L 883 -686 Z" fill="black" fill-opacity="0.25" stroke="black" stroke-width="4"/>
  <rect x="88" y="-393" width="1356" height="165" fill="none" stroke="red" stroke-width="10" /><rect x="655" y="-700" width="262" height="216" fill="none" stroke="red" stroke-width="10" /><rect x="883" y="-702" width="244" height="216" fill="none" stroke="red" stroke-width="10" /><rect x="56" y="-656" width="388.9" height="161" fill="none" stroke="red" stroke-width="10" /><rect x="372" y="-817" width="242.3" height="161" fill="none" stroke="red" stroke-width="10" /><rect x="486.7" y="-978" width="214.3" height="161" fill="none" stroke="red" stroke-width="10" />
</svg>
