<svg xmlns="http://www.w3.org/2000/svg"
  viewBox="11 -799 1598 624">
  <rect x="11" y="-799" width="1598" height="624" fill="white"/>
  <path d="M 870 -711 L 874 -716 L 893 -716 L 915 -716 L 951 -711 L 998 -703 L 1074 -691 L 1092 -591 L 1103 -529 L 1117 -513 L 1131 -497 L 1148 -494 L 1169 -492 L 1169 -491 L 1169 -487 L 1162 -480 L 1146 -464 L 1109 -465 L 1087 -465 L 1061.5 -470 L 1036 -475 L 1005 -486 L 948 -507 L 925 -639 L 915 -696 L 890 -695 L 875 -695 L 866 -695 L 864 -697 L 861 -700 Z M 1115 -713 L 1115 -717 L 1136 -717 L 1153 -717 L 1186 -713 L 1231 -705 L 1307 -692 L 1325 -592 L 1336 -531 L 1350 -513 L 1361 -498 L 1381 -496 L 1402 -494 L 1402 -491 L 1402 -488 L 1395 -482 L 1380 -467 L 1342 -466 L 1295 -466 L 1239 -488 L 1180 -512 L 1157 -644 L 1147 -701 L 1132 -699 L 1115 -696 Z M 119 -744 L 170 -749 L 284 -749 L 320 -749 L 360 -745 L 400 -741 L 444 -731 L 470 -725 L 495 -719 L 520 -713 L 546 -705 L 644 -680 L 708 -633 L 771 -586 L 772 -533 L 772 -503 L 756 -483 L 750 -475 L 722 -475 L 681 -475 L 603 -490 L 590 -492 L 571.5 -495 L 553 -498 L 530 -505 L 555 -516 L 572 -541 L 588 -565 L 583 -578 L 571 -607 L 525.5 -632.5 L 480 -658 L 400 -673 L 316 -690 L 230.5 -701.5 L 145 -713 L 61 -725 Z M 268 -264 L 198 -274 L 111 -364 L 111 -390 L 150 -378 L 191.5 -370 L 233 -362 L 279 -361 L 326 -359 L 384 -358.5 L 442 -358 L 517 -358 L 619 -358 L 859 -362 L 1099 -366 L 1224 -367 L 1339 -367 L 1517 -269 L 1527 -256 L 1538 -246 L 1549 -236 L 1559 -225 L 1557 -225 L 1550.5 -225 L 1544 -225 L 1532 -228 L 1500 -233 L 1483.5 -236.5 L 1467 -240 L 1464 -240 L 1369 -248 L 1326 -251 L 1284 -253.5 L 1242 -256 L 1202 -256 L 1143 -256 L 948 -247 L 753 -238 L 657 -237 L 607 -237 L 558.5 -238.5 L 510 -240 L 462 -243 L 414 -246 L 365 -251.5 L 316 -257 Z" fill="black" fill-opacity="0.25" stroke="black" stroke-width="4"/>
  <rect x="861" y="-716" width="308" height="252" fill="none" stroke="red" stroke-width="10" /><rect x="1115" y="-717" width="287" height="251" fill="none" stroke="red" stroke-width="10" /><rect x="61" y="-749" width="711" height="274" fill="none" stroke="red" stroke-width="10" /><rect x="111" y="-390" width="1448" height="165" fill="none" stroke="red" stroke-width="10" />
</svg>
