<svg xmlns="http://www.w3.org/2000/svg"
  viewBox="11.0 -799.0 1598.0 624.0">
  <rect x="11.0" y="-799.0" width="1598.0" height="624.0" fill="white"/>
  <path d="M 870.0 -711.0 L 874.0 -716.0 L 893.0 -716.0 L 915.0 -716.0 L 951.0 -711.0 L 998.0 -703.0 L 1074.0 -691.0 L 1092.0 -591.0 L 1103.0 -529.0 L 1117.0 -513.0 L 1131.0 -497.0 L 1148.0 -494.0 L 1169.0 -492.0 L 1169.0 -491.0 L 1169.0 -487.0 L 1162.0 -480.0 L 1146.0 -464.0 L 1109.0 -465.0 L 1087.0 -465.0 L 1061.5 -470.0 L 1036.0 -475.0 L 1005.0 -486.0 L 948.0 -507.0 L 925.0 -639.0 L 915.0 -696.0 L 890.0 -695.0 L 875.0 -695.0 L 866.0 -695.0 L 864.0 -697.0 L 861.0 -700.0 Z M 1115.0 -713.0 L 1115.0 -717.0 L 1136.0 -717.0 L 1153.0 -717.0 L 1186.0 -713.0 L 1231.0 -705.0 L 1307.0 -692.0 L 1325.0 -592.0 L 1336.0 -531.0 L 1350.0 -513.0 L 1361.0 -498.0 L 1381.0 -496.0 L 1402.0 -494.0 L 1402.0 -491.0 L 1402.0 -488.0 L 1395.0 -482.0 L 1380.0 -467.0 L 1342.0 -466.0 L 1295.0 -466.0 L 1239.0 -488.0 L 1180.0 -512.0 L 1157.0 -644.0 L 1147.0 -701.0 L 1132.0 -699.0 L 1115.0 -696.0 Z M 119.0 -744.0 L 170.0 -749.0 L 284.0 -749.0 L 320.0 -749.0 L 360.0 -745.0 L 400.0 -741.0 L 444.0 -731.0 L 470.0 -725.0 L 495.0 -719.0 L 520.0 -713.0 L 546.0 -705.0 L 644.0 -680.0 L 708.0 -633.0 L 771.0 -586.0 L 772.0 -533.0 L 772.0 -503.0 L 756.0 -483.0 L 750.0 -475.0 L 722.0 -475.0 L 681.0 -475.0 L 603.0 -490.0 L 590.0 -492.0 L 571.5 -495.0 L 553.0 -498.0 L 530.0 -505.0 L 555.0 -516.0 L 572.0 -541.0 L 588.0 -565.0 L 583.0 -578.0 L 571.0 -607.0 L 525.5 -632.5 L 480.0 -658.0 L 400.0 -673.0 L 316.0 -690.0 L 230.5 -701.5 L 145.0 -713.0 L 61.0 -725.0 Z M 268.0 -264.0 L 198.0 -274.0 L 111.0 -364.0 L 111.0 -390.0 L 150.0 -378.0 L 191.5 -370.0 L 233.0 -362.0 L 279.0 -361.0 L 326.0 -359.0 L 384.0 -358.5 L 442.0 -358.0 L 517.0 -358.0 L 619.0 -358.0 L 859.0 -362.0 L 1099.0 -366.0 L 1224.0 -367.0 L 1339.0 -367.0 L 1517.0 -269.0 L 1527.0 -256.0 L 1538.0 -246.0 L 1549.0 -236.0 L 1559.0 -225.0 L 1557.0 -225.0 L 1550.5 -225.0 L 1544.0 -225.0 L 1532.0 -228.0 L 1500.0 -233.0 L 1483.5 -236.5 L 1467.0 -240.0 L 1464.0 -240.0 L 1369.0 -248.0 L 1326.0 -251.0 L 1284.0 -253.5 L 1242.0 -256.0 L 1202.0 -256.0 L 1143.0 -256.0 L 948.0 -247.0 L 753.0 -238.0 L 657.0 -237.0 L 607.0 -237.0 L 558.5 -238.5 L 510.0 -240.0 L 462.0 -243.0 L 414.0 -246.0 L 365.0 -251.5 L 316.0 -257.0 Z" fill="black" fill-opacity="0.25" stroke="black" stroke-width="4.0"/>
  <rect x="861.0" y="-716.0" width="308.00000000000006" height="251.99999999999994" fill="none" stroke="red" stroke-width="10.0" /><rect x="1115.0" y="-717.0" width="286.99999999999994" height="250.99999999999994" fill="none" stroke="red" stroke-width="10.0" /><rect x="61.0" y="-749.0" width="711.0000000000001" height="274.0" fill="none" stroke="red" stroke-width="10.0" /><rect x="111.0" y="-390.0" width="1448.0" height="165.0" fill="none" stroke="red" stroke-width="10.0" />
</svg>
