<svg xmlns="http://www.w3.org/2000/svg"
  viewBox="54 -1316 1456 1135">
  <rect x="54" y="-1316" width="1456" height="1135" fill="white"/>
  <path d="M 104 -371 L 104 -397 L 143 -384 L 181.5 -376.5 L 220 -369 L 261 -367 L 310 -365 L 357.5 -364.5 L 405 -364 L 454 -364 L 542 -364 L 629 -365.5 L 716 -367 L 804 -369 L 918 -371 L 1002.5 -372 L 1087 -373 L 1146 -373 L 1253 -373 L 1421 -275 L 1426 -269 L 1431 -263.5 L 1436 -258 L 1440 -252 L 1445 -247 L 1450 -242 L 1455 -237 L 1460 -231 L 1452 -231 L 1446 -231 L 1435 -234 L 1405 -239 L 1390 -243 L 1372 -247 L 1371 -247 L 1282 -255 L 1261 -256 L 1241.5 -257.5 L 1222 -259 L 1202 -260 L 1182 -261 L 1163 -262 L 1144 -263 L 1125 -263 L 1097 -263 L 1038.5 -260.5 L 980 -258 L 888 -253 L 795 -248 L 728 -246 L 661 -244 L 615 -244 L 522 -244 L 432.5 -250.5 L 343 -257 L 250 -270 L 185 -281 Z M 527 -828 L 527 -831 L 533 -831 L 536 -832 L 533 -839 L 530 -844 L 535 -847 L 582 -863 L 622.5 -875 L 663 -887 L 698 -896 L 733 -905 L 767 -917.5 L 801 -930 L 832.5 -948 L 864 -966 L 891 -990 L 918 -1014 L 938 -1045 L 945 -1056 L 953 -1072.5 L 961 -1089 L 971 -1113 L 981 -1135 L 993.5 -1164 L 1006 -1193 L 1022 -1228 L 1025 -1234 L 1034 -1234 L 1042 -1234 L 1050 -1239 L 1056 -1243 L 1061.5 -1245.5 L 1067 -1248 L 1072 -1250 L 1080 -1253 L 1083 -1256 L 1088 -1257 L 1093 -1259 L 1098 -1261 L 1102 -1263 L 1107 -1265 L 1111 -1265.5 L 1115 -1266 L 1120 -1266 L 1134 -1266 L 1149 -1261 L 1154 -1260 L 1159.5 -1259.5 L 1165 -1259 L 1170 -1259 L 1180 -1259 L 1185 -1251 L 1189 -1247 L 1181 -1245 L 1174 -1243 L 1171 -1241 L 1133 -1217 L 1130 -1208 L 1120 -1177 L 1113 -1151 L 1107 -1132 L 1100.5 -1116 L 1094 -1100 L 1083 -1084 L 1078 -1077 L 1073 -1070.5 L 1068 -1064 L 1064 -1059 L 1062 -1056 L 1060.5 -1052.5 L 1059 -1049 L 1057 -1047 L 1060 -1048 L 1055 -1042 L 1050 -1038 L 1051 -1039 L 1051 -1039 L 1051.5 -1039.5 L 1052 -1040 L 1052 -1040 L 1053 -1043 L 1057 -1047 L 1054 -1047 L 1046 -1042.5 L 1038 -1038 L 1027.5 -1031 L 1017 -1024 L 1005 -1015.5 L 993 -1007 L 982.5 -999.5 L 972 -992 L 963.5 -986 L 955 -980 L 952 -977 L 946 -972 L 933.5 -964 L 921 -956 L 908.5 -946 L 896 -936 L 885 -926.5 L 874 -917 L 870 -911 L 869 -910 L 868 -909 L 873 -911 L 877.5 -912.5 L 882 -914 L 886 -915 L 890 -916 L 892 -917 L 894 -917 L 882 -911 L 873 -906 L 869 -906 L 867 -906 L 868 -909 L 859 -906 L 846 -900 L 819 -889 L 789 -878 L 771 -872 L 754.5 -867.5 L 738 -863 L 719 -863 L 693 -863 L 687 -863 L 683 -863 L 679 -863 L 675 -862 L 669 -862 L 677 -858 L 692 -852 L 710 -852 L 713 -852 L 716 -852 L 719 -852 L 722 -852 L 727 -852 L 733 -852.5 L 739 -853 L 744 -853 L 772 -853 L 800 -846 L 828 -839 L 851 -820 L 867 -807 L 868 -798 L 869 -792 L 857 -792 L 808 -797 L 721 -812 L 687 -820 L 650.5 -824 L 614 -828 L 579 -828 L 573 -828 L 567 -827.5 L 561 -827 L 555 -827 L 553 -826 L 547 -824 L 543 -822 L 535 -822 L 529 -822 Z M 691 -709 L 733 -712 L 735 -712 L 737 -712.5 L 739 -713 L 741 -713 L 803 -713 L 838 -631 L 859 -580 L 874 -567 L 884 -557 L 898 -558 L 899 -558 L 901 -558 L 903 -558 L 905 -558 L 915 -559 L 919 -560 L 924 -560 L 924 -558 L 925 -554 L 921 -548 L 915 -539 L 904.5 -533.5 L 894 -528 L 881.5 -524.5 L 869 -521 L 856.5 -520 L 844 -519 L 833 -519 L 821 -519 L 808.5 -520 L 796 -521 L 782 -523 L 726 -532 L 680 -645 L 663 -687 L 649 -688 L 647 -688 L 646 -687 L 646 -705 Z" fill="black" fill-opacity="0.25" stroke="black" stroke-width="4"/>
  <rect x="104" y="-397" width="1356" height="166" fill="none" stroke="red" stroke-width="10" /><rect x="646" y="-713" width="279" height="194" fill="none" stroke="red" stroke-width="10" /><rect x="527" y="-950" width="386.5" height="158" fill="none" stroke="red" stroke-width="10" /><rect x="836" y="-1108" width="261.3" height="158" fill="none" stroke="red" stroke-width="10" /><rect x="968.9" y="-1266" width="220.1" height="158" fill="none" stroke="red" stroke-width="10" />
</svg>
