<svg xmlns="http://www.w3.org/2000/svg"
  viewBox="2 -1324 1500.5 1208">
  <rect x="2" y="-1324" width="1500.5" height="1208" fill="white"/>
  <path d="M 52 -426 L 52 -445 L 75 -451 L 100 -459 L 154 -458 L 175 -458 L 205 -457.5 L 235 -457 L 266.5 -454.5 L 298 -452 L 326.5 -447 L 355 -442 L 374 -434 L 376 -432 L 376.5 -429.5 L 377 -427 L 378 -425 L 379 -423 L 380 -422 L 372 -413 L 366 -414 L 359 -415 L 352 -416 L 342 -416 L 330 -416 L 320 -415.5 L 310 -415 L 299 -413 L 295 -413 L 291.5 -412 L 288 -411 L 288 -405 L 288 -389 L 317 -360 L 342 -335 L 378.5 -314 L 415 -293 L 458 -277 L 501 -261 L 547.5 -249 L 594 -237 L 639.5 -229 L 685 -221 L 727 -217 L 769 -213 L 802 -213 L 820 -213 L 841.5 -214 L 863 -215 L 885.5 -219 L 908 -223 L 929 -230 L 950 -237 L 966.5 -249 L 983 -261 L 993 -278 L 1003 -295 L 1003 -319 L 1000 -346 L 992 -388 L 906 -432 L 903 -436 L 901.5 -439.5 L 900 -443 L 897 -448 L 910 -451 L 924 -452 L 938 -453 L 955 -456 L 972 -458 L 984 -459 L 996 -460 L 1008 -460 L 1048 -460 L 1078 -452.5 L 1108 -445 L 1131 -432 L 1139 -428 L 1147 -420.5 L 1155 -413 L 1163 -405 L 1179 -368 L 1178 -335 L 1178 -297 L 1159.5 -269.5 L 1141 -242 L 1111 -223.5 L 1081 -205 L 1042 -193.5 L 1003 -182 L 964 -176 L 925 -170 L 888 -168 L 851 -166 L 824 -166 L 753 -166 L 675.5 -175 L 598 -184 L 510 -202 L 442 -216 L 370 -241 L 298 -266 L 219 -302 L 52 -380 Z M 339 -818 L 339 -819 L 341 -819 L 342 -819 L 345 -821 L 347 -822 L 343 -828 L 339 -833 L 345 -835 L 391 -852 L 431.5 -865 L 472 -878 L 506 -889.5 L 540 -901 L 567.5 -911 L 595 -921 L 616 -932 L 696 -973 L 741 -1046 L 748 -1058 L 755.5 -1075.5 L 763 -1093 L 771.5 -1116.5 L 780 -1140 L 791.5 -1169 L 803 -1198 L 819 -1233 L 820 -1236 L 823.5 -1237.5 L 827 -1239 L 831 -1239.5 L 835 -1240 L 840 -1241 L 845 -1242 L 849 -1244 L 861 -1251 L 868.5 -1255 L 876 -1259 L 880 -1261 L 892 -1267 L 901 -1269.5 L 910 -1272 L 913 -1274 L 926 -1274 L 931 -1274 L 936 -1273.5 L 941 -1273 L 947 -1271 L 951 -1270 L 955.5 -1269.5 L 960 -1269 L 965 -1268 L 970 -1267 L 974.5 -1265.5 L 979 -1264 L 983 -1260 L 984 -1259 L 983 -1257 L 982 -1255 L 979.5 -1254 L 977 -1253 L 974 -1251.5 L 971 -1250 L 969 -1249 L 932 -1223 L 928 -1216 L 920 -1182 L 913 -1158 L 906 -1134 L 898 -1115 L 896 -1109 L 891.5 -1100.5 L 887 -1092 L 881 -1083 L 875 -1074 L 869.5 -1065.5 L 864 -1057 L 860 -1051 L 860 -1051 L 862 -1052 L 864 -1052 L 859 -1047 L 855 -1043 L 855 -1043 L 860 -1051 L 856 -1049 L 845.5 -1042.5 L 835 -1036 L 821.5 -1025.5 L 808 -1015 L 792 -1002.5 L 776 -990 L 760 -977 L 744 -965 L 731.5 -954.5 L 719 -944 L 708 -936 L 697 -927 L 689.5 -920 L 682 -913 L 678 -909 L 678 -908 L 676 -907 L 676 -907 L 676 -906 L 682 -908 L 686.5 -910.5 L 691 -913 L 695 -915 L 700 -918 L 701 -917 L 701 -917 L 698 -916 L 697 -915 L 693.5 -913 L 690 -911 L 687 -909.5 L 684 -908 L 681 -906.5 L 678 -905 L 677 -905 L 676 -905 L 676 -906 L 664 -900 L 648 -892.5 L 632 -885 L 615 -878.5 L 598 -872 L 581.5 -866.5 L 565 -861 L 552 -858 L 543 -857 L 529 -856.5 L 515 -856 L 503.5 -855.5 L 492 -855 L 486.5 -854 L 481 -853 L 488 -851 L 496 -848 L 504.5 -847 L 513 -846 L 521 -846 L 533 -846 L 545.5 -847 L 558 -848 L 570 -848 L 595 -848 L 618.5 -840.5 L 642 -833 L 663 -818 L 681 -804 L 681 -799 L 684 -791 L 670 -791 L 657 -791 L 646 -792 L 635 -793 L 622 -796 L 604 -799 L 581.5 -801.5 L 559 -804 L 533 -808 L 506 -812 L 483.5 -814 L 461 -816 L 439 -816 L 435 -817 L 431 -817 L 427 -817 L 423 -817 L 409 -817 L 395 -816.5 L 381 -816 L 367 -814 L 364 -813 L 359.5 -811.5 L 355 -810 L 347 -810 L 342 -810 Z M 816 -537 L 811 -537 L 808 -545 L 808 -546 L 810 -546 L 811 -546 L 814 -548 L 816 -549 L 812 -555 L 808 -560 L 814 -562 L 860 -579 L 900.5 -592 L 941 -605 L 975 -616.5 L 1009 -628 L 1036.5 -638 L 1064 -648 L 1084 -659 L 1164 -700 L 1209 -773 L 1216 -785 L 1223.5 -802.5 L 1231 -820 L 1240 -843.5 L 1249 -867 L 1260.5 -896 L 1272 -925 L 1288 -960 L 1289 -963 L 1292.5 -964.5 L 1296 -966 L 1300 -966.5 L 1304 -967 L 1308.5 -968 L 1313 -969 L 1317 -971 L 1329 -978 L 1337 -982 L 1345 -986 L 1349 -988 L 1361 -994 L 1369.5 -996.5 L 1378 -999 L 1381 -1001 L 1395 -1001 L 1400 -1001 L 1405 -1000.5 L 1410 -1000 L 1416 -998 L 1420 -997 L 1424.5 -996.5 L 1429 -996 L 1433.5 -995 L 1438 -994 L 1443 -992.5 L 1448 -991 L 1452 -987 L 1453 -986 L 1452 -984 L 1451 -982 L 1448 -981 L 1445 -980 L 1442 -979 L 1440 -978 L 1438 -976 L 1401 -950 L 1397 -943 L 1389 -909 L 1382 -885 L 1375 -861 L 1367 -842 L 1365 -836 L 1360.5 -827.5 L 1356 -819 L 1350 -810 L 1344 -801 L 1338.5 -792.5 L 1333 -784 L 1329 -778 L 1329 -778 L 1331 -779 L 1333 -779 L 1328 -774 L 1324 -770 L 1324 -770 L 1329 -778 L 1325 -776 L 1314.5 -769.5 L 1304 -763 L 1290 -752.5 L 1276 -742 L 1260.5 -729.5 L 1245 -717 L 1229 -704 L 1213 -692 L 1200.5 -681.5 L 1188 -671 L 1177 -663 L 1166 -654 L 1158.5 -647 L 1151 -640 L 1147 -636 L 1147 -635 L 1145 -634 L 1145 -634 L 1145 -633 L 1151 -635 L 1155.5 -637.5 L 1160 -640 L 1164 -642 L 1169 -645 L 1169 -645 L 1169 -645 L 1167 -643 L 1166 -642 L 1162.5 -640 L 1159 -638 L 1156 -636.5 L 1153 -635 L 1150 -633.5 L 1147 -632 L 1146 -632 L 1145 -632 L 1145 -633 L 1133 -627 L 1117 -619.5 L 1101 -612 L 1084 -605.5 L 1067 -599 L 1050.5 -593.5 L 1034 -588 L 1021 -585 L 1012 -584 L 998 -583.5 L 984 -583 L 972.5 -582.5 L 961 -582 L 955.5 -581 L 950 -580 L 957 -578 L 965 -575 L 973 -574 L 981 -573 L 990 -573 L 1002 -573 L 1014 -574 L 1026 -575 L 1039 -575 L 1064 -575 L 1087.5 -568 L 1111 -561 L 1131 -545 L 1149 -531 L 1150 -526 L 1153 -518 L 1139 -518 L 1126 -518 L 1115 -519 L 1104 -520 L 1091 -523 L 1073 -526 L 1050.5 -528.5 L 1028 -531 L 1001 -535 L 974 -539 L 952 -541 L 930 -543 L 908 -543 L 904 -544 L 900 -544 L 896 -544 L 892 -544 L 878 -544 L 864 -543.5 L 850 -543 L 836 -541 L 833 -540 L 828.5 -538.5 L 824 -537 Z M 476 -699 L 476 -704 L 489 -704 L 493 -704 L 500 -704 L 510.5 -703 L 521 -702 L 535 -699 L 550 -697 L 558.5 -695.5 L 567 -694 L 574 -693 L 637 -683 L 655 -596 L 666 -545 L 676 -529 L 681 -520 L 702 -515 L 720 -511 L 719 -510 L 719 -507 L 718.5 -507.5 L 718 -508 L 715 -502 L 708 -488 L 669 -488 L 650 -488 L 628.5 -493.5 L 607 -499 L 581 -509 L 530 -528 L 512 -642 L 505 -689 L 492 -689 L 492 -689 L 491 -688.5 L 490 -688 L 490 -688 L 489 -688 L 484 -688 L 475 -688 Z" fill="black" fill-opacity="0.25" stroke="black" stroke-width="4"/>
  <rect x="52" y="-460" width="1127" height="294" fill="none" stroke="red" stroke-width="10" /><rect x="475" y="-704" width="245" height="216" fill="none" stroke="red" stroke-width="10" /><rect x="339" y="-952" width="389.5" height="161" fill="none" stroke="red" stroke-width="10" /><rect x="655" y="-1113" width="242.3" height="161" fill="none" stroke="red" stroke-width="10" /><rect x="770.2" y="-1274" width="213.8" height="161" fill="none" stroke="red" stroke-width="10" /><rect x="808" y="-679" width="389.5" height="161" fill="none" stroke="red" stroke-width="10" /><rect x="1123" y="-840" width="243.3" height="161" fill="none" stroke="red" stroke-width="10" /><rect x="1238.7" y="-1001" width="214.3" height="161" fill="none" stroke="red" stroke-width="10" />
</svg>
