<svg xmlns="http://www.w3.org/2000/svg"
  viewBox="0 -918 1240 799">
  <rect x="0" y="-918" width="1240" height="799" fill="white"/>
  <path d="M 50 -746 L 50 -774 L 64 -794 L 78 -814 L 100 -827.5 L 122 -841 L 149.5 -849 L 177 -857 L 205.5 -861 L 234 -865 L 260.5 -866.5 L 287 -868 L 307 -868 L 367 -868 L 424 -862.5 L 481 -857 L 538 -847 L 595 -837 L 651 -823 L 707 -809 L 764 -793 L 881 -760 L 1030 -662 L 1176 -566 L 1175 -524 L 1175 -505 L 1139 -505 L 1092 -505 L 1042 -511.5 L 992 -518 L 946 -529 L 957 -633 L 782 -716 L 614 -796 L 442 -796 L 425 -796 L 404.5 -794.5 L 384 -793 L 362.5 -789 L 341 -785 L 320.5 -778 L 300 -771 L 283.5 -759.5 L 267 -748 L 257 -731.5 L 247 -715 L 246 -693 L 245 -662 L 291 -625 L 351 -579 L 355 -579 L 216 -580 L 146 -608 L 99 -628 L 67 -677 L 50 -717 Z M 87 -454 L 100 -458 L 119.5 -459.5 L 139 -461 L 166 -461 L 187 -461 L 217 -460.5 L 247 -460 L 278.5 -457.5 L 310 -455 L 338.5 -450 L 367 -445 L 385 -436 L 387 -434 L 388 -432 L 389 -430 L 390 -428 L 391 -426 L 392 -425 L 384 -416 L 378 -417 L 370.5 -418 L 363 -419 L 354 -419 L 342 -419 L 331.5 -418 L 321 -417 L 311 -416 L 307 -416 L 303 -415 L 299 -414 L 299 -408 L 299 -392 L 329 -363 L 354 -338 L 390.5 -317 L 427 -296 L 470 -280 L 513 -264 L 559.5 -252 L 606 -240 L 651.5 -232 L 697 -224 L 738.5 -220 L 780 -216 L 813 -216 L 831 -216 L 853 -217 L 875 -218 L 897 -222 L 919 -226 L 940.5 -233 L 962 -240 L 978.5 -252 L 995 -264 L 1005 -281 L 1015 -298 L 1015 -322 L 1012 -349 L 1004 -391 L 918 -435 L 915 -439 L 913.5 -442.5 L 912 -446 L 909 -451 L 922 -454 L 935.5 -455 L 949 -456 L 967 -458 L 984 -460 L 995.5 -461.5 L 1007 -463 L 1020 -463 L 1060 -463 L 1090 -455.5 L 1120 -448 L 1143 -435 L 1151 -431 L 1159 -423.5 L 1167 -416 L 1174 -408 L 1190 -371 L 1190 -338 L 1190 -300 L 1171 -272.5 L 1152 -245 L 1121.5 -226 L 1091 -207 L 1053 -196 L 1015 -185 L 975.5 -179 L 936 -173 L 899 -171 L 862 -169 L 835 -169 L 765 -169 L 687 -178 L 609 -187 L 521 -205 L 453 -219 L 381 -243.5 L 309 -268 L 230 -305 L 63 -382 L 63 -429 L 64 -448 Z" fill="black" fill-opacity="0.25" stroke="black" stroke-width="4"/>
  <rect x="50" y="-868" width="1126" height="363" fill="none" stroke="red" stroke-width="10" /><rect x="63" y="-463" width="1127" height="294" fill="none" stroke="red" stroke-width="10" />
</svg>
