<svg xmlns="http://www.w3.org/2000/svg"
  viewBox="-12.0 -1057.0 1514.5 935.0">
  <rect x="-12.0" y="-1057.0" width="1514.5" height="935.0" fill="white"/>
  <path d="M 52.0 -432.0 L 52.0 -451.0 L 75.0 -457.0 L 100.0 -465.0 L 154.0 -464.0 L 175.0 -464.0 L 205.0 -463.5 L 235.0 -463.0 L 266.5 -460.5 L 298.0 -458.0 L 326.5 -453.0 L 355.0 -448.0 L 374.0 -440.0 L 376.0 -438.0 L 376.5 -435.5 L 377.0 -433.0 L 378.0 -431.0 L 379.0 -429.0 L 380.0 -428.0 L 372.0 -419.0 L 366.0 -420.0 L 359.0 -421.0 L 352.0 -422.0 L 342.0 -422.0 L 330.0 -422.0 L 320.0 -421.5 L 310.0 -421.0 L 299.0 -419.0 L 295.0 -419.0 L 291.5 -418.0 L 288.0 -417.0 L 288.0 -411.0 L 288.0 -395.0 L 317.0 -366.0 L 342.0 -341.0 L 378.5 -320.0 L 415.0 -299.0 L 458.0 -283.0 L 501.0 -267.0 L 547.5 -255.0 L 594.0 -243.0 L 639.5 -235.0 L 685.0 -227.0 L 727.0 -223.0 L 769.0 -219.0 L 802.0 -219.0 L 820.0 -219.0 L 841.5 -220.0 L 863.0 -221.0 L 885.5 -225.0 L 908.0 -229.0 L 929.0 -236.0 L 950.0 -243.0 L 966.5 -255.0 L 983.0 -267.0 L 993.0 -284.0 L 1003.0 -301.0 L 1003.0 -325.0 L 1000.0 -352.0 L 992.0 -394.0 L 906.0 -438.0 L 903.0 -442.0 L 901.5 -445.5 L 900.0 -449.0 L 897.0 -454.0 L 910.0 -457.0 L 924.0 -458.0 L 938.0 -459.0 L 955.0 -462.0 L 972.0 -464.0 L 984.0 -465.0 L 996.0 -466.0 L 1008.0 -466.0 L 1048.0 -466.0 L 1078.0 -458.5 L 1108.0 -451.0 L 1131.0 -438.0 L 1139.0 -434.0 L 1147.0 -426.5 L 1155.0 -419.0 L 1163.0 -411.0 L 1179.0 -374.0 L 1178.0 -341.0 L 1178.0 -303.0 L 1159.5 -275.5 L 1141.0 -248.0 L 1111.0 -229.5 L 1081.0 -211.0 L 1042.0 -199.5 L 1003.0 -188.0 L 964.0 -182.0 L 925.0 -176.0 L 888.0 -174.0 L 851.0 -172.0 L 824.0 -172.0 L 753.0 -172.0 L 675.5 -181.0 L 598.0 -190.0 L 510.0 -208.0 L 442.0 -222.0 L 370.0 -247.0 L 298.0 -272.0 L 219.0 -308.0 L 52.0 -386.0 Z M 45.0 -541.0 L 40.0 -541.0 L 38.0 -549.0 L 38.0 -550.0 L 39.0 -550.0 L 40.0 -550.0 L 43.0 -552.0 L 45.0 -553.0 L 41.0 -559.0 L 37.0 -564.0 L 43.0 -566.0 L 89.0 -583.0 L 129.5 -596.0 L 170.0 -609.0 L 204.0 -620.5 L 238.0 -632.0 L 265.5 -642.0 L 293.0 -652.0 L 314.0 -663.0 L 394.0 -704.0 L 439.0 -777.0 L 446.0 -789.0 L 453.5 -806.5 L 461.0 -824.0 L 470.0 -847.5 L 479.0 -871.0 L 490.0 -900.0 L 501.0 -929.0 L 517.0 -964.0 L 518.0 -967.0 L 521.5 -968.5 L 525.0 -970.0 L 529.5 -970.5 L 534.0 -971.0 L 538.5 -972.0 L 543.0 -973.0 L 547.0 -975.0 L 559.0 -982.0 L 566.5 -986.0 L 574.0 -990.0 L 578.0 -992.0 L 590.0 -998.0 L 599.0 -1001.0 L 608.0 -1004.0 L 611.0 -1005.0 L 624.0 -1005.0 L 629.0 -1005.0 L 634.5 -1004.5 L 640.0 -1004.0 L 645.0 -1002.0 L 649.0 -1001.0 L 653.5 -1000.5 L 658.0 -1000.0 L 663.0 -999.0 L 668.0 -998.0 L 672.5 -996.5 L 677.0 -995.0 L 681.0 -991.0 L 682.0 -990.0 L 681.0 -988.0 L 680.0 -986.0 L 677.5 -985.0 L 675.0 -984.0 L 672.0 -983.0 L 669.0 -982.0 L 667.0 -980.0 L 630.0 -954.0 L 626.0 -947.0 L 618.0 -913.0 L 611.0 -889.0 L 604.0 -865.0 L 597.0 -846.0 L 595.0 -840.0 L 590.0 -831.5 L 585.0 -823.0 L 579.5 -814.0 L 574.0 -805.0 L 568.0 -796.5 L 562.0 -788.0 L 558.0 -782.0 L 558.0 -782.0 L 560.0 -783.0 L 562.0 -783.0 L 558.0 -778.0 L 554.0 -775.0 L 554.0 -775.0 L 558.0 -782.0 L 554.0 -780.0 L 544.0 -773.5 L 534.0 -767.0 L 520.0 -756.5 L 506.0 -746.0 L 490.0 -733.5 L 474.0 -721.0 L 458.0 -708.0 L 442.0 -696.0 L 429.5 -685.5 L 417.0 -675.0 L 406.0 -667.0 L 395.0 -658.0 L 387.5 -651.0 L 380.0 -644.0 L 376.0 -640.0 L 376.0 -639.0 L 375.0 -638.0 L 375.0 -638.0 L 374.0 -637.0 L 380.0 -639.0 L 384.5 -641.5 L 389.0 -644.0 L 393.0 -646.0 L 398.0 -649.0 L 399.0 -649.0 L 399.0 -649.0 L 396.0 -647.0 L 395.0 -646.0 L 392.0 -644.0 L 389.0 -642.0 L 385.5 -640.5 L 382.0 -639.0 L 379.0 -637.5 L 376.0 -636.0 L 375.0 -636.0 L 374.0 -636.0 L 374.0 -637.0 L 362.0 -631.0 L 346.0 -623.5 L 330.0 -616.0 L 313.0 -609.5 L 296.0 -603.0 L 279.5 -597.5 L 263.0 -592.0 L 250.0 -589.0 L 241.0 -588.0 L 227.0 -587.5 L 213.0 -587.0 L 201.5 -586.5 L 190.0 -586.0 L 184.5 -585.0 L 179.0 -584.0 L 186.0 -582.0 L 194.0 -579.0 L 202.5 -578.0 L 211.0 -577.0 L 220.0 -577.0 L 232.0 -577.0 L 244.0 -578.0 L 256.0 -579.0 L 269.0 -579.0 L 294.0 -579.0 L 317.0 -572.0 L 340.0 -565.0 L 361.0 -549.0 L 379.0 -535.0 L 379.0 -530.0 L 382.0 -522.0 L 369.0 -522.0 L 356.0 -522.0 L 344.5 -523.5 L 333.0 -525.0 L 320.0 -527.0 L 302.0 -530.0 L 279.5 -532.5 L 257.0 -535.0 L 231.0 -539.0 L 204.0 -543.0 L 181.5 -545.0 L 159.0 -547.0 L 137.0 -547.0 L 133.0 -548.0 L 129.0 -548.0 L 125.0 -548.0 L 121.0 -548.0 L 107.0 -548.0 L 93.5 -547.5 L 80.0 -547.0 L 65.0 -546.0 L 62.0 -545.0 L 57.5 -543.0 L 53.0 -541.0 Z M 808.0 -551.0 L 808.0 -552.0 L 810.0 -552.0 L 811.0 -552.0 L 814.0 -554.0 L 816.0 -555.0 L 812.0 -561.0 L 808.0 -566.0 L 814.0 -568.0 L 860.0 -585.0 L 900.5 -598.0 L 941.0 -611.0 L 975.0 -622.5 L 1009.0 -634.0 L 1036.5 -644.0 L 1064.0 -654.0 L 1084.0 -665.0 L 1164.0 -706.0 L 1209.0 -779.0 L 1216.0 -791.0 L 1223.5 -808.5 L 1231.0 -826.0 L 1240.0 -849.5 L 1249.0 -873.0 L 1260.5 -902.0 L 1272.0 -931.0 L 1288.0 -966.0 L 1289.0 -969.0 L 1292.5 -970.5 L 1296.0 -972.0 L 1300.0 -972.5 L 1304.0 -973.0 L 1308.5 -974.0 L 1313.0 -975.0 L 1317.0 -977.0 L 1329.0 -984.0 L 1337.0 -988.0 L 1345.0 -992.0 L 1349.0 -994.0 L 1361.0 -1000.0 L 1369.5 -1002.5 L 1378.0 -1005.0 L 1381.0 -1007.0 L 1395.0 -1007.0 L 1400.0 -1007.0 L 1405.0 -1006.5 L 1410.0 -1006.0 L 1416.0 -1004.0 L 1420.0 -1003.0 L 1424.5 -1002.5 L 1429.0 -1002.0 L 1433.5 -1001.0 L 1438.0 -1000.0 L 1443.0 -998.5 L 1448.0 -997.0 L 1452.0 -993.0 L 1453.0 -992.0 L 1452.0 -990.0 L 1451.0 -988.0 L 1448.0 -987.0 L 1445.0 -986.0 L 1442.0 -985.0 L 1440.0 -984.0 L 1438.0 -982.0 L 1401.0 -956.0 L 1397.0 -949.0 L 1389.0 -915.0 L 1382.0 -891.0 L 1375.0 -867.0 L 1367.0 -848.0 L 1365.0 -842.0 L 1360.5 -833.5 L 1356.0 -825.0 L 1350.0 -816.0 L 1344.0 -807.0 L 1338.5 -798.5 L 1333.0 -790.0 L 1329.0 -784.0 L 1329.0 -784.0 L 1331.0 -785.0 L 1333.0 -785.0 L 1328.0 -780.0 L 1324.0 -776.0 L 1324.0 -776.0 L 1329.0 -784.0 L 1325.0 -782.0 L 1314.5 -775.5 L 1304.0 -769.0 L 1290.0 -758.5 L 1276.0 -748.0 L 1260.5 -735.5 L 1245.0 -723.0 L 1229.0 -710.0 L 1213.0 -698.0 L 1200.5 -687.5 L 1188.0 -677.0 L 1177.0 -669.0 L 1166.0 -660.0 L 1158.5 -653.0 L 1151.0 -646.0 L 1147.0 -642.0 L 1147.0 -641.0 L 1145.0 -640.0 L 1145.0 -640.0 L 1145.0 -639.0 L 1151.0 -641.0 L 1155.5 -643.5 L 1160.0 -646.0 L 1164.0 -648.0 L 1169.0 -651.0 L 1169.0 -651.0 L 1169.0 -651.0 L 1167.0 -649.0 L 1166.0 -648.0 L 1162.5 -646.0 L 1159.0 -644.0 L 1156.0 -642.5 L 1153.0 -641.0 L 1150.0 -639.5 L 1147.0 -638.0 L 1146.0 -638.0 L 1145.0 -638.0 L 1145.0 -639.0 L 1133.0 -633.0 L 1117.0 -625.5 L 1101.0 -618.0 L 1084.0 -611.5 L 1067.0 -605.0 L 1050.5 -599.5 L 1034.0 -594.0 L 1021.0 -591.0 L 1012.0 -590.0 L 998.0 -589.5 L 984.0 -589.0 L 972.5 -588.5 L 961.0 -588.0 L 955.5 -587.0 L 950.0 -586.0 L 957.0 -584.0 L 965.0 -581.0 L 973.0 -580.0 L 981.0 -579.0 L 990.0 -579.0 L 1002.0 -579.0 L 1014.0 -580.0 L 1026.0 -581.0 L 1039.0 -581.0 L 1064.0 -581.0 L 1087.5 -574.0 L 1111.0 -567.0 L 1131.0 -551.0 L 1149.0 -537.0 L 1150.0 -532.0 L 1153.0 -524.0 L 1139.0 -524.0 L 1126.0 -524.0 L 1115.0 -525.0 L 1104.0 -526.0 L 1091.0 -529.0 L 1073.0 -532.0 L 1050.5 -534.5 L 1028.0 -537.0 L 1001.0 -541.0 L 974.0 -545.0 L 952.0 -547.0 L 930.0 -549.0 L 908.0 -549.0 L 904.0 -550.0 L 900.0 -550.0 L 896.0 -550.0 L 892.0 -550.0 L 878.0 -550.0 L 864.0 -549.5 L 850.0 -549.0 L 836.0 -547.0 L 833.0 -546.0 L 828.5 -544.5 L 824.0 -543.0 L 816.0 -543.0 L 811.0 -543.0 Z M 424.0 -549.0 L 424.0 -550.0 L 425.0 -551.0 L 426.0 -551.0 L 430.0 -552.0 L 432.0 -553.0 L 427.0 -559.0 L 423.0 -564.0 L 430.0 -567.0 L 476.0 -584.0 L 516.5 -597.0 L 557.0 -610.0 L 591.0 -621.0 L 625.0 -632.0 L 652.5 -642.0 L 680.0 -652.0 L 700.0 -663.0 L 780.0 -704.0 L 825.0 -777.0 L 832.0 -789.0 L 839.5 -806.5 L 847.0 -824.0 L 856.0 -847.5 L 865.0 -871.0 L 876.5 -900.5 L 888.0 -930.0 L 903.0 -965.0 L 904.0 -968.0 L 908.0 -969.0 L 912.0 -970.0 L 916.0 -971.0 L 920.0 -972.0 L 924.5 -972.5 L 929.0 -973.0 L 933.0 -976.0 L 945.0 -983.0 L 952.5 -987.0 L 960.0 -991.0 L 964.0 -993.0 L 976.0 -999.0 L 985.0 -1001.5 L 994.0 -1004.0 L 997.0 -1005.0 L 1010.0 -1005.0 L 1015.0 -1005.0 L 1020.5 -1005.0 L 1026.0 -1005.0 L 1031.0 -1003.0 L 1035.0 -1002.0 L 1039.5 -1001.0 L 1044.0 -1000.0 L 1049.0 -999.5 L 1054.0 -999.0 L 1058.5 -997.0 L 1063.0 -995.0 L 1067.0 -991.0 L 1068.0 -990.0 L 1067.0 -988.5 L 1066.0 -987.0 L 1063.5 -985.5 L 1061.0 -984.0 L 1058.0 -983.0 L 1055.0 -982.0 L 1053.0 -981.0 L 1016.0 -955.0 L 1013.0 -948.0 L 1005.0 -914.0 L 997.5 -890.0 L 990.0 -866.0 L 983.0 -846.0 L 981.0 -840.0 L 976.5 -831.5 L 972.0 -823.0 L 966.0 -814.0 L 960.0 -805.0 L 954.0 -796.5 L 948.0 -788.0 L 944.0 -783.0 L 944.0 -783.0 L 946.0 -783.0 L 948.0 -783.0 L 944.0 -779.0 L 940.0 -775.0 L 940.0 -775.0 L 944.0 -783.0 L 940.0 -781.0 L 930.0 -774.0 L 920.0 -767.0 L 906.0 -757.0 L 892.0 -747.0 L 876.0 -734.5 L 860.0 -722.0 L 844.0 -709.0 L 828.0 -697.0 L 815.5 -686.5 L 803.0 -676.0 L 792.0 -667.0 L 781.0 -658.0 L 774.0 -651.5 L 767.0 -645.0 L 763.0 -641.0 L 763.0 -640.0 L 761.0 -638.0 L 761.0 -638.0 L 760.0 -637.0 L 766.0 -639.0 L 770.5 -641.5 L 775.0 -644.0 L 779.0 -646.0 L 784.0 -649.0 L 785.0 -649.0 L 785.0 -649.0 L 783.0 -648.0 L 782.0 -647.0 L 778.5 -645.0 L 775.0 -643.0 L 772.0 -641.0 L 769.0 -639.0 L 766.0 -638.0 L 763.0 -637.0 L 761.0 -637.0 L 760.0 -637.0 L 760.0 -637.0 L 748.0 -631.0 L 732.0 -624.0 L 716.0 -617.0 L 699.5 -610.0 L 683.0 -603.0 L 666.0 -597.5 L 649.0 -592.0 L 636.0 -590.0 L 627.0 -589.0 L 613.5 -588.5 L 600.0 -588.0 L 588.5 -587.5 L 577.0 -587.0 L 571.0 -586.0 L 565.0 -585.0 L 572.0 -582.0 L 580.0 -579.0 L 588.5 -578.0 L 597.0 -577.0 L 606.0 -577.0 L 618.0 -577.0 L 630.0 -578.0 L 642.0 -579.0 L 655.0 -579.0 L 680.0 -579.0 L 703.5 -572.0 L 727.0 -565.0 L 747.0 -549.0 L 765.0 -535.0 L 766.0 -530.0 L 769.0 -522.0 L 755.0 -523.0 L 742.0 -523.0 L 730.5 -524.0 L 719.0 -525.0 L 707.0 -527.0 L 689.0 -530.0 L 666.5 -533.0 L 644.0 -536.0 L 617.0 -540.0 L 590.0 -544.0 L 567.5 -545.5 L 545.0 -547.0 L 523.0 -547.0 L 519.0 -548.0 L 515.0 -548.0 L 511.0 -548.0 L 507.0 -548.0 L 493.0 -548.0 L 479.5 -547.5 L 466.0 -547.0 L 452.0 -546.0 L 449.0 -545.0 L 444.0 -543.5 L 439.0 -542.0 L 432.0 -542.0 L 427.0 -541.0 Z" fill="black" fill-opacity="0.25" stroke="black" stroke-width="4.0"/>
  <rect x="52.0" y="-466.0" width="1127.0" height="294.00000000000006" fill="none" stroke="red" stroke-width="10.0" /><rect x="37.0" y="-683.0" width="389.5" height="161.00000000000003" fill="none" stroke="red" stroke-width="10.0" /><rect x="353.0" y="-844.0" width="243.30000000000007" height="160.99999999999991" fill="none" stroke="red" stroke-width="10.0" /><rect x="468.7" y="-1004.9999999999999" width="213.30000000000004" height="160.99999999999991" fill="none" stroke="red" stroke-width="10.0" /><rect x="808.0" y="-685.0" width="389.49999999999994" height="161.00000000000003" fill="none" stroke="red" stroke-width="10.0" /><rect x="1123.0" y="-846.0" width="243.30000000000007" height="160.99999999999991" fill="none" stroke="red" stroke-width="10.0" /><rect x="1238.6999999999998" y="-1006.9999999999999" width="214.30000000000015" height="160.99999999999991" fill="none" stroke="red" stroke-width="10.0" /><rect x="423.0" y="-683.6" width="389.00000000000006" height="160.69999999999996" fill="none" stroke="red" stroke-width="10.0" /><rect x="740.1999999999999" y="-844.3000000000001" width="242.20000000000007" height="160.70000000000007" fill="none" stroke="red" stroke-width="10.0" /><rect x="854.8" y="-1004.9999999999999" width="213.20000000000005" height="160.69999999999985" fill="none" stroke="red" stroke-width="10.0" />
</svg>
