<svg xmlns="http://www.w3.org/2000/svg"
  viewBox="102 -785 1233 652">
  <rect x="102" y="-785" width="1233" height="652" fill="white"/>
  <path d="M 271 -633 L 219 -639 L 152 -714 L 152 -735 L 210 -714 L 279 -711 L 315 -710 L 360.5 -709 L 406 -708 L 460 -708 L 537 -708 L 720 -713 L 814 -716 L 881.5 -716 L 949 -716 L 996 -716 L 1085 -716 L 1220 -638 L 1251 -603 L 1230 -605 L 1183 -614 L 1178 -614 L 1107 -622 L 1074 -625 L 1043 -626.5 L 1012 -628 L 980 -628 L 959 -628 L 910.5 -625.5 L 862 -623 L 787 -620 L 712 -617 L 656.5 -615 L 601 -613 L 565 -613 L 490 -613 L 418 -618 L 382 -621 L 345 -624 L 308 -627 Z M 1269 -422 L 1285 -386 L 1285 -352 L 1285 -268 L 1188 -225 L 1089 -183 L 930 -183 L 791 -183 L 616 -219 L 481 -247 L 325 -319 L 158 -397 L 158 -443 L 158 -461 L 182 -468 L 210 -476 L 269 -475 L 302 -475 L 334 -474 L 366 -473 L 398 -469 L 457 -462 L 480 -451 L 486 -440 L 487 -439 L 479 -430 L 473 -431 L 465.5 -432 L 458 -433 L 449 -433 L 437 -433 L 426.5 -432 L 416 -431 L 406 -430 L 395 -431 L 394 -422 L 394 -406 L 424 -377 L 441 -360 L 461.5 -345.5 L 482 -331 L 507 -319 L 550 -298 L 598 -283 L 646 -268 L 700 -255 L 806 -230 L 908 -230 L 1005 -230 L 1055 -255 L 1110 -282 L 1110 -336 L 1107 -363 L 1099 -405 L 1013 -449 L 1010 -453 L 1008.5 -456.5 L 1007 -460 L 1004 -465 L 1017 -468 L 1030.5 -469 L 1044 -470 L 1062 -473 L 1079 -475 L 1090.5 -476 L 1102 -477 L 1115 -477 L 1154 -477 L 1184.5 -469.5 L 1215 -462 L 1238 -449 L 1246 -445 L 1253.5 -437.5 L 1261 -430 Z" fill="black" fill-opacity="0.25" stroke="black" stroke-width="4"/>
  <rect x="152" y="-735" width="1099" height="132" fill="none" stroke="red" stroke-width="10" /><rect x="158" y="-477" width="1127" height="294" fill="none" stroke="red" stroke-width="10" />
</svg>
