<svg xmlns="http://www.w3.org/2000/svg"
  viewBox="-9.0 -1372.0 1309.0 1247.0">
  <rect x="-9.0" y="-1372.0" width="1309.0" height="1247.0" fill="white"/>
  <path d="M 144.0 -1308.0 L 160.0 -1310.0 L 177.0 -1312.5 L 194.0 -1315.0 L 213.0 -1317.0 L 232.0 -1319.0 L 245.0 -1320.5 L 258.0 -1322.0 L 266.0 -1322.0 L 309.0 -1322.0 L 338.0 -1303.0 L 345.0 -1298.0 L 346.0 -1278.0 L 343.0 -1233.0 L 343.0 -1220.0 L 347.0 -1213.0 L 440.0 -1081.0 L 650.0 -1040.0 L 658.0 -1037.0 L 668.5 -1036.0 L 679.0 -1035.0 L 691.0 -1033.0 L 696.0 -1049.0 L 701.0 -1061.0 L 706.0 -1073.0 L 711.0 -1085.0 L 719.0 -1102.0 L 749.0 -1102.0 L 810.0 -1096.0 L 823.0 -1095.0 L 836.0 -1093.5 L 849.0 -1092.0 L 861.0 -1092.0 L 855.0 -1080.0 L 849.0 -1061.5 L 843.0 -1043.0 L 836.0 -1018.0 L 974.0 -1011.0 L 1205.0 -1001.0 L 1250.0 -957.0 L 1077.0 -957.0 L 998.0 -957.0 L 934.0 -957.0 L 870.0 -957.0 L 816.0 -958.0 L 799.0 -920.0 L 771.0 -891.0 L 763.0 -881.0 L 749.0 -875.0 L 735.0 -869.0 L 719.0 -865.5 L 703.0 -862.0 L 686.5 -861.0 L 670.0 -860.0 L 659.0 -860.0 L 642.0 -860.0 L 635.0 -863.0 L 621.0 -869.0 L 630.0 -877.0 L 643.0 -895.0 L 653.0 -916.5 L 663.0 -938.0 L 671.0 -963.0 L 658.0 -963.0 L 458.0 -973.0 L 360.0 -1021.0 L 276.0 -1060.0 L 174.0 -1185.0 L 166.0 -1198.0 L 162.0 -1225.0 L 149.0 -1298.0 Z M 41.0 -749.0 L 41.0 -777.0 L 54.5 -797.0 L 68.0 -817.0 L 90.0 -830.5 L 112.0 -844.0 L 139.5 -852.0 L 167.0 -860.0 L 196.0 -864.0 L 225.0 -868.0 L 251.5 -869.5 L 278.0 -871.0 L 297.0 -871.0 L 349.0 -871.0 L 403.5 -866.0 L 458.0 -861.0 L 518.0 -852.0 L 578.0 -843.0 L 636.0 -828.0 L 694.0 -814.0 L 755.0 -796.0 L 814.0 -779.0 L 880.0 -746.0 L 946.0 -713.0 L 1021.0 -665.0 L 1167.0 -569.0 L 1166.0 -527.0 L 1166.0 -508.0 L 1130.0 -508.0 L 1083.0 -508.0 L 1033.0 -515.0 L 983.0 -522.0 L 937.0 -532.0 L 949.0 -636.0 L 772.0 -719.0 L 605.0 -799.0 L 433.0 -799.0 L 416.0 -799.0 L 395.5 -797.5 L 375.0 -796.0 L 353.5 -792.0 L 332.0 -788.0 L 311.5 -781.0 L 291.0 -774.0 L 274.5 -762.5 L 258.0 -751.0 L 247.5 -734.5 L 237.0 -718.0 L 236.0 -696.0 L 235.0 -665.0 L 282.0 -629.0 L 340.0 -584.0 L 345.0 -582.0 L 206.0 -583.0 L 136.0 -611.0 L 89.0 -631.0 L 58.0 -680.0 L 41.0 -720.0 Z M 138.0 -460.0 L 151.0 -464.0 L 170.5 -466.0 L 190.0 -468.0 L 217.0 -468.0 L 238.0 -468.0 L 268.0 -467.5 L 298.0 -467.0 L 329.5 -464.5 L 361.0 -462.0 L 389.5 -457.0 L 418.0 -452.0 L 437.0 -443.0 L 439.0 -441.0 L 439.5 -438.5 L 440.0 -436.0 L 441.0 -435.0 L 442.0 -433.0 L 443.0 -432.0 L 435.0 -422.0 L 429.0 -423.0 L 422.0 -424.5 L 415.0 -426.0 L 405.0 -426.0 L 393.0 -426.0 L 383.0 -425.0 L 373.0 -424.0 L 362.0 -422.0 L 358.0 -422.0 L 354.5 -421.0 L 351.0 -420.0 L 351.0 -415.0 L 351.0 -399.0 L 380.0 -369.0 L 405.0 -344.0 L 442.0 -323.5 L 479.0 -303.0 L 521.5 -286.5 L 564.0 -270.0 L 610.5 -258.0 L 657.0 -246.0 L 703.0 -238.0 L 749.0 -230.0 L 790.5 -226.0 L 832.0 -222.0 L 865.0 -222.0 L 883.0 -222.0 L 904.5 -223.5 L 926.0 -225.0 L 948.5 -228.5 L 971.0 -232.0 L 992.0 -239.0 L 1013.0 -246.0 L 1029.5 -258.0 L 1046.0 -270.0 L 1056.0 -287.5 L 1066.0 -305.0 L 1066.0 -329.0 L 1063.0 -355.0 L 1055.0 -397.0 L 969.0 -441.0 L 966.0 -445.0 L 964.5 -448.5 L 963.0 -452.0 L 960.0 -457.0 L 973.0 -460.0 L 986.5 -461.0 L 1000.0 -462.0 L 1018.0 -465.0 L 1035.0 -467.0 L 1047.0 -468.0 L 1059.0 -469.0 L 1071.0 -469.0 L 1111.0 -469.0 L 1141.0 -461.5 L 1171.0 -454.0 L 1194.0 -441.0 L 1202.0 -437.0 L 1210.0 -429.5 L 1218.0 -422.0 L 1226.0 -415.0 L 1242.0 -378.0 L 1241.0 -344.0 L 1241.0 -306.0 L 1222.5 -279.0 L 1204.0 -252.0 L 1174.0 -233.0 L 1144.0 -214.0 L 1105.0 -202.5 L 1066.0 -191.0 L 1027.0 -185.0 L 988.0 -179.0 L 951.0 -177.0 L 914.0 -175.0 L 887.0 -175.0 L 817.0 -175.0 L 739.0 -184.0 L 661.0 -193.0 L 573.0 -212.0 L 505.0 -226.0 L 432.5 -250.5 L 360.0 -275.0 L 282.0 -312.0 L 115.0 -389.0 L 115.0 -435.0 L 115.0 -454.0 Z M 365.0 -666.0 L 401.0 -668.0 L 436.5 -668.5 L 472.0 -669.0 L 508.0 -669.0 L 535.0 -669.0 L 566.0 -665.5 L 597.0 -662.0 L 632.0 -655.0 L 654.0 -651.0 L 675.0 -644.5 L 696.0 -638.0 L 716.0 -633.0 L 731.0 -630.0 L 751.0 -623.5 L 771.0 -617.0 L 792.0 -608.0 L 813.0 -599.0 L 833.5 -587.0 L 854.0 -575.0 L 869.5 -561.0 L 885.0 -547.0 L 894.5 -530.0 L 904.0 -513.0 L 904.0 -494.0 L 903.0 -472.0 L 890.0 -453.0 L 885.0 -447.0 L 862.0 -447.0 L 845.0 -447.0 L 821.0 -450.0 L 797.0 -453.0 L 763.0 -460.0 L 752.0 -462.0 L 737.5 -464.5 L 723.0 -467.0 L 704.0 -472.0 L 714.0 -477.0 L 722.5 -484.0 L 731.0 -491.0 L 738.0 -500.0 L 752.0 -519.0 L 748.0 -531.0 L 738.0 -554.0 L 700.0 -575.0 L 662.0 -596.0 L 596.0 -608.0 L 525.0 -621.0 L 457.0 -630.0 L 389.0 -639.0 L 318.0 -650.0 L 331.0 -653.0 L 342.0 -658.0 L 353.0 -663.0 Z" fill="black" fill-opacity="0.25" stroke="black" stroke-width="4.0"/>
  <rect x="144.0" y="-1322.0" width="1106.0" height="462.00000000000006" fill="none" stroke="red" stroke-width="10.0" /><rect x="41.0" y="-871.0" width="1126.0" height="363.0" fill="none" stroke="red" stroke-width="10.0" /><rect x="115.0" y="-469.0" width="1127.0" height="294.0" fill="none" stroke="red" stroke-width="10.0" /><rect x="318.0" y="-669.0" width="586.0000000000001" height="222.00000000000003" fill="none" stroke="red" stroke-width="10.0" />
</svg>
