<svg xmlns="http://www.w3.org/2000/svg"
  viewBox="102.0 -785.0 1233.0 652.0">
  <rect x="102.0" y="-785.0" width="1233.0" height="652.0" fill="white"/>
  <path d="M 271.0 -633.0 L 219.0 -639.0 L 152.0 -714.0 L 152.0 -735.0 L 210.0 -714.0 L 279.0 -711.0 L 315.0 -710.0 L 360.5 -709.0 L 406.0 -708.0 L 460.0 -708.0 L 537.0 -708.0 L 720.0 -713.0 L 814.0 -716.0 L 881.5 -716.0 L 949.0 -716.0 L 996.0 -716.0 L 1085.0 -716.0 L 1220.0 -638.0 L 1251.0 -603.0 L 1230.0 -605.0 L 1183.0 -614.0 L 1178.0 -614.0 L 1107.0 -622.0 L 1074.0 -625.0 L 1043.0 -626.5 L 1012.0 -628.0 L 980.0 -628.0 L 959.0 -628.0 L 910.5 -625.5 L 862.0 -623.0 L 787.0 -620.0 L 712.0 -617.0 L 656.5 -615.0 L 601.0 -613.0 L 565.0 -613.0 L 490.0 -613.0 L 418.0 -618.0 L 382.0 -621.0 L 345.0 -624.0 L 308.0 -627.0 Z M 1269.0 -422.0 L 1285.0 -386.0 L 1285.0 -352.0 L 1285.0 -268.0 L 1188.0 -225.0 L 1089.0 -183.0 L 930.0 -183.0 L 791.0 -183.0 L 616.0 -219.0 L 481.0 -247.0 L 325.0 -319.0 L 158.0 -397.0 L 158.0 -443.0 L 158.0 -461.0 L 182.0 -468.0 L 210.0 -476.0 L 269.0 -475.0 L 302.0 -475.0 L 334.0 -474.0 L 366.0 -473.0 L 398.0 -469.0 L 457.0 -462.0 L 480.0 -451.0 L 486.0 -440.0 L 487.0 -439.0 L 479.0 -430.0 L 473.0 -431.0 L 465.5 -432.0 L 458.0 -433.0 L 449.0 -433.0 L 437.0 -433.0 L 426.5 -432.0 L 416.0 -431.0 L 406.0 -430.0 L 395.0 -431.0 L 394.0 -422.0 L 394.0 -406.0 L 424.0 -377.0 L 441.0 -360.0 L 461.5 -345.5 L 482.0 -331.0 L 507.0 -319.0 L 550.0 -298.0 L 598.0 -283.0 L 646.0 -268.0 L 700.0 -255.0 L 806.0 -230.0 L 908.0 -230.0 L 1005.0 -230.0 L 1055.0 -255.0 L 1110.0 -282.0 L 1110.0 -336.0 L 1107.0 -363.0 L 1099.0 -405.0 L 1013.0 -449.0 L 1010.0 -453.0 L 1008.5 -456.5 L 1007.0 -460.0 L 1004.0 -465.0 L 1017.0 -468.0 L 1030.5 -469.0 L 1044.0 -470.0 L 1062.0 -473.0 L 1079.0 -475.0 L 1090.5 -476.0 L 1102.0 -477.0 L 1115.0 -477.0 L 1154.0 -477.0 L 1184.5 -469.5 L 1215.0 -462.0 L 1238.0 -449.0 L 1246.0 -445.0 L 1253.5 -437.5 L 1261.0 -430.0 Z" fill="black" fill-opacity="0.25" stroke="black" stroke-width="4.0"/>
  <rect x="152.0" y="-735.0" width="1099.0" height="132.0" fill="none" stroke="red" stroke-width="10.0" /><rect x="158.0" y="-477.0" width="1127.0" height="294.0" fill="none" stroke="red" stroke-width="10.0" />
</svg>
