<svg xmlns="http://www.w3.org/2000/svg"
  viewBox="2.0 -1186.0 1248.0 1089.0">
  <rect x="2.0" y="-1186.0" width="1248.0" height="1089.0" fill="white"/>
  <path d="M 163.0 -640.0 L 215.0 -645.0 L 329.0 -645.0 L 365.0 -645.0 L 404.5 -641.0 L 444.0 -637.0 L 488.0 -627.0 L 514.0 -621.0 L 539.0 -615.0 L 564.0 -609.0 L 626.0 -593.0 L 688.0 -577.0 L 752.0 -529.0 L 815.0 -483.0 L 816.0 -429.0 L 816.0 -400.0 L 800.0 -379.0 L 794.0 -371.0 L 766.0 -372.0 L 725.0 -372.0 L 647.0 -387.0 L 635.0 -389.0 L 616.0 -392.0 L 597.0 -395.0 L 574.0 -401.0 L 598.0 -413.0 L 616.0 -437.0 L 633.0 -461.0 L 624.5 -481.5 L 616.0 -502.0 L 570.0 -528.0 L 524.0 -554.0 L 444.0 -570.0 L 360.0 -587.0 L 274.5 -598.0 L 189.0 -609.0 L 105.0 -622.0 Z M 811.0 -906.0 L 805.0 -894.0 L 798.5 -875.0 L 792.0 -856.0 L 786.0 -831.0 L 923.0 -825.0 L 1154.0 -816.0 L 1200.0 -770.0 L 1058.0 -770.0 L 951.5 -770.0 L 845.0 -770.0 L 765.0 -771.0 L 748.0 -733.0 L 720.0 -705.0 L 709.0 -691.0 L 676.0 -681.0 L 659.0 -676.0 L 644.0 -674.5 L 629.0 -673.0 L 615.0 -673.0 L 592.0 -673.0 L 584.0 -676.0 L 570.0 -682.0 L 580.0 -690.0 L 605.0 -726.0 L 620.0 -776.0 L 607.0 -776.0 L 407.0 -785.0 L 309.0 -834.0 L 225.0 -873.0 L 123.0 -998.0 L 115.0 -1012.0 L 111.0 -1039.0 L 98.0 -1113.0 L 93.0 -1122.0 L 125.0 -1126.0 L 162.0 -1131.0 L 200.0 -1136.0 L 215.0 -1136.0 L 258.0 -1136.0 L 287.0 -1117.0 L 294.0 -1112.0 L 295.0 -1092.0 L 292.0 -1046.0 L 292.0 -1032.0 L 296.0 -1026.0 L 388.0 -895.0 L 600.0 -853.0 L 608.0 -850.0 L 618.0 -849.0 L 628.0 -848.0 L 640.0 -847.0 L 645.0 -863.0 L 650.0 -875.0 L 655.0 -887.0 L 661.0 -898.0 L 670.0 -915.0 L 698.0 -915.0 L 759.0 -909.0 L 772.0 -908.0 L 785.0 -907.0 L 798.0 -906.0 Z M 1163.0 -386.0 L 1179.0 -350.0 L 1179.0 -316.0 L 1179.0 -232.0 L 1082.0 -189.0 L 984.0 -147.0 L 824.0 -147.0 L 685.0 -147.0 L 510.0 -183.0 L 375.0 -211.0 L 219.0 -283.0 L 52.0 -361.0 L 52.0 -406.0 L 52.0 -425.0 L 76.0 -432.0 L 103.0 -440.0 L 163.0 -439.0 L 196.0 -439.0 L 228.0 -438.0 L 260.0 -437.0 L 291.0 -433.0 L 351.0 -426.0 L 374.0 -414.0 L 380.0 -403.0 L 380.0 -403.0 L 373.0 -394.0 L 367.0 -395.0 L 359.5 -396.0 L 352.0 -397.0 L 343.0 -397.0 L 330.0 -397.0 L 320.0 -396.0 L 310.0 -395.0 L 299.0 -394.0 L 288.0 -395.0 L 288.0 -386.0 L 288.0 -370.0 L 318.0 -341.0 L 335.0 -324.0 L 355.0 -309.5 L 375.0 -295.0 L 400.0 -283.0 L 444.0 -262.0 L 491.5 -246.5 L 539.0 -231.0 L 594.0 -219.0 L 700.0 -194.0 L 802.0 -194.0 L 899.0 -194.0 L 949.0 -219.0 L 1004.0 -247.0 L 1004.0 -300.0 L 1000.0 -327.0 L 992.0 -369.0 L 907.0 -413.0 L 904.0 -418.0 L 902.0 -421.0 L 900.0 -424.0 L 897.0 -428.0 L 910.0 -431.0 L 924.0 -432.5 L 938.0 -434.0 L 955.0 -436.0 L 973.0 -438.0 L 984.5 -439.5 L 996.0 -441.0 L 1008.0 -441.0 L 1047.0 -441.0 L 1077.5 -433.0 L 1108.0 -425.0 L 1132.0 -413.0 L 1140.0 -409.0 L 1147.5 -401.5 L 1155.0 -394.0 Z" fill="black" fill-opacity="0.25" stroke="black" stroke-width="4.0"/>
  <rect x="105.0" y="-645.0" width="711.0" height="274.0" fill="none" stroke="red" stroke-width="10.0" /><rect x="93.0" y="-1136.0" width="1107.0" height="462.99999999999983" fill="none" stroke="red" stroke-width="10.0" /><rect x="52.0" y="-441.0" width="1127.0" height="294.00000000000006" fill="none" stroke="red" stroke-width="10.0" />
</svg>
