<svg xmlns="http://www.w3.org/2000/svg"
  viewBox="-382.0 -918.0 1947.0 829.0">
  <rect x="-382.0" y="-918.0" width="1947.0" height="829.0" fill="white"/>
  <path d="M 370.0 -746.0 L 370.0 -774.0 L 384.0 -794.0 L 398.0 -814.0 L 420.0 -827.5 L 442.0 -841.0 L 469.5 -849.0 L 497.0 -857.0 L 525.5 -861.0 L 554.0 -865.0 L 580.5 -866.5 L 607.0 -868.0 L 627.0 -868.0 L 687.0 -868.0 L 744.0 -862.5 L 801.0 -857.0 L 858.0 -847.0 L 915.0 -837.0 L 971.0 -823.0 L 1027.0 -809.0 L 1084.0 -793.0 L 1201.0 -760.0 L 1350.0 -662.0 L 1496.0 -566.0 L 1495.0 -524.0 L 1495.0 -505.0 L 1459.0 -505.0 L 1412.0 -505.0 L 1362.0 -511.5 L 1312.0 -518.0 L 1266.0 -529.0 L 1277.0 -633.0 L 1102.0 -716.0 L 934.0 -796.0 L 762.0 -796.0 L 745.0 -796.0 L 724.5 -794.5 L 704.0 -793.0 L 682.5 -789.0 L 661.0 -785.0 L 640.5 -778.0 L 620.0 -771.0 L 603.5 -759.5 L 587.0 -748.0 L 577.0 -731.5 L 567.0 -715.0 L 566.0 -693.0 L 565.0 -662.0 L 611.0 -625.0 L 671.0 -579.0 L 675.0 -579.0 L 536.0 -580.0 L 466.0 -608.0 L 419.0 -628.0 L 387.0 -677.0 L 370.0 -717.0 Z M 1499.0 -378.0 L 1515.0 -342.0 L 1515.0 -308.0 L 1515.0 -224.0 L 1418.0 -181.0 L 1319.0 -139.0 L 1161.0 -139.0 L 1022.0 -139.0 L 847.0 -175.0 L 712.0 -203.0 L 556.0 -275.0 L 389.0 -352.0 L 389.0 -398.0 L 389.0 -416.0 L 412.0 -423.0 L 440.0 -431.0 L 499.0 -431.0 L 532.0 -431.0 L 564.5 -430.0 L 597.0 -429.0 L 628.0 -425.0 L 687.0 -418.0 L 710.0 -406.0 L 716.0 -395.0 L 717.0 -395.0 L 709.0 -386.0 L 703.0 -387.0 L 695.5 -388.0 L 688.0 -389.0 L 679.0 -389.0 L 667.0 -389.0 L 656.5 -388.0 L 646.0 -387.0 L 636.0 -386.0 L 625.0 -387.0 L 624.0 -378.0 L 624.0 -362.0 L 654.0 -332.0 L 671.0 -315.0 L 691.5 -301.0 L 712.0 -287.0 L 737.0 -275.0 L 780.0 -254.0 L 828.0 -239.0 L 876.0 -224.0 L 931.0 -211.0 L 1037.0 -186.0 L 1139.0 -185.0 L 1236.0 -185.0 L 1286.0 -211.0 L 1341.0 -238.0 L 1340.0 -292.0 L 1337.0 -318.0 L 1329.0 -360.0 L 1243.0 -405.0 L 1240.0 -409.0 L 1238.5 -412.0 L 1237.0 -415.0 L 1234.0 -420.0 L 1247.0 -423.0 L 1260.5 -424.5 L 1274.0 -426.0 L 1292.0 -428.0 L 1309.0 -430.0 L 1321.0 -431.5 L 1333.0 -433.0 L 1345.0 -433.0 L 1384.0 -433.0 L 1414.5 -425.0 L 1445.0 -417.0 L 1468.0 -405.0 L 1476.0 -401.0 L 1483.5 -393.5 L 1491.0 -386.0 Z M -277.0 -813.0 L -228.0 -817.0 L -123.0 -818.0 L -51.0 -818.0 L 27.0 -803.0 L 54.0 -798.0 L 77.5 -791.5 L 101.0 -785.0 L 123.0 -776.0 L 171.0 -765.0 L 210.0 -748.0 L 249.0 -731.0 L 276.0 -710.0 L 336.0 -665.0 L 335.0 -613.0 L 335.0 -587.0 L 321.0 -566.0 L 316.0 -559.0 L 289.0 -559.0 L 254.0 -558.0 L 178.0 -573.0 L 165.0 -575.0 L 148.0 -578.5 L 131.0 -582.0 L 109.0 -587.0 L 136.0 -603.0 L 149.0 -621.0 L 157.0 -632.0 L 159.5 -640.5 L 162.0 -649.0 L 160.0 -657.0 L 148.0 -683.0 L 105.0 -707.5 L 62.0 -732.0 L -13.0 -748.0 L -93.0 -765.0 L -172.5 -774.5 L -252.0 -784.0 L -332.0 -798.0 Z" fill="black" fill-opacity="0.25" stroke="black" stroke-width="4.0"/>
  <rect x="370.0" y="-868.0" width="1126.0" height="363.0" fill="none" stroke="red" stroke-width="10.0" /><rect x="389.0" y="-433.0" width="1126.0" height="294.0" fill="none" stroke="red" stroke-width="10.0" /><rect x="-332.0" y="-818.0" width="668.0" height="259.9999999999999" fill="none" stroke="red" stroke-width="10.0" />
</svg>
