<svg xmlns="http://www.w3.org/2000/svg"
  viewBox="-120 -1335 1348.059 1217">
  <rect x="-120" y="-1335" width="1348.059" height="1217" fill="white"/>
  <path d="M 75 -453 L 100 -461 L 154 -460 L 175 -460 L 205 -459.5 L 235 -459 L 266.5 -456.5 L 298 -454 L 326.5 -449 L 355 -444 L 374 -436 L 376 -434 L 376.5 -431.5 L 377 -429 L 378 -427 L 379 -425 L 380 -424 L 372 -415 L 366 -416 L 359 -417 L 352 -418 L 342 -418 L 330 -418 L 320 -417.5 L 310 -417 L 299 -415 L 295 -415 L 291.5 -414 L 288 -413 L 288 -407 L 288 -391 L 317 -362 L 342 -337 L 378.5 -316 L 415 -295 L 458 -279 L 501 -263 L 547.5 -251 L 594 -239 L 639.5 -231 L 685 -223 L 727 -219 L 769 -215 L 802 -215 L 820 -215 L 841.5 -216 L 863 -217 L 885.5 -221 L 908 -225 L 929 -232 L 950 -239 L 966.5 -251 L 983 -263 L 993 -280 L 1003 -297 L 1003 -321 L 1000 -348 L 992 -390 L 906 -434 L 903 -438 L 901.5 -441.5 L 900 -445 L 897 -450 L 910 -453 L 924 -454 L 938 -455 L 955 -458 L 972 -460 L 984 -461 L 996 -462 L 1008 -462 L 1048 -462 L 1078 -454.5 L 1108 -447 L 1131 -434 L 1139 -430 L 1147 -422.5 L 1155 -415 L 1163 -407 L 1179 -370 L 1178 -337 L 1178 -299 L 1159.5 -271.5 L 1141 -244 L 1111 -225.5 L 1081 -207 L 1042 -195.5 L 1003 -184 L 964 -178 L 925 -172 L 888 -170 L 851 -168 L 824 -168 L 753 -168 L 675.5 -177 L 598 -186 L 510 -204 L 442 -218 L 370 -243 L 298 -268 L 219 -304 L 52 -381 L 52 -428 L 52 -447 Z M 499 -829 L 499 -830 L 500 -831 L 501 -831 L 505 -832 L 507 -833 L 503 -839 L 499 -844 L 505 -846 L 552 -863 L 592 -876.5 L 632 -890 L 666 -901.5 L 700 -913 L 727.5 -923 L 755 -933 L 775 -943 L 855 -984 L 900 -1057 L 907 -1069 L 914.5 -1087 L 922 -1105 L 931 -1128 L 940 -1151 L 951.5 -1180 L 963 -1209 L 979 -1245 L 980 -1248 L 983.5 -1249.5 L 987 -1251 L 991 -1251 L 995 -1251 L 999.5 -1252 L 1004 -1253 L 1008 -1255 L 1020 -1262 L 1028 -1266.5 L 1036 -1271 L 1040 -1272 L 1052 -1278 L 1060.5 -1281 L 1069 -1284 L 1072 -1285 L 1085 -1285 L 1090 -1285 L 1095.5 -1284.5 L 1101 -1284 L 1106 -1282 L 1110 -1281 L 1115 -1280.5 L 1120 -1280 L 1125 -1279 L 1130 -1278 L 1134.5 -1276.5 L 1139 -1275 L 1143 -1271 L 1146 -1268 L 1139.5 -1265.5 L 1133 -1263 L 1128 -1260 L 1091 -1235 L 1088 -1228 L 1082 -1203 L 1076.5 -1181.5 L 1071 -1160 L 1063.5 -1140.5 L 1056 -1121 L 1046 -1102 L 1036 -1083 L 1020 -1063 L 1022 -1064 L 1023 -1064 L 1024 -1064 L 1019 -1059 L 1016 -1056 L 1016 -1055 L 1016 -1055 L 1020 -1063 L 1019 -1063 L 1018 -1061.5 L 1017 -1060 L 1015 -1059 L 977 -1033 L 940 -1005 L 903 -977 L 868 -947 L 857 -938 L 849.5 -931 L 842 -924 L 838 -920 L 838 -919 L 836 -918 L 836 -918 L 835 -917 L 841 -919 L 846 -921.5 L 851 -924 L 854 -926 L 859 -929 L 860 -929 L 860 -929 L 858 -927 L 857 -926 L 853.5 -924 L 850 -922 L 847 -920.5 L 844 -919 L 841 -918 L 838 -917 L 836 -917 L 835 -917 L 835 -917 L 823 -911 L 807.5 -904 L 792 -897 L 775 -890 L 758 -883 L 741.5 -877.5 L 725 -872 L 711 -870 L 702 -869 L 688.5 -868 L 675 -867 L 663.5 -866.5 L 652 -866 L 646.5 -865 L 641 -864 L 647 -862 L 655 -859 L 663.5 -858 L 672 -857 L 681 -857 L 693 -857 L 705 -858 L 717 -859 L 730 -859 L 755 -859 L 778.5 -852 L 802 -845 L 822 -829 L 841 -815 L 841 -810 L 844 -802 L 830 -802 L 817 -802 L 805.5 -803.5 L 794 -805 L 782 -807 L 765 -810 L 742 -812.5 L 719 -815 L 692 -819 L 665 -823 L 643 -825 L 621 -827 L 599 -827 L 595 -828 L 590.5 -828 L 586 -828 L 583 -828 L 569 -828 L 555 -827.5 L 541 -827 L 527 -826 L 524 -825 L 519.5 -823 L 515 -821 L 507 -821 L 502 -821 Z M -62 -593 L -67 -593 L -70 -601 L -70 -602 L -68 -602 L -67 -602 L -64 -604 L -62 -605 L -66 -610 L -70 -615 L -64 -618 L -18 -635 L 22.5 -648 L 63 -661 L 97 -672.5 L 131 -684 L 158.5 -694 L 186 -704 L 207 -714 L 287 -755 L 332 -829 L 339 -841 L 346.5 -858.5 L 354 -876 L 362.5 -899 L 371 -922 L 382.5 -951.5 L 394 -981 L 410 -1016 L 411 -1019 L 414 -1020.5 L 417 -1022 L 421.5 -1022.5 L 426 -1023 L 430.5 -1023.5 L 435 -1024 L 439 -1027 L 451 -1034 L 459 -1038 L 467 -1042 L 471 -1044 L 483 -1050 L 491.5 -1052.5 L 500 -1055 L 503 -1057 L 517 -1057 L 522 -1057 L 527 -1056.5 L 532 -1056 L 538 -1054 L 542 -1053 L 546.5 -1052 L 551 -1051 L 556 -1050.5 L 561 -1050 L 566 -1048 L 570 -1047 L 574 -1043 L 575 -1042 L 574 -1040 L 573 -1038 L 570 -1037 L 567 -1036 L 564.5 -1034.5 L 562 -1033 L 560 -1032 L 523 -1006 L 519 -999 L 511 -965 L 504 -941 L 497 -917 L 489 -897 L 487 -891 L 482.5 -883 L 478 -875 L 472 -865.5 L 466 -856 L 460.5 -847.5 L 455 -839 L 451 -834 L 451 -834 L 453 -834 L 455 -834 L 450 -830 L 446 -826 L 446 -826 L 451 -834 L 447 -832 L 436.5 -825 L 426 -818 L 412 -808 L 398 -798 L 382.5 -785.5 L 367 -773 L 351 -760 L 335 -748 L 322.5 -737.5 L 310 -727 L 299 -718 L 288 -709 L 280.5 -702.5 L 273 -696 L 269 -692 L 269 -691 L 267 -689 L 267 -689 L 267 -688 L 273 -690 L 277.5 -692.5 L 282 -695 L 286 -697 L 291 -700 L 292 -700 L 292 -700 L 289 -699 L 288 -698 L 284.5 -696 L 281 -694 L 278 -692 L 275 -690 L 272 -689 L 269 -688 L 268 -688 L 267 -688 L 267 -688 L 255 -682 L 239 -675 L 223 -668 L 206 -661 L 189 -654 L 172.5 -649 L 156 -644 L 143 -641 L 134 -640 L 120 -639.5 L 106 -639 L 94.5 -638.5 L 83 -638 L 77.5 -637 L 72 -636 L 79 -633 L 87 -630 L 95.5 -629 L 104 -628 L 112 -628 L 124 -628 L 136 -629 L 148 -630 L 161 -630 L 186 -630 L 209.5 -623 L 233 -616 L 253 -601 L 271 -587 L 272 -582 L 275 -574 L 261 -574 L 248 -574 L 237 -575 L 226 -576 L 213 -579 L 195 -582 L 172.5 -584.5 L 150 -587 L 124 -591 L 97 -595 L 74.5 -597 L 52 -599 L 30 -599 L 26 -600 L 22 -600 L 18 -600 L 14 -600 L 0 -600 L -14 -599.5 L -28 -599 L -42 -597 L -45 -596 L -49.5 -594.5 L -54 -593 Z M 582 -718 L 582 -723 L 596 -723 L 607 -723 L 618.5 -721.5 L 630 -720 L 642 -718 L 657 -716 L 665.5 -714 L 674 -712 L 681 -711 L 744 -700 L 762 -615 L 773 -564 L 782 -547 L 787 -538 L 809 -533 L 827 -529 L 826 -529 L 826 -526 L 825 -526.5 L 824 -527 L 821 -521 L 814 -507 L 776 -507 L 757 -507 L 735 -512.5 L 713 -518 L 687 -527 L 636 -546 L 618 -660 L 611 -707 L 598 -708 L 598 -708 L 597.5 -707.5 L 597 -707 L 596 -707 L 595 -707 L 591 -707 L 581 -707 Z" fill="black" fill-opacity="0.25" stroke="black" stroke-width="4"/>
  <rect x="52" y="-462" width="1127" height="294" fill="none" stroke="red" stroke-width="10" /><rect x="581" y="-723" width="246" height="216" fill="none" stroke="red" stroke-width="10" /><rect x="499" y="-963" width="387.7" height="161" fill="none" stroke="red" stroke-width="10" /><rect x="814" y="-1124" width="243.2" height="161" fill="none" stroke="red" stroke-width="10" /><rect x="929.4" y="-1285" width="216.6" height="161" fill="none" stroke="red" stroke-width="10" /><rect x="-70" y="-735" width="389.5" height="161" fill="none" stroke="red" stroke-width="10" /><rect x="248" y="-896" width="240.7" height="161" fill="none" stroke="red" stroke-width="10" /><rect x="361.4" y="-1057" width="213.6" height="161" fill="none" stroke="red" stroke-width="10" />
</svg>
