<svg xmlns="http://www.w3.org/2000/svg"
  viewBox="-9 -1368 1309 1247">
  <rect x="-9" y="-1368" width="1309" height="1247" fill="white"/>
  <path d="M 144 -1304 L 160 -1306 L 177 -1308.5 L 194 -1311 L 213 -1313 L 232 -1315 L 245 -1316.5 L 258 -1318 L 266 -1318 L 309 -1318 L 338 -1299 L 345 -1294 L 346 -1274 L 343 -1229 L 343 -1216 L 347 -1209 L 440 -1077 L 650 -1036 L 658 -1033 L 668.5 -1032 L 679 -1031 L 691 -1029 L 696 -1045 L 701 -1057 L 706 -1069 L 711 -1081 L 719 -1098 L 749 -1098 L 810 -1092 L 823 -1091 L 836 -1089.5 L 849 -1088 L 861 -1088 L 855 -1076 L 849 -1057.5 L 843 -1039 L 836 -1014 L 974 -1007 L 1205 -997 L 1250 -953 L 1077 -953 L 998 -953 L 934 -953 L 870 -953 L 816 -954 L 799 -916 L 771 -887 L 763 -877 L 749 -871 L 735 -865 L 719 -861.5 L 703 -858 L 686.5 -857 L 670 -856 L 659 -856 L 642 -856 L 635 -859 L 621 -865 L 630 -873 L 643 -891 L 653 -912.5 L 663 -934 L 671 -959 L 658 -959 L 458 -969 L 360 -1017 L 276 -1056 L 174 -1181 L 166 -1194 L 162 -1221 L 149 -1294 Z M 41 -745 L 41 -773 L 54.5 -793 L 68 -813 L 90 -826.5 L 112 -840 L 139.5 -848 L 167 -856 L 196 -860 L 225 -864 L 251.5 -865.5 L 278 -867 L 297 -867 L 349 -867 L 403.5 -862 L 458 -857 L 518 -848 L 578 -839 L 636 -824 L 694 -810 L 755 -792 L 814 -775 L 880 -742 L 946 -709 L 1021 -661 L 1167 -565 L 1166 -523 L 1166 -504 L 1130 -504 L 1083 -504 L 1033 -511 L 983 -518 L 937 -528 L 949 -632 L 772 -715 L 605 -795 L 433 -795 L 416 -795 L 395.5 -793.5 L 375 -792 L 353.5 -788 L 332 -784 L 311.5 -777 L 291 -770 L 274.5 -758.5 L 258 -747 L 247.5 -730.5 L 237 -714 L 236 -692 L 235 -661 L 282 -625 L 340 -580 L 345 -578 L 206 -579 L 136 -607 L 89 -627 L 58 -676 L 41 -716 Z M 138 -456 L 151 -460 L 170.5 -462 L 190 -464 L 217 -464 L 238 -464 L 268 -463.5 L 298 -463 L 329.5 -460.5 L 361 -458 L 389.5 -453 L 418 -448 L 437 -439 L 439 -437 L 439.5 -434.5 L 440 -432 L 441 -431 L 442 -429 L 443 -428 L 435 -418 L 429 -419 L 422 -420.5 L 415 -422 L 405 -422 L 393 -422 L 383 -421 L 373 -420 L 362 -418 L 358 -418 L 354.5 -417 L 351 -416 L 351 -411 L 351 -395 L 380 -365 L 405 -340 L 442 -319.5 L 479 -299 L 521.5 -282.5 L 564 -266 L 610.5 -254 L 657 -242 L 703 -234 L 749 -226 L 790.5 -222 L 832 -218 L 865 -218 L 883 -218 L 904.5 -219.5 L 926 -221 L 948.5 -224.5 L 971 -228 L 992 -235 L 1013 -242 L 1029.5 -254 L 1046 -266 L 1056 -283.5 L 1066 -301 L 1066 -325 L 1063 -351 L 1055 -393 L 969 -437 L 966 -441 L 964.5 -444.5 L 963 -448 L 960 -453 L 973 -456 L 986.5 -457 L 1000 -458 L 1018 -461 L 1035 -463 L 1047 -464 L 1059 -465 L 1071 -465 L 1111 -465 L 1141 -457.5 L 1171 -450 L 1194 -437 L 1202 -433 L 1210 -425.5 L 1218 -418 L 1226 -411 L 1242 -374 L 1241 -340 L 1241 -302 L 1222.5 -275 L 1204 -248 L 1174 -229 L 1144 -210 L 1105 -198.5 L 1066 -187 L 1027 -181 L 988 -175 L 951 -173 L 914 -171 L 887 -171 L 817 -171 L 739 -180 L 661 -189 L 573 -208 L 505 -222 L 432.5 -246.5 L 360 -271 L 282 -308 L 115 -385 L 115 -431 L 115 -450 Z" fill="black" fill-opacity="0.25" stroke="black" stroke-width="4"/>
  <rect x="144" y="-1318" width="1106" height="462" fill="none" stroke="red" stroke-width="10" /><rect x="41" y="-867" width="1126" height="363" fill="none" stroke="red" stroke-width="10" /><rect x="115" y="-465" width="1127" height="294" fill="none" stroke="red" stroke-width="10" />
</svg>
