<svg xmlns="http://www.w3.org/2000/svg"
  viewBox="-33.0 -694.0 1226.0 591.0">
  <rect x="-33.0" y="-694.0" width="1226.0" height="591.0" fill="white"/>
  <path d="M 1127.0 -392.0 L 1143.0 -356.0 L 1143.0 -321.0 L 1143.0 -236.0 L 1046.0 -195.0 L 947.0 -153.0 L 789.0 -153.0 L 650.0 -153.0 L 475.0 -189.0 L 340.0 -216.0 L 184.0 -289.0 L 17.0 -367.0 L 17.0 -412.0 L 17.0 -431.0 L 40.0 -437.0 L 68.0 -445.0 L 127.0 -445.0 L 160.0 -445.0 L 192.5 -443.5 L 225.0 -442.0 L 256.0 -439.0 L 315.0 -432.0 L 338.0 -420.0 L 344.0 -409.0 L 345.0 -409.0 L 337.0 -399.0 L 331.0 -401.0 L 323.5 -402.0 L 316.0 -403.0 L 307.0 -403.0 L 295.0 -403.0 L 284.5 -402.0 L 274.0 -401.0 L 264.0 -399.0 L 253.0 -401.0 L 252.0 -392.0 L 252.0 -377.0 L 282.0 -347.0 L 300.0 -329.0 L 319.5 -315.0 L 339.0 -301.0 L 365.0 -289.0 L 408.0 -268.0 L 456.0 -252.5 L 504.0 -237.0 L 559.0 -225.0 L 665.0 -200.0 L 767.0 -200.0 L 864.0 -200.0 L 914.0 -225.0 L 969.0 -252.0 L 968.0 -306.0 L 965.0 -333.0 L 957.0 -375.0 L 871.0 -419.0 L 868.0 -423.0 L 866.5 -426.0 L 865.0 -429.0 L 862.0 -434.0 L 875.0 -437.0 L 888.5 -438.5 L 902.0 -440.0 L 920.0 -442.0 L 937.0 -444.0 L 948.5 -445.0 L 960.0 -446.0 L 973.0 -446.0 L 1012.0 -446.0 L 1042.5 -438.5 L 1073.0 -431.0 L 1096.0 -419.0 L 1104.0 -415.0 L 1111.5 -407.5 L 1119.0 -400.0 Z M 742.0 -407.0 L 731.0 -393.0 L 708.0 -386.0 L 685.0 -380.0 L 654.0 -380.0 L 633.0 -380.0 L 613.5 -382.5 L 594.0 -385.0 L 572.0 -388.0 L 550.0 -391.0 L 536.5 -395.5 L 523.0 -400.0 L 516.0 -403.0 L 470.0 -422.0 L 438.0 -437.0 L 436.0 -442.0 L 434.0 -445.0 L 439.0 -449.0 L 440.0 -450.0 L 451.0 -450.0 L 459.0 -450.0 L 468.0 -450.0 L 477.0 -450.0 L 489.0 -447.0 L 555.0 -438.0 L 567.0 -438.0 L 586.0 -438.0 L 594.0 -446.0 L 600.0 -452.0 L 600.0 -463.0 L 600.0 -480.0 L 573.0 -525.0 L 547.0 -570.0 L 547.0 -594.0 L 546.0 -615.0 L 562.0 -630.0 L 568.0 -636.0 L 597.0 -641.0 L 610.0 -643.0 L 624.5 -643.5 L 639.0 -644.0 L 654.0 -644.0 L 672.0 -644.0 L 690.0 -644.0 L 708.0 -644.0 L 727.0 -641.0 L 763.0 -636.0 L 764.0 -635.0 L 774.0 -618.0 L 773.0 -608.0 L 773.0 -594.0 L 754.0 -594.0 L 745.0 -594.0 L 727.0 -599.0 L 708.0 -604.0 L 700.0 -604.0 L 694.0 -604.0 L 693.0 -599.0 L 693.0 -580.0 L 727.0 -528.0 L 760.0 -477.0 L 759.0 -449.0 L 759.0 -428.0 Z" fill="black" fill-opacity="0.25" stroke="black" stroke-width="4.0"/>
  <rect x="17.0" y="-446.0" width="1126.0" height="293.00000000000006" fill="none" stroke="red" stroke-width="10.0" /><rect x="434.0" y="-644.0" width="340.0" height="264.0" fill="none" stroke="red" stroke-width="10.0" />
</svg>
