<svg xmlns="http://www.w3.org/2000/svg"
  viewBox="-195 -1356 1958.9 1262">
  <rect x="-195" y="-1356" width="1958.9" height="1262" fill="white"/>
  <path d="M 61 -408 L 61 -429 L 89 -435 L 114 -441 L 140 -442 L 166 -443 L 192 -443 L 231 -442 L 269 -440.5 L 307 -439 L 346 -436 L 358 -435 L 370.5 -433.5 L 383 -432 L 396 -429.5 L 409 -427 L 421.5 -424 L 434 -421 L 444 -416 L 452 -407 L 452 -405 L 442 -396 L 433 -398 L 424.5 -398.5 L 416 -399 L 406 -399 L 381 -399 L 355 -396 L 351 -396 L 342 -396 L 342 -388 L 342 -374 L 377 -341 L 404 -316 L 446.5 -295.5 L 489 -275 L 539.5 -258.5 L 590 -242 L 646 -230 L 702 -218 L 757 -209.5 L 812 -201 L 862.5 -197 L 913 -193 L 953 -193 L 971 -193 L 995.5 -193.5 L 1020 -194 L 1046.5 -197.5 L 1073 -201 L 1099 -207.5 L 1125 -214 L 1146 -226.5 L 1167 -239 L 1179.5 -257 L 1192 -275 L 1192 -301 L 1189 -327 L 1180 -371 L 1078 -414 L 1073 -419 L 1072 -423 L 1071 -424 L 1069.5 -426 L 1068 -428 L 1066 -431 L 1082 -435 L 1098 -436 L 1116 -437 L 1134 -438.5 L 1152 -440 L 1170 -443 L 1177 -443 L 1184 -443.5 L 1191 -444 L 1199 -444 L 1218 -444 L 1240 -442 L 1262 -440 L 1284.5 -435.5 L 1307 -431 L 1327.5 -423 L 1348 -415 L 1364 -403 L 1368 -399 L 1372.5 -395.5 L 1377 -392 L 1383 -388 L 1401 -354 L 1400 -316 L 1400 -286 L 1386.5 -262.5 L 1373 -239 L 1349.5 -221 L 1326 -203 L 1295 -190.5 L 1264 -178 L 1229.5 -169.5 L 1195 -161 L 1159 -156 L 1123 -151 L 1089.5 -148.5 L 1056 -146 L 1027 -145 L 998 -144 L 978 -144 L 809 -144 L 605 -180 L 516 -197 L 430 -223 L 344 -249 L 260 -283 L 61 -362 Z M -137 -535 L -142 -535 L -145 -543 L -145 -544 L -144 -544 L -143 -544 L -139 -546 L -138 -547 L -142 -552 L -146 -557 L -139 -560 L -92 -577 L -52 -590.5 L -12 -604 L 22 -615 L 58 -626 L 91.5 -639 L 125 -652 L 154.5 -670 L 184 -688 L 209.5 -712.5 L 235 -737 L 256 -771 L 271 -794 L 287 -841 L 295 -864 L 307 -893.5 L 319 -923 L 334 -958 L 337 -964 L 347 -965 L 356 -965 L 364 -969 L 377 -977 L 385 -981 L 395 -986 L 408 -993 L 417 -995 L 421 -996 L 423.5 -997 L 426 -998 L 428 -999 L 432 -999 L 436 -999 L 440 -999 L 445 -999 L 455 -999 L 463 -996 L 471 -993 L 481 -993 L 491 -993 L 498 -985 L 502 -982 L 495 -979 L 488 -976 L 484 -974 L 465 -961 L 455.5 -953 L 446 -945 L 444 -941 L 438 -915 L 431 -890 L 424 -865 L 414 -840 L 411 -831 L 402 -816 L 398 -809 L 394 -802.5 L 390 -796 L 386 -790 L 384 -786 L 381 -783 L 378 -780 L 376 -776 L 377 -776 L 377 -777 L 378 -777 L 378 -777 L 378 -777 L 379 -777 L 375 -772 L 371 -768 L 372 -769 L 372 -769 L 372 -770 L 372 -771 L 373 -771 L 374 -773 L 376 -776 L 375 -776 L 373.5 -775 L 372 -774 L 371 -773 L 333 -747 L 296 -718.5 L 259 -690 L 224 -660 L 223 -659 L 217.5 -655 L 212 -651 L 206.5 -646 L 201 -641 L 196.5 -636.5 L 192 -632 L 192 -631 L 197 -633 L 201.5 -635 L 206 -637 L 210 -639 L 215 -642 L 216 -642 L 216 -642 L 214 -641 L 212 -640 L 206 -636 L 191 -627 L 192 -631 L 180 -625 L 163.5 -617.5 L 147 -610 L 130.5 -603 L 114 -596 L 97 -591 L 80 -586 L 67 -583 L 55 -581 L 43 -580.5 L 31 -580 L 19 -580 L 13 -580 L 9 -580 L 5 -580 L 2 -579 L -6 -578 L 3 -575 L 12 -572 L 21.5 -571 L 31 -570 L 40 -570 L 42 -570 L 44.5 -570 L 47 -570 L 50 -571 L 57 -572 L 64.5 -572.5 L 72 -573 L 79 -573 L 107 -573 L 131.5 -566 L 156 -559 L 178 -543 L 197 -529 L 197 -524 L 200 -516 L 186 -516 L 173 -516 L 161.5 -517 L 150 -518 L 138 -521 L 121 -524 L 98 -527 L 87 -528 L 74.5 -529.5 L 62 -531 L 49 -533 L 26 -536 L 2.5 -538.5 L -21 -541 L -45 -541 L -59 -542 L -70 -542 L -94 -542 L -117 -539 L -122 -537 L -127 -536 L -132 -535 Z M 1077 -566 L 1073 -566 L 1069 -574 L 1069 -575 L 1070 -575 L 1072 -575 L 1075 -577 L 1076 -578 L 1073 -584 L 1069 -589 L 1075 -591 L 1122 -608 L 1162 -621.5 L 1202 -635 L 1236 -646 L 1273 -657 L 1306 -670 L 1339 -683 L 1368.5 -701 L 1398 -719 L 1424 -743.5 L 1450 -768 L 1471 -802 L 1485 -825 L 1501 -872 L 1509 -895 L 1521 -924.5 L 1533 -954 L 1549 -990 L 1552 -996 L 1561 -996 L 1570 -996 L 1578 -1000 L 1591 -1008 L 1599 -1012 L 1609 -1017 L 1622 -1024 L 1631 -1026 L 1635 -1027 L 1638 -1028 L 1641 -1029 L 1643 -1030 L 1647 -1030 L 1651 -1030 L 1655 -1030 L 1659 -1031 L 1668 -1031 L 1677 -1027 L 1685 -1024 L 1695 -1024 L 1705 -1024 L 1713 -1016 L 1716 -1013 L 1709 -1011 L 1706 -1010 L 1703.5 -1008 L 1701 -1006 L 1699 -1005 L 1662 -979 L 1658 -972 L 1653 -950 L 1648 -931 L 1643 -912 L 1636.5 -894 L 1630 -876 L 1621 -858.5 L 1612 -841 L 1600 -821 L 1598 -817 L 1595 -814 L 1592 -811 L 1590 -807 L 1592 -808 L 1593 -808 L 1589 -803 L 1585 -800 L 1585 -800 L 1587 -802 L 1588 -804 L 1590 -807 L 1589 -807 L 1587.5 -806 L 1586 -805 L 1584 -804 L 1547 -779 L 1509.5 -750 L 1472 -721 L 1438 -692 L 1437 -691 L 1431.5 -686.5 L 1426 -682 L 1420.5 -677.5 L 1415 -673 L 1410.5 -668 L 1406 -663 L 1406 -662 L 1411 -664 L 1415.5 -666.5 L 1420 -669 L 1424 -671 L 1429 -674 L 1430 -674 L 1430 -674 L 1428 -672 L 1426 -671 L 1420 -668 L 1404 -659 L 1406 -662 L 1401 -660 L 1396 -657.5 L 1391 -655 L 1385 -653 L 1366 -644 L 1348 -636.5 L 1330 -629 L 1312 -623 L 1294 -617 L 1274.5 -614 L 1255 -611 L 1234 -611 L 1228 -611 L 1223.5 -611 L 1219 -611 L 1216 -611 L 1208 -610 L 1217 -607 L 1233 -601 L 1250 -601 L 1253 -601 L 1256.5 -601 L 1260 -601 L 1264 -602 L 1272 -603 L 1280 -603.5 L 1288 -604 L 1296 -604 L 1324 -604 L 1347.5 -597.5 L 1371 -591 L 1393 -574 L 1412 -560 L 1411 -555 L 1414 -547 L 1400 -547 L 1376 -547 L 1351 -552 L 1334 -555 L 1312 -558 L 1301 -559 L 1288.5 -560.5 L 1276 -562 L 1263 -564 L 1240 -567 L 1216.5 -569.5 L 1193 -572 L 1169 -572 L 1155 -573 L 1143 -573 L 1120 -573 L 1097 -571 L 1091 -569 L 1087.5 -567.5 L 1084 -566 Z M 503 -863 L 497 -863 L 496 -869 L 496 -872 L 502 -872 L 504 -873 L 501 -880 L 498 -885 L 503 -888 L 597 -919 L 666 -936 L 701 -945 L 735 -957.5 L 769 -970 L 800.5 -988.5 L 832 -1007 L 859.5 -1031 L 887 -1055 L 906 -1086 L 913 -1097 L 921.5 -1114 L 930 -1131 L 939 -1154 L 948 -1177 L 961 -1205.5 L 974 -1234 L 991 -1269 L 993 -1273 L 996.5 -1274.5 L 1000 -1276 L 1004 -1276 L 1011 -1276 L 1019 -1280 L 1025 -1284 L 1030.5 -1286.5 L 1036 -1289 L 1040 -1291 L 1049 -1294 L 1052 -1297 L 1057 -1299 L 1061.5 -1300.5 L 1066 -1302 L 1070 -1303 L 1075 -1305 L 1079 -1305.5 L 1083 -1306 L 1088 -1306 L 1102 -1306 L 1117 -1302 L 1123 -1300 L 1132 -1300 L 1137 -1300 L 1142 -1300 L 1146 -1298.5 L 1150 -1297 L 1153 -1293 L 1157 -1288 L 1149 -1286 L 1142 -1284 L 1139 -1282 L 1101 -1258 L 1099 -1249 L 1094 -1233 L 1090 -1218.5 L 1086 -1204 L 1082 -1192 L 1076 -1174 L 1069 -1157.5 L 1062 -1141 L 1051 -1125 L 1046 -1118 L 1041.5 -1111.5 L 1037 -1105 L 1033 -1099 L 1031 -1096 L 1029 -1093 L 1027 -1090 L 1025 -1088 L 1027 -1089 L 1023 -1083 L 1020 -1080 L 1020 -1080 L 1019.5 -1079.5 L 1019 -1079 L 1019 -1078 L 1019 -1079 L 1019 -1079 L 1019.5 -1080 L 1020 -1081 L 1021 -1081 L 1022 -1084 L 1025 -1088 L 1023 -1088 L 1016 -1084 L 1007 -1080 L 991.5 -1069.5 L 976 -1059 L 957 -1046.5 L 938 -1034 L 919 -1019.5 L 900 -1005 L 883.5 -992 L 867 -979 L 855 -968 L 843 -957 L 838 -952 L 838 -952 L 837.5 -951 L 837 -950 L 837 -950 L 838 -950 L 841.5 -951.5 L 845 -953 L 848.5 -954.5 L 852 -956 L 855.5 -957 L 859 -958 L 860 -958 L 862 -958 L 850 -952 L 841 -947 L 837 -947 L 835 -947 L 837 -950 L 832 -948 L 826.5 -946 L 821 -944 L 814 -941 L 787 -930 L 757 -919 L 740 -913 L 723 -908.5 L 706 -904 L 688 -904 L 662 -904 L 656 -904 L 651.5 -904 L 647 -904 L 644 -903 L 638 -903 L 645 -899 L 661 -892 L 680 -892 L 682 -892 L 685 -892 L 688 -892 L 691 -892 L 703 -893 L 715 -894 L 743 -894 L 770 -886.5 L 797 -879 L 819 -861 L 835 -848 L 836 -840 L 838 -834 L 825 -833 L 777 -838 L 689 -853 L 655 -861 L 618.5 -864.5 L 582 -868 L 547 -868 L 541 -868 L 535 -868 L 529 -868 L 523 -867 L 514 -863 Z M 489 -782 L 491 -785 L 506 -785 L 535 -785 L 549 -786 L 564 -782 L 611 -774 L 680 -762 L 699 -666 L 711 -605 L 722 -591 L 733 -578 L 752 -574 L 754 -574 L 757.5 -573.5 L 761 -573 L 766 -572 L 769 -572 L 770 -571 L 769 -564 L 762 -559 L 755 -554 L 746.5 -551 L 738 -548 L 729 -547 L 720 -546 L 714 -546 L 688 -546 L 664 -552.5 L 640 -559 L 616 -568 L 563 -588 L 541 -713 L 532 -766 L 508 -766 L 494 -766 L 484 -766 L 483 -767 L 481 -770 Z M 738 -786 L 759 -786 L 765 -786 L 771.5 -785.5 L 778 -785 L 786 -783 L 794 -782 L 801 -780.5 L 808 -779 L 813 -778 L 824 -776 L 830 -775 L 900 -762 L 917 -666 L 927 -608 L 942 -593 L 952 -577 L 972 -575 L 974 -574 L 976 -573.5 L 978 -573 L 979 -573 L 983 -572 L 984 -572 L 989 -572 L 989 -565 L 982.5 -560 L 976 -555 L 966.5 -552.5 L 957 -550 L 948 -548.5 L 939 -547 L 935 -547 L 897 -547 L 836 -569 L 782 -591 L 761 -718 L 753 -770 L 737 -769 L 734 -769 L 733 -769 L 730 -769 L 720 -769 L 721 -783 L 721 -786 Z" fill="black" fill-opacity="0.25" stroke="black" stroke-width="4"/>
  <rect x="61" y="-444" width="1340" height="300" fill="none" stroke="red" stroke-width="10" /><rect x="481" y="-786" width="289" height="240" fill="none" stroke="red" stroke-width="10" /><rect x="720" y="-786" width="269" height="239" fill="none" stroke="red" stroke-width="10" /><rect x="-146" y="-677" width="389.8" height="161" fill="none" stroke="red" stroke-width="10" /><rect x="166" y="-838" width="247.3" height="161" fill="none" stroke="red" stroke-width="10" /><rect x="286" y="-999" width="216" height="161" fill="none" stroke="red" stroke-width="10" /><rect x="1069" y="-708.3" width="388.1" height="161.3" fill="none" stroke="red" stroke-width="10" /><rect x="1380.5" y="-869.7" width="246.2" height="161.4" fill="none" stroke="red" stroke-width="10" /><rect x="1500.2" y="-1031" width="215.8" height="161.3" fill="none" stroke="red" stroke-width="10" /><rect x="496" y="-990.7" width="385.8" height="157.7" fill="none" stroke="red" stroke-width="10" /><rect x="804.2" y="-1148.3" width="260.9" height="157.6" fill="none" stroke="red" stroke-width="10" /><rect x="936.8" y="-1306" width="220.2" height="157.7" fill="none" stroke="red" stroke-width="10" />
</svg>
