<svg xmlns="http://www.w3.org/2000/svg"
  viewBox="-221.0 -1321.0 1921.4545454545455 1245.0">
  <rect x="-221.0" y="-1321.0" width="1921.4545454545455" height="1245.0" fill="white"/>
  <path d="M 70.0 -390.0 L 70.0 -411.0 L 98.0 -417.0 L 123.0 -423.0 L 149.0 -424.0 L 175.0 -425.0 L 201.0 -425.0 L 240.0 -424.0 L 278.0 -422.5 L 316.0 -421.0 L 354.0 -418.0 L 377.0 -416.0 L 404.0 -412.0 L 431.0 -408.0 L 452.0 -398.0 L 460.0 -389.0 L 460.0 -387.0 L 451.0 -378.0 L 442.0 -380.0 L 433.5 -380.5 L 425.0 -381.0 L 415.0 -381.0 L 390.0 -381.0 L 364.0 -378.0 L 360.0 -378.0 L 351.0 -378.0 L 351.0 -370.0 L 351.0 -356.0 L 385.0 -323.0 L 413.0 -298.0 L 455.5 -277.5 L 498.0 -257.0 L 548.5 -240.5 L 599.0 -224.0 L 654.5 -211.5 L 710.0 -199.0 L 765.0 -191.0 L 820.0 -183.0 L 870.5 -179.0 L 921.0 -175.0 L 962.0 -175.0 L 980.0 -175.0 L 1004.5 -175.5 L 1029.0 -176.0 L 1055.5 -179.5 L 1082.0 -183.0 L 1108.0 -189.5 L 1134.0 -196.0 L 1155.0 -208.5 L 1176.0 -221.0 L 1188.5 -239.0 L 1201.0 -257.0 L 1201.0 -283.0 L 1198.0 -309.0 L 1189.0 -353.0 L 1087.0 -396.0 L 1082.0 -401.0 L 1081.0 -405.0 L 1080.0 -406.0 L 1078.5 -408.5 L 1077.0 -411.0 L 1075.0 -414.0 L 1091.0 -418.0 L 1107.0 -418.0 L 1125.0 -419.0 L 1143.0 -420.5 L 1161.0 -422.0 L 1179.0 -425.0 L 1186.0 -425.0 L 1193.0 -425.5 L 1200.0 -426.0 L 1207.0 -426.0 L 1226.0 -426.0 L 1248.5 -424.0 L 1271.0 -422.0 L 1293.0 -417.5 L 1315.0 -413.0 L 1335.5 -405.0 L 1356.0 -397.0 L 1372.0 -385.0 L 1380.0 -379.0 L 1391.0 -370.0 L 1408.0 -335.0 L 1409.0 -298.0 L 1409.0 -268.0 L 1395.0 -244.5 L 1381.0 -221.0 L 1357.5 -203.0 L 1334.0 -185.0 L 1303.0 -173.0 L 1272.0 -161.0 L 1237.5 -152.0 L 1203.0 -143.0 L 1167.0 -138.0 L 1131.0 -133.0 L 1097.5 -130.5 L 1064.0 -128.0 L 1035.5 -127.0 L 1007.0 -126.0 L 987.0 -126.0 L 903.0 -126.0 L 811.0 -135.0 L 719.0 -144.0 L 614.0 -162.0 L 524.0 -180.0 L 438.5 -206.0 L 353.0 -232.0 L 268.0 -265.0 L 70.0 -343.0 Z M 1013.0 -543.0 L 1008.0 -543.0 L 1006.0 -551.0 L 1006.0 -552.0 L 1007.0 -553.0 L 1008.0 -553.0 L 1012.0 -554.0 L 1013.0 -556.0 L 1010.0 -561.0 L 1006.0 -566.0 L 1012.0 -568.0 L 1059.0 -585.0 L 1099.0 -598.5 L 1139.0 -612.0 L 1174.0 -623.0 L 1210.0 -634.0 L 1243.0 -647.5 L 1276.0 -661.0 L 1305.5 -679.0 L 1335.0 -697.0 L 1360.5 -721.5 L 1386.0 -746.0 L 1407.0 -779.0 L 1422.0 -802.0 L 1438.0 -850.0 L 1446.0 -873.0 L 1458.0 -902.5 L 1470.0 -932.0 L 1485.0 -967.0 L 1488.0 -973.0 L 1498.0 -973.0 L 1507.0 -973.0 L 1515.0 -978.0 L 1528.0 -986.0 L 1535.0 -990.0 L 1546.0 -995.0 L 1559.0 -1002.0 L 1568.0 -1004.0 L 1576.0 -1006.0 L 1579.0 -1008.0 L 1596.0 -1008.0 L 1606.0 -1008.0 L 1614.0 -1004.0 L 1622.0 -1001.0 L 1632.0 -1001.0 L 1642.0 -1001.0 L 1649.0 -994.0 L 1653.0 -991.0 L 1646.0 -988.0 L 1639.0 -985.0 L 1636.0 -982.0 L 1598.0 -956.0 L 1595.0 -950.0 L 1591.0 -933.0 L 1587.0 -919.0 L 1583.0 -905.0 L 1580.0 -892.0 L 1576.0 -876.0 L 1571.5 -864.5 L 1567.0 -853.0 L 1562.0 -842.5 L 1557.0 -832.0 L 1551.0 -821.5 L 1545.0 -811.0 L 1536.0 -798.0 L 1530.0 -790.0 L 1528.0 -785.0 L 1529.0 -785.0 L 1529.0 -786.0 L 1529.0 -786.0 L 1531.0 -786.0 L 1526.0 -781.0 L 1525.0 -779.0 L 1523.0 -778.0 L 1522.0 -777.0 L 1521.0 -777.0 L 1524.0 -780.0 L 1525.0 -781.0 L 1525.5 -782.5 L 1526.0 -784.0 L 1528.0 -785.0 L 1526.0 -784.0 L 1521.0 -781.0 L 1444.0 -728.0 L 1374.0 -669.0 L 1373.0 -668.0 L 1368.0 -664.0 L 1363.0 -660.0 L 1357.0 -655.0 L 1351.0 -650.0 L 1347.0 -645.5 L 1343.0 -641.0 L 1343.0 -640.0 L 1348.0 -642.0 L 1352.5 -644.0 L 1357.0 -646.0 L 1361.0 -648.0 L 1362.0 -649.0 L 1363.5 -649.5 L 1365.0 -650.0 L 1366.0 -650.0 L 1367.0 -650.0 L 1367.0 -651.0 L 1367.0 -651.0 L 1357.0 -645.0 L 1346.0 -639.0 L 1344.0 -639.0 L 1343.0 -639.0 L 1343.0 -640.0 L 1330.0 -634.0 L 1314.0 -626.5 L 1298.0 -619.0 L 1281.5 -612.5 L 1265.0 -606.0 L 1248.5 -600.5 L 1232.0 -595.0 L 1218.0 -592.0 L 1209.0 -590.0 L 1199.5 -589.5 L 1190.0 -589.0 L 1181.0 -589.0 L 1170.0 -589.0 L 1164.0 -589.0 L 1160.0 -588.5 L 1156.0 -588.0 L 1153.0 -588.0 L 1145.0 -587.0 L 1154.0 -584.0 L 1170.0 -578.0 L 1187.0 -578.0 L 1190.0 -578.0 L 1193.5 -578.5 L 1197.0 -579.0 L 1201.0 -579.0 L 1209.0 -580.0 L 1217.0 -580.5 L 1225.0 -581.0 L 1234.0 -581.0 L 1261.0 -581.0 L 1284.0 -574.5 L 1307.0 -568.0 L 1329.0 -551.0 L 1347.0 -536.0 L 1348.0 -533.0 L 1351.0 -525.0 L 1337.0 -525.0 L 1336.0 -525.0 L 1329.0 -524.0 L 1315.0 -524.0 L 1288.0 -529.0 L 1271.0 -532.0 L 1249.0 -535.0 L 1238.0 -536.0 L 1225.5 -538.0 L 1213.0 -540.0 L 1200.0 -542.0 L 1166.0 -547.0 L 1133.5 -549.0 L 1101.0 -551.0 L 1068.0 -551.0 L 1060.0 -551.0 L 1051.0 -550.0 L 1042.0 -549.0 L 1034.0 -548.0 L 1030.0 -545.0 L 1024.0 -544.0 L 1018.0 -543.0 Z M -171.0 -520.0 L -171.0 -521.0 L -170.0 -521.0 L -168.0 -521.0 L -165.0 -523.0 L -164.0 -525.0 L -167.0 -530.0 L -171.0 -535.0 L -165.0 -537.0 L -118.0 -554.0 L -77.5 -567.5 L -37.0 -581.0 L -3.0 -592.0 L 33.0 -603.0 L 66.0 -616.0 L 99.0 -629.0 L 129.0 -647.0 L 159.0 -665.0 L 184.5 -689.5 L 210.0 -714.0 L 231.0 -748.0 L 245.0 -771.0 L 262.0 -818.0 L 270.0 -841.0 L 281.5 -870.5 L 293.0 -900.0 L 309.0 -935.0 L 312.0 -941.0 L 321.0 -942.0 L 330.0 -942.0 L 338.0 -947.0 L 351.0 -955.0 L 359.0 -958.0 L 369.0 -964.0 L 382.0 -971.0 L 391.0 -973.0 L 395.0 -974.0 L 398.0 -975.0 L 401.0 -976.0 L 403.0 -977.0 L 419.0 -977.0 L 428.0 -977.0 L 437.0 -973.0 L 445.0 -970.0 L 455.0 -970.0 L 465.0 -970.0 L 473.0 -962.0 L 476.0 -958.0 L 470.0 -956.0 L 463.0 -953.0 L 459.0 -951.0 L 440.0 -938.0 L 430.0 -930.0 L 420.0 -922.0 L 418.0 -918.0 L 414.0 -901.0 L 410.5 -887.0 L 407.0 -873.0 L 404.0 -861.0 L 399.0 -845.0 L 394.5 -833.5 L 390.0 -822.0 L 385.5 -811.5 L 381.0 -801.0 L 374.5 -791.0 L 368.0 -781.0 L 360.0 -767.0 L 354.0 -759.0 L 351.0 -754.0 L 352.0 -754.0 L 352.0 -754.0 L 352.0 -755.0 L 354.0 -755.0 L 349.0 -750.0 L 349.0 -748.0 L 347.0 -747.0 L 346.0 -746.0 L 345.0 -746.0 L 347.0 -748.0 L 348.0 -749.0 L 348.5 -750.5 L 349.0 -752.0 L 351.0 -754.0 L 349.0 -753.0 L 345.0 -750.0 L 307.0 -724.0 L 270.0 -696.5 L 233.0 -669.0 L 198.0 -638.0 L 197.0 -637.0 L 191.5 -633.0 L 186.0 -629.0 L 180.5 -624.0 L 175.0 -619.0 L 170.5 -614.5 L 166.0 -610.0 L 166.0 -608.0 L 171.0 -610.0 L 175.5 -612.5 L 180.0 -615.0 L 184.0 -617.0 L 185.0 -618.0 L 186.5 -618.5 L 188.0 -619.0 L 189.0 -619.0 L 190.0 -619.0 L 190.0 -620.0 L 190.0 -620.0 L 180.0 -614.0 L 164.0 -606.0 L 166.0 -608.0 L 161.0 -606.0 L 156.0 -604.0 L 151.0 -602.0 L 145.0 -599.0 L 126.0 -590.0 L 108.0 -582.5 L 90.0 -575.0 L 72.0 -569.5 L 54.0 -564.0 L 35.0 -561.0 L 16.0 -558.0 L -6.0 -558.0 L -12.0 -558.0 L -16.5 -557.5 L -21.0 -557.0 L -24.0 -557.0 L -32.0 -556.0 L -23.0 -553.0 L -14.0 -550.0 L -4.5 -548.5 L 5.0 -547.0 L 14.0 -547.0 L 16.0 -547.0 L 18.5 -547.0 L 21.0 -547.0 L 24.0 -548.0 L 32.0 -549.0 L 39.0 -550.0 L 46.0 -551.0 L 54.0 -551.0 L 81.0 -551.0 L 106.0 -544.0 L 131.0 -537.0 L 153.0 -520.0 L 172.0 -506.0 L 171.0 -501.0 L 174.0 -493.0 L 160.0 -494.0 L 159.0 -494.0 L 153.0 -493.0 L 139.0 -493.0 L 112.0 -498.0 L 95.0 -501.0 L 72.0 -504.0 L 61.0 -505.0 L 48.5 -507.0 L 36.0 -509.0 L 23.0 -511.0 L -11.0 -516.0 L -43.5 -517.5 L -76.0 -519.0 L -110.0 -519.0 L -118.0 -519.0 L -126.0 -518.5 L -134.0 -518.0 L -143.0 -517.0 L -148.0 -514.0 L -153.0 -513.0 L -158.0 -512.0 L -163.0 -512.0 L -168.0 -512.0 Z M 534.0 -828.0 L 529.0 -828.0 L 526.0 -834.0 L 526.0 -837.0 L 532.0 -837.0 L 535.0 -838.0 L 532.0 -845.0 L 529.0 -850.0 L 534.0 -853.0 L 581.0 -869.0 L 621.0 -881.0 L 661.0 -893.0 L 697.0 -902.0 L 732.0 -911.0 L 766.0 -923.0 L 800.0 -935.0 L 831.5 -953.5 L 863.0 -972.0 L 890.0 -995.5 L 917.0 -1019.0 L 937.0 -1051.0 L 952.0 -1075.0 L 970.0 -1119.0 L 989.0 -1164.0 L 1021.0 -1234.0 L 1024.0 -1240.0 L 1033.0 -1240.0 L 1041.0 -1240.0 L 1049.0 -1245.0 L 1055.0 -1249.0 L 1060.5 -1251.5 L 1066.0 -1254.0 L 1071.0 -1256.0 L 1079.0 -1259.0 L 1082.0 -1262.0 L 1087.0 -1264.0 L 1092.0 -1265.5 L 1097.0 -1267.0 L 1101.0 -1269.0 L 1106.0 -1271.0 L 1110.0 -1271.0 L 1114.0 -1271.0 L 1119.0 -1271.0 L 1133.0 -1271.0 L 1148.0 -1267.0 L 1154.0 -1265.0 L 1163.0 -1265.0 L 1168.0 -1265.0 L 1173.0 -1265.0 L 1177.0 -1263.5 L 1181.0 -1262.0 L 1184.0 -1258.0 L 1188.0 -1253.0 L 1180.0 -1251.0 L 1173.0 -1249.0 L 1170.0 -1247.0 L 1132.0 -1223.0 L 1129.0 -1214.0 L 1119.0 -1183.0 L 1112.0 -1157.0 L 1106.0 -1138.0 L 1099.5 -1122.0 L 1093.0 -1106.0 L 1081.0 -1090.0 L 1076.0 -1083.0 L 1071.5 -1076.5 L 1067.0 -1070.0 L 1063.0 -1064.0 L 1061.0 -1061.0 L 1059.0 -1058.0 L 1057.0 -1055.0 L 1055.0 -1053.0 L 1059.0 -1054.0 L 1054.0 -1048.0 L 1051.0 -1045.0 L 1051.0 -1045.0 L 1050.5 -1044.5 L 1050.0 -1044.0 L 1050.0 -1043.0 L 1050.0 -1043.0 L 1051.0 -1046.0 L 1052.0 -1047.0 L 1053.0 -1049.0 L 1054.0 -1051.0 L 1055.0 -1053.0 L 1026.0 -1039.0 L 1000.5 -1021.0 L 975.0 -1003.0 L 950.0 -983.0 L 935.0 -972.0 L 922.0 -962.0 L 909.0 -952.0 L 898.0 -944.0 L 875.0 -925.0 L 868.0 -917.0 L 867.0 -916.0 L 867.0 -915.0 L 872.0 -917.0 L 876.5 -918.5 L 881.0 -920.0 L 885.0 -921.0 L 889.0 -922.0 L 890.0 -923.0 L 892.0 -923.0 L 881.0 -917.0 L 872.0 -912.0 L 867.0 -912.0 L 865.0 -912.0 L 867.0 -915.0 L 858.0 -912.0 L 845.0 -906.0 L 818.0 -895.0 L 788.0 -884.0 L 770.0 -878.0 L 753.5 -873.5 L 737.0 -869.0 L 718.0 -869.0 L 692.0 -869.0 L 686.0 -869.0 L 682.0 -869.0 L 678.0 -869.0 L 675.0 -868.0 L 669.0 -868.0 L 676.0 -864.0 L 692.0 -857.0 L 710.0 -857.0 L 712.0 -857.0 L 715.0 -857.0 L 718.0 -857.0 L 721.0 -857.0 L 733.0 -858.0 L 745.0 -859.0 L 773.0 -859.0 L 800.0 -851.5 L 827.0 -844.0 L 849.0 -826.0 L 865.0 -813.0 L 867.0 -805.0 L 868.0 -799.0 L 856.0 -798.0 L 807.0 -803.0 L 720.0 -818.0 L 686.0 -826.0 L 649.5 -829.5 L 613.0 -833.0 L 578.0 -833.0 L 572.0 -833.0 L 565.5 -833.0 L 559.0 -833.0 L 554.0 -832.0 L 545.0 -828.0 Z M 599.0 -759.0 L 601.0 -762.0 L 616.0 -762.0 L 645.0 -762.0 L 658.0 -762.0 L 674.0 -759.0 L 721.0 -751.0 L 791.0 -737.0 L 809.0 -643.0 L 821.0 -582.0 L 832.0 -568.0 L 843.0 -554.0 L 862.0 -551.0 L 867.0 -551.0 L 876.0 -550.0 L 879.0 -550.0 L 881.0 -548.0 L 880.0 -541.0 L 873.0 -536.5 L 866.0 -532.0 L 857.0 -529.0 L 848.0 -526.0 L 839.0 -524.5 L 830.0 -523.0 L 825.0 -523.0 L 799.0 -523.0 L 774.5 -529.5 L 750.0 -536.0 L 726.0 -545.0 L 672.0 -565.0 L 651.0 -690.0 L 642.0 -743.0 L 618.0 -744.0 L 604.0 -744.0 L 595.0 -744.0 L 593.0 -745.0 L 591.0 -747.0 Z" fill="black" fill-opacity="0.25" stroke="black" stroke-width="4.0"/>
  <rect x="70.0" y="-426.0" width="1339.0" height="300.0" fill="none" stroke="red" stroke-width="10.0" /><rect x="591.0" y="-762.0" width="290.00000000000006" height="239.0" fill="none" stroke="red" stroke-width="10.0" /><rect x="1006.0" y="-685.3000000000001" width="387.4" height="161.3" fill="none" stroke="red" stroke-width="10.0" /><rect x="1315.9" y="-846.7" width="248.1" height="161.39999999999998" fill="none" stroke="red" stroke-width="10.0" /><rect x="1436.9" y="-1008.0" width="216.09999999999997" height="161.3" fill="none" stroke="red" stroke-width="10.0" /><rect x="-171.0" y="-654.3" width="387.40000000000003" height="161.3" fill="none" stroke="red" stroke-width="10.0" /><rect x="141.2" y="-815.6999999999999" width="246.1" height="161.39999999999998" fill="none" stroke="red" stroke-width="10.0" /><rect x="261.2" y="-977.0" width="214.79999999999998" height="161.3" fill="none" stroke="red" stroke-width="10.0" /><rect x="526.0" y="-955.7" width="387.7999999999999" height="157.69999999999996" fill="none" stroke="red" stroke-width="10.0" /><rect x="835.2" y="-1113.3" width="260.8" height="157.59999999999997" fill="none" stroke="red" stroke-width="10.0" /><rect x="967.7" y="-1271.0" width="220.29999999999995" height="157.69999999999996" fill="none" stroke="red" stroke-width="10.0" />
</svg>
