<svg xmlns="http://www.w3.org/2000/svg"
  viewBox="-32 -924 1300 794">
  <rect x="-32" y="-924" width="1300" height="794" fill="white"/>
  <path d="M 18 -752 L 18 -780 L 31 -801 L 44 -822 L 66 -835 L 88 -848 L 116 -856 L 144 -864 L 172.5 -868 L 201 -872 L 227.5 -873 L 254 -874 L 274 -874 L 326 -874 L 380.5 -870 L 435 -866 L 494 -856 L 554 -848 L 612 -832 L 670 -816 L 731 -800 L 790 -782 L 856.5 -750 L 923 -718 L 997 -668 L 1143 -572 L 1143 -532 L 1143 -512 L 1106 -512 L 1059 -512 L 1009 -519 L 959 -526 L 913 -536 L 925 -640 L 749 -724 L 582 -804 L 410 -804 L 393 -804 L 372 -802 L 351 -800 L 329.5 -796 L 308 -792 L 287.5 -785 L 267 -778 L 250.5 -767 L 234 -756 L 224 -739 L 214 -722 L 213 -700 L 212 -670 L 258 -632 L 316 -588 L 322 -586 L 183 -586 L 113 -616 L 66 -636 L 35 -684 L 18 -724 Z M 91 -440 L 91 -458 L 115 -464 L 128 -468 L 147.5 -470 L 167 -472 L 194 -472 L 215 -472 L 245 -472 L 275 -472 L 306 -469 L 337 -466 L 366 -461 L 395 -456 L 413 -448 L 415 -446 L 416 -443 L 417 -440 L 418 -438 L 419 -436 L 419 -436 L 412 -426 L 406 -428 L 398.5 -429 L 391 -430 L 382 -430 L 370 -430 L 359.5 -429 L 349 -428 L 338 -426 L 334 -426 L 330.5 -425 L 327 -424 L 327 -418 L 327 -402 L 357 -374 L 374 -356 L 394 -342 L 414 -328 L 440 -316 L 482 -294 L 532.5 -278 L 583 -262 L 636 -251 L 689 -240 L 741.5 -233 L 794 -226 L 841 -226 L 859 -226 L 880.5 -227 L 902 -228 L 924.5 -232 L 947 -236 L 968 -243 L 989 -250 L 1005.5 -262 L 1022 -274 L 1032 -291 L 1042 -308 L 1043 -332 L 1040 -360 L 1032 -402 L 946 -446 L 943 -450 L 941.5 -453 L 940 -456 L 937 -462 L 950 -464 L 963.5 -465 L 977 -466 L 995 -470 L 1012 -472 L 1023.5 -473 L 1035 -474 L 1047 -474 L 1087 -474 L 1117 -466 L 1147 -458 L 1171 -446 L 1179 -442 L 1186.5 -434 L 1194 -426 L 1202 -418 L 1218 -382 L 1218 -348 L 1218 -310 L 1199.5 -283 L 1181 -256 L 1150.5 -237 L 1120 -218 L 1081.5 -207 L 1043 -196 L 1003.5 -190 L 964 -184 L 927.5 -182 L 891 -180 L 863 -180 L 793 -180 L 715 -189 L 637 -198 L 549 -216 L 413 -244 L 258 -316 L 91 -394 Z M 294 -654 L 307 -658 L 318 -662 L 329 -666 L 341 -670 L 377 -672 L 413 -673 L 449 -674 L 484 -674 L 511 -674 L 542.5 -670 L 574 -666 L 609 -660 L 631 -656 L 651.5 -649 L 672 -642 L 693 -638 L 708 -634 L 728 -628 L 748 -622 L 769 -612 L 790 -602 L 810 -591 L 830 -580 L 846 -566 L 862 -552 L 871.5 -535 L 881 -518 L 880 -498 L 879 -476 L 867 -458 L 862 -452 L 838 -452 L 821 -452 L 797 -454 L 773 -456 L 740 -464 L 729 -466 L 714 -469 L 699 -472 L 681 -476 L 691 -480 L 699.5 -488 L 708 -496 L 715 -504 L 729 -524 L 724 -536 L 714 -558 L 676.5 -579 L 639 -600 L 573 -612 L 502 -626 L 433.5 -635 L 365 -644 Z" fill="black" fill-opacity="0.25" stroke="black" stroke-width="4"/>
  <rect x="18" y="-874" width="1125" height="362" fill="none" stroke="red" stroke-width="10" /><rect x="91" y="-474" width="1127" height="294" fill="none" stroke="red" stroke-width="10" /><rect x="294" y="-674" width="587" height="222" fill="none" stroke="red" stroke-width="10" />
</svg>
