<svg xmlns="http://www.w3.org/2000/svg"
  viewBox="-41.0 -1269.0 1276.0 1293.0">
  <rect x="-41.0" y="-1269.0" width="1276.0" height="1293.0" fill="white"/>
  <path d="M 726.0 -659.0 L 720.0 -647.0 L 714.0 -628.0 L 708.0 -609.0 L 701.0 -585.0 L 839.0 -578.0 L 1070.0 -569.0 L 1115.0 -523.0 L 973.0 -523.0 L 867.0 -523.0 L 761.0 -523.0 L 681.0 -525.0 L 664.0 -487.0 L 635.0 -458.0 L 624.0 -444.0 L 592.0 -435.0 L 575.0 -430.0 L 560.0 -428.5 L 545.0 -427.0 L 531.0 -427.0 L 508.0 -427.0 L 500.0 -430.0 L 486.0 -436.0 L 495.0 -444.0 L 520.0 -480.0 L 536.0 -530.0 L 523.0 -530.0 L 323.0 -539.0 L 225.0 -587.0 L 141.0 -626.0 L 39.0 -752.0 L 31.0 -766.0 L 26.0 -792.0 L 13.0 -866.0 L 9.0 -875.0 L 41.0 -879.0 L 78.0 -884.0 L 116.0 -889.0 L 131.0 -889.0 L 174.0 -889.0 L 203.0 -870.0 L 210.0 -865.0 L 210.0 -845.0 L 208.0 -800.0 L 208.0 -786.0 L 212.0 -780.0 L 304.0 -649.0 L 515.0 -606.0 L 523.0 -603.0 L 533.0 -602.5 L 543.0 -602.0 L 556.0 -600.0 L 561.0 -616.0 L 566.0 -628.0 L 571.0 -640.0 L 576.0 -651.0 L 585.0 -668.0 L 614.0 -669.0 L 674.0 -663.0 L 687.0 -662.0 L 700.0 -660.5 L 713.0 -659.0 Z M 1169.0 -265.0 L 1185.0 -229.0 L 1185.0 -195.0 L 1185.0 -111.0 L 1088.0 -68.0 L 990.0 -26.0 L 831.0 -26.0 L 692.0 -26.0 L 516.0 -62.0 L 381.0 -90.0 L 226.0 -162.0 L 59.0 -240.0 L 59.0 -285.0 L 59.0 -304.0 L 82.0 -311.0 L 109.0 -319.0 L 169.0 -318.0 L 202.0 -318.0 L 234.0 -317.0 L 266.0 -316.0 L 297.0 -312.0 L 357.0 -305.0 L 380.0 -293.0 L 386.0 -282.0 L 387.0 -282.0 L 379.0 -273.0 L 373.0 -274.0 L 365.5 -275.0 L 358.0 -276.0 L 349.0 -276.0 L 336.0 -276.0 L 326.0 -275.0 L 316.0 -274.0 L 305.0 -273.0 L 294.0 -274.0 L 294.0 -265.0 L 294.0 -249.0 L 324.0 -220.0 L 341.0 -203.0 L 361.5 -188.5 L 382.0 -174.0 L 407.0 -162.0 L 451.0 -141.0 L 498.0 -126.0 L 545.0 -111.0 L 601.0 -98.0 L 707.0 -73.0 L 809.0 -73.0 L 906.0 -73.0 L 956.0 -98.0 L 1011.0 -126.0 L 1010.0 -179.0 L 1007.0 -206.0 L 999.0 -248.0 L 913.0 -292.0 L 910.0 -297.0 L 908.5 -300.0 L 907.0 -303.0 L 904.0 -307.0 L 917.0 -310.0 L 930.5 -311.5 L 944.0 -313.0 L 961.0 -315.0 L 979.0 -317.0 L 990.5 -318.5 L 1002.0 -320.0 L 1015.0 -320.0 L 1054.0 -320.0 L 1084.5 -312.0 L 1115.0 -304.0 L 1138.0 -292.0 L 1146.0 -288.0 L 1153.5 -280.5 L 1161.0 -273.0 Z M 771.0 -989.0 L 765.0 -977.0 L 759.0 -958.0 L 753.0 -939.0 L 747.0 -915.0 L 884.0 -908.0 L 1115.0 -899.0 L 1161.0 -854.0 L 1019.0 -854.0 L 912.5 -854.0 L 806.0 -854.0 L 726.0 -855.0 L 709.0 -817.0 L 681.0 -788.0 L 670.0 -774.0 L 637.0 -765.0 L 620.0 -760.0 L 605.0 -758.5 L 590.0 -757.0 L 576.0 -757.0 L 553.0 -757.0 L 545.0 -760.0 L 531.0 -766.0 L 541.0 -774.0 L 566.0 -810.0 L 581.0 -860.0 L 568.0 -860.0 L 368.0 -869.0 L 270.0 -918.0 L 186.0 -957.0 L 84.0 -1082.0 L 76.0 -1096.0 L 72.0 -1122.0 L 59.0 -1196.0 L 54.0 -1205.0 L 86.0 -1209.0 L 123.0 -1214.0 L 161.0 -1219.0 L 176.0 -1219.0 L 219.0 -1219.0 L 248.0 -1200.0 L 255.0 -1195.0 L 256.0 -1175.0 L 253.0 -1130.0 L 253.0 -1116.0 L 257.0 -1110.0 L 349.0 -979.0 L 561.0 -937.0 L 569.0 -934.0 L 579.0 -933.0 L 589.0 -932.0 L 601.0 -930.0 L 606.0 -946.0 L 611.0 -958.0 L 616.0 -970.0 L 622.0 -981.0 L 631.0 -998.0 L 659.0 -999.0 L 720.0 -993.0 L 733.0 -992.0 L 745.5 -990.5 L 758.0 -989.0 Z" fill="black" fill-opacity="0.25" stroke="black" stroke-width="4.0"/>
  <rect x="9.0" y="-889.0" width="1106.0" height="462.0" fill="none" stroke="red" stroke-width="10.0" /><rect x="59.0" y="-320.0" width="1126.0" height="294.0" fill="none" stroke="red" stroke-width="10.0" /><rect x="54.0" y="-1219.0" width="1107.0" height="462.00000000000006" fill="none" stroke="red" stroke-width="10.0" />
</svg>
