<svg xmlns="http://www.w3.org/2000/svg"
  viewBox="32.929 -1104 1449.571 985">
  <rect x="32.929" y="-1104" width="1449.571" height="985" fill="white"/>
  <path d="M 95 -450 L 102 -455 L 115 -457.5 L 128 -460 L 143 -461 L 158 -462 L 172 -462.5 L 186 -463 L 195 -463 L 214 -463 L 243 -462 L 272 -461 L 302.5 -458.5 L 333 -456 L 361.5 -451 L 390 -446 L 406 -437 L 408 -435 L 409 -432.5 L 410 -430 L 411 -429 L 412 -428 L 412 -427 L 404 -417 L 404 -417 L 403 -416 L 397 -417 L 389.5 -418.5 L 382 -420 L 373 -420 L 361 -420 L 350.5 -419 L 340 -418 L 330 -416 L 328 -416 L 326 -416 L 324 -416 L 322 -415 L 320 -413 L 320 -409 L 320 -393 L 350 -364 L 367 -347 L 387 -332.5 L 407 -318 L 432 -306 L 475 -285 L 525.5 -269 L 576 -253 L 628.5 -241 L 681 -229 L 733.5 -223 L 786 -217 L 834 -217 L 852 -217 L 873.5 -218.5 L 895 -220 L 917 -223.5 L 939 -227 L 960 -234 L 981 -241 L 998 -252.5 L 1015 -264 L 1025 -281.5 L 1035 -299 L 1034 -323 L 1031 -349 L 1023 -391 L 937 -435 L 934 -439 L 932.5 -442.5 L 931 -446 L 928 -451 L 929 -451 L 929 -451 L 942 -454 L 956 -455.5 L 970 -457 L 987 -459 L 1005 -461 L 1016.5 -462.5 L 1028 -464 L 1040 -464 L 1080 -464 L 1110 -456.5 L 1140 -449 L 1164 -436 L 1172 -432 L 1179.5 -424.5 L 1187 -417 L 1195 -409 L 1211 -372 L 1210 -339 L 1210 -301 L 1191.5 -273.5 L 1173 -246 L 1142.5 -227 L 1112 -208 L 1073.5 -196.5 L 1035 -185 L 995.5 -179 L 956 -173 L 919 -171 L 882 -169 L 854 -169 L 784 -169 L 706 -178 L 628 -187 L 541 -205 L 473 -219 L 400.5 -244 L 328 -269 L 250 -305 L 83 -382 L 83 -429 L 82 -443 Z M 796 -590 L 791 -590 L 789 -598 L 789 -599 L 790 -599 L 791 -599 L 794 -601 L 796 -602 L 792 -608 L 788 -613 L 794 -615 L 841 -632 L 881.5 -645 L 922 -658 L 956 -669.5 L 990 -681 L 1017 -691 L 1044 -701 L 1065 -712 L 1146 -754 L 1190 -826 L 1197 -838 L 1204.5 -855.5 L 1212 -873 L 1220.5 -896.5 L 1229 -920 L 1240.5 -949 L 1252 -978 L 1268 -1013 L 1269 -1016 L 1272.5 -1017.5 L 1276 -1019 L 1280.5 -1019.5 L 1285 -1020 L 1289.5 -1021 L 1294 -1022 L 1298 -1024 L 1310 -1031 L 1318 -1035.5 L 1326 -1040 L 1329 -1041 L 1342 -1047 L 1350.5 -1050 L 1359 -1053 L 1362 -1054 L 1375 -1054 L 1380 -1054 L 1385.5 -1053.5 L 1391 -1053 L 1396 -1051 L 1400 -1050 L 1404.5 -1049.5 L 1409 -1049 L 1414 -1048 L 1419 -1047 L 1423.5 -1045.5 L 1428 -1044 L 1432 -1040 L 1433 -1039 L 1432 -1037.5 L 1431 -1036 L 1428.5 -1034.5 L 1426 -1033 L 1423 -1032 L 1420 -1031 L 1418 -1029 L 1381 -1005 L 1377 -996 L 1369 -962 L 1362 -938 L 1355 -914 L 1348 -895 L 1346 -889 L 1341 -880.5 L 1336 -872 L 1330.5 -863 L 1325 -854 L 1319 -845.5 L 1313 -837 L 1310 -831 L 1311 -831 L 1312 -832 L 1313 -832 L 1309 -827 L 1307 -825 L 1306 -825 L 1306 -825 L 1305 -824 L 1305 -824 L 1310 -831 L 1306 -829 L 1296 -822.5 L 1286 -816 L 1272 -805.5 L 1258 -795 L 1241.5 -782.5 L 1225 -770 L 1209 -757 L 1178 -733 L 1157 -716 L 1146 -707 L 1138.5 -700 L 1131 -693 L 1127 -689 L 1125 -686 L 1125 -686 L 1131 -688 L 1135.5 -690.5 L 1140 -693 L 1144 -695 L 1149 -698 L 1150 -698 L 1149 -698 L 1147 -696 L 1145 -695 L 1140 -692 L 1129 -686 L 1126 -685 L 1125 -685 L 1125 -686 L 1113 -680 L 1097 -672.5 L 1081 -665 L 1064 -658.5 L 1047 -652 L 1030.5 -646.5 L 1014 -641 L 1001 -638 L 992 -637 L 978.5 -636.5 L 965 -636 L 953 -636 L 941 -636 L 935.5 -635 L 930 -634 L 937 -631 L 945 -628 L 953.5 -627 L 962 -626 L 971 -626 L 983 -626 L 995 -627 L 1007 -628 L 1020 -628 L 1023 -628 L 1026 -628 L 1029 -628 L 1032 -627 L 1077 -624 L 1112 -598 L 1131 -584 L 1130 -579 L 1133 -571 L 1120 -571 L 1107 -571 L 1095.5 -572.5 L 1084 -574 L 1071 -576 L 1054 -579 L 1031.5 -581.5 L 1009 -584 L 982 -588 L 956 -592 L 933 -594 L 910 -596 L 888 -596 L 881 -597 L 874.5 -597 L 868 -597 L 862 -597 L 850 -597 L 839 -596.5 L 828 -596 L 816 -595 L 813 -594 L 808.5 -592 L 804 -590 Z" fill="black" fill-opacity="0.25" stroke="black" stroke-width="4"/>
  <rect x="82" y="-464" width="1129" height="295" fill="none" stroke="red" stroke-width="10" /><rect x="788" y="-732" width="388.8" height="161" fill="none" stroke="red" stroke-width="10" /><rect x="1103.6" y="-893" width="243.7" height="161" fill="none" stroke="red" stroke-width="10" /><rect x="1219.2" y="-1054" width="213.8" height="161" fill="none" stroke="red" stroke-width="10" />
</svg>
