<svg xmlns="http://www.w3.org/2000/svg"
  viewBox="32.92857142857143 -1104.0 1449.5714285714287 985.0">
  <rect x="32.92857142857143" y="-1104.0" width="1449.5714285714287" height="985.0" fill="white"/>
  <path d="M 95.0 -450.0 L 102.0 -455.0 L 115.0 -457.5 L 128.0 -460.0 L 143.0 -461.0 L 158.0 -462.0 L 172.0 -462.5 L 186.0 -463.0 L 195.0 -463.0 L 214.0 -463.0 L 243.0 -462.0 L 272.0 -461.0 L 302.5 -458.5 L 333.0 -456.0 L 361.5 -451.0 L 390.0 -446.0 L 406.0 -437.0 L 408.0 -435.0 L 409.0 -432.5 L 410.0 -430.0 L 411.0 -429.0 L 412.0 -428.0 L 412.0 -427.0 L 404.0 -417.0 L 404.0 -417.0 L 403.0 -416.0 L 397.0 -417.0 L 389.5 -418.5 L 382.0 -420.0 L 373.0 -420.0 L 361.0 -420.0 L 350.5 -419.0 L 340.0 -418.0 L 330.0 -416.0 L 328.0 -416.0 L 326.0 -416.0 L 324.0 -416.0 L 322.0 -415.0 L 320.0 -413.0 L 320.0 -409.0 L 320.0 -393.0 L 350.0 -364.0 L 367.0 -347.0 L 387.0 -332.5 L 407.0 -318.0 L 432.0 -306.0 L 475.0 -285.0 L 525.5 -269.0 L 576.0 -253.0 L 628.5 -241.0 L 681.0 -229.0 L 733.5 -223.0 L 786.0 -217.0 L 834.0 -217.0 L 852.0 -217.0 L 873.5 -218.5 L 895.0 -220.0 L 917.0 -223.5 L 939.0 -227.0 L 960.0 -234.0 L 981.0 -241.0 L 998.0 -252.5 L 1015.0 -264.0 L 1025.0 -281.5 L 1035.0 -299.0 L 1034.0 -323.0 L 1031.0 -349.0 L 1023.0 -391.0 L 937.0 -435.0 L 934.0 -439.0 L 932.5 -442.5 L 931.0 -446.0 L 928.0 -451.0 L 929.0 -451.0 L 929.0 -451.0 L 942.0 -454.0 L 956.0 -455.5 L 970.0 -457.0 L 987.0 -459.0 L 1005.0 -461.0 L 1016.5 -462.5 L 1028.0 -464.0 L 1040.0 -464.0 L 1080.0 -464.0 L 1110.0 -456.5 L 1140.0 -449.0 L 1164.0 -436.0 L 1172.0 -432.0 L 1179.5 -424.5 L 1187.0 -417.0 L 1195.0 -409.0 L 1211.0 -372.0 L 1210.0 -339.0 L 1210.0 -301.0 L 1191.5 -273.5 L 1173.0 -246.0 L 1142.5 -227.0 L 1112.0 -208.0 L 1073.5 -196.5 L 1035.0 -185.0 L 995.5 -179.0 L 956.0 -173.0 L 919.0 -171.0 L 882.0 -169.0 L 854.0 -169.0 L 784.0 -169.0 L 706.0 -178.0 L 628.0 -187.0 L 541.0 -205.0 L 473.0 -219.0 L 400.5 -244.0 L 328.0 -269.0 L 250.0 -305.0 L 83.0 -382.0 L 83.0 -429.0 L 82.0 -443.0 Z M 796.0 -590.0 L 791.0 -590.0 L 789.0 -598.0 L 789.0 -599.0 L 790.0 -599.0 L 791.0 -599.0 L 794.0 -601.0 L 796.0 -602.0 L 792.0 -608.0 L 788.0 -613.0 L 794.0 -615.0 L 841.0 -632.0 L 881.5 -645.0 L 922.0 -658.0 L 956.0 -669.5 L 990.0 -681.0 L 1017.0 -691.0 L 1044.0 -701.0 L 1065.0 -712.0 L 1146.0 -754.0 L 1190.0 -826.0 L 1197.0 -838.0 L 1204.5 -855.5 L 1212.0 -873.0 L 1220.5 -896.5 L 1229.0 -920.0 L 1240.5 -949.0 L 1252.0 -978.0 L 1268.0 -1013.0 L 1269.0 -1016.0 L 1272.5 -1017.5 L 1276.0 -1019.0 L 1280.5 -1019.5 L 1285.0 -1020.0 L 1289.5 -1021.0 L 1294.0 -1022.0 L 1298.0 -1024.0 L 1310.0 -1031.0 L 1318.0 -1035.5 L 1326.0 -1040.0 L 1329.0 -1041.0 L 1342.0 -1047.0 L 1350.5 -1050.0 L 1359.0 -1053.0 L 1362.0 -1054.0 L 1375.0 -1054.0 L 1380.0 -1054.0 L 1385.5 -1053.5 L 1391.0 -1053.0 L 1396.0 -1051.0 L 1400.0 -1050.0 L 1404.5 -1049.5 L 1409.0 -1049.0 L 1414.0 -1048.0 L 1419.0 -1047.0 L 1423.5 -1045.5 L 1428.0 -1044.0 L 1432.0 -1040.0 L 1433.0 -1039.0 L 1432.0 -1037.5 L 1431.0 -1036.0 L 1428.5 -1034.5 L 1426.0 -1033.0 L 1423.0 -1032.0 L 1420.0 -1031.0 L 1418.0 -1029.0 L 1381.0 -1005.0 L 1377.0 -996.0 L 1369.0 -962.0 L 1362.0 -938.0 L 1355.0 -914.0 L 1348.0 -895.0 L 1346.0 -889.0 L 1341.0 -880.5 L 1336.0 -872.0 L 1330.5 -863.0 L 1325.0 -854.0 L 1319.0 -845.5 L 1313.0 -837.0 L 1310.0 -831.0 L 1311.0 -831.0 L 1312.0 -832.0 L 1313.0 -832.0 L 1309.0 -827.0 L 1307.0 -825.0 L 1306.0 -825.0 L 1306.0 -825.0 L 1305.0 -824.0 L 1305.0 -824.0 L 1310.0 -831.0 L 1306.0 -829.0 L 1296.0 -822.5 L 1286.0 -816.0 L 1272.0 -805.5 L 1258.0 -795.0 L 1241.5 -782.5 L 1225.0 -770.0 L 1209.0 -757.0 L 1178.0 -733.0 L 1157.0 -716.0 L 1146.0 -707.0 L 1138.5 -700.0 L 1131.0 -693.0 L 1127.0 -689.0 L 1125.0 -686.0 L 1125.0 -686.0 L 1131.0 -688.0 L 1135.5 -690.5 L 1140.0 -693.0 L 1144.0 -695.0 L 1149.0 -698.0 L 1150.0 -698.0 L 1149.0 -698.0 L 1147.0 -696.0 L 1145.0 -695.0 L 1140.0 -692.0 L 1129.0 -686.0 L 1126.0 -685.0 L 1125.0 -685.0 L 1125.0 -686.0 L 1113.0 -680.0 L 1097.0 -672.5 L 1081.0 -665.0 L 1064.0 -658.5 L 1047.0 -652.0 L 1030.5 -646.5 L 1014.0 -641.0 L 1001.0 -638.0 L 992.0 -637.0 L 978.5 -636.5 L 965.0 -636.0 L 953.0 -636.0 L 941.0 -636.0 L 935.5 -635.0 L 930.0 -634.0 L 937.0 -631.0 L 945.0 -628.0 L 953.5 -627.0 L 962.0 -626.0 L 971.0 -626.0 L 983.0 -626.0 L 995.0 -627.0 L 1007.0 -628.0 L 1020.0 -628.0 L 1023.0 -628.0 L 1026.0 -628.0 L 1029.0 -628.0 L 1032.0 -627.0 L 1077.0 -624.0 L 1112.0 -598.0 L 1131.0 -584.0 L 1130.0 -579.0 L 1133.0 -571.0 L 1120.0 -571.0 L 1107.0 -571.0 L 1095.5 -572.5 L 1084.0 -574.0 L 1071.0 -576.0 L 1054.0 -579.0 L 1031.5 -581.5 L 1009.0 -584.0 L 982.0 -588.0 L 956.0 -592.0 L 933.0 -594.0 L 910.0 -596.0 L 888.0 -596.0 L 881.0 -597.0 L 874.5 -597.0 L 868.0 -597.0 L 862.0 -597.0 L 850.0 -597.0 L 839.0 -596.5 L 828.0 -596.0 L 816.0 -595.0 L 813.0 -594.0 L 808.5 -592.0 L 804.0 -590.0 Z" fill="black" fill-opacity="0.25" stroke="black" stroke-width="4.0"/>
  <rect x="82.0" y="-464.0" width="1129.0" height="295.00000000000006" fill="none" stroke="red" stroke-width="10.0" /><rect x="788.0" y="-732.0" width="388.8" height="161.00000000000003" fill="none" stroke="red" stroke-width="10.0" /><rect x="1103.6" y="-893.0" width="243.70000000000002" height="161.00000000000003" fill="none" stroke="red" stroke-width="10.0" /><rect x="1219.2" y="-1054.0" width="213.79999999999998" height="161.00000000000003" fill="none" stroke="red" stroke-width="10.0" />
</svg>
