<svg xmlns="http://www.w3.org/2000/svg"
  viewBox="-26 -1410 1293 1429">
  <rect x="-26" y="-1410" width="1293" height="1429" fill="white"/>
  <path d="M 134 -524 L 186 -529 L 300 -529 L 336 -529 L 376 -525 L 416 -521 L 459 -511 L 485 -505 L 510.5 -499 L 536 -493 L 598 -477 L 660 -461 L 724 -413 L 787 -367 L 788 -313 L 788 -284 L 772 -263 L 766 -255 L 737 -256 L 696 -256 L 619 -271 L 607 -273 L 588 -276 L 569 -279 L 545 -285 L 569 -297 L 587 -321 L 604 -345 L 595.5 -365.5 L 587 -386 L 541.5 -412 L 496 -438 L 416 -454 L 332 -471 L 246.5 -482 L 161 -493 L 77 -506 Z M 782 -790 L 776 -778 L 770 -759 L 764 -740 L 757 -715 L 895 -709 L 1126 -700 L 1171 -654 L 1029 -654 L 923 -654 L 817 -654 L 737 -656 L 720 -618 L 691 -589 L 680 -575 L 648 -565 L 631 -560 L 616 -558.5 L 601 -557 L 587 -557 L 564 -557 L 556 -560 L 542 -566 L 551 -574 L 576 -610 L 592 -660 L 579 -660 L 379 -669 L 281 -718 L 197 -757 L 95 -882 L 86 -896 L 82 -923 L 69 -997 L 65 -1006 L 97 -1010 L 134 -1015 L 172 -1020 L 187 -1020 L 230 -1020 L 259 -1001 L 266 -996 L 267 -976 L 264 -930 L 264 -916 L 268 -910 L 360 -779 L 571 -737 L 579 -734 L 589.5 -733 L 600 -732 L 612 -731 L 617 -747 L 622 -759 L 627 -771 L 632 -782 L 641 -799 L 670 -800 L 730 -793 L 743 -792 L 756 -791 L 769 -790 Z M 828 -1131 L 822 -1118 L 815.5 -1099.5 L 809 -1081 L 803 -1055 L 940 -1050 L 1171 -1040 L 1217 -995 L 1074 -995 L 968 -995 L 862 -995 L 782 -996 L 765 -958 L 737 -929 L 726 -914 L 693 -906 L 675 -901 L 660.5 -899.5 L 646 -898 L 632 -898 L 609 -898 L 601 -901 L 587 -907 L 596 -915 L 621 -951 L 637 -1001 L 624 -1001 L 424 -1011 L 326 -1059 L 242 -1098 L 140 -1223 L 132 -1237 L 127 -1263 L 114 -1336 L 110 -1346 L 141 -1351 L 179 -1356 L 217 -1360 L 232 -1360 L 275 -1360 L 304 -1342 L 312 -1337 L 312 -1317 L 309 -1271 L 309 -1257 L 313 -1251 L 405 -1120 L 617 -1077 L 625 -1074 L 635 -1073.5 L 645 -1073 L 657 -1071 L 662 -1087 L 667 -1099.5 L 672 -1112 L 678 -1123 L 686 -1140 L 715 -1140 L 776 -1134 L 789 -1133 L 802 -1132 L 815 -1131 Z M 1135 -270 L 1151 -234 L 1150 -200 L 1150 -116 L 1054 -74 L 956 -31 L 796 -31 L 657 -31 L 481 -67 L 347 -95 L 191 -167 L 24 -245 L 24 -290 L 24 -309 L 47 -316 L 74 -324 L 135 -324 L 168 -324 L 199.5 -322.5 L 231 -321 L 263 -317 L 323 -310 L 346 -298 L 352 -287 L 352 -287 L 344 -278 L 338 -279 L 331 -280 L 324 -281 L 314 -281 L 301 -281 L 291.5 -280.5 L 282 -280 L 270 -278 L 259 -279 L 260 -270 L 260 -254 L 290 -225 L 307 -208 L 327.5 -193.5 L 348 -179 L 372 -167 L 416 -146 L 463.5 -131 L 511 -116 L 566 -103 L 672 -78 L 774 -78 L 871 -78 L 921 -103 L 976 -131 L 976 -184 L 972 -211 L 964 -253 L 878 -297 L 875 -302 L 873.5 -305 L 872 -308 L 869 -312 L 882 -315 L 896 -316.5 L 910 -318 L 927 -320 L 945 -322 L 956.5 -323.5 L 968 -325 L 980 -325 L 1019 -325 L 1050 -317 L 1081 -309 L 1103 -297 L 1111 -293 L 1119 -285.5 L 1127 -278 Z" fill="black" fill-opacity="0.25" stroke="black" stroke-width="4"/>
  <rect x="77" y="-529" width="711" height="274" fill="none" stroke="red" stroke-width="10" /><rect x="65" y="-1020" width="1106" height="463" fill="none" stroke="red" stroke-width="10" /><rect x="110" y="-1360" width="1107" height="462" fill="none" stroke="red" stroke-width="10" /><rect x="24" y="-325" width="1127" height="294" fill="none" stroke="red" stroke-width="10" />
</svg>
