<svg xmlns="http://www.w3.org/2000/svg"
  viewBox="28.0 -1104.0 1226.0 986.0">
  <rect x="28.0" y="-1104.0" width="1226.0" height="986.0" fill="white"/>
  <path d="M 78.0 -428.0 L 78.0 -448.0 L 101.0 -454.0 L 126.0 -462.0 L 180.0 -462.0 L 201.0 -462.0 L 231.0 -461.0 L 261.0 -460.0 L 292.5 -457.0 L 324.0 -454.0 L 352.5 -450.0 L 381.0 -446.0 L 399.0 -436.0 L 401.0 -434.0 L 402.0 -432.0 L 403.0 -430.0 L 404.0 -428.0 L 405.0 -426.0 L 406.0 -426.0 L 398.0 -416.0 L 392.0 -416.0 L 384.5 -418.0 L 377.0 -420.0 L 368.0 -420.0 L 356.0 -420.0 L 345.5 -419.0 L 335.0 -418.0 L 325.0 -416.0 L 321.0 -416.0 L 317.0 -415.0 L 313.0 -414.0 L 313.0 -408.0 L 313.0 -392.0 L 343.0 -362.0 L 368.0 -338.0 L 404.5 -317.0 L 441.0 -296.0 L 484.0 -280.0 L 527.0 -264.0 L 573.5 -252.0 L 620.0 -240.0 L 665.5 -232.0 L 711.0 -224.0 L 752.5 -220.0 L 794.0 -216.0 L 828.0 -216.0 L 846.0 -216.0 L 867.5 -217.0 L 889.0 -218.0 L 911.5 -222.0 L 934.0 -226.0 L 955.0 -233.0 L 976.0 -240.0 L 992.5 -252.0 L 1009.0 -264.0 L 1019.0 -281.0 L 1029.0 -298.0 L 1029.0 -322.0 L 1026.0 -348.0 L 1018.0 -390.0 L 932.0 -434.0 L 929.0 -438.0 L 927.5 -442.0 L 926.0 -446.0 L 923.0 -450.0 L 936.0 -454.0 L 949.5 -455.0 L 963.0 -456.0 L 981.0 -458.0 L 998.0 -460.0 L 1009.5 -461.0 L 1021.0 -462.0 L 1034.0 -462.0 L 1074.0 -462.0 L 1104.0 -455.0 L 1134.0 -448.0 L 1157.0 -434.0 L 1165.0 -430.0 L 1173.0 -423.0 L 1181.0 -416.0 L 1188.0 -408.0 L 1204.0 -370.0 L 1204.0 -338.0 L 1204.0 -300.0 L 1185.5 -272.0 L 1167.0 -244.0 L 1136.5 -226.0 L 1106.0 -208.0 L 1067.5 -196.0 L 1029.0 -184.0 L 990.0 -178.0 L 951.0 -172.0 L 914.0 -170.0 L 877.0 -168.0 L 850.0 -168.0 L 780.0 -168.0 L 702.0 -177.0 L 624.0 -186.0 L 536.0 -204.0 L 468.0 -218.0 L 396.0 -243.0 L 324.0 -268.0 L 245.0 -304.0 L 78.0 -382.0 Z M 103.0 -592.0 L 98.0 -592.0 L 95.0 -598.0 L 95.0 -600.0 L 96.0 -600.0 L 97.0 -600.0 L 101.0 -602.0 L 103.0 -602.0 L 99.0 -608.0 L 95.0 -614.0 L 101.0 -616.0 L 148.0 -632.0 L 188.0 -646.0 L 228.0 -660.0 L 262.0 -671.0 L 296.0 -682.0 L 323.5 -692.0 L 351.0 -702.0 L 371.0 -712.0 L 451.0 -754.0 L 496.0 -826.0 L 503.0 -838.0 L 510.5 -856.0 L 518.0 -874.0 L 527.0 -897.0 L 536.0 -920.0 L 547.5 -950.0 L 559.0 -980.0 L 574.0 -1014.0 L 575.0 -1018.0 L 579.0 -1019.0 L 583.0 -1020.0 L 587.0 -1021.0 L 591.0 -1022.0 L 595.5 -1022.0 L 600.0 -1022.0 L 604.0 -1026.0 L 616.0 -1032.0 L 624.0 -1036.0 L 632.0 -1040.0 L 635.0 -1042.0 L 647.0 -1048.0 L 656.0 -1051.0 L 665.0 -1054.0 L 668.0 -1054.0 L 681.0 -1054.0 L 686.0 -1054.0 L 691.5 -1054.0 L 697.0 -1054.0 L 702.0 -1052.0 L 706.0 -1052.0 L 710.5 -1051.0 L 715.0 -1050.0 L 720.0 -1049.0 L 725.0 -1048.0 L 729.5 -1046.0 L 734.0 -1044.0 L 738.0 -1040.0 L 739.0 -1040.0 L 738.0 -1038.0 L 737.0 -1036.0 L 734.5 -1035.0 L 732.0 -1034.0 L 729.0 -1033.0 L 726.0 -1032.0 L 724.0 -1030.0 L 687.0 -1006.0 L 684.0 -998.0 L 676.0 -964.0 L 668.5 -939.0 L 661.0 -914.0 L 654.0 -896.0 L 652.0 -890.0 L 647.0 -881.0 L 642.0 -872.0 L 636.0 -863.0 L 630.0 -854.0 L 624.5 -846.0 L 619.0 -838.0 L 615.0 -832.0 L 615.0 -832.0 L 617.0 -832.0 L 619.0 -832.0 L 615.0 -828.0 L 612.0 -826.0 L 611.0 -824.0 L 611.0 -824.0 L 615.0 -832.0 L 611.0 -830.0 L 601.0 -823.0 L 591.0 -816.0 L 577.0 -806.0 L 563.0 -796.0 L 547.0 -784.0 L 531.0 -772.0 L 515.0 -758.0 L 499.0 -746.0 L 486.5 -736.0 L 474.0 -726.0 L 463.0 -716.0 L 452.0 -708.0 L 445.0 -701.0 L 438.0 -694.0 L 434.0 -690.0 L 434.0 -690.0 L 432.0 -688.0 L 432.0 -688.0 L 431.0 -686.0 L 437.0 -688.0 L 441.5 -691.0 L 446.0 -694.0 L 450.0 -696.0 L 455.0 -698.0 L 456.0 -698.0 L 456.0 -698.0 L 454.0 -698.0 L 453.0 -696.0 L 449.5 -694.0 L 446.0 -692.0 L 442.5 -690.0 L 439.0 -688.0 L 436.5 -687.0 L 434.0 -686.0 L 432.0 -686.0 L 431.0 -686.0 L 431.0 -686.0 L 419.0 -680.0 L 403.0 -673.0 L 387.0 -666.0 L 370.5 -659.0 L 354.0 -652.0 L 337.0 -647.0 L 320.0 -642.0 L 307.0 -640.0 L 298.0 -638.0 L 284.5 -638.0 L 271.0 -638.0 L 259.5 -637.0 L 248.0 -636.0 L 242.0 -635.0 L 236.0 -634.0 L 243.0 -632.0 L 251.0 -628.0 L 260.0 -627.0 L 269.0 -626.0 L 277.0 -626.0 L 289.0 -626.0 L 301.0 -627.0 L 313.0 -628.0 L 326.0 -628.0 L 329.0 -628.0 L 332.0 -628.0 L 335.0 -628.0 L 338.0 -628.0 L 383.0 -626.0 L 418.0 -598.0 L 437.0 -584.0 L 437.0 -580.0 L 440.0 -572.0 L 426.0 -572.0 L 413.0 -572.0 L 401.5 -573.0 L 390.0 -574.0 L 377.0 -576.0 L 360.0 -580.0 L 337.5 -583.0 L 315.0 -586.0 L 288.0 -590.0 L 262.0 -594.0 L 239.0 -595.0 L 216.0 -596.0 L 194.0 -596.0 L 190.0 -598.0 L 186.0 -598.0 L 182.0 -598.0 L 178.0 -598.0 L 164.0 -598.0 L 150.5 -597.0 L 137.0 -596.0 L 123.0 -596.0 L 120.0 -594.0 L 115.5 -593.0 L 111.0 -592.0 Z" fill="black" fill-opacity="0.25" stroke="black" stroke-width="4.0"/>
  <rect x="78.0" y="-462.0" width="1126.0" height="294.00000000000006" fill="none" stroke="red" stroke-width="10.0" /><rect x="95.0" y="-732.7" width="387.29999999999995" height="160.70000000000007" fill="none" stroke="red" stroke-width="10.0" /><rect x="410.4" y="-893.3" width="242.70000000000002" height="160.59999999999997" fill="none" stroke="red" stroke-width="10.0" /><rect x="525.5999999999999" y="-1054.0" width="213.40000000000003" height="160.70000000000007" fill="none" stroke="red" stroke-width="10.0" />
</svg>
