<svg xmlns="http://www.w3.org/2000/svg"
  viewBox="28.0 -712.0 1227.0 599.0">
  <rect x="28.0" y="-712.0" width="1227.0" height="599.0" fill="white"/>
  <path d="M 1189.0 -403.0 L 1205.0 -367.0 L 1205.0 -332.0 L 1205.0 -248.0 L 1108.0 -206.0 L 1009.0 -164.0 L 850.0 -163.0 L 711.0 -163.0 L 536.0 -200.0 L 402.0 -227.0 L 245.0 -300.0 L 78.0 -378.0 L 78.0 -423.0 L 78.0 -442.0 L 102.0 -448.0 L 130.0 -456.0 L 189.0 -456.0 L 222.0 -456.0 L 254.0 -454.5 L 286.0 -453.0 L 317.0 -450.0 L 377.0 -443.0 L 400.0 -430.0 L 406.0 -419.0 L 406.0 -420.0 L 398.0 -410.0 L 392.0 -411.0 L 385.0 -412.0 L 378.0 -413.0 L 369.0 -413.0 L 356.0 -413.0 L 346.0 -412.5 L 336.0 -412.0 L 325.0 -410.0 L 314.0 -411.0 L 314.0 -403.0 L 314.0 -387.0 L 344.0 -357.0 L 361.0 -340.0 L 381.0 -325.5 L 401.0 -311.0 L 426.0 -300.0 L 470.0 -279.0 L 517.5 -263.5 L 565.0 -248.0 L 620.0 -235.0 L 726.0 -210.0 L 828.0 -210.0 L 925.0 -210.0 L 975.0 -235.0 L 1030.0 -262.0 L 1030.0 -317.0 L 1026.0 -343.0 L 1018.0 -385.0 L 933.0 -429.0 L 930.0 -434.0 L 928.0 -437.0 L 926.0 -440.0 L 923.0 -445.0 L 936.0 -448.0 L 950.0 -449.5 L 964.0 -451.0 L 981.0 -452.0 L 999.0 -454.0 L 1010.5 -455.5 L 1022.0 -457.0 L 1034.0 -457.0 L 1073.0 -457.0 L 1103.5 -449.5 L 1134.0 -442.0 L 1158.0 -429.0 L 1166.0 -425.0 L 1173.5 -418.0 L 1181.0 -411.0 Z M 189.0 -657.0 L 241.0 -662.0 L 354.0 -662.0 L 390.0 -662.0 L 429.5 -658.5 L 469.0 -655.0 L 512.0 -645.0 L 539.0 -639.0 L 564.5 -632.5 L 590.0 -626.0 L 616.0 -618.0 L 714.0 -593.0 L 778.0 -546.0 L 841.0 -499.0 L 842.0 -446.0 L 842.0 -416.0 L 827.0 -396.0 L 821.0 -388.0 L 792.0 -389.0 L 751.0 -389.0 L 673.0 -404.0 L 660.0 -406.0 L 642.0 -409.0 L 624.0 -412.0 L 600.0 -418.0 L 625.0 -429.0 L 642.0 -454.0 L 658.0 -478.0 L 653.0 -492.0 L 641.0 -521.0 L 595.5 -546.0 L 550.0 -571.0 L 470.0 -587.0 L 386.0 -604.0 L 300.5 -615.0 L 215.0 -626.0 L 131.0 -639.0 Z" fill="black" fill-opacity="0.25" stroke="black" stroke-width="4.0"/>
  <rect x="78.0" y="-457.0" width="1127.0" height="294.00000000000006" fill="none" stroke="red" stroke-width="10.0" /><rect x="131.0" y="-662.0" width="711.0" height="274.0" fill="none" stroke="red" stroke-width="10.0" />
</svg>
