<svg xmlns="http://www.w3.org/2000/svg"
  viewBox="18 -509 1226.059 394">
  <rect x="18" y="-509" width="1226.059" height="394" fill="white"/>
  <path d="M 1179 -404 L 1195 -368 L 1194 -334 L 1194 -250 L 1098 -208 L 999 -166 L 840 -165 L 701 -165 L 526 -201 L 392 -228 L 235 -301 L 68 -379 L 68 -424 L 68 -443 L 91 -450 L 119 -458 L 179 -458 L 212 -458 L 244 -456.5 L 276 -455 L 307 -451 L 367 -444 L 390 -432 L 396 -421 L 396 -422 L 388 -412 L 382 -413 L 375 -414 L 368 -415 L 359 -415 L 346 -415 L 336 -414.5 L 326 -414 L 315 -412 L 304 -413 L 304 -404 L 304 -388 L 334 -359 L 351 -342 L 371 -327.5 L 391 -313 L 416 -301 L 460 -280 L 507.5 -265 L 555 -250 L 610 -237 L 716 -212 L 818 -212 L 915 -212 L 965 -237 L 1020 -264 L 1020 -319 L 1016 -345 L 1008 -387 L 922 -431 L 919 -436 L 917.5 -439 L 916 -442 L 913 -446 L 926 -449 L 940 -450.5 L 954 -452 L 971 -454 L 989 -456 L 1000.5 -457.5 L 1012 -459 L 1024 -459 L 1063 -459 L 1093.5 -451.5 L 1124 -444 L 1148 -431 L 1156 -427 L 1163.5 -419.5 L 1171 -412 Z" fill="black" fill-opacity="0.25" stroke="black" stroke-width="4"/>
  <rect x="68" y="-459" width="1127" height="294" fill="none" stroke="red" stroke-width="10" />
</svg>
