<svg xmlns="http://www.w3.org/2000/svg"
  viewBox="-11 -930 1345 760.023">
  <rect x="-11" y="-930" width="1345" height="760.023" fill="white"/>
  <path d="M 1268 -459 L 1284 -423 L 1284 -388 L 1284 -304 L 1187 -262 L 1088 -219 L 929 -220 L 790 -220 L 615 -256 L 480 -284 L 324 -356 L 157 -434 L 157 -479 L 157 -497 L 181 -504 L 209 -512 L 268 -512 L 301 -512 L 333 -511 L 365 -510 L 396 -506 L 455 -499 L 479 -487 L 485 -476 L 485 -476 L 477 -467 L 471 -468 L 464 -469 L 457 -470 L 448 -470 L 436 -470 L 425.5 -469 L 415 -468 L 404 -467 L 393 -468 L 393 -459 L 393 -443 L 423 -413 L 440 -396 L 460 -382 L 480 -368 L 506 -356 L 549 -335 L 596.5 -320 L 644 -305 L 699 -292 L 805 -267 L 907 -266 L 1004 -266 L 1054 -292 L 1109 -319 L 1109 -373 L 1105 -399 L 1097 -441 L 1012 -486 L 1009 -490 L 1007.5 -493 L 1006 -496 L 1002 -501 L 1015 -504 L 1029 -505.5 L 1043 -507 L 1060 -509 L 1077 -511 L 1089 -512 L 1101 -513 L 1113 -513 L 1152 -513 L 1183 -505.5 L 1214 -498 L 1237 -486 L 1245 -482 L 1252.5 -474.5 L 1260 -467 Z M 117 -876 L 125 -879 L 136 -879.5 L 147 -880 L 163 -880 L 211 -880 L 261.5 -866.5 L 312 -853 L 365 -824 L 434 -765 L 424 -765 L 405.5 -767 L 387 -769 L 358 -772 L 330 -775 L 309 -776.5 L 288 -778 L 276 -778 L 250 -778 L 228 -770 L 211 -763 L 211 -747 L 211 -739 L 217 -728 L 224 -714 L 228 -704 L 232 -694 L 238 -692 L 253 -686 L 266.5 -682.5 L 280 -679 L 295 -677 L 341 -666 L 349 -664 L 364.5 -663 L 380 -662 L 404 -662 L 479 -670 L 550 -677.5 L 621 -685 L 689 -692 L 824 -706 L 976 -706 L 1077 -706 L 1224 -611 L 1257 -569 L 1237 -574 L 1178 -584 L 1089 -594 L 1007 -604 L 934 -603 L 891 -600 L 869 -599 L 836 -598 L 803 -597 L 760 -594 L 743 -593 L 715.5 -592.5 L 688 -592 L 649 -592 L 619 -592 L 587.5 -593 L 556 -594 L 522 -595 L 455 -598 L 371 -609 L 313 -616 L 258.5 -639 L 204 -662 L 147 -697 L 39 -764 L 39 -822 L 39 -862 Z" fill="black" fill-opacity="0.25" stroke="black" stroke-width="4"/>
  <rect x="157" y="-513" width="1127" height="294" fill="none" stroke="red" stroke-width="10" /><rect x="39" y="-880" width="1218" height="311" fill="none" stroke="red" stroke-width="10" />
</svg>
