<svg xmlns="http://www.w3.org/2000/svg"
  viewBox="-41 -1269 1276 1293">
  <rect x="-41" y="-1269" width="1276" height="1293" fill="white"/>
  <path d="M 726 -659 L 720 -647 L 714 -628 L 708 -609 L 701 -585 L 839 -578 L 1070 -569 L 1115 -523 L 973 -523 L 867 -523 L 761 -523 L 681 -525 L 664 -487 L 635 -458 L 624 -444 L 592 -435 L 575 -430 L 560 -428.5 L 545 -427 L 531 -427 L 508 -427 L 500 -430 L 486 -436 L 495 -444 L 520 -480 L 536 -530 L 523 -530 L 323 -539 L 225 -587 L 141 -626 L 39 -752 L 31 -766 L 26 -792 L 13 -866 L 9 -875 L 41 -879 L 78 -884 L 116 -889 L 131 -889 L 174 -889 L 203 -870 L 210 -865 L 210 -845 L 208 -800 L 208 -786 L 212 -780 L 304 -649 L 515 -606 L 523 -603 L 533 -602.5 L 543 -602 L 556 -600 L 561 -616 L 566 -628 L 571 -640 L 576 -651 L 585 -668 L 614 -669 L 674 -663 L 687 -662 L 700 -660.5 L 713 -659 Z M 1169 -265 L 1185 -229 L 1185 -195 L 1185 -111 L 1088 -68 L 990 -26 L 831 -26 L 692 -26 L 516 -62 L 381 -90 L 226 -162 L 59 -240 L 59 -285 L 59 -304 L 82 -311 L 109 -319 L 169 -318 L 202 -318 L 234 -317 L 266 -316 L 297 -312 L 357 -305 L 380 -293 L 386 -282 L 387 -282 L 379 -273 L 373 -274 L 365.5 -275 L 358 -276 L 349 -276 L 336 -276 L 326 -275 L 316 -274 L 305 -273 L 294 -274 L 294 -265 L 294 -249 L 324 -220 L 341 -203 L 361.5 -188.5 L 382 -174 L 407 -162 L 451 -141 L 498 -126 L 545 -111 L 601 -98 L 707 -73 L 809 -73 L 906 -73 L 956 -98 L 1011 -126 L 1010 -179 L 1007 -206 L 999 -248 L 913 -292 L 910 -297 L 908.5 -300 L 907 -303 L 904 -307 L 917 -310 L 930.5 -311.5 L 944 -313 L 961 -315 L 979 -317 L 990.5 -318.5 L 1002 -320 L 1015 -320 L 1054 -320 L 1084.5 -312 L 1115 -304 L 1138 -292 L 1146 -288 L 1153.5 -280.5 L 1161 -273 Z M 771 -989 L 765 -977 L 759 -958 L 753 -939 L 747 -915 L 884 -908 L 1115 -899 L 1161 -854 L 1019 -854 L 912.5 -854 L 806 -854 L 726 -855 L 709 -817 L 681 -788 L 670 -774 L 637 -765 L 620 -760 L 605 -758.5 L 590 -757 L 576 -757 L 553 -757 L 545 -760 L 531 -766 L 541 -774 L 566 -810 L 581 -860 L 568 -860 L 368 -869 L 270 -918 L 186 -957 L 84 -1082 L 76 -1096 L 72 -1122 L 59 -1196 L 54 -1205 L 86 -1209 L 123 -1214 L 161 -1219 L 176 -1219 L 219 -1219 L 248 -1200 L 255 -1195 L 256 -1175 L 253 -1130 L 253 -1116 L 257 -1110 L 349 -979 L 561 -937 L 569 -934 L 579 -933 L 589 -932 L 601 -930 L 606 -946 L 611 -958 L 616 -970 L 622 -981 L 631 -998 L 659 -999 L 720 -993 L 733 -992 L 745.5 -990.5 L 758 -989 Z" fill="black" fill-opacity="0.25" stroke="black" stroke-width="4"/>
  <rect x="9" y="-889" width="1106" height="462" fill="none" stroke="red" stroke-width="10" /><rect x="59" y="-320" width="1126" height="294" fill="none" stroke="red" stroke-width="10" /><rect x="54" y="-1219" width="1107" height="462" fill="none" stroke="red" stroke-width="10" />
</svg>
