<svg xmlns="http://www.w3.org/2000/svg"
  viewBox="8 -789 1227 660">
  <rect x="8" y="-789" width="1227" height="660" fill="white"/>
  <path d="M 1169 -418 L 1185 -382 L 1185 -348 L 1185 -264 L 1088 -222 L 989 -180 L 830 -179 L 691 -179 L 516 -215 L 381 -243 L 225 -315 L 58 -392 L 58 -439 L 58 -457 L 82 -464 L 110 -472 L 169 -472 L 202 -472 L 234 -470.5 L 266 -469 L 297 -465 L 356 -458 L 380 -447 L 386 -436 L 386 -435 L 378 -426 L 372 -427 L 365 -428.5 L 358 -430 L 349 -430 L 337 -430 L 326.5 -429 L 316 -428 L 305 -426 L 294 -427 L 294 -418 L 294 -402 L 324 -373 L 341 -356 L 361 -342 L 381 -328 L 407 -315 L 450 -294 L 497.5 -279.5 L 545 -265 L 600 -251 L 706 -226 L 808 -226 L 904 -226 L 955 -251 L 1009 -278 L 1010 -332 L 1006 -359 L 998 -401 L 913 -445 L 910 -449 L 908.5 -452.5 L 907 -456 L 903 -461 L 916 -464 L 930 -465 L 944 -466 L 961 -469 L 978 -471 L 990 -472 L 1002 -473 L 1014 -473 L 1053 -473 L 1083.5 -465.5 L 1114 -458 L 1138 -445 L 1146 -441 L 1153.5 -433.5 L 1161 -426 Z M 474 -734 L 478 -739 L 497 -739 L 519 -739 L 555 -734 L 602 -726 L 678 -714 L 696 -614 L 707 -552 L 721 -536 L 735 -520 L 752 -517 L 773 -515 L 772 -514 L 772 -510 L 766 -503 L 750 -487 L 713 -487 L 691 -487 L 665.5 -492 L 640 -497 L 608 -509 L 551 -530 L 529 -662 L 520 -718 L 494 -718 L 479 -718 L 470 -718 L 468 -720 L 465 -722 Z" fill="black" fill-opacity="0.25" stroke="black" stroke-width="4"/>
  <rect x="58" y="-473" width="1127" height="294" fill="none" stroke="red" stroke-width="10" /><rect x="465" y="-739" width="308" height="252" fill="none" stroke="red" stroke-width="10" />
</svg>
