<svg xmlns="http://www.w3.org/2000/svg"
  viewBox="-221 -1321 1921.455 1245">
  <rect x="-221" y="-1321" width="1921.455" height="1245" fill="white"/>
  <path d="M 70 -390 L 70 -411 L 98 -417 L 123 -423 L 149 -424 L 175 -425 L 201 -425 L 240 -424 L 278 -422.5 L 316 -421 L 354 -418 L 377 -416 L 404 -412 L 431 -408 L 452 -398 L 460 -389 L 460 -387 L 451 -378 L 442 -380 L 433.5 -380.5 L 425 -381 L 415 -381 L 390 -381 L 364 -378 L 360 -378 L 351 -378 L 351 -370 L 351 -356 L 385 -323 L 413 -298 L 455.5 -277.5 L 498 -257 L 548.5 -240.5 L 599 -224 L 654.5 -211.5 L 710 -199 L 765 -191 L 820 -183 L 870.5 -179 L 921 -175 L 962 -175 L 980 -175 L 1004.5 -175.5 L 1029 -176 L 1055.5 -179.5 L 1082 -183 L 1108 -189.5 L 1134 -196 L 1155 -208.5 L 1176 -221 L 1188.5 -239 L 1201 -257 L 1201 -283 L 1198 -309 L 1189 -353 L 1087 -396 L 1082 -401 L 1081 -405 L 1080 -406 L 1078.5 -408.5 L 1077 -411 L 1075 -414 L 1091 -418 L 1107 -418 L 1125 -419 L 1143 -420.5 L 1161 -422 L 1179 -425 L 1186 -425 L 1193 -425.5 L 1200 -426 L 1207 -426 L 1226 -426 L 1248.5 -424 L 1271 -422 L 1293 -417.5 L 1315 -413 L 1335.5 -405 L 1356 -397 L 1372 -385 L 1380 -379 L 1391 -370 L 1408 -335 L 1409 -298 L 1409 -268 L 1395 -244.5 L 1381 -221 L 1357.5 -203 L 1334 -185 L 1303 -173 L 1272 -161 L 1237.5 -152 L 1203 -143 L 1167 -138 L 1131 -133 L 1097.5 -130.5 L 1064 -128 L 1035.5 -127 L 1007 -126 L 987 -126 L 903 -126 L 811 -135 L 719 -144 L 614 -162 L 524 -180 L 438.5 -206 L 353 -232 L 268 -265 L 70 -343 Z M 1013 -543 L 1008 -543 L 1006 -551 L 1006 -552 L 1007 -553 L 1008 -553 L 1012 -554 L 1013 -556 L 1010 -561 L 1006 -566 L 1012 -568 L 1059 -585 L 1099 -598.5 L 1139 -612 L 1174 -623 L 1210 -634 L 1243 -647.5 L 1276 -661 L 1305.5 -679 L 1335 -697 L 1360.5 -721.5 L 1386 -746 L 1407 -779 L 1422 -802 L 1438 -850 L 1446 -873 L 1458 -902.5 L 1470 -932 L 1485 -967 L 1488 -973 L 1498 -973 L 1507 -973 L 1515 -978 L 1528 -986 L 1535 -990 L 1546 -995 L 1559 -1002 L 1568 -1004 L 1576 -1006 L 1579 -1008 L 1596 -1008 L 1606 -1008 L 1614 -1004 L 1622 -1001 L 1632 -1001 L 1642 -1001 L 1649 -994 L 1653 -991 L 1646 -988 L 1639 -985 L 1636 -982 L 1598 -956 L 1595 -950 L 1591 -933 L 1587 -919 L 1583 -905 L 1580 -892 L 1576 -876 L 1571.5 -864.5 L 1567 -853 L 1562 -842.5 L 1557 -832 L 1551 -821.5 L 1545 -811 L 1536 -798 L 1530 -790 L 1528 -785 L 1529 -785 L 1529 -786 L 1529 -786 L 1531 -786 L 1526 -781 L 1525 -779 L 1523 -778 L 1522 -777 L 1521 -777 L 1524 -780 L 1525 -781 L 1525.5 -782.5 L 1526 -784 L 1528 -785 L 1526 -784 L 1521 -781 L 1444 -728 L 1374 -669 L 1373 -668 L 1368 -664 L 1363 -660 L 1357 -655 L 1351 -650 L 1347 -645.5 L 1343 -641 L 1343 -640 L 1348 -642 L 1352.5 -644 L 1357 -646 L 1361 -648 L 1362 -649 L 1363.5 -649.5 L 1365 -650 L 1366 -650 L 1367 -650 L 1367 -651 L 1367 -651 L 1357 -645 L 1346 -639 L 1344 -639 L 1343 -639 L 1343 -640 L 1330 -634 L 1314 -626.5 L 1298 -619 L 1281.5 -612.5 L 1265 -606 L 1248.5 -600.5 L 1232 -595 L 1218 -592 L 1209 -590 L 1199.5 -589.5 L 1190 -589 L 1181 -589 L 1170 -589 L 1164 -589 L 1160 -588.5 L 1156 -588 L 1153 -588 L 1145 -587 L 1154 -584 L 1170 -578 L 1187 -578 L 1190 -578 L 1193.5 -578.5 L 1197 -579 L 1201 -579 L 1209 -580 L 1217 -580.5 L 1225 -581 L 1234 -581 L 1261 -581 L 1284 -574.5 L 1307 -568 L 1329 -551 L 1347 -536 L 1348 -533 L 1351 -525 L 1337 -525 L 1336 -525 L 1329 -524 L 1315 -524 L 1288 -529 L 1271 -532 L 1249 -535 L 1238 -536 L 1225.5 -538 L 1213 -540 L 1200 -542 L 1166 -547 L 1133.5 -549 L 1101 -551 L 1068 -551 L 1060 -551 L 1051 -550 L 1042 -549 L 1034 -548 L 1030 -545 L 1024 -544 L 1018 -543 Z M -171 -520 L -171 -521 L -170 -521 L -168 -521 L -165 -523 L -164 -525 L -167 -530 L -171 -535 L -165 -537 L -118 -554 L -77.5 -567.5 L -37 -581 L -3 -592 L 33 -603 L 66 -616 L 99 -629 L 129 -647 L 159 -665 L 184.5 -689.5 L 210 -714 L 231 -748 L 245 -771 L 262 -818 L 270 -841 L 281.5 -870.5 L 293 -900 L 309 -935 L 312 -941 L 321 -942 L 330 -942 L 338 -947 L 351 -955 L 359 -958 L 369 -964 L 382 -971 L 391 -973 L 395 -974 L 398 -975 L 401 -976 L 403 -977 L 419 -977 L 428 -977 L 437 -973 L 445 -970 L 455 -970 L 465 -970 L 473 -962 L 476 -958 L 470 -956 L 463 -953 L 459 -951 L 440 -938 L 430 -930 L 420 -922 L 418 -918 L 414 -901 L 410.5 -887 L 407 -873 L 404 -861 L 399 -845 L 394.5 -833.5 L 390 -822 L 385.5 -811.5 L 381 -801 L 374.5 -791 L 368 -781 L 360 -767 L 354 -759 L 351 -754 L 352 -754 L 352 -754 L 352 -755 L 354 -755 L 349 -750 L 349 -748 L 347 -747 L 346 -746 L 345 -746 L 347 -748 L 348 -749 L 348.5 -750.5 L 349 -752 L 351 -754 L 349 -753 L 345 -750 L 307 -724 L 270 -696.5 L 233 -669 L 198 -638 L 197 -637 L 191.5 -633 L 186 -629 L 180.5 -624 L 175 -619 L 170.5 -614.5 L 166 -610 L 166 -608 L 171 -610 L 175.5 -612.5 L 180 -615 L 184 -617 L 185 -618 L 186.5 -618.5 L 188 -619 L 189 -619 L 190 -619 L 190 -620 L 190 -620 L 180 -614 L 164 -606 L 166 -608 L 161 -606 L 156 -604 L 151 -602 L 145 -599 L 126 -590 L 108 -582.5 L 90 -575 L 72 -569.5 L 54 -564 L 35 -561 L 16 -558 L -6 -558 L -12 -558 L -16.5 -557.5 L -21 -557 L -24 -557 L -32 -556 L -23 -553 L -14 -550 L -4.5 -548.5 L 5 -547 L 14 -547 L 16 -547 L 18.5 -547 L 21 -547 L 24 -548 L 32 -549 L 39 -550 L 46 -551 L 54 -551 L 81 -551 L 106 -544 L 131 -537 L 153 -520 L 172 -506 L 171 -501 L 174 -493 L 160 -494 L 159 -494 L 153 -493 L 139 -493 L 112 -498 L 95 -501 L 72 -504 L 61 -505 L 48.5 -507 L 36 -509 L 23 -511 L -11 -516 L -43.5 -517.5 L -76 -519 L -110 -519 L -118 -519 L -126 -518.5 L -134 -518 L -143 -517 L -148 -514 L -153 -513 L -158 -512 L -163 -512 L -168 -512 Z M 534 -828 L 529 -828 L 526 -834 L 526 -837 L 532 -837 L 535 -838 L 532 -845 L 529 -850 L 534 -853 L 581 -869 L 621 -881 L 661 -893 L 697 -902 L 732 -911 L 766 -923 L 800 -935 L 831.5 -953.5 L 863 -972 L 890 -995.5 L 917 -1019 L 937 -1051 L 952 -1075 L 970 -1119 L 989 -1164 L 1021 -1234 L 1024 -1240 L 1033 -1240 L 1041 -1240 L 1049 -1245 L 1055 -1249 L 1060.5 -1251.5 L 1066 -1254 L 1071 -1256 L 1079 -1259 L 1082 -1262 L 1087 -1264 L 1092 -1265.5 L 1097 -1267 L 1101 -1269 L 1106 -1271 L 1110 -1271 L 1114 -1271 L 1119 -1271 L 1133 -1271 L 1148 -1267 L 1154 -1265 L 1163 -1265 L 1168 -1265 L 1173 -1265 L 1177 -1263.5 L 1181 -1262 L 1184 -1258 L 1188 -1253 L 1180 -1251 L 1173 -1249 L 1170 -1247 L 1132 -1223 L 1129 -1214 L 1119 -1183 L 1112 -1157 L 1106 -1138 L 1099.5 -1122 L 1093 -1106 L 1081 -1090 L 1076 -1083 L 1071.5 -1076.5 L 1067 -1070 L 1063 -1064 L 1061 -1061 L 1059 -1058 L 1057 -1055 L 1055 -1053 L 1059 -1054 L 1054 -1048 L 1051 -1045 L 1051 -1045 L 1050.5 -1044.5 L 1050 -1044 L 1050 -1043 L 1050 -1043 L 1051 -1046 L 1052 -1047 L 1053 -1049 L 1054 -1051 L 1055 -1053 L 1026 -1039 L 1000.5 -1021 L 975 -1003 L 950 -983 L 935 -972 L 922 -962 L 909 -952 L 898 -944 L 875 -925 L 868 -917 L 867 -916 L 867 -915 L 872 -917 L 876.5 -918.5 L 881 -920 L 885 -921 L 889 -922 L 890 -923 L 892 -923 L 881 -917 L 872 -912 L 867 -912 L 865 -912 L 867 -915 L 858 -912 L 845 -906 L 818 -895 L 788 -884 L 770 -878 L 753.5 -873.5 L 737 -869 L 718 -869 L 692 -869 L 686 -869 L 682 -869 L 678 -869 L 675 -868 L 669 -868 L 676 -864 L 692 -857 L 710 -857 L 712 -857 L 715 -857 L 718 -857 L 721 -857 L 733 -858 L 745 -859 L 773 -859 L 800 -851.5 L 827 -844 L 849 -826 L 865 -813 L 867 -805 L 868 -799 L 856 -798 L 807 -803 L 720 -818 L 686 -826 L 649.5 -829.5 L 613 -833 L 578 -833 L 572 -833 L 565.5 -833 L 559 -833 L 554 -832 L 545 -828 Z M 599 -759 L 601 -762 L 616 -762 L 645 -762 L 658 -762 L 674 -759 L 721 -751 L 791 -737 L 809 -643 L 821 -582 L 832 -568 L 843 -554 L 862 -551 L 867 -551 L 876 -550 L 879 -550 L 881 -548 L 880 -541 L 873 -536.5 L 866 -532 L 857 -529 L 848 -526 L 839 -524.5 L 830 -523 L 825 -523 L 799 -523 L 774.5 -529.5 L 750 -536 L 726 -545 L 672 -565 L 651 -690 L 642 -743 L 618 -744 L 604 -744 L 595 -744 L 593 -745 L 591 -747 Z" fill="black" fill-opacity="0.25" stroke="black" stroke-width="4"/>
  <rect x="70" y="-426" width="1339" height="300" fill="none" stroke="red" stroke-width="10" /><rect x="591" y="-762" width="290" height="239" fill="none" stroke="red" stroke-width="10" /><rect x="1006" y="-685.3" width="387.4" height="161.3" fill="none" stroke="red" stroke-width="10" /><rect x="1315.9" y="-846.7" width="248.1" height="161.4" fill="none" stroke="red" stroke-width="10" /><rect x="1436.9" y="-1008" width="216.1" height="161.3" fill="none" stroke="red" stroke-width="10" /><rect x="-171" y="-654.3" width="387.4" height="161.3" fill="none" stroke="red" stroke-width="10" /><rect x="141.2" y="-815.7" width="246.1" height="161.4" fill="none" stroke="red" stroke-width="10" /><rect x="261.2" y="-977" width="214.8" height="161.3" fill="none" stroke="red" stroke-width="10" /><rect x="526" y="-955.7" width="387.8" height="157.7" fill="none" stroke="red" stroke-width="10" /><rect x="835.2" y="-1113.3" width="260.8" height="157.6" fill="none" stroke="red" stroke-width="10" /><rect x="967.7" y="-1271" width="220.3" height="157.7" fill="none" stroke="red" stroke-width="10" />
</svg>
