<svg xmlns="http://www.w3.org/2000/svg"
  viewBox="-120.0 -1335.0 1348.0588235294117 1217.0">
  <rect x="-120.0" y="-1335.0" width="1348.0588235294117" height="1217.0" fill="white"/>
  <path d="M 75.0 -453.0 L 100.0 -461.0 L 154.0 -460.0 L 175.0 -460.0 L 205.0 -459.5 L 235.0 -459.0 L 266.5 -456.5 L 298.0 -454.0 L 326.5 -449.0 L 355.0 -444.0 L 374.0 -436.0 L 376.0 -434.0 L 376.5 -431.5 L 377.0 -429.0 L 378.0 -427.0 L 379.0 -425.0 L 380.0 -424.0 L 372.0 -415.0 L 366.0 -416.0 L 359.0 -417.0 L 352.0 -418.0 L 342.0 -418.0 L 330.0 -418.0 L 320.0 -417.5 L 310.0 -417.0 L 299.0 -415.0 L 295.0 -415.0 L 291.5 -414.0 L 288.0 -413.0 L 288.0 -407.0 L 288.0 -391.0 L 317.0 -362.0 L 342.0 -337.0 L 378.5 -316.0 L 415.0 -295.0 L 458.0 -279.0 L 501.0 -263.0 L 547.5 -251.0 L 594.0 -239.0 L 639.5 -231.0 L 685.0 -223.0 L 727.0 -219.0 L 769.0 -215.0 L 802.0 -215.0 L 820.0 -215.0 L 841.5 -216.0 L 863.0 -217.0 L 885.5 -221.0 L 908.0 -225.0 L 929.0 -232.0 L 950.0 -239.0 L 966.5 -251.0 L 983.0 -263.0 L 993.0 -280.0 L 1003.0 -297.0 L 1003.0 -321.0 L 1000.0 -348.0 L 992.0 -390.0 L 906.0 -434.0 L 903.0 -438.0 L 901.5 -441.5 L 900.0 -445.0 L 897.0 -450.0 L 910.0 -453.0 L 924.0 -454.0 L 938.0 -455.0 L 955.0 -458.0 L 972.0 -460.0 L 984.0 -461.0 L 996.0 -462.0 L 1008.0 -462.0 L 1048.0 -462.0 L 1078.0 -454.5 L 1108.0 -447.0 L 1131.0 -434.0 L 1139.0 -430.0 L 1147.0 -422.5 L 1155.0 -415.0 L 1163.0 -407.0 L 1179.0 -370.0 L 1178.0 -337.0 L 1178.0 -299.0 L 1159.5 -271.5 L 1141.0 -244.0 L 1111.0 -225.5 L 1081.0 -207.0 L 1042.0 -195.5 L 1003.0 -184.0 L 964.0 -178.0 L 925.0 -172.0 L 888.0 -170.0 L 851.0 -168.0 L 824.0 -168.0 L 753.0 -168.0 L 675.5 -177.0 L 598.0 -186.0 L 510.0 -204.0 L 442.0 -218.0 L 370.0 -243.0 L 298.0 -268.0 L 219.0 -304.0 L 52.0 -381.0 L 52.0 -428.0 L 52.0 -447.0 Z M 499.0 -829.0 L 499.0 -830.0 L 500.0 -831.0 L 501.0 -831.0 L 505.0 -832.0 L 507.0 -833.0 L 503.0 -839.0 L 499.0 -844.0 L 505.0 -846.0 L 552.0 -863.0 L 592.0 -876.5 L 632.0 -890.0 L 666.0 -901.5 L 700.0 -913.0 L 727.5 -923.0 L 755.0 -933.0 L 775.0 -943.0 L 855.0 -984.0 L 900.0 -1057.0 L 907.0 -1069.0 L 914.5 -1087.0 L 922.0 -1105.0 L 931.0 -1128.0 L 940.0 -1151.0 L 951.5 -1180.0 L 963.0 -1209.0 L 979.0 -1245.0 L 980.0 -1248.0 L 983.5 -1249.5 L 987.0 -1251.0 L 991.0 -1251.0 L 995.0 -1251.0 L 999.5 -1252.0 L 1004.0 -1253.0 L 1008.0 -1255.0 L 1020.0 -1262.0 L 1028.0 -1266.5 L 1036.0 -1271.0 L 1040.0 -1272.0 L 1052.0 -1278.0 L 1060.5 -1281.0 L 1069.0 -1284.0 L 1072.0 -1285.0 L 1085.0 -1285.0 L 1090.0 -1285.0 L 1095.5 -1284.5 L 1101.0 -1284.0 L 1106.0 -1282.0 L 1110.0 -1281.0 L 1115.0 -1280.5 L 1120.0 -1280.0 L 1125.0 -1279.0 L 1130.0 -1278.0 L 1134.5 -1276.5 L 1139.0 -1275.0 L 1143.0 -1271.0 L 1146.0 -1268.0 L 1139.5 -1265.5 L 1133.0 -1263.0 L 1128.0 -1260.0 L 1091.0 -1235.0 L 1088.0 -1228.0 L 1082.0 -1203.0 L 1076.5 -1181.5 L 1071.0 -1160.0 L 1063.5 -1140.5 L 1056.0 -1121.0 L 1046.0 -1102.0 L 1036.0 -1083.0 L 1020.0 -1063.0 L 1022.0 -1064.0 L 1023.0 -1064.0 L 1024.0 -1064.0 L 1019.0 -1059.0 L 1016.0 -1056.0 L 1016.0 -1055.0 L 1016.0 -1055.0 L 1020.0 -1063.0 L 1019.0 -1063.0 L 1018.0 -1061.5 L 1017.0 -1060.0 L 1015.0 -1059.0 L 977.0 -1033.0 L 940.0 -1005.0 L 903.0 -977.0 L 868.0 -947.0 L 857.0 -938.0 L 849.5 -931.0 L 842.0 -924.0 L 838.0 -920.0 L 838.0 -919.0 L 836.0 -918.0 L 836.0 -918.0 L 835.0 -917.0 L 841.0 -919.0 L 846.0 -921.5 L 851.0 -924.0 L 854.0 -926.0 L 859.0 -929.0 L 860.0 -929.0 L 860.0 -929.0 L 858.0 -927.0 L 857.0 -926.0 L 853.5 -924.0 L 850.0 -922.0 L 847.0 -920.5 L 844.0 -919.0 L 841.0 -918.0 L 838.0 -917.0 L 836.0 -917.0 L 835.0 -917.0 L 835.0 -917.0 L 823.0 -911.0 L 807.5 -904.0 L 792.0 -897.0 L 775.0 -890.0 L 758.0 -883.0 L 741.5 -877.5 L 725.0 -872.0 L 711.0 -870.0 L 702.0 -869.0 L 688.5 -868.0 L 675.0 -867.0 L 663.5 -866.5 L 652.0 -866.0 L 646.5 -865.0 L 641.0 -864.0 L 647.0 -862.0 L 655.0 -859.0 L 663.5 -858.0 L 672.0 -857.0 L 681.0 -857.0 L 693.0 -857.0 L 705.0 -858.0 L 717.0 -859.0 L 730.0 -859.0 L 755.0 -859.0 L 778.5 -852.0 L 802.0 -845.0 L 822.0 -829.0 L 841.0 -815.0 L 841.0 -810.0 L 844.0 -802.0 L 830.0 -802.0 L 817.0 -802.0 L 805.5 -803.5 L 794.0 -805.0 L 782.0 -807.0 L 765.0 -810.0 L 742.0 -812.5 L 719.0 -815.0 L 692.0 -819.0 L 665.0 -823.0 L 643.0 -825.0 L 621.0 -827.0 L 599.0 -827.0 L 595.0 -828.0 L 590.5 -828.0 L 586.0 -828.0 L 583.0 -828.0 L 569.0 -828.0 L 555.0 -827.5 L 541.0 -827.0 L 527.0 -826.0 L 524.0 -825.0 L 519.5 -823.0 L 515.0 -821.0 L 507.0 -821.0 L 502.0 -821.0 Z M -62.0 -593.0 L -67.0 -593.0 L -70.0 -601.0 L -70.0 -602.0 L -68.0 -602.0 L -67.0 -602.0 L -64.0 -604.0 L -62.0 -605.0 L -66.0 -610.0 L -70.0 -615.0 L -64.0 -618.0 L -18.0 -635.0 L 22.5 -648.0 L 63.0 -661.0 L 97.0 -672.5 L 131.0 -684.0 L 158.5 -694.0 L 186.0 -704.0 L 207.0 -714.0 L 287.0 -755.0 L 332.0 -829.0 L 339.0 -841.0 L 346.5 -858.5 L 354.0 -876.0 L 362.5 -899.0 L 371.0 -922.0 L 382.5 -951.5 L 394.0 -981.0 L 410.0 -1016.0 L 411.0 -1019.0 L 414.0 -1020.5 L 417.0 -1022.0 L 421.5 -1022.5 L 426.0 -1023.0 L 430.5 -1023.5 L 435.0 -1024.0 L 439.0 -1027.0 L 451.0 -1034.0 L 459.0 -1038.0 L 467.0 -1042.0 L 471.0 -1044.0 L 483.0 -1050.0 L 491.5 -1052.5 L 500.0 -1055.0 L 503.0 -1057.0 L 517.0 -1057.0 L 522.0 -1057.0 L 527.0 -1056.5 L 532.0 -1056.0 L 538.0 -1054.0 L 542.0 -1053.0 L 546.5 -1052.0 L 551.0 -1051.0 L 556.0 -1050.5 L 561.0 -1050.0 L 566.0 -1048.0 L 570.0 -1047.0 L 574.0 -1043.0 L 575.0 -1042.0 L 574.0 -1040.0 L 573.0 -1038.0 L 570.0 -1037.0 L 567.0 -1036.0 L 564.5 -1034.5 L 562.0 -1033.0 L 560.0 -1032.0 L 523.0 -1006.0 L 519.0 -999.0 L 511.0 -965.0 L 504.0 -941.0 L 497.0 -917.0 L 489.0 -897.0 L 487.0 -891.0 L 482.5 -883.0 L 478.0 -875.0 L 472.0 -865.5 L 466.0 -856.0 L 460.5 -847.5 L 455.0 -839.0 L 451.0 -834.0 L 451.0 -834.0 L 453.0 -834.0 L 455.0 -834.0 L 450.0 -830.0 L 446.0 -826.0 L 446.0 -826.0 L 451.0 -834.0 L 447.0 -832.0 L 436.5 -825.0 L 426.0 -818.0 L 412.0 -808.0 L 398.0 -798.0 L 382.5 -785.5 L 367.0 -773.0 L 351.0 -760.0 L 335.0 -748.0 L 322.5 -737.5 L 310.0 -727.0 L 299.0 -718.0 L 288.0 -709.0 L 280.5 -702.5 L 273.0 -696.0 L 269.0 -692.0 L 269.0 -691.0 L 267.0 -689.0 L 267.0 -689.0 L 267.0 -688.0 L 273.0 -690.0 L 277.5 -692.5 L 282.0 -695.0 L 286.0 -697.0 L 291.0 -700.0 L 292.0 -700.0 L 292.0 -700.0 L 289.0 -699.0 L 288.0 -698.0 L 284.5 -696.0 L 281.0 -694.0 L 278.0 -692.0 L 275.0 -690.0 L 272.0 -689.0 L 269.0 -688.0 L 268.0 -688.0 L 267.0 -688.0 L 267.0 -688.0 L 255.0 -682.0 L 239.0 -675.0 L 223.0 -668.0 L 206.0 -661.0 L 189.0 -654.0 L 172.5 -649.0 L 156.0 -644.0 L 143.0 -641.0 L 134.0 -640.0 L 120.0 -639.5 L 106.0 -639.0 L 94.5 -638.5 L 83.0 -638.0 L 77.5 -637.0 L 72.0 -636.0 L 79.0 -633.0 L 87.0 -630.0 L 95.5 -629.0 L 104.0 -628.0 L 112.0 -628.0 L 124.0 -628.0 L 136.0 -629.0 L 148.0 -630.0 L 161.0 -630.0 L 186.0 -630.0 L 209.5 -623.0 L 233.0 -616.0 L 253.0 -601.0 L 271.0 -587.0 L 272.0 -582.0 L 275.0 -574.0 L 261.0 -574.0 L 248.0 -574.0 L 237.0 -575.0 L 226.0 -576.0 L 213.0 -579.0 L 195.0 -582.0 L 172.5 -584.5 L 150.0 -587.0 L 124.0 -591.0 L 97.0 -595.0 L 74.5 -597.0 L 52.0 -599.0 L 30.0 -599.0 L 26.0 -600.0 L 22.0 -600.0 L 18.0 -600.0 L 14.0 -600.0 L 0.0 -600.0 L -14.0 -599.5 L -28.0 -599.0 L -42.0 -597.0 L -45.0 -596.0 L -49.5 -594.5 L -54.0 -593.0 Z M 582.0 -718.0 L 582.0 -723.0 L 596.0 -723.0 L 607.0 -723.0 L 618.5 -721.5 L 630.0 -720.0 L 642.0 -718.0 L 657.0 -716.0 L 665.5 -714.0 L 674.0 -712.0 L 681.0 -711.0 L 744.0 -700.0 L 762.0 -615.0 L 773.0 -564.0 L 782.0 -547.0 L 787.0 -538.0 L 809.0 -533.0 L 827.0 -529.0 L 826.0 -529.0 L 826.0 -526.0 L 825.0 -526.5 L 824.0 -527.0 L 821.0 -521.0 L 814.0 -507.0 L 776.0 -507.0 L 757.0 -507.0 L 735.0 -512.5 L 713.0 -518.0 L 687.0 -527.0 L 636.0 -546.0 L 618.0 -660.0 L 611.0 -707.0 L 598.0 -708.0 L 598.0 -708.0 L 597.5 -707.5 L 597.0 -707.0 L 596.0 -707.0 L 595.0 -707.0 L 591.0 -707.0 L 581.0 -707.0 Z" fill="black" fill-opacity="0.25" stroke="black" stroke-width="4.0"/>
  <rect x="52.0" y="-462.0" width="1127.0" height="294.00000000000006" fill="none" stroke="red" stroke-width="10.0" /><rect x="499.0" y="-1285.0" width="646.9999999999999" height="482.9999999999999" fill="none" stroke="red" stroke-width="10.0" /><rect x="-70.0" y="-1057.0" width="645.0" height="483.0" fill="none" stroke="red" stroke-width="10.0" /><rect x="581.0" y="-723.0" width="246.0" height="215.99999999999997" fill="none" stroke="red" stroke-width="10.0" />
</svg>
