<svg xmlns="http://www.w3.org/2000/svg"
  viewBox="-32.0 -924.0 1300.0 794.0">
  <rect x="-32.0" y="-924.0" width="1300.0" height="794.0" fill="white"/>
  <path d="M 18.0 -752.0 L 18.0 -780.0 L 31.0 -801.0 L 44.0 -822.0 L 66.0 -835.0 L 88.0 -848.0 L 116.0 -856.0 L 144.0 -864.0 L 172.5 -868.0 L 201.0 -872.0 L 227.5 -873.0 L 254.0 -874.0 L 274.0 -874.0 L 326.0 -874.0 L 380.5 -870.0 L 435.0 -866.0 L 494.0 -856.0 L 554.0 -848.0 L 612.0 -832.0 L 670.0 -816.0 L 731.0 -800.0 L 790.0 -782.0 L 856.5 -750.0 L 923.0 -718.0 L 997.0 -668.0 L 1143.0 -572.0 L 1143.0 -532.0 L 1143.0 -512.0 L 1106.0 -512.0 L 1059.0 -512.0 L 1009.0 -519.0 L 959.0 -526.0 L 913.0 -536.0 L 925.0 -640.0 L 749.0 -724.0 L 582.0 -804.0 L 410.0 -804.0 L 393.0 -804.0 L 372.0 -802.0 L 351.0 -800.0 L 329.5 -796.0 L 308.0 -792.0 L 287.5 -785.0 L 267.0 -778.0 L 250.5 -767.0 L 234.0 -756.0 L 224.0 -739.0 L 214.0 -722.0 L 213.0 -700.0 L 212.0 -670.0 L 258.0 -632.0 L 316.0 -588.0 L 322.0 -586.0 L 183.0 -586.0 L 113.0 -616.0 L 66.0 -636.0 L 35.0 -684.0 L 18.0 -724.0 Z M 91.0 -440.0 L 91.0 -458.0 L 115.0 -464.0 L 128.0 -468.0 L 147.5 -470.0 L 167.0 -472.0 L 194.0 -472.0 L 215.0 -472.0 L 245.0 -472.0 L 275.0 -472.0 L 306.0 -469.0 L 337.0 -466.0 L 366.0 -461.0 L 395.0 -456.0 L 413.0 -448.0 L 415.0 -446.0 L 416.0 -443.0 L 417.0 -440.0 L 418.0 -438.0 L 419.0 -436.0 L 419.0 -436.0 L 412.0 -426.0 L 406.0 -428.0 L 398.5 -429.0 L 391.0 -430.0 L 382.0 -430.0 L 370.0 -430.0 L 359.5 -429.0 L 349.0 -428.0 L 338.0 -426.0 L 334.0 -426.0 L 330.5 -425.0 L 327.0 -424.0 L 327.0 -418.0 L 327.0 -402.0 L 357.0 -374.0 L 374.0 -356.0 L 394.0 -342.0 L 414.0 -328.0 L 440.0 -316.0 L 482.0 -294.0 L 532.5 -278.0 L 583.0 -262.0 L 636.0 -251.0 L 689.0 -240.0 L 741.5 -233.0 L 794.0 -226.0 L 841.0 -226.0 L 859.0 -226.0 L 880.5 -227.0 L 902.0 -228.0 L 924.5 -232.0 L 947.0 -236.0 L 968.0 -243.0 L 989.0 -250.0 L 1005.5 -262.0 L 1022.0 -274.0 L 1032.0 -291.0 L 1042.0 -308.0 L 1043.0 -332.0 L 1040.0 -360.0 L 1032.0 -402.0 L 946.0 -446.0 L 943.0 -450.0 L 941.5 -453.0 L 940.0 -456.0 L 937.0 -462.0 L 950.0 -464.0 L 963.5 -465.0 L 977.0 -466.0 L 995.0 -470.0 L 1012.0 -472.0 L 1023.5 -473.0 L 1035.0 -474.0 L 1047.0 -474.0 L 1087.0 -474.0 L 1117.0 -466.0 L 1147.0 -458.0 L 1171.0 -446.0 L 1179.0 -442.0 L 1186.5 -434.0 L 1194.0 -426.0 L 1202.0 -418.0 L 1218.0 -382.0 L 1218.0 -348.0 L 1218.0 -310.0 L 1199.5 -283.0 L 1181.0 -256.0 L 1150.5 -237.0 L 1120.0 -218.0 L 1081.5 -207.0 L 1043.0 -196.0 L 1003.5 -190.0 L 964.0 -184.0 L 927.5 -182.0 L 891.0 -180.0 L 863.0 -180.0 L 793.0 -180.0 L 715.0 -189.0 L 637.0 -198.0 L 549.0 -216.0 L 413.0 -244.0 L 258.0 -316.0 L 91.0 -394.0 Z M 294.0 -654.0 L 307.0 -658.0 L 318.0 -662.0 L 329.0 -666.0 L 341.0 -670.0 L 377.0 -672.0 L 413.0 -673.0 L 449.0 -674.0 L 484.0 -674.0 L 511.0 -674.0 L 542.5 -670.0 L 574.0 -666.0 L 609.0 -660.0 L 631.0 -656.0 L 651.5 -649.0 L 672.0 -642.0 L 693.0 -638.0 L 708.0 -634.0 L 728.0 -628.0 L 748.0 -622.0 L 769.0 -612.0 L 790.0 -602.0 L 810.0 -591.0 L 830.0 -580.0 L 846.0 -566.0 L 862.0 -552.0 L 871.5 -535.0 L 881.0 -518.0 L 880.0 -498.0 L 879.0 -476.0 L 867.0 -458.0 L 862.0 -452.0 L 838.0 -452.0 L 821.0 -452.0 L 797.0 -454.0 L 773.0 -456.0 L 740.0 -464.0 L 729.0 -466.0 L 714.0 -469.0 L 699.0 -472.0 L 681.0 -476.0 L 691.0 -480.0 L 699.5 -488.0 L 708.0 -496.0 L 715.0 -504.0 L 729.0 -524.0 L 724.0 -536.0 L 714.0 -558.0 L 676.5 -579.0 L 639.0 -600.0 L 573.0 -612.0 L 502.0 -626.0 L 433.5 -635.0 L 365.0 -644.0 Z" fill="black" fill-opacity="0.25" stroke="black" stroke-width="4.0"/>
  <rect x="18.0" y="-874.0" width="1125.0" height="362.0" fill="none" stroke="red" stroke-width="10.0" /><rect x="91.0" y="-474.0" width="1127.0" height="294.0" fill="none" stroke="red" stroke-width="10.0" /><rect x="294.0" y="-674.0" width="587.0" height="222.00000000000003" fill="none" stroke="red" stroke-width="10.0" />
</svg>
