<svg xmlns="http://www.w3.org/2000/svg"
  viewBox="2 -1082 1506.5 958">
  <rect x="2" y="-1082" width="1506.5" height="958" fill="white"/>
  <path d="M 52 -434 L 52 -454 L 75 -460 L 100 -468 L 154 -466 L 175 -466 L 205 -466 L 235 -466 L 266.5 -463 L 298 -460 L 326.5 -455 L 355 -450 L 374 -442 L 376 -440 L 376.5 -438 L 377 -436 L 378 -434 L 379 -432 L 380 -430 L 372 -422 L 366 -422 L 359 -423 L 352 -424 L 342 -424 L 330 -424 L 320 -424 L 310 -424 L 299 -422 L 295 -422 L 291.5 -421 L 288 -420 L 288 -414 L 288 -398 L 317 -368 L 342 -344 L 378.5 -323 L 415 -302 L 458 -286 L 501 -270 L 547.5 -258 L 594 -246 L 639.5 -238 L 685 -230 L 727 -226 L 769 -222 L 802 -222 L 820 -222 L 841.5 -223 L 863 -224 L 885.5 -228 L 908 -232 L 929 -239 L 950 -246 L 966.5 -258 L 983 -270 L 993 -287 L 1003 -304 L 1003 -328 L 1000 -354 L 992 -396 L 906 -440 L 903 -444 L 901.5 -448 L 900 -452 L 897 -456 L 910 -460 L 924 -461 L 938 -462 L 955 -464 L 972 -466 L 984 -467 L 996 -468 L 1008 -468 L 1048 -468 L 1078 -461 L 1108 -454 L 1131 -440 L 1139 -436 L 1147 -429 L 1155 -422 L 1163 -414 L 1179 -376 L 1178 -344 L 1178 -306 L 1159.5 -278 L 1141 -250 L 1111 -232 L 1081 -214 L 1042 -202 L 1003 -190 L 964 -184 L 925 -178 L 888 -176 L 851 -174 L 824 -174 L 753 -174 L 675.5 -183 L 598 -192 L 510 -210 L 442 -224 L 370 -249 L 298 -274 L 219 -310 L 52 -388 Z M 814 -576 L 814 -576 L 816 -576 L 817 -576 L 820 -578 L 822 -580 L 818 -586 L 814 -590 L 820 -592 L 866 -610 L 906.5 -623 L 947 -636 L 981 -647 L 1015 -658 L 1042.5 -668 L 1070 -678 L 1091 -690 L 1170 -732 L 1216 -804 L 1223 -816 L 1230.5 -833 L 1238 -850 L 1246.5 -874 L 1255 -898 L 1266.5 -927 L 1278 -956 L 1294 -990 L 1295 -994 L 1298.5 -995 L 1302 -996 L 1306 -997 L 1310 -998 L 1314.5 -998 L 1319 -998 L 1324 -1002 L 1336 -1008 L 1343.5 -1012 L 1351 -1016 L 1355 -1018 L 1367 -1024 L 1376 -1027 L 1385 -1030 L 1388 -1032 L 1401 -1032 L 1406 -1032 L 1411.5 -1031 L 1417 -1030 L 1422 -1028 L 1426 -1028 L 1430.5 -1027 L 1435 -1026 L 1440 -1025 L 1445 -1024 L 1449.5 -1023 L 1454 -1022 L 1458 -1018 L 1459 -1016 L 1458 -1014 L 1457 -1012 L 1454 -1011 L 1451 -1010 L 1448 -1009 L 1445 -1008 L 1444 -1006 L 1406 -980 L 1403 -974 L 1395 -940 L 1388 -916 L 1381 -892 L 1374 -872 L 1372 -866 L 1367 -858 L 1362 -850 L 1356.5 -841 L 1351 -832 L 1345 -823 L 1339 -814 L 1335 -808 L 1335 -808 L 1337 -810 L 1339 -810 L 1334 -804 L 1331 -800 L 1331 -800 L 1335 -808 L 1331 -806 L 1321 -800 L 1311 -794 L 1297 -783 L 1283 -772 L 1267 -760 L 1251 -748 L 1235 -734 L 1219 -722 L 1206.5 -712 L 1194 -702 L 1183 -694 L 1161 -676 L 1153 -666 L 1153 -666 L 1152 -664 L 1152 -664 L 1151 -664 L 1132 -654 L 1113 -646 L 1094 -638 L 1075 -630 L 1045 -618 L 1027 -616 L 1018 -614 L 1004 -614 L 990 -614 L 978.5 -613 L 967 -612 L 961.5 -612 L 956 -612 L 963 -608 L 971 -606 L 979 -605 L 987 -604 L 996 -604 L 1008 -604 L 1020.5 -605 L 1033 -606 L 1045 -606 L 1070 -606 L 1093.5 -598 L 1117 -590 L 1138 -576 L 1156 -562 L 1156 -556 L 1159 -548 L 1146 -548 L 1133 -548 L 1121.5 -549 L 1110 -550 L 1097 -554 L 1079 -556 L 1056.5 -559 L 1034 -562 L 1008 -566 L 981 -570 L 958.5 -572 L 936 -574 L 914 -574 L 910 -574 L 906 -574 L 902 -574 L 898 -574 L 884 -574 L 870 -574 L 856 -574 L 842 -572 L 839 -570 L 834.5 -569 L 830 -568 L 822 -568 L 817 -568 Z M 458 -762 L 458 -768 L 472 -768 L 476 -768 L 483 -768 L 493.5 -767 L 504 -766 L 518 -762 L 533 -760 L 541.5 -759 L 550 -758 L 557 -756 L 620 -746 L 638 -660 L 649 -608 L 659 -592 L 664 -584 L 685 -578 L 703 -574 L 702 -574 L 702 -570 L 701.5 -571 L 701 -572 L 698 -566 L 691 -552 L 652 -552 L 633 -552 L 611.5 -557 L 590 -562 L 563 -572 L 512 -592 L 495 -706 L 488 -752 L 475 -752 L 475 -752 L 474 -752 L 473 -752 L 473 -752 L 472 -752 L 467 -752 L 457 -752 Z" fill="black" fill-opacity="0.25" stroke="black" stroke-width="4"/>
  <rect x="52" y="-468" width="1127" height="294" fill="none" stroke="red" stroke-width="10" /><rect x="457" y="-768" width="246" height="216" fill="none" stroke="red" stroke-width="10" /><rect x="814" y="-709.3" width="389.2" height="161.3" fill="none" stroke="red" stroke-width="10" /><rect x="1127.4" y="-870.7" width="246.2" height="161.4" fill="none" stroke="red" stroke-width="10" /><rect x="1245.3" y="-1032" width="213.7" height="161.3" fill="none" stroke="red" stroke-width="10" />
</svg>
