<svg xmlns="http://www.w3.org/2000/svg"
  viewBox="-9 -1372 1309 1247">
  <rect x="-9" y="-1372" width="1309" height="1247" fill="white"/>
  <path d="M 144 -1308 L 160 -1310 L 177 -1312.5 L 194 -1315 L 213 -1317 L 232 -1319 L 245 -1320.5 L 258 -1322 L 266 -1322 L 309 -1322 L 338 -1303 L 345 -1298 L 346 -1278 L 343 -1233 L 343 -1220 L 347 -1213 L 440 -1081 L 650 -1040 L 658 -1037 L 668.5 -1036 L 679 -1035 L 691 -1033 L 696 -1049 L 701 -1061 L 706 -1073 L 711 -1085 L 719 -1102 L 749 -1102 L 810 -1096 L 823 -1095 L 836 -1093.5 L 849 -1092 L 861 -1092 L 855 -1080 L 849 -1061.5 L 843 -1043 L 836 -1018 L 974 -1011 L 1205 -1001 L 1250 -957 L 1077 -957 L 998 -957 L 934 -957 L 870 -957 L 816 -958 L 799 -920 L 771 -891 L 763 -881 L 749 -875 L 735 -869 L 719 -865.5 L 703 -862 L 686.5 -861 L 670 -860 L 659 -860 L 642 -860 L 635 -863 L 621 -869 L 630 -877 L 643 -895 L 653 -916.5 L 663 -938 L 671 -963 L 658 -963 L 458 -973 L 360 -1021 L 276 -1060 L 174 -1185 L 166 -1198 L 162 -1225 L 149 -1298 Z M 41 -749 L 41 -777 L 54.5 -797 L 68 -817 L 90 -830.5 L 112 -844 L 139.5 -852 L 167 -860 L 196 -864 L 225 -868 L 251.5 -869.5 L 278 -871 L 297 -871 L 349 -871 L 403.5 -866 L 458 -861 L 518 -852 L 578 -843 L 636 -828 L 694 -814 L 755 -796 L 814 -779 L 880 -746 L 946 -713 L 1021 -665 L 1167 -569 L 1166 -527 L 1166 -508 L 1130 -508 L 1083 -508 L 1033 -515 L 983 -522 L 937 -532 L 949 -636 L 772 -719 L 605 -799 L 433 -799 L 416 -799 L 395.5 -797.5 L 375 -796 L 353.5 -792 L 332 -788 L 311.5 -781 L 291 -774 L 274.5 -762.5 L 258 -751 L 247.5 -734.5 L 237 -718 L 236 -696 L 235 -665 L 282 -629 L 340 -584 L 345 -582 L 206 -583 L 136 -611 L 89 -631 L 58 -680 L 41 -720 Z M 138 -460 L 151 -464 L 170.5 -466 L 190 -468 L 217 -468 L 238 -468 L 268 -467.5 L 298 -467 L 329.5 -464.5 L 361 -462 L 389.5 -457 L 418 -452 L 437 -443 L 439 -441 L 439.5 -438.5 L 440 -436 L 441 -435 L 442 -433 L 443 -432 L 435 -422 L 429 -423 L 422 -424.5 L 415 -426 L 405 -426 L 393 -426 L 383 -425 L 373 -424 L 362 -422 L 358 -422 L 354.5 -421 L 351 -420 L 351 -415 L 351 -399 L 380 -369 L 405 -344 L 442 -323.5 L 479 -303 L 521.5 -286.5 L 564 -270 L 610.5 -258 L 657 -246 L 703 -238 L 749 -230 L 790.5 -226 L 832 -222 L 865 -222 L 883 -222 L 904.5 -223.5 L 926 -225 L 948.5 -228.5 L 971 -232 L 992 -239 L 1013 -246 L 1029.5 -258 L 1046 -270 L 1056 -287.5 L 1066 -305 L 1066 -329 L 1063 -355 L 1055 -397 L 969 -441 L 966 -445 L 964.5 -448.5 L 963 -452 L 960 -457 L 973 -460 L 986.5 -461 L 1000 -462 L 1018 -465 L 1035 -467 L 1047 -468 L 1059 -469 L 1071 -469 L 1111 -469 L 1141 -461.5 L 1171 -454 L 1194 -441 L 1202 -437 L 1210 -429.5 L 1218 -422 L 1226 -415 L 1242 -378 L 1241 -344 L 1241 -306 L 1222.5 -279 L 1204 -252 L 1174 -233 L 1144 -214 L 1105 -202.5 L 1066 -191 L 1027 -185 L 988 -179 L 951 -177 L 914 -175 L 887 -175 L 817 -175 L 739 -184 L 661 -193 L 573 -212 L 505 -226 L 432.5 -250.5 L 360 -275 L 282 -312 L 115 -389 L 115 -435 L 115 -454 Z M 365 -666 L 401 -668 L 436.5 -668.5 L 472 -669 L 508 -669 L 535 -669 L 566 -665.5 L 597 -662 L 632 -655 L 654 -651 L 675 -644.5 L 696 -638 L 716 -633 L 731 -630 L 751 -623.5 L 771 -617 L 792 -608 L 813 -599 L 833.5 -587 L 854 -575 L 869.5 -561 L 885 -547 L 894.5 -530 L 904 -513 L 904 -494 L 903 -472 L 890 -453 L 885 -447 L 862 -447 L 845 -447 L 821 -450 L 797 -453 L 763 -460 L 752 -462 L 737.5 -464.5 L 723 -467 L 704 -472 L 714 -477 L 722.5 -484 L 731 -491 L 738 -500 L 752 -519 L 748 -531 L 738 -554 L 700 -575 L 662 -596 L 596 -608 L 525 -621 L 457 -630 L 389 -639 L 318 -650 L 331 -653 L 342 -658 L 353 -663 Z" fill="black" fill-opacity="0.25" stroke="black" stroke-width="4"/>
  <rect x="144" y="-1322" width="1106" height="462" fill="none" stroke="red" stroke-width="10" /><rect x="41" y="-871" width="1126" height="363" fill="none" stroke="red" stroke-width="10" /><rect x="115" y="-469" width="1127" height="294" fill="none" stroke="red" stroke-width="10" /><rect x="318" y="-669" width="586" height="222" fill="none" stroke="red" stroke-width="10" />
</svg>
