<svg xmlns="http://www.w3.org/2000/svg"
  viewBox="2.0 -1324.0 1500.5 1208.0">
  <rect x="2.0" y="-1324.0" width="1500.5" height="1208.0" fill="white"/>
  <path d="M 52.0 -426.0 L 52.0 -445.0 L 75.0 -451.0 L 100.0 -459.0 L 154.0 -458.0 L 175.0 -458.0 L 205.0 -457.5 L 235.0 -457.0 L 266.5 -454.5 L 298.0 -452.0 L 326.5 -447.0 L 355.0 -442.0 L 374.0 -434.0 L 376.0 -432.0 L 376.5 -429.5 L 377.0 -427.0 L 378.0 -425.0 L 379.0 -423.0 L 380.0 -422.0 L 372.0 -413.0 L 366.0 -414.0 L 359.0 -415.0 L 352.0 -416.0 L 342.0 -416.0 L 330.0 -416.0 L 320.0 -415.5 L 310.0 -415.0 L 299.0 -413.0 L 295.0 -413.0 L 291.5 -412.0 L 288.0 -411.0 L 288.0 -405.0 L 288.0 -389.0 L 317.0 -360.0 L 342.0 -335.0 L 378.5 -314.0 L 415.0 -293.0 L 458.0 -277.0 L 501.0 -261.0 L 547.5 -249.0 L 594.0 -237.0 L 639.5 -229.0 L 685.0 -221.0 L 727.0 -217.0 L 769.0 -213.0 L 802.0 -213.0 L 820.0 -213.0 L 841.5 -214.0 L 863.0 -215.0 L 885.5 -219.0 L 908.0 -223.0 L 929.0 -230.0 L 950.0 -237.0 L 966.5 -249.0 L 983.0 -261.0 L 993.0 -278.0 L 1003.0 -295.0 L 1003.0 -319.0 L 1000.0 -346.0 L 992.0 -388.0 L 906.0 -432.0 L 903.0 -436.0 L 901.5 -439.5 L 900.0 -443.0 L 897.0 -448.0 L 910.0 -451.0 L 924.0 -452.0 L 938.0 -453.0 L 955.0 -456.0 L 972.0 -458.0 L 984.0 -459.0 L 996.0 -460.0 L 1008.0 -460.0 L 1048.0 -460.0 L 1078.0 -452.5 L 1108.0 -445.0 L 1131.0 -432.0 L 1139.0 -428.0 L 1147.0 -420.5 L 1155.0 -413.0 L 1163.0 -405.0 L 1179.0 -368.0 L 1178.0 -335.0 L 1178.0 -297.0 L 1159.5 -269.5 L 1141.0 -242.0 L 1111.0 -223.5 L 1081.0 -205.0 L 1042.0 -193.5 L 1003.0 -182.0 L 964.0 -176.0 L 925.0 -170.0 L 888.0 -168.0 L 851.0 -166.0 L 824.0 -166.0 L 753.0 -166.0 L 675.5 -175.0 L 598.0 -184.0 L 510.0 -202.0 L 442.0 -216.0 L 370.0 -241.0 L 298.0 -266.0 L 219.0 -302.0 L 52.0 -380.0 Z M 339.0 -818.0 L 339.0 -819.0 L 341.0 -819.0 L 342.0 -819.0 L 345.0 -821.0 L 347.0 -822.0 L 343.0 -828.0 L 339.0 -833.0 L 345.0 -835.0 L 391.0 -852.0 L 431.5 -865.0 L 472.0 -878.0 L 506.0 -889.5 L 540.0 -901.0 L 567.5 -911.0 L 595.0 -921.0 L 616.0 -932.0 L 696.0 -973.0 L 741.0 -1046.0 L 748.0 -1058.0 L 755.5 -1075.5 L 763.0 -1093.0 L 771.5 -1116.5 L 780.0 -1140.0 L 791.5 -1169.0 L 803.0 -1198.0 L 819.0 -1233.0 L 820.0 -1236.0 L 823.5 -1237.5 L 827.0 -1239.0 L 831.0 -1239.5 L 835.0 -1240.0 L 840.0 -1241.0 L 845.0 -1242.0 L 849.0 -1244.0 L 861.0 -1251.0 L 868.5 -1255.0 L 876.0 -1259.0 L 880.0 -1261.0 L 892.0 -1267.0 L 901.0 -1269.5 L 910.0 -1272.0 L 913.0 -1274.0 L 926.0 -1274.0 L 931.0 -1274.0 L 936.0 -1273.5 L 941.0 -1273.0 L 947.0 -1271.0 L 951.0 -1270.0 L 955.5 -1269.5 L 960.0 -1269.0 L 965.0 -1268.0 L 970.0 -1267.0 L 974.5 -1265.5 L 979.0 -1264.0 L 983.0 -1260.0 L 984.0 -1259.0 L 983.0 -1257.0 L 982.0 -1255.0 L 979.5 -1254.0 L 977.0 -1253.0 L 974.0 -1251.5 L 971.0 -1250.0 L 969.0 -1249.0 L 932.0 -1223.0 L 928.0 -1216.0 L 920.0 -1182.0 L 913.0 -1158.0 L 906.0 -1134.0 L 898.0 -1115.0 L 896.0 -1109.0 L 891.5 -1100.5 L 887.0 -1092.0 L 881.0 -1083.0 L 875.0 -1074.0 L 869.5 -1065.5 L 864.0 -1057.0 L 860.0 -1051.0 L 860.0 -1051.0 L 862.0 -1052.0 L 864.0 -1052.0 L 859.0 -1047.0 L 855.0 -1043.0 L 855.0 -1043.0 L 860.0 -1051.0 L 856.0 -1049.0 L 845.5 -1042.5 L 835.0 -1036.0 L 821.5 -1025.5 L 808.0 -1015.0 L 792.0 -1002.5 L 776.0 -990.0 L 760.0 -977.0 L 744.0 -965.0 L 731.5 -954.5 L 719.0 -944.0 L 708.0 -936.0 L 697.0 -927.0 L 689.5 -920.0 L 682.0 -913.0 L 678.0 -909.0 L 678.0 -908.0 L 676.0 -907.0 L 676.0 -907.0 L 676.0 -906.0 L 682.0 -908.0 L 686.5 -910.5 L 691.0 -913.0 L 695.0 -915.0 L 700.0 -918.0 L 701.0 -917.0 L 701.0 -917.0 L 698.0 -916.0 L 697.0 -915.0 L 693.5 -913.0 L 690.0 -911.0 L 687.0 -909.5 L 684.0 -908.0 L 681.0 -906.5 L 678.0 -905.0 L 677.0 -905.0 L 676.0 -905.0 L 676.0 -906.0 L 664.0 -900.0 L 648.0 -892.5 L 632.0 -885.0 L 615.0 -878.5 L 598.0 -872.0 L 581.5 -866.5 L 565.0 -861.0 L 552.0 -858.0 L 543.0 -857.0 L 529.0 -856.5 L 515.0 -856.0 L 503.5 -855.5 L 492.0 -855.0 L 486.5 -854.0 L 481.0 -853.0 L 488.0 -851.0 L 496.0 -848.0 L 504.5 -847.0 L 513.0 -846.0 L 521.0 -846.0 L 533.0 -846.0 L 545.5 -847.0 L 558.0 -848.0 L 570.0 -848.0 L 595.0 -848.0 L 618.5 -840.5 L 642.0 -833.0 L 663.0 -818.0 L 681.0 -804.0 L 681.0 -799.0 L 684.0 -791.0 L 670.0 -791.0 L 657.0 -791.0 L 646.0 -792.0 L 635.0 -793.0 L 622.0 -796.0 L 604.0 -799.0 L 581.5 -801.5 L 559.0 -804.0 L 533.0 -808.0 L 506.0 -812.0 L 483.5 -814.0 L 461.0 -816.0 L 439.0 -816.0 L 435.0 -817.0 L 431.0 -817.0 L 427.0 -817.0 L 423.0 -817.0 L 409.0 -817.0 L 395.0 -816.5 L 381.0 -816.0 L 367.0 -814.0 L 364.0 -813.0 L 359.5 -811.5 L 355.0 -810.0 L 347.0 -810.0 L 342.0 -810.0 Z M 816.0 -537.0 L 811.0 -537.0 L 808.0 -545.0 L 808.0 -546.0 L 810.0 -546.0 L 811.0 -546.0 L 814.0 -548.0 L 816.0 -549.0 L 812.0 -555.0 L 808.0 -560.0 L 814.0 -562.0 L 860.0 -579.0 L 900.5 -592.0 L 941.0 -605.0 L 975.0 -616.5 L 1009.0 -628.0 L 1036.5 -638.0 L 1064.0 -648.0 L 1084.0 -659.0 L 1164.0 -700.0 L 1209.0 -773.0 L 1216.0 -785.0 L 1223.5 -802.5 L 1231.0 -820.0 L 1240.0 -843.5 L 1249.0 -867.0 L 1260.5 -896.0 L 1272.0 -925.0 L 1288.0 -960.0 L 1289.0 -963.0 L 1292.5 -964.5 L 1296.0 -966.0 L 1300.0 -966.5 L 1304.0 -967.0 L 1308.5 -968.0 L 1313.0 -969.0 L 1317.0 -971.0 L 1329.0 -978.0 L 1337.0 -982.0 L 1345.0 -986.0 L 1349.0 -988.0 L 1361.0 -994.0 L 1369.5 -996.5 L 1378.0 -999.0 L 1381.0 -1001.0 L 1395.0 -1001.0 L 1400.0 -1001.0 L 1405.0 -1000.5 L 1410.0 -1000.0 L 1416.0 -998.0 L 1420.0 -997.0 L 1424.5 -996.5 L 1429.0 -996.0 L 1433.5 -995.0 L 1438.0 -994.0 L 1443.0 -992.5 L 1448.0 -991.0 L 1452.0 -987.0 L 1453.0 -986.0 L 1452.0 -984.0 L 1451.0 -982.0 L 1448.0 -981.0 L 1445.0 -980.0 L 1442.0 -979.0 L 1440.0 -978.0 L 1438.0 -976.0 L 1401.0 -950.0 L 1397.0 -943.0 L 1389.0 -909.0 L 1382.0 -885.0 L 1375.0 -861.0 L 1367.0 -842.0 L 1365.0 -836.0 L 1360.5 -827.5 L 1356.0 -819.0 L 1350.0 -810.0 L 1344.0 -801.0 L 1338.5 -792.5 L 1333.0 -784.0 L 1329.0 -778.0 L 1329.0 -778.0 L 1331.0 -779.0 L 1333.0 -779.0 L 1328.0 -774.0 L 1324.0 -770.0 L 1324.0 -770.0 L 1329.0 -778.0 L 1325.0 -776.0 L 1314.5 -769.5 L 1304.0 -763.0 L 1290.0 -752.5 L 1276.0 -742.0 L 1260.5 -729.5 L 1245.0 -717.0 L 1229.0 -704.0 L 1213.0 -692.0 L 1200.5 -681.5 L 1188.0 -671.0 L 1177.0 -663.0 L 1166.0 -654.0 L 1158.5 -647.0 L 1151.0 -640.0 L 1147.0 -636.0 L 1147.0 -635.0 L 1145.0 -634.0 L 1145.0 -634.0 L 1145.0 -633.0 L 1151.0 -635.0 L 1155.5 -637.5 L 1160.0 -640.0 L 1164.0 -642.0 L 1169.0 -645.0 L 1169.0 -645.0 L 1169.0 -645.0 L 1167.0 -643.0 L 1166.0 -642.0 L 1162.5 -640.0 L 1159.0 -638.0 L 1156.0 -636.5 L 1153.0 -635.0 L 1150.0 -633.5 L 1147.0 -632.0 L 1146.0 -632.0 L 1145.0 -632.0 L 1145.0 -633.0 L 1133.0 -627.0 L 1117.0 -619.5 L 1101.0 -612.0 L 1084.0 -605.5 L 1067.0 -599.0 L 1050.5 -593.5 L 1034.0 -588.0 L 1021.0 -585.0 L 1012.0 -584.0 L 998.0 -583.5 L 984.0 -583.0 L 972.5 -582.5 L 961.0 -582.0 L 955.5 -581.0 L 950.0 -580.0 L 957.0 -578.0 L 965.0 -575.0 L 973.0 -574.0 L 981.0 -573.0 L 990.0 -573.0 L 1002.0 -573.0 L 1014.0 -574.0 L 1026.0 -575.0 L 1039.0 -575.0 L 1064.0 -575.0 L 1087.5 -568.0 L 1111.0 -561.0 L 1131.0 -545.0 L 1149.0 -531.0 L 1150.0 -526.0 L 1153.0 -518.0 L 1139.0 -518.0 L 1126.0 -518.0 L 1115.0 -519.0 L 1104.0 -520.0 L 1091.0 -523.0 L 1073.0 -526.0 L 1050.5 -528.5 L 1028.0 -531.0 L 1001.0 -535.0 L 974.0 -539.0 L 952.0 -541.0 L 930.0 -543.0 L 908.0 -543.0 L 904.0 -544.0 L 900.0 -544.0 L 896.0 -544.0 L 892.0 -544.0 L 878.0 -544.0 L 864.0 -543.5 L 850.0 -543.0 L 836.0 -541.0 L 833.0 -540.0 L 828.5 -538.5 L 824.0 -537.0 Z M 476.0 -699.0 L 476.0 -704.0 L 489.0 -704.0 L 493.0 -704.0 L 500.0 -704.0 L 510.5 -703.0 L 521.0 -702.0 L 535.0 -699.0 L 550.0 -697.0 L 558.5 -695.5 L 567.0 -694.0 L 574.0 -693.0 L 637.0 -683.0 L 655.0 -596.0 L 666.0 -545.0 L 676.0 -529.0 L 681.0 -520.0 L 702.0 -515.0 L 720.0 -511.0 L 719.0 -510.0 L 719.0 -507.0 L 718.5 -507.5 L 718.0 -508.0 L 715.0 -502.0 L 708.0 -488.0 L 669.0 -488.0 L 650.0 -488.0 L 628.5 -493.5 L 607.0 -499.0 L 581.0 -509.0 L 530.0 -528.0 L 512.0 -642.0 L 505.0 -689.0 L 492.0 -689.0 L 492.0 -689.0 L 491.0 -688.5 L 490.0 -688.0 L 490.0 -688.0 L 489.0 -688.0 L 484.0 -688.0 L 475.0 -688.0 Z" fill="black" fill-opacity="0.25" stroke="black" stroke-width="4.0"/>
  <rect x="52.0" y="-460.0" width="1127.0" height="294.00000000000006" fill="none" stroke="red" stroke-width="10.0" /><rect x="475.0" y="-704.0" width="245.0" height="215.99999999999997" fill="none" stroke="red" stroke-width="10.0" /><rect x="339.0" y="-952.0" width="389.5" height="160.99999999999991" fill="none" stroke="red" stroke-width="10.0" /><rect x="655.0" y="-1113.0" width="242.29999999999995" height="161.00000000000003" fill="none" stroke="red" stroke-width="10.0" /><rect x="770.2" y="-1274.0" width="213.79999999999998" height="161.00000000000003" fill="none" stroke="red" stroke-width="10.0" /><rect x="808.0" y="-679.0" width="389.49999999999994" height="161.00000000000003" fill="none" stroke="red" stroke-width="10.0" /><rect x="1123.0" y="-840.0" width="243.30000000000007" height="160.99999999999991" fill="none" stroke="red" stroke-width="10.0" /><rect x="1238.6999999999998" y="-1000.9999999999999" width="214.30000000000015" height="160.99999999999991" fill="none" stroke="red" stroke-width="10.0" />
</svg>
