<svg xmlns="http://www.w3.org/2000/svg"
  viewBox="2 -1186 1248 1089">
  <rect x="2" y="-1186" width="1248" height="1089" fill="white"/>
  <path d="M 163 -640 L 215 -645 L 329 -645 L 365 -645 L 404.5 -641 L 444 -637 L 488 -627 L 514 -621 L 539 -615 L 564 -609 L 626 -593 L 688 -577 L 752 -529 L 815 -483 L 816 -429 L 816 -400 L 800 -379 L 794 -371 L 766 -372 L 725 -372 L 647 -387 L 635 -389 L 616 -392 L 597 -395 L 574 -401 L 598 -413 L 616 -437 L 633 -461 L 624.5 -481.5 L 616 -502 L 570 -528 L 524 -554 L 444 -570 L 360 -587 L 274.5 -598 L 189 -609 L 105 -622 Z M 811 -906 L 805 -894 L 798.5 -875 L 792 -856 L 786 -831 L 923 -825 L 1154 -816 L 1200 -770 L 1058 -770 L 951.5 -770 L 845 -770 L 765 -771 L 748 -733 L 720 -705 L 709 -691 L 676 -681 L 659 -676 L 644 -674.5 L 629 -673 L 615 -673 L 592 -673 L 584 -676 L 570 -682 L 580 -690 L 605 -726 L 620 -776 L 607 -776 L 407 -785 L 309 -834 L 225 -873 L 123 -998 L 115 -1012 L 111 -1039 L 98 -1113 L 93 -1122 L 125 -1126 L 162 -1131 L 200 -1136 L 215 -1136 L 258 -1136 L 287 -1117 L 294 -1112 L 295 -1092 L 292 -1046 L 292 -1032 L 296 -1026 L 388 -895 L 600 -853 L 608 -850 L 618 -849 L 628 -848 L 640 -847 L 645 -863 L 650 -875 L 655 -887 L 661 -898 L 670 -915 L 698 -915 L 759 -909 L 772 -908 L 785 -907 L 798 -906 Z M 1163 -386 L 1179 -350 L 1179 -316 L 1179 -232 L 1082 -189 L 984 -147 L 824 -147 L 685 -147 L 510 -183 L 375 -211 L 219 -283 L 52 -361 L 52 -406 L 52 -425 L 76 -432 L 103 -440 L 163 -439 L 196 -439 L 228 -438 L 260 -437 L 291 -433 L 351 -426 L 374 -414 L 380 -403 L 380 -403 L 373 -394 L 367 -395 L 359.5 -396 L 352 -397 L 343 -397 L 330 -397 L 320 -396 L 310 -395 L 299 -394 L 288 -395 L 288 -386 L 288 -370 L 318 -341 L 335 -324 L 355 -309.5 L 375 -295 L 400 -283 L 444 -262 L 491.5 -246.5 L 539 -231 L 594 -219 L 700 -194 L 802 -194 L 899 -194 L 949 -219 L 1004 -247 L 1004 -300 L 1000 -327 L 992 -369 L 907 -413 L 904 -418 L 902 -421 L 900 -424 L 897 -428 L 910 -431 L 924 -432.5 L 938 -434 L 955 -436 L 973 -438 L 984.5 -439.5 L 996 -441 L 1008 -441 L 1047 -441 L 1077.5 -433 L 1108 -425 L 1132 -413 L 1140 -409 L 1147.5 -401.5 L 1155 -394 Z" fill="black" fill-opacity="0.25" stroke="black" stroke-width="4"/>
  <rect x="105" y="-645" width="711" height="274" fill="none" stroke="red" stroke-width="10" /><rect x="93" y="-1136" width="1107" height="463" fill="none" stroke="red" stroke-width="10" /><rect x="52" y="-441" width="1127" height="294" fill="none" stroke="red" stroke-width="10" />
</svg>
