<svg xmlns="http://www.w3.org/2000/svg"
  viewBox="-26.0 -1410.0 1293.0 1429.0">
  <rect x="-26.0" y="-1410.0" width="1293.0" height="1429.0" fill="white"/>
  <path d="M 134.0 -524.0 L 186.0 -529.0 L 300.0 -529.0 L 336.0 -529.0 L 376.0 -525.0 L 416.0 -521.0 L 459.0 -511.0 L 485.0 -505.0 L 510.5 -499.0 L 536.0 -493.0 L 598.0 -477.0 L 660.0 -461.0 L 724.0 -413.0 L 787.0 -367.0 L 788.0 -313.0 L 788.0 -284.0 L 772.0 -263.0 L 766.0 -255.0 L 737.0 -256.0 L 696.0 -256.0 L 619.0 -271.0 L 607.0 -273.0 L 588.0 -276.0 L 569.0 -279.0 L 545.0 -285.0 L 569.0 -297.0 L 587.0 -321.0 L 604.0 -345.0 L 595.5 -365.5 L 587.0 -386.0 L 541.5 -412.0 L 496.0 -438.0 L 416.0 -454.0 L 332.0 -471.0 L 246.5 -482.0 L 161.0 -493.0 L 77.0 -506.0 Z M 782.0 -790.0 L 776.0 -778.0 L 770.0 -759.0 L 764.0 -740.0 L 757.0 -715.0 L 895.0 -709.0 L 1126.0 -700.0 L 1171.0 -654.0 L 1029.0 -654.0 L 923.0 -654.0 L 817.0 -654.0 L 737.0 -656.0 L 720.0 -618.0 L 691.0 -589.0 L 680.0 -575.0 L 648.0 -565.0 L 631.0 -560.0 L 616.0 -558.5 L 601.0 -557.0 L 587.0 -557.0 L 564.0 -557.0 L 556.0 -560.0 L 542.0 -566.0 L 551.0 -574.0 L 576.0 -610.0 L 592.0 -660.0 L 579.0 -660.0 L 379.0 -669.0 L 281.0 -718.0 L 197.0 -757.0 L 95.0 -882.0 L 86.0 -896.0 L 82.0 -923.0 L 69.0 -997.0 L 65.0 -1006.0 L 97.0 -1010.0 L 134.0 -1015.0 L 172.0 -1020.0 L 187.0 -1020.0 L 230.0 -1020.0 L 259.0 -1001.0 L 266.0 -996.0 L 267.0 -976.0 L 264.0 -930.0 L 264.0 -916.0 L 268.0 -910.0 L 360.0 -779.0 L 571.0 -737.0 L 579.0 -734.0 L 589.5 -733.0 L 600.0 -732.0 L 612.0 -731.0 L 617.0 -747.0 L 622.0 -759.0 L 627.0 -771.0 L 632.0 -782.0 L 641.0 -799.0 L 670.0 -800.0 L 730.0 -793.0 L 743.0 -792.0 L 756.0 -791.0 L 769.0 -790.0 Z M 828.0 -1131.0 L 822.0 -1118.0 L 815.5 -1099.5 L 809.0 -1081.0 L 803.0 -1055.0 L 940.0 -1050.0 L 1171.0 -1040.0 L 1217.0 -995.0 L 1074.0 -995.0 L 968.0 -995.0 L 862.0 -995.0 L 782.0 -996.0 L 765.0 -958.0 L 737.0 -929.0 L 726.0 -914.0 L 693.0 -906.0 L 675.0 -901.0 L 660.5 -899.5 L 646.0 -898.0 L 632.0 -898.0 L 609.0 -898.0 L 601.0 -901.0 L 587.0 -907.0 L 596.0 -915.0 L 621.0 -951.0 L 637.0 -1001.0 L 624.0 -1001.0 L 424.0 -1011.0 L 326.0 -1059.0 L 242.0 -1098.0 L 140.0 -1223.0 L 132.0 -1237.0 L 127.0 -1263.0 L 114.0 -1336.0 L 110.0 -1346.0 L 141.0 -1351.0 L 179.0 -1356.0 L 217.0 -1360.0 L 232.0 -1360.0 L 275.0 -1360.0 L 304.0 -1342.0 L 312.0 -1337.0 L 312.0 -1317.0 L 309.0 -1271.0 L 309.0 -1257.0 L 313.0 -1251.0 L 405.0 -1120.0 L 617.0 -1077.0 L 625.0 -1074.0 L 635.0 -1073.5 L 645.0 -1073.0 L 657.0 -1071.0 L 662.0 -1087.0 L 667.0 -1099.5 L 672.0 -1112.0 L 678.0 -1123.0 L 686.0 -1140.0 L 715.0 -1140.0 L 776.0 -1134.0 L 789.0 -1133.0 L 802.0 -1132.0 L 815.0 -1131.0 Z M 1135.0 -270.0 L 1151.0 -234.0 L 1150.0 -200.0 L 1150.0 -116.0 L 1054.0 -74.0 L 956.0 -31.0 L 796.0 -31.0 L 657.0 -31.0 L 481.0 -67.0 L 347.0 -95.0 L 191.0 -167.0 L 24.0 -245.0 L 24.0 -290.0 L 24.0 -309.0 L 47.0 -316.0 L 74.0 -324.0 L 135.0 -324.0 L 168.0 -324.0 L 199.5 -322.5 L 231.0 -321.0 L 263.0 -317.0 L 323.0 -310.0 L 346.0 -298.0 L 352.0 -287.0 L 352.0 -287.0 L 344.0 -278.0 L 338.0 -279.0 L 331.0 -280.0 L 324.0 -281.0 L 314.0 -281.0 L 301.0 -281.0 L 291.5 -280.5 L 282.0 -280.0 L 270.0 -278.0 L 259.0 -279.0 L 260.0 -270.0 L 260.0 -254.0 L 290.0 -225.0 L 307.0 -208.0 L 327.5 -193.5 L 348.0 -179.0 L 372.0 -167.0 L 416.0 -146.0 L 463.5 -131.0 L 511.0 -116.0 L 566.0 -103.0 L 672.0 -78.0 L 774.0 -78.0 L 871.0 -78.0 L 921.0 -103.0 L 976.0 -131.0 L 976.0 -184.0 L 972.0 -211.0 L 964.0 -253.0 L 878.0 -297.0 L 875.0 -302.0 L 873.5 -305.0 L 872.0 -308.0 L 869.0 -312.0 L 882.0 -315.0 L 896.0 -316.5 L 910.0 -318.0 L 927.0 -320.0 L 945.0 -322.0 L 956.5 -323.5 L 968.0 -325.0 L 980.0 -325.0 L 1019.0 -325.0 L 1050.0 -317.0 L 1081.0 -309.0 L 1103.0 -297.0 L 1111.0 -293.0 L 1119.0 -285.5 L 1127.0 -278.0 Z" fill="black" fill-opacity="0.25" stroke="black" stroke-width="4.0"/>
  <rect x="77.0" y="-529.0" width="711.0000000000001" height="274.0" fill="none" stroke="red" stroke-width="10.0" /><rect x="65.0" y="-1020.0" width="1106.0" height="462.99999999999994" fill="none" stroke="red" stroke-width="10.0" /><rect x="110.0" y="-1360.0" width="1107.0" height="462.00000000000006" fill="none" stroke="red" stroke-width="10.0" /><rect x="24.0" y="-325.0" width="1127.0" height="294.00000000000006" fill="none" stroke="red" stroke-width="10.0" />
</svg>
