<svg xmlns="http://www.w3.org/2000/svg"
  viewBox="2.0 -1082.0 1506.5 958.0">
  <rect x="2.0" y="-1082.0" width="1506.5" height="958.0" fill="white"/>
  <path d="M 52.0 -434.0 L 52.0 -454.0 L 75.0 -460.0 L 100.0 -468.0 L 154.0 -466.0 L 175.0 -466.0 L 205.0 -466.0 L 235.0 -466.0 L 266.5 -463.0 L 298.0 -460.0 L 326.5 -455.0 L 355.0 -450.0 L 374.0 -442.0 L 376.0 -440.0 L 376.5 -438.0 L 377.0 -436.0 L 378.0 -434.0 L 379.0 -432.0 L 380.0 -430.0 L 372.0 -422.0 L 366.0 -422.0 L 359.0 -423.0 L 352.0 -424.0 L 342.0 -424.0 L 330.0 -424.0 L 320.0 -424.0 L 310.0 -424.0 L 299.0 -422.0 L 295.0 -422.0 L 291.5 -421.0 L 288.0 -420.0 L 288.0 -414.0 L 288.0 -398.0 L 317.0 -368.0 L 342.0 -344.0 L 378.5 -323.0 L 415.0 -302.0 L 458.0 -286.0 L 501.0 -270.0 L 547.5 -258.0 L 594.0 -246.0 L 639.5 -238.0 L 685.0 -230.0 L 727.0 -226.0 L 769.0 -222.0 L 802.0 -222.0 L 820.0 -222.0 L 841.5 -223.0 L 863.0 -224.0 L 885.5 -228.0 L 908.0 -232.0 L 929.0 -239.0 L 950.0 -246.0 L 966.5 -258.0 L 983.0 -270.0 L 993.0 -287.0 L 1003.0 -304.0 L 1003.0 -328.0 L 1000.0 -354.0 L 992.0 -396.0 L 906.0 -440.0 L 903.0 -444.0 L 901.5 -448.0 L 900.0 -452.0 L 897.0 -456.0 L 910.0 -460.0 L 924.0 -461.0 L 938.0 -462.0 L 955.0 -464.0 L 972.0 -466.0 L 984.0 -467.0 L 996.0 -468.0 L 1008.0 -468.0 L 1048.0 -468.0 L 1078.0 -461.0 L 1108.0 -454.0 L 1131.0 -440.0 L 1139.0 -436.0 L 1147.0 -429.0 L 1155.0 -422.0 L 1163.0 -414.0 L 1179.0 -376.0 L 1178.0 -344.0 L 1178.0 -306.0 L 1159.5 -278.0 L 1141.0 -250.0 L 1111.0 -232.0 L 1081.0 -214.0 L 1042.0 -202.0 L 1003.0 -190.0 L 964.0 -184.0 L 925.0 -178.0 L 888.0 -176.0 L 851.0 -174.0 L 824.0 -174.0 L 753.0 -174.0 L 675.5 -183.0 L 598.0 -192.0 L 510.0 -210.0 L 442.0 -224.0 L 370.0 -249.0 L 298.0 -274.0 L 219.0 -310.0 L 52.0 -388.0 Z M 814.0 -576.0 L 814.0 -576.0 L 816.0 -576.0 L 817.0 -576.0 L 820.0 -578.0 L 822.0 -580.0 L 818.0 -586.0 L 814.0 -590.0 L 820.0 -592.0 L 866.0 -610.0 L 906.5 -623.0 L 947.0 -636.0 L 981.0 -647.0 L 1015.0 -658.0 L 1042.5 -668.0 L 1070.0 -678.0 L 1091.0 -690.0 L 1170.0 -732.0 L 1216.0 -804.0 L 1223.0 -816.0 L 1230.5 -833.0 L 1238.0 -850.0 L 1246.5 -874.0 L 1255.0 -898.0 L 1266.5 -927.0 L 1278.0 -956.0 L 1294.0 -990.0 L 1295.0 -994.0 L 1298.5 -995.0 L 1302.0 -996.0 L 1306.0 -997.0 L 1310.0 -998.0 L 1314.5 -998.0 L 1319.0 -998.0 L 1324.0 -1002.0 L 1336.0 -1008.0 L 1343.5 -1012.0 L 1351.0 -1016.0 L 1355.0 -1018.0 L 1367.0 -1024.0 L 1376.0 -1027.0 L 1385.0 -1030.0 L 1388.0 -1032.0 L 1401.0 -1032.0 L 1406.0 -1032.0 L 1411.5 -1031.0 L 1417.0 -1030.0 L 1422.0 -1028.0 L 1426.0 -1028.0 L 1430.5 -1027.0 L 1435.0 -1026.0 L 1440.0 -1025.0 L 1445.0 -1024.0 L 1449.5 -1023.0 L 1454.0 -1022.0 L 1458.0 -1018.0 L 1459.0 -1016.0 L 1458.0 -1014.0 L 1457.0 -1012.0 L 1454.0 -1011.0 L 1451.0 -1010.0 L 1448.0 -1009.0 L 1445.0 -1008.0 L 1444.0 -1006.0 L 1406.0 -980.0 L 1403.0 -974.0 L 1395.0 -940.0 L 1388.0 -916.0 L 1381.0 -892.0 L 1374.0 -872.0 L 1372.0 -866.0 L 1367.0 -858.0 L 1362.0 -850.0 L 1356.5 -841.0 L 1351.0 -832.0 L 1345.0 -823.0 L 1339.0 -814.0 L 1335.0 -808.0 L 1335.0 -808.0 L 1337.0 -810.0 L 1339.0 -810.0 L 1334.0 -804.0 L 1331.0 -800.0 L 1331.0 -800.0 L 1335.0 -808.0 L 1331.0 -806.0 L 1321.0 -800.0 L 1311.0 -794.0 L 1297.0 -783.0 L 1283.0 -772.0 L 1267.0 -760.0 L 1251.0 -748.0 L 1235.0 -734.0 L 1219.0 -722.0 L 1206.5 -712.0 L 1194.0 -702.0 L 1183.0 -694.0 L 1161.0 -676.0 L 1153.0 -666.0 L 1153.0 -666.0 L 1152.0 -664.0 L 1152.0 -664.0 L 1151.0 -664.0 L 1132.0 -654.0 L 1113.0 -646.0 L 1094.0 -638.0 L 1075.0 -630.0 L 1045.0 -618.0 L 1027.0 -616.0 L 1018.0 -614.0 L 1004.0 -614.0 L 990.0 -614.0 L 978.5 -613.0 L 967.0 -612.0 L 961.5 -612.0 L 956.0 -612.0 L 963.0 -608.0 L 971.0 -606.0 L 979.0 -605.0 L 987.0 -604.0 L 996.0 -604.0 L 1008.0 -604.0 L 1020.5 -605.0 L 1033.0 -606.0 L 1045.0 -606.0 L 1070.0 -606.0 L 1093.5 -598.0 L 1117.0 -590.0 L 1138.0 -576.0 L 1156.0 -562.0 L 1156.0 -556.0 L 1159.0 -548.0 L 1146.0 -548.0 L 1133.0 -548.0 L 1121.5 -549.0 L 1110.0 -550.0 L 1097.0 -554.0 L 1079.0 -556.0 L 1056.5 -559.0 L 1034.0 -562.0 L 1008.0 -566.0 L 981.0 -570.0 L 958.5 -572.0 L 936.0 -574.0 L 914.0 -574.0 L 910.0 -574.0 L 906.0 -574.0 L 902.0 -574.0 L 898.0 -574.0 L 884.0 -574.0 L 870.0 -574.0 L 856.0 -574.0 L 842.0 -572.0 L 839.0 -570.0 L 834.5 -569.0 L 830.0 -568.0 L 822.0 -568.0 L 817.0 -568.0 Z M 458.0 -762.0 L 458.0 -768.0 L 472.0 -768.0 L 476.0 -768.0 L 483.0 -768.0 L 493.5 -767.0 L 504.0 -766.0 L 518.0 -762.0 L 533.0 -760.0 L 541.5 -759.0 L 550.0 -758.0 L 557.0 -756.0 L 620.0 -746.0 L 638.0 -660.0 L 649.0 -608.0 L 659.0 -592.0 L 664.0 -584.0 L 685.0 -578.0 L 703.0 -574.0 L 702.0 -574.0 L 702.0 -570.0 L 701.5 -571.0 L 701.0 -572.0 L 698.0 -566.0 L 691.0 -552.0 L 652.0 -552.0 L 633.0 -552.0 L 611.5 -557.0 L 590.0 -562.0 L 563.0 -572.0 L 512.0 -592.0 L 495.0 -706.0 L 488.0 -752.0 L 475.0 -752.0 L 475.0 -752.0 L 474.0 -752.0 L 473.0 -752.0 L 473.0 -752.0 L 472.0 -752.0 L 467.0 -752.0 L 457.0 -752.0 Z" fill="black" fill-opacity="0.25" stroke="black" stroke-width="4.0"/>
  <rect x="52.0" y="-468.0" width="1127.0" height="294.00000000000006" fill="none" stroke="red" stroke-width="10.0" /><rect x="457.0" y="-768.0" width="245.99999999999994" height="215.99999999999997" fill="none" stroke="red" stroke-width="10.0" /><rect x="814.0" y="-709.3000000000001" width="389.2000000000001" height="161.3" fill="none" stroke="red" stroke-width="10.0" /><rect x="1127.3999999999999" y="-870.7" width="246.2" height="161.39999999999998" fill="none" stroke="red" stroke-width="10.0" /><rect x="1245.3000000000002" y="-1032.0" width="213.7" height="161.3" fill="none" stroke="red" stroke-width="10.0" />
</svg>
