<svg xmlns="http://www.w3.org/2000/svg"
  viewBox="-382 -918 1947 829">
  <rect x="-382" y="-918" width="1947" height="829" fill="white"/>
  <path d="M 370 -746 L 370 -774 L 384 -794 L 398 -814 L 420 -827.5 L 442 -841 L 469.5 -849 L 497 -857 L 525.5 -861 L 554 -865 L 580.5 -866.5 L 607 -868 L 627 -868 L 687 -868 L 744 -862.5 L 801 -857 L 858 -847 L 915 -837 L 971 -823 L 1027 -809 L 1084 -793 L 1201 -760 L 1350 -662 L 1496 -566 L 1495 -524 L 1495 -505 L 1459 -505 L 1412 -505 L 1362 -511.5 L 1312 -518 L 1266 -529 L 1277 -633 L 1102 -716 L 934 -796 L 762 -796 L 745 -796 L 724.5 -794.5 L 704 -793 L 682.5 -789 L 661 -785 L 640.5 -778 L 620 -771 L 603.5 -759.5 L 587 -748 L 577 -731.5 L 567 -715 L 566 -693 L 565 -662 L 611 -625 L 671 -579 L 675 -579 L 536 -580 L 466 -608 L 419 -628 L 387 -677 L 370 -717 Z M 1499 -378 L 1515 -342 L 1515 -308 L 1515 -224 L 1418 -181 L 1319 -139 L 1161 -139 L 1022 -139 L 847 -175 L 712 -203 L 556 -275 L 389 -352 L 389 -398 L 389 -416 L 412 -423 L 440 -431 L 499 -431 L 532 -431 L 564.5 -430 L 597 -429 L 628 -425 L 687 -418 L 710 -406 L 716 -395 L 717 -395 L 709 -386 L 703 -387 L 695.5 -388 L 688 -389 L 679 -389 L 667 -389 L 656.5 -388 L 646 -387 L 636 -386 L 625 -387 L 624 -378 L 624 -362 L 654 -332 L 671 -315 L 691.5 -301 L 712 -287 L 737 -275 L 780 -254 L 828 -239 L 876 -224 L 931 -211 L 1037 -186 L 1139 -185 L 1236 -185 L 1286 -211 L 1341 -238 L 1340 -292 L 1337 -318 L 1329 -360 L 1243 -405 L 1240 -409 L 1238.5 -412 L 1237 -415 L 1234 -420 L 1247 -423 L 1260.5 -424.5 L 1274 -426 L 1292 -428 L 1309 -430 L 1321 -431.5 L 1333 -433 L 1345 -433 L 1384 -433 L 1414.5 -425 L 1445 -417 L 1468 -405 L 1476 -401 L 1483.5 -393.5 L 1491 -386 Z M -277 -813 L -228 -817 L -123 -818 L -51 -818 L 27 -803 L 54 -798 L 77.5 -791.5 L 101 -785 L 123 -776 L 171 -765 L 210 -748 L 249 -731 L 276 -710 L 336 -665 L 335 -613 L 335 -587 L 321 -566 L 316 -559 L 289 -559 L 254 -558 L 178 -573 L 165 -575 L 148 -578.5 L 131 -582 L 109 -587 L 136 -603 L 149 -621 L 157 -632 L 159.5 -640.5 L 162 -649 L 160 -657 L 148 -683 L 105 -707.5 L 62 -732 L -13 -748 L -93 -765 L -172.5 -774.5 L -252 -784 L -332 -798 Z" fill="black" fill-opacity="0.25" stroke="black" stroke-width="4"/>
  <rect x="370" y="-868" width="1126" height="363" fill="none" stroke="red" stroke-width="10" /><rect x="389" y="-433" width="1126" height="294" fill="none" stroke="red" stroke-width="10" /><rect x="-332" y="-818" width="668" height="260" fill="none" stroke="red" stroke-width="10" />
</svg>
