<svg xmlns="http://www.w3.org/2000/svg"
  viewBox="-11.0 -930.0 1345.0 760.0227272727273">
  <rect x="-11.0" y="-930.0" width="1345.0" height="760.0227272727273" fill="white"/>
  <path d="M 1268.0 -459.0 L 1284.0 -423.0 L 1284.0 -388.0 L 1284.0 -304.0 L 1187.0 -262.0 L 1088.0 -219.0 L 929.0 -220.0 L 790.0 -220.0 L 615.0 -256.0 L 480.0 -284.0 L 324.0 -356.0 L 157.0 -434.0 L 157.0 -479.0 L 157.0 -497.0 L 181.0 -504.0 L 209.0 -512.0 L 268.0 -512.0 L 301.0 -512.0 L 333.0 -511.0 L 365.0 -510.0 L 396.0 -506.0 L 455.0 -499.0 L 479.0 -487.0 L 485.0 -476.0 L 485.0 -476.0 L 477.0 -467.0 L 471.0 -468.0 L 464.0 -469.0 L 457.0 -470.0 L 448.0 -470.0 L 436.0 -470.0 L 425.5 -469.0 L 415.0 -468.0 L 404.0 -467.0 L 393.0 -468.0 L 393.0 -459.0 L 393.0 -443.0 L 423.0 -413.0 L 440.0 -396.0 L 460.0 -382.0 L 480.0 -368.0 L 506.0 -356.0 L 549.0 -335.0 L 596.5 -320.0 L 644.0 -305.0 L 699.0 -292.0 L 805.0 -267.0 L 907.0 -266.0 L 1004.0 -266.0 L 1054.0 -292.0 L 1109.0 -319.0 L 1109.0 -373.0 L 1105.0 -399.0 L 1097.0 -441.0 L 1012.0 -486.0 L 1009.0 -490.0 L 1007.5 -493.0 L 1006.0 -496.0 L 1002.0 -501.0 L 1015.0 -504.0 L 1029.0 -505.5 L 1043.0 -507.0 L 1060.0 -509.0 L 1077.0 -511.0 L 1089.0 -512.0 L 1101.0 -513.0 L 1113.0 -513.0 L 1152.0 -513.0 L 1183.0 -505.5 L 1214.0 -498.0 L 1237.0 -486.0 L 1245.0 -482.0 L 1252.5 -474.5 L 1260.0 -467.0 Z M 117.0 -876.0 L 125.0 -879.0 L 136.0 -879.5 L 147.0 -880.0 L 163.0 -880.0 L 211.0 -880.0 L 261.5 -866.5 L 312.0 -853.0 L 365.0 -824.0 L 434.0 -765.0 L 424.0 -765.0 L 405.5 -767.0 L 387.0 -769.0 L 358.0 -772.0 L 330.0 -775.0 L 309.0 -776.5 L 288.0 -778.0 L 276.0 -778.0 L 250.0 -778.0 L 228.0 -770.0 L 211.0 -763.0 L 211.0 -747.0 L 211.0 -739.0 L 217.0 -728.0 L 224.0 -714.0 L 228.0 -704.0 L 232.0 -694.0 L 238.0 -692.0 L 253.0 -686.0 L 266.5 -682.5 L 280.0 -679.0 L 295.0 -677.0 L 341.0 -666.0 L 349.0 -664.0 L 364.5 -663.0 L 380.0 -662.0 L 404.0 -662.0 L 479.0 -670.0 L 550.0 -677.5 L 621.0 -685.0 L 689.0 -692.0 L 824.0 -706.0 L 976.0 -706.0 L 1077.0 -706.0 L 1224.0 -611.0 L 1257.0 -569.0 L 1237.0 -574.0 L 1178.0 -584.0 L 1089.0 -594.0 L 1007.0 -604.0 L 934.0 -603.0 L 891.0 -600.0 L 869.0 -599.0 L 836.0 -598.0 L 803.0 -597.0 L 760.0 -594.0 L 743.0 -593.0 L 715.5 -592.5 L 688.0 -592.0 L 649.0 -592.0 L 619.0 -592.0 L 587.5 -593.0 L 556.0 -594.0 L 522.0 -595.0 L 455.0 -598.0 L 371.0 -609.0 L 313.0 -616.0 L 258.5 -639.0 L 204.0 -662.0 L 147.0 -697.0 L 39.0 -764.0 L 39.0 -822.0 L 39.0 -862.0 Z" fill="black" fill-opacity="0.25" stroke="black" stroke-width="4.0"/>
  <rect x="157.0" y="-513.0" width="1127.0" height="294.00000000000006" fill="none" stroke="red" stroke-width="10.0" /><rect x="39.0" y="-880.0" width="1218.0" height="311.00000000000006" fill="none" stroke="red" stroke-width="10.0" />
</svg>
