<svg xmlns="http://www.w3.org/2000/svg"
  viewBox="-33 -694 1226 591">
  <rect x="-33" y="-694" width="1226" height="591" fill="white"/>
  <path d="M 1127 -392 L 1143 -356 L 1143 -321 L 1143 -236 L 1046 -195 L 947 -153 L 789 -153 L 650 -153 L 475 -189 L 340 -216 L 184 -289 L 17 -367 L 17 -412 L 17 -431 L 40 -437 L 68 -445 L 127 -445 L 160 -445 L 192.5 -443.5 L 225 -442 L 256 -439 L 315 -432 L 338 -420 L 344 -409 L 345 -409 L 337 -399 L 331 -401 L 323.5 -402 L 316 -403 L 307 -403 L 295 -403 L 284.5 -402 L 274 -401 L 264 -399 L 253 -401 L 252 -392 L 252 -377 L 282 -347 L 300 -329 L 319.5 -315 L 339 -301 L 365 -289 L 408 -268 L 456 -252.5 L 504 -237 L 559 -225 L 665 -200 L 767 -200 L 864 -200 L 914 -225 L 969 -252 L 968 -306 L 965 -333 L 957 -375 L 871 -419 L 868 -423 L 866.5 -426 L 865 -429 L 862 -434 L 875 -437 L 888.5 -438.5 L 902 -440 L 920 -442 L 937 -444 L 948.5 -445 L 960 -446 L 973 -446 L 1012 -446 L 1042.5 -438.5 L 1073 -431 L 1096 -419 L 1104 -415 L 1111.5 -407.5 L 1119 -400 Z M 742 -407 L 731 -393 L 708 -386 L 685 -380 L 654 -380 L 633 -380 L 613.5 -382.5 L 594 -385 L 572 -388 L 550 -391 L 536.5 -395.5 L 523 -400 L 516 -403 L 470 -422 L 438 -437 L 436 -442 L 434 -445 L 439 -449 L 440 -450 L 451 -450 L 459 -450 L 468 -450 L 477 -450 L 489 -447 L 555 -438 L 567 -438 L 586 -438 L 594 -446 L 600 -452 L 600 -463 L 600 -480 L 573 -525 L 547 -570 L 547 -594 L 546 -615 L 562 -630 L 568 -636 L 597 -641 L 610 -643 L 624.5 -643.5 L 639 -644 L 654 -644 L 672 -644 L 690 -644 L 708 -644 L 727 -641 L 763 -636 L 764 -635 L 774 -618 L 773 -608 L 773 -594 L 754 -594 L 745 -594 L 727 -599 L 708 -604 L 700 -604 L 694 -604 L 693 -599 L 693 -580 L 727 -528 L 760 -477 L 759 -449 L 759 -428 Z" fill="black" fill-opacity="0.25" stroke="black" stroke-width="4"/>
  <rect x="17" y="-446" width="1126" height="293" fill="none" stroke="red" stroke-width="10" /><rect x="434" y="-644" width="340" height="264" fill="none" stroke="red" stroke-width="10" />
</svg>
