<svg xmlns="http://www.w3.org/2000/svg"
  viewBox="8.0 -789.0 1227.0 660.0">
  <rect x="8.0" y="-789.0" width="1227.0" height="660.0" fill="white"/>
  <path d="M 1169.0 -418.0 L 1185.0 -382.0 L 1185.0 -348.0 L 1185.0 -264.0 L 1088.0 -222.0 L 989.0 -180.0 L 830.0 -179.0 L 691.0 -179.0 L 516.0 -215.0 L 381.0 -243.0 L 225.0 -315.0 L 58.0 -392.0 L 58.0 -439.0 L 58.0 -457.0 L 82.0 -464.0 L 110.0 -472.0 L 169.0 -472.0 L 202.0 -472.0 L 234.0 -470.5 L 266.0 -469.0 L 297.0 -465.0 L 356.0 -458.0 L 380.0 -447.0 L 386.0 -436.0 L 386.0 -435.0 L 378.0 -426.0 L 372.0 -427.0 L 365.0 -428.5 L 358.0 -430.0 L 349.0 -430.0 L 337.0 -430.0 L 326.5 -429.0 L 316.0 -428.0 L 305.0 -426.0 L 294.0 -427.0 L 294.0 -418.0 L 294.0 -402.0 L 324.0 -373.0 L 341.0 -356.0 L 361.0 -342.0 L 381.0 -328.0 L 407.0 -315.0 L 450.0 -294.0 L 497.5 -279.5 L 545.0 -265.0 L 600.0 -251.0 L 706.0 -226.0 L 808.0 -226.0 L 904.0 -226.0 L 955.0 -251.0 L 1009.0 -278.0 L 1010.0 -332.0 L 1006.0 -359.0 L 998.0 -401.0 L 913.0 -445.0 L 910.0 -449.0 L 908.5 -452.5 L 907.0 -456.0 L 903.0 -461.0 L 916.0 -464.0 L 930.0 -465.0 L 944.0 -466.0 L 961.0 -469.0 L 978.0 -471.0 L 990.0 -472.0 L 1002.0 -473.0 L 1014.0 -473.0 L 1053.0 -473.0 L 1083.5 -465.5 L 1114.0 -458.0 L 1138.0 -445.0 L 1146.0 -441.0 L 1153.5 -433.5 L 1161.0 -426.0 Z M 474.0 -734.0 L 478.0 -739.0 L 497.0 -739.0 L 519.0 -739.0 L 555.0 -734.0 L 602.0 -726.0 L 678.0 -714.0 L 696.0 -614.0 L 707.0 -552.0 L 721.0 -536.0 L 735.0 -520.0 L 752.0 -517.0 L 773.0 -515.0 L 772.0 -514.0 L 772.0 -510.0 L 766.0 -503.0 L 750.0 -487.0 L 713.0 -487.0 L 691.0 -487.0 L 665.5 -492.0 L 640.0 -497.0 L 608.0 -509.0 L 551.0 -530.0 L 529.0 -662.0 L 520.0 -718.0 L 494.0 -718.0 L 479.0 -718.0 L 470.0 -718.0 L 468.0 -720.0 L 465.0 -722.0 Z" fill="black" fill-opacity="0.25" stroke="black" stroke-width="4.0"/>
  <rect x="58.0" y="-473.0" width="1127.0" height="294.0" fill="none" stroke="red" stroke-width="10.0" /><rect x="465.0" y="-739.0" width="308.0" height="252.0" fill="none" stroke="red" stroke-width="10.0" />
</svg>
