<svg xmlns="http://www.w3.org/2000/svg"
  viewBox="2.0 -1330.0 1226.0588235294117 1208.0">
  <rect x="2.0" y="-1330.0" width="1226.0588235294117" height="1208.0" fill="white"/>
  <path d="M 52.0 -432.0 L 52.0 -451.0 L 75.0 -457.0 L 100.0 -465.0 L 154.0 -464.0 L 175.0 -464.0 L 205.0 -463.5 L 235.0 -463.0 L 266.5 -460.5 L 298.0 -458.0 L 326.5 -453.0 L 355.0 -448.0 L 374.0 -440.0 L 376.0 -438.0 L 376.5 -435.5 L 377.0 -433.0 L 378.0 -431.0 L 379.0 -429.0 L 380.0 -428.0 L 372.0 -419.0 L 366.0 -420.0 L 359.0 -421.0 L 352.0 -422.0 L 342.0 -422.0 L 330.0 -422.0 L 320.0 -421.5 L 310.0 -421.0 L 299.0 -419.0 L 295.0 -419.0 L 291.5 -418.0 L 288.0 -417.0 L 288.0 -411.0 L 288.0 -395.0 L 317.0 -366.0 L 342.0 -341.0 L 378.5 -320.0 L 415.0 -299.0 L 458.0 -283.0 L 501.0 -267.0 L 547.5 -255.0 L 594.0 -243.0 L 639.5 -235.0 L 685.0 -227.0 L 727.0 -223.0 L 769.0 -219.0 L 802.0 -219.0 L 820.0 -219.0 L 841.5 -220.0 L 863.0 -221.0 L 885.5 -225.0 L 908.0 -229.0 L 929.0 -236.0 L 950.0 -243.0 L 966.5 -255.0 L 983.0 -267.0 L 993.0 -284.0 L 1003.0 -301.0 L 1003.0 -325.0 L 1000.0 -352.0 L 992.0 -394.0 L 906.0 -438.0 L 903.0 -442.0 L 901.5 -445.5 L 900.0 -449.0 L 897.0 -454.0 L 910.0 -457.0 L 924.0 -458.0 L 938.0 -459.0 L 955.0 -462.0 L 972.0 -464.0 L 984.0 -465.0 L 996.0 -466.0 L 1008.0 -466.0 L 1048.0 -466.0 L 1078.0 -458.5 L 1108.0 -451.0 L 1131.0 -438.0 L 1139.0 -434.0 L 1147.0 -426.5 L 1155.0 -419.0 L 1163.0 -411.0 L 1179.0 -374.0 L 1178.0 -341.0 L 1178.0 -303.0 L 1159.5 -275.5 L 1141.0 -248.0 L 1111.0 -229.5 L 1081.0 -211.0 L 1042.0 -199.5 L 1003.0 -188.0 L 964.0 -182.0 L 925.0 -176.0 L 888.0 -174.0 L 851.0 -172.0 L 824.0 -172.0 L 753.0 -172.0 L 675.5 -181.0 L 598.0 -190.0 L 510.0 -208.0 L 442.0 -222.0 L 370.0 -247.0 L 298.0 -272.0 L 219.0 -308.0 L 52.0 -386.0 Z M 339.0 -824.0 L 339.0 -825.0 L 341.0 -825.0 L 342.0 -825.0 L 345.0 -827.0 L 347.0 -828.0 L 343.0 -834.0 L 339.0 -839.0 L 345.0 -841.0 L 391.0 -858.0 L 431.5 -871.0 L 472.0 -884.0 L 506.0 -895.5 L 540.0 -907.0 L 567.5 -917.0 L 595.0 -927.0 L 616.0 -938.0 L 696.0 -979.0 L 741.0 -1052.0 L 748.0 -1064.0 L 755.5 -1081.5 L 763.0 -1099.0 L 771.5 -1122.5 L 780.0 -1146.0 L 791.5 -1175.0 L 803.0 -1204.0 L 819.0 -1239.0 L 820.0 -1242.0 L 823.5 -1243.5 L 827.0 -1245.0 L 831.0 -1245.5 L 835.0 -1246.0 L 840.0 -1247.0 L 845.0 -1248.0 L 849.0 -1250.0 L 861.0 -1257.0 L 868.5 -1261.0 L 876.0 -1265.0 L 880.0 -1267.0 L 892.0 -1273.0 L 901.0 -1275.5 L 910.0 -1278.0 L 913.0 -1280.0 L 926.0 -1280.0 L 931.0 -1280.0 L 936.0 -1279.5 L 941.0 -1279.0 L 947.0 -1277.0 L 951.0 -1276.0 L 955.5 -1275.5 L 960.0 -1275.0 L 965.0 -1274.0 L 970.0 -1273.0 L 974.5 -1271.5 L 979.0 -1270.0 L 983.0 -1266.0 L 984.0 -1265.0 L 983.0 -1263.0 L 982.0 -1261.0 L 979.5 -1260.0 L 977.0 -1259.0 L 974.0 -1257.5 L 971.0 -1256.0 L 969.0 -1255.0 L 932.0 -1229.0 L 928.0 -1222.0 L 920.0 -1188.0 L 913.0 -1164.0 L 906.0 -1140.0 L 898.0 -1121.0 L 896.0 -1115.0 L 891.5 -1106.5 L 887.0 -1098.0 L 881.0 -1089.0 L 875.0 -1080.0 L 869.5 -1071.5 L 864.0 -1063.0 L 860.0 -1057.0 L 860.0 -1057.0 L 862.0 -1058.0 L 864.0 -1058.0 L 859.0 -1053.0 L 855.0 -1049.0 L 855.0 -1049.0 L 860.0 -1057.0 L 856.0 -1055.0 L 845.5 -1048.5 L 835.0 -1042.0 L 821.5 -1031.5 L 808.0 -1021.0 L 792.0 -1008.5 L 776.0 -996.0 L 760.0 -983.0 L 744.0 -971.0 L 731.5 -960.5 L 719.0 -950.0 L 708.0 -942.0 L 697.0 -933.0 L 689.5 -926.0 L 682.0 -919.0 L 678.0 -915.0 L 678.0 -914.0 L 676.0 -913.0 L 676.0 -913.0 L 676.0 -912.0 L 682.0 -914.0 L 686.5 -916.5 L 691.0 -919.0 L 695.0 -921.0 L 700.0 -924.0 L 701.0 -923.0 L 701.0 -923.0 L 698.0 -922.0 L 697.0 -921.0 L 693.5 -919.0 L 690.0 -917.0 L 687.0 -915.5 L 684.0 -914.0 L 681.0 -912.5 L 678.0 -911.0 L 677.0 -911.0 L 676.0 -911.0 L 676.0 -912.0 L 664.0 -906.0 L 648.0 -898.5 L 632.0 -891.0 L 615.0 -884.5 L 598.0 -878.0 L 581.5 -872.5 L 565.0 -867.0 L 552.0 -864.0 L 543.0 -863.0 L 529.0 -862.5 L 515.0 -862.0 L 503.5 -861.5 L 492.0 -861.0 L 486.5 -860.0 L 481.0 -859.0 L 488.0 -857.0 L 496.0 -854.0 L 504.5 -853.0 L 513.0 -852.0 L 521.0 -852.0 L 533.0 -852.0 L 545.5 -853.0 L 558.0 -854.0 L 570.0 -854.0 L 595.0 -854.0 L 618.5 -846.5 L 642.0 -839.0 L 663.0 -824.0 L 681.0 -810.0 L 681.0 -805.0 L 684.0 -797.0 L 670.0 -797.0 L 657.0 -797.0 L 646.0 -798.0 L 635.0 -799.0 L 622.0 -802.0 L 604.0 -805.0 L 581.5 -807.5 L 559.0 -810.0 L 533.0 -814.0 L 506.0 -818.0 L 483.5 -820.0 L 461.0 -822.0 L 439.0 -822.0 L 435.0 -823.0 L 431.0 -823.0 L 427.0 -823.0 L 423.0 -823.0 L 409.0 -823.0 L 395.0 -822.5 L 381.0 -822.0 L 367.0 -820.0 L 364.0 -819.0 L 359.5 -817.5 L 355.0 -816.0 L 347.0 -816.0 L 342.0 -816.0 Z M 476.0 -705.0 L 476.0 -710.0 L 489.0 -710.0 L 493.0 -710.0 L 500.0 -710.0 L 510.5 -709.0 L 521.0 -708.0 L 535.0 -705.0 L 550.0 -703.0 L 558.5 -701.5 L 567.0 -700.0 L 574.0 -699.0 L 637.0 -689.0 L 655.0 -602.0 L 666.0 -551.0 L 676.0 -535.0 L 681.0 -526.0 L 702.0 -521.0 L 720.0 -517.0 L 719.0 -516.0 L 719.0 -513.0 L 718.5 -513.5 L 718.0 -514.0 L 715.0 -508.0 L 708.0 -494.0 L 669.0 -494.0 L 650.0 -494.0 L 628.5 -499.5 L 607.0 -505.0 L 581.0 -515.0 L 530.0 -534.0 L 512.0 -648.0 L 505.0 -695.0 L 492.0 -695.0 L 492.0 -695.0 L 491.0 -694.5 L 490.0 -694.0 L 490.0 -694.0 L 489.0 -694.0 L 484.0 -694.0 L 475.0 -694.0 Z" fill="black" fill-opacity="0.25" stroke="black" stroke-width="4.0"/>
  <rect x="52.0" y="-466.0" width="1127.0" height="294.00000000000006" fill="none" stroke="red" stroke-width="10.0" /><rect x="339.0" y="-1280.0" width="645.0" height="483.0" fill="none" stroke="red" stroke-width="10.0" /><rect x="475.0" y="-710.0" width="245.0" height="215.99999999999997" fill="none" stroke="red" stroke-width="10.0" />
</svg>
