<svg xmlns="http://www.w3.org/2000/svg"
  viewBox="28 -712 1227 599">
  <rect x="28" y="-712" width="1227" height="599" fill="white"/>
  <path d="M 1189 -403 L 1205 -367 L 1205 -332 L 1205 -248 L 1108 -206 L 1009 -164 L 850 -163 L 711 -163 L 536 -200 L 402 -227 L 245 -300 L 78 -378 L 78 -423 L 78 -442 L 102 -448 L 130 -456 L 189 -456 L 222 -456 L 254 -454.5 L 286 -453 L 317 -450 L 377 -443 L 400 -430 L 406 -419 L 406 -420 L 398 -410 L 392 -411 L 385 -412 L 378 -413 L 369 -413 L 356 -413 L 346 -412.5 L 336 -412 L 325 -410 L 314 -411 L 314 -403 L 314 -387 L 344 -357 L 361 -340 L 381 -325.5 L 401 -311 L 426 -300 L 470 -279 L 517.5 -263.5 L 565 -248 L 620 -235 L 726 -210 L 828 -210 L 925 -210 L 975 -235 L 1030 -262 L 1030 -317 L 1026 -343 L 1018 -385 L 933 -429 L 930 -434 L 928 -437 L 926 -440 L 923 -445 L 936 -448 L 950 -449.5 L 964 -451 L 981 -452 L 999 -454 L 1010.5 -455.5 L 1022 -457 L 1034 -457 L 1073 -457 L 1103.5 -449.5 L 1134 -442 L 1158 -429 L 1166 -425 L 1173.5 -418 L 1181 -411 Z M 189 -657 L 241 -662 L 354 -662 L 390 -662 L 429.5 -658.5 L 469 -655 L 512 -645 L 539 -639 L 564.5 -632.5 L 590 -626 L 616 -618 L 714 -593 L 778 -546 L 841 -499 L 842 -446 L 842 -416 L 827 -396 L 821 -388 L 792 -389 L 751 -389 L 673 -404 L 660 -406 L 642 -409 L 624 -412 L 600 -418 L 625 -429 L 642 -454 L 658 -478 L 653 -492 L 641 -521 L 595.5 -546 L 550 -571 L 470 -587 L 386 -604 L 300.5 -615 L 215 -626 L 131 -639 Z" fill="black" fill-opacity="0.25" stroke="black" stroke-width="4"/>
  <rect x="78" y="-457" width="1127" height="294" fill="none" stroke="red" stroke-width="10" /><rect x="131" y="-662" width="711" height="274" fill="none" stroke="red" stroke-width="10" />
</svg>
