<svg xmlns="http://www.w3.org/2000/svg"
  viewBox="-195.0 -1356.0 1958.9 1262.0">
  <rect x="-195.0" y="-1356.0" width="1958.9" height="1262.0" fill="white"/>
  <path d="M 61.0 -408.0 L 61.0 -429.0 L 89.0 -435.0 L 114.0 -441.0 L 140.0 -442.0 L 166.0 -443.0 L 192.0 -443.0 L 231.0 -442.0 L 269.0 -440.5 L 307.0 -439.0 L 346.0 -436.0 L 358.0 -435.0 L 370.5 -433.5 L 383.0 -432.0 L 396.0 -429.5 L 409.0 -427.0 L 421.5 -424.0 L 434.0 -421.0 L 444.0 -416.0 L 452.0 -407.0 L 452.0 -405.0 L 442.0 -396.0 L 433.0 -398.0 L 424.5 -398.5 L 416.0 -399.0 L 406.0 -399.0 L 381.0 -399.0 L 355.0 -396.0 L 351.0 -396.0 L 342.0 -396.0 L 342.0 -388.0 L 342.0 -374.0 L 377.0 -341.0 L 404.0 -316.0 L 446.5 -295.5 L 489.0 -275.0 L 539.5 -258.5 L 590.0 -242.0 L 646.0 -230.0 L 702.0 -218.0 L 757.0 -209.5 L 812.0 -201.0 L 862.5 -197.0 L 913.0 -193.0 L 953.0 -193.0 L 971.0 -193.0 L 995.5 -193.5 L 1020.0 -194.0 L 1046.5 -197.5 L 1073.0 -201.0 L 1099.0 -207.5 L 1125.0 -214.0 L 1146.0 -226.5 L 1167.0 -239.0 L 1179.5 -257.0 L 1192.0 -275.0 L 1192.0 -301.0 L 1189.0 -327.0 L 1180.0 -371.0 L 1078.0 -414.0 L 1073.0 -419.0 L 1072.0 -423.0 L 1071.0 -424.0 L 1069.5 -426.0 L 1068.0 -428.0 L 1066.0 -431.0 L 1082.0 -435.0 L 1098.0 -436.0 L 1116.0 -437.0 L 1134.0 -438.5 L 1152.0 -440.0 L 1170.0 -443.0 L 1177.0 -443.0 L 1184.0 -443.5 L 1191.0 -444.0 L 1199.0 -444.0 L 1218.0 -444.0 L 1240.0 -442.0 L 1262.0 -440.0 L 1284.5 -435.5 L 1307.0 -431.0 L 1327.5 -423.0 L 1348.0 -415.0 L 1364.0 -403.0 L 1368.0 -399.0 L 1372.5 -395.5 L 1377.0 -392.0 L 1383.0 -388.0 L 1401.0 -354.0 L 1400.0 -316.0 L 1400.0 -286.0 L 1386.5 -262.5 L 1373.0 -239.0 L 1349.5 -221.0 L 1326.0 -203.0 L 1295.0 -190.5 L 1264.0 -178.0 L 1229.5 -169.5 L 1195.0 -161.0 L 1159.0 -156.0 L 1123.0 -151.0 L 1089.5 -148.5 L 1056.0 -146.0 L 1027.0 -145.0 L 998.0 -144.0 L 978.0 -144.0 L 809.0 -144.0 L 605.0 -180.0 L 516.0 -197.0 L 430.0 -223.0 L 344.0 -249.0 L 260.0 -283.0 L 61.0 -362.0 Z M -137.0 -535.0 L -142.0 -535.0 L -145.0 -543.0 L -145.0 -544.0 L -144.0 -544.0 L -143.0 -544.0 L -139.0 -546.0 L -138.0 -547.0 L -142.0 -552.0 L -146.0 -557.0 L -139.0 -560.0 L -92.0 -577.0 L -52.0 -590.5 L -12.0 -604.0 L 22.0 -615.0 L 58.0 -626.0 L 91.5 -639.0 L 125.0 -652.0 L 154.5 -670.0 L 184.0 -688.0 L 209.5 -712.5 L 235.0 -737.0 L 256.0 -771.0 L 271.0 -794.0 L 287.0 -841.0 L 295.0 -864.0 L 307.0 -893.5 L 319.0 -923.0 L 334.0 -958.0 L 337.0 -964.0 L 347.0 -965.0 L 356.0 -965.0 L 364.0 -969.0 L 377.0 -977.0 L 385.0 -981.0 L 395.0 -986.0 L 408.0 -993.0 L 417.0 -995.0 L 421.0 -996.0 L 423.5 -997.0 L 426.0 -998.0 L 428.0 -999.0 L 432.0 -999.0 L 436.0 -999.0 L 440.0 -999.0 L 445.0 -999.0 L 455.0 -999.0 L 463.0 -996.0 L 471.0 -993.0 L 481.0 -993.0 L 491.0 -993.0 L 498.0 -985.0 L 502.0 -982.0 L 495.0 -979.0 L 488.0 -976.0 L 484.0 -974.0 L 465.0 -961.0 L 455.5 -953.0 L 446.0 -945.0 L 444.0 -941.0 L 438.0 -915.0 L 431.0 -890.0 L 424.0 -865.0 L 414.0 -840.0 L 411.0 -831.0 L 402.0 -816.0 L 398.0 -809.0 L 394.0 -802.5 L 390.0 -796.0 L 386.0 -790.0 L 384.0 -786.0 L 381.0 -783.0 L 378.0 -780.0 L 376.0 -776.0 L 377.0 -776.0 L 377.0 -777.0 L 378.0 -777.0 L 378.0 -777.0 L 378.0 -777.0 L 379.0 -777.0 L 375.0 -772.0 L 371.0 -768.0 L 372.0 -769.0 L 372.0 -769.0 L 372.0 -770.0 L 372.0 -771.0 L 373.0 -771.0 L 374.0 -773.0 L 376.0 -776.0 L 375.0 -776.0 L 373.5 -775.0 L 372.0 -774.0 L 371.0 -773.0 L 333.0 -747.0 L 296.0 -718.5 L 259.0 -690.0 L 224.0 -660.0 L 223.0 -659.0 L 217.5 -655.0 L 212.0 -651.0 L 206.5 -646.0 L 201.0 -641.0 L 196.5 -636.5 L 192.0 -632.0 L 192.0 -631.0 L 197.0 -633.0 L 201.5 -635.0 L 206.0 -637.0 L 210.0 -639.0 L 215.0 -642.0 L 216.0 -642.0 L 216.0 -642.0 L 214.0 -641.0 L 212.0 -640.0 L 206.0 -636.0 L 191.0 -627.0 L 192.0 -631.0 L 180.0 -625.0 L 163.5 -617.5 L 147.0 -610.0 L 130.5 -603.0 L 114.0 -596.0 L 97.0 -591.0 L 80.0 -586.0 L 67.0 -583.0 L 55.0 -581.0 L 43.0 -580.5 L 31.0 -580.0 L 19.0 -580.0 L 13.0 -580.0 L 9.0 -580.0 L 5.0 -580.0 L 2.0 -579.0 L -6.0 -578.0 L 3.0 -575.0 L 12.0 -572.0 L 21.5 -571.0 L 31.0 -570.0 L 40.0 -570.0 L 42.0 -570.0 L 44.5 -570.0 L 47.0 -570.0 L 50.0 -571.0 L 57.0 -572.0 L 64.5 -572.5 L 72.0 -573.0 L 79.0 -573.0 L 107.0 -573.0 L 131.5 -566.0 L 156.0 -559.0 L 178.0 -543.0 L 197.0 -529.0 L 197.0 -524.0 L 200.0 -516.0 L 186.0 -516.0 L 173.0 -516.0 L 161.5 -517.0 L 150.0 -518.0 L 138.0 -521.0 L 121.0 -524.0 L 98.0 -527.0 L 87.0 -528.0 L 74.5 -529.5 L 62.0 -531.0 L 49.0 -533.0 L 26.0 -536.0 L 2.5 -538.5 L -21.0 -541.0 L -45.0 -541.0 L -59.0 -542.0 L -70.0 -542.0 L -94.0 -542.0 L -117.0 -539.0 L -122.0 -537.0 L -127.0 -536.0 L -132.0 -535.0 Z M 1077.0 -566.0 L 1073.0 -566.0 L 1069.0 -574.0 L 1069.0 -575.0 L 1070.0 -575.0 L 1072.0 -575.0 L 1075.0 -577.0 L 1076.0 -578.0 L 1073.0 -584.0 L 1069.0 -589.0 L 1075.0 -591.0 L 1122.0 -608.0 L 1162.0 -621.5 L 1202.0 -635.0 L 1236.0 -646.0 L 1273.0 -657.0 L 1306.0 -670.0 L 1339.0 -683.0 L 1368.5 -701.0 L 1398.0 -719.0 L 1424.0 -743.5 L 1450.0 -768.0 L 1471.0 -802.0 L 1485.0 -825.0 L 1501.0 -872.0 L 1509.0 -895.0 L 1521.0 -924.5 L 1533.0 -954.0 L 1549.0 -990.0 L 1552.0 -996.0 L 1561.0 -996.0 L 1570.0 -996.0 L 1578.0 -1000.0 L 1591.0 -1008.0 L 1599.0 -1012.0 L 1609.0 -1017.0 L 1622.0 -1024.0 L 1631.0 -1026.0 L 1635.0 -1027.0 L 1638.0 -1028.0 L 1641.0 -1029.0 L 1643.0 -1030.0 L 1647.0 -1030.0 L 1651.0 -1030.0 L 1655.0 -1030.0 L 1659.0 -1031.0 L 1668.0 -1031.0 L 1677.0 -1027.0 L 1685.0 -1024.0 L 1695.0 -1024.0 L 1705.0 -1024.0 L 1713.0 -1016.0 L 1716.0 -1013.0 L 1709.0 -1011.0 L 1706.0 -1010.0 L 1703.5 -1008.0 L 1701.0 -1006.0 L 1699.0 -1005.0 L 1662.0 -979.0 L 1658.0 -972.0 L 1653.0 -950.0 L 1648.0 -931.0 L 1643.0 -912.0 L 1636.5 -894.0 L 1630.0 -876.0 L 1621.0 -858.5 L 1612.0 -841.0 L 1600.0 -821.0 L 1598.0 -817.0 L 1595.0 -814.0 L 1592.0 -811.0 L 1590.0 -807.0 L 1592.0 -808.0 L 1593.0 -808.0 L 1589.0 -803.0 L 1585.0 -800.0 L 1585.0 -800.0 L 1587.0 -802.0 L 1588.0 -804.0 L 1590.0 -807.0 L 1589.0 -807.0 L 1587.5 -806.0 L 1586.0 -805.0 L 1584.0 -804.0 L 1547.0 -779.0 L 1509.5 -750.0 L 1472.0 -721.0 L 1438.0 -692.0 L 1437.0 -691.0 L 1431.5 -686.5 L 1426.0 -682.0 L 1420.5 -677.5 L 1415.0 -673.0 L 1410.5 -668.0 L 1406.0 -663.0 L 1406.0 -662.0 L 1411.0 -664.0 L 1415.5 -666.5 L 1420.0 -669.0 L 1424.0 -671.0 L 1429.0 -674.0 L 1430.0 -674.0 L 1430.0 -674.0 L 1428.0 -672.0 L 1426.0 -671.0 L 1420.0 -668.0 L 1404.0 -659.0 L 1406.0 -662.0 L 1401.0 -660.0 L 1396.0 -657.5 L 1391.0 -655.0 L 1385.0 -653.0 L 1366.0 -644.0 L 1348.0 -636.5 L 1330.0 -629.0 L 1312.0 -623.0 L 1294.0 -617.0 L 1274.5 -614.0 L 1255.0 -611.0 L 1234.0 -611.0 L 1228.0 -611.0 L 1223.5 -611.0 L 1219.0 -611.0 L 1216.0 -611.0 L 1208.0 -610.0 L 1217.0 -607.0 L 1233.0 -601.0 L 1250.0 -601.0 L 1253.0 -601.0 L 1256.5 -601.0 L 1260.0 -601.0 L 1264.0 -602.0 L 1272.0 -603.0 L 1280.0 -603.5 L 1288.0 -604.0 L 1296.0 -604.0 L 1324.0 -604.0 L 1347.5 -597.5 L 1371.0 -591.0 L 1393.0 -574.0 L 1412.0 -560.0 L 1411.0 -555.0 L 1414.0 -547.0 L 1400.0 -547.0 L 1376.0 -547.0 L 1351.0 -552.0 L 1334.0 -555.0 L 1312.0 -558.0 L 1301.0 -559.0 L 1288.5 -560.5 L 1276.0 -562.0 L 1263.0 -564.0 L 1240.0 -567.0 L 1216.5 -569.5 L 1193.0 -572.0 L 1169.0 -572.0 L 1155.0 -573.0 L 1143.0 -573.0 L 1120.0 -573.0 L 1097.0 -571.0 L 1091.0 -569.0 L 1087.5 -567.5 L 1084.0 -566.0 Z M 503.0 -863.0 L 497.0 -863.0 L 496.0 -869.0 L 496.0 -872.0 L 502.0 -872.0 L 504.0 -873.0 L 501.0 -880.0 L 498.0 -885.0 L 503.0 -888.0 L 597.0 -919.0 L 666.0 -936.0 L 701.0 -945.0 L 735.0 -957.5 L 769.0 -970.0 L 800.5 -988.5 L 832.0 -1007.0 L 859.5 -1031.0 L 887.0 -1055.0 L 906.0 -1086.0 L 913.0 -1097.0 L 921.5 -1114.0 L 930.0 -1131.0 L 939.0 -1154.0 L 948.0 -1177.0 L 961.0 -1205.5 L 974.0 -1234.0 L 991.0 -1269.0 L 993.0 -1273.0 L 996.5 -1274.5 L 1000.0 -1276.0 L 1004.0 -1276.0 L 1011.0 -1276.0 L 1019.0 -1280.0 L 1025.0 -1284.0 L 1030.5 -1286.5 L 1036.0 -1289.0 L 1040.0 -1291.0 L 1049.0 -1294.0 L 1052.0 -1297.0 L 1057.0 -1299.0 L 1061.5 -1300.5 L 1066.0 -1302.0 L 1070.0 -1303.0 L 1075.0 -1305.0 L 1079.0 -1305.5 L 1083.0 -1306.0 L 1088.0 -1306.0 L 1102.0 -1306.0 L 1117.0 -1302.0 L 1123.0 -1300.0 L 1132.0 -1300.0 L 1137.0 -1300.0 L 1142.0 -1300.0 L 1146.0 -1298.5 L 1150.0 -1297.0 L 1153.0 -1293.0 L 1157.0 -1288.0 L 1149.0 -1286.0 L 1142.0 -1284.0 L 1139.0 -1282.0 L 1101.0 -1258.0 L 1099.0 -1249.0 L 1094.0 -1233.0 L 1090.0 -1218.5 L 1086.0 -1204.0 L 1082.0 -1192.0 L 1076.0 -1174.0 L 1069.0 -1157.5 L 1062.0 -1141.0 L 1051.0 -1125.0 L 1046.0 -1118.0 L 1041.5 -1111.5 L 1037.0 -1105.0 L 1033.0 -1099.0 L 1031.0 -1096.0 L 1029.0 -1093.0 L 1027.0 -1090.0 L 1025.0 -1088.0 L 1027.0 -1089.0 L 1023.0 -1083.0 L 1020.0 -1080.0 L 1020.0 -1080.0 L 1019.5 -1079.5 L 1019.0 -1079.0 L 1019.0 -1078.0 L 1019.0 -1079.0 L 1019.0 -1079.0 L 1019.5 -1080.0 L 1020.0 -1081.0 L 1021.0 -1081.0 L 1022.0 -1084.0 L 1025.0 -1088.0 L 1023.0 -1088.0 L 1016.0 -1084.0 L 1007.0 -1080.0 L 991.5 -1069.5 L 976.0 -1059.0 L 957.0 -1046.5 L 938.0 -1034.0 L 919.0 -1019.5 L 900.0 -1005.0 L 883.5 -992.0 L 867.0 -979.0 L 855.0 -968.0 L 843.0 -957.0 L 838.0 -952.0 L 838.0 -952.0 L 837.5 -951.0 L 837.0 -950.0 L 837.0 -950.0 L 838.0 -950.0 L 841.5 -951.5 L 845.0 -953.0 L 848.5 -954.5 L 852.0 -956.0 L 855.5 -957.0 L 859.0 -958.0 L 860.0 -958.0 L 862.0 -958.0 L 850.0 -952.0 L 841.0 -947.0 L 837.0 -947.0 L 835.0 -947.0 L 837.0 -950.0 L 832.0 -948.0 L 826.5 -946.0 L 821.0 -944.0 L 814.0 -941.0 L 787.0 -930.0 L 757.0 -919.0 L 740.0 -913.0 L 723.0 -908.5 L 706.0 -904.0 L 688.0 -904.0 L 662.0 -904.0 L 656.0 -904.0 L 651.5 -904.0 L 647.0 -904.0 L 644.0 -903.0 L 638.0 -903.0 L 645.0 -899.0 L 661.0 -892.0 L 680.0 -892.0 L 682.0 -892.0 L 685.0 -892.0 L 688.0 -892.0 L 691.0 -892.0 L 703.0 -893.0 L 715.0 -894.0 L 743.0 -894.0 L 770.0 -886.5 L 797.0 -879.0 L 819.0 -861.0 L 835.0 -848.0 L 836.0 -840.0 L 838.0 -834.0 L 825.0 -833.0 L 777.0 -838.0 L 689.0 -853.0 L 655.0 -861.0 L 618.5 -864.5 L 582.0 -868.0 L 547.0 -868.0 L 541.0 -868.0 L 535.0 -868.0 L 529.0 -868.0 L 523.0 -867.0 L 514.0 -863.0 Z M 489.0 -782.0 L 491.0 -785.0 L 506.0 -785.0 L 535.0 -785.0 L 549.0 -786.0 L 564.0 -782.0 L 611.0 -774.0 L 680.0 -762.0 L 699.0 -666.0 L 711.0 -605.0 L 722.0 -591.0 L 733.0 -578.0 L 752.0 -574.0 L 754.0 -574.0 L 757.5 -573.5 L 761.0 -573.0 L 766.0 -572.0 L 769.0 -572.0 L 770.0 -571.0 L 769.0 -564.0 L 762.0 -559.0 L 755.0 -554.0 L 746.5 -551.0 L 738.0 -548.0 L 729.0 -547.0 L 720.0 -546.0 L 714.0 -546.0 L 688.0 -546.0 L 664.0 -552.5 L 640.0 -559.0 L 616.0 -568.0 L 563.0 -588.0 L 541.0 -713.0 L 532.0 -766.0 L 508.0 -766.0 L 494.0 -766.0 L 484.0 -766.0 L 483.0 -767.0 L 481.0 -770.0 Z M 738.0 -786.0 L 759.0 -786.0 L 765.0 -786.0 L 771.5 -785.5 L 778.0 -785.0 L 786.0 -783.0 L 794.0 -782.0 L 801.0 -780.5 L 808.0 -779.0 L 813.0 -778.0 L 824.0 -776.0 L 830.0 -775.0 L 900.0 -762.0 L 917.0 -666.0 L 927.0 -608.0 L 942.0 -593.0 L 952.0 -577.0 L 972.0 -575.0 L 974.0 -574.0 L 976.0 -573.5 L 978.0 -573.0 L 979.0 -573.0 L 983.0 -572.0 L 984.0 -572.0 L 989.0 -572.0 L 989.0 -565.0 L 982.5 -560.0 L 976.0 -555.0 L 966.5 -552.5 L 957.0 -550.0 L 948.0 -548.5 L 939.0 -547.0 L 935.0 -547.0 L 897.0 -547.0 L 836.0 -569.0 L 782.0 -591.0 L 761.0 -718.0 L 753.0 -770.0 L 737.0 -769.0 L 734.0 -769.0 L 733.0 -769.0 L 730.0 -769.0 L 720.0 -769.0 L 721.0 -783.0 L 721.0 -786.0 Z" fill="black" fill-opacity="0.25" stroke="black" stroke-width="4.0"/>
  <rect x="61.0" y="-444.0" width="1340.0" height="300.00000000000006" fill="none" stroke="red" stroke-width="10.0" /><rect x="-146.0" y="-999.0" width="648.0" height="483.0" fill="none" stroke="red" stroke-width="10.0" /><rect x="1069.0" y="-1031.0" width="647.0" height="483.9999999999999" fill="none" stroke="red" stroke-width="10.0" /><rect x="496.0" y="-1306.0" width="661.0" height="473.0000000000001" fill="none" stroke="red" stroke-width="10.0" /><rect x="481.0" y="-786.0" width="289.00000000000006" height="240.0" fill="none" stroke="red" stroke-width="10.0" /><rect x="720.0" y="-786.0" width="269.0" height="239.0" fill="none" stroke="red" stroke-width="10.0" />
</svg>
