<svg xmlns="http://www.w3.org/2000/svg"
  viewBox="-48.0 -1076.0 1556.5 957.0">
  <rect x="-48.0" y="-1076.0" width="1556.5" height="957.0" fill="white"/>
  <path d="M 61.0 -453.0 L 86.0 -461.0 L 140.0 -461.0 L 161.0 -461.0 L 191.0 -460.5 L 221.0 -460.0 L 252.5 -457.5 L 284.0 -455.0 L 312.5 -450.0 L 341.0 -445.0 L 359.0 -436.0 L 361.0 -434.0 L 362.0 -432.0 L 363.0 -430.0 L 364.0 -428.0 L 365.0 -426.0 L 366.0 -425.0 L 358.0 -416.0 L 352.0 -417.0 L 344.5 -418.0 L 337.0 -419.0 L 328.0 -419.0 L 316.0 -419.0 L 305.5 -418.0 L 295.0 -417.0 L 285.0 -416.0 L 281.0 -416.0 L 277.0 -415.0 L 273.0 -414.0 L 273.0 -408.0 L 273.0 -392.0 L 303.0 -363.0 L 329.0 -338.0 L 362.5 -318.5 L 396.0 -299.0 L 433.0 -284.5 L 470.0 -270.0 L 507.5 -259.5 L 545.0 -249.0 L 580.0 -241.0 L 682.0 -216.0 L 788.0 -216.0 L 805.0 -216.0 L 826.5 -217.0 L 848.0 -218.0 L 870.5 -222.0 L 893.0 -226.0 L 915.0 -233.0 L 937.0 -240.0 L 953.5 -252.0 L 970.0 -264.0 L 980.0 -281.0 L 990.0 -298.0 L 989.0 -322.0 L 986.0 -348.0 L 978.0 -390.0 L 892.0 -435.0 L 889.0 -439.0 L 887.5 -442.5 L 886.0 -446.0 L 883.0 -451.0 L 896.0 -454.0 L 909.5 -455.0 L 923.0 -456.0 L 941.0 -458.0 L 958.0 -460.0 L 969.5 -461.5 L 981.0 -463.0 L 994.0 -463.0 L 1034.0 -463.0 L 1064.0 -455.5 L 1094.0 -448.0 L 1117.0 -435.0 L 1125.0 -431.0 L 1133.0 -423.5 L 1141.0 -416.0 L 1148.0 -408.0 L 1164.0 -371.0 L 1164.0 -338.0 L 1164.0 -300.0 L 1145.0 -272.5 L 1126.0 -245.0 L 1095.5 -226.0 L 1065.0 -207.0 L 1027.0 -196.0 L 989.0 -185.0 L 949.5 -179.0 L 910.0 -173.0 L 873.0 -171.0 L 836.0 -169.0 L 810.0 -169.0 L 672.0 -169.0 L 496.0 -205.0 L 428.0 -219.0 L 356.0 -243.5 L 284.0 -268.0 L 205.0 -305.0 L 38.0 -382.0 L 38.0 -429.0 L 38.0 -447.0 Z M 10.0 -562.0 L 5.0 -562.0 L 2.0 -570.0 L 2.0 -571.0 L 3.0 -572.0 L 4.0 -572.0 L 8.0 -573.0 L 10.0 -574.0 L 5.0 -580.0 L 1.0 -585.0 L 8.0 -587.0 L 54.0 -604.0 L 94.5 -617.5 L 135.0 -631.0 L 169.0 -642.0 L 203.0 -653.0 L 230.5 -663.0 L 258.0 -673.0 L 279.0 -684.0 L 358.0 -726.0 L 404.0 -798.0 L 411.0 -810.0 L 418.5 -827.5 L 426.0 -845.0 L 434.5 -868.5 L 443.0 -892.0 L 454.5 -921.5 L 466.0 -951.0 L 482.0 -986.0 L 483.0 -989.0 L 486.5 -990.0 L 490.0 -991.0 L 494.0 -992.0 L 498.0 -993.0 L 502.5 -993.5 L 507.0 -994.0 L 512.0 -996.0 L 524.0 -1003.0 L 531.5 -1007.5 L 539.0 -1012.0 L 543.0 -1014.0 L 555.0 -1020.0 L 564.0 -1022.5 L 573.0 -1025.0 L 576.0 -1026.0 L 589.0 -1026.0 L 594.0 -1026.0 L 599.0 -1025.5 L 604.0 -1025.0 L 610.0 -1023.0 L 614.0 -1022.0 L 618.5 -1021.5 L 623.0 -1021.0 L 628.0 -1020.0 L 633.0 -1019.0 L 637.5 -1017.5 L 642.0 -1016.0 L 646.0 -1012.0 L 647.0 -1011.0 L 646.0 -1009.5 L 645.0 -1008.0 L 642.0 -1006.5 L 639.0 -1005.0 L 636.0 -1004.0 L 633.0 -1003.0 L 632.0 -1001.0 L 594.0 -975.0 L 591.0 -969.0 L 583.0 -935.0 L 576.0 -911.0 L 569.0 -887.0 L 562.0 -867.0 L 560.0 -861.0 L 555.0 -852.5 L 550.0 -844.0 L 544.0 -835.0 L 538.0 -826.0 L 532.5 -817.5 L 527.0 -809.0 L 523.0 -804.0 L 524.0 -804.0 L 524.0 -804.0 L 524.0 -804.0 L 524.0 -804.0 L 525.0 -805.0 L 527.0 -805.0 L 522.0 -800.0 L 519.0 -797.0 L 519.0 -796.0 L 519.0 -796.0 L 523.0 -804.0 L 519.0 -802.0 L 509.0 -795.0 L 499.0 -788.0 L 485.0 -777.5 L 471.0 -767.0 L 455.0 -755.0 L 439.0 -743.0 L 423.0 -729.0 L 407.0 -717.0 L 394.5 -707.0 L 382.0 -697.0 L 371.0 -688.0 L 360.0 -679.0 L 352.5 -672.0 L 345.0 -665.0 L 341.0 -661.0 L 341.0 -660.0 L 339.0 -659.0 L 339.0 -659.0 L 339.0 -658.0 L 345.0 -660.0 L 349.5 -662.5 L 354.0 -665.0 L 358.0 -667.0 L 363.0 -670.0 L 364.0 -670.0 L 364.0 -670.0 L 361.0 -668.0 L 360.0 -667.0 L 357.0 -665.0 L 354.0 -663.0 L 350.5 -661.5 L 347.0 -660.0 L 344.0 -659.0 L 341.0 -658.0 L 340.0 -658.0 L 339.0 -658.0 L 339.0 -658.0 L 327.0 -652.0 L 311.0 -645.0 L 295.0 -638.0 L 278.0 -631.0 L 261.0 -624.0 L 244.5 -618.5 L 228.0 -613.0 L 215.0 -611.0 L 206.0 -610.0 L 192.0 -609.5 L 178.0 -609.0 L 166.5 -608.5 L 155.0 -608.0 L 149.5 -607.0 L 144.0 -606.0 L 151.0 -603.0 L 159.0 -600.0 L 167.5 -599.0 L 176.0 -598.0 L 185.0 -598.0 L 197.0 -598.0 L 209.5 -599.0 L 222.0 -600.0 L 235.0 -600.0 L 238.0 -600.0 L 240.5 -599.5 L 243.0 -599.0 L 246.0 -599.0 L 291.0 -596.0 L 326.0 -570.0 L 344.0 -556.0 L 344.0 -551.0 L 347.0 -543.0 L 333.0 -543.0 L 320.0 -543.0 L 309.0 -544.5 L 298.0 -546.0 L 285.0 -548.0 L 267.0 -551.0 L 244.5 -553.5 L 222.0 -556.0 L 196.0 -560.0 L 169.0 -564.0 L 146.5 -566.0 L 124.0 -568.0 L 102.0 -568.0 L 98.0 -569.0 L 94.0 -569.0 L 90.0 -569.0 L 86.0 -569.0 L 72.0 -569.0 L 58.0 -568.5 L 44.0 -568.0 L 30.0 -567.0 L 27.0 -566.0 L 22.5 -564.0 L 18.0 -562.0 Z M 815.0 -570.0 L 815.0 -571.0 L 816.0 -572.0 L 817.0 -572.0 L 821.0 -573.0 L 823.0 -574.0 L 818.0 -580.0 L 814.0 -585.0 L 821.0 -587.0 L 867.0 -604.0 L 907.5 -617.5 L 948.0 -631.0 L 982.0 -642.0 L 1016.0 -653.0 L 1043.5 -663.0 L 1071.0 -673.0 L 1091.0 -684.0 L 1170.0 -726.0 L 1216.0 -798.0 L 1223.0 -810.0 L 1230.5 -827.5 L 1238.0 -845.0 L 1247.0 -868.5 L 1256.0 -892.0 L 1267.5 -921.5 L 1279.0 -951.0 L 1294.0 -986.0 L 1295.0 -989.0 L 1298.5 -990.0 L 1302.0 -991.0 L 1306.5 -992.0 L 1311.0 -993.0 L 1315.5 -993.5 L 1320.0 -994.0 L 1324.0 -996.0 L 1336.0 -1003.0 L 1344.0 -1007.5 L 1352.0 -1012.0 L 1355.0 -1014.0 L 1367.0 -1020.0 L 1376.0 -1022.5 L 1385.0 -1025.0 L 1388.0 -1026.0 L 1401.0 -1026.0 L 1406.0 -1026.0 L 1411.5 -1025.5 L 1417.0 -1025.0 L 1422.0 -1023.0 L 1426.0 -1022.0 L 1431.0 -1021.5 L 1436.0 -1021.0 L 1440.5 -1020.0 L 1445.0 -1019.0 L 1450.0 -1017.5 L 1455.0 -1016.0 L 1458.0 -1012.0 L 1459.0 -1011.0 L 1458.0 -1009.5 L 1457.0 -1008.0 L 1454.5 -1006.5 L 1452.0 -1005.0 L 1449.0 -1004.0 L 1446.0 -1003.0 L 1444.0 -1001.0 L 1406.0 -975.0 L 1404.0 -969.0 L 1396.0 -935.0 L 1388.5 -911.0 L 1381.0 -887.0 L 1374.0 -867.0 L 1372.0 -861.0 L 1367.0 -852.5 L 1362.0 -844.0 L 1356.5 -835.0 L 1351.0 -826.0 L 1345.0 -817.5 L 1339.0 -809.0 L 1335.0 -804.0 L 1336.0 -804.0 L 1336.0 -804.0 L 1337.0 -804.0 L 1337.0 -804.0 L 1337.0 -805.0 L 1339.0 -805.0 L 1335.0 -800.0 L 1332.0 -797.0 L 1331.0 -796.0 L 1331.0 -796.0 L 1335.0 -804.0 L 1331.0 -802.0 L 1321.5 -795.0 L 1312.0 -788.0 L 1298.0 -777.5 L 1284.0 -767.0 L 1267.5 -755.0 L 1251.0 -743.0 L 1235.0 -729.0 L 1219.0 -717.0 L 1206.5 -707.0 L 1194.0 -697.0 L 1184.0 -688.0 L 1173.0 -679.0 L 1165.5 -672.0 L 1158.0 -665.0 L 1154.0 -661.0 L 1154.0 -660.0 L 1152.0 -659.0 L 1152.0 -659.0 L 1151.0 -658.0 L 1157.0 -660.0 L 1162.0 -662.5 L 1167.0 -665.0 L 1170.0 -667.0 L 1175.0 -670.0 L 1176.0 -670.0 L 1176.0 -670.0 L 1174.0 -668.0 L 1173.0 -667.0 L 1169.5 -665.0 L 1166.0 -663.0 L 1163.0 -661.5 L 1160.0 -660.0 L 1157.0 -659.0 L 1154.0 -658.0 L 1152.0 -658.0 L 1151.0 -658.0 L 1151.0 -658.0 L 1139.0 -652.0 L 1123.0 -645.0 L 1107.0 -638.0 L 1090.5 -631.0 L 1074.0 -624.0 L 1057.5 -618.5 L 1041.0 -613.0 L 1027.0 -611.0 L 1018.0 -610.0 L 1004.5 -609.5 L 991.0 -609.0 L 979.0 -608.5 L 967.0 -608.0 L 961.5 -607.0 L 956.0 -606.0 L 963.0 -603.0 L 971.0 -600.0 L 979.5 -599.0 L 988.0 -598.0 L 998.0 -598.0 L 1010.0 -598.0 L 1022.5 -599.0 L 1035.0 -600.0 L 1047.0 -600.0 L 1050.0 -600.0 L 1053.0 -599.5 L 1056.0 -599.0 L 1059.0 -599.0 L 1104.0 -596.0 L 1138.0 -570.0 L 1156.0 -556.0 L 1157.0 -551.0 L 1160.0 -543.0 L 1146.0 -543.0 L 1133.0 -543.0 L 1121.5 -544.5 L 1110.0 -546.0 L 1098.0 -548.0 L 1080.0 -551.0 L 1057.5 -553.5 L 1035.0 -556.0 L 1008.0 -560.0 L 981.0 -564.0 L 959.0 -566.0 L 937.0 -568.0 L 915.0 -568.0 L 911.0 -569.0 L 906.5 -569.0 L 902.0 -569.0 L 898.0 -569.0 L 884.0 -569.0 L 870.5 -568.5 L 857.0 -568.0 L 843.0 -567.0 L 840.0 -566.0 L 835.5 -564.0 L 831.0 -562.0 L 823.0 -562.0 L 818.0 -562.0 Z" fill="black" fill-opacity="0.25" stroke="black" stroke-width="4.0"/>
  <rect x="38.0" y="-463.0" width="1126.0" height="294.00000000000006" fill="none" stroke="red" stroke-width="10.0" /><rect x="1.0" y="-1026.0" width="646.0" height="483.0" fill="none" stroke="red" stroke-width="10.0" /><rect x="814.0" y="-1026.0" width="645.0000000000001" height="483.0" fill="none" stroke="red" stroke-width="10.0" />
</svg>
