<svg xmlns="http://www.w3.org/2000/svg"
  viewBox="28 -1104 1226 986">
  <rect x="28" y="-1104" width="1226" height="986" fill="white"/>
  <path d="M 78 -428 L 78 -448 L 101 -454 L 126 -462 L 180 -462 L 201 -462 L 231 -461 L 261 -460 L 292.5 -457 L 324 -454 L 352.5 -450 L 381 -446 L 399 -436 L 401 -434 L 402 -432 L 403 -430 L 404 -428 L 405 -426 L 406 -426 L 398 -416 L 392 -416 L 384.5 -418 L 377 -420 L 368 -420 L 356 -420 L 345.5 -419 L 335 -418 L 325 -416 L 321 -416 L 317 -415 L 313 -414 L 313 -408 L 313 -392 L 343 -362 L 368 -338 L 404.5 -317 L 441 -296 L 484 -280 L 527 -264 L 573.5 -252 L 620 -240 L 665.5 -232 L 711 -224 L 752.5 -220 L 794 -216 L 828 -216 L 846 -216 L 867.5 -217 L 889 -218 L 911.5 -222 L 934 -226 L 955 -233 L 976 -240 L 992.5 -252 L 1009 -264 L 1019 -281 L 1029 -298 L 1029 -322 L 1026 -348 L 1018 -390 L 932 -434 L 929 -438 L 927.5 -442 L 926 -446 L 923 -450 L 936 -454 L 949.5 -455 L 963 -456 L 981 -458 L 998 -460 L 1009.5 -461 L 1021 -462 L 1034 -462 L 1074 -462 L 1104 -455 L 1134 -448 L 1157 -434 L 1165 -430 L 1173 -423 L 1181 -416 L 1188 -408 L 1204 -370 L 1204 -338 L 1204 -300 L 1185.5 -272 L 1167 -244 L 1136.5 -226 L 1106 -208 L 1067.5 -196 L 1029 -184 L 990 -178 L 951 -172 L 914 -170 L 877 -168 L 850 -168 L 780 -168 L 702 -177 L 624 -186 L 536 -204 L 468 -218 L 396 -243 L 324 -268 L 245 -304 L 78 -382 Z M 103 -592 L 98 -592 L 95 -598 L 95 -600 L 96 -600 L 97 -600 L 101 -602 L 103 -602 L 99 -608 L 95 -614 L 101 -616 L 148 -632 L 188 -646 L 228 -660 L 262 -671 L 296 -682 L 323.5 -692 L 351 -702 L 371 -712 L 451 -754 L 496 -826 L 503 -838 L 510.5 -856 L 518 -874 L 527 -897 L 536 -920 L 547.5 -950 L 559 -980 L 574 -1014 L 575 -1018 L 579 -1019 L 583 -1020 L 587 -1021 L 591 -1022 L 595.5 -1022 L 600 -1022 L 604 -1026 L 616 -1032 L 624 -1036 L 632 -1040 L 635 -1042 L 647 -1048 L 656 -1051 L 665 -1054 L 668 -1054 L 681 -1054 L 686 -1054 L 691.5 -1054 L 697 -1054 L 702 -1052 L 706 -1052 L 710.5 -1051 L 715 -1050 L 720 -1049 L 725 -1048 L 729.5 -1046 L 734 -1044 L 738 -1040 L 739 -1040 L 738 -1038 L 737 -1036 L 734.5 -1035 L 732 -1034 L 729 -1033 L 726 -1032 L 724 -1030 L 687 -1006 L 684 -998 L 676 -964 L 668.5 -939 L 661 -914 L 654 -896 L 652 -890 L 647 -881 L 642 -872 L 636 -863 L 630 -854 L 624.5 -846 L 619 -838 L 615 -832 L 615 -832 L 617 -832 L 619 -832 L 615 -828 L 612 -826 L 611 -824 L 611 -824 L 615 -832 L 611 -830 L 601 -823 L 591 -816 L 577 -806 L 563 -796 L 547 -784 L 531 -772 L 515 -758 L 499 -746 L 486.5 -736 L 474 -726 L 463 -716 L 452 -708 L 445 -701 L 438 -694 L 434 -690 L 434 -690 L 432 -688 L 432 -688 L 431 -686 L 437 -688 L 441.5 -691 L 446 -694 L 450 -696 L 455 -698 L 456 -698 L 456 -698 L 454 -698 L 453 -696 L 449.5 -694 L 446 -692 L 442.5 -690 L 439 -688 L 436.5 -687 L 434 -686 L 432 -686 L 431 -686 L 431 -686 L 419 -680 L 403 -673 L 387 -666 L 370.5 -659 L 354 -652 L 337 -647 L 320 -642 L 307 -640 L 298 -638 L 284.5 -638 L 271 -638 L 259.5 -637 L 248 -636 L 242 -635 L 236 -634 L 243 -632 L 251 -628 L 260 -627 L 269 -626 L 277 -626 L 289 -626 L 301 -627 L 313 -628 L 326 -628 L 329 -628 L 332 -628 L 335 -628 L 338 -628 L 383 -626 L 418 -598 L 437 -584 L 437 -580 L 440 -572 L 426 -572 L 413 -572 L 401.5 -573 L 390 -574 L 377 -576 L 360 -580 L 337.5 -583 L 315 -586 L 288 -590 L 262 -594 L 239 -595 L 216 -596 L 194 -596 L 190 -598 L 186 -598 L 182 -598 L 178 -598 L 164 -598 L 150.5 -597 L 137 -596 L 123 -596 L 120 -594 L 115.5 -593 L 111 -592 Z" fill="black" fill-opacity="0.25" stroke="black" stroke-width="4"/>
  <rect x="78" y="-462" width="1126" height="294" fill="none" stroke="red" stroke-width="10" /><rect x="95" y="-732.7" width="387.3" height="160.7" fill="none" stroke="red" stroke-width="10" /><rect x="410.4" y="-893.3" width="242.7" height="160.6" fill="none" stroke="red" stroke-width="10" /><rect x="525.6" y="-1054" width="213.4" height="160.7" fill="none" stroke="red" stroke-width="10" />
</svg>
