<svg xmlns="http://www.w3.org/2000/svg"
  viewBox="-9.0 -1368.0 1309.0 1247.0">
  <rect x="-9.0" y="-1368.0" width="1309.0" height="1247.0" fill="white"/>
  <path d="M 144.0 -1304.0 L 160.0 -1306.0 L 177.0 -1308.5 L 194.0 -1311.0 L 213.0 -1313.0 L 232.0 -1315.0 L 245.0 -1316.5 L 258.0 -1318.0 L 266.0 -1318.0 L 309.0 -1318.0 L 338.0 -1299.0 L 345.0 -1294.0 L 346.0 -1274.0 L 343.0 -1229.0 L 343.0 -1216.0 L 347.0 -1209.0 L 440.0 -1077.0 L 650.0 -1036.0 L 658.0 -1033.0 L 668.5 -1032.0 L 679.0 -1031.0 L 691.0 -1029.0 L 696.0 -1045.0 L 701.0 -1057.0 L 706.0 -1069.0 L 711.0 -1081.0 L 719.0 -1098.0 L 749.0 -1098.0 L 810.0 -1092.0 L 823.0 -1091.0 L 836.0 -1089.5 L 849.0 -1088.0 L 861.0 -1088.0 L 855.0 -1076.0 L 849.0 -1057.5 L 843.0 -1039.0 L 836.0 -1014.0 L 974.0 -1007.0 L 1205.0 -997.0 L 1250.0 -953.0 L 1077.0 -953.0 L 998.0 -953.0 L 934.0 -953.0 L 870.0 -953.0 L 816.0 -954.0 L 799.0 -916.0 L 771.0 -887.0 L 763.0 -877.0 L 749.0 -871.0 L 735.0 -865.0 L 719.0 -861.5 L 703.0 -858.0 L 686.5 -857.0 L 670.0 -856.0 L 659.0 -856.0 L 642.0 -856.0 L 635.0 -859.0 L 621.0 -865.0 L 630.0 -873.0 L 643.0 -891.0 L 653.0 -912.5 L 663.0 -934.0 L 671.0 -959.0 L 658.0 -959.0 L 458.0 -969.0 L 360.0 -1017.0 L 276.0 -1056.0 L 174.0 -1181.0 L 166.0 -1194.0 L 162.0 -1221.0 L 149.0 -1294.0 Z M 41.0 -745.0 L 41.0 -773.0 L 54.5 -793.0 L 68.0 -813.0 L 90.0 -826.5 L 112.0 -840.0 L 139.5 -848.0 L 167.0 -856.0 L 196.0 -860.0 L 225.0 -864.0 L 251.5 -865.5 L 278.0 -867.0 L 297.0 -867.0 L 349.0 -867.0 L 403.5 -862.0 L 458.0 -857.0 L 518.0 -848.0 L 578.0 -839.0 L 636.0 -824.0 L 694.0 -810.0 L 755.0 -792.0 L 814.0 -775.0 L 880.0 -742.0 L 946.0 -709.0 L 1021.0 -661.0 L 1167.0 -565.0 L 1166.0 -523.0 L 1166.0 -504.0 L 1130.0 -504.0 L 1083.0 -504.0 L 1033.0 -511.0 L 983.0 -518.0 L 937.0 -528.0 L 949.0 -632.0 L 772.0 -715.0 L 605.0 -795.0 L 433.0 -795.0 L 416.0 -795.0 L 395.5 -793.5 L 375.0 -792.0 L 353.5 -788.0 L 332.0 -784.0 L 311.5 -777.0 L 291.0 -770.0 L 274.5 -758.5 L 258.0 -747.0 L 247.5 -730.5 L 237.0 -714.0 L 236.0 -692.0 L 235.0 -661.0 L 282.0 -625.0 L 340.0 -580.0 L 345.0 -578.0 L 206.0 -579.0 L 136.0 -607.0 L 89.0 -627.0 L 58.0 -676.0 L 41.0 -716.0 Z M 138.0 -456.0 L 151.0 -460.0 L 170.5 -462.0 L 190.0 -464.0 L 217.0 -464.0 L 238.0 -464.0 L 268.0 -463.5 L 298.0 -463.0 L 329.5 -460.5 L 361.0 -458.0 L 389.5 -453.0 L 418.0 -448.0 L 437.0 -439.0 L 439.0 -437.0 L 439.5 -434.5 L 440.0 -432.0 L 441.0 -431.0 L 442.0 -429.0 L 443.0 -428.0 L 435.0 -418.0 L 429.0 -419.0 L 422.0 -420.5 L 415.0 -422.0 L 405.0 -422.0 L 393.0 -422.0 L 383.0 -421.0 L 373.0 -420.0 L 362.0 -418.0 L 358.0 -418.0 L 354.5 -417.0 L 351.0 -416.0 L 351.0 -411.0 L 351.0 -395.0 L 380.0 -365.0 L 405.0 -340.0 L 442.0 -319.5 L 479.0 -299.0 L 521.5 -282.5 L 564.0 -266.0 L 610.5 -254.0 L 657.0 -242.0 L 703.0 -234.0 L 749.0 -226.0 L 790.5 -222.0 L 832.0 -218.0 L 865.0 -218.0 L 883.0 -218.0 L 904.5 -219.5 L 926.0 -221.0 L 948.5 -224.5 L 971.0 -228.0 L 992.0 -235.0 L 1013.0 -242.0 L 1029.5 -254.0 L 1046.0 -266.0 L 1056.0 -283.5 L 1066.0 -301.0 L 1066.0 -325.0 L 1063.0 -351.0 L 1055.0 -393.0 L 969.0 -437.0 L 966.0 -441.0 L 964.5 -444.5 L 963.0 -448.0 L 960.0 -453.0 L 973.0 -456.0 L 986.5 -457.0 L 1000.0 -458.0 L 1018.0 -461.0 L 1035.0 -463.0 L 1047.0 -464.0 L 1059.0 -465.0 L 1071.0 -465.0 L 1111.0 -465.0 L 1141.0 -457.5 L 1171.0 -450.0 L 1194.0 -437.0 L 1202.0 -433.0 L 1210.0 -425.5 L 1218.0 -418.0 L 1226.0 -411.0 L 1242.0 -374.0 L 1241.0 -340.0 L 1241.0 -302.0 L 1222.5 -275.0 L 1204.0 -248.0 L 1174.0 -229.0 L 1144.0 -210.0 L 1105.0 -198.5 L 1066.0 -187.0 L 1027.0 -181.0 L 988.0 -175.0 L 951.0 -173.0 L 914.0 -171.0 L 887.0 -171.0 L 817.0 -171.0 L 739.0 -180.0 L 661.0 -189.0 L 573.0 -208.0 L 505.0 -222.0 L 432.5 -246.5 L 360.0 -271.0 L 282.0 -308.0 L 115.0 -385.0 L 115.0 -431.0 L 115.0 -450.0 Z" fill="black" fill-opacity="0.25" stroke="black" stroke-width="4.0"/>
  <rect x="144.0" y="-1318.0" width="1106.0" height="462.00000000000006" fill="none" stroke="red" stroke-width="10.0" /><rect x="41.0" y="-867.0" width="1126.0" height="363.0" fill="none" stroke="red" stroke-width="10.0" /><rect x="115.0" y="-465.0" width="1127.0" height="294.00000000000006" fill="none" stroke="red" stroke-width="10.0" />
</svg>
