<svg xmlns="http://www.w3.org/2000/svg"
  viewBox="-48 -1076 1556.5 957">
  <rect x="-48" y="-1076" width="1556.5" height="957" fill="white"/>
  <path d="M 61 -453 L 86 -461 L 140 -461 L 161 -461 L 191 -460.5 L 221 -460 L 252.5 -457.5 L 284 -455 L 312.5 -450 L 341 -445 L 359 -436 L 361 -434 L 362 -432 L 363 -430 L 364 -428 L 365 -426 L 366 -425 L 358 -416 L 352 -417 L 344.5 -418 L 337 -419 L 328 -419 L 316 -419 L 305.5 -418 L 295 -417 L 285 -416 L 281 -416 L 277 -415 L 273 -414 L 273 -408 L 273 -392 L 303 -363 L 329 -338 L 362.5 -318.5 L 396 -299 L 433 -284.5 L 470 -270 L 507.5 -259.5 L 545 -249 L 580 -241 L 682 -216 L 788 -216 L 805 -216 L 826.5 -217 L 848 -218 L 870.5 -222 L 893 -226 L 915 -233 L 937 -240 L 953.5 -252 L 970 -264 L 980 -281 L 990 -298 L 989 -322 L 986 -348 L 978 -390 L 892 -435 L 889 -439 L 887.5 -442.5 L 886 -446 L 883 -451 L 896 -454 L 909.5 -455 L 923 -456 L 941 -458 L 958 -460 L 969.5 -461.5 L 981 -463 L 994 -463 L 1034 -463 L 1064 -455.5 L 1094 -448 L 1117 -435 L 1125 -431 L 1133 -423.5 L 1141 -416 L 1148 -408 L 1164 -371 L 1164 -338 L 1164 -300 L 1145 -272.5 L 1126 -245 L 1095.5 -226 L 1065 -207 L 1027 -196 L 989 -185 L 949.5 -179 L 910 -173 L 873 -171 L 836 -169 L 810 -169 L 672 -169 L 496 -205 L 428 -219 L 356 -243.5 L 284 -268 L 205 -305 L 38 -382 L 38 -429 L 38 -447 Z M 10 -562 L 5 -562 L 2 -570 L 2 -571 L 3 -572 L 4 -572 L 8 -573 L 10 -574 L 5 -580 L 1 -585 L 8 -587 L 54 -604 L 94.5 -617.5 L 135 -631 L 169 -642 L 203 -653 L 230.5 -663 L 258 -673 L 279 -684 L 358 -726 L 404 -798 L 411 -810 L 418.5 -827.5 L 426 -845 L 434.5 -868.5 L 443 -892 L 454.5 -921.5 L 466 -951 L 482 -986 L 483 -989 L 486.5 -990 L 490 -991 L 494 -992 L 498 -993 L 502.5 -993.5 L 507 -994 L 512 -996 L 524 -1003 L 531.5 -1007.5 L 539 -1012 L 543 -1014 L 555 -1020 L 564 -1022.5 L 573 -1025 L 576 -1026 L 589 -1026 L 594 -1026 L 599 -1025.5 L 604 -1025 L 610 -1023 L 614 -1022 L 618.5 -1021.5 L 623 -1021 L 628 -1020 L 633 -1019 L 637.5 -1017.5 L 642 -1016 L 646 -1012 L 647 -1011 L 646 -1009.5 L 645 -1008 L 642 -1006.5 L 639 -1005 L 636 -1004 L 633 -1003 L 632 -1001 L 594 -975 L 591 -969 L 583 -935 L 576 -911 L 569 -887 L 562 -867 L 560 -861 L 555 -852.5 L 550 -844 L 544 -835 L 538 -826 L 532.5 -817.5 L 527 -809 L 523 -804 L 524 -804 L 524 -804 L 524 -804 L 524 -804 L 525 -805 L 527 -805 L 522 -800 L 519 -797 L 519 -796 L 519 -796 L 523 -804 L 519 -802 L 509 -795 L 499 -788 L 485 -777.5 L 471 -767 L 455 -755 L 439 -743 L 423 -729 L 407 -717 L 394.5 -707 L 382 -697 L 371 -688 L 360 -679 L 352.5 -672 L 345 -665 L 341 -661 L 341 -660 L 339 -659 L 339 -659 L 339 -658 L 345 -660 L 349.5 -662.5 L 354 -665 L 358 -667 L 363 -670 L 364 -670 L 364 -670 L 361 -668 L 360 -667 L 357 -665 L 354 -663 L 350.5 -661.5 L 347 -660 L 344 -659 L 341 -658 L 340 -658 L 339 -658 L 339 -658 L 327 -652 L 311 -645 L 295 -638 L 278 -631 L 261 -624 L 244.5 -618.5 L 228 -613 L 215 -611 L 206 -610 L 192 -609.5 L 178 -609 L 166.5 -608.5 L 155 -608 L 149.5 -607 L 144 -606 L 151 -603 L 159 -600 L 167.5 -599 L 176 -598 L 185 -598 L 197 -598 L 209.5 -599 L 222 -600 L 235 -600 L 238 -600 L 240.5 -599.5 L 243 -599 L 246 -599 L 291 -596 L 326 -570 L 344 -556 L 344 -551 L 347 -543 L 333 -543 L 320 -543 L 309 -544.5 L 298 -546 L 285 -548 L 267 -551 L 244.5 -553.5 L 222 -556 L 196 -560 L 169 -564 L 146.5 -566 L 124 -568 L 102 -568 L 98 -569 L 94 -569 L 90 -569 L 86 -569 L 72 -569 L 58 -568.5 L 44 -568 L 30 -567 L 27 -566 L 22.5 -564 L 18 -562 Z M 815 -570 L 815 -571 L 816 -572 L 817 -572 L 821 -573 L 823 -574 L 818 -580 L 814 -585 L 821 -587 L 867 -604 L 907.5 -617.5 L 948 -631 L 982 -642 L 1016 -653 L 1043.5 -663 L 1071 -673 L 1091 -684 L 1170 -726 L 1216 -798 L 1223 -810 L 1230.5 -827.5 L 1238 -845 L 1247 -868.5 L 1256 -892 L 1267.5 -921.5 L 1279 -951 L 1294 -986 L 1295 -989 L 1298.5 -990 L 1302 -991 L 1306.5 -992 L 1311 -993 L 1315.5 -993.5 L 1320 -994 L 1324 -996 L 1336 -1003 L 1344 -1007.5 L 1352 -1012 L 1355 -1014 L 1367 -1020 L 1376 -1022.5 L 1385 -1025 L 1388 -1026 L 1401 -1026 L 1406 -1026 L 1411.5 -1025.5 L 1417 -1025 L 1422 -1023 L 1426 -1022 L 1431 -1021.5 L 1436 -1021 L 1440.5 -1020 L 1445 -1019 L 1450 -1017.5 L 1455 -1016 L 1458 -1012 L 1459 -1011 L 1458 -1009.5 L 1457 -1008 L 1454.5 -1006.5 L 1452 -1005 L 1449 -1004 L 1446 -1003 L 1444 -1001 L 1406 -975 L 1404 -969 L 1396 -935 L 1388.5 -911 L 1381 -887 L 1374 -867 L 1372 -861 L 1367 -852.5 L 1362 -844 L 1356.5 -835 L 1351 -826 L 1345 -817.5 L 1339 -809 L 1335 -804 L 1336 -804 L 1336 -804 L 1337 -804 L 1337 -804 L 1337 -805 L 1339 -805 L 1335 -800 L 1332 -797 L 1331 -796 L 1331 -796 L 1335 -804 L 1331 -802 L 1321.5 -795 L 1312 -788 L 1298 -777.5 L 1284 -767 L 1267.5 -755 L 1251 -743 L 1235 -729 L 1219 -717 L 1206.5 -707 L 1194 -697 L 1184 -688 L 1173 -679 L 1165.5 -672 L 1158 -665 L 1154 -661 L 1154 -660 L 1152 -659 L 1152 -659 L 1151 -658 L 1157 -660 L 1162 -662.5 L 1167 -665 L 1170 -667 L 1175 -670 L 1176 -670 L 1176 -670 L 1174 -668 L 1173 -667 L 1169.5 -665 L 1166 -663 L 1163 -661.5 L 1160 -660 L 1157 -659 L 1154 -658 L 1152 -658 L 1151 -658 L 1151 -658 L 1139 -652 L 1123 -645 L 1107 -638 L 1090.5 -631 L 1074 -624 L 1057.5 -618.5 L 1041 -613 L 1027 -611 L 1018 -610 L 1004.5 -609.5 L 991 -609 L 979 -608.5 L 967 -608 L 961.5 -607 L 956 -606 L 963 -603 L 971 -600 L 979.5 -599 L 988 -598 L 998 -598 L 1010 -598 L 1022.5 -599 L 1035 -600 L 1047 -600 L 1050 -600 L 1053 -599.5 L 1056 -599 L 1059 -599 L 1104 -596 L 1138 -570 L 1156 -556 L 1157 -551 L 1160 -543 L 1146 -543 L 1133 -543 L 1121.5 -544.5 L 1110 -546 L 1098 -548 L 1080 -551 L 1057.5 -553.5 L 1035 -556 L 1008 -560 L 981 -564 L 959 -566 L 937 -568 L 915 -568 L 911 -569 L 906.5 -569 L 902 -569 L 898 -569 L 884 -569 L 870.5 -568.5 L 857 -568 L 843 -567 L 840 -566 L 835.5 -564 L 831 -562 L 823 -562 L 818 -562 Z" fill="black" fill-opacity="0.25" stroke="black" stroke-width="4"/>
  <rect x="38" y="-463" width="1126" height="294" fill="none" stroke="red" stroke-width="10" /><rect x="1" y="-704" width="389.7" height="161" fill="none" stroke="red" stroke-width="10" /><rect x="316.6" y="-865" width="244.7" height="161" fill="none" stroke="red" stroke-width="10" /><rect x="433.2" y="-1026" width="213.8" height="161" fill="none" stroke="red" stroke-width="10" /><rect x="814" y="-704" width="388.7" height="161" fill="none" stroke="red" stroke-width="10" /><rect x="1128.6" y="-865" width="244.7" height="161" fill="none" stroke="red" stroke-width="10" /><rect x="1245.7" y="-1026" width="213.3" height="161" fill="none" stroke="red" stroke-width="10" />
</svg>
