<svg xmlns="http://www.w3.org/2000/svg"
  viewBox="0.0 -918.0 1240.0 799.0">
  <rect x="0.0" y="-918.0" width="1240.0" height="799.0" fill="white"/>
  <path d="M 50.0 -746.0 L 50.0 -774.0 L 64.0 -794.0 L 78.0 -814.0 L 100.0 -827.5 L 122.0 -841.0 L 149.5 -849.0 L 177.0 -857.0 L 205.5 -861.0 L 234.0 -865.0 L 260.5 -866.5 L 287.0 -868.0 L 307.0 -868.0 L 367.0 -868.0 L 424.0 -862.5 L 481.0 -857.0 L 538.0 -847.0 L 595.0 -837.0 L 651.0 -823.0 L 707.0 -809.0 L 764.0 -793.0 L 881.0 -760.0 L 1030.0 -662.0 L 1176.0 -566.0 L 1175.0 -524.0 L 1175.0 -505.0 L 1139.0 -505.0 L 1092.0 -505.0 L 1042.0 -511.5 L 992.0 -518.0 L 946.0 -529.0 L 957.0 -633.0 L 782.0 -716.0 L 614.0 -796.0 L 442.0 -796.0 L 425.0 -796.0 L 404.5 -794.5 L 384.0 -793.0 L 362.5 -789.0 L 341.0 -785.0 L 320.5 -778.0 L 300.0 -771.0 L 283.5 -759.5 L 267.0 -748.0 L 257.0 -731.5 L 247.0 -715.0 L 246.0 -693.0 L 245.0 -662.0 L 291.0 -625.0 L 351.0 -579.0 L 355.0 -579.0 L 216.0 -580.0 L 146.0 -608.0 L 99.0 -628.0 L 67.0 -677.0 L 50.0 -717.0 Z M 87.0 -454.0 L 100.0 -458.0 L 119.5 -459.5 L 139.0 -461.0 L 166.0 -461.0 L 187.0 -461.0 L 217.0 -460.5 L 247.0 -460.0 L 278.5 -457.5 L 310.0 -455.0 L 338.5 -450.0 L 367.0 -445.0 L 385.0 -436.0 L 387.0 -434.0 L 388.0 -432.0 L 389.0 -430.0 L 390.0 -428.0 L 391.0 -426.0 L 392.0 -425.0 L 384.0 -416.0 L 378.0 -417.0 L 370.5 -418.0 L 363.0 -419.0 L 354.0 -419.0 L 342.0 -419.0 L 331.5 -418.0 L 321.0 -417.0 L 311.0 -416.0 L 307.0 -416.0 L 303.0 -415.0 L 299.0 -414.0 L 299.0 -408.0 L 299.0 -392.0 L 329.0 -363.0 L 354.0 -338.0 L 390.5 -317.0 L 427.0 -296.0 L 470.0 -280.0 L 513.0 -264.0 L 559.5 -252.0 L 606.0 -240.0 L 651.5 -232.0 L 697.0 -224.0 L 738.5 -220.0 L 780.0 -216.0 L 813.0 -216.0 L 831.0 -216.0 L 853.0 -217.0 L 875.0 -218.0 L 897.0 -222.0 L 919.0 -226.0 L 940.5 -233.0 L 962.0 -240.0 L 978.5 -252.0 L 995.0 -264.0 L 1005.0 -281.0 L 1015.0 -298.0 L 1015.0 -322.0 L 1012.0 -349.0 L 1004.0 -391.0 L 918.0 -435.0 L 915.0 -439.0 L 913.5 -442.5 L 912.0 -446.0 L 909.0 -451.0 L 922.0 -454.0 L 935.5 -455.0 L 949.0 -456.0 L 967.0 -458.0 L 984.0 -460.0 L 995.5 -461.5 L 1007.0 -463.0 L 1020.0 -463.0 L 1060.0 -463.0 L 1090.0 -455.5 L 1120.0 -448.0 L 1143.0 -435.0 L 1151.0 -431.0 L 1159.0 -423.5 L 1167.0 -416.0 L 1174.0 -408.0 L 1190.0 -371.0 L 1190.0 -338.0 L 1190.0 -300.0 L 1171.0 -272.5 L 1152.0 -245.0 L 1121.5 -226.0 L 1091.0 -207.0 L 1053.0 -196.0 L 1015.0 -185.0 L 975.5 -179.0 L 936.0 -173.0 L 899.0 -171.0 L 862.0 -169.0 L 835.0 -169.0 L 765.0 -169.0 L 687.0 -178.0 L 609.0 -187.0 L 521.0 -205.0 L 453.0 -219.0 L 381.0 -243.5 L 309.0 -268.0 L 230.0 -305.0 L 63.0 -382.0 L 63.0 -429.0 L 64.0 -448.0 Z" fill="black" fill-opacity="0.25" stroke="black" stroke-width="4.0"/>
  <rect x="50.0" y="-868.0" width="1126.0" height="363.0" fill="none" stroke="red" stroke-width="10.0" /><rect x="63.0" y="-463.0" width="1127.0" height="294.00000000000006" fill="none" stroke="red" stroke-width="10.0" />
</svg>
