<svg xmlns="http://www.w3.org/2000/svg"
  viewBox="19.0 -1384.0 1558.5 1264.0">
  <rect x="19.0" y="-1384.0" width="1558.5" height="1264.0" fill="white"/>
  <path d="M 69.0 -430.0 L 69.0 -449.0 L 93.0 -455.0 L 118.0 -463.0 L 172.0 -462.0 L 193.0 -462.0 L 223.0 -461.5 L 253.0 -461.0 L 284.0 -458.5 L 315.0 -456.0 L 344.0 -451.0 L 373.0 -446.0 L 391.0 -438.0 L 393.0 -436.0 L 394.0 -433.5 L 395.0 -431.0 L 396.0 -429.0 L 397.0 -427.0 L 397.0 -426.0 L 390.0 -417.0 L 384.0 -418.0 L 376.5 -419.0 L 369.0 -420.0 L 360.0 -420.0 L 348.0 -420.0 L 337.5 -419.0 L 327.0 -418.0 L 316.0 -417.0 L 312.0 -417.0 L 308.5 -416.0 L 305.0 -415.0 L 305.0 -409.0 L 305.0 -393.0 L 335.0 -364.0 L 360.0 -339.0 L 396.5 -318.0 L 433.0 -297.0 L 476.0 -281.0 L 519.0 -265.0 L 565.5 -253.0 L 612.0 -241.0 L 657.5 -233.0 L 703.0 -225.0 L 744.5 -221.0 L 786.0 -217.0 L 819.0 -217.0 L 837.0 -217.0 L 858.5 -218.0 L 880.0 -219.0 L 902.5 -223.0 L 925.0 -227.0 L 946.5 -234.0 L 968.0 -241.0 L 984.5 -253.0 L 1001.0 -265.0 L 1011.0 -282.0 L 1021.0 -299.0 L 1021.0 -323.0 L 1018.0 -350.0 L 1010.0 -392.0 L 924.0 -436.0 L 921.0 -440.0 L 919.5 -443.5 L 918.0 -447.0 L 915.0 -452.0 L 928.0 -455.0 L 941.5 -456.0 L 955.0 -457.0 L 973.0 -459.0 L 990.0 -461.0 L 1001.5 -462.5 L 1013.0 -464.0 L 1025.0 -464.0 L 1065.0 -464.0 L 1095.0 -456.5 L 1125.0 -449.0 L 1149.0 -436.0 L 1157.0 -432.0 L 1164.5 -424.5 L 1172.0 -417.0 L 1180.0 -409.0 L 1196.0 -372.0 L 1196.0 -339.0 L 1196.0 -301.0 L 1177.5 -273.5 L 1159.0 -246.0 L 1128.5 -227.5 L 1098.0 -209.0 L 1059.5 -197.5 L 1021.0 -186.0 L 981.5 -180.0 L 942.0 -174.0 L 905.5 -172.0 L 869.0 -170.0 L 841.0 -170.0 L 770.0 -170.0 L 693.0 -179.0 L 616.0 -188.0 L 527.0 -206.0 L 459.0 -220.0 L 387.0 -245.0 L 315.0 -270.0 L 236.0 -306.0 L 69.0 -384.0 Z M 348.0 -870.0 L 343.0 -870.0 L 340.0 -877.0 L 340.0 -878.0 L 342.0 -879.0 L 343.0 -879.0 L 346.0 -880.0 L 348.0 -881.0 L 344.0 -887.0 L 340.0 -892.0 L 346.0 -895.0 L 392.0 -912.0 L 432.5 -925.0 L 473.0 -938.0 L 507.0 -949.0 L 541.0 -960.0 L 568.5 -970.0 L 596.0 -980.0 L 617.0 -991.0 L 696.0 -1033.0 L 742.0 -1105.0 L 749.0 -1117.0 L 756.5 -1134.5 L 764.0 -1152.0 L 772.5 -1175.5 L 781.0 -1199.0 L 792.5 -1228.5 L 804.0 -1258.0 L 820.0 -1293.0 L 821.0 -1296.0 L 824.5 -1297.0 L 828.0 -1298.0 L 832.0 -1298.5 L 836.0 -1299.0 L 840.5 -1300.0 L 845.0 -1301.0 L 850.0 -1304.0 L 862.0 -1311.0 L 869.5 -1315.0 L 877.0 -1319.0 L 881.0 -1321.0 L 893.0 -1327.0 L 902.0 -1329.5 L 911.0 -1332.0 L 914.0 -1334.0 L 927.0 -1334.0 L 932.0 -1334.0 L 937.0 -1333.5 L 942.0 -1333.0 L 948.0 -1331.0 L 952.0 -1330.0 L 956.5 -1329.0 L 961.0 -1328.0 L 966.0 -1327.5 L 971.0 -1327.0 L 975.5 -1325.0 L 980.0 -1323.0 L 984.0 -1319.0 L 985.0 -1318.0 L 983.5 -1316.5 L 982.0 -1315.0 L 979.5 -1314.0 L 977.0 -1313.0 L 974.0 -1311.5 L 971.0 -1310.0 L 970.0 -1309.0 L 932.0 -1283.0 L 929.0 -1276.0 L 921.0 -1242.0 L 914.0 -1218.0 L 907.0 -1194.0 L 899.0 -1174.0 L 897.0 -1168.0 L 892.5 -1159.5 L 888.0 -1151.0 L 882.0 -1142.0 L 876.0 -1133.0 L 870.5 -1124.5 L 865.0 -1116.0 L 861.0 -1111.0 L 861.0 -1111.0 L 863.0 -1111.0 L 865.0 -1111.0 L 860.0 -1107.0 L 856.0 -1103.0 L 856.0 -1103.0 L 861.0 -1111.0 L 857.0 -1109.0 L 846.5 -1102.0 L 836.0 -1095.0 L 822.5 -1085.0 L 809.0 -1075.0 L 793.0 -1062.5 L 777.0 -1050.0 L 761.0 -1037.0 L 745.0 -1025.0 L 732.5 -1014.5 L 720.0 -1004.0 L 709.0 -995.0 L 687.0 -977.0 L 679.0 -968.0 L 679.0 -967.0 L 678.0 -966.0 L 678.0 -966.0 L 677.0 -965.0 L 682.0 -967.0 L 686.5 -969.5 L 691.0 -972.0 L 695.0 -974.0 L 696.0 -975.0 L 697.5 -975.5 L 699.0 -976.0 L 700.0 -976.0 L 701.0 -976.0 L 701.0 -977.0 L 703.0 -977.0 L 692.0 -971.0 L 677.0 -963.0 L 677.0 -965.0 L 658.0 -956.0 L 639.0 -948.0 L 620.0 -940.0 L 601.0 -933.0 L 571.0 -921.0 L 553.0 -918.0 L 544.0 -917.0 L 530.0 -916.5 L 516.0 -916.0 L 504.5 -915.5 L 493.0 -915.0 L 487.0 -914.0 L 481.0 -913.0 L 489.0 -910.0 L 497.0 -907.0 L 505.0 -906.0 L 513.0 -905.0 L 522.0 -905.0 L 534.0 -905.0 L 546.5 -906.0 L 559.0 -907.0 L 571.0 -907.0 L 596.0 -907.0 L 619.5 -900.0 L 643.0 -893.0 L 664.0 -877.0 L 682.0 -863.0 L 682.0 -858.0 L 685.0 -850.0 L 671.0 -851.0 L 658.0 -851.0 L 647.0 -852.0 L 636.0 -853.0 L 623.0 -855.0 L 605.0 -858.0 L 582.5 -861.0 L 560.0 -864.0 L 534.0 -868.0 L 507.0 -872.0 L 484.5 -874.0 L 462.0 -876.0 L 440.0 -876.0 L 436.0 -877.0 L 432.0 -876.5 L 428.0 -876.0 L 424.0 -876.0 L 410.0 -876.0 L 396.0 -876.0 L 382.0 -876.0 L 368.0 -874.0 L 365.0 -873.0 L 360.5 -871.5 L 356.0 -870.0 Z M 892.0 -559.0 L 887.0 -559.0 L 884.0 -566.0 L 884.0 -567.0 L 885.0 -568.0 L 886.0 -568.0 L 890.0 -569.0 L 892.0 -570.0 L 887.0 -576.0 L 883.0 -581.0 L 890.0 -584.0 L 936.0 -601.0 L 976.5 -614.0 L 1017.0 -627.0 L 1050.5 -638.0 L 1084.0 -649.0 L 1112.0 -659.0 L 1140.0 -669.0 L 1160.0 -680.0 L 1239.0 -722.0 L 1285.0 -794.0 L 1292.0 -806.0 L 1299.5 -823.5 L 1307.0 -841.0 L 1316.0 -864.5 L 1325.0 -888.0 L 1336.5 -917.5 L 1348.0 -947.0 L 1363.0 -982.0 L 1364.0 -985.0 L 1368.0 -986.0 L 1372.0 -987.0 L 1375.5 -987.5 L 1379.0 -988.0 L 1384.0 -989.0 L 1389.0 -990.0 L 1393.0 -993.0 L 1405.0 -1000.0 L 1412.5 -1004.0 L 1420.0 -1008.0 L 1424.0 -1010.0 L 1436.0 -1016.0 L 1445.0 -1018.5 L 1454.0 -1021.0 L 1457.0 -1022.0 L 1470.0 -1022.0 L 1475.0 -1022.0 L 1480.5 -1022.0 L 1486.0 -1022.0 L 1491.0 -1020.0 L 1495.0 -1019.0 L 1499.5 -1018.0 L 1504.0 -1017.0 L 1509.0 -1016.5 L 1514.0 -1016.0 L 1518.5 -1014.0 L 1523.0 -1012.0 L 1527.0 -1008.0 L 1528.0 -1007.0 L 1527.0 -1005.5 L 1526.0 -1004.0 L 1523.5 -1002.5 L 1521.0 -1001.0 L 1518.0 -1000.0 L 1515.0 -999.0 L 1513.0 -998.0 L 1475.0 -972.0 L 1473.0 -965.0 L 1465.0 -931.0 L 1457.5 -907.0 L 1450.0 -883.0 L 1443.0 -863.0 L 1441.0 -857.0 L 1436.5 -848.5 L 1432.0 -840.0 L 1426.0 -831.0 L 1420.0 -822.0 L 1414.0 -813.5 L 1408.0 -805.0 L 1404.0 -800.0 L 1404.0 -800.0 L 1406.0 -800.0 L 1408.0 -800.0 L 1404.0 -796.0 L 1400.0 -792.0 L 1400.0 -792.0 L 1404.0 -800.0 L 1400.0 -798.0 L 1390.0 -791.0 L 1380.0 -784.0 L 1366.0 -774.0 L 1352.0 -764.0 L 1336.0 -751.5 L 1320.0 -739.0 L 1304.0 -726.0 L 1288.0 -714.0 L 1275.5 -703.5 L 1263.0 -693.0 L 1252.0 -684.0 L 1230.0 -666.0 L 1223.0 -657.0 L 1223.0 -656.0 L 1221.0 -655.0 L 1221.0 -655.0 L 1221.0 -654.0 L 1226.0 -656.0 L 1230.5 -658.5 L 1235.0 -661.0 L 1239.0 -663.0 L 1240.0 -664.0 L 1241.0 -664.5 L 1242.0 -665.0 L 1243.0 -665.0 L 1244.0 -665.0 L 1245.0 -666.0 L 1247.0 -666.0 L 1235.0 -660.0 L 1220.0 -652.0 L 1221.0 -654.0 L 1202.0 -645.0 L 1183.0 -637.0 L 1164.0 -629.0 L 1144.0 -622.0 L 1114.0 -610.0 L 1096.0 -607.0 L 1087.0 -606.0 L 1073.5 -605.5 L 1060.0 -605.0 L 1048.0 -604.5 L 1036.0 -604.0 L 1030.5 -603.0 L 1025.0 -602.0 L 1032.0 -599.0 L 1040.0 -596.0 L 1048.5 -595.0 L 1057.0 -594.0 L 1065.0 -594.0 L 1077.0 -594.0 L 1089.5 -595.0 L 1102.0 -596.0 L 1115.0 -596.0 L 1140.0 -596.0 L 1163.5 -589.0 L 1187.0 -582.0 L 1207.0 -566.0 L 1225.0 -552.0 L 1226.0 -547.0 L 1229.0 -539.0 L 1215.0 -540.0 L 1202.0 -540.0 L 1190.5 -541.0 L 1179.0 -542.0 L 1167.0 -544.0 L 1149.0 -547.0 L 1126.5 -550.0 L 1104.0 -553.0 L 1077.0 -557.0 L 1050.0 -561.0 L 1027.5 -562.5 L 1005.0 -564.0 L 983.0 -564.0 L 979.0 -565.0 L 975.0 -565.0 L 971.0 -565.0 L 967.0 -565.0 L 953.0 -565.0 L 939.5 -564.5 L 926.0 -564.0 L 912.0 -563.0 L 909.0 -562.0 L 904.5 -560.5 L 900.0 -559.0 Z M 342.0 -762.0 L 345.0 -766.0 L 364.0 -767.0 L 380.0 -767.0 L 411.0 -762.0 L 427.0 -760.0 L 436.5 -759.0 L 446.0 -758.0 L 453.0 -757.0 L 516.0 -748.0 L 532.0 -661.0 L 542.0 -608.0 L 553.0 -593.0 L 561.0 -579.0 L 581.0 -578.0 L 586.0 -577.0 L 593.0 -576.0 L 596.0 -576.0 L 598.0 -575.0 L 597.0 -568.0 L 591.0 -563.5 L 585.0 -559.0 L 576.5 -556.0 L 568.0 -553.0 L 560.0 -552.0 L 552.0 -551.0 L 546.0 -551.0 L 527.0 -551.0 L 505.5 -556.5 L 484.0 -562.0 L 458.0 -571.0 L 407.0 -590.0 L 389.0 -701.0 L 383.0 -749.0 L 359.0 -750.0 L 346.0 -750.0 L 338.0 -750.0 L 337.0 -751.0 L 336.0 -753.0 Z M 563.0 -764.0 L 563.0 -769.0 L 577.0 -769.0 L 581.0 -769.0 L 588.0 -769.0 L 598.5 -767.5 L 609.0 -766.0 L 623.0 -764.0 L 638.0 -762.0 L 646.5 -760.0 L 655.0 -758.0 L 662.0 -757.0 L 725.0 -747.0 L 743.0 -661.0 L 753.0 -610.0 L 764.0 -593.0 L 769.0 -584.0 L 790.0 -579.0 L 808.0 -575.0 L 807.0 -575.0 L 807.0 -572.0 L 806.5 -572.5 L 806.0 -573.0 L 803.0 -567.0 L 796.0 -553.0 L 757.0 -553.0 L 738.0 -553.0 L 716.5 -558.0 L 695.0 -563.0 L 668.0 -573.0 L 617.0 -592.0 L 600.0 -706.0 L 593.0 -753.0 L 580.0 -753.0 L 580.0 -753.0 L 579.0 -753.0 L 578.0 -753.0 L 578.0 -753.0 L 577.0 -753.0 L 572.0 -752.0 L 562.0 -753.0 Z" fill="black" fill-opacity="0.25" stroke="black" stroke-width="4.0"/>
  <rect x="69.0" y="-464.0" width="1127.0" height="294.00000000000006" fill="none" stroke="red" stroke-width="10.0" /><rect x="336.0" y="-767.0" width="261.99999999999994" height="215.99999999999997" fill="none" stroke="red" stroke-width="10.0" /><rect x="562.0" y="-769.0" width="246.0" height="215.99999999999997" fill="none" stroke="red" stroke-width="10.0" /><rect x="340.0" y="-1011.9" width="389.40000000000003" height="161.00000000000003" fill="none" stroke="red" stroke-width="10.0" /><rect x="656.4" y="-1173.0" width="242.30000000000007" height="161.10000000000002" fill="none" stroke="red" stroke-width="10.0" /><rect x="771.5999999999999" y="-1334.0" width="213.40000000000003" height="161.00000000000003" fill="none" stroke="red" stroke-width="10.0" /><rect x="883.0" y="-700.6" width="389.0" height="160.69999999999996" fill="none" stroke="red" stroke-width="10.0" /><rect x="1198.7" y="-861.3" width="243.69999999999982" height="160.69999999999996" fill="none" stroke="red" stroke-width="10.0" /><rect x="1314.8" y="-1022.0" width="213.20000000000005" height="160.70000000000007" fill="none" stroke="red" stroke-width="10.0" />
</svg>
