<svg xmlns="http://www.w3.org/2000/svg"
  viewBox="2 -1330 1226.059 1208">
  <rect x="2" y="-1330" width="1226.059" height="1208" fill="white"/>
  <path d="M 52 -432 L 52 -451 L 75 -457 L 100 -465 L 154 -464 L 175 -464 L 205 -463.5 L 235 -463 L 266.5 -460.5 L 298 -458 L 326.5 -453 L 355 -448 L 374 -440 L 376 -438 L 376.5 -435.5 L 377 -433 L 378 -431 L 379 -429 L 380 -428 L 372 -419 L 366 -420 L 359 -421 L 352 -422 L 342 -422 L 330 -422 L 320 -421.5 L 310 -421 L 299 -419 L 295 -419 L 291.5 -418 L 288 -417 L 288 -411 L 288 -395 L 317 -366 L 342 -341 L 378.5 -320 L 415 -299 L 458 -283 L 501 -267 L 547.5 -255 L 594 -243 L 639.5 -235 L 685 -227 L 727 -223 L 769 -219 L 802 -219 L 820 -219 L 841.5 -220 L 863 -221 L 885.5 -225 L 908 -229 L 929 -236 L 950 -243 L 966.5 -255 L 983 -267 L 993 -284 L 1003 -301 L 1003 -325 L 1000 -352 L 992 -394 L 906 -438 L 903 -442 L 901.5 -445.5 L 900 -449 L 897 -454 L 910 -457 L 924 -458 L 938 -459 L 955 -462 L 972 -464 L 984 -465 L 996 -466 L 1008 -466 L 1048 -466 L 1078 -458.5 L 1108 -451 L 1131 -438 L 1139 -434 L 1147 -426.5 L 1155 -419 L 1163 -411 L 1179 -374 L 1178 -341 L 1178 -303 L 1159.5 -275.5 L 1141 -248 L 1111 -229.5 L 1081 -211 L 1042 -199.5 L 1003 -188 L 964 -182 L 925 -176 L 888 -174 L 851 -172 L 824 -172 L 753 -172 L 675.5 -181 L 598 -190 L 510 -208 L 442 -222 L 370 -247 L 298 -272 L 219 -308 L 52 -386 Z M 339 -824 L 339 -825 L 341 -825 L 342 -825 L 345 -827 L 347 -828 L 343 -834 L 339 -839 L 345 -841 L 391 -858 L 431.5 -871 L 472 -884 L 506 -895.5 L 540 -907 L 567.5 -917 L 595 -927 L 616 -938 L 696 -979 L 741 -1052 L 748 -1064 L 755.5 -1081.5 L 763 -1099 L 771.5 -1122.5 L 780 -1146 L 791.5 -1175 L 803 -1204 L 819 -1239 L 820 -1242 L 823.5 -1243.5 L 827 -1245 L 831 -1245.5 L 835 -1246 L 840 -1247 L 845 -1248 L 849 -1250 L 861 -1257 L 868.5 -1261 L 876 -1265 L 880 -1267 L 892 -1273 L 901 -1275.5 L 910 -1278 L 913 -1280 L 926 -1280 L 931 -1280 L 936 -1279.5 L 941 -1279 L 947 -1277 L 951 -1276 L 955.5 -1275.5 L 960 -1275 L 965 -1274 L 970 -1273 L 974.5 -1271.5 L 979 -1270 L 983 -1266 L 984 -1265 L 983 -1263 L 982 -1261 L 979.5 -1260 L 977 -1259 L 974 -1257.5 L 971 -1256 L 969 -1255 L 932 -1229 L 928 -1222 L 920 -1188 L 913 -1164 L 906 -1140 L 898 -1121 L 896 -1115 L 891.5 -1106.5 L 887 -1098 L 881 -1089 L 875 -1080 L 869.5 -1071.5 L 864 -1063 L 860 -1057 L 860 -1057 L 862 -1058 L 864 -1058 L 859 -1053 L 855 -1049 L 855 -1049 L 860 -1057 L 856 -1055 L 845.5 -1048.5 L 835 -1042 L 821.5 -1031.5 L 808 -1021 L 792 -1008.5 L 776 -996 L 760 -983 L 744 -971 L 731.5 -960.5 L 719 -950 L 708 -942 L 697 -933 L 689.5 -926 L 682 -919 L 678 -915 L 678 -914 L 676 -913 L 676 -913 L 676 -912 L 682 -914 L 686.5 -916.5 L 691 -919 L 695 -921 L 700 -924 L 701 -923 L 701 -923 L 698 -922 L 697 -921 L 693.5 -919 L 690 -917 L 687 -915.5 L 684 -914 L 681 -912.5 L 678 -911 L 677 -911 L 676 -911 L 676 -912 L 664 -906 L 648 -898.5 L 632 -891 L 615 -884.5 L 598 -878 L 581.5 -872.5 L 565 -867 L 552 -864 L 543 -863 L 529 -862.5 L 515 -862 L 503.5 -861.5 L 492 -861 L 486.5 -860 L 481 -859 L 488 -857 L 496 -854 L 504.5 -853 L 513 -852 L 521 -852 L 533 -852 L 545.5 -853 L 558 -854 L 570 -854 L 595 -854 L 618.5 -846.5 L 642 -839 L 663 -824 L 681 -810 L 681 -805 L 684 -797 L 670 -797 L 657 -797 L 646 -798 L 635 -799 L 622 -802 L 604 -805 L 581.5 -807.5 L 559 -810 L 533 -814 L 506 -818 L 483.5 -820 L 461 -822 L 439 -822 L 435 -823 L 431 -823 L 427 -823 L 423 -823 L 409 -823 L 395 -822.5 L 381 -822 L 367 -820 L 364 -819 L 359.5 -817.5 L 355 -816 L 347 -816 L 342 -816 Z M 476 -705 L 476 -710 L 489 -710 L 493 -710 L 500 -710 L 510.5 -709 L 521 -708 L 535 -705 L 550 -703 L 558.5 -701.5 L 567 -700 L 574 -699 L 637 -689 L 655 -602 L 666 -551 L 676 -535 L 681 -526 L 702 -521 L 720 -517 L 719 -516 L 719 -513 L 718.5 -513.5 L 718 -514 L 715 -508 L 708 -494 L 669 -494 L 650 -494 L 628.5 -499.5 L 607 -505 L 581 -515 L 530 -534 L 512 -648 L 505 -695 L 492 -695 L 492 -695 L 491 -694.5 L 490 -694 L 490 -694 L 489 -694 L 484 -694 L 475 -694 Z" fill="black" fill-opacity="0.25" stroke="black" stroke-width="4"/>
  <rect x="52" y="-466" width="1127" height="294" fill="none" stroke="red" stroke-width="10" /><rect x="475" y="-710" width="245" height="216" fill="none" stroke="red" stroke-width="10" /><rect x="339" y="-958" width="389.5" height="161" fill="none" stroke="red" stroke-width="10" /><rect x="655" y="-1119" width="242.3" height="161" fill="none" stroke="red" stroke-width="10" /><rect x="770.2" y="-1280" width="213.8" height="161" fill="none" stroke="red" stroke-width="10" />
</svg>
