<svg xmlns="http://www.w3.org/2000/svg"
  viewBox="18.0 -509.0 1226.0588235294117 394.0">
  <rect x="18.0" y="-509.0" width="1226.0588235294117" height="394.0" fill="white"/>
  <path d="M 1179.0 -404.0 L 1195.0 -368.0 L 1194.0 -334.0 L 1194.0 -250.0 L 1098.0 -208.0 L 999.0 -166.0 L 840.0 -165.0 L 701.0 -165.0 L 526.0 -201.0 L 392.0 -228.0 L 235.0 -301.0 L 68.0 -379.0 L 68.0 -424.0 L 68.0 -443.0 L 91.0 -450.0 L 119.0 -458.0 L 179.0 -458.0 L 212.0 -458.0 L 244.0 -456.5 L 276.0 -455.0 L 307.0 -451.0 L 367.0 -444.0 L 390.0 -432.0 L 396.0 -421.0 L 396.0 -422.0 L 388.0 -412.0 L 382.0 -413.0 L 375.0 -414.0 L 368.0 -415.0 L 359.0 -415.0 L 346.0 -415.0 L 336.0 -414.5 L 326.0 -414.0 L 315.0 -412.0 L 304.0 -413.0 L 304.0 -404.0 L 304.0 -388.0 L 334.0 -359.0 L 351.0 -342.0 L 371.0 -327.5 L 391.0 -313.0 L 416.0 -301.0 L 460.0 -280.0 L 507.5 -265.0 L 555.0 -250.0 L 610.0 -237.0 L 716.0 -212.0 L 818.0 -212.0 L 915.0 -212.0 L 965.0 -237.0 L 1020.0 -264.0 L 1020.0 -319.0 L 1016.0 -345.0 L 1008.0 -387.0 L 922.0 -431.0 L 919.0 -436.0 L 917.5 -439.0 L 916.0 -442.0 L 913.0 -446.0 L 926.0 -449.0 L 940.0 -450.5 L 954.0 -452.0 L 971.0 -454.0 L 989.0 -456.0 L 1000.5 -457.5 L 1012.0 -459.0 L 1024.0 -459.0 L 1063.0 -459.0 L 1093.5 -451.5 L 1124.0 -444.0 L 1148.0 -431.0 L 1156.0 -427.0 L 1163.5 -419.5 L 1171.0 -412.0 Z" fill="black" fill-opacity="0.25" stroke="black" stroke-width="4.0"/>
  <rect x="68.0" y="-459.0" width="1127.0" height="294.00000000000006" fill="none" stroke="red" stroke-width="10.0" />
</svg>
