<svg xmlns="http://www.w3.org/2000/svg"
  viewBox="6 -1088.167 1228 967.167">
  <rect x="6" y="-1088.167" width="1228" height="967.167" fill="white"/>
  <path d="M 794 -808 L 788 -796 L 782 -777.5 L 776 -759 L 770 -734 L 907 -727 L 1138 -718 L 1184 -673 L 1042 -673 L 935.5 -673 L 829 -673 L 749 -674 L 732 -636 L 704 -607 L 693 -593 L 660 -584 L 643 -579 L 628 -577.5 L 613 -576 L 599 -576 L 576 -576 L 568 -579 L 554 -585 L 563 -593 L 588 -629 L 604 -679 L 591 -679 L 391 -688 L 293 -737 L 209 -776 L 107 -901 L 99 -915 L 95 -941 L 82 -1015 L 77 -1024 L 109 -1028 L 146 -1034 L 184 -1039 L 199 -1038 L 242 -1038 L 271 -1019 L 278 -1014 L 279 -995 L 276 -949 L 276 -935 L 280 -929 L 372 -798 L 583 -756 L 591 -753 L 601.5 -752 L 612 -751 L 624 -749 L 629 -765 L 634 -777 L 639 -789 L 645 -801 L 654 -818 L 682 -818 L 743 -812 L 756 -811 L 768.5 -809.5 L 781 -808 Z M 1167 -411 L 1183 -375 L 1182 -340 L 1182 -256 L 1085 -214 L 987 -172 L 828 -171 L 689 -171 L 513 -207 L 378 -235 L 223 -308 L 56 -386 L 56 -431 L 56 -450 L 79 -456 L 106 -464 L 167 -464 L 200 -464 L 231.5 -462.5 L 263 -461 L 294 -457 L 354 -450 L 377 -438 L 383 -427 L 384 -428 L 376 -418 L 370 -419 L 362.5 -420 L 355 -421 L 346 -421 L 333 -421 L 323 -420.5 L 313 -420 L 302 -418 L 291 -419 L 292 -411 L 292 -395 L 321 -365 L 338 -348 L 358.5 -333.5 L 379 -319 L 404 -308 L 448 -287 L 495 -271.5 L 542 -256 L 598 -243 L 704 -218 L 806 -218 L 903 -218 L 953 -243 L 1008 -271 L 1007 -325 L 1004 -351 L 996 -393 L 910 -437 L 907 -442 L 905.5 -445 L 904 -448 L 901 -453 L 914 -456 L 927.5 -457 L 941 -458 L 958 -460 L 976 -462 L 988 -463.5 L 1000 -465 L 1012 -465 L 1051 -465 L 1081.5 -457.5 L 1112 -450 L 1135 -437 L 1143 -433 L 1151 -426 L 1159 -419 Z" fill="black" fill-opacity="0.25" stroke="black" stroke-width="4"/>
  <rect x="77" y="-1039" width="1107" height="463" fill="none" stroke="red" stroke-width="10" /><rect x="56" y="-465" width="1127" height="294" fill="none" stroke="red" stroke-width="10" />
</svg>
