<svg xmlns="http://www.w3.org/2000/svg"
  viewBox="-12 -1057 1514.5 935">
  <rect x="-12" y="-1057" width="1514.5" height="935" fill="white"/>
  <path d="M 52 -432 L 52 -451 L 75 -457 L 100 -465 L 154 -464 L 175 -464 L 205 -463.5 L 235 -463 L 266.5 -460.5 L 298 -458 L 326.5 -453 L 355 -448 L 374 -440 L 376 -438 L 376.5 -435.5 L 377 -433 L 378 -431 L 379 -429 L 380 -428 L 372 -419 L 366 -420 L 359 -421 L 352 -422 L 342 -422 L 330 -422 L 320 -421.5 L 310 -421 L 299 -419 L 295 -419 L 291.5 -418 L 288 -417 L 288 -411 L 288 -395 L 317 -366 L 342 -341 L 378.5 -320 L 415 -299 L 458 -283 L 501 -267 L 547.5 -255 L 594 -243 L 639.5 -235 L 685 -227 L 727 -223 L 769 -219 L 802 -219 L 820 -219 L 841.5 -220 L 863 -221 L 885.5 -225 L 908 -229 L 929 -236 L 950 -243 L 966.5 -255 L 983 -267 L 993 -284 L 1003 -301 L 1003 -325 L 1000 -352 L 992 -394 L 906 -438 L 903 -442 L 901.5 -445.5 L 900 -449 L 897 -454 L 910 -457 L 924 -458 L 938 -459 L 955 -462 L 972 -464 L 984 -465 L 996 -466 L 1008 -466 L 1048 -466 L 1078 -458.5 L 1108 -451 L 1131 -438 L 1139 -434 L 1147 -426.5 L 1155 -419 L 1163 -411 L 1179 -374 L 1178 -341 L 1178 -303 L 1159.5 -275.5 L 1141 -248 L 1111 -229.5 L 1081 -211 L 1042 -199.5 L 1003 -188 L 964 -182 L 925 -176 L 888 -174 L 851 -172 L 824 -172 L 753 -172 L 675.5 -181 L 598 -190 L 510 -208 L 442 -222 L 370 -247 L 298 -272 L 219 -308 L 52 -386 Z M 45 -541 L 40 -541 L 38 -549 L 38 -550 L 39 -550 L 40 -550 L 43 -552 L 45 -553 L 41 -559 L 37 -564 L 43 -566 L 89 -583 L 129.5 -596 L 170 -609 L 204 -620.5 L 238 -632 L 265.5 -642 L 293 -652 L 314 -663 L 394 -704 L 439 -777 L 446 -789 L 453.5 -806.5 L 461 -824 L 470 -847.5 L 479 -871 L 490 -900 L 501 -929 L 517 -964 L 518 -967 L 521.5 -968.5 L 525 -970 L 529.5 -970.5 L 534 -971 L 538.5 -972 L 543 -973 L 547 -975 L 559 -982 L 566.5 -986 L 574 -990 L 578 -992 L 590 -998 L 599 -1001 L 608 -1004 L 611 -1005 L 624 -1005 L 629 -1005 L 634.5 -1004.5 L 640 -1004 L 645 -1002 L 649 -1001 L 653.5 -1000.5 L 658 -1000 L 663 -999 L 668 -998 L 672.5 -996.5 L 677 -995 L 681 -991 L 682 -990 L 681 -988 L 680 -986 L 677.5 -985 L 675 -984 L 672 -983 L 669 -982 L 667 -980 L 630 -954 L 626 -947 L 618 -913 L 611 -889 L 604 -865 L 597 -846 L 595 -840 L 590 -831.5 L 585 -823 L 579.5 -814 L 574 -805 L 568 -796.5 L 562 -788 L 558 -782 L 558 -782 L 560 -783 L 562 -783 L 558 -778 L 554 -775 L 554 -775 L 558 -782 L 554 -780 L 544 -773.5 L 534 -767 L 520 -756.5 L 506 -746 L 490 -733.5 L 474 -721 L 458 -708 L 442 -696 L 429.5 -685.5 L 417 -675 L 406 -667 L 395 -658 L 387.5 -651 L 380 -644 L 376 -640 L 376 -639 L 375 -638 L 375 -638 L 374 -637 L 380 -639 L 384.5 -641.5 L 389 -644 L 393 -646 L 398 -649 L 399 -649 L 399 -649 L 396 -647 L 395 -646 L 392 -644 L 389 -642 L 385.5 -640.5 L 382 -639 L 379 -637.5 L 376 -636 L 375 -636 L 374 -636 L 374 -637 L 362 -631 L 346 -623.5 L 330 -616 L 313 -609.5 L 296 -603 L 279.5 -597.5 L 263 -592 L 250 -589 L 241 -588 L 227 -587.5 L 213 -587 L 201.5 -586.5 L 190 -586 L 184.5 -585 L 179 -584 L 186 -582 L 194 -579 L 202.5 -578 L 211 -577 L 220 -577 L 232 -577 L 244 -578 L 256 -579 L 269 -579 L 294 -579 L 317 -572 L 340 -565 L 361 -549 L 379 -535 L 379 -530 L 382 -522 L 369 -522 L 356 -522 L 344.5 -523.5 L 333 -525 L 320 -527 L 302 -530 L 279.5 -532.5 L 257 -535 L 231 -539 L 204 -543 L 181.5 -545 L 159 -547 L 137 -547 L 133 -548 L 129 -548 L 125 -548 L 121 -548 L 107 -548 L 93.5 -547.5 L 80 -547 L 65 -546 L 62 -545 L 57.5 -543 L 53 -541 Z M 808 -551 L 808 -552 L 810 -552 L 811 -552 L 814 -554 L 816 -555 L 812 -561 L 808 -566 L 814 -568 L 860 -585 L 900.5 -598 L 941 -611 L 975 -622.5 L 1009 -634 L 1036.5 -644 L 1064 -654 L 1084 -665 L 1164 -706 L 1209 -779 L 1216 -791 L 1223.5 -808.5 L 1231 -826 L 1240 -849.5 L 1249 -873 L 1260.5 -902 L 1272 -931 L 1288 -966 L 1289 -969 L 1292.5 -970.5 L 1296 -972 L 1300 -972.5 L 1304 -973 L 1308.5 -974 L 1313 -975 L 1317 -977 L 1329 -984 L 1337 -988 L 1345 -992 L 1349 -994 L 1361 -1000 L 1369.5 -1002.5 L 1378 -1005 L 1381 -1007 L 1395 -1007 L 1400 -1007 L 1405 -1006.5 L 1410 -1006 L 1416 -1004 L 1420 -1003 L 1424.5 -1002.5 L 1429 -1002 L 1433.5 -1001 L 1438 -1000 L 1443 -998.5 L 1448 -997 L 1452 -993 L 1453 -992 L 1452 -990 L 1451 -988 L 1448 -987 L 1445 -986 L 1442 -985 L 1440 -984 L 1438 -982 L 1401 -956 L 1397 -949 L 1389 -915 L 1382 -891 L 1375 -867 L 1367 -848 L 1365 -842 L 1360.5 -833.5 L 1356 -825 L 1350 -816 L 1344 -807 L 1338.5 -798.5 L 1333 -790 L 1329 -784 L 1329 -784 L 1331 -785 L 1333 -785 L 1328 -780 L 1324 -776 L 1324 -776 L 1329 -784 L 1325 -782 L 1314.5 -775.5 L 1304 -769 L 1290 -758.5 L 1276 -748 L 1260.5 -735.5 L 1245 -723 L 1229 -710 L 1213 -698 L 1200.5 -687.5 L 1188 -677 L 1177 -669 L 1166 -660 L 1158.5 -653 L 1151 -646 L 1147 -642 L 1147 -641 L 1145 -640 L 1145 -640 L 1145 -639 L 1151 -641 L 1155.5 -643.5 L 1160 -646 L 1164 -648 L 1169 -651 L 1169 -651 L 1169 -651 L 1167 -649 L 1166 -648 L 1162.5 -646 L 1159 -644 L 1156 -642.5 L 1153 -641 L 1150 -639.5 L 1147 -638 L 1146 -638 L 1145 -638 L 1145 -639 L 1133 -633 L 1117 -625.5 L 1101 -618 L 1084 -611.5 L 1067 -605 L 1050.5 -599.5 L 1034 -594 L 1021 -591 L 1012 -590 L 998 -589.5 L 984 -589 L 972.5 -588.5 L 961 -588 L 955.5 -587 L 950 -586 L 957 -584 L 965 -581 L 973 -580 L 981 -579 L 990 -579 L 1002 -579 L 1014 -580 L 1026 -581 L 1039 -581 L 1064 -581 L 1087.5 -574 L 1111 -567 L 1131 -551 L 1149 -537 L 1150 -532 L 1153 -524 L 1139 -524 L 1126 -524 L 1115 -525 L 1104 -526 L 1091 -529 L 1073 -532 L 1050.5 -534.5 L 1028 -537 L 1001 -541 L 974 -545 L 952 -547 L 930 -549 L 908 -549 L 904 -550 L 900 -550 L 896 -550 L 892 -550 L 878 -550 L 864 -549.5 L 850 -549 L 836 -547 L 833 -546 L 828.5 -544.5 L 824 -543 L 816 -543 L 811 -543 Z M 424 -549 L 424 -550 L 425 -551 L 426 -551 L 430 -552 L 432 -553 L 427 -559 L 423 -564 L 430 -567 L 476 -584 L 516.5 -597 L 557 -610 L 591 -621 L 625 -632 L 652.5 -642 L 680 -652 L 700 -663 L 780 -704 L 825 -777 L 832 -789 L 839.5 -806.5 L 847 -824 L 856 -847.5 L 865 -871 L 876.5 -900.5 L 888 -930 L 903 -965 L 904 -968 L 908 -969 L 912 -970 L 916 -971 L 920 -972 L 924.5 -972.5 L 929 -973 L 933 -976 L 945 -983 L 952.5 -987 L 960 -991 L 964 -993 L 976 -999 L 985 -1001.5 L 994 -1004 L 997 -1005 L 1010 -1005 L 1015 -1005 L 1020.5 -1005 L 1026 -1005 L 1031 -1003 L 1035 -1002 L 1039.5 -1001 L 1044 -1000 L 1049 -999.5 L 1054 -999 L 1058.5 -997 L 1063 -995 L 1067 -991 L 1068 -990 L 1067 -988.5 L 1066 -987 L 1063.5 -985.5 L 1061 -984 L 1058 -983 L 1055 -982 L 1053 -981 L 1016 -955 L 1013 -948 L 1005 -914 L 997.5 -890 L 990 -866 L 983 -846 L 981 -840 L 976.5 -831.5 L 972 -823 L 966 -814 L 960 -805 L 954 -796.5 L 948 -788 L 944 -783 L 944 -783 L 946 -783 L 948 -783 L 944 -779 L 940 -775 L 940 -775 L 944 -783 L 940 -781 L 930 -774 L 920 -767 L 906 -757 L 892 -747 L 876 -734.5 L 860 -722 L 844 -709 L 828 -697 L 815.5 -686.5 L 803 -676 L 792 -667 L 781 -658 L 774 -651.5 L 767 -645 L 763 -641 L 763 -640 L 761 -638 L 761 -638 L 760 -637 L 766 -639 L 770.5 -641.5 L 775 -644 L 779 -646 L 784 -649 L 785 -649 L 785 -649 L 783 -648 L 782 -647 L 778.5 -645 L 775 -643 L 772 -641 L 769 -639 L 766 -638 L 763 -637 L 761 -637 L 760 -637 L 760 -637 L 748 -631 L 732 -624 L 716 -617 L 699.5 -610 L 683 -603 L 666 -597.5 L 649 -592 L 636 -590 L 627 -589 L 613.5 -588.5 L 600 -588 L 588.5 -587.5 L 577 -587 L 571 -586 L 565 -585 L 572 -582 L 580 -579 L 588.5 -578 L 597 -577 L 606 -577 L 618 -577 L 630 -578 L 642 -579 L 655 -579 L 680 -579 L 703.5 -572 L 727 -565 L 747 -549 L 765 -535 L 766 -530 L 769 -522 L 755 -523 L 742 -523 L 730.5 -524 L 719 -525 L 707 -527 L 689 -530 L 666.5 -533 L 644 -536 L 617 -540 L 590 -544 L 567.5 -545.5 L 545 -547 L 523 -547 L 519 -548 L 515 -548 L 511 -548 L 507 -548 L 493 -548 L 479.5 -547.5 L 466 -547 L 452 -546 L 449 -545 L 444 -543.5 L 439 -542 L 432 -542 L 427 -541 Z" fill="black" fill-opacity="0.25" stroke="black" stroke-width="4"/>
  <rect x="52" y="-466" width="1127" height="294" fill="none" stroke="red" stroke-width="10" /><rect x="37" y="-683" width="389.5" height="161" fill="none" stroke="red" stroke-width="10" /><rect x="353" y="-844" width="243.3" height="161" fill="none" stroke="red" stroke-width="10" /><rect x="468.7" y="-1005" width="213.3" height="161" fill="none" stroke="red" stroke-width="10" /><rect x="808" y="-685" width="389.5" height="161" fill="none" stroke="red" stroke-width="10" /><rect x="1123" y="-846" width="243.3" height="161" fill="none" stroke="red" stroke-width="10" /><rect x="1238.7" y="-1007" width="214.3" height="161" fill="none" stroke="red" stroke-width="10" /><rect x="423" y="-683.6" width="389" height="160.7" fill="none" stroke="red" stroke-width="10" /><rect x="740.2" y="-844.3" width="242.2" height="160.7" fill="none" stroke="red" stroke-width="10" /><rect x="854.8" y="-1005" width="213.2" height="160.7" fill="none" stroke="red" stroke-width="10" />
</svg>
