<svg xmlns="http://www.w3.org/2000/svg"
  viewBox="6.0 -1088.1666666666667 1228.0 967.1666666666667">
  <rect x="6.0" y="-1088.1666666666667" width="1228.0" height="967.1666666666667" fill="white"/>
  <path d="M 794.0 -808.0 L 788.0 -796.0 L 782.0 -777.5 L 776.0 -759.0 L 770.0 -734.0 L 907.0 -727.0 L 1138.0 -718.0 L 1184.0 -673.0 L 1042.0 -673.0 L 935.5 -673.0 L 829.0 -673.0 L 749.0 -674.0 L 732.0 -636.0 L 704.0 -607.0 L 693.0 -593.0 L 660.0 -584.0 L 643.0 -579.0 L 628.0 -577.5 L 613.0 -576.0 L 599.0 -576.0 L 576.0 -576.0 L 568.0 -579.0 L 554.0 -585.0 L 563.0 -593.0 L 588.0 -629.0 L 604.0 -679.0 L 591.0 -679.0 L 391.0 -688.0 L 293.0 -737.0 L 209.0 -776.0 L 107.0 -901.0 L 99.0 -915.0 L 95.0 -941.0 L 82.0 -1015.0 L 77.0 -1024.0 L 109.0 -1028.0 L 146.0 -1034.0 L 184.0 -1039.0 L 199.0 -1038.0 L 242.0 -1038.0 L 271.0 -1019.0 L 278.0 -1014.0 L 279.0 -995.0 L 276.0 -949.0 L 276.0 -935.0 L 280.0 -929.0 L 372.0 -798.0 L 583.0 -756.0 L 591.0 -753.0 L 601.5 -752.0 L 612.0 -751.0 L 624.0 -749.0 L 629.0 -765.0 L 634.0 -777.0 L 639.0 -789.0 L 645.0 -801.0 L 654.0 -818.0 L 682.0 -818.0 L 743.0 -812.0 L 756.0 -811.0 L 768.5 -809.5 L 781.0 -808.0 Z M 1167.0 -411.0 L 1183.0 -375.0 L 1182.0 -340.0 L 1182.0 -256.0 L 1085.0 -214.0 L 987.0 -172.0 L 828.0 -171.0 L 689.0 -171.0 L 513.0 -207.0 L 378.0 -235.0 L 223.0 -308.0 L 56.0 -386.0 L 56.0 -431.0 L 56.0 -450.0 L 79.0 -456.0 L 106.0 -464.0 L 167.0 -464.0 L 200.0 -464.0 L 231.5 -462.5 L 263.0 -461.0 L 294.0 -457.0 L 354.0 -450.0 L 377.0 -438.0 L 383.0 -427.0 L 384.0 -428.0 L 376.0 -418.0 L 370.0 -419.0 L 362.5 -420.0 L 355.0 -421.0 L 346.0 -421.0 L 333.0 -421.0 L 323.0 -420.5 L 313.0 -420.0 L 302.0 -418.0 L 291.0 -419.0 L 292.0 -411.0 L 292.0 -395.0 L 321.0 -365.0 L 338.0 -348.0 L 358.5 -333.5 L 379.0 -319.0 L 404.0 -308.0 L 448.0 -287.0 L 495.0 -271.5 L 542.0 -256.0 L 598.0 -243.0 L 704.0 -218.0 L 806.0 -218.0 L 903.0 -218.0 L 953.0 -243.0 L 1008.0 -271.0 L 1007.0 -325.0 L 1004.0 -351.0 L 996.0 -393.0 L 910.0 -437.0 L 907.0 -442.0 L 905.5 -445.0 L 904.0 -448.0 L 901.0 -453.0 L 914.0 -456.0 L 927.5 -457.0 L 941.0 -458.0 L 958.0 -460.0 L 976.0 -462.0 L 988.0 -463.5 L 1000.0 -465.0 L 1012.0 -465.0 L 1051.0 -465.0 L 1081.5 -457.5 L 1112.0 -450.0 L 1135.0 -437.0 L 1143.0 -433.0 L 1151.0 -426.0 L 1159.0 -419.0 Z" fill="black" fill-opacity="0.25" stroke="black" stroke-width="4.0"/>
  <rect x="77.0" y="-1039.0" width="1107.0" height="462.99999999999994" fill="none" stroke="red" stroke-width="10.0" /><rect x="56.0" y="-465.0" width="1127.0" height="294.00000000000006" fill="none" stroke="red" stroke-width="10.0" />
</svg>
