<svg xmlns="http://www.w3.org/2000/svg"
  viewBox="19 -1384 1558.5 1264">
  <rect x="19" y="-1384" width="1558.5" height="1264" fill="white"/>
  <path d="M 69 -430 L 69 -449 L 93 -455 L 118 -463 L 172 -462 L 193 -462 L 223 -461.5 L 253 -461 L 284 -458.5 L 315 -456 L 344 -451 L 373 -446 L 391 -438 L 393 -436 L 394 -433.5 L 395 -431 L 396 -429 L 397 -427 L 397 -426 L 390 -417 L 384 -418 L 376.5 -419 L 369 -420 L 360 -420 L 348 -420 L 337.5 -419 L 327 -418 L 316 -417 L 312 -417 L 308.5 -416 L 305 -415 L 305 -409 L 305 -393 L 335 -364 L 360 -339 L 396.5 -318 L 433 -297 L 476 -281 L 519 -265 L 565.5 -253 L 612 -241 L 657.5 -233 L 703 -225 L 744.5 -221 L 786 -217 L 819 -217 L 837 -217 L 858.5 -218 L 880 -219 L 902.5 -223 L 925 -227 L 946.5 -234 L 968 -241 L 984.5 -253 L 1001 -265 L 1011 -282 L 1021 -299 L 1021 -323 L 1018 -350 L 1010 -392 L 924 -436 L 921 -440 L 919.5 -443.5 L 918 -447 L 915 -452 L 928 -455 L 941.5 -456 L 955 -457 L 973 -459 L 990 -461 L 1001.5 -462.5 L 1013 -464 L 1025 -464 L 1065 -464 L 1095 -456.5 L 1125 -449 L 1149 -436 L 1157 -432 L 1164.5 -424.5 L 1172 -417 L 1180 -409 L 1196 -372 L 1196 -339 L 1196 -301 L 1177.5 -273.5 L 1159 -246 L 1128.5 -227.5 L 1098 -209 L 1059.5 -197.5 L 1021 -186 L 981.5 -180 L 942 -174 L 905.5 -172 L 869 -170 L 841 -170 L 770 -170 L 693 -179 L 616 -188 L 527 -206 L 459 -220 L 387 -245 L 315 -270 L 236 -306 L 69 -384 Z M 348 -870 L 343 -870 L 340 -877 L 340 -878 L 342 -879 L 343 -879 L 346 -880 L 348 -881 L 344 -887 L 340 -892 L 346 -895 L 392 -912 L 432.5 -925 L 473 -938 L 507 -949 L 541 -960 L 568.5 -970 L 596 -980 L 617 -991 L 696 -1033 L 742 -1105 L 749 -1117 L 756.5 -1134.5 L 764 -1152 L 772.5 -1175.5 L 781 -1199 L 792.5 -1228.5 L 804 -1258 L 820 -1293 L 821 -1296 L 824.5 -1297 L 828 -1298 L 832 -1298.5 L 836 -1299 L 840.5 -1300 L 845 -1301 L 850 -1304 L 862 -1311 L 869.5 -1315 L 877 -1319 L 881 -1321 L 893 -1327 L 902 -1329.5 L 911 -1332 L 914 -1334 L 927 -1334 L 932 -1334 L 937 -1333.5 L 942 -1333 L 948 -1331 L 952 -1330 L 956.5 -1329 L 961 -1328 L 966 -1327.5 L 971 -1327 L 975.5 -1325 L 980 -1323 L 984 -1319 L 985 -1318 L 983.5 -1316.5 L 982 -1315 L 979.5 -1314 L 977 -1313 L 974 -1311.5 L 971 -1310 L 970 -1309 L 932 -1283 L 929 -1276 L 921 -1242 L 914 -1218 L 907 -1194 L 899 -1174 L 897 -1168 L 892.5 -1159.5 L 888 -1151 L 882 -1142 L 876 -1133 L 870.5 -1124.5 L 865 -1116 L 861 -1111 L 861 -1111 L 863 -1111 L 865 -1111 L 860 -1107 L 856 -1103 L 856 -1103 L 861 -1111 L 857 -1109 L 846.5 -1102 L 836 -1095 L 822.5 -1085 L 809 -1075 L 793 -1062.5 L 777 -1050 L 761 -1037 L 745 -1025 L 732.5 -1014.5 L 720 -1004 L 709 -995 L 687 -977 L 679 -968 L 679 -967 L 678 -966 L 678 -966 L 677 -965 L 682 -967 L 686.5 -969.5 L 691 -972 L 695 -974 L 696 -975 L 697.5 -975.5 L 699 -976 L 700 -976 L 701 -976 L 701 -977 L 703 -977 L 692 -971 L 677 -963 L 677 -965 L 658 -956 L 639 -948 L 620 -940 L 601 -933 L 571 -921 L 553 -918 L 544 -917 L 530 -916.5 L 516 -916 L 504.5 -915.5 L 493 -915 L 487 -914 L 481 -913 L 489 -910 L 497 -907 L 505 -906 L 513 -905 L 522 -905 L 534 -905 L 546.5 -906 L 559 -907 L 571 -907 L 596 -907 L 619.5 -900 L 643 -893 L 664 -877 L 682 -863 L 682 -858 L 685 -850 L 671 -851 L 658 -851 L 647 -852 L 636 -853 L 623 -855 L 605 -858 L 582.5 -861 L 560 -864 L 534 -868 L 507 -872 L 484.5 -874 L 462 -876 L 440 -876 L 436 -877 L 432 -876.5 L 428 -876 L 424 -876 L 410 -876 L 396 -876 L 382 -876 L 368 -874 L 365 -873 L 360.5 -871.5 L 356 -870 Z M 892 -559 L 887 -559 L 884 -566 L 884 -567 L 885 -568 L 886 -568 L 890 -569 L 892 -570 L 887 -576 L 883 -581 L 890 -584 L 936 -601 L 976.5 -614 L 1017 -627 L 1050.5 -638 L 1084 -649 L 1112 -659 L 1140 -669 L 1160 -680 L 1239 -722 L 1285 -794 L 1292 -806 L 1299.5 -823.5 L 1307 -841 L 1316 -864.5 L 1325 -888 L 1336.5 -917.5 L 1348 -947 L 1363 -982 L 1364 -985 L 1368 -986 L 1372 -987 L 1375.5 -987.5 L 1379 -988 L 1384 -989 L 1389 -990 L 1393 -993 L 1405 -1000 L 1412.5 -1004 L 1420 -1008 L 1424 -1010 L 1436 -1016 L 1445 -1018.5 L 1454 -1021 L 1457 -1022 L 1470 -1022 L 1475 -1022 L 1480.5 -1022 L 1486 -1022 L 1491 -1020 L 1495 -1019 L 1499.5 -1018 L 1504 -1017 L 1509 -1016.5 L 1514 -1016 L 1518.5 -1014 L 1523 -1012 L 1527 -1008 L 1528 -1007 L 1527 -1005.5 L 1526 -1004 L 1523.5 -1002.5 L 1521 -1001 L 1518 -1000 L 1515 -999 L 1513 -998 L 1475 -972 L 1473 -965 L 1465 -931 L 1457.5 -907 L 1450 -883 L 1443 -863 L 1441 -857 L 1436.5 -848.5 L 1432 -840 L 1426 -831 L 1420 -822 L 1414 -813.5 L 1408 -805 L 1404 -800 L 1404 -800 L 1406 -800 L 1408 -800 L 1404 -796 L 1400 -792 L 1400 -792 L 1404 -800 L 1400 -798 L 1390 -791 L 1380 -784 L 1366 -774 L 1352 -764 L 1336 -751.5 L 1320 -739 L 1304 -726 L 1288 -714 L 1275.5 -703.5 L 1263 -693 L 1252 -684 L 1230 -666 L 1223 -657 L 1223 -656 L 1221 -655 L 1221 -655 L 1221 -654 L 1226 -656 L 1230.5 -658.5 L 1235 -661 L 1239 -663 L 1240 -664 L 1241 -664.5 L 1242 -665 L 1243 -665 L 1244 -665 L 1245 -666 L 1247 -666 L 1235 -660 L 1220 -652 L 1221 -654 L 1202 -645 L 1183 -637 L 1164 -629 L 1144 -622 L 1114 -610 L 1096 -607 L 1087 -606 L 1073.5 -605.5 L 1060 -605 L 1048 -604.5 L 1036 -604 L 1030.5 -603 L 1025 -602 L 1032 -599 L 1040 -596 L 1048.5 -595 L 1057 -594 L 1065 -594 L 1077 -594 L 1089.5 -595 L 1102 -596 L 1115 -596 L 1140 -596 L 1163.5 -589 L 1187 -582 L 1207 -566 L 1225 -552 L 1226 -547 L 1229 -539 L 1215 -540 L 1202 -540 L 1190.5 -541 L 1179 -542 L 1167 -544 L 1149 -547 L 1126.5 -550 L 1104 -553 L 1077 -557 L 1050 -561 L 1027.5 -562.5 L 1005 -564 L 983 -564 L 979 -565 L 975 -565 L 971 -565 L 967 -565 L 953 -565 L 939.5 -564.5 L 926 -564 L 912 -563 L 909 -562 L 904.5 -560.5 L 900 -559 Z M 342 -762 L 345 -766 L 364 -767 L 380 -767 L 411 -762 L 427 -760 L 436.5 -759 L 446 -758 L 453 -757 L 516 -748 L 532 -661 L 542 -608 L 553 -593 L 561 -579 L 581 -578 L 586 -577 L 593 -576 L 596 -576 L 598 -575 L 597 -568 L 591 -563.5 L 585 -559 L 576.5 -556 L 568 -553 L 560 -552 L 552 -551 L 546 -551 L 527 -551 L 505.5 -556.5 L 484 -562 L 458 -571 L 407 -590 L 389 -701 L 383 -749 L 359 -750 L 346 -750 L 338 -750 L 337 -751 L 336 -753 Z M 563 -764 L 563 -769 L 577 -769 L 581 -769 L 588 -769 L 598.5 -767.5 L 609 -766 L 623 -764 L 638 -762 L 646.5 -760 L 655 -758 L 662 -757 L 725 -747 L 743 -661 L 753 -610 L 764 -593 L 769 -584 L 790 -579 L 808 -575 L 807 -575 L 807 -572 L 806.5 -572.5 L 806 -573 L 803 -567 L 796 -553 L 757 -553 L 738 -553 L 716.5 -558 L 695 -563 L 668 -573 L 617 -592 L 600 -706 L 593 -753 L 580 -753 L 580 -753 L 579 -753 L 578 -753 L 578 -753 L 577 -753 L 572 -752 L 562 -753 Z" fill="black" fill-opacity="0.25" stroke="black" stroke-width="4"/>
  <rect x="69" y="-464" width="1127" height="294" fill="none" stroke="red" stroke-width="10" /><rect x="336" y="-767" width="262" height="216" fill="none" stroke="red" stroke-width="10" /><rect x="562" y="-769" width="246" height="216" fill="none" stroke="red" stroke-width="10" /><rect x="340" y="-1011.9" width="389.4" height="161" fill="none" stroke="red" stroke-width="10" /><rect x="656.4" y="-1173" width="242.3" height="161.1" fill="none" stroke="red" stroke-width="10" /><rect x="771.6" y="-1334" width="213.4" height="161" fill="none" stroke="red" stroke-width="10" /><rect x="883" y="-700.6" width="389" height="160.7" fill="none" stroke="red" stroke-width="10" /><rect x="1198.7" y="-861.3" width="243.7" height="160.7" fill="none" stroke="red" stroke-width="10" /><rect x="1314.8" y="-1022" width="213.2" height="160.7" fill="none" stroke="red" stroke-width="10" />
</svg>
