<svg xmlns="http://www.w3.org/2000/svg"
  viewBox="-434.0 -1231.0 864.0 455.2307692307693">
  <rect x="-434.0" y="-1231.0" width="864.0" height="455.2307692307693" fill="white"/>
  <path d="M 122.0 -1127.0 L 127.0 -1122.0 L 129.0 -1118.0 L 135.0 -1110.0 L 137.0 -1101.5 L 139.0 -1093.0 L 143.0 -1085.0 L 156.0 -1049.0 L 159.0 -1049.0 L 161.0 -1047.0 L 162.0 -1046.0 L 164.0 -1046.0 L 166.0 -1046.0 L 169.0 -1043.0 L 174.0 -1024.0 L -84.0 -1026.0 L -80.0 -1021.0 L -78.0 -1016.0 L -72.0 -1008.0 L -69.5 -999.5 L -67.0 -991.0 L -64.0 -983.0 L -61.0 -975.0 L -58.5 -967.5 L -56.0 -960.0 L -51.0 -952.0 L -40.0 -952.0 L -24.0 -952.0 L -12.0 -948.0 L -6.0 -941.0 L 0.0 -922.0 L -259.0 -926.0 L -253.0 -920.0 L -251.0 -914.0 L -245.0 -906.0 L -242.5 -898.0 L -240.0 -890.0 L -237.0 -882.0 L -223.0 -848.0 L -219.0 -832.0 L -219.0 -831.0 L -231.0 -830.0 L -237.0 -830.0 L -245.0 -829.5 L -253.0 -829.0 L -261.0 -827.0 L -282.0 -823.0 L -305.0 -832.0 L -308.0 -833.0 L -311.5 -835.5 L -315.0 -838.0 L -323.0 -844.0 L -356.0 -916.0 L -364.0 -932.0 L -381.0 -941.0 L -384.0 -957.0 L -203.0 -954.0 L -153.0 -954.0 L -181.0 -1016.0 L -190.0 -1034.0 L -207.0 -1041.0 L -209.0 -1057.0 L 53.0 -1052.0 L 16.0 -1135.0 L -1.0 -1143.0 L -4.0 -1159.0 L 178.0 -1155.0 L 296.0 -1154.0 L 340.0 -1154.0 L 356.0 -1154.0 L 367.0 -1149.0 L 369.0 -1148.0 L 370.5 -1147.5 L 372.0 -1147.0 L 375.0 -1144.0 L 380.0 -1125.0 Z M -161.0 -1143.0 L -161.0 -1159.0 L -150.0 -1170.0 L -139.0 -1181.0 L -125.0 -1181.0 L -109.0 -1181.0 L -98.0 -1170.0 L -87.0 -1159.0 L -87.0 -1143.0 L -87.0 -1127.0 L -98.0 -1117.0 L -109.0 -1107.0 L -125.0 -1107.0 L -139.0 -1107.0 L -150.0 -1117.0 L -161.0 -1127.0 Z" fill="black" fill-opacity="0.25" stroke="black" stroke-width="4.0"/>
  <rect x="-381.6" y="-944.2" width="381.6" height="118.40000000000006" fill="none" stroke="red" stroke-width="10.0" /><rect x="-384.0" y="-1062.6" width="558.0" height="118.39999999999995" fill="none" stroke="red" stroke-width="10.0" /><rect x="-161.0" y="-1181.0" width="541.0" height="118.40000000000006" fill="none" stroke="red" stroke-width="10.0" />
</svg>
