<svg xmlns="http://www.w3.org/2000/svg"
  viewBox="-429.0 -1216.0 865.0 433.2307692307693">
  <rect x="-429.0" y="-1216.0" width="865.0" height="433.2307692307693" fill="white"/>
  <path d="M 128.0 -1134.0 L 133.0 -1129.0 L 134.0 -1125.0 L 140.0 -1117.0 L 142.5 -1108.5 L 145.0 -1100.0 L 148.0 -1092.0 L 162.0 -1056.0 L 165.0 -1056.0 L 167.0 -1054.0 L 168.0 -1053.0 L 170.0 -1053.0 L 172.0 -1053.0 L 175.0 -1050.0 L 180.0 -1031.0 L -78.0 -1033.0 L -74.0 -1028.0 L -72.0 -1023.0 L -66.0 -1015.0 L -63.5 -1006.5 L -61.0 -998.0 L -58.0 -990.0 L -55.0 -982.0 L -52.5 -974.5 L -50.0 -967.0 L -46.0 -959.0 L -35.0 -959.0 L -19.0 -959.0 L -6.0 -955.0 L 0.0 -948.0 L 6.0 -929.0 L -254.0 -933.0 L -248.0 -927.0 L -246.0 -921.0 L -240.0 -913.0 L -237.5 -905.0 L -235.0 -897.0 L -232.0 -889.0 L -217.0 -855.0 L -213.0 -839.0 L -213.0 -838.0 L -225.0 -837.0 L -231.0 -837.0 L -239.0 -836.5 L -247.0 -836.0 L -255.0 -834.0 L -276.0 -830.0 L -299.0 -839.0 L -302.0 -840.0 L -306.0 -842.5 L -310.0 -845.0 L -318.0 -851.0 L -350.0 -923.0 L -358.0 -939.0 L -376.0 -948.0 L -379.0 -964.0 L -197.0 -961.0 L -147.0 -961.0 L -175.0 -1023.0 L -185.0 -1041.0 L -202.0 -1048.0 L -203.0 -1064.0 L 59.0 -1059.0 L 21.0 -1142.0 L 4.0 -1150.0 L 1.0 -1166.0 L 184.0 -1162.0 L 301.0 -1161.0 L 345.0 -1161.0 L 361.0 -1161.0 L 373.0 -1156.0 L 375.0 -1155.0 L 376.5 -1154.5 L 378.0 -1154.0 L 381.0 -1151.0 L 386.0 -1132.0 Z" fill="black" fill-opacity="0.25" stroke="black" stroke-width="4.0"/>
  <rect x="-367.70000000000005" y="-943.8" width="373.70000000000005" height="110.99999999999999" fill="none" stroke="red" stroke-width="10.0" /><rect x="-379.0" y="-1054.8999999999999" width="558.9999999999999" height="111.09999999999998" fill="none" stroke="red" stroke-width="10.0" /><rect x="-203.0" y="-1166.0" width="589.0" height="111.09999999999998" fill="none" stroke="red" stroke-width="10.0" />
</svg>
