<svg xmlns="http://www.w3.org/2000/svg"
  viewBox="-580.0 -1217.0 1010.0 433.2307692307693">
  <rect x="-580.0" y="-1217.0" width="1010.0" height="433.2307692307693" fill="white"/>
  <path d="M 122.0 -1135.0 L 127.0 -1130.0 L 129.0 -1126.0 L 135.0 -1118.0 L 137.0 -1109.5 L 139.0 -1101.0 L 143.0 -1093.0 L 156.0 -1057.0 L 159.0 -1057.0 L 161.0 -1055.0 L 162.0 -1054.0 L 164.0 -1054.0 L 166.0 -1054.0 L 169.0 -1051.0 L 174.0 -1032.0 L -84.0 -1034.0 L -80.0 -1029.0 L -78.0 -1024.0 L -72.0 -1016.0 L -69.5 -1007.5 L -67.0 -999.0 L -64.0 -991.0 L -61.0 -983.0 L -58.5 -975.5 L -56.0 -968.0 L -51.0 -960.0 L -40.0 -960.0 L -24.0 -960.0 L -12.0 -956.0 L -6.0 -949.0 L 0.0 -930.0 L -259.0 -934.0 L -253.0 -928.0 L -251.0 -922.0 L -245.0 -914.0 L -242.5 -906.0 L -240.0 -898.0 L -237.0 -890.0 L -223.0 -856.0 L -219.0 -840.0 L -219.0 -839.0 L -231.0 -838.0 L -237.0 -838.0 L -245.0 -837.5 L -253.0 -837.0 L -261.0 -835.0 L -282.0 -831.0 L -305.0 -840.0 L -308.0 -841.0 L -311.5 -843.5 L -315.0 -846.0 L -323.0 -852.0 L -356.0 -924.0 L -364.0 -940.0 L -381.0 -949.0 L -384.0 -965.0 L -203.0 -962.0 L -153.0 -962.0 L -181.0 -1024.0 L -190.0 -1042.0 L -207.0 -1049.0 L -209.0 -1065.0 L 53.0 -1060.0 L 16.0 -1143.0 L -1.0 -1151.0 L -4.0 -1167.0 L 178.0 -1163.0 L 296.0 -1162.0 L 340.0 -1162.0 L 356.0 -1162.0 L 367.0 -1157.0 L 369.0 -1156.0 L 370.5 -1155.5 L 372.0 -1155.0 L 375.0 -1152.0 L 380.0 -1133.0 Z M -530.0 -926.0 L -530.0 -942.0 L -519.0 -952.5 L -508.0 -963.0 L -494.0 -963.0 L -478.0 -963.0 L -467.0 -952.5 L -456.0 -942.0 L -456.0 -926.0 L -456.0 -910.0 L -467.0 -900.0 L -478.0 -890.0 L -494.0 -890.0 L -508.0 -890.0 L -519.0 -900.0 L -530.0 -910.0 Z" fill="black" fill-opacity="0.25" stroke="black" stroke-width="4.0"/>
  <rect x="-530.0" y="-944.8" width="530.0" height="110.99999999999999" fill="none" stroke="red" stroke-width="10.0" /><rect x="-527.0" y="-1055.9" width="701.0000000000001" height="111.1000000000001" fill="none" stroke="red" stroke-width="10.0" /><rect x="-209.0" y="-1167.0" width="589.0" height="111.09999999999998" fill="none" stroke="red" stroke-width="10.0" />
</svg>
