<svg xmlns="http://www.w3.org/2000/svg"
  viewBox="-29.0 -1311.1666666666667 1252.0 1266.1666666666667">
  <rect x="-29.0" y="-1311.1666666666667" width="1252.0" height="1266.1666666666667" fill="white"/>
  <path d="M 738.0 -691.0 L 732.0 -678.0 L 726.0 -659.5 L 720.0 -641.0 L 713.0 -616.0 L 851.0 -610.0 L 1082.0 -601.0 L 1127.0 -555.0 L 985.0 -555.0 L 878.5 -555.0 L 772.0 -555.0 L 693.0 -556.0 L 676.0 -519.0 L 647.0 -490.0 L 636.0 -476.0 L 604.0 -466.0 L 587.0 -461.0 L 572.0 -460.0 L 557.0 -459.0 L 543.0 -458.0 L 521.0 -458.0 L 512.0 -461.0 L 499.0 -466.0 L 507.0 -475.0 L 532.0 -511.0 L 548.0 -561.0 L 535.0 -561.0 L 335.0 -570.0 L 237.0 -619.0 L 153.0 -658.0 L 51.0 -783.0 L 43.0 -797.0 L 38.0 -824.0 L 25.0 -897.0 L 21.0 -906.0 L 52.0 -910.0 L 90.0 -916.0 L 128.0 -921.0 L 143.0 -921.0 L 186.0 -921.0 L 215.0 -902.0 L 223.0 -897.0 L 223.0 -877.0 L 220.0 -832.0 L 220.0 -818.0 L 224.0 -811.0 L 316.0 -680.0 L 527.0 -638.0 L 535.0 -635.0 L 545.5 -634.0 L 556.0 -633.0 L 568.0 -632.0 L 573.0 -648.0 L 578.0 -660.0 L 583.0 -672.0 L 588.0 -683.0 L 596.0 -700.0 L 626.0 -700.0 L 687.0 -694.0 L 700.0 -693.0 L 712.5 -692.0 L 725.0 -691.0 Z M 784.0 -1031.0 L 778.0 -1019.0 L 771.5 -1000.5 L 765.0 -982.0 L 759.0 -957.0 L 896.0 -950.0 L 1127.0 -941.0 L 1173.0 -896.0 L 1030.0 -896.0 L 924.0 -896.0 L 818.0 -896.0 L 738.0 -897.0 L 721.0 -859.0 L 693.0 -830.0 L 682.0 -816.0 L 649.0 -806.0 L 631.0 -801.0 L 617.0 -800.0 L 603.0 -799.0 L 588.0 -799.0 L 566.0 -799.0 L 557.0 -802.0 L 544.0 -808.0 L 552.0 -816.0 L 577.0 -852.0 L 593.0 -902.0 L 581.0 -902.0 L 381.0 -911.0 L 282.0 -960.0 L 198.0 -999.0 L 96.0 -1124.0 L 88.0 -1138.0 L 83.0 -1164.0 L 70.0 -1238.0 L 66.0 -1247.0 L 97.0 -1251.0 L 135.0 -1257.0 L 173.0 -1262.0 L 188.0 -1261.0 L 231.0 -1260.0 L 260.0 -1242.0 L 267.0 -1238.0 L 268.0 -1218.0 L 265.0 -1172.0 L 265.0 -1158.0 L 270.0 -1152.0 L 363.0 -1021.0 L 573.0 -978.0 L 581.0 -975.0 L 591.0 -974.5 L 601.0 -974.0 L 613.0 -972.0 L 618.0 -988.0 L 623.0 -1000.0 L 628.0 -1012.0 L 634.0 -1024.0 L 642.0 -1041.0 L 671.0 -1041.0 L 732.0 -1035.0 L 745.0 -1033.0 L 758.0 -1032.0 L 771.0 -1031.0 Z M 748.0 -328.0 L 742.0 -316.0 L 735.5 -297.5 L 729.0 -279.0 L 723.0 -254.0 L 860.0 -247.0 L 1091.0 -238.0 L 1137.0 -193.0 L 995.0 -193.0 L 888.5 -193.0 L 782.0 -193.0 L 702.0 -194.0 L 685.0 -156.0 L 657.0 -127.0 L 646.0 -113.0 L 613.0 -103.0 L 596.0 -98.0 L 581.0 -97.0 L 566.0 -96.0 L 552.0 -95.0 L 530.0 -95.0 L 521.0 -99.0 L 508.0 -105.0 L 517.0 -113.0 L 542.0 -149.0 L 557.0 -199.0 L 544.0 -199.0 L 344.0 -208.0 L 246.0 -257.0 L 162.0 -296.0 L 60.0 -421.0 L 52.0 -435.0 L 48.0 -461.0 L 35.0 -535.0 L 30.0 -544.0 L 61.0 -548.0 L 99.0 -553.0 L 137.0 -558.0 L 152.0 -558.0 L 195.0 -557.0 L 224.0 -539.0 L 231.0 -535.0 L 232.0 -514.0 L 229.0 -469.0 L 229.0 -455.0 L 233.0 -449.0 L 325.0 -318.0 L 537.0 -275.0 L 545.0 -272.0 L 555.0 -271.5 L 565.0 -271.0 L 577.0 -269.0 L 582.0 -285.0 L 587.0 -297.0 L 592.0 -309.0 L 598.0 -321.0 L 606.0 -338.0 L 635.0 -338.0 L 696.0 -332.0 L 708.0 -330.0 L 722.0 -329.0 L 736.0 -328.0 Z" fill="black" fill-opacity="0.25" stroke="black" stroke-width="4.0"/>
  <rect x="21.0" y="-921.0" width="1106.0" height="463.0" fill="none" stroke="red" stroke-width="10.0" /><rect x="66.0" y="-1262.0" width="1107.0" height="462.99999999999994" fill="none" stroke="red" stroke-width="10.0" /><rect x="30.0" y="-558.0" width="1107.0" height="463.00000000000006" fill="none" stroke="red" stroke-width="10.0" />
</svg>
