<svg xmlns="http://www.w3.org/2000/svg"
  viewBox="-29 -1311.167 1252 1266.167">
  <rect x="-29" y="-1311.167" width="1252" height="1266.167" fill="white"/>
  <path d="M 738 -691 L 732 -678 L 726 -659.5 L 720 -641 L 713 -616 L 851 -610 L 1082 -601 L 1127 -555 L 985 -555 L 878.5 -555 L 772 -555 L 693 -556 L 676 -519 L 647 -490 L 636 -476 L 604 -466 L 587 -461 L 572 -460 L 557 -459 L 543 -458 L 521 -458 L 512 -461 L 499 -466 L 507 -475 L 532 -511 L 548 -561 L 535 -561 L 335 -570 L 237 -619 L 153 -658 L 51 -783 L 43 -797 L 38 -824 L 25 -897 L 21 -906 L 52 -910 L 90 -916 L 128 -921 L 143 -921 L 186 -921 L 215 -902 L 223 -897 L 223 -877 L 220 -832 L 220 -818 L 224 -811 L 316 -680 L 527 -638 L 535 -635 L 545.5 -634 L 556 -633 L 568 -632 L 573 -648 L 578 -660 L 583 -672 L 588 -683 L 596 -700 L 626 -700 L 687 -694 L 700 -693 L 712.5 -692 L 725 -691 Z M 784 -1031 L 778 -1019 L 771.5 -1000.5 L 765 -982 L 759 -957 L 896 -950 L 1127 -941 L 1173 -896 L 1030 -896 L 924 -896 L 818 -896 L 738 -897 L 721 -859 L 693 -830 L 682 -816 L 649 -806 L 631 -801 L 617 -800 L 603 -799 L 588 -799 L 566 -799 L 557 -802 L 544 -808 L 552 -816 L 577 -852 L 593 -902 L 581 -902 L 381 -911 L 282 -960 L 198 -999 L 96 -1124 L 88 -1138 L 83 -1164 L 70 -1238 L 66 -1247 L 97 -1251 L 135 -1257 L 173 -1262 L 188 -1261 L 231 -1260 L 260 -1242 L 267 -1238 L 268 -1218 L 265 -1172 L 265 -1158 L 270 -1152 L 363 -1021 L 573 -978 L 581 -975 L 591 -974.5 L 601 -974 L 613 -972 L 618 -988 L 623 -1000 L 628 -1012 L 634 -1024 L 642 -1041 L 671 -1041 L 732 -1035 L 745 -1033 L 758 -1032 L 771 -1031 Z M 748 -328 L 742 -316 L 735.5 -297.5 L 729 -279 L 723 -254 L 860 -247 L 1091 -238 L 1137 -193 L 995 -193 L 888.5 -193 L 782 -193 L 702 -194 L 685 -156 L 657 -127 L 646 -113 L 613 -103 L 596 -98 L 581 -97 L 566 -96 L 552 -95 L 530 -95 L 521 -99 L 508 -105 L 517 -113 L 542 -149 L 557 -199 L 544 -199 L 344 -208 L 246 -257 L 162 -296 L 60 -421 L 52 -435 L 48 -461 L 35 -535 L 30 -544 L 61 -548 L 99 -553 L 137 -558 L 152 -558 L 195 -557 L 224 -539 L 231 -535 L 232 -514 L 229 -469 L 229 -455 L 233 -449 L 325 -318 L 537 -275 L 545 -272 L 555 -271.5 L 565 -271 L 577 -269 L 582 -285 L 587 -297 L 592 -309 L 598 -321 L 606 -338 L 635 -338 L 696 -332 L 708 -330 L 722 -329 L 736 -328 Z" fill="black" fill-opacity="0.25" stroke="black" stroke-width="4"/>
  <rect x="21" y="-921" width="1106" height="463" fill="none" stroke="red" stroke-width="10" /><rect x="66" y="-1262" width="1107" height="463" fill="none" stroke="red" stroke-width="10" /><rect x="30" y="-558" width="1107" height="463" fill="none" stroke="red" stroke-width="10" />
</svg>
