<svg xmlns="http://www.w3.org/2000/svg"
  viewBox="5.429 -490 438.571 364">
  <rect x="5.429" y="-490" width="438.571" height="364" fill="white"/>
  <path d="M 362 -203 L 351 -189 L 328 -182 L 305 -176 L 275 -176 L 253 -176 L 233.5 -178.5 L 214 -181 L 192 -183 L 170 -186 L 157 -191 L 144 -196 L 136 -199 L 90 -218 L 59 -234 L 56 -238 L 54 -241 L 59 -245 L 60 -246 L 72 -246 L 80 -246 L 88.5 -246 L 97 -246 L 109 -243 L 175 -234 L 187 -234 L 206 -234 L 214 -242 L 220 -248 L 220 -259 L 220 -276 L 193 -321 L 167 -366 L 167 -390 L 167 -411 L 183 -426 L 189 -432 L 217 -437 L 230 -439 L 244.5 -439.5 L 259 -440 L 275 -440 L 292 -440 L 310 -440 L 328 -440 L 347 -437 L 383 -432 L 384 -431 L 393 -414 L 394 -404 L 394 -390 L 375 -390 L 366 -390 L 347 -394 L 328 -399 L 320 -399 L 314 -399 L 314 -394 L 314 -375 L 347 -324 L 380 -273 L 380 -245 L 379 -224 Z" fill="black" fill-opacity="0.25" stroke="black" stroke-width="4"/>
  <rect x="54" y="-440" width="340" height="264" fill="none" stroke="red" stroke-width="10" />
</svg>
