<svg xmlns="http://www.w3.org/2000/svg"
  viewBox="5.428571428571431 -490.0 438.57142857142856 364.0">
  <rect x="5.428571428571431" y="-490.0" width="438.57142857142856" height="364.0" fill="white"/>
  <path d="M 362.0 -203.0 L 351.0 -189.0 L 328.0 -182.0 L 305.0 -176.0 L 275.0 -176.0 L 253.0 -176.0 L 233.5 -178.5 L 214.0 -181.0 L 192.0 -183.0 L 170.0 -186.0 L 157.0 -191.0 L 144.0 -196.0 L 136.0 -199.0 L 90.0 -218.0 L 59.0 -234.0 L 56.0 -238.0 L 54.0 -241.0 L 59.0 -245.0 L 60.0 -246.0 L 72.0 -246.0 L 80.0 -246.0 L 88.5 -246.0 L 97.0 -246.0 L 109.0 -243.0 L 175.0 -234.0 L 187.0 -234.0 L 206.0 -234.0 L 214.0 -242.0 L 220.0 -248.0 L 220.0 -259.0 L 220.0 -276.0 L 193.0 -321.0 L 167.0 -366.0 L 167.0 -390.0 L 167.0 -411.0 L 183.0 -426.0 L 189.0 -432.0 L 217.0 -437.0 L 230.0 -439.0 L 244.5 -439.5 L 259.0 -440.0 L 275.0 -440.0 L 292.0 -440.0 L 310.0 -440.0 L 328.0 -440.0 L 347.0 -437.0 L 383.0 -432.0 L 384.0 -431.0 L 393.0 -414.0 L 394.0 -404.0 L 394.0 -390.0 L 375.0 -390.0 L 366.0 -390.0 L 347.0 -394.0 L 328.0 -399.0 L 320.0 -399.0 L 314.0 -399.0 L 314.0 -394.0 L 314.0 -375.0 L 347.0 -324.0 L 380.0 -273.0 L 380.0 -245.0 L 379.0 -224.0 Z" fill="black" fill-opacity="0.25" stroke="black" stroke-width="4.0"/>
  <rect x="54.0" y="-440.0" width="340.0" height="264.0" fill="none" stroke="red" stroke-width="10.0" />
</svg>
